<?xml version="1.0" encoding="utf-8" standalone="no"?>
<!DOCTYPE svg PUBLIC "-//W3C//DTD SVG 1.1//EN"
  "http://www.w3.org/Graphics/SVG/1.1/DTD/svg11.dtd">
<svg xmlns:xlink="http://www.w3.org/1999/xlink" width="1440pt" height="288pt" viewBox="0 0 1440 288" xmlns="http://www.w3.org/2000/svg" version="1.1">
 <metadata>
  <rdf:RDF xmlns:dc="http://purl.org/dc/elements/1.1/" xmlns:cc="http://creativecommons.org/ns#" xmlns:rdf="http://www.w3.org/1999/02/22-rdf-syntax-ns#">
   <cc:Work>
    <dc:type rdf:resource="http://purl.org/dc/dcmitype/StillImage"/>
    <dc:date>2024-11-24T11:05:51.379755</dc:date>
    <dc:format>image/svg+xml</dc:format>
    <dc:creator>
     <cc:Agent>
      <dc:title>Matplotlib v3.9.2, https://matplotlib.org/</dc:title>
     </cc:Agent>
    </dc:creator>
   </cc:Work>
  </rdf:RDF>
 </metadata>
 <defs>
  <style type="text/css">*{stroke-linejoin: round; stroke-linecap: butt}</style>
 </defs>
 <g id="figure_1">
  <g id="patch_1">
   <path d="M 0 288 
L 1440 288 
L 1440 0 
L 0 0 
z
" style="fill: #ffffff"/>
  </g>
  <g id="axes_1">
   <g id="patch_2">
    <path d="M 36.457115 246.90101 
L 277.413782 246.90101 
L 277.413782 16.638052 
L 36.457115 16.638052 
z
" style="fill: #ffffff"/>
   </g>
   <g id="patch_3">
    <path d="M 47.409691 246.90101 
L 49.488456 246.90101 
L 49.488456 246.475189 
L 47.409691 246.475189 
z
" clip-path="url(#p67134152f6)" style="fill: #1f77b4"/>
   </g>
   <g id="patch_4">
    <path d="M 49.71943 246.90101 
L 51.798195 246.90101 
L 51.798195 246.475189 
L 49.71943 246.475189 
z
" clip-path="url(#p67134152f6)" style="fill: #1f77b4"/>
   </g>
   <g id="patch_5">
    <path d="M 52.029169 246.90101 
L 54.107934 246.90101 
L 54.107934 245.623546 
L 52.029169 245.623546 
z
" clip-path="url(#p67134152f6)" style="fill: #1f77b4"/>
   </g>
   <g id="patch_6">
    <path d="M 54.338908 246.90101 
L 56.417674 246.90101 
L 56.417674 244.346081 
L 54.338908 244.346081 
z
" clip-path="url(#p67134152f6)" style="fill: #1f77b4"/>
   </g>
   <g id="patch_7">
    <path d="M 56.648648 246.90101 
L 58.727413 246.90101 
L 58.727413 243.068617 
L 56.648648 243.068617 
z
" clip-path="url(#p67134152f6)" style="fill: #1f77b4"/>
   </g>
   <g id="patch_8">
    <path d="M 58.958387 246.90101 
L 61.037152 246.90101 
L 61.037152 240.513688 
L 58.958387 240.513688 
z
" clip-path="url(#p67134152f6)" style="fill: #1f77b4"/>
   </g>
   <g id="patch_9">
    <path d="M 61.268126 246.90101 
L 63.346891 246.90101 
L 63.346891 234.552187 
L 61.268126 234.552187 
z
" clip-path="url(#p67134152f6)" style="fill: #1f77b4"/>
   </g>
   <g id="patch_10">
    <path d="M 63.577865 246.90101 
L 65.65663 246.90101 
L 65.65663 227.313223 
L 63.577865 227.313223 
z
" clip-path="url(#p67134152f6)" style="fill: #1f77b4"/>
   </g>
   <g id="patch_11">
    <path d="M 65.887604 246.90101 
L 67.96637 246.90101 
L 67.96637 214.9644 
L 65.887604 214.9644 
z
" clip-path="url(#p67134152f6)" style="fill: #1f77b4"/>
   </g>
   <g id="patch_12">
    <path d="M 68.197344 246.90101 
L 70.276109 246.90101 
L 70.276109 199.209006 
L 68.197344 199.209006 
z
" clip-path="url(#p67134152f6)" style="fill: #1f77b4"/>
   </g>
   <g id="patch_13">
    <path d="M 70.507083 246.90101 
L 72.585848 246.90101 
L 72.585848 168.975682 
L 70.507083 168.975682 
z
" clip-path="url(#p67134152f6)" style="fill: #1f77b4"/>
   </g>
   <g id="patch_14">
    <path d="M 72.816822 246.90101 
L 74.895587 246.90101 
L 74.895587 134.484143 
L 72.816822 134.484143 
z
" clip-path="url(#p67134152f6)" style="fill: #1f77b4"/>
   </g>
   <g id="patch_15">
    <path d="M 75.126561 246.90101 
L 77.205327 246.90101 
L 77.205327 95.308568 
L 75.126561 95.308568 
z
" clip-path="url(#p67134152f6)" style="fill: #1f77b4"/>
   </g>
   <g id="patch_16">
    <path d="M 77.4363 246.90101 
L 79.515066 246.90101 
L 79.515066 79.978996 
L 77.4363 79.978996 
z
" clip-path="url(#p67134152f6)" style="fill: #1f77b4"/>
   </g>
   <g id="patch_17">
    <path d="M 79.74604 246.90101 
L 81.824805 246.90101 
L 81.824805 56.558815 
L 79.74604 56.558815 
z
" clip-path="url(#p67134152f6)" style="fill: #1f77b4"/>
   </g>
   <g id="patch_18">
    <path d="M 82.055779 246.90101 
L 84.134544 246.90101 
L 84.134544 43.358349 
L 82.055779 43.358349 
z
" clip-path="url(#p67134152f6)" style="fill: #1f77b4"/>
   </g>
   <g id="patch_19">
    <path d="M 84.365518 246.90101 
L 86.444283 246.90101 
L 86.444283 27.602955 
L 84.365518 27.602955 
z
" clip-path="url(#p67134152f6)" style="fill: #1f77b4"/>
   </g>
   <g id="patch_20">
    <path d="M 86.675257 246.90101 
L 88.754023 246.90101 
L 88.754023 35.267742 
L 86.675257 35.267742 
z
" clip-path="url(#p67134152f6)" style="fill: #1f77b4"/>
   </g>
   <g id="patch_21">
    <path d="M 88.984996 246.90101 
L 91.063762 246.90101 
L 91.063762 71.462566 
L 88.984996 71.462566 
z
" clip-path="url(#p67134152f6)" style="fill: #1f77b4"/>
   </g>
   <g id="patch_22">
    <path d="M 91.294736 246.90101 
L 93.373501 246.90101 
L 93.373501 90.198711 
L 91.294736 90.198711 
z
" clip-path="url(#p67134152f6)" style="fill: #1f77b4"/>
   </g>
   <g id="patch_23">
    <path d="M 93.604475 246.90101 
L 95.68324 246.90101 
L 95.68324 123.838606 
L 93.604475 123.838606 
z
" clip-path="url(#p67134152f6)" style="fill: #1f77b4"/>
   </g>
   <g id="patch_24">
    <path d="M 95.914214 246.90101 
L 97.992979 246.90101 
L 97.992979 157.904324 
L 95.914214 157.904324 
z
" clip-path="url(#p67134152f6)" style="fill: #1f77b4"/>
   </g>
   <g id="patch_25">
    <path d="M 98.223953 246.90101 
L 100.302719 246.90101 
L 100.302719 198.783184 
L 98.223953 198.783184 
z
" clip-path="url(#p67134152f6)" style="fill: #1f77b4"/>
   </g>
   <g id="patch_26">
    <path d="M 100.533692 246.90101 
L 102.612458 246.90101 
L 102.612458 214.538579 
L 100.533692 214.538579 
z
" clip-path="url(#p67134152f6)" style="fill: #1f77b4"/>
   </g>
   <g id="patch_27">
    <path d="M 102.843432 246.90101 
L 104.922197 246.90101 
L 104.922197 226.887401 
L 102.843432 226.887401 
z
" clip-path="url(#p67134152f6)" style="fill: #1f77b4"/>
   </g>
   <g id="patch_28">
    <path d="M 105.153171 246.90101 
L 107.231936 246.90101 
L 107.231936 236.255473 
L 105.153171 236.255473 
z
" clip-path="url(#p67134152f6)" style="fill: #1f77b4"/>
   </g>
   <g id="patch_29">
    <path d="M 107.46291 246.90101 
L 109.541675 246.90101 
L 109.541675 239.662045 
L 107.46291 239.662045 
z
" clip-path="url(#p67134152f6)" style="fill: #1f77b4"/>
   </g>
   <g id="patch_30">
    <path d="M 109.772649 246.90101 
L 111.851415 246.90101 
L 111.851415 244.771903 
L 109.772649 244.771903 
z
" clip-path="url(#p67134152f6)" style="fill: #1f77b4"/>
   </g>
   <g id="patch_31">
    <path d="M 112.082389 246.90101 
L 114.161154 246.90101 
L 114.161154 245.197724 
L 112.082389 245.197724 
z
" clip-path="url(#p67134152f6)" style="fill: #1f77b4"/>
   </g>
   <g id="patch_32">
    <path d="M 114.392128 246.90101 
L 116.470893 246.90101 
L 116.470893 244.346081 
L 114.392128 244.346081 
z
" clip-path="url(#p67134152f6)" style="fill: #1f77b4"/>
   </g>
   <g id="matplotlib.axis_1">
    <g id="xtick_1">
     <g id="line2d_1">
      <defs>
       <path id="md3f5025c0a" d="M 0 0 
L 0 3.5 
" style="stroke: #000000; stroke-width: 0.8"/>
      </defs>
      <g>
       <use xlink:href="#md3f5025c0a" x="80.923281" y="246.90101" style="stroke: #000000; stroke-width: 0.8"/>
      </g>
     </g>
     <g id="text_1">
      <!-- 1.35 -->
      <g transform="translate(65.337344 264.538822) scale(0.14 -0.14)">
       <defs>
        <path id="DejaVuSans-31" d="M 794 531 
L 1825 531 
L 1825 4091 
L 703 3866 
L 703 4441 
L 1819 4666 
L 2450 4666 
L 2450 531 
L 3481 531 
L 3481 0 
L 794 0 
L 794 531 
z
" transform="scale(0.015625)"/>
        <path id="DejaVuSans-2e" d="M 684 794 
L 1344 794 
L 1344 0 
L 684 0 
L 684 794 
z
" transform="scale(0.015625)"/>
        <path id="DejaVuSans-33" d="M 2597 2516 
Q 3050 2419 3304 2112 
Q 3559 1806 3559 1356 
Q 3559 666 3084 287 
Q 2609 -91 1734 -91 
Q 1441 -91 1130 -33 
Q 819 25 488 141 
L 488 750 
Q 750 597 1062 519 
Q 1375 441 1716 441 
Q 2309 441 2620 675 
Q 2931 909 2931 1356 
Q 2931 1769 2642 2001 
Q 2353 2234 1838 2234 
L 1294 2234 
L 1294 2753 
L 1863 2753 
Q 2328 2753 2575 2939 
Q 2822 3125 2822 3475 
Q 2822 3834 2567 4026 
Q 2313 4219 1838 4219 
Q 1578 4219 1281 4162 
Q 984 4106 628 3988 
L 628 4550 
Q 988 4650 1302 4700 
Q 1616 4750 1894 4750 
Q 2613 4750 3031 4423 
Q 3450 4097 3450 3541 
Q 3450 3153 3228 2886 
Q 3006 2619 2597 2516 
z
" transform="scale(0.015625)"/>
        <path id="DejaVuSans-35" d="M 691 4666 
L 3169 4666 
L 3169 4134 
L 1269 4134 
L 1269 2991 
Q 1406 3038 1543 3061 
Q 1681 3084 1819 3084 
Q 2600 3084 3056 2656 
Q 3513 2228 3513 1497 
Q 3513 744 3044 326 
Q 2575 -91 1722 -91 
Q 1428 -91 1123 -41 
Q 819 9 494 109 
L 494 744 
Q 775 591 1075 516 
Q 1375 441 1709 441 
Q 2250 441 2565 725 
Q 2881 1009 2881 1497 
Q 2881 1984 2565 2268 
Q 2250 2553 1709 2553 
Q 1456 2553 1204 2497 
Q 953 2441 691 2322 
L 691 4666 
z
" transform="scale(0.015625)"/>
       </defs>
       <use xlink:href="#DejaVuSans-31"/>
       <use xlink:href="#DejaVuSans-2e" x="63.623047"/>
       <use xlink:href="#DejaVuSans-33" x="95.410156"/>
       <use xlink:href="#DejaVuSans-35" x="159.033203"/>
      </g>
     </g>
    </g>
    <g id="xtick_2">
     <g id="line2d_2">
      <g>
       <use xlink:href="#md3f5025c0a" x="127.776293" y="246.90101" style="stroke: #000000; stroke-width: 0.8"/>
      </g>
     </g>
     <g id="text_2">
      <!-- 1.40 -->
      <g transform="translate(112.190355 264.538822) scale(0.14 -0.14)">
       <defs>
        <path id="DejaVuSans-34" d="M 2419 4116 
L 825 1625 
L 2419 1625 
L 2419 4116 
z
M 2253 4666 
L 3047 4666 
L 3047 1625 
L 3713 1625 
L 3713 1100 
L 3047 1100 
L 3047 0 
L 2419 0 
L 2419 1100 
L 313 1100 
L 313 1709 
L 2253 4666 
z
" transform="scale(0.015625)"/>
        <path id="DejaVuSans-30" d="M 2034 4250 
Q 1547 4250 1301 3770 
Q 1056 3291 1056 2328 
Q 1056 1369 1301 889 
Q 1547 409 2034 409 
Q 2525 409 2770 889 
Q 3016 1369 3016 2328 
Q 3016 3291 2770 3770 
Q 2525 4250 2034 4250 
z
M 2034 4750 
Q 2819 4750 3233 4129 
Q 3647 3509 3647 2328 
Q 3647 1150 3233 529 
Q 2819 -91 2034 -91 
Q 1250 -91 836 529 
Q 422 1150 422 2328 
Q 422 3509 836 4129 
Q 1250 4750 2034 4750 
z
" transform="scale(0.015625)"/>
       </defs>
       <use xlink:href="#DejaVuSans-31"/>
       <use xlink:href="#DejaVuSans-2e" x="63.623047"/>
       <use xlink:href="#DejaVuSans-34" x="95.410156"/>
       <use xlink:href="#DejaVuSans-30" x="159.033203"/>
      </g>
     </g>
    </g>
    <g id="xtick_3">
     <g id="line2d_3">
      <g>
       <use xlink:href="#md3f5025c0a" x="174.629304" y="246.90101" style="stroke: #000000; stroke-width: 0.8"/>
      </g>
     </g>
     <g id="text_3">
      <!-- 1.45 -->
      <g transform="translate(159.043366 264.538822) scale(0.14 -0.14)">
       <use xlink:href="#DejaVuSans-31"/>
       <use xlink:href="#DejaVuSans-2e" x="63.623047"/>
       <use xlink:href="#DejaVuSans-34" x="95.410156"/>
       <use xlink:href="#DejaVuSans-35" x="159.033203"/>
      </g>
     </g>
    </g>
    <g id="xtick_4">
     <g id="line2d_4">
      <g>
       <use xlink:href="#md3f5025c0a" x="221.482315" y="246.90101" style="stroke: #000000; stroke-width: 0.8"/>
      </g>
     </g>
     <g id="text_4">
      <!-- 1.50 -->
      <g transform="translate(205.896378 264.538822) scale(0.14 -0.14)">
       <use xlink:href="#DejaVuSans-31"/>
       <use xlink:href="#DejaVuSans-2e" x="63.623047"/>
       <use xlink:href="#DejaVuSans-35" x="95.410156"/>
       <use xlink:href="#DejaVuSans-30" x="159.033203"/>
      </g>
     </g>
    </g>
    <g id="xtick_5">
     <g id="line2d_5">
      <g>
       <use xlink:href="#md3f5025c0a" x="268.335327" y="246.90101" style="stroke: #000000; stroke-width: 0.8"/>
      </g>
     </g>
     <g id="text_5">
      <!-- 1.55 -->
      <g transform="translate(252.749389 264.538822) scale(0.14 -0.14)">
       <use xlink:href="#DejaVuSans-31"/>
       <use xlink:href="#DejaVuSans-2e" x="63.623047"/>
       <use xlink:href="#DejaVuSans-35" x="95.410156"/>
       <use xlink:href="#DejaVuSans-35" x="159.033203"/>
      </g>
     </g>
    </g>
    <g id="text_6">
     <!-- $E_1$ [MPa] -->
     <g transform="translate(126.905449 282.088197) scale(0.14 -0.14)">
      <defs>
       <path id="DejaVuSans-Oblique-45" d="M 1081 4666 
L 4031 4666 
L 3928 4134 
L 1606 4134 
L 1338 2753 
L 3566 2753 
L 3463 2222 
L 1234 2222 
L 909 531 
L 3284 531 
L 3181 0 
L 172 0 
L 1081 4666 
z
" transform="scale(0.015625)"/>
       <path id="DejaVuSans-20" transform="scale(0.015625)"/>
       <path id="DejaVuSans-5b" d="M 550 4863 
L 1875 4863 
L 1875 4416 
L 1125 4416 
L 1125 -397 
L 1875 -397 
L 1875 -844 
L 550 -844 
L 550 4863 
z
" transform="scale(0.015625)"/>
       <path id="DejaVuSans-4d" d="M 628 4666 
L 1569 4666 
L 2759 1491 
L 3956 4666 
L 4897 4666 
L 4897 0 
L 4281 0 
L 4281 4097 
L 3078 897 
L 2444 897 
L 1241 4097 
L 1241 0 
L 628 0 
L 628 4666 
z
" transform="scale(0.015625)"/>
       <path id="DejaVuSans-50" d="M 1259 4147 
L 1259 2394 
L 2053 2394 
Q 2494 2394 2734 2622 
Q 2975 2850 2975 3272 
Q 2975 3691 2734 3919 
Q 2494 4147 2053 4147 
L 1259 4147 
z
M 628 4666 
L 2053 4666 
Q 2838 4666 3239 4311 
Q 3641 3956 3641 3272 
Q 3641 2581 3239 2228 
Q 2838 1875 2053 1875 
L 1259 1875 
L 1259 0 
L 628 0 
L 628 4666 
z
" transform="scale(0.015625)"/>
       <path id="DejaVuSans-61" d="M 2194 1759 
Q 1497 1759 1228 1600 
Q 959 1441 959 1056 
Q 959 750 1161 570 
Q 1363 391 1709 391 
Q 2188 391 2477 730 
Q 2766 1069 2766 1631 
L 2766 1759 
L 2194 1759 
z
M 3341 1997 
L 3341 0 
L 2766 0 
L 2766 531 
Q 2569 213 2275 61 
Q 1981 -91 1556 -91 
Q 1019 -91 701 211 
Q 384 513 384 1019 
Q 384 1609 779 1909 
Q 1175 2209 1959 2209 
L 2766 2209 
L 2766 2266 
Q 2766 2663 2505 2880 
Q 2244 3097 1772 3097 
Q 1472 3097 1187 3025 
Q 903 2953 641 2809 
L 641 3341 
Q 956 3463 1253 3523 
Q 1550 3584 1831 3584 
Q 2591 3584 2966 3190 
Q 3341 2797 3341 1997 
z
" transform="scale(0.015625)"/>
       <path id="DejaVuSans-5d" d="M 1947 4863 
L 1947 -844 
L 622 -844 
L 622 -397 
L 1369 -397 
L 1369 4416 
L 622 4416 
L 622 4863 
L 1947 4863 
z
" transform="scale(0.015625)"/>
      </defs>
      <use xlink:href="#DejaVuSans-Oblique-45" transform="translate(0 0.015625)"/>
      <use xlink:href="#DejaVuSans-31" transform="translate(63.183594 -16.390625) scale(0.7)"/>
      <use xlink:href="#DejaVuSans-20" transform="translate(110.454102 0.015625)"/>
      <use xlink:href="#DejaVuSans-5b" transform="translate(142.241211 0.015625)"/>
      <use xlink:href="#DejaVuSans-4d" transform="translate(181.254883 0.015625)"/>
      <use xlink:href="#DejaVuSans-50" transform="translate(267.53418 0.015625)"/>
      <use xlink:href="#DejaVuSans-61" transform="translate(327.836914 0.015625)"/>
      <use xlink:href="#DejaVuSans-5d" transform="translate(389.116211 0.015625)"/>
     </g>
    </g>
    <g id="text_7">
     <!-- 1e5 -->
     <g transform="translate(250.984407 281.088197) scale(0.14 -0.14)">
      <defs>
       <path id="DejaVuSans-65" d="M 3597 1894 
L 3597 1613 
L 953 1613 
Q 991 1019 1311 708 
Q 1631 397 2203 397 
Q 2534 397 2845 478 
Q 3156 559 3463 722 
L 3463 178 
Q 3153 47 2828 -22 
Q 2503 -91 2169 -91 
Q 1331 -91 842 396 
Q 353 884 353 1716 
Q 353 2575 817 3079 
Q 1281 3584 2069 3584 
Q 2775 3584 3186 3129 
Q 3597 2675 3597 1894 
z
M 3022 2063 
Q 3016 2534 2758 2815 
Q 2500 3097 2075 3097 
Q 1594 3097 1305 2825 
Q 1016 2553 972 2059 
L 3022 2063 
z
" transform="scale(0.015625)"/>
      </defs>
      <use xlink:href="#DejaVuSans-31"/>
      <use xlink:href="#DejaVuSans-65" x="63.623047"/>
      <use xlink:href="#DejaVuSans-35" x="125.146484"/>
     </g>
    </g>
   </g>
   <g id="matplotlib.axis_2">
    <g id="ytick_1">
     <g id="line2d_6">
      <defs>
       <path id="m99041602bd" d="M 0 0 
L -3.5 0 
" style="stroke: #000000; stroke-width: 0.8"/>
      </defs>
      <g>
       <use xlink:href="#m99041602bd" x="36.457115" y="246.90101" style="stroke: #000000; stroke-width: 0.8"/>
      </g>
     </g>
     <g id="text_8">
      <!-- 0 -->
      <g transform="translate(20.549615 252.219916) scale(0.14 -0.14)">
       <use xlink:href="#DejaVuSans-30"/>
      </g>
     </g>
    </g>
    <g id="ytick_2">
     <g id="line2d_7">
      <g>
       <use xlink:href="#m99041602bd" x="36.457115" y="194.42111" style="stroke: #000000; stroke-width: 0.8"/>
      </g>
     </g>
     <g id="text_9">
      <!-- 1 -->
      <g transform="translate(20.549615 199.740017) scale(0.14 -0.14)">
       <use xlink:href="#DejaVuSans-31"/>
      </g>
     </g>
    </g>
    <g id="ytick_3">
     <g id="line2d_8">
      <g>
       <use xlink:href="#m99041602bd" x="36.457115" y="141.941211" style="stroke: #000000; stroke-width: 0.8"/>
      </g>
     </g>
     <g id="text_10">
      <!-- 2 -->
      <g transform="translate(20.549615 147.260117) scale(0.14 -0.14)">
       <defs>
        <path id="DejaVuSans-32" d="M 1228 531 
L 3431 531 
L 3431 0 
L 469 0 
L 469 531 
Q 828 903 1448 1529 
Q 2069 2156 2228 2338 
Q 2531 2678 2651 2914 
Q 2772 3150 2772 3378 
Q 2772 3750 2511 3984 
Q 2250 4219 1831 4219 
Q 1534 4219 1204 4116 
Q 875 4013 500 3803 
L 500 4441 
Q 881 4594 1212 4672 
Q 1544 4750 1819 4750 
Q 2544 4750 2975 4387 
Q 3406 4025 3406 3419 
Q 3406 3131 3298 2873 
Q 3191 2616 2906 2266 
Q 2828 2175 2409 1742 
Q 1991 1309 1228 531 
z
" transform="scale(0.015625)"/>
       </defs>
       <use xlink:href="#DejaVuSans-32"/>
      </g>
     </g>
    </g>
    <g id="ytick_4">
     <g id="line2d_9">
      <g>
       <use xlink:href="#m99041602bd" x="36.457115" y="89.461311" style="stroke: #000000; stroke-width: 0.8"/>
      </g>
     </g>
     <g id="text_11">
      <!-- 3 -->
      <g transform="translate(20.549615 94.780218) scale(0.14 -0.14)">
       <use xlink:href="#DejaVuSans-33"/>
      </g>
     </g>
    </g>
    <g id="ytick_5">
     <g id="line2d_10">
      <g>
       <use xlink:href="#m99041602bd" x="36.457115" y="36.981412" style="stroke: #000000; stroke-width: 0.8"/>
      </g>
     </g>
     <g id="text_12">
      <!-- 4 -->
      <g transform="translate(20.549615 42.300318) scale(0.14 -0.14)">
       <use xlink:href="#DejaVuSans-34"/>
      </g>
     </g>
    </g>
    <g id="text_13">
     <!-- PDF -->
     <g transform="translate(13.638053 145.406406) rotate(-90) scale(0.14 -0.14)">
      <defs>
       <path id="DejaVuSans-44" d="M 1259 4147 
L 1259 519 
L 2022 519 
Q 2988 519 3436 956 
Q 3884 1394 3884 2338 
Q 3884 3275 3436 3711 
Q 2988 4147 2022 4147 
L 1259 4147 
z
M 628 4666 
L 1925 4666 
Q 3281 4666 3915 4102 
Q 4550 3538 4550 2338 
Q 4550 1131 3912 565 
Q 3275 0 1925 0 
L 628 0 
L 628 4666 
z
" transform="scale(0.015625)"/>
       <path id="DejaVuSans-46" d="M 628 4666 
L 3309 4666 
L 3309 4134 
L 1259 4134 
L 1259 2759 
L 3109 2759 
L 3109 2228 
L 1259 2228 
L 1259 0 
L 628 0 
L 628 4666 
z
" transform="scale(0.015625)"/>
      </defs>
      <use xlink:href="#DejaVuSans-50"/>
      <use xlink:href="#DejaVuSans-44" x="60.302734"/>
      <use xlink:href="#DejaVuSans-46" x="137.304688"/>
     </g>
    </g>
    <g id="text_14">
     <!-- 1e−4 -->
     <g transform="translate(36.457115 13.638052) scale(0.14 -0.14)">
      <defs>
       <path id="DejaVuSans-2212" d="M 678 2272 
L 4684 2272 
L 4684 1741 
L 678 1741 
L 678 2272 
z
" transform="scale(0.015625)"/>
      </defs>
      <use xlink:href="#DejaVuSans-31"/>
      <use xlink:href="#DejaVuSans-65" x="63.623047"/>
      <use xlink:href="#DejaVuSans-2212" x="125.146484"/>
      <use xlink:href="#DejaVuSans-34" x="208.935547"/>
     </g>
    </g>
   </g>
   <g id="line2d_11">
    <path d="M 154.013979 245.738095 
L 155.14981 245.508774 
L 156.28564 245.240342 
L 157.421471 244.927418 
L 158.557301 244.564128 
L 159.693132 244.14411 
L 160.828962 243.660525 
L 161.964793 243.10608 
L 163.100624 242.473063 
L 164.236454 241.753398 
L 165.372285 240.938708 
L 166.508115 240.020399 
L 167.643946 238.989766 
L 168.779776 237.838107 
L 169.915607 236.556863 
L 171.051438 235.137773 
L 172.187268 233.573046 
L 173.323099 231.855546 
L 174.458929 229.978993 
L 175.59476 227.938166 
L 176.730591 225.729121 
L 177.866421 223.349403 
L 179.002252 220.798259 
L 180.138082 218.07684 
L 181.273913 215.188389 
L 182.409743 212.13841 
L 183.545574 208.934807 
L 184.681405 205.587997 
L 185.817235 202.110978 
L 186.953066 198.51936 
L 188.088896 194.831347 
L 189.224727 191.067663 
L 190.360557 187.251436 
L 191.496388 183.408013 
L 192.632219 179.564733 
L 193.768049 175.750639 
L 194.90388 171.996143 
L 196.03971 168.332648 
L 197.175541 164.792125 
L 198.311372 161.406662 
L 199.447202 158.207988 
L 200.583033 155.226986 
L 201.718863 152.493198 
L 202.854694 150.034341 
L 203.990524 147.875841 
L 205.126355 146.040394 
L 206.262186 144.547572 
L 207.398016 143.413473 
L 208.533847 142.650435 
L 209.669677 142.266808 
L 210.805508 142.266808 
L 211.941339 142.650435 
L 213.077169 143.413473 
L 214.213 144.547572 
L 215.34883 146.040394 
L 216.484661 147.875841 
L 217.620491 150.034341 
L 218.756322 152.493198 
L 219.892153 155.226986 
L 221.027983 158.207988 
L 222.163814 161.406662 
L 223.299644 164.792125 
L 224.435475 168.332648 
L 225.571305 171.996143 
L 226.707136 175.750639 
L 227.842967 179.564733 
L 228.978797 183.408013 
L 230.114628 187.251436 
L 231.250458 191.067663 
L 232.386289 194.831347 
L 233.52212 198.51936 
L 234.65795 202.110978 
L 235.793781 205.587997 
L 236.929611 208.934807 
L 238.065442 212.13841 
L 239.201272 215.188389 
L 240.337103 218.07684 
L 241.472934 220.798259 
L 242.608764 223.349403 
L 243.744595 225.729121 
L 244.880425 227.938166 
L 246.016256 229.978993 
L 247.152086 231.855546 
L 248.287917 233.573046 
L 249.423748 235.137773 
L 250.559578 236.556863 
L 251.695409 237.838107 
L 252.831239 238.989766 
L 253.96707 240.020399 
L 255.102901 240.938708 
L 256.238731 241.753398 
L 257.374562 242.473063 
L 258.510392 243.10608 
L 259.646223 243.660525 
L 260.782053 244.14411 
L 261.917884 244.564128 
L 263.053715 244.927418 
L 264.189545 245.240342 
L 265.325376 245.508774 
L 266.461206 245.738095 
" clip-path="url(#p67134152f6)" style="fill: none; stroke: #2ca02c; stroke-width: 1.5; stroke-linecap: square"/>
   </g>
   <g id="patch_33">
    <path d="M 36.457115 246.90101 
L 36.457115 16.638052 
" style="fill: none; stroke: #000000; stroke-width: 0.8; stroke-linejoin: miter; stroke-linecap: square"/>
   </g>
   <g id="patch_34">
    <path d="M 277.413782 246.90101 
L 277.413782 16.638052 
" style="fill: none; stroke: #000000; stroke-width: 0.8; stroke-linejoin: miter; stroke-linecap: square"/>
   </g>
   <g id="patch_35">
    <path d="M 36.457115 246.90101 
L 277.413782 246.90101 
" style="fill: none; stroke: #000000; stroke-width: 0.8; stroke-linejoin: miter; stroke-linecap: square"/>
   </g>
   <g id="patch_36">
    <path d="M 36.457115 16.638052 
L 277.413782 16.638052 
" style="fill: none; stroke: #000000; stroke-width: 0.8; stroke-linejoin: miter; stroke-linecap: square"/>
   </g>
   <g id="legend_1">
    <g id="patch_37">
     <path d="M 160.951282 68.936802 
L 267.613782 68.936802 
Q 270.413782 68.936802 270.413782 66.136802 
L 270.413782 26.438053 
Q 270.413782 23.638053 267.613782 23.638053 
L 160.951282 23.638053 
Q 158.151282 23.638053 158.151282 26.438053 
L 158.151282 66.136802 
Q 158.151282 68.936802 160.951282 68.936802 
z
" style="fill: #ffffff; opacity: 0.8; stroke: #cccccc; stroke-linejoin: miter"/>
    </g>
    <g id="line2d_12">
     <path d="M 163.751282 34.975865 
L 177.751282 34.975865 
L 191.751282 34.975865 
" style="fill: none; stroke: #2ca02c; stroke-width: 1.5; stroke-linecap: square"/>
    </g>
    <g id="text_15">
     <!-- Prior -->
     <g transform="translate(202.951282 39.875865) scale(0.14 -0.14)">
      <defs>
       <path id="DejaVuSans-72" d="M 2631 2963 
Q 2534 3019 2420 3045 
Q 2306 3072 2169 3072 
Q 1681 3072 1420 2755 
Q 1159 2438 1159 1844 
L 1159 0 
L 581 0 
L 581 3500 
L 1159 3500 
L 1159 2956 
Q 1341 3275 1631 3429 
Q 1922 3584 2338 3584 
Q 2397 3584 2469 3576 
Q 2541 3569 2628 3553 
L 2631 2963 
z
" transform="scale(0.015625)"/>
       <path id="DejaVuSans-69" d="M 603 3500 
L 1178 3500 
L 1178 0 
L 603 0 
L 603 3500 
z
M 603 4863 
L 1178 4863 
L 1178 4134 
L 603 4134 
L 603 4863 
z
" transform="scale(0.015625)"/>
       <path id="DejaVuSans-6f" d="M 1959 3097 
Q 1497 3097 1228 2736 
Q 959 2375 959 1747 
Q 959 1119 1226 758 
Q 1494 397 1959 397 
Q 2419 397 2687 759 
Q 2956 1122 2956 1747 
Q 2956 2369 2687 2733 
Q 2419 3097 1959 3097 
z
M 1959 3584 
Q 2709 3584 3137 3096 
Q 3566 2609 3566 1747 
Q 3566 888 3137 398 
Q 2709 -91 1959 -91 
Q 1206 -91 779 398 
Q 353 888 353 1747 
Q 353 2609 779 3096 
Q 1206 3584 1959 3584 
z
" transform="scale(0.015625)"/>
      </defs>
      <use xlink:href="#DejaVuSans-50"/>
      <use xlink:href="#DejaVuSans-72" x="58.552734"/>
      <use xlink:href="#DejaVuSans-69" x="99.666016"/>
      <use xlink:href="#DejaVuSans-6f" x="127.449219"/>
      <use xlink:href="#DejaVuSans-72" x="188.630859"/>
     </g>
    </g>
    <g id="patch_38">
     <path d="M 163.751282 60.42524 
L 191.751282 60.42524 
L 191.751282 50.62524 
L 163.751282 50.62524 
z
" style="fill: #1f77b4"/>
    </g>
    <g id="text_16">
     <!-- Posterior -->
     <g transform="translate(202.951282 60.42524) scale(0.14 -0.14)">
      <defs>
       <path id="DejaVuSans-73" d="M 2834 3397 
L 2834 2853 
Q 2591 2978 2328 3040 
Q 2066 3103 1784 3103 
Q 1356 3103 1142 2972 
Q 928 2841 928 2578 
Q 928 2378 1081 2264 
Q 1234 2150 1697 2047 
L 1894 2003 
Q 2506 1872 2764 1633 
Q 3022 1394 3022 966 
Q 3022 478 2636 193 
Q 2250 -91 1575 -91 
Q 1294 -91 989 -36 
Q 684 19 347 128 
L 347 722 
Q 666 556 975 473 
Q 1284 391 1588 391 
Q 1994 391 2212 530 
Q 2431 669 2431 922 
Q 2431 1156 2273 1281 
Q 2116 1406 1581 1522 
L 1381 1569 
Q 847 1681 609 1914 
Q 372 2147 372 2553 
Q 372 3047 722 3315 
Q 1072 3584 1716 3584 
Q 2034 3584 2315 3537 
Q 2597 3491 2834 3397 
z
" transform="scale(0.015625)"/>
       <path id="DejaVuSans-74" d="M 1172 4494 
L 1172 3500 
L 2356 3500 
L 2356 3053 
L 1172 3053 
L 1172 1153 
Q 1172 725 1289 603 
Q 1406 481 1766 481 
L 2356 481 
L 2356 0 
L 1766 0 
Q 1100 0 847 248 
Q 594 497 594 1153 
L 594 3053 
L 172 3053 
L 172 3500 
L 594 3500 
L 594 4494 
L 1172 4494 
z
" transform="scale(0.015625)"/>
      </defs>
      <use xlink:href="#DejaVuSans-50"/>
      <use xlink:href="#DejaVuSans-6f" x="56.677734"/>
      <use xlink:href="#DejaVuSans-73" x="117.859375"/>
      <use xlink:href="#DejaVuSans-74" x="169.958984"/>
      <use xlink:href="#DejaVuSans-65" x="209.167969"/>
      <use xlink:href="#DejaVuSans-72" x="270.691406"/>
      <use xlink:href="#DejaVuSans-69" x="311.804688"/>
      <use xlink:href="#DejaVuSans-6f" x="339.587891"/>
      <use xlink:href="#DejaVuSans-72" x="400.769531"/>
     </g>
    </g>
   </g>
  </g>
  <g id="axes_2">
   <g id="patch_39">
    <path d="M 337.001097 246.90101 
L 577.957764 246.90101 
L 577.957764 16.638052 
L 337.001097 16.638052 
z
" style="fill: #ffffff"/>
   </g>
   <g id="patch_40">
    <path d="M 347.953673 246.90101 
L 354.547197 246.90101 
L 354.547197 245.585944 
L 347.953673 245.585944 
z
" clip-path="url(#p85c8de5c58)" style="fill: #1f77b4"/>
   </g>
   <g id="patch_41">
    <path d="M 355.279811 246.90101 
L 361.873335 246.90101 
L 361.873335 244.709233 
L 355.279811 244.709233 
z
" clip-path="url(#p85c8de5c58)" style="fill: #1f77b4"/>
   </g>
   <g id="patch_42">
    <path d="M 362.605948 246.90101 
L 369.199472 246.90101 
L 369.199472 244.270877 
L 362.605948 244.270877 
z
" clip-path="url(#p85c8de5c58)" style="fill: #1f77b4"/>
   </g>
   <g id="patch_43">
    <path d="M 369.932086 246.90101 
L 376.52561 246.90101 
L 376.52561 242.517455 
L 369.932086 242.517455 
z
" clip-path="url(#p85c8de5c58)" style="fill: #1f77b4"/>
   </g>
   <g id="patch_44">
    <path d="M 377.258224 246.90101 
L 383.851747 246.90101 
L 383.851747 234.627057 
L 377.258224 234.627057 
z
" clip-path="url(#p85c8de5c58)" style="fill: #1f77b4"/>
   </g>
   <g id="patch_45">
    <path d="M 384.584361 246.90101 
L 391.177885 246.90101 
L 391.177885 231.120213 
L 384.584361 231.120213 
z
" clip-path="url(#p85c8de5c58)" style="fill: #1f77b4"/>
   </g>
   <g id="patch_46">
    <path d="M 391.910499 246.90101 
L 398.504023 246.90101 
L 398.504023 217.092838 
L 391.910499 217.092838 
z
" clip-path="url(#p85c8de5c58)" style="fill: #1f77b4"/>
   </g>
   <g id="patch_47">
    <path d="M 399.236637 246.90101 
L 405.83016 246.90101 
L 405.83016 202.188753 
L 399.236637 202.188753 
z
" clip-path="url(#p85c8de5c58)" style="fill: #1f77b4"/>
   </g>
   <g id="patch_48">
    <path d="M 406.562774 246.90101 
L 413.156298 246.90101 
L 413.156298 178.955913 
L 406.562774 178.955913 
z
" clip-path="url(#p85c8de5c58)" style="fill: #1f77b4"/>
   </g>
   <g id="patch_49">
    <path d="M 413.888912 246.90101 
L 420.482436 246.90101 
L 420.482436 155.723073 
L 413.888912 155.723073 
z
" clip-path="url(#p85c8de5c58)" style="fill: #1f77b4"/>
   </g>
   <g id="patch_50">
    <path d="M 421.215049 246.90101 
L 427.808573 246.90101 
L 427.808573 124.16148 
L 421.215049 124.16148 
z
" clip-path="url(#p85c8de5c58)" style="fill: #1f77b4"/>
   </g>
   <g id="patch_51">
    <path d="M 428.541187 246.90101 
L 435.134711 246.90101 
L 435.134711 103.558773 
L 428.541187 103.558773 
z
" clip-path="url(#p85c8de5c58)" style="fill: #1f77b4"/>
   </g>
   <g id="patch_52">
    <path d="M 435.867325 246.90101 
L 442.460849 246.90101 
L 442.460849 62.353359 
L 435.867325 62.353359 
z
" clip-path="url(#p85c8de5c58)" style="fill: #1f77b4"/>
   </g>
   <g id="patch_53">
    <path d="M 443.193462 246.90101 
L 449.786986 246.90101 
L 449.786986 53.58625 
L 443.193462 53.58625 
z
" clip-path="url(#p85c8de5c58)" style="fill: #1f77b4"/>
   </g>
   <g id="patch_54">
    <path d="M 450.5196 246.90101 
L 457.113124 246.90101 
L 457.113124 49.202695 
L 450.5196 49.202695 
z
" clip-path="url(#p85c8de5c58)" style="fill: #1f77b4"/>
   </g>
   <g id="patch_55">
    <path d="M 457.845738 246.90101 
L 464.439262 246.90101 
L 464.439262 32.983543 
L 457.845738 32.983543 
z
" clip-path="url(#p85c8de5c58)" style="fill: #1f77b4"/>
   </g>
   <g id="patch_56">
    <path d="M 465.171875 246.90101 
L 471.765399 246.90101 
L 471.765399 35.17532 
L 465.171875 35.17532 
z
" clip-path="url(#p85c8de5c58)" style="fill: #1f77b4"/>
   </g>
   <g id="patch_57">
    <path d="M 472.498013 246.90101 
L 479.091537 246.90101 
L 479.091537 82.956066 
L 472.498013 82.956066 
z
" clip-path="url(#p85c8de5c58)" style="fill: #1f77b4"/>
   </g>
   <g id="patch_58">
    <path d="M 479.824151 246.90101 
L 486.417674 246.90101 
L 486.417674 112.325882 
L 479.824151 112.325882 
z
" clip-path="url(#p85c8de5c58)" style="fill: #1f77b4"/>
   </g>
   <g id="patch_59">
    <path d="M 487.150288 246.90101 
L 493.743812 246.90101 
L 493.743812 132.490234 
L 487.150288 132.490234 
z
" clip-path="url(#p85c8de5c58)" style="fill: #1f77b4"/>
   </g>
   <g id="patch_60">
    <path d="M 494.476426 246.90101 
L 501.06995 246.90101 
L 501.06995 160.544983 
L 494.476426 160.544983 
z
" clip-path="url(#p85c8de5c58)" style="fill: #1f77b4"/>
   </g>
   <g id="patch_61">
    <path d="M 501.802564 246.90101 
L 508.396087 246.90101 
L 508.396087 189.9148 
L 501.802564 189.9148 
z
" clip-path="url(#p85c8de5c58)" style="fill: #1f77b4"/>
   </g>
   <g id="patch_62">
    <path d="M 509.128701 246.90101 
L 515.722225 246.90101 
L 515.722225 210.079151 
L 509.128701 210.079151 
z
" clip-path="url(#p85c8de5c58)" style="fill: #1f77b4"/>
   </g>
   <g id="patch_63">
    <path d="M 516.454839 246.90101 
L 523.048363 246.90101 
L 523.048363 219.722971 
L 516.454839 219.722971 
z
" clip-path="url(#p85c8de5c58)" style="fill: #1f77b4"/>
   </g>
   <g id="patch_64">
    <path d="M 523.780976 246.90101 
L 530.3745 246.90101 
L 530.3745 232.43528 
L 523.780976 232.43528 
z
" clip-path="url(#p85c8de5c58)" style="fill: #1f77b4"/>
   </g>
   <g id="patch_65">
    <path d="M 531.107114 246.90101 
L 537.700638 246.90101 
L 537.700638 239.448967 
L 531.107114 239.448967 
z
" clip-path="url(#p85c8de5c58)" style="fill: #1f77b4"/>
   </g>
   <g id="patch_66">
    <path d="M 538.433252 246.90101 
L 545.026776 246.90101 
L 545.026776 241.640744 
L 538.433252 241.640744 
z
" clip-path="url(#p85c8de5c58)" style="fill: #1f77b4"/>
   </g>
   <g id="patch_67">
    <path d="M 545.759389 246.90101 
L 552.352913 246.90101 
L 552.352913 243.394166 
L 545.759389 243.394166 
z
" clip-path="url(#p85c8de5c58)" style="fill: #1f77b4"/>
   </g>
   <g id="patch_68">
    <path d="M 553.085527 246.90101 
L 559.679051 246.90101 
L 559.679051 246.024299 
L 553.085527 246.024299 
z
" clip-path="url(#p85c8de5c58)" style="fill: #1f77b4"/>
   </g>
   <g id="patch_69">
    <path d="M 560.411665 246.90101 
L 567.005189 246.90101 
L 567.005189 246.462655 
L 560.411665 246.462655 
z
" clip-path="url(#p85c8de5c58)" style="fill: #1f77b4"/>
   </g>
   <g id="matplotlib.axis_3">
    <g id="xtick_6">
     <g id="line2d_13">
      <g>
       <use xlink:href="#md3f5025c0a" x="342.483414" y="246.90101" style="stroke: #000000; stroke-width: 0.8"/>
      </g>
     </g>
     <g id="text_17">
      <!-- 8800 -->
      <g transform="translate(324.668414 264.538822) scale(0.14 -0.14)">
       <defs>
        <path id="DejaVuSans-38" d="M 2034 2216 
Q 1584 2216 1326 1975 
Q 1069 1734 1069 1313 
Q 1069 891 1326 650 
Q 1584 409 2034 409 
Q 2484 409 2743 651 
Q 3003 894 3003 1313 
Q 3003 1734 2745 1975 
Q 2488 2216 2034 2216 
z
M 1403 2484 
Q 997 2584 770 2862 
Q 544 3141 544 3541 
Q 544 4100 942 4425 
Q 1341 4750 2034 4750 
Q 2731 4750 3128 4425 
Q 3525 4100 3525 3541 
Q 3525 3141 3298 2862 
Q 3072 2584 2669 2484 
Q 3125 2378 3379 2068 
Q 3634 1759 3634 1313 
Q 3634 634 3220 271 
Q 2806 -91 2034 -91 
Q 1263 -91 848 271 
Q 434 634 434 1313 
Q 434 1759 690 2068 
Q 947 2378 1403 2484 
z
M 1172 3481 
Q 1172 3119 1398 2916 
Q 1625 2713 2034 2713 
Q 2441 2713 2670 2916 
Q 2900 3119 2900 3481 
Q 2900 3844 2670 4047 
Q 2441 4250 2034 4250 
Q 1625 4250 1398 4047 
Q 1172 3844 1172 3481 
z
" transform="scale(0.015625)"/>
       </defs>
       <use xlink:href="#DejaVuSans-38"/>
       <use xlink:href="#DejaVuSans-38" x="63.623047"/>
       <use xlink:href="#DejaVuSans-30" x="127.246094"/>
       <use xlink:href="#DejaVuSans-30" x="190.869141"/>
      </g>
     </g>
    </g>
    <g id="xtick_7">
     <g id="line2d_14">
      <g>
       <use xlink:href="#md3f5025c0a" x="400.878645" y="246.90101" style="stroke: #000000; stroke-width: 0.8"/>
      </g>
     </g>
     <g id="text_18">
      <!-- 9000 -->
      <g transform="translate(383.063645 264.538822) scale(0.14 -0.14)">
       <defs>
        <path id="DejaVuSans-39" d="M 703 97 
L 703 672 
Q 941 559 1184 500 
Q 1428 441 1663 441 
Q 2288 441 2617 861 
Q 2947 1281 2994 2138 
Q 2813 1869 2534 1725 
Q 2256 1581 1919 1581 
Q 1219 1581 811 2004 
Q 403 2428 403 3163 
Q 403 3881 828 4315 
Q 1253 4750 1959 4750 
Q 2769 4750 3195 4129 
Q 3622 3509 3622 2328 
Q 3622 1225 3098 567 
Q 2575 -91 1691 -91 
Q 1453 -91 1209 -44 
Q 966 3 703 97 
z
M 1959 2075 
Q 2384 2075 2632 2365 
Q 2881 2656 2881 3163 
Q 2881 3666 2632 3958 
Q 2384 4250 1959 4250 
Q 1534 4250 1286 3958 
Q 1038 3666 1038 3163 
Q 1038 2656 1286 2365 
Q 1534 2075 1959 2075 
z
" transform="scale(0.015625)"/>
       </defs>
       <use xlink:href="#DejaVuSans-39"/>
       <use xlink:href="#DejaVuSans-30" x="63.623047"/>
       <use xlink:href="#DejaVuSans-30" x="127.246094"/>
       <use xlink:href="#DejaVuSans-30" x="190.869141"/>
      </g>
     </g>
    </g>
    <g id="xtick_8">
     <g id="line2d_15">
      <g>
       <use xlink:href="#md3f5025c0a" x="459.273877" y="246.90101" style="stroke: #000000; stroke-width: 0.8"/>
      </g>
     </g>
     <g id="text_19">
      <!-- 9200 -->
      <g transform="translate(441.458877 264.538822) scale(0.14 -0.14)">
       <use xlink:href="#DejaVuSans-39"/>
       <use xlink:href="#DejaVuSans-32" x="63.623047"/>
       <use xlink:href="#DejaVuSans-30" x="127.246094"/>
       <use xlink:href="#DejaVuSans-30" x="190.869141"/>
      </g>
     </g>
    </g>
    <g id="xtick_9">
     <g id="line2d_16">
      <g>
       <use xlink:href="#md3f5025c0a" x="517.669109" y="246.90101" style="stroke: #000000; stroke-width: 0.8"/>
      </g>
     </g>
     <g id="text_20">
      <!-- 9400 -->
      <g transform="translate(499.854109 264.538822) scale(0.14 -0.14)">
       <use xlink:href="#DejaVuSans-39"/>
       <use xlink:href="#DejaVuSans-34" x="63.623047"/>
       <use xlink:href="#DejaVuSans-30" x="127.246094"/>
       <use xlink:href="#DejaVuSans-30" x="190.869141"/>
      </g>
     </g>
    </g>
    <g id="xtick_10">
     <g id="line2d_17">
      <g>
       <use xlink:href="#md3f5025c0a" x="576.06434" y="246.90101" style="stroke: #000000; stroke-width: 0.8"/>
      </g>
     </g>
     <g id="text_21">
      <!-- 9600 -->
      <g transform="translate(558.24934 264.538822) scale(0.14 -0.14)">
       <defs>
        <path id="DejaVuSans-36" d="M 2113 2584 
Q 1688 2584 1439 2293 
Q 1191 2003 1191 1497 
Q 1191 994 1439 701 
Q 1688 409 2113 409 
Q 2538 409 2786 701 
Q 3034 994 3034 1497 
Q 3034 2003 2786 2293 
Q 2538 2584 2113 2584 
z
M 3366 4563 
L 3366 3988 
Q 3128 4100 2886 4159 
Q 2644 4219 2406 4219 
Q 1781 4219 1451 3797 
Q 1122 3375 1075 2522 
Q 1259 2794 1537 2939 
Q 1816 3084 2150 3084 
Q 2853 3084 3261 2657 
Q 3669 2231 3669 1497 
Q 3669 778 3244 343 
Q 2819 -91 2113 -91 
Q 1303 -91 875 529 
Q 447 1150 447 2328 
Q 447 3434 972 4092 
Q 1497 4750 2381 4750 
Q 2619 4750 2861 4703 
Q 3103 4656 3366 4563 
z
" transform="scale(0.015625)"/>
       </defs>
       <use xlink:href="#DejaVuSans-39"/>
       <use xlink:href="#DejaVuSans-36" x="63.623047"/>
       <use xlink:href="#DejaVuSans-30" x="127.246094"/>
       <use xlink:href="#DejaVuSans-30" x="190.869141"/>
      </g>
     </g>
    </g>
    <g id="text_22">
     <!-- $E_2$ [MPa] -->
     <g transform="translate(427.449431 282.088197) scale(0.14 -0.14)">
      <use xlink:href="#DejaVuSans-Oblique-45" transform="translate(0 0.015625)"/>
      <use xlink:href="#DejaVuSans-32" transform="translate(63.183594 -16.390625) scale(0.7)"/>
      <use xlink:href="#DejaVuSans-20" transform="translate(110.454102 0.015625)"/>
      <use xlink:href="#DejaVuSans-5b" transform="translate(142.241211 0.015625)"/>
      <use xlink:href="#DejaVuSans-4d" transform="translate(181.254883 0.015625)"/>
      <use xlink:href="#DejaVuSans-50" transform="translate(267.53418 0.015625)"/>
      <use xlink:href="#DejaVuSans-61" transform="translate(327.836914 0.015625)"/>
      <use xlink:href="#DejaVuSans-5d" transform="translate(389.116211 0.015625)"/>
     </g>
    </g>
   </g>
   <g id="matplotlib.axis_4">
    <g id="ytick_6">
     <g id="line2d_18">
      <g>
       <use xlink:href="#m99041602bd" x="337.001097" y="246.90101" style="stroke: #000000; stroke-width: 0.8"/>
      </g>
     </g>
     <g id="text_23">
      <!-- 0.000 -->
      <g transform="translate(289.921722 252.219916) scale(0.14 -0.14)">
       <use xlink:href="#DejaVuSans-30"/>
       <use xlink:href="#DejaVuSans-2e" x="63.623047"/>
       <use xlink:href="#DejaVuSans-30" x="95.410156"/>
       <use xlink:href="#DejaVuSans-30" x="159.033203"/>
       <use xlink:href="#DejaVuSans-30" x="222.65625"/>
      </g>
     </g>
    </g>
    <g id="ytick_7">
     <g id="line2d_19">
      <g>
       <use xlink:href="#m99041602bd" x="337.001097" y="191.905895" style="stroke: #000000; stroke-width: 0.8"/>
      </g>
     </g>
     <g id="text_24">
      <!-- 0.001 -->
      <g transform="translate(289.921722 197.224801) scale(0.14 -0.14)">
       <use xlink:href="#DejaVuSans-30"/>
       <use xlink:href="#DejaVuSans-2e" x="63.623047"/>
       <use xlink:href="#DejaVuSans-30" x="95.410156"/>
       <use xlink:href="#DejaVuSans-30" x="159.033203"/>
       <use xlink:href="#DejaVuSans-31" x="222.65625"/>
      </g>
     </g>
    </g>
    <g id="ytick_8">
     <g id="line2d_20">
      <g>
       <use xlink:href="#m99041602bd" x="337.001097" y="136.91078" style="stroke: #000000; stroke-width: 0.8"/>
      </g>
     </g>
     <g id="text_25">
      <!-- 0.002 -->
      <g transform="translate(289.921722 142.229686) scale(0.14 -0.14)">
       <use xlink:href="#DejaVuSans-30"/>
       <use xlink:href="#DejaVuSans-2e" x="63.623047"/>
       <use xlink:href="#DejaVuSans-30" x="95.410156"/>
       <use xlink:href="#DejaVuSans-30" x="159.033203"/>
       <use xlink:href="#DejaVuSans-32" x="222.65625"/>
      </g>
     </g>
    </g>
    <g id="ytick_9">
     <g id="line2d_21">
      <g>
       <use xlink:href="#m99041602bd" x="337.001097" y="81.915665" style="stroke: #000000; stroke-width: 0.8"/>
      </g>
     </g>
     <g id="text_26">
      <!-- 0.003 -->
      <g transform="translate(289.921722 87.234571) scale(0.14 -0.14)">
       <use xlink:href="#DejaVuSans-30"/>
       <use xlink:href="#DejaVuSans-2e" x="63.623047"/>
       <use xlink:href="#DejaVuSans-30" x="95.410156"/>
       <use xlink:href="#DejaVuSans-30" x="159.033203"/>
       <use xlink:href="#DejaVuSans-33" x="222.65625"/>
      </g>
     </g>
    </g>
    <g id="ytick_10">
     <g id="line2d_22">
      <g>
       <use xlink:href="#m99041602bd" x="337.001097" y="26.92055" style="stroke: #000000; stroke-width: 0.8"/>
      </g>
     </g>
     <g id="text_27">
      <!-- 0.004 -->
      <g transform="translate(289.921722 32.239456) scale(0.14 -0.14)">
       <use xlink:href="#DejaVuSans-30"/>
       <use xlink:href="#DejaVuSans-2e" x="63.623047"/>
       <use xlink:href="#DejaVuSans-30" x="95.410156"/>
       <use xlink:href="#DejaVuSans-30" x="159.033203"/>
       <use xlink:href="#DejaVuSans-34" x="222.65625"/>
      </g>
     </g>
    </g>
   </g>
   <g id="line2d_23">
    <path d="M 368.761268 244.46371 
L 370.530821 243.983086 
L 372.300373 243.420492 
L 374.069926 242.764648 
L 375.839478 242.003245 
L 377.60903 241.122949 
L 379.378583 240.109425 
L 381.148135 238.947388 
L 382.917688 237.620678 
L 384.68724 236.112365 
L 386.456793 234.404892 
L 388.226345 232.480252 
L 389.995898 230.320195 
L 391.76545 227.906485 
L 393.535003 225.221183 
L 395.304555 222.246977 
L 397.074108 218.967537 
L 398.84366 215.367908 
L 400.613213 211.434926 
L 402.382765 207.157649 
L 404.152318 202.527812 
L 405.92187 197.540269 
L 407.691423 192.193443 
L 409.460975 186.489745 
L 411.230527 180.435973 
L 413.00008 174.043661 
L 414.769632 167.329375 
L 416.539185 160.314948 
L 418.308737 153.027622 
L 420.07829 145.500114 
L 421.847842 137.770575 
L 423.617395 129.882443 
L 425.386947 121.884187 
L 427.1565 113.828932 
L 428.926052 105.773976 
L 430.695605 97.780189 
L 432.465157 89.911313 
L 434.23471 82.233161 
L 436.004262 74.81274 
L 437.773815 67.717302 
L 439.543367 61.013347 
L 441.31292 54.765601 
L 443.082472 49.035979 
L 444.852024 43.882573 
L 446.621577 39.35867 
L 448.391129 35.511841 
L 450.160682 32.383103 
L 451.930234 30.006197 
L 453.699787 28.40698 
L 455.469339 27.602955 
L 457.238892 27.602955 
L 459.008444 28.40698 
L 460.777997 30.006197 
L 462.547549 32.383103 
L 464.317102 35.511841 
L 466.086654 39.35867 
L 467.856207 43.882573 
L 469.625759 49.035979 
L 471.395312 54.765601 
L 473.164864 61.013347 
L 474.934417 67.717302 
L 476.703969 74.81274 
L 478.473521 82.233161 
L 480.243074 89.911313 
L 482.012626 97.780189 
L 483.782179 105.773976 
L 485.551731 113.828932 
L 487.321284 121.884187 
L 489.090836 129.882443 
L 490.860389 137.770575 
L 492.629941 145.500114 
L 494.399494 153.027622 
L 496.169046 160.314948 
L 497.938599 167.329375 
L 499.708151 174.043661 
L 501.477704 180.435973 
L 503.247256 186.489745 
L 505.016809 192.193443 
L 506.786361 197.540269 
L 508.555914 202.527812 
L 510.325466 207.157649 
L 512.095018 211.434926 
L 513.864571 215.367908 
L 515.634123 218.967537 
L 517.403676 222.246977 
L 519.173228 225.221183 
L 520.942781 227.906485 
L 522.712333 230.320195 
L 524.481886 232.480252 
L 526.251438 234.404892 
L 528.020991 236.112365 
L 529.790543 237.620678 
L 531.560096 238.947388 
L 533.329648 240.109425 
L 535.099201 241.122949 
L 536.868753 242.003245 
L 538.638306 242.764648 
L 540.407858 243.420492 
L 542.177411 243.983086 
L 543.946963 244.46371 
" clip-path="url(#p85c8de5c58)" style="fill: none; stroke: #2ca02c; stroke-width: 1.5; stroke-linecap: square"/>
   </g>
   <g id="patch_70">
    <path d="M 337.001097 246.90101 
L 337.001097 16.638052 
" style="fill: none; stroke: #000000; stroke-width: 0.8; stroke-linejoin: miter; stroke-linecap: square"/>
   </g>
   <g id="patch_71">
    <path d="M 577.957764 246.90101 
L 577.957764 16.638052 
" style="fill: none; stroke: #000000; stroke-width: 0.8; stroke-linejoin: miter; stroke-linecap: square"/>
   </g>
   <g id="patch_72">
    <path d="M 337.001097 246.90101 
L 577.957764 246.90101 
" style="fill: none; stroke: #000000; stroke-width: 0.8; stroke-linejoin: miter; stroke-linecap: square"/>
   </g>
   <g id="patch_73">
    <path d="M 337.001097 16.638052 
L 577.957764 16.638052 
" style="fill: none; stroke: #000000; stroke-width: 0.8; stroke-linejoin: miter; stroke-linecap: square"/>
   </g>
  </g>
  <g id="axes_3">
   <g id="patch_74">
    <path d="M 624.694816 246.90101 
L 865.651483 246.90101 
L 865.651483 16.638052 
L 624.694816 16.638052 
z
" style="fill: #ffffff"/>
   </g>
   <g id="patch_75">
    <path d="M 635.647392 246.90101 
L 642.240915 246.90101 
L 642.240915 246.18075 
L 635.647392 246.18075 
z
" clip-path="url(#p71d6d91535)" style="fill: #1f77b4"/>
   </g>
   <g id="patch_76">
    <path d="M 642.973529 246.90101 
L 649.567053 246.90101 
L 649.567053 246.18075 
L 642.973529 246.18075 
z
" clip-path="url(#p71d6d91535)" style="fill: #1f77b4"/>
   </g>
   <g id="patch_77">
    <path d="M 650.299667 246.90101 
L 656.893191 246.90101 
L 656.893191 245.460489 
L 650.299667 245.460489 
z
" clip-path="url(#p71d6d91535)" style="fill: #1f77b4"/>
   </g>
   <g id="patch_78">
    <path d="M 657.625805 246.90101 
L 664.219328 246.90101 
L 664.219328 241.138927 
L 657.625805 241.138927 
z
" clip-path="url(#p71d6d91535)" style="fill: #1f77b4"/>
   </g>
   <g id="patch_79">
    <path d="M 664.951942 246.90101 
L 671.545466 246.90101 
L 671.545466 242.579448 
L 664.951942 242.579448 
z
" clip-path="url(#p71d6d91535)" style="fill: #1f77b4"/>
   </g>
   <g id="patch_80">
    <path d="M 672.27808 246.90101 
L 678.871604 246.90101 
L 678.871604 241.499057 
L 672.27808 241.499057 
z
" clip-path="url(#p71d6d91535)" style="fill: #1f77b4"/>
   </g>
   <g id="patch_81">
    <path d="M 679.604217 246.90101 
L 686.197741 246.90101 
L 686.197741 229.614761 
L 679.604217 229.614761 
z
" clip-path="url(#p71d6d91535)" style="fill: #1f77b4"/>
   </g>
   <g id="patch_82">
    <path d="M 686.930355 246.90101 
L 693.523879 246.90101 
L 693.523879 215.569683 
L 686.930355 215.569683 
z
" clip-path="url(#p71d6d91535)" style="fill: #1f77b4"/>
   </g>
   <g id="patch_83">
    <path d="M 694.256493 246.90101 
L 700.850017 246.90101 
L 700.850017 202.965127 
L 694.256493 202.965127 
z
" clip-path="url(#p71d6d91535)" style="fill: #1f77b4"/>
   </g>
   <g id="patch_84">
    <path d="M 701.58263 246.90101 
L 708.176154 246.90101 
L 708.176154 178.116144 
L 701.58263 178.116144 
z
" clip-path="url(#p71d6d91535)" style="fill: #1f77b4"/>
   </g>
   <g id="patch_85">
    <path d="M 708.908768 246.90101 
L 715.502292 246.90101 
L 715.502292 160.469764 
L 708.908768 160.469764 
z
" clip-path="url(#p71d6d91535)" style="fill: #1f77b4"/>
   </g>
   <g id="patch_86">
    <path d="M 716.234906 246.90101 
L 722.82843 246.90101 
L 722.82843 129.498568 
L 716.234906 129.498568 
z
" clip-path="url(#p71d6d91535)" style="fill: #1f77b4"/>
   </g>
   <g id="patch_87">
    <path d="M 723.561043 246.90101 
L 730.154567 246.90101 
L 730.154567 109.331277 
L 723.561043 109.331277 
z
" clip-path="url(#p71d6d91535)" style="fill: #1f77b4"/>
   </g>
   <g id="patch_88">
    <path d="M 730.887181 246.90101 
L 737.480705 246.90101 
L 737.480705 77.639821 
L 730.887181 77.639821 
z
" clip-path="url(#p71d6d91535)" style="fill: #1f77b4"/>
   </g>
   <g id="patch_89">
    <path d="M 738.213319 246.90101 
L 744.806842 246.90101 
L 744.806842 76.55943 
L 738.213319 76.55943 
z
" clip-path="url(#p71d6d91535)" style="fill: #1f77b4"/>
   </g>
   <g id="patch_90">
    <path d="M 745.539456 246.90101 
L 752.13298 246.90101 
L 752.13298 82.681643 
L 745.539456 82.681643 
z
" clip-path="url(#p71d6d91535)" style="fill: #1f77b4"/>
   </g>
   <g id="patch_91">
    <path d="M 752.865594 246.90101 
L 759.459118 246.90101 
L 759.459118 80.880992 
L 752.865594 80.880992 
z
" clip-path="url(#p71d6d91535)" style="fill: #1f77b4"/>
   </g>
   <g id="patch_92">
    <path d="M 760.191732 246.90101 
L 766.785255 246.90101 
L 766.785255 90.604508 
L 760.191732 90.604508 
z
" clip-path="url(#p71d6d91535)" style="fill: #1f77b4"/>
   </g>
   <g id="patch_93">
    <path d="M 767.517869 246.90101 
L 774.111393 246.90101 
L 774.111393 117.614272 
L 767.517869 117.614272 
z
" clip-path="url(#p71d6d91535)" style="fill: #1f77b4"/>
   </g>
   <g id="patch_94">
    <path d="M 774.844007 246.90101 
L 781.437531 246.90101 
L 781.437531 138.861953 
L 774.844007 138.861953 
z
" clip-path="url(#p71d6d91535)" style="fill: #1f77b4"/>
   </g>
   <g id="patch_95">
    <path d="M 782.170144 246.90101 
L 788.763668 246.90101 
L 788.763668 165.871717 
L 782.170144 165.871717 
z
" clip-path="url(#p71d6d91535)" style="fill: #1f77b4"/>
   </g>
   <g id="patch_96">
    <path d="M 789.496282 246.90101 
L 796.089806 246.90101 
L 796.089806 196.482783 
L 789.496282 196.482783 
z
" clip-path="url(#p71d6d91535)" style="fill: #1f77b4"/>
   </g>
   <g id="patch_97">
    <path d="M 796.82242 246.90101 
L 803.415944 246.90101 
L 803.415944 216.650074 
L 796.82242 216.650074 
z
" clip-path="url(#p71d6d91535)" style="fill: #1f77b4"/>
   </g>
   <g id="patch_98">
    <path d="M 804.148557 246.90101 
L 810.742081 246.90101 
L 810.742081 223.132417 
L 804.148557 223.132417 
z
" clip-path="url(#p71d6d91535)" style="fill: #1f77b4"/>
   </g>
   <g id="patch_99">
    <path d="M 811.474695 246.90101 
L 818.068219 246.90101 
L 818.068219 229.254631 
L 811.474695 229.254631 
z
" clip-path="url(#p71d6d91535)" style="fill: #1f77b4"/>
   </g>
   <g id="patch_100">
    <path d="M 818.800833 246.90101 
L 825.394357 246.90101 
L 825.394357 240.778797 
L 818.800833 240.778797 
z
" clip-path="url(#p71d6d91535)" style="fill: #1f77b4"/>
   </g>
   <g id="patch_101">
    <path d="M 826.12697 246.90101 
L 832.720494 246.90101 
L 832.720494 243.659838 
L 826.12697 243.659838 
z
" clip-path="url(#p71d6d91535)" style="fill: #1f77b4"/>
   </g>
   <g id="patch_102">
    <path d="M 833.453108 246.90101 
L 840.046632 246.90101 
L 840.046632 244.740229 
L 833.453108 244.740229 
z
" clip-path="url(#p71d6d91535)" style="fill: #1f77b4"/>
   </g>
   <g id="patch_103">
    <path d="M 840.779246 246.90101 
L 847.372769 246.90101 
L 847.372769 246.18075 
L 840.779246 246.18075 
z
" clip-path="url(#p71d6d91535)" style="fill: #1f77b4"/>
   </g>
   <g id="patch_104">
    <path d="M 848.105383 246.90101 
L 854.698907 246.90101 
L 854.698907 246.18075 
L 848.105383 246.18075 
z
" clip-path="url(#p71d6d91535)" style="fill: #1f77b4"/>
   </g>
   <g id="matplotlib.axis_5">
    <g id="xtick_11">
     <g id="line2d_24">
      <g>
       <use xlink:href="#md3f5025c0a" x="645.175893" y="246.90101" style="stroke: #000000; stroke-width: 0.8"/>
      </g>
     </g>
     <g id="text_28">
      <!-- 0.300 -->
      <g transform="translate(625.136206 264.538822) scale(0.14 -0.14)">
       <use xlink:href="#DejaVuSans-30"/>
       <use xlink:href="#DejaVuSans-2e" x="63.623047"/>
       <use xlink:href="#DejaVuSans-33" x="95.410156"/>
       <use xlink:href="#DejaVuSans-30" x="159.033203"/>
       <use xlink:href="#DejaVuSans-30" x="222.65625"/>
      </g>
     </g>
    </g>
    <g id="xtick_12">
     <g id="line2d_25">
      <g>
       <use xlink:href="#md3f5025c0a" x="705.144023" y="246.90101" style="stroke: #000000; stroke-width: 0.8"/>
      </g>
     </g>
     <g id="text_29">
      <!-- 0.325 -->
      <g transform="translate(685.104335 264.538822) scale(0.14 -0.14)">
       <use xlink:href="#DejaVuSans-30"/>
       <use xlink:href="#DejaVuSans-2e" x="63.623047"/>
       <use xlink:href="#DejaVuSans-33" x="95.410156"/>
       <use xlink:href="#DejaVuSans-32" x="159.033203"/>
       <use xlink:href="#DejaVuSans-35" x="222.65625"/>
      </g>
     </g>
    </g>
    <g id="xtick_13">
     <g id="line2d_26">
      <g>
       <use xlink:href="#md3f5025c0a" x="765.112152" y="246.90101" style="stroke: #000000; stroke-width: 0.8"/>
      </g>
     </g>
     <g id="text_30">
      <!-- 0.350 -->
      <g transform="translate(745.072465 264.538822) scale(0.14 -0.14)">
       <use xlink:href="#DejaVuSans-30"/>
       <use xlink:href="#DejaVuSans-2e" x="63.623047"/>
       <use xlink:href="#DejaVuSans-33" x="95.410156"/>
       <use xlink:href="#DejaVuSans-35" x="159.033203"/>
       <use xlink:href="#DejaVuSans-30" x="222.65625"/>
      </g>
     </g>
    </g>
    <g id="xtick_14">
     <g id="line2d_27">
      <g>
       <use xlink:href="#md3f5025c0a" x="825.080282" y="246.90101" style="stroke: #000000; stroke-width: 0.8"/>
      </g>
     </g>
     <g id="text_31">
      <!-- 0.375 -->
      <g transform="translate(805.040594 264.538822) scale(0.14 -0.14)">
       <defs>
        <path id="DejaVuSans-37" d="M 525 4666 
L 3525 4666 
L 3525 4397 
L 1831 0 
L 1172 0 
L 2766 4134 
L 525 4134 
L 525 4666 
z
" transform="scale(0.015625)"/>
       </defs>
       <use xlink:href="#DejaVuSans-30"/>
       <use xlink:href="#DejaVuSans-2e" x="63.623047"/>
       <use xlink:href="#DejaVuSans-33" x="95.410156"/>
       <use xlink:href="#DejaVuSans-37" x="159.033203"/>
       <use xlink:href="#DejaVuSans-35" x="222.65625"/>
      </g>
     </g>
    </g>
    <g id="text_32">
     <!-- $\nu_{12}$ [-] -->
     <g transform="translate(724.593149 282.088197) scale(0.14 -0.14)">
      <defs>
       <path id="DejaVuSans-Oblique-3bd" d="M 959 0 
L 572 3500 
L 1191 3500 
L 1522 563 
Q 1972 950 2391 1488 
Q 2706 1891 2788 2241 
Q 2825 2406 2809 2719 
Q 2794 3091 2544 3500 
L 3125 3500 
L 3125 3500 
Q 3288 3222 3353 2834 
Q 3416 2478 3369 2234 
Q 3250 1622 2719 1075 
Q 2025 363 1572 0 
L 959 0 
z
" transform="scale(0.015625)"/>
       <path id="DejaVuSans-2d" d="M 313 2009 
L 1997 2009 
L 1997 1497 
L 313 1497 
L 313 2009 
z
" transform="scale(0.015625)"/>
      </defs>
      <use xlink:href="#DejaVuSans-Oblique-3bd" transform="translate(0 0.015625)"/>
      <use xlink:href="#DejaVuSans-31" transform="translate(55.859375 -16.390625) scale(0.7)"/>
      <use xlink:href="#DejaVuSans-32" transform="translate(100.395508 -16.390625) scale(0.7)"/>
      <use xlink:href="#DejaVuSans-20" transform="translate(147.666016 0.015625)"/>
      <use xlink:href="#DejaVuSans-5b" transform="translate(179.453125 0.015625)"/>
      <use xlink:href="#DejaVuSans-2d" transform="translate(218.466797 0.015625)"/>
      <use xlink:href="#DejaVuSans-5d" transform="translate(254.550781 0.015625)"/>
     </g>
    </g>
   </g>
   <g id="matplotlib.axis_6">
    <g id="ytick_11">
     <g id="line2d_28">
      <g>
       <use xlink:href="#m99041602bd" x="624.694816" y="246.90101" style="stroke: #000000; stroke-width: 0.8"/>
      </g>
     </g>
     <g id="text_33">
      <!-- 0 -->
      <g transform="translate(608.787316 252.219916) scale(0.14 -0.14)">
       <use xlink:href="#DejaVuSans-30"/>
      </g>
     </g>
    </g>
    <g id="ytick_12">
     <g id="line2d_29">
      <g>
       <use xlink:href="#m99041602bd" x="624.694816" y="191.905895" style="stroke: #000000; stroke-width: 0.8"/>
      </g>
     </g>
     <g id="text_34">
      <!-- 10 -->
      <g transform="translate(599.879816 197.224801) scale(0.14 -0.14)">
       <use xlink:href="#DejaVuSans-31"/>
       <use xlink:href="#DejaVuSans-30" x="63.623047"/>
      </g>
     </g>
    </g>
    <g id="ytick_13">
     <g id="line2d_30">
      <g>
       <use xlink:href="#m99041602bd" x="624.694816" y="136.91078" style="stroke: #000000; stroke-width: 0.8"/>
      </g>
     </g>
     <g id="text_35">
      <!-- 20 -->
      <g transform="translate(599.879816 142.229686) scale(0.14 -0.14)">
       <use xlink:href="#DejaVuSans-32"/>
       <use xlink:href="#DejaVuSans-30" x="63.623047"/>
      </g>
     </g>
    </g>
    <g id="ytick_14">
     <g id="line2d_31">
      <g>
       <use xlink:href="#m99041602bd" x="624.694816" y="81.915665" style="stroke: #000000; stroke-width: 0.8"/>
      </g>
     </g>
     <g id="text_36">
      <!-- 30 -->
      <g transform="translate(599.879816 87.234571) scale(0.14 -0.14)">
       <use xlink:href="#DejaVuSans-33"/>
       <use xlink:href="#DejaVuSans-30" x="63.623047"/>
      </g>
     </g>
    </g>
    <g id="ytick_15">
     <g id="line2d_32">
      <g>
       <use xlink:href="#m99041602bd" x="624.694816" y="26.92055" style="stroke: #000000; stroke-width: 0.8"/>
      </g>
     </g>
     <g id="text_37">
      <!-- 40 -->
      <g transform="translate(599.879816 32.239456) scale(0.14 -0.14)">
       <use xlink:href="#DejaVuSans-34"/>
       <use xlink:href="#DejaVuSans-30" x="63.623047"/>
      </g>
     </g>
    </g>
   </g>
   <g id="line2d_33">
    <path d="M 669.163145 244.46371 
L 670.616918 243.983086 
L 672.070691 243.420492 
L 673.524463 242.764648 
L 674.978236 242.003245 
L 676.432009 241.122949 
L 677.885782 240.109425 
L 679.339555 238.947388 
L 680.793328 237.620678 
L 682.2471 236.112365 
L 683.700873 234.404892 
L 685.154646 232.480252 
L 686.608419 230.320195 
L 688.062192 227.906485 
L 689.515965 225.221183 
L 690.969737 222.246977 
L 692.42351 218.967537 
L 693.877283 215.367908 
L 695.331056 211.434926 
L 696.784829 207.157649 
L 698.238602 202.527812 
L 699.692375 197.540269 
L 701.146147 192.193443 
L 702.59992 186.489745 
L 704.053693 180.435973 
L 705.507466 174.043661 
L 706.961239 167.329375 
L 708.415012 160.314948 
L 709.868784 153.027622 
L 711.322557 145.500114 
L 712.77633 137.770575 
L 714.230103 129.882443 
L 715.683876 121.884187 
L 717.137649 113.828932 
L 718.591421 105.773976 
L 720.045194 97.780189 
L 721.498967 89.911313 
L 722.95274 82.233161 
L 724.406513 74.81274 
L 725.860286 67.717302 
L 727.314058 61.013347 
L 728.767831 54.765601 
L 730.221604 49.035979 
L 731.675377 43.882573 
L 733.12915 39.35867 
L 734.582923 35.511841 
L 736.036695 32.383103 
L 737.490468 30.006197 
L 738.944241 28.40698 
L 740.398014 27.602955 
L 741.851787 27.602955 
L 743.30556 28.40698 
L 744.759332 30.006197 
L 746.213105 32.383103 
L 747.666878 35.511841 
L 749.120651 39.35867 
L 750.574424 43.882573 
L 752.028197 49.035979 
L 753.481969 54.765601 
L 754.935742 61.013347 
L 756.389515 67.717302 
L 757.843288 74.81274 
L 759.297061 82.233161 
L 760.750834 89.911313 
L 762.204606 97.780189 
L 763.658379 105.773976 
L 765.112152 113.828932 
L 766.565925 121.884187 
L 768.019698 129.882443 
L 769.473471 137.770575 
L 770.927244 145.500114 
L 772.381016 153.027622 
L 773.834789 160.314948 
L 775.288562 167.329375 
L 776.742335 174.043661 
L 778.196108 180.435973 
L 779.649881 186.489745 
L 781.103653 192.193443 
L 782.557426 197.540269 
L 784.011199 202.527812 
L 785.464972 207.157649 
L 786.918745 211.434926 
L 788.372518 215.367908 
L 789.82629 218.967537 
L 791.280063 222.246977 
L 792.733836 225.221183 
L 794.187609 227.906485 
L 795.641382 230.320195 
L 797.095155 232.480252 
L 798.548927 234.404892 
L 800.0027 236.112365 
L 801.456473 237.620678 
L 802.910246 238.947388 
L 804.364019 240.109425 
L 805.817792 241.122949 
L 807.271564 242.003245 
L 808.725337 242.764648 
L 810.17911 243.420492 
L 811.632883 243.983086 
L 813.086656 244.46371 
" clip-path="url(#p71d6d91535)" style="fill: none; stroke: #2ca02c; stroke-width: 1.5; stroke-linecap: square"/>
   </g>
   <g id="patch_105">
    <path d="M 624.694816 246.90101 
L 624.694816 16.638052 
" style="fill: none; stroke: #000000; stroke-width: 0.8; stroke-linejoin: miter; stroke-linecap: square"/>
   </g>
   <g id="patch_106">
    <path d="M 865.651483 246.90101 
L 865.651483 16.638052 
" style="fill: none; stroke: #000000; stroke-width: 0.8; stroke-linejoin: miter; stroke-linecap: square"/>
   </g>
   <g id="patch_107">
    <path d="M 624.694816 246.90101 
L 865.651483 246.90101 
" style="fill: none; stroke: #000000; stroke-width: 0.8; stroke-linejoin: miter; stroke-linecap: square"/>
   </g>
   <g id="patch_108">
    <path d="M 624.694816 16.638052 
L 865.651483 16.638052 
" style="fill: none; stroke: #000000; stroke-width: 0.8; stroke-linejoin: miter; stroke-linecap: square"/>
   </g>
  </g>
  <g id="axes_4">
   <g id="patch_109">
    <path d="M 896.466963 246.90101 
L 1137.42363 246.90101 
L 1137.42363 16.638052 
L 896.466963 16.638052 
z
" style="fill: #ffffff"/>
   </g>
   <g id="patch_110">
    <path d="M 907.419539 246.90101 
L 914.013063 246.90101 
L 914.013063 245.684865 
L 907.419539 245.684865 
z
" clip-path="url(#p113d3c3f34)" style="fill: #1f77b4"/>
   </g>
   <g id="patch_111">
    <path d="M 914.745676 246.90101 
L 921.3392 246.90101 
L 921.3392 245.684865 
L 914.745676 245.684865 
z
" clip-path="url(#p113d3c3f34)" style="fill: #1f77b4"/>
   </g>
   <g id="patch_112">
    <path d="M 922.071814 246.90101 
L 928.665338 246.90101 
L 928.665338 246.090247 
L 922.071814 246.090247 
z
" clip-path="url(#p113d3c3f34)" style="fill: #1f77b4"/>
   </g>
   <g id="patch_113">
    <path d="M 929.397952 246.90101 
L 935.991476 246.90101 
L 935.991476 243.657957 
L 929.397952 243.657957 
z
" clip-path="url(#p113d3c3f34)" style="fill: #1f77b4"/>
   </g>
   <g id="patch_114">
    <path d="M 936.724089 246.90101 
L 943.317613 246.90101 
L 943.317613 242.441812 
L 936.724089 242.441812 
z
" clip-path="url(#p113d3c3f34)" style="fill: #1f77b4"/>
   </g>
   <g id="patch_115">
    <path d="M 944.050227 246.90101 
L 950.643751 246.90101 
L 950.643751 237.982613 
L 944.050227 237.982613 
z
" clip-path="url(#p113d3c3f34)" style="fill: #1f77b4"/>
   </g>
   <g id="patch_116">
    <path d="M 951.376365 246.90101 
L 957.969888 246.90101 
L 957.969888 230.685743 
L 951.376365 230.685743 
z
" clip-path="url(#p113d3c3f34)" style="fill: #1f77b4"/>
   </g>
   <g id="patch_117">
    <path d="M 958.702502 246.90101 
L 965.296026 246.90101 
L 965.296026 216.902766 
L 958.702502 216.902766 
z
" clip-path="url(#p113d3c3f34)" style="fill: #1f77b4"/>
   </g>
   <g id="patch_118">
    <path d="M 966.02864 246.90101 
L 972.622164 246.90101 
L 972.622164 206.362843 
L 966.02864 206.362843 
z
" clip-path="url(#p113d3c3f34)" style="fill: #1f77b4"/>
   </g>
   <g id="patch_119">
    <path d="M 973.354777 246.90101 
L 979.948301 246.90101 
L 979.948301 178.796889 
L 973.354777 178.796889 
z
" clip-path="url(#p113d3c3f34)" style="fill: #1f77b4"/>
   </g>
   <g id="patch_120">
    <path d="M 980.680915 246.90101 
L 987.274439 246.90101 
L 987.274439 158.122424 
L 980.680915 158.122424 
z
" clip-path="url(#p113d3c3f34)" style="fill: #1f77b4"/>
   </g>
   <g id="patch_121">
    <path d="M 988.007053 246.90101 
L 994.600577 246.90101 
L 994.600577 115.557348 
L 988.007053 115.557348 
z
" clip-path="url(#p113d3c3f34)" style="fill: #1f77b4"/>
   </g>
   <g id="patch_122">
    <path d="M 995.33319 246.90101 
L 1001.926714 246.90101 
L 1001.926714 116.368112 
L 995.33319 116.368112 
z
" clip-path="url(#p113d3c3f34)" style="fill: #1f77b4"/>
   </g>
   <g id="patch_123">
    <path d="M 1002.659328 246.90101 
L 1009.252852 246.90101 
L 1009.252852 85.559104 
L 1002.659328 85.559104 
z
" clip-path="url(#p113d3c3f34)" style="fill: #1f77b4"/>
   </g>
   <g id="patch_124">
    <path d="M 1009.985466 246.90101 
L 1016.57899 246.90101 
L 1016.57899 53.939334 
L 1009.985466 53.939334 
z
" clip-path="url(#p113d3c3f34)" style="fill: #1f77b4"/>
   </g>
   <g id="patch_125">
    <path d="M 1017.311603 246.90101 
L 1023.905127 246.90101 
L 1023.905127 63.263112 
L 1017.311603 63.263112 
z
" clip-path="url(#p113d3c3f34)" style="fill: #1f77b4"/>
   </g>
   <g id="patch_126">
    <path d="M 1024.637741 246.90101 
L 1031.231265 246.90101 
L 1031.231265 47.858609 
L 1024.637741 47.858609 
z
" clip-path="url(#p113d3c3f34)" style="fill: #1f77b4"/>
   </g>
   <g id="patch_127">
    <path d="M 1031.963879 246.90101 
L 1038.557403 246.90101 
L 1038.557403 68.938456 
L 1031.963879 68.938456 
z
" clip-path="url(#p113d3c3f34)" style="fill: #1f77b4"/>
   </g>
   <g id="patch_128">
    <path d="M 1039.290016 246.90101 
L 1045.88354 246.90101 
L 1045.88354 90.423685 
L 1039.290016 90.423685 
z
" clip-path="url(#p113d3c3f34)" style="fill: #1f77b4"/>
   </g>
   <g id="patch_129">
    <path d="M 1046.616154 246.90101 
L 1053.209678 246.90101 
L 1053.209678 126.097272 
L 1046.616154 126.097272 
z
" clip-path="url(#p113d3c3f34)" style="fill: #1f77b4"/>
   </g>
   <g id="patch_130">
    <path d="M 1053.942292 246.90101 
L 1060.535815 246.90101 
L 1060.535815 157.717042 
L 1053.942292 157.717042 
z
" clip-path="url(#p113d3c3f34)" style="fill: #1f77b4"/>
   </g>
   <g id="patch_131">
    <path d="M 1061.268429 246.90101 
L 1067.861953 246.90101 
L 1067.861953 165.419294 
L 1061.268429 165.419294 
z
" clip-path="url(#p113d3c3f34)" style="fill: #1f77b4"/>
   </g>
   <g id="patch_132">
    <path d="M 1068.594567 246.90101 
L 1075.188091 246.90101 
L 1075.188091 195.417538 
L 1068.594567 195.417538 
z
" clip-path="url(#p113d3c3f34)" style="fill: #1f77b4"/>
   </g>
   <g id="patch_133">
    <path d="M 1075.920705 246.90101 
L 1082.514228 246.90101 
L 1082.514228 209.605896 
L 1075.920705 209.605896 
z
" clip-path="url(#p113d3c3f34)" style="fill: #1f77b4"/>
   </g>
   <g id="patch_134">
    <path d="M 1083.246842 246.90101 
L 1089.840366 246.90101 
L 1089.840366 223.388873 
L 1083.246842 223.388873 
z
" clip-path="url(#p113d3c3f34)" style="fill: #1f77b4"/>
   </g>
   <g id="patch_135">
    <path d="M 1090.57298 246.90101 
L 1097.166504 246.90101 
L 1097.166504 234.73956 
L 1090.57298 234.73956 
z
" clip-path="url(#p113d3c3f34)" style="fill: #1f77b4"/>
   </g>
   <g id="patch_136">
    <path d="M 1097.899117 246.90101 
L 1104.492641 246.90101 
L 1104.492641 239.60414 
L 1097.899117 239.60414 
z
" clip-path="url(#p113d3c3f34)" style="fill: #1f77b4"/>
   </g>
   <g id="patch_137">
    <path d="M 1105.225255 246.90101 
L 1111.818779 246.90101 
L 1111.818779 242.847193 
L 1105.225255 242.847193 
z
" clip-path="url(#p113d3c3f34)" style="fill: #1f77b4"/>
   </g>
   <g id="patch_138">
    <path d="M 1112.551393 246.90101 
L 1119.144917 246.90101 
L 1119.144917 244.874102 
L 1112.551393 244.874102 
z
" clip-path="url(#p113d3c3f34)" style="fill: #1f77b4"/>
   </g>
   <g id="patch_139">
    <path d="M 1119.87753 246.90101 
L 1126.471054 246.90101 
L 1126.471054 246.090247 
L 1119.87753 246.090247 
z
" clip-path="url(#p113d3c3f34)" style="fill: #1f77b4"/>
   </g>
   <g id="matplotlib.axis_7">
    <g id="xtick_15">
     <g id="line2d_34">
      <g>
       <use xlink:href="#md3f5025c0a" x="911.366726" y="246.90101" style="stroke: #000000; stroke-width: 0.8"/>
      </g>
     </g>
     <g id="text_38">
      <!-- 0.40 -->
      <g transform="translate(895.780788 264.538822) scale(0.14 -0.14)">
       <use xlink:href="#DejaVuSans-30"/>
       <use xlink:href="#DejaVuSans-2e" x="63.623047"/>
       <use xlink:href="#DejaVuSans-34" x="95.410156"/>
       <use xlink:href="#DejaVuSans-30" x="159.033203"/>
      </g>
     </g>
    </g>
    <g id="xtick_16">
     <g id="line2d_35">
      <g>
       <use xlink:href="#md3f5025c0a" x="965.369376" y="246.90101" style="stroke: #000000; stroke-width: 0.8"/>
      </g>
     </g>
     <g id="text_39">
      <!-- 0.42 -->
      <g transform="translate(949.783438 264.538822) scale(0.14 -0.14)">
       <use xlink:href="#DejaVuSans-30"/>
       <use xlink:href="#DejaVuSans-2e" x="63.623047"/>
       <use xlink:href="#DejaVuSans-34" x="95.410156"/>
       <use xlink:href="#DejaVuSans-32" x="159.033203"/>
      </g>
     </g>
    </g>
    <g id="xtick_17">
     <g id="line2d_36">
      <g>
       <use xlink:href="#md3f5025c0a" x="1019.372025" y="246.90101" style="stroke: #000000; stroke-width: 0.8"/>
      </g>
     </g>
     <g id="text_40">
      <!-- 0.44 -->
      <g transform="translate(1003.786088 264.538822) scale(0.14 -0.14)">
       <use xlink:href="#DejaVuSans-30"/>
       <use xlink:href="#DejaVuSans-2e" x="63.623047"/>
       <use xlink:href="#DejaVuSans-34" x="95.410156"/>
       <use xlink:href="#DejaVuSans-34" x="159.033203"/>
      </g>
     </g>
    </g>
    <g id="xtick_18">
     <g id="line2d_37">
      <g>
       <use xlink:href="#md3f5025c0a" x="1073.374675" y="246.90101" style="stroke: #000000; stroke-width: 0.8"/>
      </g>
     </g>
     <g id="text_41">
      <!-- 0.46 -->
      <g transform="translate(1057.788738 264.538822) scale(0.14 -0.14)">
       <use xlink:href="#DejaVuSans-30"/>
       <use xlink:href="#DejaVuSans-2e" x="63.623047"/>
       <use xlink:href="#DejaVuSans-34" x="95.410156"/>
       <use xlink:href="#DejaVuSans-36" x="159.033203"/>
      </g>
     </g>
    </g>
    <g id="xtick_19">
     <g id="line2d_38">
      <g>
       <use xlink:href="#md3f5025c0a" x="1127.377325" y="246.90101" style="stroke: #000000; stroke-width: 0.8"/>
      </g>
     </g>
     <g id="text_42">
      <!-- 0.48 -->
      <g transform="translate(1111.791387 264.538822) scale(0.14 -0.14)">
       <use xlink:href="#DejaVuSans-30"/>
       <use xlink:href="#DejaVuSans-2e" x="63.623047"/>
       <use xlink:href="#DejaVuSans-34" x="95.410156"/>
       <use xlink:href="#DejaVuSans-38" x="159.033203"/>
      </g>
     </g>
    </g>
    <g id="text_43">
     <!-- $\nu_{23}$ [-] -->
     <g transform="translate(996.365296 282.088197) scale(0.14 -0.14)">
      <use xlink:href="#DejaVuSans-Oblique-3bd" transform="translate(0 0.015625)"/>
      <use xlink:href="#DejaVuSans-32" transform="translate(55.859375 -16.390625) scale(0.7)"/>
      <use xlink:href="#DejaVuSans-33" transform="translate(100.395508 -16.390625) scale(0.7)"/>
      <use xlink:href="#DejaVuSans-20" transform="translate(147.666016 0.015625)"/>
      <use xlink:href="#DejaVuSans-5b" transform="translate(179.453125 0.015625)"/>
      <use xlink:href="#DejaVuSans-2d" transform="translate(218.466797 0.015625)"/>
      <use xlink:href="#DejaVuSans-5d" transform="translate(254.550781 0.015625)"/>
     </g>
    </g>
   </g>
   <g id="matplotlib.axis_8">
    <g id="ytick_16">
     <g id="line2d_39">
      <g>
       <use xlink:href="#m99041602bd" x="896.466963" y="246.90101" style="stroke: #000000; stroke-width: 0.8"/>
      </g>
     </g>
     <g id="text_44">
      <!-- 0 -->
      <g transform="translate(880.559463 252.219916) scale(0.14 -0.14)">
       <use xlink:href="#DejaVuSans-30"/>
      </g>
     </g>
    </g>
    <g id="ytick_17">
     <g id="line2d_40">
      <g>
       <use xlink:href="#m99041602bd" x="896.466963" y="191.905895" style="stroke: #000000; stroke-width: 0.8"/>
      </g>
     </g>
     <g id="text_45">
      <!-- 10 -->
      <g transform="translate(871.651963 197.224801) scale(0.14 -0.14)">
       <use xlink:href="#DejaVuSans-31"/>
       <use xlink:href="#DejaVuSans-30" x="63.623047"/>
      </g>
     </g>
    </g>
    <g id="ytick_18">
     <g id="line2d_41">
      <g>
       <use xlink:href="#m99041602bd" x="896.466963" y="136.91078" style="stroke: #000000; stroke-width: 0.8"/>
      </g>
     </g>
     <g id="text_46">
      <!-- 20 -->
      <g transform="translate(871.651963 142.229686) scale(0.14 -0.14)">
       <use xlink:href="#DejaVuSans-32"/>
       <use xlink:href="#DejaVuSans-30" x="63.623047"/>
      </g>
     </g>
    </g>
    <g id="ytick_19">
     <g id="line2d_42">
      <g>
       <use xlink:href="#m99041602bd" x="896.466963" y="81.915665" style="stroke: #000000; stroke-width: 0.8"/>
      </g>
     </g>
     <g id="text_47">
      <!-- 30 -->
      <g transform="translate(871.651963 87.234571) scale(0.14 -0.14)">
       <use xlink:href="#DejaVuSans-33"/>
       <use xlink:href="#DejaVuSans-30" x="63.623047"/>
      </g>
     </g>
    </g>
    <g id="ytick_20">
     <g id="line2d_43">
      <g>
       <use xlink:href="#m99041602bd" x="896.466963" y="26.92055" style="stroke: #000000; stroke-width: 0.8"/>
      </g>
     </g>
     <g id="text_48">
      <!-- 40 -->
      <g transform="translate(871.651963 32.239456) scale(0.14 -0.14)">
       <use xlink:href="#DejaVuSans-34"/>
       <use xlink:href="#DejaVuSans-30" x="63.623047"/>
      </g>
     </g>
    </g>
   </g>
   <g id="line2d_44">
    <path d="M 938.368051 244.46371 
L 940.004495 243.983086 
L 941.640939 243.420492 
L 943.277383 242.764648 
L 944.913826 242.003245 
L 946.55027 241.122949 
L 948.186714 240.109425 
L 949.823158 238.947388 
L 951.459602 237.620678 
L 953.096046 236.112365 
L 954.73249 234.404892 
L 956.368934 232.480252 
L 958.005378 230.320195 
L 959.641822 227.906485 
L 961.278266 225.221183 
L 962.91471 222.246977 
L 964.551154 218.967537 
L 966.187598 215.367908 
L 967.824042 211.434926 
L 969.460485 207.157649 
L 971.096929 202.527812 
L 972.733373 197.540269 
L 974.369817 192.193443 
L 976.006261 186.489745 
L 977.642705 180.435973 
L 979.279149 174.043661 
L 980.915593 167.329375 
L 982.552037 160.314948 
L 984.188481 153.027622 
L 985.824925 145.500114 
L 987.461369 137.770575 
L 989.097813 129.882443 
L 990.734257 121.884187 
L 992.3707 113.828932 
L 994.007144 105.773976 
L 995.643588 97.780189 
L 997.280032 89.911313 
L 998.916476 82.233161 
L 1000.55292 74.81274 
L 1002.189364 67.717302 
L 1003.825808 61.013347 
L 1005.462252 54.765601 
L 1007.098696 49.035979 
L 1008.73514 43.882573 
L 1010.371584 39.35867 
L 1012.008028 35.511841 
L 1013.644472 32.383103 
L 1015.280916 30.006197 
L 1016.917359 28.40698 
L 1018.553803 27.602955 
L 1020.190247 27.602955 
L 1021.826691 28.40698 
L 1023.463135 30.006197 
L 1025.099579 32.383103 
L 1026.736023 35.511841 
L 1028.372467 39.35867 
L 1030.008911 43.882573 
L 1031.645355 49.035979 
L 1033.281799 54.765601 
L 1034.918243 61.013347 
L 1036.554687 67.717302 
L 1038.191131 74.81274 
L 1039.827574 82.233161 
L 1041.464018 89.911313 
L 1043.100462 97.780189 
L 1044.736906 105.773976 
L 1046.37335 113.828932 
L 1048.009794 121.884187 
L 1049.646238 129.882443 
L 1051.282682 137.770575 
L 1052.919126 145.500114 
L 1054.55557 153.027622 
L 1056.192014 160.314948 
L 1057.828458 167.329375 
L 1059.464902 174.043661 
L 1061.101346 180.435973 
L 1062.73779 186.489745 
L 1064.374233 192.193443 
L 1066.010677 197.540269 
L 1067.647121 202.527812 
L 1069.283565 207.157649 
L 1070.920009 211.434926 
L 1072.556453 215.367908 
L 1074.192897 218.967537 
L 1075.829341 222.246977 
L 1077.465785 225.221183 
L 1079.102229 227.906485 
L 1080.738673 230.320195 
L 1082.375117 232.480252 
L 1084.011561 234.404892 
L 1085.648005 236.112365 
L 1087.284448 237.620678 
L 1088.920892 238.947388 
L 1090.557336 240.109425 
L 1092.19378 241.122949 
L 1093.830224 242.003245 
L 1095.466668 242.764648 
L 1097.103112 243.420492 
L 1098.739556 243.983086 
L 1100.376 244.46371 
" clip-path="url(#p113d3c3f34)" style="fill: none; stroke: #2ca02c; stroke-width: 1.5; stroke-linecap: square"/>
   </g>
   <g id="patch_140">
    <path d="M 896.466963 246.90101 
L 896.466963 16.638052 
" style="fill: none; stroke: #000000; stroke-width: 0.8; stroke-linejoin: miter; stroke-linecap: square"/>
   </g>
   <g id="patch_141">
    <path d="M 1137.42363 246.90101 
L 1137.42363 16.638052 
" style="fill: none; stroke: #000000; stroke-width: 0.8; stroke-linejoin: miter; stroke-linecap: square"/>
   </g>
   <g id="patch_142">
    <path d="M 896.466963 246.90101 
L 1137.42363 246.90101 
" style="fill: none; stroke: #000000; stroke-width: 0.8; stroke-linejoin: miter; stroke-linecap: square"/>
   </g>
   <g id="patch_143">
    <path d="M 896.466963 16.638052 
L 1137.42363 16.638052 
" style="fill: none; stroke: #000000; stroke-width: 0.8; stroke-linejoin: miter; stroke-linecap: square"/>
   </g>
  </g>
  <g id="axes_5">
   <g id="patch_144">
    <path d="M 1196.043093 246.90101 
L 1436.99976 246.90101 
L 1436.99976 16.638052 
L 1196.043093 16.638052 
z
" style="fill: #ffffff"/>
   </g>
   <g id="patch_145">
    <path d="M 1206.995669 246.90101 
L 1213.589193 246.90101 
L 1213.589193 246.021112 
L 1206.995669 246.021112 
z
" clip-path="url(#p29005ece07)" style="fill: #1f77b4"/>
   </g>
   <g id="patch_146">
    <path d="M 1214.321806 246.90101 
L 1220.91533 246.90101 
L 1220.91533 246.021112 
L 1214.321806 246.021112 
z
" clip-path="url(#p29005ece07)" style="fill: #1f77b4"/>
   </g>
   <g id="patch_147">
    <path d="M 1221.647944 246.90101 
L 1228.241468 246.90101 
L 1228.241468 246.021112 
L 1221.647944 246.021112 
z
" clip-path="url(#p29005ece07)" style="fill: #1f77b4"/>
   </g>
   <g id="patch_148">
    <path d="M 1228.974082 246.90101 
L 1235.567605 246.90101 
L 1235.567605 243.821367 
L 1228.974082 243.821367 
z
" clip-path="url(#p29005ece07)" style="fill: #1f77b4"/>
   </g>
   <g id="patch_149">
    <path d="M 1236.300219 246.90101 
L 1242.893743 246.90101 
L 1242.893743 239.421876 
L 1236.300219 239.421876 
z
" clip-path="url(#p29005ece07)" style="fill: #1f77b4"/>
   </g>
   <g id="patch_150">
    <path d="M 1243.626357 246.90101 
L 1250.219881 246.90101 
L 1250.219881 235.902283 
L 1243.626357 235.902283 
z
" clip-path="url(#p29005ece07)" style="fill: #1f77b4"/>
   </g>
   <g id="patch_151">
    <path d="M 1250.952495 246.90101 
L 1257.546018 246.90101 
L 1257.546018 224.903557 
L 1250.952495 224.903557 
z
" clip-path="url(#p29005ece07)" style="fill: #1f77b4"/>
   </g>
   <g id="patch_152">
    <path d="M 1258.278632 246.90101 
L 1264.872156 246.90101 
L 1264.872156 216.984473 
L 1258.278632 216.984473 
z
" clip-path="url(#p29005ece07)" style="fill: #1f77b4"/>
   </g>
   <g id="patch_153">
    <path d="M 1265.60477 246.90101 
L 1272.198294 246.90101 
L 1272.198294 197.626715 
L 1265.60477 197.626715 
z
" clip-path="url(#p29005ece07)" style="fill: #1f77b4"/>
   </g>
   <g id="patch_154">
    <path d="M 1272.930907 246.90101 
L 1279.524431 246.90101 
L 1279.524431 188.387784 
L 1272.930907 188.387784 
z
" clip-path="url(#p29005ece07)" style="fill: #1f77b4"/>
   </g>
   <g id="patch_155">
    <path d="M 1280.257045 246.90101 
L 1286.850569 246.90101 
L 1286.850569 160.670993 
L 1280.257045 160.670993 
z
" clip-path="url(#p29005ece07)" style="fill: #1f77b4"/>
   </g>
   <g id="patch_156">
    <path d="M 1287.583183 246.90101 
L 1294.176707 246.90101 
L 1294.176707 121.955475 
L 1287.583183 121.955475 
z
" clip-path="url(#p29005ece07)" style="fill: #1f77b4"/>
   </g>
   <g id="patch_157">
    <path d="M 1294.90932 246.90101 
L 1301.502844 246.90101 
L 1301.502844 88.519346 
L 1294.90932 88.519346 
z
" clip-path="url(#p29005ece07)" style="fill: #1f77b4"/>
   </g>
   <g id="patch_158">
    <path d="M 1302.235458 246.90101 
L 1308.828982 246.90101 
L 1308.828982 74.880925 
L 1302.235458 74.880925 
z
" clip-path="url(#p29005ece07)" style="fill: #1f77b4"/>
   </g>
   <g id="patch_159">
    <path d="M 1309.561596 246.90101 
L 1316.15512 246.90101 
L 1316.15512 61.682453 
L 1309.561596 61.682453 
z
" clip-path="url(#p29005ece07)" style="fill: #1f77b4"/>
   </g>
   <g id="patch_160">
    <path d="M 1316.887733 246.90101 
L 1323.481257 246.90101 
L 1323.481257 45.404338 
L 1316.887733 45.404338 
z
" clip-path="url(#p29005ece07)" style="fill: #1f77b4"/>
   </g>
   <g id="patch_161">
    <path d="M 1324.213871 246.90101 
L 1330.807395 246.90101 
L 1330.807395 59.042759 
L 1324.213871 59.042759 
z
" clip-path="url(#p29005ece07)" style="fill: #1f77b4"/>
   </g>
   <g id="patch_162">
    <path d="M 1331.540009 246.90101 
L 1338.133532 246.90101 
L 1338.133532 49.363879 
L 1331.540009 49.363879 
z
" clip-path="url(#p29005ece07)" style="fill: #1f77b4"/>
   </g>
   <g id="patch_163">
    <path d="M 1338.866146 246.90101 
L 1345.45967 246.90101 
L 1345.45967 64.762097 
L 1338.866146 64.762097 
z
" clip-path="url(#p29005ece07)" style="fill: #1f77b4"/>
   </g>
   <g id="patch_164">
    <path d="M 1346.192284 246.90101 
L 1352.785808 246.90101 
L 1352.785808 112.716545 
L 1346.192284 112.716545 
z
" clip-path="url(#p29005ece07)" style="fill: #1f77b4"/>
   </g>
   <g id="patch_165">
    <path d="M 1353.518422 246.90101 
L 1360.111945 246.90101 
L 1360.111945 127.674813 
L 1353.518422 127.674813 
z
" clip-path="url(#p29005ece07)" style="fill: #1f77b4"/>
   </g>
   <g id="patch_166">
    <path d="M 1360.844559 246.90101 
L 1367.438083 246.90101 
L 1367.438083 157.59135 
L 1360.844559 157.59135 
z
" clip-path="url(#p29005ece07)" style="fill: #1f77b4"/>
   </g>
   <g id="patch_167">
    <path d="M 1368.170697 246.90101 
L 1374.764221 246.90101 
L 1374.764221 187.507886 
L 1368.170697 187.507886 
z
" clip-path="url(#p29005ece07)" style="fill: #1f77b4"/>
   </g>
   <g id="patch_168">
    <path d="M 1375.496834 246.90101 
L 1382.090358 246.90101 
L 1382.090358 201.146307 
L 1375.496834 201.146307 
z
" clip-path="url(#p29005ece07)" style="fill: #1f77b4"/>
   </g>
   <g id="patch_169">
    <path d="M 1382.822972 246.90101 
L 1389.416496 246.90101 
L 1389.416496 214.784728 
L 1382.822972 214.784728 
z
" clip-path="url(#p29005ece07)" style="fill: #1f77b4"/>
   </g>
   <g id="patch_170">
    <path d="M 1390.14911 246.90101 
L 1396.742634 246.90101 
L 1396.742634 227.543251 
L 1390.14911 227.543251 
z
" clip-path="url(#p29005ece07)" style="fill: #1f77b4"/>
   </g>
   <g id="patch_171">
    <path d="M 1397.475247 246.90101 
L 1404.068771 246.90101 
L 1404.068771 237.222131 
L 1397.475247 237.222131 
z
" clip-path="url(#p29005ece07)" style="fill: #1f77b4"/>
   </g>
   <g id="patch_172">
    <path d="M 1404.801385 246.90101 
L 1411.394909 246.90101 
L 1411.394909 242.941468 
L 1404.801385 242.941468 
z
" clip-path="url(#p29005ece07)" style="fill: #1f77b4"/>
   </g>
   <g id="patch_173">
    <path d="M 1412.127523 246.90101 
L 1418.721047 246.90101 
L 1418.721047 241.621621 
L 1412.127523 241.621621 
z
" clip-path="url(#p29005ece07)" style="fill: #1f77b4"/>
   </g>
   <g id="patch_174">
    <path d="M 1419.45366 246.90101 
L 1426.047184 246.90101 
L 1426.047184 245.141214 
L 1419.45366 245.141214 
z
" clip-path="url(#p29005ece07)" style="fill: #1f77b4"/>
   </g>
   <g id="matplotlib.axis_9">
    <g id="xtick_20">
     <g id="line2d_45">
      <g>
       <use xlink:href="#md3f5025c0a" x="1222.840111" y="246.90101" style="stroke: #000000; stroke-width: 0.8"/>
      </g>
     </g>
     <g id="text_49">
      <!-- 4800 -->
      <g transform="translate(1205.025111 264.538822) scale(0.14 -0.14)">
       <use xlink:href="#DejaVuSans-34"/>
       <use xlink:href="#DejaVuSans-38" x="63.623047"/>
       <use xlink:href="#DejaVuSans-30" x="127.246094"/>
       <use xlink:href="#DejaVuSans-30" x="190.869141"/>
      </g>
     </g>
    </g>
    <g id="xtick_21">
     <g id="line2d_46">
      <g>
       <use xlink:href="#md3f5025c0a" x="1306.565142" y="246.90101" style="stroke: #000000; stroke-width: 0.8"/>
      </g>
     </g>
     <g id="text_50">
      <!-- 5000 -->
      <g transform="translate(1288.750142 264.538822) scale(0.14 -0.14)">
       <use xlink:href="#DejaVuSans-35"/>
       <use xlink:href="#DejaVuSans-30" x="63.623047"/>
       <use xlink:href="#DejaVuSans-30" x="127.246094"/>
       <use xlink:href="#DejaVuSans-30" x="190.869141"/>
      </g>
     </g>
    </g>
    <g id="xtick_22">
     <g id="line2d_47">
      <g>
       <use xlink:href="#md3f5025c0a" x="1390.290174" y="246.90101" style="stroke: #000000; stroke-width: 0.8"/>
      </g>
     </g>
     <g id="text_51">
      <!-- 5200 -->
      <g transform="translate(1372.475174 264.538822) scale(0.14 -0.14)">
       <use xlink:href="#DejaVuSans-35"/>
       <use xlink:href="#DejaVuSans-32" x="63.623047"/>
       <use xlink:href="#DejaVuSans-30" x="127.246094"/>
       <use xlink:href="#DejaVuSans-30" x="190.869141"/>
      </g>
     </g>
    </g>
    <g id="text_52">
     <!-- $G_{12}$ [MPa] -->
     <g transform="translate(1282.431426 282.088197) scale(0.14 -0.14)">
      <defs>
       <path id="DejaVuSans-Oblique-47" d="M 3494 697 
L 3738 1919 
L 2700 1919 
L 2797 2438 
L 4453 2438 
L 4050 384 
Q 3634 156 3143 32 
Q 2653 -91 2156 -91 
Q 1278 -91 783 396 
Q 288 884 288 1753 
Q 288 2475 589 3126 
Q 891 3778 1422 4213 
Q 1756 4484 2153 4617 
Q 2550 4750 3034 4750 
Q 3472 4750 3873 4639 
Q 4275 4528 4641 4306 
L 4513 3634 
Q 4231 3928 3853 4083 
Q 3475 4238 3047 4238 
Q 2550 4238 2172 4048 
Q 1794 3859 1497 3463 
Q 1244 3125 1098 2667 
Q 953 2209 953 1734 
Q 953 1081 1287 751 
Q 1622 422 2284 422 
Q 2616 422 2925 492 
Q 3234 563 3494 697 
z
" transform="scale(0.015625)"/>
      </defs>
      <use xlink:href="#DejaVuSans-Oblique-47" transform="translate(0 0.015625)"/>
      <use xlink:href="#DejaVuSans-31" transform="translate(77.490234 -16.390625) scale(0.7)"/>
      <use xlink:href="#DejaVuSans-32" transform="translate(122.026367 -16.390625) scale(0.7)"/>
      <use xlink:href="#DejaVuSans-20" transform="translate(169.296875 0.015625)"/>
      <use xlink:href="#DejaVuSans-5b" transform="translate(201.083984 0.015625)"/>
      <use xlink:href="#DejaVuSans-4d" transform="translate(240.097656 0.015625)"/>
      <use xlink:href="#DejaVuSans-50" transform="translate(326.376953 0.015625)"/>
      <use xlink:href="#DejaVuSans-61" transform="translate(386.679688 0.015625)"/>
      <use xlink:href="#DejaVuSans-5d" transform="translate(447.958984 0.015625)"/>
     </g>
    </g>
   </g>
   <g id="matplotlib.axis_10">
    <g id="ytick_21">
     <g id="line2d_48">
      <g>
       <use xlink:href="#m99041602bd" x="1196.043093" y="246.90101" style="stroke: #000000; stroke-width: 0.8"/>
      </g>
     </g>
     <g id="text_53">
      <!-- 0.000 -->
      <g transform="translate(1148.963718 252.219916) scale(0.14 -0.14)">
       <use xlink:href="#DejaVuSans-30"/>
       <use xlink:href="#DejaVuSans-2e" x="63.623047"/>
       <use xlink:href="#DejaVuSans-30" x="95.410156"/>
       <use xlink:href="#DejaVuSans-30" x="159.033203"/>
       <use xlink:href="#DejaVuSans-30" x="222.65625"/>
      </g>
     </g>
    </g>
    <g id="ytick_22">
     <g id="line2d_49">
      <g>
       <use xlink:href="#m99041602bd" x="1196.043093" y="208.40443" style="stroke: #000000; stroke-width: 0.8"/>
      </g>
     </g>
     <g id="text_54">
      <!-- 0.001 -->
      <g transform="translate(1148.963718 213.723336) scale(0.14 -0.14)">
       <use xlink:href="#DejaVuSans-30"/>
       <use xlink:href="#DejaVuSans-2e" x="63.623047"/>
       <use xlink:href="#DejaVuSans-30" x="95.410156"/>
       <use xlink:href="#DejaVuSans-30" x="159.033203"/>
       <use xlink:href="#DejaVuSans-31" x="222.65625"/>
      </g>
     </g>
    </g>
    <g id="ytick_23">
     <g id="line2d_50">
      <g>
       <use xlink:href="#m99041602bd" x="1196.043093" y="169.907849" style="stroke: #000000; stroke-width: 0.8"/>
      </g>
     </g>
     <g id="text_55">
      <!-- 0.002 -->
      <g transform="translate(1148.963718 175.226755) scale(0.14 -0.14)">
       <use xlink:href="#DejaVuSans-30"/>
       <use xlink:href="#DejaVuSans-2e" x="63.623047"/>
       <use xlink:href="#DejaVuSans-30" x="95.410156"/>
       <use xlink:href="#DejaVuSans-30" x="159.033203"/>
       <use xlink:href="#DejaVuSans-32" x="222.65625"/>
      </g>
     </g>
    </g>
    <g id="ytick_24">
     <g id="line2d_51">
      <g>
       <use xlink:href="#m99041602bd" x="1196.043093" y="131.411269" style="stroke: #000000; stroke-width: 0.8"/>
      </g>
     </g>
     <g id="text_56">
      <!-- 0.003 -->
      <g transform="translate(1148.963718 136.730175) scale(0.14 -0.14)">
       <use xlink:href="#DejaVuSans-30"/>
       <use xlink:href="#DejaVuSans-2e" x="63.623047"/>
       <use xlink:href="#DejaVuSans-30" x="95.410156"/>
       <use xlink:href="#DejaVuSans-30" x="159.033203"/>
       <use xlink:href="#DejaVuSans-33" x="222.65625"/>
      </g>
     </g>
    </g>
    <g id="ytick_25">
     <g id="line2d_52">
      <g>
       <use xlink:href="#m99041602bd" x="1196.043093" y="92.914688" style="stroke: #000000; stroke-width: 0.8"/>
      </g>
     </g>
     <g id="text_57">
      <!-- 0.004 -->
      <g transform="translate(1148.963718 98.233594) scale(0.14 -0.14)">
       <use xlink:href="#DejaVuSans-30"/>
       <use xlink:href="#DejaVuSans-2e" x="63.623047"/>
       <use xlink:href="#DejaVuSans-30" x="95.410156"/>
       <use xlink:href="#DejaVuSans-30" x="159.033203"/>
       <use xlink:href="#DejaVuSans-34" x="222.65625"/>
      </g>
     </g>
    </g>
    <g id="ytick_26">
     <g id="line2d_53">
      <g>
       <use xlink:href="#m99041602bd" x="1196.043093" y="54.418108" style="stroke: #000000; stroke-width: 0.8"/>
      </g>
     </g>
     <g id="text_58">
      <!-- 0.005 -->
      <g transform="translate(1148.963718 59.737014) scale(0.14 -0.14)">
       <use xlink:href="#DejaVuSans-30"/>
       <use xlink:href="#DejaVuSans-2e" x="63.623047"/>
       <use xlink:href="#DejaVuSans-30" x="95.410156"/>
       <use xlink:href="#DejaVuSans-30" x="159.033203"/>
       <use xlink:href="#DejaVuSans-35" x="222.65625"/>
      </g>
     </g>
    </g>
   </g>
   <g id="line2d_54">
    <path d="M 1243.771369 244.46371 
L 1245.547354 243.983086 
L 1247.32334 243.420492 
L 1249.099325 242.764648 
L 1250.875311 242.003245 
L 1252.651296 241.122949 
L 1254.427282 240.109425 
L 1256.203267 238.947388 
L 1257.979253 237.620678 
L 1259.755238 236.112365 
L 1261.531224 234.404892 
L 1263.307209 232.480252 
L 1265.083195 230.320195 
L 1266.85918 227.906485 
L 1268.635166 225.221183 
L 1270.411151 222.246977 
L 1272.187137 218.967537 
L 1273.963123 215.367908 
L 1275.739108 211.434926 
L 1277.515094 207.157649 
L 1279.291079 202.527812 
L 1281.067065 197.540269 
L 1282.84305 192.193443 
L 1284.619036 186.489745 
L 1286.395021 180.435973 
L 1288.171007 174.043661 
L 1289.946992 167.329375 
L 1291.722978 160.314948 
L 1293.498963 153.027622 
L 1295.274949 145.500114 
L 1297.050934 137.770575 
L 1298.82692 129.882443 
L 1300.602905 121.884187 
L 1302.378891 113.828932 
L 1304.154876 105.773976 
L 1305.930862 97.780189 
L 1307.706847 89.911313 
L 1309.482833 82.233161 
L 1311.258818 74.81274 
L 1313.034804 67.717302 
L 1314.810789 61.013347 
L 1316.586775 54.765601 
L 1318.36276 49.035979 
L 1320.138746 43.882573 
L 1321.914732 39.35867 
L 1323.690717 35.511841 
L 1325.466703 32.383103 
L 1327.242688 30.006197 
L 1329.018674 28.40698 
L 1330.794659 27.602955 
L 1332.570645 27.602955 
L 1334.34663 28.40698 
L 1336.122616 30.006197 
L 1337.898601 32.383103 
L 1339.674587 35.511841 
L 1341.450572 39.35867 
L 1343.226558 43.882573 
L 1345.002543 49.035979 
L 1346.778529 54.765601 
L 1348.554514 61.013347 
L 1350.3305 67.717302 
L 1352.106485 74.81274 
L 1353.882471 82.233161 
L 1355.658456 89.911313 
L 1357.434442 97.780189 
L 1359.210427 105.773976 
L 1360.986413 113.828932 
L 1362.762398 121.884187 
L 1364.538384 129.882443 
L 1366.314369 137.770575 
L 1368.090355 145.500114 
L 1369.866341 153.027622 
L 1371.642326 160.314948 
L 1373.418312 167.329375 
L 1375.194297 174.043661 
L 1376.970283 180.435973 
L 1378.746268 186.489745 
L 1380.522254 192.193443 
L 1382.298239 197.540269 
L 1384.074225 202.527812 
L 1385.85021 207.157649 
L 1387.626196 211.434926 
L 1389.402181 215.367908 
L 1391.178167 218.967537 
L 1392.954152 222.246977 
L 1394.730138 225.221183 
L 1396.506123 227.906485 
L 1398.282109 230.320195 
L 1400.058094 232.480252 
L 1401.83408 234.404892 
L 1403.610065 236.112365 
L 1405.386051 237.620678 
L 1407.162036 238.947388 
L 1408.938022 240.109425 
L 1410.714007 241.122949 
L 1412.489993 242.003245 
L 1414.265978 242.764648 
L 1416.041964 243.420492 
L 1417.81795 243.983086 
L 1419.593935 244.46371 
" clip-path="url(#p29005ece07)" style="fill: none; stroke: #2ca02c; stroke-width: 1.5; stroke-linecap: square"/>
   </g>
   <g id="patch_175">
    <path d="M 1196.043093 246.90101 
L 1196.043093 16.638052 
" style="fill: none; stroke: #000000; stroke-width: 0.8; stroke-linejoin: miter; stroke-linecap: square"/>
   </g>
   <g id="patch_176">
    <path d="M 1436.99976 246.90101 
L 1436.99976 16.638052 
" style="fill: none; stroke: #000000; stroke-width: 0.8; stroke-linejoin: miter; stroke-linecap: square"/>
   </g>
   <g id="patch_177">
    <path d="M 1196.043093 246.90101 
L 1436.99976 246.90101 
" style="fill: none; stroke: #000000; stroke-width: 0.8; stroke-linejoin: miter; stroke-linecap: square"/>
   </g>
   <g id="patch_178">
    <path d="M 1196.043093 16.638052 
L 1436.99976 16.638052 
" style="fill: none; stroke: #000000; stroke-width: 0.8; stroke-linejoin: miter; stroke-linecap: square"/>
   </g>
  </g>
 </g>
 <defs>
  <clipPath id="p67134152f6">
   <rect x="36.457115" y="16.638052" width="240.956667" height="230.262958"/>
  </clipPath>
  <clipPath id="p85c8de5c58">
   <rect x="337.001097" y="16.638052" width="240.956667" height="230.262958"/>
  </clipPath>
  <clipPath id="p71d6d91535">
   <rect x="624.694816" y="16.638052" width="240.956667" height="230.262958"/>
  </clipPath>
  <clipPath id="p113d3c3f34">
   <rect x="896.466963" y="16.638052" width="240.956667" height="230.262958"/>
  </clipPath>
  <clipPath id="p29005ece07">
   <rect x="1196.043093" y="16.638052" width="240.956667" height="230.262958"/>
  </clipPath>
 </defs>
</svg>
