<?xml version="1.0" encoding="utf-8" standalone="no"?>
<!DOCTYPE svg PUBLIC "-//W3C//DTD SVG 1.1//EN"
  "http://www.w3.org/Graphics/SVG/1.1/DTD/svg11.dtd">
<svg xmlns:xlink="http://www.w3.org/1999/xlink" width="504pt" height="252pt" viewBox="0 0 504 252" xmlns="http://www.w3.org/2000/svg" version="1.1">
 <metadata>
  <rdf:RDF xmlns:dc="http://purl.org/dc/elements/1.1/" xmlns:cc="http://creativecommons.org/ns#" xmlns:rdf="http://www.w3.org/1999/02/22-rdf-syntax-ns#">
   <cc:Work>
    <dc:type rdf:resource="http://purl.org/dc/dcmitype/StillImage"/>
    <dc:date>2024-11-24T00:01:19.599012</dc:date>
    <dc:format>image/svg+xml</dc:format>
    <dc:creator>
     <cc:Agent>
      <dc:title>Matplotlib v3.9.2, https://matplotlib.org/</dc:title>
     </cc:Agent>
    </dc:creator>
   </cc:Work>
  </rdf:RDF>
 </metadata>
 <defs>
  <style type="text/css">*{stroke-linejoin: round; stroke-linecap: butt}</style>
 </defs>
 <g id="figure_1">
  <g id="patch_1">
   <path d="M 0 252 
L 504 252 
L 504 0 
L 0 0 
z
" style="fill: #ffffff"/>
  </g>
  <g id="axes_1">
   <g id="patch_2">
    <path d="M 36.403365 218.64351 
L 260.834086 218.64351 
L 260.834086 18.118365 
L 36.403365 18.118365 
z
" style="fill: #ffffff"/>
   </g>
   <g id="PolyCollection_1">
    <defs>
     <path id="m2116d0e82f" d="M 60.493777 -42.471269 
L 60.403814 -42.471269 
L 58.232278 -44.312639 
L 56.299655 -46.154008 
L 54.605944 -47.995378 
L 53.151145 -49.836748 
L 51.935259 -51.678117 
L 50.892996 -53.519487 
L 49.959069 -55.360856 
L 49.133479 -57.202226 
L 48.416224 -59.043595 
L 47.807305 -60.884965 
L 47.306722 -62.726334 
L 46.914476 -64.567704 
L 46.630565 -66.409074 
L 46.448449 -68.250443 
L 46.361588 -70.091813 
L 46.369981 -71.933182 
L 46.473629 -73.774552 
L 46.672531 -75.615921 
L 46.966687 -77.457291 
L 47.356098 -79.298661 
L 47.840763 -81.14003 
L 48.36532 -82.9814 
L 48.874404 -84.822769 
L 49.368017 -86.664139 
L 49.846158 -88.505508 
L 50.308827 -90.346878 
L 50.756024 -92.188247 
L 51.187749 -94.029617 
L 51.604003 -95.870987 
L 51.959146 -97.712356 
L 52.207541 -99.553726 
L 52.349188 -101.395095 
L 52.384087 -103.236465 
L 52.312237 -105.077834 
L 52.133639 -106.919204 
L 51.848292 -108.760573 
L 51.456198 -110.601943 
L 51.064937 -112.443313 
L 50.782094 -114.284682 
L 50.607669 -116.126052 
L 50.54166 -117.967421 
L 50.584069 -119.808791 
L 50.734895 -121.65016 
L 50.994138 -123.49153 
L 51.361798 -125.332899 
L 51.748274 -127.174269 
L 52.063963 -129.015639 
L 52.308866 -130.857008 
L 52.482981 -132.698378 
L 52.586311 -134.539747 
L 52.618853 -136.381117 
L 52.580609 -138.222486 
L 52.471578 -140.063856 
L 52.313677 -141.905226 
L 52.12882 -143.746595 
L 51.917007 -145.587965 
L 51.67824 -147.429334 
L 51.412517 -149.270704 
L 51.11984 -151.112073 
L 50.800207 -152.953443 
L 50.453618 -154.794812 
L 50.080169 -156.636182 
L 49.679953 -158.477552 
L 49.252971 -160.318921 
L 48.799222 -162.160291 
L 48.318707 -164.00166 
L 47.811425 -165.84303 
L 47.277377 -167.684399 
L 46.716562 -169.525769 
L 46.141219 -171.367138 
L 45.563586 -173.208508 
L 44.983663 -175.049878 
L 44.401449 -176.891247 
L 43.816946 -178.732617 
L 43.230152 -180.573986 
L 42.641068 -182.415356 
L 42.049694 -184.256725 
L 41.4821 -186.098095 
L 40.964358 -187.939464 
L 40.496466 -189.780834 
L 40.078425 -191.622204 
L 39.710236 -193.463573 
L 39.391897 -195.304943 
L 39.12341 -197.146312 
L 38.904773 -198.987682 
L 38.763332 -200.829051 
L 38.726432 -202.670421 
L 38.794071 -204.511791 
L 38.966251 -206.35316 
L 39.242971 -208.19453 
L 39.624231 -210.035899 
L 40.110032 -211.877269 
L 40.700373 -213.718638 
L 41.395254 -215.560008 
L 42.194675 -217.401377 
L 43.098636 -219.242747 
L 44.107138 -221.084117 
L 45.22018 -222.925486 
L 46.437762 -224.766856 
L 77.762004 -224.766856 
L 77.762004 -224.766856 
L 79.317412 -222.925486 
L 80.748742 -221.084117 
L 82.055995 -219.242747 
L 83.23917 -217.401377 
L 84.298267 -215.560008 
L 85.233286 -213.718638 
L 86.044228 -211.877269 
L 86.731093 -210.035899 
L 87.293879 -208.19453 
L 87.732588 -206.35316 
L 88.047219 -204.511791 
L 88.237773 -202.670421 
L 88.304249 -200.829051 
L 88.246647 -198.987682 
L 88.064968 -197.146312 
L 87.781974 -195.304943 
L 87.420426 -193.463573 
L 86.980326 -191.622204 
L 86.461674 -189.780834 
L 85.864468 -187.939464 
L 85.18871 -186.098095 
L 84.434399 -184.256725 
L 83.601535 -182.415356 
L 82.729816 -180.573986 
L 81.858939 -178.732617 
L 80.988903 -176.891247 
L 80.119709 -175.049878 
L 79.251358 -173.208508 
L 78.383848 -171.367138 
L 77.51718 -169.525769 
L 76.651353 -167.684399 
L 75.83656 -165.84303 
L 75.12299 -164.00166 
L 74.510643 -162.160291 
L 73.99952 -160.318921 
L 73.58962 -158.477552 
L 73.280943 -156.636182 
L 73.07349 -154.794812 
L 72.96726 -152.953443 
L 72.893638 -151.112073 
L 72.784009 -149.270704 
L 72.638371 -147.429334 
L 72.456726 -145.587965 
L 72.239072 -143.746595 
L 71.985411 -141.905226 
L 71.695742 -140.063856 
L 71.370066 -138.222486 
L 71.069205 -136.381117 
L 70.853983 -134.539747 
L 70.7244 -132.698378 
L 70.680456 -130.857008 
L 70.722152 -129.015639 
L 70.849487 -127.174269 
L 71.062461 -125.332899 
L 71.361074 -123.49153 
L 71.651815 -121.65016 
L 71.841175 -119.808791 
L 71.929152 -117.967421 
L 71.915747 -116.126052 
L 71.80096 -114.284682 
L 71.58479 -112.443313 
L 71.267239 -110.601943 
L 70.848305 -108.760573 
L 70.431749 -106.919204 
L 70.121331 -105.077834 
L 69.917051 -103.236465 
L 69.818909 -101.395095 
L 69.826905 -99.553726 
L 69.941039 -97.712356 
L 70.161311 -95.870987 
L 70.487721 -94.029617 
L 70.86701 -92.188247 
L 71.245921 -90.346878 
L 71.624454 -88.505508 
L 72.002608 -86.664139 
L 72.380383 -84.822769 
L 72.75778 -82.9814 
L 73.134798 -81.14003 
L 73.511438 -79.298661 
L 73.838677 -77.457291 
L 74.067492 -75.615921 
L 74.197884 -73.774552 
L 74.229853 -71.933182 
L 74.163399 -70.091813 
L 73.998521 -68.250443 
L 73.735221 -66.409074 
L 73.373497 -64.567704 
L 72.907363 -62.726334 
L 72.330834 -60.884965 
L 71.643909 -59.043595 
L 70.846588 -57.202226 
L 69.938872 -55.360856 
L 68.92076 -53.519487 
L 67.792252 -51.678117 
L 66.553348 -49.836748 
L 65.204049 -47.995378 
L 63.744354 -46.154008 
L 62.174263 -44.312639 
L 60.493777 -42.471269 
z
" style="stroke: #90ee90; stroke-opacity: 0.75"/>
    </defs>
    <g clip-path="url(#pbf0f46b6e2)">
     <use xlink:href="#m2116d0e82f" x="0" y="252" style="fill: #90ee90; fill-opacity: 0.75; stroke: #90ee90; stroke-opacity: 0.75"/>
    </g>
   </g>
   <g id="PolyCollection_2">
    <defs>
     <path id="mb6a85bd7b2" d="M 60.487455 -42.471269 
L 60.39803 -42.471269 
L 60.449373 -44.312639 
L 60.485484 -46.154008 
L 60.519027 -47.995378 
L 60.547442 -49.836748 
L 60.575699 -51.678117 
L 60.601973 -53.519487 
L 60.625751 -55.360856 
L 60.654554 -57.202226 
L 60.678329 -59.043595 
L 60.70114 -60.884965 
L 60.722247 -62.726334 
L 60.740742 -64.567704 
L 60.765716 -66.409074 
L 60.788715 -68.250443 
L 60.810881 -70.091813 
L 60.828805 -71.933182 
L 60.845253 -73.774552 
L 60.869561 -75.615921 
L 60.887726 -77.457291 
L 60.909117 -79.298661 
L 60.921137 -81.14003 
L 60.938533 -82.9814 
L 60.957287 -84.822769 
L 60.969061 -86.664139 
L 60.987821 -88.505508 
L 61.002881 -90.346878 
L 61.022124 -92.188247 
L 61.035745 -94.029617 
L 61.047256 -95.870987 
L 61.060137 -97.712356 
L 61.071514 -99.553726 
L 61.081683 -101.395095 
L 61.094177 -103.236465 
L 61.106946 -105.077834 
L 61.11707 -106.919204 
L 61.130838 -108.760573 
L 61.142286 -110.601943 
L 61.15349 -112.443313 
L 61.165045 -114.284682 
L 61.179858 -116.126052 
L 61.183003 -117.967421 
L 61.199842 -119.808791 
L 61.208502 -121.65016 
L 61.218539 -123.49153 
L 61.231185 -125.332899 
L 61.242271 -127.174269 
L 61.245472 -129.015639 
L 61.250159 -130.857008 
L 61.258831 -132.698378 
L 61.264698 -134.539747 
L 61.274087 -136.381117 
L 61.279675 -138.222486 
L 61.28898 -140.063856 
L 61.291924 -141.905226 
L 61.30323 -143.746595 
L 61.310789 -145.587965 
L 61.318871 -147.429334 
L 61.330569 -149.270704 
L 61.334305 -151.112073 
L 61.342349 -152.953443 
L 61.347499 -154.794812 
L 61.355014 -156.636182 
L 61.369634 -158.477552 
L 61.368563 -160.318921 
L 61.373198 -162.160291 
L 61.381042 -164.00166 
L 61.386542 -165.84303 
L 61.400796 -167.684399 
L 61.402788 -169.525769 
L 61.416179 -171.367138 
L 61.41254 -173.208508 
L 61.426434 -175.049878 
L 61.429361 -176.891247 
L 61.441447 -178.732617 
L 61.446648 -180.573986 
L 61.456671 -182.415356 
L 61.465748 -184.256725 
L 61.478128 -186.098095 
L 61.480347 -187.939464 
L 61.488391 -189.780834 
L 61.501688 -191.622204 
L 61.508317 -193.463573 
L 61.515389 -195.304943 
L 61.520098 -197.146312 
L 61.525833 -198.987682 
L 61.530333 -200.829051 
L 61.535974 -202.670421 
L 61.543284 -204.511791 
L 61.552561 -206.35316 
L 61.55323 -208.19453 
L 61.561778 -210.035899 
L 61.563504 -211.877269 
L 61.560735 -213.718638 
L 61.561442 -215.560008 
L 61.559066 -217.401377 
L 61.553079 -219.242747 
L 61.54557 -221.084117 
L 61.532637 -222.925486 
L 61.521002 -224.766856 
L 62.297525 -224.766856 
L 62.297525 -224.766856 
L 62.299581 -222.925486 
L 62.298624 -221.084117 
L 62.305329 -219.242747 
L 62.313481 -217.401377 
L 62.317638 -215.560008 
L 62.328957 -213.718638 
L 62.335337 -211.877269 
L 62.353039 -210.035899 
L 62.354058 -208.19453 
L 62.354963 -206.35316 
L 62.363905 -204.511791 
L 62.366395 -202.670421 
L 62.371384 -200.829051 
L 62.364176 -198.987682 
L 62.371763 -197.146312 
L 62.366623 -195.304943 
L 62.360664 -193.463573 
L 62.359127 -191.622204 
L 62.360173 -189.780834 
L 62.349951 -187.939464 
L 62.346496 -186.098095 
L 62.342819 -184.256725 
L 62.331543 -182.415356 
L 62.32799 -180.573986 
L 62.317891 -178.732617 
L 62.304476 -176.891247 
L 62.295439 -175.049878 
L 62.288766 -173.208508 
L 62.277793 -171.367138 
L 62.261031 -169.525769 
L 62.248925 -167.684399 
L 62.241435 -165.84303 
L 62.226293 -164.00166 
L 62.21782 -162.160291 
L 62.203862 -160.318921 
L 62.1945 -158.477552 
L 62.179274 -156.636182 
L 62.166316 -154.794812 
L 62.148642 -152.953443 
L 62.142663 -151.112073 
L 62.133722 -149.270704 
L 62.117176 -147.429334 
L 62.102458 -145.587965 
L 62.094213 -143.746595 
L 62.078245 -141.905226 
L 62.070485 -140.063856 
L 62.059044 -138.222486 
L 62.049319 -136.381117 
L 62.037685 -134.539747 
L 62.025645 -132.698378 
L 62.015366 -130.857008 
L 62.011148 -129.015639 
L 61.998862 -127.174269 
L 61.982382 -125.332899 
L 61.978666 -123.49153 
L 61.97222 -121.65016 
L 61.959531 -119.808791 
L 61.944532 -117.967421 
L 61.936554 -116.126052 
L 61.923723 -114.284682 
L 61.911132 -112.443313 
L 61.899507 -110.601943 
L 61.885469 -108.760573 
L 61.870154 -106.919204 
L 61.857758 -105.077834 
L 61.845338 -103.236465 
L 61.8321 -101.395095 
L 61.813764 -99.553726 
L 61.798189 -97.712356 
L 61.783813 -95.870987 
L 61.767264 -94.029617 
L 61.7463 -92.188247 
L 61.723812 -90.346878 
L 61.708068 -88.505508 
L 61.688759 -86.664139 
L 61.660423 -84.822769 
L 61.632955 -82.9814 
L 61.61044 -81.14003 
L 61.578535 -79.298661 
L 61.551774 -77.457291 
L 61.523342 -75.615921 
L 61.487549 -73.774552 
L 61.458961 -71.933182 
L 61.421122 -70.091813 
L 61.385923 -68.250443 
L 61.344838 -66.409074 
L 61.302395 -64.567704 
L 61.254196 -62.726334 
L 61.203246 -60.884965 
L 61.148086 -59.043595 
L 61.090732 -57.202226 
L 61.026671 -55.360856 
L 60.962299 -53.519487 
L 60.890548 -51.678117 
L 60.813048 -49.836748 
L 60.73321 -47.995378 
L 60.648832 -46.154008 
L 60.557918 -44.312639 
L 60.487455 -42.471269 
z
" style="stroke: #6495ed; stroke-opacity: 0.75"/>
    </defs>
    <g clip-path="url(#pbf0f46b6e2)">
     <use xlink:href="#mb6a85bd7b2" x="0" y="252" style="fill: #6495ed; fill-opacity: 0.75; stroke: #6495ed; stroke-opacity: 0.75"/>
    </g>
   </g>
   <g id="matplotlib.axis_1">
    <g id="xtick_1">
     <g id="line2d_1">
      <defs>
       <path id="mc892e016a0" d="M 0 0 
L 0 3.5 
" style="stroke: #000000; stroke-width: 0.8"/>
      </defs>
      <g>
       <use xlink:href="#mc892e016a0" x="60.449514" y="218.64351" style="stroke: #000000; stroke-width: 0.8"/>
      </g>
     </g>
     <g id="text_1">
      <!-- 0.00 -->
      <g transform="translate(49.316701 233.241948) scale(0.1 -0.1)">
       <defs>
        <path id="DejaVuSans-30" d="M 2034 4250 
Q 1547 4250 1301 3770 
Q 1056 3291 1056 2328 
Q 1056 1369 1301 889 
Q 1547 409 2034 409 
Q 2525 409 2770 889 
Q 3016 1369 3016 2328 
Q 3016 3291 2770 3770 
Q 2525 4250 2034 4250 
z
M 2034 4750 
Q 2819 4750 3233 4129 
Q 3647 3509 3647 2328 
Q 3647 1150 3233 529 
Q 2819 -91 2034 -91 
Q 1250 -91 836 529 
Q 422 1150 422 2328 
Q 422 3509 836 4129 
Q 1250 4750 2034 4750 
z
" transform="scale(0.015625)"/>
        <path id="DejaVuSans-2e" d="M 684 794 
L 1344 794 
L 1344 0 
L 684 0 
L 684 794 
z
" transform="scale(0.015625)"/>
       </defs>
       <use xlink:href="#DejaVuSans-30"/>
       <use xlink:href="#DejaVuSans-2e" x="63.623047"/>
       <use xlink:href="#DejaVuSans-30" x="95.410156"/>
       <use xlink:href="#DejaVuSans-30" x="159.033203"/>
      </g>
     </g>
    </g>
    <g id="xtick_2">
     <g id="line2d_2">
      <g>
       <use xlink:href="#mc892e016a0" x="92.511045" y="218.64351" style="stroke: #000000; stroke-width: 0.8"/>
      </g>
     </g>
     <g id="text_2">
      <!-- 0.02 -->
      <g transform="translate(81.378233 233.241948) scale(0.1 -0.1)">
       <defs>
        <path id="DejaVuSans-32" d="M 1228 531 
L 3431 531 
L 3431 0 
L 469 0 
L 469 531 
Q 828 903 1448 1529 
Q 2069 2156 2228 2338 
Q 2531 2678 2651 2914 
Q 2772 3150 2772 3378 
Q 2772 3750 2511 3984 
Q 2250 4219 1831 4219 
Q 1534 4219 1204 4116 
Q 875 4013 500 3803 
L 500 4441 
Q 881 4594 1212 4672 
Q 1544 4750 1819 4750 
Q 2544 4750 2975 4387 
Q 3406 4025 3406 3419 
Q 3406 3131 3298 2873 
Q 3191 2616 2906 2266 
Q 2828 2175 2409 1742 
Q 1991 1309 1228 531 
z
" transform="scale(0.015625)"/>
       </defs>
       <use xlink:href="#DejaVuSans-30"/>
       <use xlink:href="#DejaVuSans-2e" x="63.623047"/>
       <use xlink:href="#DejaVuSans-30" x="95.410156"/>
       <use xlink:href="#DejaVuSans-32" x="159.033203"/>
      </g>
     </g>
    </g>
    <g id="xtick_3">
     <g id="line2d_3">
      <g>
       <use xlink:href="#mc892e016a0" x="124.572577" y="218.64351" style="stroke: #000000; stroke-width: 0.8"/>
      </g>
     </g>
     <g id="text_3">
      <!-- 0.04 -->
      <g transform="translate(113.439764 233.241948) scale(0.1 -0.1)">
       <defs>
        <path id="DejaVuSans-34" d="M 2419 4116 
L 825 1625 
L 2419 1625 
L 2419 4116 
z
M 2253 4666 
L 3047 4666 
L 3047 1625 
L 3713 1625 
L 3713 1100 
L 3047 1100 
L 3047 0 
L 2419 0 
L 2419 1100 
L 313 1100 
L 313 1709 
L 2253 4666 
z
" transform="scale(0.015625)"/>
       </defs>
       <use xlink:href="#DejaVuSans-30"/>
       <use xlink:href="#DejaVuSans-2e" x="63.623047"/>
       <use xlink:href="#DejaVuSans-30" x="95.410156"/>
       <use xlink:href="#DejaVuSans-34" x="159.033203"/>
      </g>
     </g>
    </g>
    <g id="xtick_4">
     <g id="line2d_4">
      <g>
       <use xlink:href="#mc892e016a0" x="156.634109" y="218.64351" style="stroke: #000000; stroke-width: 0.8"/>
      </g>
     </g>
     <g id="text_4">
      <!-- 0.06 -->
      <g transform="translate(145.501296 233.241948) scale(0.1 -0.1)">
       <defs>
        <path id="DejaVuSans-36" d="M 2113 2584 
Q 1688 2584 1439 2293 
Q 1191 2003 1191 1497 
Q 1191 994 1439 701 
Q 1688 409 2113 409 
Q 2538 409 2786 701 
Q 3034 994 3034 1497 
Q 3034 2003 2786 2293 
Q 2538 2584 2113 2584 
z
M 3366 4563 
L 3366 3988 
Q 3128 4100 2886 4159 
Q 2644 4219 2406 4219 
Q 1781 4219 1451 3797 
Q 1122 3375 1075 2522 
Q 1259 2794 1537 2939 
Q 1816 3084 2150 3084 
Q 2853 3084 3261 2657 
Q 3669 2231 3669 1497 
Q 3669 778 3244 343 
Q 2819 -91 2113 -91 
Q 1303 -91 875 529 
Q 447 1150 447 2328 
Q 447 3434 972 4092 
Q 1497 4750 2381 4750 
Q 2619 4750 2861 4703 
Q 3103 4656 3366 4563 
z
" transform="scale(0.015625)"/>
       </defs>
       <use xlink:href="#DejaVuSans-30"/>
       <use xlink:href="#DejaVuSans-2e" x="63.623047"/>
       <use xlink:href="#DejaVuSans-30" x="95.410156"/>
       <use xlink:href="#DejaVuSans-36" x="159.033203"/>
      </g>
     </g>
    </g>
    <g id="xtick_5">
     <g id="line2d_5">
      <g>
       <use xlink:href="#mc892e016a0" x="188.69564" y="218.64351" style="stroke: #000000; stroke-width: 0.8"/>
      </g>
     </g>
     <g id="text_5">
      <!-- 0.08 -->
      <g transform="translate(177.562828 233.241948) scale(0.1 -0.1)">
       <defs>
        <path id="DejaVuSans-38" d="M 2034 2216 
Q 1584 2216 1326 1975 
Q 1069 1734 1069 1313 
Q 1069 891 1326 650 
Q 1584 409 2034 409 
Q 2484 409 2743 651 
Q 3003 894 3003 1313 
Q 3003 1734 2745 1975 
Q 2488 2216 2034 2216 
z
M 1403 2484 
Q 997 2584 770 2862 
Q 544 3141 544 3541 
Q 544 4100 942 4425 
Q 1341 4750 2034 4750 
Q 2731 4750 3128 4425 
Q 3525 4100 3525 3541 
Q 3525 3141 3298 2862 
Q 3072 2584 2669 2484 
Q 3125 2378 3379 2068 
Q 3634 1759 3634 1313 
Q 3634 634 3220 271 
Q 2806 -91 2034 -91 
Q 1263 -91 848 271 
Q 434 634 434 1313 
Q 434 1759 690 2068 
Q 947 2378 1403 2484 
z
M 1172 3481 
Q 1172 3119 1398 2916 
Q 1625 2713 2034 2713 
Q 2441 2713 2670 2916 
Q 2900 3119 2900 3481 
Q 2900 3844 2670 4047 
Q 2441 4250 2034 4250 
Q 1625 4250 1398 4047 
Q 1172 3844 1172 3481 
z
" transform="scale(0.015625)"/>
       </defs>
       <use xlink:href="#DejaVuSans-30"/>
       <use xlink:href="#DejaVuSans-2e" x="63.623047"/>
       <use xlink:href="#DejaVuSans-30" x="95.410156"/>
       <use xlink:href="#DejaVuSans-38" x="159.033203"/>
      </g>
     </g>
    </g>
    <g id="xtick_6">
     <g id="line2d_6">
      <g>
       <use xlink:href="#mc892e016a0" x="220.757172" y="218.64351" style="stroke: #000000; stroke-width: 0.8"/>
      </g>
     </g>
     <g id="text_6">
      <!-- 0.10 -->
      <g transform="translate(209.624359 233.241948) scale(0.1 -0.1)">
       <defs>
        <path id="DejaVuSans-31" d="M 794 531 
L 1825 531 
L 1825 4091 
L 703 3866 
L 703 4441 
L 1819 4666 
L 2450 4666 
L 2450 531 
L 3481 531 
L 3481 0 
L 794 0 
L 794 531 
z
" transform="scale(0.015625)"/>
       </defs>
       <use xlink:href="#DejaVuSans-30"/>
       <use xlink:href="#DejaVuSans-2e" x="63.623047"/>
       <use xlink:href="#DejaVuSans-31" x="95.410156"/>
       <use xlink:href="#DejaVuSans-30" x="159.033203"/>
      </g>
     </g>
    </g>
    <g id="xtick_7">
     <g id="line2d_7">
      <g>
       <use xlink:href="#mc892e016a0" x="252.818703" y="218.64351" style="stroke: #000000; stroke-width: 0.8"/>
      </g>
     </g>
     <g id="text_7">
      <!-- 0.12 -->
      <g transform="translate(241.685891 233.241948) scale(0.1 -0.1)">
       <use xlink:href="#DejaVuSans-30"/>
       <use xlink:href="#DejaVuSans-2e" x="63.623047"/>
       <use xlink:href="#DejaVuSans-31" x="95.410156"/>
       <use xlink:href="#DejaVuSans-32" x="159.033203"/>
      </g>
     </g>
    </g>
    <g id="text_8">
     <!-- Normal Extension [mm] -->
     <g transform="translate(89.160913 246.920073) scale(0.1 -0.1)">
      <defs>
       <path id="DejaVuSans-4e" d="M 628 4666 
L 1478 4666 
L 3547 763 
L 3547 4666 
L 4159 4666 
L 4159 0 
L 3309 0 
L 1241 3903 
L 1241 0 
L 628 0 
L 628 4666 
z
" transform="scale(0.015625)"/>
       <path id="DejaVuSans-6f" d="M 1959 3097 
Q 1497 3097 1228 2736 
Q 959 2375 959 1747 
Q 959 1119 1226 758 
Q 1494 397 1959 397 
Q 2419 397 2687 759 
Q 2956 1122 2956 1747 
Q 2956 2369 2687 2733 
Q 2419 3097 1959 3097 
z
M 1959 3584 
Q 2709 3584 3137 3096 
Q 3566 2609 3566 1747 
Q 3566 888 3137 398 
Q 2709 -91 1959 -91 
Q 1206 -91 779 398 
Q 353 888 353 1747 
Q 353 2609 779 3096 
Q 1206 3584 1959 3584 
z
" transform="scale(0.015625)"/>
       <path id="DejaVuSans-72" d="M 2631 2963 
Q 2534 3019 2420 3045 
Q 2306 3072 2169 3072 
Q 1681 3072 1420 2755 
Q 1159 2438 1159 1844 
L 1159 0 
L 581 0 
L 581 3500 
L 1159 3500 
L 1159 2956 
Q 1341 3275 1631 3429 
Q 1922 3584 2338 3584 
Q 2397 3584 2469 3576 
Q 2541 3569 2628 3553 
L 2631 2963 
z
" transform="scale(0.015625)"/>
       <path id="DejaVuSans-6d" d="M 3328 2828 
Q 3544 3216 3844 3400 
Q 4144 3584 4550 3584 
Q 5097 3584 5394 3201 
Q 5691 2819 5691 2113 
L 5691 0 
L 5113 0 
L 5113 2094 
Q 5113 2597 4934 2840 
Q 4756 3084 4391 3084 
Q 3944 3084 3684 2787 
Q 3425 2491 3425 1978 
L 3425 0 
L 2847 0 
L 2847 2094 
Q 2847 2600 2669 2842 
Q 2491 3084 2119 3084 
Q 1678 3084 1418 2786 
Q 1159 2488 1159 1978 
L 1159 0 
L 581 0 
L 581 3500 
L 1159 3500 
L 1159 2956 
Q 1356 3278 1631 3431 
Q 1906 3584 2284 3584 
Q 2666 3584 2933 3390 
Q 3200 3197 3328 2828 
z
" transform="scale(0.015625)"/>
       <path id="DejaVuSans-61" d="M 2194 1759 
Q 1497 1759 1228 1600 
Q 959 1441 959 1056 
Q 959 750 1161 570 
Q 1363 391 1709 391 
Q 2188 391 2477 730 
Q 2766 1069 2766 1631 
L 2766 1759 
L 2194 1759 
z
M 3341 1997 
L 3341 0 
L 2766 0 
L 2766 531 
Q 2569 213 2275 61 
Q 1981 -91 1556 -91 
Q 1019 -91 701 211 
Q 384 513 384 1019 
Q 384 1609 779 1909 
Q 1175 2209 1959 2209 
L 2766 2209 
L 2766 2266 
Q 2766 2663 2505 2880 
Q 2244 3097 1772 3097 
Q 1472 3097 1187 3025 
Q 903 2953 641 2809 
L 641 3341 
Q 956 3463 1253 3523 
Q 1550 3584 1831 3584 
Q 2591 3584 2966 3190 
Q 3341 2797 3341 1997 
z
" transform="scale(0.015625)"/>
       <path id="DejaVuSans-6c" d="M 603 4863 
L 1178 4863 
L 1178 0 
L 603 0 
L 603 4863 
z
" transform="scale(0.015625)"/>
       <path id="DejaVuSans-20" transform="scale(0.015625)"/>
       <path id="DejaVuSans-45" d="M 628 4666 
L 3578 4666 
L 3578 4134 
L 1259 4134 
L 1259 2753 
L 3481 2753 
L 3481 2222 
L 1259 2222 
L 1259 531 
L 3634 531 
L 3634 0 
L 628 0 
L 628 4666 
z
" transform="scale(0.015625)"/>
       <path id="DejaVuSans-78" d="M 3513 3500 
L 2247 1797 
L 3578 0 
L 2900 0 
L 1881 1375 
L 863 0 
L 184 0 
L 1544 1831 
L 300 3500 
L 978 3500 
L 1906 2253 
L 2834 3500 
L 3513 3500 
z
" transform="scale(0.015625)"/>
       <path id="DejaVuSans-74" d="M 1172 4494 
L 1172 3500 
L 2356 3500 
L 2356 3053 
L 1172 3053 
L 1172 1153 
Q 1172 725 1289 603 
Q 1406 481 1766 481 
L 2356 481 
L 2356 0 
L 1766 0 
Q 1100 0 847 248 
Q 594 497 594 1153 
L 594 3053 
L 172 3053 
L 172 3500 
L 594 3500 
L 594 4494 
L 1172 4494 
z
" transform="scale(0.015625)"/>
       <path id="DejaVuSans-65" d="M 3597 1894 
L 3597 1613 
L 953 1613 
Q 991 1019 1311 708 
Q 1631 397 2203 397 
Q 2534 397 2845 478 
Q 3156 559 3463 722 
L 3463 178 
Q 3153 47 2828 -22 
Q 2503 -91 2169 -91 
Q 1331 -91 842 396 
Q 353 884 353 1716 
Q 353 2575 817 3079 
Q 1281 3584 2069 3584 
Q 2775 3584 3186 3129 
Q 3597 2675 3597 1894 
z
M 3022 2063 
Q 3016 2534 2758 2815 
Q 2500 3097 2075 3097 
Q 1594 3097 1305 2825 
Q 1016 2553 972 2059 
L 3022 2063 
z
" transform="scale(0.015625)"/>
       <path id="DejaVuSans-6e" d="M 3513 2113 
L 3513 0 
L 2938 0 
L 2938 2094 
Q 2938 2591 2744 2837 
Q 2550 3084 2163 3084 
Q 1697 3084 1428 2787 
Q 1159 2491 1159 1978 
L 1159 0 
L 581 0 
L 581 3500 
L 1159 3500 
L 1159 2956 
Q 1366 3272 1645 3428 
Q 1925 3584 2291 3584 
Q 2894 3584 3203 3211 
Q 3513 2838 3513 2113 
z
" transform="scale(0.015625)"/>
       <path id="DejaVuSans-73" d="M 2834 3397 
L 2834 2853 
Q 2591 2978 2328 3040 
Q 2066 3103 1784 3103 
Q 1356 3103 1142 2972 
Q 928 2841 928 2578 
Q 928 2378 1081 2264 
Q 1234 2150 1697 2047 
L 1894 2003 
Q 2506 1872 2764 1633 
Q 3022 1394 3022 966 
Q 3022 478 2636 193 
Q 2250 -91 1575 -91 
Q 1294 -91 989 -36 
Q 684 19 347 128 
L 347 722 
Q 666 556 975 473 
Q 1284 391 1588 391 
Q 1994 391 2212 530 
Q 2431 669 2431 922 
Q 2431 1156 2273 1281 
Q 2116 1406 1581 1522 
L 1381 1569 
Q 847 1681 609 1914 
Q 372 2147 372 2553 
Q 372 3047 722 3315 
Q 1072 3584 1716 3584 
Q 2034 3584 2315 3537 
Q 2597 3491 2834 3397 
z
" transform="scale(0.015625)"/>
       <path id="DejaVuSans-69" d="M 603 3500 
L 1178 3500 
L 1178 0 
L 603 0 
L 603 3500 
z
M 603 4863 
L 1178 4863 
L 1178 4134 
L 603 4134 
L 603 4863 
z
" transform="scale(0.015625)"/>
       <path id="DejaVuSans-5b" d="M 550 4863 
L 1875 4863 
L 1875 4416 
L 1125 4416 
L 1125 -397 
L 1875 -397 
L 1875 -844 
L 550 -844 
L 550 4863 
z
" transform="scale(0.015625)"/>
       <path id="DejaVuSans-5d" d="M 1947 4863 
L 1947 -844 
L 622 -844 
L 622 -397 
L 1369 -397 
L 1369 4416 
L 622 4416 
L 622 4863 
L 1947 4863 
z
" transform="scale(0.015625)"/>
      </defs>
      <use xlink:href="#DejaVuSans-4e"/>
      <use xlink:href="#DejaVuSans-6f" x="74.804688"/>
      <use xlink:href="#DejaVuSans-72" x="135.986328"/>
      <use xlink:href="#DejaVuSans-6d" x="175.349609"/>
      <use xlink:href="#DejaVuSans-61" x="272.761719"/>
      <use xlink:href="#DejaVuSans-6c" x="334.041016"/>
      <use xlink:href="#DejaVuSans-20" x="361.824219"/>
      <use xlink:href="#DejaVuSans-45" x="393.611328"/>
      <use xlink:href="#DejaVuSans-78" x="456.794922"/>
      <use xlink:href="#DejaVuSans-74" x="515.974609"/>
      <use xlink:href="#DejaVuSans-65" x="555.183594"/>
      <use xlink:href="#DejaVuSans-6e" x="616.707031"/>
      <use xlink:href="#DejaVuSans-73" x="680.085938"/>
      <use xlink:href="#DejaVuSans-69" x="732.185547"/>
      <use xlink:href="#DejaVuSans-6f" x="759.96875"/>
      <use xlink:href="#DejaVuSans-6e" x="821.150391"/>
      <use xlink:href="#DejaVuSans-20" x="884.529297"/>
      <use xlink:href="#DejaVuSans-5b" x="916.316406"/>
      <use xlink:href="#DejaVuSans-6d" x="955.330078"/>
      <use xlink:href="#DejaVuSans-6d" x="1052.742188"/>
      <use xlink:href="#DejaVuSans-5d" x="1150.154297"/>
     </g>
    </g>
   </g>
   <g id="matplotlib.axis_2">
    <g id="ytick_1">
     <g id="line2d_8">
      <defs>
       <path id="m8573c8893f" d="M 0 0 
L -3.5 0 
" style="stroke: #000000; stroke-width: 0.8"/>
      </defs>
      <g>
       <use xlink:href="#m8573c8893f" x="36.403365" y="209.528731" style="stroke: #000000; stroke-width: 0.8"/>
      </g>
     </g>
     <g id="text_9">
      <!-- 0 -->
      <g transform="translate(23.040865 213.327949) scale(0.1 -0.1)">
       <use xlink:href="#DejaVuSans-30"/>
      </g>
     </g>
    </g>
    <g id="ytick_2">
     <g id="line2d_9">
      <g>
       <use xlink:href="#m8573c8893f" x="36.403365" y="173.069613" style="stroke: #000000; stroke-width: 0.8"/>
      </g>
     </g>
     <g id="text_10">
      <!-- 2 -->
      <g transform="translate(23.040865 176.868832) scale(0.1 -0.1)">
       <use xlink:href="#DejaVuSans-32"/>
      </g>
     </g>
    </g>
    <g id="ytick_3">
     <g id="line2d_10">
      <g>
       <use xlink:href="#m8573c8893f" x="36.403365" y="136.610496" style="stroke: #000000; stroke-width: 0.8"/>
      </g>
     </g>
     <g id="text_11">
      <!-- 4 -->
      <g transform="translate(23.040865 140.409715) scale(0.1 -0.1)">
       <use xlink:href="#DejaVuSans-34"/>
      </g>
     </g>
    </g>
    <g id="ytick_4">
     <g id="line2d_11">
      <g>
       <use xlink:href="#m8573c8893f" x="36.403365" y="100.151379" style="stroke: #000000; stroke-width: 0.8"/>
      </g>
     </g>
     <g id="text_12">
      <!-- 6 -->
      <g transform="translate(23.040865 103.950598) scale(0.1 -0.1)">
       <use xlink:href="#DejaVuSans-36"/>
      </g>
     </g>
    </g>
    <g id="ytick_5">
     <g id="line2d_12">
      <g>
       <use xlink:href="#m8573c8893f" x="36.403365" y="63.692262" style="stroke: #000000; stroke-width: 0.8"/>
      </g>
     </g>
     <g id="text_13">
      <!-- 8 -->
      <g transform="translate(23.040865 67.49148) scale(0.1 -0.1)">
       <use xlink:href="#DejaVuSans-38"/>
      </g>
     </g>
    </g>
    <g id="ytick_6">
     <g id="line2d_13">
      <g>
       <use xlink:href="#m8573c8893f" x="36.403365" y="27.233144" style="stroke: #000000; stroke-width: 0.8"/>
      </g>
     </g>
     <g id="text_14">
      <!-- 10 -->
      <g transform="translate(16.678365 31.032363) scale(0.1 -0.1)">
       <use xlink:href="#DejaVuSans-31"/>
       <use xlink:href="#DejaVuSans-30" x="63.623047"/>
      </g>
     </g>
    </g>
    <g id="text_15">
     <!-- Load [kN] -->
     <g transform="translate(10.598678 142.503594) rotate(-90) scale(0.1 -0.1)">
      <defs>
       <path id="DejaVuSans-4c" d="M 628 4666 
L 1259 4666 
L 1259 531 
L 3531 531 
L 3531 0 
L 628 0 
L 628 4666 
z
" transform="scale(0.015625)"/>
       <path id="DejaVuSans-64" d="M 2906 2969 
L 2906 4863 
L 3481 4863 
L 3481 0 
L 2906 0 
L 2906 525 
Q 2725 213 2448 61 
Q 2172 -91 1784 -91 
Q 1150 -91 751 415 
Q 353 922 353 1747 
Q 353 2572 751 3078 
Q 1150 3584 1784 3584 
Q 2172 3584 2448 3432 
Q 2725 3281 2906 2969 
z
M 947 1747 
Q 947 1113 1208 752 
Q 1469 391 1925 391 
Q 2381 391 2643 752 
Q 2906 1113 2906 1747 
Q 2906 2381 2643 2742 
Q 2381 3103 1925 3103 
Q 1469 3103 1208 2742 
Q 947 2381 947 1747 
z
" transform="scale(0.015625)"/>
       <path id="DejaVuSans-6b" d="M 581 4863 
L 1159 4863 
L 1159 1991 
L 2875 3500 
L 3609 3500 
L 1753 1863 
L 3688 0 
L 2938 0 
L 1159 1709 
L 1159 0 
L 581 0 
L 581 4863 
z
" transform="scale(0.015625)"/>
      </defs>
      <use xlink:href="#DejaVuSans-4c"/>
      <use xlink:href="#DejaVuSans-6f" x="53.962891"/>
      <use xlink:href="#DejaVuSans-61" x="115.144531"/>
      <use xlink:href="#DejaVuSans-64" x="176.423828"/>
      <use xlink:href="#DejaVuSans-20" x="239.900391"/>
      <use xlink:href="#DejaVuSans-5b" x="271.6875"/>
      <use xlink:href="#DejaVuSans-6b" x="310.701172"/>
      <use xlink:href="#DejaVuSans-4e" x="368.611328"/>
      <use xlink:href="#DejaVuSans-5d" x="443.416016"/>
     </g>
    </g>
   </g>
   <g id="line2d_14">
    <path d="M 36.403365 209.528731 
L 260.834086 209.528731 
" clip-path="url(#pbf0f46b6e2)" style="fill: none; stroke-dasharray: 2.775,1.2; stroke-dashoffset: 0; stroke: #808080; stroke-opacity: 0.75; stroke-width: 0.75"/>
   </g>
   <g id="line2d_15">
    <path d="M 60.449514 218.64351 
L 60.449514 18.118365 
" clip-path="url(#pbf0f46b6e2)" style="fill: none; stroke-dasharray: 2.775,1.2; stroke-dashoffset: 0; stroke: #808080; stroke-opacity: 0.75; stroke-width: 0.75"/>
   </g>
   <g id="line2d_16">
    <path d="M 60.449278 209.528731 
L 60.433136 207.687361 
L 60.423499 205.845992 
L 60.419597 204.004622 
L 60.421802 202.163252 
L 60.427113 200.321883 
L 60.43492 198.480513 
L 60.443963 196.639144 
L 60.452886 194.797774 
L 60.462552 192.956405 
L 60.472931 191.115035 
L 60.484356 189.273666 
L 60.498684 187.432296 
L 60.514853 185.590926 
L 60.532816 183.749557 
L 60.554021 181.908187 
L 60.575674 180.066818 
L 60.598162 178.225448 
L 60.619999 176.384079 
L 60.641649 174.542709 
L 60.661006 172.701339 
L 60.679394 170.85997 
L 60.695339 169.0186 
L 60.710979 167.177231 
L 60.72525 165.335861 
L 60.740229 163.494492 
L 60.75717 161.653122 
L 60.775799 159.811753 
L 60.797598 157.970383 
L 60.822512 156.129013 
L 60.848683 154.287644 
L 60.876381 152.446274 
L 60.903524 150.604905 
L 60.93006 148.763535 
L 60.954918 146.922166 
L 60.977907 145.080796 
L 61.000987 143.239427 
L 61.02295 141.398057 
L 61.044798 139.556687 
L 61.065613 137.715318 
L 61.085325 135.873948 
L 61.101684 134.032579 
L 61.117104 132.191209 
L 61.128491 130.34984 
L 61.138725 128.50847 
L 61.148254 126.667101 
L 61.158475 124.825731 
L 61.171675 122.984361 
L 61.188749 121.142992 
L 61.211362 119.301622 
L 61.237704 117.460253 
L 61.267531 115.618883 
L 61.298283 113.777514 
L 61.328809 111.936144 
L 61.3578 110.094774 
L 61.38443 108.253405 
L 61.409322 106.412035 
L 61.432017 104.570666 
L 61.452203 102.729296 
L 61.471154 100.887927 
L 61.487897 99.046557 
L 61.50169 97.205188 
L 61.515385 95.363818 
L 61.528068 93.522448 
L 61.542514 91.681079 
L 61.560322 89.839709 
L 61.584264 87.99834 
L 61.614755 86.15697 
L 61.651886 84.315601 
L 61.696767 82.474231 
L 61.746787 80.632862 
L 61.800453 78.791492 
L 61.855546 76.950122 
L 61.911049 75.108753 
L 61.964309 73.267383 
L 62.014039 71.426014 
L 62.059762 69.584644 
L 62.100102 67.743275 
L 62.13512 65.901905 
L 62.164294 64.060536 
L 62.186792 62.219166 
L 62.204454 60.377796 
L 62.218993 58.536427 
L 62.231576 56.695057 
L 62.244686 54.853688 
L 62.259513 53.012318 
L 62.277686 51.170949 
L 62.29805 49.329579 
L 62.319664 47.488209 
L 62.343365 45.64684 
L 62.367026 43.80547 
L 62.391321 41.964101 
L 62.414828 40.122731 
L 62.437455 38.281362 
L 62.460654 36.439992 
L 62.483637 34.598623 
L 62.506655 32.757253 
L 62.529794 30.915883 
L 62.552826 29.074514 
L 62.572826 27.233144 
" clip-path="url(#pbf0f46b6e2)" style="fill: none; stroke-dasharray: 3.7,1.6; stroke-dashoffset: 0; stroke: #008000"/>
   </g>
   <g id="line2d_17">
    <path d="M 60.444117 209.528731 
L 60.501833 207.687361 
L 60.557449 205.845992 
L 60.610966 204.004622 
L 60.662301 202.163252 
L 60.710495 200.321883 
L 60.757623 198.480513 
L 60.802372 196.639144 
L 60.844435 194.797774 
L 60.885793 192.956405 
L 60.923873 191.115035 
L 60.961277 189.273666 
L 60.995732 187.432296 
L 61.029921 185.590926 
L 61.061742 183.749557 
L 61.092287 181.908187 
L 61.121217 180.066818 
L 61.148368 178.225448 
L 61.175093 176.384079 
L 61.200097 174.542709 
L 61.223974 172.701339 
L 61.245998 170.85997 
L 61.267588 169.0186 
L 61.288022 167.177231 
L 61.307733 165.335861 
L 61.326082 163.494492 
L 61.343584 161.653122 
L 61.360755 159.811753 
L 61.376865 157.970383 
L 61.392331 156.129013 
L 61.406653 154.287644 
L 61.421155 152.446274 
L 61.435105 150.604905 
L 61.448451 148.763535 
L 61.460548 146.922166 
L 61.472969 145.080796 
L 61.484677 143.239427 
L 61.496773 141.398057 
L 61.508208 139.556687 
L 61.518903 137.715318 
L 61.529998 135.873948 
L 61.540728 134.032579 
L 61.550646 132.191209 
L 61.561524 130.34984 
L 61.571297 128.50847 
L 61.581678 126.667101 
L 61.591728 124.825731 
L 61.602094 122.984361 
L 61.611502 121.142992 
L 61.621869 119.301622 
L 61.632148 117.460253 
L 61.6417 115.618883 
L 61.651849 113.777514 
L 61.662311 111.936144 
L 61.672113 110.094774 
L 61.682593 108.253405 
L 61.693125 106.412035 
L 61.702911 104.570666 
L 61.71345 102.729296 
L 61.723848 100.887927 
L 61.734031 99.046557 
L 61.744629 97.205188 
L 61.754626 95.363818 
L 61.765445 93.522448 
L 61.776198 91.681079 
L 61.786912 89.839709 
L 61.797291 87.99834 
L 61.807597 86.15697 
L 61.818033 84.315601 
L 61.828517 82.474231 
L 61.838408 80.632862 
L 61.848535 78.791492 
L 61.858459 76.950122 
L 61.868098 75.108753 
L 61.878088 73.267383 
L 61.887647 71.426014 
L 61.896665 69.584644 
L 61.906035 67.743275 
L 61.91447 65.901905 
L 61.922396 64.060536 
L 61.930594 62.219166 
L 61.938491 60.377796 
L 61.946192 58.536427 
L 61.953523 56.695057 
L 61.959181 54.853688 
L 61.965209 53.012318 
L 61.971159 51.170949 
L 61.9757 49.329579 
L 61.980417 47.488209 
L 61.984204 45.64684 
L 61.987549 43.80547 
L 61.990553 41.964101 
L 61.99225 40.122731 
L 61.993641 38.281362 
L 61.99429 36.439992 
L 61.994225 34.598623 
L 61.992557 32.757253 
L 61.991563 30.915883 
L 61.989107 29.074514 
L 61.985353 27.233144 
" clip-path="url(#pbf0f46b6e2)" style="fill: none; stroke: #0000ff; stroke-width: 0.5; stroke-linecap: square"/>
   </g>
   <g id="line2d_18">
    <defs>
     <path id="m70326c90e3" d="M 0 0.5 
C 0.132602 0.5 0.25979 0.447317 0.353553 0.353553 
C 0.447317 0.25979 0.5 0.132602 0.5 0 
C 0.5 -0.132602 0.447317 -0.25979 0.353553 -0.353553 
C 0.25979 -0.447317 0.132602 -0.5 0 -0.5 
C -0.132602 -0.5 -0.25979 -0.447317 -0.353553 -0.353553 
C -0.447317 -0.25979 -0.5 -0.132602 -0.5 0 
C -0.5 0.132602 -0.447317 0.25979 -0.353553 0.353553 
C -0.25979 0.447317 -0.132602 0.5 0 0.5 
z
" style="stroke: #1f77b4"/>
    </defs>
    <g clip-path="url(#pbf0f46b6e2)">
     <use xlink:href="#m70326c90e3" x="60.449514" y="209.528731" style="fill: #1f77b4; stroke: #1f77b4"/>
     <use xlink:href="#m70326c90e3" x="60.35458" y="186.342448" style="fill: #1f77b4; stroke: #1f77b4"/>
     <use xlink:href="#m70326c90e3" x="60.957848" y="175.674996" style="fill: #1f77b4; stroke: #1f77b4"/>
     <use xlink:href="#m70326c90e3" x="59.952024" y="164.684289" style="fill: #1f77b4; stroke: #1f77b4"/>
     <use xlink:href="#m70326c90e3" x="60.707117" y="154.340093" style="fill: #1f77b4; stroke: #1f77b4"/>
     <use xlink:href="#m70326c90e3" x="59.946508" y="143.143678" style="fill: #1f77b4; stroke: #1f77b4"/>
     <use xlink:href="#m70326c90e3" x="59.563873" y="132.91703" style="fill: #1f77b4; stroke: #1f77b4"/>
     <use xlink:href="#m70326c90e3" x="59.474173" y="123.483829" style="fill: #1f77b4; stroke: #1f77b4"/>
     <use xlink:href="#m70326c90e3" x="59.919589" y="113.080859" style="fill: #1f77b4; stroke: #1f77b4"/>
     <use xlink:href="#m70326c90e3" x="60.110145" y="104.6762" style="fill: #1f77b4; stroke: #1f77b4"/>
     <use xlink:href="#m70326c90e3" x="61.397666" y="95.419319" style="fill: #1f77b4; stroke: #1f77b4"/>
     <use xlink:href="#m70326c90e3" x="58.933391" y="87.102819" style="fill: #1f77b4; stroke: #1f77b4"/>
     <use xlink:href="#m70326c90e3" x="58.593191" y="79.168348" style="fill: #1f77b4; stroke: #1f77b4"/>
     <use xlink:href="#m70326c90e3" x="58.347103" y="71.116329" style="fill: #1f77b4; stroke: #1f77b4"/>
     <use xlink:href="#m70326c90e3" x="58.724242" y="63.798983" style="fill: #1f77b4; stroke: #1f77b4"/>
     <use xlink:href="#m70326c90e3" x="57.138594" y="57.039988" style="fill: #1f77b4; stroke: #1f77b4"/>
     <use xlink:href="#m70326c90e3" x="58.433798" y="49.957736" style="fill: #1f77b4; stroke: #1f77b4"/>
     <use xlink:href="#m70326c90e3" x="58.204832" y="43.698317" style="fill: #1f77b4; stroke: #1f77b4"/>
     <use xlink:href="#m70326c90e3" x="57.134687" y="37.203802" style="fill: #1f77b4; stroke: #1f77b4"/>
     <use xlink:href="#m70326c90e3" x="56.982835" y="31.179478" style="fill: #1f77b4; stroke: #1f77b4"/>
    </g>
   </g>
   <g id="line2d_19">
    <defs>
     <path id="m82c9bc4290" d="M 0 0.5 
C 0.132602 0.5 0.25979 0.447317 0.353553 0.353553 
C 0.447317 0.25979 0.5 0.132602 0.5 0 
C 0.5 -0.132602 0.447317 -0.25979 0.353553 -0.353553 
C 0.25979 -0.447317 0.132602 -0.5 0 -0.5 
C -0.132602 -0.5 -0.25979 -0.447317 -0.353553 -0.353553 
C -0.447317 -0.25979 -0.5 -0.132602 -0.5 0 
C -0.5 0.132602 -0.447317 0.25979 -0.353553 0.353553 
C -0.25979 0.447317 -0.132602 0.5 0 0.5 
z
" style="stroke: #ff7f0e"/>
    </defs>
    <g clip-path="url(#pbf0f46b6e2)">
     <use xlink:href="#m82c9bc4290" x="59.867812" y="195.628716" style="fill: #ff7f0e; stroke: #ff7f0e"/>
     <use xlink:href="#m82c9bc4290" x="59.836299" y="185.931031" style="fill: #ff7f0e; stroke: #ff7f0e"/>
     <use xlink:href="#m82c9bc4290" x="60.301597" y="175.763157" style="fill: #ff7f0e; stroke: #ff7f0e"/>
     <use xlink:href="#m82c9bc4290" x="59.880423" y="164.09655" style="fill: #ff7f0e; stroke: #ff7f0e"/>
     <use xlink:href="#m82c9bc4290" x="57.850561" y="152.870747" style="fill: #ff7f0e; stroke: #ff7f0e"/>
     <use xlink:href="#m82c9bc4290" x="60.009663" y="141.703718" style="fill: #ff7f0e; stroke: #ff7f0e"/>
     <use xlink:href="#m82c9bc4290" x="58.689267" y="129.77263" style="fill: #ff7f0e; stroke: #ff7f0e"/>
     <use xlink:href="#m82c9bc4290" x="58.842245" y="117.870927" style="fill: #ff7f0e; stroke: #ff7f0e"/>
     <use xlink:href="#m82c9bc4290" x="59.47739" y="106.909606" style="fill: #ff7f0e; stroke: #ff7f0e"/>
     <use xlink:href="#m82c9bc4290" x="57.463457" y="95.713188" style="fill: #ff7f0e; stroke: #ff7f0e"/>
     <use xlink:href="#m82c9bc4290" x="58.483414" y="84.869412" style="fill: #ff7f0e; stroke: #ff7f0e"/>
     <use xlink:href="#m82c9bc4290" x="57.682169" y="73.731766" style="fill: #ff7f0e; stroke: #ff7f0e"/>
     <use xlink:href="#m82c9bc4290" x="57.516756" y="63.093697" style="fill: #ff7f0e; stroke: #ff7f0e"/>
     <use xlink:href="#m82c9bc4290" x="57.534386" y="52.543786" style="fill: #ff7f0e; stroke: #ff7f0e"/>
     <use xlink:href="#m82c9bc4290" x="56.410078" y="42.993031" style="fill: #ff7f0e; stroke: #ff7f0e"/>
     <use xlink:href="#m82c9bc4290" x="56.366907" y="32.32557" style="fill: #ff7f0e; stroke: #ff7f0e"/>
    </g>
   </g>
   <g id="line2d_20">
    <defs>
     <path id="mb8a2fddd6d" d="M 0 0.5 
C 0.132602 0.5 0.25979 0.447317 0.353553 0.353553 
C 0.447317 0.25979 0.5 0.132602 0.5 0 
C 0.5 -0.132602 0.447317 -0.25979 0.353553 -0.353553 
C 0.25979 -0.447317 0.132602 -0.5 0 -0.5 
C -0.132602 -0.5 -0.25979 -0.447317 -0.353553 -0.353553 
C -0.447317 -0.25979 -0.5 -0.132602 -0.5 0 
C -0.5 0.132602 -0.447317 0.25979 -0.353553 0.353553 
C -0.25979 0.447317 -0.132602 0.5 0 0.5 
z
" style="stroke: #2ca02c"/>
    </defs>
    <g clip-path="url(#pbf0f46b6e2)">
     <use xlink:href="#mb8a2fddd6d" x="59.629639" y="188.664015" style="fill: #2ca02c; stroke: #2ca02c"/>
     <use xlink:href="#mb8a2fddd6d" x="59.592335" y="178.613689" style="fill: #2ca02c; stroke: #2ca02c"/>
     <use xlink:href="#mb8a2fddd6d" x="60.071884" y="167.505433" style="fill: #2ca02c; stroke: #2ca02c"/>
     <use xlink:href="#mb8a2fddd6d" x="58.082616" y="156.485339" style="fill: #2ca02c; stroke: #2ca02c"/>
     <use xlink:href="#mb8a2fddd6d" x="58.709871" y="145.524018" style="fill: #2ca02c; stroke: #2ca02c"/>
     <use xlink:href="#mb8a2fddd6d" x="58.895398" y="134.533311" style="fill: #2ca02c; stroke: #2ca02c"/>
     <use xlink:href="#mb8a2fddd6d" x="58.993126" y="122.4259" style="fill: #2ca02c; stroke: #2ca02c"/>
     <use xlink:href="#mb8a2fddd6d" x="57.304803" y="110.906227" style="fill: #2ca02c; stroke: #2ca02c"/>
     <use xlink:href="#mb8a2fddd6d" x="59.251585" y="100.209387" style="fill: #2ca02c; stroke: #2ca02c"/>
     <use xlink:href="#mb8a2fddd6d" x="58.801482" y="88.748487" style="fill: #2ca02c; stroke: #2ca02c"/>
     <use xlink:href="#mb8a2fddd6d" x="58.075736" y="77.90471" style="fill: #2ca02c; stroke: #2ca02c"/>
     <use xlink:href="#mb8a2fddd6d" x="53.605449" y="67.002158" style="fill: #2ca02c; stroke: #2ca02c"/>
     <use xlink:href="#mb8a2fddd6d" x="58.028584" y="56.716731" style="fill: #2ca02c; stroke: #2ca02c"/>
     <use xlink:href="#mb8a2fddd6d" x="57.745051" y="46.108046" style="fill: #2ca02c; stroke: #2ca02c"/>
     <use xlink:href="#mb8a2fddd6d" x="56.876361" y="36.616063" style="fill: #2ca02c; stroke: #2ca02c"/>
    </g>
   </g>
   <g id="patch_3">
    <path d="M 36.403365 218.64351 
L 36.403365 18.118365 
" style="fill: none; stroke: #000000; stroke-width: 0.8; stroke-linejoin: miter; stroke-linecap: square"/>
   </g>
   <g id="patch_4">
    <path d="M 260.834086 218.64351 
L 260.834086 18.118365 
" style="fill: none; stroke: #000000; stroke-width: 0.8; stroke-linejoin: miter; stroke-linecap: square"/>
   </g>
   <g id="patch_5">
    <path d="M 36.403365 218.64351 
L 260.834086 218.64351 
" style="fill: none; stroke: #000000; stroke-width: 0.8; stroke-linejoin: miter; stroke-linecap: square"/>
   </g>
   <g id="patch_6">
    <path d="M 36.403365 18.118365 
L 260.834086 18.118365 
" style="fill: none; stroke: #000000; stroke-width: 0.8; stroke-linejoin: miter; stroke-linecap: square"/>
   </g>
   <g id="text_16">
    <!-- Predictions ($90^\circ$) -->
    <g transform="translate(96.718726 12.118365) scale(0.12 -0.12)">
     <defs>
      <path id="DejaVuSans-50" d="M 1259 4147 
L 1259 2394 
L 2053 2394 
Q 2494 2394 2734 2622 
Q 2975 2850 2975 3272 
Q 2975 3691 2734 3919 
Q 2494 4147 2053 4147 
L 1259 4147 
z
M 628 4666 
L 2053 4666 
Q 2838 4666 3239 4311 
Q 3641 3956 3641 3272 
Q 3641 2581 3239 2228 
Q 2838 1875 2053 1875 
L 1259 1875 
L 1259 0 
L 628 0 
L 628 4666 
z
" transform="scale(0.015625)"/>
      <path id="DejaVuSans-63" d="M 3122 3366 
L 3122 2828 
Q 2878 2963 2633 3030 
Q 2388 3097 2138 3097 
Q 1578 3097 1268 2742 
Q 959 2388 959 1747 
Q 959 1106 1268 751 
Q 1578 397 2138 397 
Q 2388 397 2633 464 
Q 2878 531 3122 666 
L 3122 134 
Q 2881 22 2623 -34 
Q 2366 -91 2075 -91 
Q 1284 -91 818 406 
Q 353 903 353 1747 
Q 353 2603 823 3093 
Q 1294 3584 2113 3584 
Q 2378 3584 2631 3529 
Q 2884 3475 3122 3366 
z
" transform="scale(0.015625)"/>
      <path id="DejaVuSans-28" d="M 1984 4856 
Q 1566 4138 1362 3434 
Q 1159 2731 1159 2009 
Q 1159 1288 1364 580 
Q 1569 -128 1984 -844 
L 1484 -844 
Q 1016 -109 783 600 
Q 550 1309 550 2009 
Q 550 2706 781 3412 
Q 1013 4119 1484 4856 
L 1984 4856 
z
" transform="scale(0.015625)"/>
      <path id="DejaVuSans-39" d="M 703 97 
L 703 672 
Q 941 559 1184 500 
Q 1428 441 1663 441 
Q 2288 441 2617 861 
Q 2947 1281 2994 2138 
Q 2813 1869 2534 1725 
Q 2256 1581 1919 1581 
Q 1219 1581 811 2004 
Q 403 2428 403 3163 
Q 403 3881 828 4315 
Q 1253 4750 1959 4750 
Q 2769 4750 3195 4129 
Q 3622 3509 3622 2328 
Q 3622 1225 3098 567 
Q 2575 -91 1691 -91 
Q 1453 -91 1209 -44 
Q 966 3 703 97 
z
M 1959 2075 
Q 2384 2075 2632 2365 
Q 2881 2656 2881 3163 
Q 2881 3666 2632 3958 
Q 2384 4250 1959 4250 
Q 1534 4250 1286 3958 
Q 1038 3666 1038 3163 
Q 1038 2656 1286 2365 
Q 1534 2075 1959 2075 
z
" transform="scale(0.015625)"/>
      <path id="DejaVuSans-2218" d="M 2003 2603 
Q 1753 2603 1581 2429 
Q 1409 2256 1409 2006 
Q 1409 1759 1581 1589 
Q 1753 1419 2003 1419 
Q 2253 1419 2425 1589 
Q 2597 1759 2597 2006 
Q 2597 2253 2423 2428 
Q 2250 2603 2003 2603 
z
M 2003 3006 
Q 2203 3006 2387 2929 
Q 2572 2853 2706 2709 
Q 2850 2569 2922 2390 
Q 2994 2212 2994 2006 
Q 2994 1594 2705 1308 
Q 2416 1022 1997 1022 
Q 1575 1022 1294 1303 
Q 1013 1584 1013 2006 
Q 1013 2425 1300 2715 
Q 1588 3006 2003 3006 
z
" transform="scale(0.015625)"/>
      <path id="DejaVuSans-29" d="M 513 4856 
L 1013 4856 
Q 1481 4119 1714 3412 
Q 1947 2706 1947 2009 
Q 1947 1309 1714 600 
Q 1481 -109 1013 -844 
L 513 -844 
Q 928 -128 1133 580 
Q 1338 1288 1338 2009 
Q 1338 2731 1133 3434 
Q 928 4138 513 4856 
z
" transform="scale(0.015625)"/>
     </defs>
     <use xlink:href="#DejaVuSans-50" transform="translate(0 0.015625)"/>
     <use xlink:href="#DejaVuSans-72" transform="translate(60.302734 0.015625)"/>
     <use xlink:href="#DejaVuSans-65" transform="translate(101.416016 0.015625)"/>
     <use xlink:href="#DejaVuSans-64" transform="translate(162.939453 0.015625)"/>
     <use xlink:href="#DejaVuSans-69" transform="translate(226.416016 0.015625)"/>
     <use xlink:href="#DejaVuSans-63" transform="translate(254.199219 0.015625)"/>
     <use xlink:href="#DejaVuSans-74" transform="translate(309.179688 0.015625)"/>
     <use xlink:href="#DejaVuSans-69" transform="translate(348.388672 0.015625)"/>
     <use xlink:href="#DejaVuSans-6f" transform="translate(376.171875 0.015625)"/>
     <use xlink:href="#DejaVuSans-6e" transform="translate(437.353516 0.015625)"/>
     <use xlink:href="#DejaVuSans-73" transform="translate(500.732422 0.015625)"/>
     <use xlink:href="#DejaVuSans-20" transform="translate(552.832031 0.015625)"/>
     <use xlink:href="#DejaVuSans-28" transform="translate(584.619141 0.015625)"/>
     <use xlink:href="#DejaVuSans-39" transform="translate(623.632812 0.015625)"/>
     <use xlink:href="#DejaVuSans-30" transform="translate(687.255859 0.015625)"/>
     <use xlink:href="#DejaVuSans-2218" transform="translate(765.473633 38.296875) scale(0.7)"/>
     <use xlink:href="#DejaVuSans-29" transform="translate(825.664062 0.015625)"/>
    </g>
   </g>
   <g id="legend_1">
    <g id="patch_7">
     <path d="M 133.423071 112.253209 
L 254.884086 112.253209 
Q 256.584086 112.253209 256.584086 110.553209 
L 256.584086 24.068365 
Q 256.584086 22.368365 254.884086 22.368365 
L 133.423071 22.368365 
Q 131.723071 22.368365 131.723071 24.068365 
L 131.723071 110.553209 
Q 131.723071 112.253209 133.423071 112.253209 
z
" style="fill: #ffffff; opacity: 0.8; stroke: #cccccc; stroke-linejoin: miter"/>
    </g>
    <g id="patch_8">
     <path d="M 135.123071 32.227037 
L 152.123071 32.227037 
L 152.123071 26.277037 
L 135.123071 26.277037 
z
" style="fill: #90ee90; fill-opacity: 0.75; stroke: #90ee90; stroke-opacity: 0.75; stroke-linejoin: miter"/>
    </g>
    <g id="text_17">
     <!-- Prior 95% interval -->
     <g transform="translate(158.923071 32.227037) scale(0.085 -0.085)">
      <defs>
       <path id="DejaVuSans-35" d="M 691 4666 
L 3169 4666 
L 3169 4134 
L 1269 4134 
L 1269 2991 
Q 1406 3038 1543 3061 
Q 1681 3084 1819 3084 
Q 2600 3084 3056 2656 
Q 3513 2228 3513 1497 
Q 3513 744 3044 326 
Q 2575 -91 1722 -91 
Q 1428 -91 1123 -41 
Q 819 9 494 109 
L 494 744 
Q 775 591 1075 516 
Q 1375 441 1709 441 
Q 2250 441 2565 725 
Q 2881 1009 2881 1497 
Q 2881 1984 2565 2268 
Q 2250 2553 1709 2553 
Q 1456 2553 1204 2497 
Q 953 2441 691 2322 
L 691 4666 
z
" transform="scale(0.015625)"/>
       <path id="DejaVuSans-25" d="M 4653 2053 
Q 4381 2053 4226 1822 
Q 4072 1591 4072 1178 
Q 4072 772 4226 539 
Q 4381 306 4653 306 
Q 4919 306 5073 539 
Q 5228 772 5228 1178 
Q 5228 1588 5073 1820 
Q 4919 2053 4653 2053 
z
M 4653 2450 
Q 5147 2450 5437 2106 
Q 5728 1763 5728 1178 
Q 5728 594 5436 251 
Q 5144 -91 4653 -91 
Q 4153 -91 3862 251 
Q 3572 594 3572 1178 
Q 3572 1766 3864 2108 
Q 4156 2450 4653 2450 
z
M 1428 4353 
Q 1159 4353 1004 4120 
Q 850 3888 850 3481 
Q 850 3069 1003 2837 
Q 1156 2606 1428 2606 
Q 1700 2606 1854 2837 
Q 2009 3069 2009 3481 
Q 2009 3884 1853 4118 
Q 1697 4353 1428 4353 
z
M 4250 4750 
L 4750 4750 
L 1831 -91 
L 1331 -91 
L 4250 4750 
z
M 1428 4750 
Q 1922 4750 2215 4408 
Q 2509 4066 2509 3481 
Q 2509 2891 2217 2550 
Q 1925 2209 1428 2209 
Q 931 2209 642 2551 
Q 353 2894 353 3481 
Q 353 4063 643 4406 
Q 934 4750 1428 4750 
z
" transform="scale(0.015625)"/>
       <path id="DejaVuSans-76" d="M 191 3500 
L 800 3500 
L 1894 563 
L 2988 3500 
L 3597 3500 
L 2284 0 
L 1503 0 
L 191 3500 
z
" transform="scale(0.015625)"/>
      </defs>
      <use xlink:href="#DejaVuSans-50"/>
      <use xlink:href="#DejaVuSans-72" x="58.552734"/>
      <use xlink:href="#DejaVuSans-69" x="99.666016"/>
      <use xlink:href="#DejaVuSans-6f" x="127.449219"/>
      <use xlink:href="#DejaVuSans-72" x="188.630859"/>
      <use xlink:href="#DejaVuSans-20" x="229.744141"/>
      <use xlink:href="#DejaVuSans-39" x="261.53125"/>
      <use xlink:href="#DejaVuSans-35" x="325.154297"/>
      <use xlink:href="#DejaVuSans-25" x="388.777344"/>
      <use xlink:href="#DejaVuSans-20" x="483.796875"/>
      <use xlink:href="#DejaVuSans-69" x="515.583984"/>
      <use xlink:href="#DejaVuSans-6e" x="543.367188"/>
      <use xlink:href="#DejaVuSans-74" x="606.746094"/>
      <use xlink:href="#DejaVuSans-65" x="645.955078"/>
      <use xlink:href="#DejaVuSans-72" x="707.478516"/>
      <use xlink:href="#DejaVuSans-76" x="748.591797"/>
      <use xlink:href="#DejaVuSans-61" x="807.771484"/>
      <use xlink:href="#DejaVuSans-6c" x="869.050781"/>
     </g>
    </g>
    <g id="line2d_21">
     <path d="M 135.123071 41.728443 
L 143.623071 41.728443 
L 152.123071 41.728443 
" style="fill: none; stroke-dasharray: 3.7,1.6; stroke-dashoffset: 0; stroke: #008000"/>
    </g>
    <g id="text_18">
     <!-- Prior mean -->
     <g transform="translate(158.923071 44.703443) scale(0.085 -0.085)">
      <use xlink:href="#DejaVuSans-50"/>
      <use xlink:href="#DejaVuSans-72" x="58.552734"/>
      <use xlink:href="#DejaVuSans-69" x="99.666016"/>
      <use xlink:href="#DejaVuSans-6f" x="127.449219"/>
      <use xlink:href="#DejaVuSans-72" x="188.630859"/>
      <use xlink:href="#DejaVuSans-20" x="229.744141"/>
      <use xlink:href="#DejaVuSans-6d" x="261.53125"/>
      <use xlink:href="#DejaVuSans-65" x="358.943359"/>
      <use xlink:href="#DejaVuSans-61" x="420.466797"/>
      <use xlink:href="#DejaVuSans-6e" x="481.746094"/>
     </g>
    </g>
    <g id="patch_9">
     <path d="M 135.123071 57.179849 
L 152.123071 57.179849 
L 152.123071 51.229849 
L 135.123071 51.229849 
z
" style="fill: #6495ed; fill-opacity: 0.75; stroke: #6495ed; stroke-opacity: 0.75; stroke-linejoin: miter"/>
    </g>
    <g id="text_19">
     <!-- Posterior 95% interval -->
     <g transform="translate(158.923071 57.179849) scale(0.085 -0.085)">
      <use xlink:href="#DejaVuSans-50"/>
      <use xlink:href="#DejaVuSans-6f" x="56.677734"/>
      <use xlink:href="#DejaVuSans-73" x="117.859375"/>
      <use xlink:href="#DejaVuSans-74" x="169.958984"/>
      <use xlink:href="#DejaVuSans-65" x="209.167969"/>
      <use xlink:href="#DejaVuSans-72" x="270.691406"/>
      <use xlink:href="#DejaVuSans-69" x="311.804688"/>
      <use xlink:href="#DejaVuSans-6f" x="339.587891"/>
      <use xlink:href="#DejaVuSans-72" x="400.769531"/>
      <use xlink:href="#DejaVuSans-20" x="441.882812"/>
      <use xlink:href="#DejaVuSans-39" x="473.669922"/>
      <use xlink:href="#DejaVuSans-35" x="537.292969"/>
      <use xlink:href="#DejaVuSans-25" x="600.916016"/>
      <use xlink:href="#DejaVuSans-20" x="695.935547"/>
      <use xlink:href="#DejaVuSans-69" x="727.722656"/>
      <use xlink:href="#DejaVuSans-6e" x="755.505859"/>
      <use xlink:href="#DejaVuSans-74" x="818.884766"/>
      <use xlink:href="#DejaVuSans-65" x="858.09375"/>
      <use xlink:href="#DejaVuSans-72" x="919.617188"/>
      <use xlink:href="#DejaVuSans-76" x="960.730469"/>
      <use xlink:href="#DejaVuSans-61" x="1019.910156"/>
      <use xlink:href="#DejaVuSans-6c" x="1081.189453"/>
     </g>
    </g>
    <g id="line2d_22">
     <path d="M 135.123071 66.681256 
L 143.623071 66.681256 
L 152.123071 66.681256 
" style="fill: none; stroke: #0000ff; stroke-width: 0.5; stroke-linecap: square"/>
    </g>
    <g id="text_20">
     <!-- Posterior mean -->
     <g transform="translate(158.923071 69.656256) scale(0.085 -0.085)">
      <use xlink:href="#DejaVuSans-50"/>
      <use xlink:href="#DejaVuSans-6f" x="56.677734"/>
      <use xlink:href="#DejaVuSans-73" x="117.859375"/>
      <use xlink:href="#DejaVuSans-74" x="169.958984"/>
      <use xlink:href="#DejaVuSans-65" x="209.167969"/>
      <use xlink:href="#DejaVuSans-72" x="270.691406"/>
      <use xlink:href="#DejaVuSans-69" x="311.804688"/>
      <use xlink:href="#DejaVuSans-6f" x="339.587891"/>
      <use xlink:href="#DejaVuSans-72" x="400.769531"/>
      <use xlink:href="#DejaVuSans-20" x="441.882812"/>
      <use xlink:href="#DejaVuSans-6d" x="473.669922"/>
      <use xlink:href="#DejaVuSans-65" x="571.082031"/>
      <use xlink:href="#DejaVuSans-61" x="632.605469"/>
      <use xlink:href="#DejaVuSans-6e" x="693.884766"/>
     </g>
    </g>
    <g id="line2d_23">
     <g>
      <use xlink:href="#m70326c90e3" x="143.623071" y="79.157662" style="fill: #1f77b4; stroke: #1f77b4"/>
     </g>
    </g>
    <g id="text_21">
     <!-- Experimental data 1 -->
     <g transform="translate(158.923071 82.132662) scale(0.085 -0.085)">
      <defs>
       <path id="DejaVuSans-70" d="M 1159 525 
L 1159 -1331 
L 581 -1331 
L 581 3500 
L 1159 3500 
L 1159 2969 
Q 1341 3281 1617 3432 
Q 1894 3584 2278 3584 
Q 2916 3584 3314 3078 
Q 3713 2572 3713 1747 
Q 3713 922 3314 415 
Q 2916 -91 2278 -91 
Q 1894 -91 1617 61 
Q 1341 213 1159 525 
z
M 3116 1747 
Q 3116 2381 2855 2742 
Q 2594 3103 2138 3103 
Q 1681 3103 1420 2742 
Q 1159 2381 1159 1747 
Q 1159 1113 1420 752 
Q 1681 391 2138 391 
Q 2594 391 2855 752 
Q 3116 1113 3116 1747 
z
" transform="scale(0.015625)"/>
      </defs>
      <use xlink:href="#DejaVuSans-45"/>
      <use xlink:href="#DejaVuSans-78" x="63.183594"/>
      <use xlink:href="#DejaVuSans-70" x="122.363281"/>
      <use xlink:href="#DejaVuSans-65" x="185.839844"/>
      <use xlink:href="#DejaVuSans-72" x="247.363281"/>
      <use xlink:href="#DejaVuSans-69" x="288.476562"/>
      <use xlink:href="#DejaVuSans-6d" x="316.259766"/>
      <use xlink:href="#DejaVuSans-65" x="413.671875"/>
      <use xlink:href="#DejaVuSans-6e" x="475.195312"/>
      <use xlink:href="#DejaVuSans-74" x="538.574219"/>
      <use xlink:href="#DejaVuSans-61" x="577.783203"/>
      <use xlink:href="#DejaVuSans-6c" x="639.0625"/>
      <use xlink:href="#DejaVuSans-20" x="666.845703"/>
      <use xlink:href="#DejaVuSans-64" x="698.632812"/>
      <use xlink:href="#DejaVuSans-61" x="762.109375"/>
      <use xlink:href="#DejaVuSans-74" x="823.388672"/>
      <use xlink:href="#DejaVuSans-61" x="862.597656"/>
      <use xlink:href="#DejaVuSans-20" x="923.876953"/>
      <use xlink:href="#DejaVuSans-31" x="955.664062"/>
     </g>
    </g>
    <g id="line2d_24">
     <g>
      <use xlink:href="#m82c9bc4290" x="143.623071" y="91.634068" style="fill: #ff7f0e; stroke: #ff7f0e"/>
     </g>
    </g>
    <g id="text_22">
     <!-- Experimental data 2 -->
     <g transform="translate(158.923071 94.609068) scale(0.085 -0.085)">
      <use xlink:href="#DejaVuSans-45"/>
      <use xlink:href="#DejaVuSans-78" x="63.183594"/>
      <use xlink:href="#DejaVuSans-70" x="122.363281"/>
      <use xlink:href="#DejaVuSans-65" x="185.839844"/>
      <use xlink:href="#DejaVuSans-72" x="247.363281"/>
      <use xlink:href="#DejaVuSans-69" x="288.476562"/>
      <use xlink:href="#DejaVuSans-6d" x="316.259766"/>
      <use xlink:href="#DejaVuSans-65" x="413.671875"/>
      <use xlink:href="#DejaVuSans-6e" x="475.195312"/>
      <use xlink:href="#DejaVuSans-74" x="538.574219"/>
      <use xlink:href="#DejaVuSans-61" x="577.783203"/>
      <use xlink:href="#DejaVuSans-6c" x="639.0625"/>
      <use xlink:href="#DejaVuSans-20" x="666.845703"/>
      <use xlink:href="#DejaVuSans-64" x="698.632812"/>
      <use xlink:href="#DejaVuSans-61" x="762.109375"/>
      <use xlink:href="#DejaVuSans-74" x="823.388672"/>
      <use xlink:href="#DejaVuSans-61" x="862.597656"/>
      <use xlink:href="#DejaVuSans-20" x="923.876953"/>
      <use xlink:href="#DejaVuSans-32" x="955.664062"/>
     </g>
    </g>
    <g id="line2d_25">
     <g>
      <use xlink:href="#mb8a2fddd6d" x="143.623071" y="104.110474" style="fill: #2ca02c; stroke: #2ca02c"/>
     </g>
    </g>
    <g id="text_23">
     <!-- Experimental data 3 -->
     <g transform="translate(158.923071 107.085474) scale(0.085 -0.085)">
      <defs>
       <path id="DejaVuSans-33" d="M 2597 2516 
Q 3050 2419 3304 2112 
Q 3559 1806 3559 1356 
Q 3559 666 3084 287 
Q 2609 -91 1734 -91 
Q 1441 -91 1130 -33 
Q 819 25 488 141 
L 488 750 
Q 750 597 1062 519 
Q 1375 441 1716 441 
Q 2309 441 2620 675 
Q 2931 909 2931 1356 
Q 2931 1769 2642 2001 
Q 2353 2234 1838 2234 
L 1294 2234 
L 1294 2753 
L 1863 2753 
Q 2328 2753 2575 2939 
Q 2822 3125 2822 3475 
Q 2822 3834 2567 4026 
Q 2313 4219 1838 4219 
Q 1578 4219 1281 4162 
Q 984 4106 628 3988 
L 628 4550 
Q 988 4650 1302 4700 
Q 1616 4750 1894 4750 
Q 2613 4750 3031 4423 
Q 3450 4097 3450 3541 
Q 3450 3153 3228 2886 
Q 3006 2619 2597 2516 
z
" transform="scale(0.015625)"/>
      </defs>
      <use xlink:href="#DejaVuSans-45"/>
      <use xlink:href="#DejaVuSans-78" x="63.183594"/>
      <use xlink:href="#DejaVuSans-70" x="122.363281"/>
      <use xlink:href="#DejaVuSans-65" x="185.839844"/>
      <use xlink:href="#DejaVuSans-72" x="247.363281"/>
      <use xlink:href="#DejaVuSans-69" x="288.476562"/>
      <use xlink:href="#DejaVuSans-6d" x="316.259766"/>
      <use xlink:href="#DejaVuSans-65" x="413.671875"/>
      <use xlink:href="#DejaVuSans-6e" x="475.195312"/>
      <use xlink:href="#DejaVuSans-74" x="538.574219"/>
      <use xlink:href="#DejaVuSans-61" x="577.783203"/>
      <use xlink:href="#DejaVuSans-6c" x="639.0625"/>
      <use xlink:href="#DejaVuSans-20" x="666.845703"/>
      <use xlink:href="#DejaVuSans-64" x="698.632812"/>
      <use xlink:href="#DejaVuSans-61" x="762.109375"/>
      <use xlink:href="#DejaVuSans-74" x="823.388672"/>
      <use xlink:href="#DejaVuSans-61" x="862.597656"/>
      <use xlink:href="#DejaVuSans-20" x="923.876953"/>
      <use xlink:href="#DejaVuSans-33" x="955.664062"/>
     </g>
    </g>
   </g>
  </g>
  <g id="axes_2">
   <g id="patch_10">
    <path d="M 273.451803 218.64351 
L 497.882524 218.64351 
L 497.882524 18.118365 
L 273.451803 18.118365 
z
" style="fill: #ffffff"/>
   </g>
   <g id="PolyCollection_3">
    <defs>
     <path id="m0fb15e0de0" d="M 297.54599 -42.471269 
L 297.452721 -42.471269 
L 297.442142 -44.312639 
L 297.533776 -46.154008 
L 297.72762 -47.995378 
L 298.023676 -49.836748 
L 298.421944 -51.678117 
L 298.922423 -53.519487 
L 299.525113 -55.360856 
L 300.230014 -57.202226 
L 301.037127 -59.043595 
L 301.946451 -60.884965 
L 302.957987 -62.726334 
L 304.071734 -64.567704 
L 305.287693 -66.409074 
L 306.605862 -68.250443 
L 308.026244 -70.091813 
L 309.548836 -71.933182 
L 311.17364 -73.774552 
L 312.900655 -75.615921 
L 314.729882 -77.457291 
L 316.66132 -79.298661 
L 318.69497 -81.14003 
L 320.777133 -82.9814 
L 322.854114 -84.822769 
L 324.925912 -86.664139 
L 326.992528 -88.505508 
L 329.05396 -90.346878 
L 331.11021 -92.188247 
L 333.161276 -94.029617 
L 335.20716 -95.870987 
L 337.184346 -97.712356 
L 339.029318 -99.553726 
L 340.742078 -101.395095 
L 342.322624 -103.236465 
L 343.770956 -105.077834 
L 345.087076 -106.919204 
L 346.270982 -108.760573 
L 347.322674 -110.601943 
L 348.377057 -112.443313 
L 349.569032 -114.284682 
L 350.898599 -116.126052 
L 352.365759 -117.967421 
L 353.970512 -119.808791 
L 355.712858 -121.65016 
L 357.592796 -123.49153 
L 359.610327 -125.332899 
L 361.664175 -127.174269 
L 363.653067 -129.015639 
L 365.577002 -130.857008 
L 367.43598 -132.698378 
L 369.230001 -134.539747 
L 370.959065 -136.381117 
L 372.623172 -138.222486 
L 374.222322 -140.063856 
L 375.779059 -141.905226 
L 377.315925 -143.746595 
L 378.83292 -145.587965 
L 380.330044 -147.429334 
L 381.807298 -149.270704 
L 383.264681 -151.112073 
L 384.702193 -152.953443 
L 386.119835 -154.794812 
L 387.498085 -156.636182 
L 388.817425 -158.477552 
L 390.077853 -160.318921 
L 391.27937 -162.160291 
L 392.421976 -164.00166 
L 393.50567 -165.84303 
L 394.530453 -167.684399 
L 395.496325 -169.525769 
L 396.43324 -171.367138 
L 397.371153 -173.208508 
L 398.310063 -175.049878 
L 399.249971 -176.891247 
L 400.190877 -178.732617 
L 401.132781 -180.573986 
L 402.075682 -182.415356 
L 403.019581 -184.256725 
L 403.979937 -186.098095 
L 404.972209 -187.939464 
L 405.996397 -189.780834 
L 407.052501 -191.622204 
L 408.14052 -193.463573 
L 409.260456 -195.304943 
L 410.412308 -197.146312 
L 411.596076 -198.987682 
L 412.872532 -200.829051 
L 414.302448 -202.670421 
L 415.885825 -204.511791 
L 417.622661 -206.35316 
L 419.512959 -208.19453 
L 421.556716 -210.035899 
L 423.753934 -211.877269 
L 426.104611 -213.718638 
L 428.60875 -215.560008 
L 431.266348 -217.401377 
L 434.077407 -219.242747 
L 437.041926 -221.084117 
L 440.159905 -222.925486 
L 443.431345 -224.766856 
L 484.501162 -224.766856 
L 484.501162 -224.766856 
L 483.137421 -222.925486 
L 481.756409 -221.084117 
L 480.358126 -219.242747 
L 478.942571 -217.401377 
L 477.509745 -215.560008 
L 476.059647 -213.718638 
L 474.592278 -211.877269 
L 473.107637 -210.035899 
L 471.605725 -208.19453 
L 470.086542 -206.35316 
L 468.550087 -204.511791 
L 466.99636 -202.670421 
L 465.425362 -200.829051 
L 463.837093 -198.987682 
L 462.231552 -197.146312 
L 460.583811 -195.304943 
L 458.868943 -193.463573 
L 457.086947 -191.622204 
L 455.237822 -189.780834 
L 453.32157 -187.939464 
L 451.33819 -186.098095 
L 449.287682 -184.256725 
L 447.170047 -182.415356 
L 444.983188 -180.573986 
L 442.725014 -178.732617 
L 440.395522 -176.891247 
L 437.994715 -175.049878 
L 435.52259 -173.208508 
L 432.979149 -171.367138 
L 430.364391 -169.525769 
L 427.678317 -167.684399 
L 424.994561 -165.84303 
L 422.386761 -164.00166 
L 419.854916 -162.160291 
L 417.399026 -160.318921 
L 415.01909 -158.477552 
L 412.71511 -156.636182 
L 410.487085 -154.794812 
L 408.335015 -152.953443 
L 406.229329 -151.112073 
L 404.140459 -149.270704 
L 402.068403 -147.429334 
L 400.013162 -145.587965 
L 397.974735 -143.746595 
L 395.953124 -141.905226 
L 393.948327 -140.063856 
L 391.960345 -138.222486 
L 390.020043 -136.381117 
L 388.158284 -134.539747 
L 386.37507 -132.698378 
L 384.6704 -130.857008 
L 383.044274 -129.015639 
L 381.496692 -127.174269 
L 380.027654 -125.332899 
L 378.63716 -123.49153 
L 377.251883 -121.65016 
L 375.798496 -119.808791 
L 374.276999 -117.967421 
L 372.687392 -116.126052 
L 371.029676 -114.284682 
L 369.303848 -112.443313 
L 367.509911 -110.601943 
L 365.647864 -108.760573 
L 363.789376 -106.919204 
L 362.006116 -105.077834 
L 360.298083 -103.236465 
L 358.665278 -101.395095 
L 357.107701 -99.553726 
L 355.625352 -97.712356 
L 354.218231 -95.870987 
L 352.886337 -94.029617 
L 351.604699 -92.188247 
L 350.348345 -90.346878 
L 349.117274 -88.505508 
L 347.911486 -86.664139 
L 346.730982 -84.822769 
L 345.575761 -82.9814 
L 344.445823 -81.14003 
L 343.341169 -79.298661 
L 342.179448 -77.457291 
L 340.878311 -75.615921 
L 339.437757 -73.774552 
L 337.857787 -71.933182 
L 336.138401 -70.091813 
L 334.279598 -68.250443 
L 332.281378 -66.409074 
L 330.143742 -64.567704 
L 327.89397 -62.726334 
L 325.559342 -60.884965 
L 323.139858 -59.043595 
L 320.635519 -57.202226 
L 318.046323 -55.360856 
L 315.372272 -53.519487 
L 312.613364 -51.678117 
L 309.769601 -49.836748 
L 306.840982 -47.995378 
L 303.827508 -46.154008 
L 300.729177 -44.312639 
L 297.54599 -42.471269 
z
" style="stroke: #90ee90; stroke-opacity: 0.75"/>
    </defs>
    <g clip-path="url(#p6d9df8f682)">
     <use xlink:href="#m0fb15e0de0" x="0" y="252" style="fill: #90ee90; fill-opacity: 0.75; stroke: #90ee90; stroke-opacity: 0.75"/>
    </g>
   </g>
   <g id="PolyCollection_4">
    <defs>
     <path id="m493d00ad8a" d="M 297.537353 -42.471269 
L 297.447208 -42.471269 
L 299.169526 -44.312639 
L 300.878464 -46.154008 
L 302.583886 -47.995378 
L 304.289819 -49.836748 
L 305.994625 -51.678117 
L 307.702814 -53.519487 
L 309.403589 -55.360856 
L 311.106203 -57.202226 
L 312.813316 -59.043595 
L 314.519087 -60.884965 
L 316.218592 -62.726334 
L 317.92474 -64.567704 
L 319.62711 -66.409074 
L 321.331656 -68.250443 
L 323.035881 -70.091813 
L 324.740644 -71.933182 
L 326.446228 -73.774552 
L 328.147992 -75.615921 
L 329.855725 -77.457291 
L 331.565491 -79.298661 
L 333.270672 -81.14003 
L 334.979258 -82.9814 
L 336.684221 -84.822769 
L 338.391666 -86.664139 
L 340.097182 -88.505508 
L 341.808266 -90.346878 
L 343.516789 -92.188247 
L 345.232953 -94.029617 
L 346.948116 -95.870987 
L 348.65696 -97.712356 
L 350.369395 -99.553726 
L 352.081937 -101.395095 
L 353.801057 -103.236465 
L 355.51224 -105.077834 
L 357.22723 -106.919204 
L 358.946667 -108.760573 
L 360.668539 -110.601943 
L 362.396313 -112.443313 
L 364.10759 -114.284682 
L 365.828962 -116.126052 
L 367.546174 -117.967421 
L 369.265292 -119.808791 
L 371.006919 -121.65016 
L 372.721804 -123.49153 
L 374.448662 -125.332899 
L 376.165385 -127.174269 
L 377.893524 -129.015639 
L 379.61937 -130.857008 
L 381.348553 -132.698378 
L 383.073882 -134.539747 
L 384.803633 -136.381117 
L 386.534676 -138.222486 
L 388.263396 -140.063856 
L 390.001243 -141.905226 
L 391.735997 -143.746595 
L 393.470209 -145.587965 
L 395.213752 -147.429334 
L 396.95642 -149.270704 
L 398.692179 -151.112073 
L 400.436386 -152.953443 
L 402.176838 -154.794812 
L 403.920109 -156.636182 
L 405.65248 -158.477552 
L 407.410676 -160.318921 
L 409.147457 -162.160291 
L 410.895807 -164.00166 
L 412.635191 -165.84303 
L 414.377457 -167.684399 
L 416.121806 -169.525769 
L 417.879521 -171.367138 
L 419.609699 -173.208508 
L 421.361316 -175.049878 
L 423.104882 -176.891247 
L 424.849661 -178.732617 
L 426.600374 -180.573986 
L 428.341998 -182.415356 
L 430.078705 -184.256725 
L 431.826615 -186.098095 
L 433.585864 -187.939464 
L 435.323619 -189.780834 
L 437.062096 -191.622204 
L 438.821397 -193.463573 
L 440.572991 -195.304943 
L 442.303365 -197.146312 
L 444.071683 -198.987682 
L 445.811626 -200.829051 
L 447.565539 -202.670421 
L 449.317138 -204.511791 
L 451.069743 -206.35316 
L 452.821179 -208.19453 
L 454.567328 -210.035899 
L 456.323754 -211.877269 
L 458.073546 -213.718638 
L 459.830356 -215.560008 
L 461.566013 -217.401377 
L 463.310757 -219.242747 
L 465.0605 -221.084117 
L 466.800387 -222.925486 
L 468.539634 -224.766856 
L 471.614271 -224.766856 
L 471.614271 -224.766856 
L 469.841041 -222.925486 
L 468.0691 -221.084117 
L 466.283916 -219.242747 
L 464.493479 -217.401377 
L 462.713493 -215.560008 
L 460.934891 -213.718638 
L 459.149957 -211.877269 
L 457.373046 -210.035899 
L 455.582015 -208.19453 
L 453.813036 -206.35316 
L 452.029423 -204.511791 
L 450.236025 -202.670421 
L 448.469548 -200.829051 
L 446.685255 -198.987682 
L 444.906693 -197.146312 
L 443.137025 -195.304943 
L 441.353299 -193.463573 
L 439.5709 -191.622204 
L 437.791169 -189.780834 
L 436.014028 -187.939464 
L 434.246062 -186.098095 
L 432.465634 -184.256725 
L 430.68952 -182.415356 
L 428.909857 -180.573986 
L 427.150654 -178.732617 
L 425.370712 -176.891247 
L 423.604726 -175.049878 
L 421.832312 -173.208508 
L 420.062066 -171.367138 
L 418.29549 -169.525769 
L 416.520365 -167.684399 
L 414.749893 -165.84303 
L 412.985427 -164.00166 
L 411.223463 -162.160291 
L 409.452731 -160.318921 
L 407.696683 -158.477552 
L 405.92167 -156.636182 
L 404.161903 -154.794812 
L 402.402899 -152.953443 
L 400.634734 -151.112073 
L 398.875759 -149.270704 
L 397.121361 -147.429334 
L 395.36594 -145.587965 
L 393.611413 -143.746595 
L 391.857727 -141.905226 
L 390.100378 -140.063856 
L 388.34809 -138.222486 
L 386.59406 -136.381117 
L 384.841664 -134.539747 
L 383.085395 -132.698378 
L 381.334616 -130.857008 
L 379.582905 -129.015639 
L 377.834179 -127.174269 
L 376.08923 -125.332899 
L 374.341121 -123.49153 
L 372.592168 -121.65016 
L 370.839784 -119.808791 
L 369.091258 -117.967421 
L 367.344633 -116.126052 
L 365.598051 -114.284682 
L 363.846387 -112.443313 
L 362.103719 -110.601943 
L 360.359278 -108.760573 
L 358.610401 -106.919204 
L 356.857993 -105.077834 
L 355.119359 -103.236465 
L 353.370333 -101.395095 
L 351.626817 -99.553726 
L 349.880896 -97.712356 
L 348.138251 -95.870987 
L 346.38945 -94.029617 
L 344.64648 -92.188247 
L 342.902078 -90.346878 
L 341.160065 -88.505508 
L 339.419734 -86.664139 
L 337.670441 -84.822769 
L 335.92193 -82.9814 
L 334.187839 -81.14003 
L 332.440176 -79.298661 
L 330.694728 -77.457291 
L 328.954607 -75.615921 
L 327.204841 -73.774552 
L 325.459452 -71.933182 
L 323.719766 -70.091813 
L 321.97344 -68.250443 
L 320.232776 -66.409074 
L 318.481128 -64.567704 
L 316.735668 -62.726334 
L 314.994772 -60.884965 
L 313.247689 -59.043595 
L 311.50221 -57.202226 
L 309.756702 -55.360856 
L 308.010581 -53.519487 
L 306.261693 -51.678117 
L 304.514399 -49.836748 
L 302.767357 -47.995378 
L 301.021494 -46.154008 
L 299.276046 -44.312639 
L 297.537353 -42.471269 
z
" style="stroke: #6495ed; stroke-opacity: 0.75"/>
    </defs>
    <g clip-path="url(#p6d9df8f682)">
     <use xlink:href="#m493d00ad8a" x="0" y="252" style="fill: #6495ed; fill-opacity: 0.75; stroke: #6495ed; stroke-opacity: 0.75"/>
    </g>
   </g>
   <g id="matplotlib.axis_3">
    <g id="xtick_8">
     <g id="line2d_26">
      <g>
       <use xlink:href="#mc892e016a0" x="297.497951" y="218.64351" style="stroke: #000000; stroke-width: 0.8"/>
      </g>
     </g>
     <g id="text_24">
      <!-- 0.00 -->
      <g transform="translate(286.365139 233.241948) scale(0.1 -0.1)">
       <use xlink:href="#DejaVuSans-30"/>
       <use xlink:href="#DejaVuSans-2e" x="63.623047"/>
       <use xlink:href="#DejaVuSans-30" x="95.410156"/>
       <use xlink:href="#DejaVuSans-30" x="159.033203"/>
      </g>
     </g>
    </g>
    <g id="xtick_9">
     <g id="line2d_27">
      <g>
       <use xlink:href="#mc892e016a0" x="329.559483" y="218.64351" style="stroke: #000000; stroke-width: 0.8"/>
      </g>
     </g>
     <g id="text_25">
      <!-- 0.02 -->
      <g transform="translate(318.42667 233.241948) scale(0.1 -0.1)">
       <use xlink:href="#DejaVuSans-30"/>
       <use xlink:href="#DejaVuSans-2e" x="63.623047"/>
       <use xlink:href="#DejaVuSans-30" x="95.410156"/>
       <use xlink:href="#DejaVuSans-32" x="159.033203"/>
      </g>
     </g>
    </g>
    <g id="xtick_10">
     <g id="line2d_28">
      <g>
       <use xlink:href="#mc892e016a0" x="361.621014" y="218.64351" style="stroke: #000000; stroke-width: 0.8"/>
      </g>
     </g>
     <g id="text_26">
      <!-- 0.04 -->
      <g transform="translate(350.488202 233.241948) scale(0.1 -0.1)">
       <use xlink:href="#DejaVuSans-30"/>
       <use xlink:href="#DejaVuSans-2e" x="63.623047"/>
       <use xlink:href="#DejaVuSans-30" x="95.410156"/>
       <use xlink:href="#DejaVuSans-34" x="159.033203"/>
      </g>
     </g>
    </g>
    <g id="xtick_11">
     <g id="line2d_29">
      <g>
       <use xlink:href="#mc892e016a0" x="393.682546" y="218.64351" style="stroke: #000000; stroke-width: 0.8"/>
      </g>
     </g>
     <g id="text_27">
      <!-- 0.06 -->
      <g transform="translate(382.549734 233.241948) scale(0.1 -0.1)">
       <use xlink:href="#DejaVuSans-30"/>
       <use xlink:href="#DejaVuSans-2e" x="63.623047"/>
       <use xlink:href="#DejaVuSans-30" x="95.410156"/>
       <use xlink:href="#DejaVuSans-36" x="159.033203"/>
      </g>
     </g>
    </g>
    <g id="xtick_12">
     <g id="line2d_30">
      <g>
       <use xlink:href="#mc892e016a0" x="425.744078" y="218.64351" style="stroke: #000000; stroke-width: 0.8"/>
      </g>
     </g>
     <g id="text_28">
      <!-- 0.08 -->
      <g transform="translate(414.611265 233.241948) scale(0.1 -0.1)">
       <use xlink:href="#DejaVuSans-30"/>
       <use xlink:href="#DejaVuSans-2e" x="63.623047"/>
       <use xlink:href="#DejaVuSans-30" x="95.410156"/>
       <use xlink:href="#DejaVuSans-38" x="159.033203"/>
      </g>
     </g>
    </g>
    <g id="xtick_13">
     <g id="line2d_31">
      <g>
       <use xlink:href="#mc892e016a0" x="457.805609" y="218.64351" style="stroke: #000000; stroke-width: 0.8"/>
      </g>
     </g>
     <g id="text_29">
      <!-- 0.10 -->
      <g transform="translate(446.672797 233.241948) scale(0.1 -0.1)">
       <use xlink:href="#DejaVuSans-30"/>
       <use xlink:href="#DejaVuSans-2e" x="63.623047"/>
       <use xlink:href="#DejaVuSans-31" x="95.410156"/>
       <use xlink:href="#DejaVuSans-30" x="159.033203"/>
      </g>
     </g>
    </g>
    <g id="xtick_14">
     <g id="line2d_32">
      <g>
       <use xlink:href="#mc892e016a0" x="489.867141" y="218.64351" style="stroke: #000000; stroke-width: 0.8"/>
      </g>
     </g>
     <g id="text_30">
      <!-- 0.12 -->
      <g transform="translate(478.734328 233.241948) scale(0.1 -0.1)">
       <use xlink:href="#DejaVuSans-30"/>
       <use xlink:href="#DejaVuSans-2e" x="63.623047"/>
       <use xlink:href="#DejaVuSans-31" x="95.410156"/>
       <use xlink:href="#DejaVuSans-32" x="159.033203"/>
      </g>
     </g>
    </g>
    <g id="text_31">
     <!-- Shear Extension [mm] -->
     <g transform="translate(329.761694 246.920073) scale(0.1 -0.1)">
      <defs>
       <path id="DejaVuSans-53" d="M 3425 4513 
L 3425 3897 
Q 3066 4069 2747 4153 
Q 2428 4238 2131 4238 
Q 1616 4238 1336 4038 
Q 1056 3838 1056 3469 
Q 1056 3159 1242 3001 
Q 1428 2844 1947 2747 
L 2328 2669 
Q 3034 2534 3370 2195 
Q 3706 1856 3706 1288 
Q 3706 609 3251 259 
Q 2797 -91 1919 -91 
Q 1588 -91 1214 -16 
Q 841 59 441 206 
L 441 856 
Q 825 641 1194 531 
Q 1563 422 1919 422 
Q 2459 422 2753 634 
Q 3047 847 3047 1241 
Q 3047 1584 2836 1778 
Q 2625 1972 2144 2069 
L 1759 2144 
Q 1053 2284 737 2584 
Q 422 2884 422 3419 
Q 422 4038 858 4394 
Q 1294 4750 2059 4750 
Q 2388 4750 2728 4690 
Q 3069 4631 3425 4513 
z
" transform="scale(0.015625)"/>
       <path id="DejaVuSans-68" d="M 3513 2113 
L 3513 0 
L 2938 0 
L 2938 2094 
Q 2938 2591 2744 2837 
Q 2550 3084 2163 3084 
Q 1697 3084 1428 2787 
Q 1159 2491 1159 1978 
L 1159 0 
L 581 0 
L 581 4863 
L 1159 4863 
L 1159 2956 
Q 1366 3272 1645 3428 
Q 1925 3584 2291 3584 
Q 2894 3584 3203 3211 
Q 3513 2838 3513 2113 
z
" transform="scale(0.015625)"/>
      </defs>
      <use xlink:href="#DejaVuSans-53"/>
      <use xlink:href="#DejaVuSans-68" x="63.476562"/>
      <use xlink:href="#DejaVuSans-65" x="126.855469"/>
      <use xlink:href="#DejaVuSans-61" x="188.378906"/>
      <use xlink:href="#DejaVuSans-72" x="249.658203"/>
      <use xlink:href="#DejaVuSans-20" x="290.771484"/>
      <use xlink:href="#DejaVuSans-45" x="322.558594"/>
      <use xlink:href="#DejaVuSans-78" x="385.742188"/>
      <use xlink:href="#DejaVuSans-74" x="444.921875"/>
      <use xlink:href="#DejaVuSans-65" x="484.130859"/>
      <use xlink:href="#DejaVuSans-6e" x="545.654297"/>
      <use xlink:href="#DejaVuSans-73" x="609.033203"/>
      <use xlink:href="#DejaVuSans-69" x="661.132812"/>
      <use xlink:href="#DejaVuSans-6f" x="688.916016"/>
      <use xlink:href="#DejaVuSans-6e" x="750.097656"/>
      <use xlink:href="#DejaVuSans-20" x="813.476562"/>
      <use xlink:href="#DejaVuSans-5b" x="845.263672"/>
      <use xlink:href="#DejaVuSans-6d" x="884.277344"/>
      <use xlink:href="#DejaVuSans-6d" x="981.689453"/>
      <use xlink:href="#DejaVuSans-5d" x="1079.101562"/>
     </g>
    </g>
   </g>
   <g id="matplotlib.axis_4">
    <g id="ytick_7">
     <g id="line2d_33">
      <g>
       <use xlink:href="#m8573c8893f" x="273.451803" y="209.528731" style="stroke: #000000; stroke-width: 0.8"/>
      </g>
     </g>
    </g>
    <g id="ytick_8">
     <g id="line2d_34">
      <g>
       <use xlink:href="#m8573c8893f" x="273.451803" y="173.069613" style="stroke: #000000; stroke-width: 0.8"/>
      </g>
     </g>
    </g>
    <g id="ytick_9">
     <g id="line2d_35">
      <g>
       <use xlink:href="#m8573c8893f" x="273.451803" y="136.610496" style="stroke: #000000; stroke-width: 0.8"/>
      </g>
     </g>
    </g>
    <g id="ytick_10">
     <g id="line2d_36">
      <g>
       <use xlink:href="#m8573c8893f" x="273.451803" y="100.151379" style="stroke: #000000; stroke-width: 0.8"/>
      </g>
     </g>
    </g>
    <g id="ytick_11">
     <g id="line2d_37">
      <g>
       <use xlink:href="#m8573c8893f" x="273.451803" y="63.692262" style="stroke: #000000; stroke-width: 0.8"/>
      </g>
     </g>
    </g>
    <g id="ytick_12">
     <g id="line2d_38">
      <g>
       <use xlink:href="#m8573c8893f" x="273.451803" y="27.233144" style="stroke: #000000; stroke-width: 0.8"/>
      </g>
     </g>
    </g>
   </g>
   <g id="line2d_39">
    <path d="M 273.451803 209.528731 
L 497.882524 209.528731 
" clip-path="url(#p6d9df8f682)" style="fill: none; stroke-dasharray: 2.775,1.2; stroke-dashoffset: 0; stroke: #808080; stroke-opacity: 0.75; stroke-width: 0.75"/>
   </g>
   <g id="line2d_40">
    <path d="M 297.497951 218.64351 
L 297.497951 18.118365 
" clip-path="url(#p6d9df8f682)" style="fill: none; stroke-dasharray: 2.775,1.2; stroke-dashoffset: 0; stroke: #808080; stroke-opacity: 0.75; stroke-width: 0.75"/>
   </g>
   <g id="line2d_41">
    <path d="M 297.506218 209.528731 
L 298.940775 207.687361 
L 300.417161 205.845992 
L 301.931114 204.004622 
L 303.479433 202.163252 
L 305.055527 200.321883 
L 306.655259 198.480513 
L 308.273953 196.639144 
L 309.907002 194.797774 
L 311.552221 192.956405 
L 313.206756 191.115035 
L 314.868359 189.273666 
L 316.536553 187.432296 
L 318.208192 185.590926 
L 319.88139 183.749557 
L 321.556007 181.908187 
L 323.227896 180.066818 
L 324.896333 178.225448 
L 326.558952 176.384079 
L 328.215562 174.542709 
L 329.863611 172.701339 
L 331.504172 170.85997 
L 333.135698 169.0186 
L 334.760412 167.177231 
L 336.377487 165.335861 
L 337.989377 163.494492 
L 339.597854 161.653122 
L 341.203298 159.811753 
L 342.807968 157.970383 
L 344.412684 156.129013 
L 346.016526 154.287644 
L 347.620711 152.446274 
L 349.224061 150.604905 
L 350.827342 148.763535 
L 352.43017 146.922166 
L 354.032901 145.080796 
L 355.637894 143.239427 
L 357.244221 141.398057 
L 358.853071 139.556687 
L 360.463675 137.715318 
L 362.076122 135.873948 
L 363.688389 134.032579 
L 365.303215 132.191209 
L 366.917957 130.34984 
L 368.536063 128.50847 
L 370.158638 126.667101 
L 371.787779 124.825731 
L 373.426474 122.984361 
L 375.076273 121.142992 
L 376.73942 119.301622 
L 378.414598 117.460253 
L 380.10196 115.618883 
L 381.799254 113.777514 
L 383.505545 111.936144 
L 385.219639 110.094774 
L 386.940712 108.253405 
L 388.669239 106.412035 
L 390.40444 104.570666 
L 392.14546 102.729296 
L 393.892775 100.887927 
L 395.644316 99.046557 
L 397.397917 97.205188 
L 399.154663 95.363818 
L 400.911529 93.522448 
L 402.668866 91.681079 
L 404.42561 89.839709 
L 406.181732 87.99834 
L 407.934836 86.15697 
L 409.682342 84.315601 
L 411.42296 82.474231 
L 413.152065 80.632862 
L 414.866606 78.791492 
L 416.563301 76.950122 
L 418.240563 75.108753 
L 419.895662 73.267383 
L 421.527718 71.426014 
L 423.137157 69.584644 
L 424.724025 67.743275 
L 426.290342 65.901905 
L 427.838107 64.060536 
L 429.369553 62.219166 
L 430.890104 60.377796 
L 432.4055 58.536427 
L 433.921294 56.695057 
L 435.444596 54.853688 
L 436.981323 53.012318 
L 438.537764 51.170949 
L 440.117175 49.329579 
L 441.722572 47.488209 
L 443.358097 45.64684 
L 445.024097 43.80547 
L 446.722743 41.964101 
L 448.453038 40.122731 
L 450.214208 38.281362 
L 452.005894 36.439992 
L 453.824394 34.598623 
L 455.665956 32.757253 
L 457.525593 30.915883 
L 459.396948 29.074514 
L 461.269933 27.233144 
" clip-path="url(#p6d9df8f682)" style="fill: none; stroke-dasharray: 3.7,1.6; stroke-dashoffset: 0; stroke: #008000"/>
   </g>
   <g id="line2d_42">
    <path d="M 297.49379 209.528731 
L 299.223256 207.687361 
L 300.952446 205.845992 
L 302.681338 204.004622 
L 304.409824 202.163252 
L 306.136918 200.321883 
L 307.864671 198.480513 
L 309.591742 196.639144 
L 311.3178 194.797774 
L 313.044797 192.956405 
L 314.770134 191.115035 
L 316.496387 189.273666 
L 318.221255 187.432296 
L 319.947395 185.590926 
L 321.672677 183.749557 
L 323.398167 181.908187 
L 325.123497 180.066818 
L 326.848478 178.225448 
L 328.574434 176.384079 
L 330.300044 174.542709 
L 332.025875 172.701339 
L 333.751175 170.85997 
L 335.477337 169.0186 
L 337.203612 167.177231 
L 338.930407 165.335861 
L 340.657059 163.494492 
L 342.384055 161.653122 
L 344.111889 159.811753 
L 345.839806 157.970383 
L 347.568199 156.129013 
L 349.296544 154.287644 
L 351.026143 152.446274 
L 352.756242 150.604905 
L 354.486767 148.763535 
L 356.217051 146.922166 
L 357.948649 145.080796 
L 359.680503 143.239427 
L 361.413695 141.398057 
L 363.147158 139.556687 
L 364.880794 137.715318 
L 366.615729 135.873948 
L 368.351179 134.032579 
L 370.086684 132.191209 
L 371.824 130.34984 
L 373.561049 128.50847 
L 375.299532 126.667101 
L 377.038495 124.825731 
L 378.778577 122.984361 
L 380.518493 121.142992 
L 382.260147 119.301622 
L 384.002486 117.460253 
L 385.744863 115.618883 
L 387.488593 113.777514 
L 389.233385 111.936144 
L 390.97826 110.094774 
L 392.724552 108.253405 
L 394.471627 106.412035 
L 396.218686 104.570666 
L 397.967222 102.729296 
L 399.716339 100.887927 
L 401.46596 99.046557 
L 403.216712 97.205188 
L 404.967577 95.363818 
L 406.719977 93.522448 
L 408.473023 91.681079 
L 410.226739 89.839709 
L 411.98083 87.99834 
L 413.735554 86.15697 
L 415.491117 84.315601 
L 417.247433 82.474231 
L 419.003861 80.632862 
L 420.761228 78.791492 
L 422.519094 76.950122 
L 424.277375 75.108753 
L 426.036705 73.267383 
L 427.796297 71.426014 
L 429.556041 69.584644 
L 431.316823 67.743275 
L 433.077353 65.901905 
L 434.838049 64.060536 
L 436.599689 62.219166 
L 438.361689 60.377796 
L 440.124147 58.536427 
L 441.88688 56.695057 
L 443.648572 54.853688 
L 445.411255 53.012318 
L 447.174467 51.170949 
L 448.936862 49.329579 
L 450.700008 47.488209 
L 452.462781 45.64684 
L 454.225648 43.80547 
L 455.988688 41.964101 
L 457.750913 40.122731 
L 459.513296 38.281362 
L 461.275374 36.439992 
L 463.037146 34.598623 
L 464.797692 32.757253 
L 466.559251 30.915883 
L 468.319654 29.074514 
L 470.079025 27.233144 
" clip-path="url(#p6d9df8f682)" style="fill: none; stroke: #0000ff; stroke-width: 0.5; stroke-linecap: square"/>
   </g>
   <g id="line2d_43">
    <g clip-path="url(#p6d9df8f682)">
     <use xlink:href="#m70326c90e3" x="297.497951" y="209.528731" style="fill: #1f77b4; stroke: #1f77b4"/>
     <use xlink:href="#m70326c90e3" x="319.262851" y="186.342448" style="fill: #1f77b4; stroke: #1f77b4"/>
     <use xlink:href="#m70326c90e3" x="328.708651" y="175.674996" style="fill: #1f77b4; stroke: #1f77b4"/>
     <use xlink:href="#m70326c90e3" x="338.46421" y="164.684289" style="fill: #1f77b4; stroke: #1f77b4"/>
     <use xlink:href="#m70326c90e3" x="348.670587" y="154.340093" style="fill: #1f77b4; stroke: #1f77b4"/>
     <use xlink:href="#m70326c90e3" x="358.744764" y="143.143678" style="fill: #1f77b4; stroke: #1f77b4"/>
     <use xlink:href="#m70326c90e3" x="368.323099" y="132.91703" style="fill: #1f77b4; stroke: #1f77b4"/>
     <use xlink:href="#m70326c90e3" x="377.610058" y="123.483829" style="fill: #1f77b4; stroke: #1f77b4"/>
     <use xlink:href="#m70326c90e3" x="387.127387" y="113.080859" style="fill: #1f77b4; stroke: #1f77b4"/>
     <use xlink:href="#m70326c90e3" x="396.146826" y="104.6762" style="fill: #1f77b4; stroke: #1f77b4"/>
     <use xlink:href="#m70326c90e3" x="404.190348" y="95.419319" style="fill: #1f77b4; stroke: #1f77b4"/>
     <use xlink:href="#m70326c90e3" x="412.755864" y="87.102819" style="fill: #1f77b4; stroke: #1f77b4"/>
     <use xlink:href="#m70326c90e3" x="419.969832" y="79.168348" style="fill: #1f77b4; stroke: #1f77b4"/>
     <use xlink:href="#m70326c90e3" x="427.688747" y="71.116329" style="fill: #1f77b4; stroke: #1f77b4"/>
     <use xlink:href="#m70326c90e3" x="435.583388" y="63.798983" style="fill: #1f77b4; stroke: #1f77b4"/>
     <use xlink:href="#m70326c90e3" x="441.910726" y="57.039988" style="fill: #1f77b4; stroke: #1f77b4"/>
     <use xlink:href="#m70326c90e3" x="449.236317" y="49.957736" style="fill: #1f77b4; stroke: #1f77b4"/>
     <use xlink:href="#m70326c90e3" x="455.65965" y="43.698317" style="fill: #1f77b4; stroke: #1f77b4"/>
     <use xlink:href="#m70326c90e3" x="462.83161" y="37.203802" style="fill: #1f77b4; stroke: #1f77b4"/>
     <use xlink:href="#m70326c90e3" x="467.733055" y="31.179478" style="fill: #1f77b4; stroke: #1f77b4"/>
    </g>
   </g>
   <g id="line2d_44">
    <g clip-path="url(#p6d9df8f682)">
     <use xlink:href="#m82c9bc4290" x="311.473675" y="195.628716" style="fill: #ff7f0e; stroke: #ff7f0e"/>
     <use xlink:href="#m82c9bc4290" x="322.192889" y="185.931031" style="fill: #ff7f0e; stroke: #ff7f0e"/>
     <use xlink:href="#m82c9bc4290" x="330.449342" y="175.763157" style="fill: #ff7f0e; stroke: #ff7f0e"/>
     <use xlink:href="#m82c9bc4290" x="341.034062" y="164.09655" style="fill: #ff7f0e; stroke: #ff7f0e"/>
     <use xlink:href="#m82c9bc4290" x="351.794273" y="152.870747" style="fill: #ff7f0e; stroke: #ff7f0e"/>
     <use xlink:href="#m82c9bc4290" x="363.098875" y="141.703718" style="fill: #ff7f0e; stroke: #ff7f0e"/>
     <use xlink:href="#m82c9bc4290" x="373.233022" y="129.77263" style="fill: #ff7f0e; stroke: #ff7f0e"/>
     <use xlink:href="#m82c9bc4290" x="384.845814" y="117.870927" style="fill: #ff7f0e; stroke: #ff7f0e"/>
     <use xlink:href="#m82c9bc4290" x="395.865215" y="106.909606" style="fill: #ff7f0e; stroke: #ff7f0e"/>
     <use xlink:href="#m82c9bc4290" x="407.497754" y="95.713188" style="fill: #ff7f0e; stroke: #ff7f0e"/>
     <use xlink:href="#m82c9bc4290" x="417.733844" y="84.869412" style="fill: #ff7f0e; stroke: #ff7f0e"/>
     <use xlink:href="#m82c9bc4290" x="428.773077" y="73.731766" style="fill: #ff7f0e; stroke: #ff7f0e"/>
     <use xlink:href="#m82c9bc4290" x="439.035615" y="63.093697" style="fill: #ff7f0e; stroke: #ff7f0e"/>
     <use xlink:href="#m82c9bc4290" x="449.824164" y="52.543786" style="fill: #ff7f0e; stroke: #ff7f0e"/>
     <use xlink:href="#m82c9bc4290" x="459.899723" y="42.993031" style="fill: #ff7f0e; stroke: #ff7f0e"/>
     <use xlink:href="#m82c9bc4290" x="470.335866" y="32.32557" style="fill: #ff7f0e; stroke: #ff7f0e"/>
    </g>
   </g>
   <g id="line2d_45">
    <g clip-path="url(#p6d9df8f682)">
     <use xlink:href="#mb8a2fddd6d" x="316.516771" y="188.664015" style="fill: #2ca02c; stroke: #2ca02c"/>
     <use xlink:href="#mb8a2fddd6d" x="326.571353" y="178.613689" style="fill: #2ca02c; stroke: #2ca02c"/>
     <use xlink:href="#mb8a2fddd6d" x="337.212365" y="167.505433" style="fill: #2ca02c; stroke: #2ca02c"/>
     <use xlink:href="#mb8a2fddd6d" x="348.437274" y="156.485339" style="fill: #2ca02c; stroke: #2ca02c"/>
     <use xlink:href="#mb8a2fddd6d" x="357.742078" y="145.524018" style="fill: #2ca02c; stroke: #2ca02c"/>
     <use xlink:href="#mb8a2fddd6d" x="368.393568" y="134.533311" style="fill: #2ca02c; stroke: #2ca02c"/>
     <use xlink:href="#mb8a2fddd6d" x="379.965098" y="122.4259" style="fill: #2ca02c; stroke: #2ca02c"/>
     <use xlink:href="#mb8a2fddd6d" x="389.878196" y="110.906227" style="fill: #2ca02c; stroke: #2ca02c"/>
     <use xlink:href="#mb8a2fddd6d" x="401.002115" y="100.209387" style="fill: #2ca02c; stroke: #2ca02c"/>
     <use xlink:href="#mb8a2fddd6d" x="412.249915" y="88.748487" style="fill: #2ca02c; stroke: #2ca02c"/>
     <use xlink:href="#mb8a2fddd6d" x="423.500572" y="77.90471" style="fill: #2ca02c; stroke: #2ca02c"/>
     <use xlink:href="#mb8a2fddd6d" x="432.184949" y="67.002158" style="fill: #2ca02c; stroke: #2ca02c"/>
     <use xlink:href="#mb8a2fddd6d" x="445.020687" y="56.716731" style="fill: #2ca02c; stroke: #2ca02c"/>
     <use xlink:href="#mb8a2fddd6d" x="455.187085" y="46.108046" style="fill: #2ca02c; stroke: #2ca02c"/>
     <use xlink:href="#mb8a2fddd6d" x="464.481589" y="36.616063" style="fill: #2ca02c; stroke: #2ca02c"/>
    </g>
   </g>
   <g id="patch_11">
    <path d="M 273.451803 218.64351 
L 273.451803 18.118365 
" style="fill: none; stroke: #000000; stroke-width: 0.8; stroke-linejoin: miter; stroke-linecap: square"/>
   </g>
   <g id="patch_12">
    <path d="M 497.882524 218.64351 
L 497.882524 18.118365 
" style="fill: none; stroke: #000000; stroke-width: 0.8; stroke-linejoin: miter; stroke-linecap: square"/>
   </g>
   <g id="patch_13">
    <path d="M 273.451803 218.64351 
L 497.882524 218.64351 
" style="fill: none; stroke: #000000; stroke-width: 0.8; stroke-linejoin: miter; stroke-linecap: square"/>
   </g>
   <g id="patch_14">
    <path d="M 273.451803 18.118365 
L 497.882524 18.118365 
" style="fill: none; stroke: #000000; stroke-width: 0.8; stroke-linejoin: miter; stroke-linecap: square"/>
   </g>
   <g id="text_32">
    <!-- Predictions ($90^\circ$) -->
    <g transform="translate(333.767163 12.118365) scale(0.12 -0.12)">
     <use xlink:href="#DejaVuSans-50" transform="translate(0 0.015625)"/>
     <use xlink:href="#DejaVuSans-72" transform="translate(60.302734 0.015625)"/>
     <use xlink:href="#DejaVuSans-65" transform="translate(101.416016 0.015625)"/>
     <use xlink:href="#DejaVuSans-64" transform="translate(162.939453 0.015625)"/>
     <use xlink:href="#DejaVuSans-69" transform="translate(226.416016 0.015625)"/>
     <use xlink:href="#DejaVuSans-63" transform="translate(254.199219 0.015625)"/>
     <use xlink:href="#DejaVuSans-74" transform="translate(309.179688 0.015625)"/>
     <use xlink:href="#DejaVuSans-69" transform="translate(348.388672 0.015625)"/>
     <use xlink:href="#DejaVuSans-6f" transform="translate(376.171875 0.015625)"/>
     <use xlink:href="#DejaVuSans-6e" transform="translate(437.353516 0.015625)"/>
     <use xlink:href="#DejaVuSans-73" transform="translate(500.732422 0.015625)"/>
     <use xlink:href="#DejaVuSans-20" transform="translate(552.832031 0.015625)"/>
     <use xlink:href="#DejaVuSans-28" transform="translate(584.619141 0.015625)"/>
     <use xlink:href="#DejaVuSans-39" transform="translate(623.632812 0.015625)"/>
     <use xlink:href="#DejaVuSans-30" transform="translate(687.255859 0.015625)"/>
     <use xlink:href="#DejaVuSans-2218" transform="translate(765.473633 38.296875) scale(0.7)"/>
     <use xlink:href="#DejaVuSans-29" transform="translate(825.664062 0.015625)"/>
    </g>
   </g>
  </g>
 </g>
 <defs>
  <clipPath id="pbf0f46b6e2">
   <rect x="36.403365" y="18.118365" width="224.430721" height="200.525145"/>
  </clipPath>
  <clipPath id="p6d9df8f682">
   <rect x="273.451803" y="18.118365" width="224.430721" height="200.525145"/>
  </clipPath>
 </defs>
</svg>
