<?xml version="1.0" encoding="utf-8" standalone="no"?>
<!DOCTYPE svg PUBLIC "-//W3C//DTD SVG 1.1//EN"
  "http://www.w3.org/Graphics/SVG/1.1/DTD/svg11.dtd">
<svg xmlns:xlink="http://www.w3.org/1999/xlink" width="576pt" height="288pt" viewBox="0 0 576 288" xmlns="http://www.w3.org/2000/svg" version="1.1">
 <metadata>
  <rdf:RDF xmlns:dc="http://purl.org/dc/elements/1.1/" xmlns:cc="http://creativecommons.org/ns#" xmlns:rdf="http://www.w3.org/1999/02/22-rdf-syntax-ns#">
   <cc:Work>
    <dc:type rdf:resource="http://purl.org/dc/dcmitype/StillImage"/>
    <dc:date>2024-11-24T11:27:50.213943</dc:date>
    <dc:format>image/svg+xml</dc:format>
    <dc:creator>
     <cc:Agent>
      <dc:title>Matplotlib v3.9.2, https://matplotlib.org/</dc:title>
     </cc:Agent>
    </dc:creator>
   </cc:Work>
  </rdf:RDF>
 </metadata>
 <defs>
  <style type="text/css">*{stroke-linejoin: round; stroke-linecap: butt}</style>
 </defs>
 <g id="figure_1">
  <g id="patch_1">
   <path d="M 0 288 
L 576 288 
L 576 0 
L 0 0 
z
" style="fill: #ffffff"/>
  </g>
  <g id="axes_1">
   <g id="patch_2">
    <path d="M 44.203125 246.84375 
L 297.551562 246.84375 
L 297.551562 25.918125 
L 44.203125 25.918125 
z
" style="fill: #ffffff"/>
   </g>
   <g id="PolyCollection_1">
    <defs>
     <path id="m29ca2adc4b" d="M 57.615772 -51.198324 
L 57.458202 -51.198324 
L 57.553113 -53.227026 
L 57.662125 -55.255727 
L 57.78524 -57.284429 
L 57.922455 -59.313131 
L 58.073773 -61.341833 
L 58.239192 -63.370535 
L 58.418713 -65.399236 
L 58.612336 -67.427938 
L 58.820061 -69.45664 
L 59.041887 -71.485342 
L 59.277815 -73.514044 
L 59.527844 -75.542745 
L 59.791976 -77.571447 
L 60.070209 -79.600149 
L 60.362543 -81.628851 
L 60.66898 -83.657553 
L 60.989518 -85.686254 
L 61.324158 -87.714956 
L 61.6729 -89.743658 
L 62.035743 -91.77236 
L 62.412688 -93.801061 
L 62.803735 -95.829763 
L 63.208883 -97.858465 
L 63.628133 -99.887167 
L 64.061485 -101.915869 
L 64.508939 -103.94457 
L 64.970494 -105.973272 
L 65.446151 -108.001974 
L 65.93591 -110.030676 
L 66.43977 -112.059378 
L 66.957732 -114.088079 
L 67.489796 -116.116781 
L 68.035962 -118.145483 
L 68.596229 -120.174185 
L 69.170598 -122.202887 
L 69.759068 -124.231588 
L 70.361641 -126.26029 
L 70.978315 -128.288992 
L 71.609091 -130.317694 
L 72.253968 -132.346395 
L 72.912948 -134.375097 
L 73.586029 -136.403799 
L 74.273211 -138.432501 
L 74.974496 -140.461203 
L 75.689882 -142.489904 
L 76.41937 -144.518606 
L 77.162959 -146.547308 
L 77.92065 -148.57601 
L 78.692443 -150.604712 
L 79.478338 -152.633413 
L 80.278334 -154.662115 
L 81.092432 -156.690817 
L 81.920632 -158.719519 
L 82.762934 -160.748221 
L 83.616883 -162.776922 
L 84.480026 -164.805624 
L 85.352363 -166.834326 
L 86.233895 -168.863028 
L 87.12462 -170.89173 
L 88.024539 -172.920431 
L 88.933651 -174.949133 
L 89.851958 -176.977835 
L 90.789895 -179.006537 
L 91.7579 -181.035238 
L 92.755971 -183.06394 
L 93.784109 -185.092642 
L 94.842315 -187.121344 
L 95.930587 -189.150046 
L 97.048926 -191.178747 
L 98.197333 -193.207449 
L 99.365358 -195.236151 
L 100.542553 -197.264853 
L 101.728919 -199.293555 
L 102.924455 -201.322256 
L 104.129162 -203.350958 
L 105.343039 -205.37966 
L 106.566087 -207.408362 
L 107.798305 -209.437064 
L 109.020045 -211.465765 
L 110.211659 -213.494467 
L 111.373148 -215.523169 
L 112.50451 -217.551871 
L 113.605747 -219.580572 
L 114.676857 -221.609274 
L 115.717841 -223.637976 
L 116.7287 -225.666678 
L 117.737359 -227.69538 
L 118.771745 -229.724081 
L 119.831859 -231.752783 
L 120.9177 -233.781485 
L 122.029268 -235.810187 
L 123.166564 -237.838889 
L 124.329586 -239.86759 
L 125.518336 -241.896292 
L 126.732813 -243.924994 
L 127.973018 -245.953696 
L 129.23895 -247.982398 
L 130.530609 -250.011099 
L 131.847995 -252.039801 
L 181.39447 -252.039801 
L 181.39447 -252.039801 
L 179.984176 -250.011099 
L 178.630801 -247.982398 
L 177.334346 -245.953696 
L 176.094811 -243.924994 
L 174.912195 -241.896292 
L 173.786499 -239.86759 
L 172.717722 -237.838889 
L 171.705866 -235.810187 
L 170.750928 -233.781485 
L 169.852911 -231.752783 
L 169.011813 -229.724081 
L 168.227635 -227.69538 
L 167.500376 -225.666678 
L 166.830038 -223.637976 
L 166.216618 -221.609274 
L 165.620793 -219.580572 
L 165.003234 -217.551871 
L 164.363942 -215.523169 
L 163.702918 -213.494467 
L 163.020161 -211.465765 
L 162.315671 -209.437064 
L 161.589447 -207.408362 
L 160.841492 -205.37966 
L 160.055241 -203.350958 
L 159.214134 -201.322256 
L 158.318171 -199.293555 
L 157.367351 -197.264853 
L 156.361675 -195.236151 
L 155.301143 -193.207449 
L 154.185754 -191.178747 
L 153.015509 -189.150046 
L 151.816289 -187.121344 
L 150.613977 -185.092642 
L 149.408572 -183.06394 
L 148.200075 -181.035238 
L 146.988485 -179.006537 
L 145.773802 -176.977835 
L 144.556027 -174.949133 
L 143.335159 -172.920431 
L 142.124824 -170.89173 
L 140.938648 -168.863028 
L 139.77663 -166.834326 
L 138.63877 -164.805624 
L 137.525068 -162.776922 
L 136.435525 -160.748221 
L 135.37014 -158.719519 
L 134.328914 -156.690817 
L 133.288182 -154.662115 
L 132.224281 -152.633413 
L 131.13721 -150.604712 
L 130.026969 -148.57601 
L 128.893559 -146.547308 
L 127.73698 -144.518606 
L 126.557231 -142.489904 
L 125.354312 -140.461203 
L 124.134321 -138.432501 
L 122.903354 -136.403799 
L 121.661411 -134.375097 
L 120.408492 -132.346395 
L 119.144598 -130.317694 
L 117.869727 -128.288992 
L 116.583881 -126.26029 
L 115.287059 -124.231588 
L 114.079452 -122.202887 
L 113.06125 -120.174185 
L 112.232453 -118.145483 
L 111.593062 -116.116781 
L 111.143077 -114.088079 
L 110.882497 -112.059378 
L 110.811322 -110.030676 
L 110.929553 -108.001974 
L 111.154818 -105.973272 
L 111.404746 -103.94457 
L 111.679338 -101.915869 
L 111.978592 -99.887167 
L 112.30251 -97.858465 
L 112.651092 -95.829763 
L 113.024336 -93.801061 
L 113.422243 -91.77236 
L 113.71122 -89.743658 
L 113.75767 -87.714956 
L 113.561595 -85.686254 
L 113.122994 -83.657553 
L 112.441867 -81.628851 
L 111.518214 -79.600149 
L 110.352036 -77.571447 
L 108.943332 -75.542745 
L 107.184421 -73.514044 
L 104.967622 -71.485342 
L 102.292934 -69.45664 
L 99.160358 -67.427938 
L 95.569894 -65.399236 
L 91.521541 -63.370535 
L 87.0153 -61.341833 
L 82.051171 -59.313131 
L 76.629154 -57.284429 
L 70.749248 -55.255727 
L 64.411454 -53.227026 
L 57.615772 -51.198324 
z
" style="stroke: #90ee90; stroke-opacity: 0.75"/>
    </defs>
    <g clip-path="url(#pf2e14fd912)">
     <use xlink:href="#m29ca2adc4b" x="0" y="288" style="fill: #90ee90; fill-opacity: 0.75; stroke: #90ee90; stroke-opacity: 0.75"/>
    </g>
   </g>
   <g id="PolyCollection_2">
    <defs>
     <path id="m243dc8a2f7" d="M 57.622925 -51.198324 
L 57.470464 -51.198324 
L 58.235535 -53.227026 
L 58.969192 -55.255727 
L 59.704903 -57.284429 
L 60.451111 -59.313131 
L 61.197514 -61.341833 
L 61.951166 -63.370535 
L 62.716514 -65.399236 
L 63.501377 -67.427938 
L 64.277926 -69.45664 
L 65.084978 -71.485342 
L 65.881545 -73.514044 
L 66.696466 -75.542745 
L 67.508533 -77.571447 
L 68.330246 -79.600149 
L 69.179255 -81.628851 
L 70.012527 -83.657553 
L 70.867397 -85.686254 
L 71.734182 -87.714956 
L 72.608625 -89.743658 
L 73.47454 -91.77236 
L 74.361643 -93.801061 
L 75.260401 -95.829763 
L 76.159242 -97.858465 
L 77.070011 -99.887167 
L 77.986506 -101.915869 
L 78.928458 -103.94457 
L 79.856934 -105.973272 
L 80.793337 -108.001974 
L 81.770784 -110.030676 
L 82.71047 -112.059378 
L 83.674489 -114.088079 
L 84.633719 -116.116781 
L 85.585207 -118.145483 
L 86.550551 -120.174185 
L 87.532419 -122.202887 
L 88.506689 -124.231588 
L 89.479498 -126.26029 
L 90.447674 -128.288992 
L 91.424216 -130.317694 
L 92.41445 -132.346395 
L 93.412769 -134.375097 
L 94.393883 -136.403799 
L 95.363559 -138.432501 
L 96.357568 -140.461203 
L 97.353224 -142.489904 
L 98.334849 -144.518606 
L 99.32818 -146.547308 
L 100.296268 -148.57601 
L 101.28735 -150.604712 
L 102.274882 -152.633413 
L 103.259087 -154.662115 
L 104.246599 -156.690817 
L 105.215967 -158.719519 
L 106.183236 -160.748221 
L 107.184075 -162.776922 
L 108.158089 -164.805624 
L 109.133583 -166.834326 
L 110.116989 -168.863028 
L 111.062723 -170.89173 
L 112.021547 -172.920431 
L 112.97392 -174.949133 
L 113.934446 -176.977835 
L 114.892872 -179.006537 
L 115.86669 -181.035238 
L 116.808011 -183.06394 
L 117.76718 -185.092642 
L 118.731783 -187.121344 
L 119.703843 -189.150046 
L 120.660573 -191.178747 
L 121.624996 -193.207449 
L 122.600366 -195.236151 
L 123.56034 -197.264853 
L 124.525906 -199.293555 
L 125.500419 -201.322256 
L 126.48529 -203.350958 
L 127.425042 -205.37966 
L 128.404909 -207.408362 
L 129.367856 -209.437064 
L 130.330477 -211.465765 
L 131.307651 -213.494467 
L 132.305383 -215.523169 
L 133.284761 -217.551871 
L 134.247744 -219.580572 
L 135.242947 -221.609274 
L 136.235386 -223.637976 
L 137.204856 -225.666678 
L 138.170178 -227.69538 
L 139.157393 -229.724081 
L 140.158893 -231.752783 
L 141.142147 -233.781485 
L 142.160718 -235.810187 
L 143.184751 -237.838889 
L 144.226806 -239.86759 
L 145.236489 -241.896292 
L 146.259941 -243.924994 
L 147.280881 -245.953696 
L 148.288665 -247.982398 
L 149.311125 -250.011099 
L 150.353888 -252.039801 
L 161.480891 -252.039801 
L 161.480891 -252.039801 
L 160.207104 -250.011099 
L 158.989776 -247.982398 
L 157.739362 -245.953696 
L 156.478524 -243.924994 
L 155.279744 -241.896292 
L 154.115439 -239.86759 
L 152.946188 -237.838889 
L 151.771402 -235.810187 
L 150.604947 -233.781485 
L 149.442849 -231.752783 
L 148.306743 -229.724081 
L 147.171377 -227.69538 
L 146.057859 -225.666678 
L 144.93494 -223.637976 
L 143.793973 -221.609274 
L 142.662973 -219.580572 
L 141.574044 -217.551871 
L 140.487805 -215.523169 
L 139.418771 -213.494467 
L 138.320828 -211.465765 
L 137.255675 -209.437064 
L 136.173278 -207.408362 
L 135.098174 -205.37966 
L 134.044519 -203.350958 
L 132.959579 -201.322256 
L 131.882413 -199.293555 
L 130.800858 -197.264853 
L 129.729616 -195.236151 
L 128.66781 -193.207449 
L 127.578959 -191.178747 
L 126.506011 -189.150046 
L 125.443144 -187.121344 
L 124.390788 -185.092642 
L 123.322561 -183.06394 
L 122.284085 -181.035238 
L 121.221443 -179.006537 
L 120.159876 -176.977835 
L 119.108809 -174.949133 
L 118.056326 -172.920431 
L 117.000247 -170.89173 
L 115.917225 -168.863028 
L 114.85013 -166.834326 
L 113.787022 -164.805624 
L 112.726352 -162.776922 
L 111.651468 -160.748221 
L 110.608008 -158.719519 
L 109.584351 -156.690817 
L 108.541419 -154.662115 
L 107.492936 -152.633413 
L 106.476392 -150.604712 
L 105.437343 -148.57601 
L 104.385891 -146.547308 
L 103.348114 -144.518606 
L 102.325726 -142.489904 
L 101.310728 -140.461203 
L 100.266713 -138.432501 
L 99.240315 -136.403799 
L 98.215631 -134.375097 
L 97.211768 -132.346395 
L 96.175957 -130.317694 
L 95.153059 -128.288992 
L 94.160353 -126.26029 
L 93.132073 -124.231588 
L 92.095883 -122.202887 
L 91.067867 -120.174185 
L 90.06327 -118.145483 
L 89.044582 -116.116781 
L 88.02793 -114.088079 
L 87.04203 -112.059378 
L 86.023162 -110.030676 
L 85.016726 -108.001974 
L 84.036636 -105.973272 
L 83.035177 -103.94457 
L 82.029618 -101.915869 
L 81.064312 -99.887167 
L 80.049723 -97.858465 
L 79.056876 -95.829763 
L 78.043351 -93.801061 
L 77.073924 -91.77236 
L 76.070757 -89.743658 
L 75.07787 -87.714956 
L 74.120486 -85.686254 
L 73.134908 -83.657553 
L 72.145223 -81.628851 
L 71.175936 -79.600149 
L 70.187946 -77.571447 
L 69.202607 -75.542745 
L 68.236832 -73.514044 
L 67.279781 -71.485342 
L 66.298136 -69.45664 
L 65.322402 -67.427938 
L 64.348198 -65.399236 
L 63.378881 -63.370535 
L 62.413941 -61.341833 
L 61.44373 -59.313131 
L 60.480106 -57.284429 
L 59.50448 -55.255727 
L 58.540807 -53.227026 
L 57.622925 -51.198324 
z
" style="stroke: #6495ed; stroke-opacity: 0.75"/>
    </defs>
    <g clip-path="url(#pf2e14fd912)">
     <use xlink:href="#m243dc8a2f7" x="0" y="288" style="fill: #6495ed; fill-opacity: 0.75; stroke: #6495ed; stroke-opacity: 0.75"/>
    </g>
   </g>
   <g id="matplotlib.axis_1">
    <g id="xtick_1">
     <g id="line2d_1">
      <defs>
       <path id="mfe02fcbbeb" d="M 0 0 
L 0 3.5 
" style="stroke: #000000; stroke-width: 0.8"/>
      </defs>
      <g>
       <use xlink:href="#mfe02fcbbeb" x="57.537253" y="246.84375" style="stroke: #000000; stroke-width: 0.8"/>
      </g>
     </g>
     <g id="text_1">
      <!-- 0.00 -->
      <g transform="translate(46.404441 261.442187) scale(0.1 -0.1)">
       <defs>
        <path id="DejaVuSans-30" d="M 2034 4250 
Q 1547 4250 1301 3770 
Q 1056 3291 1056 2328 
Q 1056 1369 1301 889 
Q 1547 409 2034 409 
Q 2525 409 2770 889 
Q 3016 1369 3016 2328 
Q 3016 3291 2770 3770 
Q 2525 4250 2034 4250 
z
M 2034 4750 
Q 2819 4750 3233 4129 
Q 3647 3509 3647 2328 
Q 3647 1150 3233 529 
Q 2819 -91 2034 -91 
Q 1250 -91 836 529 
Q 422 1150 422 2328 
Q 422 3509 836 4129 
Q 1250 4750 2034 4750 
z
" transform="scale(0.015625)"/>
        <path id="DejaVuSans-2e" d="M 684 794 
L 1344 794 
L 1344 0 
L 684 0 
L 684 794 
z
" transform="scale(0.015625)"/>
       </defs>
       <use xlink:href="#DejaVuSans-30"/>
       <use xlink:href="#DejaVuSans-2e" x="63.623047"/>
       <use xlink:href="#DejaVuSans-30" x="95.410156"/>
       <use xlink:href="#DejaVuSans-30" x="159.033203"/>
      </g>
     </g>
    </g>
    <g id="xtick_2">
     <g id="line2d_2">
      <g>
       <use xlink:href="#mfe02fcbbeb" x="110.873766" y="246.84375" style="stroke: #000000; stroke-width: 0.8"/>
      </g>
     </g>
     <g id="text_2">
      <!-- 0.02 -->
      <g transform="translate(99.740954 261.442187) scale(0.1 -0.1)">
       <defs>
        <path id="DejaVuSans-32" d="M 1228 531 
L 3431 531 
L 3431 0 
L 469 0 
L 469 531 
Q 828 903 1448 1529 
Q 2069 2156 2228 2338 
Q 2531 2678 2651 2914 
Q 2772 3150 2772 3378 
Q 2772 3750 2511 3984 
Q 2250 4219 1831 4219 
Q 1534 4219 1204 4116 
Q 875 4013 500 3803 
L 500 4441 
Q 881 4594 1212 4672 
Q 1544 4750 1819 4750 
Q 2544 4750 2975 4387 
Q 3406 4025 3406 3419 
Q 3406 3131 3298 2873 
Q 3191 2616 2906 2266 
Q 2828 2175 2409 1742 
Q 1991 1309 1228 531 
z
" transform="scale(0.015625)"/>
       </defs>
       <use xlink:href="#DejaVuSans-30"/>
       <use xlink:href="#DejaVuSans-2e" x="63.623047"/>
       <use xlink:href="#DejaVuSans-30" x="95.410156"/>
       <use xlink:href="#DejaVuSans-32" x="159.033203"/>
      </g>
     </g>
    </g>
    <g id="xtick_3">
     <g id="line2d_3">
      <g>
       <use xlink:href="#mfe02fcbbeb" x="164.21028" y="246.84375" style="stroke: #000000; stroke-width: 0.8"/>
      </g>
     </g>
     <g id="text_3">
      <!-- 0.04 -->
      <g transform="translate(153.077467 261.442187) scale(0.1 -0.1)">
       <defs>
        <path id="DejaVuSans-34" d="M 2419 4116 
L 825 1625 
L 2419 1625 
L 2419 4116 
z
M 2253 4666 
L 3047 4666 
L 3047 1625 
L 3713 1625 
L 3713 1100 
L 3047 1100 
L 3047 0 
L 2419 0 
L 2419 1100 
L 313 1100 
L 313 1709 
L 2253 4666 
z
" transform="scale(0.015625)"/>
       </defs>
       <use xlink:href="#DejaVuSans-30"/>
       <use xlink:href="#DejaVuSans-2e" x="63.623047"/>
       <use xlink:href="#DejaVuSans-30" x="95.410156"/>
       <use xlink:href="#DejaVuSans-34" x="159.033203"/>
      </g>
     </g>
    </g>
    <g id="xtick_4">
     <g id="line2d_4">
      <g>
       <use xlink:href="#mfe02fcbbeb" x="217.546793" y="246.84375" style="stroke: #000000; stroke-width: 0.8"/>
      </g>
     </g>
     <g id="text_4">
      <!-- 0.06 -->
      <g transform="translate(206.41398 261.442187) scale(0.1 -0.1)">
       <defs>
        <path id="DejaVuSans-36" d="M 2113 2584 
Q 1688 2584 1439 2293 
Q 1191 2003 1191 1497 
Q 1191 994 1439 701 
Q 1688 409 2113 409 
Q 2538 409 2786 701 
Q 3034 994 3034 1497 
Q 3034 2003 2786 2293 
Q 2538 2584 2113 2584 
z
M 3366 4563 
L 3366 3988 
Q 3128 4100 2886 4159 
Q 2644 4219 2406 4219 
Q 1781 4219 1451 3797 
Q 1122 3375 1075 2522 
Q 1259 2794 1537 2939 
Q 1816 3084 2150 3084 
Q 2853 3084 3261 2657 
Q 3669 2231 3669 1497 
Q 3669 778 3244 343 
Q 2819 -91 2113 -91 
Q 1303 -91 875 529 
Q 447 1150 447 2328 
Q 447 3434 972 4092 
Q 1497 4750 2381 4750 
Q 2619 4750 2861 4703 
Q 3103 4656 3366 4563 
z
" transform="scale(0.015625)"/>
       </defs>
       <use xlink:href="#DejaVuSans-30"/>
       <use xlink:href="#DejaVuSans-2e" x="63.623047"/>
       <use xlink:href="#DejaVuSans-30" x="95.410156"/>
       <use xlink:href="#DejaVuSans-36" x="159.033203"/>
      </g>
     </g>
    </g>
    <g id="xtick_5">
     <g id="line2d_5">
      <g>
       <use xlink:href="#mfe02fcbbeb" x="270.883306" y="246.84375" style="stroke: #000000; stroke-width: 0.8"/>
      </g>
     </g>
     <g id="text_5">
      <!-- 0.08 -->
      <g transform="translate(259.750493 261.442187) scale(0.1 -0.1)">
       <defs>
        <path id="DejaVuSans-38" d="M 2034 2216 
Q 1584 2216 1326 1975 
Q 1069 1734 1069 1313 
Q 1069 891 1326 650 
Q 1584 409 2034 409 
Q 2484 409 2743 651 
Q 3003 894 3003 1313 
Q 3003 1734 2745 1975 
Q 2488 2216 2034 2216 
z
M 1403 2484 
Q 997 2584 770 2862 
Q 544 3141 544 3541 
Q 544 4100 942 4425 
Q 1341 4750 2034 4750 
Q 2731 4750 3128 4425 
Q 3525 4100 3525 3541 
Q 3525 3141 3298 2862 
Q 3072 2584 2669 2484 
Q 3125 2378 3379 2068 
Q 3634 1759 3634 1313 
Q 3634 634 3220 271 
Q 2806 -91 2034 -91 
Q 1263 -91 848 271 
Q 434 634 434 1313 
Q 434 1759 690 2068 
Q 947 2378 1403 2484 
z
M 1172 3481 
Q 1172 3119 1398 2916 
Q 1625 2713 2034 2713 
Q 2441 2713 2670 2916 
Q 2900 3119 2900 3481 
Q 2900 3844 2670 4047 
Q 2441 4250 2034 4250 
Q 1625 4250 1398 4047 
Q 1172 3844 1172 3481 
z
" transform="scale(0.015625)"/>
       </defs>
       <use xlink:href="#DejaVuSans-30"/>
       <use xlink:href="#DejaVuSans-2e" x="63.623047"/>
       <use xlink:href="#DejaVuSans-30" x="95.410156"/>
       <use xlink:href="#DejaVuSans-38" x="159.033203"/>
      </g>
     </g>
    </g>
    <g id="text_6">
     <!-- Normal Extension [mm] -->
     <g transform="translate(111.419531 275.120313) scale(0.1 -0.1)">
      <defs>
       <path id="DejaVuSans-4e" d="M 628 4666 
L 1478 4666 
L 3547 763 
L 3547 4666 
L 4159 4666 
L 4159 0 
L 3309 0 
L 1241 3903 
L 1241 0 
L 628 0 
L 628 4666 
z
" transform="scale(0.015625)"/>
       <path id="DejaVuSans-6f" d="M 1959 3097 
Q 1497 3097 1228 2736 
Q 959 2375 959 1747 
Q 959 1119 1226 758 
Q 1494 397 1959 397 
Q 2419 397 2687 759 
Q 2956 1122 2956 1747 
Q 2956 2369 2687 2733 
Q 2419 3097 1959 3097 
z
M 1959 3584 
Q 2709 3584 3137 3096 
Q 3566 2609 3566 1747 
Q 3566 888 3137 398 
Q 2709 -91 1959 -91 
Q 1206 -91 779 398 
Q 353 888 353 1747 
Q 353 2609 779 3096 
Q 1206 3584 1959 3584 
z
" transform="scale(0.015625)"/>
       <path id="DejaVuSans-72" d="M 2631 2963 
Q 2534 3019 2420 3045 
Q 2306 3072 2169 3072 
Q 1681 3072 1420 2755 
Q 1159 2438 1159 1844 
L 1159 0 
L 581 0 
L 581 3500 
L 1159 3500 
L 1159 2956 
Q 1341 3275 1631 3429 
Q 1922 3584 2338 3584 
Q 2397 3584 2469 3576 
Q 2541 3569 2628 3553 
L 2631 2963 
z
" transform="scale(0.015625)"/>
       <path id="DejaVuSans-6d" d="M 3328 2828 
Q 3544 3216 3844 3400 
Q 4144 3584 4550 3584 
Q 5097 3584 5394 3201 
Q 5691 2819 5691 2113 
L 5691 0 
L 5113 0 
L 5113 2094 
Q 5113 2597 4934 2840 
Q 4756 3084 4391 3084 
Q 3944 3084 3684 2787 
Q 3425 2491 3425 1978 
L 3425 0 
L 2847 0 
L 2847 2094 
Q 2847 2600 2669 2842 
Q 2491 3084 2119 3084 
Q 1678 3084 1418 2786 
Q 1159 2488 1159 1978 
L 1159 0 
L 581 0 
L 581 3500 
L 1159 3500 
L 1159 2956 
Q 1356 3278 1631 3431 
Q 1906 3584 2284 3584 
Q 2666 3584 2933 3390 
Q 3200 3197 3328 2828 
z
" transform="scale(0.015625)"/>
       <path id="DejaVuSans-61" d="M 2194 1759 
Q 1497 1759 1228 1600 
Q 959 1441 959 1056 
Q 959 750 1161 570 
Q 1363 391 1709 391 
Q 2188 391 2477 730 
Q 2766 1069 2766 1631 
L 2766 1759 
L 2194 1759 
z
M 3341 1997 
L 3341 0 
L 2766 0 
L 2766 531 
Q 2569 213 2275 61 
Q 1981 -91 1556 -91 
Q 1019 -91 701 211 
Q 384 513 384 1019 
Q 384 1609 779 1909 
Q 1175 2209 1959 2209 
L 2766 2209 
L 2766 2266 
Q 2766 2663 2505 2880 
Q 2244 3097 1772 3097 
Q 1472 3097 1187 3025 
Q 903 2953 641 2809 
L 641 3341 
Q 956 3463 1253 3523 
Q 1550 3584 1831 3584 
Q 2591 3584 2966 3190 
Q 3341 2797 3341 1997 
z
" transform="scale(0.015625)"/>
       <path id="DejaVuSans-6c" d="M 603 4863 
L 1178 4863 
L 1178 0 
L 603 0 
L 603 4863 
z
" transform="scale(0.015625)"/>
       <path id="DejaVuSans-20" transform="scale(0.015625)"/>
       <path id="DejaVuSans-45" d="M 628 4666 
L 3578 4666 
L 3578 4134 
L 1259 4134 
L 1259 2753 
L 3481 2753 
L 3481 2222 
L 1259 2222 
L 1259 531 
L 3634 531 
L 3634 0 
L 628 0 
L 628 4666 
z
" transform="scale(0.015625)"/>
       <path id="DejaVuSans-78" d="M 3513 3500 
L 2247 1797 
L 3578 0 
L 2900 0 
L 1881 1375 
L 863 0 
L 184 0 
L 1544 1831 
L 300 3500 
L 978 3500 
L 1906 2253 
L 2834 3500 
L 3513 3500 
z
" transform="scale(0.015625)"/>
       <path id="DejaVuSans-74" d="M 1172 4494 
L 1172 3500 
L 2356 3500 
L 2356 3053 
L 1172 3053 
L 1172 1153 
Q 1172 725 1289 603 
Q 1406 481 1766 481 
L 2356 481 
L 2356 0 
L 1766 0 
Q 1100 0 847 248 
Q 594 497 594 1153 
L 594 3053 
L 172 3053 
L 172 3500 
L 594 3500 
L 594 4494 
L 1172 4494 
z
" transform="scale(0.015625)"/>
       <path id="DejaVuSans-65" d="M 3597 1894 
L 3597 1613 
L 953 1613 
Q 991 1019 1311 708 
Q 1631 397 2203 397 
Q 2534 397 2845 478 
Q 3156 559 3463 722 
L 3463 178 
Q 3153 47 2828 -22 
Q 2503 -91 2169 -91 
Q 1331 -91 842 396 
Q 353 884 353 1716 
Q 353 2575 817 3079 
Q 1281 3584 2069 3584 
Q 2775 3584 3186 3129 
Q 3597 2675 3597 1894 
z
M 3022 2063 
Q 3016 2534 2758 2815 
Q 2500 3097 2075 3097 
Q 1594 3097 1305 2825 
Q 1016 2553 972 2059 
L 3022 2063 
z
" transform="scale(0.015625)"/>
       <path id="DejaVuSans-6e" d="M 3513 2113 
L 3513 0 
L 2938 0 
L 2938 2094 
Q 2938 2591 2744 2837 
Q 2550 3084 2163 3084 
Q 1697 3084 1428 2787 
Q 1159 2491 1159 1978 
L 1159 0 
L 581 0 
L 581 3500 
L 1159 3500 
L 1159 2956 
Q 1366 3272 1645 3428 
Q 1925 3584 2291 3584 
Q 2894 3584 3203 3211 
Q 3513 2838 3513 2113 
z
" transform="scale(0.015625)"/>
       <path id="DejaVuSans-73" d="M 2834 3397 
L 2834 2853 
Q 2591 2978 2328 3040 
Q 2066 3103 1784 3103 
Q 1356 3103 1142 2972 
Q 928 2841 928 2578 
Q 928 2378 1081 2264 
Q 1234 2150 1697 2047 
L 1894 2003 
Q 2506 1872 2764 1633 
Q 3022 1394 3022 966 
Q 3022 478 2636 193 
Q 2250 -91 1575 -91 
Q 1294 -91 989 -36 
Q 684 19 347 128 
L 347 722 
Q 666 556 975 473 
Q 1284 391 1588 391 
Q 1994 391 2212 530 
Q 2431 669 2431 922 
Q 2431 1156 2273 1281 
Q 2116 1406 1581 1522 
L 1381 1569 
Q 847 1681 609 1914 
Q 372 2147 372 2553 
Q 372 3047 722 3315 
Q 1072 3584 1716 3584 
Q 2034 3584 2315 3537 
Q 2597 3491 2834 3397 
z
" transform="scale(0.015625)"/>
       <path id="DejaVuSans-69" d="M 603 3500 
L 1178 3500 
L 1178 0 
L 603 0 
L 603 3500 
z
M 603 4863 
L 1178 4863 
L 1178 4134 
L 603 4134 
L 603 4863 
z
" transform="scale(0.015625)"/>
       <path id="DejaVuSans-5b" d="M 550 4863 
L 1875 4863 
L 1875 4416 
L 1125 4416 
L 1125 -397 
L 1875 -397 
L 1875 -844 
L 550 -844 
L 550 4863 
z
" transform="scale(0.015625)"/>
       <path id="DejaVuSans-5d" d="M 1947 4863 
L 1947 -844 
L 622 -844 
L 622 -397 
L 1369 -397 
L 1369 4416 
L 622 4416 
L 622 4863 
L 1947 4863 
z
" transform="scale(0.015625)"/>
      </defs>
      <use xlink:href="#DejaVuSans-4e"/>
      <use xlink:href="#DejaVuSans-6f" x="74.804688"/>
      <use xlink:href="#DejaVuSans-72" x="135.986328"/>
      <use xlink:href="#DejaVuSans-6d" x="175.349609"/>
      <use xlink:href="#DejaVuSans-61" x="272.761719"/>
      <use xlink:href="#DejaVuSans-6c" x="334.041016"/>
      <use xlink:href="#DejaVuSans-20" x="361.824219"/>
      <use xlink:href="#DejaVuSans-45" x="393.611328"/>
      <use xlink:href="#DejaVuSans-78" x="456.794922"/>
      <use xlink:href="#DejaVuSans-74" x="515.974609"/>
      <use xlink:href="#DejaVuSans-65" x="555.183594"/>
      <use xlink:href="#DejaVuSans-6e" x="616.707031"/>
      <use xlink:href="#DejaVuSans-73" x="680.085938"/>
      <use xlink:href="#DejaVuSans-69" x="732.185547"/>
      <use xlink:href="#DejaVuSans-6f" x="759.96875"/>
      <use xlink:href="#DejaVuSans-6e" x="821.150391"/>
      <use xlink:href="#DejaVuSans-20" x="884.529297"/>
      <use xlink:href="#DejaVuSans-5b" x="916.316406"/>
      <use xlink:href="#DejaVuSans-6d" x="955.330078"/>
      <use xlink:href="#DejaVuSans-6d" x="1052.742188"/>
      <use xlink:href="#DejaVuSans-5d" x="1150.154297"/>
     </g>
    </g>
   </g>
   <g id="matplotlib.axis_2">
    <g id="ytick_1">
     <g id="line2d_6">
      <defs>
       <path id="ma3bd98abc7" d="M 0 0 
L -3.5 0 
" style="stroke: #000000; stroke-width: 0.8"/>
      </defs>
      <g>
       <use xlink:href="#ma3bd98abc7" x="44.203125" y="236.801676" style="stroke: #000000; stroke-width: 0.8"/>
      </g>
     </g>
     <g id="text_7">
      <!-- 0 -->
      <g transform="translate(30.840625 240.600895) scale(0.1 -0.1)">
       <use xlink:href="#DejaVuSans-30"/>
      </g>
     </g>
    </g>
    <g id="ytick_2">
     <g id="line2d_7">
      <g>
       <use xlink:href="#ma3bd98abc7" x="44.203125" y="196.633381" style="stroke: #000000; stroke-width: 0.8"/>
      </g>
     </g>
     <g id="text_8">
      <!-- 2 -->
      <g transform="translate(30.840625 200.432599) scale(0.1 -0.1)">
       <use xlink:href="#DejaVuSans-32"/>
      </g>
     </g>
    </g>
    <g id="ytick_3">
     <g id="line2d_8">
      <g>
       <use xlink:href="#ma3bd98abc7" x="44.203125" y="156.465085" style="stroke: #000000; stroke-width: 0.8"/>
      </g>
     </g>
     <g id="text_9">
      <!-- 4 -->
      <g transform="translate(30.840625 160.264304) scale(0.1 -0.1)">
       <use xlink:href="#DejaVuSans-34"/>
      </g>
     </g>
    </g>
    <g id="ytick_4">
     <g id="line2d_9">
      <g>
       <use xlink:href="#ma3bd98abc7" x="44.203125" y="116.29679" style="stroke: #000000; stroke-width: 0.8"/>
      </g>
     </g>
     <g id="text_10">
      <!-- 6 -->
      <g transform="translate(30.840625 120.096009) scale(0.1 -0.1)">
       <use xlink:href="#DejaVuSans-36"/>
      </g>
     </g>
    </g>
    <g id="ytick_5">
     <g id="line2d_10">
      <g>
       <use xlink:href="#ma3bd98abc7" x="44.203125" y="76.128494" style="stroke: #000000; stroke-width: 0.8"/>
      </g>
     </g>
     <g id="text_11">
      <!-- 8 -->
      <g transform="translate(30.840625 79.927713) scale(0.1 -0.1)">
       <use xlink:href="#DejaVuSans-38"/>
      </g>
     </g>
    </g>
    <g id="ytick_6">
     <g id="line2d_11">
      <g>
       <use xlink:href="#ma3bd98abc7" x="44.203125" y="35.960199" style="stroke: #000000; stroke-width: 0.8"/>
      </g>
     </g>
     <g id="text_12">
      <!-- 10 -->
      <g transform="translate(24.478125 39.759418) scale(0.1 -0.1)">
       <defs>
        <path id="DejaVuSans-31" d="M 794 531 
L 1825 531 
L 1825 4091 
L 703 3866 
L 703 4441 
L 1819 4666 
L 2450 4666 
L 2450 531 
L 3481 531 
L 3481 0 
L 794 0 
L 794 531 
z
" transform="scale(0.015625)"/>
       </defs>
       <use xlink:href="#DejaVuSans-31"/>
       <use xlink:href="#DejaVuSans-30" x="63.623047"/>
      </g>
     </g>
    </g>
    <g id="text_13">
     <!-- Load [kN] -->
     <g transform="translate(18.398438 160.503594) rotate(-90) scale(0.1 -0.1)">
      <defs>
       <path id="DejaVuSans-4c" d="M 628 4666 
L 1259 4666 
L 1259 531 
L 3531 531 
L 3531 0 
L 628 0 
L 628 4666 
z
" transform="scale(0.015625)"/>
       <path id="DejaVuSans-64" d="M 2906 2969 
L 2906 4863 
L 3481 4863 
L 3481 0 
L 2906 0 
L 2906 525 
Q 2725 213 2448 61 
Q 2172 -91 1784 -91 
Q 1150 -91 751 415 
Q 353 922 353 1747 
Q 353 2572 751 3078 
Q 1150 3584 1784 3584 
Q 2172 3584 2448 3432 
Q 2725 3281 2906 2969 
z
M 947 1747 
Q 947 1113 1208 752 
Q 1469 391 1925 391 
Q 2381 391 2643 752 
Q 2906 1113 2906 1747 
Q 2906 2381 2643 2742 
Q 2381 3103 1925 3103 
Q 1469 3103 1208 2742 
Q 947 2381 947 1747 
z
" transform="scale(0.015625)"/>
       <path id="DejaVuSans-6b" d="M 581 4863 
L 1159 4863 
L 1159 1991 
L 2875 3500 
L 3609 3500 
L 1753 1863 
L 3688 0 
L 2938 0 
L 1159 1709 
L 1159 0 
L 581 0 
L 581 4863 
z
" transform="scale(0.015625)"/>
      </defs>
      <use xlink:href="#DejaVuSans-4c"/>
      <use xlink:href="#DejaVuSans-6f" x="53.962891"/>
      <use xlink:href="#DejaVuSans-61" x="115.144531"/>
      <use xlink:href="#DejaVuSans-64" x="176.423828"/>
      <use xlink:href="#DejaVuSans-20" x="239.900391"/>
      <use xlink:href="#DejaVuSans-5b" x="271.6875"/>
      <use xlink:href="#DejaVuSans-6b" x="310.701172"/>
      <use xlink:href="#DejaVuSans-4e" x="368.611328"/>
      <use xlink:href="#DejaVuSans-5d" x="443.416016"/>
     </g>
    </g>
   </g>
   <g id="line2d_12">
    <path d="M 44.203125 236.801676 
L 297.551562 236.801676 
" clip-path="url(#pf2e14fd912)" style="fill: none; stroke-dasharray: 2.775,1.2; stroke-dashoffset: 0; stroke: #808080; stroke-opacity: 0.75; stroke-width: 0.75"/>
   </g>
   <g id="line2d_13">
    <path d="M 57.537253 246.84375 
L 57.537253 25.918125 
" clip-path="url(#pf2e14fd912)" style="fill: none; stroke-dasharray: 2.775,1.2; stroke-dashoffset: 0; stroke: #808080; stroke-opacity: 0.75; stroke-width: 0.75"/>
   </g>
   <g id="line2d_14">
    <path d="M 57.539211 236.801676 
L 58.306252 234.772974 
L 59.099728 232.744273 
L 59.917861 230.715571 
L 60.758783 228.686869 
L 61.620583 226.658167 
L 62.501337 224.629465 
L 63.39915 222.600764 
L 64.312186 220.572062 
L 65.238683 218.54336 
L 66.176977 216.514658 
L 67.125509 214.485956 
L 68.082834 212.457255 
L 69.04763 210.428553 
L 70.018695 208.399851 
L 70.994949 206.371149 
L 71.975429 204.342447 
L 72.959279 202.313746 
L 73.945731 200.285044 
L 74.934085 198.256342 
L 75.923687 196.22764 
L 76.913911 194.198939 
L 77.90414 192.170237 
L 78.89377 190.141535 
L 79.88221 188.112833 
L 80.868902 186.084131 
L 81.853342 184.05543 
L 82.8351 182.026728 
L 83.813844 179.998026 
L 84.789344 177.969324 
L 85.761481 175.940622 
L 86.73024 173.911921 
L 87.695709 171.883219 
L 88.658072 169.854517 
L 89.617616 167.825815 
L 90.574741 165.797113 
L 91.529981 163.768412 
L 92.484026 161.73971 
L 93.437732 159.711008 
L 94.392123 157.682306 
L 95.348368 155.653605 
L 96.30774 153.624903 
L 97.271543 151.596201 
L 98.241033 149.567499 
L 99.217328 147.538797 
L 100.201326 145.510096 
L 101.193631 143.481394 
L 102.194509 141.452692 
L 103.203866 139.42399 
L 104.221258 137.395288 
L 105.245928 135.366587 
L 106.276855 133.337885 
L 107.312836 131.309183 
L 108.352563 129.280481 
L 109.394704 127.251779 
L 110.437974 125.223078 
L 111.481186 123.194376 
L 112.523276 121.165674 
L 113.563295 119.136972 
L 114.600385 117.10827 
L 115.633726 115.079569 
L 116.662494 113.050867 
L 117.685823 111.022165 
L 118.702803 108.993463 
L 119.712497 106.964762 
L 120.714007 104.93606 
L 121.706551 102.907358 
L 122.689548 100.878656 
L 123.662696 98.849954 
L 124.626023 96.821253 
L 125.579899 94.792551 
L 126.52502 92.763849 
L 127.462356 90.735147 
L 128.393081 88.706445 
L 129.318496 86.677744 
L 130.239952 84.649042 
L 131.158791 82.62034 
L 132.076306 80.591638 
L 132.993719 78.562936 
L 133.912186 76.534235 
L 134.832824 74.505533 
L 135.756743 72.476831 
L 136.685096 70.448129 
L 137.619114 68.419428 
L 138.560133 66.390726 
L 139.509606 64.362024 
L 140.469071 62.333322 
L 141.440107 60.30462 
L 142.42424 58.275919 
L 143.422837 56.247217 
L 144.436966 54.218515 
L 145.467249 52.189813 
L 146.513726 50.161111 
L 147.575731 48.13241 
L 148.651818 46.103708 
L 149.739737 44.075006 
L 150.83647 42.046304 
L 151.938325 40.017602 
L 153.041069 37.988901 
L 154.140076 35.960199 
" clip-path="url(#pf2e14fd912)" style="fill: none; stroke-dasharray: 3.7,1.6; stroke-dashoffset: 0; stroke: #008000"/>
   </g>
   <g id="line2d_15">
    <path d="M 57.545077 236.801676 
L 58.378065 234.772974 
L 59.217034 232.744273 
L 60.062266 230.715571 
L 60.911463 228.686869 
L 61.767418 226.658167 
L 62.627613 224.629465 
L 63.493787 222.600764 
L 64.366262 220.572062 
L 65.24348 218.54336 
L 66.126002 216.514658 
L 67.014131 214.485956 
L 67.907383 212.457255 
L 68.806631 210.428553 
L 69.711808 208.399851 
L 70.621914 206.371149 
L 71.53756 204.342447 
L 72.457778 202.313746 
L 73.382612 200.285044 
L 74.313977 198.256342 
L 75.248958 196.22764 
L 76.190058 194.198939 
L 77.134521 192.170237 
L 78.084623 190.141535 
L 79.039139 188.112833 
L 79.996646 186.084131 
L 80.959204 184.05543 
L 81.925688 182.026728 
L 82.897483 179.998026 
L 83.87136 177.969324 
L 84.849409 175.940622 
L 85.830858 173.911921 
L 86.814865 171.883219 
L 87.803605 169.854517 
L 88.792802 167.825815 
L 89.786459 165.797113 
L 90.782225 163.768412 
L 91.779322 161.73971 
L 92.780129 159.711008 
L 93.782496 157.682306 
L 94.786803 155.653605 
L 95.792239 153.624903 
L 96.799578 151.596201 
L 97.807685 149.567499 
L 98.817723 147.538797 
L 99.828737 145.510096 
L 100.839688 143.481394 
L 101.852279 141.452692 
L 102.864605 139.42399 
L 103.878065 137.395288 
L 104.891481 135.366587 
L 105.904528 133.337885 
L 106.919069 131.309183 
L 107.932332 129.280481 
L 108.946492 127.251779 
L 109.95909 125.223078 
L 110.972392 123.194376 
L 111.985951 121.165674 
L 112.998716 119.136972 
L 114.010796 117.10827 
L 115.022266 115.079569 
L 116.034306 113.050867 
L 117.046006 111.022165 
L 118.056902 108.993463 
L 119.067932 106.964762 
L 120.077984 104.93606 
L 121.088507 102.907358 
L 122.098724 100.878656 
L 123.110672 98.849954 
L 124.121214 96.821253 
L 125.132713 94.792551 
L 126.143638 92.763849 
L 127.157714 90.735147 
L 128.170802 88.706445 
L 129.185346 86.677744 
L 130.201931 84.649042 
L 131.219484 82.62034 
L 132.239357 80.591638 
L 133.261356 78.562936 
L 134.286821 76.534235 
L 135.314508 74.505533 
L 136.344859 72.476831 
L 137.378435 70.448129 
L 138.417374 68.419428 
L 139.45937 66.390726 
L 140.506044 64.362024 
L 141.559294 62.333322 
L 142.616416 60.30462 
L 143.680715 58.275919 
L 144.750639 56.247217 
L 145.827208 54.218515 
L 146.911594 52.189813 
L 148.003958 50.161111 
L 149.105011 48.13241 
L 150.214332 46.103708 
L 151.333489 44.075006 
L 152.461859 42.046304 
L 153.603131 40.017602 
L 154.75215 37.988901 
L 155.914067 35.960199 
" clip-path="url(#pf2e14fd912)" style="fill: none; stroke: #0000ff; stroke-width: 0.5; stroke-linecap: square"/>
   </g>
   <g id="line2d_16">
    <defs>
     <path id="ma23185ab13" d="M 0 1 
C 0.265203 1 0.51958 0.894634 0.707107 0.707107 
C 0.894634 0.51958 1 0.265203 1 0 
C 1 -0.265203 0.894634 -0.51958 0.707107 -0.707107 
C 0.51958 -0.894634 0.265203 -1 0 -1 
C -0.265203 -1 -0.51958 -0.894634 -0.707107 -0.707107 
C -0.894634 -0.51958 -1 -0.265203 -1 0 
C -1 0.265203 -0.894634 0.51958 -0.707107 0.707107 
C -0.51958 0.894634 -0.265203 1 0 1 
z
" style="stroke: #1f77b4"/>
    </defs>
    <g clip-path="url(#pf2e14fd912)">
     <use xlink:href="#ma23185ab13" x="57.537253" y="236.801676" style="fill: #1f77b4; stroke: #1f77b4"/>
     <use xlink:href="#ma23185ab13" x="57.129751" y="234.243924" style="fill: #1f77b4; stroke: #1f77b4"/>
     <use xlink:href="#ma23185ab13" x="59.678846" y="232.042314" style="fill: #1f77b4; stroke: #1f77b4"/>
     <use xlink:href="#ma23185ab13" x="61.458921" y="229.096042" style="fill: #1f77b4; stroke: #1f77b4"/>
     <use xlink:href="#ma23185ab13" x="67.641535" y="226.279277" style="fill: #1f77b4; stroke: #1f77b4"/>
     <use xlink:href="#ma23185ab13" x="68.872763" y="221.390409" style="fill: #1f77b4; stroke: #1f77b4"/>
     <use xlink:href="#ma23185ab13" x="70.218229" y="216.080645" style="fill: #1f77b4; stroke: #1f77b4"/>
     <use xlink:href="#ma23185ab13" x="74.468445" y="210.608999" style="fill: #1f77b4; stroke: #1f77b4"/>
     <use xlink:href="#ma23185ab13" x="77.27785" y="204.263184" style="fill: #1f77b4; stroke: #1f77b4"/>
     <use xlink:href="#ma23185ab13" x="80.187615" y="197.690733" style="fill: #1f77b4; stroke: #1f77b4"/>
     <use xlink:href="#ma23185ab13" x="84.762362" y="190.049854" style="fill: #1f77b4; stroke: #1f77b4"/>
     <use xlink:href="#ma23185ab13" x="89.604739" y="182.052833" style="fill: #1f77b4; stroke: #1f77b4"/>
     <use xlink:href="#ma23185ab13" x="93.743016" y="173.278773" style="fill: #1f77b4; stroke: #1f77b4"/>
     <use xlink:href="#ma23185ab13" x="97.90084" y="164.763726" style="fill: #1f77b4; stroke: #1f77b4"/>
     <use xlink:href="#ma23185ab13" x="102.633726" y="155.924913" style="fill: #1f77b4; stroke: #1f77b4"/>
     <use xlink:href="#ma23185ab13" x="107.12485" y="147.215606" style="fill: #1f77b4; stroke: #1f77b4"/>
     <use xlink:href="#ma23185ab13" x="111.796459" y="137.146482" style="fill: #1f77b4; stroke: #1f77b4"/>
     <use xlink:href="#ma23185ab13" x="116.517641" y="127.789642" style="fill: #1f77b4; stroke: #1f77b4"/>
     <use xlink:href="#ma23185ab13" x="121.460888" y="118.756569" style="fill: #1f77b4; stroke: #1f77b4"/>
     <use xlink:href="#ma23185ab13" x="127.768113" y="109.140715" style="fill: #1f77b4; stroke: #1f77b4"/>
     <use xlink:href="#ma23185ab13" x="130.681922" y="99.524861" style="fill: #1f77b4; stroke: #1f77b4"/>
     <use xlink:href="#ma23185ab13" x="136.35694" y="90.459409" style="fill: #1f77b4; stroke: #1f77b4"/>
     <use xlink:href="#ma23185ab13" x="143.001261" y="80.390281" style="fill: #1f77b4; stroke: #1f77b4"/>
     <use xlink:href="#ma23185ab13" x="147.146277" y="71.162944" style="fill: #1f77b4; stroke: #1f77b4"/>
     <use xlink:href="#ma23185ab13" x="150.218217" y="62.453631" style="fill: #1f77b4; stroke: #1f77b4"/>
     <use xlink:href="#ma23185ab13" x="155.512945" y="52.708266" style="fill: #1f77b4; stroke: #1f77b4"/>
     <use xlink:href="#ma23185ab13" x="160.059499" y="43.707562" style="fill: #1f77b4; stroke: #1f77b4"/>
    </g>
   </g>
   <g id="line2d_17">
    <defs>
     <path id="m0ee2e33915" d="M 0 1 
C 0.265203 1 0.51958 0.894634 0.707107 0.707107 
C 0.894634 0.51958 1 0.265203 1 0 
C 1 -0.265203 0.894634 -0.51958 0.707107 -0.707107 
C 0.51958 -0.894634 0.265203 -1 0 -1 
C -0.265203 -1 -0.51958 -0.894634 -0.707107 -0.707107 
C -0.894634 -0.51958 -1 -0.265203 -1 0 
C -1 0.265203 -0.894634 0.51958 -0.707107 0.707107 
C -0.51958 0.894634 -0.265203 1 0 1 
z
" style="stroke: #ff7f0e"/>
    </defs>
    <g clip-path="url(#pf2e14fd912)">
     <use xlink:href="#m0ee2e33915" x="62.879095" y="226.797303" style="fill: #ff7f0e; stroke: #ff7f0e"/>
     <use xlink:href="#m0ee2e33915" x="66.888854" y="220.710501" style="fill: #ff7f0e; stroke: #ff7f0e"/>
     <use xlink:href="#m0ee2e33915" x="70.236951" y="213.94379" style="fill: #ff7f0e; stroke: #ff7f0e"/>
     <use xlink:href="#m0ee2e33915" x="74.340932" y="206.529547" style="fill: #ff7f0e; stroke: #ff7f0e"/>
     <use xlink:href="#m0ee2e33915" x="77.656024" y="197.982123" style="fill: #ff7f0e; stroke: #ff7f0e"/>
     <use xlink:href="#m0ee2e33915" x="82.41188" y="189.110933" style="fill: #ff7f0e; stroke: #ff7f0e"/>
     <use xlink:href="#m0ee2e33915" x="87.293104" y="180.304497" style="fill: #ff7f0e; stroke: #ff7f0e"/>
     <use xlink:href="#m0ee2e33915" x="91.13124" y="171.368554" style="fill: #ff7f0e; stroke: #ff7f0e"/>
     <use xlink:href="#m0ee2e33915" x="94.38333" y="161.979339" style="fill: #ff7f0e; stroke: #ff7f0e"/>
     <use xlink:href="#m0ee2e33915" x="100.690455" y="152.687253" style="fill: #ff7f0e; stroke: #ff7f0e"/>
     <use xlink:href="#m0ee2e33915" x="104.919449" y="143.459921" style="fill: #ff7f0e; stroke: #ff7f0e"/>
     <use xlink:href="#m0ee2e33915" x="110.363109" y="133.973575" style="fill: #ff7f0e; stroke: #ff7f0e"/>
     <use xlink:href="#m0ee2e33915" x="114.384912" y="124.325346" style="fill: #ff7f0e; stroke: #ff7f0e"/>
     <use xlink:href="#m0ee2e33915" x="117.609548" y="113.997207" style="fill: #ff7f0e; stroke: #ff7f0e"/>
     <use xlink:href="#m0ee2e33915" x="124.822321" y="104.867003" style="fill: #ff7f0e; stroke: #ff7f0e"/>
     <use xlink:href="#m0ee2e33915" x="128.954701" y="95.186395" style="fill: #ff7f0e; stroke: #ff7f0e"/>
     <use xlink:href="#m0ee2e33915" x="133.54087" y="85.37628" style="fill: #ff7f0e; stroke: #ff7f0e"/>
     <use xlink:href="#m0ee2e33915" x="138.004338" y="76.116566" style="fill: #ff7f0e; stroke: #ff7f0e"/>
     <use xlink:href="#m0ee2e33915" x="141.588694" y="66.727345" style="fill: #ff7f0e; stroke: #ff7f0e"/>
     <use xlink:href="#m0ee2e33915" x="148.075218" y="57.208616" style="fill: #ff7f0e; stroke: #ff7f0e"/>
     <use xlink:href="#m0ee2e33915" x="150.341687" y="48.143159" style="fill: #ff7f0e; stroke: #ff7f0e"/>
    </g>
   </g>
   <g id="line2d_18">
    <defs>
     <path id="m6fd1831d34" d="M 0 1 
C 0.265203 1 0.51958 0.894634 0.707107 0.707107 
C 0.894634 0.51958 1 0.265203 1 0 
C 1 -0.265203 0.894634 -0.51958 0.707107 -0.707107 
C 0.51958 -0.894634 0.265203 -1 0 -1 
C -0.265203 -1 -0.51958 -0.894634 -0.707107 -0.707107 
C -0.894634 -0.51958 -1 -0.265203 -1 0 
C -1 0.265203 -0.894634 0.51958 -0.707107 0.707107 
C -0.51958 0.894634 -0.265203 1 0 1 
z
" style="stroke: #2ca02c"/>
    </defs>
    <g clip-path="url(#pf2e14fd912)">
     <use xlink:href="#m6fd1831d34" x="58.335859" y="235.474235" style="fill: #2ca02c; stroke: #2ca02c"/>
     <use xlink:href="#m6fd1831d34" x="57.296421" y="233.725898" style="fill: #2ca02c; stroke: #2ca02c"/>
     <use xlink:href="#m6fd1831d34" x="58.511921" y="232.333704" style="fill: #2ca02c; stroke: #2ca02c"/>
     <use xlink:href="#m6fd1831d34" x="60.494647" y="229.905458" style="fill: #2ca02c; stroke: #2ca02c"/>
     <use xlink:href="#m6fd1831d34" x="62.472468" y="226.991563" style="fill: #2ca02c; stroke: #2ca02c"/>
     <use xlink:href="#m6fd1831d34" x="61.566561" y="222.523591" style="fill: #2ca02c; stroke: #2ca02c"/>
     <use xlink:href="#m6fd1831d34" x="66.885582" y="216.663424" style="fill: #2ca02c; stroke: #2ca02c"/>
     <use xlink:href="#m6fd1831d34" x="69.25285" y="209.152051" style="fill: #2ca02c; stroke: #2ca02c"/>
     <use xlink:href="#m6fd1831d34" x="74.140367" y="201.090276" style="fill: #2ca02c; stroke: #2ca02c"/>
     <use xlink:href="#m6fd1831d34" x="78.512965" y="192.08958" style="fill: #2ca02c; stroke: #2ca02c"/>
     <use xlink:href="#m6fd1831d34" x="82.859781" y="183.736416" style="fill: #2ca02c; stroke: #2ca02c"/>
     <use xlink:href="#m6fd1831d34" x="87.91836" y="174.73572" style="fill: #2ca02c; stroke: #2ca02c"/>
     <use xlink:href="#m6fd1831d34" x="93.508488" y="165.735024" style="fill: #2ca02c; stroke: #2ca02c"/>
     <use xlink:href="#m6fd1831d34" x="97.619232" y="156.572445" style="fill: #2ca02c; stroke: #2ca02c"/>
     <use xlink:href="#m6fd1831d34" x="102.372568" y="147.150853" style="fill: #2ca02c; stroke: #2ca02c"/>
     <use xlink:href="#m6fd1831d34" x="107.12065" y="138.376793" style="fill: #2ca02c; stroke: #2ca02c"/>
     <use xlink:href="#m6fd1831d34" x="111.028181" y="128.825694" style="fill: #2ca02c; stroke: #2ca02c"/>
     <use xlink:href="#m6fd1831d34" x="117.542969" y="119.371724" style="fill: #2ca02c; stroke: #2ca02c"/>
     <use xlink:href="#m6fd1831d34" x="121.331847" y="109.755871" style="fill: #2ca02c; stroke: #2ca02c"/>
     <use xlink:href="#m6fd1831d34" x="127.899885" y="100.852303" style="fill: #2ca02c; stroke: #2ca02c"/>
     <use xlink:href="#m6fd1831d34" x="128.045225" y="91.624967" style="fill: #2ca02c; stroke: #2ca02c"/>
     <use xlink:href="#m6fd1831d34" x="133.790366" y="82.365255" style="fill: #2ca02c; stroke: #2ca02c"/>
     <use xlink:href="#m6fd1831d34" x="139.540286" y="73.332177" style="fill: #2ca02c; stroke: #2ca02c"/>
     <use xlink:href="#m6fd1831d34" x="144.536276" y="64.687619" style="fill: #2ca02c; stroke: #2ca02c"/>
     <use xlink:href="#m6fd1831d34" x="148.720703" y="56.107812" style="fill: #2ca02c; stroke: #2ca02c"/>
     <use xlink:href="#m6fd1831d34" x="154.674778" y="47.528005" style="fill: #2ca02c; stroke: #2ca02c"/>
     <use xlink:href="#m6fd1831d34" x="156.623966" y="39.239586" style="fill: #2ca02c; stroke: #2ca02c"/>
    </g>
   </g>
   <g id="patch_3">
    <path d="M 44.203125 246.84375 
L 44.203125 25.918125 
" style="fill: none; stroke: #000000; stroke-width: 0.8; stroke-linejoin: miter; stroke-linecap: square"/>
   </g>
   <g id="patch_4">
    <path d="M 297.551562 246.84375 
L 297.551562 25.918125 
" style="fill: none; stroke: #000000; stroke-width: 0.8; stroke-linejoin: miter; stroke-linecap: square"/>
   </g>
   <g id="patch_5">
    <path d="M 44.203125 246.84375 
L 297.551563 246.84375 
" style="fill: none; stroke: #000000; stroke-width: 0.8; stroke-linejoin: miter; stroke-linecap: square"/>
   </g>
   <g id="patch_6">
    <path d="M 44.203125 25.918125 
L 297.551563 25.918125 
" style="fill: none; stroke: #000000; stroke-width: 0.8; stroke-linejoin: miter; stroke-linecap: square"/>
   </g>
   <g id="text_14">
    <!-- Predictions ($45^\circ$) -->
    <g transform="translate(118.977344 19.918125) scale(0.12 -0.12)">
     <defs>
      <path id="DejaVuSans-50" d="M 1259 4147 
L 1259 2394 
L 2053 2394 
Q 2494 2394 2734 2622 
Q 2975 2850 2975 3272 
Q 2975 3691 2734 3919 
Q 2494 4147 2053 4147 
L 1259 4147 
z
M 628 4666 
L 2053 4666 
Q 2838 4666 3239 4311 
Q 3641 3956 3641 3272 
Q 3641 2581 3239 2228 
Q 2838 1875 2053 1875 
L 1259 1875 
L 1259 0 
L 628 0 
L 628 4666 
z
" transform="scale(0.015625)"/>
      <path id="DejaVuSans-63" d="M 3122 3366 
L 3122 2828 
Q 2878 2963 2633 3030 
Q 2388 3097 2138 3097 
Q 1578 3097 1268 2742 
Q 959 2388 959 1747 
Q 959 1106 1268 751 
Q 1578 397 2138 397 
Q 2388 397 2633 464 
Q 2878 531 3122 666 
L 3122 134 
Q 2881 22 2623 -34 
Q 2366 -91 2075 -91 
Q 1284 -91 818 406 
Q 353 903 353 1747 
Q 353 2603 823 3093 
Q 1294 3584 2113 3584 
Q 2378 3584 2631 3529 
Q 2884 3475 3122 3366 
z
" transform="scale(0.015625)"/>
      <path id="DejaVuSans-28" d="M 1984 4856 
Q 1566 4138 1362 3434 
Q 1159 2731 1159 2009 
Q 1159 1288 1364 580 
Q 1569 -128 1984 -844 
L 1484 -844 
Q 1016 -109 783 600 
Q 550 1309 550 2009 
Q 550 2706 781 3412 
Q 1013 4119 1484 4856 
L 1984 4856 
z
" transform="scale(0.015625)"/>
      <path id="DejaVuSans-35" d="M 691 4666 
L 3169 4666 
L 3169 4134 
L 1269 4134 
L 1269 2991 
Q 1406 3038 1543 3061 
Q 1681 3084 1819 3084 
Q 2600 3084 3056 2656 
Q 3513 2228 3513 1497 
Q 3513 744 3044 326 
Q 2575 -91 1722 -91 
Q 1428 -91 1123 -41 
Q 819 9 494 109 
L 494 744 
Q 775 591 1075 516 
Q 1375 441 1709 441 
Q 2250 441 2565 725 
Q 2881 1009 2881 1497 
Q 2881 1984 2565 2268 
Q 2250 2553 1709 2553 
Q 1456 2553 1204 2497 
Q 953 2441 691 2322 
L 691 4666 
z
" transform="scale(0.015625)"/>
      <path id="DejaVuSans-2218" d="M 2003 2603 
Q 1753 2603 1581 2429 
Q 1409 2256 1409 2006 
Q 1409 1759 1581 1589 
Q 1753 1419 2003 1419 
Q 2253 1419 2425 1589 
Q 2597 1759 2597 2006 
Q 2597 2253 2423 2428 
Q 2250 2603 2003 2603 
z
M 2003 3006 
Q 2203 3006 2387 2929 
Q 2572 2853 2706 2709 
Q 2850 2569 2922 2390 
Q 2994 2212 2994 2006 
Q 2994 1594 2705 1308 
Q 2416 1022 1997 1022 
Q 1575 1022 1294 1303 
Q 1013 1584 1013 2006 
Q 1013 2425 1300 2715 
Q 1588 3006 2003 3006 
z
" transform="scale(0.015625)"/>
      <path id="DejaVuSans-29" d="M 513 4856 
L 1013 4856 
Q 1481 4119 1714 3412 
Q 1947 2706 1947 2009 
Q 1947 1309 1714 600 
Q 1481 -109 1013 -844 
L 513 -844 
Q 928 -128 1133 580 
Q 1338 1288 1338 2009 
Q 1338 2731 1133 3434 
Q 928 4138 513 4856 
z
" transform="scale(0.015625)"/>
     </defs>
     <use xlink:href="#DejaVuSans-50" transform="translate(0 0.015625)"/>
     <use xlink:href="#DejaVuSans-72" transform="translate(60.302734 0.015625)"/>
     <use xlink:href="#DejaVuSans-65" transform="translate(101.416016 0.015625)"/>
     <use xlink:href="#DejaVuSans-64" transform="translate(162.939453 0.015625)"/>
     <use xlink:href="#DejaVuSans-69" transform="translate(226.416016 0.015625)"/>
     <use xlink:href="#DejaVuSans-63" transform="translate(254.199219 0.015625)"/>
     <use xlink:href="#DejaVuSans-74" transform="translate(309.179688 0.015625)"/>
     <use xlink:href="#DejaVuSans-69" transform="translate(348.388672 0.015625)"/>
     <use xlink:href="#DejaVuSans-6f" transform="translate(376.171875 0.015625)"/>
     <use xlink:href="#DejaVuSans-6e" transform="translate(437.353516 0.015625)"/>
     <use xlink:href="#DejaVuSans-73" transform="translate(500.732422 0.015625)"/>
     <use xlink:href="#DejaVuSans-20" transform="translate(552.832031 0.015625)"/>
     <use xlink:href="#DejaVuSans-28" transform="translate(584.619141 0.015625)"/>
     <use xlink:href="#DejaVuSans-34" transform="translate(623.632812 0.015625)"/>
     <use xlink:href="#DejaVuSans-35" transform="translate(687.255859 0.015625)"/>
     <use xlink:href="#DejaVuSans-2218" transform="translate(765.473633 38.296875) scale(0.7)"/>
     <use xlink:href="#DejaVuSans-29" transform="translate(825.664062 0.015625)"/>
    </g>
   </g>
   <g id="legend_1">
    <g id="patch_7">
     <path d="M 147.65625 241.84375 
L 290.551562 241.84375 
Q 292.551562 241.84375 292.551562 239.84375 
L 292.551562 138.096875 
Q 292.551562 136.096875 290.551562 136.096875 
L 147.65625 136.096875 
Q 145.65625 136.096875 145.65625 138.096875 
L 145.65625 239.84375 
Q 145.65625 241.84375 147.65625 241.84375 
z
" style="fill: #ffffff; opacity: 0.8; stroke: #cccccc; stroke-linejoin: miter"/>
    </g>
    <g id="patch_8">
     <path d="M 149.65625 147.695312 
L 169.65625 147.695312 
L 169.65625 140.695312 
L 149.65625 140.695312 
z
" style="fill: #90ee90; fill-opacity: 0.75; stroke: #90ee90; stroke-opacity: 0.75; stroke-linejoin: miter"/>
    </g>
    <g id="text_15">
     <!-- Prior 95% interval -->
     <g transform="translate(177.65625 147.695312) scale(0.1 -0.1)">
      <defs>
       <path id="DejaVuSans-39" d="M 703 97 
L 703 672 
Q 941 559 1184 500 
Q 1428 441 1663 441 
Q 2288 441 2617 861 
Q 2947 1281 2994 2138 
Q 2813 1869 2534 1725 
Q 2256 1581 1919 1581 
Q 1219 1581 811 2004 
Q 403 2428 403 3163 
Q 403 3881 828 4315 
Q 1253 4750 1959 4750 
Q 2769 4750 3195 4129 
Q 3622 3509 3622 2328 
Q 3622 1225 3098 567 
Q 2575 -91 1691 -91 
Q 1453 -91 1209 -44 
Q 966 3 703 97 
z
M 1959 2075 
Q 2384 2075 2632 2365 
Q 2881 2656 2881 3163 
Q 2881 3666 2632 3958 
Q 2384 4250 1959 4250 
Q 1534 4250 1286 3958 
Q 1038 3666 1038 3163 
Q 1038 2656 1286 2365 
Q 1534 2075 1959 2075 
z
" transform="scale(0.015625)"/>
       <path id="DejaVuSans-25" d="M 4653 2053 
Q 4381 2053 4226 1822 
Q 4072 1591 4072 1178 
Q 4072 772 4226 539 
Q 4381 306 4653 306 
Q 4919 306 5073 539 
Q 5228 772 5228 1178 
Q 5228 1588 5073 1820 
Q 4919 2053 4653 2053 
z
M 4653 2450 
Q 5147 2450 5437 2106 
Q 5728 1763 5728 1178 
Q 5728 594 5436 251 
Q 5144 -91 4653 -91 
Q 4153 -91 3862 251 
Q 3572 594 3572 1178 
Q 3572 1766 3864 2108 
Q 4156 2450 4653 2450 
z
M 1428 4353 
Q 1159 4353 1004 4120 
Q 850 3888 850 3481 
Q 850 3069 1003 2837 
Q 1156 2606 1428 2606 
Q 1700 2606 1854 2837 
Q 2009 3069 2009 3481 
Q 2009 3884 1853 4118 
Q 1697 4353 1428 4353 
z
M 4250 4750 
L 4750 4750 
L 1831 -91 
L 1331 -91 
L 4250 4750 
z
M 1428 4750 
Q 1922 4750 2215 4408 
Q 2509 4066 2509 3481 
Q 2509 2891 2217 2550 
Q 1925 2209 1428 2209 
Q 931 2209 642 2551 
Q 353 2894 353 3481 
Q 353 4063 643 4406 
Q 934 4750 1428 4750 
z
" transform="scale(0.015625)"/>
       <path id="DejaVuSans-76" d="M 191 3500 
L 800 3500 
L 1894 563 
L 2988 3500 
L 3597 3500 
L 2284 0 
L 1503 0 
L 191 3500 
z
" transform="scale(0.015625)"/>
      </defs>
      <use xlink:href="#DejaVuSans-50"/>
      <use xlink:href="#DejaVuSans-72" x="58.552734"/>
      <use xlink:href="#DejaVuSans-69" x="99.666016"/>
      <use xlink:href="#DejaVuSans-6f" x="127.449219"/>
      <use xlink:href="#DejaVuSans-72" x="188.630859"/>
      <use xlink:href="#DejaVuSans-20" x="229.744141"/>
      <use xlink:href="#DejaVuSans-39" x="261.53125"/>
      <use xlink:href="#DejaVuSans-35" x="325.154297"/>
      <use xlink:href="#DejaVuSans-25" x="388.777344"/>
      <use xlink:href="#DejaVuSans-20" x="483.796875"/>
      <use xlink:href="#DejaVuSans-69" x="515.583984"/>
      <use xlink:href="#DejaVuSans-6e" x="543.367188"/>
      <use xlink:href="#DejaVuSans-74" x="606.746094"/>
      <use xlink:href="#DejaVuSans-65" x="645.955078"/>
      <use xlink:href="#DejaVuSans-72" x="707.478516"/>
      <use xlink:href="#DejaVuSans-76" x="748.591797"/>
      <use xlink:href="#DejaVuSans-61" x="807.771484"/>
      <use xlink:href="#DejaVuSans-6c" x="869.050781"/>
     </g>
    </g>
    <g id="line2d_19">
     <path d="M 149.65625 158.873438 
L 159.65625 158.873438 
L 169.65625 158.873438 
" style="fill: none; stroke-dasharray: 3.7,1.6; stroke-dashoffset: 0; stroke: #008000"/>
    </g>
    <g id="text_16">
     <!-- Prior mean -->
     <g transform="translate(177.65625 162.373438) scale(0.1 -0.1)">
      <use xlink:href="#DejaVuSans-50"/>
      <use xlink:href="#DejaVuSans-72" x="58.552734"/>
      <use xlink:href="#DejaVuSans-69" x="99.666016"/>
      <use xlink:href="#DejaVuSans-6f" x="127.449219"/>
      <use xlink:href="#DejaVuSans-72" x="188.630859"/>
      <use xlink:href="#DejaVuSans-20" x="229.744141"/>
      <use xlink:href="#DejaVuSans-6d" x="261.53125"/>
      <use xlink:href="#DejaVuSans-65" x="358.943359"/>
      <use xlink:href="#DejaVuSans-61" x="420.466797"/>
      <use xlink:href="#DejaVuSans-6e" x="481.746094"/>
     </g>
    </g>
    <g id="patch_9">
     <path d="M 149.65625 177.051562 
L 169.65625 177.051562 
L 169.65625 170.051562 
L 149.65625 170.051562 
z
" style="fill: #6495ed; fill-opacity: 0.75; stroke: #6495ed; stroke-opacity: 0.75; stroke-linejoin: miter"/>
    </g>
    <g id="text_17">
     <!-- Posterior 95% interval -->
     <g transform="translate(177.65625 177.051562) scale(0.1 -0.1)">
      <use xlink:href="#DejaVuSans-50"/>
      <use xlink:href="#DejaVuSans-6f" x="56.677734"/>
      <use xlink:href="#DejaVuSans-73" x="117.859375"/>
      <use xlink:href="#DejaVuSans-74" x="169.958984"/>
      <use xlink:href="#DejaVuSans-65" x="209.167969"/>
      <use xlink:href="#DejaVuSans-72" x="270.691406"/>
      <use xlink:href="#DejaVuSans-69" x="311.804688"/>
      <use xlink:href="#DejaVuSans-6f" x="339.587891"/>
      <use xlink:href="#DejaVuSans-72" x="400.769531"/>
      <use xlink:href="#DejaVuSans-20" x="441.882812"/>
      <use xlink:href="#DejaVuSans-39" x="473.669922"/>
      <use xlink:href="#DejaVuSans-35" x="537.292969"/>
      <use xlink:href="#DejaVuSans-25" x="600.916016"/>
      <use xlink:href="#DejaVuSans-20" x="695.935547"/>
      <use xlink:href="#DejaVuSans-69" x="727.722656"/>
      <use xlink:href="#DejaVuSans-6e" x="755.505859"/>
      <use xlink:href="#DejaVuSans-74" x="818.884766"/>
      <use xlink:href="#DejaVuSans-65" x="858.09375"/>
      <use xlink:href="#DejaVuSans-72" x="919.617188"/>
      <use xlink:href="#DejaVuSans-76" x="960.730469"/>
      <use xlink:href="#DejaVuSans-61" x="1019.910156"/>
      <use xlink:href="#DejaVuSans-6c" x="1081.189453"/>
     </g>
    </g>
    <g id="line2d_20">
     <path d="M 149.65625 188.229688 
L 159.65625 188.229688 
L 169.65625 188.229688 
" style="fill: none; stroke: #0000ff; stroke-width: 0.5; stroke-linecap: square"/>
    </g>
    <g id="text_18">
     <!-- Posterior mean -->
     <g transform="translate(177.65625 191.729688) scale(0.1 -0.1)">
      <use xlink:href="#DejaVuSans-50"/>
      <use xlink:href="#DejaVuSans-6f" x="56.677734"/>
      <use xlink:href="#DejaVuSans-73" x="117.859375"/>
      <use xlink:href="#DejaVuSans-74" x="169.958984"/>
      <use xlink:href="#DejaVuSans-65" x="209.167969"/>
      <use xlink:href="#DejaVuSans-72" x="270.691406"/>
      <use xlink:href="#DejaVuSans-69" x="311.804688"/>
      <use xlink:href="#DejaVuSans-6f" x="339.587891"/>
      <use xlink:href="#DejaVuSans-72" x="400.769531"/>
      <use xlink:href="#DejaVuSans-20" x="441.882812"/>
      <use xlink:href="#DejaVuSans-6d" x="473.669922"/>
      <use xlink:href="#DejaVuSans-65" x="571.082031"/>
      <use xlink:href="#DejaVuSans-61" x="632.605469"/>
      <use xlink:href="#DejaVuSans-6e" x="693.884766"/>
     </g>
    </g>
    <g id="line2d_21">
     <g>
      <use xlink:href="#ma23185ab13" x="159.65625" y="202.907813" style="fill: #1f77b4; stroke: #1f77b4"/>
     </g>
    </g>
    <g id="text_19">
     <!-- Experimental data 1 -->
     <g transform="translate(177.65625 206.407813) scale(0.1 -0.1)">
      <defs>
       <path id="DejaVuSans-70" d="M 1159 525 
L 1159 -1331 
L 581 -1331 
L 581 3500 
L 1159 3500 
L 1159 2969 
Q 1341 3281 1617 3432 
Q 1894 3584 2278 3584 
Q 2916 3584 3314 3078 
Q 3713 2572 3713 1747 
Q 3713 922 3314 415 
Q 2916 -91 2278 -91 
Q 1894 -91 1617 61 
Q 1341 213 1159 525 
z
M 3116 1747 
Q 3116 2381 2855 2742 
Q 2594 3103 2138 3103 
Q 1681 3103 1420 2742 
Q 1159 2381 1159 1747 
Q 1159 1113 1420 752 
Q 1681 391 2138 391 
Q 2594 391 2855 752 
Q 3116 1113 3116 1747 
z
" transform="scale(0.015625)"/>
      </defs>
      <use xlink:href="#DejaVuSans-45"/>
      <use xlink:href="#DejaVuSans-78" x="63.183594"/>
      <use xlink:href="#DejaVuSans-70" x="122.363281"/>
      <use xlink:href="#DejaVuSans-65" x="185.839844"/>
      <use xlink:href="#DejaVuSans-72" x="247.363281"/>
      <use xlink:href="#DejaVuSans-69" x="288.476562"/>
      <use xlink:href="#DejaVuSans-6d" x="316.259766"/>
      <use xlink:href="#DejaVuSans-65" x="413.671875"/>
      <use xlink:href="#DejaVuSans-6e" x="475.195312"/>
      <use xlink:href="#DejaVuSans-74" x="538.574219"/>
      <use xlink:href="#DejaVuSans-61" x="577.783203"/>
      <use xlink:href="#DejaVuSans-6c" x="639.0625"/>
      <use xlink:href="#DejaVuSans-20" x="666.845703"/>
      <use xlink:href="#DejaVuSans-64" x="698.632812"/>
      <use xlink:href="#DejaVuSans-61" x="762.109375"/>
      <use xlink:href="#DejaVuSans-74" x="823.388672"/>
      <use xlink:href="#DejaVuSans-61" x="862.597656"/>
      <use xlink:href="#DejaVuSans-20" x="923.876953"/>
      <use xlink:href="#DejaVuSans-31" x="955.664062"/>
     </g>
    </g>
    <g id="line2d_22">
     <g>
      <use xlink:href="#m0ee2e33915" x="159.65625" y="217.585938" style="fill: #ff7f0e; stroke: #ff7f0e"/>
     </g>
    </g>
    <g id="text_20">
     <!-- Experimental data 2 -->
     <g transform="translate(177.65625 221.085938) scale(0.1 -0.1)">
      <use xlink:href="#DejaVuSans-45"/>
      <use xlink:href="#DejaVuSans-78" x="63.183594"/>
      <use xlink:href="#DejaVuSans-70" x="122.363281"/>
      <use xlink:href="#DejaVuSans-65" x="185.839844"/>
      <use xlink:href="#DejaVuSans-72" x="247.363281"/>
      <use xlink:href="#DejaVuSans-69" x="288.476562"/>
      <use xlink:href="#DejaVuSans-6d" x="316.259766"/>
      <use xlink:href="#DejaVuSans-65" x="413.671875"/>
      <use xlink:href="#DejaVuSans-6e" x="475.195312"/>
      <use xlink:href="#DejaVuSans-74" x="538.574219"/>
      <use xlink:href="#DejaVuSans-61" x="577.783203"/>
      <use xlink:href="#DejaVuSans-6c" x="639.0625"/>
      <use xlink:href="#DejaVuSans-20" x="666.845703"/>
      <use xlink:href="#DejaVuSans-64" x="698.632812"/>
      <use xlink:href="#DejaVuSans-61" x="762.109375"/>
      <use xlink:href="#DejaVuSans-74" x="823.388672"/>
      <use xlink:href="#DejaVuSans-61" x="862.597656"/>
      <use xlink:href="#DejaVuSans-20" x="923.876953"/>
      <use xlink:href="#DejaVuSans-32" x="955.664062"/>
     </g>
    </g>
    <g id="line2d_23">
     <g>
      <use xlink:href="#m6fd1831d34" x="159.65625" y="232.264062" style="fill: #2ca02c; stroke: #2ca02c"/>
     </g>
    </g>
    <g id="text_21">
     <!-- Experimental data 3 -->
     <g transform="translate(177.65625 235.764062) scale(0.1 -0.1)">
      <defs>
       <path id="DejaVuSans-33" d="M 2597 2516 
Q 3050 2419 3304 2112 
Q 3559 1806 3559 1356 
Q 3559 666 3084 287 
Q 2609 -91 1734 -91 
Q 1441 -91 1130 -33 
Q 819 25 488 141 
L 488 750 
Q 750 597 1062 519 
Q 1375 441 1716 441 
Q 2309 441 2620 675 
Q 2931 909 2931 1356 
Q 2931 1769 2642 2001 
Q 2353 2234 1838 2234 
L 1294 2234 
L 1294 2753 
L 1863 2753 
Q 2328 2753 2575 2939 
Q 2822 3125 2822 3475 
Q 2822 3834 2567 4026 
Q 2313 4219 1838 4219 
Q 1578 4219 1281 4162 
Q 984 4106 628 3988 
L 628 4550 
Q 988 4650 1302 4700 
Q 1616 4750 1894 4750 
Q 2613 4750 3031 4423 
Q 3450 4097 3450 3541 
Q 3450 3153 3228 2886 
Q 3006 2619 2597 2516 
z
" transform="scale(0.015625)"/>
      </defs>
      <use xlink:href="#DejaVuSans-45"/>
      <use xlink:href="#DejaVuSans-78" x="63.183594"/>
      <use xlink:href="#DejaVuSans-70" x="122.363281"/>
      <use xlink:href="#DejaVuSans-65" x="185.839844"/>
      <use xlink:href="#DejaVuSans-72" x="247.363281"/>
      <use xlink:href="#DejaVuSans-69" x="288.476562"/>
      <use xlink:href="#DejaVuSans-6d" x="316.259766"/>
      <use xlink:href="#DejaVuSans-65" x="413.671875"/>
      <use xlink:href="#DejaVuSans-6e" x="475.195312"/>
      <use xlink:href="#DejaVuSans-74" x="538.574219"/>
      <use xlink:href="#DejaVuSans-61" x="577.783203"/>
      <use xlink:href="#DejaVuSans-6c" x="639.0625"/>
      <use xlink:href="#DejaVuSans-20" x="666.845703"/>
      <use xlink:href="#DejaVuSans-64" x="698.632812"/>
      <use xlink:href="#DejaVuSans-61" x="762.109375"/>
      <use xlink:href="#DejaVuSans-74" x="823.388672"/>
      <use xlink:href="#DejaVuSans-61" x="862.597656"/>
      <use xlink:href="#DejaVuSans-20" x="923.876953"/>
      <use xlink:href="#DejaVuSans-33" x="955.664062"/>
     </g>
    </g>
   </g>
  </g>
  <g id="axes_2">
   <g id="patch_10">
    <path d="M 311.851562 246.84375 
L 565.2 246.84375 
L 565.2 25.918125 
L 311.851562 25.918125 
z
" style="fill: #ffffff"/>
   </g>
   <g id="PolyCollection_3">
    <defs>
     <path id="md404d815d3" d="M 325.26164 -51.198324 
L 325.10852 -51.198324 
L 324.405854 -53.227026 
L 323.823751 -55.255727 
L 323.362213 -57.284429 
L 323.021239 -59.313131 
L 322.800829 -61.341833 
L 322.700983 -63.370535 
L 322.721701 -65.399236 
L 322.862984 -67.427938 
L 323.12483 -69.45664 
L 323.50724 -71.485342 
L 324.010215 -73.514044 
L 324.633753 -75.542745 
L 325.377856 -77.571447 
L 326.242522 -79.600149 
L 327.227753 -81.628851 
L 328.333548 -83.657553 
L 329.559907 -85.686254 
L 330.90683 -87.714956 
L 332.374317 -89.743658 
L 333.962368 -91.77236 
L 335.670983 -93.801061 
L 337.500162 -95.829763 
L 339.449905 -97.858465 
L 341.520212 -99.887167 
L 343.711084 -101.915869 
L 346.022519 -103.94457 
L 348.454519 -105.973272 
L 351.007082 -108.001974 
L 353.68021 -110.030676 
L 356.473902 -112.059378 
L 359.388158 -114.088079 
L 362.249292 -116.116781 
L 364.883618 -118.145483 
L 367.291136 -120.174185 
L 369.471847 -122.202887 
L 371.42575 -124.231588 
L 373.152845 -126.26029 
L 374.653132 -128.288992 
L 375.926612 -130.317694 
L 377.153055 -132.346395 
L 378.512231 -134.375097 
L 380.00414 -136.403799 
L 381.628783 -138.432501 
L 383.386159 -140.461203 
L 385.276269 -142.489904 
L 387.299113 -144.518606 
L 389.454689 -146.547308 
L 391.651597 -148.57601 
L 393.798431 -150.604712 
L 395.895193 -152.633413 
L 397.941883 -154.662115 
L 399.9385 -156.690817 
L 401.885044 -158.719519 
L 403.781516 -160.748221 
L 405.627915 -162.776922 
L 407.46569 -164.805624 
L 409.336289 -166.834326 
L 411.239714 -168.863028 
L 413.175963 -170.89173 
L 415.145036 -172.920431 
L 417.146935 -174.949133 
L 419.181658 -176.977835 
L 421.249205 -179.006537 
L 423.320376 -181.035238 
L 425.365971 -183.06394 
L 427.385987 -185.092642 
L 429.380427 -187.121344 
L 431.34929 -189.150046 
L 433.292575 -191.178747 
L 435.210283 -193.207449 
L 437.102414 -195.236151 
L 438.994141 -197.264853 
L 440.910637 -199.293555 
L 442.851904 -201.322256 
L 444.81794 -203.350958 
L 446.808746 -205.37966 
L 448.824322 -207.408362 
L 450.864668 -209.437064 
L 452.929783 -211.465765 
L 454.984817 -213.494467 
L 456.994921 -215.523169 
L 458.960093 -217.551871 
L 460.880333 -219.580572 
L 462.755643 -221.609274 
L 464.586021 -223.637976 
L 466.371468 -225.666678 
L 468.111983 -227.69538 
L 469.858984 -229.724081 
L 471.663888 -231.752783 
L 473.526695 -233.781485 
L 475.447404 -235.810187 
L 477.426016 -237.838889 
L 479.46253 -239.86759 
L 481.556947 -241.896292 
L 483.709267 -243.924994 
L 485.91949 -245.953696 
L 488.187615 -247.982398 
L 490.513642 -250.011099 
L 492.897573 -252.039801 
L 541.673339 -252.039801 
L 541.673339 -252.039801 
L 539.841655 -250.011099 
L 538.007927 -247.982398 
L 536.172157 -245.953696 
L 534.334345 -243.924994 
L 532.49449 -241.896292 
L 530.652592 -239.86759 
L 528.808652 -237.838889 
L 526.962669 -235.810187 
L 525.114644 -233.781485 
L 523.264576 -231.752783 
L 521.412465 -229.724081 
L 519.558312 -227.69538 
L 517.702117 -225.666678 
L 515.843879 -223.637976 
L 513.983598 -221.609274 
L 512.167273 -219.580572 
L 510.440901 -217.551871 
L 508.804483 -215.523169 
L 507.258018 -213.494467 
L 505.801508 -211.465765 
L 504.43495 -209.437064 
L 503.158347 -207.408362 
L 501.971697 -205.37966 
L 500.760963 -203.350958 
L 499.412108 -201.322256 
L 497.925133 -199.293555 
L 496.300036 -197.264853 
L 494.536819 -195.236151 
L 492.63548 -193.207449 
L 490.596021 -191.178747 
L 488.41844 -189.150046 
L 486.171598 -187.121344 
L 483.924353 -185.092642 
L 481.676706 -183.06394 
L 479.428655 -181.035238 
L 477.180202 -179.006537 
L 474.931345 -176.977835 
L 472.682086 -174.949133 
L 470.432425 -172.920431 
L 468.197208 -170.89173 
L 465.991284 -168.863028 
L 463.814653 -166.834326 
L 461.667315 -164.805624 
L 459.549269 -162.776922 
L 457.460517 -160.748221 
L 455.401057 -158.719519 
L 453.37089 -156.690817 
L 451.324052 -154.662115 
L 449.214577 -152.633413 
L 447.042467 -150.604712 
L 444.807721 -148.57601 
L 442.510338 -146.547308 
L 440.15032 -144.518606 
L 437.727666 -142.489904 
L 435.242375 -140.461203 
L 432.747448 -138.432501 
L 430.295883 -136.403799 
L 427.88768 -134.375097 
L 425.52284 -132.346395 
L 423.201362 -130.317694 
L 420.923246 -128.288992 
L 418.688492 -126.26029 
L 416.497101 -124.231588 
L 414.417534 -122.202887 
L 412.518252 -120.174185 
L 410.799257 -118.145483 
L 409.260547 -116.116781 
L 407.902124 -114.088079 
L 406.723987 -112.059378 
L 405.726135 -110.030676 
L 404.90857 -108.001974 
L 404.205188 -105.973272 
L 403.549888 -103.94457 
L 402.942669 -101.915869 
L 402.383531 -99.887167 
L 401.872475 -97.858465 
L 401.4095 -95.829763 
L 400.994607 -93.801061 
L 400.627794 -91.77236 
L 400.128086 -89.743658 
L 399.314505 -87.714956 
L 398.187051 -85.686254 
L 396.745723 -83.657553 
L 394.990522 -81.628851 
L 392.921448 -79.600149 
L 390.538501 -77.571447 
L 387.841681 -75.542745 
L 384.791153 -73.514044 
L 381.347085 -71.485342 
L 377.509475 -69.45664 
L 373.278325 -67.427938 
L 368.653633 -65.399236 
L 363.6354 -63.370535 
L 358.223626 -61.341833 
L 352.418311 -59.313131 
L 346.219455 -57.284429 
L 339.627058 -55.255727 
L 332.641119 -53.227026 
L 325.26164 -51.198324 
z
" style="stroke: #90ee90; stroke-opacity: 0.75"/>
    </defs>
    <g clip-path="url(#p598929b01f)">
     <use xlink:href="#md404d815d3" x="0" y="288" style="fill: #90ee90; fill-opacity: 0.75; stroke: #90ee90; stroke-opacity: 0.75"/>
    </g>
   </g>
   <g id="PolyCollection_4">
    <defs>
     <path id="m750c6cf7e6" d="M 325.259931 -51.198324 
L 325.107137 -51.198324 
L 327.20377 -53.227026 
L 329.244626 -55.255727 
L 331.284404 -57.284429 
L 333.316428 -59.313131 
L 335.338873 -61.341833 
L 337.360987 -63.370535 
L 339.369774 -65.399236 
L 341.384722 -67.427938 
L 343.379964 -69.45664 
L 345.398179 -71.485342 
L 347.388404 -73.514044 
L 349.383029 -75.542745 
L 351.378773 -77.571447 
L 353.36908 -79.600149 
L 355.351636 -81.628851 
L 357.341636 -83.657553 
L 359.316564 -85.686254 
L 361.293783 -87.714956 
L 363.261691 -89.743658 
L 365.203233 -91.77236 
L 367.171443 -93.801061 
L 369.127553 -95.829763 
L 371.081611 -97.858465 
L 373.022213 -99.887167 
L 374.982756 -101.915869 
L 376.918929 -103.94457 
L 378.838395 -105.973272 
L 380.799477 -108.001974 
L 382.726312 -110.030676 
L 384.661743 -112.059378 
L 386.611659 -114.088079 
L 388.531276 -116.116781 
L 390.486317 -118.145483 
L 392.419568 -120.174185 
L 394.333506 -122.202887 
L 396.279402 -124.231588 
L 398.197769 -126.26029 
L 400.138557 -128.288992 
L 402.056758 -130.317694 
L 403.997732 -132.346395 
L 405.932174 -134.375097 
L 407.88429 -136.403799 
L 409.797457 -138.432501 
L 411.73391 -140.461203 
L 413.69072 -142.489904 
L 415.633852 -144.518606 
L 417.574972 -146.547308 
L 419.534342 -148.57601 
L 421.506814 -150.604712 
L 423.450896 -152.633413 
L 425.420005 -154.662115 
L 427.393195 -156.690817 
L 429.36414 -158.719519 
L 431.311809 -160.748221 
L 433.312304 -162.776922 
L 435.281535 -164.805624 
L 437.2646 -166.834326 
L 439.24753 -168.863028 
L 441.223147 -170.89173 
L 443.195889 -172.920431 
L 445.215672 -174.949133 
L 447.219861 -176.977835 
L 449.244275 -179.006537 
L 451.243065 -181.035238 
L 453.246168 -183.06394 
L 455.257828 -185.092642 
L 457.293503 -187.121344 
L 459.314803 -189.150046 
L 461.317291 -191.178747 
L 463.345118 -193.207449 
L 465.332784 -195.236151 
L 467.355105 -197.264853 
L 469.355801 -199.293555 
L 471.352612 -201.322256 
L 473.368901 -203.350958 
L 475.372932 -205.37966 
L 477.383104 -207.408362 
L 479.381108 -209.437064 
L 481.381552 -211.465765 
L 483.390304 -213.494467 
L 485.396191 -215.523169 
L 487.39863 -217.551871 
L 489.393554 -219.580572 
L 491.385854 -221.609274 
L 493.37074 -223.637976 
L 495.389494 -225.666678 
L 497.357575 -227.69538 
L 499.380004 -229.724081 
L 501.387099 -231.752783 
L 503.356832 -233.781485 
L 505.303914 -235.810187 
L 507.296968 -237.838889 
L 509.267254 -239.86759 
L 511.258791 -241.896292 
L 513.25088 -243.924994 
L 515.192734 -245.953696 
L 517.121044 -247.982398 
L 519.094845 -250.011099 
L 521.068984 -252.039801 
L 535.820798 -252.039801 
L 535.820798 -252.039801 
L 533.697042 -250.011099 
L 531.588808 -247.982398 
L 529.477597 -245.953696 
L 527.285468 -243.924994 
L 525.158759 -241.896292 
L 522.996227 -239.86759 
L 520.84419 -237.838889 
L 518.656833 -235.810187 
L 516.491592 -233.781485 
L 514.403202 -231.752783 
L 512.21547 -229.724081 
L 510.051428 -227.69538 
L 507.887408 -225.666678 
L 505.723073 -223.637976 
L 503.573643 -221.609274 
L 501.401775 -219.580572 
L 499.245501 -217.551871 
L 497.094009 -215.523169 
L 494.923136 -213.494467 
L 492.742181 -211.465765 
L 490.566826 -209.437064 
L 488.41832 -207.408362 
L 486.276202 -205.37966 
L 484.119452 -203.350958 
L 481.983767 -201.322256 
L 479.826507 -199.293555 
L 477.677309 -197.264853 
L 475.514938 -195.236151 
L 473.390941 -193.207449 
L 471.238042 -191.178747 
L 469.092894 -189.150046 
L 466.932809 -187.121344 
L 464.812097 -185.092642 
L 462.679586 -183.06394 
L 460.529467 -181.035238 
L 458.407293 -179.006537 
L 456.298195 -176.977835 
L 454.159848 -174.949133 
L 452.060157 -172.920431 
L 449.927953 -170.89173 
L 447.851585 -168.863028 
L 445.727985 -166.834326 
L 443.634378 -164.805624 
L 441.52906 -162.776922 
L 439.430872 -160.748221 
L 437.328946 -158.719519 
L 435.252485 -156.690817 
L 433.144785 -154.662115 
L 431.042651 -152.633413 
L 428.952786 -150.604712 
L 426.878876 -148.57601 
L 424.792008 -146.547308 
L 422.744304 -144.518606 
L 420.667336 -142.489904 
L 418.582869 -140.461203 
L 416.508225 -138.432501 
L 414.467408 -136.403799 
L 412.392498 -134.375097 
L 410.305276 -132.346395 
L 408.235002 -130.317694 
L 406.162408 -128.288992 
L 404.086742 -126.26029 
L 402.050373 -124.231588 
L 399.983443 -122.202887 
L 397.892382 -120.174185 
L 395.847833 -118.145483 
L 393.797887 -116.116781 
L 391.728062 -114.088079 
L 389.673814 -112.059378 
L 387.62926 -110.030676 
L 385.570625 -108.001974 
L 383.496988 -105.973272 
L 381.429586 -103.94457 
L 379.379345 -101.915869 
L 377.300425 -99.887167 
L 375.230273 -97.858465 
L 373.147248 -95.829763 
L 371.074179 -93.801061 
L 368.988575 -91.77236 
L 366.905689 -89.743658 
L 364.797067 -87.714956 
L 362.704901 -85.686254 
L 360.585796 -83.657553 
L 358.45883 -81.628851 
L 356.338845 -79.600149 
L 354.192217 -77.571447 
L 352.051391 -75.542745 
L 349.874844 -73.514044 
L 347.696933 -71.485342 
L 345.522642 -69.45664 
L 343.316791 -67.427938 
L 341.105693 -65.399236 
L 338.875044 -63.370535 
L 336.63548 -61.341833 
L 334.380032 -59.313131 
L 332.105675 -57.284429 
L 329.81718 -55.255727 
L 327.520662 -53.227026 
L 325.259931 -51.198324 
z
" style="stroke: #6495ed; stroke-opacity: 0.75"/>
    </defs>
    <g clip-path="url(#p598929b01f)">
     <use xlink:href="#m750c6cf7e6" x="0" y="288" style="fill: #6495ed; fill-opacity: 0.75; stroke: #6495ed; stroke-opacity: 0.75"/>
    </g>
   </g>
   <g id="matplotlib.axis_3">
    <g id="xtick_6">
     <g id="line2d_24">
      <g>
       <use xlink:href="#mfe02fcbbeb" x="325.185691" y="246.84375" style="stroke: #000000; stroke-width: 0.8"/>
      </g>
     </g>
     <g id="text_22">
      <!-- 0.00 -->
      <g transform="translate(314.052878 261.442187) scale(0.1 -0.1)">
       <use xlink:href="#DejaVuSans-30"/>
       <use xlink:href="#DejaVuSans-2e" x="63.623047"/>
       <use xlink:href="#DejaVuSans-30" x="95.410156"/>
       <use xlink:href="#DejaVuSans-30" x="159.033203"/>
      </g>
     </g>
    </g>
    <g id="xtick_7">
     <g id="line2d_25">
      <g>
       <use xlink:href="#mfe02fcbbeb" x="378.522204" y="246.84375" style="stroke: #000000; stroke-width: 0.8"/>
      </g>
     </g>
     <g id="text_23">
      <!-- 0.02 -->
      <g transform="translate(367.389391 261.442187) scale(0.1 -0.1)">
       <use xlink:href="#DejaVuSans-30"/>
       <use xlink:href="#DejaVuSans-2e" x="63.623047"/>
       <use xlink:href="#DejaVuSans-30" x="95.410156"/>
       <use xlink:href="#DejaVuSans-32" x="159.033203"/>
      </g>
     </g>
    </g>
    <g id="xtick_8">
     <g id="line2d_26">
      <g>
       <use xlink:href="#mfe02fcbbeb" x="431.858717" y="246.84375" style="stroke: #000000; stroke-width: 0.8"/>
      </g>
     </g>
     <g id="text_24">
      <!-- 0.04 -->
      <g transform="translate(420.725905 261.442187) scale(0.1 -0.1)">
       <use xlink:href="#DejaVuSans-30"/>
       <use xlink:href="#DejaVuSans-2e" x="63.623047"/>
       <use xlink:href="#DejaVuSans-30" x="95.410156"/>
       <use xlink:href="#DejaVuSans-34" x="159.033203"/>
      </g>
     </g>
    </g>
    <g id="xtick_9">
     <g id="line2d_27">
      <g>
       <use xlink:href="#mfe02fcbbeb" x="485.19523" y="246.84375" style="stroke: #000000; stroke-width: 0.8"/>
      </g>
     </g>
     <g id="text_25">
      <!-- 0.06 -->
      <g transform="translate(474.062418 261.442187) scale(0.1 -0.1)">
       <use xlink:href="#DejaVuSans-30"/>
       <use xlink:href="#DejaVuSans-2e" x="63.623047"/>
       <use xlink:href="#DejaVuSans-30" x="95.410156"/>
       <use xlink:href="#DejaVuSans-36" x="159.033203"/>
      </g>
     </g>
    </g>
    <g id="xtick_10">
     <g id="line2d_28">
      <g>
       <use xlink:href="#mfe02fcbbeb" x="538.531743" y="246.84375" style="stroke: #000000; stroke-width: 0.8"/>
      </g>
     </g>
     <g id="text_26">
      <!-- 0.08 -->
      <g transform="translate(527.398931 261.442187) scale(0.1 -0.1)">
       <use xlink:href="#DejaVuSans-30"/>
       <use xlink:href="#DejaVuSans-2e" x="63.623047"/>
       <use xlink:href="#DejaVuSans-30" x="95.410156"/>
       <use xlink:href="#DejaVuSans-38" x="159.033203"/>
      </g>
     </g>
    </g>
    <g id="text_27">
     <!-- Shear Extension [mm] -->
     <g transform="translate(382.620312 275.120313) scale(0.1 -0.1)">
      <defs>
       <path id="DejaVuSans-53" d="M 3425 4513 
L 3425 3897 
Q 3066 4069 2747 4153 
Q 2428 4238 2131 4238 
Q 1616 4238 1336 4038 
Q 1056 3838 1056 3469 
Q 1056 3159 1242 3001 
Q 1428 2844 1947 2747 
L 2328 2669 
Q 3034 2534 3370 2195 
Q 3706 1856 3706 1288 
Q 3706 609 3251 259 
Q 2797 -91 1919 -91 
Q 1588 -91 1214 -16 
Q 841 59 441 206 
L 441 856 
Q 825 641 1194 531 
Q 1563 422 1919 422 
Q 2459 422 2753 634 
Q 3047 847 3047 1241 
Q 3047 1584 2836 1778 
Q 2625 1972 2144 2069 
L 1759 2144 
Q 1053 2284 737 2584 
Q 422 2884 422 3419 
Q 422 4038 858 4394 
Q 1294 4750 2059 4750 
Q 2388 4750 2728 4690 
Q 3069 4631 3425 4513 
z
" transform="scale(0.015625)"/>
       <path id="DejaVuSans-68" d="M 3513 2113 
L 3513 0 
L 2938 0 
L 2938 2094 
Q 2938 2591 2744 2837 
Q 2550 3084 2163 3084 
Q 1697 3084 1428 2787 
Q 1159 2491 1159 1978 
L 1159 0 
L 581 0 
L 581 4863 
L 1159 4863 
L 1159 2956 
Q 1366 3272 1645 3428 
Q 1925 3584 2291 3584 
Q 2894 3584 3203 3211 
Q 3513 2838 3513 2113 
z
" transform="scale(0.015625)"/>
      </defs>
      <use xlink:href="#DejaVuSans-53"/>
      <use xlink:href="#DejaVuSans-68" x="63.476562"/>
      <use xlink:href="#DejaVuSans-65" x="126.855469"/>
      <use xlink:href="#DejaVuSans-61" x="188.378906"/>
      <use xlink:href="#DejaVuSans-72" x="249.658203"/>
      <use xlink:href="#DejaVuSans-20" x="290.771484"/>
      <use xlink:href="#DejaVuSans-45" x="322.558594"/>
      <use xlink:href="#DejaVuSans-78" x="385.742188"/>
      <use xlink:href="#DejaVuSans-74" x="444.921875"/>
      <use xlink:href="#DejaVuSans-65" x="484.130859"/>
      <use xlink:href="#DejaVuSans-6e" x="545.654297"/>
      <use xlink:href="#DejaVuSans-73" x="609.033203"/>
      <use xlink:href="#DejaVuSans-69" x="661.132812"/>
      <use xlink:href="#DejaVuSans-6f" x="688.916016"/>
      <use xlink:href="#DejaVuSans-6e" x="750.097656"/>
      <use xlink:href="#DejaVuSans-20" x="813.476562"/>
      <use xlink:href="#DejaVuSans-5b" x="845.263672"/>
      <use xlink:href="#DejaVuSans-6d" x="884.277344"/>
      <use xlink:href="#DejaVuSans-6d" x="981.689453"/>
      <use xlink:href="#DejaVuSans-5d" x="1079.101562"/>
     </g>
    </g>
   </g>
   <g id="matplotlib.axis_4">
    <g id="ytick_7">
     <g id="line2d_29">
      <g>
       <use xlink:href="#ma3bd98abc7" x="311.851562" y="236.801676" style="stroke: #000000; stroke-width: 0.8"/>
      </g>
     </g>
    </g>
    <g id="ytick_8">
     <g id="line2d_30">
      <g>
       <use xlink:href="#ma3bd98abc7" x="311.851562" y="196.633381" style="stroke: #000000; stroke-width: 0.8"/>
      </g>
     </g>
    </g>
    <g id="ytick_9">
     <g id="line2d_31">
      <g>
       <use xlink:href="#ma3bd98abc7" x="311.851562" y="156.465085" style="stroke: #000000; stroke-width: 0.8"/>
      </g>
     </g>
    </g>
    <g id="ytick_10">
     <g id="line2d_32">
      <g>
       <use xlink:href="#ma3bd98abc7" x="311.851562" y="116.29679" style="stroke: #000000; stroke-width: 0.8"/>
      </g>
     </g>
    </g>
    <g id="ytick_11">
     <g id="line2d_33">
      <g>
       <use xlink:href="#ma3bd98abc7" x="311.851562" y="76.128494" style="stroke: #000000; stroke-width: 0.8"/>
      </g>
     </g>
    </g>
    <g id="ytick_12">
     <g id="line2d_34">
      <g>
       <use xlink:href="#ma3bd98abc7" x="311.851562" y="35.960199" style="stroke: #000000; stroke-width: 0.8"/>
      </g>
     </g>
    </g>
   </g>
   <g id="line2d_35">
    <path d="M 311.851562 236.801676 
L 565.2 236.801676 
" clip-path="url(#p598929b01f)" style="fill: none; stroke-dasharray: 2.775,1.2; stroke-dashoffset: 0; stroke: #808080; stroke-opacity: 0.75; stroke-width: 0.75"/>
   </g>
   <g id="line2d_36">
    <path d="M 325.185691 246.84375 
L 325.185691 25.918125 
" clip-path="url(#p598929b01f)" style="fill: none; stroke-dasharray: 2.775,1.2; stroke-dashoffset: 0; stroke: #808080; stroke-opacity: 0.75; stroke-width: 0.75"/>
   </g>
   <g id="line2d_37">
    <path d="M 325.188984 236.801676 
L 326.797673 234.772974 
L 328.45883 232.744273 
L 330.168771 230.715571 
L 331.92354 228.686869 
L 333.718995 226.658167 
L 335.550897 224.629465 
L 337.414993 222.600764 
L 339.307091 220.572062 
L 341.223113 218.54336 
L 343.159145 216.514658 
L 345.111458 214.485956 
L 347.076533 212.457255 
L 349.051062 210.428553 
L 351.031962 208.399851 
L 353.016375 206.371149 
L 355.001685 204.342447 
L 356.985525 202.313746 
L 358.965798 200.285044 
L 360.940689 198.256342 
L 362.908689 196.22764 
L 364.868606 194.198939 
L 366.819586 192.170237 
L 368.761116 190.141535 
L 370.693036 188.112833 
L 372.615536 186.084131 
L 374.529141 184.05543 
L 376.434693 182.026728 
L 378.33331 179.998026 
L 380.226343 177.969324 
L 382.115322 175.940622 
L 384.001895 173.911921 
L 385.887779 171.883219 
L 387.774704 169.854517 
L 389.664373 167.825815 
L 391.55842 165.797113 
L 393.458388 163.768412 
L 395.3657 161.73971 
L 397.281643 159.711008 
L 399.20735 157.682306 
L 401.143788 155.653605 
L 403.091739 153.624903 
L 405.051777 151.596201 
L 407.024239 149.567499 
L 409.009175 147.538797 
L 411.006302 145.510096 
L 413.014953 143.481394 
L 415.034045 141.452692 
L 417.062087 139.42399 
L 419.097236 137.395288 
L 421.137411 135.366587 
L 423.180461 133.337885 
L 425.224364 131.309183 
L 427.267422 129.280481 
L 429.308424 127.251779 
L 431.346731 125.223078 
L 433.382275 123.194376 
L 435.415448 121.165674 
L 437.446908 119.136972 
L 439.477324 117.10827 
L 441.507098 115.079569 
L 443.53612 113.050867 
L 445.563581 111.022165 
L 447.587904 108.993463 
L 449.606777 106.964762 
L 451.61732 104.93606 
L 453.616335 102.907358 
L 455.600618 100.878656 
L 457.56728 98.849954 
L 459.514028 96.821253 
L 461.439356 94.792551 
L 463.34264 92.763849 
L 465.22411 90.735147 
L 467.084727 88.706445 
L 468.925994 86.677744 
L 470.749746 84.649042 
L 472.557957 82.62034 
L 474.352605 80.591638 
L 476.135612 78.562936 
L 477.908863 76.534235 
L 479.674287 74.505533 
L 481.433968 72.476831 
L 483.190264 70.448129 
L 484.945884 68.419428 
L 486.703921 66.390726 
L 488.46782 64.362024 
L 490.241286 62.333322 
L 492.028161 60.30462 
L 493.832261 58.275919 
L 495.657211 56.247217 
L 497.506267 54.218515 
L 499.382146 52.189813 
L 501.286856 50.161111 
L 503.22154 48.13241 
L 505.186331 46.103708 
L 507.180255 44.075006 
L 509.201163 42.046304 
L 511.245734 40.017602 
L 513.309517 37.988901 
L 515.38703 35.960199 
" clip-path="url(#p598929b01f)" style="fill: none; stroke-dasharray: 3.7,1.6; stroke-dashoffset: 0; stroke: #008000"/>
   </g>
   <g id="line2d_38">
    <path d="M 325.182066 236.801676 
L 327.360796 234.772974 
L 329.529063 232.744273 
L 331.687434 230.715571 
L 333.833909 228.686869 
L 335.971595 226.658167 
L 338.098298 224.629465 
L 340.216096 222.600764 
L 342.325666 220.572062 
L 344.425811 218.54336 
L 346.517468 216.514658 
L 348.601326 214.485956 
L 350.677297 212.457255 
L 352.74666 210.428553 
L 354.809763 208.399851 
L 356.866029 206.371149 
L 358.916501 204.342447 
L 360.960645 202.313746 
L 362.998953 200.285044 
L 365.033786 198.256342 
L 367.062688 196.22764 
L 369.088616 194.198939 
L 371.109278 192.170237 
L 373.127414 190.141535 
L 375.142265 188.112833 
L 377.152875 186.084131 
L 379.161771 184.05543 
L 381.168297 182.026728 
L 383.174301 179.998026 
L 385.177018 177.969324 
L 387.178997 175.940622 
L 389.179923 173.911921 
L 391.179406 171.883219 
L 393.180063 169.854517 
L 395.178061 167.825815 
L 397.177835 165.797113 
L 399.177454 163.768412 
L 401.176556 161.73971 
L 403.177925 159.711008 
L 405.179804 157.682306 
L 407.182956 155.653605 
L 409.186939 153.624903 
L 411.192883 151.596201 
L 413.199995 149.567499 
L 415.209766 147.538797 
L 417.221551 145.510096 
L 419.234605 143.481394 
L 421.25091 141.452692 
L 423.26882 139.42399 
L 425.289972 137.395288 
L 427.31341 135.366587 
L 429.339007 133.337885 
L 431.368809 131.309183 
L 433.400197 129.280481 
L 435.435482 127.251779 
L 437.472318 125.223078 
L 439.513056 123.194376 
L 441.557316 121.165674 
L 443.604083 119.136972 
L 445.653483 117.10827 
L 447.705576 115.079569 
L 449.761506 113.050867 
L 451.820296 111.022165 
L 453.881393 108.993463 
L 455.945614 106.964762 
L 458.011702 104.93606 
L 460.080931 102.907358 
L 462.152322 100.878656 
L 464.227681 98.849954 
L 466.303613 96.821253 
L 468.382194 94.792551 
L 470.461577 92.763849 
L 472.545145 90.735147 
L 474.628386 88.706445 
L 476.713344 86.677744 
L 478.800176 84.649042 
L 480.887354 82.62034 
L 482.975745 80.591638 
L 485.064648 78.562936 
L 487.154862 76.534235 
L 489.244584 74.505533 
L 491.333663 72.476831 
L 493.422046 70.448129 
L 495.511232 68.419428 
L 497.598252 66.390726 
L 499.684039 64.362024 
L 501.76978 62.333322 
L 503.852041 60.30462 
L 505.933371 58.275919 
L 508.011446 56.247217 
L 510.086492 54.218515 
L 512.158869 52.189813 
L 514.227909 50.161111 
L 516.293476 48.13241 
L 518.354288 46.103708 
L 520.411037 44.075006 
L 522.46221 42.046304 
L 524.510593 40.017602 
L 526.550121 37.988901 
L 528.585021 35.960199 
" clip-path="url(#p598929b01f)" style="fill: none; stroke: #0000ff; stroke-width: 0.5; stroke-linecap: square"/>
   </g>
   <g id="line2d_39">
    <g clip-path="url(#p598929b01f)">
     <use xlink:href="#ma23185ab13" x="325.185691" y="236.801676" style="fill: #1f77b4; stroke: #1f77b4"/>
     <use xlink:href="#ma23185ab13" x="326.752226" y="234.243924" style="fill: #1f77b4; stroke: #1f77b4"/>
     <use xlink:href="#ma23185ab13" x="328.807152" y="232.042314" style="fill: #1f77b4; stroke: #1f77b4"/>
     <use xlink:href="#ma23185ab13" x="333.485433" y="229.096042" style="fill: #1f77b4; stroke: #1f77b4"/>
     <use xlink:href="#ma23185ab13" x="335.503415" y="226.279277" style="fill: #1f77b4; stroke: #1f77b4"/>
     <use xlink:href="#ma23185ab13" x="342.471349" y="221.390409" style="fill: #1f77b4; stroke: #1f77b4"/>
     <use xlink:href="#ma23185ab13" x="348.225058" y="216.080645" style="fill: #1f77b4; stroke: #1f77b4"/>
     <use xlink:href="#ma23185ab13" x="353.808755" y="210.608999" style="fill: #1f77b4; stroke: #1f77b4"/>
     <use xlink:href="#ma23185ab13" x="358.761966" y="204.263184" style="fill: #1f77b4; stroke: #1f77b4"/>
     <use xlink:href="#ma23185ab13" x="365.737967" y="197.690733" style="fill: #1f77b4; stroke: #1f77b4"/>
     <use xlink:href="#ma23185ab13" x="373.679982" y="190.049854" style="fill: #1f77b4; stroke: #1f77b4"/>
     <use xlink:href="#ma23185ab13" x="382.065707" y="182.052833" style="fill: #1f77b4; stroke: #1f77b4"/>
     <use xlink:href="#ma23185ab13" x="390.980165" y="173.278773" style="fill: #1f77b4; stroke: #1f77b4"/>
     <use xlink:href="#ma23185ab13" x="400.482938" y="164.763726" style="fill: #1f77b4; stroke: #1f77b4"/>
     <use xlink:href="#ma23185ab13" x="410.127556" y="155.924913" style="fill: #1f77b4; stroke: #1f77b4"/>
     <use xlink:href="#ma23185ab13" x="419.641103" y="147.215606" style="fill: #1f77b4; stroke: #1f77b4"/>
     <use xlink:href="#ma23185ab13" x="429.78463" y="137.146482" style="fill: #1f77b4; stroke: #1f77b4"/>
     <use xlink:href="#ma23185ab13" x="438.471493" y="127.789642" style="fill: #1f77b4; stroke: #1f77b4"/>
     <use xlink:href="#ma23185ab13" x="448.607641" y="118.756569" style="fill: #1f77b4; stroke: #1f77b4"/>
     <use xlink:href="#ma23185ab13" x="457.617853" y="109.140715" style="fill: #1f77b4; stroke: #1f77b4"/>
     <use xlink:href="#ma23185ab13" x="468.066314" y="99.524861" style="fill: #1f77b4; stroke: #1f77b4"/>
     <use xlink:href="#ma23185ab13" x="478.020445" y="90.459409" style="fill: #1f77b4; stroke: #1f77b4"/>
     <use xlink:href="#ma23185ab13" x="487.133245" y="80.390281" style="fill: #1f77b4; stroke: #1f77b4"/>
     <use xlink:href="#ma23185ab13" x="496.781935" y="71.162944" style="fill: #1f77b4; stroke: #1f77b4"/>
     <use xlink:href="#ma23185ab13" x="506.643205" y="62.453631" style="fill: #1f77b4; stroke: #1f77b4"/>
     <use xlink:href="#ma23185ab13" x="516.189128" y="52.708266" style="fill: #1f77b4; stroke: #1f77b4"/>
     <use xlink:href="#ma23185ab13" x="525.932467" y="43.707562" style="fill: #1f77b4; stroke: #1f77b4"/>
    </g>
   </g>
   <g id="line2d_40">
    <g clip-path="url(#p598929b01f)">
     <use xlink:href="#m0ee2e33915" x="336.168609" y="226.797303" style="fill: #ff7f0e; stroke: #ff7f0e"/>
     <use xlink:href="#m0ee2e33915" x="341.784017" y="220.710501" style="fill: #ff7f0e; stroke: #ff7f0e"/>
     <use xlink:href="#m0ee2e33915" x="348.470569" y="213.94379" style="fill: #ff7f0e; stroke: #ff7f0e"/>
     <use xlink:href="#m0ee2e33915" x="356.175021" y="206.529547" style="fill: #ff7f0e; stroke: #ff7f0e"/>
     <use xlink:href="#m0ee2e33915" x="364.623056" y="197.982123" style="fill: #ff7f0e; stroke: #ff7f0e"/>
     <use xlink:href="#m0ee2e33915" x="373.433145" y="189.110933" style="fill: #ff7f0e; stroke: #ff7f0e"/>
     <use xlink:href="#m0ee2e33915" x="382.266352" y="180.304497" style="fill: #ff7f0e; stroke: #ff7f0e"/>
     <use xlink:href="#m0ee2e33915" x="392.61871" y="171.368554" style="fill: #ff7f0e; stroke: #ff7f0e"/>
     <use xlink:href="#m0ee2e33915" x="400.642795" y="161.979339" style="fill: #ff7f0e; stroke: #ff7f0e"/>
     <use xlink:href="#m0ee2e33915" x="409.642721" y="152.687253" style="fill: #ff7f0e; stroke: #ff7f0e"/>
     <use xlink:href="#m0ee2e33915" x="418.763359" y="143.459921" style="fill: #ff7f0e; stroke: #ff7f0e"/>
     <use xlink:href="#m0ee2e33915" x="428.065312" y="133.973575" style="fill: #ff7f0e; stroke: #ff7f0e"/>
     <use xlink:href="#m0ee2e33915" x="437.295187" y="124.325346" style="fill: #ff7f0e; stroke: #ff7f0e"/>
     <use xlink:href="#m0ee2e33915" x="447.367034" y="113.997207" style="fill: #ff7f0e; stroke: #ff7f0e"/>
     <use xlink:href="#m0ee2e33915" x="456.659439" y="104.867003" style="fill: #ff7f0e; stroke: #ff7f0e"/>
     <use xlink:href="#m0ee2e33915" x="467.238988" y="95.186395" style="fill: #ff7f0e; stroke: #ff7f0e"/>
     <use xlink:href="#m0ee2e33915" x="475.747969" y="85.37628" style="fill: #ff7f0e; stroke: #ff7f0e"/>
     <use xlink:href="#m0ee2e33915" x="485.261186" y="76.116566" style="fill: #ff7f0e; stroke: #ff7f0e"/>
     <use xlink:href="#m0ee2e33915" x="494.036462" y="66.727345" style="fill: #ff7f0e; stroke: #ff7f0e"/>
     <use xlink:href="#m0ee2e33915" x="505.889889" y="57.208616" style="fill: #ff7f0e; stroke: #ff7f0e"/>
     <use xlink:href="#m0ee2e33915" x="512.961438" y="48.143159" style="fill: #ff7f0e; stroke: #ff7f0e"/>
    </g>
   </g>
   <g id="line2d_41">
    <g clip-path="url(#p598929b01f)">
     <use xlink:href="#m6fd1831d34" x="326.649659" y="235.474235" style="fill: #2ca02c; stroke: #2ca02c"/>
     <use xlink:href="#m6fd1831d34" x="328.949811" y="233.725898" style="fill: #2ca02c; stroke: #2ca02c"/>
     <use xlink:href="#m6fd1831d34" x="329.643182" y="232.333704" style="fill: #2ca02c; stroke: #2ca02c"/>
     <use xlink:href="#m6fd1831d34" x="332.311316" y="229.905458" style="fill: #2ca02c; stroke: #2ca02c"/>
     <use xlink:href="#m6fd1831d34" x="334.364962" y="226.991563" style="fill: #2ca02c; stroke: #2ca02c"/>
     <use xlink:href="#m6fd1831d34" x="338.485597" y="222.523591" style="fill: #2ca02c; stroke: #2ca02c"/>
     <use xlink:href="#m6fd1831d34" x="345.771286" y="216.663424" style="fill: #2ca02c; stroke: #2ca02c"/>
     <use xlink:href="#m6fd1831d34" x="351.246105" y="209.152051" style="fill: #2ca02c; stroke: #2ca02c"/>
     <use xlink:href="#m6fd1831d34" x="359.95795" y="201.090276" style="fill: #2ca02c; stroke: #2ca02c"/>
     <use xlink:href="#m6fd1831d34" x="369.542214" y="192.08958" style="fill: #2ca02c; stroke: #2ca02c"/>
     <use xlink:href="#m6fd1831d34" x="377.592125" y="183.736416" style="fill: #2ca02c; stroke: #2ca02c"/>
     <use xlink:href="#m6fd1831d34" x="385.66194" y="174.73572" style="fill: #2ca02c; stroke: #2ca02c"/>
     <use xlink:href="#m6fd1831d34" x="394.724834" y="165.735024" style="fill: #2ca02c; stroke: #2ca02c"/>
     <use xlink:href="#m6fd1831d34" x="403.784289" y="156.572445" style="fill: #2ca02c; stroke: #2ca02c"/>
     <use xlink:href="#m6fd1831d34" x="412.725923" y="147.150853" style="fill: #2ca02c; stroke: #2ca02c"/>
     <use xlink:href="#m6fd1831d34" x="421.709151" y="138.376793" style="fill: #2ca02c; stroke: #2ca02c"/>
     <use xlink:href="#m6fd1831d34" x="429.194651" y="128.825694" style="fill: #2ca02c; stroke: #2ca02c"/>
     <use xlink:href="#m6fd1831d34" x="440.49088" y="119.371724" style="fill: #2ca02c; stroke: #2ca02c"/>
     <use xlink:href="#m6fd1831d34" x="450.463662" y="109.755871" style="fill: #2ca02c; stroke: #2ca02c"/>
     <use xlink:href="#m6fd1831d34" x="458.308617" y="100.852303" style="fill: #2ca02c; stroke: #2ca02c"/>
     <use xlink:href="#m6fd1831d34" x="468.282005" y="91.624967" style="fill: #2ca02c; stroke: #2ca02c"/>
     <use xlink:href="#m6fd1831d34" x="477.843657" y="82.365255" style="fill: #2ca02c; stroke: #2ca02c"/>
     <use xlink:href="#m6fd1831d34" x="485.983101" y="73.332177" style="fill: #2ca02c; stroke: #2ca02c"/>
     <use xlink:href="#m6fd1831d34" x="493.537076" y="64.687619" style="fill: #2ca02c; stroke: #2ca02c"/>
     <use xlink:href="#m6fd1831d34" x="502.079339" y="56.107812" style="fill: #2ca02c; stroke: #2ca02c"/>
     <use xlink:href="#m6fd1831d34" x="511.346096" y="47.528005" style="fill: #2ca02c; stroke: #2ca02c"/>
     <use xlink:href="#m6fd1831d34" x="518.965809" y="39.239586" style="fill: #2ca02c; stroke: #2ca02c"/>
    </g>
   </g>
   <g id="patch_11">
    <path d="M 311.851562 246.84375 
L 311.851562 25.918125 
" style="fill: none; stroke: #000000; stroke-width: 0.8; stroke-linejoin: miter; stroke-linecap: square"/>
   </g>
   <g id="patch_12">
    <path d="M 565.2 246.84375 
L 565.2 25.918125 
" style="fill: none; stroke: #000000; stroke-width: 0.8; stroke-linejoin: miter; stroke-linecap: square"/>
   </g>
   <g id="patch_13">
    <path d="M 311.851562 246.84375 
L 565.2 246.84375 
" style="fill: none; stroke: #000000; stroke-width: 0.8; stroke-linejoin: miter; stroke-linecap: square"/>
   </g>
   <g id="patch_14">
    <path d="M 311.851562 25.918125 
L 565.2 25.918125 
" style="fill: none; stroke: #000000; stroke-width: 0.8; stroke-linejoin: miter; stroke-linecap: square"/>
   </g>
   <g id="text_28">
    <!-- Predictions ($45^\circ$) -->
    <g transform="translate(386.625781 19.918125) scale(0.12 -0.12)">
     <use xlink:href="#DejaVuSans-50" transform="translate(0 0.015625)"/>
     <use xlink:href="#DejaVuSans-72" transform="translate(60.302734 0.015625)"/>
     <use xlink:href="#DejaVuSans-65" transform="translate(101.416016 0.015625)"/>
     <use xlink:href="#DejaVuSans-64" transform="translate(162.939453 0.015625)"/>
     <use xlink:href="#DejaVuSans-69" transform="translate(226.416016 0.015625)"/>
     <use xlink:href="#DejaVuSans-63" transform="translate(254.199219 0.015625)"/>
     <use xlink:href="#DejaVuSans-74" transform="translate(309.179688 0.015625)"/>
     <use xlink:href="#DejaVuSans-69" transform="translate(348.388672 0.015625)"/>
     <use xlink:href="#DejaVuSans-6f" transform="translate(376.171875 0.015625)"/>
     <use xlink:href="#DejaVuSans-6e" transform="translate(437.353516 0.015625)"/>
     <use xlink:href="#DejaVuSans-73" transform="translate(500.732422 0.015625)"/>
     <use xlink:href="#DejaVuSans-20" transform="translate(552.832031 0.015625)"/>
     <use xlink:href="#DejaVuSans-28" transform="translate(584.619141 0.015625)"/>
     <use xlink:href="#DejaVuSans-34" transform="translate(623.632812 0.015625)"/>
     <use xlink:href="#DejaVuSans-35" transform="translate(687.255859 0.015625)"/>
     <use xlink:href="#DejaVuSans-2218" transform="translate(765.473633 38.296875) scale(0.7)"/>
     <use xlink:href="#DejaVuSans-29" transform="translate(825.664062 0.015625)"/>
    </g>
   </g>
  </g>
 </g>
 <defs>
  <clipPath id="pf2e14fd912">
   <rect x="44.203125" y="25.918125" width="253.348437" height="220.925625"/>
  </clipPath>
  <clipPath id="p598929b01f">
   <rect x="311.851562" y="25.918125" width="253.348437" height="220.925625"/>
  </clipPath>
 </defs>
</svg>
