<?xml version="1.0" encoding="utf-8" standalone="no"?>
<!DOCTYPE svg PUBLIC "-//W3C//DTD SVG 1.1//EN"
  "http://www.w3.org/Graphics/SVG/1.1/DTD/svg11.dtd">
<svg xmlns:xlink="http://www.w3.org/1999/xlink" width="576pt" height="288pt" viewBox="0 0 576 288" xmlns="http://www.w3.org/2000/svg" version="1.1">
 <metadata>
  <rdf:RDF xmlns:dc="http://purl.org/dc/elements/1.1/" xmlns:cc="http://creativecommons.org/ns#" xmlns:rdf="http://www.w3.org/1999/02/22-rdf-syntax-ns#">
   <cc:Work>
    <dc:type rdf:resource="http://purl.org/dc/dcmitype/StillImage"/>
    <dc:date>2024-11-24T11:27:39.313426</dc:date>
    <dc:format>image/svg+xml</dc:format>
    <dc:creator>
     <cc:Agent>
      <dc:title>Matplotlib v3.9.2, https://matplotlib.org/</dc:title>
     </cc:Agent>
    </dc:creator>
   </cc:Work>
  </rdf:RDF>
 </metadata>
 <defs>
  <style type="text/css">*{stroke-linejoin: round; stroke-linecap: butt}</style>
 </defs>
 <g id="figure_1">
  <g id="patch_1">
   <path d="M 0 288 
L 576 288 
L 576 0 
L 0 0 
z
" style="fill: #ffffff"/>
  </g>
  <g id="axes_1">
   <g id="patch_2">
    <path d="M 44.203125 246.84375 
L 294.957321 246.84375 
L 294.957321 25.918125 
L 44.203125 25.918125 
z
" style="fill: #ffffff"/>
   </g>
   <g id="PolyCollection_1">
    <defs>
     <path id="mc2e8f9835d" d="M 71.120318 -51.198324 
L 71.017173 -51.198324 
L 68.539271 -53.227026 
L 66.349714 -55.255727 
L 64.448503 -57.284429 
L 62.835638 -59.313131 
L 61.511119 -61.341833 
L 60.362441 -63.370535 
L 59.277099 -65.399236 
L 58.255094 -67.427938 
L 57.296426 -69.45664 
L 56.401094 -71.485342 
L 55.569099 -73.514044 
L 54.80044 -75.542745 
L 54.095118 -77.571447 
L 53.509443 -79.600149 
L 53.099724 -81.628851 
L 52.865963 -83.657553 
L 52.808159 -85.686254 
L 52.926311 -87.714956 
L 53.220421 -89.743658 
L 53.690487 -91.77236 
L 54.336511 -93.801061 
L 55.063518 -95.829763 
L 55.776534 -97.858465 
L 56.475561 -99.887167 
L 57.160598 -101.915869 
L 57.831645 -103.94457 
L 58.488702 -105.973272 
L 59.131769 -108.001974 
L 59.760846 -110.030676 
L 60.304372 -112.059378 
L 60.690786 -114.088079 
L 60.920089 -116.116781 
L 60.992281 -118.145483 
L 60.90736 -120.174185 
L 60.665328 -122.202887 
L 60.266185 -124.231588 
L 59.70993 -126.26029 
L 59.159993 -128.288992 
L 58.779803 -130.317694 
L 58.569361 -132.346395 
L 58.528667 -134.375097 
L 58.65772 -136.403799 
L 58.95652 -138.432501 
L 59.425068 -140.461203 
L 60.063364 -142.489904 
L 60.714323 -144.518606 
L 61.22086 -146.547308 
L 61.582977 -148.57601 
L 61.800673 -150.604712 
L 61.873948 -152.633413 
L 61.802802 -154.662115 
L 61.587235 -156.690817 
L 61.227247 -158.719519 
L 60.794763 -160.748221 
L 60.361709 -162.776922 
L 59.928084 -164.805624 
L 59.493889 -166.834326 
L 59.059124 -168.863028 
L 58.623788 -170.89173 
L 58.187882 -172.920431 
L 57.751405 -174.949133 
L 57.294974 -176.977835 
L 56.799205 -179.006537 
L 56.264098 -181.035238 
L 55.689653 -183.06394 
L 55.07587 -185.092642 
L 54.42275 -187.121344 
L 53.730291 -189.150046 
L 52.998494 -191.178747 
L 52.25933 -193.207449 
L 51.544769 -195.236151 
L 50.85481 -197.264853 
L 50.189454 -199.293555 
L 49.548701 -201.322256 
L 48.932551 -203.350958 
L 48.341004 -205.37966 
L 47.774059 -207.408362 
L 47.2476 -209.437064 
L 46.777509 -211.465765 
L 46.363785 -213.494467 
L 46.006429 -215.523169 
L 45.705441 -217.551871 
L 45.460821 -219.580572 
L 45.272568 -221.609274 
L 45.140684 -223.637976 
L 45.097587 -225.666678 
L 45.175697 -227.69538 
L 45.375016 -229.724081 
L 45.695542 -231.752783 
L 46.137276 -233.781485 
L 46.700217 -235.810187 
L 47.384366 -237.838889 
L 48.189723 -239.86759 
L 49.116288 -241.896292 
L 50.16406 -243.924994 
L 51.33304 -245.953696 
L 52.623228 -247.982398 
L 54.034623 -250.011099 
L 55.567226 -252.039801 
L 92.0847 -252.039801 
L 92.0847 -252.039801 
L 93.947978 -250.011099 
L 95.649523 -247.982398 
L 97.189336 -245.953696 
L 98.567415 -243.924994 
L 99.783762 -241.896292 
L 100.838377 -239.86759 
L 101.731258 -237.838889 
L 102.462407 -235.810187 
L 103.031823 -233.781485 
L 103.439506 -231.752783 
L 103.685456 -229.724081 
L 103.769674 -227.69538 
L 103.692159 -225.666678 
L 103.452911 -223.637976 
L 103.05193 -221.609274 
L 102.555635 -219.580572 
L 102.030441 -217.551871 
L 101.476349 -215.523169 
L 100.89336 -213.494467 
L 100.281473 -211.465765 
L 99.640687 -209.437064 
L 98.971004 -207.408362 
L 98.272423 -205.37966 
L 97.529831 -203.350958 
L 96.728112 -201.322256 
L 95.867268 -199.293555 
L 94.947298 -197.264853 
L 93.968203 -195.236151 
L 92.929982 -193.207449 
L 91.832635 -191.178747 
L 90.676163 -189.150046 
L 89.554526 -187.121344 
L 88.561685 -185.092642 
L 87.69764 -183.06394 
L 86.962392 -181.035238 
L 86.355939 -179.006537 
L 85.878283 -176.977835 
L 85.529424 -174.949133 
L 85.30936 -172.920431 
L 85.142151 -170.89173 
L 84.951856 -168.863028 
L 84.738474 -166.834326 
L 84.502005 -164.805624 
L 84.24245 -162.776922 
L 83.959809 -160.748221 
L 83.65408 -158.719519 
L 83.325265 -156.690817 
L 83.03437 -154.662115 
L 82.8424 -152.633413 
L 82.749354 -150.604712 
L 82.755234 -148.57601 
L 82.86004 -146.547308 
L 83.06377 -144.518606 
L 83.366426 -142.489904 
L 83.768007 -140.461203 
L 84.145465 -138.432501 
L 84.375752 -136.403799 
L 84.458868 -134.375097 
L 84.394813 -132.346395 
L 84.183587 -130.317694 
L 83.82519 -128.288992 
L 83.319622 -126.26029 
L 82.666884 -124.231588 
L 82.025282 -122.202887 
L 81.553125 -120.174185 
L 81.250413 -118.145483 
L 81.117145 -116.116781 
L 81.153323 -114.088079 
L 81.358945 -112.059378 
L 81.734012 -110.030676 
L 82.278523 -108.001974 
L 82.896115 -105.973272 
L 83.490421 -103.94457 
L 84.061443 -101.915869 
L 84.60918 -99.887167 
L 85.133633 -97.858465 
L 85.6348 -95.829763 
L 86.112683 -93.801061 
L 86.56728 -91.77236 
L 86.953408 -89.743658 
L 87.225881 -87.714956 
L 87.384699 -85.686254 
L 87.429863 -83.657553 
L 87.361371 -81.628851 
L 87.179225 -79.600149 
L 86.883424 -77.571447 
L 86.473968 -75.542745 
L 85.939919 -73.514044 
L 85.270338 -71.485342 
L 84.465227 -69.45664 
L 83.524584 -67.427938 
L 82.44841 -65.399236 
L 81.236705 -63.370535 
L 79.889468 -61.341833 
L 78.406701 -59.313131 
L 76.788402 -57.284429 
L 75.034572 -55.255727 
L 73.14521 -53.227026 
L 71.120318 -51.198324 
z
" style="stroke: #90ee90; stroke-opacity: 0.75"/>
    </defs>
    <g clip-path="url(#p6e5465be63)">
     <use xlink:href="#mc2e8f9835d" x="0" y="288" style="fill: #90ee90; fill-opacity: 0.75; stroke: #90ee90; stroke-opacity: 0.75"/>
    </g>
   </g>
   <g id="PolyCollection_2">
    <defs>
     <path id="m74f5139c03" d="M 71.1126 -51.198324 
L 71.008137 -51.198324 
L 71.062331 -53.227026 
L 71.093071 -55.255727 
L 71.118359 -57.284429 
L 71.133103 -59.313131 
L 71.153325 -61.341833 
L 71.171601 -63.370535 
L 71.186623 -65.399236 
L 71.201219 -67.427938 
L 71.212869 -69.45664 
L 71.217914 -71.485342 
L 71.22847 -73.514044 
L 71.240809 -75.542745 
L 71.243136 -77.571447 
L 71.249688 -79.600149 
L 71.251217 -81.628851 
L 71.255658 -83.657553 
L 71.254293 -85.686254 
L 71.251759 -87.714956 
L 71.251727 -89.743658 
L 71.250036 -91.77236 
L 71.244592 -93.801061 
L 71.237165 -95.829763 
L 71.232215 -97.858465 
L 71.222083 -99.887167 
L 71.21648 -101.915869 
L 71.197682 -103.94457 
L 71.195268 -105.973272 
L 71.186134 -108.001974 
L 71.165163 -110.030676 
L 71.14477 -112.059378 
L 71.122817 -114.088079 
L 71.117209 -116.116781 
L 71.099085 -118.145483 
L 71.082157 -120.174185 
L 71.069512 -122.202887 
L 71.051324 -124.231588 
L 71.040641 -126.26029 
L 71.008904 -128.288992 
L 71.000131 -130.317694 
L 70.97588 -132.346395 
L 70.957551 -134.375097 
L 70.92937 -136.403799 
L 70.90298 -138.432501 
L 70.894764 -140.461203 
L 70.883617 -142.489904 
L 70.855279 -144.518606 
L 70.836501 -146.547308 
L 70.822349 -148.57601 
L 70.798047 -150.604712 
L 70.781149 -152.633413 
L 70.757018 -154.662115 
L 70.754687 -156.690817 
L 70.725745 -158.719519 
L 70.692167 -160.748221 
L 70.666692 -162.776922 
L 70.641391 -164.805624 
L 70.619961 -166.834326 
L 70.598078 -168.863028 
L 70.581096 -170.89173 
L 70.564072 -172.920431 
L 70.542417 -174.949133 
L 70.507072 -176.977835 
L 70.50446 -179.006537 
L 70.486623 -181.035238 
L 70.45123 -183.06394 
L 70.430333 -185.092642 
L 70.418481 -187.121344 
L 70.379209 -189.150046 
L 70.361102 -191.178747 
L 70.33986 -193.207449 
L 70.309023 -195.236151 
L 70.291878 -197.264853 
L 70.269118 -199.293555 
L 70.252599 -201.322256 
L 70.225905 -203.350958 
L 70.190592 -205.37966 
L 70.166252 -207.408362 
L 70.143363 -209.437064 
L 70.105623 -211.465765 
L 70.077951 -213.494467 
L 70.057763 -215.523169 
L 70.029286 -217.551871 
L 69.99511 -219.580572 
L 69.969559 -221.609274 
L 69.949026 -223.637976 
L 69.917459 -225.666678 
L 69.871411 -227.69538 
L 69.837927 -229.724081 
L 69.803978 -231.752783 
L 69.761432 -233.781485 
L 69.724997 -235.810187 
L 69.68449 -237.838889 
L 69.643835 -239.86759 
L 69.606776 -241.896292 
L 69.55713 -243.924994 
L 69.501949 -245.953696 
L 69.466197 -247.982398 
L 69.397493 -250.011099 
L 69.337468 -252.039801 
L 76.210651 -252.039801 
L 76.210651 -252.039801 
L 76.190838 -250.011099 
L 76.181972 -247.982398 
L 76.144717 -245.953696 
L 76.123805 -243.924994 
L 76.098939 -241.896292 
L 76.07158 -239.86759 
L 76.035395 -237.838889 
L 75.988485 -235.810187 
L 75.966432 -233.781485 
L 75.931527 -231.752783 
L 75.894207 -229.724081 
L 75.85948 -227.69538 
L 75.821991 -225.666678 
L 75.782461 -223.637976 
L 75.743976 -221.609274 
L 75.692389 -219.580572 
L 75.658381 -217.551871 
L 75.632274 -215.523169 
L 75.581542 -213.494467 
L 75.546894 -211.465765 
L 75.511854 -209.437064 
L 75.463867 -207.408362 
L 75.423095 -205.37966 
L 75.379975 -203.350958 
L 75.328319 -201.322256 
L 75.286795 -199.293555 
L 75.244246 -197.264853 
L 75.188357 -195.236151 
L 75.157537 -193.207449 
L 75.112561 -191.178747 
L 75.063281 -189.150046 
L 75.000861 -187.121344 
L 74.972034 -185.092642 
L 74.92071 -183.06394 
L 74.87648 -181.035238 
L 74.825702 -179.006537 
L 74.776997 -176.977835 
L 74.730496 -174.949133 
L 74.682973 -172.920431 
L 74.626133 -170.89173 
L 74.575767 -168.863028 
L 74.542317 -166.834326 
L 74.510618 -164.805624 
L 74.440251 -162.776922 
L 74.40229 -160.748221 
L 74.362175 -158.719519 
L 74.313913 -156.690817 
L 74.261512 -154.662115 
L 74.222222 -152.633413 
L 74.176286 -150.604712 
L 74.131556 -148.57601 
L 74.083579 -146.547308 
L 74.033062 -144.518606 
L 73.984168 -142.489904 
L 73.950549 -140.461203 
L 73.891728 -138.432501 
L 73.858921 -136.403799 
L 73.804749 -134.375097 
L 73.764523 -132.346395 
L 73.71817 -130.317694 
L 73.674835 -128.288992 
L 73.621923 -126.26029 
L 73.575532 -124.231588 
L 73.540304 -122.202887 
L 73.489086 -120.174185 
L 73.436387 -118.145483 
L 73.390395 -116.116781 
L 73.342719 -114.088079 
L 73.288197 -112.059378 
L 73.247752 -110.030676 
L 73.197644 -108.001974 
L 73.146297 -105.973272 
L 73.090404 -103.94457 
L 73.039338 -101.915869 
L 72.987101 -99.887167 
L 72.938849 -97.858465 
L 72.882764 -95.829763 
L 72.821688 -93.801061 
L 72.765406 -91.77236 
L 72.70525 -89.743658 
L 72.64876 -87.714956 
L 72.590756 -85.686254 
L 72.525612 -83.657553 
L 72.456873 -81.628851 
L 72.39945 -79.600149 
L 72.318919 -77.571447 
L 72.24485 -75.542745 
L 72.174906 -73.514044 
L 72.097097 -71.485342 
L 72.0135 -69.45664 
L 71.92566 -67.427938 
L 71.836235 -65.399236 
L 71.7452 -63.370535 
L 71.649156 -61.341833 
L 71.542088 -59.313131 
L 71.434752 -57.284429 
L 71.320541 -55.255727 
L 71.207485 -53.227026 
L 71.1126 -51.198324 
z
" style="stroke: #6495ed; stroke-opacity: 0.75"/>
    </defs>
    <g clip-path="url(#p6e5465be63)">
     <use xlink:href="#m74f5139c03" x="0" y="288" style="fill: #6495ed; fill-opacity: 0.75; stroke: #6495ed; stroke-opacity: 0.75"/>
    </g>
   </g>
   <g id="matplotlib.axis_1">
    <g id="xtick_1">
     <g id="line2d_1">
      <defs>
       <path id="m82ed9e0fd7" d="M 0 0 
L 0 3.5 
" style="stroke: #000000; stroke-width: 0.8"/>
      </defs>
      <g>
       <use xlink:href="#m82ed9e0fd7" x="71.069646" y="246.84375" style="stroke: #000000; stroke-width: 0.8"/>
      </g>
     </g>
     <g id="text_1">
      <!-- 0.00 -->
      <g transform="translate(59.936834 261.442187) scale(0.1 -0.1)">
       <defs>
        <path id="DejaVuSans-30" d="M 2034 4250 
Q 1547 4250 1301 3770 
Q 1056 3291 1056 2328 
Q 1056 1369 1301 889 
Q 1547 409 2034 409 
Q 2525 409 2770 889 
Q 3016 1369 3016 2328 
Q 3016 3291 2770 3770 
Q 2525 4250 2034 4250 
z
M 2034 4750 
Q 2819 4750 3233 4129 
Q 3647 3509 3647 2328 
Q 3647 1150 3233 529 
Q 2819 -91 2034 -91 
Q 1250 -91 836 529 
Q 422 1150 422 2328 
Q 422 3509 836 4129 
Q 1250 4750 2034 4750 
z
" transform="scale(0.015625)"/>
        <path id="DejaVuSans-2e" d="M 684 794 
L 1344 794 
L 1344 0 
L 684 0 
L 684 794 
z
" transform="scale(0.015625)"/>
       </defs>
       <use xlink:href="#DejaVuSans-30"/>
       <use xlink:href="#DejaVuSans-2e" x="63.623047"/>
       <use xlink:href="#DejaVuSans-30" x="95.410156"/>
       <use xlink:href="#DejaVuSans-30" x="159.033203"/>
      </g>
     </g>
    </g>
    <g id="xtick_2">
     <g id="line2d_2">
      <g>
       <use xlink:href="#m82ed9e0fd7" x="106.891674" y="246.84375" style="stroke: #000000; stroke-width: 0.8"/>
      </g>
     </g>
     <g id="text_2">
      <!-- 0.02 -->
      <g transform="translate(95.758862 261.442187) scale(0.1 -0.1)">
       <defs>
        <path id="DejaVuSans-32" d="M 1228 531 
L 3431 531 
L 3431 0 
L 469 0 
L 469 531 
Q 828 903 1448 1529 
Q 2069 2156 2228 2338 
Q 2531 2678 2651 2914 
Q 2772 3150 2772 3378 
Q 2772 3750 2511 3984 
Q 2250 4219 1831 4219 
Q 1534 4219 1204 4116 
Q 875 4013 500 3803 
L 500 4441 
Q 881 4594 1212 4672 
Q 1544 4750 1819 4750 
Q 2544 4750 2975 4387 
Q 3406 4025 3406 3419 
Q 3406 3131 3298 2873 
Q 3191 2616 2906 2266 
Q 2828 2175 2409 1742 
Q 1991 1309 1228 531 
z
" transform="scale(0.015625)"/>
       </defs>
       <use xlink:href="#DejaVuSans-30"/>
       <use xlink:href="#DejaVuSans-2e" x="63.623047"/>
       <use xlink:href="#DejaVuSans-30" x="95.410156"/>
       <use xlink:href="#DejaVuSans-32" x="159.033203"/>
      </g>
     </g>
    </g>
    <g id="xtick_3">
     <g id="line2d_3">
      <g>
       <use xlink:href="#m82ed9e0fd7" x="142.713702" y="246.84375" style="stroke: #000000; stroke-width: 0.8"/>
      </g>
     </g>
     <g id="text_3">
      <!-- 0.04 -->
      <g transform="translate(131.58089 261.442187) scale(0.1 -0.1)">
       <defs>
        <path id="DejaVuSans-34" d="M 2419 4116 
L 825 1625 
L 2419 1625 
L 2419 4116 
z
M 2253 4666 
L 3047 4666 
L 3047 1625 
L 3713 1625 
L 3713 1100 
L 3047 1100 
L 3047 0 
L 2419 0 
L 2419 1100 
L 313 1100 
L 313 1709 
L 2253 4666 
z
" transform="scale(0.015625)"/>
       </defs>
       <use xlink:href="#DejaVuSans-30"/>
       <use xlink:href="#DejaVuSans-2e" x="63.623047"/>
       <use xlink:href="#DejaVuSans-30" x="95.410156"/>
       <use xlink:href="#DejaVuSans-34" x="159.033203"/>
      </g>
     </g>
    </g>
    <g id="xtick_4">
     <g id="line2d_4">
      <g>
       <use xlink:href="#m82ed9e0fd7" x="178.53573" y="246.84375" style="stroke: #000000; stroke-width: 0.8"/>
      </g>
     </g>
     <g id="text_4">
      <!-- 0.06 -->
      <g transform="translate(167.402918 261.442187) scale(0.1 -0.1)">
       <defs>
        <path id="DejaVuSans-36" d="M 2113 2584 
Q 1688 2584 1439 2293 
Q 1191 2003 1191 1497 
Q 1191 994 1439 701 
Q 1688 409 2113 409 
Q 2538 409 2786 701 
Q 3034 994 3034 1497 
Q 3034 2003 2786 2293 
Q 2538 2584 2113 2584 
z
M 3366 4563 
L 3366 3988 
Q 3128 4100 2886 4159 
Q 2644 4219 2406 4219 
Q 1781 4219 1451 3797 
Q 1122 3375 1075 2522 
Q 1259 2794 1537 2939 
Q 1816 3084 2150 3084 
Q 2853 3084 3261 2657 
Q 3669 2231 3669 1497 
Q 3669 778 3244 343 
Q 2819 -91 2113 -91 
Q 1303 -91 875 529 
Q 447 1150 447 2328 
Q 447 3434 972 4092 
Q 1497 4750 2381 4750 
Q 2619 4750 2861 4703 
Q 3103 4656 3366 4563 
z
" transform="scale(0.015625)"/>
       </defs>
       <use xlink:href="#DejaVuSans-30"/>
       <use xlink:href="#DejaVuSans-2e" x="63.623047"/>
       <use xlink:href="#DejaVuSans-30" x="95.410156"/>
       <use xlink:href="#DejaVuSans-36" x="159.033203"/>
      </g>
     </g>
    </g>
    <g id="xtick_5">
     <g id="line2d_5">
      <g>
       <use xlink:href="#m82ed9e0fd7" x="214.357758" y="246.84375" style="stroke: #000000; stroke-width: 0.8"/>
      </g>
     </g>
     <g id="text_5">
      <!-- 0.08 -->
      <g transform="translate(203.224946 261.442187) scale(0.1 -0.1)">
       <defs>
        <path id="DejaVuSans-38" d="M 2034 2216 
Q 1584 2216 1326 1975 
Q 1069 1734 1069 1313 
Q 1069 891 1326 650 
Q 1584 409 2034 409 
Q 2484 409 2743 651 
Q 3003 894 3003 1313 
Q 3003 1734 2745 1975 
Q 2488 2216 2034 2216 
z
M 1403 2484 
Q 997 2584 770 2862 
Q 544 3141 544 3541 
Q 544 4100 942 4425 
Q 1341 4750 2034 4750 
Q 2731 4750 3128 4425 
Q 3525 4100 3525 3541 
Q 3525 3141 3298 2862 
Q 3072 2584 2669 2484 
Q 3125 2378 3379 2068 
Q 3634 1759 3634 1313 
Q 3634 634 3220 271 
Q 2806 -91 2034 -91 
Q 1263 -91 848 271 
Q 434 634 434 1313 
Q 434 1759 690 2068 
Q 947 2378 1403 2484 
z
M 1172 3481 
Q 1172 3119 1398 2916 
Q 1625 2713 2034 2713 
Q 2441 2713 2670 2916 
Q 2900 3119 2900 3481 
Q 2900 3844 2670 4047 
Q 2441 4250 2034 4250 
Q 1625 4250 1398 4047 
Q 1172 3844 1172 3481 
z
" transform="scale(0.015625)"/>
       </defs>
       <use xlink:href="#DejaVuSans-30"/>
       <use xlink:href="#DejaVuSans-2e" x="63.623047"/>
       <use xlink:href="#DejaVuSans-30" x="95.410156"/>
       <use xlink:href="#DejaVuSans-38" x="159.033203"/>
      </g>
     </g>
    </g>
    <g id="xtick_6">
     <g id="line2d_6">
      <g>
       <use xlink:href="#m82ed9e0fd7" x="250.179786" y="246.84375" style="stroke: #000000; stroke-width: 0.8"/>
      </g>
     </g>
     <g id="text_6">
      <!-- 0.10 -->
      <g transform="translate(239.046974 261.442187) scale(0.1 -0.1)">
       <defs>
        <path id="DejaVuSans-31" d="M 794 531 
L 1825 531 
L 1825 4091 
L 703 3866 
L 703 4441 
L 1819 4666 
L 2450 4666 
L 2450 531 
L 3481 531 
L 3481 0 
L 794 0 
L 794 531 
z
" transform="scale(0.015625)"/>
       </defs>
       <use xlink:href="#DejaVuSans-30"/>
       <use xlink:href="#DejaVuSans-2e" x="63.623047"/>
       <use xlink:href="#DejaVuSans-31" x="95.410156"/>
       <use xlink:href="#DejaVuSans-30" x="159.033203"/>
      </g>
     </g>
    </g>
    <g id="xtick_7">
     <g id="line2d_7">
      <g>
       <use xlink:href="#m82ed9e0fd7" x="286.001814" y="246.84375" style="stroke: #000000; stroke-width: 0.8"/>
      </g>
     </g>
     <g id="text_7">
      <!-- 0.12 -->
      <g transform="translate(274.869002 261.442187) scale(0.1 -0.1)">
       <use xlink:href="#DejaVuSans-30"/>
       <use xlink:href="#DejaVuSans-2e" x="63.623047"/>
       <use xlink:href="#DejaVuSans-31" x="95.410156"/>
       <use xlink:href="#DejaVuSans-32" x="159.033203"/>
      </g>
     </g>
    </g>
    <g id="text_8">
     <!-- Normal Extension [mm] -->
     <g transform="translate(110.122411 275.120313) scale(0.1 -0.1)">
      <defs>
       <path id="DejaVuSans-4e" d="M 628 4666 
L 1478 4666 
L 3547 763 
L 3547 4666 
L 4159 4666 
L 4159 0 
L 3309 0 
L 1241 3903 
L 1241 0 
L 628 0 
L 628 4666 
z
" transform="scale(0.015625)"/>
       <path id="DejaVuSans-6f" d="M 1959 3097 
Q 1497 3097 1228 2736 
Q 959 2375 959 1747 
Q 959 1119 1226 758 
Q 1494 397 1959 397 
Q 2419 397 2687 759 
Q 2956 1122 2956 1747 
Q 2956 2369 2687 2733 
Q 2419 3097 1959 3097 
z
M 1959 3584 
Q 2709 3584 3137 3096 
Q 3566 2609 3566 1747 
Q 3566 888 3137 398 
Q 2709 -91 1959 -91 
Q 1206 -91 779 398 
Q 353 888 353 1747 
Q 353 2609 779 3096 
Q 1206 3584 1959 3584 
z
" transform="scale(0.015625)"/>
       <path id="DejaVuSans-72" d="M 2631 2963 
Q 2534 3019 2420 3045 
Q 2306 3072 2169 3072 
Q 1681 3072 1420 2755 
Q 1159 2438 1159 1844 
L 1159 0 
L 581 0 
L 581 3500 
L 1159 3500 
L 1159 2956 
Q 1341 3275 1631 3429 
Q 1922 3584 2338 3584 
Q 2397 3584 2469 3576 
Q 2541 3569 2628 3553 
L 2631 2963 
z
" transform="scale(0.015625)"/>
       <path id="DejaVuSans-6d" d="M 3328 2828 
Q 3544 3216 3844 3400 
Q 4144 3584 4550 3584 
Q 5097 3584 5394 3201 
Q 5691 2819 5691 2113 
L 5691 0 
L 5113 0 
L 5113 2094 
Q 5113 2597 4934 2840 
Q 4756 3084 4391 3084 
Q 3944 3084 3684 2787 
Q 3425 2491 3425 1978 
L 3425 0 
L 2847 0 
L 2847 2094 
Q 2847 2600 2669 2842 
Q 2491 3084 2119 3084 
Q 1678 3084 1418 2786 
Q 1159 2488 1159 1978 
L 1159 0 
L 581 0 
L 581 3500 
L 1159 3500 
L 1159 2956 
Q 1356 3278 1631 3431 
Q 1906 3584 2284 3584 
Q 2666 3584 2933 3390 
Q 3200 3197 3328 2828 
z
" transform="scale(0.015625)"/>
       <path id="DejaVuSans-61" d="M 2194 1759 
Q 1497 1759 1228 1600 
Q 959 1441 959 1056 
Q 959 750 1161 570 
Q 1363 391 1709 391 
Q 2188 391 2477 730 
Q 2766 1069 2766 1631 
L 2766 1759 
L 2194 1759 
z
M 3341 1997 
L 3341 0 
L 2766 0 
L 2766 531 
Q 2569 213 2275 61 
Q 1981 -91 1556 -91 
Q 1019 -91 701 211 
Q 384 513 384 1019 
Q 384 1609 779 1909 
Q 1175 2209 1959 2209 
L 2766 2209 
L 2766 2266 
Q 2766 2663 2505 2880 
Q 2244 3097 1772 3097 
Q 1472 3097 1187 3025 
Q 903 2953 641 2809 
L 641 3341 
Q 956 3463 1253 3523 
Q 1550 3584 1831 3584 
Q 2591 3584 2966 3190 
Q 3341 2797 3341 1997 
z
" transform="scale(0.015625)"/>
       <path id="DejaVuSans-6c" d="M 603 4863 
L 1178 4863 
L 1178 0 
L 603 0 
L 603 4863 
z
" transform="scale(0.015625)"/>
       <path id="DejaVuSans-20" transform="scale(0.015625)"/>
       <path id="DejaVuSans-45" d="M 628 4666 
L 3578 4666 
L 3578 4134 
L 1259 4134 
L 1259 2753 
L 3481 2753 
L 3481 2222 
L 1259 2222 
L 1259 531 
L 3634 531 
L 3634 0 
L 628 0 
L 628 4666 
z
" transform="scale(0.015625)"/>
       <path id="DejaVuSans-78" d="M 3513 3500 
L 2247 1797 
L 3578 0 
L 2900 0 
L 1881 1375 
L 863 0 
L 184 0 
L 1544 1831 
L 300 3500 
L 978 3500 
L 1906 2253 
L 2834 3500 
L 3513 3500 
z
" transform="scale(0.015625)"/>
       <path id="DejaVuSans-74" d="M 1172 4494 
L 1172 3500 
L 2356 3500 
L 2356 3053 
L 1172 3053 
L 1172 1153 
Q 1172 725 1289 603 
Q 1406 481 1766 481 
L 2356 481 
L 2356 0 
L 1766 0 
Q 1100 0 847 248 
Q 594 497 594 1153 
L 594 3053 
L 172 3053 
L 172 3500 
L 594 3500 
L 594 4494 
L 1172 4494 
z
" transform="scale(0.015625)"/>
       <path id="DejaVuSans-65" d="M 3597 1894 
L 3597 1613 
L 953 1613 
Q 991 1019 1311 708 
Q 1631 397 2203 397 
Q 2534 397 2845 478 
Q 3156 559 3463 722 
L 3463 178 
Q 3153 47 2828 -22 
Q 2503 -91 2169 -91 
Q 1331 -91 842 396 
Q 353 884 353 1716 
Q 353 2575 817 3079 
Q 1281 3584 2069 3584 
Q 2775 3584 3186 3129 
Q 3597 2675 3597 1894 
z
M 3022 2063 
Q 3016 2534 2758 2815 
Q 2500 3097 2075 3097 
Q 1594 3097 1305 2825 
Q 1016 2553 972 2059 
L 3022 2063 
z
" transform="scale(0.015625)"/>
       <path id="DejaVuSans-6e" d="M 3513 2113 
L 3513 0 
L 2938 0 
L 2938 2094 
Q 2938 2591 2744 2837 
Q 2550 3084 2163 3084 
Q 1697 3084 1428 2787 
Q 1159 2491 1159 1978 
L 1159 0 
L 581 0 
L 581 3500 
L 1159 3500 
L 1159 2956 
Q 1366 3272 1645 3428 
Q 1925 3584 2291 3584 
Q 2894 3584 3203 3211 
Q 3513 2838 3513 2113 
z
" transform="scale(0.015625)"/>
       <path id="DejaVuSans-73" d="M 2834 3397 
L 2834 2853 
Q 2591 2978 2328 3040 
Q 2066 3103 1784 3103 
Q 1356 3103 1142 2972 
Q 928 2841 928 2578 
Q 928 2378 1081 2264 
Q 1234 2150 1697 2047 
L 1894 2003 
Q 2506 1872 2764 1633 
Q 3022 1394 3022 966 
Q 3022 478 2636 193 
Q 2250 -91 1575 -91 
Q 1294 -91 989 -36 
Q 684 19 347 128 
L 347 722 
Q 666 556 975 473 
Q 1284 391 1588 391 
Q 1994 391 2212 530 
Q 2431 669 2431 922 
Q 2431 1156 2273 1281 
Q 2116 1406 1581 1522 
L 1381 1569 
Q 847 1681 609 1914 
Q 372 2147 372 2553 
Q 372 3047 722 3315 
Q 1072 3584 1716 3584 
Q 2034 3584 2315 3537 
Q 2597 3491 2834 3397 
z
" transform="scale(0.015625)"/>
       <path id="DejaVuSans-69" d="M 603 3500 
L 1178 3500 
L 1178 0 
L 603 0 
L 603 3500 
z
M 603 4863 
L 1178 4863 
L 1178 4134 
L 603 4134 
L 603 4863 
z
" transform="scale(0.015625)"/>
       <path id="DejaVuSans-5b" d="M 550 4863 
L 1875 4863 
L 1875 4416 
L 1125 4416 
L 1125 -397 
L 1875 -397 
L 1875 -844 
L 550 -844 
L 550 4863 
z
" transform="scale(0.015625)"/>
       <path id="DejaVuSans-5d" d="M 1947 4863 
L 1947 -844 
L 622 -844 
L 622 -397 
L 1369 -397 
L 1369 4416 
L 622 4416 
L 622 4863 
L 1947 4863 
z
" transform="scale(0.015625)"/>
      </defs>
      <use xlink:href="#DejaVuSans-4e"/>
      <use xlink:href="#DejaVuSans-6f" x="74.804688"/>
      <use xlink:href="#DejaVuSans-72" x="135.986328"/>
      <use xlink:href="#DejaVuSans-6d" x="175.349609"/>
      <use xlink:href="#DejaVuSans-61" x="272.761719"/>
      <use xlink:href="#DejaVuSans-6c" x="334.041016"/>
      <use xlink:href="#DejaVuSans-20" x="361.824219"/>
      <use xlink:href="#DejaVuSans-45" x="393.611328"/>
      <use xlink:href="#DejaVuSans-78" x="456.794922"/>
      <use xlink:href="#DejaVuSans-74" x="515.974609"/>
      <use xlink:href="#DejaVuSans-65" x="555.183594"/>
      <use xlink:href="#DejaVuSans-6e" x="616.707031"/>
      <use xlink:href="#DejaVuSans-73" x="680.085938"/>
      <use xlink:href="#DejaVuSans-69" x="732.185547"/>
      <use xlink:href="#DejaVuSans-6f" x="759.96875"/>
      <use xlink:href="#DejaVuSans-6e" x="821.150391"/>
      <use xlink:href="#DejaVuSans-20" x="884.529297"/>
      <use xlink:href="#DejaVuSans-5b" x="916.316406"/>
      <use xlink:href="#DejaVuSans-6d" x="955.330078"/>
      <use xlink:href="#DejaVuSans-6d" x="1052.742188"/>
      <use xlink:href="#DejaVuSans-5d" x="1150.154297"/>
     </g>
    </g>
   </g>
   <g id="matplotlib.axis_2">
    <g id="ytick_1">
     <g id="line2d_8">
      <defs>
       <path id="ma4befd6c0f" d="M 0 0 
L -3.5 0 
" style="stroke: #000000; stroke-width: 0.8"/>
      </defs>
      <g>
       <use xlink:href="#ma4befd6c0f" x="44.203125" y="236.801676" style="stroke: #000000; stroke-width: 0.8"/>
      </g>
     </g>
     <g id="text_9">
      <!-- 0 -->
      <g transform="translate(30.840625 240.600895) scale(0.1 -0.1)">
       <use xlink:href="#DejaVuSans-30"/>
      </g>
     </g>
    </g>
    <g id="ytick_2">
     <g id="line2d_9">
      <g>
       <use xlink:href="#ma4befd6c0f" x="44.203125" y="196.633381" style="stroke: #000000; stroke-width: 0.8"/>
      </g>
     </g>
     <g id="text_10">
      <!-- 2 -->
      <g transform="translate(30.840625 200.432599) scale(0.1 -0.1)">
       <use xlink:href="#DejaVuSans-32"/>
      </g>
     </g>
    </g>
    <g id="ytick_3">
     <g id="line2d_10">
      <g>
       <use xlink:href="#ma4befd6c0f" x="44.203125" y="156.465085" style="stroke: #000000; stroke-width: 0.8"/>
      </g>
     </g>
     <g id="text_11">
      <!-- 4 -->
      <g transform="translate(30.840625 160.264304) scale(0.1 -0.1)">
       <use xlink:href="#DejaVuSans-34"/>
      </g>
     </g>
    </g>
    <g id="ytick_4">
     <g id="line2d_11">
      <g>
       <use xlink:href="#ma4befd6c0f" x="44.203125" y="116.29679" style="stroke: #000000; stroke-width: 0.8"/>
      </g>
     </g>
     <g id="text_12">
      <!-- 6 -->
      <g transform="translate(30.840625 120.096009) scale(0.1 -0.1)">
       <use xlink:href="#DejaVuSans-36"/>
      </g>
     </g>
    </g>
    <g id="ytick_5">
     <g id="line2d_12">
      <g>
       <use xlink:href="#ma4befd6c0f" x="44.203125" y="76.128494" style="stroke: #000000; stroke-width: 0.8"/>
      </g>
     </g>
     <g id="text_13">
      <!-- 8 -->
      <g transform="translate(30.840625 79.927713) scale(0.1 -0.1)">
       <use xlink:href="#DejaVuSans-38"/>
      </g>
     </g>
    </g>
    <g id="ytick_6">
     <g id="line2d_13">
      <g>
       <use xlink:href="#ma4befd6c0f" x="44.203125" y="35.960199" style="stroke: #000000; stroke-width: 0.8"/>
      </g>
     </g>
     <g id="text_14">
      <!-- 10 -->
      <g transform="translate(24.478125 39.759418) scale(0.1 -0.1)">
       <use xlink:href="#DejaVuSans-31"/>
       <use xlink:href="#DejaVuSans-30" x="63.623047"/>
      </g>
     </g>
    </g>
    <g id="text_15">
     <!-- Load [kN] -->
     <g transform="translate(18.398438 160.503594) rotate(-90) scale(0.1 -0.1)">
      <defs>
       <path id="DejaVuSans-4c" d="M 628 4666 
L 1259 4666 
L 1259 531 
L 3531 531 
L 3531 0 
L 628 0 
L 628 4666 
z
" transform="scale(0.015625)"/>
       <path id="DejaVuSans-64" d="M 2906 2969 
L 2906 4863 
L 3481 4863 
L 3481 0 
L 2906 0 
L 2906 525 
Q 2725 213 2448 61 
Q 2172 -91 1784 -91 
Q 1150 -91 751 415 
Q 353 922 353 1747 
Q 353 2572 751 3078 
Q 1150 3584 1784 3584 
Q 2172 3584 2448 3432 
Q 2725 3281 2906 2969 
z
M 947 1747 
Q 947 1113 1208 752 
Q 1469 391 1925 391 
Q 2381 391 2643 752 
Q 2906 1113 2906 1747 
Q 2906 2381 2643 2742 
Q 2381 3103 1925 3103 
Q 1469 3103 1208 2742 
Q 947 2381 947 1747 
z
" transform="scale(0.015625)"/>
       <path id="DejaVuSans-6b" d="M 581 4863 
L 1159 4863 
L 1159 1991 
L 2875 3500 
L 3609 3500 
L 1753 1863 
L 3688 0 
L 2938 0 
L 1159 1709 
L 1159 0 
L 581 0 
L 581 4863 
z
" transform="scale(0.015625)"/>
      </defs>
      <use xlink:href="#DejaVuSans-4c"/>
      <use xlink:href="#DejaVuSans-6f" x="53.962891"/>
      <use xlink:href="#DejaVuSans-61" x="115.144531"/>
      <use xlink:href="#DejaVuSans-64" x="176.423828"/>
      <use xlink:href="#DejaVuSans-20" x="239.900391"/>
      <use xlink:href="#DejaVuSans-5b" x="271.6875"/>
      <use xlink:href="#DejaVuSans-6b" x="310.701172"/>
      <use xlink:href="#DejaVuSans-4e" x="368.611328"/>
      <use xlink:href="#DejaVuSans-5d" x="443.416016"/>
     </g>
    </g>
   </g>
   <g id="line2d_14">
    <path d="M 44.203125 236.801676 
L 294.957321 236.801676 
" clip-path="url(#p6e5465be63)" style="fill: none; stroke-dasharray: 2.775,1.2; stroke-dashoffset: 0; stroke: #808080; stroke-opacity: 0.75; stroke-width: 0.75"/>
   </g>
   <g id="line2d_15">
    <path d="M 71.069646 246.84375 
L 71.069646 25.918125 
" clip-path="url(#p6e5465be63)" style="fill: none; stroke-dasharray: 2.775,1.2; stroke-dashoffset: 0; stroke: #808080; stroke-opacity: 0.75; stroke-width: 0.75"/>
   </g>
   <g id="line2d_16">
    <path d="M 71.069998 236.801676 
L 71.07179 234.772974 
L 71.074003 232.744273 
L 71.076672 230.715571 
L 71.079844 228.686869 
L 71.083576 226.658167 
L 71.087933 224.629465 
L 71.092985 222.600764 
L 71.098804 220.572062 
L 71.105455 218.54336 
L 71.112997 216.514658 
L 71.121472 214.485956 
L 71.130907 212.457255 
L 71.141314 210.428553 
L 71.152693 208.399851 
L 71.165037 206.371149 
L 71.178336 204.342447 
L 71.192583 202.313746 
L 71.207776 200.285044 
L 71.223915 198.256342 
L 71.241 196.22764 
L 71.259025 194.198939 
L 71.277975 192.170237 
L 71.297818 190.141535 
L 71.318509 188.112833 
L 71.339982 186.084131 
L 71.362152 184.05543 
L 71.384911 182.026728 
L 71.408128 179.998026 
L 71.431642 177.969324 
L 71.455254 175.940622 
L 71.478731 173.911921 
L 71.501805 171.883219 
L 71.524186 169.854517 
L 71.545576 167.825815 
L 71.565702 165.797113 
L 71.584346 163.768412 
L 71.601376 161.73971 
L 71.616775 159.711008 
L 71.630662 157.682306 
L 71.643292 155.653605 
L 71.655042 153.624903 
L 71.666383 151.596201 
L 71.677837 149.567499 
L 71.689922 147.538797 
L 71.703099 145.510096 
L 71.717725 143.481394 
L 71.73401 141.452692 
L 71.752003 139.42399 
L 71.771586 137.395288 
L 71.792495 135.366587 
L 71.81436 133.337885 
L 71.836758 131.309183 
L 71.859275 129.280481 
L 71.881567 127.251779 
L 71.903417 125.223078 
L 71.924763 123.194376 
L 71.945718 121.165674 
L 71.966546 119.136972 
L 71.987628 117.10827 
L 72.009398 115.079569 
L 72.032277 113.050867 
L 72.056617 111.022165 
L 72.08265 108.993463 
L 72.110477 106.964762 
L 72.14008 104.93606 
L 72.171352 102.907358 
L 72.204157 100.878656 
L 72.238375 98.849954 
L 72.273951 96.821253 
L 72.310916 94.792551 
L 72.349389 92.763849 
L 72.389552 90.735147 
L 72.43161 88.706445 
L 72.475738 86.677744 
L 72.522033 84.649042 
L 72.570462 82.62034 
L 72.62083 80.591638 
L 72.672765 78.562936 
L 72.725724 76.534235 
L 72.779013 74.505533 
L 72.831838 72.476831 
L 72.883355 70.448129 
L 72.932747 68.419428 
L 72.979286 66.390726 
L 73.022398 64.362024 
L 73.061708 62.333322 
L 73.097072 60.30462 
L 73.128572 58.275919 
L 73.156503 56.247217 
L 73.181328 54.218515 
L 73.203625 52.189813 
L 73.224026 50.161111 
L 73.243161 48.13241 
L 73.261611 46.103708 
L 73.279881 44.075006 
L 73.298387 42.046304 
L 73.317473 40.017602 
L 73.337423 37.988901 
L 73.358501 35.960199 
" clip-path="url(#p6e5465be63)" style="fill: none; stroke-dasharray: 3.7,1.6; stroke-dashoffset: 0; stroke: #008000"/>
   </g>
   <g id="line2d_17">
    <path d="M 71.059922 236.801676 
L 71.132275 234.772974 
L 71.201847 232.744273 
L 71.268741 230.715571 
L 71.331472 228.686869 
L 71.392031 226.658167 
L 71.448813 224.629465 
L 71.503091 222.600764 
L 71.55515 220.572062 
L 71.604051 218.54336 
L 71.650301 216.514658 
L 71.694218 214.485956 
L 71.735601 212.457255 
L 71.775164 210.428553 
L 71.812977 208.399851 
L 71.848498 206.371149 
L 71.882281 204.342447 
L 71.913835 202.313746 
L 71.943375 200.285044 
L 71.97233 198.256342 
L 71.998894 196.22764 
L 72.024895 194.198939 
L 72.048662 192.170237 
L 72.071908 190.141535 
L 72.093958 188.112833 
L 72.114053 186.084131 
L 72.133757 184.05543 
L 72.15248 182.026728 
L 72.171328 179.998026 
L 72.188307 177.969324 
L 72.205013 175.940622 
L 72.2211 173.911921 
L 72.236191 171.883219 
L 72.25191 169.854517 
L 72.265567 167.825815 
L 72.280036 165.797113 
L 72.293894 163.768412 
L 72.3068 161.73971 
L 72.320513 159.711008 
L 72.333746 157.682306 
L 72.346916 155.653605 
L 72.359627 153.624903 
L 72.37255 151.596201 
L 72.385061 149.567499 
L 72.398084 147.538797 
L 72.4111 145.510096 
L 72.42353 143.481394 
L 72.436647 141.452692 
L 72.449277 139.42399 
L 72.46245 137.395288 
L 72.475471 135.366587 
L 72.488214 133.337885 
L 72.501991 131.309183 
L 72.515004 129.280481 
L 72.528769 127.251779 
L 72.541683 125.223078 
L 72.555308 123.194376 
L 72.569355 121.165674 
L 72.583118 119.136972 
L 72.596674 117.10827 
L 72.610079 115.079569 
L 72.624092 113.050867 
L 72.638054 111.022165 
L 72.651612 108.993463 
L 72.665335 106.964762 
L 72.678413 104.93606 
L 72.691738 102.907358 
L 72.704684 100.878656 
L 72.718483 98.849954 
L 72.730914 96.821253 
L 72.743448 94.792551 
L 72.754905 92.763849 
L 72.767598 90.735147 
L 72.778577 88.706445 
L 72.789321 86.677744 
L 72.800008 84.649042 
L 72.809704 82.62034 
L 72.819096 80.591638 
L 72.827818 78.562936 
L 72.836502 76.534235 
L 72.844053 74.505533 
L 72.850517 72.476831 
L 72.855986 70.448129 
L 72.861591 68.419428 
L 72.865481 66.390726 
L 72.868439 64.362024 
L 72.871411 62.333322 
L 72.872249 60.30462 
L 72.872828 58.275919 
L 72.871758 56.247217 
L 72.869376 54.218515 
L 72.866107 52.189813 
L 72.861683 50.161111 
L 72.856197 48.13241 
L 72.848996 46.103708 
L 72.840739 44.075006 
L 72.830617 42.046304 
L 72.820696 40.017602 
L 72.807128 37.988901 
L 72.79298 35.960199 
" clip-path="url(#p6e5465be63)" style="fill: none; stroke: #0000ff; stroke-width: 0.5; stroke-linecap: square"/>
   </g>
   <g id="line2d_18">
    <defs>
     <path id="mf4ab42e962" d="M 0 1 
C 0.265203 1 0.51958 0.894634 0.707107 0.707107 
C 0.894634 0.51958 1 0.265203 1 0 
C 1 -0.265203 0.894634 -0.51958 0.707107 -0.707107 
C 0.51958 -0.894634 0.265203 -1 0 -1 
C -0.265203 -1 -0.51958 -0.894634 -0.707107 -0.707107 
C -0.894634 -0.51958 -1 -0.265203 -1 0 
C -1 0.265203 -0.894634 0.51958 -0.707107 0.707107 
C -0.51958 0.894634 -0.265203 1 0 1 
z
" style="stroke: #1f77b4"/>
    </defs>
    <g clip-path="url(#p6e5465be63)">
     <use xlink:href="#mf4ab42e962" x="71.069646" y="236.801676" style="fill: #1f77b4; stroke: #1f77b4"/>
     <use xlink:href="#mf4ab42e962" x="70.963578" y="211.256531" style="fill: #1f77b4; stroke: #1f77b4"/>
     <use xlink:href="#mf4ab42e962" x="71.637603" y="199.503823" style="fill: #1f77b4; stroke: #1f77b4"/>
     <use xlink:href="#mf4ab42e962" x="70.513806" y="187.394973" style="fill: #1f77b4; stroke: #1f77b4"/>
     <use xlink:href="#mf4ab42e962" x="71.357464" y="175.998408" style="fill: #1f77b4; stroke: #1f77b4"/>
     <use xlink:href="#mf4ab42e962" x="70.507642" y="163.662922" style="fill: #1f77b4; stroke: #1f77b4"/>
     <use xlink:href="#mf4ab42e962" x="70.080129" y="152.395863" style="fill: #1f77b4; stroke: #1f77b4"/>
     <use xlink:href="#mf4ab42e962" x="69.979908" y="142.002973" style="fill: #1f77b4; stroke: #1f77b4"/>
     <use xlink:href="#mf4ab42e962" x="70.477566" y="130.541654" style="fill: #1f77b4; stroke: #1f77b4"/>
     <use xlink:href="#mf4ab42e962" x="70.690473" y="121.281944" style="fill: #1f77b4; stroke: #1f77b4"/>
     <use xlink:href="#mf4ab42e962" x="72.129007" y="111.083312" style="fill: #1f77b4; stroke: #1f77b4"/>
     <use xlink:href="#mf4ab42e962" x="69.375698" y="101.920731" style="fill: #1f77b4; stroke: #1f77b4"/>
     <use xlink:href="#mf4ab42e962" x="68.995596" y="93.179045" style="fill: #1f77b4; stroke: #1f77b4"/>
     <use xlink:href="#mf4ab42e962" x="68.720644" y="84.307852" style="fill: #1f77b4; stroke: #1f77b4"/>
     <use xlink:href="#mf4ab42e962" x="69.142017" y="76.246073" style="fill: #1f77b4; stroke: #1f77b4"/>
     <use xlink:href="#mf4ab42e962" x="67.370388" y="68.79945" style="fill: #1f77b4; stroke: #1f77b4"/>
     <use xlink:href="#mf4ab42e962" x="68.817507" y="60.996683" style="fill: #1f77b4; stroke: #1f77b4"/>
     <use xlink:href="#mf4ab42e962" x="68.561686" y="54.10046" style="fill: #1f77b4; stroke: #1f77b4"/>
     <use xlink:href="#mf4ab42e962" x="67.366023" y="46.945225" style="fill: #1f77b4; stroke: #1f77b4"/>
     <use xlink:href="#mf4ab42e962" x="67.196361" y="40.308014" style="fill: #1f77b4; stroke: #1f77b4"/>
    </g>
   </g>
   <g id="line2d_19">
    <defs>
     <path id="m86101246f1" d="M 0 1 
C 0.265203 1 0.51958 0.894634 0.707107 0.707107 
C 0.894634 0.51958 1 0.265203 1 0 
C 1 -0.265203 0.894634 -0.51958 0.707107 -0.707107 
C 0.51958 -0.894634 0.265203 -1 0 -1 
C -0.265203 -1 -0.51958 -0.894634 -0.707107 -0.707107 
C -0.894634 -0.51958 -1 -0.265203 -1 0 
C -1 0.265203 -0.894634 0.51958 -0.707107 0.707107 
C -0.51958 0.894634 -0.265203 1 0 1 
z
" style="stroke: #ff7f0e"/>
    </defs>
    <g clip-path="url(#p6e5465be63)">
     <use xlink:href="#m86101246f1" x="70.419716" y="221.487539" style="fill: #ff7f0e; stroke: #ff7f0e"/>
     <use xlink:href="#m86101246f1" x="70.384507" y="210.803258" style="fill: #ff7f0e; stroke: #ff7f0e"/>
     <use xlink:href="#m86101246f1" x="70.904381" y="199.600953" style="fill: #ff7f0e; stroke: #ff7f0e"/>
     <use xlink:href="#m86101246f1" x="70.433806" y="186.74744" style="fill: #ff7f0e; stroke: #ff7f0e"/>
     <use xlink:href="#m86101246f1" x="68.165862" y="174.379578" style="fill: #ff7f0e; stroke: #ff7f0e"/>
     <use xlink:href="#m86101246f1" x="70.578205" y="162.076468" style="fill: #ff7f0e; stroke: #ff7f0e"/>
     <use xlink:href="#m86101246f1" x="69.10294" y="148.931566" style="fill: #ff7f0e; stroke: #ff7f0e"/>
     <use xlink:href="#m86101246f1" x="69.273861" y="135.819041" style="fill: #ff7f0e; stroke: #ff7f0e"/>
     <use xlink:href="#m86101246f1" x="69.983501" y="123.742567" style="fill: #ff7f0e; stroke: #ff7f0e"/>
     <use xlink:href="#m86101246f1" x="67.733355" y="111.407078" style="fill: #ff7f0e; stroke: #ff7f0e"/>
     <use xlink:href="#m86101246f1" x="68.872942" y="99.460108" style="fill: #ff7f0e; stroke: #ff7f0e"/>
     <use xlink:href="#m86101246f1" x="67.977719" y="87.189371" style="fill: #ff7f0e; stroke: #ff7f0e"/>
     <use xlink:href="#m86101246f1" x="67.792906" y="75.469034" style="fill: #ff7f0e; stroke: #ff7f0e"/>
     <use xlink:href="#m86101246f1" x="67.812603" y="63.845826" style="fill: #ff7f0e; stroke: #ff7f0e"/>
     <use xlink:href="#m86101246f1" x="66.556425" y="53.323422" style="fill: #ff7f0e; stroke: #ff7f0e"/>
     <use xlink:href="#m86101246f1" x="66.508191" y="41.570703" style="fill: #ff7f0e; stroke: #ff7f0e"/>
    </g>
   </g>
   <g id="line2d_20">
    <defs>
     <path id="mddcdb98584" d="M 0 1 
C 0.265203 1 0.51958 0.894634 0.707107 0.707107 
C 0.894634 0.51958 1 0.265203 1 0 
C 1 -0.265203 0.894634 -0.51958 0.707107 -0.707107 
C 0.51958 -0.894634 0.265203 -1 0 -1 
C -0.265203 -1 -0.51958 -0.894634 -0.707107 -0.707107 
C -0.894634 -0.51958 -1 -0.265203 -1 0 
C -1 0.265203 -0.894634 0.51958 -0.707107 0.707107 
C -0.51958 0.894634 -0.265203 1 0 1 
z
" style="stroke: #2ca02c"/>
    </defs>
    <g clip-path="url(#p6e5465be63)">
     <use xlink:href="#mddcdb98584" x="70.153608" y="213.814283" style="fill: #2ca02c; stroke: #2ca02c"/>
     <use xlink:href="#mddcdb98584" x="70.111929" y="202.741484" style="fill: #2ca02c; stroke: #2ca02c"/>
     <use xlink:href="#mddcdb98584" x="70.647724" y="190.503127" style="fill: #2ca02c; stroke: #2ca02c"/>
     <use xlink:href="#mddcdb98584" x="68.425135" y="178.3619" style="fill: #2ca02c; stroke: #2ca02c"/>
     <use xlink:href="#mddcdb98584" x="69.125961" y="166.285427" style="fill: #2ca02c; stroke: #2ca02c"/>
     <use xlink:href="#mddcdb98584" x="69.333248" y="154.176577" style="fill: #2ca02c; stroke: #2ca02c"/>
     <use xlink:href="#mddcdb98584" x="69.442439" y="140.837415" style="fill: #2ca02c; stroke: #2ca02c"/>
     <use xlink:href="#mddcdb98584" x="67.556092" y="128.145785" style="fill: #2ca02c; stroke: #2ca02c"/>
     <use xlink:href="#mddcdb98584" x="69.731212" y="116.3607" style="fill: #2ca02c; stroke: #2ca02c"/>
     <use xlink:href="#mddcdb98584" x="69.228317" y="103.733821" style="fill: #2ca02c; stroke: #2ca02c"/>
     <use xlink:href="#mddcdb98584" x="68.417448" y="91.78685" style="fill: #2ca02c; stroke: #2ca02c"/>
     <use xlink:href="#mddcdb98584" x="63.422841" y="79.775124" style="fill: #2ca02c; stroke: #2ca02c"/>
     <use xlink:href="#mddcdb98584" x="68.364765" y="68.443306" style="fill: #2ca02c; stroke: #2ca02c"/>
     <use xlink:href="#mddcdb98584" x="68.047976" y="56.755344" style="fill: #2ca02c; stroke: #2ca02c"/>
     <use xlink:href="#mddcdb98584" x="67.077399" y="46.297691" style="fill: #2ca02c; stroke: #2ca02c"/>
    </g>
   </g>
   <g id="patch_3">
    <path d="M 44.203125 246.84375 
L 44.203125 25.918125 
" style="fill: none; stroke: #000000; stroke-width: 0.8; stroke-linejoin: miter; stroke-linecap: square"/>
   </g>
   <g id="patch_4">
    <path d="M 294.957321 246.84375 
L 294.957321 25.918125 
" style="fill: none; stroke: #000000; stroke-width: 0.8; stroke-linejoin: miter; stroke-linecap: square"/>
   </g>
   <g id="patch_5">
    <path d="M 44.203125 246.84375 
L 294.957321 246.84375 
" style="fill: none; stroke: #000000; stroke-width: 0.8; stroke-linejoin: miter; stroke-linecap: square"/>
   </g>
   <g id="patch_6">
    <path d="M 44.203125 25.918125 
L 294.957321 25.918125 
" style="fill: none; stroke: #000000; stroke-width: 0.8; stroke-linejoin: miter; stroke-linecap: square"/>
   </g>
   <g id="text_16">
    <!-- Predictions ($90^\circ$) -->
    <g transform="translate(117.680223 19.918125) scale(0.12 -0.12)">
     <defs>
      <path id="DejaVuSans-50" d="M 1259 4147 
L 1259 2394 
L 2053 2394 
Q 2494 2394 2734 2622 
Q 2975 2850 2975 3272 
Q 2975 3691 2734 3919 
Q 2494 4147 2053 4147 
L 1259 4147 
z
M 628 4666 
L 2053 4666 
Q 2838 4666 3239 4311 
Q 3641 3956 3641 3272 
Q 3641 2581 3239 2228 
Q 2838 1875 2053 1875 
L 1259 1875 
L 1259 0 
L 628 0 
L 628 4666 
z
" transform="scale(0.015625)"/>
      <path id="DejaVuSans-63" d="M 3122 3366 
L 3122 2828 
Q 2878 2963 2633 3030 
Q 2388 3097 2138 3097 
Q 1578 3097 1268 2742 
Q 959 2388 959 1747 
Q 959 1106 1268 751 
Q 1578 397 2138 397 
Q 2388 397 2633 464 
Q 2878 531 3122 666 
L 3122 134 
Q 2881 22 2623 -34 
Q 2366 -91 2075 -91 
Q 1284 -91 818 406 
Q 353 903 353 1747 
Q 353 2603 823 3093 
Q 1294 3584 2113 3584 
Q 2378 3584 2631 3529 
Q 2884 3475 3122 3366 
z
" transform="scale(0.015625)"/>
      <path id="DejaVuSans-28" d="M 1984 4856 
Q 1566 4138 1362 3434 
Q 1159 2731 1159 2009 
Q 1159 1288 1364 580 
Q 1569 -128 1984 -844 
L 1484 -844 
Q 1016 -109 783 600 
Q 550 1309 550 2009 
Q 550 2706 781 3412 
Q 1013 4119 1484 4856 
L 1984 4856 
z
" transform="scale(0.015625)"/>
      <path id="DejaVuSans-39" d="M 703 97 
L 703 672 
Q 941 559 1184 500 
Q 1428 441 1663 441 
Q 2288 441 2617 861 
Q 2947 1281 2994 2138 
Q 2813 1869 2534 1725 
Q 2256 1581 1919 1581 
Q 1219 1581 811 2004 
Q 403 2428 403 3163 
Q 403 3881 828 4315 
Q 1253 4750 1959 4750 
Q 2769 4750 3195 4129 
Q 3622 3509 3622 2328 
Q 3622 1225 3098 567 
Q 2575 -91 1691 -91 
Q 1453 -91 1209 -44 
Q 966 3 703 97 
z
M 1959 2075 
Q 2384 2075 2632 2365 
Q 2881 2656 2881 3163 
Q 2881 3666 2632 3958 
Q 2384 4250 1959 4250 
Q 1534 4250 1286 3958 
Q 1038 3666 1038 3163 
Q 1038 2656 1286 2365 
Q 1534 2075 1959 2075 
z
" transform="scale(0.015625)"/>
      <path id="DejaVuSans-2218" d="M 2003 2603 
Q 1753 2603 1581 2429 
Q 1409 2256 1409 2006 
Q 1409 1759 1581 1589 
Q 1753 1419 2003 1419 
Q 2253 1419 2425 1589 
Q 2597 1759 2597 2006 
Q 2597 2253 2423 2428 
Q 2250 2603 2003 2603 
z
M 2003 3006 
Q 2203 3006 2387 2929 
Q 2572 2853 2706 2709 
Q 2850 2569 2922 2390 
Q 2994 2212 2994 2006 
Q 2994 1594 2705 1308 
Q 2416 1022 1997 1022 
Q 1575 1022 1294 1303 
Q 1013 1584 1013 2006 
Q 1013 2425 1300 2715 
Q 1588 3006 2003 3006 
z
" transform="scale(0.015625)"/>
      <path id="DejaVuSans-29" d="M 513 4856 
L 1013 4856 
Q 1481 4119 1714 3412 
Q 1947 2706 1947 2009 
Q 1947 1309 1714 600 
Q 1481 -109 1013 -844 
L 513 -844 
Q 928 -128 1133 580 
Q 1338 1288 1338 2009 
Q 1338 2731 1133 3434 
Q 928 4138 513 4856 
z
" transform="scale(0.015625)"/>
     </defs>
     <use xlink:href="#DejaVuSans-50" transform="translate(0 0.015625)"/>
     <use xlink:href="#DejaVuSans-72" transform="translate(60.302734 0.015625)"/>
     <use xlink:href="#DejaVuSans-65" transform="translate(101.416016 0.015625)"/>
     <use xlink:href="#DejaVuSans-64" transform="translate(162.939453 0.015625)"/>
     <use xlink:href="#DejaVuSans-69" transform="translate(226.416016 0.015625)"/>
     <use xlink:href="#DejaVuSans-63" transform="translate(254.199219 0.015625)"/>
     <use xlink:href="#DejaVuSans-74" transform="translate(309.179688 0.015625)"/>
     <use xlink:href="#DejaVuSans-69" transform="translate(348.388672 0.015625)"/>
     <use xlink:href="#DejaVuSans-6f" transform="translate(376.171875 0.015625)"/>
     <use xlink:href="#DejaVuSans-6e" transform="translate(437.353516 0.015625)"/>
     <use xlink:href="#DejaVuSans-73" transform="translate(500.732422 0.015625)"/>
     <use xlink:href="#DejaVuSans-20" transform="translate(552.832031 0.015625)"/>
     <use xlink:href="#DejaVuSans-28" transform="translate(584.619141 0.015625)"/>
     <use xlink:href="#DejaVuSans-39" transform="translate(623.632812 0.015625)"/>
     <use xlink:href="#DejaVuSans-30" transform="translate(687.255859 0.015625)"/>
     <use xlink:href="#DejaVuSans-2218" transform="translate(765.473633 38.296875) scale(0.7)"/>
     <use xlink:href="#DejaVuSans-29" transform="translate(825.664062 0.015625)"/>
    </g>
   </g>
   <g id="legend_1">
    <g id="patch_7">
     <path d="M 145.062009 136.665 
L 287.957321 136.665 
Q 289.957321 136.665 289.957321 134.665 
L 289.957321 32.918125 
Q 289.957321 30.918125 287.957321 30.918125 
L 145.062009 30.918125 
Q 143.062009 30.918125 143.062009 32.918125 
L 143.062009 134.665 
Q 143.062009 136.665 145.062009 136.665 
z
" style="fill: #ffffff; opacity: 0.8; stroke: #cccccc; stroke-linejoin: miter"/>
    </g>
    <g id="patch_8">
     <path d="M 147.062009 42.516562 
L 167.062009 42.516562 
L 167.062009 35.516562 
L 147.062009 35.516562 
z
" style="fill: #90ee90; fill-opacity: 0.75; stroke: #90ee90; stroke-opacity: 0.75; stroke-linejoin: miter"/>
    </g>
    <g id="text_17">
     <!-- Prior 95% interval -->
     <g transform="translate(175.062009 42.516562) scale(0.1 -0.1)">
      <defs>
       <path id="DejaVuSans-35" d="M 691 4666 
L 3169 4666 
L 3169 4134 
L 1269 4134 
L 1269 2991 
Q 1406 3038 1543 3061 
Q 1681 3084 1819 3084 
Q 2600 3084 3056 2656 
Q 3513 2228 3513 1497 
Q 3513 744 3044 326 
Q 2575 -91 1722 -91 
Q 1428 -91 1123 -41 
Q 819 9 494 109 
L 494 744 
Q 775 591 1075 516 
Q 1375 441 1709 441 
Q 2250 441 2565 725 
Q 2881 1009 2881 1497 
Q 2881 1984 2565 2268 
Q 2250 2553 1709 2553 
Q 1456 2553 1204 2497 
Q 953 2441 691 2322 
L 691 4666 
z
" transform="scale(0.015625)"/>
       <path id="DejaVuSans-25" d="M 4653 2053 
Q 4381 2053 4226 1822 
Q 4072 1591 4072 1178 
Q 4072 772 4226 539 
Q 4381 306 4653 306 
Q 4919 306 5073 539 
Q 5228 772 5228 1178 
Q 5228 1588 5073 1820 
Q 4919 2053 4653 2053 
z
M 4653 2450 
Q 5147 2450 5437 2106 
Q 5728 1763 5728 1178 
Q 5728 594 5436 251 
Q 5144 -91 4653 -91 
Q 4153 -91 3862 251 
Q 3572 594 3572 1178 
Q 3572 1766 3864 2108 
Q 4156 2450 4653 2450 
z
M 1428 4353 
Q 1159 4353 1004 4120 
Q 850 3888 850 3481 
Q 850 3069 1003 2837 
Q 1156 2606 1428 2606 
Q 1700 2606 1854 2837 
Q 2009 3069 2009 3481 
Q 2009 3884 1853 4118 
Q 1697 4353 1428 4353 
z
M 4250 4750 
L 4750 4750 
L 1831 -91 
L 1331 -91 
L 4250 4750 
z
M 1428 4750 
Q 1922 4750 2215 4408 
Q 2509 4066 2509 3481 
Q 2509 2891 2217 2550 
Q 1925 2209 1428 2209 
Q 931 2209 642 2551 
Q 353 2894 353 3481 
Q 353 4063 643 4406 
Q 934 4750 1428 4750 
z
" transform="scale(0.015625)"/>
       <path id="DejaVuSans-76" d="M 191 3500 
L 800 3500 
L 1894 563 
L 2988 3500 
L 3597 3500 
L 2284 0 
L 1503 0 
L 191 3500 
z
" transform="scale(0.015625)"/>
      </defs>
      <use xlink:href="#DejaVuSans-50"/>
      <use xlink:href="#DejaVuSans-72" x="58.552734"/>
      <use xlink:href="#DejaVuSans-69" x="99.666016"/>
      <use xlink:href="#DejaVuSans-6f" x="127.449219"/>
      <use xlink:href="#DejaVuSans-72" x="188.630859"/>
      <use xlink:href="#DejaVuSans-20" x="229.744141"/>
      <use xlink:href="#DejaVuSans-39" x="261.53125"/>
      <use xlink:href="#DejaVuSans-35" x="325.154297"/>
      <use xlink:href="#DejaVuSans-25" x="388.777344"/>
      <use xlink:href="#DejaVuSans-20" x="483.796875"/>
      <use xlink:href="#DejaVuSans-69" x="515.583984"/>
      <use xlink:href="#DejaVuSans-6e" x="543.367188"/>
      <use xlink:href="#DejaVuSans-74" x="606.746094"/>
      <use xlink:href="#DejaVuSans-65" x="645.955078"/>
      <use xlink:href="#DejaVuSans-72" x="707.478516"/>
      <use xlink:href="#DejaVuSans-76" x="748.591797"/>
      <use xlink:href="#DejaVuSans-61" x="807.771484"/>
      <use xlink:href="#DejaVuSans-6c" x="869.050781"/>
     </g>
    </g>
    <g id="line2d_21">
     <path d="M 147.062009 53.694687 
L 157.062009 53.694687 
L 167.062009 53.694687 
" style="fill: none; stroke-dasharray: 3.7,1.6; stroke-dashoffset: 0; stroke: #008000"/>
    </g>
    <g id="text_18">
     <!-- Prior mean -->
     <g transform="translate(175.062009 57.194687) scale(0.1 -0.1)">
      <use xlink:href="#DejaVuSans-50"/>
      <use xlink:href="#DejaVuSans-72" x="58.552734"/>
      <use xlink:href="#DejaVuSans-69" x="99.666016"/>
      <use xlink:href="#DejaVuSans-6f" x="127.449219"/>
      <use xlink:href="#DejaVuSans-72" x="188.630859"/>
      <use xlink:href="#DejaVuSans-20" x="229.744141"/>
      <use xlink:href="#DejaVuSans-6d" x="261.53125"/>
      <use xlink:href="#DejaVuSans-65" x="358.943359"/>
      <use xlink:href="#DejaVuSans-61" x="420.466797"/>
      <use xlink:href="#DejaVuSans-6e" x="481.746094"/>
     </g>
    </g>
    <g id="patch_9">
     <path d="M 147.062009 71.872812 
L 167.062009 71.872812 
L 167.062009 64.872812 
L 147.062009 64.872812 
z
" style="fill: #6495ed; fill-opacity: 0.75; stroke: #6495ed; stroke-opacity: 0.75; stroke-linejoin: miter"/>
    </g>
    <g id="text_19">
     <!-- Posterior 95% interval -->
     <g transform="translate(175.062009 71.872812) scale(0.1 -0.1)">
      <use xlink:href="#DejaVuSans-50"/>
      <use xlink:href="#DejaVuSans-6f" x="56.677734"/>
      <use xlink:href="#DejaVuSans-73" x="117.859375"/>
      <use xlink:href="#DejaVuSans-74" x="169.958984"/>
      <use xlink:href="#DejaVuSans-65" x="209.167969"/>
      <use xlink:href="#DejaVuSans-72" x="270.691406"/>
      <use xlink:href="#DejaVuSans-69" x="311.804688"/>
      <use xlink:href="#DejaVuSans-6f" x="339.587891"/>
      <use xlink:href="#DejaVuSans-72" x="400.769531"/>
      <use xlink:href="#DejaVuSans-20" x="441.882812"/>
      <use xlink:href="#DejaVuSans-39" x="473.669922"/>
      <use xlink:href="#DejaVuSans-35" x="537.292969"/>
      <use xlink:href="#DejaVuSans-25" x="600.916016"/>
      <use xlink:href="#DejaVuSans-20" x="695.935547"/>
      <use xlink:href="#DejaVuSans-69" x="727.722656"/>
      <use xlink:href="#DejaVuSans-6e" x="755.505859"/>
      <use xlink:href="#DejaVuSans-74" x="818.884766"/>
      <use xlink:href="#DejaVuSans-65" x="858.09375"/>
      <use xlink:href="#DejaVuSans-72" x="919.617188"/>
      <use xlink:href="#DejaVuSans-76" x="960.730469"/>
      <use xlink:href="#DejaVuSans-61" x="1019.910156"/>
      <use xlink:href="#DejaVuSans-6c" x="1081.189453"/>
     </g>
    </g>
    <g id="line2d_22">
     <path d="M 147.062009 83.050937 
L 157.062009 83.050937 
L 167.062009 83.050937 
" style="fill: none; stroke: #0000ff; stroke-width: 0.5; stroke-linecap: square"/>
    </g>
    <g id="text_20">
     <!-- Posterior mean -->
     <g transform="translate(175.062009 86.550937) scale(0.1 -0.1)">
      <use xlink:href="#DejaVuSans-50"/>
      <use xlink:href="#DejaVuSans-6f" x="56.677734"/>
      <use xlink:href="#DejaVuSans-73" x="117.859375"/>
      <use xlink:href="#DejaVuSans-74" x="169.958984"/>
      <use xlink:href="#DejaVuSans-65" x="209.167969"/>
      <use xlink:href="#DejaVuSans-72" x="270.691406"/>
      <use xlink:href="#DejaVuSans-69" x="311.804688"/>
      <use xlink:href="#DejaVuSans-6f" x="339.587891"/>
      <use xlink:href="#DejaVuSans-72" x="400.769531"/>
      <use xlink:href="#DejaVuSans-20" x="441.882812"/>
      <use xlink:href="#DejaVuSans-6d" x="473.669922"/>
      <use xlink:href="#DejaVuSans-65" x="571.082031"/>
      <use xlink:href="#DejaVuSans-61" x="632.605469"/>
      <use xlink:href="#DejaVuSans-6e" x="693.884766"/>
     </g>
    </g>
    <g id="line2d_23">
     <g>
      <use xlink:href="#mf4ab42e962" x="157.062009" y="97.729062" style="fill: #1f77b4; stroke: #1f77b4"/>
     </g>
    </g>
    <g id="text_21">
     <!-- Experimental data 1 -->
     <g transform="translate(175.062009 101.229062) scale(0.1 -0.1)">
      <defs>
       <path id="DejaVuSans-70" d="M 1159 525 
L 1159 -1331 
L 581 -1331 
L 581 3500 
L 1159 3500 
L 1159 2969 
Q 1341 3281 1617 3432 
Q 1894 3584 2278 3584 
Q 2916 3584 3314 3078 
Q 3713 2572 3713 1747 
Q 3713 922 3314 415 
Q 2916 -91 2278 -91 
Q 1894 -91 1617 61 
Q 1341 213 1159 525 
z
M 3116 1747 
Q 3116 2381 2855 2742 
Q 2594 3103 2138 3103 
Q 1681 3103 1420 2742 
Q 1159 2381 1159 1747 
Q 1159 1113 1420 752 
Q 1681 391 2138 391 
Q 2594 391 2855 752 
Q 3116 1113 3116 1747 
z
" transform="scale(0.015625)"/>
      </defs>
      <use xlink:href="#DejaVuSans-45"/>
      <use xlink:href="#DejaVuSans-78" x="63.183594"/>
      <use xlink:href="#DejaVuSans-70" x="122.363281"/>
      <use xlink:href="#DejaVuSans-65" x="185.839844"/>
      <use xlink:href="#DejaVuSans-72" x="247.363281"/>
      <use xlink:href="#DejaVuSans-69" x="288.476562"/>
      <use xlink:href="#DejaVuSans-6d" x="316.259766"/>
      <use xlink:href="#DejaVuSans-65" x="413.671875"/>
      <use xlink:href="#DejaVuSans-6e" x="475.195312"/>
      <use xlink:href="#DejaVuSans-74" x="538.574219"/>
      <use xlink:href="#DejaVuSans-61" x="577.783203"/>
      <use xlink:href="#DejaVuSans-6c" x="639.0625"/>
      <use xlink:href="#DejaVuSans-20" x="666.845703"/>
      <use xlink:href="#DejaVuSans-64" x="698.632812"/>
      <use xlink:href="#DejaVuSans-61" x="762.109375"/>
      <use xlink:href="#DejaVuSans-74" x="823.388672"/>
      <use xlink:href="#DejaVuSans-61" x="862.597656"/>
      <use xlink:href="#DejaVuSans-20" x="923.876953"/>
      <use xlink:href="#DejaVuSans-31" x="955.664062"/>
     </g>
    </g>
    <g id="line2d_24">
     <g>
      <use xlink:href="#m86101246f1" x="157.062009" y="112.407187" style="fill: #ff7f0e; stroke: #ff7f0e"/>
     </g>
    </g>
    <g id="text_22">
     <!-- Experimental data 2 -->
     <g transform="translate(175.062009 115.907187) scale(0.1 -0.1)">
      <use xlink:href="#DejaVuSans-45"/>
      <use xlink:href="#DejaVuSans-78" x="63.183594"/>
      <use xlink:href="#DejaVuSans-70" x="122.363281"/>
      <use xlink:href="#DejaVuSans-65" x="185.839844"/>
      <use xlink:href="#DejaVuSans-72" x="247.363281"/>
      <use xlink:href="#DejaVuSans-69" x="288.476562"/>
      <use xlink:href="#DejaVuSans-6d" x="316.259766"/>
      <use xlink:href="#DejaVuSans-65" x="413.671875"/>
      <use xlink:href="#DejaVuSans-6e" x="475.195312"/>
      <use xlink:href="#DejaVuSans-74" x="538.574219"/>
      <use xlink:href="#DejaVuSans-61" x="577.783203"/>
      <use xlink:href="#DejaVuSans-6c" x="639.0625"/>
      <use xlink:href="#DejaVuSans-20" x="666.845703"/>
      <use xlink:href="#DejaVuSans-64" x="698.632812"/>
      <use xlink:href="#DejaVuSans-61" x="762.109375"/>
      <use xlink:href="#DejaVuSans-74" x="823.388672"/>
      <use xlink:href="#DejaVuSans-61" x="862.597656"/>
      <use xlink:href="#DejaVuSans-20" x="923.876953"/>
      <use xlink:href="#DejaVuSans-32" x="955.664062"/>
     </g>
    </g>
    <g id="line2d_25">
     <g>
      <use xlink:href="#mddcdb98584" x="157.062009" y="127.085312" style="fill: #2ca02c; stroke: #2ca02c"/>
     </g>
    </g>
    <g id="text_23">
     <!-- Experimental data 3 -->
     <g transform="translate(175.062009 130.585312) scale(0.1 -0.1)">
      <defs>
       <path id="DejaVuSans-33" d="M 2597 2516 
Q 3050 2419 3304 2112 
Q 3559 1806 3559 1356 
Q 3559 666 3084 287 
Q 2609 -91 1734 -91 
Q 1441 -91 1130 -33 
Q 819 25 488 141 
L 488 750 
Q 750 597 1062 519 
Q 1375 441 1716 441 
Q 2309 441 2620 675 
Q 2931 909 2931 1356 
Q 2931 1769 2642 2001 
Q 2353 2234 1838 2234 
L 1294 2234 
L 1294 2753 
L 1863 2753 
Q 2328 2753 2575 2939 
Q 2822 3125 2822 3475 
Q 2822 3834 2567 4026 
Q 2313 4219 1838 4219 
Q 1578 4219 1281 4162 
Q 984 4106 628 3988 
L 628 4550 
Q 988 4650 1302 4700 
Q 1616 4750 1894 4750 
Q 2613 4750 3031 4423 
Q 3450 4097 3450 3541 
Q 3450 3153 3228 2886 
Q 3006 2619 2597 2516 
z
" transform="scale(0.015625)"/>
      </defs>
      <use xlink:href="#DejaVuSans-45"/>
      <use xlink:href="#DejaVuSans-78" x="63.183594"/>
      <use xlink:href="#DejaVuSans-70" x="122.363281"/>
      <use xlink:href="#DejaVuSans-65" x="185.839844"/>
      <use xlink:href="#DejaVuSans-72" x="247.363281"/>
      <use xlink:href="#DejaVuSans-69" x="288.476562"/>
      <use xlink:href="#DejaVuSans-6d" x="316.259766"/>
      <use xlink:href="#DejaVuSans-65" x="413.671875"/>
      <use xlink:href="#DejaVuSans-6e" x="475.195312"/>
      <use xlink:href="#DejaVuSans-74" x="538.574219"/>
      <use xlink:href="#DejaVuSans-61" x="577.783203"/>
      <use xlink:href="#DejaVuSans-6c" x="639.0625"/>
      <use xlink:href="#DejaVuSans-20" x="666.845703"/>
      <use xlink:href="#DejaVuSans-64" x="698.632812"/>
      <use xlink:href="#DejaVuSans-61" x="762.109375"/>
      <use xlink:href="#DejaVuSans-74" x="823.388672"/>
      <use xlink:href="#DejaVuSans-61" x="862.597656"/>
      <use xlink:href="#DejaVuSans-20" x="923.876953"/>
      <use xlink:href="#DejaVuSans-33" x="955.664062"/>
     </g>
    </g>
   </g>
  </g>
  <g id="axes_2">
   <g id="patch_10">
    <path d="M 311.851562 246.84375 
L 562.605759 246.84375 
L 562.605759 25.918125 
L 311.851562 25.918125 
z
" style="fill: #ffffff"/>
   </g>
   <g id="PolyCollection_3">
    <defs>
     <path id="m604c9c7a64" d="M 338.773789 -51.198324 
L 338.666006 -51.198324 
L 338.290077 -53.227026 
L 338.052458 -55.255727 
L 337.953151 -57.284429 
L 337.992155 -59.313131 
L 338.169471 -61.341833 
L 338.485097 -63.370535 
L 338.939035 -65.399236 
L 339.531284 -67.427938 
L 340.261844 -69.45664 
L 341.130715 -71.485342 
L 342.137897 -73.514044 
L 343.283391 -75.542745 
L 344.567196 -77.571447 
L 345.989312 -79.600149 
L 347.549739 -81.628851 
L 349.248477 -83.657553 
L 351.085526 -85.686254 
L 353.060887 -87.714956 
L 355.174559 -89.743658 
L 357.426542 -91.77236 
L 359.816836 -93.801061 
L 362.345442 -95.829763 
L 364.918398 -97.858465 
L 367.441744 -99.887167 
L 369.915482 -101.915869 
L 372.339609 -103.94457 
L 374.714127 -105.973272 
L 377.039035 -108.001974 
L 379.314334 -110.030676 
L 381.540024 -112.059378 
L 383.680131 -114.088079 
L 385.698682 -116.116781 
L 387.595679 -118.145483 
L 389.371121 -120.174185 
L 391.025008 -122.202887 
L 392.557339 -124.231588 
L 393.968115 -126.26029 
L 395.257337 -128.288992 
L 396.560351 -130.317694 
L 398.012505 -132.346395 
L 399.613799 -134.375097 
L 401.364234 -136.403799 
L 403.263809 -138.432501 
L 405.312524 -140.461203 
L 407.51038 -142.489904 
L 409.857376 -144.518606 
L 412.217901 -146.547308 
L 414.456344 -148.57601 
L 416.572704 -150.604712 
L 418.566983 -152.633413 
L 420.439179 -154.662115 
L 422.189293 -156.690817 
L 423.817325 -158.719519 
L 425.323275 -160.748221 
L 426.77795 -162.776922 
L 428.252156 -164.805624 
L 429.745894 -166.834326 
L 431.259163 -168.863028 
L 432.791964 -170.89173 
L 434.344297 -172.920431 
L 435.916161 -174.949133 
L 437.507556 -176.977835 
L 439.081257 -179.006537 
L 440.600037 -181.035238 
L 442.063895 -183.06394 
L 443.472832 -185.092642 
L 444.826849 -187.121344 
L 446.125943 -189.150046 
L 447.370117 -191.178747 
L 448.559369 -193.207449 
L 449.708027 -195.236151 
L 450.830416 -197.264853 
L 451.926536 -199.293555 
L 452.996388 -201.322256 
L 454.039971 -203.350958 
L 455.057286 -205.37966 
L 456.048332 -207.408362 
L 457.01311 -209.437064 
L 457.984897 -211.465765 
L 458.996971 -213.494467 
L 460.049333 -215.523169 
L 461.141983 -217.551871 
L 462.27492 -219.580572 
L 463.448144 -221.609274 
L 464.661657 -223.637976 
L 465.915456 -225.666678 
L 467.308431 -227.69538 
L 468.939468 -229.724081 
L 470.808567 -231.752783 
L 472.915729 -233.781485 
L 475.260953 -235.810187 
L 477.844239 -237.838889 
L 480.665588 -239.86759 
L 483.724998 -241.896292 
L 487.022472 -243.924994 
L 490.558007 -245.953696 
L 494.331605 -247.982398 
L 498.343265 -250.011099 
L 502.592987 -252.039801 
L 546.33539 -252.039801 
L 546.33539 -252.039801 
L 546.076696 -250.011099 
L 545.669701 -247.982398 
L 545.114407 -245.953696 
L 544.410811 -243.924994 
L 543.558916 -241.896292 
L 542.55872 -239.86759 
L 541.410224 -237.838889 
L 540.113427 -235.810187 
L 538.668331 -233.781485 
L 537.074933 -231.752783 
L 535.333236 -229.724081 
L 533.443238 -227.69538 
L 531.404939 -225.666678 
L 529.218341 -223.637976 
L 526.883442 -221.609274 
L 524.488859 -219.580572 
L 522.123208 -217.551871 
L 519.78649 -215.523169 
L 517.478704 -213.494467 
L 515.199851 -211.465765 
L 512.949931 -209.437064 
L 510.728942 -207.408362 
L 508.536887 -205.37966 
L 506.292787 -203.350958 
L 503.915666 -201.322256 
L 501.405523 -199.293555 
L 498.76236 -197.264853 
L 495.986176 -195.236151 
L 493.07697 -193.207449 
L 490.034744 -191.178747 
L 486.859496 -189.150046 
L 483.661216 -187.121344 
L 480.549892 -185.092642 
L 477.525524 -183.06394 
L 474.588113 -181.035238 
L 471.737658 -179.006537 
L 468.974159 -176.977835 
L 466.297616 -174.949133 
L 463.70803 -172.920431 
L 461.178699 -170.89173 
L 458.682924 -168.863028 
L 456.220703 -166.834326 
L 453.792037 -164.805624 
L 451.396927 -162.776922 
L 449.035371 -160.748221 
L 446.70737 -158.719519 
L 444.412925 -156.690817 
L 442.198654 -154.662115 
L 440.111179 -152.633413 
L 438.150499 -150.604712 
L 436.316613 -148.57601 
L 434.609523 -146.547308 
L 433.029228 -144.518606 
L 431.575728 -142.489904 
L 430.249023 -140.461203 
L 428.905385 -138.432501 
L 427.401083 -136.403799 
L 425.736118 -134.375097 
L 423.91049 -132.346395 
L 421.9242 -130.317694 
L 419.777246 -128.288992 
L 417.469629 -126.26029 
L 415.00135 -124.231588 
L 412.549404 -122.202887 
L 410.290789 -120.174185 
L 408.225505 -118.145483 
L 406.353552 -116.116781 
L 404.67493 -114.088079 
L 403.189638 -112.059378 
L 401.897677 -110.030676 
L 400.799047 -108.001974 
L 399.772956 -105.973272 
L 398.698611 -103.94457 
L 397.576013 -101.915869 
L 396.405161 -99.887167 
L 395.186056 -97.858465 
L 393.918697 -95.829763 
L 392.603084 -93.801061 
L 391.239218 -91.77236 
L 389.785723 -89.743658 
L 388.201224 -87.714956 
L 386.48572 -85.686254 
L 384.639212 -83.657553 
L 382.6617 -81.628851 
L 380.553183 -79.600149 
L 378.313662 -77.571447 
L 375.943136 -75.542745 
L 373.45199 -73.514044 
L 370.850608 -71.485342 
L 368.13899 -69.45664 
L 365.317135 -67.427938 
L 362.385044 -65.399236 
L 359.342716 -63.370535 
L 356.190152 -61.341833 
L 352.927352 -59.313131 
L 349.554316 -57.284429 
L 346.071043 -55.255727 
L 342.477534 -53.227026 
L 338.773789 -51.198324 
z
" style="stroke: #90ee90; stroke-opacity: 0.75"/>
    </defs>
    <g clip-path="url(#p626c181e2e)">
     <use xlink:href="#m604c9c7a64" x="0" y="288" style="fill: #90ee90; fill-opacity: 0.75; stroke: #90ee90; stroke-opacity: 0.75"/>
    </g>
   </g>
   <g id="PolyCollection_4">
    <defs>
     <path id="mad6f8da144" d="M 338.762981 -51.198324 
L 338.656805 -51.198324 
L 340.567237 -53.227026 
L 342.468226 -55.255727 
L 344.362869 -57.284429 
L 346.25659 -59.313131 
L 348.149944 -61.341833 
L 350.038239 -63.370535 
L 351.929966 -65.399236 
L 353.818257 -67.427938 
L 355.711742 -69.45664 
L 357.602172 -71.485342 
L 359.494241 -73.514044 
L 361.384464 -75.542745 
L 363.281072 -77.571447 
L 365.163262 -79.600149 
L 367.061286 -81.628851 
L 368.951367 -83.657553 
L 370.852367 -85.686254 
L 372.738873 -87.714956 
L 374.632515 -89.743658 
L 376.528061 -91.77236 
L 378.428362 -93.801061 
L 380.323083 -95.829763 
L 382.219384 -97.858465 
L 384.110275 -99.887167 
L 386.022976 -101.915869 
L 387.916354 -103.94457 
L 389.818167 -105.973272 
L 391.716575 -108.001974 
L 393.620344 -110.030676 
L 395.521043 -112.059378 
L 397.437723 -114.088079 
L 399.340153 -116.116781 
L 401.238754 -118.145483 
L 403.146575 -120.174185 
L 405.056965 -122.202887 
L 406.980136 -124.231588 
L 408.888244 -126.26029 
L 410.81023 -128.288992 
L 412.728297 -130.317694 
L 414.632566 -132.346395 
L 416.546028 -134.375097 
L 418.469266 -136.403799 
L 420.390133 -138.432501 
L 422.303851 -140.461203 
L 424.218361 -142.489904 
L 426.139439 -144.518606 
L 428.054524 -146.547308 
L 429.979824 -148.57601 
L 431.891193 -150.604712 
L 433.828034 -152.633413 
L 435.755364 -154.662115 
L 437.684849 -156.690817 
L 439.619853 -158.719519 
L 441.547342 -160.748221 
L 443.471835 -162.776922 
L 445.406774 -164.805624 
L 447.344794 -166.834326 
L 449.27856 -168.863028 
L 451.20869 -170.89173 
L 453.151987 -172.920431 
L 455.086011 -174.949133 
L 457.016013 -176.977835 
L 458.956248 -179.006537 
L 460.905456 -181.035238 
L 462.847597 -183.06394 
L 464.789358 -185.092642 
L 466.732773 -187.121344 
L 468.670829 -189.150046 
L 470.613744 -191.178747 
L 472.558162 -193.207449 
L 474.493729 -195.236151 
L 476.437725 -197.264853 
L 478.377255 -199.293555 
L 480.333381 -201.322256 
L 482.277205 -203.350958 
L 484.219474 -205.37966 
L 486.185086 -207.408362 
L 488.125398 -209.437064 
L 490.091636 -211.465765 
L 492.04655 -213.494467 
L 493.989608 -215.523169 
L 495.944241 -217.551871 
L 497.891525 -219.580572 
L 499.827643 -221.609274 
L 501.776864 -223.637976 
L 503.736362 -225.666678 
L 505.686574 -227.69538 
L 507.620443 -229.724081 
L 509.584714 -231.752783 
L 511.539505 -233.781485 
L 513.495845 -235.810187 
L 515.44011 -237.838889 
L 517.39982 -239.86759 
L 519.347274 -241.896292 
L 521.283629 -243.924994 
L 523.247265 -245.953696 
L 525.183133 -247.982398 
L 527.123645 -250.011099 
L 529.051189 -252.039801 
L 532.780028 -252.039801 
L 532.780028 -252.039801 
L 530.784755 -250.011099 
L 528.805323 -247.982398 
L 526.827062 -245.953696 
L 524.844827 -243.924994 
L 522.859492 -241.896292 
L 520.878831 -239.86759 
L 518.890424 -237.838889 
L 516.89887 -235.810187 
L 514.91385 -233.781485 
L 512.93623 -231.752783 
L 510.956687 -229.724081 
L 508.974297 -227.69538 
L 506.983941 -225.666678 
L 505.006414 -223.637976 
L 503.021046 -221.609274 
L 501.054062 -219.580572 
L 499.066029 -217.551871 
L 497.08495 -215.523169 
L 495.108978 -213.494467 
L 493.111579 -211.465765 
L 491.134055 -209.437064 
L 489.155214 -207.408362 
L 487.188492 -205.37966 
L 485.208428 -203.350958 
L 483.218921 -201.322256 
L 481.238575 -199.293555 
L 479.265527 -197.264853 
L 477.289256 -195.236151 
L 475.323791 -193.207449 
L 473.351047 -191.178747 
L 471.371941 -189.150046 
L 469.393114 -187.121344 
L 467.423931 -185.092642 
L 465.447322 -183.06394 
L 463.480747 -181.035238 
L 461.507444 -179.006537 
L 459.542871 -176.977835 
L 457.566528 -174.949133 
L 455.601324 -172.920431 
L 453.637008 -170.89173 
L 451.675479 -168.863028 
L 449.713018 -166.834326 
L 447.734227 -164.805624 
L 445.775408 -162.776922 
L 443.815588 -160.748221 
L 441.855903 -158.719519 
L 439.900423 -156.690817 
L 437.940001 -154.662115 
L 435.977407 -152.633413 
L 434.034091 -150.604712 
L 432.07351 -148.57601 
L 430.120534 -146.547308 
L 428.16003 -144.518606 
L 426.216827 -142.489904 
L 424.264701 -140.461203 
L 422.304336 -138.432501 
L 420.359741 -136.403799 
L 418.413213 -134.375097 
L 416.472267 -132.346395 
L 414.522042 -130.317694 
L 412.574834 -128.288992 
L 410.631042 -126.26029 
L 408.681586 -124.231588 
L 406.734353 -122.202887 
L 404.782291 -120.174185 
L 402.843045 -118.145483 
L 400.902224 -116.116781 
L 398.961129 -114.088079 
L 397.015248 -112.059378 
L 395.079942 -110.030676 
L 393.134284 -108.001974 
L 391.197911 -105.973272 
L 389.252451 -103.94457 
L 387.311035 -101.915869 
L 385.37843 -99.887167 
L 383.43842 -97.858465 
L 381.500784 -95.829763 
L 379.563364 -93.801061 
L 377.617036 -91.77236 
L 375.68136 -89.743658 
L 373.741388 -87.714956 
L 371.798413 -85.686254 
L 369.858191 -83.657553 
L 367.915281 -81.628851 
L 365.974817 -79.600149 
L 364.038084 -77.571447 
L 362.094956 -75.542745 
L 360.154141 -73.514044 
L 358.21594 -71.485342 
L 356.271232 -69.45664 
L 354.32881 -67.427938 
L 352.381136 -65.399236 
L 350.439387 -63.370535 
L 348.489941 -61.341833 
L 346.543133 -59.313131 
L 344.596801 -57.284429 
L 342.644978 -55.255727 
L 340.699962 -53.227026 
L 338.762981 -51.198324 
z
" style="stroke: #6495ed; stroke-opacity: 0.75"/>
    </defs>
    <g clip-path="url(#p626c181e2e)">
     <use xlink:href="#mad6f8da144" x="0" y="288" style="fill: #6495ed; fill-opacity: 0.75; stroke: #6495ed; stroke-opacity: 0.75"/>
    </g>
   </g>
   <g id="matplotlib.axis_3">
    <g id="xtick_8">
     <g id="line2d_26">
      <g>
       <use xlink:href="#m82ed9e0fd7" x="338.718084" y="246.84375" style="stroke: #000000; stroke-width: 0.8"/>
      </g>
     </g>
     <g id="text_24">
      <!-- 0.00 -->
      <g transform="translate(327.585271 261.442187) scale(0.1 -0.1)">
       <use xlink:href="#DejaVuSans-30"/>
       <use xlink:href="#DejaVuSans-2e" x="63.623047"/>
       <use xlink:href="#DejaVuSans-30" x="95.410156"/>
       <use xlink:href="#DejaVuSans-30" x="159.033203"/>
      </g>
     </g>
    </g>
    <g id="xtick_9">
     <g id="line2d_27">
      <g>
       <use xlink:href="#m82ed9e0fd7" x="374.540112" y="246.84375" style="stroke: #000000; stroke-width: 0.8"/>
      </g>
     </g>
     <g id="text_25">
      <!-- 0.02 -->
      <g transform="translate(363.407299 261.442187) scale(0.1 -0.1)">
       <use xlink:href="#DejaVuSans-30"/>
       <use xlink:href="#DejaVuSans-2e" x="63.623047"/>
       <use xlink:href="#DejaVuSans-30" x="95.410156"/>
       <use xlink:href="#DejaVuSans-32" x="159.033203"/>
      </g>
     </g>
    </g>
    <g id="xtick_10">
     <g id="line2d_28">
      <g>
       <use xlink:href="#m82ed9e0fd7" x="410.36214" y="246.84375" style="stroke: #000000; stroke-width: 0.8"/>
      </g>
     </g>
     <g id="text_26">
      <!-- 0.04 -->
      <g transform="translate(399.229327 261.442187) scale(0.1 -0.1)">
       <use xlink:href="#DejaVuSans-30"/>
       <use xlink:href="#DejaVuSans-2e" x="63.623047"/>
       <use xlink:href="#DejaVuSans-30" x="95.410156"/>
       <use xlink:href="#DejaVuSans-34" x="159.033203"/>
      </g>
     </g>
    </g>
    <g id="xtick_11">
     <g id="line2d_29">
      <g>
       <use xlink:href="#m82ed9e0fd7" x="446.184168" y="246.84375" style="stroke: #000000; stroke-width: 0.8"/>
      </g>
     </g>
     <g id="text_27">
      <!-- 0.06 -->
      <g transform="translate(435.051355 261.442187) scale(0.1 -0.1)">
       <use xlink:href="#DejaVuSans-30"/>
       <use xlink:href="#DejaVuSans-2e" x="63.623047"/>
       <use xlink:href="#DejaVuSans-30" x="95.410156"/>
       <use xlink:href="#DejaVuSans-36" x="159.033203"/>
      </g>
     </g>
    </g>
    <g id="xtick_12">
     <g id="line2d_30">
      <g>
       <use xlink:href="#m82ed9e0fd7" x="482.006196" y="246.84375" style="stroke: #000000; stroke-width: 0.8"/>
      </g>
     </g>
     <g id="text_28">
      <!-- 0.08 -->
      <g transform="translate(470.873383 261.442187) scale(0.1 -0.1)">
       <use xlink:href="#DejaVuSans-30"/>
       <use xlink:href="#DejaVuSans-2e" x="63.623047"/>
       <use xlink:href="#DejaVuSans-30" x="95.410156"/>
       <use xlink:href="#DejaVuSans-38" x="159.033203"/>
      </g>
     </g>
    </g>
    <g id="xtick_13">
     <g id="line2d_31">
      <g>
       <use xlink:href="#m82ed9e0fd7" x="517.828224" y="246.84375" style="stroke: #000000; stroke-width: 0.8"/>
      </g>
     </g>
     <g id="text_29">
      <!-- 0.10 -->
      <g transform="translate(506.695411 261.442187) scale(0.1 -0.1)">
       <use xlink:href="#DejaVuSans-30"/>
       <use xlink:href="#DejaVuSans-2e" x="63.623047"/>
       <use xlink:href="#DejaVuSans-31" x="95.410156"/>
       <use xlink:href="#DejaVuSans-30" x="159.033203"/>
      </g>
     </g>
    </g>
    <g id="xtick_14">
     <g id="line2d_32">
      <g>
       <use xlink:href="#m82ed9e0fd7" x="553.650252" y="246.84375" style="stroke: #000000; stroke-width: 0.8"/>
      </g>
     </g>
     <g id="text_30">
      <!-- 0.12 -->
      <g transform="translate(542.517439 261.442187) scale(0.1 -0.1)">
       <use xlink:href="#DejaVuSans-30"/>
       <use xlink:href="#DejaVuSans-2e" x="63.623047"/>
       <use xlink:href="#DejaVuSans-31" x="95.410156"/>
       <use xlink:href="#DejaVuSans-32" x="159.033203"/>
      </g>
     </g>
    </g>
    <g id="text_31">
     <!-- Shear Extension [mm] -->
     <g transform="translate(381.323192 275.120313) scale(0.1 -0.1)">
      <defs>
       <path id="DejaVuSans-53" d="M 3425 4513 
L 3425 3897 
Q 3066 4069 2747 4153 
Q 2428 4238 2131 4238 
Q 1616 4238 1336 4038 
Q 1056 3838 1056 3469 
Q 1056 3159 1242 3001 
Q 1428 2844 1947 2747 
L 2328 2669 
Q 3034 2534 3370 2195 
Q 3706 1856 3706 1288 
Q 3706 609 3251 259 
Q 2797 -91 1919 -91 
Q 1588 -91 1214 -16 
Q 841 59 441 206 
L 441 856 
Q 825 641 1194 531 
Q 1563 422 1919 422 
Q 2459 422 2753 634 
Q 3047 847 3047 1241 
Q 3047 1584 2836 1778 
Q 2625 1972 2144 2069 
L 1759 2144 
Q 1053 2284 737 2584 
Q 422 2884 422 3419 
Q 422 4038 858 4394 
Q 1294 4750 2059 4750 
Q 2388 4750 2728 4690 
Q 3069 4631 3425 4513 
z
" transform="scale(0.015625)"/>
       <path id="DejaVuSans-68" d="M 3513 2113 
L 3513 0 
L 2938 0 
L 2938 2094 
Q 2938 2591 2744 2837 
Q 2550 3084 2163 3084 
Q 1697 3084 1428 2787 
Q 1159 2491 1159 1978 
L 1159 0 
L 581 0 
L 581 4863 
L 1159 4863 
L 1159 2956 
Q 1366 3272 1645 3428 
Q 1925 3584 2291 3584 
Q 2894 3584 3203 3211 
Q 3513 2838 3513 2113 
z
" transform="scale(0.015625)"/>
      </defs>
      <use xlink:href="#DejaVuSans-53"/>
      <use xlink:href="#DejaVuSans-68" x="63.476562"/>
      <use xlink:href="#DejaVuSans-65" x="126.855469"/>
      <use xlink:href="#DejaVuSans-61" x="188.378906"/>
      <use xlink:href="#DejaVuSans-72" x="249.658203"/>
      <use xlink:href="#DejaVuSans-20" x="290.771484"/>
      <use xlink:href="#DejaVuSans-45" x="322.558594"/>
      <use xlink:href="#DejaVuSans-78" x="385.742188"/>
      <use xlink:href="#DejaVuSans-74" x="444.921875"/>
      <use xlink:href="#DejaVuSans-65" x="484.130859"/>
      <use xlink:href="#DejaVuSans-6e" x="545.654297"/>
      <use xlink:href="#DejaVuSans-73" x="609.033203"/>
      <use xlink:href="#DejaVuSans-69" x="661.132812"/>
      <use xlink:href="#DejaVuSans-6f" x="688.916016"/>
      <use xlink:href="#DejaVuSans-6e" x="750.097656"/>
      <use xlink:href="#DejaVuSans-20" x="813.476562"/>
      <use xlink:href="#DejaVuSans-5b" x="845.263672"/>
      <use xlink:href="#DejaVuSans-6d" x="884.277344"/>
      <use xlink:href="#DejaVuSans-6d" x="981.689453"/>
      <use xlink:href="#DejaVuSans-5d" x="1079.101562"/>
     </g>
    </g>
   </g>
   <g id="matplotlib.axis_4">
    <g id="ytick_7">
     <g id="line2d_33">
      <g>
       <use xlink:href="#ma4befd6c0f" x="311.851562" y="236.801676" style="stroke: #000000; stroke-width: 0.8"/>
      </g>
     </g>
    </g>
    <g id="ytick_8">
     <g id="line2d_34">
      <g>
       <use xlink:href="#ma4befd6c0f" x="311.851562" y="196.633381" style="stroke: #000000; stroke-width: 0.8"/>
      </g>
     </g>
    </g>
    <g id="ytick_9">
     <g id="line2d_35">
      <g>
       <use xlink:href="#ma4befd6c0f" x="311.851562" y="156.465085" style="stroke: #000000; stroke-width: 0.8"/>
      </g>
     </g>
    </g>
    <g id="ytick_10">
     <g id="line2d_36">
      <g>
       <use xlink:href="#ma4befd6c0f" x="311.851562" y="116.29679" style="stroke: #000000; stroke-width: 0.8"/>
      </g>
     </g>
    </g>
    <g id="ytick_11">
     <g id="line2d_37">
      <g>
       <use xlink:href="#ma4befd6c0f" x="311.851562" y="76.128494" style="stroke: #000000; stroke-width: 0.8"/>
      </g>
     </g>
    </g>
    <g id="ytick_12">
     <g id="line2d_38">
      <g>
       <use xlink:href="#ma4befd6c0f" x="311.851562" y="35.960199" style="stroke: #000000; stroke-width: 0.8"/>
      </g>
     </g>
    </g>
   </g>
   <g id="line2d_39">
    <path d="M 311.851562 236.801676 
L 562.605759 236.801676 
" clip-path="url(#p626c181e2e)" style="fill: none; stroke-dasharray: 2.775,1.2; stroke-dashoffset: 0; stroke: #808080; stroke-opacity: 0.75; stroke-width: 0.75"/>
   </g>
   <g id="line2d_40">
    <path d="M 338.718084 246.84375 
L 338.718084 25.918125 
" clip-path="url(#p626c181e2e)" style="fill: none; stroke-dasharray: 2.775,1.2; stroke-dashoffset: 0; stroke: #808080; stroke-opacity: 0.75; stroke-width: 0.75"/>
   </g>
   <g id="line2d_41">
    <path d="M 338.723729 236.801676 
L 340.338718 234.772974 
L 341.995723 232.744273 
L 343.690596 230.715571 
L 345.419084 228.686869 
L 347.176929 226.658167 
L 348.959956 224.629465 
L 350.764156 222.600764 
L 352.585744 220.572062 
L 354.421206 218.54336 
L 356.267323 216.514658 
L 358.121184 214.485956 
L 359.980181 212.457255 
L 361.842006 210.428553 
L 363.704638 208.399851 
L 365.566331 206.371149 
L 367.425602 204.342447 
L 369.281222 202.313746 
L 371.132199 200.285044 
L 372.977763 198.256342 
L 374.817353 196.22764 
L 376.650592 194.198939 
L 378.477282 192.170237 
L 380.297385 190.141535 
L 382.111021 188.112833 
L 383.918462 186.084131 
L 385.72013 184.05543 
L 387.516592 182.026728 
L 389.308541 179.998026 
L 391.096771 177.969324 
L 392.88214 175.940622 
L 394.665522 173.911921 
L 396.447761 171.883219 
L 398.229624 169.854517 
L 400.011771 167.825815 
L 401.794746 165.797113 
L 403.578984 163.768412 
L 405.364843 161.73971 
L 407.152659 159.711008 
L 408.942799 157.682306 
L 410.735718 155.653605 
L 412.532007 153.624903 
L 414.332405 151.596201 
L 416.137792 149.567499 
L 417.94915 147.538797 
L 419.767496 145.510096 
L 421.593817 143.481394 
L 423.428993 141.452692 
L 425.273752 139.42399 
L 427.128647 137.395288 
L 428.994064 135.366587 
L 430.870255 133.337885 
L 432.757388 131.309183 
L 434.655592 129.280481 
L 436.564979 127.251779 
L 438.485643 125.223078 
L 440.417618 123.194376 
L 442.360803 121.165674 
L 444.314869 119.136972 
L 446.279152 117.10827 
L 448.252557 115.079569 
L 450.233493 113.050867 
L 452.219844 111.022165 
L 454.208993 108.993463 
L 456.197909 106.964762 
L 458.183278 104.93606 
L 460.161679 102.907358 
L 462.12977 100.878656 
L 464.084484 98.849954 
L 466.023181 96.821253 
L 467.943755 94.792551 
L 469.844688 92.763849 
L 471.725037 90.735147 
L 473.584384 88.706445 
L 475.422763 86.677744 
L 477.240591 84.649042 
L 479.038629 82.62034 
L 480.817984 80.591638 
L 482.580156 78.562936 
L 484.327122 76.534235 
L 486.061431 74.505533 
L 487.786288 72.476831 
L 489.505599 70.448129 
L 491.223945 68.419428 
L 492.946496 66.390726 
L 494.678833 64.362024 
L 496.426714 62.333322 
L 498.19579 60.30462 
L 499.991301 58.275919 
L 501.817771 56.247217 
L 503.678741 54.218515 
L 505.576546 52.189813 
L 507.51215 50.161111 
L 509.485062 48.13241 
L 511.493303 46.103708 
L 513.533444 44.075006 
L 515.600684 42.046304 
L 517.688952 40.017602 
L 519.791031 37.988901 
L 521.89867 35.960199 
" clip-path="url(#p626c181e2e)" style="fill: none; stroke-dasharray: 3.7,1.6; stroke-dashoffset: 0; stroke: #008000"/>
   </g>
   <g id="line2d_42">
    <path d="M 338.710006 236.801676 
L 340.636569 234.772974 
L 342.562614 232.744273 
L 344.488213 230.715571 
L 346.411852 228.686869 
L 348.335488 226.658167 
L 350.257483 224.629465 
L 352.179079 222.600764 
L 354.100527 220.572062 
L 356.020854 218.54336 
L 357.940532 216.514658 
L 359.859846 214.485956 
L 361.778559 212.457255 
L 363.697351 210.428553 
L 365.616255 208.399851 
L 367.534697 206.371149 
L 369.453193 204.342447 
L 371.371217 202.313746 
L 373.288949 200.285044 
L 375.207784 198.256342 
L 377.12588 196.22764 
L 379.04503 194.198939 
L 380.963529 192.170237 
L 382.883056 190.141535 
L 384.802904 188.112833 
L 386.722279 186.084131 
L 388.642712 184.05543 
L 390.563582 182.026728 
L 392.485965 179.998026 
L 394.407836 177.969324 
L 396.330758 175.940622 
L 398.254361 173.911921 
L 400.178238 171.883219 
L 402.103984 169.854517 
L 404.028886 167.825815 
L 405.955791 165.797113 
L 407.883253 163.768412 
L 409.810908 161.73971 
L 411.740492 159.711008 
L 413.670698 157.682306 
L 415.601924 155.653605 
L 417.533757 153.624903 
L 419.466848 151.596201 
L 421.400559 149.567499 
L 423.335799 147.538797 
L 425.272037 145.510096 
L 427.208682 143.481394 
L 429.146993 141.452692 
L 431.08579 139.42399 
L 433.026093 137.395288 
L 434.967202 135.366587 
L 436.908983 133.337885 
L 438.852744 131.309183 
L 440.796684 129.280481 
L 442.742315 127.251779 
L 444.688035 125.223078 
L 446.635405 123.194376 
L 448.584135 121.165674 
L 450.533522 119.136972 
L 452.483645 117.10827 
L 454.434564 115.079569 
L 456.387041 113.050867 
L 458.340422 111.022165 
L 460.294358 108.993463 
L 462.249426 106.964762 
L 464.20482 104.93606 
L 466.16144 102.907358 
L 468.118664 100.878656 
L 470.077734 98.849954 
L 472.036434 96.821253 
L 473.996241 94.792551 
L 475.955982 92.763849 
L 477.917977 90.735147 
L 479.879282 88.706445 
L 481.841381 86.677744 
L 483.804455 84.649042 
L 485.767577 82.62034 
L 487.731434 80.591638 
L 489.695666 78.562936 
L 491.660902 76.534235 
L 493.626051 74.505533 
L 495.591154 72.476831 
L 497.556301 70.448129 
L 499.522621 68.419428 
L 501.488253 66.390726 
L 503.453977 64.362024 
L 505.420725 62.333322 
L 507.386339 60.30462 
L 509.35268 58.275919 
L 511.318343 56.247217 
L 513.283644 54.218515 
L 515.248989 52.189813 
L 517.214085 50.161111 
L 519.179001 48.13241 
L 521.143053 46.103708 
L 523.106871 44.075006 
L 525.069607 42.046304 
L 527.033294 40.017602 
L 528.994041 37.988901 
L 530.954869 35.960199 
" clip-path="url(#p626c181e2e)" style="fill: none; stroke: #0000ff; stroke-width: 0.5; stroke-linecap: square"/>
   </g>
   <g id="line2d_43">
    <g clip-path="url(#p626c181e2e)">
     <use xlink:href="#mf4ab42e962" x="338.718084" y="236.801676" style="fill: #1f77b4; stroke: #1f77b4"/>
     <use xlink:href="#mf4ab42e962" x="363.035788" y="211.256531" style="fill: #1f77b4; stroke: #1f77b4"/>
     <use xlink:href="#mf4ab42e962" x="373.589485" y="199.503823" style="fill: #1f77b4; stroke: #1f77b4"/>
     <use xlink:href="#mf4ab42e962" x="384.489274" y="187.394973" style="fill: #1f77b4; stroke: #1f77b4"/>
     <use xlink:href="#mf4ab42e962" x="395.892756" y="175.998408" style="fill: #1f77b4; stroke: #1f77b4"/>
     <use xlink:href="#mf4ab42e962" x="407.148533" y="163.662922" style="fill: #1f77b4; stroke: #1f77b4"/>
     <use xlink:href="#mf4ab42e962" x="417.850312" y="152.395863" style="fill: #1f77b4; stroke: #1f77b4"/>
     <use xlink:href="#mf4ab42e962" x="428.226538" y="142.002973" style="fill: #1f77b4; stroke: #1f77b4"/>
     <use xlink:href="#mf4ab42e962" x="438.860154" y="130.541654" style="fill: #1f77b4; stroke: #1f77b4"/>
     <use xlink:href="#mf4ab42e962" x="448.937483" y="121.281944" style="fill: #1f77b4; stroke: #1f77b4"/>
     <use xlink:href="#mf4ab42e962" x="457.92443" y="111.083312" style="fill: #1f77b4; stroke: #1f77b4"/>
     <use xlink:href="#mf4ab42e962" x="467.494595" y="101.920731" style="fill: #1f77b4; stroke: #1f77b4"/>
     <use xlink:href="#mf4ab42e962" x="475.554689" y="93.179045" style="fill: #1f77b4; stroke: #1f77b4"/>
     <use xlink:href="#mf4ab42e962" x="484.178955" y="84.307852" style="fill: #1f77b4; stroke: #1f77b4"/>
     <use xlink:href="#mf4ab42e962" x="492.999559" y="76.246073" style="fill: #1f77b4; stroke: #1f77b4"/>
     <use xlink:href="#mf4ab42e962" x="500.06903" y="68.79945" style="fill: #1f77b4; stroke: #1f77b4"/>
     <use xlink:href="#mf4ab42e962" x="508.253839" y="60.996683" style="fill: #1f77b4; stroke: #1f77b4"/>
     <use xlink:href="#mf4ab42e962" x="515.430565" y="54.10046" style="fill: #1f77b4; stroke: #1f77b4"/>
     <use xlink:href="#mf4ab42e962" x="523.443724" y="46.945225" style="fill: #1f77b4; stroke: #1f77b4"/>
     <use xlink:href="#mf4ab42e962" x="528.920059" y="40.308014" style="fill: #1f77b4; stroke: #1f77b4"/>
    </g>
   </g>
   <g id="line2d_44">
    <g clip-path="url(#p626c181e2e)">
     <use xlink:href="#m86101246f1" x="354.333019" y="221.487539" style="fill: #ff7f0e; stroke: #ff7f0e"/>
     <use xlink:href="#m86101246f1" x="366.30949" y="210.803258" style="fill: #ff7f0e; stroke: #ff7f0e"/>
     <use xlink:href="#m86101246f1" x="375.534342" y="199.600953" style="fill: #ff7f0e; stroke: #ff7f0e"/>
     <use xlink:href="#m86101246f1" x="387.360544" y="186.74744" style="fill: #ff7f0e; stroke: #ff7f0e"/>
     <use xlink:href="#m86101246f1" x="399.38282" y="174.379578" style="fill: #ff7f0e; stroke: #ff7f0e"/>
     <use xlink:href="#m86101246f1" x="412.013339" y="162.076468" style="fill: #ff7f0e; stroke: #ff7f0e"/>
     <use xlink:href="#m86101246f1" x="423.336119" y="148.931566" style="fill: #ff7f0e; stroke: #ff7f0e"/>
     <use xlink:href="#m86101246f1" x="436.310975" y="135.819041" style="fill: #ff7f0e; stroke: #ff7f0e"/>
     <use xlink:href="#m86101246f1" x="448.622842" y="123.742567" style="fill: #ff7f0e; stroke: #ff7f0e"/>
     <use xlink:href="#m86101246f1" x="461.619762" y="111.407078" style="fill: #ff7f0e; stroke: #ff7f0e"/>
     <use xlink:href="#m86101246f1" x="473.056442" y="99.460108" style="fill: #ff7f0e; stroke: #ff7f0e"/>
     <use xlink:href="#m86101246f1" x="485.390467" y="87.189371" style="fill: #ff7f0e; stroke: #ff7f0e"/>
     <use xlink:href="#m86101246f1" x="496.856698" y="75.469034" style="fill: #ff7f0e; stroke: #ff7f0e"/>
     <use xlink:href="#m86101246f1" x="508.910635" y="63.845826" style="fill: #ff7f0e; stroke: #ff7f0e"/>
     <use xlink:href="#m86101246f1" x="520.167956" y="53.323422" style="fill: #ff7f0e; stroke: #ff7f0e"/>
     <use xlink:href="#m86101246f1" x="531.828154" y="41.570703" style="fill: #ff7f0e; stroke: #ff7f0e"/>
    </g>
   </g>
   <g id="line2d_45">
    <g clip-path="url(#p626c181e2e)">
     <use xlink:href="#mddcdb98584" x="359.967621" y="213.814283" style="fill: #2ca02c; stroke: #2ca02c"/>
     <use xlink:href="#mddcdb98584" x="371.201505" y="202.741484" style="fill: #2ca02c; stroke: #2ca02c"/>
     <use xlink:href="#mddcdb98584" x="383.0906" y="190.503127" style="fill: #2ca02c; stroke: #2ca02c"/>
     <use xlink:href="#mddcdb98584" x="395.632078" y="178.3619" style="fill: #2ca02c; stroke: #2ca02c"/>
     <use xlink:href="#mddcdb98584" x="406.028243" y="166.285427" style="fill: #2ca02c; stroke: #2ca02c"/>
     <use xlink:href="#mddcdb98584" x="417.929046" y="154.176577" style="fill: #2ca02c; stroke: #2ca02c"/>
     <use xlink:href="#mddcdb98584" x="430.857801" y="140.837415" style="fill: #2ca02c; stroke: #2ca02c"/>
     <use xlink:href="#mddcdb98584" x="441.933605" y="128.145785" style="fill: #2ca02c; stroke: #2ca02c"/>
     <use xlink:href="#mddcdb98584" x="454.362249" y="116.3607" style="fill: #2ca02c; stroke: #2ca02c"/>
     <use xlink:href="#mddcdb98584" x="466.929303" y="103.733821" style="fill: #2ca02c; stroke: #2ca02c"/>
     <use xlink:href="#mddcdb98584" x="479.49955" y="91.78685" style="fill: #2ca02c; stroke: #2ca02c"/>
     <use xlink:href="#mddcdb98584" x="489.202517" y="79.775124" style="fill: #2ca02c; stroke: #2ca02c"/>
     <use xlink:href="#mddcdb98584" x="503.543758" y="68.443306" style="fill: #2ca02c; stroke: #2ca02c"/>
     <use xlink:href="#mddcdb98584" x="514.902573" y="56.755344" style="fill: #2ca02c; stroke: #2ca02c"/>
     <use xlink:href="#mddcdb98584" x="525.287229" y="46.297691" style="fill: #2ca02c; stroke: #2ca02c"/>
    </g>
   </g>
   <g id="patch_11">
    <path d="M 311.851562 246.84375 
L 311.851562 25.918125 
" style="fill: none; stroke: #000000; stroke-width: 0.8; stroke-linejoin: miter; stroke-linecap: square"/>
   </g>
   <g id="patch_12">
    <path d="M 562.605759 246.84375 
L 562.605759 25.918125 
" style="fill: none; stroke: #000000; stroke-width: 0.8; stroke-linejoin: miter; stroke-linecap: square"/>
   </g>
   <g id="patch_13">
    <path d="M 311.851562 246.84375 
L 562.605759 246.84375 
" style="fill: none; stroke: #000000; stroke-width: 0.8; stroke-linejoin: miter; stroke-linecap: square"/>
   </g>
   <g id="patch_14">
    <path d="M 311.851562 25.918125 
L 562.605759 25.918125 
" style="fill: none; stroke: #000000; stroke-width: 0.8; stroke-linejoin: miter; stroke-linecap: square"/>
   </g>
   <g id="text_32">
    <!-- Predictions ($90^\circ$) -->
    <g transform="translate(385.328661 19.918125) scale(0.12 -0.12)">
     <use xlink:href="#DejaVuSans-50" transform="translate(0 0.015625)"/>
     <use xlink:href="#DejaVuSans-72" transform="translate(60.302734 0.015625)"/>
     <use xlink:href="#DejaVuSans-65" transform="translate(101.416016 0.015625)"/>
     <use xlink:href="#DejaVuSans-64" transform="translate(162.939453 0.015625)"/>
     <use xlink:href="#DejaVuSans-69" transform="translate(226.416016 0.015625)"/>
     <use xlink:href="#DejaVuSans-63" transform="translate(254.199219 0.015625)"/>
     <use xlink:href="#DejaVuSans-74" transform="translate(309.179688 0.015625)"/>
     <use xlink:href="#DejaVuSans-69" transform="translate(348.388672 0.015625)"/>
     <use xlink:href="#DejaVuSans-6f" transform="translate(376.171875 0.015625)"/>
     <use xlink:href="#DejaVuSans-6e" transform="translate(437.353516 0.015625)"/>
     <use xlink:href="#DejaVuSans-73" transform="translate(500.732422 0.015625)"/>
     <use xlink:href="#DejaVuSans-20" transform="translate(552.832031 0.015625)"/>
     <use xlink:href="#DejaVuSans-28" transform="translate(584.619141 0.015625)"/>
     <use xlink:href="#DejaVuSans-39" transform="translate(623.632812 0.015625)"/>
     <use xlink:href="#DejaVuSans-30" transform="translate(687.255859 0.015625)"/>
     <use xlink:href="#DejaVuSans-2218" transform="translate(765.473633 38.296875) scale(0.7)"/>
     <use xlink:href="#DejaVuSans-29" transform="translate(825.664062 0.015625)"/>
    </g>
   </g>
  </g>
 </g>
 <defs>
  <clipPath id="p6e5465be63">
   <rect x="44.203125" y="25.918125" width="250.754196" height="220.925625"/>
  </clipPath>
  <clipPath id="p626c181e2e">
   <rect x="311.851562" y="25.918125" width="250.754196" height="220.925625"/>
  </clipPath>
 </defs>
</svg>
