<?xml version="1.0" encoding="utf-8" standalone="no"?>
<!DOCTYPE svg PUBLIC "-//W3C//DTD SVG 1.1//EN"
  "http://www.w3.org/Graphics/SVG/1.1/DTD/svg11.dtd">
<svg xmlns:xlink="http://www.w3.org/1999/xlink" width="1440pt" height="288pt" viewBox="0 0 1440 288" xmlns="http://www.w3.org/2000/svg" version="1.1">
 <metadata>
  <rdf:RDF xmlns:dc="http://purl.org/dc/elements/1.1/" xmlns:cc="http://creativecommons.org/ns#" xmlns:rdf="http://www.w3.org/1999/02/22-rdf-syntax-ns#">
   <cc:Work>
    <dc:type rdf:resource="http://purl.org/dc/dcmitype/StillImage"/>
    <dc:date>2024-11-24T11:30:37.102112</dc:date>
    <dc:format>image/svg+xml</dc:format>
    <dc:creator>
     <cc:Agent>
      <dc:title>Matplotlib v3.9.2, https://matplotlib.org/</dc:title>
     </cc:Agent>
    </dc:creator>
   </cc:Work>
  </rdf:RDF>
 </metadata>
 <defs>
  <style type="text/css">*{stroke-linejoin: round; stroke-linecap: butt}</style>
 </defs>
 <g id="figure_1">
  <g id="patch_1">
   <path d="M 0 288 
L 1440 288 
L 1440 0 
L 0 0 
z
" style="fill: #ffffff"/>
  </g>
  <g id="axes_1">
   <g id="patch_2">
    <path d="M 36.457115 245.890385 
L 299.03926 245.890385 
L 299.03926 16.638052 
L 36.457115 16.638052 
z
" style="fill: #ffffff"/>
   </g>
   <g id="patch_3">
    <path d="M 48.392667 245.890385 
L 52.090871 245.890385 
L 52.090871 244.398342 
L 48.392667 244.398342 
z
" clip-path="url(#pa16c763847)" style="fill: #1f77b4"/>
   </g>
   <g id="patch_4">
    <path d="M 52.501782 245.890385 
L 56.199986 245.890385 
L 56.199986 240.419562 
L 52.501782 240.419562 
z
" clip-path="url(#pa16c763847)" style="fill: #1f77b4"/>
   </g>
   <g id="patch_5">
    <path d="M 56.610897 245.890385 
L 60.309101 245.890385 
L 60.309101 239.922215 
L 56.610897 239.922215 
z
" clip-path="url(#pa16c763847)" style="fill: #1f77b4"/>
   </g>
   <g id="patch_6">
    <path d="M 60.720012 245.890385 
L 64.418216 245.890385 
L 64.418216 237.435477 
L 60.720012 237.435477 
z
" clip-path="url(#pa16c763847)" style="fill: #1f77b4"/>
   </g>
   <g id="patch_7">
    <path d="M 64.829127 245.890385 
L 68.527331 245.890385 
L 68.527331 231.467307 
L 64.829127 231.467307 
z
" clip-path="url(#pa16c763847)" style="fill: #1f77b4"/>
   </g>
   <g id="patch_8">
    <path d="M 68.938242 245.890385 
L 72.636446 245.890385 
L 72.636446 221.520357 
L 68.938242 221.520357 
z
" clip-path="url(#pa16c763847)" style="fill: #1f77b4"/>
   </g>
   <g id="patch_9">
    <path d="M 73.047357 245.890385 
L 76.745561 245.890385 
L 76.745561 206.599932 
L 73.047357 206.599932 
z
" clip-path="url(#pa16c763847)" style="fill: #1f77b4"/>
   </g>
   <g id="patch_10">
    <path d="M 77.156472 245.890385 
L 80.854676 245.890385 
L 80.854676 196.652982 
L 77.156472 196.652982 
z
" clip-path="url(#pa16c763847)" style="fill: #1f77b4"/>
   </g>
   <g id="patch_11">
    <path d="M 81.265587 245.890385 
L 84.963791 245.890385 
L 84.963791 160.346614 
L 81.265587 160.346614 
z
" clip-path="url(#pa16c763847)" style="fill: #1f77b4"/>
   </g>
   <g id="patch_12">
    <path d="M 85.374702 245.890385 
L 89.072906 245.890385 
L 89.072906 154.875792 
L 85.374702 154.875792 
z
" clip-path="url(#pa16c763847)" style="fill: #1f77b4"/>
   </g>
   <g id="patch_13">
    <path d="M 89.483817 245.890385 
L 93.182021 245.890385 
L 93.182021 114.093296 
L 89.483817 114.093296 
z
" clip-path="url(#pa16c763847)" style="fill: #1f77b4"/>
   </g>
   <g id="patch_14">
    <path d="M 93.592932 245.890385 
L 97.291136 245.890385 
L 97.291136 88.728573 
L 93.592932 88.728573 
z
" clip-path="url(#pa16c763847)" style="fill: #1f77b4"/>
   </g>
   <g id="patch_15">
    <path d="M 97.702047 245.890385 
L 101.400251 245.890385 
L 101.400251 51.42751 
L 97.702047 51.42751 
z
" clip-path="url(#pa16c763847)" style="fill: #1f77b4"/>
   </g>
   <g id="patch_16">
    <path d="M 101.811163 245.890385 
L 105.509366 245.890385 
L 105.509366 47.44873 
L 101.811163 47.44873 
z
" clip-path="url(#pa16c763847)" style="fill: #1f77b4"/>
   </g>
   <g id="patch_17">
    <path d="M 105.920278 245.890385 
L 109.618481 245.890385 
L 109.618481 27.55483 
L 105.920278 27.55483 
z
" clip-path="url(#pa16c763847)" style="fill: #1f77b4"/>
   </g>
   <g id="patch_18">
    <path d="M 110.029393 245.890385 
L 113.727596 245.890385 
L 113.727596 33.025653 
L 110.029393 33.025653 
z
" clip-path="url(#pa16c763847)" style="fill: #1f77b4"/>
   </g>
   <g id="patch_19">
    <path d="M 114.138508 245.890385 
L 117.836711 245.890385 
L 117.836711 40.983213 
L 114.138508 40.983213 
z
" clip-path="url(#pa16c763847)" style="fill: #1f77b4"/>
   </g>
   <g id="patch_20">
    <path d="M 118.247623 245.890385 
L 121.945826 245.890385 
L 121.945826 57.893028 
L 118.247623 57.893028 
z
" clip-path="url(#pa16c763847)" style="fill: #1f77b4"/>
   </g>
   <g id="patch_21">
    <path d="M 122.356738 245.890385 
L 126.054941 245.890385 
L 126.054941 83.755098 
L 122.356738 83.755098 
z
" clip-path="url(#pa16c763847)" style="fill: #1f77b4"/>
   </g>
   <g id="patch_22">
    <path d="M 126.465853 245.890385 
L 130.164056 245.890385 
L 130.164056 108.125126 
L 126.465853 108.125126 
z
" clip-path="url(#pa16c763847)" style="fill: #1f77b4"/>
   </g>
   <g id="patch_23">
    <path d="M 130.574968 245.890385 
L 134.273171 245.890385 
L 134.273171 129.511069 
L 130.574968 129.511069 
z
" clip-path="url(#pa16c763847)" style="fill: #1f77b4"/>
   </g>
   <g id="patch_24">
    <path d="M 134.684083 245.890385 
L 138.382286 245.890385 
L 138.382286 160.843962 
L 134.684083 160.843962 
z
" clip-path="url(#pa16c763847)" style="fill: #1f77b4"/>
   </g>
   <g id="patch_25">
    <path d="M 138.793198 245.890385 
L 142.491401 245.890385 
L 142.491401 181.732557 
L 138.793198 181.732557 
z
" clip-path="url(#pa16c763847)" style="fill: #1f77b4"/>
   </g>
   <g id="patch_26">
    <path d="M 142.902313 245.890385 
L 146.600516 245.890385 
L 146.600516 214.060145 
L 142.902313 214.060145 
z
" clip-path="url(#pa16c763847)" style="fill: #1f77b4"/>
   </g>
   <g id="patch_27">
    <path d="M 147.011428 245.890385 
L 150.709631 245.890385 
L 150.709631 221.520357 
L 147.011428 221.520357 
z
" clip-path="url(#pa16c763847)" style="fill: #1f77b4"/>
   </g>
   <g id="patch_28">
    <path d="M 151.120543 245.890385 
L 154.818746 245.890385 
L 154.818746 231.467307 
L 151.120543 231.467307 
z
" clip-path="url(#pa16c763847)" style="fill: #1f77b4"/>
   </g>
   <g id="patch_29">
    <path d="M 155.229658 245.890385 
L 158.927861 245.890385 
L 158.927861 238.430172 
L 155.229658 238.430172 
z
" clip-path="url(#pa16c763847)" style="fill: #1f77b4"/>
   </g>
   <g id="patch_30">
    <path d="M 159.338773 245.890385 
L 163.036977 245.890385 
L 163.036977 238.92752 
L 159.338773 238.92752 
z
" clip-path="url(#pa16c763847)" style="fill: #1f77b4"/>
   </g>
   <g id="patch_31">
    <path d="M 163.447888 245.890385 
L 167.146092 245.890385 
L 167.146092 242.9063 
L 163.447888 242.9063 
z
" clip-path="url(#pa16c763847)" style="fill: #1f77b4"/>
   </g>
   <g id="patch_32">
    <path d="M 167.557003 245.890385 
L 171.255207 245.890385 
L 171.255207 243.900995 
L 167.557003 243.900995 
z
" clip-path="url(#pa16c763847)" style="fill: #1f77b4"/>
   </g>
   <g id="matplotlib.axis_1">
    <g id="xtick_1">
     <g id="line2d_1">
      <defs>
       <path id="m941c37a9d0" d="M 0 0 
L 0 3.5 
" style="stroke: #000000; stroke-width: 0.8"/>
      </defs>
      <g>
       <use xlink:href="#m941c37a9d0" x="49.620834" y="245.890385" style="stroke: #000000; stroke-width: 0.8"/>
      </g>
     </g>
     <g id="text_1">
      <!-- −6000 -->
      <g transform="translate(25.940052 263.528197) scale(0.14 -0.14)">
       <defs>
        <path id="DejaVuSans-2212" d="M 678 2272 
L 4684 2272 
L 4684 1741 
L 678 1741 
L 678 2272 
z
" transform="scale(0.015625)"/>
        <path id="DejaVuSans-36" d="M 2113 2584 
Q 1688 2584 1439 2293 
Q 1191 2003 1191 1497 
Q 1191 994 1439 701 
Q 1688 409 2113 409 
Q 2538 409 2786 701 
Q 3034 994 3034 1497 
Q 3034 2003 2786 2293 
Q 2538 2584 2113 2584 
z
M 3366 4563 
L 3366 3988 
Q 3128 4100 2886 4159 
Q 2644 4219 2406 4219 
Q 1781 4219 1451 3797 
Q 1122 3375 1075 2522 
Q 1259 2794 1537 2939 
Q 1816 3084 2150 3084 
Q 2853 3084 3261 2657 
Q 3669 2231 3669 1497 
Q 3669 778 3244 343 
Q 2819 -91 2113 -91 
Q 1303 -91 875 529 
Q 447 1150 447 2328 
Q 447 3434 972 4092 
Q 1497 4750 2381 4750 
Q 2619 4750 2861 4703 
Q 3103 4656 3366 4563 
z
" transform="scale(0.015625)"/>
        <path id="DejaVuSans-30" d="M 2034 4250 
Q 1547 4250 1301 3770 
Q 1056 3291 1056 2328 
Q 1056 1369 1301 889 
Q 1547 409 2034 409 
Q 2525 409 2770 889 
Q 3016 1369 3016 2328 
Q 3016 3291 2770 3770 
Q 2525 4250 2034 4250 
z
M 2034 4750 
Q 2819 4750 3233 4129 
Q 3647 3509 3647 2328 
Q 3647 1150 3233 529 
Q 2819 -91 2034 -91 
Q 1250 -91 836 529 
Q 422 1150 422 2328 
Q 422 3509 836 4129 
Q 1250 4750 2034 4750 
z
" transform="scale(0.015625)"/>
       </defs>
       <use xlink:href="#DejaVuSans-2212"/>
       <use xlink:href="#DejaVuSans-36" x="83.789062"/>
       <use xlink:href="#DejaVuSans-30" x="147.412109"/>
       <use xlink:href="#DejaVuSans-30" x="211.035156"/>
       <use xlink:href="#DejaVuSans-30" x="274.658203"/>
      </g>
     </g>
    </g>
    <g id="xtick_2">
     <g id="line2d_2">
      <g>
       <use xlink:href="#m941c37a9d0" x="102.394806" y="245.890385" style="stroke: #000000; stroke-width: 0.8"/>
      </g>
     </g>
     <g id="text_2">
      <!-- −4000 -->
      <g transform="translate(78.714024 263.528197) scale(0.14 -0.14)">
       <defs>
        <path id="DejaVuSans-34" d="M 2419 4116 
L 825 1625 
L 2419 1625 
L 2419 4116 
z
M 2253 4666 
L 3047 4666 
L 3047 1625 
L 3713 1625 
L 3713 1100 
L 3047 1100 
L 3047 0 
L 2419 0 
L 2419 1100 
L 313 1100 
L 313 1709 
L 2253 4666 
z
" transform="scale(0.015625)"/>
       </defs>
       <use xlink:href="#DejaVuSans-2212"/>
       <use xlink:href="#DejaVuSans-34" x="83.789062"/>
       <use xlink:href="#DejaVuSans-30" x="147.412109"/>
       <use xlink:href="#DejaVuSans-30" x="211.035156"/>
       <use xlink:href="#DejaVuSans-30" x="274.658203"/>
      </g>
     </g>
    </g>
    <g id="xtick_3">
     <g id="line2d_3">
      <g>
       <use xlink:href="#m941c37a9d0" x="155.168778" y="245.890385" style="stroke: #000000; stroke-width: 0.8"/>
      </g>
     </g>
     <g id="text_3">
      <!-- −2000 -->
      <g transform="translate(131.487996 263.528197) scale(0.14 -0.14)">
       <defs>
        <path id="DejaVuSans-32" d="M 1228 531 
L 3431 531 
L 3431 0 
L 469 0 
L 469 531 
Q 828 903 1448 1529 
Q 2069 2156 2228 2338 
Q 2531 2678 2651 2914 
Q 2772 3150 2772 3378 
Q 2772 3750 2511 3984 
Q 2250 4219 1831 4219 
Q 1534 4219 1204 4116 
Q 875 4013 500 3803 
L 500 4441 
Q 881 4594 1212 4672 
Q 1544 4750 1819 4750 
Q 2544 4750 2975 4387 
Q 3406 4025 3406 3419 
Q 3406 3131 3298 2873 
Q 3191 2616 2906 2266 
Q 2828 2175 2409 1742 
Q 1991 1309 1228 531 
z
" transform="scale(0.015625)"/>
       </defs>
       <use xlink:href="#DejaVuSans-2212"/>
       <use xlink:href="#DejaVuSans-32" x="83.789062"/>
       <use xlink:href="#DejaVuSans-30" x="147.412109"/>
       <use xlink:href="#DejaVuSans-30" x="211.035156"/>
       <use xlink:href="#DejaVuSans-30" x="274.658203"/>
      </g>
     </g>
    </g>
    <g id="xtick_4">
     <g id="line2d_4">
      <g>
       <use xlink:href="#m941c37a9d0" x="207.94275" y="245.890385" style="stroke: #000000; stroke-width: 0.8"/>
      </g>
     </g>
     <g id="text_4">
      <!-- 0 -->
      <g transform="translate(203.489 263.528197) scale(0.14 -0.14)">
       <use xlink:href="#DejaVuSans-30"/>
      </g>
     </g>
    </g>
    <g id="xtick_5">
     <g id="line2d_5">
      <g>
       <use xlink:href="#m941c37a9d0" x="260.716722" y="245.890385" style="stroke: #000000; stroke-width: 0.8"/>
      </g>
     </g>
     <g id="text_5">
      <!-- 2000 -->
      <g transform="translate(242.901722 263.528197) scale(0.14 -0.14)">
       <use xlink:href="#DejaVuSans-32"/>
       <use xlink:href="#DejaVuSans-30" x="63.623047"/>
       <use xlink:href="#DejaVuSans-30" x="127.246094"/>
       <use xlink:href="#DejaVuSans-30" x="190.869141"/>
      </g>
     </g>
    </g>
    <g id="text_6">
     <!-- $b_{E_1,1}$ [MPa] -->
     <g transform="translate(129.808188 281.07976) scale(0.14 -0.14)">
      <defs>
       <path id="DejaVuSans-Oblique-62" d="M 3169 2138 
Q 3169 2591 2961 2847 
Q 2753 3103 2388 3103 
Q 2122 3103 1889 2973 
Q 1656 2844 1484 2597 
Q 1303 2338 1198 1995 
Q 1094 1653 1094 1313 
Q 1094 881 1298 636 
Q 1503 391 1863 391 
Q 2134 391 2365 517 
Q 2597 644 2772 891 
Q 2950 1147 3059 1487 
Q 3169 1828 3169 2138 
z
M 1381 2969 
Q 1594 3256 1914 3420 
Q 2234 3584 2584 3584 
Q 3122 3584 3439 3221 
Q 3756 2859 3756 2241 
Q 3756 1734 3570 1259 
Q 3384 784 3041 416 
Q 2816 172 2522 40 
Q 2228 -91 1906 -91 
Q 1566 -91 1316 65 
Q 1066 222 909 531 
L 806 0 
L 231 0 
L 1178 4863 
L 1753 4863 
L 1381 2969 
z
" transform="scale(0.015625)"/>
       <path id="DejaVuSans-Oblique-45" d="M 1081 4666 
L 4031 4666 
L 3928 4134 
L 1606 4134 
L 1338 2753 
L 3566 2753 
L 3463 2222 
L 1234 2222 
L 909 531 
L 3284 531 
L 3181 0 
L 172 0 
L 1081 4666 
z
" transform="scale(0.015625)"/>
       <path id="DejaVuSans-31" d="M 794 531 
L 1825 531 
L 1825 4091 
L 703 3866 
L 703 4441 
L 1819 4666 
L 2450 4666 
L 2450 531 
L 3481 531 
L 3481 0 
L 794 0 
L 794 531 
z
" transform="scale(0.015625)"/>
       <path id="DejaVuSans-2c" d="M 750 794 
L 1409 794 
L 1409 256 
L 897 -744 
L 494 -744 
L 750 256 
L 750 794 
z
" transform="scale(0.015625)"/>
       <path id="DejaVuSans-20" transform="scale(0.015625)"/>
       <path id="DejaVuSans-5b" d="M 550 4863 
L 1875 4863 
L 1875 4416 
L 1125 4416 
L 1125 -397 
L 1875 -397 
L 1875 -844 
L 550 -844 
L 550 4863 
z
" transform="scale(0.015625)"/>
       <path id="DejaVuSans-4d" d="M 628 4666 
L 1569 4666 
L 2759 1491 
L 3956 4666 
L 4897 4666 
L 4897 0 
L 4281 0 
L 4281 4097 
L 3078 897 
L 2444 897 
L 1241 4097 
L 1241 0 
L 628 0 
L 628 4666 
z
" transform="scale(0.015625)"/>
       <path id="DejaVuSans-50" d="M 1259 4147 
L 1259 2394 
L 2053 2394 
Q 2494 2394 2734 2622 
Q 2975 2850 2975 3272 
Q 2975 3691 2734 3919 
Q 2494 4147 2053 4147 
L 1259 4147 
z
M 628 4666 
L 2053 4666 
Q 2838 4666 3239 4311 
Q 3641 3956 3641 3272 
Q 3641 2581 3239 2228 
Q 2838 1875 2053 1875 
L 1259 1875 
L 1259 0 
L 628 0 
L 628 4666 
z
" transform="scale(0.015625)"/>
       <path id="DejaVuSans-61" d="M 2194 1759 
Q 1497 1759 1228 1600 
Q 959 1441 959 1056 
Q 959 750 1161 570 
Q 1363 391 1709 391 
Q 2188 391 2477 730 
Q 2766 1069 2766 1631 
L 2766 1759 
L 2194 1759 
z
M 3341 1997 
L 3341 0 
L 2766 0 
L 2766 531 
Q 2569 213 2275 61 
Q 1981 -91 1556 -91 
Q 1019 -91 701 211 
Q 384 513 384 1019 
Q 384 1609 779 1909 
Q 1175 2209 1959 2209 
L 2766 2209 
L 2766 2266 
Q 2766 2663 2505 2880 
Q 2244 3097 1772 3097 
Q 1472 3097 1187 3025 
Q 903 2953 641 2809 
L 641 3341 
Q 956 3463 1253 3523 
Q 1550 3584 1831 3584 
Q 2591 3584 2966 3190 
Q 3341 2797 3341 1997 
z
" transform="scale(0.015625)"/>
       <path id="DejaVuSans-5d" d="M 1947 4863 
L 1947 -844 
L 622 -844 
L 622 -397 
L 1369 -397 
L 1369 4416 
L 622 4416 
L 622 4863 
L 1947 4863 
z
" transform="scale(0.015625)"/>
      </defs>
      <use xlink:href="#DejaVuSans-Oblique-62" transform="translate(0 0.015625)"/>
      <use xlink:href="#DejaVuSans-Oblique-45" transform="translate(63.476562 -16.390625) scale(0.7)"/>
      <use xlink:href="#DejaVuSans-31" transform="translate(107.705078 -27.875) scale(0.49)"/>
      <use xlink:href="#DejaVuSans-2c" transform="translate(140.794434 -16.390625) scale(0.7)"/>
      <use xlink:href="#DejaVuSans-31" transform="translate(176.683105 -16.390625) scale(0.7)"/>
      <use xlink:href="#DejaVuSans-20" transform="translate(223.953613 0.015625)"/>
      <use xlink:href="#DejaVuSans-5b" transform="translate(255.740723 0.015625)"/>
      <use xlink:href="#DejaVuSans-4d" transform="translate(294.754395 0.015625)"/>
      <use xlink:href="#DejaVuSans-50" transform="translate(381.033691 0.015625)"/>
      <use xlink:href="#DejaVuSans-61" transform="translate(441.336426 0.015625)"/>
      <use xlink:href="#DejaVuSans-5d" transform="translate(502.615723 0.015625)"/>
     </g>
    </g>
   </g>
   <g id="matplotlib.axis_2">
    <g id="ytick_1">
     <g id="line2d_6">
      <defs>
       <path id="me8738a74bb" d="M 0 0 
L -3.5 0 
" style="stroke: #000000; stroke-width: 0.8"/>
      </defs>
      <g>
       <use xlink:href="#me8738a74bb" x="36.457115" y="245.890385" style="stroke: #000000; stroke-width: 0.8"/>
      </g>
     </g>
     <g id="text_7">
      <!-- 0 -->
      <g transform="translate(20.549615 251.209291) scale(0.14 -0.14)">
       <use xlink:href="#DejaVuSans-30"/>
      </g>
     </g>
    </g>
    <g id="ytick_2">
     <g id="line2d_7">
      <g>
       <use xlink:href="#me8738a74bb" x="36.457115" y="207.165649" style="stroke: #000000; stroke-width: 0.8"/>
      </g>
     </g>
     <g id="text_8">
      <!-- 1 -->
      <g transform="translate(20.549615 212.484556) scale(0.14 -0.14)">
       <use xlink:href="#DejaVuSans-31"/>
      </g>
     </g>
    </g>
    <g id="ytick_3">
     <g id="line2d_8">
      <g>
       <use xlink:href="#me8738a74bb" x="36.457115" y="168.440914" style="stroke: #000000; stroke-width: 0.8"/>
      </g>
     </g>
     <g id="text_9">
      <!-- 2 -->
      <g transform="translate(20.549615 173.75982) scale(0.14 -0.14)">
       <use xlink:href="#DejaVuSans-32"/>
      </g>
     </g>
    </g>
    <g id="ytick_4">
     <g id="line2d_9">
      <g>
       <use xlink:href="#me8738a74bb" x="36.457115" y="129.716178" style="stroke: #000000; stroke-width: 0.8"/>
      </g>
     </g>
     <g id="text_10">
      <!-- 3 -->
      <g transform="translate(20.549615 135.035085) scale(0.14 -0.14)">
       <defs>
        <path id="DejaVuSans-33" d="M 2597 2516 
Q 3050 2419 3304 2112 
Q 3559 1806 3559 1356 
Q 3559 666 3084 287 
Q 2609 -91 1734 -91 
Q 1441 -91 1130 -33 
Q 819 25 488 141 
L 488 750 
Q 750 597 1062 519 
Q 1375 441 1716 441 
Q 2309 441 2620 675 
Q 2931 909 2931 1356 
Q 2931 1769 2642 2001 
Q 2353 2234 1838 2234 
L 1294 2234 
L 1294 2753 
L 1863 2753 
Q 2328 2753 2575 2939 
Q 2822 3125 2822 3475 
Q 2822 3834 2567 4026 
Q 2313 4219 1838 4219 
Q 1578 4219 1281 4162 
Q 984 4106 628 3988 
L 628 4550 
Q 988 4650 1302 4700 
Q 1616 4750 1894 4750 
Q 2613 4750 3031 4423 
Q 3450 4097 3450 3541 
Q 3450 3153 3228 2886 
Q 3006 2619 2597 2516 
z
" transform="scale(0.015625)"/>
       </defs>
       <use xlink:href="#DejaVuSans-33"/>
      </g>
     </g>
    </g>
    <g id="ytick_5">
     <g id="line2d_10">
      <g>
       <use xlink:href="#me8738a74bb" x="36.457115" y="90.991443" style="stroke: #000000; stroke-width: 0.8"/>
      </g>
     </g>
     <g id="text_11">
      <!-- 4 -->
      <g transform="translate(20.549615 96.310349) scale(0.14 -0.14)">
       <use xlink:href="#DejaVuSans-34"/>
      </g>
     </g>
    </g>
    <g id="ytick_6">
     <g id="line2d_11">
      <g>
       <use xlink:href="#me8738a74bb" x="36.457115" y="52.266707" style="stroke: #000000; stroke-width: 0.8"/>
      </g>
     </g>
     <g id="text_12">
      <!-- 5 -->
      <g transform="translate(20.549615 57.585614) scale(0.14 -0.14)">
       <defs>
        <path id="DejaVuSans-35" d="M 691 4666 
L 3169 4666 
L 3169 4134 
L 1269 4134 
L 1269 2991 
Q 1406 3038 1543 3061 
Q 1681 3084 1819 3084 
Q 2600 3084 3056 2656 
Q 3513 2228 3513 1497 
Q 3513 744 3044 326 
Q 2575 -91 1722 -91 
Q 1428 -91 1123 -41 
Q 819 9 494 109 
L 494 744 
Q 775 591 1075 516 
Q 1375 441 1709 441 
Q 2250 441 2565 725 
Q 2881 1009 2881 1497 
Q 2881 1984 2565 2268 
Q 2250 2553 1709 2553 
Q 1456 2553 1204 2497 
Q 953 2441 691 2322 
L 691 4666 
z
" transform="scale(0.015625)"/>
       </defs>
       <use xlink:href="#DejaVuSans-35"/>
      </g>
     </g>
    </g>
    <g id="text_13">
     <!-- PDF -->
     <g transform="translate(13.638053 144.901094) rotate(-90) scale(0.14 -0.14)">
      <defs>
       <path id="DejaVuSans-44" d="M 1259 4147 
L 1259 519 
L 2022 519 
Q 2988 519 3436 956 
Q 3884 1394 3884 2338 
Q 3884 3275 3436 3711 
Q 2988 4147 2022 4147 
L 1259 4147 
z
M 628 4666 
L 1925 4666 
Q 3281 4666 3915 4102 
Q 4550 3538 4550 2338 
Q 4550 1131 3912 565 
Q 3275 0 1925 0 
L 628 0 
L 628 4666 
z
" transform="scale(0.015625)"/>
       <path id="DejaVuSans-46" d="M 628 4666 
L 3309 4666 
L 3309 4134 
L 1259 4134 
L 1259 2759 
L 3109 2759 
L 3109 2228 
L 1259 2228 
L 1259 0 
L 628 0 
L 628 4666 
z
" transform="scale(0.015625)"/>
      </defs>
      <use xlink:href="#DejaVuSans-50"/>
      <use xlink:href="#DejaVuSans-44" x="60.302734"/>
      <use xlink:href="#DejaVuSans-46" x="137.304688"/>
     </g>
    </g>
    <g id="text_14">
     <!-- 1e−4 -->
     <g transform="translate(36.457115 13.638052) scale(0.14 -0.14)">
      <defs>
       <path id="DejaVuSans-65" d="M 3597 1894 
L 3597 1613 
L 953 1613 
Q 991 1019 1311 708 
Q 1631 397 2203 397 
Q 2534 397 2845 478 
Q 3156 559 3463 722 
L 3463 178 
Q 3153 47 2828 -22 
Q 2503 -91 2169 -91 
Q 1331 -91 842 396 
Q 353 884 353 1716 
Q 353 2575 817 3079 
Q 1281 3584 2069 3584 
Q 2775 3584 3186 3129 
Q 3597 2675 3597 1894 
z
M 3022 2063 
Q 3016 2534 2758 2815 
Q 2500 3097 2075 3097 
Q 1594 3097 1305 2825 
Q 1016 2553 972 2059 
L 3022 2063 
z
" transform="scale(0.015625)"/>
      </defs>
      <use xlink:href="#DejaVuSans-31"/>
      <use xlink:href="#DejaVuSans-65" x="63.623047"/>
      <use xlink:href="#DejaVuSans-2212" x="125.146484"/>
      <use xlink:href="#DejaVuSans-34" x="208.935547"/>
     </g>
    </g>
   </g>
   <g id="line2d_12">
    <path d="M 128.781792 244.174163 
L 130.381003 243.835732 
L 131.980214 243.439583 
L 133.579426 242.977772 
L 135.178637 242.441631 
L 136.777848 241.821771 
L 138.377059 241.1081 
L 139.976271 240.289853 
L 141.575482 239.355652 
L 143.174693 238.293575 
L 144.773904 237.091261 
L 146.373116 235.736028 
L 147.972327 234.215027 
L 149.571538 232.515416 
L 151.17075 230.624564 
L 152.769961 228.530281 
L 154.369172 226.221068 
L 155.968383 223.686394 
L 157.567595 220.91699 
L 159.166806 217.905151 
L 160.766017 214.645058 
L 162.365228 211.133086 
L 163.96444 207.368126 
L 165.563651 203.351875 
L 167.162862 199.08912 
L 168.762074 194.587981 
L 170.361285 189.860127 
L 171.960496 184.920927 
L 173.559707 179.789566 
L 175.158919 174.489082 
L 176.75813 169.046338 
L 178.357341 163.49192 
L 179.956553 157.859959 
L 181.555764 152.187862 
L 183.154975 146.515976 
L 184.754186 140.887162 
L 186.353398 135.346303 
L 187.952609 129.939743 
L 189.55182 124.714663 
L 191.151031 119.71842 
L 192.750243 114.99784 
L 194.349454 110.598497 
L 195.948665 106.563992 
L 197.547877 102.935228 
L 199.147088 99.749728 
L 200.746299 97.040988 
L 202.34551 94.837892 
L 203.944722 93.164197 
L 205.543933 92.038111 
L 207.143144 91.471958 
L 208.742355 91.471958 
L 210.341567 92.038111 
L 211.940778 93.164197 
L 213.539989 94.837892 
L 215.139201 97.040988 
L 216.738412 99.749728 
L 218.337623 102.935228 
L 219.936834 106.563992 
L 221.536046 110.598497 
L 223.135257 114.99784 
L 224.734468 119.71842 
L 226.333679 124.714663 
L 227.932891 129.939743 
L 229.532102 135.346303 
L 231.131313 140.887162 
L 232.730525 146.515976 
L 234.329736 152.187862 
L 235.928947 157.859959 
L 237.528158 163.49192 
L 239.12737 169.046338 
L 240.726581 174.489082 
L 242.325792 179.789566 
L 243.925004 184.920927 
L 245.524215 189.860127 
L 247.123426 194.587981 
L 248.722637 199.08912 
L 250.321849 203.351875 
L 251.92106 207.368126 
L 253.520271 211.133086 
L 255.119482 214.645058 
L 256.718694 217.905151 
L 258.317905 220.91699 
L 259.917116 223.686394 
L 261.516328 226.221068 
L 263.115539 228.530281 
L 264.71475 230.624564 
L 266.313961 232.515416 
L 267.913173 234.215027 
L 269.512384 235.736028 
L 271.111595 237.091261 
L 272.710806 238.293575 
L 274.310018 239.355652 
L 275.909229 240.289853 
L 277.50844 241.1081 
L 279.107652 241.821771 
L 280.706863 242.441631 
L 282.306074 242.977772 
L 283.905285 243.439583 
L 285.504497 243.835732 
L 287.103708 244.174163 
" clip-path="url(#pa16c763847)" style="fill: none; stroke: #2ca02c; stroke-width: 1.5; stroke-linecap: square"/>
   </g>
   <g id="patch_33">
    <path d="M 36.457115 245.890385 
L 36.457115 16.638052 
" style="fill: none; stroke: #000000; stroke-width: 0.8; stroke-linejoin: miter; stroke-linecap: square"/>
   </g>
   <g id="patch_34">
    <path d="M 299.03926 245.890385 
L 299.03926 16.638052 
" style="fill: none; stroke: #000000; stroke-width: 0.8; stroke-linejoin: miter; stroke-linecap: square"/>
   </g>
   <g id="patch_35">
    <path d="M 36.457115 245.890385 
L 299.03926 245.890385 
" style="fill: none; stroke: #000000; stroke-width: 0.8; stroke-linejoin: miter; stroke-linecap: square"/>
   </g>
   <g id="patch_36">
    <path d="M 36.457115 16.638052 
L 299.03926 16.638052 
" style="fill: none; stroke: #000000; stroke-width: 0.8; stroke-linejoin: miter; stroke-linecap: square"/>
   </g>
   <g id="legend_1">
    <g id="patch_37">
     <path d="M 181.62301 68.936802 
L 289.23926 68.936802 
Q 292.03926 68.936802 292.03926 66.136802 
L 292.03926 26.438053 
Q 292.03926 23.638053 289.23926 23.638053 
L 181.62301 23.638053 
Q 178.82301 23.638053 178.82301 26.438053 
L 178.82301 66.136802 
Q 178.82301 68.936802 181.62301 68.936802 
z
" style="fill: #ffffff; opacity: 0.8; stroke: #cccccc; stroke-linejoin: miter"/>
    </g>
    <g id="line2d_13">
     <path d="M 184.42301 34.975865 
L 198.42301 34.975865 
L 212.42301 34.975865 
" style="fill: none; stroke: #2ca02c; stroke-width: 1.5; stroke-linecap: square"/>
    </g>
    <g id="text_15">
     <!-- Prior -->
     <g transform="translate(223.62301 39.875865) scale(0.14 -0.14)">
      <defs>
       <path id="DejaVuSans-72" d="M 2631 2963 
Q 2534 3019 2420 3045 
Q 2306 3072 2169 3072 
Q 1681 3072 1420 2755 
Q 1159 2438 1159 1844 
L 1159 0 
L 581 0 
L 581 3500 
L 1159 3500 
L 1159 2956 
Q 1341 3275 1631 3429 
Q 1922 3584 2338 3584 
Q 2397 3584 2469 3576 
Q 2541 3569 2628 3553 
L 2631 2963 
z
" transform="scale(0.015625)"/>
       <path id="DejaVuSans-69" d="M 603 3500 
L 1178 3500 
L 1178 0 
L 603 0 
L 603 3500 
z
M 603 4863 
L 1178 4863 
L 1178 4134 
L 603 4134 
L 603 4863 
z
" transform="scale(0.015625)"/>
       <path id="DejaVuSans-6f" d="M 1959 3097 
Q 1497 3097 1228 2736 
Q 959 2375 959 1747 
Q 959 1119 1226 758 
Q 1494 397 1959 397 
Q 2419 397 2687 759 
Q 2956 1122 2956 1747 
Q 2956 2369 2687 2733 
Q 2419 3097 1959 3097 
z
M 1959 3584 
Q 2709 3584 3137 3096 
Q 3566 2609 3566 1747 
Q 3566 888 3137 398 
Q 2709 -91 1959 -91 
Q 1206 -91 779 398 
Q 353 888 353 1747 
Q 353 2609 779 3096 
Q 1206 3584 1959 3584 
z
" transform="scale(0.015625)"/>
      </defs>
      <use xlink:href="#DejaVuSans-50"/>
      <use xlink:href="#DejaVuSans-72" x="58.552734"/>
      <use xlink:href="#DejaVuSans-69" x="99.666016"/>
      <use xlink:href="#DejaVuSans-6f" x="127.449219"/>
      <use xlink:href="#DejaVuSans-72" x="188.630859"/>
     </g>
    </g>
    <g id="patch_38">
     <path d="M 184.42301 60.42524 
L 212.42301 60.42524 
L 212.42301 50.62524 
L 184.42301 50.62524 
z
" style="fill: #1f77b4"/>
    </g>
    <g id="text_16">
     <!-- posterior -->
     <g transform="translate(223.62301 60.42524) scale(0.14 -0.14)">
      <defs>
       <path id="DejaVuSans-70" d="M 1159 525 
L 1159 -1331 
L 581 -1331 
L 581 3500 
L 1159 3500 
L 1159 2969 
Q 1341 3281 1617 3432 
Q 1894 3584 2278 3584 
Q 2916 3584 3314 3078 
Q 3713 2572 3713 1747 
Q 3713 922 3314 415 
Q 2916 -91 2278 -91 
Q 1894 -91 1617 61 
Q 1341 213 1159 525 
z
M 3116 1747 
Q 3116 2381 2855 2742 
Q 2594 3103 2138 3103 
Q 1681 3103 1420 2742 
Q 1159 2381 1159 1747 
Q 1159 1113 1420 752 
Q 1681 391 2138 391 
Q 2594 391 2855 752 
Q 3116 1113 3116 1747 
z
" transform="scale(0.015625)"/>
       <path id="DejaVuSans-73" d="M 2834 3397 
L 2834 2853 
Q 2591 2978 2328 3040 
Q 2066 3103 1784 3103 
Q 1356 3103 1142 2972 
Q 928 2841 928 2578 
Q 928 2378 1081 2264 
Q 1234 2150 1697 2047 
L 1894 2003 
Q 2506 1872 2764 1633 
Q 3022 1394 3022 966 
Q 3022 478 2636 193 
Q 2250 -91 1575 -91 
Q 1294 -91 989 -36 
Q 684 19 347 128 
L 347 722 
Q 666 556 975 473 
Q 1284 391 1588 391 
Q 1994 391 2212 530 
Q 2431 669 2431 922 
Q 2431 1156 2273 1281 
Q 2116 1406 1581 1522 
L 1381 1569 
Q 847 1681 609 1914 
Q 372 2147 372 2553 
Q 372 3047 722 3315 
Q 1072 3584 1716 3584 
Q 2034 3584 2315 3537 
Q 2597 3491 2834 3397 
z
" transform="scale(0.015625)"/>
       <path id="DejaVuSans-74" d="M 1172 4494 
L 1172 3500 
L 2356 3500 
L 2356 3053 
L 1172 3053 
L 1172 1153 
Q 1172 725 1289 603 
Q 1406 481 1766 481 
L 2356 481 
L 2356 0 
L 1766 0 
Q 1100 0 847 248 
Q 594 497 594 1153 
L 594 3053 
L 172 3053 
L 172 3500 
L 594 3500 
L 594 4494 
L 1172 4494 
z
" transform="scale(0.015625)"/>
      </defs>
      <use xlink:href="#DejaVuSans-70"/>
      <use xlink:href="#DejaVuSans-6f" x="63.476562"/>
      <use xlink:href="#DejaVuSans-73" x="124.658203"/>
      <use xlink:href="#DejaVuSans-74" x="176.757812"/>
      <use xlink:href="#DejaVuSans-65" x="215.966797"/>
      <use xlink:href="#DejaVuSans-72" x="277.490234"/>
      <use xlink:href="#DejaVuSans-69" x="318.603516"/>
      <use xlink:href="#DejaVuSans-6f" x="346.386719"/>
      <use xlink:href="#DejaVuSans-72" x="407.568359"/>
     </g>
    </g>
   </g>
  </g>
  <g id="axes_2">
   <g id="patch_39">
    <path d="M 320.94724 245.890385 
L 583.529385 245.890385 
L 583.529385 16.638052 
L 320.94724 16.638052 
z
" style="fill: #ffffff"/>
   </g>
   <g id="patch_40">
    <path d="M 376.384891 245.890385 
L 382.260746 245.890385 
L 382.260746 245.047391 
L 376.384891 245.047391 
z
" clip-path="url(#p50e81c36cb)" style="fill: #1f77b4"/>
   </g>
   <g id="patch_41">
    <path d="M 382.913618 245.890385 
L 388.789473 245.890385 
L 388.789473 245.468888 
L 382.913618 245.468888 
z
" clip-path="url(#p50e81c36cb)" style="fill: #1f77b4"/>
   </g>
   <g id="patch_42">
    <path d="M 389.442346 245.890385 
L 395.3182 245.890385 
L 395.3182 245.468888 
L 389.442346 245.468888 
z
" clip-path="url(#p50e81c36cb)" style="fill: #1f77b4"/>
   </g>
   <g id="patch_43">
    <path d="M 395.971073 245.890385 
L 401.846927 245.890385 
L 401.846927 245.047391 
L 395.971073 245.047391 
z
" clip-path="url(#p50e81c36cb)" style="fill: #1f77b4"/>
   </g>
   <g id="patch_44">
    <path d="M 402.4998 245.890385 
L 408.375654 245.890385 
L 408.375654 241.675413 
L 402.4998 241.675413 
z
" clip-path="url(#p50e81c36cb)" style="fill: #1f77b4"/>
   </g>
   <g id="patch_45">
    <path d="M 409.028527 245.890385 
L 414.904381 245.890385 
L 414.904381 241.253916 
L 409.028527 241.253916 
z
" clip-path="url(#p50e81c36cb)" style="fill: #1f77b4"/>
   </g>
   <g id="patch_46">
    <path d="M 415.557254 245.890385 
L 421.433109 245.890385 
L 421.433109 233.666966 
L 415.557254 233.666966 
z
" clip-path="url(#p50e81c36cb)" style="fill: #1f77b4"/>
   </g>
   <g id="patch_47">
    <path d="M 422.085981 245.890385 
L 427.961836 245.890385 
L 427.961836 223.97253 
L 422.085981 223.97253 
z
" clip-path="url(#p50e81c36cb)" style="fill: #1f77b4"/>
   </g>
   <g id="patch_48">
    <path d="M 428.614708 245.890385 
L 434.490563 245.890385 
L 434.490563 210.484619 
L 428.614708 210.484619 
z
" clip-path="url(#p50e81c36cb)" style="fill: #1f77b4"/>
   </g>
   <g id="patch_49">
    <path d="M 435.143436 245.890385 
L 441.01929 245.890385 
L 441.01929 186.459278 
L 435.143436 186.459278 
z
" clip-path="url(#p50e81c36cb)" style="fill: #1f77b4"/>
   </g>
   <g id="patch_50">
    <path d="M 441.672163 245.890385 
L 447.548017 245.890385 
L 447.548017 158.640463 
L 441.672163 158.640463 
z
" clip-path="url(#p50e81c36cb)" style="fill: #1f77b4"/>
   </g>
   <g id="patch_51">
    <path d="M 448.20089 245.890385 
L 454.076744 245.890385 
L 454.076744 129.557155 
L 448.20089 129.557155 
z
" clip-path="url(#p50e81c36cb)" style="fill: #1f77b4"/>
   </g>
   <g id="patch_52">
    <path d="M 454.729617 245.890385 
L 460.605471 245.890385 
L 460.605471 91.200909 
L 454.729617 91.200909 
z
" clip-path="url(#p50e81c36cb)" style="fill: #1f77b4"/>
   </g>
   <g id="patch_53">
    <path d="M 461.258344 245.890385 
L 467.134199 245.890385 
L 467.134199 71.39054 
L 461.258344 71.39054 
z
" clip-path="url(#p50e81c36cb)" style="fill: #1f77b4"/>
   </g>
   <g id="patch_54">
    <path d="M 467.787071 245.890385 
L 473.662926 245.890385 
L 473.662926 27.55483 
L 467.787071 27.55483 
z
" clip-path="url(#p50e81c36cb)" style="fill: #1f77b4"/>
   </g>
   <g id="patch_55">
    <path d="M 474.315798 245.890385 
L 480.191653 245.890385 
L 480.191653 40.199747 
L 474.315798 40.199747 
z
" clip-path="url(#p50e81c36cb)" style="fill: #1f77b4"/>
   </g>
   <g id="patch_56">
    <path d="M 480.844526 245.890385 
L 486.72038 245.890385 
L 486.72038 51.158674 
L 480.844526 51.158674 
z
" clip-path="url(#p50e81c36cb)" style="fill: #1f77b4"/>
   </g>
   <g id="patch_57">
    <path d="M 487.373253 245.890385 
L 493.249107 245.890385 
L 493.249107 34.720283 
L 487.373253 34.720283 
z
" clip-path="url(#p50e81c36cb)" style="fill: #1f77b4"/>
   </g>
   <g id="patch_58">
    <path d="M 493.90198 245.890385 
L 499.777834 245.890385 
L 499.777834 81.506473 
L 493.90198 81.506473 
z
" clip-path="url(#p50e81c36cb)" style="fill: #1f77b4"/>
   </g>
   <g id="patch_59">
    <path d="M 500.430707 245.890385 
L 506.306561 245.890385 
L 506.306561 105.110317 
L 500.430707 105.110317 
z
" clip-path="url(#p50e81c36cb)" style="fill: #1f77b4"/>
   </g>
   <g id="patch_60">
    <path d="M 506.959434 245.890385 
L 512.835289 245.890385 
L 512.835289 137.565602 
L 506.959434 137.565602 
z
" clip-path="url(#p50e81c36cb)" style="fill: #1f77b4"/>
   </g>
   <g id="patch_61">
    <path d="M 513.488161 245.890385 
L 519.364016 245.890385 
L 519.364016 174.235859 
L 513.488161 174.235859 
z
" clip-path="url(#p50e81c36cb)" style="fill: #1f77b4"/>
   </g>
   <g id="patch_62">
    <path d="M 520.016888 245.890385 
L 525.892743 245.890385 
L 525.892743 196.575211 
L 520.016888 196.575211 
z
" clip-path="url(#p50e81c36cb)" style="fill: #1f77b4"/>
   </g>
   <g id="patch_63">
    <path d="M 526.545616 245.890385 
L 532.42147 245.890385 
L 532.42147 213.4351 
L 526.545616 213.4351 
z
" clip-path="url(#p50e81c36cb)" style="fill: #1f77b4"/>
   </g>
   <g id="patch_64">
    <path d="M 533.074343 245.890385 
L 538.950197 245.890385 
L 538.950197 226.501513 
L 533.074343 226.501513 
z
" clip-path="url(#p50e81c36cb)" style="fill: #1f77b4"/>
   </g>
   <g id="patch_65">
    <path d="M 539.60307 245.890385 
L 545.478924 245.890385 
L 545.478924 236.617446 
L 539.60307 236.617446 
z
" clip-path="url(#p50e81c36cb)" style="fill: #1f77b4"/>
   </g>
   <g id="patch_66">
    <path d="M 546.131797 245.890385 
L 552.007652 245.890385 
L 552.007652 242.09691 
L 546.131797 242.09691 
z
" clip-path="url(#p50e81c36cb)" style="fill: #1f77b4"/>
   </g>
   <g id="patch_67">
    <path d="M 552.660524 245.890385 
L 558.536379 245.890385 
L 558.536379 242.939905 
L 552.660524 242.939905 
z
" clip-path="url(#p50e81c36cb)" style="fill: #1f77b4"/>
   </g>
   <g id="patch_68">
    <path d="M 559.189251 245.890385 
L 565.065106 245.890385 
L 565.065106 244.625893 
L 559.189251 244.625893 
z
" clip-path="url(#p50e81c36cb)" style="fill: #1f77b4"/>
   </g>
   <g id="patch_69">
    <path d="M 565.717979 245.890385 
L 571.593833 245.890385 
L 571.593833 245.047391 
L 565.717979 245.047391 
z
" clip-path="url(#p50e81c36cb)" style="fill: #1f77b4"/>
   </g>
   <g id="matplotlib.axis_3">
    <g id="xtick_6">
     <g id="line2d_14">
      <g>
       <use xlink:href="#m941c37a9d0" x="369.363404" y="245.890385" style="stroke: #000000; stroke-width: 0.8"/>
      </g>
     </g>
     <g id="text_17">
      <!-- −2000 -->
      <g transform="translate(345.682623 263.528197) scale(0.14 -0.14)">
       <use xlink:href="#DejaVuSans-2212"/>
       <use xlink:href="#DejaVuSans-32" x="83.789062"/>
       <use xlink:href="#DejaVuSans-30" x="147.412109"/>
       <use xlink:href="#DejaVuSans-30" x="211.035156"/>
       <use xlink:href="#DejaVuSans-30" x="274.658203"/>
      </g>
     </g>
    </g>
    <g id="xtick_7">
     <g id="line2d_15">
      <g>
       <use xlink:href="#m941c37a9d0" x="442.324628" y="245.890385" style="stroke: #000000; stroke-width: 0.8"/>
      </g>
     </g>
     <g id="text_18">
      <!-- 0 -->
      <g transform="translate(437.870878 263.528197) scale(0.14 -0.14)">
       <use xlink:href="#DejaVuSans-30"/>
      </g>
     </g>
    </g>
    <g id="xtick_8">
     <g id="line2d_16">
      <g>
       <use xlink:href="#m941c37a9d0" x="515.285852" y="245.890385" style="stroke: #000000; stroke-width: 0.8"/>
      </g>
     </g>
     <g id="text_19">
      <!-- 2000 -->
      <g transform="translate(497.470852 263.528197) scale(0.14 -0.14)">
       <use xlink:href="#DejaVuSans-32"/>
       <use xlink:href="#DejaVuSans-30" x="63.623047"/>
       <use xlink:href="#DejaVuSans-30" x="127.246094"/>
       <use xlink:href="#DejaVuSans-30" x="190.869141"/>
      </g>
     </g>
    </g>
    <g id="text_20">
     <!-- $b_{E_1,2}$ [MPa] -->
     <g transform="translate(414.298312 281.07976) scale(0.14 -0.14)">
      <use xlink:href="#DejaVuSans-Oblique-62" transform="translate(0 0.015625)"/>
      <use xlink:href="#DejaVuSans-Oblique-45" transform="translate(63.476562 -16.390625) scale(0.7)"/>
      <use xlink:href="#DejaVuSans-31" transform="translate(107.705078 -27.875) scale(0.49)"/>
      <use xlink:href="#DejaVuSans-2c" transform="translate(140.794434 -16.390625) scale(0.7)"/>
      <use xlink:href="#DejaVuSans-32" transform="translate(176.683105 -16.390625) scale(0.7)"/>
      <use xlink:href="#DejaVuSans-20" transform="translate(223.953613 0.015625)"/>
      <use xlink:href="#DejaVuSans-5b" transform="translate(255.740723 0.015625)"/>
      <use xlink:href="#DejaVuSans-4d" transform="translate(294.754395 0.015625)"/>
      <use xlink:href="#DejaVuSans-50" transform="translate(381.033691 0.015625)"/>
      <use xlink:href="#DejaVuSans-61" transform="translate(441.336426 0.015625)"/>
      <use xlink:href="#DejaVuSans-5d" transform="translate(502.615723 0.015625)"/>
     </g>
    </g>
   </g>
   <g id="matplotlib.axis_4">
    <g id="ytick_7">
     <g id="line2d_17">
      <g>
       <use xlink:href="#me8738a74bb" x="320.94724" y="245.890385" style="stroke: #000000; stroke-width: 0.8"/>
      </g>
     </g>
     <g id="text_21">
      <!-- 0 -->
      <g transform="translate(305.03974 251.209291) scale(0.14 -0.14)">
       <use xlink:href="#DejaVuSans-30"/>
      </g>
     </g>
    </g>
    <g id="ytick_8">
     <g id="line2d_18">
      <g>
       <use xlink:href="#me8738a74bb" x="320.94724" y="208.173909" style="stroke: #000000; stroke-width: 0.8"/>
      </g>
     </g>
     <g id="text_22">
      <!-- 1 -->
      <g transform="translate(305.03974 213.492815) scale(0.14 -0.14)">
       <use xlink:href="#DejaVuSans-31"/>
      </g>
     </g>
    </g>
    <g id="ytick_9">
     <g id="line2d_19">
      <g>
       <use xlink:href="#me8738a74bb" x="320.94724" y="170.457432" style="stroke: #000000; stroke-width: 0.8"/>
      </g>
     </g>
     <g id="text_23">
      <!-- 2 -->
      <g transform="translate(305.03974 175.776339) scale(0.14 -0.14)">
       <use xlink:href="#DejaVuSans-32"/>
      </g>
     </g>
    </g>
    <g id="ytick_10">
     <g id="line2d_20">
      <g>
       <use xlink:href="#me8738a74bb" x="320.94724" y="132.740956" style="stroke: #000000; stroke-width: 0.8"/>
      </g>
     </g>
     <g id="text_24">
      <!-- 3 -->
      <g transform="translate(305.03974 138.059862) scale(0.14 -0.14)">
       <use xlink:href="#DejaVuSans-33"/>
      </g>
     </g>
    </g>
    <g id="ytick_11">
     <g id="line2d_21">
      <g>
       <use xlink:href="#me8738a74bb" x="320.94724" y="95.02448" style="stroke: #000000; stroke-width: 0.8"/>
      </g>
     </g>
     <g id="text_25">
      <!-- 4 -->
      <g transform="translate(305.03974 100.343386) scale(0.14 -0.14)">
       <use xlink:href="#DejaVuSans-34"/>
      </g>
     </g>
    </g>
    <g id="ytick_12">
     <g id="line2d_22">
      <g>
       <use xlink:href="#me8738a74bb" x="320.94724" y="57.308003" style="stroke: #000000; stroke-width: 0.8"/>
      </g>
     </g>
     <g id="text_26">
      <!-- 5 -->
      <g transform="translate(305.03974 62.62691) scale(0.14 -0.14)">
       <use xlink:href="#DejaVuSans-35"/>
      </g>
     </g>
    </g>
    <g id="ytick_13">
     <g id="line2d_23">
      <g>
       <use xlink:href="#me8738a74bb" x="320.94724" y="19.591527" style="stroke: #000000; stroke-width: 0.8"/>
      </g>
     </g>
     <g id="text_27">
      <!-- 6 -->
      <g transform="translate(305.03974 24.910433) scale(0.14 -0.14)">
       <use xlink:href="#DejaVuSans-36"/>
      </g>
     </g>
    </g>
    <g id="text_28">
     <!-- 1e−4 -->
     <g transform="translate(320.94724 13.638052) scale(0.14 -0.14)">
      <use xlink:href="#DejaVuSans-31"/>
      <use xlink:href="#DejaVuSans-65" x="63.623047"/>
      <use xlink:href="#DejaVuSans-2212" x="125.146484"/>
      <use xlink:href="#DejaVuSans-34" x="208.935547"/>
     </g>
    </g>
   </g>
   <g id="line2d_24">
    <path d="M 332.882792 244.218848 
L 335.093738 243.889229 
L 337.304684 243.503394 
L 339.515631 243.053606 
L 341.726577 242.531424 
L 343.937523 241.927704 
L 346.148469 241.232614 
L 348.359415 240.435672 
L 350.570361 239.525794 
L 352.781308 238.49137 
L 354.992254 237.32036 
L 357.2032 236.000412 
L 359.414146 234.519013 
L 361.625092 232.863654 
L 363.836039 231.022034 
L 366.046985 228.982278 
L 368.257931 226.733189 
L 370.468877 224.26451 
L 372.679823 221.567211 
L 374.890769 218.633791 
L 377.101716 215.458579 
L 379.312662 212.038047 
L 381.523608 208.371113 
L 383.734554 204.459432 
L 385.9455 200.307664 
L 388.156447 195.92372 
L 390.367393 191.318962 
L 392.578339 186.508362 
L 394.789285 181.510605 
L 397.000231 176.348127 
L 399.211177 171.047093 
L 401.422124 165.637293 
L 403.63307 160.151969 
L 405.844016 154.627554 
L 408.054962 149.103344 
L 410.265908 143.621085 
L 412.476855 138.224492 
L 414.687801 132.9587 
L 416.898747 127.869663 
L 419.109693 123.003505 
L 421.320639 118.405832 
L 423.531585 114.121034 
L 425.742532 110.191573 
L 427.953478 106.65729 
L 430.164424 103.554729 
L 432.37537 100.916516 
L 434.586316 98.77078 
L 436.797263 97.140663 
L 439.008209 96.043896 
L 441.219155 95.492483 
L 443.430101 95.492483 
L 445.641047 96.043896 
L 447.851993 97.140663 
L 450.06294 98.77078 
L 452.273886 100.916516 
L 454.484832 103.554729 
L 456.695778 106.65729 
L 458.906724 110.191573 
L 461.117671 114.121034 
L 463.328617 118.405832 
L 465.539563 123.003505 
L 467.750509 127.869663 
L 469.961455 132.9587 
L 472.172401 138.224492 
L 474.383348 143.621085 
L 476.594294 149.103344 
L 478.80524 154.627554 
L 481.016186 160.151969 
L 483.227132 165.637293 
L 485.438079 171.047093 
L 487.649025 176.348127 
L 489.859971 181.510605 
L 492.070917 186.508362 
L 494.281863 191.318962 
L 496.492809 195.92372 
L 498.703756 200.307664 
L 500.914702 204.459432 
L 503.125648 208.371113 
L 505.336594 212.038047 
L 507.54754 215.458579 
L 509.758487 218.633791 
L 511.969433 221.567211 
L 514.180379 224.26451 
L 516.391325 226.733189 
L 518.602271 228.982278 
L 520.813217 231.022034 
L 523.024164 232.863654 
L 525.23511 234.519013 
L 527.446056 236.000412 
L 529.657002 237.32036 
L 531.867948 238.49137 
L 534.078895 239.525794 
L 536.289841 240.435672 
L 538.500787 241.232614 
L 540.711733 241.927704 
L 542.922679 242.531424 
L 545.133625 243.053606 
L 547.344572 243.503394 
L 549.555518 243.889229 
L 551.766464 244.218848 
" clip-path="url(#p50e81c36cb)" style="fill: none; stroke: #2ca02c; stroke-width: 1.5; stroke-linecap: square"/>
   </g>
   <g id="patch_70">
    <path d="M 320.94724 245.890385 
L 320.94724 16.638052 
" style="fill: none; stroke: #000000; stroke-width: 0.8; stroke-linejoin: miter; stroke-linecap: square"/>
   </g>
   <g id="patch_71">
    <path d="M 583.529385 245.890385 
L 583.529385 16.638052 
" style="fill: none; stroke: #000000; stroke-width: 0.8; stroke-linejoin: miter; stroke-linecap: square"/>
   </g>
   <g id="patch_72">
    <path d="M 320.94724 245.890385 
L 583.529385 245.890385 
" style="fill: none; stroke: #000000; stroke-width: 0.8; stroke-linejoin: miter; stroke-linecap: square"/>
   </g>
   <g id="patch_73">
    <path d="M 320.94724 16.638052 
L 583.529385 16.638052 
" style="fill: none; stroke: #000000; stroke-width: 0.8; stroke-linejoin: miter; stroke-linecap: square"/>
   </g>
  </g>
  <g id="axes_3">
   <g id="patch_74">
    <path d="M 605.437365 245.890385 
L 868.01951 245.890385 
L 868.01951 16.638052 
L 605.437365 16.638052 
z
" style="fill: #ffffff"/>
   </g>
   <g id="patch_75">
    <path d="M 708.924293 245.890385 
L 713.353848 245.890385 
L 713.353848 244.154118 
L 708.924293 244.154118 
z
" clip-path="url(#p5b35dc696a)" style="fill: #1f77b4"/>
   </g>
   <g id="patch_76">
    <path d="M 713.846021 245.890385 
L 718.275576 245.890385 
L 718.275576 242.851918 
L 713.846021 242.851918 
z
" clip-path="url(#p5b35dc696a)" style="fill: #1f77b4"/>
   </g>
   <g id="patch_77">
    <path d="M 718.767748 245.890385 
L 723.197304 245.890385 
L 723.197304 240.247518 
L 718.767748 240.247518 
z
" clip-path="url(#p5b35dc696a)" style="fill: #1f77b4"/>
   </g>
   <g id="patch_78">
    <path d="M 723.689476 245.890385 
L 728.119032 245.890385 
L 728.119032 232.868384 
L 723.689476 232.868384 
z
" clip-path="url(#p5b35dc696a)" style="fill: #1f77b4"/>
   </g>
   <g id="patch_79">
    <path d="M 728.611204 245.890385 
L 733.04076 245.890385 
L 733.04076 226.357383 
L 728.611204 226.357383 
z
" clip-path="url(#p5b35dc696a)" style="fill: #1f77b4"/>
   </g>
   <g id="patch_80">
    <path d="M 733.532932 245.890385 
L 737.962487 245.890385 
L 737.962487 210.296915 
L 733.532932 210.296915 
z
" clip-path="url(#p5b35dc696a)" style="fill: #1f77b4"/>
   </g>
   <g id="patch_81">
    <path d="M 738.45466 245.890385 
L 742.884215 245.890385 
L 742.884215 191.632046 
L 738.45466 191.632046 
z
" clip-path="url(#p5b35dc696a)" style="fill: #1f77b4"/>
   </g>
   <g id="patch_82">
    <path d="M 743.376388 245.890385 
L 747.805943 245.890385 
L 747.805943 163.851777 
L 743.376388 163.851777 
z
" clip-path="url(#p5b35dc696a)" style="fill: #1f77b4"/>
   </g>
   <g id="patch_83">
    <path d="M 748.298116 245.890385 
L 752.727671 245.890385 
L 752.727671 133.467107 
L 748.298116 133.467107 
z
" clip-path="url(#p5b35dc696a)" style="fill: #1f77b4"/>
   </g>
   <g id="patch_84">
    <path d="M 753.219844 245.890385 
L 757.649399 245.890385 
L 757.649399 103.950571 
L 753.219844 103.950571 
z
" clip-path="url(#p5b35dc696a)" style="fill: #1f77b4"/>
   </g>
   <g id="patch_85">
    <path d="M 758.141572 245.890385 
L 762.571127 245.890385 
L 762.571127 70.961501 
L 758.141572 70.961501 
z
" clip-path="url(#p5b35dc696a)" style="fill: #1f77b4"/>
   </g>
   <g id="patch_86">
    <path d="M 763.0633 245.890385 
L 767.492855 245.890385 
L 767.492855 35.368031 
L 763.0633 35.368031 
z
" clip-path="url(#p5b35dc696a)" style="fill: #1f77b4"/>
   </g>
   <g id="patch_87">
    <path d="M 767.985028 245.890385 
L 772.414583 245.890385 
L 772.414583 39.708698 
L 767.985028 39.708698 
z
" clip-path="url(#p5b35dc696a)" style="fill: #1f77b4"/>
   </g>
   <g id="patch_88">
    <path d="M 772.906756 245.890385 
L 777.336311 245.890385 
L 777.336311 27.55483 
L 772.906756 27.55483 
z
" clip-path="url(#p5b35dc696a)" style="fill: #1f77b4"/>
   </g>
   <g id="patch_89">
    <path d="M 777.828484 245.890385 
L 782.258039 245.890385 
L 782.258039 42.313098 
L 777.828484 42.313098 
z
" clip-path="url(#p5b35dc696a)" style="fill: #1f77b4"/>
   </g>
   <g id="patch_90">
    <path d="M 782.750212 245.890385 
L 787.179767 245.890385 
L 787.179767 72.697768 
L 782.750212 72.697768 
z
" clip-path="url(#p5b35dc696a)" style="fill: #1f77b4"/>
   </g>
   <g id="patch_91">
    <path d="M 787.67194 245.890385 
L 792.101495 245.890385 
L 792.101495 99.609904 
L 787.67194 99.609904 
z
" clip-path="url(#p5b35dc696a)" style="fill: #1f77b4"/>
   </g>
   <g id="patch_92">
    <path d="M 792.593668 245.890385 
L 797.023223 245.890385 
L 797.023223 119.142906 
L 792.593668 119.142906 
z
" clip-path="url(#p5b35dc696a)" style="fill: #1f77b4"/>
   </g>
   <g id="patch_93">
    <path d="M 797.515395 245.890385 
L 801.944951 245.890385 
L 801.944951 156.472643 
L 797.515395 156.472643 
z
" clip-path="url(#p5b35dc696a)" style="fill: #1f77b4"/>
   </g>
   <g id="patch_94">
    <path d="M 802.437123 245.890385 
L 806.866679 245.890385 
L 806.866679 182.950712 
L 802.437123 182.950712 
z
" clip-path="url(#p5b35dc696a)" style="fill: #1f77b4"/>
   </g>
   <g id="patch_95">
    <path d="M 807.358851 245.890385 
L 811.788407 245.890385 
L 811.788407 214.203515 
L 807.358851 214.203515 
z
" clip-path="url(#p5b35dc696a)" style="fill: #1f77b4"/>
   </g>
   <g id="patch_96">
    <path d="M 812.280579 245.890385 
L 816.710134 245.890385 
L 816.710134 219.846382 
L 812.280579 219.846382 
z
" clip-path="url(#p5b35dc696a)" style="fill: #1f77b4"/>
   </g>
   <g id="patch_97">
    <path d="M 817.202307 245.890385 
L 821.631862 245.890385 
L 821.631862 230.69805 
L 817.202307 230.69805 
z
" clip-path="url(#p5b35dc696a)" style="fill: #1f77b4"/>
   </g>
   <g id="patch_98">
    <path d="M 822.124035 245.890385 
L 826.55359 245.890385 
L 826.55359 238.077184 
L 822.124035 238.077184 
z
" clip-path="url(#p5b35dc696a)" style="fill: #1f77b4"/>
   </g>
   <g id="patch_99">
    <path d="M 827.045763 245.890385 
L 831.475318 245.890385 
L 831.475318 241.983785 
L 827.045763 241.983785 
z
" clip-path="url(#p5b35dc696a)" style="fill: #1f77b4"/>
   </g>
   <g id="patch_100">
    <path d="M 831.967491 245.890385 
L 836.397046 245.890385 
L 836.397046 245.022252 
L 831.967491 245.022252 
z
" clip-path="url(#p5b35dc696a)" style="fill: #1f77b4"/>
   </g>
   <g id="patch_101">
    <path d="M 836.889219 245.890385 
L 841.318774 245.890385 
L 841.318774 245.022252 
L 836.889219 245.022252 
z
" clip-path="url(#p5b35dc696a)" style="fill: #1f77b4"/>
   </g>
   <g id="patch_102">
    <path d="M 841.810947 245.890385 
L 846.240502 245.890385 
L 846.240502 244.154118 
L 841.810947 244.154118 
z
" clip-path="url(#p5b35dc696a)" style="fill: #1f77b4"/>
   </g>
   <g id="patch_103">
    <path d="M 846.732675 245.890385 
L 851.16223 245.890385 
L 851.16223 245.890385 
L 846.732675 245.890385 
z
" clip-path="url(#p5b35dc696a)" style="fill: #1f77b4"/>
   </g>
   <g id="patch_104">
    <path d="M 851.654403 245.890385 
L 856.083958 245.890385 
L 856.083958 245.022252 
L 851.654403 245.022252 
z
" clip-path="url(#p5b35dc696a)" style="fill: #1f77b4"/>
   </g>
   <g id="matplotlib.axis_5">
    <g id="xtick_9">
     <g id="line2d_25">
      <g>
       <use xlink:href="#m941c37a9d0" x="646.048305" y="245.890385" style="stroke: #000000; stroke-width: 0.8"/>
      </g>
     </g>
     <g id="text_29">
      <!-- −2000 -->
      <g transform="translate(622.367523 263.528197) scale(0.14 -0.14)">
       <use xlink:href="#DejaVuSans-2212"/>
       <use xlink:href="#DejaVuSans-32" x="83.789062"/>
       <use xlink:href="#DejaVuSans-30" x="147.412109"/>
       <use xlink:href="#DejaVuSans-30" x="211.035156"/>
       <use xlink:href="#DejaVuSans-30" x="274.658203"/>
      </g>
     </g>
    </g>
    <g id="xtick_10">
     <g id="line2d_26">
      <g>
       <use xlink:href="#m941c37a9d0" x="703.39908" y="245.890385" style="stroke: #000000; stroke-width: 0.8"/>
      </g>
     </g>
     <g id="text_30">
      <!-- 0 -->
      <g transform="translate(698.94533 263.528197) scale(0.14 -0.14)">
       <use xlink:href="#DejaVuSans-30"/>
      </g>
     </g>
    </g>
    <g id="xtick_11">
     <g id="line2d_27">
      <g>
       <use xlink:href="#m941c37a9d0" x="760.749855" y="245.890385" style="stroke: #000000; stroke-width: 0.8"/>
      </g>
     </g>
     <g id="text_31">
      <!-- 2000 -->
      <g transform="translate(742.934855 263.528197) scale(0.14 -0.14)">
       <use xlink:href="#DejaVuSans-32"/>
       <use xlink:href="#DejaVuSans-30" x="63.623047"/>
       <use xlink:href="#DejaVuSans-30" x="127.246094"/>
       <use xlink:href="#DejaVuSans-30" x="190.869141"/>
      </g>
     </g>
    </g>
    <g id="xtick_12">
     <g id="line2d_28">
      <g>
       <use xlink:href="#m941c37a9d0" x="818.100631" y="245.890385" style="stroke: #000000; stroke-width: 0.8"/>
      </g>
     </g>
     <g id="text_32">
      <!-- 4000 -->
      <g transform="translate(800.285631 263.528197) scale(0.14 -0.14)">
       <use xlink:href="#DejaVuSans-34"/>
       <use xlink:href="#DejaVuSans-30" x="63.623047"/>
       <use xlink:href="#DejaVuSans-30" x="127.246094"/>
       <use xlink:href="#DejaVuSans-30" x="190.869141"/>
      </g>
     </g>
    </g>
    <g id="text_33">
     <!-- $b_{E_1,3}$ [MPa] -->
     <g transform="translate(698.788437 281.07976) scale(0.14 -0.14)">
      <use xlink:href="#DejaVuSans-Oblique-62" transform="translate(0 0.015625)"/>
      <use xlink:href="#DejaVuSans-Oblique-45" transform="translate(63.476562 -16.390625) scale(0.7)"/>
      <use xlink:href="#DejaVuSans-31" transform="translate(107.705078 -27.875) scale(0.49)"/>
      <use xlink:href="#DejaVuSans-2c" transform="translate(140.794434 -16.390625) scale(0.7)"/>
      <use xlink:href="#DejaVuSans-33" transform="translate(176.683105 -16.390625) scale(0.7)"/>
      <use xlink:href="#DejaVuSans-20" transform="translate(223.953613 0.015625)"/>
      <use xlink:href="#DejaVuSans-5b" transform="translate(255.740723 0.015625)"/>
      <use xlink:href="#DejaVuSans-4d" transform="translate(294.754395 0.015625)"/>
      <use xlink:href="#DejaVuSans-50" transform="translate(381.033691 0.015625)"/>
      <use xlink:href="#DejaVuSans-61" transform="translate(441.336426 0.015625)"/>
      <use xlink:href="#DejaVuSans-5d" transform="translate(502.615723 0.015625)"/>
     </g>
    </g>
   </g>
   <g id="matplotlib.axis_6">
    <g id="ytick_14">
     <g id="line2d_29">
      <g>
       <use xlink:href="#me8738a74bb" x="605.437365" y="245.890385" style="stroke: #000000; stroke-width: 0.8"/>
      </g>
     </g>
     <g id="text_34">
      <!-- 0 -->
      <g transform="translate(589.529865 251.209291) scale(0.14 -0.14)">
       <use xlink:href="#DejaVuSans-30"/>
      </g>
     </g>
    </g>
    <g id="ytick_15">
     <g id="line2d_30">
      <g>
       <use xlink:href="#me8738a74bb" x="605.437365" y="208.639655" style="stroke: #000000; stroke-width: 0.8"/>
      </g>
     </g>
     <g id="text_35">
      <!-- 1 -->
      <g transform="translate(589.529865 213.958561) scale(0.14 -0.14)">
       <use xlink:href="#DejaVuSans-31"/>
      </g>
     </g>
    </g>
    <g id="ytick_16">
     <g id="line2d_31">
      <g>
       <use xlink:href="#me8738a74bb" x="605.437365" y="171.388925" style="stroke: #000000; stroke-width: 0.8"/>
      </g>
     </g>
     <g id="text_36">
      <!-- 2 -->
      <g transform="translate(589.529865 176.707831) scale(0.14 -0.14)">
       <use xlink:href="#DejaVuSans-32"/>
      </g>
     </g>
    </g>
    <g id="ytick_17">
     <g id="line2d_32">
      <g>
       <use xlink:href="#me8738a74bb" x="605.437365" y="134.138195" style="stroke: #000000; stroke-width: 0.8"/>
      </g>
     </g>
     <g id="text_37">
      <!-- 3 -->
      <g transform="translate(589.529865 139.457101) scale(0.14 -0.14)">
       <use xlink:href="#DejaVuSans-33"/>
      </g>
     </g>
    </g>
    <g id="ytick_18">
     <g id="line2d_33">
      <g>
       <use xlink:href="#me8738a74bb" x="605.437365" y="96.887465" style="stroke: #000000; stroke-width: 0.8"/>
      </g>
     </g>
     <g id="text_38">
      <!-- 4 -->
      <g transform="translate(589.529865 102.206371) scale(0.14 -0.14)">
       <use xlink:href="#DejaVuSans-34"/>
      </g>
     </g>
    </g>
    <g id="ytick_19">
     <g id="line2d_34">
      <g>
       <use xlink:href="#me8738a74bb" x="605.437365" y="59.636735" style="stroke: #000000; stroke-width: 0.8"/>
      </g>
     </g>
     <g id="text_39">
      <!-- 5 -->
      <g transform="translate(589.529865 64.955641) scale(0.14 -0.14)">
       <use xlink:href="#DejaVuSans-35"/>
      </g>
     </g>
    </g>
    <g id="ytick_20">
     <g id="line2d_35">
      <g>
       <use xlink:href="#me8738a74bb" x="605.437365" y="22.386005" style="stroke: #000000; stroke-width: 0.8"/>
      </g>
     </g>
     <g id="text_40">
      <!-- 6 -->
      <g transform="translate(589.529865 27.704911) scale(0.14 -0.14)">
       <use xlink:href="#DejaVuSans-36"/>
      </g>
     </g>
    </g>
    <g id="text_41">
     <!-- 1e−4 -->
     <g transform="translate(605.437365 13.638052) scale(0.14 -0.14)">
      <use xlink:href="#DejaVuSans-31"/>
      <use xlink:href="#DejaVuSans-65" x="63.623047"/>
      <use xlink:href="#DejaVuSans-2212" x="125.146484"/>
      <use xlink:href="#DejaVuSans-34" x="208.935547"/>
     </g>
    </g>
   </g>
   <g id="line2d_36">
    <path d="M 617.372917 244.239489 
L 619.110819 243.91394 
L 620.848722 243.53287 
L 622.586624 243.088636 
L 624.324526 242.572903 
L 626.062428 241.976638 
L 627.800331 241.290131 
L 629.538233 240.50303 
L 631.276135 239.604388 
L 633.014038 238.582737 
L 634.75194 237.426188 
L 636.489842 236.12254 
L 638.227744 234.659434 
L 639.965647 233.024516 
L 641.703549 231.205637 
L 643.441451 229.19107 
L 645.179354 226.969754 
L 646.917256 224.531559 
L 648.655158 221.867569 
L 650.39306 218.970372 
L 652.130963 215.83437 
L 653.868865 212.456077 
L 655.606767 208.834425 
L 657.34467 204.971047 
L 659.082572 200.870547 
L 660.820474 196.540739 
L 662.558376 191.992844 
L 664.296279 187.241648 
L 666.034181 182.305606 
L 667.772083 177.206878 
L 669.509986 171.971304 
L 671.247888 166.628308 
L 672.98579 161.21072 
L 674.723692 155.754524 
L 676.461595 150.29853 
L 678.199497 144.883969 
L 679.937399 139.554016 
L 681.675302 134.35325 
L 683.413204 129.327056 
L 685.151106 124.520988 
L 686.889008 119.98009 
L 688.626911 115.748203 
L 690.364813 111.867266 
L 692.102715 108.376626 
L 693.840617 105.312378 
L 695.57852 102.706742 
L 697.316422 100.587504 
L 699.054324 98.977516 
L 700.792227 97.894292 
L 702.530129 97.349689 
L 704.268031 97.349689 
L 706.005933 97.894292 
L 707.743836 98.977516 
L 709.481738 100.587504 
L 711.21964 102.706742 
L 712.957543 105.312378 
L 714.695445 108.376626 
L 716.433347 111.867266 
L 718.171249 115.748203 
L 719.909152 119.98009 
L 721.647054 124.520988 
L 723.384956 129.327056 
L 725.122859 134.35325 
L 726.860761 139.554016 
L 728.598663 144.883969 
L 730.336565 150.29853 
L 732.074468 155.754524 
L 733.81237 161.21072 
L 735.550272 166.628308 
L 737.288175 171.971304 
L 739.026077 177.206878 
L 740.763979 182.305606 
L 742.501881 187.241648 
L 744.239784 191.992844 
L 745.977686 196.540739 
L 747.715588 200.870547 
L 749.453491 204.971047 
L 751.191393 208.834425 
L 752.929295 212.456077 
L 754.667197 215.83437 
L 756.4051 218.970372 
L 758.143002 221.867569 
L 759.880904 224.531559 
L 761.618807 226.969754 
L 763.356709 229.19107 
L 765.094611 231.205637 
L 766.832513 233.024516 
L 768.570416 234.659434 
L 770.308318 236.12254 
L 772.04622 237.426188 
L 773.784123 238.582737 
L 775.522025 239.604388 
L 777.259927 240.50303 
L 778.997829 241.290131 
L 780.735732 241.976638 
L 782.473634 242.572903 
L 784.211536 243.088636 
L 785.949438 243.53287 
L 787.687341 243.91394 
L 789.425243 244.239489 
" clip-path="url(#p5b35dc696a)" style="fill: none; stroke: #2ca02c; stroke-width: 1.5; stroke-linecap: square"/>
   </g>
   <g id="patch_105">
    <path d="M 605.437365 245.890385 
L 605.437365 16.638052 
" style="fill: none; stroke: #000000; stroke-width: 0.8; stroke-linejoin: miter; stroke-linecap: square"/>
   </g>
   <g id="patch_106">
    <path d="M 868.01951 245.890385 
L 868.01951 16.638052 
" style="fill: none; stroke: #000000; stroke-width: 0.8; stroke-linejoin: miter; stroke-linecap: square"/>
   </g>
   <g id="patch_107">
    <path d="M 605.437365 245.890385 
L 868.01951 245.890385 
" style="fill: none; stroke: #000000; stroke-width: 0.8; stroke-linejoin: miter; stroke-linecap: square"/>
   </g>
   <g id="patch_108">
    <path d="M 605.437365 16.638052 
L 868.01951 16.638052 
" style="fill: none; stroke: #000000; stroke-width: 0.8; stroke-linejoin: miter; stroke-linecap: square"/>
   </g>
  </g>
  <g id="axes_4">
   <g id="patch_109">
    <path d="M 889.92749 245.890385 
L 1152.509635 245.890385 
L 1152.509635 16.638052 
L 889.92749 16.638052 
z
" style="fill: #ffffff"/>
   </g>
   <g id="patch_110">
    <path d="M 901.863042 245.890385 
L 906.633753 245.890385 
L 906.633753 245.04576 
L 901.863042 245.04576 
z
" clip-path="url(#pfdf722f59c)" style="fill: #1f77b4"/>
   </g>
   <g id="patch_111">
    <path d="M 907.163832 245.890385 
L 911.934543 245.890385 
L 911.934543 243.778823 
L 907.163832 243.778823 
z
" clip-path="url(#pfdf722f59c)" style="fill: #1f77b4"/>
   </g>
   <g id="patch_112">
    <path d="M 912.464622 245.890385 
L 917.235332 245.890385 
L 917.235332 242.511885 
L 912.464622 242.511885 
z
" clip-path="url(#pfdf722f59c)" style="fill: #1f77b4"/>
   </g>
   <g id="patch_113">
    <path d="M 917.765411 245.890385 
L 922.536122 245.890385 
L 922.536122 241.66726 
L 917.765411 241.66726 
z
" clip-path="url(#pfdf722f59c)" style="fill: #1f77b4"/>
   </g>
   <g id="patch_114">
    <path d="M 923.066201 245.890385 
L 927.836912 245.890385 
L 927.836912 233.22101 
L 923.066201 233.22101 
z
" clip-path="url(#pfdf722f59c)" style="fill: #1f77b4"/>
   </g>
   <g id="patch_115">
    <path d="M 928.366991 245.890385 
L 933.137702 245.890385 
L 933.137702 225.619386 
L 928.366991 225.619386 
z
" clip-path="url(#pfdf722f59c)" style="fill: #1f77b4"/>
   </g>
   <g id="patch_116">
    <path d="M 933.667781 245.890385 
L 938.438492 245.890385 
L 938.438492 216.328511 
L 933.667781 216.328511 
z
" clip-path="url(#pfdf722f59c)" style="fill: #1f77b4"/>
   </g>
   <g id="patch_117">
    <path d="M 938.968571 245.890385 
L 943.739281 245.890385 
L 943.739281 189.300512 
L 938.968571 189.300512 
z
" clip-path="url(#pfdf722f59c)" style="fill: #1f77b4"/>
   </g>
   <g id="patch_118">
    <path d="M 944.26936 245.890385 
L 949.040071 245.890385 
L 949.040071 165.651013 
L 944.26936 165.651013 
z
" clip-path="url(#pfdf722f59c)" style="fill: #1f77b4"/>
   </g>
   <g id="patch_119">
    <path d="M 949.57015 245.890385 
L 954.340861 245.890385 
L 954.340861 136.511451 
L 949.57015 136.511451 
z
" clip-path="url(#pfdf722f59c)" style="fill: #1f77b4"/>
   </g>
   <g id="patch_120">
    <path d="M 954.87094 245.890385 
L 959.641651 245.890385 
L 959.641651 102.30414 
L 954.87094 102.30414 
z
" clip-path="url(#pfdf722f59c)" style="fill: #1f77b4"/>
   </g>
   <g id="patch_121">
    <path d="M 960.17173 245.890385 
L 964.942441 245.890385 
L 964.942441 95.969453 
L 960.17173 95.969453 
z
" clip-path="url(#pfdf722f59c)" style="fill: #1f77b4"/>
   </g>
   <g id="patch_122">
    <path d="M 965.47252 245.890385 
L 970.24323 245.890385 
L 970.24323 55.849767 
L 965.47252 55.849767 
z
" clip-path="url(#pfdf722f59c)" style="fill: #1f77b4"/>
   </g>
   <g id="patch_123">
    <path d="M 970.773309 245.890385 
L 975.54402 245.890385 
L 975.54402 52.471267 
L 970.773309 52.471267 
z
" clip-path="url(#pfdf722f59c)" style="fill: #1f77b4"/>
   </g>
   <g id="patch_124">
    <path d="M 976.074099 245.890385 
L 980.84481 245.890385 
L 980.84481 44.44733 
L 976.074099 44.44733 
z
" clip-path="url(#pfdf722f59c)" style="fill: #1f77b4"/>
   </g>
   <g id="patch_125">
    <path d="M 981.374889 245.890385 
L 986.1456 245.890385 
L 986.1456 27.55483 
L 981.374889 27.55483 
z
" clip-path="url(#pfdf722f59c)" style="fill: #1f77b4"/>
   </g>
   <g id="patch_126">
    <path d="M 986.675679 245.890385 
L 991.44639 245.890385 
L 991.44639 69.786079 
L 986.675679 69.786079 
z
" clip-path="url(#pfdf722f59c)" style="fill: #1f77b4"/>
   </g>
   <g id="patch_127">
    <path d="M 991.976469 245.890385 
L 996.747179 245.890385 
L 996.747179 90.901703 
L 991.976469 90.901703 
z
" clip-path="url(#pfdf722f59c)" style="fill: #1f77b4"/>
   </g>
   <g id="patch_128">
    <path d="M 997.277258 245.890385 
L 1002.047969 245.890385 
L 1002.047969 122.152827 
L 997.277258 122.152827 
z
" clip-path="url(#pfdf722f59c)" style="fill: #1f77b4"/>
   </g>
   <g id="patch_129">
    <path d="M 1002.578048 245.890385 
L 1007.348759 245.890385 
L 1007.348759 168.6072 
L 1002.578048 168.6072 
z
" clip-path="url(#pfdf722f59c)" style="fill: #1f77b4"/>
   </g>
   <g id="patch_130">
    <path d="M 1007.878838 245.890385 
L 1012.649549 245.890385 
L 1012.649549 177.05345 
L 1007.878838 177.05345 
z
" clip-path="url(#pfdf722f59c)" style="fill: #1f77b4"/>
   </g>
   <g id="patch_131">
    <path d="M 1013.179628 245.890385 
L 1017.950338 245.890385 
L 1017.950338 207.037636 
L 1013.179628 207.037636 
z
" clip-path="url(#pfdf722f59c)" style="fill: #1f77b4"/>
   </g>
   <g id="patch_132">
    <path d="M 1018.480417 245.890385 
L 1023.251128 245.890385 
L 1023.251128 223.930136 
L 1018.480417 223.930136 
z
" clip-path="url(#pfdf722f59c)" style="fill: #1f77b4"/>
   </g>
   <g id="patch_133">
    <path d="M 1023.781207 245.890385 
L 1028.551918 245.890385 
L 1028.551918 229.842511 
L 1023.781207 229.842511 
z
" clip-path="url(#pfdf722f59c)" style="fill: #1f77b4"/>
   </g>
   <g id="patch_134">
    <path d="M 1029.081997 245.890385 
L 1033.852708 245.890385 
L 1033.852708 237.444135 
L 1029.081997 237.444135 
z
" clip-path="url(#pfdf722f59c)" style="fill: #1f77b4"/>
   </g>
   <g id="patch_135">
    <path d="M 1034.382787 245.890385 
L 1039.153498 245.890385 
L 1039.153498 239.97801 
L 1034.382787 239.97801 
z
" clip-path="url(#pfdf722f59c)" style="fill: #1f77b4"/>
   </g>
   <g id="patch_136">
    <path d="M 1039.683577 245.890385 
L 1044.454287 245.890385 
L 1044.454287 243.35651 
L 1039.683577 243.35651 
z
" clip-path="url(#pfdf722f59c)" style="fill: #1f77b4"/>
   </g>
   <g id="patch_137">
    <path d="M 1044.984366 245.890385 
L 1049.755077 245.890385 
L 1049.755077 245.468073 
L 1044.984366 245.468073 
z
" clip-path="url(#pfdf722f59c)" style="fill: #1f77b4"/>
   </g>
   <g id="patch_138">
    <path d="M 1050.285156 245.890385 
L 1055.055867 245.890385 
L 1055.055867 245.890385 
L 1050.285156 245.890385 
z
" clip-path="url(#pfdf722f59c)" style="fill: #1f77b4"/>
   </g>
   <g id="patch_139">
    <path d="M 1055.585946 245.890385 
L 1060.356657 245.890385 
L 1060.356657 245.468073 
L 1055.585946 245.468073 
z
" clip-path="url(#pfdf722f59c)" style="fill: #1f77b4"/>
   </g>
   <g id="matplotlib.axis_7">
    <g id="xtick_13">
     <g id="line2d_37">
      <g>
       <use xlink:href="#m941c37a9d0" x="938.091445" y="245.890385" style="stroke: #000000; stroke-width: 0.8"/>
      </g>
     </g>
     <g id="text_42">
      <!-- −4000 -->
      <g transform="translate(914.410664 263.528197) scale(0.14 -0.14)">
       <use xlink:href="#DejaVuSans-2212"/>
       <use xlink:href="#DejaVuSans-34" x="83.789062"/>
       <use xlink:href="#DejaVuSans-30" x="147.412109"/>
       <use xlink:href="#DejaVuSans-30" x="211.035156"/>
       <use xlink:href="#DejaVuSans-30" x="274.658203"/>
      </g>
     </g>
    </g>
    <g id="xtick_14">
     <g id="line2d_38">
      <g>
       <use xlink:href="#m941c37a9d0" x="995.943628" y="245.890385" style="stroke: #000000; stroke-width: 0.8"/>
      </g>
     </g>
     <g id="text_43">
      <!-- −2000 -->
      <g transform="translate(972.262846 263.528197) scale(0.14 -0.14)">
       <use xlink:href="#DejaVuSans-2212"/>
       <use xlink:href="#DejaVuSans-32" x="83.789062"/>
       <use xlink:href="#DejaVuSans-30" x="147.412109"/>
       <use xlink:href="#DejaVuSans-30" x="211.035156"/>
       <use xlink:href="#DejaVuSans-30" x="274.658203"/>
      </g>
     </g>
    </g>
    <g id="xtick_15">
     <g id="line2d_39">
      <g>
       <use xlink:href="#m941c37a9d0" x="1053.79581" y="245.890385" style="stroke: #000000; stroke-width: 0.8"/>
      </g>
     </g>
     <g id="text_44">
      <!-- 0 -->
      <g transform="translate(1049.34206 263.528197) scale(0.14 -0.14)">
       <use xlink:href="#DejaVuSans-30"/>
      </g>
     </g>
    </g>
    <g id="xtick_16">
     <g id="line2d_40">
      <g>
       <use xlink:href="#m941c37a9d0" x="1111.647992" y="245.890385" style="stroke: #000000; stroke-width: 0.8"/>
      </g>
     </g>
     <g id="text_45">
      <!-- 2000 -->
      <g transform="translate(1093.832992 263.528197) scale(0.14 -0.14)">
       <use xlink:href="#DejaVuSans-32"/>
       <use xlink:href="#DejaVuSans-30" x="63.623047"/>
       <use xlink:href="#DejaVuSans-30" x="127.246094"/>
       <use xlink:href="#DejaVuSans-30" x="190.869141"/>
      </g>
     </g>
    </g>
    <g id="text_46">
     <!-- $b_{E_1,4}$ [MPa] -->
     <g transform="translate(983.278562 281.07976) scale(0.14 -0.14)">
      <use xlink:href="#DejaVuSans-Oblique-62" transform="translate(0 0.015625)"/>
      <use xlink:href="#DejaVuSans-Oblique-45" transform="translate(63.476562 -16.390625) scale(0.7)"/>
      <use xlink:href="#DejaVuSans-31" transform="translate(107.705078 -27.875) scale(0.49)"/>
      <use xlink:href="#DejaVuSans-2c" transform="translate(140.794434 -16.390625) scale(0.7)"/>
      <use xlink:href="#DejaVuSans-34" transform="translate(176.683105 -16.390625) scale(0.7)"/>
      <use xlink:href="#DejaVuSans-20" transform="translate(223.953613 0.015625)"/>
      <use xlink:href="#DejaVuSans-5b" transform="translate(255.740723 0.015625)"/>
      <use xlink:href="#DejaVuSans-4d" transform="translate(294.754395 0.015625)"/>
      <use xlink:href="#DejaVuSans-50" transform="translate(381.033691 0.015625)"/>
      <use xlink:href="#DejaVuSans-61" transform="translate(441.336426 0.015625)"/>
      <use xlink:href="#DejaVuSans-5d" transform="translate(502.615723 0.015625)"/>
     </g>
    </g>
   </g>
   <g id="matplotlib.axis_8">
    <g id="ytick_21">
     <g id="line2d_41">
      <g>
       <use xlink:href="#me8738a74bb" x="889.92749" y="245.890385" style="stroke: #000000; stroke-width: 0.8"/>
      </g>
     </g>
     <g id="text_47">
      <!-- 0 -->
      <g transform="translate(874.01999 251.209291) scale(0.14 -0.14)">
       <use xlink:href="#DejaVuSans-30"/>
      </g>
     </g>
    </g>
    <g id="ytick_22">
     <g id="line2d_42">
      <g>
       <use xlink:href="#me8738a74bb" x="889.92749" y="207.195393" style="stroke: #000000; stroke-width: 0.8"/>
      </g>
     </g>
     <g id="text_48">
      <!-- 1 -->
      <g transform="translate(874.01999 212.5143) scale(0.14 -0.14)">
       <use xlink:href="#DejaVuSans-31"/>
      </g>
     </g>
    </g>
    <g id="ytick_23">
     <g id="line2d_43">
      <g>
       <use xlink:href="#me8738a74bb" x="889.92749" y="168.500402" style="stroke: #000000; stroke-width: 0.8"/>
      </g>
     </g>
     <g id="text_49">
      <!-- 2 -->
      <g transform="translate(874.01999 173.819308) scale(0.14 -0.14)">
       <use xlink:href="#DejaVuSans-32"/>
      </g>
     </g>
    </g>
    <g id="ytick_24">
     <g id="line2d_44">
      <g>
       <use xlink:href="#me8738a74bb" x="889.92749" y="129.80541" style="stroke: #000000; stroke-width: 0.8"/>
      </g>
     </g>
     <g id="text_50">
      <!-- 3 -->
      <g transform="translate(874.01999 135.124316) scale(0.14 -0.14)">
       <use xlink:href="#DejaVuSans-33"/>
      </g>
     </g>
    </g>
    <g id="ytick_25">
     <g id="line2d_45">
      <g>
       <use xlink:href="#me8738a74bb" x="889.92749" y="91.110418" style="stroke: #000000; stroke-width: 0.8"/>
      </g>
     </g>
     <g id="text_51">
      <!-- 4 -->
      <g transform="translate(874.01999 96.429324) scale(0.14 -0.14)">
       <use xlink:href="#DejaVuSans-34"/>
      </g>
     </g>
    </g>
    <g id="ytick_26">
     <g id="line2d_46">
      <g>
       <use xlink:href="#me8738a74bb" x="889.92749" y="52.415426" style="stroke: #000000; stroke-width: 0.8"/>
      </g>
     </g>
     <g id="text_52">
      <!-- 5 -->
      <g transform="translate(874.01999 57.734333) scale(0.14 -0.14)">
       <use xlink:href="#DejaVuSans-35"/>
      </g>
     </g>
    </g>
    <g id="text_53">
     <!-- 1e−4 -->
     <g transform="translate(889.92749 13.638052) scale(0.14 -0.14)">
      <use xlink:href="#DejaVuSans-31"/>
      <use xlink:href="#DejaVuSans-65" x="63.623047"/>
      <use xlink:href="#DejaVuSans-2212" x="125.146484"/>
      <use xlink:href="#DejaVuSans-34" x="208.935547"/>
     </g>
    </g>
   </g>
   <g id="line2d_47">
    <path d="M 967.017536 244.175482 
L 968.770633 243.837311 
L 970.523729 243.441465 
L 972.276826 242.980009 
L 974.029922 242.44428 
L 975.783019 241.824896 
L 977.536115 241.111773 
L 979.289211 240.294155 
L 981.042308 239.360671 
L 982.795404 238.29941 
L 984.548501 237.098019 
L 986.301597 235.743827 
L 988.054694 234.223994 
L 989.80779 232.525689 
L 991.560886 230.63629 
L 993.313983 228.543615 
L 995.067079 226.236175 
L 996.820176 223.703449 
L 998.573272 220.936171 
L 1000.326369 217.926646 
L 1002.079465 214.669057 
L 1003.832561 211.159783 
L 1005.585658 207.397714 
L 1007.338754 203.384548 
L 1009.091851 199.125067 
L 1010.844947 194.627386 
L 1012.598044 189.903162 
L 1014.35114 184.967757 
L 1016.104236 179.840337 
L 1017.857333 174.543924 
L 1019.610429 169.10536 
L 1021.363526 163.555209 
L 1023.116622 157.927573 
L 1024.869719 152.259833 
L 1026.622815 146.592303 
L 1028.375911 140.967813 
L 1030.129008 135.43121 
L 1031.882104 130.028803 
L 1033.635201 124.807736 
L 1035.388297 119.815331 
L 1037.141394 115.098376 
L 1038.89449 110.702413 
L 1040.647586 106.671006 
L 1042.400683 103.045029 
L 1044.153779 99.861976 
L 1045.906876 97.155317 
L 1047.659972 94.953913 
L 1049.413069 93.281504 
L 1051.166165 92.156282 
L 1052.919261 91.590564 
L 1054.672358 91.590564 
L 1056.425454 92.156282 
L 1058.178551 93.281504 
L 1059.931647 94.953913 
L 1061.684744 97.155317 
L 1063.43784 99.861976 
L 1065.190936 103.045029 
L 1066.944033 106.671006 
L 1068.697129 110.702413 
L 1070.450226 115.098376 
L 1072.203322 119.815331 
L 1073.956419 124.807736 
L 1075.709515 130.028803 
L 1077.462612 135.43121 
L 1079.215708 140.967813 
L 1080.968804 146.592303 
L 1082.721901 152.259833 
L 1084.474997 157.927573 
L 1086.228094 163.555209 
L 1087.98119 169.10536 
L 1089.734287 174.543924 
L 1091.487383 179.840337 
L 1093.240479 184.967757 
L 1094.993576 189.903162 
L 1096.746672 194.627386 
L 1098.499769 199.125067 
L 1100.252865 203.384548 
L 1102.005962 207.397714 
L 1103.759058 211.159783 
L 1105.512154 214.669057 
L 1107.265251 217.926646 
L 1109.018347 220.936171 
L 1110.771444 223.703449 
L 1112.52454 226.236175 
L 1114.277637 228.543615 
L 1116.030733 230.63629 
L 1117.783829 232.525689 
L 1119.536926 234.223994 
L 1121.290022 235.743827 
L 1123.043119 237.098019 
L 1124.796215 238.29941 
L 1126.549312 239.360671 
L 1128.302408 240.294155 
L 1130.055504 241.111773 
L 1131.808601 241.824896 
L 1133.561697 242.44428 
L 1135.314794 242.980009 
L 1137.06789 243.441465 
L 1138.820987 243.837311 
L 1140.574083 244.175482 
" clip-path="url(#pfdf722f59c)" style="fill: none; stroke: #2ca02c; stroke-width: 1.5; stroke-linecap: square"/>
   </g>
   <g id="patch_140">
    <path d="M 889.92749 245.890385 
L 889.92749 16.638052 
" style="fill: none; stroke: #000000; stroke-width: 0.8; stroke-linejoin: miter; stroke-linecap: square"/>
   </g>
   <g id="patch_141">
    <path d="M 1152.509635 245.890385 
L 1152.509635 16.638052 
" style="fill: none; stroke: #000000; stroke-width: 0.8; stroke-linejoin: miter; stroke-linecap: square"/>
   </g>
   <g id="patch_142">
    <path d="M 889.92749 245.890385 
L 1152.509635 245.890385 
" style="fill: none; stroke: #000000; stroke-width: 0.8; stroke-linejoin: miter; stroke-linecap: square"/>
   </g>
   <g id="patch_143">
    <path d="M 889.92749 16.638052 
L 1152.509635 16.638052 
" style="fill: none; stroke: #000000; stroke-width: 0.8; stroke-linejoin: miter; stroke-linecap: square"/>
   </g>
  </g>
  <g id="axes_5">
   <g id="patch_144">
    <path d="M 1174.417615 245.890385 
L 1436.99976 245.890385 
L 1436.99976 16.638052 
L 1174.417615 16.638052 
z
" style="fill: #ffffff"/>
   </g>
   <g id="patch_145">
    <path d="M 1202.6217 245.890385 
L 1208.993217 245.890385 
L 1208.993217 245.029101 
L 1202.6217 245.029101 
z
" clip-path="url(#pe5bdc1d82a)" style="fill: #1f77b4"/>
   </g>
   <g id="patch_146">
    <path d="M 1209.701164 245.890385 
L 1216.072681 245.890385 
L 1216.072681 245.029101 
L 1209.701164 245.029101 
z
" clip-path="url(#pe5bdc1d82a)" style="fill: #1f77b4"/>
   </g>
   <g id="patch_147">
    <path d="M 1216.780628 245.890385 
L 1223.152145 245.890385 
L 1223.152145 243.737174 
L 1216.780628 243.737174 
z
" clip-path="url(#pe5bdc1d82a)" style="fill: #1f77b4"/>
   </g>
   <g id="patch_148">
    <path d="M 1223.860092 245.890385 
L 1230.231609 245.890385 
L 1230.231609 241.583964 
L 1223.860092 241.583964 
z
" clip-path="url(#pe5bdc1d82a)" style="fill: #1f77b4"/>
   </g>
   <g id="patch_149">
    <path d="M 1230.939556 245.890385 
L 1237.311074 245.890385 
L 1237.311074 239.000111 
L 1230.939556 239.000111 
z
" clip-path="url(#pe5bdc1d82a)" style="fill: #1f77b4"/>
   </g>
   <g id="patch_150">
    <path d="M 1238.01902 245.890385 
L 1244.390538 245.890385 
L 1244.390538 229.095342 
L 1238.01902 229.095342 
z
" clip-path="url(#pe5bdc1d82a)" style="fill: #1f77b4"/>
   </g>
   <g id="patch_151">
    <path d="M 1245.098484 245.890385 
L 1251.470002 245.890385 
L 1251.470002 217.037363 
L 1245.098484 217.037363 
z
" clip-path="url(#pe5bdc1d82a)" style="fill: #1f77b4"/>
   </g>
   <g id="patch_152">
    <path d="M 1252.177948 245.890385 
L 1258.549466 245.890385 
L 1258.549466 201.103605 
L 1252.177948 201.103605 
z
" clip-path="url(#pe5bdc1d82a)" style="fill: #1f77b4"/>
   </g>
   <g id="patch_153">
    <path d="M 1259.257412 245.890385 
L 1265.62893 245.890385 
L 1265.62893 171.81994 
L 1259.257412 171.81994 
z
" clip-path="url(#pe5bdc1d82a)" style="fill: #1f77b4"/>
   </g>
   <g id="patch_154">
    <path d="M 1266.336876 245.890385 
L 1272.708394 245.890385 
L 1272.708394 156.747466 
L 1266.336876 156.747466 
z
" clip-path="url(#pe5bdc1d82a)" style="fill: #1f77b4"/>
   </g>
   <g id="patch_155">
    <path d="M 1273.41634 245.890385 
L 1279.787858 245.890385 
L 1279.787858 118.85096 
L 1273.41634 118.85096 
z
" clip-path="url(#pe5bdc1d82a)" style="fill: #1f77b4"/>
   </g>
   <g id="patch_156">
    <path d="M 1280.495804 245.890385 
L 1286.867322 245.890385 
L 1286.867322 87.844727 
L 1280.495804 87.844727 
z
" clip-path="url(#pe5bdc1d82a)" style="fill: #1f77b4"/>
   </g>
   <g id="patch_157">
    <path d="M 1287.575268 245.890385 
L 1293.946786 245.890385 
L 1293.946786 59.422347 
L 1287.575268 59.422347 
z
" clip-path="url(#pe5bdc1d82a)" style="fill: #1f77b4"/>
   </g>
   <g id="patch_158">
    <path d="M 1294.654732 245.890385 
L 1301.02625 245.890385 
L 1301.02625 27.55483 
L 1294.654732 27.55483 
z
" clip-path="url(#pe5bdc1d82a)" style="fill: #1f77b4"/>
   </g>
   <g id="patch_159">
    <path d="M 1301.734196 245.890385 
L 1308.105714 245.890385 
L 1308.105714 30.569325 
L 1301.734196 30.569325 
z
" clip-path="url(#pe5bdc1d82a)" style="fill: #1f77b4"/>
   </g>
   <g id="patch_160">
    <path d="M 1308.813661 245.890385 
L 1315.185178 245.890385 
L 1315.185178 30.569325 
L 1308.813661 30.569325 
z
" clip-path="url(#pe5bdc1d82a)" style="fill: #1f77b4"/>
   </g>
   <g id="patch_161">
    <path d="M 1315.893125 245.890385 
L 1322.264642 245.890385 
L 1322.264642 62.436842 
L 1315.893125 62.436842 
z
" clip-path="url(#pe5bdc1d82a)" style="fill: #1f77b4"/>
   </g>
   <g id="patch_162">
    <path d="M 1322.972589 245.890385 
L 1329.344106 245.890385 
L 1329.344106 86.983443 
L 1322.972589 86.983443 
z
" clip-path="url(#pe5bdc1d82a)" style="fill: #1f77b4"/>
   </g>
   <g id="patch_163">
    <path d="M 1330.052053 245.890385 
L 1336.42357 245.890385 
L 1336.42357 111.530044 
L 1330.052053 111.530044 
z
" clip-path="url(#pe5bdc1d82a)" style="fill: #1f77b4"/>
   </g>
   <g id="patch_164">
    <path d="M 1337.131517 245.890385 
L 1343.503034 245.890385 
L 1343.503034 154.163613 
L 1337.131517 154.163613 
z
" clip-path="url(#pe5bdc1d82a)" style="fill: #1f77b4"/>
   </g>
   <g id="patch_165">
    <path d="M 1344.210981 245.890385 
L 1350.582498 245.890385 
L 1350.582498 178.710214 
L 1344.210981 178.710214 
z
" clip-path="url(#pe5bdc1d82a)" style="fill: #1f77b4"/>
   </g>
   <g id="patch_166">
    <path d="M 1351.290445 245.890385 
L 1357.661962 245.890385 
L 1357.661962 196.797183 
L 1351.290445 196.797183 
z
" clip-path="url(#pe5bdc1d82a)" style="fill: #1f77b4"/>
   </g>
   <g id="patch_167">
    <path d="M 1358.369909 245.890385 
L 1364.741427 245.890385 
L 1364.741427 215.314794 
L 1358.369909 215.314794 
z
" clip-path="url(#pe5bdc1d82a)" style="fill: #1f77b4"/>
   </g>
   <g id="patch_168">
    <path d="M 1365.449373 245.890385 
L 1371.820891 245.890385 
L 1371.820891 220.913142 
L 1365.449373 220.913142 
z
" clip-path="url(#pe5bdc1d82a)" style="fill: #1f77b4"/>
   </g>
   <g id="patch_169">
    <path d="M 1372.528837 245.890385 
L 1378.900355 245.890385 
L 1378.900355 235.124332 
L 1372.528837 235.124332 
z
" clip-path="url(#pe5bdc1d82a)" style="fill: #1f77b4"/>
   </g>
   <g id="patch_170">
    <path d="M 1379.608301 245.890385 
L 1385.979819 245.890385 
L 1385.979819 238.569469 
L 1379.608301 238.569469 
z
" clip-path="url(#pe5bdc1d82a)" style="fill: #1f77b4"/>
   </g>
   <g id="patch_171">
    <path d="M 1386.687765 245.890385 
L 1393.059283 245.890385 
L 1393.059283 242.87589 
L 1386.687765 242.87589 
z
" clip-path="url(#pe5bdc1d82a)" style="fill: #1f77b4"/>
   </g>
   <g id="patch_172">
    <path d="M 1393.767229 245.890385 
L 1400.138747 245.890385 
L 1400.138747 244.167817 
L 1393.767229 244.167817 
z
" clip-path="url(#pe5bdc1d82a)" style="fill: #1f77b4"/>
   </g>
   <g id="patch_173">
    <path d="M 1400.846693 245.890385 
L 1407.218211 245.890385 
L 1407.218211 245.459743 
L 1400.846693 245.459743 
z
" clip-path="url(#pe5bdc1d82a)" style="fill: #1f77b4"/>
   </g>
   <g id="patch_174">
    <path d="M 1407.926157 245.890385 
L 1414.297675 245.890385 
L 1414.297675 245.459743 
L 1407.926157 245.459743 
z
" clip-path="url(#pe5bdc1d82a)" style="fill: #1f77b4"/>
   </g>
   <g id="matplotlib.axis_9">
    <g id="xtick_17">
     <g id="line2d_48">
      <g>
       <use xlink:href="#m941c37a9d0" x="1226.138341" y="245.890385" style="stroke: #000000; stroke-width: 0.8"/>
      </g>
     </g>
     <g id="text_54">
      <!-- −2000 -->
      <g transform="translate(1202.457559 263.528197) scale(0.14 -0.14)">
       <use xlink:href="#DejaVuSans-2212"/>
       <use xlink:href="#DejaVuSans-32" x="83.789062"/>
       <use xlink:href="#DejaVuSans-30" x="147.412109"/>
       <use xlink:href="#DejaVuSans-30" x="211.035156"/>
       <use xlink:href="#DejaVuSans-30" x="274.658203"/>
      </g>
     </g>
    </g>
    <g id="xtick_18">
     <g id="line2d_49">
      <g>
       <use xlink:href="#m941c37a9d0" x="1305.708687" y="245.890385" style="stroke: #000000; stroke-width: 0.8"/>
      </g>
     </g>
     <g id="text_55">
      <!-- 0 -->
      <g transform="translate(1301.254938 263.528197) scale(0.14 -0.14)">
       <use xlink:href="#DejaVuSans-30"/>
      </g>
     </g>
    </g>
    <g id="xtick_19">
     <g id="line2d_50">
      <g>
       <use xlink:href="#m941c37a9d0" x="1385.279034" y="245.890385" style="stroke: #000000; stroke-width: 0.8"/>
      </g>
     </g>
     <g id="text_56">
      <!-- 2000 -->
      <g transform="translate(1367.464034 263.528197) scale(0.14 -0.14)">
       <use xlink:href="#DejaVuSans-32"/>
       <use xlink:href="#DejaVuSans-30" x="63.623047"/>
       <use xlink:href="#DejaVuSans-30" x="127.246094"/>
       <use xlink:href="#DejaVuSans-30" x="190.869141"/>
      </g>
     </g>
    </g>
    <g id="text_57">
     <!-- $b_{E_1,5}$ [MPa] -->
     <g transform="translate(1267.768687 281.07976) scale(0.14 -0.14)">
      <use xlink:href="#DejaVuSans-Oblique-62" transform="translate(0 0.015625)"/>
      <use xlink:href="#DejaVuSans-Oblique-45" transform="translate(63.476562 -16.390625) scale(0.7)"/>
      <use xlink:href="#DejaVuSans-31" transform="translate(107.705078 -27.875) scale(0.49)"/>
      <use xlink:href="#DejaVuSans-2c" transform="translate(140.794434 -16.390625) scale(0.7)"/>
      <use xlink:href="#DejaVuSans-35" transform="translate(176.683105 -16.390625) scale(0.7)"/>
      <use xlink:href="#DejaVuSans-20" transform="translate(223.953613 0.015625)"/>
      <use xlink:href="#DejaVuSans-5b" transform="translate(255.740723 0.015625)"/>
      <use xlink:href="#DejaVuSans-4d" transform="translate(294.754395 0.015625)"/>
      <use xlink:href="#DejaVuSans-50" transform="translate(381.033691 0.015625)"/>
      <use xlink:href="#DejaVuSans-61" transform="translate(441.336426 0.015625)"/>
      <use xlink:href="#DejaVuSans-5d" transform="translate(502.615723 0.015625)"/>
     </g>
    </g>
   </g>
   <g id="matplotlib.axis_10">
    <g id="ytick_27">
     <g id="line2d_51">
      <g>
       <use xlink:href="#me8738a74bb" x="1174.417615" y="245.890385" style="stroke: #000000; stroke-width: 0.8"/>
      </g>
     </g>
     <g id="text_58">
      <!-- 0 -->
      <g transform="translate(1158.510115 251.209291) scale(0.14 -0.14)">
       <use xlink:href="#DejaVuSans-30"/>
      </g>
     </g>
    </g>
    <g id="ytick_28">
     <g id="line2d_52">
      <g>
       <use xlink:href="#me8738a74bb" x="1174.417615" y="207.575667" style="stroke: #000000; stroke-width: 0.8"/>
      </g>
     </g>
     <g id="text_59">
      <!-- 1 -->
      <g transform="translate(1158.510115 212.894573) scale(0.14 -0.14)">
       <use xlink:href="#DejaVuSans-31"/>
      </g>
     </g>
    </g>
    <g id="ytick_29">
     <g id="line2d_53">
      <g>
       <use xlink:href="#me8738a74bb" x="1174.417615" y="169.260949" style="stroke: #000000; stroke-width: 0.8"/>
      </g>
     </g>
     <g id="text_60">
      <!-- 2 -->
      <g transform="translate(1158.510115 174.579855) scale(0.14 -0.14)">
       <use xlink:href="#DejaVuSans-32"/>
      </g>
     </g>
    </g>
    <g id="ytick_30">
     <g id="line2d_54">
      <g>
       <use xlink:href="#me8738a74bb" x="1174.417615" y="130.946231" style="stroke: #000000; stroke-width: 0.8"/>
      </g>
     </g>
     <g id="text_61">
      <!-- 3 -->
      <g transform="translate(1158.510115 136.265137) scale(0.14 -0.14)">
       <use xlink:href="#DejaVuSans-33"/>
      </g>
     </g>
    </g>
    <g id="ytick_31">
     <g id="line2d_55">
      <g>
       <use xlink:href="#me8738a74bb" x="1174.417615" y="92.631513" style="stroke: #000000; stroke-width: 0.8"/>
      </g>
     </g>
     <g id="text_62">
      <!-- 4 -->
      <g transform="translate(1158.510115 97.950419) scale(0.14 -0.14)">
       <use xlink:href="#DejaVuSans-34"/>
      </g>
     </g>
    </g>
    <g id="ytick_32">
     <g id="line2d_56">
      <g>
       <use xlink:href="#me8738a74bb" x="1174.417615" y="54.316795" style="stroke: #000000; stroke-width: 0.8"/>
      </g>
     </g>
     <g id="text_63">
      <!-- 5 -->
      <g transform="translate(1158.510115 59.635701) scale(0.14 -0.14)">
       <use xlink:href="#DejaVuSans-35"/>
      </g>
     </g>
    </g>
    <g id="text_64">
     <!-- 1e−4 -->
     <g transform="translate(1174.417615 13.638052) scale(0.14 -0.14)">
      <use xlink:href="#DejaVuSans-31"/>
      <use xlink:href="#DejaVuSans-65" x="63.623047"/>
      <use xlink:href="#DejaVuSans-2212" x="125.146484"/>
      <use xlink:href="#DejaVuSans-34" x="208.935547"/>
     </g>
    </g>
   </g>
   <g id="line2d_57">
    <path d="M 1186.353167 244.192335 
L 1188.76439 243.857487 
L 1191.175612 243.465532 
L 1193.586835 243.00861 
L 1195.998058 242.478146 
L 1198.40928 241.86485 
L 1200.820503 241.158735 
L 1203.231725 240.349152 
L 1205.642948 239.424841 
L 1208.054171 238.37401 
L 1210.465393 237.184426 
L 1212.876616 235.843542 
L 1215.287839 234.338645 
L 1217.699061 232.65703 
L 1220.110284 230.786199 
L 1222.521507 228.71409 
L 1224.932729 226.429327 
L 1227.343952 223.92149 
L 1229.755174 221.181408 
L 1232.166397 218.201459 
L 1234.57762 214.975883 
L 1236.988842 211.501097 
L 1239.400065 207.776 
L 1241.811288 203.802273 
L 1244.22251 199.584651 
L 1246.633733 195.131171 
L 1249.044956 190.453375 
L 1251.456178 185.566472 
L 1253.867401 180.489442 
L 1256.278623 175.245079 
L 1258.689846 169.859962 
L 1261.101069 164.364355 
L 1263.512291 158.792025 
L 1265.923514 153.179984 
L 1268.334737 147.568152 
L 1270.745959 141.998936 
L 1273.157182 136.516744 
L 1275.568405 131.167428 
L 1277.979627 125.997672 
L 1280.39085 121.054329 
L 1282.802072 116.38373 
L 1285.213295 112.030968 
L 1287.624518 108.03918 
L 1290.03574 104.448837 
L 1292.446963 101.297065 
L 1294.858186 98.617006 
L 1297.269408 96.437236 
L 1299.680631 94.781262 
L 1302.091854 93.667098 
L 1304.503076 93.10694 
L 1306.914299 93.10694 
L 1309.325521 93.667098 
L 1311.736744 94.781262 
L 1314.147967 96.437236 
L 1316.559189 98.617006 
L 1318.970412 101.297065 
L 1321.381635 104.448837 
L 1323.792857 108.03918 
L 1326.20408 112.030968 
L 1328.615303 116.38373 
L 1331.026525 121.054329 
L 1333.437748 125.997672 
L 1335.84897 131.167428 
L 1338.260193 136.516744 
L 1340.671416 141.998936 
L 1343.082638 147.568152 
L 1345.493861 153.179984 
L 1347.905084 158.792025 
L 1350.316306 164.364355 
L 1352.727529 169.859962 
L 1355.138752 175.245079 
L 1357.549974 180.489442 
L 1359.961197 185.566472 
L 1362.372419 190.453375 
L 1364.783642 195.131171 
L 1367.194865 199.584651 
L 1369.606087 203.802273 
L 1372.01731 207.776 
L 1374.428533 211.501097 
L 1376.839755 214.975883 
L 1379.250978 218.201459 
L 1381.662201 221.181408 
L 1384.073423 223.92149 
L 1386.484646 226.429327 
L 1388.895868 228.71409 
L 1391.307091 230.786199 
L 1393.718314 232.65703 
L 1396.129536 234.338645 
L 1398.540759 235.843542 
L 1400.951982 237.184426 
L 1403.363204 238.37401 
L 1405.774427 239.424841 
L 1408.18565 240.349152 
L 1410.596872 241.158735 
L 1413.008095 241.86485 
L 1415.419317 242.478146 
L 1417.83054 243.00861 
L 1420.241763 243.465532 
L 1422.652985 243.857487 
L 1425.064208 244.192335 
" clip-path="url(#pe5bdc1d82a)" style="fill: none; stroke: #2ca02c; stroke-width: 1.5; stroke-linecap: square"/>
   </g>
   <g id="patch_175">
    <path d="M 1174.417615 245.890385 
L 1174.417615 16.638052 
" style="fill: none; stroke: #000000; stroke-width: 0.8; stroke-linejoin: miter; stroke-linecap: square"/>
   </g>
   <g id="patch_176">
    <path d="M 1436.99976 245.890385 
L 1436.99976 16.638052 
" style="fill: none; stroke: #000000; stroke-width: 0.8; stroke-linejoin: miter; stroke-linecap: square"/>
   </g>
   <g id="patch_177">
    <path d="M 1174.417615 245.890385 
L 1436.99976 245.890385 
" style="fill: none; stroke: #000000; stroke-width: 0.8; stroke-linejoin: miter; stroke-linecap: square"/>
   </g>
   <g id="patch_178">
    <path d="M 1174.417615 16.638052 
L 1436.99976 16.638052 
" style="fill: none; stroke: #000000; stroke-width: 0.8; stroke-linejoin: miter; stroke-linecap: square"/>
   </g>
  </g>
 </g>
 <defs>
  <clipPath id="pa16c763847">
   <rect x="36.457115" y="16.638052" width="262.582145" height="229.252333"/>
  </clipPath>
  <clipPath id="p50e81c36cb">
   <rect x="320.94724" y="16.638052" width="262.582145" height="229.252333"/>
  </clipPath>
  <clipPath id="p5b35dc696a">
   <rect x="605.437365" y="16.638052" width="262.582145" height="229.252333"/>
  </clipPath>
  <clipPath id="pfdf722f59c">
   <rect x="889.92749" y="16.638052" width="262.582145" height="229.252333"/>
  </clipPath>
  <clipPath id="pe5bdc1d82a">
   <rect x="1174.417615" y="16.638052" width="262.582145" height="229.252333"/>
  </clipPath>
 </defs>
</svg>
