<?xml version="1.0" encoding="utf-8" standalone="no"?>
<!DOCTYPE svg PUBLIC "-//W3C//DTD SVG 1.1//EN"
  "http://www.w3.org/Graphics/SVG/1.1/DTD/svg11.dtd">
<svg xmlns:xlink="http://www.w3.org/1999/xlink" width="1440pt" height="288pt" viewBox="0 0 1440 288" xmlns="http://www.w3.org/2000/svg" version="1.1">
 <metadata>
  <rdf:RDF xmlns:dc="http://purl.org/dc/elements/1.1/" xmlns:cc="http://creativecommons.org/ns#" xmlns:rdf="http://www.w3.org/1999/02/22-rdf-syntax-ns#">
   <cc:Work>
    <dc:type rdf:resource="http://purl.org/dc/dcmitype/StillImage"/>
    <dc:date>2024-11-24T11:30:05.516237</dc:date>
    <dc:format>image/svg+xml</dc:format>
    <dc:creator>
     <cc:Agent>
      <dc:title>Matplotlib v3.9.2, https://matplotlib.org/</dc:title>
     </cc:Agent>
    </dc:creator>
   </cc:Work>
  </rdf:RDF>
 </metadata>
 <defs>
  <style type="text/css">*{stroke-linejoin: round; stroke-linecap: butt}</style>
 </defs>
 <g id="figure_1">
  <g id="patch_1">
   <path d="M 0 288 
L 1440 288 
L 1440 0 
L 0 0 
z
" style="fill: #ffffff"/>
  </g>
  <g id="axes_1">
   <g id="patch_2">
    <path d="M 36.457115 246.90101 
L 278.078019 246.90101 
L 278.078019 16.638052 
L 36.457115 16.638052 
z
" style="fill: #ffffff"/>
   </g>
   <g id="patch_3">
    <path d="M 47.439883 246.90101 
L 49.412023 246.90101 
L 49.412023 246.449779 
L 47.439883 246.449779 
z
" clip-path="url(#pa9292338c3)" style="fill: #1f77b4"/>
   </g>
   <g id="patch_4">
    <path d="M 49.631149 246.90101 
L 51.603289 246.90101 
L 51.603289 245.998549 
L 49.631149 245.998549 
z
" clip-path="url(#pa9292338c3)" style="fill: #1f77b4"/>
   </g>
   <g id="patch_5">
    <path d="M 51.822415 246.90101 
L 53.794554 246.90101 
L 53.794554 245.096088 
L 51.822415 245.096088 
z
" clip-path="url(#pa9292338c3)" style="fill: #1f77b4"/>
   </g>
   <g id="patch_6">
    <path d="M 54.013681 246.90101 
L 55.98582 246.90101 
L 55.98582 242.388704 
L 54.013681 242.388704 
z
" clip-path="url(#pa9292338c3)" style="fill: #1f77b4"/>
   </g>
   <g id="patch_7">
    <path d="M 56.204947 246.90101 
L 58.177086 246.90101 
L 58.177086 240.132552 
L 56.204947 240.132552 
z
" clip-path="url(#pa9292338c3)" style="fill: #1f77b4"/>
   </g>
   <g id="patch_8">
    <path d="M 58.396213 246.90101 
L 60.368352 246.90101 
L 60.368352 231.559171 
L 58.396213 231.559171 
z
" clip-path="url(#pa9292338c3)" style="fill: #1f77b4"/>
   </g>
   <g id="patch_9">
    <path d="M 60.587479 246.90101 
L 62.559618 246.90101 
L 62.559618 219.827176 
L 60.587479 219.827176 
z
" clip-path="url(#pa9292338c3)" style="fill: #1f77b4"/>
   </g>
   <g id="patch_10">
    <path d="M 62.778745 246.90101 
L 64.750884 246.90101 
L 64.750884 201.326723 
L 62.778745 201.326723 
z
" clip-path="url(#pa9292338c3)" style="fill: #1f77b4"/>
   </g>
   <g id="patch_11">
    <path d="M 64.97001 246.90101 
L 66.94215 246.90101 
L 66.94215 171.094275 
L 64.97001 171.094275 
z
" clip-path="url(#pa9292338c3)" style="fill: #1f77b4"/>
   </g>
   <g id="patch_12">
    <path d="M 67.161276 246.90101 
L 69.133416 246.90101 
L 69.133416 153.947514 
L 67.161276 153.947514 
z
" clip-path="url(#pa9292338c3)" style="fill: #1f77b4"/>
   </g>
   <g id="patch_13">
    <path d="M 69.352542 246.90101 
L 71.324681 246.90101 
L 71.324681 138.154444 
L 69.352542 138.154444 
z
" clip-path="url(#pa9292338c3)" style="fill: #1f77b4"/>
   </g>
   <g id="patch_14">
    <path d="M 71.543808 246.90101 
L 73.515947 246.90101 
L 73.515947 95.738771 
L 71.543808 95.738771 
z
" clip-path="url(#pa9292338c3)" style="fill: #1f77b4"/>
   </g>
   <g id="patch_15">
    <path d="M 73.735074 246.90101 
L 75.707213 246.90101 
L 75.707213 59.640325 
L 73.735074 59.640325 
z
" clip-path="url(#pa9292338c3)" style="fill: #1f77b4"/>
   </g>
   <g id="patch_16">
    <path d="M 75.92634 246.90101 
L 77.898479 246.90101 
L 77.898479 47.00587 
L 75.92634 47.00587 
z
" clip-path="url(#pa9292338c3)" style="fill: #1f77b4"/>
   </g>
   <g id="patch_17">
    <path d="M 78.117606 246.90101 
L 80.089745 246.90101 
L 80.089745 28.956647 
L 78.117606 28.956647 
z
" clip-path="url(#pa9292338c3)" style="fill: #1f77b4"/>
   </g>
   <g id="patch_18">
    <path d="M 80.308872 246.90101 
L 82.281011 246.90101 
L 82.281011 27.602955 
L 80.308872 27.602955 
z
" clip-path="url(#pa9292338c3)" style="fill: #1f77b4"/>
   </g>
   <g id="patch_19">
    <path d="M 82.500137 246.90101 
L 84.472277 246.90101 
L 84.472277 54.225559 
L 82.500137 54.225559 
z
" clip-path="url(#pa9292338c3)" style="fill: #1f77b4"/>
   </g>
   <g id="patch_20">
    <path d="M 84.691403 246.90101 
L 86.663543 246.90101 
L 86.663543 77.238317 
L 84.691403 77.238317 
z
" clip-path="url(#pa9292338c3)" style="fill: #1f77b4"/>
   </g>
   <g id="patch_21">
    <path d="M 86.882669 246.90101 
L 88.854808 246.90101 
L 88.854808 87.16539 
L 86.882669 87.16539 
z
" clip-path="url(#pa9292338c3)" style="fill: #1f77b4"/>
   </g>
   <g id="patch_22">
    <path d="M 89.073935 246.90101 
L 91.046074 246.90101 
L 91.046074 119.653991 
L 89.073935 119.653991 
z
" clip-path="url(#pa9292338c3)" style="fill: #1f77b4"/>
   </g>
   <g id="patch_23">
    <path d="M 91.265201 246.90101 
L 93.23734 246.90101 
L 93.23734 163.423355 
L 91.265201 163.423355 
z
" clip-path="url(#pa9292338c3)" style="fill: #1f77b4"/>
   </g>
   <g id="patch_24">
    <path d="M 93.456467 246.90101 
L 95.428606 246.90101 
L 95.428606 181.021347 
L 93.456467 181.021347 
z
" clip-path="url(#pa9292338c3)" style="fill: #1f77b4"/>
   </g>
   <g id="patch_25">
    <path d="M 95.647733 246.90101 
L 97.619872 246.90101 
L 97.619872 205.839029 
L 95.647733 205.839029 
z
" clip-path="url(#pa9292338c3)" style="fill: #1f77b4"/>
   </g>
   <g id="patch_26">
    <path d="M 97.838999 246.90101 
L 99.811138 246.90101 
L 99.811138 218.022254 
L 97.838999 218.022254 
z
" clip-path="url(#pa9292338c3)" style="fill: #1f77b4"/>
   </g>
   <g id="patch_27">
    <path d="M 100.030264 246.90101 
L 102.002404 246.90101 
L 102.002404 232.461632 
L 100.030264 232.461632 
z
" clip-path="url(#pa9292338c3)" style="fill: #1f77b4"/>
   </g>
   <g id="patch_28">
    <path d="M 102.22153 246.90101 
L 104.19367 246.90101 
L 104.19367 239.681321 
L 102.22153 239.681321 
z
" clip-path="url(#pa9292338c3)" style="fill: #1f77b4"/>
   </g>
   <g id="patch_29">
    <path d="M 104.412796 246.90101 
L 106.384935 246.90101 
L 106.384935 241.937474 
L 104.412796 241.937474 
z
" clip-path="url(#pa9292338c3)" style="fill: #1f77b4"/>
   </g>
   <g id="patch_30">
    <path d="M 106.604062 246.90101 
L 108.576201 246.90101 
L 108.576201 244.644857 
L 106.604062 244.644857 
z
" clip-path="url(#pa9292338c3)" style="fill: #1f77b4"/>
   </g>
   <g id="patch_31">
    <path d="M 108.795328 246.90101 
L 110.767467 246.90101 
L 110.767467 244.644857 
L 108.795328 244.644857 
z
" clip-path="url(#pa9292338c3)" style="fill: #1f77b4"/>
   </g>
   <g id="patch_32">
    <path d="M 110.986594 246.90101 
L 112.958733 246.90101 
L 112.958733 245.998549 
L 110.986594 245.998549 
z
" clip-path="url(#pa9292338c3)" style="fill: #1f77b4"/>
   </g>
   <g id="matplotlib.axis_1">
    <g id="xtick_1">
     <g id="line2d_1">
      <defs>
       <path id="m2ccf3ddaf7" d="M 0 0 
L 0 3.5 
" style="stroke: #000000; stroke-width: 0.8"/>
      </defs>
      <g>
       <use xlink:href="#m2ccf3ddaf7" x="63.226845" y="246.90101" style="stroke: #000000; stroke-width: 0.8"/>
      </g>
     </g>
     <g id="text_1">
      <!-- 1.35 -->
      <g transform="translate(47.640907 264.538822) scale(0.14 -0.14)">
       <defs>
        <path id="DejaVuSans-31" d="M 794 531 
L 1825 531 
L 1825 4091 
L 703 3866 
L 703 4441 
L 1819 4666 
L 2450 4666 
L 2450 531 
L 3481 531 
L 3481 0 
L 794 0 
L 794 531 
z
" transform="scale(0.015625)"/>
        <path id="DejaVuSans-2e" d="M 684 794 
L 1344 794 
L 1344 0 
L 684 0 
L 684 794 
z
" transform="scale(0.015625)"/>
        <path id="DejaVuSans-33" d="M 2597 2516 
Q 3050 2419 3304 2112 
Q 3559 1806 3559 1356 
Q 3559 666 3084 287 
Q 2609 -91 1734 -91 
Q 1441 -91 1130 -33 
Q 819 25 488 141 
L 488 750 
Q 750 597 1062 519 
Q 1375 441 1716 441 
Q 2309 441 2620 675 
Q 2931 909 2931 1356 
Q 2931 1769 2642 2001 
Q 2353 2234 1838 2234 
L 1294 2234 
L 1294 2753 
L 1863 2753 
Q 2328 2753 2575 2939 
Q 2822 3125 2822 3475 
Q 2822 3834 2567 4026 
Q 2313 4219 1838 4219 
Q 1578 4219 1281 4162 
Q 984 4106 628 3988 
L 628 4550 
Q 988 4650 1302 4700 
Q 1616 4750 1894 4750 
Q 2613 4750 3031 4423 
Q 3450 4097 3450 3541 
Q 3450 3153 3228 2886 
Q 3006 2619 2597 2516 
z
" transform="scale(0.015625)"/>
        <path id="DejaVuSans-35" d="M 691 4666 
L 3169 4666 
L 3169 4134 
L 1269 4134 
L 1269 2991 
Q 1406 3038 1543 3061 
Q 1681 3084 1819 3084 
Q 2600 3084 3056 2656 
Q 3513 2228 3513 1497 
Q 3513 744 3044 326 
Q 2575 -91 1722 -91 
Q 1428 -91 1123 -41 
Q 819 9 494 109 
L 494 744 
Q 775 591 1075 516 
Q 1375 441 1709 441 
Q 2250 441 2565 725 
Q 2881 1009 2881 1497 
Q 2881 1984 2565 2268 
Q 2250 2553 1709 2553 
Q 1456 2553 1204 2497 
Q 953 2441 691 2322 
L 691 4666 
z
" transform="scale(0.015625)"/>
       </defs>
       <use xlink:href="#DejaVuSans-31"/>
       <use xlink:href="#DejaVuSans-2e" x="63.623047"/>
       <use xlink:href="#DejaVuSans-33" x="95.410156"/>
       <use xlink:href="#DejaVuSans-35" x="159.033203"/>
      </g>
     </g>
    </g>
    <g id="xtick_2">
     <g id="line2d_2">
      <g>
       <use xlink:href="#m2ccf3ddaf7" x="114.708766" y="246.90101" style="stroke: #000000; stroke-width: 0.8"/>
      </g>
     </g>
     <g id="text_2">
      <!-- 1.40 -->
      <g transform="translate(99.122828 264.538822) scale(0.14 -0.14)">
       <defs>
        <path id="DejaVuSans-34" d="M 2419 4116 
L 825 1625 
L 2419 1625 
L 2419 4116 
z
M 2253 4666 
L 3047 4666 
L 3047 1625 
L 3713 1625 
L 3713 1100 
L 3047 1100 
L 3047 0 
L 2419 0 
L 2419 1100 
L 313 1100 
L 313 1709 
L 2253 4666 
z
" transform="scale(0.015625)"/>
        <path id="DejaVuSans-30" d="M 2034 4250 
Q 1547 4250 1301 3770 
Q 1056 3291 1056 2328 
Q 1056 1369 1301 889 
Q 1547 409 2034 409 
Q 2525 409 2770 889 
Q 3016 1369 3016 2328 
Q 3016 3291 2770 3770 
Q 2525 4250 2034 4250 
z
M 2034 4750 
Q 2819 4750 3233 4129 
Q 3647 3509 3647 2328 
Q 3647 1150 3233 529 
Q 2819 -91 2034 -91 
Q 1250 -91 836 529 
Q 422 1150 422 2328 
Q 422 3509 836 4129 
Q 1250 4750 2034 4750 
z
" transform="scale(0.015625)"/>
       </defs>
       <use xlink:href="#DejaVuSans-31"/>
       <use xlink:href="#DejaVuSans-2e" x="63.623047"/>
       <use xlink:href="#DejaVuSans-34" x="95.410156"/>
       <use xlink:href="#DejaVuSans-30" x="159.033203"/>
      </g>
     </g>
    </g>
    <g id="xtick_3">
     <g id="line2d_3">
      <g>
       <use xlink:href="#m2ccf3ddaf7" x="166.190686" y="246.90101" style="stroke: #000000; stroke-width: 0.8"/>
      </g>
     </g>
     <g id="text_3">
      <!-- 1.45 -->
      <g transform="translate(150.604749 264.538822) scale(0.14 -0.14)">
       <use xlink:href="#DejaVuSans-31"/>
       <use xlink:href="#DejaVuSans-2e" x="63.623047"/>
       <use xlink:href="#DejaVuSans-34" x="95.410156"/>
       <use xlink:href="#DejaVuSans-35" x="159.033203"/>
      </g>
     </g>
    </g>
    <g id="xtick_4">
     <g id="line2d_4">
      <g>
       <use xlink:href="#m2ccf3ddaf7" x="217.672607" y="246.90101" style="stroke: #000000; stroke-width: 0.8"/>
      </g>
     </g>
     <g id="text_4">
      <!-- 1.50 -->
      <g transform="translate(202.08667 264.538822) scale(0.14 -0.14)">
       <use xlink:href="#DejaVuSans-31"/>
       <use xlink:href="#DejaVuSans-2e" x="63.623047"/>
       <use xlink:href="#DejaVuSans-35" x="95.410156"/>
       <use xlink:href="#DejaVuSans-30" x="159.033203"/>
      </g>
     </g>
    </g>
    <g id="xtick_5">
     <g id="line2d_5">
      <g>
       <use xlink:href="#m2ccf3ddaf7" x="269.154528" y="246.90101" style="stroke: #000000; stroke-width: 0.8"/>
      </g>
     </g>
     <g id="text_5">
      <!-- 1.55 -->
      <g transform="translate(253.56859 264.538822) scale(0.14 -0.14)">
       <use xlink:href="#DejaVuSans-31"/>
       <use xlink:href="#DejaVuSans-2e" x="63.623047"/>
       <use xlink:href="#DejaVuSans-35" x="95.410156"/>
       <use xlink:href="#DejaVuSans-35" x="159.033203"/>
      </g>
     </g>
    </g>
    <g id="text_6">
     <!-- $E_1$ [MPa] -->
     <g transform="translate(127.237567 282.088197) scale(0.14 -0.14)">
      <defs>
       <path id="DejaVuSans-Oblique-45" d="M 1081 4666 
L 4031 4666 
L 3928 4134 
L 1606 4134 
L 1338 2753 
L 3566 2753 
L 3463 2222 
L 1234 2222 
L 909 531 
L 3284 531 
L 3181 0 
L 172 0 
L 1081 4666 
z
" transform="scale(0.015625)"/>
       <path id="DejaVuSans-20" transform="scale(0.015625)"/>
       <path id="DejaVuSans-5b" d="M 550 4863 
L 1875 4863 
L 1875 4416 
L 1125 4416 
L 1125 -397 
L 1875 -397 
L 1875 -844 
L 550 -844 
L 550 4863 
z
" transform="scale(0.015625)"/>
       <path id="DejaVuSans-4d" d="M 628 4666 
L 1569 4666 
L 2759 1491 
L 3956 4666 
L 4897 4666 
L 4897 0 
L 4281 0 
L 4281 4097 
L 3078 897 
L 2444 897 
L 1241 4097 
L 1241 0 
L 628 0 
L 628 4666 
z
" transform="scale(0.015625)"/>
       <path id="DejaVuSans-50" d="M 1259 4147 
L 1259 2394 
L 2053 2394 
Q 2494 2394 2734 2622 
Q 2975 2850 2975 3272 
Q 2975 3691 2734 3919 
Q 2494 4147 2053 4147 
L 1259 4147 
z
M 628 4666 
L 2053 4666 
Q 2838 4666 3239 4311 
Q 3641 3956 3641 3272 
Q 3641 2581 3239 2228 
Q 2838 1875 2053 1875 
L 1259 1875 
L 1259 0 
L 628 0 
L 628 4666 
z
" transform="scale(0.015625)"/>
       <path id="DejaVuSans-61" d="M 2194 1759 
Q 1497 1759 1228 1600 
Q 959 1441 959 1056 
Q 959 750 1161 570 
Q 1363 391 1709 391 
Q 2188 391 2477 730 
Q 2766 1069 2766 1631 
L 2766 1759 
L 2194 1759 
z
M 3341 1997 
L 3341 0 
L 2766 0 
L 2766 531 
Q 2569 213 2275 61 
Q 1981 -91 1556 -91 
Q 1019 -91 701 211 
Q 384 513 384 1019 
Q 384 1609 779 1909 
Q 1175 2209 1959 2209 
L 2766 2209 
L 2766 2266 
Q 2766 2663 2505 2880 
Q 2244 3097 1772 3097 
Q 1472 3097 1187 3025 
Q 903 2953 641 2809 
L 641 3341 
Q 956 3463 1253 3523 
Q 1550 3584 1831 3584 
Q 2591 3584 2966 3190 
Q 3341 2797 3341 1997 
z
" transform="scale(0.015625)"/>
       <path id="DejaVuSans-5d" d="M 1947 4863 
L 1947 -844 
L 622 -844 
L 622 -397 
L 1369 -397 
L 1369 4416 
L 622 4416 
L 622 4863 
L 1947 4863 
z
" transform="scale(0.015625)"/>
      </defs>
      <use xlink:href="#DejaVuSans-Oblique-45" transform="translate(0 0.015625)"/>
      <use xlink:href="#DejaVuSans-31" transform="translate(63.183594 -16.390625) scale(0.7)"/>
      <use xlink:href="#DejaVuSans-20" transform="translate(110.454102 0.015625)"/>
      <use xlink:href="#DejaVuSans-5b" transform="translate(142.241211 0.015625)"/>
      <use xlink:href="#DejaVuSans-4d" transform="translate(181.254883 0.015625)"/>
      <use xlink:href="#DejaVuSans-50" transform="translate(267.53418 0.015625)"/>
      <use xlink:href="#DejaVuSans-61" transform="translate(327.836914 0.015625)"/>
      <use xlink:href="#DejaVuSans-5d" transform="translate(389.116211 0.015625)"/>
     </g>
    </g>
    <g id="text_7">
     <!-- 1e5 -->
     <g transform="translate(251.648644 281.088197) scale(0.14 -0.14)">
      <defs>
       <path id="DejaVuSans-65" d="M 3597 1894 
L 3597 1613 
L 953 1613 
Q 991 1019 1311 708 
Q 1631 397 2203 397 
Q 2534 397 2845 478 
Q 3156 559 3463 722 
L 3463 178 
Q 3153 47 2828 -22 
Q 2503 -91 2169 -91 
Q 1331 -91 842 396 
Q 353 884 353 1716 
Q 353 2575 817 3079 
Q 1281 3584 2069 3584 
Q 2775 3584 3186 3129 
Q 3597 2675 3597 1894 
z
M 3022 2063 
Q 3016 2534 2758 2815 
Q 2500 3097 2075 3097 
Q 1594 3097 1305 2825 
Q 1016 2553 972 2059 
L 3022 2063 
z
" transform="scale(0.015625)"/>
      </defs>
      <use xlink:href="#DejaVuSans-31"/>
      <use xlink:href="#DejaVuSans-65" x="63.623047"/>
      <use xlink:href="#DejaVuSans-35" x="125.146484"/>
     </g>
    </g>
   </g>
   <g id="matplotlib.axis_2">
    <g id="ytick_1">
     <g id="line2d_6">
      <defs>
       <path id="mfecb31ad84" d="M 0 0 
L -3.5 0 
" style="stroke: #000000; stroke-width: 0.8"/>
      </defs>
      <g>
       <use xlink:href="#mfecb31ad84" x="36.457115" y="246.90101" style="stroke: #000000; stroke-width: 0.8"/>
      </g>
     </g>
     <g id="text_8">
      <!-- 0 -->
      <g transform="translate(20.549615 252.219916) scale(0.14 -0.14)">
       <use xlink:href="#DejaVuSans-30"/>
      </g>
     </g>
    </g>
    <g id="ytick_2">
     <g id="line2d_7">
      <g>
       <use xlink:href="#mfecb31ad84" x="36.457115" y="198.885798" style="stroke: #000000; stroke-width: 0.8"/>
      </g>
     </g>
     <g id="text_9">
      <!-- 1 -->
      <g transform="translate(20.549615 204.204704) scale(0.14 -0.14)">
       <use xlink:href="#DejaVuSans-31"/>
      </g>
     </g>
    </g>
    <g id="ytick_3">
     <g id="line2d_8">
      <g>
       <use xlink:href="#mfecb31ad84" x="36.457115" y="150.870586" style="stroke: #000000; stroke-width: 0.8"/>
      </g>
     </g>
     <g id="text_10">
      <!-- 2 -->
      <g transform="translate(20.549615 156.189492) scale(0.14 -0.14)">
       <defs>
        <path id="DejaVuSans-32" d="M 1228 531 
L 3431 531 
L 3431 0 
L 469 0 
L 469 531 
Q 828 903 1448 1529 
Q 2069 2156 2228 2338 
Q 2531 2678 2651 2914 
Q 2772 3150 2772 3378 
Q 2772 3750 2511 3984 
Q 2250 4219 1831 4219 
Q 1534 4219 1204 4116 
Q 875 4013 500 3803 
L 500 4441 
Q 881 4594 1212 4672 
Q 1544 4750 1819 4750 
Q 2544 4750 2975 4387 
Q 3406 4025 3406 3419 
Q 3406 3131 3298 2873 
Q 3191 2616 2906 2266 
Q 2828 2175 2409 1742 
Q 1991 1309 1228 531 
z
" transform="scale(0.015625)"/>
       </defs>
       <use xlink:href="#DejaVuSans-32"/>
      </g>
     </g>
    </g>
    <g id="ytick_4">
     <g id="line2d_9">
      <g>
       <use xlink:href="#mfecb31ad84" x="36.457115" y="102.855373" style="stroke: #000000; stroke-width: 0.8"/>
      </g>
     </g>
     <g id="text_11">
      <!-- 3 -->
      <g transform="translate(20.549615 108.17428) scale(0.14 -0.14)">
       <use xlink:href="#DejaVuSans-33"/>
      </g>
     </g>
    </g>
    <g id="ytick_5">
     <g id="line2d_10">
      <g>
       <use xlink:href="#mfecb31ad84" x="36.457115" y="54.840161" style="stroke: #000000; stroke-width: 0.8"/>
      </g>
     </g>
     <g id="text_12">
      <!-- 4 -->
      <g transform="translate(20.549615 60.159067) scale(0.14 -0.14)">
       <use xlink:href="#DejaVuSans-34"/>
      </g>
     </g>
    </g>
    <g id="text_13">
     <!-- PDF -->
     <g transform="translate(13.638053 145.406406) rotate(-90) scale(0.14 -0.14)">
      <defs>
       <path id="DejaVuSans-44" d="M 1259 4147 
L 1259 519 
L 2022 519 
Q 2988 519 3436 956 
Q 3884 1394 3884 2338 
Q 3884 3275 3436 3711 
Q 2988 4147 2022 4147 
L 1259 4147 
z
M 628 4666 
L 1925 4666 
Q 3281 4666 3915 4102 
Q 4550 3538 4550 2338 
Q 4550 1131 3912 565 
Q 3275 0 1925 0 
L 628 0 
L 628 4666 
z
" transform="scale(0.015625)"/>
       <path id="DejaVuSans-46" d="M 628 4666 
L 3309 4666 
L 3309 4134 
L 1259 4134 
L 1259 2759 
L 3109 2759 
L 3109 2228 
L 1259 2228 
L 1259 0 
L 628 0 
L 628 4666 
z
" transform="scale(0.015625)"/>
      </defs>
      <use xlink:href="#DejaVuSans-50"/>
      <use xlink:href="#DejaVuSans-44" x="60.302734"/>
      <use xlink:href="#DejaVuSans-46" x="137.304688"/>
     </g>
    </g>
    <g id="text_14">
     <!-- 1e−4 -->
     <g transform="translate(36.457115 13.638052) scale(0.14 -0.14)">
      <defs>
       <path id="DejaVuSans-2212" d="M 678 2272 
L 4684 2272 
L 4684 1741 
L 678 1741 
L 678 2272 
z
" transform="scale(0.015625)"/>
      </defs>
      <use xlink:href="#DejaVuSans-31"/>
      <use xlink:href="#DejaVuSans-65" x="63.623047"/>
      <use xlink:href="#DejaVuSans-2212" x="125.146484"/>
      <use xlink:href="#DejaVuSans-34" x="208.935547"/>
     </g>
    </g>
   </g>
   <g id="line2d_11">
    <path d="M 143.538641 245.837029 
L 144.786688 245.627217 
L 146.034734 245.381622 
L 147.282781 245.09532 
L 148.530827 244.762936 
L 149.778874 244.378651 
L 151.026921 243.936207 
L 152.274967 243.42893 
L 153.523014 242.849767 
L 154.77106 242.191327 
L 156.019107 241.445946 
L 157.267153 240.605762 
L 158.5152 239.662809 
L 159.763246 238.609127 
L 161.011293 237.436883 
L 162.25934 236.138521 
L 163.507386 234.706912 
L 164.755433 233.135528 
L 166.003479 231.418621 
L 167.251526 229.551415 
L 168.499572 227.530303 
L 169.747619 225.353038 
L 170.995666 223.01893 
L 172.243712 220.529034 
L 173.491759 217.886316 
L 174.739805 215.095812 
L 175.987852 212.164753 
L 177.235898 209.10267 
L 178.483945 205.921455 
L 179.731991 202.635392 
L 180.980038 199.261133 
L 182.228085 195.817643 
L 183.476131 192.326078 
L 184.724178 188.809632 
L 185.972224 185.293315 
L 187.220271 181.803702 
L 188.468317 178.368617 
L 189.716364 175.016792 
L 190.964411 171.777476 
L 192.212457 168.680028 
L 193.460504 165.753479 
L 194.70855 163.026083 
L 195.956597 160.52487 
L 197.204643 158.275199 
L 198.45269 156.300331 
L 199.700737 154.621033 
L 200.948783 153.255212 
L 202.19683 152.217596 
L 203.444876 151.519473 
L 204.692923 151.168483 
L 205.940969 151.168483 
L 207.189016 151.519473 
L 208.437062 152.217596 
L 209.685109 153.255212 
L 210.933156 154.621033 
L 212.181202 156.300331 
L 213.429249 158.275199 
L 214.677295 160.52487 
L 215.925342 163.026083 
L 217.173388 165.753479 
L 218.421435 168.680028 
L 219.669482 171.777476 
L 220.917528 175.016792 
L 222.165575 178.368617 
L 223.413621 181.803702 
L 224.661668 185.293315 
L 225.909714 188.809632 
L 227.157761 192.326078 
L 228.405807 195.817643 
L 229.653854 199.261133 
L 230.901901 202.635392 
L 232.149947 205.921455 
L 233.397994 209.10267 
L 234.64604 212.164753 
L 235.894087 215.095812 
L 237.142133 217.886316 
L 238.39018 220.529034 
L 239.638227 223.01893 
L 240.886273 225.353038 
L 242.13432 227.530303 
L 243.382366 229.551415 
L 244.630413 231.418621 
L 245.878459 233.135528 
L 247.126506 234.706912 
L 248.374552 236.138521 
L 249.622599 237.436883 
L 250.870646 238.609127 
L 252.118692 239.662809 
L 253.366739 240.605762 
L 254.614785 241.445946 
L 255.862832 242.191327 
L 257.110878 242.849767 
L 258.358925 243.42893 
L 259.606972 243.936207 
L 260.855018 244.378651 
L 262.103065 244.762936 
L 263.351111 245.09532 
L 264.599158 245.381622 
L 265.847204 245.627217 
L 267.095251 245.837029 
" clip-path="url(#pa9292338c3)" style="fill: none; stroke: #2ca02c; stroke-width: 1.5; stroke-linecap: square"/>
   </g>
   <g id="patch_33">
    <path d="M 36.457115 246.90101 
L 36.457115 16.638052 
" style="fill: none; stroke: #000000; stroke-width: 0.8; stroke-linejoin: miter; stroke-linecap: square"/>
   </g>
   <g id="patch_34">
    <path d="M 278.078019 246.90101 
L 278.078019 16.638052 
" style="fill: none; stroke: #000000; stroke-width: 0.8; stroke-linejoin: miter; stroke-linecap: square"/>
   </g>
   <g id="patch_35">
    <path d="M 36.457115 246.90101 
L 278.078019 246.90101 
" style="fill: none; stroke: #000000; stroke-width: 0.8; stroke-linejoin: miter; stroke-linecap: square"/>
   </g>
   <g id="patch_36">
    <path d="M 36.457115 16.638052 
L 278.078019 16.638052 
" style="fill: none; stroke: #000000; stroke-width: 0.8; stroke-linejoin: miter; stroke-linecap: square"/>
   </g>
   <g id="legend_1">
    <g id="patch_37">
     <path d="M 161.615519 68.936802 
L 268.278019 68.936802 
Q 271.078019 68.936802 271.078019 66.136802 
L 271.078019 26.438053 
Q 271.078019 23.638053 268.278019 23.638053 
L 161.615519 23.638053 
Q 158.815519 23.638053 158.815519 26.438053 
L 158.815519 66.136802 
Q 158.815519 68.936802 161.615519 68.936802 
z
" style="fill: #ffffff; opacity: 0.8; stroke: #cccccc; stroke-linejoin: miter"/>
    </g>
    <g id="line2d_12">
     <path d="M 164.415519 34.975865 
L 178.415519 34.975865 
L 192.415519 34.975865 
" style="fill: none; stroke: #2ca02c; stroke-width: 1.5; stroke-linecap: square"/>
    </g>
    <g id="text_15">
     <!-- Prior -->
     <g transform="translate(203.615519 39.875865) scale(0.14 -0.14)">
      <defs>
       <path id="DejaVuSans-72" d="M 2631 2963 
Q 2534 3019 2420 3045 
Q 2306 3072 2169 3072 
Q 1681 3072 1420 2755 
Q 1159 2438 1159 1844 
L 1159 0 
L 581 0 
L 581 3500 
L 1159 3500 
L 1159 2956 
Q 1341 3275 1631 3429 
Q 1922 3584 2338 3584 
Q 2397 3584 2469 3576 
Q 2541 3569 2628 3553 
L 2631 2963 
z
" transform="scale(0.015625)"/>
       <path id="DejaVuSans-69" d="M 603 3500 
L 1178 3500 
L 1178 0 
L 603 0 
L 603 3500 
z
M 603 4863 
L 1178 4863 
L 1178 4134 
L 603 4134 
L 603 4863 
z
" transform="scale(0.015625)"/>
       <path id="DejaVuSans-6f" d="M 1959 3097 
Q 1497 3097 1228 2736 
Q 959 2375 959 1747 
Q 959 1119 1226 758 
Q 1494 397 1959 397 
Q 2419 397 2687 759 
Q 2956 1122 2956 1747 
Q 2956 2369 2687 2733 
Q 2419 3097 1959 3097 
z
M 1959 3584 
Q 2709 3584 3137 3096 
Q 3566 2609 3566 1747 
Q 3566 888 3137 398 
Q 2709 -91 1959 -91 
Q 1206 -91 779 398 
Q 353 888 353 1747 
Q 353 2609 779 3096 
Q 1206 3584 1959 3584 
z
" transform="scale(0.015625)"/>
      </defs>
      <use xlink:href="#DejaVuSans-50"/>
      <use xlink:href="#DejaVuSans-72" x="58.552734"/>
      <use xlink:href="#DejaVuSans-69" x="99.666016"/>
      <use xlink:href="#DejaVuSans-6f" x="127.449219"/>
      <use xlink:href="#DejaVuSans-72" x="188.630859"/>
     </g>
    </g>
    <g id="patch_38">
     <path d="M 164.415519 60.42524 
L 192.415519 60.42524 
L 192.415519 50.62524 
L 164.415519 50.62524 
z
" style="fill: #1f77b4"/>
    </g>
    <g id="text_16">
     <!-- Posterior -->
     <g transform="translate(203.615519 60.42524) scale(0.14 -0.14)">
      <defs>
       <path id="DejaVuSans-73" d="M 2834 3397 
L 2834 2853 
Q 2591 2978 2328 3040 
Q 2066 3103 1784 3103 
Q 1356 3103 1142 2972 
Q 928 2841 928 2578 
Q 928 2378 1081 2264 
Q 1234 2150 1697 2047 
L 1894 2003 
Q 2506 1872 2764 1633 
Q 3022 1394 3022 966 
Q 3022 478 2636 193 
Q 2250 -91 1575 -91 
Q 1294 -91 989 -36 
Q 684 19 347 128 
L 347 722 
Q 666 556 975 473 
Q 1284 391 1588 391 
Q 1994 391 2212 530 
Q 2431 669 2431 922 
Q 2431 1156 2273 1281 
Q 2116 1406 1581 1522 
L 1381 1569 
Q 847 1681 609 1914 
Q 372 2147 372 2553 
Q 372 3047 722 3315 
Q 1072 3584 1716 3584 
Q 2034 3584 2315 3537 
Q 2597 3491 2834 3397 
z
" transform="scale(0.015625)"/>
       <path id="DejaVuSans-74" d="M 1172 4494 
L 1172 3500 
L 2356 3500 
L 2356 3053 
L 1172 3053 
L 1172 1153 
Q 1172 725 1289 603 
Q 1406 481 1766 481 
L 2356 481 
L 2356 0 
L 1766 0 
Q 1100 0 847 248 
Q 594 497 594 1153 
L 594 3053 
L 172 3053 
L 172 3500 
L 594 3500 
L 594 4494 
L 1172 4494 
z
" transform="scale(0.015625)"/>
      </defs>
      <use xlink:href="#DejaVuSans-50"/>
      <use xlink:href="#DejaVuSans-6f" x="56.677734"/>
      <use xlink:href="#DejaVuSans-73" x="117.859375"/>
      <use xlink:href="#DejaVuSans-74" x="169.958984"/>
      <use xlink:href="#DejaVuSans-65" x="209.167969"/>
      <use xlink:href="#DejaVuSans-72" x="270.691406"/>
      <use xlink:href="#DejaVuSans-69" x="311.804688"/>
      <use xlink:href="#DejaVuSans-6f" x="339.587891"/>
      <use xlink:href="#DejaVuSans-72" x="400.769531"/>
     </g>
    </g>
   </g>
  </g>
  <g id="axes_2">
   <g id="patch_39">
    <path d="M 337.820318 246.90101 
L 579.441223 246.90101 
L 579.441223 16.638052 
L 337.820318 16.638052 
z
" style="fill: #ffffff"/>
   </g>
   <g id="patch_40">
    <path d="M 348.803087 246.90101 
L 355.414787 246.90101 
L 355.414787 243.179665 
L 348.803087 243.179665 
z
" clip-path="url(#p0cfe314056)" style="fill: #1f77b4"/>
   </g>
   <g id="patch_41">
    <path d="M 356.14942 246.90101 
L 362.76112 246.90101 
L 362.76112 241.784161 
L 356.14942 241.784161 
z
" clip-path="url(#p0cfe314056)" style="fill: #1f77b4"/>
   </g>
   <g id="patch_42">
    <path d="M 363.495753 246.90101 
L 370.107453 246.90101 
L 370.107453 238.527984 
L 363.495753 238.527984 
z
" clip-path="url(#p0cfe314056)" style="fill: #1f77b4"/>
   </g>
   <g id="patch_43">
    <path d="M 370.842087 246.90101 
L 377.453787 246.90101 
L 377.453787 235.271808 
L 370.842087 235.271808 
z
" clip-path="url(#p0cfe314056)" style="fill: #1f77b4"/>
   </g>
   <g id="patch_44">
    <path d="M 378.18842 246.90101 
L 384.80012 246.90101 
L 384.80012 214.804412 
L 378.18842 214.804412 
z
" clip-path="url(#p0cfe314056)" style="fill: #1f77b4"/>
   </g>
   <g id="patch_45">
    <path d="M 385.534754 246.90101 
L 392.146454 246.90101 
L 392.146454 215.26958 
L 385.534754 215.26958 
z
" clip-path="url(#p0cfe314056)" style="fill: #1f77b4"/>
   </g>
   <g id="patch_46">
    <path d="M 392.881087 246.90101 
L 399.492787 246.90101 
L 399.492787 190.615672 
L 392.881087 190.615672 
z
" clip-path="url(#p0cfe314056)" style="fill: #1f77b4"/>
   </g>
   <g id="patch_47">
    <path d="M 400.22742 246.90101 
L 406.83912 246.90101 
L 406.83912 168.752772 
L 400.22742 168.752772 
z
" clip-path="url(#p0cfe314056)" style="fill: #1f77b4"/>
   </g>
   <g id="patch_48">
    <path d="M 407.573754 246.90101 
L 414.185454 246.90101 
L 414.185454 158.984242 
L 407.573754 158.984242 
z
" clip-path="url(#p0cfe314056)" style="fill: #1f77b4"/>
   </g>
   <g id="patch_49">
    <path d="M 414.920087 246.90101 
L 421.531787 246.90101 
L 421.531787 112.002265 
L 414.920087 112.002265 
z
" clip-path="url(#p0cfe314056)" style="fill: #1f77b4"/>
   </g>
   <g id="patch_50">
    <path d="M 422.26642 246.90101 
L 428.87812 246.90101 
L 428.87812 94.325878 
L 422.26642 94.325878 
z
" clip-path="url(#p0cfe314056)" style="fill: #1f77b4"/>
   </g>
   <g id="patch_51">
    <path d="M 429.612754 246.90101 
L 436.224454 246.90101 
L 436.224454 59.438272 
L 429.612754 59.438272 
z
" clip-path="url(#p0cfe314056)" style="fill: #1f77b4"/>
   </g>
   <g id="patch_52">
    <path d="M 436.959087 246.90101 
L 443.570787 246.90101 
L 443.570787 58.507936 
L 436.959087 58.507936 
z
" clip-path="url(#p0cfe314056)" style="fill: #1f77b4"/>
   </g>
   <g id="patch_53">
    <path d="M 444.30542 246.90101 
L 450.91712 246.90101 
L 450.91712 52.46075 
L 444.30542 52.46075 
z
" clip-path="url(#p0cfe314056)" style="fill: #1f77b4"/>
   </g>
   <g id="patch_54">
    <path d="M 451.651754 246.90101 
L 458.263454 246.90101 
L 458.263454 47.343902 
L 451.651754 47.343902 
z
" clip-path="url(#p0cfe314056)" style="fill: #1f77b4"/>
   </g>
   <g id="patch_55">
    <path d="M 458.998087 246.90101 
L 465.609787 246.90101 
L 465.609787 52.46075 
L 458.998087 52.46075 
z
" clip-path="url(#p0cfe314056)" style="fill: #1f77b4"/>
   </g>
   <g id="patch_56">
    <path d="M 466.344421 246.90101 
L 472.956121 246.90101 
L 472.956121 73.858482 
L 466.344421 73.858482 
z
" clip-path="url(#p0cfe314056)" style="fill: #1f77b4"/>
   </g>
   <g id="patch_57">
    <path d="M 473.690754 246.90101 
L 480.302454 246.90101 
L 480.302454 110.606761 
L 473.690754 110.606761 
z
" clip-path="url(#p0cfe314056)" style="fill: #1f77b4"/>
   </g>
   <g id="patch_58">
    <path d="M 481.037087 246.90101 
L 487.648787 246.90101 
L 487.648787 120.375291 
L 481.037087 120.375291 
z
" clip-path="url(#p0cfe314056)" style="fill: #1f77b4"/>
   </g>
   <g id="patch_59">
    <path d="M 488.383421 246.90101 
L 494.995121 246.90101 
L 494.995121 134.795502 
L 488.383421 134.795502 
z
" clip-path="url(#p0cfe314056)" style="fill: #1f77b4"/>
   </g>
   <g id="patch_60">
    <path d="M 495.729754 246.90101 
L 502.341454 246.90101 
L 502.341454 169.683108 
L 495.729754 169.683108 
z
" clip-path="url(#p0cfe314056)" style="fill: #1f77b4"/>
   </g>
   <g id="patch_61">
    <path d="M 503.076087 246.90101 
L 509.687787 246.90101 
L 509.687787 190.150504 
L 503.076087 190.150504 
z
" clip-path="url(#p0cfe314056)" style="fill: #1f77b4"/>
   </g>
   <g id="patch_62">
    <path d="M 510.422421 246.90101 
L 517.034121 246.90101 
L 517.034121 224.572942 
L 510.422421 224.572942 
z
" clip-path="url(#p0cfe314056)" style="fill: #1f77b4"/>
   </g>
   <g id="patch_63">
    <path d="M 517.768754 246.90101 
L 524.380454 246.90101 
L 524.380454 221.781933 
L 517.768754 221.781933 
z
" clip-path="url(#p0cfe314056)" style="fill: #1f77b4"/>
   </g>
   <g id="patch_64">
    <path d="M 525.115087 246.90101 
L 531.726787 246.90101 
L 531.726787 232.480799 
L 525.115087 232.480799 
z
" clip-path="url(#p0cfe314056)" style="fill: #1f77b4"/>
   </g>
   <g id="patch_65">
    <path d="M 532.461421 246.90101 
L 539.073121 246.90101 
L 539.073121 241.318993 
L 532.461421 241.318993 
z
" clip-path="url(#p0cfe314056)" style="fill: #1f77b4"/>
   </g>
   <g id="patch_66">
    <path d="M 539.807754 246.90101 
L 546.419454 246.90101 
L 546.419454 243.644833 
L 539.807754 243.644833 
z
" clip-path="url(#p0cfe314056)" style="fill: #1f77b4"/>
   </g>
   <g id="patch_67">
    <path d="M 547.154088 246.90101 
L 553.765788 246.90101 
L 553.765788 243.179665 
L 547.154088 243.179665 
z
" clip-path="url(#p0cfe314056)" style="fill: #1f77b4"/>
   </g>
   <g id="patch_68">
    <path d="M 554.500421 246.90101 
L 561.112121 246.90101 
L 561.112121 245.040338 
L 554.500421 245.040338 
z
" clip-path="url(#p0cfe314056)" style="fill: #1f77b4"/>
   </g>
   <g id="patch_69">
    <path d="M 561.846754 246.90101 
L 568.458454 246.90101 
L 568.458454 245.970674 
L 561.846754 245.970674 
z
" clip-path="url(#p0cfe314056)" style="fill: #1f77b4"/>
   </g>
   <g id="matplotlib.axis_3">
    <g id="xtick_6">
     <g id="line2d_13">
      <g>
       <use xlink:href="#m2ccf3ddaf7" x="391.381095" y="246.90101" style="stroke: #000000; stroke-width: 0.8"/>
      </g>
     </g>
     <g id="text_17">
      <!-- 9000 -->
      <g transform="translate(373.566095 264.538822) scale(0.14 -0.14)">
       <defs>
        <path id="DejaVuSans-39" d="M 703 97 
L 703 672 
Q 941 559 1184 500 
Q 1428 441 1663 441 
Q 2288 441 2617 861 
Q 2947 1281 2994 2138 
Q 2813 1869 2534 1725 
Q 2256 1581 1919 1581 
Q 1219 1581 811 2004 
Q 403 2428 403 3163 
Q 403 3881 828 4315 
Q 1253 4750 1959 4750 
Q 2769 4750 3195 4129 
Q 3622 3509 3622 2328 
Q 3622 1225 3098 567 
Q 2575 -91 1691 -91 
Q 1453 -91 1209 -44 
Q 966 3 703 97 
z
M 1959 2075 
Q 2384 2075 2632 2365 
Q 2881 2656 2881 3163 
Q 2881 3666 2632 3958 
Q 2384 4250 1959 4250 
Q 1534 4250 1286 3958 
Q 1038 3666 1038 3163 
Q 1038 2656 1286 2365 
Q 1534 2075 1959 2075 
z
" transform="scale(0.015625)"/>
       </defs>
       <use xlink:href="#DejaVuSans-39"/>
       <use xlink:href="#DejaVuSans-30" x="63.623047"/>
       <use xlink:href="#DejaVuSans-30" x="127.246094"/>
       <use xlink:href="#DejaVuSans-30" x="190.869141"/>
      </g>
     </g>
    </g>
    <g id="xtick_7">
     <g id="line2d_14">
      <g>
       <use xlink:href="#m2ccf3ddaf7" x="453.518974" y="246.90101" style="stroke: #000000; stroke-width: 0.8"/>
      </g>
     </g>
     <g id="text_18">
      <!-- 9200 -->
      <g transform="translate(435.703974 264.538822) scale(0.14 -0.14)">
       <use xlink:href="#DejaVuSans-39"/>
       <use xlink:href="#DejaVuSans-32" x="63.623047"/>
       <use xlink:href="#DejaVuSans-30" x="127.246094"/>
       <use xlink:href="#DejaVuSans-30" x="190.869141"/>
      </g>
     </g>
    </g>
    <g id="xtick_8">
     <g id="line2d_15">
      <g>
       <use xlink:href="#m2ccf3ddaf7" x="515.656854" y="246.90101" style="stroke: #000000; stroke-width: 0.8"/>
      </g>
     </g>
     <g id="text_19">
      <!-- 9400 -->
      <g transform="translate(497.841854 264.538822) scale(0.14 -0.14)">
       <use xlink:href="#DejaVuSans-39"/>
       <use xlink:href="#DejaVuSans-34" x="63.623047"/>
       <use xlink:href="#DejaVuSans-30" x="127.246094"/>
       <use xlink:href="#DejaVuSans-30" x="190.869141"/>
      </g>
     </g>
    </g>
    <g id="xtick_9">
     <g id="line2d_16">
      <g>
       <use xlink:href="#m2ccf3ddaf7" x="577.794733" y="246.90101" style="stroke: #000000; stroke-width: 0.8"/>
      </g>
     </g>
     <g id="text_20">
      <!-- 9600 -->
      <g transform="translate(559.979733 264.538822) scale(0.14 -0.14)">
       <defs>
        <path id="DejaVuSans-36" d="M 2113 2584 
Q 1688 2584 1439 2293 
Q 1191 2003 1191 1497 
Q 1191 994 1439 701 
Q 1688 409 2113 409 
Q 2538 409 2786 701 
Q 3034 994 3034 1497 
Q 3034 2003 2786 2293 
Q 2538 2584 2113 2584 
z
M 3366 4563 
L 3366 3988 
Q 3128 4100 2886 4159 
Q 2644 4219 2406 4219 
Q 1781 4219 1451 3797 
Q 1122 3375 1075 2522 
Q 1259 2794 1537 2939 
Q 1816 3084 2150 3084 
Q 2853 3084 3261 2657 
Q 3669 2231 3669 1497 
Q 3669 778 3244 343 
Q 2819 -91 2113 -91 
Q 1303 -91 875 529 
Q 447 1150 447 2328 
Q 447 3434 972 4092 
Q 1497 4750 2381 4750 
Q 2619 4750 2861 4703 
Q 3103 4656 3366 4563 
z
" transform="scale(0.015625)"/>
       </defs>
       <use xlink:href="#DejaVuSans-39"/>
       <use xlink:href="#DejaVuSans-36" x="63.623047"/>
       <use xlink:href="#DejaVuSans-30" x="127.246094"/>
       <use xlink:href="#DejaVuSans-30" x="190.869141"/>
      </g>
     </g>
    </g>
    <g id="text_21">
     <!-- $E_2$ [MPa] -->
     <g transform="translate(428.60077 282.088197) scale(0.14 -0.14)">
      <use xlink:href="#DejaVuSans-Oblique-45" transform="translate(0 0.015625)"/>
      <use xlink:href="#DejaVuSans-32" transform="translate(63.183594 -16.390625) scale(0.7)"/>
      <use xlink:href="#DejaVuSans-20" transform="translate(110.454102 0.015625)"/>
      <use xlink:href="#DejaVuSans-5b" transform="translate(142.241211 0.015625)"/>
      <use xlink:href="#DejaVuSans-4d" transform="translate(181.254883 0.015625)"/>
      <use xlink:href="#DejaVuSans-50" transform="translate(267.53418 0.015625)"/>
      <use xlink:href="#DejaVuSans-61" transform="translate(327.836914 0.015625)"/>
      <use xlink:href="#DejaVuSans-5d" transform="translate(389.116211 0.015625)"/>
     </g>
    </g>
   </g>
   <g id="matplotlib.axis_4">
    <g id="ytick_6">
     <g id="line2d_17">
      <g>
       <use xlink:href="#mfecb31ad84" x="337.820318" y="246.90101" style="stroke: #000000; stroke-width: 0.8"/>
      </g>
     </g>
     <g id="text_22">
      <!-- 0.000 -->
      <g transform="translate(290.740943 252.219916) scale(0.14 -0.14)">
       <use xlink:href="#DejaVuSans-30"/>
       <use xlink:href="#DejaVuSans-2e" x="63.623047"/>
       <use xlink:href="#DejaVuSans-30" x="95.410156"/>
       <use xlink:href="#DejaVuSans-30" x="159.033203"/>
       <use xlink:href="#DejaVuSans-30" x="222.65625"/>
      </g>
     </g>
    </g>
    <g id="ytick_7">
     <g id="line2d_18">
      <g>
       <use xlink:href="#mfecb31ad84" x="337.820318" y="191.905895" style="stroke: #000000; stroke-width: 0.8"/>
      </g>
     </g>
     <g id="text_23">
      <!-- 0.001 -->
      <g transform="translate(290.740943 197.224801) scale(0.14 -0.14)">
       <use xlink:href="#DejaVuSans-30"/>
       <use xlink:href="#DejaVuSans-2e" x="63.623047"/>
       <use xlink:href="#DejaVuSans-30" x="95.410156"/>
       <use xlink:href="#DejaVuSans-30" x="159.033203"/>
       <use xlink:href="#DejaVuSans-31" x="222.65625"/>
      </g>
     </g>
    </g>
    <g id="ytick_8">
     <g id="line2d_19">
      <g>
       <use xlink:href="#mfecb31ad84" x="337.820318" y="136.91078" style="stroke: #000000; stroke-width: 0.8"/>
      </g>
     </g>
     <g id="text_24">
      <!-- 0.002 -->
      <g transform="translate(290.740943 142.229686) scale(0.14 -0.14)">
       <use xlink:href="#DejaVuSans-30"/>
       <use xlink:href="#DejaVuSans-2e" x="63.623047"/>
       <use xlink:href="#DejaVuSans-30" x="95.410156"/>
       <use xlink:href="#DejaVuSans-30" x="159.033203"/>
       <use xlink:href="#DejaVuSans-32" x="222.65625"/>
      </g>
     </g>
    </g>
    <g id="ytick_9">
     <g id="line2d_20">
      <g>
       <use xlink:href="#mfecb31ad84" x="337.820318" y="81.915665" style="stroke: #000000; stroke-width: 0.8"/>
      </g>
     </g>
     <g id="text_25">
      <!-- 0.003 -->
      <g transform="translate(290.740943 87.234571) scale(0.14 -0.14)">
       <use xlink:href="#DejaVuSans-30"/>
       <use xlink:href="#DejaVuSans-2e" x="63.623047"/>
       <use xlink:href="#DejaVuSans-30" x="95.410156"/>
       <use xlink:href="#DejaVuSans-30" x="159.033203"/>
       <use xlink:href="#DejaVuSans-33" x="222.65625"/>
      </g>
     </g>
    </g>
    <g id="ytick_10">
     <g id="line2d_21">
      <g>
       <use xlink:href="#mfecb31ad84" x="337.820318" y="26.92055" style="stroke: #000000; stroke-width: 0.8"/>
      </g>
     </g>
     <g id="text_26">
      <!-- 0.004 -->
      <g transform="translate(290.740943 32.239456) scale(0.14 -0.14)">
       <use xlink:href="#DejaVuSans-30"/>
       <use xlink:href="#DejaVuSans-2e" x="63.623047"/>
       <use xlink:href="#DejaVuSans-30" x="95.410156"/>
       <use xlink:href="#DejaVuSans-30" x="159.033203"/>
       <use xlink:href="#DejaVuSans-34" x="222.65625"/>
      </g>
     </g>
    </g>
   </g>
   <g id="line2d_22">
    <path d="M 357.205261 244.46371 
L 359.088227 243.983086 
L 360.971193 243.420492 
L 362.854159 242.764648 
L 364.737125 242.003245 
L 366.620092 241.122949 
L 368.503058 240.109425 
L 370.386024 238.947388 
L 372.26899 237.620678 
L 374.151956 236.112365 
L 376.034922 234.404892 
L 377.917888 232.480252 
L 379.800854 230.320195 
L 381.68382 227.906485 
L 383.566786 225.221183 
L 385.449752 222.246977 
L 387.332718 218.967537 
L 389.215684 215.367908 
L 391.09865 211.434926 
L 392.981616 207.157649 
L 394.864582 202.527812 
L 396.747548 197.540269 
L 398.630514 192.193443 
L 400.51348 186.489745 
L 402.396446 180.435973 
L 404.279412 174.043661 
L 406.162378 167.329375 
L 408.045344 160.314948 
L 409.928311 153.027622 
L 411.811277 145.500114 
L 413.694243 137.770575 
L 415.577209 129.882443 
L 417.460175 121.884187 
L 419.343141 113.828932 
L 421.226107 105.773976 
L 423.109073 97.780189 
L 424.992039 89.911313 
L 426.875005 82.233161 
L 428.757971 74.81274 
L 430.640937 67.717302 
L 432.523903 61.013347 
L 434.406869 54.765601 
L 436.289835 49.035979 
L 438.172801 43.882573 
L 440.055767 39.35867 
L 441.938733 35.511841 
L 443.821699 32.383103 
L 445.704665 30.006197 
L 447.587631 28.40698 
L 449.470597 27.602955 
L 451.353563 27.602955 
L 453.23653 28.40698 
L 455.119496 30.006197 
L 457.002462 32.383103 
L 458.885428 35.511841 
L 460.768394 39.35867 
L 462.65136 43.882573 
L 464.534326 49.035979 
L 466.417292 54.765601 
L 468.300258 61.013347 
L 470.183224 67.717302 
L 472.06619 74.81274 
L 473.949156 82.233161 
L 475.832122 89.911313 
L 477.715088 97.780189 
L 479.598054 105.773976 
L 481.48102 113.828932 
L 483.363986 121.884187 
L 485.246952 129.882443 
L 487.129918 137.770575 
L 489.012884 145.500114 
L 490.89585 153.027622 
L 492.778816 160.314948 
L 494.661782 167.329375 
L 496.544749 174.043661 
L 498.427715 180.435973 
L 500.310681 186.489745 
L 502.193647 192.193443 
L 504.076613 197.540269 
L 505.959579 202.527812 
L 507.842545 207.157649 
L 509.725511 211.434926 
L 511.608477 215.367908 
L 513.491443 218.967537 
L 515.374409 222.246977 
L 517.257375 225.221183 
L 519.140341 227.906485 
L 521.023307 230.320195 
L 522.906273 232.480252 
L 524.789239 234.404892 
L 526.672205 236.112365 
L 528.555171 237.620678 
L 530.438137 238.947388 
L 532.321103 240.109425 
L 534.204069 241.122949 
L 536.087035 242.003245 
L 537.970001 242.764648 
L 539.852968 243.420492 
L 541.735934 243.983086 
L 543.6189 244.46371 
" clip-path="url(#p0cfe314056)" style="fill: none; stroke: #2ca02c; stroke-width: 1.5; stroke-linecap: square"/>
   </g>
   <g id="patch_70">
    <path d="M 337.820318 246.90101 
L 337.820318 16.638052 
" style="fill: none; stroke: #000000; stroke-width: 0.8; stroke-linejoin: miter; stroke-linecap: square"/>
   </g>
   <g id="patch_71">
    <path d="M 579.441223 246.90101 
L 579.441223 16.638052 
" style="fill: none; stroke: #000000; stroke-width: 0.8; stroke-linejoin: miter; stroke-linecap: square"/>
   </g>
   <g id="patch_72">
    <path d="M 337.820318 246.90101 
L 579.441223 246.90101 
" style="fill: none; stroke: #000000; stroke-width: 0.8; stroke-linejoin: miter; stroke-linecap: square"/>
   </g>
   <g id="patch_73">
    <path d="M 337.820318 16.638052 
L 579.441223 16.638052 
" style="fill: none; stroke: #000000; stroke-width: 0.8; stroke-linejoin: miter; stroke-linecap: square"/>
   </g>
  </g>
  <g id="axes_3">
   <g id="patch_74">
    <path d="M 626.425213 246.90101 
L 868.046117 246.90101 
L 868.046117 16.638052 
L 626.425213 16.638052 
z
" style="fill: #ffffff"/>
   </g>
   <g id="patch_75">
    <path d="M 637.407981 246.90101 
L 644.019681 246.90101 
L 644.019681 246.556735 
L 637.407981 246.556735 
z
" clip-path="url(#p0427c1ea18)" style="fill: #1f77b4"/>
   </g>
   <g id="patch_76">
    <path d="M 644.754315 246.90101 
L 651.366015 246.90101 
L 651.366015 246.556735 
L 644.754315 246.556735 
z
" clip-path="url(#p0427c1ea18)" style="fill: #1f77b4"/>
   </g>
   <g id="patch_77">
    <path d="M 652.100648 246.90101 
L 658.712348 246.90101 
L 658.712348 244.83536 
L 652.100648 244.83536 
z
" clip-path="url(#p0427c1ea18)" style="fill: #1f77b4"/>
   </g>
   <g id="patch_78">
    <path d="M 659.446981 246.90101 
L 666.058681 246.90101 
L 666.058681 243.802534 
L 659.446981 243.802534 
z
" clip-path="url(#p0427c1ea18)" style="fill: #1f77b4"/>
   </g>
   <g id="patch_79">
    <path d="M 666.793315 246.90101 
L 673.405015 246.90101 
L 673.405015 242.081159 
L 666.793315 242.081159 
z
" clip-path="url(#p0427c1ea18)" style="fill: #1f77b4"/>
   </g>
   <g id="patch_80">
    <path d="M 674.139648 246.90101 
L 680.751348 246.90101 
L 680.751348 241.048334 
L 674.139648 241.048334 
z
" clip-path="url(#p0427c1ea18)" style="fill: #1f77b4"/>
   </g>
   <g id="patch_81">
    <path d="M 681.485982 246.90101 
L 688.097682 246.90101 
L 688.097682 236.572758 
L 681.485982 236.572758 
z
" clip-path="url(#p0427c1ea18)" style="fill: #1f77b4"/>
   </g>
   <g id="patch_82">
    <path d="M 688.832315 246.90101 
L 695.444015 246.90101 
L 695.444015 226.933056 
L 688.832315 226.933056 
z
" clip-path="url(#p0427c1ea18)" style="fill: #1f77b4"/>
   </g>
   <g id="patch_83">
    <path d="M 696.178648 246.90101 
L 702.790348 246.90101 
L 702.790348 212.473504 
L 696.178648 212.473504 
z
" clip-path="url(#p0427c1ea18)" style="fill: #1f77b4"/>
   </g>
   <g id="patch_84">
    <path d="M 703.524982 246.90101 
L 710.136682 246.90101 
L 710.136682 201.112427 
L 703.524982 201.112427 
z
" clip-path="url(#p0427c1ea18)" style="fill: #1f77b4"/>
   </g>
   <g id="patch_85">
    <path d="M 710.871315 246.90101 
L 717.483015 246.90101 
L 717.483015 188.37425 
L 710.871315 188.37425 
z
" clip-path="url(#p0427c1ea18)" style="fill: #1f77b4"/>
   </g>
   <g id="patch_86">
    <path d="M 718.217648 246.90101 
L 724.829348 246.90101 
L 724.829348 154.291019 
L 718.217648 154.291019 
z
" clip-path="url(#p0427c1ea18)" style="fill: #1f77b4"/>
   </g>
   <g id="patch_87">
    <path d="M 725.563982 246.90101 
L 732.175682 246.90101 
L 732.175682 138.454366 
L 725.563982 138.454366 
z
" clip-path="url(#p0427c1ea18)" style="fill: #1f77b4"/>
   </g>
   <g id="patch_88">
    <path d="M 732.910315 246.90101 
L 739.522015 246.90101 
L 739.522015 118.486412 
L 732.910315 118.486412 
z
" clip-path="url(#p0427c1ea18)" style="fill: #1f77b4"/>
   </g>
   <g id="patch_89">
    <path d="M 740.256648 246.90101 
L 746.868348 246.90101 
L 746.868348 89.567307 
L 740.256648 89.567307 
z
" clip-path="url(#p0427c1ea18)" style="fill: #1f77b4"/>
   </g>
   <g id="patch_90">
    <path d="M 747.602982 246.90101 
L 754.214682 246.90101 
L 754.214682 85.091732 
L 747.602982 85.091732 
z
" clip-path="url(#p0427c1ea18)" style="fill: #1f77b4"/>
   </g>
   <g id="patch_91">
    <path d="M 754.949315 246.90101 
L 761.561015 246.90101 
L 761.561015 84.403182 
L 754.949315 84.403182 
z
" clip-path="url(#p0427c1ea18)" style="fill: #1f77b4"/>
   </g>
   <g id="patch_92">
    <path d="M 762.295649 246.90101 
L 768.907349 246.90101 
L 768.907349 86.813107 
L 762.295649 86.813107 
z
" clip-path="url(#p0427c1ea18)" style="fill: #1f77b4"/>
   </g>
   <g id="patch_93">
    <path d="M 769.641982 246.90101 
L 776.253682 246.90101 
L 776.253682 102.305485 
L 769.641982 102.305485 
z
" clip-path="url(#p0427c1ea18)" style="fill: #1f77b4"/>
   </g>
   <g id="patch_94">
    <path d="M 776.988315 246.90101 
L 783.600015 246.90101 
L 783.600015 117.453587 
L 776.988315 117.453587 
z
" clip-path="url(#p0427c1ea18)" style="fill: #1f77b4"/>
   </g>
   <g id="patch_95">
    <path d="M 784.334649 246.90101 
L 790.946349 246.90101 
L 790.946349 152.225368 
L 784.334649 152.225368 
z
" clip-path="url(#p0427c1ea18)" style="fill: #1f77b4"/>
   </g>
   <g id="patch_96">
    <path d="M 791.680982 246.90101 
L 798.292682 246.90101 
L 798.292682 182.177299 
L 791.680982 182.177299 
z
" clip-path="url(#p0427c1ea18)" style="fill: #1f77b4"/>
   </g>
   <g id="patch_97">
    <path d="M 799.027315 246.90101 
L 805.639015 246.90101 
L 805.639015 193.194101 
L 799.027315 193.194101 
z
" clip-path="url(#p0427c1ea18)" style="fill: #1f77b4"/>
   </g>
   <g id="patch_98">
    <path d="M 806.373649 246.90101 
L 812.985349 246.90101 
L 812.985349 213.162054 
L 806.373649 213.162054 
z
" clip-path="url(#p0427c1ea18)" style="fill: #1f77b4"/>
   </g>
   <g id="patch_99">
    <path d="M 813.719982 246.90101 
L 820.331682 246.90101 
L 820.331682 222.801756 
L 813.719982 222.801756 
z
" clip-path="url(#p0427c1ea18)" style="fill: #1f77b4"/>
   </g>
   <g id="patch_100">
    <path d="M 821.066315 246.90101 
L 827.678015 246.90101 
L 827.678015 236.917033 
L 821.066315 236.917033 
z
" clip-path="url(#p0427c1ea18)" style="fill: #1f77b4"/>
   </g>
   <g id="patch_101">
    <path d="M 828.412649 246.90101 
L 835.024349 246.90101 
L 835.024349 239.671234 
L 828.412649 239.671234 
z
" clip-path="url(#p0427c1ea18)" style="fill: #1f77b4"/>
   </g>
   <g id="patch_102">
    <path d="M 835.758982 246.90101 
L 842.370682 246.90101 
L 842.370682 245.179635 
L 835.758982 245.179635 
z
" clip-path="url(#p0427c1ea18)" style="fill: #1f77b4"/>
   </g>
   <g id="patch_103">
    <path d="M 843.105316 246.90101 
L 849.717016 246.90101 
L 849.717016 246.556735 
L 843.105316 246.556735 
z
" clip-path="url(#p0427c1ea18)" style="fill: #1f77b4"/>
   </g>
   <g id="patch_104">
    <path d="M 850.451649 246.90101 
L 857.063349 246.90101 
L 857.063349 246.556735 
L 850.451649 246.556735 
z
" clip-path="url(#p0427c1ea18)" style="fill: #1f77b4"/>
   </g>
   <g id="matplotlib.axis_5">
    <g id="xtick_10">
     <g id="line2d_23">
      <g>
       <use xlink:href="#m2ccf3ddaf7" x="657.389424" y="246.90101" style="stroke: #000000; stroke-width: 0.8"/>
      </g>
     </g>
     <g id="text_27">
      <!-- 0.300 -->
      <g transform="translate(637.349736 264.538822) scale(0.14 -0.14)">
       <use xlink:href="#DejaVuSans-30"/>
       <use xlink:href="#DejaVuSans-2e" x="63.623047"/>
       <use xlink:href="#DejaVuSans-33" x="95.410156"/>
       <use xlink:href="#DejaVuSans-30" x="159.033203"/>
       <use xlink:href="#DejaVuSans-30" x="222.65625"/>
      </g>
     </g>
    </g>
    <g id="xtick_11">
     <g id="line2d_24">
      <g>
       <use xlink:href="#m2ccf3ddaf7" x="714.875424" y="246.90101" style="stroke: #000000; stroke-width: 0.8"/>
      </g>
     </g>
     <g id="text_28">
      <!-- 0.325 -->
      <g transform="translate(694.835736 264.538822) scale(0.14 -0.14)">
       <use xlink:href="#DejaVuSans-30"/>
       <use xlink:href="#DejaVuSans-2e" x="63.623047"/>
       <use xlink:href="#DejaVuSans-33" x="95.410156"/>
       <use xlink:href="#DejaVuSans-32" x="159.033203"/>
       <use xlink:href="#DejaVuSans-35" x="222.65625"/>
      </g>
     </g>
    </g>
    <g id="xtick_12">
     <g id="line2d_25">
      <g>
       <use xlink:href="#m2ccf3ddaf7" x="772.361424" y="246.90101" style="stroke: #000000; stroke-width: 0.8"/>
      </g>
     </g>
     <g id="text_29">
      <!-- 0.350 -->
      <g transform="translate(752.321737 264.538822) scale(0.14 -0.14)">
       <use xlink:href="#DejaVuSans-30"/>
       <use xlink:href="#DejaVuSans-2e" x="63.623047"/>
       <use xlink:href="#DejaVuSans-33" x="95.410156"/>
       <use xlink:href="#DejaVuSans-35" x="159.033203"/>
       <use xlink:href="#DejaVuSans-30" x="222.65625"/>
      </g>
     </g>
    </g>
    <g id="xtick_13">
     <g id="line2d_26">
      <g>
       <use xlink:href="#m2ccf3ddaf7" x="829.847425" y="246.90101" style="stroke: #000000; stroke-width: 0.8"/>
      </g>
     </g>
     <g id="text_30">
      <!-- 0.375 -->
      <g transform="translate(809.807737 264.538822) scale(0.14 -0.14)">
       <defs>
        <path id="DejaVuSans-37" d="M 525 4666 
L 3525 4666 
L 3525 4397 
L 1831 0 
L 1172 0 
L 2766 4134 
L 525 4134 
L 525 4666 
z
" transform="scale(0.015625)"/>
       </defs>
       <use xlink:href="#DejaVuSans-30"/>
       <use xlink:href="#DejaVuSans-2e" x="63.623047"/>
       <use xlink:href="#DejaVuSans-33" x="95.410156"/>
       <use xlink:href="#DejaVuSans-37" x="159.033203"/>
       <use xlink:href="#DejaVuSans-35" x="222.65625"/>
      </g>
     </g>
    </g>
    <g id="text_31">
     <!-- $\nu_{12}$ [-] -->
     <g transform="translate(726.655665 282.088197) scale(0.14 -0.14)">
      <defs>
       <path id="DejaVuSans-Oblique-3bd" d="M 959 0 
L 572 3500 
L 1191 3500 
L 1522 563 
Q 1972 950 2391 1488 
Q 2706 1891 2788 2241 
Q 2825 2406 2809 2719 
Q 2794 3091 2544 3500 
L 3125 3500 
L 3125 3500 
Q 3288 3222 3353 2834 
Q 3416 2478 3369 2234 
Q 3250 1622 2719 1075 
Q 2025 363 1572 0 
L 959 0 
z
" transform="scale(0.015625)"/>
       <path id="DejaVuSans-2d" d="M 313 2009 
L 1997 2009 
L 1997 1497 
L 313 1497 
L 313 2009 
z
" transform="scale(0.015625)"/>
      </defs>
      <use xlink:href="#DejaVuSans-Oblique-3bd" transform="translate(0 0.015625)"/>
      <use xlink:href="#DejaVuSans-31" transform="translate(55.859375 -16.390625) scale(0.7)"/>
      <use xlink:href="#DejaVuSans-32" transform="translate(100.395508 -16.390625) scale(0.7)"/>
      <use xlink:href="#DejaVuSans-20" transform="translate(147.666016 0.015625)"/>
      <use xlink:href="#DejaVuSans-5b" transform="translate(179.453125 0.015625)"/>
      <use xlink:href="#DejaVuSans-2d" transform="translate(218.466797 0.015625)"/>
      <use xlink:href="#DejaVuSans-5d" transform="translate(254.550781 0.015625)"/>
     </g>
    </g>
   </g>
   <g id="matplotlib.axis_6">
    <g id="ytick_11">
     <g id="line2d_27">
      <g>
       <use xlink:href="#mfecb31ad84" x="626.425213" y="246.90101" style="stroke: #000000; stroke-width: 0.8"/>
      </g>
     </g>
     <g id="text_32">
      <!-- 0 -->
      <g transform="translate(610.517713 252.219916) scale(0.14 -0.14)">
       <use xlink:href="#DejaVuSans-30"/>
      </g>
     </g>
    </g>
    <g id="ytick_12">
     <g id="line2d_28">
      <g>
       <use xlink:href="#mfecb31ad84" x="626.425213" y="191.905895" style="stroke: #000000; stroke-width: 0.8"/>
      </g>
     </g>
     <g id="text_33">
      <!-- 10 -->
      <g transform="translate(601.610213 197.224801) scale(0.14 -0.14)">
       <use xlink:href="#DejaVuSans-31"/>
       <use xlink:href="#DejaVuSans-30" x="63.623047"/>
      </g>
     </g>
    </g>
    <g id="ytick_13">
     <g id="line2d_29">
      <g>
       <use xlink:href="#mfecb31ad84" x="626.425213" y="136.91078" style="stroke: #000000; stroke-width: 0.8"/>
      </g>
     </g>
     <g id="text_34">
      <!-- 20 -->
      <g transform="translate(601.610213 142.229686) scale(0.14 -0.14)">
       <use xlink:href="#DejaVuSans-32"/>
       <use xlink:href="#DejaVuSans-30" x="63.623047"/>
      </g>
     </g>
    </g>
    <g id="ytick_14">
     <g id="line2d_30">
      <g>
       <use xlink:href="#mfecb31ad84" x="626.425213" y="81.915665" style="stroke: #000000; stroke-width: 0.8"/>
      </g>
     </g>
     <g id="text_35">
      <!-- 30 -->
      <g transform="translate(601.610213 87.234571) scale(0.14 -0.14)">
       <use xlink:href="#DejaVuSans-33"/>
       <use xlink:href="#DejaVuSans-30" x="63.623047"/>
      </g>
     </g>
    </g>
    <g id="ytick_15">
     <g id="line2d_31">
      <g>
       <use xlink:href="#mfecb31ad84" x="626.425213" y="26.92055" style="stroke: #000000; stroke-width: 0.8"/>
      </g>
     </g>
     <g id="text_36">
      <!-- 40 -->
      <g transform="translate(601.610213 32.239456) scale(0.14 -0.14)">
       <use xlink:href="#DejaVuSans-34"/>
       <use xlink:href="#DejaVuSans-30" x="63.623047"/>
      </g>
     </g>
    </g>
   </g>
   <g id="line2d_32">
    <path d="M 680.383824 244.46371 
L 681.777424 243.983086 
L 683.171024 243.420492 
L 684.564624 242.764648 
L 685.958224 242.003245 
L 687.351824 241.122949 
L 688.745424 240.109425 
L 690.139024 238.947388 
L 691.532624 237.620678 
L 692.926224 236.112365 
L 694.319824 234.404892 
L 695.713424 232.480252 
L 697.107024 230.320195 
L 698.500624 227.906485 
L 699.894224 225.221183 
L 701.287824 222.246977 
L 702.681424 218.967537 
L 704.075024 215.367908 
L 705.468624 211.434926 
L 706.862224 207.157649 
L 708.255824 202.527812 
L 709.649424 197.540269 
L 711.043024 192.193443 
L 712.436624 186.489745 
L 713.830224 180.435973 
L 715.223824 174.043661 
L 716.617424 167.329375 
L 718.011024 160.314948 
L 719.404624 153.027622 
L 720.798224 145.500114 
L 722.191824 137.770575 
L 723.585424 129.882443 
L 724.979024 121.884187 
L 726.372624 113.828932 
L 727.766224 105.773976 
L 729.159824 97.780189 
L 730.553424 89.911313 
L 731.947024 82.233161 
L 733.340624 74.81274 
L 734.734224 67.717302 
L 736.127824 61.013347 
L 737.521424 54.765601 
L 738.915024 49.035979 
L 740.308624 43.882573 
L 741.702224 39.35867 
L 743.095824 35.511841 
L 744.489424 32.383103 
L 745.883024 30.006197 
L 747.276624 28.40698 
L 748.670224 27.602955 
L 750.063824 27.602955 
L 751.457424 28.40698 
L 752.851024 30.006197 
L 754.244624 32.383103 
L 755.638224 35.511841 
L 757.031824 39.35867 
L 758.425424 43.882573 
L 759.819024 49.035979 
L 761.212624 54.765601 
L 762.606224 61.013347 
L 763.999824 67.717302 
L 765.393424 74.81274 
L 766.787024 82.233161 
L 768.180624 89.911313 
L 769.574224 97.780189 
L 770.967824 105.773976 
L 772.361424 113.828932 
L 773.755024 121.884187 
L 775.148624 129.882443 
L 776.542224 137.770575 
L 777.935824 145.500114 
L 779.329424 153.027622 
L 780.723024 160.314948 
L 782.116624 167.329375 
L 783.510224 174.043661 
L 784.903825 180.435973 
L 786.297425 186.489745 
L 787.691025 192.193443 
L 789.084625 197.540269 
L 790.478225 202.527812 
L 791.871825 207.157649 
L 793.265425 211.434926 
L 794.659025 215.367908 
L 796.052625 218.967537 
L 797.446225 222.246977 
L 798.839825 225.221183 
L 800.233425 227.906485 
L 801.627025 230.320195 
L 803.020625 232.480252 
L 804.414225 234.404892 
L 805.807825 236.112365 
L 807.201425 237.620678 
L 808.595025 238.947388 
L 809.988625 240.109425 
L 811.382225 241.122949 
L 812.775825 242.003245 
L 814.169425 242.764648 
L 815.563025 243.420492 
L 816.956625 243.983086 
L 818.350225 244.46371 
" clip-path="url(#p0427c1ea18)" style="fill: none; stroke: #2ca02c; stroke-width: 1.5; stroke-linecap: square"/>
   </g>
   <g id="patch_105">
    <path d="M 626.425213 246.90101 
L 626.425213 16.638052 
" style="fill: none; stroke: #000000; stroke-width: 0.8; stroke-linejoin: miter; stroke-linecap: square"/>
   </g>
   <g id="patch_106">
    <path d="M 868.046117 246.90101 
L 868.046117 16.638052 
" style="fill: none; stroke: #000000; stroke-width: 0.8; stroke-linejoin: miter; stroke-linecap: square"/>
   </g>
   <g id="patch_107">
    <path d="M 626.425213 246.90101 
L 868.046117 246.90101 
" style="fill: none; stroke: #000000; stroke-width: 0.8; stroke-linejoin: miter; stroke-linecap: square"/>
   </g>
   <g id="patch_108">
    <path d="M 626.425213 16.638052 
L 868.046117 16.638052 
" style="fill: none; stroke: #000000; stroke-width: 0.8; stroke-linejoin: miter; stroke-linecap: square"/>
   </g>
  </g>
  <g id="axes_4">
   <g id="patch_109">
    <path d="M 898.861597 246.90101 
L 1140.482502 246.90101 
L 1140.482502 16.638052 
L 898.861597 16.638052 
z
" style="fill: #ffffff"/>
   </g>
   <g id="patch_110">
    <path d="M 909.844366 246.90101 
L 916.456066 246.90101 
L 916.456066 244.927492 
L 909.844366 244.927492 
z
" clip-path="url(#pc9be82f515)" style="fill: #1f77b4"/>
   </g>
   <g id="patch_111">
    <path d="M 917.190699 246.90101 
L 923.802399 246.90101 
L 923.802399 246.506306 
L 917.190699 246.506306 
z
" clip-path="url(#pc9be82f515)" style="fill: #1f77b4"/>
   </g>
   <g id="patch_112">
    <path d="M 924.537032 246.90101 
L 931.148732 246.90101 
L 931.148732 245.716899 
L 924.537032 245.716899 
z
" clip-path="url(#pc9be82f515)" style="fill: #1f77b4"/>
   </g>
   <g id="patch_113">
    <path d="M 931.883366 246.90101 
L 938.495066 246.90101 
L 938.495066 241.375159 
L 931.883366 241.375159 
z
" clip-path="url(#pc9be82f515)" style="fill: #1f77b4"/>
   </g>
   <g id="patch_114">
    <path d="M 939.229699 246.90101 
L 945.841399 246.90101 
L 945.841399 240.980455 
L 939.229699 240.980455 
z
" clip-path="url(#pc9be82f515)" style="fill: #1f77b4"/>
   </g>
   <g id="patch_115">
    <path d="M 946.576032 246.90101 
L 953.187733 246.90101 
L 953.187733 236.638715 
L 946.576032 236.638715 
z
" clip-path="url(#pc9be82f515)" style="fill: #1f77b4"/>
   </g>
   <g id="patch_116">
    <path d="M 953.922366 246.90101 
L 960.534066 246.90101 
L 960.534066 227.165827 
L 953.922366 227.165827 
z
" clip-path="url(#pc9be82f515)" style="fill: #1f77b4"/>
   </g>
   <g id="patch_117">
    <path d="M 961.268699 246.90101 
L 967.880399 246.90101 
L 967.880399 218.87705 
L 961.268699 218.87705 
z
" clip-path="url(#pc9be82f515)" style="fill: #1f77b4"/>
   </g>
   <g id="patch_118">
    <path d="M 968.615033 246.90101 
L 975.226733 246.90101 
L 975.226733 204.273014 
L 968.615033 204.273014 
z
" clip-path="url(#pc9be82f515)" style="fill: #1f77b4"/>
   </g>
   <g id="patch_119">
    <path d="M 975.961366 246.90101 
L 982.573066 246.90101 
L 982.573066 167.565573 
L 975.961366 167.565573 
z
" clip-path="url(#pc9be82f515)" style="fill: #1f77b4"/>
   </g>
   <g id="patch_120">
    <path d="M 983.307699 246.90101 
L 989.919399 246.90101 
L 989.919399 145.462167 
L 983.307699 145.462167 
z
" clip-path="url(#pc9be82f515)" style="fill: #1f77b4"/>
   </g>
   <g id="patch_121">
    <path d="M 990.654033 246.90101 
L 997.265733 246.90101 
L 997.265733 134.410465 
L 990.654033 134.410465 
z
" clip-path="url(#pc9be82f515)" style="fill: #1f77b4"/>
   </g>
   <g id="patch_122">
    <path d="M 998.000366 246.90101 
L 1004.612066 246.90101 
L 1004.612066 93.755987 
L 998.000366 93.755987 
z
" clip-path="url(#pc9be82f515)" style="fill: #1f77b4"/>
   </g>
   <g id="patch_123">
    <path d="M 1005.346699 246.90101 
L 1011.958399 246.90101 
L 1011.958399 79.151951 
L 1005.346699 79.151951 
z
" clip-path="url(#pc9be82f515)" style="fill: #1f77b4"/>
   </g>
   <g id="patch_124">
    <path d="M 1012.693033 246.90101 
L 1019.304733 246.90101 
L 1019.304733 59.416768 
L 1012.693033 59.416768 
z
" clip-path="url(#pc9be82f515)" style="fill: #1f77b4"/>
   </g>
   <g id="patch_125">
    <path d="M 1020.039366 246.90101 
L 1026.651066 246.90101 
L 1026.651066 65.337323 
L 1020.039366 65.337323 
z
" clip-path="url(#pc9be82f515)" style="fill: #1f77b4"/>
   </g>
   <g id="patch_126">
    <path d="M 1027.385699 246.90101 
L 1033.9974 246.90101 
L 1033.9974 71.257878 
L 1027.385699 71.257878 
z
" clip-path="url(#pc9be82f515)" style="fill: #1f77b4"/>
   </g>
   <g id="patch_127">
    <path d="M 1034.732033 246.90101 
L 1041.343733 246.90101 
L 1041.343733 81.520173 
L 1034.732033 81.520173 
z
" clip-path="url(#pc9be82f515)" style="fill: #1f77b4"/>
   </g>
   <g id="patch_128">
    <path d="M 1042.078366 246.90101 
L 1048.690066 246.90101 
L 1048.690066 103.228875 
L 1042.078366 103.228875 
z
" clip-path="url(#pc9be82f515)" style="fill: #1f77b4"/>
   </g>
   <g id="patch_129">
    <path d="M 1049.4247 246.90101 
L 1056.0364 246.90101 
L 1056.0364 132.042243 
L 1049.4247 132.042243 
z
" clip-path="url(#pc9be82f515)" style="fill: #1f77b4"/>
   </g>
   <g id="patch_130">
    <path d="M 1056.771033 246.90101 
L 1063.382733 246.90101 
L 1063.382733 153.750944 
L 1056.771033 153.750944 
z
" clip-path="url(#pc9be82f515)" style="fill: #1f77b4"/>
   </g>
   <g id="patch_131">
    <path d="M 1064.117366 246.90101 
L 1070.729066 246.90101 
L 1070.729066 181.380201 
L 1064.117366 181.380201 
z
" clip-path="url(#pc9be82f515)" style="fill: #1f77b4"/>
   </g>
   <g id="patch_132">
    <path d="M 1071.4637 246.90101 
L 1078.0754 246.90101 
L 1078.0754 204.667718 
L 1071.4637 204.667718 
z
" clip-path="url(#pc9be82f515)" style="fill: #1f77b4"/>
   </g>
   <g id="patch_133">
    <path d="M 1078.810033 246.90101 
L 1085.421733 246.90101 
L 1085.421733 216.114124 
L 1078.810033 216.114124 
z
" clip-path="url(#pc9be82f515)" style="fill: #1f77b4"/>
   </g>
   <g id="patch_134">
    <path d="M 1086.156366 246.90101 
L 1092.768066 246.90101 
L 1092.768066 226.771123 
L 1086.156366 226.771123 
z
" clip-path="url(#pc9be82f515)" style="fill: #1f77b4"/>
   </g>
   <g id="patch_135">
    <path d="M 1093.5027 246.90101 
L 1100.1144 246.90101 
L 1100.1144 232.296974 
L 1093.5027 232.296974 
z
" clip-path="url(#pc9be82f515)" style="fill: #1f77b4"/>
   </g>
   <g id="patch_136">
    <path d="M 1100.849033 246.90101 
L 1107.460733 246.90101 
L 1107.460733 242.164566 
L 1100.849033 242.164566 
z
" clip-path="url(#pc9be82f515)" style="fill: #1f77b4"/>
   </g>
   <g id="patch_137">
    <path d="M 1108.195366 246.90101 
L 1114.807067 246.90101 
L 1114.807067 245.716899 
L 1108.195366 245.716899 
z
" clip-path="url(#pc9be82f515)" style="fill: #1f77b4"/>
   </g>
   <g id="patch_138">
    <path d="M 1115.5417 246.90101 
L 1122.1534 246.90101 
L 1122.1534 244.927492 
L 1115.5417 244.927492 
z
" clip-path="url(#pc9be82f515)" style="fill: #1f77b4"/>
   </g>
   <g id="patch_139">
    <path d="M 1122.888033 246.90101 
L 1129.499733 246.90101 
L 1129.499733 246.111603 
L 1122.888033 246.111603 
z
" clip-path="url(#pc9be82f515)" style="fill: #1f77b4"/>
   </g>
   <g id="matplotlib.axis_7">
    <g id="xtick_14">
     <g id="line2d_33">
      <g>
       <use xlink:href="#m2ccf3ddaf7" x="915.812536" y="246.90101" style="stroke: #000000; stroke-width: 0.8"/>
      </g>
     </g>
     <g id="text_37">
      <!-- 0.40 -->
      <g transform="translate(900.226599 264.538822) scale(0.14 -0.14)">
       <use xlink:href="#DejaVuSans-30"/>
       <use xlink:href="#DejaVuSans-2e" x="63.623047"/>
       <use xlink:href="#DejaVuSans-34" x="95.410156"/>
       <use xlink:href="#DejaVuSans-30" x="159.033203"/>
      </g>
     </g>
    </g>
    <g id="xtick_15">
     <g id="line2d_34">
      <g>
       <use xlink:href="#m2ccf3ddaf7" x="968.537669" y="246.90101" style="stroke: #000000; stroke-width: 0.8"/>
      </g>
     </g>
     <g id="text_38">
      <!-- 0.42 -->
      <g transform="translate(952.951731 264.538822) scale(0.14 -0.14)">
       <use xlink:href="#DejaVuSans-30"/>
       <use xlink:href="#DejaVuSans-2e" x="63.623047"/>
       <use xlink:href="#DejaVuSans-34" x="95.410156"/>
       <use xlink:href="#DejaVuSans-32" x="159.033203"/>
      </g>
     </g>
    </g>
    <g id="xtick_16">
     <g id="line2d_35">
      <g>
       <use xlink:href="#m2ccf3ddaf7" x="1021.262801" y="246.90101" style="stroke: #000000; stroke-width: 0.8"/>
      </g>
     </g>
     <g id="text_39">
      <!-- 0.44 -->
      <g transform="translate(1005.676864 264.538822) scale(0.14 -0.14)">
       <use xlink:href="#DejaVuSans-30"/>
       <use xlink:href="#DejaVuSans-2e" x="63.623047"/>
       <use xlink:href="#DejaVuSans-34" x="95.410156"/>
       <use xlink:href="#DejaVuSans-34" x="159.033203"/>
      </g>
     </g>
    </g>
    <g id="xtick_17">
     <g id="line2d_36">
      <g>
       <use xlink:href="#m2ccf3ddaf7" x="1073.987934" y="246.90101" style="stroke: #000000; stroke-width: 0.8"/>
      </g>
     </g>
     <g id="text_40">
      <!-- 0.46 -->
      <g transform="translate(1058.401996 264.538822) scale(0.14 -0.14)">
       <use xlink:href="#DejaVuSans-30"/>
       <use xlink:href="#DejaVuSans-2e" x="63.623047"/>
       <use xlink:href="#DejaVuSans-34" x="95.410156"/>
       <use xlink:href="#DejaVuSans-36" x="159.033203"/>
      </g>
     </g>
    </g>
    <g id="xtick_18">
     <g id="line2d_37">
      <g>
       <use xlink:href="#m2ccf3ddaf7" x="1126.713066" y="246.90101" style="stroke: #000000; stroke-width: 0.8"/>
      </g>
     </g>
     <g id="text_41">
      <!-- 0.48 -->
      <g transform="translate(1111.127129 264.538822) scale(0.14 -0.14)">
       <defs>
        <path id="DejaVuSans-38" d="M 2034 2216 
Q 1584 2216 1326 1975 
Q 1069 1734 1069 1313 
Q 1069 891 1326 650 
Q 1584 409 2034 409 
Q 2484 409 2743 651 
Q 3003 894 3003 1313 
Q 3003 1734 2745 1975 
Q 2488 2216 2034 2216 
z
M 1403 2484 
Q 997 2584 770 2862 
Q 544 3141 544 3541 
Q 544 4100 942 4425 
Q 1341 4750 2034 4750 
Q 2731 4750 3128 4425 
Q 3525 4100 3525 3541 
Q 3525 3141 3298 2862 
Q 3072 2584 2669 2484 
Q 3125 2378 3379 2068 
Q 3634 1759 3634 1313 
Q 3634 634 3220 271 
Q 2806 -91 2034 -91 
Q 1263 -91 848 271 
Q 434 634 434 1313 
Q 434 1759 690 2068 
Q 947 2378 1403 2484 
z
M 1172 3481 
Q 1172 3119 1398 2916 
Q 1625 2713 2034 2713 
Q 2441 2713 2670 2916 
Q 2900 3119 2900 3481 
Q 2900 3844 2670 4047 
Q 2441 4250 2034 4250 
Q 1625 4250 1398 4047 
Q 1172 3844 1172 3481 
z
" transform="scale(0.015625)"/>
       </defs>
       <use xlink:href="#DejaVuSans-30"/>
       <use xlink:href="#DejaVuSans-2e" x="63.623047"/>
       <use xlink:href="#DejaVuSans-34" x="95.410156"/>
       <use xlink:href="#DejaVuSans-38" x="159.033203"/>
      </g>
     </g>
    </g>
    <g id="text_42">
     <!-- $\nu_{23}$ [-] -->
     <g transform="translate(999.092049 282.088197) scale(0.14 -0.14)">
      <use xlink:href="#DejaVuSans-Oblique-3bd" transform="translate(0 0.015625)"/>
      <use xlink:href="#DejaVuSans-32" transform="translate(55.859375 -16.390625) scale(0.7)"/>
      <use xlink:href="#DejaVuSans-33" transform="translate(100.395508 -16.390625) scale(0.7)"/>
      <use xlink:href="#DejaVuSans-20" transform="translate(147.666016 0.015625)"/>
      <use xlink:href="#DejaVuSans-5b" transform="translate(179.453125 0.015625)"/>
      <use xlink:href="#DejaVuSans-2d" transform="translate(218.466797 0.015625)"/>
      <use xlink:href="#DejaVuSans-5d" transform="translate(254.550781 0.015625)"/>
     </g>
    </g>
   </g>
   <g id="matplotlib.axis_8">
    <g id="ytick_16">
     <g id="line2d_38">
      <g>
       <use xlink:href="#mfecb31ad84" x="898.861597" y="246.90101" style="stroke: #000000; stroke-width: 0.8"/>
      </g>
     </g>
     <g id="text_43">
      <!-- 0 -->
      <g transform="translate(882.954097 252.219916) scale(0.14 -0.14)">
       <use xlink:href="#DejaVuSans-30"/>
      </g>
     </g>
    </g>
    <g id="ytick_17">
     <g id="line2d_39">
      <g>
       <use xlink:href="#mfecb31ad84" x="898.861597" y="191.905895" style="stroke: #000000; stroke-width: 0.8"/>
      </g>
     </g>
     <g id="text_44">
      <!-- 10 -->
      <g transform="translate(874.046597 197.224801) scale(0.14 -0.14)">
       <use xlink:href="#DejaVuSans-31"/>
       <use xlink:href="#DejaVuSans-30" x="63.623047"/>
      </g>
     </g>
    </g>
    <g id="ytick_18">
     <g id="line2d_40">
      <g>
       <use xlink:href="#mfecb31ad84" x="898.861597" y="136.91078" style="stroke: #000000; stroke-width: 0.8"/>
      </g>
     </g>
     <g id="text_45">
      <!-- 20 -->
      <g transform="translate(874.046597 142.229686) scale(0.14 -0.14)">
       <use xlink:href="#DejaVuSans-32"/>
       <use xlink:href="#DejaVuSans-30" x="63.623047"/>
      </g>
     </g>
    </g>
    <g id="ytick_19">
     <g id="line2d_41">
      <g>
       <use xlink:href="#mfecb31ad84" x="898.861597" y="81.915665" style="stroke: #000000; stroke-width: 0.8"/>
      </g>
     </g>
     <g id="text_46">
      <!-- 30 -->
      <g transform="translate(874.046597 87.234571) scale(0.14 -0.14)">
       <use xlink:href="#DejaVuSans-33"/>
       <use xlink:href="#DejaVuSans-30" x="63.623047"/>
      </g>
     </g>
    </g>
    <g id="ytick_20">
     <g id="line2d_42">
      <g>
       <use xlink:href="#mfecb31ad84" x="898.861597" y="26.92055" style="stroke: #000000; stroke-width: 0.8"/>
      </g>
     </g>
     <g id="text_47">
      <!-- 40 -->
      <g transform="translate(874.046597 32.239456) scale(0.14 -0.14)">
       <use xlink:href="#DejaVuSans-34"/>
       <use xlink:href="#DejaVuSans-30" x="63.623047"/>
      </g>
     </g>
    </g>
   </g>
   <g id="line2d_43">
    <path d="M 942.175102 244.46371 
L 943.772834 243.983086 
L 945.370565 243.420492 
L 946.968296 242.764648 
L 948.566028 242.003245 
L 950.163759 241.122949 
L 951.76149 240.109425 
L 953.359221 238.947388 
L 954.956953 237.620678 
L 956.554684 236.112365 
L 958.152415 234.404892 
L 959.750147 232.480252 
L 961.347878 230.320195 
L 962.945609 227.906485 
L 964.54334 225.221183 
L 966.141072 222.246977 
L 967.738803 218.967537 
L 969.336534 215.367908 
L 970.934266 211.434926 
L 972.531997 207.157649 
L 974.129728 202.527812 
L 975.727459 197.540269 
L 977.325191 192.193443 
L 978.922922 186.489745 
L 980.520653 180.435973 
L 982.118385 174.043661 
L 983.716116 167.329375 
L 985.313847 160.314948 
L 986.911578 153.027622 
L 988.50931 145.500114 
L 990.107041 137.770575 
L 991.704772 129.882443 
L 993.302504 121.884187 
L 994.900235 113.828932 
L 996.497966 105.773976 
L 998.095697 97.780189 
L 999.693429 89.911313 
L 1001.29116 82.233161 
L 1002.888891 74.81274 
L 1004.486623 67.717302 
L 1006.084354 61.013347 
L 1007.682085 54.765601 
L 1009.279817 49.035979 
L 1010.877548 43.882573 
L 1012.475279 39.35867 
L 1014.07301 35.511841 
L 1015.670742 32.383103 
L 1017.268473 30.006197 
L 1018.866204 28.40698 
L 1020.463936 27.602955 
L 1022.061667 27.602955 
L 1023.659398 28.40698 
L 1025.257129 30.006197 
L 1026.854861 32.383103 
L 1028.452592 35.511841 
L 1030.050323 39.35867 
L 1031.648055 43.882573 
L 1033.245786 49.035979 
L 1034.843517 54.765601 
L 1036.441248 61.013347 
L 1038.03898 67.717302 
L 1039.636711 74.81274 
L 1041.234442 82.233161 
L 1042.832174 89.911313 
L 1044.429905 97.780189 
L 1046.027636 105.773976 
L 1047.625367 113.828932 
L 1049.223099 121.884187 
L 1050.82083 129.882443 
L 1052.418561 137.770575 
L 1054.016293 145.500114 
L 1055.614024 153.027622 
L 1057.211755 160.314948 
L 1058.809486 167.329375 
L 1060.407218 174.043661 
L 1062.004949 180.435973 
L 1063.60268 186.489745 
L 1065.200412 192.193443 
L 1066.798143 197.540269 
L 1068.395874 202.527812 
L 1069.993605 207.157649 
L 1071.591337 211.434926 
L 1073.189068 215.367908 
L 1074.786799 218.967537 
L 1076.384531 222.246977 
L 1077.982262 225.221183 
L 1079.579993 227.906485 
L 1081.177724 230.320195 
L 1082.775456 232.480252 
L 1084.373187 234.404892 
L 1085.970918 236.112365 
L 1087.56865 237.620678 
L 1089.166381 238.947388 
L 1090.764112 240.109425 
L 1092.361844 241.122949 
L 1093.959575 242.003245 
L 1095.557306 242.764648 
L 1097.155037 243.420492 
L 1098.752769 243.983086 
L 1100.3505 244.46371 
" clip-path="url(#pc9be82f515)" style="fill: none; stroke: #2ca02c; stroke-width: 1.5; stroke-linecap: square"/>
   </g>
   <g id="patch_140">
    <path d="M 898.861597 246.90101 
L 898.861597 16.638052 
" style="fill: none; stroke: #000000; stroke-width: 0.8; stroke-linejoin: miter; stroke-linecap: square"/>
   </g>
   <g id="patch_141">
    <path d="M 1140.482502 246.90101 
L 1140.482502 16.638052 
" style="fill: none; stroke: #000000; stroke-width: 0.8; stroke-linejoin: miter; stroke-linecap: square"/>
   </g>
   <g id="patch_142">
    <path d="M 898.861597 246.90101 
L 1140.482502 246.90101 
" style="fill: none; stroke: #000000; stroke-width: 0.8; stroke-linejoin: miter; stroke-linecap: square"/>
   </g>
   <g id="patch_143">
    <path d="M 898.861597 16.638052 
L 1140.482502 16.638052 
" style="fill: none; stroke: #000000; stroke-width: 0.8; stroke-linejoin: miter; stroke-linecap: square"/>
   </g>
  </g>
  <g id="axes_5">
   <g id="patch_144">
    <path d="M 1195.378856 246.90101 
L 1436.99976 246.90101 
L 1436.99976 16.638052 
L 1195.378856 16.638052 
z
" style="fill: #ffffff"/>
   </g>
   <g id="patch_145">
    <path d="M 1206.361624 246.90101 
L 1212.973324 246.90101 
L 1212.973324 246.509535 
L 1206.361624 246.509535 
z
" clip-path="url(#p31cd22644c)" style="fill: #1f77b4"/>
   </g>
   <g id="patch_146">
    <path d="M 1213.707957 246.90101 
L 1220.319657 246.90101 
L 1220.319657 246.90101 
L 1213.707957 246.90101 
z
" clip-path="url(#p31cd22644c)" style="fill: #1f77b4"/>
   </g>
   <g id="patch_147">
    <path d="M 1221.054291 246.90101 
L 1227.665991 246.90101 
L 1227.665991 246.90101 
L 1221.054291 246.90101 
z
" clip-path="url(#p31cd22644c)" style="fill: #1f77b4"/>
   </g>
   <g id="patch_148">
    <path d="M 1228.400624 246.90101 
L 1235.012324 246.90101 
L 1235.012324 246.118059 
L 1228.400624 246.118059 
z
" clip-path="url(#p31cd22644c)" style="fill: #1f77b4"/>
   </g>
   <g id="patch_149">
    <path d="M 1235.746958 246.90101 
L 1242.358658 246.90101 
L 1242.358658 246.118059 
L 1235.746958 246.118059 
z
" clip-path="url(#p31cd22644c)" style="fill: #1f77b4"/>
   </g>
   <g id="patch_150">
    <path d="M 1243.093291 246.90101 
L 1249.704991 246.90101 
L 1249.704991 242.59478 
L 1243.093291 242.59478 
z
" clip-path="url(#p31cd22644c)" style="fill: #1f77b4"/>
   </g>
   <g id="patch_151">
    <path d="M 1250.439624 246.90101 
L 1257.051324 246.90101 
L 1257.051324 235.939698 
L 1250.439624 235.939698 
z
" clip-path="url(#p31cd22644c)" style="fill: #1f77b4"/>
   </g>
   <g id="patch_152">
    <path d="M 1257.785958 246.90101 
L 1264.397658 246.90101 
L 1264.397658 234.765271 
L 1257.785958 234.765271 
z
" clip-path="url(#p31cd22644c)" style="fill: #1f77b4"/>
   </g>
   <g id="patch_153">
    <path d="M 1265.132291 246.90101 
L 1271.743991 246.90101 
L 1271.743991 228.89314 
L 1265.132291 228.89314 
z
" clip-path="url(#p31cd22644c)" style="fill: #1f77b4"/>
   </g>
   <g id="patch_154">
    <path d="M 1272.478624 246.90101 
L 1279.090324 246.90101 
L 1279.090324 211.276745 
L 1272.478624 211.276745 
z
" clip-path="url(#p31cd22644c)" style="fill: #1f77b4"/>
   </g>
   <g id="patch_155">
    <path d="M 1279.824958 246.90101 
L 1286.436658 246.90101 
L 1286.436658 192.877399 
L 1279.824958 192.877399 
z
" clip-path="url(#p31cd22644c)" style="fill: #1f77b4"/>
   </g>
   <g id="patch_156">
    <path d="M 1287.171291 246.90101 
L 1293.782991 246.90101 
L 1293.782991 163.516741 
L 1287.171291 163.516741 
z
" clip-path="url(#p31cd22644c)" style="fill: #1f77b4"/>
   </g>
   <g id="patch_157">
    <path d="M 1294.517624 246.90101 
L 1301.129324 246.90101 
L 1301.129324 143.942969 
L 1294.517624 143.942969 
z
" clip-path="url(#p31cd22644c)" style="fill: #1f77b4"/>
   </g>
   <g id="patch_158">
    <path d="M 1301.863958 246.90101 
L 1308.475658 246.90101 
L 1308.475658 114.190836 
L 1301.863958 114.190836 
z
" clip-path="url(#p31cd22644c)" style="fill: #1f77b4"/>
   </g>
   <g id="patch_159">
    <path d="M 1309.210291 246.90101 
L 1315.821991 246.90101 
L 1315.821991 81.698374 
L 1309.210291 81.698374 
z
" clip-path="url(#p31cd22644c)" style="fill: #1f77b4"/>
   </g>
   <g id="patch_160">
    <path d="M 1316.556625 246.90101 
L 1323.168325 246.90101 
L 1323.168325 55.469519 
L 1316.556625 55.469519 
z
" clip-path="url(#p31cd22644c)" style="fill: #1f77b4"/>
   </g>
   <g id="patch_161">
    <path d="M 1323.902958 246.90101 
L 1330.514658 246.90101 
L 1330.514658 50.771814 
L 1323.902958 50.771814 
z
" clip-path="url(#p31cd22644c)" style="fill: #1f77b4"/>
   </g>
   <g id="patch_162">
    <path d="M 1331.249291 246.90101 
L 1337.860991 246.90101 
L 1337.860991 52.337716 
L 1331.249291 52.337716 
z
" clip-path="url(#p31cd22644c)" style="fill: #1f77b4"/>
   </g>
   <g id="patch_163">
    <path d="M 1338.595625 246.90101 
L 1345.207325 246.90101 
L 1345.207325 64.473455 
L 1338.595625 64.473455 
z
" clip-path="url(#p31cd22644c)" style="fill: #1f77b4"/>
   </g>
   <g id="patch_164">
    <path d="M 1345.941958 246.90101 
L 1352.553658 246.90101 
L 1352.553658 87.570506 
L 1345.941958 87.570506 
z
" clip-path="url(#p31cd22644c)" style="fill: #1f77b4"/>
   </g>
   <g id="patch_165">
    <path d="M 1353.288291 246.90101 
L 1359.899991 246.90101 
L 1359.899991 122.020344 
L 1353.288291 122.020344 
z
" clip-path="url(#p31cd22644c)" style="fill: #1f77b4"/>
   </g>
   <g id="patch_166">
    <path d="M 1360.634625 246.90101 
L 1367.246325 246.90101 
L 1367.246325 152.946904 
L 1360.634625 152.946904 
z
" clip-path="url(#p31cd22644c)" style="fill: #1f77b4"/>
   </g>
   <g id="patch_167">
    <path d="M 1367.980958 246.90101 
L 1374.592658 246.90101 
L 1374.592658 173.303627 
L 1367.980958 173.303627 
z
" clip-path="url(#p31cd22644c)" style="fill: #1f77b4"/>
   </g>
   <g id="patch_168">
    <path d="M 1375.327291 246.90101 
L 1381.938991 246.90101 
L 1381.938991 194.051825 
L 1375.327291 194.051825 
z
" clip-path="url(#p31cd22644c)" style="fill: #1f77b4"/>
   </g>
   <g id="patch_169">
    <path d="M 1382.673625 246.90101 
L 1389.285325 246.90101 
L 1389.285325 219.889205 
L 1382.673625 219.889205 
z
" clip-path="url(#p31cd22644c)" style="fill: #1f77b4"/>
   </g>
   <g id="patch_170">
    <path d="M 1390.019958 246.90101 
L 1396.631658 246.90101 
L 1396.631658 230.850517 
L 1390.019958 230.850517 
z
" clip-path="url(#p31cd22644c)" style="fill: #1f77b4"/>
   </g>
   <g id="patch_171">
    <path d="M 1397.366292 246.90101 
L 1403.977992 246.90101 
L 1403.977992 232.416419 
L 1397.366292 232.416419 
z
" clip-path="url(#p31cd22644c)" style="fill: #1f77b4"/>
   </g>
   <g id="patch_172">
    <path d="M 1404.712625 246.90101 
L 1411.324325 246.90101 
L 1411.324325 241.811829 
L 1404.712625 241.811829 
z
" clip-path="url(#p31cd22644c)" style="fill: #1f77b4"/>
   </g>
   <g id="patch_173">
    <path d="M 1412.058958 246.90101 
L 1418.670658 246.90101 
L 1418.670658 243.769206 
L 1412.058958 243.769206 
z
" clip-path="url(#p31cd22644c)" style="fill: #1f77b4"/>
   </g>
   <g id="patch_174">
    <path d="M 1419.405292 246.90101 
L 1426.016992 246.90101 
L 1426.016992 245.726584 
L 1419.405292 245.726584 
z
" clip-path="url(#p31cd22644c)" style="fill: #1f77b4"/>
   </g>
   <g id="matplotlib.axis_9">
    <g id="xtick_19">
     <g id="line2d_44">
      <g>
       <use xlink:href="#m2ccf3ddaf7" x="1231.8646" y="246.90101" style="stroke: #000000; stroke-width: 0.8"/>
      </g>
     </g>
     <g id="text_48">
      <!-- 4800 -->
      <g transform="translate(1214.0496 264.538822) scale(0.14 -0.14)">
       <use xlink:href="#DejaVuSans-34"/>
       <use xlink:href="#DejaVuSans-38" x="63.623047"/>
       <use xlink:href="#DejaVuSans-30" x="127.246094"/>
       <use xlink:href="#DejaVuSans-30" x="190.869141"/>
      </g>
     </g>
    </g>
    <g id="xtick_20">
     <g id="line2d_45">
      <g>
       <use xlink:href="#m2ccf3ddaf7" x="1306.570173" y="246.90101" style="stroke: #000000; stroke-width: 0.8"/>
      </g>
     </g>
     <g id="text_49">
      <!-- 5000 -->
      <g transform="translate(1288.755173 264.538822) scale(0.14 -0.14)">
       <use xlink:href="#DejaVuSans-35"/>
       <use xlink:href="#DejaVuSans-30" x="63.623047"/>
       <use xlink:href="#DejaVuSans-30" x="127.246094"/>
       <use xlink:href="#DejaVuSans-30" x="190.869141"/>
      </g>
     </g>
    </g>
    <g id="xtick_21">
     <g id="line2d_46">
      <g>
       <use xlink:href="#m2ccf3ddaf7" x="1381.275746" y="246.90101" style="stroke: #000000; stroke-width: 0.8"/>
      </g>
     </g>
     <g id="text_50">
      <!-- 5200 -->
      <g transform="translate(1363.460746 264.538822) scale(0.14 -0.14)">
       <use xlink:href="#DejaVuSans-35"/>
       <use xlink:href="#DejaVuSans-32" x="63.623047"/>
       <use xlink:href="#DejaVuSans-30" x="127.246094"/>
       <use xlink:href="#DejaVuSans-30" x="190.869141"/>
      </g>
     </g>
    </g>
    <g id="text_51">
     <!-- $G_{12}$ [MPa] -->
     <g transform="translate(1282.099308 282.088197) scale(0.14 -0.14)">
      <defs>
       <path id="DejaVuSans-Oblique-47" d="M 3494 697 
L 3738 1919 
L 2700 1919 
L 2797 2438 
L 4453 2438 
L 4050 384 
Q 3634 156 3143 32 
Q 2653 -91 2156 -91 
Q 1278 -91 783 396 
Q 288 884 288 1753 
Q 288 2475 589 3126 
Q 891 3778 1422 4213 
Q 1756 4484 2153 4617 
Q 2550 4750 3034 4750 
Q 3472 4750 3873 4639 
Q 4275 4528 4641 4306 
L 4513 3634 
Q 4231 3928 3853 4083 
Q 3475 4238 3047 4238 
Q 2550 4238 2172 4048 
Q 1794 3859 1497 3463 
Q 1244 3125 1098 2667 
Q 953 2209 953 1734 
Q 953 1081 1287 751 
Q 1622 422 2284 422 
Q 2616 422 2925 492 
Q 3234 563 3494 697 
z
" transform="scale(0.015625)"/>
      </defs>
      <use xlink:href="#DejaVuSans-Oblique-47" transform="translate(0 0.015625)"/>
      <use xlink:href="#DejaVuSans-31" transform="translate(77.490234 -16.390625) scale(0.7)"/>
      <use xlink:href="#DejaVuSans-32" transform="translate(122.026367 -16.390625) scale(0.7)"/>
      <use xlink:href="#DejaVuSans-20" transform="translate(169.296875 0.015625)"/>
      <use xlink:href="#DejaVuSans-5b" transform="translate(201.083984 0.015625)"/>
      <use xlink:href="#DejaVuSans-4d" transform="translate(240.097656 0.015625)"/>
      <use xlink:href="#DejaVuSans-50" transform="translate(326.376953 0.015625)"/>
      <use xlink:href="#DejaVuSans-61" transform="translate(386.679688 0.015625)"/>
      <use xlink:href="#DejaVuSans-5d" transform="translate(447.958984 0.015625)"/>
     </g>
    </g>
   </g>
   <g id="matplotlib.axis_10">
    <g id="ytick_21">
     <g id="line2d_47">
      <g>
       <use xlink:href="#mfecb31ad84" x="1195.378856" y="246.90101" style="stroke: #000000; stroke-width: 0.8"/>
      </g>
     </g>
     <g id="text_52">
      <!-- 0.000 -->
      <g transform="translate(1148.299481 252.219916) scale(0.14 -0.14)">
       <use xlink:href="#DejaVuSans-30"/>
       <use xlink:href="#DejaVuSans-2e" x="63.623047"/>
       <use xlink:href="#DejaVuSans-30" x="95.410156"/>
       <use xlink:href="#DejaVuSans-30" x="159.033203"/>
       <use xlink:href="#DejaVuSans-30" x="222.65625"/>
      </g>
     </g>
    </g>
    <g id="ytick_22">
     <g id="line2d_48">
      <g>
       <use xlink:href="#mfecb31ad84" x="1195.378856" y="208.40443" style="stroke: #000000; stroke-width: 0.8"/>
      </g>
     </g>
     <g id="text_53">
      <!-- 0.001 -->
      <g transform="translate(1148.299481 213.723336) scale(0.14 -0.14)">
       <use xlink:href="#DejaVuSans-30"/>
       <use xlink:href="#DejaVuSans-2e" x="63.623047"/>
       <use xlink:href="#DejaVuSans-30" x="95.410156"/>
       <use xlink:href="#DejaVuSans-30" x="159.033203"/>
       <use xlink:href="#DejaVuSans-31" x="222.65625"/>
      </g>
     </g>
    </g>
    <g id="ytick_23">
     <g id="line2d_49">
      <g>
       <use xlink:href="#mfecb31ad84" x="1195.378856" y="169.907849" style="stroke: #000000; stroke-width: 0.8"/>
      </g>
     </g>
     <g id="text_54">
      <!-- 0.002 -->
      <g transform="translate(1148.299481 175.226755) scale(0.14 -0.14)">
       <use xlink:href="#DejaVuSans-30"/>
       <use xlink:href="#DejaVuSans-2e" x="63.623047"/>
       <use xlink:href="#DejaVuSans-30" x="95.410156"/>
       <use xlink:href="#DejaVuSans-30" x="159.033203"/>
       <use xlink:href="#DejaVuSans-32" x="222.65625"/>
      </g>
     </g>
    </g>
    <g id="ytick_24">
     <g id="line2d_50">
      <g>
       <use xlink:href="#mfecb31ad84" x="1195.378856" y="131.411269" style="stroke: #000000; stroke-width: 0.8"/>
      </g>
     </g>
     <g id="text_55">
      <!-- 0.003 -->
      <g transform="translate(1148.299481 136.730175) scale(0.14 -0.14)">
       <use xlink:href="#DejaVuSans-30"/>
       <use xlink:href="#DejaVuSans-2e" x="63.623047"/>
       <use xlink:href="#DejaVuSans-30" x="95.410156"/>
       <use xlink:href="#DejaVuSans-30" x="159.033203"/>
       <use xlink:href="#DejaVuSans-33" x="222.65625"/>
      </g>
     </g>
    </g>
    <g id="ytick_25">
     <g id="line2d_51">
      <g>
       <use xlink:href="#mfecb31ad84" x="1195.378856" y="92.914688" style="stroke: #000000; stroke-width: 0.8"/>
      </g>
     </g>
     <g id="text_56">
      <!-- 0.004 -->
      <g transform="translate(1148.299481 98.233594) scale(0.14 -0.14)">
       <use xlink:href="#DejaVuSans-30"/>
       <use xlink:href="#DejaVuSans-2e" x="63.623047"/>
       <use xlink:href="#DejaVuSans-30" x="95.410156"/>
       <use xlink:href="#DejaVuSans-30" x="159.033203"/>
       <use xlink:href="#DejaVuSans-34" x="222.65625"/>
      </g>
     </g>
    </g>
    <g id="ytick_26">
     <g id="line2d_52">
      <g>
       <use xlink:href="#mfecb31ad84" x="1195.378856" y="54.418108" style="stroke: #000000; stroke-width: 0.8"/>
      </g>
     </g>
     <g id="text_57">
      <!-- 0.005 -->
      <g transform="translate(1148.299481 59.737014) scale(0.14 -0.14)">
       <use xlink:href="#DejaVuSans-30"/>
       <use xlink:href="#DejaVuSans-2e" x="63.623047"/>
       <use xlink:href="#DejaVuSans-30" x="95.410156"/>
       <use xlink:href="#DejaVuSans-30" x="159.033203"/>
       <use xlink:href="#DejaVuSans-35" x="222.65625"/>
      </g>
     </g>
    </g>
   </g>
   <g id="line2d_53">
    <path d="M 1250.540994 244.46371 
L 1252.125657 243.983086 
L 1253.710321 243.420492 
L 1255.294985 242.764648 
L 1256.879648 242.003245 
L 1258.464312 241.122949 
L 1260.048976 240.109425 
L 1261.633639 238.947388 
L 1263.218303 237.620678 
L 1264.802967 236.112365 
L 1266.38763 234.404892 
L 1267.972294 232.480252 
L 1269.556958 230.320195 
L 1271.141621 227.906485 
L 1272.726285 225.221183 
L 1274.310949 222.246977 
L 1275.895612 218.967537 
L 1277.480276 215.367908 
L 1279.06494 211.434926 
L 1280.649603 207.157649 
L 1282.234267 202.527812 
L 1283.818931 197.540269 
L 1285.403594 192.193443 
L 1286.988258 186.489745 
L 1288.572922 180.435973 
L 1290.157585 174.043661 
L 1291.742249 167.329375 
L 1293.326913 160.314948 
L 1294.911576 153.027622 
L 1296.49624 145.500114 
L 1298.080904 137.770575 
L 1299.665567 129.882443 
L 1301.250231 121.884187 
L 1302.834895 113.828932 
L 1304.419558 105.773976 
L 1306.004222 97.780189 
L 1307.588886 89.911313 
L 1309.173549 82.233161 
L 1310.758213 74.81274 
L 1312.342877 67.717302 
L 1313.92754 61.013347 
L 1315.512204 54.765601 
L 1317.096868 49.035979 
L 1318.681531 43.882573 
L 1320.266195 39.35867 
L 1321.850859 35.511841 
L 1323.435522 32.383103 
L 1325.020186 30.006197 
L 1326.60485 28.40698 
L 1328.189513 27.602955 
L 1329.774177 27.602955 
L 1331.358841 28.40698 
L 1332.943504 30.006197 
L 1334.528168 32.383103 
L 1336.112832 35.511841 
L 1337.697495 39.35867 
L 1339.282159 43.882573 
L 1340.866823 49.035979 
L 1342.451486 54.765601 
L 1344.03615 61.013347 
L 1345.620814 67.717302 
L 1347.205477 74.81274 
L 1348.790141 82.233161 
L 1350.374805 89.911313 
L 1351.959468 97.780189 
L 1353.544132 105.773976 
L 1355.128796 113.828932 
L 1356.713459 121.884187 
L 1358.298123 129.882443 
L 1359.882787 137.770575 
L 1361.46745 145.500114 
L 1363.052114 153.027622 
L 1364.636778 160.314948 
L 1366.221441 167.329375 
L 1367.806105 174.043661 
L 1369.390768 180.435973 
L 1370.975432 186.489745 
L 1372.560096 192.193443 
L 1374.144759 197.540269 
L 1375.729423 202.527812 
L 1377.314087 207.157649 
L 1378.89875 211.434926 
L 1380.483414 215.367908 
L 1382.068078 218.967537 
L 1383.652741 222.246977 
L 1385.237405 225.221183 
L 1386.822069 227.906485 
L 1388.406732 230.320195 
L 1389.991396 232.480252 
L 1391.57606 234.404892 
L 1393.160723 236.112365 
L 1394.745387 237.620678 
L 1396.330051 238.947388 
L 1397.914714 240.109425 
L 1399.499378 241.122949 
L 1401.084042 242.003245 
L 1402.668705 242.764648 
L 1404.253369 243.420492 
L 1405.838033 243.983086 
L 1407.422696 244.46371 
" clip-path="url(#p31cd22644c)" style="fill: none; stroke: #2ca02c; stroke-width: 1.5; stroke-linecap: square"/>
   </g>
   <g id="patch_175">
    <path d="M 1195.378856 246.90101 
L 1195.378856 16.638052 
" style="fill: none; stroke: #000000; stroke-width: 0.8; stroke-linejoin: miter; stroke-linecap: square"/>
   </g>
   <g id="patch_176">
    <path d="M 1436.99976 246.90101 
L 1436.99976 16.638052 
" style="fill: none; stroke: #000000; stroke-width: 0.8; stroke-linejoin: miter; stroke-linecap: square"/>
   </g>
   <g id="patch_177">
    <path d="M 1195.378856 246.90101 
L 1436.99976 246.90101 
" style="fill: none; stroke: #000000; stroke-width: 0.8; stroke-linejoin: miter; stroke-linecap: square"/>
   </g>
   <g id="patch_178">
    <path d="M 1195.378856 16.638052 
L 1436.99976 16.638052 
" style="fill: none; stroke: #000000; stroke-width: 0.8; stroke-linejoin: miter; stroke-linecap: square"/>
   </g>
  </g>
 </g>
 <defs>
  <clipPath id="pa9292338c3">
   <rect x="36.457115" y="16.638052" width="241.620904" height="230.262958"/>
  </clipPath>
  <clipPath id="p0cfe314056">
   <rect x="337.820318" y="16.638052" width="241.620904" height="230.262958"/>
  </clipPath>
  <clipPath id="p0427c1ea18">
   <rect x="626.425213" y="16.638052" width="241.620904" height="230.262958"/>
  </clipPath>
  <clipPath id="pc9be82f515">
   <rect x="898.861597" y="16.638052" width="241.620904" height="230.262958"/>
  </clipPath>
  <clipPath id="p31cd22644c">
   <rect x="1195.378856" y="16.638052" width="241.620904" height="230.262958"/>
  </clipPath>
 </defs>
</svg>
