<?xml version="1.0" encoding="utf-8" standalone="no"?>
<!DOCTYPE svg PUBLIC "-//W3C//DTD SVG 1.1//EN"
  "http://www.w3.org/Graphics/SVG/1.1/DTD/svg11.dtd">
<svg xmlns:xlink="http://www.w3.org/1999/xlink" width="1440pt" height="288pt" viewBox="0 0 1440 288" xmlns="http://www.w3.org/2000/svg" version="1.1">
 <metadata>
  <rdf:RDF xmlns:dc="http://purl.org/dc/elements/1.1/" xmlns:cc="http://creativecommons.org/ns#" xmlns:rdf="http://www.w3.org/1999/02/22-rdf-syntax-ns#">
   <cc:Work>
    <dc:type rdf:resource="http://purl.org/dc/dcmitype/StillImage"/>
    <dc:date>2024-11-24T11:30:35.328969</dc:date>
    <dc:format>image/svg+xml</dc:format>
    <dc:creator>
     <cc:Agent>
      <dc:title>Matplotlib v3.9.2, https://matplotlib.org/</dc:title>
     </cc:Agent>
    </dc:creator>
   </cc:Work>
  </rdf:RDF>
 </metadata>
 <defs>
  <style type="text/css">*{stroke-linejoin: round; stroke-linecap: butt}</style>
 </defs>
 <g id="figure_1">
  <g id="patch_1">
   <path d="M 0 288 
L 1440 288 
L 1440 0 
L 0 0 
z
" style="fill: #ffffff"/>
  </g>
  <g id="axes_1">
   <g id="patch_2">
    <path d="M 36.457115 246.90101 
L 276.961681 246.90101 
L 276.961681 16.638052 
L 36.457115 16.638052 
z
" style="fill: #ffffff"/>
   </g>
   <g id="patch_3">
    <path d="M 47.389141 246.90101 
L 49.38416 246.90101 
L 49.38416 246.025569 
L 47.389141 246.025569 
z
" clip-path="url(#p800f92ddf4)" style="fill: #1f77b4"/>
   </g>
   <g id="patch_4">
    <path d="M 49.605829 246.90101 
L 51.600848 246.90101 
L 51.600848 246.025569 
L 49.605829 246.025569 
z
" clip-path="url(#p800f92ddf4)" style="fill: #1f77b4"/>
   </g>
   <g id="patch_5">
    <path d="M 51.822517 246.90101 
L 53.817536 246.90101 
L 53.817536 245.150127 
L 51.822517 245.150127 
z
" clip-path="url(#p800f92ddf4)" style="fill: #1f77b4"/>
   </g>
   <g id="patch_6">
    <path d="M 54.039205 246.90101 
L 56.034224 246.90101 
L 56.034224 241.210641 
L 54.039205 241.210641 
z
" clip-path="url(#p800f92ddf4)" style="fill: #1f77b4"/>
   </g>
   <g id="patch_7">
    <path d="M 56.255893 246.90101 
L 58.250912 246.90101 
L 58.250912 240.772921 
L 56.255893 240.772921 
z
" clip-path="url(#p800f92ddf4)" style="fill: #1f77b4"/>
   </g>
   <g id="patch_8">
    <path d="M 58.472581 246.90101 
L 60.4676 246.90101 
L 60.4676 230.267625 
L 58.472581 230.267625 
z
" clip-path="url(#p800f92ddf4)" style="fill: #1f77b4"/>
   </g>
   <g id="patch_9">
    <path d="M 60.689269 246.90101 
L 62.684288 246.90101 
L 62.684288 222.826373 
L 60.689269 222.826373 
z
" clip-path="url(#p800f92ddf4)" style="fill: #1f77b4"/>
   </g>
   <g id="patch_10">
    <path d="M 62.905957 246.90101 
L 64.900976 246.90101 
L 64.900976 206.630709 
L 62.905957 206.630709 
z
" clip-path="url(#p800f92ddf4)" style="fill: #1f77b4"/>
   </g>
   <g id="patch_11">
    <path d="M 65.122645 246.90101 
L 67.117664 246.90101 
L 67.117664 182.118351 
L 65.122645 182.118351 
z
" clip-path="url(#p800f92ddf4)" style="fill: #1f77b4"/>
   </g>
   <g id="patch_12">
    <path d="M 67.339333 246.90101 
L 69.334352 246.90101 
L 69.334352 154.97967 
L 67.339333 154.97967 
z
" clip-path="url(#p800f92ddf4)" style="fill: #1f77b4"/>
   </g>
   <g id="patch_13">
    <path d="M 69.556021 246.90101 
L 71.55104 246.90101 
L 71.55104 119.086575 
L 69.556021 119.086575 
z
" clip-path="url(#p800f92ddf4)" style="fill: #1f77b4"/>
   </g>
   <g id="patch_14">
    <path d="M 71.772709 246.90101 
L 73.767728 246.90101 
L 73.767728 95.449659 
L 71.772709 95.449659 
z
" clip-path="url(#p800f92ddf4)" style="fill: #1f77b4"/>
   </g>
   <g id="patch_15">
    <path d="M 73.989397 246.90101 
L 75.984416 246.90101 
L 75.984416 56.492519 
L 73.989397 56.492519 
z
" clip-path="url(#p800f92ddf4)" style="fill: #1f77b4"/>
   </g>
   <g id="patch_16">
    <path d="M 76.206085 246.90101 
L 78.201104 246.90101 
L 78.201104 33.293324 
L 76.206085 33.293324 
z
" clip-path="url(#p800f92ddf4)" style="fill: #1f77b4"/>
   </g>
   <g id="patch_17">
    <path d="M 78.422773 246.90101 
L 80.417792 246.90101 
L 80.417792 28.916117 
L 78.422773 28.916117 
z
" clip-path="url(#p800f92ddf4)" style="fill: #1f77b4"/>
   </g>
   <g id="patch_18">
    <path d="M 80.639461 246.90101 
L 82.63448 246.90101 
L 82.63448 27.602955 
L 80.639461 27.602955 
z
" clip-path="url(#p800f92ddf4)" style="fill: #1f77b4"/>
   </g>
   <g id="patch_19">
    <path d="M 82.856149 246.90101 
L 84.851168 246.90101 
L 84.851168 41.610017 
L 82.856149 41.610017 
z
" clip-path="url(#p800f92ddf4)" style="fill: #1f77b4"/>
   </g>
   <g id="patch_20">
    <path d="M 85.072837 246.90101 
L 87.067856 246.90101 
L 87.067856 74.001346 
L 85.072837 74.001346 
z
" clip-path="url(#p800f92ddf4)" style="fill: #1f77b4"/>
   </g>
   <g id="patch_21">
    <path d="M 87.289525 246.90101 
L 89.284544 246.90101 
L 89.284544 110.332162 
L 87.289525 110.332162 
z
" clip-path="url(#p800f92ddf4)" style="fill: #1f77b4"/>
   </g>
   <g id="patch_22">
    <path d="M 89.506213 246.90101 
L 91.501232 246.90101 
L 91.501232 146.662977 
L 89.506213 146.662977 
z
" clip-path="url(#p800f92ddf4)" style="fill: #1f77b4"/>
   </g>
   <g id="patch_23">
    <path d="M 91.722901 246.90101 
L 93.71792 246.90101 
L 93.71792 165.484966 
L 91.722901 165.484966 
z
" clip-path="url(#p800f92ddf4)" style="fill: #1f77b4"/>
   </g>
   <g id="patch_24">
    <path d="M 93.939589 246.90101 
L 95.934608 246.90101 
L 95.934608 195.687692 
L 93.939589 195.687692 
z
" clip-path="url(#p800f92ddf4)" style="fill: #1f77b4"/>
   </g>
   <g id="patch_25">
    <path d="M 96.156277 246.90101 
L 98.151296 246.90101 
L 98.151296 214.509681 
L 96.156277 214.509681 
z
" clip-path="url(#p800f92ddf4)" style="fill: #1f77b4"/>
   </g>
   <g id="patch_26">
    <path d="M 98.372965 246.90101 
L 100.367984 246.90101 
L 100.367984 233.331669 
L 98.372965 233.331669 
z
" clip-path="url(#p800f92ddf4)" style="fill: #1f77b4"/>
   </g>
   <g id="patch_27">
    <path d="M 100.589653 246.90101 
L 102.584672 246.90101 
L 102.584672 236.833435 
L 100.589653 236.833435 
z
" clip-path="url(#p800f92ddf4)" style="fill: #1f77b4"/>
   </g>
   <g id="patch_28">
    <path d="M 102.806341 246.90101 
L 104.80136 246.90101 
L 104.80136 240.772921 
L 102.806341 240.772921 
z
" clip-path="url(#p800f92ddf4)" style="fill: #1f77b4"/>
   </g>
   <g id="patch_29">
    <path d="M 105.023029 246.90101 
L 107.018048 246.90101 
L 107.018048 243.399245 
L 105.023029 243.399245 
z
" clip-path="url(#p800f92ddf4)" style="fill: #1f77b4"/>
   </g>
   <g id="patch_30">
    <path d="M 107.239717 246.90101 
L 109.234736 246.90101 
L 109.234736 245.587848 
L 107.239717 245.587848 
z
" clip-path="url(#p800f92ddf4)" style="fill: #1f77b4"/>
   </g>
   <g id="patch_31">
    <path d="M 109.456405 246.90101 
L 111.451424 246.90101 
L 111.451424 246.90101 
L 109.456405 246.90101 
z
" clip-path="url(#p800f92ddf4)" style="fill: #1f77b4"/>
   </g>
   <g id="patch_32">
    <path d="M 111.673093 246.90101 
L 113.668112 246.90101 
L 113.668112 246.463289 
L 111.673093 246.463289 
z
" clip-path="url(#p800f92ddf4)" style="fill: #1f77b4"/>
   </g>
   <g id="matplotlib.axis_1">
    <g id="xtick_1">
     <g id="line2d_1">
      <defs>
       <path id="mb3405e2dde" d="M 0 0 
L 0 3.5 
" style="stroke: #000000; stroke-width: 0.8"/>
      </defs>
      <g>
       <use xlink:href="#mb3405e2dde" x="56.339248" y="246.90101" style="stroke: #000000; stroke-width: 0.8"/>
      </g>
     </g>
     <g id="text_1">
      <!-- 1.35 -->
      <g transform="translate(40.753311 264.538822) scale(0.14 -0.14)">
       <defs>
        <path id="DejaVuSans-31" d="M 794 531 
L 1825 531 
L 1825 4091 
L 703 3866 
L 703 4441 
L 1819 4666 
L 2450 4666 
L 2450 531 
L 3481 531 
L 3481 0 
L 794 0 
L 794 531 
z
" transform="scale(0.015625)"/>
        <path id="DejaVuSans-2e" d="M 684 794 
L 1344 794 
L 1344 0 
L 684 0 
L 684 794 
z
" transform="scale(0.015625)"/>
        <path id="DejaVuSans-33" d="M 2597 2516 
Q 3050 2419 3304 2112 
Q 3559 1806 3559 1356 
Q 3559 666 3084 287 
Q 2609 -91 1734 -91 
Q 1441 -91 1130 -33 
Q 819 25 488 141 
L 488 750 
Q 750 597 1062 519 
Q 1375 441 1716 441 
Q 2309 441 2620 675 
Q 2931 909 2931 1356 
Q 2931 1769 2642 2001 
Q 2353 2234 1838 2234 
L 1294 2234 
L 1294 2753 
L 1863 2753 
Q 2328 2753 2575 2939 
Q 2822 3125 2822 3475 
Q 2822 3834 2567 4026 
Q 2313 4219 1838 4219 
Q 1578 4219 1281 4162 
Q 984 4106 628 3988 
L 628 4550 
Q 988 4650 1302 4700 
Q 1616 4750 1894 4750 
Q 2613 4750 3031 4423 
Q 3450 4097 3450 3541 
Q 3450 3153 3228 2886 
Q 3006 2619 2597 2516 
z
" transform="scale(0.015625)"/>
        <path id="DejaVuSans-35" d="M 691 4666 
L 3169 4666 
L 3169 4134 
L 1269 4134 
L 1269 2991 
Q 1406 3038 1543 3061 
Q 1681 3084 1819 3084 
Q 2600 3084 3056 2656 
Q 3513 2228 3513 1497 
Q 3513 744 3044 326 
Q 2575 -91 1722 -91 
Q 1428 -91 1123 -41 
Q 819 9 494 109 
L 494 744 
Q 775 591 1075 516 
Q 1375 441 1709 441 
Q 2250 441 2565 725 
Q 2881 1009 2881 1497 
Q 2881 1984 2565 2268 
Q 2250 2553 1709 2553 
Q 1456 2553 1204 2497 
Q 953 2441 691 2322 
L 691 4666 
z
" transform="scale(0.015625)"/>
       </defs>
       <use xlink:href="#DejaVuSans-31"/>
       <use xlink:href="#DejaVuSans-2e" x="63.623047"/>
       <use xlink:href="#DejaVuSans-33" x="95.410156"/>
       <use xlink:href="#DejaVuSans-35" x="159.033203"/>
      </g>
     </g>
    </g>
    <g id="xtick_2">
     <g id="line2d_2">
      <g>
       <use xlink:href="#mb3405e2dde" x="109.291371" y="246.90101" style="stroke: #000000; stroke-width: 0.8"/>
      </g>
     </g>
     <g id="text_2">
      <!-- 1.40 -->
      <g transform="translate(93.705434 264.538822) scale(0.14 -0.14)">
       <defs>
        <path id="DejaVuSans-34" d="M 2419 4116 
L 825 1625 
L 2419 1625 
L 2419 4116 
z
M 2253 4666 
L 3047 4666 
L 3047 1625 
L 3713 1625 
L 3713 1100 
L 3047 1100 
L 3047 0 
L 2419 0 
L 2419 1100 
L 313 1100 
L 313 1709 
L 2253 4666 
z
" transform="scale(0.015625)"/>
        <path id="DejaVuSans-30" d="M 2034 4250 
Q 1547 4250 1301 3770 
Q 1056 3291 1056 2328 
Q 1056 1369 1301 889 
Q 1547 409 2034 409 
Q 2525 409 2770 889 
Q 3016 1369 3016 2328 
Q 3016 3291 2770 3770 
Q 2525 4250 2034 4250 
z
M 2034 4750 
Q 2819 4750 3233 4129 
Q 3647 3509 3647 2328 
Q 3647 1150 3233 529 
Q 2819 -91 2034 -91 
Q 1250 -91 836 529 
Q 422 1150 422 2328 
Q 422 3509 836 4129 
Q 1250 4750 2034 4750 
z
" transform="scale(0.015625)"/>
       </defs>
       <use xlink:href="#DejaVuSans-31"/>
       <use xlink:href="#DejaVuSans-2e" x="63.623047"/>
       <use xlink:href="#DejaVuSans-34" x="95.410156"/>
       <use xlink:href="#DejaVuSans-30" x="159.033203"/>
      </g>
     </g>
    </g>
    <g id="xtick_3">
     <g id="line2d_3">
      <g>
       <use xlink:href="#mb3405e2dde" x="162.243494" y="246.90101" style="stroke: #000000; stroke-width: 0.8"/>
      </g>
     </g>
     <g id="text_3">
      <!-- 1.45 -->
      <g transform="translate(146.657557 264.538822) scale(0.14 -0.14)">
       <use xlink:href="#DejaVuSans-31"/>
       <use xlink:href="#DejaVuSans-2e" x="63.623047"/>
       <use xlink:href="#DejaVuSans-34" x="95.410156"/>
       <use xlink:href="#DejaVuSans-35" x="159.033203"/>
      </g>
     </g>
    </g>
    <g id="xtick_4">
     <g id="line2d_4">
      <g>
       <use xlink:href="#mb3405e2dde" x="215.195617" y="246.90101" style="stroke: #000000; stroke-width: 0.8"/>
      </g>
     </g>
     <g id="text_4">
      <!-- 1.50 -->
      <g transform="translate(199.60968 264.538822) scale(0.14 -0.14)">
       <use xlink:href="#DejaVuSans-31"/>
       <use xlink:href="#DejaVuSans-2e" x="63.623047"/>
       <use xlink:href="#DejaVuSans-35" x="95.410156"/>
       <use xlink:href="#DejaVuSans-30" x="159.033203"/>
      </g>
     </g>
    </g>
    <g id="xtick_5">
     <g id="line2d_5">
      <g>
       <use xlink:href="#mb3405e2dde" x="268.14774" y="246.90101" style="stroke: #000000; stroke-width: 0.8"/>
      </g>
     </g>
     <g id="text_5">
      <!-- 1.55 -->
      <g transform="translate(252.561803 264.538822) scale(0.14 -0.14)">
       <use xlink:href="#DejaVuSans-31"/>
       <use xlink:href="#DejaVuSans-2e" x="63.623047"/>
       <use xlink:href="#DejaVuSans-35" x="95.410156"/>
       <use xlink:href="#DejaVuSans-35" x="159.033203"/>
      </g>
     </g>
    </g>
    <g id="text_6">
     <!-- $E_1$ [MPa] -->
     <g transform="translate(126.679398 282.088197) scale(0.14 -0.14)">
      <defs>
       <path id="DejaVuSans-Oblique-45" d="M 1081 4666 
L 4031 4666 
L 3928 4134 
L 1606 4134 
L 1338 2753 
L 3566 2753 
L 3463 2222 
L 1234 2222 
L 909 531 
L 3284 531 
L 3181 0 
L 172 0 
L 1081 4666 
z
" transform="scale(0.015625)"/>
       <path id="DejaVuSans-20" transform="scale(0.015625)"/>
       <path id="DejaVuSans-5b" d="M 550 4863 
L 1875 4863 
L 1875 4416 
L 1125 4416 
L 1125 -397 
L 1875 -397 
L 1875 -844 
L 550 -844 
L 550 4863 
z
" transform="scale(0.015625)"/>
       <path id="DejaVuSans-4d" d="M 628 4666 
L 1569 4666 
L 2759 1491 
L 3956 4666 
L 4897 4666 
L 4897 0 
L 4281 0 
L 4281 4097 
L 3078 897 
L 2444 897 
L 1241 4097 
L 1241 0 
L 628 0 
L 628 4666 
z
" transform="scale(0.015625)"/>
       <path id="DejaVuSans-50" d="M 1259 4147 
L 1259 2394 
L 2053 2394 
Q 2494 2394 2734 2622 
Q 2975 2850 2975 3272 
Q 2975 3691 2734 3919 
Q 2494 4147 2053 4147 
L 1259 4147 
z
M 628 4666 
L 2053 4666 
Q 2838 4666 3239 4311 
Q 3641 3956 3641 3272 
Q 3641 2581 3239 2228 
Q 2838 1875 2053 1875 
L 1259 1875 
L 1259 0 
L 628 0 
L 628 4666 
z
" transform="scale(0.015625)"/>
       <path id="DejaVuSans-61" d="M 2194 1759 
Q 1497 1759 1228 1600 
Q 959 1441 959 1056 
Q 959 750 1161 570 
Q 1363 391 1709 391 
Q 2188 391 2477 730 
Q 2766 1069 2766 1631 
L 2766 1759 
L 2194 1759 
z
M 3341 1997 
L 3341 0 
L 2766 0 
L 2766 531 
Q 2569 213 2275 61 
Q 1981 -91 1556 -91 
Q 1019 -91 701 211 
Q 384 513 384 1019 
Q 384 1609 779 1909 
Q 1175 2209 1959 2209 
L 2766 2209 
L 2766 2266 
Q 2766 2663 2505 2880 
Q 2244 3097 1772 3097 
Q 1472 3097 1187 3025 
Q 903 2953 641 2809 
L 641 3341 
Q 956 3463 1253 3523 
Q 1550 3584 1831 3584 
Q 2591 3584 2966 3190 
Q 3341 2797 3341 1997 
z
" transform="scale(0.015625)"/>
       <path id="DejaVuSans-5d" d="M 1947 4863 
L 1947 -844 
L 622 -844 
L 622 -397 
L 1369 -397 
L 1369 4416 
L 622 4416 
L 622 4863 
L 1947 4863 
z
" transform="scale(0.015625)"/>
      </defs>
      <use xlink:href="#DejaVuSans-Oblique-45" transform="translate(0 0.015625)"/>
      <use xlink:href="#DejaVuSans-31" transform="translate(63.183594 -16.390625) scale(0.7)"/>
      <use xlink:href="#DejaVuSans-20" transform="translate(110.454102 0.015625)"/>
      <use xlink:href="#DejaVuSans-5b" transform="translate(142.241211 0.015625)"/>
      <use xlink:href="#DejaVuSans-4d" transform="translate(181.254883 0.015625)"/>
      <use xlink:href="#DejaVuSans-50" transform="translate(267.53418 0.015625)"/>
      <use xlink:href="#DejaVuSans-61" transform="translate(327.836914 0.015625)"/>
      <use xlink:href="#DejaVuSans-5d" transform="translate(389.116211 0.015625)"/>
     </g>
    </g>
    <g id="text_7">
     <!-- 1e5 -->
     <g transform="translate(250.532306 281.088197) scale(0.14 -0.14)">
      <defs>
       <path id="DejaVuSans-65" d="M 3597 1894 
L 3597 1613 
L 953 1613 
Q 991 1019 1311 708 
Q 1631 397 2203 397 
Q 2534 397 2845 478 
Q 3156 559 3463 722 
L 3463 178 
Q 3153 47 2828 -22 
Q 2503 -91 2169 -91 
Q 1331 -91 842 396 
Q 353 884 353 1716 
Q 353 2575 817 3079 
Q 1281 3584 2069 3584 
Q 2775 3584 3186 3129 
Q 3597 2675 3597 1894 
z
M 3022 2063 
Q 3016 2534 2758 2815 
Q 2500 3097 2075 3097 
Q 1594 3097 1305 2825 
Q 1016 2553 972 2059 
L 3022 2063 
z
" transform="scale(0.015625)"/>
      </defs>
      <use xlink:href="#DejaVuSans-31"/>
      <use xlink:href="#DejaVuSans-65" x="63.623047"/>
      <use xlink:href="#DejaVuSans-35" x="125.146484"/>
     </g>
    </g>
   </g>
   <g id="matplotlib.axis_2">
    <g id="ytick_1">
     <g id="line2d_6">
      <defs>
       <path id="m99f0e8980f" d="M 0 0 
L -3.5 0 
" style="stroke: #000000; stroke-width: 0.8"/>
      </defs>
      <g>
       <use xlink:href="#m99f0e8980f" x="36.457115" y="246.90101" style="stroke: #000000; stroke-width: 0.8"/>
      </g>
     </g>
     <g id="text_8">
      <!-- 0 -->
      <g transform="translate(20.549615 252.219916) scale(0.14 -0.14)">
       <use xlink:href="#DejaVuSans-30"/>
      </g>
     </g>
    </g>
    <g id="ytick_2">
     <g id="line2d_7">
      <g>
       <use xlink:href="#m99f0e8980f" x="36.457115" y="201.091224" style="stroke: #000000; stroke-width: 0.8"/>
      </g>
     </g>
     <g id="text_9">
      <!-- 1 -->
      <g transform="translate(20.549615 206.410131) scale(0.14 -0.14)">
       <use xlink:href="#DejaVuSans-31"/>
      </g>
     </g>
    </g>
    <g id="ytick_3">
     <g id="line2d_8">
      <g>
       <use xlink:href="#m99f0e8980f" x="36.457115" y="155.281439" style="stroke: #000000; stroke-width: 0.8"/>
      </g>
     </g>
     <g id="text_10">
      <!-- 2 -->
      <g transform="translate(20.549615 160.600345) scale(0.14 -0.14)">
       <defs>
        <path id="DejaVuSans-32" d="M 1228 531 
L 3431 531 
L 3431 0 
L 469 0 
L 469 531 
Q 828 903 1448 1529 
Q 2069 2156 2228 2338 
Q 2531 2678 2651 2914 
Q 2772 3150 2772 3378 
Q 2772 3750 2511 3984 
Q 2250 4219 1831 4219 
Q 1534 4219 1204 4116 
Q 875 4013 500 3803 
L 500 4441 
Q 881 4594 1212 4672 
Q 1544 4750 1819 4750 
Q 2544 4750 2975 4387 
Q 3406 4025 3406 3419 
Q 3406 3131 3298 2873 
Q 3191 2616 2906 2266 
Q 2828 2175 2409 1742 
Q 1991 1309 1228 531 
z
" transform="scale(0.015625)"/>
       </defs>
       <use xlink:href="#DejaVuSans-32"/>
      </g>
     </g>
    </g>
    <g id="ytick_4">
     <g id="line2d_9">
      <g>
       <use xlink:href="#m99f0e8980f" x="36.457115" y="109.471653" style="stroke: #000000; stroke-width: 0.8"/>
      </g>
     </g>
     <g id="text_11">
      <!-- 3 -->
      <g transform="translate(20.549615 114.79056) scale(0.14 -0.14)">
       <use xlink:href="#DejaVuSans-33"/>
      </g>
     </g>
    </g>
    <g id="ytick_5">
     <g id="line2d_10">
      <g>
       <use xlink:href="#m99f0e8980f" x="36.457115" y="63.661868" style="stroke: #000000; stroke-width: 0.8"/>
      </g>
     </g>
     <g id="text_12">
      <!-- 4 -->
      <g transform="translate(20.549615 68.980774) scale(0.14 -0.14)">
       <use xlink:href="#DejaVuSans-34"/>
      </g>
     </g>
    </g>
    <g id="ytick_6">
     <g id="line2d_11">
      <g>
       <use xlink:href="#m99f0e8980f" x="36.457115" y="17.852082" style="stroke: #000000; stroke-width: 0.8"/>
      </g>
     </g>
     <g id="text_13">
      <!-- 5 -->
      <g transform="translate(20.549615 23.170989) scale(0.14 -0.14)">
       <use xlink:href="#DejaVuSans-35"/>
      </g>
     </g>
    </g>
    <g id="text_14">
     <!-- PDF -->
     <g transform="translate(13.638053 145.406406) rotate(-90) scale(0.14 -0.14)">
      <defs>
       <path id="DejaVuSans-44" d="M 1259 4147 
L 1259 519 
L 2022 519 
Q 2988 519 3436 956 
Q 3884 1394 3884 2338 
Q 3884 3275 3436 3711 
Q 2988 4147 2022 4147 
L 1259 4147 
z
M 628 4666 
L 1925 4666 
Q 3281 4666 3915 4102 
Q 4550 3538 4550 2338 
Q 4550 1131 3912 565 
Q 3275 0 1925 0 
L 628 0 
L 628 4666 
z
" transform="scale(0.015625)"/>
       <path id="DejaVuSans-46" d="M 628 4666 
L 3309 4666 
L 3309 4134 
L 1259 4134 
L 1259 2759 
L 3109 2759 
L 3109 2228 
L 1259 2228 
L 1259 0 
L 628 0 
L 628 4666 
z
" transform="scale(0.015625)"/>
      </defs>
      <use xlink:href="#DejaVuSans-50"/>
      <use xlink:href="#DejaVuSans-44" x="60.302734"/>
      <use xlink:href="#DejaVuSans-46" x="137.304688"/>
     </g>
    </g>
    <g id="text_15">
     <!-- 1e−4 -->
     <g transform="translate(36.457115 13.638052) scale(0.14 -0.14)">
      <defs>
       <path id="DejaVuSans-2212" d="M 678 2272 
L 4684 2272 
L 4684 1741 
L 678 1741 
L 678 2272 
z
" transform="scale(0.015625)"/>
      </defs>
      <use xlink:href="#DejaVuSans-31"/>
      <use xlink:href="#DejaVuSans-65" x="63.623047"/>
      <use xlink:href="#DejaVuSans-2212" x="125.146484"/>
      <use xlink:href="#DejaVuSans-34" x="208.935547"/>
     </g>
    </g>
   </g>
   <g id="line2d_12">
    <path d="M 138.94456 245.8859 
L 140.228248 245.685725 
L 141.511936 245.451411 
L 142.795623 245.178258 
L 144.079311 244.861142 
L 145.362999 244.494508 
L 146.646687 244.072386 
L 147.930375 243.588409 
L 149.214063 243.035848 
L 150.49775 242.407652 
L 151.781438 241.696507 
L 153.065126 240.894914 
L 154.348814 239.995273 
L 155.632502 238.989988 
L 156.91619 237.871588 
L 158.199877 236.632862 
L 159.483565 235.267009 
L 160.767253 233.767801 
L 162.050941 232.129755 
L 163.334629 230.348314 
L 164.618317 228.420035 
L 165.902004 226.342775 
L 167.185692 224.115878 
L 168.46938 221.740347 
L 169.753068 219.219014 
L 171.036756 216.556683 
L 172.320444 213.760253 
L 173.604131 210.838817 
L 174.887819 207.803721 
L 176.171507 204.668593 
L 177.455195 201.44932 
L 178.738883 198.163995 
L 180.022571 194.832805 
L 181.306258 191.477875 
L 182.589946 188.12307 
L 183.873634 184.793741 
L 185.157322 181.516436 
L 186.44101 178.318565 
L 187.724698 175.228037 
L 189.008385 172.272861 
L 190.292073 169.480734 
L 191.575761 166.878613 
L 192.859449 164.492285 
L 194.143137 162.345945 
L 195.426825 160.461786 
L 196.710512 158.859622 
L 197.9942 157.556535 
L 199.277888 156.566579 
L 200.561576 155.900522 
L 201.845264 155.565654 
L 203.128952 155.565654 
L 204.412639 155.900522 
L 205.696327 156.566579 
L 206.980015 157.556535 
L 208.263703 158.859622 
L 209.547391 160.461786 
L 210.831078 162.345945 
L 212.114766 164.492285 
L 213.398454 166.878613 
L 214.682142 169.480734 
L 215.96583 172.272861 
L 217.249518 175.228037 
L 218.533205 178.318565 
L 219.816893 181.516436 
L 221.100581 184.793741 
L 222.384269 188.12307 
L 223.667957 191.477875 
L 224.951645 194.832805 
L 226.235332 198.163995 
L 227.51902 201.44932 
L 228.802708 204.668593 
L 230.086396 207.803721 
L 231.370084 210.838817 
L 232.653772 213.760253 
L 233.937459 216.556683 
L 235.221147 219.219014 
L 236.504835 221.740347 
L 237.788523 224.115878 
L 239.072211 226.342775 
L 240.355899 228.420035 
L 241.639586 230.348314 
L 242.923274 232.129755 
L 244.206962 233.767801 
L 245.49065 235.267009 
L 246.774338 236.632862 
L 248.058026 237.871588 
L 249.341713 238.989988 
L 250.625401 239.995273 
L 251.909089 240.894914 
L 253.192777 241.696507 
L 254.476465 242.407652 
L 255.760153 243.035848 
L 257.04384 243.588409 
L 258.327528 244.072386 
L 259.611216 244.494508 
L 260.894904 244.861142 
L 262.178592 245.178258 
L 263.46228 245.451411 
L 264.745967 245.685725 
L 266.029655 245.8859 
" clip-path="url(#p800f92ddf4)" style="fill: none; stroke: #2ca02c; stroke-width: 1.5; stroke-linecap: square"/>
   </g>
   <g id="patch_33">
    <path d="M 36.457115 246.90101 
L 36.457115 16.638052 
" style="fill: none; stroke: #000000; stroke-width: 0.8; stroke-linejoin: miter; stroke-linecap: square"/>
   </g>
   <g id="patch_34">
    <path d="M 276.961681 246.90101 
L 276.961681 16.638052 
" style="fill: none; stroke: #000000; stroke-width: 0.8; stroke-linejoin: miter; stroke-linecap: square"/>
   </g>
   <g id="patch_35">
    <path d="M 36.457115 246.90101 
L 276.961681 246.90101 
" style="fill: none; stroke: #000000; stroke-width: 0.8; stroke-linejoin: miter; stroke-linecap: square"/>
   </g>
   <g id="patch_36">
    <path d="M 36.457115 16.638052 
L 276.961681 16.638052 
" style="fill: none; stroke: #000000; stroke-width: 0.8; stroke-linejoin: miter; stroke-linecap: square"/>
   </g>
   <g id="legend_1">
    <g id="patch_37">
     <path d="M 160.499181 68.936802 
L 267.161681 68.936802 
Q 269.961681 68.936802 269.961681 66.136802 
L 269.961681 26.438053 
Q 269.961681 23.638053 267.161681 23.638053 
L 160.499181 23.638053 
Q 157.699181 23.638053 157.699181 26.438053 
L 157.699181 66.136802 
Q 157.699181 68.936802 160.499181 68.936802 
z
" style="fill: #ffffff; opacity: 0.8; stroke: #cccccc; stroke-linejoin: miter"/>
    </g>
    <g id="line2d_13">
     <path d="M 163.299181 34.975865 
L 177.299181 34.975865 
L 191.299181 34.975865 
" style="fill: none; stroke: #2ca02c; stroke-width: 1.5; stroke-linecap: square"/>
    </g>
    <g id="text_16">
     <!-- Prior -->
     <g transform="translate(202.499181 39.875865) scale(0.14 -0.14)">
      <defs>
       <path id="DejaVuSans-72" d="M 2631 2963 
Q 2534 3019 2420 3045 
Q 2306 3072 2169 3072 
Q 1681 3072 1420 2755 
Q 1159 2438 1159 1844 
L 1159 0 
L 581 0 
L 581 3500 
L 1159 3500 
L 1159 2956 
Q 1341 3275 1631 3429 
Q 1922 3584 2338 3584 
Q 2397 3584 2469 3576 
Q 2541 3569 2628 3553 
L 2631 2963 
z
" transform="scale(0.015625)"/>
       <path id="DejaVuSans-69" d="M 603 3500 
L 1178 3500 
L 1178 0 
L 603 0 
L 603 3500 
z
M 603 4863 
L 1178 4863 
L 1178 4134 
L 603 4134 
L 603 4863 
z
" transform="scale(0.015625)"/>
       <path id="DejaVuSans-6f" d="M 1959 3097 
Q 1497 3097 1228 2736 
Q 959 2375 959 1747 
Q 959 1119 1226 758 
Q 1494 397 1959 397 
Q 2419 397 2687 759 
Q 2956 1122 2956 1747 
Q 2956 2369 2687 2733 
Q 2419 3097 1959 3097 
z
M 1959 3584 
Q 2709 3584 3137 3096 
Q 3566 2609 3566 1747 
Q 3566 888 3137 398 
Q 2709 -91 1959 -91 
Q 1206 -91 779 398 
Q 353 888 353 1747 
Q 353 2609 779 3096 
Q 1206 3584 1959 3584 
z
" transform="scale(0.015625)"/>
      </defs>
      <use xlink:href="#DejaVuSans-50"/>
      <use xlink:href="#DejaVuSans-72" x="58.552734"/>
      <use xlink:href="#DejaVuSans-69" x="99.666016"/>
      <use xlink:href="#DejaVuSans-6f" x="127.449219"/>
      <use xlink:href="#DejaVuSans-72" x="188.630859"/>
     </g>
    </g>
    <g id="patch_38">
     <path d="M 163.299181 60.42524 
L 191.299181 60.42524 
L 191.299181 50.62524 
L 163.299181 50.62524 
z
" style="fill: #1f77b4"/>
    </g>
    <g id="text_17">
     <!-- Posterior -->
     <g transform="translate(202.499181 60.42524) scale(0.14 -0.14)">
      <defs>
       <path id="DejaVuSans-73" d="M 2834 3397 
L 2834 2853 
Q 2591 2978 2328 3040 
Q 2066 3103 1784 3103 
Q 1356 3103 1142 2972 
Q 928 2841 928 2578 
Q 928 2378 1081 2264 
Q 1234 2150 1697 2047 
L 1894 2003 
Q 2506 1872 2764 1633 
Q 3022 1394 3022 966 
Q 3022 478 2636 193 
Q 2250 -91 1575 -91 
Q 1294 -91 989 -36 
Q 684 19 347 128 
L 347 722 
Q 666 556 975 473 
Q 1284 391 1588 391 
Q 1994 391 2212 530 
Q 2431 669 2431 922 
Q 2431 1156 2273 1281 
Q 2116 1406 1581 1522 
L 1381 1569 
Q 847 1681 609 1914 
Q 372 2147 372 2553 
Q 372 3047 722 3315 
Q 1072 3584 1716 3584 
Q 2034 3584 2315 3537 
Q 2597 3491 2834 3397 
z
" transform="scale(0.015625)"/>
       <path id="DejaVuSans-74" d="M 1172 4494 
L 1172 3500 
L 2356 3500 
L 2356 3053 
L 1172 3053 
L 1172 1153 
Q 1172 725 1289 603 
Q 1406 481 1766 481 
L 2356 481 
L 2356 0 
L 1766 0 
Q 1100 0 847 248 
Q 594 497 594 1153 
L 594 3053 
L 172 3053 
L 172 3500 
L 594 3500 
L 594 4494 
L 1172 4494 
z
" transform="scale(0.015625)"/>
      </defs>
      <use xlink:href="#DejaVuSans-50"/>
      <use xlink:href="#DejaVuSans-6f" x="56.677734"/>
      <use xlink:href="#DejaVuSans-73" x="117.859375"/>
      <use xlink:href="#DejaVuSans-74" x="169.958984"/>
      <use xlink:href="#DejaVuSans-65" x="209.167969"/>
      <use xlink:href="#DejaVuSans-72" x="270.691406"/>
      <use xlink:href="#DejaVuSans-69" x="311.804688"/>
      <use xlink:href="#DejaVuSans-6f" x="339.587891"/>
      <use xlink:href="#DejaVuSans-72" x="400.769531"/>
     </g>
    </g>
   </g>
  </g>
  <g id="axes_2">
   <g id="patch_39">
    <path d="M 336.813508 246.90101 
L 577.318074 246.90101 
L 577.318074 16.638052 
L 336.813508 16.638052 
z
" style="fill: #ffffff"/>
   </g>
   <g id="patch_40">
    <path d="M 347.745534 246.90101 
L 354.326687 246.90101 
L 354.326687 246.497133 
L 347.745534 246.497133 
z
" clip-path="url(#p7ed704515d)" style="fill: #1f77b4"/>
   </g>
   <g id="patch_41">
    <path d="M 355.057926 246.90101 
L 361.639078 246.90101 
L 361.639078 246.90101 
L 355.057926 246.90101 
z
" clip-path="url(#p7ed704515d)" style="fill: #1f77b4"/>
   </g>
   <g id="patch_42">
    <path d="M 362.370318 246.90101 
L 368.95147 246.90101 
L 368.95147 246.093257 
L 362.370318 246.093257 
z
" clip-path="url(#p7ed704515d)" style="fill: #1f77b4"/>
   </g>
   <g id="patch_43">
    <path d="M 369.682709 246.90101 
L 376.263862 246.90101 
L 376.263862 243.669997 
L 369.682709 243.669997 
z
" clip-path="url(#p7ed704515d)" style="fill: #1f77b4"/>
   </g>
   <g id="patch_44">
    <path d="M 376.995101 246.90101 
L 383.576254 246.90101 
L 383.576254 242.862244 
L 376.995101 242.862244 
z
" clip-path="url(#p7ed704515d)" style="fill: #1f77b4"/>
   </g>
   <g id="patch_45">
    <path d="M 384.307493 246.90101 
L 390.888645 246.90101 
L 390.888645 238.015725 
L 384.307493 238.015725 
z
" clip-path="url(#p7ed704515d)" style="fill: #1f77b4"/>
   </g>
   <g id="patch_46">
    <path d="M 391.619885 246.90101 
L 398.201037 246.90101 
L 398.201037 234.380836 
L 391.619885 234.380836 
z
" clip-path="url(#p7ed704515d)" style="fill: #1f77b4"/>
   </g>
   <g id="patch_47">
    <path d="M 398.932276 246.90101 
L 405.513429 246.90101 
L 405.513429 214.187007 
L 398.932276 214.187007 
z
" clip-path="url(#p7ed704515d)" style="fill: #1f77b4"/>
   </g>
   <g id="patch_48">
    <path d="M 406.244668 246.90101 
L 412.825821 246.90101 
L 412.825821 195.204808 
L 406.244668 195.204808 
z
" clip-path="url(#p7ed704515d)" style="fill: #1f77b4"/>
   </g>
   <g id="patch_49">
    <path d="M 413.55706 246.90101 
L 420.138213 246.90101 
L 420.138213 172.587719 
L 413.55706 172.587719 
z
" clip-path="url(#p7ed704515d)" style="fill: #1f77b4"/>
   </g>
   <g id="patch_50">
    <path d="M 420.869452 246.90101 
L 427.450604 246.90101 
L 427.450604 134.219444 
L 420.869452 134.219444 
z
" clip-path="url(#p7ed704515d)" style="fill: #1f77b4"/>
   </g>
   <g id="patch_51">
    <path d="M 428.181844 246.90101 
L 434.762996 246.90101 
L 434.762996 109.582972 
L 428.181844 109.582972 
z
" clip-path="url(#p7ed704515d)" style="fill: #1f77b4"/>
   </g>
   <g id="patch_52">
    <path d="M 435.494235 246.90101 
L 442.075388 246.90101 
L 442.075388 75.657339 
L 435.494235 75.657339 
z
" clip-path="url(#p7ed704515d)" style="fill: #1f77b4"/>
   </g>
   <g id="patch_53">
    <path d="M 442.806627 246.90101 
L 449.38778 246.90101 
L 449.38778 66.368178 
L 442.806627 66.368178 
z
" clip-path="url(#p7ed704515d)" style="fill: #1f77b4"/>
   </g>
   <g id="patch_54">
    <path d="M 450.119019 246.90101 
L 456.700172 246.90101 
L 456.700172 32.442545 
L 450.119019 32.442545 
z
" clip-path="url(#p7ed704515d)" style="fill: #1f77b4"/>
   </g>
   <g id="patch_55">
    <path d="M 457.431411 246.90101 
L 464.012563 246.90101 
L 464.012563 38.904571 
L 457.431411 38.904571 
z
" clip-path="url(#p7ed704515d)" style="fill: #1f77b4"/>
   </g>
   <g id="patch_56">
    <path d="M 464.743803 246.90101 
L 471.324955 246.90101 
L 471.324955 32.442545 
L 464.743803 32.442545 
z
" clip-path="url(#p7ed704515d)" style="fill: #1f77b4"/>
   </g>
   <g id="patch_57">
    <path d="M 472.056194 246.90101 
L 478.637347 246.90101 
L 478.637347 77.272846 
L 472.056194 77.272846 
z
" clip-path="url(#p7ed704515d)" style="fill: #1f77b4"/>
   </g>
   <g id="patch_58">
    <path d="M 479.368586 246.90101 
L 485.949739 246.90101 
L 485.949739 119.27601 
L 479.368586 119.27601 
z
" clip-path="url(#p7ed704515d)" style="fill: #1f77b4"/>
   </g>
   <g id="patch_59">
    <path d="M 486.680978 246.90101 
L 493.262131 246.90101 
L 493.262131 138.25821 
L 486.680978 138.25821 
z
" clip-path="url(#p7ed704515d)" style="fill: #1f77b4"/>
   </g>
   <g id="patch_60">
    <path d="M 493.99337 246.90101 
L 500.574522 246.90101 
L 500.574522 176.222608 
L 493.99337 176.222608 
z
" clip-path="url(#p7ed704515d)" style="fill: #1f77b4"/>
   </g>
   <g id="patch_61">
    <path d="M 501.305761 246.90101 
L 507.886914 246.90101 
L 507.886914 193.589301 
L 501.305761 193.589301 
z
" clip-path="url(#p7ed704515d)" style="fill: #1f77b4"/>
   </g>
   <g id="patch_62">
    <path d="M 508.618153 246.90101 
L 515.199306 246.90101 
L 515.199306 216.20639 
L 508.618153 216.20639 
z
" clip-path="url(#p7ed704515d)" style="fill: #1f77b4"/>
   </g>
   <g id="patch_63">
    <path d="M 515.930545 246.90101 
L 522.511698 246.90101 
L 522.511698 234.380836 
L 515.930545 234.380836 
z
" clip-path="url(#p7ed704515d)" style="fill: #1f77b4"/>
   </g>
   <g id="patch_64">
    <path d="M 523.242937 246.90101 
L 529.824089 246.90101 
L 529.824089 235.996342 
L 523.242937 235.996342 
z
" clip-path="url(#p7ed704515d)" style="fill: #1f77b4"/>
   </g>
   <g id="patch_65">
    <path d="M 530.555329 246.90101 
L 537.136481 246.90101 
L 537.136481 241.650614 
L 530.555329 241.650614 
z
" clip-path="url(#p7ed704515d)" style="fill: #1f77b4"/>
   </g>
   <g id="patch_66">
    <path d="M 537.86772 246.90101 
L 544.448873 246.90101 
L 544.448873 245.285504 
L 537.86772 245.285504 
z
" clip-path="url(#p7ed704515d)" style="fill: #1f77b4"/>
   </g>
   <g id="patch_67">
    <path d="M 545.180112 246.90101 
L 551.761265 246.90101 
L 551.761265 246.497133 
L 545.180112 246.497133 
z
" clip-path="url(#p7ed704515d)" style="fill: #1f77b4"/>
   </g>
   <g id="patch_68">
    <path d="M 552.492504 246.90101 
L 559.073657 246.90101 
L 559.073657 246.497133 
L 552.492504 246.497133 
z
" clip-path="url(#p7ed704515d)" style="fill: #1f77b4"/>
   </g>
   <g id="patch_69">
    <path d="M 559.804896 246.90101 
L 566.386048 246.90101 
L 566.386048 246.497133 
L 559.804896 246.497133 
z
" clip-path="url(#p7ed704515d)" style="fill: #1f77b4"/>
   </g>
   <g id="matplotlib.axis_3">
    <g id="xtick_6">
     <g id="line2d_14">
      <g>
       <use xlink:href="#mb3405e2dde" x="354.69489" y="246.90101" style="stroke: #000000; stroke-width: 0.8"/>
      </g>
     </g>
     <g id="text_18">
      <!-- 8800 -->
      <g transform="translate(336.87989 264.538822) scale(0.14 -0.14)">
       <defs>
        <path id="DejaVuSans-38" d="M 2034 2216 
Q 1584 2216 1326 1975 
Q 1069 1734 1069 1313 
Q 1069 891 1326 650 
Q 1584 409 2034 409 
Q 2484 409 2743 651 
Q 3003 894 3003 1313 
Q 3003 1734 2745 1975 
Q 2488 2216 2034 2216 
z
M 1403 2484 
Q 997 2584 770 2862 
Q 544 3141 544 3541 
Q 544 4100 942 4425 
Q 1341 4750 2034 4750 
Q 2731 4750 3128 4425 
Q 3525 4100 3525 3541 
Q 3525 3141 3298 2862 
Q 3072 2584 2669 2484 
Q 3125 2378 3379 2068 
Q 3634 1759 3634 1313 
Q 3634 634 3220 271 
Q 2806 -91 2034 -91 
Q 1263 -91 848 271 
Q 434 634 434 1313 
Q 434 1759 690 2068 
Q 947 2378 1403 2484 
z
M 1172 3481 
Q 1172 3119 1398 2916 
Q 1625 2713 2034 2713 
Q 2441 2713 2670 2916 
Q 2900 3119 2900 3481 
Q 2900 3844 2670 4047 
Q 2441 4250 2034 4250 
Q 1625 4250 1398 4047 
Q 1172 3844 1172 3481 
z
" transform="scale(0.015625)"/>
       </defs>
       <use xlink:href="#DejaVuSans-38"/>
       <use xlink:href="#DejaVuSans-38" x="63.623047"/>
       <use xlink:href="#DejaVuSans-30" x="127.246094"/>
       <use xlink:href="#DejaVuSans-30" x="190.869141"/>
      </g>
     </g>
    </g>
    <g id="xtick_7">
     <g id="line2d_15">
      <g>
       <use xlink:href="#mb3405e2dde" x="408.396092" y="246.90101" style="stroke: #000000; stroke-width: 0.8"/>
      </g>
     </g>
     <g id="text_19">
      <!-- 9000 -->
      <g transform="translate(390.581092 264.538822) scale(0.14 -0.14)">
       <defs>
        <path id="DejaVuSans-39" d="M 703 97 
L 703 672 
Q 941 559 1184 500 
Q 1428 441 1663 441 
Q 2288 441 2617 861 
Q 2947 1281 2994 2138 
Q 2813 1869 2534 1725 
Q 2256 1581 1919 1581 
Q 1219 1581 811 2004 
Q 403 2428 403 3163 
Q 403 3881 828 4315 
Q 1253 4750 1959 4750 
Q 2769 4750 3195 4129 
Q 3622 3509 3622 2328 
Q 3622 1225 3098 567 
Q 2575 -91 1691 -91 
Q 1453 -91 1209 -44 
Q 966 3 703 97 
z
M 1959 2075 
Q 2384 2075 2632 2365 
Q 2881 2656 2881 3163 
Q 2881 3666 2632 3958 
Q 2384 4250 1959 4250 
Q 1534 4250 1286 3958 
Q 1038 3666 1038 3163 
Q 1038 2656 1286 2365 
Q 1534 2075 1959 2075 
z
" transform="scale(0.015625)"/>
       </defs>
       <use xlink:href="#DejaVuSans-39"/>
       <use xlink:href="#DejaVuSans-30" x="63.623047"/>
       <use xlink:href="#DejaVuSans-30" x="127.246094"/>
       <use xlink:href="#DejaVuSans-30" x="190.869141"/>
      </g>
     </g>
    </g>
    <g id="xtick_8">
     <g id="line2d_16">
      <g>
       <use xlink:href="#mb3405e2dde" x="462.097295" y="246.90101" style="stroke: #000000; stroke-width: 0.8"/>
      </g>
     </g>
     <g id="text_20">
      <!-- 9200 -->
      <g transform="translate(444.282295 264.538822) scale(0.14 -0.14)">
       <use xlink:href="#DejaVuSans-39"/>
       <use xlink:href="#DejaVuSans-32" x="63.623047"/>
       <use xlink:href="#DejaVuSans-30" x="127.246094"/>
       <use xlink:href="#DejaVuSans-30" x="190.869141"/>
      </g>
     </g>
    </g>
    <g id="xtick_9">
     <g id="line2d_17">
      <g>
       <use xlink:href="#mb3405e2dde" x="515.798497" y="246.90101" style="stroke: #000000; stroke-width: 0.8"/>
      </g>
     </g>
     <g id="text_21">
      <!-- 9400 -->
      <g transform="translate(497.983497 264.538822) scale(0.14 -0.14)">
       <use xlink:href="#DejaVuSans-39"/>
       <use xlink:href="#DejaVuSans-34" x="63.623047"/>
       <use xlink:href="#DejaVuSans-30" x="127.246094"/>
       <use xlink:href="#DejaVuSans-30" x="190.869141"/>
      </g>
     </g>
    </g>
    <g id="xtick_10">
     <g id="line2d_18">
      <g>
       <use xlink:href="#mb3405e2dde" x="569.499699" y="246.90101" style="stroke: #000000; stroke-width: 0.8"/>
      </g>
     </g>
     <g id="text_22">
      <!-- 9600 -->
      <g transform="translate(551.684699 264.538822) scale(0.14 -0.14)">
       <defs>
        <path id="DejaVuSans-36" d="M 2113 2584 
Q 1688 2584 1439 2293 
Q 1191 2003 1191 1497 
Q 1191 994 1439 701 
Q 1688 409 2113 409 
Q 2538 409 2786 701 
Q 3034 994 3034 1497 
Q 3034 2003 2786 2293 
Q 2538 2584 2113 2584 
z
M 3366 4563 
L 3366 3988 
Q 3128 4100 2886 4159 
Q 2644 4219 2406 4219 
Q 1781 4219 1451 3797 
Q 1122 3375 1075 2522 
Q 1259 2794 1537 2939 
Q 1816 3084 2150 3084 
Q 2853 3084 3261 2657 
Q 3669 2231 3669 1497 
Q 3669 778 3244 343 
Q 2819 -91 2113 -91 
Q 1303 -91 875 529 
Q 447 1150 447 2328 
Q 447 3434 972 4092 
Q 1497 4750 2381 4750 
Q 2619 4750 2861 4703 
Q 3103 4656 3366 4563 
z
" transform="scale(0.015625)"/>
       </defs>
       <use xlink:href="#DejaVuSans-39"/>
       <use xlink:href="#DejaVuSans-36" x="63.623047"/>
       <use xlink:href="#DejaVuSans-30" x="127.246094"/>
       <use xlink:href="#DejaVuSans-30" x="190.869141"/>
      </g>
     </g>
    </g>
    <g id="text_23">
     <!-- $E_2$ [MPa] -->
     <g transform="translate(427.035791 282.088197) scale(0.14 -0.14)">
      <use xlink:href="#DejaVuSans-Oblique-45" transform="translate(0 0.015625)"/>
      <use xlink:href="#DejaVuSans-32" transform="translate(63.183594 -16.390625) scale(0.7)"/>
      <use xlink:href="#DejaVuSans-20" transform="translate(110.454102 0.015625)"/>
      <use xlink:href="#DejaVuSans-5b" transform="translate(142.241211 0.015625)"/>
      <use xlink:href="#DejaVuSans-4d" transform="translate(181.254883 0.015625)"/>
      <use xlink:href="#DejaVuSans-50" transform="translate(267.53418 0.015625)"/>
      <use xlink:href="#DejaVuSans-61" transform="translate(327.836914 0.015625)"/>
      <use xlink:href="#DejaVuSans-5d" transform="translate(389.116211 0.015625)"/>
     </g>
    </g>
   </g>
   <g id="matplotlib.axis_4">
    <g id="ytick_7">
     <g id="line2d_19">
      <g>
       <use xlink:href="#m99f0e8980f" x="336.813508" y="246.90101" style="stroke: #000000; stroke-width: 0.8"/>
      </g>
     </g>
     <g id="text_24">
      <!-- 0.000 -->
      <g transform="translate(289.734133 252.219916) scale(0.14 -0.14)">
       <use xlink:href="#DejaVuSans-30"/>
       <use xlink:href="#DejaVuSans-2e" x="63.623047"/>
       <use xlink:href="#DejaVuSans-30" x="95.410156"/>
       <use xlink:href="#DejaVuSans-30" x="159.033203"/>
       <use xlink:href="#DejaVuSans-30" x="222.65625"/>
      </g>
     </g>
    </g>
    <g id="ytick_8">
     <g id="line2d_20">
      <g>
       <use xlink:href="#m99f0e8980f" x="336.813508" y="191.905895" style="stroke: #000000; stroke-width: 0.8"/>
      </g>
     </g>
     <g id="text_25">
      <!-- 0.001 -->
      <g transform="translate(289.734133 197.224801) scale(0.14 -0.14)">
       <use xlink:href="#DejaVuSans-30"/>
       <use xlink:href="#DejaVuSans-2e" x="63.623047"/>
       <use xlink:href="#DejaVuSans-30" x="95.410156"/>
       <use xlink:href="#DejaVuSans-30" x="159.033203"/>
       <use xlink:href="#DejaVuSans-31" x="222.65625"/>
      </g>
     </g>
    </g>
    <g id="ytick_9">
     <g id="line2d_21">
      <g>
       <use xlink:href="#m99f0e8980f" x="336.813508" y="136.91078" style="stroke: #000000; stroke-width: 0.8"/>
      </g>
     </g>
     <g id="text_26">
      <!-- 0.002 -->
      <g transform="translate(289.734133 142.229686) scale(0.14 -0.14)">
       <use xlink:href="#DejaVuSans-30"/>
       <use xlink:href="#DejaVuSans-2e" x="63.623047"/>
       <use xlink:href="#DejaVuSans-30" x="95.410156"/>
       <use xlink:href="#DejaVuSans-30" x="159.033203"/>
       <use xlink:href="#DejaVuSans-32" x="222.65625"/>
      </g>
     </g>
    </g>
    <g id="ytick_10">
     <g id="line2d_22">
      <g>
       <use xlink:href="#m99f0e8980f" x="336.813508" y="81.915665" style="stroke: #000000; stroke-width: 0.8"/>
      </g>
     </g>
     <g id="text_27">
      <!-- 0.003 -->
      <g transform="translate(289.734133 87.234571) scale(0.14 -0.14)">
       <use xlink:href="#DejaVuSans-30"/>
       <use xlink:href="#DejaVuSans-2e" x="63.623047"/>
       <use xlink:href="#DejaVuSans-30" x="95.410156"/>
       <use xlink:href="#DejaVuSans-30" x="159.033203"/>
       <use xlink:href="#DejaVuSans-33" x="222.65625"/>
      </g>
     </g>
    </g>
    <g id="ytick_11">
     <g id="line2d_23">
      <g>
       <use xlink:href="#m99f0e8980f" x="336.813508" y="26.92055" style="stroke: #000000; stroke-width: 0.8"/>
      </g>
     </g>
     <g id="text_28">
      <!-- 0.004 -->
      <g transform="translate(289.734133 32.239456) scale(0.14 -0.14)">
       <use xlink:href="#DejaVuSans-30"/>
       <use xlink:href="#DejaVuSans-2e" x="63.623047"/>
       <use xlink:href="#DejaVuSans-30" x="95.410156"/>
       <use xlink:href="#DejaVuSans-30" x="159.033203"/>
       <use xlink:href="#DejaVuSans-34" x="222.65625"/>
      </g>
     </g>
    </g>
   </g>
   <g id="line2d_24">
    <path d="M 378.860431 244.46371 
L 380.48774 243.983086 
L 382.115049 243.420492 
L 383.742358 242.764648 
L 385.369668 242.003245 
L 386.996977 241.122949 
L 388.624286 240.109425 
L 390.251595 238.947388 
L 391.878904 237.620678 
L 393.506213 236.112365 
L 395.133523 234.404892 
L 396.760832 232.480252 
L 398.388141 230.320195 
L 400.01545 227.906485 
L 401.642759 225.221183 
L 403.270068 222.246977 
L 404.897378 218.967537 
L 406.524687 215.367908 
L 408.151996 211.434926 
L 409.779305 207.157649 
L 411.406614 202.527812 
L 413.033923 197.540269 
L 414.661233 192.193443 
L 416.288542 186.489745 
L 417.915851 180.435973 
L 419.54316 174.043661 
L 421.170469 167.329375 
L 422.797778 160.314948 
L 424.425088 153.027622 
L 426.052397 145.500114 
L 427.679706 137.770575 
L 429.307015 129.882443 
L 430.934324 121.884187 
L 432.561633 113.828932 
L 434.188943 105.773976 
L 435.816252 97.780189 
L 437.443561 89.911313 
L 439.07087 82.233161 
L 440.698179 74.81274 
L 442.325488 67.717302 
L 443.952798 61.013347 
L 445.580107 54.765601 
L 447.207416 49.035979 
L 448.834725 43.882573 
L 450.462034 39.35867 
L 452.089343 35.511841 
L 453.716652 32.383103 
L 455.343962 30.006197 
L 456.971271 28.40698 
L 458.59858 27.602955 
L 460.225889 27.602955 
L 461.853198 28.40698 
L 463.480507 30.006197 
L 465.107817 32.383103 
L 466.735126 35.511841 
L 468.362435 39.35867 
L 469.989744 43.882573 
L 471.617053 49.035979 
L 473.244362 54.765601 
L 474.871672 61.013347 
L 476.498981 67.717302 
L 478.12629 74.81274 
L 479.753599 82.233161 
L 481.380908 89.911313 
L 483.008217 97.780189 
L 484.635527 105.773976 
L 486.262836 113.828932 
L 487.890145 121.884187 
L 489.517454 129.882443 
L 491.144763 137.770575 
L 492.772072 145.500114 
L 494.399382 153.027622 
L 496.026691 160.314948 
L 497.654 167.329375 
L 499.281309 174.043661 
L 500.908618 180.435973 
L 502.535927 186.489745 
L 504.163237 192.193443 
L 505.790546 197.540269 
L 507.417855 202.527812 
L 509.045164 207.157649 
L 510.672473 211.434926 
L 512.299782 215.367908 
L 513.927092 218.967537 
L 515.554401 222.246977 
L 517.18171 225.221183 
L 518.809019 227.906485 
L 520.436328 230.320195 
L 522.063637 232.480252 
L 523.690947 234.404892 
L 525.318256 236.112365 
L 526.945565 237.620678 
L 528.572874 238.947388 
L 530.200183 240.109425 
L 531.827492 241.122949 
L 533.454801 242.003245 
L 535.082111 242.764648 
L 536.70942 243.420492 
L 538.336729 243.983086 
L 539.964038 244.46371 
" clip-path="url(#p7ed704515d)" style="fill: none; stroke: #2ca02c; stroke-width: 1.5; stroke-linecap: square"/>
   </g>
   <g id="patch_70">
    <path d="M 336.813508 246.90101 
L 336.813508 16.638052 
" style="fill: none; stroke: #000000; stroke-width: 0.8; stroke-linejoin: miter; stroke-linecap: square"/>
   </g>
   <g id="patch_71">
    <path d="M 577.318074 246.90101 
L 577.318074 16.638052 
" style="fill: none; stroke: #000000; stroke-width: 0.8; stroke-linejoin: miter; stroke-linecap: square"/>
   </g>
   <g id="patch_72">
    <path d="M 336.813508 246.90101 
L 577.318074 246.90101 
" style="fill: none; stroke: #000000; stroke-width: 0.8; stroke-linejoin: miter; stroke-linecap: square"/>
   </g>
   <g id="patch_73">
    <path d="M 336.813508 16.638052 
L 577.318074 16.638052 
" style="fill: none; stroke: #000000; stroke-width: 0.8; stroke-linejoin: miter; stroke-linecap: square"/>
   </g>
  </g>
  <g id="axes_3">
   <g id="patch_74">
    <path d="M 618.130158 246.90101 
L 858.634724 246.90101 
L 858.634724 16.638052 
L 618.130158 16.638052 
z
" style="fill: #ffffff"/>
   </g>
   <g id="patch_75">
    <path d="M 629.062184 246.90101 
L 635.643336 246.90101 
L 635.643336 243.814567 
L 629.062184 243.814567 
z
" clip-path="url(#p3b75e1b3c8)" style="fill: #1f77b4"/>
   </g>
   <g id="patch_76">
    <path d="M 636.374575 246.90101 
L 642.955728 246.90101 
L 642.955728 240.287203 
L 636.374575 240.287203 
z
" clip-path="url(#p3b75e1b3c8)" style="fill: #1f77b4"/>
   </g>
   <g id="patch_77">
    <path d="M 643.686967 246.90101 
L 650.26812 246.90101 
L 650.26812 239.846283 
L 643.686967 239.846283 
z
" clip-path="url(#p3b75e1b3c8)" style="fill: #1f77b4"/>
   </g>
   <g id="patch_78">
    <path d="M 650.999359 246.90101 
L 657.580512 246.90101 
L 657.580512 233.232476 
L 650.999359 233.232476 
z
" clip-path="url(#p3b75e1b3c8)" style="fill: #1f77b4"/>
   </g>
   <g id="patch_79">
    <path d="M 658.311751 246.90101 
L 664.892903 246.90101 
L 664.892903 228.382351 
L 658.311751 228.382351 
z
" clip-path="url(#p3b75e1b3c8)" style="fill: #1f77b4"/>
   </g>
   <g id="patch_80">
    <path d="M 665.624142 246.90101 
L 672.205295 246.90101 
L 672.205295 207.659091 
L 665.624142 207.659091 
z
" clip-path="url(#p3b75e1b3c8)" style="fill: #1f77b4"/>
   </g>
   <g id="patch_81">
    <path d="M 672.936534 246.90101 
L 679.517687 246.90101 
L 679.517687 194.431477 
L 672.936534 194.431477 
z
" clip-path="url(#p3b75e1b3c8)" style="fill: #1f77b4"/>
   </g>
   <g id="patch_82">
    <path d="M 680.248926 246.90101 
L 686.830079 246.90101 
L 686.830079 166.212569 
L 680.248926 166.212569 
z
" clip-path="url(#p3b75e1b3c8)" style="fill: #1f77b4"/>
   </g>
   <g id="patch_83">
    <path d="M 687.561318 246.90101 
L 694.14247 246.90101 
L 694.14247 144.607467 
L 687.561318 144.607467 
z
" clip-path="url(#p3b75e1b3c8)" style="fill: #1f77b4"/>
   </g>
   <g id="patch_84">
    <path d="M 694.87371 246.90101 
L 701.454862 246.90101 
L 701.454862 97.42898 
L 694.87371 97.42898 
z
" clip-path="url(#p3b75e1b3c8)" style="fill: #1f77b4"/>
   </g>
   <g id="patch_85">
    <path d="M 702.186101 246.90101 
L 708.767254 246.90101 
L 708.767254 87.72873 
L 702.186101 87.72873 
z
" clip-path="url(#p3b75e1b3c8)" style="fill: #1f77b4"/>
   </g>
   <g id="patch_86">
    <path d="M 709.498493 246.90101 
L 716.079646 246.90101 
L 716.079646 44.959447 
L 709.498493 44.959447 
z
" clip-path="url(#p3b75e1b3c8)" style="fill: #1f77b4"/>
   </g>
   <g id="patch_87">
    <path d="M 716.810885 246.90101 
L 723.392038 246.90101 
L 723.392038 57.305219 
L 716.810885 57.305219 
z
" clip-path="url(#p3b75e1b3c8)" style="fill: #1f77b4"/>
   </g>
   <g id="patch_88">
    <path d="M 724.123277 246.90101 
L 730.704429 246.90101 
L 730.704429 40.991163 
L 724.123277 40.991163 
z
" clip-path="url(#p3b75e1b3c8)" style="fill: #1f77b4"/>
   </g>
   <g id="patch_89">
    <path d="M 731.435669 246.90101 
L 738.016821 246.90101 
L 738.016821 49.368651 
L 731.435669 49.368651 
z
" clip-path="url(#p3b75e1b3c8)" style="fill: #1f77b4"/>
   </g>
   <g id="patch_90">
    <path d="M 738.74806 246.90101 
L 745.329213 246.90101 
L 745.329213 55.541537 
L 738.74806 55.541537 
z
" clip-path="url(#p3b75e1b3c8)" style="fill: #1f77b4"/>
   </g>
   <g id="patch_91">
    <path d="M 746.060452 246.90101 
L 752.641605 246.90101 
L 752.641605 89.933332 
L 746.060452 89.933332 
z
" clip-path="url(#p3b75e1b3c8)" style="fill: #1f77b4"/>
   </g>
   <g id="patch_92">
    <path d="M 753.372844 246.90101 
L 759.953997 246.90101 
L 759.953997 117.71132 
L 753.372844 117.71132 
z
" clip-path="url(#p3b75e1b3c8)" style="fill: #1f77b4"/>
   </g>
   <g id="patch_93">
    <path d="M 760.685236 246.90101 
L 767.266388 246.90101 
L 767.266388 155.630478 
L 760.685236 155.630478 
z
" clip-path="url(#p3b75e1b3c8)" style="fill: #1f77b4"/>
   </g>
   <g id="patch_94">
    <path d="M 767.997628 246.90101 
L 774.57878 246.90101 
L 774.57878 171.503614 
L 767.997628 171.503614 
z
" clip-path="url(#p3b75e1b3c8)" style="fill: #1f77b4"/>
   </g>
   <g id="patch_95">
    <path d="M 775.310019 246.90101 
L 781.891172 246.90101 
L 781.891172 195.754239 
L 775.310019 195.754239 
z
" clip-path="url(#p3b75e1b3c8)" style="fill: #1f77b4"/>
   </g>
   <g id="patch_96">
    <path d="M 782.622411 246.90101 
L 789.203564 246.90101 
L 789.203564 213.831977 
L 782.622411 213.831977 
z
" clip-path="url(#p3b75e1b3c8)" style="fill: #1f77b4"/>
   </g>
   <g id="patch_97">
    <path d="M 789.934803 246.90101 
L 796.515955 246.90101 
L 796.515955 224.414067 
L 789.934803 224.414067 
z
" clip-path="url(#p3b75e1b3c8)" style="fill: #1f77b4"/>
   </g>
   <g id="patch_98">
    <path d="M 797.247195 246.90101 
L 803.828347 246.90101 
L 803.828347 238.523522 
L 797.247195 238.523522 
z
" clip-path="url(#p3b75e1b3c8)" style="fill: #1f77b4"/>
   </g>
   <g id="patch_99">
    <path d="M 804.559586 246.90101 
L 811.140739 246.90101 
L 811.140739 238.523522 
L 804.559586 238.523522 
z
" clip-path="url(#p3b75e1b3c8)" style="fill: #1f77b4"/>
   </g>
   <g id="patch_100">
    <path d="M 811.871978 246.90101 
L 818.453131 246.90101 
L 818.453131 241.609965 
L 811.871978 241.609965 
z
" clip-path="url(#p3b75e1b3c8)" style="fill: #1f77b4"/>
   </g>
   <g id="patch_101">
    <path d="M 819.18437 246.90101 
L 825.765523 246.90101 
L 825.765523 245.137328 
L 819.18437 245.137328 
z
" clip-path="url(#p3b75e1b3c8)" style="fill: #1f77b4"/>
   </g>
   <g id="patch_102">
    <path d="M 826.496762 246.90101 
L 833.077914 246.90101 
L 833.077914 245.137328 
L 826.496762 245.137328 
z
" clip-path="url(#p3b75e1b3c8)" style="fill: #1f77b4"/>
   </g>
   <g id="patch_103">
    <path d="M 833.809154 246.90101 
L 840.390306 246.90101 
L 840.390306 246.46009 
L 833.809154 246.46009 
z
" clip-path="url(#p3b75e1b3c8)" style="fill: #1f77b4"/>
   </g>
   <g id="patch_104">
    <path d="M 841.121545 246.90101 
L 847.702698 246.90101 
L 847.702698 246.46009 
L 841.121545 246.46009 
z
" clip-path="url(#p3b75e1b3c8)" style="fill: #1f77b4"/>
   </g>
   <g id="matplotlib.axis_5">
    <g id="xtick_11">
     <g id="line2d_25">
      <g>
       <use xlink:href="#mb3405e2dde" x="666.851509" y="246.90101" style="stroke: #000000; stroke-width: 0.8"/>
      </g>
     </g>
     <g id="text_29">
      <!-- 0.32 -->
      <g transform="translate(651.265571 264.538822) scale(0.14 -0.14)">
       <use xlink:href="#DejaVuSans-30"/>
       <use xlink:href="#DejaVuSans-2e" x="63.623047"/>
       <use xlink:href="#DejaVuSans-33" x="95.410156"/>
       <use xlink:href="#DejaVuSans-32" x="159.033203"/>
      </g>
     </g>
    </g>
    <g id="xtick_12">
     <g id="line2d_26">
      <g>
       <use xlink:href="#mb3405e2dde" x="725.478225" y="246.90101" style="stroke: #000000; stroke-width: 0.8"/>
      </g>
     </g>
     <g id="text_30">
      <!-- 0.34 -->
      <g transform="translate(709.892288 264.538822) scale(0.14 -0.14)">
       <use xlink:href="#DejaVuSans-30"/>
       <use xlink:href="#DejaVuSans-2e" x="63.623047"/>
       <use xlink:href="#DejaVuSans-33" x="95.410156"/>
       <use xlink:href="#DejaVuSans-34" x="159.033203"/>
      </g>
     </g>
    </g>
    <g id="xtick_13">
     <g id="line2d_27">
      <g>
       <use xlink:href="#mb3405e2dde" x="784.104942" y="246.90101" style="stroke: #000000; stroke-width: 0.8"/>
      </g>
     </g>
     <g id="text_31">
      <!-- 0.36 -->
      <g transform="translate(768.519005 264.538822) scale(0.14 -0.14)">
       <use xlink:href="#DejaVuSans-30"/>
       <use xlink:href="#DejaVuSans-2e" x="63.623047"/>
       <use xlink:href="#DejaVuSans-33" x="95.410156"/>
       <use xlink:href="#DejaVuSans-36" x="159.033203"/>
      </g>
     </g>
    </g>
    <g id="xtick_14">
     <g id="line2d_28">
      <g>
       <use xlink:href="#mb3405e2dde" x="842.731659" y="246.90101" style="stroke: #000000; stroke-width: 0.8"/>
      </g>
     </g>
     <g id="text_32">
      <!-- 0.38 -->
      <g transform="translate(827.145722 264.538822) scale(0.14 -0.14)">
       <use xlink:href="#DejaVuSans-30"/>
       <use xlink:href="#DejaVuSans-2e" x="63.623047"/>
       <use xlink:href="#DejaVuSans-33" x="95.410156"/>
       <use xlink:href="#DejaVuSans-38" x="159.033203"/>
      </g>
     </g>
    </g>
    <g id="text_33">
     <!-- $\nu_{12}$ [-] -->
     <g transform="translate(717.802441 282.088197) scale(0.14 -0.14)">
      <defs>
       <path id="DejaVuSans-Oblique-3bd" d="M 959 0 
L 572 3500 
L 1191 3500 
L 1522 563 
Q 1972 950 2391 1488 
Q 2706 1891 2788 2241 
Q 2825 2406 2809 2719 
Q 2794 3091 2544 3500 
L 3125 3500 
L 3125 3500 
Q 3288 3222 3353 2834 
Q 3416 2478 3369 2234 
Q 3250 1622 2719 1075 
Q 2025 363 1572 0 
L 959 0 
z
" transform="scale(0.015625)"/>
       <path id="DejaVuSans-2d" d="M 313 2009 
L 1997 2009 
L 1997 1497 
L 313 1497 
L 313 2009 
z
" transform="scale(0.015625)"/>
      </defs>
      <use xlink:href="#DejaVuSans-Oblique-3bd" transform="translate(0 0.015625)"/>
      <use xlink:href="#DejaVuSans-31" transform="translate(55.859375 -16.390625) scale(0.7)"/>
      <use xlink:href="#DejaVuSans-32" transform="translate(100.395508 -16.390625) scale(0.7)"/>
      <use xlink:href="#DejaVuSans-20" transform="translate(147.666016 0.015625)"/>
      <use xlink:href="#DejaVuSans-5b" transform="translate(179.453125 0.015625)"/>
      <use xlink:href="#DejaVuSans-2d" transform="translate(218.466797 0.015625)"/>
      <use xlink:href="#DejaVuSans-5d" transform="translate(254.550781 0.015625)"/>
     </g>
    </g>
   </g>
   <g id="matplotlib.axis_6">
    <g id="ytick_12">
     <g id="line2d_29">
      <g>
       <use xlink:href="#m99f0e8980f" x="618.130158" y="246.90101" style="stroke: #000000; stroke-width: 0.8"/>
      </g>
     </g>
     <g id="text_34">
      <!-- 0 -->
      <g transform="translate(602.222658 252.219916) scale(0.14 -0.14)">
       <use xlink:href="#DejaVuSans-30"/>
      </g>
     </g>
    </g>
    <g id="ytick_13">
     <g id="line2d_30">
      <g>
       <use xlink:href="#m99f0e8980f" x="618.130158" y="191.905895" style="stroke: #000000; stroke-width: 0.8"/>
      </g>
     </g>
     <g id="text_35">
      <!-- 10 -->
      <g transform="translate(593.315158 197.224801) scale(0.14 -0.14)">
       <use xlink:href="#DejaVuSans-31"/>
       <use xlink:href="#DejaVuSans-30" x="63.623047"/>
      </g>
     </g>
    </g>
    <g id="ytick_14">
     <g id="line2d_31">
      <g>
       <use xlink:href="#m99f0e8980f" x="618.130158" y="136.91078" style="stroke: #000000; stroke-width: 0.8"/>
      </g>
     </g>
     <g id="text_36">
      <!-- 20 -->
      <g transform="translate(593.315158 142.229686) scale(0.14 -0.14)">
       <use xlink:href="#DejaVuSans-32"/>
       <use xlink:href="#DejaVuSans-30" x="63.623047"/>
      </g>
     </g>
    </g>
    <g id="ytick_15">
     <g id="line2d_32">
      <g>
       <use xlink:href="#m99f0e8980f" x="618.130158" y="81.915665" style="stroke: #000000; stroke-width: 0.8"/>
      </g>
     </g>
     <g id="text_37">
      <!-- 30 -->
      <g transform="translate(593.315158 87.234571) scale(0.14 -0.14)">
       <use xlink:href="#DejaVuSans-33"/>
       <use xlink:href="#DejaVuSans-30" x="63.623047"/>
      </g>
     </g>
    </g>
    <g id="ytick_16">
     <g id="line2d_33">
      <g>
       <use xlink:href="#m99f0e8980f" x="618.130158" y="26.92055" style="stroke: #000000; stroke-width: 0.8"/>
      </g>
     </g>
     <g id="text_38">
      <!-- 40 -->
      <g transform="translate(593.315158 32.239456) scale(0.14 -0.14)">
       <use xlink:href="#DejaVuSans-34"/>
       <use xlink:href="#DejaVuSans-30" x="63.623047"/>
      </g>
     </g>
    </g>
   </g>
   <g id="line2d_34">
    <path d="M 637.53815 244.46371 
L 639.314717 243.983086 
L 641.091285 243.420492 
L 642.867852 242.764648 
L 644.644419 242.003245 
L 646.420986 241.122949 
L 648.197553 240.109425 
L 649.97412 238.947388 
L 651.750688 237.620678 
L 653.527255 236.112365 
L 655.303822 234.404892 
L 657.080389 232.480252 
L 658.856956 230.320195 
L 660.633523 227.906485 
L 662.410091 225.221183 
L 664.186658 222.246977 
L 665.963225 218.967537 
L 667.739792 215.367908 
L 669.516359 211.434926 
L 671.292927 207.157649 
L 673.069494 202.527812 
L 674.846061 197.540269 
L 676.622628 192.193443 
L 678.399195 186.489745 
L 680.175762 180.435973 
L 681.95233 174.043661 
L 683.728897 167.329375 
L 685.505464 160.314948 
L 687.282031 153.027622 
L 689.058598 145.500114 
L 690.835165 137.770575 
L 692.611733 129.882443 
L 694.3883 121.884187 
L 696.164867 113.828932 
L 697.941434 105.773976 
L 699.718001 97.780189 
L 701.494569 89.911313 
L 703.271136 82.233161 
L 705.047703 74.81274 
L 706.82427 67.717302 
L 708.600837 61.013347 
L 710.377404 54.765601 
L 712.153972 49.035979 
L 713.930539 43.882573 
L 715.707106 39.35867 
L 717.483673 35.511841 
L 719.26024 32.383103 
L 721.036807 30.006197 
L 722.813375 28.40698 
L 724.589942 27.602955 
L 726.366509 27.602955 
L 728.143076 28.40698 
L 729.919643 30.006197 
L 731.696211 32.383103 
L 733.472778 35.511841 
L 735.249345 39.35867 
L 737.025912 43.882573 
L 738.802479 49.035979 
L 740.579046 54.765601 
L 742.355614 61.013347 
L 744.132181 67.717302 
L 745.908748 74.81274 
L 747.685315 82.233161 
L 749.461882 89.911313 
L 751.23845 97.780189 
L 753.015017 105.773976 
L 754.791584 113.828932 
L 756.568151 121.884187 
L 758.344718 129.882443 
L 760.121285 137.770575 
L 761.897853 145.500114 
L 763.67442 153.027622 
L 765.450987 160.314948 
L 767.227554 167.329375 
L 769.004121 174.043661 
L 770.780688 180.435973 
L 772.557256 186.489745 
L 774.333823 192.193443 
L 776.11039 197.540269 
L 777.886957 202.527812 
L 779.663524 207.157649 
L 781.440092 211.434926 
L 783.216659 215.367908 
L 784.993226 218.967537 
L 786.769793 222.246977 
L 788.54636 225.221183 
L 790.322927 227.906485 
L 792.099495 230.320195 
L 793.876062 232.480252 
L 795.652629 234.404892 
L 797.429196 236.112365 
L 799.205763 237.620678 
L 800.98233 238.947388 
L 802.758898 240.109425 
L 804.535465 241.122949 
L 806.312032 242.003245 
L 808.088599 242.764648 
L 809.865166 243.420492 
L 811.641734 243.983086 
L 813.418301 244.46371 
" clip-path="url(#p3b75e1b3c8)" style="fill: none; stroke: #2ca02c; stroke-width: 1.5; stroke-linecap: square"/>
   </g>
   <g id="patch_105">
    <path d="M 618.130158 246.90101 
L 618.130158 16.638052 
" style="fill: none; stroke: #000000; stroke-width: 0.8; stroke-linejoin: miter; stroke-linecap: square"/>
   </g>
   <g id="patch_106">
    <path d="M 858.634724 246.90101 
L 858.634724 16.638052 
" style="fill: none; stroke: #000000; stroke-width: 0.8; stroke-linejoin: miter; stroke-linecap: square"/>
   </g>
   <g id="patch_107">
    <path d="M 618.130158 246.90101 
L 858.634724 246.90101 
" style="fill: none; stroke: #000000; stroke-width: 0.8; stroke-linejoin: miter; stroke-linecap: square"/>
   </g>
   <g id="patch_108">
    <path d="M 618.130158 16.638052 
L 858.634724 16.638052 
" style="fill: none; stroke: #000000; stroke-width: 0.8; stroke-linejoin: miter; stroke-linecap: square"/>
   </g>
  </g>
  <g id="axes_4">
   <g id="patch_109">
    <path d="M 889.450204 246.90101 
L 1129.95477 246.90101 
L 1129.95477 16.638052 
L 889.450204 16.638052 
z
" style="fill: #ffffff"/>
   </g>
   <g id="patch_110">
    <path d="M 900.382229 246.90101 
L 906.963382 246.90101 
L 906.963382 245.591411 
L 900.382229 245.591411 
z
" clip-path="url(#p4fbaf68a1e)" style="fill: #1f77b4"/>
   </g>
   <g id="patch_111">
    <path d="M 907.694621 246.90101 
L 914.275774 246.90101 
L 914.275774 246.90101 
L 907.694621 246.90101 
z
" clip-path="url(#p4fbaf68a1e)" style="fill: #1f77b4"/>
   </g>
   <g id="patch_112">
    <path d="M 915.007013 246.90101 
L 921.588166 246.90101 
L 921.588166 245.154878 
L 915.007013 245.154878 
z
" clip-path="url(#p4fbaf68a1e)" style="fill: #1f77b4"/>
   </g>
   <g id="patch_113">
    <path d="M 922.319405 246.90101 
L 928.900557 246.90101 
L 928.900557 244.718345 
L 922.319405 244.718345 
z
" clip-path="url(#p4fbaf68a1e)" style="fill: #1f77b4"/>
   </g>
   <g id="patch_114">
    <path d="M 929.631797 246.90101 
L 936.212949 246.90101 
L 936.212949 243.408747 
L 929.631797 243.408747 
z
" clip-path="url(#p4fbaf68a1e)" style="fill: #1f77b4"/>
   </g>
   <g id="patch_115">
    <path d="M 936.944188 246.90101 
L 943.525341 246.90101 
L 943.525341 237.733819 
L 936.944188 237.733819 
z
" clip-path="url(#p4fbaf68a1e)" style="fill: #1f77b4"/>
   </g>
   <g id="patch_116">
    <path d="M 944.25658 246.90101 
L 950.837733 246.90101 
L 950.837733 232.058891 
L 944.25658 232.058891 
z
" clip-path="url(#p4fbaf68a1e)" style="fill: #1f77b4"/>
   </g>
   <g id="patch_117">
    <path d="M 951.568972 246.90101 
L 958.150125 246.90101 
L 958.150125 218.089837 
L 951.568972 218.089837 
z
" clip-path="url(#p4fbaf68a1e)" style="fill: #1f77b4"/>
   </g>
   <g id="patch_118">
    <path d="M 958.881364 246.90101 
L 965.462516 246.90101 
L 965.462516 203.247717 
L 958.881364 203.247717 
z
" clip-path="url(#p4fbaf68a1e)" style="fill: #1f77b4"/>
   </g>
   <g id="patch_119">
    <path d="M 966.193756 246.90101 
L 972.774908 246.90101 
L 972.774908 186.659466 
L 966.193756 186.659466 
z
" clip-path="url(#p4fbaf68a1e)" style="fill: #1f77b4"/>
   </g>
   <g id="patch_120">
    <path d="M 973.506147 246.90101 
L 980.0873 246.90101 
L 980.0873 159.157892 
L 973.506147 159.157892 
z
" clip-path="url(#p4fbaf68a1e)" style="fill: #1f77b4"/>
   </g>
   <g id="patch_121">
    <path d="M 980.818539 246.90101 
L 987.399692 246.90101 
L 987.399692 118.56033 
L 980.818539 118.56033 
z
" clip-path="url(#p4fbaf68a1e)" style="fill: #1f77b4"/>
   </g>
   <g id="patch_122">
    <path d="M 988.130931 246.90101 
L 994.712084 246.90101 
L 994.712084 90.18569 
L 988.130931 90.18569 
z
" clip-path="url(#p4fbaf68a1e)" style="fill: #1f77b4"/>
   </g>
   <g id="patch_123">
    <path d="M 995.443323 246.90101 
L 1002.024475 246.90101 
L 1002.024475 55.699588 
L 995.443323 55.699588 
z
" clip-path="url(#p4fbaf68a1e)" style="fill: #1f77b4"/>
   </g>
   <g id="patch_124">
    <path d="M 1002.755714 246.90101 
L 1009.336867 246.90101 
L 1009.336867 45.222798 
L 1002.755714 45.222798 
z
" clip-path="url(#p4fbaf68a1e)" style="fill: #1f77b4"/>
   </g>
   <g id="patch_125">
    <path d="M 1010.068106 246.90101 
L 1016.649259 246.90101 
L 1016.649259 43.913199 
L 1010.068106 43.913199 
z
" clip-path="url(#p4fbaf68a1e)" style="fill: #1f77b4"/>
   </g>
   <g id="patch_126">
    <path d="M 1017.380498 246.90101 
L 1023.961651 246.90101 
L 1023.961651 41.730535 
L 1017.380498 41.730535 
z
" clip-path="url(#p4fbaf68a1e)" style="fill: #1f77b4"/>
   </g>
   <g id="patch_127">
    <path d="M 1024.69289 246.90101 
L 1031.274042 246.90101 
L 1031.274042 52.207325 
L 1024.69289 52.207325 
z
" clip-path="url(#p4fbaf68a1e)" style="fill: #1f77b4"/>
   </g>
   <g id="patch_128">
    <path d="M 1032.005282 246.90101 
L 1038.586434 246.90101 
L 1038.586434 92.804887 
L 1032.005282 92.804887 
z
" clip-path="url(#p4fbaf68a1e)" style="fill: #1f77b4"/>
   </g>
   <g id="patch_129">
    <path d="M 1039.317673 246.90101 
L 1045.898826 246.90101 
L 1045.898826 102.408611 
L 1039.317673 102.408611 
z
" clip-path="url(#p4fbaf68a1e)" style="fill: #1f77b4"/>
   </g>
   <g id="patch_130">
    <path d="M 1046.630065 246.90101 
L 1053.211218 246.90101 
L 1053.211218 138.204311 
L 1046.630065 138.204311 
z
" clip-path="url(#p4fbaf68a1e)" style="fill: #1f77b4"/>
   </g>
   <g id="patch_131">
    <path d="M 1053.942457 246.90101 
L 1060.52361 246.90101 
L 1060.52361 167.015485 
L 1053.942457 167.015485 
z
" clip-path="url(#p4fbaf68a1e)" style="fill: #1f77b4"/>
   </g>
   <g id="patch_132">
    <path d="M 1061.254849 246.90101 
L 1067.836001 246.90101 
L 1067.836001 177.055742 
L 1061.254849 177.055742 
z
" clip-path="url(#p4fbaf68a1e)" style="fill: #1f77b4"/>
   </g>
   <g id="patch_133">
    <path d="M 1068.567241 246.90101 
L 1075.148393 246.90101 
L 1075.148393 208.486112 
L 1068.567241 208.486112 
z
" clip-path="url(#p4fbaf68a1e)" style="fill: #1f77b4"/>
   </g>
   <g id="patch_134">
    <path d="M 1075.879632 246.90101 
L 1082.460785 246.90101 
L 1082.460785 223.328232 
L 1075.879632 223.328232 
z
" clip-path="url(#p4fbaf68a1e)" style="fill: #1f77b4"/>
   </g>
   <g id="patch_135">
    <path d="M 1083.192024 246.90101 
L 1089.773177 246.90101 
L 1089.773177 230.749292 
L 1083.192024 230.749292 
z
" clip-path="url(#p4fbaf68a1e)" style="fill: #1f77b4"/>
   </g>
   <g id="patch_136">
    <path d="M 1090.504416 246.90101 
L 1097.085569 246.90101 
L 1097.085569 240.789549 
L 1090.504416 240.789549 
z
" clip-path="url(#p4fbaf68a1e)" style="fill: #1f77b4"/>
   </g>
   <g id="patch_137">
    <path d="M 1097.816808 246.90101 
L 1104.39796 246.90101 
L 1104.39796 242.099148 
L 1097.816808 242.099148 
z
" clip-path="url(#p4fbaf68a1e)" style="fill: #1f77b4"/>
   </g>
   <g id="patch_138">
    <path d="M 1105.1292 246.90101 
L 1111.710352 246.90101 
L 1111.710352 245.154878 
L 1105.1292 245.154878 
z
" clip-path="url(#p4fbaf68a1e)" style="fill: #1f77b4"/>
   </g>
   <g id="patch_139">
    <path d="M 1112.441591 246.90101 
L 1119.022744 246.90101 
L 1119.022744 246.027944 
L 1112.441591 246.027944 
z
" clip-path="url(#p4fbaf68a1e)" style="fill: #1f77b4"/>
   </g>
   <g id="matplotlib.axis_7">
    <g id="xtick_15">
     <g id="line2d_35">
      <g>
       <use xlink:href="#mb3405e2dde" x="895.656074" y="246.90101" style="stroke: #000000; stroke-width: 0.8"/>
      </g>
     </g>
     <g id="text_39">
      <!-- 0.40 -->
      <g transform="translate(880.070137 264.538822) scale(0.14 -0.14)">
       <use xlink:href="#DejaVuSans-30"/>
       <use xlink:href="#DejaVuSans-2e" x="63.623047"/>
       <use xlink:href="#DejaVuSans-34" x="95.410156"/>
       <use xlink:href="#DejaVuSans-30" x="159.033203"/>
      </g>
     </g>
    </g>
    <g id="xtick_16">
     <g id="line2d_36">
      <g>
       <use xlink:href="#mb3405e2dde" x="953.699408" y="246.90101" style="stroke: #000000; stroke-width: 0.8"/>
      </g>
     </g>
     <g id="text_40">
      <!-- 0.42 -->
      <g transform="translate(938.11347 264.538822) scale(0.14 -0.14)">
       <use xlink:href="#DejaVuSans-30"/>
       <use xlink:href="#DejaVuSans-2e" x="63.623047"/>
       <use xlink:href="#DejaVuSans-34" x="95.410156"/>
       <use xlink:href="#DejaVuSans-32" x="159.033203"/>
      </g>
     </g>
    </g>
    <g id="xtick_17">
     <g id="line2d_37">
      <g>
       <use xlink:href="#mb3405e2dde" x="1011.742741" y="246.90101" style="stroke: #000000; stroke-width: 0.8"/>
      </g>
     </g>
     <g id="text_41">
      <!-- 0.44 -->
      <g transform="translate(996.156803 264.538822) scale(0.14 -0.14)">
       <use xlink:href="#DejaVuSans-30"/>
       <use xlink:href="#DejaVuSans-2e" x="63.623047"/>
       <use xlink:href="#DejaVuSans-34" x="95.410156"/>
       <use xlink:href="#DejaVuSans-34" x="159.033203"/>
      </g>
     </g>
    </g>
    <g id="xtick_18">
     <g id="line2d_38">
      <g>
       <use xlink:href="#mb3405e2dde" x="1069.786074" y="246.90101" style="stroke: #000000; stroke-width: 0.8"/>
      </g>
     </g>
     <g id="text_42">
      <!-- 0.46 -->
      <g transform="translate(1054.200137 264.538822) scale(0.14 -0.14)">
       <use xlink:href="#DejaVuSans-30"/>
       <use xlink:href="#DejaVuSans-2e" x="63.623047"/>
       <use xlink:href="#DejaVuSans-34" x="95.410156"/>
       <use xlink:href="#DejaVuSans-36" x="159.033203"/>
      </g>
     </g>
    </g>
    <g id="xtick_19">
     <g id="line2d_39">
      <g>
       <use xlink:href="#mb3405e2dde" x="1127.829407" y="246.90101" style="stroke: #000000; stroke-width: 0.8"/>
      </g>
     </g>
     <g id="text_43">
      <!-- 0.48 -->
      <g transform="translate(1112.24347 264.538822) scale(0.14 -0.14)">
       <use xlink:href="#DejaVuSans-30"/>
       <use xlink:href="#DejaVuSans-2e" x="63.623047"/>
       <use xlink:href="#DejaVuSans-34" x="95.410156"/>
       <use xlink:href="#DejaVuSans-38" x="159.033203"/>
      </g>
     </g>
    </g>
    <g id="text_44">
     <!-- $\nu_{23}$ [-] -->
     <g transform="translate(989.122487 282.088197) scale(0.14 -0.14)">
      <use xlink:href="#DejaVuSans-Oblique-3bd" transform="translate(0 0.015625)"/>
      <use xlink:href="#DejaVuSans-32" transform="translate(55.859375 -16.390625) scale(0.7)"/>
      <use xlink:href="#DejaVuSans-33" transform="translate(100.395508 -16.390625) scale(0.7)"/>
      <use xlink:href="#DejaVuSans-20" transform="translate(147.666016 0.015625)"/>
      <use xlink:href="#DejaVuSans-5b" transform="translate(179.453125 0.015625)"/>
      <use xlink:href="#DejaVuSans-2d" transform="translate(218.466797 0.015625)"/>
      <use xlink:href="#DejaVuSans-5d" transform="translate(254.550781 0.015625)"/>
     </g>
    </g>
   </g>
   <g id="matplotlib.axis_8">
    <g id="ytick_17">
     <g id="line2d_40">
      <g>
       <use xlink:href="#m99f0e8980f" x="889.450204" y="246.90101" style="stroke: #000000; stroke-width: 0.8"/>
      </g>
     </g>
     <g id="text_45">
      <!-- 0 -->
      <g transform="translate(873.542704 252.219916) scale(0.14 -0.14)">
       <use xlink:href="#DejaVuSans-30"/>
      </g>
     </g>
    </g>
    <g id="ytick_18">
     <g id="line2d_41">
      <g>
       <use xlink:href="#m99f0e8980f" x="889.450204" y="191.905895" style="stroke: #000000; stroke-width: 0.8"/>
      </g>
     </g>
     <g id="text_46">
      <!-- 10 -->
      <g transform="translate(864.635204 197.224801) scale(0.14 -0.14)">
       <use xlink:href="#DejaVuSans-31"/>
       <use xlink:href="#DejaVuSans-30" x="63.623047"/>
      </g>
     </g>
    </g>
    <g id="ytick_19">
     <g id="line2d_42">
      <g>
       <use xlink:href="#m99f0e8980f" x="889.450204" y="136.91078" style="stroke: #000000; stroke-width: 0.8"/>
      </g>
     </g>
     <g id="text_47">
      <!-- 20 -->
      <g transform="translate(864.635204 142.229686) scale(0.14 -0.14)">
       <use xlink:href="#DejaVuSans-32"/>
       <use xlink:href="#DejaVuSans-30" x="63.623047"/>
      </g>
     </g>
    </g>
    <g id="ytick_20">
     <g id="line2d_43">
      <g>
       <use xlink:href="#m99f0e8980f" x="889.450204" y="81.915665" style="stroke: #000000; stroke-width: 0.8"/>
      </g>
     </g>
     <g id="text_48">
      <!-- 30 -->
      <g transform="translate(864.635204 87.234571) scale(0.14 -0.14)">
       <use xlink:href="#DejaVuSans-33"/>
       <use xlink:href="#DejaVuSans-30" x="63.623047"/>
      </g>
     </g>
    </g>
    <g id="ytick_21">
     <g id="line2d_44">
      <g>
       <use xlink:href="#m99f0e8980f" x="889.450204" y="26.92055" style="stroke: #000000; stroke-width: 0.8"/>
      </g>
     </g>
     <g id="text_49">
      <!-- 40 -->
      <g transform="translate(864.635204 32.239456) scale(0.14 -0.14)">
       <use xlink:href="#DejaVuSans-34"/>
       <use xlink:href="#DejaVuSans-30" x="63.623047"/>
      </g>
     </g>
    </g>
   </g>
   <g id="line2d_45">
    <path d="M 924.677741 244.46371 
L 926.43663 243.983086 
L 928.195519 243.420492 
L 929.954408 242.764648 
L 931.713297 242.003245 
L 933.472186 241.122949 
L 935.231074 240.109425 
L 936.989963 238.947388 
L 938.748852 237.620678 
L 940.507741 236.112365 
L 942.26663 234.404892 
L 944.025519 232.480252 
L 945.784408 230.320195 
L 947.543297 227.906485 
L 949.302185 225.221183 
L 951.061074 222.246977 
L 952.819963 218.967537 
L 954.578852 215.367908 
L 956.337741 211.434926 
L 958.09663 207.157649 
L 959.855519 202.527812 
L 961.614408 197.540269 
L 963.373297 192.193443 
L 965.132185 186.489745 
L 966.891074 180.435973 
L 968.649963 174.043661 
L 970.408852 167.329375 
L 972.167741 160.314948 
L 973.92663 153.027622 
L 975.685519 145.500114 
L 977.444408 137.770575 
L 979.203297 129.882443 
L 980.962185 121.884187 
L 982.721074 113.828932 
L 984.479963 105.773976 
L 986.238852 97.780189 
L 987.997741 89.911313 
L 989.75663 82.233161 
L 991.515519 74.81274 
L 993.274408 67.717302 
L 995.033297 61.013347 
L 996.792185 54.765601 
L 998.551074 49.035979 
L 1000.309963 43.882573 
L 1002.068852 39.35867 
L 1003.827741 35.511841 
L 1005.58663 32.383103 
L 1007.345519 30.006197 
L 1009.104408 28.40698 
L 1010.863297 27.602955 
L 1012.622185 27.602955 
L 1014.381074 28.40698 
L 1016.139963 30.006197 
L 1017.898852 32.383103 
L 1019.657741 35.511841 
L 1021.41663 39.35867 
L 1023.175519 43.882573 
L 1024.934408 49.035979 
L 1026.693296 54.765601 
L 1028.452185 61.013347 
L 1030.211074 67.717302 
L 1031.969963 74.81274 
L 1033.728852 82.233161 
L 1035.487741 89.911313 
L 1037.24663 97.780189 
L 1039.005519 105.773976 
L 1040.764408 113.828932 
L 1042.523296 121.884187 
L 1044.282185 129.882443 
L 1046.041074 137.770575 
L 1047.799963 145.500114 
L 1049.558852 153.027622 
L 1051.317741 160.314948 
L 1053.07663 167.329375 
L 1054.835519 174.043661 
L 1056.594408 180.435973 
L 1058.353296 186.489745 
L 1060.112185 192.193443 
L 1061.871074 197.540269 
L 1063.629963 202.527812 
L 1065.388852 207.157649 
L 1067.147741 211.434926 
L 1068.90663 215.367908 
L 1070.665519 218.967537 
L 1072.424408 222.246977 
L 1074.183296 225.221183 
L 1075.942185 227.906485 
L 1077.701074 230.320195 
L 1079.459963 232.480252 
L 1081.218852 234.404892 
L 1082.977741 236.112365 
L 1084.73663 237.620678 
L 1086.495519 238.947388 
L 1088.254408 240.109425 
L 1090.013296 241.122949 
L 1091.772185 242.003245 
L 1093.531074 242.764648 
L 1095.289963 243.420492 
L 1097.048852 243.983086 
L 1098.807741 244.46371 
" clip-path="url(#p4fbaf68a1e)" style="fill: none; stroke: #2ca02c; stroke-width: 1.5; stroke-linecap: square"/>
   </g>
   <g id="patch_140">
    <path d="M 889.450204 246.90101 
L 889.450204 16.638052 
" style="fill: none; stroke: #000000; stroke-width: 0.8; stroke-linejoin: miter; stroke-linecap: square"/>
   </g>
   <g id="patch_141">
    <path d="M 1129.95477 246.90101 
L 1129.95477 16.638052 
" style="fill: none; stroke: #000000; stroke-width: 0.8; stroke-linejoin: miter; stroke-linecap: square"/>
   </g>
   <g id="patch_142">
    <path d="M 889.450204 246.90101 
L 1129.95477 246.90101 
" style="fill: none; stroke: #000000; stroke-width: 0.8; stroke-linejoin: miter; stroke-linecap: square"/>
   </g>
   <g id="patch_143">
    <path d="M 889.450204 16.638052 
L 1129.95477 16.638052 
" style="fill: none; stroke: #000000; stroke-width: 0.8; stroke-linejoin: miter; stroke-linecap: square"/>
   </g>
  </g>
  <g id="axes_5">
   <g id="patch_144">
    <path d="M 1196.495194 246.90101 
L 1436.99976 246.90101 
L 1436.99976 16.638052 
L 1196.495194 16.638052 
z
" style="fill: #ffffff"/>
   </g>
   <g id="patch_145">
    <path d="M 1207.42722 246.90101 
L 1214.008372 246.90101 
L 1214.008372 245.6164 
L 1207.42722 245.6164 
z
" clip-path="url(#pfaa6897640)" style="fill: #1f77b4"/>
   </g>
   <g id="patch_146">
    <path d="M 1214.739612 246.90101 
L 1221.320764 246.90101 
L 1221.320764 246.044604 
L 1214.739612 246.044604 
z
" clip-path="url(#pfaa6897640)" style="fill: #1f77b4"/>
   </g>
   <g id="patch_147">
    <path d="M 1222.052003 246.90101 
L 1228.633156 246.90101 
L 1228.633156 243.903587 
L 1222.052003 243.903587 
z
" clip-path="url(#pfaa6897640)" style="fill: #1f77b4"/>
   </g>
   <g id="patch_148">
    <path d="M 1229.364395 246.90101 
L 1235.945548 246.90101 
L 1235.945548 242.190775 
L 1229.364395 242.190775 
z
" clip-path="url(#pfaa6897640)" style="fill: #1f77b4"/>
   </g>
   <g id="patch_149">
    <path d="M 1236.676787 246.90101 
L 1243.25794 246.90101 
L 1243.25794 235.767726 
L 1236.676787 235.767726 
z
" clip-path="url(#pfaa6897640)" style="fill: #1f77b4"/>
   </g>
   <g id="patch_150">
    <path d="M 1243.989179 246.90101 
L 1250.570331 246.90101 
L 1250.570331 227.631865 
L 1243.989179 227.631865 
z
" clip-path="url(#pfaa6897640)" style="fill: #1f77b4"/>
   </g>
   <g id="patch_151">
    <path d="M 1251.301571 246.90101 
L 1257.882723 246.90101 
L 1257.882723 211.788346 
L 1251.301571 211.788346 
z
" clip-path="url(#pfaa6897640)" style="fill: #1f77b4"/>
   </g>
   <g id="patch_152">
    <path d="M 1258.613962 246.90101 
L 1265.195115 246.90101 
L 1265.195115 205.365298 
L 1258.613962 205.365298 
z
" clip-path="url(#pfaa6897640)" style="fill: #1f77b4"/>
   </g>
   <g id="patch_153">
    <path d="M 1265.926354 246.90101 
L 1272.507507 246.90101 
L 1272.507507 161.68857 
L 1265.926354 161.68857 
z
" clip-path="url(#pfaa6897640)" style="fill: #1f77b4"/>
   </g>
   <g id="patch_154">
    <path d="M 1273.238746 246.90101 
L 1279.819899 246.90101 
L 1279.819899 143.275831 
L 1273.238746 143.275831 
z
" clip-path="url(#pfaa6897640)" style="fill: #1f77b4"/>
   </g>
   <g id="patch_155">
    <path d="M 1280.551138 246.90101 
L 1287.13229 246.90101 
L 1287.13229 103.452932 
L 1280.551138 103.452932 
z
" clip-path="url(#pfaa6897640)" style="fill: #1f77b4"/>
   </g>
   <g id="patch_156">
    <path d="M 1287.863529 246.90101 
L 1294.444682 246.90101 
L 1294.444682 79.045349 
L 1287.863529 79.045349 
z
" clip-path="url(#pfaa6897640)" style="fill: #1f77b4"/>
   </g>
   <g id="patch_157">
    <path d="M 1295.175921 246.90101 
L 1301.757074 246.90101 
L 1301.757074 56.778781 
L 1295.175921 56.778781 
z
" clip-path="url(#pfaa6897640)" style="fill: #1f77b4"/>
   </g>
   <g id="patch_158">
    <path d="M 1302.488313 246.90101 
L 1309.069466 246.90101 
L 1309.069466 41.363465 
L 1302.488313 41.363465 
z
" clip-path="url(#pfaa6897640)" style="fill: #1f77b4"/>
   </g>
   <g id="patch_159">
    <path d="M 1309.800705 246.90101 
L 1316.381857 246.90101 
L 1316.381857 46.073701 
L 1309.800705 46.073701 
z
" clip-path="url(#pfaa6897640)" style="fill: #1f77b4"/>
   </g>
   <g id="patch_160">
    <path d="M 1317.113097 246.90101 
L 1323.694249 246.90101 
L 1323.694249 38.794246 
L 1317.113097 38.794246 
z
" clip-path="url(#pfaa6897640)" style="fill: #1f77b4"/>
   </g>
   <g id="patch_161">
    <path d="M 1324.425488 246.90101 
L 1331.006641 246.90101 
L 1331.006641 70.053081 
L 1324.425488 70.053081 
z
" clip-path="url(#pfaa6897640)" style="fill: #1f77b4"/>
   </g>
   <g id="patch_162">
    <path d="M 1331.73788 246.90101 
L 1338.319033 246.90101 
L 1338.319033 100.027306 
L 1331.73788 100.027306 
z
" clip-path="url(#pfaa6897640)" style="fill: #1f77b4"/>
   </g>
   <g id="patch_163">
    <path d="M 1339.050272 246.90101 
L 1345.631425 246.90101 
L 1345.631425 121.009264 
L 1339.050272 121.009264 
z
" clip-path="url(#pfaa6897640)" style="fill: #1f77b4"/>
   </g>
   <g id="patch_164">
    <path d="M 1346.362664 246.90101 
L 1352.943816 246.90101 
L 1352.943816 154.409115 
L 1346.362664 154.409115 
z
" clip-path="url(#pfaa6897640)" style="fill: #1f77b4"/>
   </g>
   <g id="patch_165">
    <path d="M 1353.675056 246.90101 
L 1360.256208 246.90101 
L 1360.256208 179.673105 
L 1353.675056 179.673105 
z
" clip-path="url(#pfaa6897640)" style="fill: #1f77b4"/>
   </g>
   <g id="patch_166">
    <path d="M 1360.987447 246.90101 
L 1367.5686 246.90101 
L 1367.5686 199.370453 
L 1360.987447 199.370453 
z
" clip-path="url(#pfaa6897640)" style="fill: #1f77b4"/>
   </g>
   <g id="patch_167">
    <path d="M 1368.299839 246.90101 
L 1374.880992 246.90101 
L 1374.880992 223.349833 
L 1368.299839 223.349833 
z
" clip-path="url(#pfaa6897640)" style="fill: #1f77b4"/>
   </g>
   <g id="patch_168">
    <path d="M 1375.612231 246.90101 
L 1382.193384 246.90101 
L 1382.193384 230.201084 
L 1375.612231 230.201084 
z
" clip-path="url(#pfaa6897640)" style="fill: #1f77b4"/>
   </g>
   <g id="patch_169">
    <path d="M 1382.924623 246.90101 
L 1389.505775 246.90101 
L 1389.505775 235.339523 
L 1382.924623 235.339523 
z
" clip-path="url(#pfaa6897640)" style="fill: #1f77b4"/>
   </g>
   <g id="patch_170">
    <path d="M 1390.237015 246.90101 
L 1396.818167 246.90101 
L 1396.818167 240.049759 
L 1390.237015 240.049759 
z
" clip-path="url(#pfaa6897640)" style="fill: #1f77b4"/>
   </g>
   <g id="patch_171">
    <path d="M 1397.549406 246.90101 
L 1404.130559 246.90101 
L 1404.130559 244.759994 
L 1397.549406 244.759994 
z
" clip-path="url(#pfaa6897640)" style="fill: #1f77b4"/>
   </g>
   <g id="patch_172">
    <path d="M 1404.861798 246.90101 
L 1411.442951 246.90101 
L 1411.442951 246.472807 
L 1404.861798 246.472807 
z
" clip-path="url(#pfaa6897640)" style="fill: #1f77b4"/>
   </g>
   <g id="patch_173">
    <path d="M 1412.17419 246.90101 
L 1418.755342 246.90101 
L 1418.755342 246.472807 
L 1412.17419 246.472807 
z
" clip-path="url(#pfaa6897640)" style="fill: #1f77b4"/>
   </g>
   <g id="patch_174">
    <path d="M 1419.486582 246.90101 
L 1426.067734 246.90101 
L 1426.067734 246.044604 
L 1419.486582 246.044604 
z
" clip-path="url(#pfaa6897640)" style="fill: #1f77b4"/>
   </g>
   <g id="matplotlib.axis_9">
    <g id="xtick_20">
     <g id="line2d_46">
      <g>
       <use xlink:href="#mb3405e2dde" x="1218.932204" y="246.90101" style="stroke: #000000; stroke-width: 0.8"/>
      </g>
     </g>
     <g id="text_50">
      <!-- 4800 -->
      <g transform="translate(1201.117204 264.538822) scale(0.14 -0.14)">
       <use xlink:href="#DejaVuSans-34"/>
       <use xlink:href="#DejaVuSans-38" x="63.623047"/>
       <use xlink:href="#DejaVuSans-30" x="127.246094"/>
       <use xlink:href="#DejaVuSans-30" x="190.869141"/>
      </g>
     </g>
    </g>
    <g id="xtick_21">
     <g id="line2d_47">
      <g>
       <use xlink:href="#mb3405e2dde" x="1300.269031" y="246.90101" style="stroke: #000000; stroke-width: 0.8"/>
      </g>
     </g>
     <g id="text_51">
      <!-- 5000 -->
      <g transform="translate(1282.454031 264.538822) scale(0.14 -0.14)">
       <use xlink:href="#DejaVuSans-35"/>
       <use xlink:href="#DejaVuSans-30" x="63.623047"/>
       <use xlink:href="#DejaVuSans-30" x="127.246094"/>
       <use xlink:href="#DejaVuSans-30" x="190.869141"/>
      </g>
     </g>
    </g>
    <g id="xtick_22">
     <g id="line2d_48">
      <g>
       <use xlink:href="#mb3405e2dde" x="1381.605858" y="246.90101" style="stroke: #000000; stroke-width: 0.8"/>
      </g>
     </g>
     <g id="text_52">
      <!-- 5200 -->
      <g transform="translate(1363.790858 264.538822) scale(0.14 -0.14)">
       <use xlink:href="#DejaVuSans-35"/>
       <use xlink:href="#DejaVuSans-32" x="63.623047"/>
       <use xlink:href="#DejaVuSans-30" x="127.246094"/>
       <use xlink:href="#DejaVuSans-30" x="190.869141"/>
      </g>
     </g>
    </g>
    <g id="text_53">
     <!-- $G_{12}$ [MPa] -->
     <g transform="translate(1282.657477 282.088197) scale(0.14 -0.14)">
      <defs>
       <path id="DejaVuSans-Oblique-47" d="M 3494 697 
L 3738 1919 
L 2700 1919 
L 2797 2438 
L 4453 2438 
L 4050 384 
Q 3634 156 3143 32 
Q 2653 -91 2156 -91 
Q 1278 -91 783 396 
Q 288 884 288 1753 
Q 288 2475 589 3126 
Q 891 3778 1422 4213 
Q 1756 4484 2153 4617 
Q 2550 4750 3034 4750 
Q 3472 4750 3873 4639 
Q 4275 4528 4641 4306 
L 4513 3634 
Q 4231 3928 3853 4083 
Q 3475 4238 3047 4238 
Q 2550 4238 2172 4048 
Q 1794 3859 1497 3463 
Q 1244 3125 1098 2667 
Q 953 2209 953 1734 
Q 953 1081 1287 751 
Q 1622 422 2284 422 
Q 2616 422 2925 492 
Q 3234 563 3494 697 
z
" transform="scale(0.015625)"/>
      </defs>
      <use xlink:href="#DejaVuSans-Oblique-47" transform="translate(0 0.015625)"/>
      <use xlink:href="#DejaVuSans-31" transform="translate(77.490234 -16.390625) scale(0.7)"/>
      <use xlink:href="#DejaVuSans-32" transform="translate(122.026367 -16.390625) scale(0.7)"/>
      <use xlink:href="#DejaVuSans-20" transform="translate(169.296875 0.015625)"/>
      <use xlink:href="#DejaVuSans-5b" transform="translate(201.083984 0.015625)"/>
      <use xlink:href="#DejaVuSans-4d" transform="translate(240.097656 0.015625)"/>
      <use xlink:href="#DejaVuSans-50" transform="translate(326.376953 0.015625)"/>
      <use xlink:href="#DejaVuSans-61" transform="translate(386.679688 0.015625)"/>
      <use xlink:href="#DejaVuSans-5d" transform="translate(447.958984 0.015625)"/>
     </g>
    </g>
   </g>
   <g id="matplotlib.axis_10">
    <g id="ytick_22">
     <g id="line2d_49">
      <g>
       <use xlink:href="#m99f0e8980f" x="1196.495194" y="246.90101" style="stroke: #000000; stroke-width: 0.8"/>
      </g>
     </g>
     <g id="text_54">
      <!-- 0.000 -->
      <g transform="translate(1149.415819 252.219916) scale(0.14 -0.14)">
       <use xlink:href="#DejaVuSans-30"/>
       <use xlink:href="#DejaVuSans-2e" x="63.623047"/>
       <use xlink:href="#DejaVuSans-30" x="95.410156"/>
       <use xlink:href="#DejaVuSans-30" x="159.033203"/>
       <use xlink:href="#DejaVuSans-30" x="222.65625"/>
      </g>
     </g>
    </g>
    <g id="ytick_23">
     <g id="line2d_50">
      <g>
       <use xlink:href="#m99f0e8980f" x="1196.495194" y="208.40443" style="stroke: #000000; stroke-width: 0.8"/>
      </g>
     </g>
     <g id="text_55">
      <!-- 0.001 -->
      <g transform="translate(1149.415819 213.723336) scale(0.14 -0.14)">
       <use xlink:href="#DejaVuSans-30"/>
       <use xlink:href="#DejaVuSans-2e" x="63.623047"/>
       <use xlink:href="#DejaVuSans-30" x="95.410156"/>
       <use xlink:href="#DejaVuSans-30" x="159.033203"/>
       <use xlink:href="#DejaVuSans-31" x="222.65625"/>
      </g>
     </g>
    </g>
    <g id="ytick_24">
     <g id="line2d_51">
      <g>
       <use xlink:href="#m99f0e8980f" x="1196.495194" y="169.907849" style="stroke: #000000; stroke-width: 0.8"/>
      </g>
     </g>
     <g id="text_56">
      <!-- 0.002 -->
      <g transform="translate(1149.415819 175.226755) scale(0.14 -0.14)">
       <use xlink:href="#DejaVuSans-30"/>
       <use xlink:href="#DejaVuSans-2e" x="63.623047"/>
       <use xlink:href="#DejaVuSans-30" x="95.410156"/>
       <use xlink:href="#DejaVuSans-30" x="159.033203"/>
       <use xlink:href="#DejaVuSans-32" x="222.65625"/>
      </g>
     </g>
    </g>
    <g id="ytick_25">
     <g id="line2d_52">
      <g>
       <use xlink:href="#m99f0e8980f" x="1196.495194" y="131.411269" style="stroke: #000000; stroke-width: 0.8"/>
      </g>
     </g>
     <g id="text_57">
      <!-- 0.003 -->
      <g transform="translate(1149.415819 136.730175) scale(0.14 -0.14)">
       <use xlink:href="#DejaVuSans-30"/>
       <use xlink:href="#DejaVuSans-2e" x="63.623047"/>
       <use xlink:href="#DejaVuSans-30" x="95.410156"/>
       <use xlink:href="#DejaVuSans-30" x="159.033203"/>
       <use xlink:href="#DejaVuSans-33" x="222.65625"/>
      </g>
     </g>
    </g>
    <g id="ytick_26">
     <g id="line2d_53">
      <g>
       <use xlink:href="#m99f0e8980f" x="1196.495194" y="92.914688" style="stroke: #000000; stroke-width: 0.8"/>
      </g>
     </g>
     <g id="text_58">
      <!-- 0.004 -->
      <g transform="translate(1149.415819 98.233594) scale(0.14 -0.14)">
       <use xlink:href="#DejaVuSans-30"/>
       <use xlink:href="#DejaVuSans-2e" x="63.623047"/>
       <use xlink:href="#DejaVuSans-30" x="95.410156"/>
       <use xlink:href="#DejaVuSans-30" x="159.033203"/>
       <use xlink:href="#DejaVuSans-34" x="222.65625"/>
      </g>
     </g>
    </g>
    <g id="ytick_27">
     <g id="line2d_54">
      <g>
       <use xlink:href="#m99f0e8980f" x="1196.495194" y="54.418108" style="stroke: #000000; stroke-width: 0.8"/>
      </g>
     </g>
     <g id="text_59">
      <!-- 0.005 -->
      <g transform="translate(1149.415819 59.737014) scale(0.14 -0.14)">
       <use xlink:href="#DejaVuSans-30"/>
       <use xlink:href="#DejaVuSans-2e" x="63.623047"/>
       <use xlink:href="#DejaVuSans-30" x="95.410156"/>
       <use xlink:href="#DejaVuSans-30" x="159.033203"/>
       <use xlink:href="#DejaVuSans-35" x="222.65625"/>
      </g>
     </g>
    </g>
   </g>
   <g id="line2d_55">
    <path d="M 1239.266411 244.46371 
L 1240.991738 243.983086 
L 1242.717064 243.420492 
L 1244.442391 242.764648 
L 1246.167718 242.003245 
L 1247.893044 241.122949 
L 1249.618371 240.109425 
L 1251.343697 238.947388 
L 1253.069024 237.620678 
L 1254.794351 236.112365 
L 1256.519677 234.404892 
L 1258.245004 232.480252 
L 1259.970331 230.320195 
L 1261.695657 227.906485 
L 1263.420984 225.221183 
L 1265.14631 222.246977 
L 1266.871637 218.967537 
L 1268.596964 215.367908 
L 1270.32229 211.434926 
L 1272.047617 207.157649 
L 1273.772944 202.527812 
L 1275.49827 197.540269 
L 1277.223597 192.193443 
L 1278.948923 186.489745 
L 1280.67425 180.435973 
L 1282.399577 174.043661 
L 1284.124903 167.329375 
L 1285.85023 160.314948 
L 1287.575557 153.027622 
L 1289.300883 145.500114 
L 1291.02621 137.770575 
L 1292.751536 129.882443 
L 1294.476863 121.884187 
L 1296.20219 113.828932 
L 1297.927516 105.773976 
L 1299.652843 97.780189 
L 1301.37817 89.911313 
L 1303.103496 82.233161 
L 1304.828823 74.81274 
L 1306.55415 67.717302 
L 1308.279476 61.013347 
L 1310.004803 54.765601 
L 1311.730129 49.035979 
L 1313.455456 43.882573 
L 1315.180783 39.35867 
L 1316.906109 35.511841 
L 1318.631436 32.383103 
L 1320.356763 30.006197 
L 1322.082089 28.40698 
L 1323.807416 27.602955 
L 1325.532742 27.602955 
L 1327.258069 28.40698 
L 1328.983396 30.006197 
L 1330.708722 32.383103 
L 1332.434049 35.511841 
L 1334.159376 39.35867 
L 1335.884702 43.882573 
L 1337.610029 49.035979 
L 1339.335355 54.765601 
L 1341.060682 61.013347 
L 1342.786009 67.717302 
L 1344.511335 74.81274 
L 1346.236662 82.233161 
L 1347.961989 89.911313 
L 1349.687315 97.780189 
L 1351.412642 105.773976 
L 1353.137968 113.828932 
L 1354.863295 121.884187 
L 1356.588622 129.882443 
L 1358.313948 137.770575 
L 1360.039275 145.500114 
L 1361.764602 153.027622 
L 1363.489928 160.314948 
L 1365.215255 167.329375 
L 1366.940581 174.043661 
L 1368.665908 180.435973 
L 1370.391235 186.489745 
L 1372.116561 192.193443 
L 1373.841888 197.540269 
L 1375.567215 202.527812 
L 1377.292541 207.157649 
L 1379.017868 211.434926 
L 1380.743195 215.367908 
L 1382.468521 218.967537 
L 1384.193848 222.246977 
L 1385.919174 225.221183 
L 1387.644501 227.906485 
L 1389.369828 230.320195 
L 1391.095154 232.480252 
L 1392.820481 234.404892 
L 1394.545808 236.112365 
L 1396.271134 237.620678 
L 1397.996461 238.947388 
L 1399.721787 240.109425 
L 1401.447114 241.122949 
L 1403.172441 242.003245 
L 1404.897767 242.764648 
L 1406.623094 243.420492 
L 1408.348421 243.983086 
L 1410.073747 244.46371 
" clip-path="url(#pfaa6897640)" style="fill: none; stroke: #2ca02c; stroke-width: 1.5; stroke-linecap: square"/>
   </g>
   <g id="patch_175">
    <path d="M 1196.495194 246.90101 
L 1196.495194 16.638052 
" style="fill: none; stroke: #000000; stroke-width: 0.8; stroke-linejoin: miter; stroke-linecap: square"/>
   </g>
   <g id="patch_176">
    <path d="M 1436.99976 246.90101 
L 1436.99976 16.638052 
" style="fill: none; stroke: #000000; stroke-width: 0.8; stroke-linejoin: miter; stroke-linecap: square"/>
   </g>
   <g id="patch_177">
    <path d="M 1196.495194 246.90101 
L 1436.99976 246.90101 
" style="fill: none; stroke: #000000; stroke-width: 0.8; stroke-linejoin: miter; stroke-linecap: square"/>
   </g>
   <g id="patch_178">
    <path d="M 1196.495194 16.638052 
L 1436.99976 16.638052 
" style="fill: none; stroke: #000000; stroke-width: 0.8; stroke-linejoin: miter; stroke-linecap: square"/>
   </g>
  </g>
 </g>
 <defs>
  <clipPath id="p800f92ddf4">
   <rect x="36.457115" y="16.638052" width="240.504566" height="230.262958"/>
  </clipPath>
  <clipPath id="p7ed704515d">
   <rect x="336.813508" y="16.638052" width="240.504566" height="230.262958"/>
  </clipPath>
  <clipPath id="p3b75e1b3c8">
   <rect x="618.130158" y="16.638052" width="240.504566" height="230.262958"/>
  </clipPath>
  <clipPath id="p4fbaf68a1e">
   <rect x="889.450204" y="16.638052" width="240.504566" height="230.262958"/>
  </clipPath>
  <clipPath id="pfaa6897640">
   <rect x="1196.495194" y="16.638052" width="240.504566" height="230.262958"/>
  </clipPath>
 </defs>
</svg>
