<?xml version="1.0" encoding="utf-8" standalone="no"?>
<!DOCTYPE svg PUBLIC "-//W3C//DTD SVG 1.1//EN"
  "http://www.w3.org/Graphics/SVG/1.1/DTD/svg11.dtd">
<svg xmlns:xlink="http://www.w3.org/1999/xlink" width="576pt" height="288pt" viewBox="0 0 576 288" xmlns="http://www.w3.org/2000/svg" version="1.1">
 <metadata>
  <rdf:RDF xmlns:dc="http://purl.org/dc/elements/1.1/" xmlns:cc="http://creativecommons.org/ns#" xmlns:rdf="http://www.w3.org/1999/02/22-rdf-syntax-ns#">
   <cc:Work>
    <dc:type rdf:resource="http://purl.org/dc/dcmitype/StillImage"/>
    <dc:date>2024-11-24T10:56:03.880092</dc:date>
    <dc:format>image/svg+xml</dc:format>
    <dc:creator>
     <cc:Agent>
      <dc:title>Matplotlib v3.9.2, https://matplotlib.org/</dc:title>
     </cc:Agent>
    </dc:creator>
   </cc:Work>
  </rdf:RDF>
 </metadata>
 <defs>
  <style type="text/css">*{stroke-linejoin: round; stroke-linecap: butt}</style>
 </defs>
 <g id="figure_1">
  <g id="patch_1">
   <path d="M 0 288 
L 576 288 
L 576 0 
L 0 0 
z
" style="fill: #ffffff"/>
  </g>
  <g id="axes_1">
   <g id="patch_2">
    <path d="M 44.203125 246.84375 
L 297.551562 246.84375 
L 297.551562 25.918125 
L 44.203125 25.918125 
z
" style="fill: #ffffff"/>
   </g>
   <g id="PolyCollection_1">
    <defs>
     <path id="m32f037f237" d="M 134.733518 -51.198324 
L 134.631778 -51.198324 
L 130.956216 -53.227026 
L 127.557979 -55.255727 
L 124.437065 -57.284429 
L 121.593476 -59.313131 
L 119.027211 -61.341833 
L 116.738271 -63.370535 
L 114.726655 -65.399236 
L 112.992363 -67.427938 
L 111.535395 -69.45664 
L 110.355752 -71.485342 
L 109.453433 -73.514044 
L 108.828438 -75.542745 
L 108.331767 -77.571447 
L 107.814419 -79.600149 
L 107.276395 -81.628851 
L 106.717693 -83.657553 
L 106.138315 -85.686254 
L 105.538261 -87.714956 
L 104.917529 -89.743658 
L 104.276121 -91.77236 
L 103.65587 -93.801061 
L 103.098612 -95.829763 
L 102.604347 -97.858465 
L 102.173074 -99.887167 
L 101.804793 -101.915869 
L 101.499506 -103.94457 
L 101.25721 -105.973272 
L 101.077907 -108.001974 
L 100.910016 -110.030676 
L 100.701956 -112.059378 
L 100.453726 -114.088079 
L 100.165326 -116.116781 
L 99.836757 -118.145483 
L 99.468019 -120.174185 
L 99.059112 -122.202887 
L 98.610035 -124.231588 
L 98.128985 -126.26029 
L 97.624159 -128.288992 
L 97.095555 -130.317694 
L 96.543175 -132.346395 
L 95.967018 -134.375097 
L 95.367084 -136.403799 
L 94.743373 -138.432501 
L 94.095885 -140.461203 
L 93.440094 -142.489904 
L 92.791473 -144.518606 
L 92.150021 -146.547308 
L 91.515738 -148.57601 
L 90.888625 -150.604712 
L 90.268682 -152.633413 
L 89.655908 -154.662115 
L 89.050304 -156.690817 
L 88.431138 -158.719519 
L 87.77768 -160.748221 
L 87.089929 -162.776922 
L 86.367886 -164.805624 
L 85.61155 -166.834326 
L 84.820922 -168.863028 
L 83.996001 -170.89173 
L 83.136788 -172.920431 
L 82.234609 -174.949133 
L 81.280793 -176.977835 
L 80.275339 -179.006537 
L 79.218247 -181.035238 
L 78.109517 -183.06394 
L 76.949149 -185.092642 
L 75.737144 -187.121344 
L 74.4735 -189.150046 
L 73.263945 -191.178747 
L 72.214203 -193.207449 
L 71.324275 -195.236151 
L 70.59416 -197.264853 
L 70.023859 -199.293555 
L 69.613371 -201.322256 
L 69.362697 -203.350958 
L 69.271837 -205.37966 
L 69.16893 -207.408362 
L 68.882115 -209.437064 
L 68.411392 -211.465765 
L 67.756762 -213.494467 
L 66.918224 -215.523169 
L 65.895778 -217.551871 
L 64.689425 -219.580572 
L 63.299164 -221.609274 
L 61.856076 -223.637976 
L 60.49124 -225.666678 
L 59.204657 -227.69538 
L 57.996326 -229.724081 
L 56.866248 -231.752783 
L 55.814422 -233.781485 
L 54.840849 -235.810187 
L 53.945528 -237.838889 
L 53.12846 -239.86759 
L 52.389644 -241.896292 
L 51.729081 -243.924994 
L 51.14677 -245.953696 
L 50.642712 -247.982398 
L 50.216907 -250.011099 
L 49.869353 -252.039801 
L 95.382007 -252.039801 
L 95.382007 -252.039801 
L 95.637332 -250.011099 
L 95.889263 -247.982398 
L 96.137801 -245.953696 
L 96.382946 -243.924994 
L 96.624698 -241.896292 
L 96.863056 -239.86759 
L 97.098021 -237.838889 
L 97.329593 -235.810187 
L 97.557771 -233.781485 
L 97.782556 -231.752783 
L 98.003948 -229.724081 
L 98.221947 -227.69538 
L 98.449995 -225.666678 
L 98.701535 -223.637976 
L 98.976568 -221.609274 
L 99.275094 -219.580572 
L 99.597112 -217.551871 
L 99.942622 -215.523169 
L 100.311625 -213.494467 
L 100.70412 -211.465765 
L 101.118195 -209.437064 
L 101.551936 -207.408362 
L 102.005342 -205.37966 
L 102.478415 -203.350958 
L 102.971154 -201.322256 
L 103.483559 -199.293555 
L 104.015631 -197.264853 
L 104.567368 -195.236151 
L 105.130379 -193.207449 
L 105.696274 -191.178747 
L 106.26505 -189.150046 
L 106.836709 -187.121344 
L 107.411251 -185.092642 
L 107.988675 -183.06394 
L 108.568982 -181.035238 
L 109.152171 -179.006537 
L 109.727797 -176.977835 
L 110.285417 -174.949133 
L 110.82503 -172.920431 
L 111.346636 -170.89173 
L 111.850235 -168.863028 
L 112.335827 -166.834326 
L 112.803411 -164.805624 
L 113.252989 -162.776922 
L 113.700036 -160.748221 
L 114.160026 -158.719519 
L 114.632961 -156.690817 
L 115.11884 -154.662115 
L 115.617663 -152.633413 
L 116.12943 -150.604712 
L 116.654141 -148.57601 
L 117.191797 -146.547308 
L 117.748977 -144.518606 
L 118.332262 -142.489904 
L 118.941652 -140.461203 
L 119.577146 -138.432501 
L 120.238746 -136.403799 
L 120.926451 -134.375097 
L 121.640261 -132.346395 
L 122.380176 -130.317694 
L 123.121958 -128.288992 
L 123.84137 -126.26029 
L 124.538413 -124.231588 
L 125.213085 -122.202887 
L 125.865387 -120.174185 
L 126.49532 -118.145483 
L 127.102882 -116.116781 
L 127.688074 -114.088079 
L 128.250896 -112.059378 
L 128.791349 -110.030676 
L 129.309431 -108.001974 
L 129.805143 -105.973272 
L 130.278486 -103.94457 
L 130.729458 -101.915869 
L 131.15806 -99.887167 
L 131.564293 -97.858465 
L 131.948155 -95.829763 
L 132.309647 -93.801061 
L 132.64877 -91.77236 
L 132.965522 -89.743658 
L 133.259905 -87.714956 
L 133.531917 -85.686254 
L 133.781559 -83.657553 
L 134.008832 -81.628851 
L 134.213734 -79.600149 
L 134.396267 -77.571447 
L 134.556429 -75.542745 
L 134.694221 -73.514044 
L 134.809644 -71.485342 
L 134.902696 -69.45664 
L 134.973379 -67.427938 
L 135.021691 -65.399236 
L 135.047633 -63.370535 
L 135.051206 -61.341833 
L 135.032408 -59.313131 
L 134.991241 -57.284429 
L 134.927703 -55.255727 
L 134.841796 -53.227026 
L 134.733518 -51.198324 
z
" style="stroke: #90ee90; stroke-opacity: 0.75"/>
    </defs>
    <g clip-path="url(#pd9ed043604)">
     <use xlink:href="#m32f037f237" x="0" y="288" style="fill: #90ee90; fill-opacity: 0.75; stroke: #90ee90; stroke-opacity: 0.75"/>
    </g>
   </g>
   <g id="PolyCollection_2">
    <defs>
     <path id="mc67249c828" d="M 134.751693 -51.198324 
L 134.643818 -51.198324 
L 133.86906 -53.227026 
L 133.069603 -55.255727 
L 132.271425 -57.284429 
L 131.483169 -59.313131 
L 130.698918 -61.341833 
L 129.911764 -63.370535 
L 129.13965 -65.399236 
L 128.364965 -67.427938 
L 127.603066 -69.45664 
L 126.838941 -71.485342 
L 126.082508 -73.514044 
L 125.322925 -75.542745 
L 124.571159 -77.571447 
L 123.810775 -79.600149 
L 123.080258 -81.628851 
L 122.33614 -83.657553 
L 121.614294 -85.686254 
L 120.882742 -87.714956 
L 120.154588 -89.743658 
L 119.42978 -91.77236 
L 118.706981 -93.801061 
L 117.974653 -95.829763 
L 117.272052 -97.858465 
L 116.569611 -99.887167 
L 115.840455 -101.915869 
L 115.14013 -103.94457 
L 114.440153 -105.973272 
L 113.737531 -108.001974 
L 113.027013 -110.030676 
L 112.320843 -112.059378 
L 111.604647 -114.088079 
L 110.90317 -116.116781 
L 110.177792 -118.145483 
L 109.485649 -120.174185 
L 108.779582 -122.202887 
L 108.067066 -124.231588 
L 107.373835 -126.26029 
L 106.686644 -128.288992 
L 105.979958 -130.317694 
L 105.298581 -132.346395 
L 104.605039 -134.375097 
L 103.885662 -136.403799 
L 103.1664 -138.432501 
L 102.434517 -140.461203 
L 101.733884 -142.489904 
L 101.026239 -144.518606 
L 100.310468 -146.547308 
L 99.582145 -148.57601 
L 98.869323 -150.604712 
L 98.114376 -152.633413 
L 97.366521 -154.662115 
L 96.659994 -156.690817 
L 95.930658 -158.719519 
L 95.208053 -160.748221 
L 94.465307 -162.776922 
L 93.721688 -164.805624 
L 92.948831 -166.834326 
L 92.22202 -168.863028 
L 91.478418 -170.89173 
L 90.73619 -172.920431 
L 89.993529 -174.949133 
L 89.245958 -176.977835 
L 88.48362 -179.006537 
L 87.711507 -181.035238 
L 86.960769 -183.06394 
L 86.174249 -185.092642 
L 85.417856 -187.121344 
L 84.597108 -189.150046 
L 83.843627 -191.178747 
L 83.036509 -193.207449 
L 82.260099 -195.236151 
L 81.385498 -197.264853 
L 80.551064 -199.293555 
L 79.777144 -201.322256 
L 79.012144 -203.350958 
L 78.199408 -205.37966 
L 77.38721 -207.408362 
L 76.516058 -209.437064 
L 75.681386 -211.465765 
L 74.856107 -213.494467 
L 73.966687 -215.523169 
L 73.0991 -217.551871 
L 72.244299 -219.580572 
L 71.395301 -221.609274 
L 70.524204 -223.637976 
L 69.624084 -225.666678 
L 68.763685 -227.69538 
L 67.873489 -229.724081 
L 66.998185 -231.752783 
L 66.147342 -233.781485 
L 65.241319 -235.810187 
L 64.417096 -237.838889 
L 63.500724 -239.86759 
L 62.621546 -241.896292 
L 61.709028 -243.924994 
L 60.829603 -245.953696 
L 59.916667 -247.982398 
L 59.034686 -250.011099 
L 58.169732 -252.039801 
L 70.476385 -252.039801 
L 70.476385 -252.039801 
L 71.032402 -250.011099 
L 71.562789 -247.982398 
L 72.110099 -245.953696 
L 72.690893 -243.924994 
L 73.281865 -241.896292 
L 73.875715 -239.86759 
L 74.474434 -237.838889 
L 75.049803 -235.810187 
L 75.658597 -233.781485 
L 76.269217 -231.752783 
L 76.877158 -229.724081 
L 77.507195 -227.69538 
L 78.126329 -225.666678 
L 78.741867 -223.637976 
L 79.393771 -221.609274 
L 80.04949 -219.580572 
L 80.693415 -217.551871 
L 81.353069 -215.523169 
L 82.024466 -213.494467 
L 82.712508 -211.465765 
L 83.39203 -209.437064 
L 84.083298 -207.408362 
L 84.775307 -205.37966 
L 85.453941 -203.350958 
L 86.140937 -201.322256 
L 86.833735 -199.293555 
L 87.534365 -197.264853 
L 88.225216 -195.236151 
L 88.937955 -193.207449 
L 89.626168 -191.178747 
L 90.32464 -189.150046 
L 91.044484 -187.121344 
L 91.757301 -185.092642 
L 92.468537 -183.06394 
L 93.153504 -181.035238 
L 93.854812 -179.006537 
L 94.549675 -176.977835 
L 95.249595 -174.949133 
L 95.94139 -172.920431 
L 96.646587 -170.89173 
L 97.339947 -168.863028 
L 98.03927 -166.834326 
L 98.726699 -164.805624 
L 99.405156 -162.776922 
L 100.100298 -160.748221 
L 100.781764 -158.719519 
L 101.447984 -156.690817 
L 102.123255 -154.662115 
L 102.794801 -152.633413 
L 103.468288 -150.604712 
L 104.134708 -148.57601 
L 104.815321 -146.547308 
L 105.471106 -144.518606 
L 106.127065 -142.489904 
L 106.774045 -140.461203 
L 107.427494 -138.432501 
L 108.087089 -136.403799 
L 108.742033 -134.375097 
L 109.384177 -132.346395 
L 110.021872 -130.317694 
L 110.675324 -128.288992 
L 111.325552 -126.26029 
L 111.970342 -124.231588 
L 112.617073 -122.202887 
L 113.255893 -120.174185 
L 113.908868 -118.145483 
L 114.528294 -116.116781 
L 115.169589 -114.088079 
L 115.801271 -112.059378 
L 116.432892 -110.030676 
L 117.077305 -108.001974 
L 117.722101 -105.973272 
L 118.352665 -103.94457 
L 119.005 -101.915869 
L 119.635212 -99.887167 
L 120.279918 -97.858465 
L 120.921778 -95.829763 
L 121.55965 -93.801061 
L 122.193286 -91.77236 
L 122.82865 -89.743658 
L 123.480697 -87.714956 
L 124.120444 -85.686254 
L 124.762248 -83.657553 
L 125.395873 -81.628851 
L 126.034392 -79.600149 
L 126.689983 -77.571447 
L 127.30738 -75.542745 
L 127.95268 -73.514044 
L 128.576776 -71.485342 
L 129.212017 -69.45664 
L 129.845119 -67.427938 
L 130.486009 -65.399236 
L 131.095633 -63.370535 
L 131.715596 -61.341833 
L 132.32575 -59.313131 
L 132.932535 -57.284429 
L 133.528659 -55.255727 
L 134.118998 -53.227026 
L 134.751693 -51.198324 
z
" style="stroke: #6495ed; stroke-opacity: 0.75"/>
    </defs>
    <g clip-path="url(#pd9ed043604)">
     <use xlink:href="#mc67249c828" x="0" y="288" style="fill: #6495ed; fill-opacity: 0.75; stroke: #6495ed; stroke-opacity: 0.75"/>
    </g>
   </g>
   <g id="matplotlib.axis_1">
    <g id="xtick_1">
     <g id="line2d_1">
      <defs>
       <path id="m4bf68a75d4" d="M 0 0 
L 0 3.5 
" style="stroke: #000000; stroke-width: 0.8"/>
      </defs>
      <g>
       <use xlink:href="#m4bf68a75d4" x="62.299442" y="246.84375" style="stroke: #000000; stroke-width: 0.8"/>
      </g>
     </g>
     <g id="text_1">
      <!-- −0.04 -->
      <g transform="translate(46.976786 261.442187) scale(0.1 -0.1)">
       <defs>
        <path id="DejaVuSans-2212" d="M 678 2272 
L 4684 2272 
L 4684 1741 
L 678 1741 
L 678 2272 
z
" transform="scale(0.015625)"/>
        <path id="DejaVuSans-30" d="M 2034 4250 
Q 1547 4250 1301 3770 
Q 1056 3291 1056 2328 
Q 1056 1369 1301 889 
Q 1547 409 2034 409 
Q 2525 409 2770 889 
Q 3016 1369 3016 2328 
Q 3016 3291 2770 3770 
Q 2525 4250 2034 4250 
z
M 2034 4750 
Q 2819 4750 3233 4129 
Q 3647 3509 3647 2328 
Q 3647 1150 3233 529 
Q 2819 -91 2034 -91 
Q 1250 -91 836 529 
Q 422 1150 422 2328 
Q 422 3509 836 4129 
Q 1250 4750 2034 4750 
z
" transform="scale(0.015625)"/>
        <path id="DejaVuSans-2e" d="M 684 794 
L 1344 794 
L 1344 0 
L 684 0 
L 684 794 
z
" transform="scale(0.015625)"/>
        <path id="DejaVuSans-34" d="M 2419 4116 
L 825 1625 
L 2419 1625 
L 2419 4116 
z
M 2253 4666 
L 3047 4666 
L 3047 1625 
L 3713 1625 
L 3713 1100 
L 3047 1100 
L 3047 0 
L 2419 0 
L 2419 1100 
L 313 1100 
L 313 1709 
L 2253 4666 
z
" transform="scale(0.015625)"/>
       </defs>
       <use xlink:href="#DejaVuSans-2212"/>
       <use xlink:href="#DejaVuSans-30" x="83.789062"/>
       <use xlink:href="#DejaVuSans-2e" x="147.412109"/>
       <use xlink:href="#DejaVuSans-30" x="179.199219"/>
       <use xlink:href="#DejaVuSans-34" x="242.822266"/>
      </g>
     </g>
    </g>
    <g id="xtick_2">
     <g id="line2d_2">
      <g>
       <use xlink:href="#m4bf68a75d4" x="98.492076" y="246.84375" style="stroke: #000000; stroke-width: 0.8"/>
      </g>
     </g>
     <g id="text_2">
      <!-- −0.02 -->
      <g transform="translate(83.16942 261.442187) scale(0.1 -0.1)">
       <defs>
        <path id="DejaVuSans-32" d="M 1228 531 
L 3431 531 
L 3431 0 
L 469 0 
L 469 531 
Q 828 903 1448 1529 
Q 2069 2156 2228 2338 
Q 2531 2678 2651 2914 
Q 2772 3150 2772 3378 
Q 2772 3750 2511 3984 
Q 2250 4219 1831 4219 
Q 1534 4219 1204 4116 
Q 875 4013 500 3803 
L 500 4441 
Q 881 4594 1212 4672 
Q 1544 4750 1819 4750 
Q 2544 4750 2975 4387 
Q 3406 4025 3406 3419 
Q 3406 3131 3298 2873 
Q 3191 2616 2906 2266 
Q 2828 2175 2409 1742 
Q 1991 1309 1228 531 
z
" transform="scale(0.015625)"/>
       </defs>
       <use xlink:href="#DejaVuSans-2212"/>
       <use xlink:href="#DejaVuSans-30" x="83.789062"/>
       <use xlink:href="#DejaVuSans-2e" x="147.412109"/>
       <use xlink:href="#DejaVuSans-30" x="179.199219"/>
       <use xlink:href="#DejaVuSans-32" x="242.822266"/>
      </g>
     </g>
    </g>
    <g id="xtick_3">
     <g id="line2d_3">
      <g>
       <use xlink:href="#m4bf68a75d4" x="134.68471" y="246.84375" style="stroke: #000000; stroke-width: 0.8"/>
      </g>
     </g>
     <g id="text_3">
      <!-- 0.00 -->
      <g transform="translate(123.551897 261.442187) scale(0.1 -0.1)">
       <use xlink:href="#DejaVuSans-30"/>
       <use xlink:href="#DejaVuSans-2e" x="63.623047"/>
       <use xlink:href="#DejaVuSans-30" x="95.410156"/>
       <use xlink:href="#DejaVuSans-30" x="159.033203"/>
      </g>
     </g>
    </g>
    <g id="xtick_4">
     <g id="line2d_4">
      <g>
       <use xlink:href="#m4bf68a75d4" x="170.877344" y="246.84375" style="stroke: #000000; stroke-width: 0.8"/>
      </g>
     </g>
     <g id="text_4">
      <!-- 0.02 -->
      <g transform="translate(159.744531 261.442187) scale(0.1 -0.1)">
       <use xlink:href="#DejaVuSans-30"/>
       <use xlink:href="#DejaVuSans-2e" x="63.623047"/>
       <use xlink:href="#DejaVuSans-30" x="95.410156"/>
       <use xlink:href="#DejaVuSans-32" x="159.033203"/>
      </g>
     </g>
    </g>
    <g id="xtick_5">
     <g id="line2d_5">
      <g>
       <use xlink:href="#m4bf68a75d4" x="207.069978" y="246.84375" style="stroke: #000000; stroke-width: 0.8"/>
      </g>
     </g>
     <g id="text_5">
      <!-- 0.04 -->
      <g transform="translate(195.937165 261.442187) scale(0.1 -0.1)">
       <use xlink:href="#DejaVuSans-30"/>
       <use xlink:href="#DejaVuSans-2e" x="63.623047"/>
       <use xlink:href="#DejaVuSans-30" x="95.410156"/>
       <use xlink:href="#DejaVuSans-34" x="159.033203"/>
      </g>
     </g>
    </g>
    <g id="xtick_6">
     <g id="line2d_6">
      <g>
       <use xlink:href="#m4bf68a75d4" x="243.262612" y="246.84375" style="stroke: #000000; stroke-width: 0.8"/>
      </g>
     </g>
     <g id="text_6">
      <!-- 0.06 -->
      <g transform="translate(232.129799 261.442187) scale(0.1 -0.1)">
       <defs>
        <path id="DejaVuSans-36" d="M 2113 2584 
Q 1688 2584 1439 2293 
Q 1191 2003 1191 1497 
Q 1191 994 1439 701 
Q 1688 409 2113 409 
Q 2538 409 2786 701 
Q 3034 994 3034 1497 
Q 3034 2003 2786 2293 
Q 2538 2584 2113 2584 
z
M 3366 4563 
L 3366 3988 
Q 3128 4100 2886 4159 
Q 2644 4219 2406 4219 
Q 1781 4219 1451 3797 
Q 1122 3375 1075 2522 
Q 1259 2794 1537 2939 
Q 1816 3084 2150 3084 
Q 2853 3084 3261 2657 
Q 3669 2231 3669 1497 
Q 3669 778 3244 343 
Q 2819 -91 2113 -91 
Q 1303 -91 875 529 
Q 447 1150 447 2328 
Q 447 3434 972 4092 
Q 1497 4750 2381 4750 
Q 2619 4750 2861 4703 
Q 3103 4656 3366 4563 
z
" transform="scale(0.015625)"/>
       </defs>
       <use xlink:href="#DejaVuSans-30"/>
       <use xlink:href="#DejaVuSans-2e" x="63.623047"/>
       <use xlink:href="#DejaVuSans-30" x="95.410156"/>
       <use xlink:href="#DejaVuSans-36" x="159.033203"/>
      </g>
     </g>
    </g>
    <g id="xtick_7">
     <g id="line2d_7">
      <g>
       <use xlink:href="#m4bf68a75d4" x="279.455246" y="246.84375" style="stroke: #000000; stroke-width: 0.8"/>
      </g>
     </g>
     <g id="text_7">
      <!-- 0.08 -->
      <g transform="translate(268.322433 261.442187) scale(0.1 -0.1)">
       <defs>
        <path id="DejaVuSans-38" d="M 2034 2216 
Q 1584 2216 1326 1975 
Q 1069 1734 1069 1313 
Q 1069 891 1326 650 
Q 1584 409 2034 409 
Q 2484 409 2743 651 
Q 3003 894 3003 1313 
Q 3003 1734 2745 1975 
Q 2488 2216 2034 2216 
z
M 1403 2484 
Q 997 2584 770 2862 
Q 544 3141 544 3541 
Q 544 4100 942 4425 
Q 1341 4750 2034 4750 
Q 2731 4750 3128 4425 
Q 3525 4100 3525 3541 
Q 3525 3141 3298 2862 
Q 3072 2584 2669 2484 
Q 3125 2378 3379 2068 
Q 3634 1759 3634 1313 
Q 3634 634 3220 271 
Q 2806 -91 2034 -91 
Q 1263 -91 848 271 
Q 434 634 434 1313 
Q 434 1759 690 2068 
Q 947 2378 1403 2484 
z
M 1172 3481 
Q 1172 3119 1398 2916 
Q 1625 2713 2034 2713 
Q 2441 2713 2670 2916 
Q 2900 3119 2900 3481 
Q 2900 3844 2670 4047 
Q 2441 4250 2034 4250 
Q 1625 4250 1398 4047 
Q 1172 3844 1172 3481 
z
" transform="scale(0.015625)"/>
       </defs>
       <use xlink:href="#DejaVuSans-30"/>
       <use xlink:href="#DejaVuSans-2e" x="63.623047"/>
       <use xlink:href="#DejaVuSans-30" x="95.410156"/>
       <use xlink:href="#DejaVuSans-38" x="159.033203"/>
      </g>
     </g>
    </g>
    <g id="text_8">
     <!-- Normal Extension [mm] -->
     <g transform="translate(111.419531 275.120313) scale(0.1 -0.1)">
      <defs>
       <path id="DejaVuSans-4e" d="M 628 4666 
L 1478 4666 
L 3547 763 
L 3547 4666 
L 4159 4666 
L 4159 0 
L 3309 0 
L 1241 3903 
L 1241 0 
L 628 0 
L 628 4666 
z
" transform="scale(0.015625)"/>
       <path id="DejaVuSans-6f" d="M 1959 3097 
Q 1497 3097 1228 2736 
Q 959 2375 959 1747 
Q 959 1119 1226 758 
Q 1494 397 1959 397 
Q 2419 397 2687 759 
Q 2956 1122 2956 1747 
Q 2956 2369 2687 2733 
Q 2419 3097 1959 3097 
z
M 1959 3584 
Q 2709 3584 3137 3096 
Q 3566 2609 3566 1747 
Q 3566 888 3137 398 
Q 2709 -91 1959 -91 
Q 1206 -91 779 398 
Q 353 888 353 1747 
Q 353 2609 779 3096 
Q 1206 3584 1959 3584 
z
" transform="scale(0.015625)"/>
       <path id="DejaVuSans-72" d="M 2631 2963 
Q 2534 3019 2420 3045 
Q 2306 3072 2169 3072 
Q 1681 3072 1420 2755 
Q 1159 2438 1159 1844 
L 1159 0 
L 581 0 
L 581 3500 
L 1159 3500 
L 1159 2956 
Q 1341 3275 1631 3429 
Q 1922 3584 2338 3584 
Q 2397 3584 2469 3576 
Q 2541 3569 2628 3553 
L 2631 2963 
z
" transform="scale(0.015625)"/>
       <path id="DejaVuSans-6d" d="M 3328 2828 
Q 3544 3216 3844 3400 
Q 4144 3584 4550 3584 
Q 5097 3584 5394 3201 
Q 5691 2819 5691 2113 
L 5691 0 
L 5113 0 
L 5113 2094 
Q 5113 2597 4934 2840 
Q 4756 3084 4391 3084 
Q 3944 3084 3684 2787 
Q 3425 2491 3425 1978 
L 3425 0 
L 2847 0 
L 2847 2094 
Q 2847 2600 2669 2842 
Q 2491 3084 2119 3084 
Q 1678 3084 1418 2786 
Q 1159 2488 1159 1978 
L 1159 0 
L 581 0 
L 581 3500 
L 1159 3500 
L 1159 2956 
Q 1356 3278 1631 3431 
Q 1906 3584 2284 3584 
Q 2666 3584 2933 3390 
Q 3200 3197 3328 2828 
z
" transform="scale(0.015625)"/>
       <path id="DejaVuSans-61" d="M 2194 1759 
Q 1497 1759 1228 1600 
Q 959 1441 959 1056 
Q 959 750 1161 570 
Q 1363 391 1709 391 
Q 2188 391 2477 730 
Q 2766 1069 2766 1631 
L 2766 1759 
L 2194 1759 
z
M 3341 1997 
L 3341 0 
L 2766 0 
L 2766 531 
Q 2569 213 2275 61 
Q 1981 -91 1556 -91 
Q 1019 -91 701 211 
Q 384 513 384 1019 
Q 384 1609 779 1909 
Q 1175 2209 1959 2209 
L 2766 2209 
L 2766 2266 
Q 2766 2663 2505 2880 
Q 2244 3097 1772 3097 
Q 1472 3097 1187 3025 
Q 903 2953 641 2809 
L 641 3341 
Q 956 3463 1253 3523 
Q 1550 3584 1831 3584 
Q 2591 3584 2966 3190 
Q 3341 2797 3341 1997 
z
" transform="scale(0.015625)"/>
       <path id="DejaVuSans-6c" d="M 603 4863 
L 1178 4863 
L 1178 0 
L 603 0 
L 603 4863 
z
" transform="scale(0.015625)"/>
       <path id="DejaVuSans-20" transform="scale(0.015625)"/>
       <path id="DejaVuSans-45" d="M 628 4666 
L 3578 4666 
L 3578 4134 
L 1259 4134 
L 1259 2753 
L 3481 2753 
L 3481 2222 
L 1259 2222 
L 1259 531 
L 3634 531 
L 3634 0 
L 628 0 
L 628 4666 
z
" transform="scale(0.015625)"/>
       <path id="DejaVuSans-78" d="M 3513 3500 
L 2247 1797 
L 3578 0 
L 2900 0 
L 1881 1375 
L 863 0 
L 184 0 
L 1544 1831 
L 300 3500 
L 978 3500 
L 1906 2253 
L 2834 3500 
L 3513 3500 
z
" transform="scale(0.015625)"/>
       <path id="DejaVuSans-74" d="M 1172 4494 
L 1172 3500 
L 2356 3500 
L 2356 3053 
L 1172 3053 
L 1172 1153 
Q 1172 725 1289 603 
Q 1406 481 1766 481 
L 2356 481 
L 2356 0 
L 1766 0 
Q 1100 0 847 248 
Q 594 497 594 1153 
L 594 3053 
L 172 3053 
L 172 3500 
L 594 3500 
L 594 4494 
L 1172 4494 
z
" transform="scale(0.015625)"/>
       <path id="DejaVuSans-65" d="M 3597 1894 
L 3597 1613 
L 953 1613 
Q 991 1019 1311 708 
Q 1631 397 2203 397 
Q 2534 397 2845 478 
Q 3156 559 3463 722 
L 3463 178 
Q 3153 47 2828 -22 
Q 2503 -91 2169 -91 
Q 1331 -91 842 396 
Q 353 884 353 1716 
Q 353 2575 817 3079 
Q 1281 3584 2069 3584 
Q 2775 3584 3186 3129 
Q 3597 2675 3597 1894 
z
M 3022 2063 
Q 3016 2534 2758 2815 
Q 2500 3097 2075 3097 
Q 1594 3097 1305 2825 
Q 1016 2553 972 2059 
L 3022 2063 
z
" transform="scale(0.015625)"/>
       <path id="DejaVuSans-6e" d="M 3513 2113 
L 3513 0 
L 2938 0 
L 2938 2094 
Q 2938 2591 2744 2837 
Q 2550 3084 2163 3084 
Q 1697 3084 1428 2787 
Q 1159 2491 1159 1978 
L 1159 0 
L 581 0 
L 581 3500 
L 1159 3500 
L 1159 2956 
Q 1366 3272 1645 3428 
Q 1925 3584 2291 3584 
Q 2894 3584 3203 3211 
Q 3513 2838 3513 2113 
z
" transform="scale(0.015625)"/>
       <path id="DejaVuSans-73" d="M 2834 3397 
L 2834 2853 
Q 2591 2978 2328 3040 
Q 2066 3103 1784 3103 
Q 1356 3103 1142 2972 
Q 928 2841 928 2578 
Q 928 2378 1081 2264 
Q 1234 2150 1697 2047 
L 1894 2003 
Q 2506 1872 2764 1633 
Q 3022 1394 3022 966 
Q 3022 478 2636 193 
Q 2250 -91 1575 -91 
Q 1294 -91 989 -36 
Q 684 19 347 128 
L 347 722 
Q 666 556 975 473 
Q 1284 391 1588 391 
Q 1994 391 2212 530 
Q 2431 669 2431 922 
Q 2431 1156 2273 1281 
Q 2116 1406 1581 1522 
L 1381 1569 
Q 847 1681 609 1914 
Q 372 2147 372 2553 
Q 372 3047 722 3315 
Q 1072 3584 1716 3584 
Q 2034 3584 2315 3537 
Q 2597 3491 2834 3397 
z
" transform="scale(0.015625)"/>
       <path id="DejaVuSans-69" d="M 603 3500 
L 1178 3500 
L 1178 0 
L 603 0 
L 603 3500 
z
M 603 4863 
L 1178 4863 
L 1178 4134 
L 603 4134 
L 603 4863 
z
" transform="scale(0.015625)"/>
       <path id="DejaVuSans-5b" d="M 550 4863 
L 1875 4863 
L 1875 4416 
L 1125 4416 
L 1125 -397 
L 1875 -397 
L 1875 -844 
L 550 -844 
L 550 4863 
z
" transform="scale(0.015625)"/>
       <path id="DejaVuSans-5d" d="M 1947 4863 
L 1947 -844 
L 622 -844 
L 622 -397 
L 1369 -397 
L 1369 4416 
L 622 4416 
L 622 4863 
L 1947 4863 
z
" transform="scale(0.015625)"/>
      </defs>
      <use xlink:href="#DejaVuSans-4e"/>
      <use xlink:href="#DejaVuSans-6f" x="74.804688"/>
      <use xlink:href="#DejaVuSans-72" x="135.986328"/>
      <use xlink:href="#DejaVuSans-6d" x="175.349609"/>
      <use xlink:href="#DejaVuSans-61" x="272.761719"/>
      <use xlink:href="#DejaVuSans-6c" x="334.041016"/>
      <use xlink:href="#DejaVuSans-20" x="361.824219"/>
      <use xlink:href="#DejaVuSans-45" x="393.611328"/>
      <use xlink:href="#DejaVuSans-78" x="456.794922"/>
      <use xlink:href="#DejaVuSans-74" x="515.974609"/>
      <use xlink:href="#DejaVuSans-65" x="555.183594"/>
      <use xlink:href="#DejaVuSans-6e" x="616.707031"/>
      <use xlink:href="#DejaVuSans-73" x="680.085938"/>
      <use xlink:href="#DejaVuSans-69" x="732.185547"/>
      <use xlink:href="#DejaVuSans-6f" x="759.96875"/>
      <use xlink:href="#DejaVuSans-6e" x="821.150391"/>
      <use xlink:href="#DejaVuSans-20" x="884.529297"/>
      <use xlink:href="#DejaVuSans-5b" x="916.316406"/>
      <use xlink:href="#DejaVuSans-6d" x="955.330078"/>
      <use xlink:href="#DejaVuSans-6d" x="1052.742188"/>
      <use xlink:href="#DejaVuSans-5d" x="1150.154297"/>
     </g>
    </g>
   </g>
   <g id="matplotlib.axis_2">
    <g id="ytick_1">
     <g id="line2d_8">
      <defs>
       <path id="m143edd0caf" d="M 0 0 
L -3.5 0 
" style="stroke: #000000; stroke-width: 0.8"/>
      </defs>
      <g>
       <use xlink:href="#m143edd0caf" x="44.203125" y="236.801676" style="stroke: #000000; stroke-width: 0.8"/>
      </g>
     </g>
     <g id="text_9">
      <!-- 0 -->
      <g transform="translate(30.840625 240.600895) scale(0.1 -0.1)">
       <use xlink:href="#DejaVuSans-30"/>
      </g>
     </g>
    </g>
    <g id="ytick_2">
     <g id="line2d_9">
      <g>
       <use xlink:href="#m143edd0caf" x="44.203125" y="196.633381" style="stroke: #000000; stroke-width: 0.8"/>
      </g>
     </g>
     <g id="text_10">
      <!-- 2 -->
      <g transform="translate(30.840625 200.432599) scale(0.1 -0.1)">
       <use xlink:href="#DejaVuSans-32"/>
      </g>
     </g>
    </g>
    <g id="ytick_3">
     <g id="line2d_10">
      <g>
       <use xlink:href="#m143edd0caf" x="44.203125" y="156.465085" style="stroke: #000000; stroke-width: 0.8"/>
      </g>
     </g>
     <g id="text_11">
      <!-- 4 -->
      <g transform="translate(30.840625 160.264304) scale(0.1 -0.1)">
       <use xlink:href="#DejaVuSans-34"/>
      </g>
     </g>
    </g>
    <g id="ytick_4">
     <g id="line2d_11">
      <g>
       <use xlink:href="#m143edd0caf" x="44.203125" y="116.29679" style="stroke: #000000; stroke-width: 0.8"/>
      </g>
     </g>
     <g id="text_12">
      <!-- 6 -->
      <g transform="translate(30.840625 120.096009) scale(0.1 -0.1)">
       <use xlink:href="#DejaVuSans-36"/>
      </g>
     </g>
    </g>
    <g id="ytick_5">
     <g id="line2d_12">
      <g>
       <use xlink:href="#m143edd0caf" x="44.203125" y="76.128494" style="stroke: #000000; stroke-width: 0.8"/>
      </g>
     </g>
     <g id="text_13">
      <!-- 8 -->
      <g transform="translate(30.840625 79.927713) scale(0.1 -0.1)">
       <use xlink:href="#DejaVuSans-38"/>
      </g>
     </g>
    </g>
    <g id="ytick_6">
     <g id="line2d_13">
      <g>
       <use xlink:href="#m143edd0caf" x="44.203125" y="35.960199" style="stroke: #000000; stroke-width: 0.8"/>
      </g>
     </g>
     <g id="text_14">
      <!-- 10 -->
      <g transform="translate(24.478125 39.759418) scale(0.1 -0.1)">
       <defs>
        <path id="DejaVuSans-31" d="M 794 531 
L 1825 531 
L 1825 4091 
L 703 3866 
L 703 4441 
L 1819 4666 
L 2450 4666 
L 2450 531 
L 3481 531 
L 3481 0 
L 794 0 
L 794 531 
z
" transform="scale(0.015625)"/>
       </defs>
       <use xlink:href="#DejaVuSans-31"/>
       <use xlink:href="#DejaVuSans-30" x="63.623047"/>
      </g>
     </g>
    </g>
    <g id="text_15">
     <!-- Load [kN] -->
     <g transform="translate(18.398438 160.503594) rotate(-90) scale(0.1 -0.1)">
      <defs>
       <path id="DejaVuSans-4c" d="M 628 4666 
L 1259 4666 
L 1259 531 
L 3531 531 
L 3531 0 
L 628 0 
L 628 4666 
z
" transform="scale(0.015625)"/>
       <path id="DejaVuSans-64" d="M 2906 2969 
L 2906 4863 
L 3481 4863 
L 3481 0 
L 2906 0 
L 2906 525 
Q 2725 213 2448 61 
Q 2172 -91 1784 -91 
Q 1150 -91 751 415 
Q 353 922 353 1747 
Q 353 2572 751 3078 
Q 1150 3584 1784 3584 
Q 2172 3584 2448 3432 
Q 2725 3281 2906 2969 
z
M 947 1747 
Q 947 1113 1208 752 
Q 1469 391 1925 391 
Q 2381 391 2643 752 
Q 2906 1113 2906 1747 
Q 2906 2381 2643 2742 
Q 2381 3103 1925 3103 
Q 1469 3103 1208 2742 
Q 947 2381 947 1747 
z
" transform="scale(0.015625)"/>
       <path id="DejaVuSans-6b" d="M 581 4863 
L 1159 4863 
L 1159 1991 
L 2875 3500 
L 3609 3500 
L 1753 1863 
L 3688 0 
L 2938 0 
L 1159 1709 
L 1159 0 
L 581 0 
L 581 4863 
z
" transform="scale(0.015625)"/>
      </defs>
      <use xlink:href="#DejaVuSans-4c"/>
      <use xlink:href="#DejaVuSans-6f" x="53.962891"/>
      <use xlink:href="#DejaVuSans-61" x="115.144531"/>
      <use xlink:href="#DejaVuSans-64" x="176.423828"/>
      <use xlink:href="#DejaVuSans-20" x="239.900391"/>
      <use xlink:href="#DejaVuSans-5b" x="271.6875"/>
      <use xlink:href="#DejaVuSans-6b" x="310.701172"/>
      <use xlink:href="#DejaVuSans-4e" x="368.611328"/>
      <use xlink:href="#DejaVuSans-5d" x="443.416016"/>
     </g>
    </g>
   </g>
   <g id="line2d_14">
    <path d="M 44.203125 236.801676 
L 297.551562 236.801676 
" clip-path="url(#pd9ed043604)" style="fill: none; stroke-dasharray: 2.775,1.2; stroke-dashoffset: 0; stroke: #808080; stroke-opacity: 0.75; stroke-width: 0.75"/>
   </g>
   <g id="line2d_15">
    <path d="M 134.68471 246.84375 
L 134.68471 25.918125 
" clip-path="url(#pd9ed043604)" style="fill: none; stroke-dasharray: 2.775,1.2; stroke-dashoffset: 0; stroke: #808080; stroke-opacity: 0.75; stroke-width: 0.75"/>
   </g>
   <g id="line2d_16">
    <path d="M 134.68338 236.801676 
L 134.140839 234.772974 
L 133.582021 232.744273 
L 133.008169 230.715571 
L 132.420581 228.686869 
L 131.820578 226.658167 
L 131.20948 224.629465 
L 130.588576 222.600764 
L 129.959109 220.572062 
L 129.322259 218.54336 
L 128.679143 216.514658 
L 128.030806 214.485956 
L 127.378227 212.457255 
L 126.722316 210.428553 
L 126.063919 208.399851 
L 125.403822 206.371149 
L 124.742745 204.342447 
L 124.081345 202.313746 
L 123.420213 200.285044 
L 122.759878 198.256342 
L 122.100801 196.22764 
L 121.443383 194.198939 
L 120.787967 192.170237 
L 120.134846 190.141535 
L 119.484263 188.112833 
L 118.836418 186.084131 
L 118.191467 184.05543 
L 117.549518 182.026728 
L 116.910618 179.998026 
L 116.274746 177.969324 
L 115.641796 175.940622 
L 115.011566 173.911921 
L 114.383757 171.883219 
L 113.757973 169.854517 
L 113.133749 167.825815 
L 112.510577 165.797113 
L 111.887953 163.768412 
L 111.265426 161.73971 
L 110.642647 159.711008 
L 110.019402 157.682306 
L 109.395635 155.653605 
L 108.771439 153.624903 
L 108.147026 151.596201 
L 107.522676 149.567499 
L 106.898669 147.538797 
L 106.275223 145.510096 
L 105.652436 143.481394 
L 105.030251 141.452692 
L 104.408454 139.42399 
L 103.786696 137.395288 
L 103.164549 135.366587 
L 102.541571 133.337885 
L 101.917378 131.309183 
L 101.291713 129.280481 
L 100.664488 127.251779 
L 100.035801 125.223078 
L 99.405931 123.194376 
L 98.775303 121.165674 
L 98.144436 119.136972 
L 97.51389 117.10827 
L 96.884205 115.079569 
L 96.25586 113.050867 
L 95.629248 111.022165 
L 95.004663 108.993463 
L 94.382311 106.964762 
L 93.762328 104.93606 
L 93.144813 102.907358 
L 92.529845 100.878656 
L 91.917506 98.849954 
L 91.307879 96.821253 
L 90.70104 94.792551 
L 90.097033 92.763849 
L 89.495832 90.735147 
L 88.897308 88.706445 
L 88.301191 86.677744 
L 87.70705 84.649042 
L 87.11428 82.62034 
L 86.522117 80.591638 
L 85.929665 78.562936 
L 85.335941 76.534235 
L 84.739933 74.505533 
L 84.140659 72.476831 
L 83.537232 70.448129 
L 82.928907 68.419428 
L 82.315118 66.390726 
L 81.695503 64.362024 
L 81.069904 62.333322 
L 80.438357 60.30462 
L 79.801072 58.275919 
L 79.158405 56.247217 
L 78.51083 54.218515 
L 77.858922 52.189813 
L 77.203338 50.161111 
L 76.544818 48.13241 
L 75.884196 46.103708 
L 75.222414 44.075006 
L 74.560554 42.046304 
L 73.899868 40.017602 
L 73.24182 37.988901 
L 72.588119 35.960199 
" clip-path="url(#pd9ed043604)" style="fill: none; stroke-dasharray: 3.7,1.6; stroke-dashoffset: 0; stroke: #008000"/>
   </g>
   <g id="line2d_17">
    <path d="M 134.697683 236.801676 
L 133.988439 234.772974 
L 133.282331 232.744273 
L 132.579288 230.715571 
L 131.879093 228.686869 
L 131.180501 226.658167 
L 130.485751 224.629465 
L 129.793268 222.600764 
L 129.102566 220.572062 
L 128.415736 218.54336 
L 127.729731 216.514658 
L 127.047343 214.485956 
L 126.36584 212.457255 
L 125.688081 210.428553 
L 125.011531 208.399851 
L 124.337246 206.371149 
L 123.664668 204.342447 
L 122.993432 202.313746 
L 122.324893 200.285044 
L 121.657402 198.256342 
L 120.991422 196.22764 
L 120.325922 194.198939 
L 119.662327 192.170237 
L 118.99964 190.141535 
L 118.338131 188.112833 
L 117.676872 186.084131 
L 117.016236 184.05543 
L 116.356598 182.026728 
L 115.696953 179.998026 
L 115.037572 177.969324 
L 114.377658 175.940622 
L 113.718516 173.911921 
L 113.059147 171.883219 
L 112.399281 169.854517 
L 111.737978 167.825815 
L 111.076827 165.797113 
L 110.414474 163.768412 
L 109.751983 161.73971 
L 109.087991 159.711008 
L 108.422217 157.682306 
L 107.755774 155.653605 
L 107.087649 153.624903 
L 106.41717 151.596201 
L 105.74618 149.567499 
L 105.072208 147.538797 
L 104.397047 145.510096 
L 103.719506 143.481394 
L 103.040195 141.452692 
L 102.357552 139.42399 
L 101.673633 137.395288 
L 100.987175 135.366587 
L 100.297352 133.337885 
L 99.605578 131.309183 
L 98.911466 129.280481 
L 98.213851 127.251779 
L 97.514201 125.223078 
L 96.811778 123.194376 
L 96.105642 121.165674 
L 95.397465 119.136972 
L 94.686236 117.10827 
L 93.971859 115.079569 
L 93.255068 113.050867 
L 92.534743 111.022165 
L 91.812521 108.993463 
L 91.087473 106.964762 
L 90.359689 104.93606 
L 89.628902 102.907358 
L 88.895483 100.878656 
L 88.159754 98.849954 
L 87.421745 96.821253 
L 86.680842 94.792551 
L 85.938093 92.763849 
L 85.193154 90.735147 
L 84.446077 88.706445 
L 83.697772 86.677744 
L 82.947539 84.649042 
L 82.195409 82.62034 
L 81.442601 80.591638 
L 80.687855 78.562936 
L 79.93183 76.534235 
L 79.175665 74.505533 
L 78.418969 72.476831 
L 77.662105 70.448129 
L 76.905145 68.419428 
L 76.146821 66.390726 
L 75.389697 64.362024 
L 74.633591 62.333322 
L 73.877259 60.30462 
L 73.122777 58.275919 
L 72.369214 56.247217 
L 71.617399 54.218515 
L 70.867751 52.189813 
L 70.1195 50.161111 
L 69.374085 48.13241 
L 68.631332 46.103708 
L 67.891589 44.075006 
L 67.154167 42.046304 
L 66.421976 40.017602 
L 65.692945 37.988901 
L 64.967579 35.960199 
" clip-path="url(#pd9ed043604)" style="fill: none; stroke: #0000ff; stroke-width: 0.5; stroke-linecap: square"/>
   </g>
   <g id="line2d_18">
    <defs>
     <path id="m028bfa35f7" d="M 0 0.5 
C 0.132602 0.5 0.25979 0.447317 0.353553 0.353553 
C 0.447317 0.25979 0.5 0.132602 0.5 0 
C 0.5 -0.132602 0.447317 -0.25979 0.353553 -0.353553 
C 0.25979 -0.447317 0.132602 -0.5 0 -0.5 
C -0.132602 -0.5 -0.25979 -0.447317 -0.353553 -0.353553 
C -0.447317 -0.25979 -0.5 -0.132602 -0.5 0 
C -0.5 0.132602 -0.447317 0.25979 -0.353553 0.353553 
C -0.25979 0.447317 -0.132602 0.5 0 0.5 
z
" style="stroke: #1f77b4"/>
    </defs>
    <g clip-path="url(#pd9ed043604)">
     <use xlink:href="#m028bfa35f7" x="134.68471" y="236.801676" style="fill: #1f77b4; stroke: #1f77b4"/>
     <use xlink:href="#m028bfa35f7" x="132.819264" y="230.391107" style="fill: #1f77b4; stroke: #1f77b4"/>
     <use xlink:href="#m028bfa35f7" x="129.12454" y="225.826005" style="fill: #1f77b4; stroke: #1f77b4"/>
     <use xlink:href="#m028bfa35f7" x="128.572554" y="222.717851" style="fill: #1f77b4; stroke: #1f77b4"/>
     <use xlink:href="#m028bfa35f7" x="127.073315" y="218.055619" style="fill: #1f77b4; stroke: #1f77b4"/>
     <use xlink:href="#m028bfa35f7" x="126.843949" y="213.069622" style="fill: #1f77b4; stroke: #1f77b4"/>
     <use xlink:href="#m028bfa35f7" x="126.069281" y="208.018871" style="fill: #1f77b4; stroke: #1f77b4"/>
     <use xlink:href="#m028bfa35f7" x="124.004602" y="202.968121" style="fill: #1f77b4; stroke: #1f77b4"/>
     <use xlink:href="#m028bfa35f7" x="122.577575" y="197.561227" style="fill: #1f77b4; stroke: #1f77b4"/>
     <use xlink:href="#m028bfa35f7" x="119.514628" y="192.316217" style="fill: #1f77b4; stroke: #1f77b4"/>
     <use xlink:href="#m028bfa35f7" x="117.439501" y="186.812195" style="fill: #1f77b4; stroke: #1f77b4"/>
     <use xlink:href="#m028bfa35f7" x="116.121162" y="180.142614" style="fill: #1f77b4; stroke: #1f77b4"/>
     <use xlink:href="#m028bfa35f7" x="115.997161" y="175.545136" style="fill: #1f77b4; stroke: #1f77b4"/>
     <use xlink:href="#m028bfa35f7" x="112.598825" y="169.490711" style="fill: #1f77b4; stroke: #1f77b4"/>
     <use xlink:href="#m028bfa35f7" x="111.263209" y="163.242027" style="fill: #1f77b4; stroke: #1f77b4"/>
     <use xlink:href="#m028bfa35f7" x="108.341684" y="157.349485" style="fill: #1f77b4; stroke: #1f77b4"/>
     <use xlink:href="#m028bfa35f7" x="104.645335" y="151.392189" style="fill: #1f77b4; stroke: #1f77b4"/>
     <use xlink:href="#m028bfa35f7" x="102.793764" y="144.981622" style="fill: #1f77b4; stroke: #1f77b4"/>
     <use xlink:href="#m028bfa35f7" x="101.904664" y="138.830066" style="fill: #1f77b4; stroke: #1f77b4"/>
     <use xlink:href="#m028bfa35f7" x="99.97475" y="132.840394" style="fill: #1f77b4; stroke: #1f77b4"/>
     <use xlink:href="#m028bfa35f7" x="99.371643" y="126.559332" style="fill: #1f77b4; stroke: #1f77b4"/>
     <use xlink:href="#m028bfa35f7" x="97.325739" y="120.602036" style="fill: #1f77b4; stroke: #1f77b4"/>
     <use xlink:href="#m028bfa35f7" x="93.5821" y="114.288597" style="fill: #1f77b4; stroke: #1f77b4"/>
     <use xlink:href="#m028bfa35f7" x="91.805113" y="108.23417" style="fill: #1f77b4; stroke: #1f77b4"/>
     <use xlink:href="#m028bfa35f7" x="88.857822" y="101.985484" style="fill: #1f77b4; stroke: #1f77b4"/>
     <use xlink:href="#m028bfa35f7" x="87.852583" y="96.125316" style="fill: #1f77b4; stroke: #1f77b4"/>
     <use xlink:href="#m028bfa35f7" x="85.170481" y="89.552863" style="fill: #1f77b4; stroke: #1f77b4"/>
     <use xlink:href="#m028bfa35f7" x="82.937173" y="83.207045" style="fill: #1f77b4; stroke: #1f77b4"/>
     <use xlink:href="#m028bfa35f7" x="80.70791" y="77.638266" style="fill: #1f77b4; stroke: #1f77b4"/>
     <use xlink:href="#m028bfa35f7" x="77.615237" y="71.713344" style="fill: #1f77b4; stroke: #1f77b4"/>
     <use xlink:href="#m028bfa35f7" x="76.054923" y="65.464655" style="fill: #1f77b4; stroke: #1f77b4"/>
     <use xlink:href="#m028bfa35f7" x="74.050906" y="59.669239" style="fill: #1f77b4; stroke: #1f77b4"/>
     <use xlink:href="#m028bfa35f7" x="72.449873" y="54.553731" style="fill: #1f77b4; stroke: #1f77b4"/>
     <use xlink:href="#m028bfa35f7" x="69.243831" y="48.175534" style="fill: #1f77b4; stroke: #1f77b4"/>
    </g>
   </g>
   <g id="line2d_19">
    <defs>
     <path id="m71e81cb961" d="M 0 0.5 
C 0.132602 0.5 0.25979 0.447317 0.353553 0.353553 
C 0.447317 0.25979 0.5 0.132602 0.5 0 
C 0.5 -0.132602 0.447317 -0.25979 0.353553 -0.353553 
C 0.25979 -0.447317 0.132602 -0.5 0 -0.5 
C -0.132602 -0.5 -0.25979 -0.447317 -0.353553 -0.353553 
C -0.447317 -0.25979 -0.5 -0.132602 -0.5 0 
C -0.5 0.132602 -0.447317 0.25979 -0.353553 0.353553 
C -0.25979 0.447317 -0.132602 0.5 0 0.5 
z
" style="stroke: #ff7f0e"/>
    </defs>
    <g clip-path="url(#pd9ed043604)">
     <use xlink:href="#m71e81cb961" x="132.588137" y="230.973886" style="fill: #ff7f0e; stroke: #ff7f0e"/>
     <use xlink:href="#m71e81cb961" x="133.195339" y="226.246901" style="fill: #ff7f0e; stroke: #ff7f0e"/>
     <use xlink:href="#m71e81cb961" x="130.663324" y="221.746553" style="fill: #ff7f0e; stroke: #ff7f0e"/>
     <use xlink:href="#m71e81cb961" x="129.301004" y="216.922438" style="fill: #ff7f0e; stroke: #ff7f0e"/>
     <use xlink:href="#m71e81cb961" x="127.211367" y="212.163077" style="fill: #ff7f0e; stroke: #ff7f0e"/>
     <use xlink:href="#m71e81cb961" x="126.711935" y="206.594301" style="fill: #ff7f0e; stroke: #ff7f0e"/>
     <use xlink:href="#m71e81cb961" x="124.06885" y="201.025525" style="fill: #ff7f0e; stroke: #ff7f0e"/>
     <use xlink:href="#m71e81cb961" x="121.910141" y="195.424372" style="fill: #ff7f0e; stroke: #ff7f0e"/>
     <use xlink:href="#m71e81cb961" x="120.530793" y="189.887973" style="fill: #ff7f0e; stroke: #ff7f0e"/>
     <use xlink:href="#m71e81cb961" x="118.917197" y="183.412652" style="fill: #ff7f0e; stroke: #ff7f0e"/>
     <use xlink:href="#m71e81cb961" x="115.666726" y="176.710695" style="fill: #ff7f0e; stroke: #ff7f0e"/>
     <use xlink:href="#m71e81cb961" x="114.394691" y="171.141919" style="fill: #ff7f0e; stroke: #ff7f0e"/>
     <use xlink:href="#m71e81cb961" x="112.48388" y="164.957987" style="fill: #ff7f0e; stroke: #ff7f0e"/>
     <use xlink:href="#m71e81cb961" x="109.400474" y="158.35316" style="fill: #ff7f0e; stroke: #ff7f0e"/>
     <use xlink:href="#m71e81cb961" x="107.445835" y="152.363488" style="fill: #ff7f0e; stroke: #ff7f0e"/>
     <use xlink:href="#m71e81cb961" x="106.598876" y="145.888167" style="fill: #ff7f0e; stroke: #ff7f0e"/>
     <use xlink:href="#m71e81cb961" x="104.083429" y="139.671858" style="fill: #ff7f0e; stroke: #ff7f0e"/>
     <use xlink:href="#m71e81cb961" x="101.308539" y="133.45555" style="fill: #ff7f0e; stroke: #ff7f0e"/>
     <use xlink:href="#m71e81cb961" x="98.967877" y="127.206864" style="fill: #ff7f0e; stroke: #ff7f0e"/>
     <use xlink:href="#m71e81cb961" x="96.702447" y="120.569659" style="fill: #ff7f0e; stroke: #ff7f0e"/>
     <use xlink:href="#m71e81cb961" x="94.076348" y="114.54761" style="fill: #ff7f0e; stroke: #ff7f0e"/>
     <use xlink:href="#m71e81cb961" x="91.855112" y="108.52556" style="fill: #ff7f0e; stroke: #ff7f0e"/>
     <use xlink:href="#m71e81cb961" x="88.852187" y="102.21212" style="fill: #ff7f0e; stroke: #ff7f0e"/>
     <use xlink:href="#m71e81cb961" x="87.791575" y="95.80155" style="fill: #ff7f0e; stroke: #ff7f0e"/>
     <use xlink:href="#m71e81cb961" x="85.178484" y="89.973759" style="fill: #ff7f0e; stroke: #ff7f0e"/>
     <use xlink:href="#m71e81cb961" x="83.683259" y="83.725071" style="fill: #ff7f0e; stroke: #ff7f0e"/>
     <use xlink:href="#m71e81cb961" x="80.808571" y="77.444006" style="fill: #ff7f0e; stroke: #ff7f0e"/>
     <use xlink:href="#m71e81cb961" x="78.201213" y="71.162941" style="fill: #ff7f0e; stroke: #ff7f0e"/>
     <use xlink:href="#m71e81cb961" x="75.891101" y="65.464654" style="fill: #ff7f0e; stroke: #ff7f0e"/>
     <use xlink:href="#m71e81cb961" x="73.22763" y="59.572108" style="fill: #ff7f0e; stroke: #ff7f0e"/>
     <use xlink:href="#m71e81cb961" x="71.382423" y="53.67956" style="fill: #ff7f0e; stroke: #ff7f0e"/>
     <use xlink:href="#m71e81cb961" x="69.213601" y="47.625129" style="fill: #ff7f0e; stroke: #ff7f0e"/>
    </g>
   </g>
   <g id="patch_3">
    <path d="M 44.203125 246.84375 
L 44.203125 25.918125 
" style="fill: none; stroke: #000000; stroke-width: 0.8; stroke-linejoin: miter; stroke-linecap: square"/>
   </g>
   <g id="patch_4">
    <path d="M 297.551562 246.84375 
L 297.551562 25.918125 
" style="fill: none; stroke: #000000; stroke-width: 0.8; stroke-linejoin: miter; stroke-linecap: square"/>
   </g>
   <g id="patch_5">
    <path d="M 44.203125 246.84375 
L 297.551562 246.84375 
" style="fill: none; stroke: #000000; stroke-width: 0.8; stroke-linejoin: miter; stroke-linecap: square"/>
   </g>
   <g id="patch_6">
    <path d="M 44.203125 25.918125 
L 297.551562 25.918125 
" style="fill: none; stroke: #000000; stroke-width: 0.8; stroke-linejoin: miter; stroke-linecap: square"/>
   </g>
   <g id="text_16">
    <!-- Predictions ($135^\circ$) -->
    <g transform="translate(115.137344 19.918125) scale(0.12 -0.12)">
     <defs>
      <path id="DejaVuSans-50" d="M 1259 4147 
L 1259 2394 
L 2053 2394 
Q 2494 2394 2734 2622 
Q 2975 2850 2975 3272 
Q 2975 3691 2734 3919 
Q 2494 4147 2053 4147 
L 1259 4147 
z
M 628 4666 
L 2053 4666 
Q 2838 4666 3239 4311 
Q 3641 3956 3641 3272 
Q 3641 2581 3239 2228 
Q 2838 1875 2053 1875 
L 1259 1875 
L 1259 0 
L 628 0 
L 628 4666 
z
" transform="scale(0.015625)"/>
      <path id="DejaVuSans-63" d="M 3122 3366 
L 3122 2828 
Q 2878 2963 2633 3030 
Q 2388 3097 2138 3097 
Q 1578 3097 1268 2742 
Q 959 2388 959 1747 
Q 959 1106 1268 751 
Q 1578 397 2138 397 
Q 2388 397 2633 464 
Q 2878 531 3122 666 
L 3122 134 
Q 2881 22 2623 -34 
Q 2366 -91 2075 -91 
Q 1284 -91 818 406 
Q 353 903 353 1747 
Q 353 2603 823 3093 
Q 1294 3584 2113 3584 
Q 2378 3584 2631 3529 
Q 2884 3475 3122 3366 
z
" transform="scale(0.015625)"/>
      <path id="DejaVuSans-28" d="M 1984 4856 
Q 1566 4138 1362 3434 
Q 1159 2731 1159 2009 
Q 1159 1288 1364 580 
Q 1569 -128 1984 -844 
L 1484 -844 
Q 1016 -109 783 600 
Q 550 1309 550 2009 
Q 550 2706 781 3412 
Q 1013 4119 1484 4856 
L 1984 4856 
z
" transform="scale(0.015625)"/>
      <path id="DejaVuSans-33" d="M 2597 2516 
Q 3050 2419 3304 2112 
Q 3559 1806 3559 1356 
Q 3559 666 3084 287 
Q 2609 -91 1734 -91 
Q 1441 -91 1130 -33 
Q 819 25 488 141 
L 488 750 
Q 750 597 1062 519 
Q 1375 441 1716 441 
Q 2309 441 2620 675 
Q 2931 909 2931 1356 
Q 2931 1769 2642 2001 
Q 2353 2234 1838 2234 
L 1294 2234 
L 1294 2753 
L 1863 2753 
Q 2328 2753 2575 2939 
Q 2822 3125 2822 3475 
Q 2822 3834 2567 4026 
Q 2313 4219 1838 4219 
Q 1578 4219 1281 4162 
Q 984 4106 628 3988 
L 628 4550 
Q 988 4650 1302 4700 
Q 1616 4750 1894 4750 
Q 2613 4750 3031 4423 
Q 3450 4097 3450 3541 
Q 3450 3153 3228 2886 
Q 3006 2619 2597 2516 
z
" transform="scale(0.015625)"/>
      <path id="DejaVuSans-35" d="M 691 4666 
L 3169 4666 
L 3169 4134 
L 1269 4134 
L 1269 2991 
Q 1406 3038 1543 3061 
Q 1681 3084 1819 3084 
Q 2600 3084 3056 2656 
Q 3513 2228 3513 1497 
Q 3513 744 3044 326 
Q 2575 -91 1722 -91 
Q 1428 -91 1123 -41 
Q 819 9 494 109 
L 494 744 
Q 775 591 1075 516 
Q 1375 441 1709 441 
Q 2250 441 2565 725 
Q 2881 1009 2881 1497 
Q 2881 1984 2565 2268 
Q 2250 2553 1709 2553 
Q 1456 2553 1204 2497 
Q 953 2441 691 2322 
L 691 4666 
z
" transform="scale(0.015625)"/>
      <path id="DejaVuSans-2218" d="M 2003 2603 
Q 1753 2603 1581 2429 
Q 1409 2256 1409 2006 
Q 1409 1759 1581 1589 
Q 1753 1419 2003 1419 
Q 2253 1419 2425 1589 
Q 2597 1759 2597 2006 
Q 2597 2253 2423 2428 
Q 2250 2603 2003 2603 
z
M 2003 3006 
Q 2203 3006 2387 2929 
Q 2572 2853 2706 2709 
Q 2850 2569 2922 2390 
Q 2994 2212 2994 2006 
Q 2994 1594 2705 1308 
Q 2416 1022 1997 1022 
Q 1575 1022 1294 1303 
Q 1013 1584 1013 2006 
Q 1013 2425 1300 2715 
Q 1588 3006 2003 3006 
z
" transform="scale(0.015625)"/>
      <path id="DejaVuSans-29" d="M 513 4856 
L 1013 4856 
Q 1481 4119 1714 3412 
Q 1947 2706 1947 2009 
Q 1947 1309 1714 600 
Q 1481 -109 1013 -844 
L 513 -844 
Q 928 -128 1133 580 
Q 1338 1288 1338 2009 
Q 1338 2731 1133 3434 
Q 928 4138 513 4856 
z
" transform="scale(0.015625)"/>
     </defs>
     <use xlink:href="#DejaVuSans-50" transform="translate(0 0.015625)"/>
     <use xlink:href="#DejaVuSans-72" transform="translate(60.302734 0.015625)"/>
     <use xlink:href="#DejaVuSans-65" transform="translate(101.416016 0.015625)"/>
     <use xlink:href="#DejaVuSans-64" transform="translate(162.939453 0.015625)"/>
     <use xlink:href="#DejaVuSans-69" transform="translate(226.416016 0.015625)"/>
     <use xlink:href="#DejaVuSans-63" transform="translate(254.199219 0.015625)"/>
     <use xlink:href="#DejaVuSans-74" transform="translate(309.179688 0.015625)"/>
     <use xlink:href="#DejaVuSans-69" transform="translate(348.388672 0.015625)"/>
     <use xlink:href="#DejaVuSans-6f" transform="translate(376.171875 0.015625)"/>
     <use xlink:href="#DejaVuSans-6e" transform="translate(437.353516 0.015625)"/>
     <use xlink:href="#DejaVuSans-73" transform="translate(500.732422 0.015625)"/>
     <use xlink:href="#DejaVuSans-20" transform="translate(552.832031 0.015625)"/>
     <use xlink:href="#DejaVuSans-28" transform="translate(584.619141 0.015625)"/>
     <use xlink:href="#DejaVuSans-31" transform="translate(623.632812 0.015625)"/>
     <use xlink:href="#DejaVuSans-33" transform="translate(687.255859 0.015625)"/>
     <use xlink:href="#DejaVuSans-35" transform="translate(750.878906 0.015625)"/>
     <use xlink:href="#DejaVuSans-2218" transform="translate(829.09668 38.296875) scale(0.7)"/>
     <use xlink:href="#DejaVuSans-29" transform="translate(889.287109 0.015625)"/>
    </g>
   </g>
   <g id="legend_1">
    <g id="patch_7">
     <path d="M 147.65625 121.986875 
L 290.551562 121.986875 
Q 292.551562 121.986875 292.551562 119.986875 
L 292.551562 32.918125 
Q 292.551562 30.918125 290.551562 30.918125 
L 147.65625 30.918125 
Q 145.65625 30.918125 145.65625 32.918125 
L 145.65625 119.986875 
Q 145.65625 121.986875 147.65625 121.986875 
z
" style="fill: #ffffff; opacity: 0.8; stroke: #cccccc; stroke-linejoin: miter"/>
    </g>
    <g id="patch_8">
     <path d="M 149.65625 42.516562 
L 169.65625 42.516562 
L 169.65625 35.516562 
L 149.65625 35.516562 
z
" style="fill: #90ee90; fill-opacity: 0.75; stroke: #90ee90; stroke-opacity: 0.75; stroke-linejoin: miter"/>
    </g>
    <g id="text_17">
     <!-- Prior 95% interval -->
     <g transform="translate(177.65625 42.516562) scale(0.1 -0.1)">
      <defs>
       <path id="DejaVuSans-39" d="M 703 97 
L 703 672 
Q 941 559 1184 500 
Q 1428 441 1663 441 
Q 2288 441 2617 861 
Q 2947 1281 2994 2138 
Q 2813 1869 2534 1725 
Q 2256 1581 1919 1581 
Q 1219 1581 811 2004 
Q 403 2428 403 3163 
Q 403 3881 828 4315 
Q 1253 4750 1959 4750 
Q 2769 4750 3195 4129 
Q 3622 3509 3622 2328 
Q 3622 1225 3098 567 
Q 2575 -91 1691 -91 
Q 1453 -91 1209 -44 
Q 966 3 703 97 
z
M 1959 2075 
Q 2384 2075 2632 2365 
Q 2881 2656 2881 3163 
Q 2881 3666 2632 3958 
Q 2384 4250 1959 4250 
Q 1534 4250 1286 3958 
Q 1038 3666 1038 3163 
Q 1038 2656 1286 2365 
Q 1534 2075 1959 2075 
z
" transform="scale(0.015625)"/>
       <path id="DejaVuSans-25" d="M 4653 2053 
Q 4381 2053 4226 1822 
Q 4072 1591 4072 1178 
Q 4072 772 4226 539 
Q 4381 306 4653 306 
Q 4919 306 5073 539 
Q 5228 772 5228 1178 
Q 5228 1588 5073 1820 
Q 4919 2053 4653 2053 
z
M 4653 2450 
Q 5147 2450 5437 2106 
Q 5728 1763 5728 1178 
Q 5728 594 5436 251 
Q 5144 -91 4653 -91 
Q 4153 -91 3862 251 
Q 3572 594 3572 1178 
Q 3572 1766 3864 2108 
Q 4156 2450 4653 2450 
z
M 1428 4353 
Q 1159 4353 1004 4120 
Q 850 3888 850 3481 
Q 850 3069 1003 2837 
Q 1156 2606 1428 2606 
Q 1700 2606 1854 2837 
Q 2009 3069 2009 3481 
Q 2009 3884 1853 4118 
Q 1697 4353 1428 4353 
z
M 4250 4750 
L 4750 4750 
L 1831 -91 
L 1331 -91 
L 4250 4750 
z
M 1428 4750 
Q 1922 4750 2215 4408 
Q 2509 4066 2509 3481 
Q 2509 2891 2217 2550 
Q 1925 2209 1428 2209 
Q 931 2209 642 2551 
Q 353 2894 353 3481 
Q 353 4063 643 4406 
Q 934 4750 1428 4750 
z
" transform="scale(0.015625)"/>
       <path id="DejaVuSans-76" d="M 191 3500 
L 800 3500 
L 1894 563 
L 2988 3500 
L 3597 3500 
L 2284 0 
L 1503 0 
L 191 3500 
z
" transform="scale(0.015625)"/>
      </defs>
      <use xlink:href="#DejaVuSans-50"/>
      <use xlink:href="#DejaVuSans-72" x="58.552734"/>
      <use xlink:href="#DejaVuSans-69" x="99.666016"/>
      <use xlink:href="#DejaVuSans-6f" x="127.449219"/>
      <use xlink:href="#DejaVuSans-72" x="188.630859"/>
      <use xlink:href="#DejaVuSans-20" x="229.744141"/>
      <use xlink:href="#DejaVuSans-39" x="261.53125"/>
      <use xlink:href="#DejaVuSans-35" x="325.154297"/>
      <use xlink:href="#DejaVuSans-25" x="388.777344"/>
      <use xlink:href="#DejaVuSans-20" x="483.796875"/>
      <use xlink:href="#DejaVuSans-69" x="515.583984"/>
      <use xlink:href="#DejaVuSans-6e" x="543.367188"/>
      <use xlink:href="#DejaVuSans-74" x="606.746094"/>
      <use xlink:href="#DejaVuSans-65" x="645.955078"/>
      <use xlink:href="#DejaVuSans-72" x="707.478516"/>
      <use xlink:href="#DejaVuSans-76" x="748.591797"/>
      <use xlink:href="#DejaVuSans-61" x="807.771484"/>
      <use xlink:href="#DejaVuSans-6c" x="869.050781"/>
     </g>
    </g>
    <g id="line2d_20">
     <path d="M 149.65625 53.694687 
L 159.65625 53.694687 
L 169.65625 53.694687 
" style="fill: none; stroke-dasharray: 3.7,1.6; stroke-dashoffset: 0; stroke: #008000"/>
    </g>
    <g id="text_18">
     <!-- Prior mean -->
     <g transform="translate(177.65625 57.194687) scale(0.1 -0.1)">
      <use xlink:href="#DejaVuSans-50"/>
      <use xlink:href="#DejaVuSans-72" x="58.552734"/>
      <use xlink:href="#DejaVuSans-69" x="99.666016"/>
      <use xlink:href="#DejaVuSans-6f" x="127.449219"/>
      <use xlink:href="#DejaVuSans-72" x="188.630859"/>
      <use xlink:href="#DejaVuSans-20" x="229.744141"/>
      <use xlink:href="#DejaVuSans-6d" x="261.53125"/>
      <use xlink:href="#DejaVuSans-65" x="358.943359"/>
      <use xlink:href="#DejaVuSans-61" x="420.466797"/>
      <use xlink:href="#DejaVuSans-6e" x="481.746094"/>
     </g>
    </g>
    <g id="patch_9">
     <path d="M 149.65625 71.872812 
L 169.65625 71.872812 
L 169.65625 64.872812 
L 149.65625 64.872812 
z
" style="fill: #6495ed; fill-opacity: 0.75; stroke: #6495ed; stroke-opacity: 0.75; stroke-linejoin: miter"/>
    </g>
    <g id="text_19">
     <!-- Posterior 95% interval -->
     <g transform="translate(177.65625 71.872812) scale(0.1 -0.1)">
      <use xlink:href="#DejaVuSans-50"/>
      <use xlink:href="#DejaVuSans-6f" x="56.677734"/>
      <use xlink:href="#DejaVuSans-73" x="117.859375"/>
      <use xlink:href="#DejaVuSans-74" x="169.958984"/>
      <use xlink:href="#DejaVuSans-65" x="209.167969"/>
      <use xlink:href="#DejaVuSans-72" x="270.691406"/>
      <use xlink:href="#DejaVuSans-69" x="311.804688"/>
      <use xlink:href="#DejaVuSans-6f" x="339.587891"/>
      <use xlink:href="#DejaVuSans-72" x="400.769531"/>
      <use xlink:href="#DejaVuSans-20" x="441.882812"/>
      <use xlink:href="#DejaVuSans-39" x="473.669922"/>
      <use xlink:href="#DejaVuSans-35" x="537.292969"/>
      <use xlink:href="#DejaVuSans-25" x="600.916016"/>
      <use xlink:href="#DejaVuSans-20" x="695.935547"/>
      <use xlink:href="#DejaVuSans-69" x="727.722656"/>
      <use xlink:href="#DejaVuSans-6e" x="755.505859"/>
      <use xlink:href="#DejaVuSans-74" x="818.884766"/>
      <use xlink:href="#DejaVuSans-65" x="858.09375"/>
      <use xlink:href="#DejaVuSans-72" x="919.617188"/>
      <use xlink:href="#DejaVuSans-76" x="960.730469"/>
      <use xlink:href="#DejaVuSans-61" x="1019.910156"/>
      <use xlink:href="#DejaVuSans-6c" x="1081.189453"/>
     </g>
    </g>
    <g id="line2d_21">
     <path d="M 149.65625 83.050937 
L 159.65625 83.050937 
L 169.65625 83.050937 
" style="fill: none; stroke: #0000ff; stroke-width: 0.5; stroke-linecap: square"/>
    </g>
    <g id="text_20">
     <!-- Posterior mean -->
     <g transform="translate(177.65625 86.550937) scale(0.1 -0.1)">
      <use xlink:href="#DejaVuSans-50"/>
      <use xlink:href="#DejaVuSans-6f" x="56.677734"/>
      <use xlink:href="#DejaVuSans-73" x="117.859375"/>
      <use xlink:href="#DejaVuSans-74" x="169.958984"/>
      <use xlink:href="#DejaVuSans-65" x="209.167969"/>
      <use xlink:href="#DejaVuSans-72" x="270.691406"/>
      <use xlink:href="#DejaVuSans-69" x="311.804688"/>
      <use xlink:href="#DejaVuSans-6f" x="339.587891"/>
      <use xlink:href="#DejaVuSans-72" x="400.769531"/>
      <use xlink:href="#DejaVuSans-20" x="441.882812"/>
      <use xlink:href="#DejaVuSans-6d" x="473.669922"/>
      <use xlink:href="#DejaVuSans-65" x="571.082031"/>
      <use xlink:href="#DejaVuSans-61" x="632.605469"/>
      <use xlink:href="#DejaVuSans-6e" x="693.884766"/>
     </g>
    </g>
    <g id="line2d_22">
     <g>
      <use xlink:href="#m028bfa35f7" x="159.65625" y="97.729062" style="fill: #1f77b4; stroke: #1f77b4"/>
     </g>
    </g>
    <g id="text_21">
     <!-- Experimental data 1 -->
     <g transform="translate(177.65625 101.229062) scale(0.1 -0.1)">
      <defs>
       <path id="DejaVuSans-70" d="M 1159 525 
L 1159 -1331 
L 581 -1331 
L 581 3500 
L 1159 3500 
L 1159 2969 
Q 1341 3281 1617 3432 
Q 1894 3584 2278 3584 
Q 2916 3584 3314 3078 
Q 3713 2572 3713 1747 
Q 3713 922 3314 415 
Q 2916 -91 2278 -91 
Q 1894 -91 1617 61 
Q 1341 213 1159 525 
z
M 3116 1747 
Q 3116 2381 2855 2742 
Q 2594 3103 2138 3103 
Q 1681 3103 1420 2742 
Q 1159 2381 1159 1747 
Q 1159 1113 1420 752 
Q 1681 391 2138 391 
Q 2594 391 2855 752 
Q 3116 1113 3116 1747 
z
" transform="scale(0.015625)"/>
      </defs>
      <use xlink:href="#DejaVuSans-45"/>
      <use xlink:href="#DejaVuSans-78" x="63.183594"/>
      <use xlink:href="#DejaVuSans-70" x="122.363281"/>
      <use xlink:href="#DejaVuSans-65" x="185.839844"/>
      <use xlink:href="#DejaVuSans-72" x="247.363281"/>
      <use xlink:href="#DejaVuSans-69" x="288.476562"/>
      <use xlink:href="#DejaVuSans-6d" x="316.259766"/>
      <use xlink:href="#DejaVuSans-65" x="413.671875"/>
      <use xlink:href="#DejaVuSans-6e" x="475.195312"/>
      <use xlink:href="#DejaVuSans-74" x="538.574219"/>
      <use xlink:href="#DejaVuSans-61" x="577.783203"/>
      <use xlink:href="#DejaVuSans-6c" x="639.0625"/>
      <use xlink:href="#DejaVuSans-20" x="666.845703"/>
      <use xlink:href="#DejaVuSans-64" x="698.632812"/>
      <use xlink:href="#DejaVuSans-61" x="762.109375"/>
      <use xlink:href="#DejaVuSans-74" x="823.388672"/>
      <use xlink:href="#DejaVuSans-61" x="862.597656"/>
      <use xlink:href="#DejaVuSans-20" x="923.876953"/>
      <use xlink:href="#DejaVuSans-31" x="955.664062"/>
     </g>
    </g>
    <g id="line2d_23">
     <g>
      <use xlink:href="#m71e81cb961" x="159.65625" y="112.407187" style="fill: #ff7f0e; stroke: #ff7f0e"/>
     </g>
    </g>
    <g id="text_22">
     <!-- Experimental data 2 -->
     <g transform="translate(177.65625 115.907187) scale(0.1 -0.1)">
      <use xlink:href="#DejaVuSans-45"/>
      <use xlink:href="#DejaVuSans-78" x="63.183594"/>
      <use xlink:href="#DejaVuSans-70" x="122.363281"/>
      <use xlink:href="#DejaVuSans-65" x="185.839844"/>
      <use xlink:href="#DejaVuSans-72" x="247.363281"/>
      <use xlink:href="#DejaVuSans-69" x="288.476562"/>
      <use xlink:href="#DejaVuSans-6d" x="316.259766"/>
      <use xlink:href="#DejaVuSans-65" x="413.671875"/>
      <use xlink:href="#DejaVuSans-6e" x="475.195312"/>
      <use xlink:href="#DejaVuSans-74" x="538.574219"/>
      <use xlink:href="#DejaVuSans-61" x="577.783203"/>
      <use xlink:href="#DejaVuSans-6c" x="639.0625"/>
      <use xlink:href="#DejaVuSans-20" x="666.845703"/>
      <use xlink:href="#DejaVuSans-64" x="698.632812"/>
      <use xlink:href="#DejaVuSans-61" x="762.109375"/>
      <use xlink:href="#DejaVuSans-74" x="823.388672"/>
      <use xlink:href="#DejaVuSans-61" x="862.597656"/>
      <use xlink:href="#DejaVuSans-20" x="923.876953"/>
      <use xlink:href="#DejaVuSans-32" x="955.664062"/>
     </g>
    </g>
   </g>
  </g>
  <g id="axes_2">
   <g id="patch_10">
    <path d="M 311.851562 246.84375 
L 565.2 246.84375 
L 565.2 25.918125 
L 311.851562 25.918125 
z
" style="fill: #ffffff"/>
   </g>
   <g id="PolyCollection_3">
    <defs>
     <path id="m5a30c1f5cb" d="M 402.384152 -51.198324 
L 402.281805 -51.198324 
L 402.031356 -53.227026 
L 401.855619 -55.255727 
L 401.754594 -57.284429 
L 401.72828 -59.313131 
L 401.776677 -61.341833 
L 401.899786 -63.370535 
L 402.097606 -65.399236 
L 402.370137 -67.427938 
L 402.71738 -69.45664 
L 403.139335 -71.485342 
L 403.636001 -73.514044 
L 404.207378 -75.542745 
L 404.853467 -77.571447 
L 405.574267 -79.600149 
L 406.369778 -81.628851 
L 407.240001 -83.657553 
L 408.184935 -85.686254 
L 409.204581 -87.714956 
L 410.298938 -89.743658 
L 411.468007 -91.77236 
L 412.711787 -93.801061 
L 414.030278 -95.829763 
L 415.423481 -97.858465 
L 416.891396 -99.887167 
L 418.434021 -101.915869 
L 420.051358 -103.94457 
L 421.743407 -105.973272 
L 423.510167 -108.001974 
L 425.292346 -110.030676 
L 427.030651 -112.059378 
L 428.725083 -114.088079 
L 430.375642 -116.116781 
L 431.982328 -118.145483 
L 433.54514 -120.174185 
L 435.064078 -122.202887 
L 436.539143 -124.231588 
L 437.973761 -126.26029 
L 439.371358 -128.288992 
L 440.731934 -130.317694 
L 442.055489 -132.346395 
L 443.342022 -134.375097 
L 444.591535 -136.403799 
L 445.804027 -138.432501 
L 446.979497 -140.461203 
L 448.14486 -142.489904 
L 449.327028 -144.518606 
L 450.526001 -146.547308 
L 451.741779 -148.57601 
L 452.974363 -150.604712 
L 454.223752 -152.633413 
L 455.489946 -154.662115 
L 456.772946 -156.690817 
L 458.059787 -158.719519 
L 459.337505 -160.748221 
L 460.606102 -162.776922 
L 461.865576 -164.805624 
L 463.115927 -166.834326 
L 464.357157 -168.863028 
L 465.589264 -170.89173 
L 466.812249 -172.920431 
L 468.005284 -174.949133 
L 469.14754 -176.977835 
L 470.239018 -179.006537 
L 471.279718 -181.035238 
L 472.269639 -183.06394 
L 473.208781 -185.092642 
L 474.097146 -187.121344 
L 474.934732 -189.150046 
L 475.804629 -191.178747 
L 476.789927 -193.207449 
L 477.890626 -195.236151 
L 479.106725 -197.264853 
L 480.438225 -199.293555 
L 481.885126 -201.322256 
L 483.447428 -203.350958 
L 485.12513 -205.37966 
L 486.74045 -207.408362 
L 488.115606 -209.437064 
L 489.250597 -211.465765 
L 490.145423 -213.494467 
L 490.800084 -215.523169 
L 491.214581 -217.551871 
L 491.388913 -219.580572 
L 491.32308 -221.609274 
L 491.211155 -223.637976 
L 491.247211 -225.666678 
L 491.431248 -227.69538 
L 491.763266 -229.724081 
L 492.243264 -231.752783 
L 492.871243 -233.781485 
L 493.647203 -235.810187 
L 494.571144 -237.838889 
L 495.643066 -239.86759 
L 496.862969 -241.896292 
L 498.230852 -243.924994 
L 499.746716 -245.953696 
L 501.410561 -247.982398 
L 503.222387 -250.011099 
L 505.182194 -252.039801 
L 548.848691 -252.039801 
L 548.848691 -252.039801 
L 547.659337 -250.011099 
L 546.440415 -247.982398 
L 545.191926 -245.953696 
L 543.91387 -243.924994 
L 542.606246 -241.896292 
L 541.269055 -239.86759 
L 539.902296 -237.838889 
L 538.50597 -235.810187 
L 537.080077 -233.781485 
L 535.624616 -231.752783 
L 534.139587 -229.724081 
L 532.624992 -227.69538 
L 531.080829 -225.666678 
L 529.507098 -223.637976 
L 527.903801 -221.609274 
L 526.330891 -219.580572 
L 524.848325 -217.551871 
L 523.456103 -215.523169 
L 522.154224 -213.494467 
L 520.942689 -211.465765 
L 519.821498 -209.437064 
L 518.79065 -207.408362 
L 517.850147 -205.37966 
L 516.896242 -203.350958 
L 515.825191 -201.322256 
L 514.636995 -199.293555 
L 513.331652 -197.264853 
L 511.909165 -195.236151 
L 510.369531 -193.207449 
L 508.712752 -191.178747 
L 506.938826 -189.150046 
L 505.123592 -187.121344 
L 503.342887 -185.092642 
L 501.596709 -183.06394 
L 499.885059 -181.035238 
L 498.207938 -179.006537 
L 496.565344 -176.977835 
L 494.957279 -174.949133 
L 493.383742 -172.920431 
L 491.838427 -170.89173 
L 490.315029 -168.863028 
L 488.813548 -166.834326 
L 487.333983 -164.805624 
L 485.876334 -162.776922 
L 484.440602 -160.748221 
L 483.026787 -158.719519 
L 481.634889 -156.690817 
L 480.262894 -154.662115 
L 478.90879 -152.633413 
L 477.572577 -150.604712 
L 476.254256 -148.57601 
L 474.953825 -146.547308 
L 473.671286 -144.518606 
L 472.406637 -142.489904 
L 471.15988 -140.461203 
L 469.951848 -138.432501 
L 468.803375 -136.403799 
L 467.71446 -134.375097 
L 466.685105 -132.346395 
L 465.715308 -130.317694 
L 464.805071 -128.288992 
L 463.954392 -126.26029 
L 463.163273 -124.231588 
L 462.400664 -122.202887 
L 461.63552 -120.174185 
L 460.867839 -118.145483 
L 460.097621 -116.116781 
L 459.324868 -114.088079 
L 458.549578 -112.059378 
L 457.771752 -110.030676 
L 456.991389 -108.001974 
L 456.166379 -105.973272 
L 455.254608 -103.94457 
L 454.256078 -101.915869 
L 453.170789 -99.887167 
L 451.998739 -97.858465 
L 450.73993 -95.829763 
L 449.394361 -93.801061 
L 447.962032 -91.77236 
L 446.482956 -89.743658 
L 444.997145 -87.714956 
L 443.504598 -85.686254 
L 442.005315 -83.657553 
L 440.499297 -81.628851 
L 438.986544 -79.600149 
L 437.467055 -77.571447 
L 435.940831 -75.542745 
L 434.305673 -73.514044 
L 432.459381 -71.485342 
L 430.401957 -69.45664 
L 428.133399 -67.427938 
L 425.653709 -65.399236 
L 422.962886 -63.370535 
L 420.060929 -61.341833 
L 416.94784 -59.313131 
L 413.623617 -57.284429 
L 410.088262 -55.255727 
L 406.341773 -53.227026 
L 402.384152 -51.198324 
z
" style="stroke: #90ee90; stroke-opacity: 0.75"/>
    </defs>
    <g clip-path="url(#p6ee1b52c7a)">
     <use xlink:href="#m5a30c1f5cb" x="0" y="288" style="fill: #90ee90; fill-opacity: 0.75; stroke: #90ee90; stroke-opacity: 0.75"/>
    </g>
   </g>
   <g id="PolyCollection_4">
    <defs>
     <path id="md1ab7fe45a" d="M 402.387027 -51.198324 
L 402.283878 -51.198324 
L 403.613823 -53.227026 
L 404.911543 -55.255727 
L 406.21488 -57.284429 
L 407.514948 -59.313131 
L 408.818966 -61.341833 
L 410.122898 -63.370535 
L 411.435338 -65.399236 
L 412.750551 -67.427938 
L 414.065145 -69.45664 
L 415.378176 -71.485342 
L 416.702127 -73.514044 
L 418.026647 -75.542745 
L 419.339051 -77.571447 
L 420.650182 -79.600149 
L 421.980688 -81.628851 
L 423.305441 -83.657553 
L 424.631664 -85.686254 
L 425.965291 -87.714956 
L 427.305849 -89.743658 
L 428.629868 -91.77236 
L 429.961295 -93.801061 
L 431.307863 -95.829763 
L 432.658747 -97.858465 
L 434.001763 -99.887167 
L 435.342392 -101.915869 
L 436.669416 -103.94457 
L 438.023947 -105.973272 
L 439.385984 -108.001974 
L 440.737537 -110.030676 
L 442.088043 -112.059378 
L 443.442933 -114.088079 
L 444.824447 -116.116781 
L 446.164281 -118.145483 
L 447.5074 -120.174185 
L 448.866207 -122.202887 
L 450.229532 -124.231588 
L 451.582261 -126.26029 
L 452.933529 -128.288992 
L 454.306116 -130.317694 
L 455.670423 -132.346395 
L 457.039678 -134.375097 
L 458.401303 -136.403799 
L 459.785235 -138.432501 
L 461.169541 -140.461203 
L 462.549541 -142.489904 
L 463.922048 -144.518606 
L 465.309283 -146.547308 
L 466.685969 -148.57601 
L 468.071903 -150.604712 
L 469.467851 -152.633413 
L 470.859089 -154.662115 
L 472.260055 -156.690817 
L 473.666999 -158.719519 
L 475.060351 -160.748221 
L 476.448265 -162.776922 
L 477.871433 -164.805624 
L 479.277655 -166.834326 
L 480.685905 -168.863028 
L 482.0792 -170.89173 
L 483.493715 -172.920431 
L 484.905822 -174.949133 
L 486.332945 -176.977835 
L 487.738786 -179.006537 
L 489.148239 -181.035238 
L 490.575251 -183.06394 
L 491.998173 -185.092642 
L 493.422012 -187.121344 
L 494.85121 -189.150046 
L 496.257517 -191.178747 
L 497.685421 -193.207449 
L 499.084436 -195.236151 
L 500.502384 -197.264853 
L 501.91511 -199.293555 
L 503.336151 -201.322256 
L 504.751286 -203.350958 
L 506.161127 -205.37966 
L 507.568388 -207.408362 
L 508.971642 -209.437064 
L 510.355415 -211.465765 
L 511.741624 -213.494467 
L 513.110218 -215.523169 
L 514.502758 -217.551871 
L 515.876305 -219.580572 
L 517.270051 -221.609274 
L 518.65343 -223.637976 
L 520.031083 -225.666678 
L 521.368958 -227.69538 
L 522.724519 -229.724081 
L 524.075034 -231.752783 
L 525.426253 -233.781485 
L 526.802985 -235.810187 
L 528.143851 -237.838889 
L 529.462502 -239.86759 
L 530.787253 -241.896292 
L 532.096933 -243.924994 
L 533.414845 -245.953696 
L 534.723702 -247.982398 
L 536.025092 -250.011099 
L 537.315334 -252.039801 
L 548.605024 -252.039801 
L 548.605024 -252.039801 
L 546.988968 -250.011099 
L 545.386855 -247.982398 
L 543.766127 -245.953696 
L 542.132439 -243.924994 
L 540.558248 -241.896292 
L 538.918491 -239.86759 
L 537.293557 -237.838889 
L 535.680507 -235.810187 
L 534.075159 -233.781485 
L 532.434321 -231.752783 
L 530.838366 -229.724081 
L 529.198163 -227.69538 
L 527.646812 -225.666678 
L 526.074424 -223.637976 
L 524.470336 -221.609274 
L 522.897209 -219.580572 
L 521.302785 -217.551871 
L 519.710503 -215.523169 
L 518.136794 -213.494467 
L 516.57013 -211.465765 
L 515.012715 -209.437064 
L 513.467723 -207.408362 
L 511.917365 -205.37966 
L 510.360689 -203.350958 
L 508.835112 -201.322256 
L 507.300429 -199.293555 
L 505.746693 -197.264853 
L 504.223446 -195.236151 
L 502.700539 -193.207449 
L 501.178625 -191.178747 
L 499.637953 -189.150046 
L 498.131894 -187.121344 
L 496.604832 -185.092642 
L 495.075849 -183.06394 
L 493.582748 -181.035238 
L 492.087571 -179.006537 
L 490.606934 -176.977835 
L 489.109347 -174.949133 
L 487.608518 -172.920431 
L 486.121398 -170.89173 
L 484.650691 -168.863028 
L 483.172005 -166.834326 
L 481.707455 -164.805624 
L 480.252365 -162.776922 
L 478.799071 -160.748221 
L 477.3337 -158.719519 
L 475.873214 -156.690817 
L 474.41697 -154.662115 
L 472.968827 -152.633413 
L 471.515316 -150.604712 
L 470.07709 -148.57601 
L 468.645242 -146.547308 
L 467.216294 -144.518606 
L 465.789971 -142.489904 
L 464.361639 -140.461203 
L 462.936153 -138.432501 
L 461.522426 -136.403799 
L 460.093429 -134.375097 
L 458.683891 -132.346395 
L 457.285832 -130.317694 
L 455.872277 -128.288992 
L 454.466586 -126.26029 
L 453.075986 -124.231588 
L 451.687984 -122.202887 
L 450.281275 -120.174185 
L 448.892962 -118.145483 
L 447.49807 -116.116781 
L 446.119403 -114.088079 
L 444.724012 -112.059378 
L 443.34296 -110.030676 
L 441.949561 -108.001974 
L 440.572103 -105.973272 
L 439.171815 -103.94457 
L 437.788019 -101.915869 
L 436.399376 -99.887167 
L 435.014724 -97.858465 
L 433.62061 -95.829763 
L 432.222842 -93.801061 
L 430.825481 -91.77236 
L 429.43496 -89.743658 
L 428.047863 -87.714956 
L 426.649738 -85.686254 
L 425.248737 -83.657553 
L 423.842592 -81.628851 
L 422.446666 -79.600149 
L 421.040638 -77.571447 
L 419.633831 -75.542745 
L 418.213615 -73.514044 
L 416.796035 -71.485342 
L 415.373566 -69.45664 
L 413.943299 -67.427938 
L 412.518314 -65.399236 
L 411.081857 -63.370535 
L 409.640441 -61.341833 
L 408.19383 -59.313131 
L 406.742259 -57.284429 
L 405.285568 -55.255727 
L 403.826586 -53.227026 
L 402.387027 -51.198324 
z
" style="stroke: #6495ed; stroke-opacity: 0.75"/>
    </defs>
    <g clip-path="url(#p6ee1b52c7a)">
     <use xlink:href="#md1ab7fe45a" x="0" y="288" style="fill: #6495ed; fill-opacity: 0.75; stroke: #6495ed; stroke-opacity: 0.75"/>
    </g>
   </g>
   <g id="matplotlib.axis_3">
    <g id="xtick_8">
     <g id="line2d_24">
      <g>
       <use xlink:href="#m4bf68a75d4" x="329.947879" y="246.84375" style="stroke: #000000; stroke-width: 0.8"/>
      </g>
     </g>
     <g id="text_23">
      <!-- −0.04 -->
      <g transform="translate(314.625223 261.442187) scale(0.1 -0.1)">
       <use xlink:href="#DejaVuSans-2212"/>
       <use xlink:href="#DejaVuSans-30" x="83.789062"/>
       <use xlink:href="#DejaVuSans-2e" x="147.412109"/>
       <use xlink:href="#DejaVuSans-30" x="179.199219"/>
       <use xlink:href="#DejaVuSans-34" x="242.822266"/>
      </g>
     </g>
    </g>
    <g id="xtick_9">
     <g id="line2d_25">
      <g>
       <use xlink:href="#m4bf68a75d4" x="366.140513" y="246.84375" style="stroke: #000000; stroke-width: 0.8"/>
      </g>
     </g>
     <g id="text_24">
      <!-- −0.02 -->
      <g transform="translate(350.817857 261.442187) scale(0.1 -0.1)">
       <use xlink:href="#DejaVuSans-2212"/>
       <use xlink:href="#DejaVuSans-30" x="83.789062"/>
       <use xlink:href="#DejaVuSans-2e" x="147.412109"/>
       <use xlink:href="#DejaVuSans-30" x="179.199219"/>
       <use xlink:href="#DejaVuSans-32" x="242.822266"/>
      </g>
     </g>
    </g>
    <g id="xtick_10">
     <g id="line2d_26">
      <g>
       <use xlink:href="#m4bf68a75d4" x="402.333147" y="246.84375" style="stroke: #000000; stroke-width: 0.8"/>
      </g>
     </g>
     <g id="text_25">
      <!-- 0.00 -->
      <g transform="translate(391.200335 261.442187) scale(0.1 -0.1)">
       <use xlink:href="#DejaVuSans-30"/>
       <use xlink:href="#DejaVuSans-2e" x="63.623047"/>
       <use xlink:href="#DejaVuSans-30" x="95.410156"/>
       <use xlink:href="#DejaVuSans-30" x="159.033203"/>
      </g>
     </g>
    </g>
    <g id="xtick_11">
     <g id="line2d_27">
      <g>
       <use xlink:href="#m4bf68a75d4" x="438.525781" y="246.84375" style="stroke: #000000; stroke-width: 0.8"/>
      </g>
     </g>
     <g id="text_26">
      <!-- 0.02 -->
      <g transform="translate(427.392969 261.442187) scale(0.1 -0.1)">
       <use xlink:href="#DejaVuSans-30"/>
       <use xlink:href="#DejaVuSans-2e" x="63.623047"/>
       <use xlink:href="#DejaVuSans-30" x="95.410156"/>
       <use xlink:href="#DejaVuSans-32" x="159.033203"/>
      </g>
     </g>
    </g>
    <g id="xtick_12">
     <g id="line2d_28">
      <g>
       <use xlink:href="#m4bf68a75d4" x="474.718415" y="246.84375" style="stroke: #000000; stroke-width: 0.8"/>
      </g>
     </g>
     <g id="text_27">
      <!-- 0.04 -->
      <g transform="translate(463.585603 261.442187) scale(0.1 -0.1)">
       <use xlink:href="#DejaVuSans-30"/>
       <use xlink:href="#DejaVuSans-2e" x="63.623047"/>
       <use xlink:href="#DejaVuSans-30" x="95.410156"/>
       <use xlink:href="#DejaVuSans-34" x="159.033203"/>
      </g>
     </g>
    </g>
    <g id="xtick_13">
     <g id="line2d_29">
      <g>
       <use xlink:href="#m4bf68a75d4" x="510.911049" y="246.84375" style="stroke: #000000; stroke-width: 0.8"/>
      </g>
     </g>
     <g id="text_28">
      <!-- 0.06 -->
      <g transform="translate(499.778237 261.442187) scale(0.1 -0.1)">
       <use xlink:href="#DejaVuSans-30"/>
       <use xlink:href="#DejaVuSans-2e" x="63.623047"/>
       <use xlink:href="#DejaVuSans-30" x="95.410156"/>
       <use xlink:href="#DejaVuSans-36" x="159.033203"/>
      </g>
     </g>
    </g>
    <g id="xtick_14">
     <g id="line2d_30">
      <g>
       <use xlink:href="#m4bf68a75d4" x="547.103683" y="246.84375" style="stroke: #000000; stroke-width: 0.8"/>
      </g>
     </g>
     <g id="text_29">
      <!-- 0.08 -->
      <g transform="translate(535.970871 261.442187) scale(0.1 -0.1)">
       <use xlink:href="#DejaVuSans-30"/>
       <use xlink:href="#DejaVuSans-2e" x="63.623047"/>
       <use xlink:href="#DejaVuSans-30" x="95.410156"/>
       <use xlink:href="#DejaVuSans-38" x="159.033203"/>
      </g>
     </g>
    </g>
    <g id="text_30">
     <!-- Shear Extension [mm] -->
     <g transform="translate(382.620313 275.120313) scale(0.1 -0.1)">
      <defs>
       <path id="DejaVuSans-53" d="M 3425 4513 
L 3425 3897 
Q 3066 4069 2747 4153 
Q 2428 4238 2131 4238 
Q 1616 4238 1336 4038 
Q 1056 3838 1056 3469 
Q 1056 3159 1242 3001 
Q 1428 2844 1947 2747 
L 2328 2669 
Q 3034 2534 3370 2195 
Q 3706 1856 3706 1288 
Q 3706 609 3251 259 
Q 2797 -91 1919 -91 
Q 1588 -91 1214 -16 
Q 841 59 441 206 
L 441 856 
Q 825 641 1194 531 
Q 1563 422 1919 422 
Q 2459 422 2753 634 
Q 3047 847 3047 1241 
Q 3047 1584 2836 1778 
Q 2625 1972 2144 2069 
L 1759 2144 
Q 1053 2284 737 2584 
Q 422 2884 422 3419 
Q 422 4038 858 4394 
Q 1294 4750 2059 4750 
Q 2388 4750 2728 4690 
Q 3069 4631 3425 4513 
z
" transform="scale(0.015625)"/>
       <path id="DejaVuSans-68" d="M 3513 2113 
L 3513 0 
L 2938 0 
L 2938 2094 
Q 2938 2591 2744 2837 
Q 2550 3084 2163 3084 
Q 1697 3084 1428 2787 
Q 1159 2491 1159 1978 
L 1159 0 
L 581 0 
L 581 4863 
L 1159 4863 
L 1159 2956 
Q 1366 3272 1645 3428 
Q 1925 3584 2291 3584 
Q 2894 3584 3203 3211 
Q 3513 2838 3513 2113 
z
" transform="scale(0.015625)"/>
      </defs>
      <use xlink:href="#DejaVuSans-53"/>
      <use xlink:href="#DejaVuSans-68" x="63.476562"/>
      <use xlink:href="#DejaVuSans-65" x="126.855469"/>
      <use xlink:href="#DejaVuSans-61" x="188.378906"/>
      <use xlink:href="#DejaVuSans-72" x="249.658203"/>
      <use xlink:href="#DejaVuSans-20" x="290.771484"/>
      <use xlink:href="#DejaVuSans-45" x="322.558594"/>
      <use xlink:href="#DejaVuSans-78" x="385.742188"/>
      <use xlink:href="#DejaVuSans-74" x="444.921875"/>
      <use xlink:href="#DejaVuSans-65" x="484.130859"/>
      <use xlink:href="#DejaVuSans-6e" x="545.654297"/>
      <use xlink:href="#DejaVuSans-73" x="609.033203"/>
      <use xlink:href="#DejaVuSans-69" x="661.132812"/>
      <use xlink:href="#DejaVuSans-6f" x="688.916016"/>
      <use xlink:href="#DejaVuSans-6e" x="750.097656"/>
      <use xlink:href="#DejaVuSans-20" x="813.476562"/>
      <use xlink:href="#DejaVuSans-5b" x="845.263672"/>
      <use xlink:href="#DejaVuSans-6d" x="884.277344"/>
      <use xlink:href="#DejaVuSans-6d" x="981.689453"/>
      <use xlink:href="#DejaVuSans-5d" x="1079.101562"/>
     </g>
    </g>
   </g>
   <g id="matplotlib.axis_4">
    <g id="ytick_7">
     <g id="line2d_31">
      <g>
       <use xlink:href="#m143edd0caf" x="311.851562" y="236.801676" style="stroke: #000000; stroke-width: 0.8"/>
      </g>
     </g>
    </g>
    <g id="ytick_8">
     <g id="line2d_32">
      <g>
       <use xlink:href="#m143edd0caf" x="311.851562" y="196.633381" style="stroke: #000000; stroke-width: 0.8"/>
      </g>
     </g>
    </g>
    <g id="ytick_9">
     <g id="line2d_33">
      <g>
       <use xlink:href="#m143edd0caf" x="311.851562" y="156.465085" style="stroke: #000000; stroke-width: 0.8"/>
      </g>
     </g>
    </g>
    <g id="ytick_10">
     <g id="line2d_34">
      <g>
       <use xlink:href="#m143edd0caf" x="311.851562" y="116.29679" style="stroke: #000000; stroke-width: 0.8"/>
      </g>
     </g>
    </g>
    <g id="ytick_11">
     <g id="line2d_35">
      <g>
       <use xlink:href="#m143edd0caf" x="311.851562" y="76.128494" style="stroke: #000000; stroke-width: 0.8"/>
      </g>
     </g>
    </g>
    <g id="ytick_12">
     <g id="line2d_36">
      <g>
       <use xlink:href="#m143edd0caf" x="311.851562" y="35.960199" style="stroke: #000000; stroke-width: 0.8"/>
      </g>
     </g>
    </g>
   </g>
   <g id="line2d_37">
    <path d="M 311.851562 236.801676 
L 565.2 236.801676 
" clip-path="url(#p6ee1b52c7a)" style="fill: none; stroke-dasharray: 2.775,1.2; stroke-dashoffset: 0; stroke: #808080; stroke-opacity: 0.75; stroke-width: 0.75"/>
   </g>
   <g id="line2d_38">
    <path d="M 402.333147 246.84375 
L 402.333147 25.918125 
" clip-path="url(#p6ee1b52c7a)" style="fill: none; stroke-dasharray: 2.775,1.2; stroke-dashoffset: 0; stroke: #808080; stroke-opacity: 0.75; stroke-width: 0.75"/>
   </g>
   <g id="line2d_39">
    <path d="M 402.335053 236.801676 
L 403.458098 234.772974 
L 404.613773 232.744273 
L 405.799456 230.715571 
L 407.012453 228.686869 
L 408.250056 226.658167 
L 409.509604 224.629465 
L 410.788539 222.600764 
L 412.08444 220.572062 
L 413.395049 218.54336 
L 414.718288 216.514658 
L 416.052258 214.485956 
L 417.395235 212.457255 
L 418.745659 210.428553 
L 420.102109 208.399851 
L 421.463288 206.371149 
L 422.827991 204.342447 
L 424.195076 202.313746 
L 425.563437 200.285044 
L 426.931973 198.256342 
L 428.299567 196.22764 
L 429.665073 194.198939 
L 431.027319 192.170237 
L 432.385121 190.141535 
L 433.737318 188.112833 
L 435.082816 186.084131 
L 436.420636 184.05543 
L 437.74997 182.026728 
L 439.070211 179.998026 
L 440.380983 177.969324 
L 441.682139 175.940622 
L 442.97374 173.911921 
L 444.25602 171.883219 
L 445.529347 169.854517 
L 446.794182 167.825815 
L 448.051051 165.797113 
L 449.300537 163.768412 
L 450.543298 161.73971 
L 451.780086 159.711008 
L 453.011793 157.682306 
L 454.239473 155.653605 
L 455.464362 153.624903 
L 456.687864 151.596201 
L 457.911513 149.567499 
L 459.13691 147.538797 
L 460.365644 145.510096 
L 461.599216 143.481394 
L 462.838973 141.452692 
L 464.08606 139.42399 
L 465.341413 137.395288 
L 466.605762 135.366587 
L 467.879663 133.337885 
L 469.16353 131.309183 
L 470.45767 129.280481 
L 471.762298 127.251779 
L 473.077532 125.223078 
L 474.403375 123.194376 
L 475.739675 121.165674 
L 477.086078 119.136972 
L 478.441981 117.10827 
L 479.806497 115.079569 
L 481.178429 113.050867 
L 482.556277 111.022165 
L 483.938263 108.993463 
L 485.322381 106.964762 
L 486.706465 104.93606 
L 488.088267 102.907358 
L 489.465526 100.878656 
L 490.836023 98.849954 
L 492.197618 96.821253 
L 493.548255 94.792551 
L 494.885956 92.763849 
L 496.208813 90.735147 
L 497.514988 88.706445 
L 498.802751 86.677744 
L 500.070547 84.649042 
L 501.317117 82.62034 
L 502.541641 80.591638 
L 503.74389 78.562936 
L 504.924376 76.534235 
L 506.084446 74.505533 
L 507.22632 72.476831 
L 508.353058 70.448129 
L 509.468433 68.419428 
L 510.576739 66.390726 
L 511.682539 64.362024 
L 512.790379 62.333322 
L 513.904489 60.30462 
L 515.028506 58.275919 
L 516.165246 56.247217 
L 517.316532 54.218515 
L 518.483105 52.189813 
L 519.664616 50.161111 
L 520.859693 48.13241 
L 522.066069 46.103708 
L 523.280741 44.075006 
L 524.500152 42.046304 
L 525.720347 40.017602 
L 526.937109 37.988901 
L 528.146047 35.960199 
" clip-path="url(#p6ee1b52c7a)" style="fill: none; stroke-dasharray: 3.7,1.6; stroke-dashoffset: 0; stroke: #008000"/>
   </g>
   <g id="line2d_40">
    <path d="M 402.336269 236.801676 
L 403.727831 234.772974 
L 405.117129 232.744273 
L 406.504214 230.715571 
L 407.889004 228.686869 
L 409.270393 226.658167 
L 410.650775 224.629465 
L 412.028737 222.600764 
L 413.403964 220.572062 
L 414.778729 218.54336 
L 416.150174 216.514658 
L 417.521289 214.485956 
L 418.88955 212.457255 
L 420.258029 210.428553 
L 421.624414 208.399851 
L 422.989991 206.371149 
L 424.354436 204.342447 
L 425.717627 202.313746 
L 427.081166 200.285044 
L 428.443657 198.256342 
L 429.805824 196.22764 
L 431.166895 194.198939 
L 432.528563 192.170237 
L 433.890099 190.141535 
L 435.252046 188.112833 
L 436.613751 186.084131 
L 437.975862 184.05543 
L 439.339032 182.026728 
L 440.702532 179.998026 
L 442.066911 177.969324 
L 443.431647 175.940622 
L 444.798321 173.911921 
L 446.166207 171.883219 
L 447.535304 169.854517 
L 448.904941 167.825815 
L 450.276967 165.797113 
L 451.650286 163.768412 
L 453.026217 161.73971 
L 454.403643 159.711008 
L 455.782524 157.682306 
L 457.164204 155.653605 
L 458.547898 153.624903 
L 459.93315 151.596201 
L 461.322011 149.567499 
L 462.712208 147.538797 
L 464.105723 145.510096 
L 465.50154 143.481394 
L 466.900439 141.452692 
L 468.301008 139.42399 
L 469.705445 137.395288 
L 471.112618 135.366587 
L 472.521813 133.337885 
L 473.934546 131.309183 
L 475.350516 129.280481 
L 476.768631 127.251779 
L 478.190411 125.223078 
L 479.615163 123.194376 
L 481.041968 121.165674 
L 482.472506 119.136972 
L 483.905758 117.10827 
L 485.341599 115.079569 
L 486.780723 113.050867 
L 488.221944 111.022165 
L 489.666823 108.993463 
L 491.114332 106.964762 
L 492.564446 104.93606 
L 494.016762 102.907358 
L 495.471501 100.878656 
L 496.928813 98.849954 
L 498.388536 96.821253 
L 499.849851 94.792551 
L 501.313579 92.763849 
L 502.779128 90.735147 
L 504.246288 88.706445 
L 505.715689 86.677744 
L 507.186327 84.649042 
L 508.657919 82.62034 
L 510.131347 80.591638 
L 511.604999 78.562936 
L 513.079162 76.534235 
L 514.554592 74.505533 
L 516.030492 72.476831 
L 517.506807 70.448129 
L 518.983175 68.419428 
L 520.457879 66.390726 
L 521.933016 64.362024 
L 523.407928 62.333322 
L 524.880879 60.30462 
L 526.353439 58.275919 
L 527.82416 56.247217 
L 529.293342 54.218515 
L 530.760864 52.189813 
L 532.225404 50.161111 
L 533.687841 48.13241 
L 535.147432 46.103708 
L 536.603946 44.075006 
L 538.056109 42.046304 
L 539.506239 40.017602 
L 540.951664 37.988901 
L 542.392288 35.960199 
" clip-path="url(#p6ee1b52c7a)" style="fill: none; stroke: #0000ff; stroke-width: 0.5; stroke-linecap: square"/>
   </g>
   <g id="line2d_41">
    <g clip-path="url(#p6ee1b52c7a)">
     <use xlink:href="#m028bfa35f7" x="402.333147" y="236.801676" style="fill: #1f77b4; stroke: #1f77b4"/>
     <use xlink:href="#m028bfa35f7" x="406.534006" y="230.391107" style="fill: #1f77b4; stroke: #1f77b4"/>
     <use xlink:href="#m028bfa35f7" x="410.833637" y="225.826005" style="fill: #1f77b4; stroke: #1f77b4"/>
     <use xlink:href="#m028bfa35f7" x="412.399172" y="222.717851" style="fill: #1f77b4; stroke: #1f77b4"/>
     <use xlink:href="#m028bfa35f7" x="415.903118" y="218.055619" style="fill: #1f77b4; stroke: #1f77b4"/>
     <use xlink:href="#m028bfa35f7" x="419.737362" y="213.069622" style="fill: #1f77b4; stroke: #1f77b4"/>
     <use xlink:href="#m028bfa35f7" x="421.966684" y="208.018871" style="fill: #1f77b4; stroke: #1f77b4"/>
     <use xlink:href="#m028bfa35f7" x="426.325991" y="202.968121" style="fill: #1f77b4; stroke: #1f77b4"/>
     <use xlink:href="#m028bfa35f7" x="430.287534" y="197.561227" style="fill: #1f77b4; stroke: #1f77b4"/>
     <use xlink:href="#m028bfa35f7" x="433.758953" y="192.316217" style="fill: #1f77b4; stroke: #1f77b4"/>
     <use xlink:href="#m028bfa35f7" x="437.989863" y="186.812195" style="fill: #1f77b4; stroke: #1f77b4"/>
     <use xlink:href="#m028bfa35f7" x="441.874609" y="180.142614" style="fill: #1f77b4; stroke: #1f77b4"/>
     <use xlink:href="#m028bfa35f7" x="446.493324" y="175.545136" style="fill: #1f77b4; stroke: #1f77b4"/>
     <use xlink:href="#m028bfa35f7" x="450.78857" y="169.490711" style="fill: #1f77b4; stroke: #1f77b4"/>
     <use xlink:href="#m028bfa35f7" x="453.61578" y="163.242027" style="fill: #1f77b4; stroke: #1f77b4"/>
     <use xlink:href="#m028bfa35f7" x="458.831525" y="157.349485" style="fill: #1f77b4; stroke: #1f77b4"/>
     <use xlink:href="#m028bfa35f7" x="462.179319" y="151.392189" style="fill: #1f77b4; stroke: #1f77b4"/>
     <use xlink:href="#m028bfa35f7" x="467.860069" y="144.981622" style="fill: #1f77b4; stroke: #1f77b4"/>
     <use xlink:href="#m028bfa35f7" x="471.870309" y="138.830066" style="fill: #1f77b4; stroke: #1f77b4"/>
     <use xlink:href="#m028bfa35f7" x="476.728801" y="132.840394" style="fill: #1f77b4; stroke: #1f77b4"/>
     <use xlink:href="#m028bfa35f7" x="482.164859" y="126.559332" style="fill: #1f77b4; stroke: #1f77b4"/>
     <use xlink:href="#m028bfa35f7" x="484.398015" y="120.602036" style="fill: #1f77b4; stroke: #1f77b4"/>
     <use xlink:href="#m028bfa35f7" x="489.70409" y="114.288597" style="fill: #1f77b4; stroke: #1f77b4"/>
     <use xlink:href="#m028bfa35f7" x="494.196774" y="108.23417" style="fill: #1f77b4; stroke: #1f77b4"/>
     <use xlink:href="#m028bfa35f7" x="498.232167" y="101.985484" style="fill: #1f77b4; stroke: #1f77b4"/>
     <use xlink:href="#m028bfa35f7" x="503.042786" y="96.125316" style="fill: #1f77b4; stroke: #1f77b4"/>
     <use xlink:href="#m028bfa35f7" x="507.146457" y="89.552863" style="fill: #1f77b4; stroke: #1f77b4"/>
     <use xlink:href="#m028bfa35f7" x="512.580843" y="83.207045" style="fill: #1f77b4; stroke: #1f77b4"/>
     <use xlink:href="#m028bfa35f7" x="515.960141" y="77.638266" style="fill: #1f77b4; stroke: #1f77b4"/>
     <use xlink:href="#m028bfa35f7" x="520.382201" y="71.713344" style="fill: #1f77b4; stroke: #1f77b4"/>
     <use xlink:href="#m028bfa35f7" x="526.029038" y="65.464655" style="fill: #1f77b4; stroke: #1f77b4"/>
     <use xlink:href="#m028bfa35f7" x="530.447602" y="59.669239" style="fill: #1f77b4; stroke: #1f77b4"/>
     <use xlink:href="#m028bfa35f7" x="534.862812" y="54.553731" style="fill: #1f77b4; stroke: #1f77b4"/>
     <use xlink:href="#m028bfa35f7" x="538.322451" y="48.175534" style="fill: #1f77b4; stroke: #1f77b4"/>
    </g>
   </g>
   <g id="line2d_42">
    <g clip-path="url(#p6ee1b52c7a)">
     <use xlink:href="#m71e81cb961" x="406.703063" y="230.973886" style="fill: #ff7f0e; stroke: #ff7f0e"/>
     <use xlink:href="#m71e81cb961" x="409.560446" y="226.246901" style="fill: #ff7f0e; stroke: #ff7f0e"/>
     <use xlink:href="#m71e81cb961" x="413.616477" y="221.746553" style="fill: #ff7f0e; stroke: #ff7f0e"/>
     <use xlink:href="#m71e81cb961" x="415.379401" y="216.922438" style="fill: #ff7f0e; stroke: #ff7f0e"/>
     <use xlink:href="#m71e81cb961" x="419.442644" y="212.163077" style="fill: #ff7f0e; stroke: #ff7f0e"/>
     <use xlink:href="#m71e81cb961" x="423.114017" y="206.594301" style="fill: #ff7f0e; stroke: #ff7f0e"/>
     <use xlink:href="#m71e81cb961" x="426.564134" y="201.025525" style="fill: #ff7f0e; stroke: #ff7f0e"/>
     <use xlink:href="#m71e81cb961" x="430.55766" y="195.424372" style="fill: #ff7f0e; stroke: #ff7f0e"/>
     <use xlink:href="#m71e81cb961" x="434.061656" y="189.887973" style="fill: #ff7f0e; stroke: #ff7f0e"/>
     <use xlink:href="#m71e81cb961" x="438.592184" y="183.412652" style="fill: #ff7f0e; stroke: #ff7f0e"/>
     <use xlink:href="#m71e81cb961" x="443.058845" y="176.710695" style="fill: #ff7f0e; stroke: #ff7f0e"/>
     <use xlink:href="#m71e81cb961" x="447.394888" y="171.141919" style="fill: #ff7f0e; stroke: #ff7f0e"/>
     <use xlink:href="#m71e81cb961" x="450.96133" y="164.957987" style="fill: #ff7f0e; stroke: #ff7f0e"/>
     <use xlink:href="#m71e81cb961" x="455.506996" y="158.35316" style="fill: #ff7f0e; stroke: #ff7f0e"/>
     <use xlink:href="#m71e81cb961" x="460.028455" y="152.363488" style="fill: #ff7f0e; stroke: #ff7f0e"/>
     <use xlink:href="#m71e81cb961" x="464.874424" y="145.888167" style="fill: #ff7f0e; stroke: #ff7f0e"/>
     <use xlink:href="#m71e81cb961" x="469.472949" y="139.671858" style="fill: #ff7f0e; stroke: #ff7f0e"/>
     <use xlink:href="#m71e81cb961" x="473.609755" y="133.45555" style="fill: #ff7f0e; stroke: #ff7f0e"/>
     <use xlink:href="#m71e81cb961" x="478.176987" y="127.206864" style="fill: #ff7f0e; stroke: #ff7f0e"/>
     <use xlink:href="#m71e81cb961" x="482.276782" y="120.569659" style="fill: #ff7f0e; stroke: #ff7f0e"/>
     <use xlink:href="#m71e81cb961" x="487.531904" y="114.54761" style="fill: #ff7f0e; stroke: #ff7f0e"/>
     <use xlink:href="#m71e81cb961" x="490.344374" y="108.52556" style="fill: #ff7f0e; stroke: #ff7f0e"/>
     <use xlink:href="#m71e81cb961" x="495.720545" y="102.21212" style="fill: #ff7f0e; stroke: #ff7f0e"/>
     <use xlink:href="#m71e81cb961" x="500.660463" y="95.80155" style="fill: #ff7f0e; stroke: #ff7f0e"/>
     <use xlink:href="#m71e81cb961" x="504.28455" y="89.973759" style="fill: #ff7f0e; stroke: #ff7f0e"/>
     <use xlink:href="#m71e81cb961" x="508.593958" y="83.725071" style="fill: #ff7f0e; stroke: #ff7f0e"/>
     <use xlink:href="#m71e81cb961" x="512.718864" y="77.444006" style="fill: #ff7f0e; stroke: #ff7f0e"/>
     <use xlink:href="#m71e81cb961" x="517.495303" y="71.162941" style="fill: #ff7f0e; stroke: #ff7f0e"/>
     <use xlink:href="#m71e81cb961" x="522.118043" y="65.464654" style="fill: #ff7f0e; stroke: #ff7f0e"/>
     <use xlink:href="#m71e81cb961" x="526.846501" y="59.572108" style="fill: #ff7f0e; stroke: #ff7f0e"/>
     <use xlink:href="#m71e81cb961" x="530.787806" y="53.67956" style="fill: #ff7f0e; stroke: #ff7f0e"/>
     <use xlink:href="#m71e81cb961" x="535.725536" y="47.625129" style="fill: #ff7f0e; stroke: #ff7f0e"/>
    </g>
   </g>
   <g id="patch_11">
    <path d="M 311.851562 246.84375 
L 311.851562 25.918125 
" style="fill: none; stroke: #000000; stroke-width: 0.8; stroke-linejoin: miter; stroke-linecap: square"/>
   </g>
   <g id="patch_12">
    <path d="M 565.2 246.84375 
L 565.2 25.918125 
" style="fill: none; stroke: #000000; stroke-width: 0.8; stroke-linejoin: miter; stroke-linecap: square"/>
   </g>
   <g id="patch_13">
    <path d="M 311.851562 246.84375 
L 565.2 246.84375 
" style="fill: none; stroke: #000000; stroke-width: 0.8; stroke-linejoin: miter; stroke-linecap: square"/>
   </g>
   <g id="patch_14">
    <path d="M 311.851562 25.918125 
L 565.2 25.918125 
" style="fill: none; stroke: #000000; stroke-width: 0.8; stroke-linejoin: miter; stroke-linecap: square"/>
   </g>
   <g id="text_31">
    <!-- Predictions ($135^\circ$) -->
    <g transform="translate(382.785781 19.918125) scale(0.12 -0.12)">
     <use xlink:href="#DejaVuSans-50" transform="translate(0 0.015625)"/>
     <use xlink:href="#DejaVuSans-72" transform="translate(60.302734 0.015625)"/>
     <use xlink:href="#DejaVuSans-65" transform="translate(101.416016 0.015625)"/>
     <use xlink:href="#DejaVuSans-64" transform="translate(162.939453 0.015625)"/>
     <use xlink:href="#DejaVuSans-69" transform="translate(226.416016 0.015625)"/>
     <use xlink:href="#DejaVuSans-63" transform="translate(254.199219 0.015625)"/>
     <use xlink:href="#DejaVuSans-74" transform="translate(309.179688 0.015625)"/>
     <use xlink:href="#DejaVuSans-69" transform="translate(348.388672 0.015625)"/>
     <use xlink:href="#DejaVuSans-6f" transform="translate(376.171875 0.015625)"/>
     <use xlink:href="#DejaVuSans-6e" transform="translate(437.353516 0.015625)"/>
     <use xlink:href="#DejaVuSans-73" transform="translate(500.732422 0.015625)"/>
     <use xlink:href="#DejaVuSans-20" transform="translate(552.832031 0.015625)"/>
     <use xlink:href="#DejaVuSans-28" transform="translate(584.619141 0.015625)"/>
     <use xlink:href="#DejaVuSans-31" transform="translate(623.632812 0.015625)"/>
     <use xlink:href="#DejaVuSans-33" transform="translate(687.255859 0.015625)"/>
     <use xlink:href="#DejaVuSans-35" transform="translate(750.878906 0.015625)"/>
     <use xlink:href="#DejaVuSans-2218" transform="translate(829.09668 38.296875) scale(0.7)"/>
     <use xlink:href="#DejaVuSans-29" transform="translate(889.287109 0.015625)"/>
    </g>
   </g>
  </g>
 </g>
 <defs>
  <clipPath id="pd9ed043604">
   <rect x="44.203125" y="25.918125" width="253.348437" height="220.925625"/>
  </clipPath>
  <clipPath id="p6ee1b52c7a">
   <rect x="311.851562" y="25.918125" width="253.348438" height="220.925625"/>
  </clipPath>
 </defs>
</svg>
