<?xml version="1.0" encoding="utf-8" standalone="no"?>
<!DOCTYPE svg PUBLIC "-//W3C//DTD SVG 1.1//EN"
  "http://www.w3.org/Graphics/SVG/1.1/DTD/svg11.dtd">
<svg xmlns:xlink="http://www.w3.org/1999/xlink" width="576pt" height="288pt" viewBox="0 0 576 288" xmlns="http://www.w3.org/2000/svg" version="1.1">
 <metadata>
  <rdf:RDF xmlns:dc="http://purl.org/dc/elements/1.1/" xmlns:cc="http://creativecommons.org/ns#" xmlns:rdf="http://www.w3.org/1999/02/22-rdf-syntax-ns#">
   <cc:Work>
    <dc:type rdf:resource="http://purl.org/dc/dcmitype/StillImage"/>
    <dc:date>2024-11-24T10:56:29.617389</dc:date>
    <dc:format>image/svg+xml</dc:format>
    <dc:creator>
     <cc:Agent>
      <dc:title>Matplotlib v3.9.2, https://matplotlib.org/</dc:title>
     </cc:Agent>
    </dc:creator>
   </cc:Work>
  </rdf:RDF>
 </metadata>
 <defs>
  <style type="text/css">*{stroke-linejoin: round; stroke-linecap: butt}</style>
 </defs>
 <g id="figure_1">
  <g id="patch_1">
   <path d="M 0 288 
L 576 288 
L 576 0 
L 0 0 
z
" style="fill: #ffffff"/>
  </g>
  <g id="axes_1">
   <g id="patch_2">
    <path d="M 44.203125 246.84375 
L 294.957321 246.84375 
L 294.957321 25.918125 
L 44.203125 25.918125 
z
" style="fill: #ffffff"/>
   </g>
   <g id="PolyCollection_1">
    <defs>
     <path id="m4707d29fcd" d="M 71.119196 -51.198324 
L 71.019331 -51.198324 
L 68.449371 -53.227026 
L 66.177947 -55.255727 
L 64.205061 -57.284429 
L 62.530713 -59.313131 
L 61.154902 -61.341833 
L 59.980113 -63.370535 
L 58.908832 -65.399236 
L 57.941059 -67.427938 
L 57.076794 -69.45664 
L 56.316036 -71.485342 
L 55.658786 -73.514044 
L 55.105044 -75.542745 
L 54.654809 -77.571447 
L 54.321898 -79.600149 
L 54.120124 -81.628851 
L 54.049488 -83.657553 
L 54.109991 -85.686254 
L 54.301631 -87.714956 
L 54.624409 -89.743658 
L 55.078325 -91.77236 
L 55.663379 -93.801061 
L 56.312489 -95.829763 
L 56.958574 -97.858465 
L 57.601634 -99.887167 
L 58.241667 -101.915869 
L 58.878676 -103.94457 
L 59.512658 -105.973272 
L 60.143616 -108.001974 
L 60.771547 -110.030676 
L 61.317888 -112.059378 
L 61.704072 -114.088079 
L 61.930098 -116.116781 
L 61.995968 -118.145483 
L 61.90168 -120.174185 
L 61.647236 -122.202887 
L 61.232635 -124.231588 
L 60.657876 -126.26029 
L 60.06711 -128.288992 
L 59.604485 -130.317694 
L 59.270002 -132.346395 
L 59.06366 -134.375097 
L 58.98546 -136.403799 
L 59.035401 -138.432501 
L 59.213484 -140.461203 
L 59.519708 -142.489904 
L 59.855469 -144.518606 
L 60.122163 -146.547308 
L 60.31979 -148.57601 
L 60.448349 -150.604712 
L 60.507842 -152.633413 
L 60.498268 -154.662115 
L 60.419626 -156.690817 
L 60.271918 -158.719519 
L 60.076969 -160.748221 
L 59.856608 -162.776922 
L 59.610833 -164.805624 
L 59.339645 -166.834326 
L 59.043044 -168.863028 
L 58.72103 -170.89173 
L 58.373603 -172.920431 
L 58.000763 -174.949133 
L 57.597235 -176.977835 
L 57.157744 -179.006537 
L 56.68229 -181.035238 
L 56.170872 -183.06394 
L 55.623492 -185.092642 
L 55.040149 -187.121344 
L 54.420842 -189.150046 
L 53.765572 -191.178747 
L 53.103286 -193.207449 
L 52.462928 -195.236151 
L 51.8445 -197.264853 
L 51.248001 -199.293555 
L 50.673431 -201.322256 
L 50.120791 -203.350958 
L 49.590079 -205.37966 
L 49.081297 -207.408362 
L 48.597995 -209.437064 
L 48.143726 -211.465765 
L 47.718487 -213.494467 
L 47.322281 -215.523169 
L 46.955107 -217.551871 
L 46.616964 -219.580572 
L 46.307853 -221.609274 
L 46.027774 -223.637976 
L 45.82936 -225.666678 
L 45.765245 -227.69538 
L 45.835428 -229.724081 
L 46.039911 -231.752783 
L 46.378692 -233.781485 
L 46.851772 -235.810187 
L 47.459151 -237.838889 
L 48.200829 -239.86759 
L 49.076805 -241.896292 
L 50.08708 -243.924994 
L 51.231654 -245.953696 
L 52.510527 -247.982398 
L 53.923698 -250.011099 
L 55.471169 -252.039801 
L 93.464995 -252.039801 
L 93.464995 -252.039801 
L 95.206329 -250.011099 
L 96.791377 -247.982398 
L 98.220141 -245.953696 
L 99.49262 -243.924994 
L 100.608813 -241.896292 
L 101.568722 -239.86759 
L 102.372346 -237.838889 
L 103.019685 -235.810187 
L 103.510738 -233.781485 
L 103.845507 -231.752783 
L 104.023991 -229.724081 
L 104.04619 -227.69538 
L 103.912104 -225.666678 
L 103.621733 -223.637976 
L 103.175077 -221.609274 
L 102.614159 -219.580572 
L 101.981002 -217.551871 
L 101.275607 -215.523169 
L 100.497972 -213.494467 
L 99.648098 -211.465765 
L 98.725985 -209.437064 
L 97.731633 -207.408362 
L 96.665041 -205.37966 
L 95.563757 -203.350958 
L 94.465326 -201.322256 
L 93.369748 -199.293555 
L 92.277023 -197.264853 
L 91.18715 -195.236151 
L 90.100131 -193.207449 
L 89.015964 -191.178747 
L 87.934651 -189.150046 
L 86.915216 -187.121344 
L 86.016688 -185.092642 
L 85.239066 -183.06394 
L 84.582349 -181.035238 
L 84.046539 -179.006537 
L 83.631634 -176.977835 
L 83.337636 -174.949133 
L 83.164543 -172.920431 
L 83.049658 -170.89173 
L 82.930282 -168.863028 
L 82.806415 -166.834326 
L 82.678057 -164.805624 
L 82.545208 -162.776922 
L 82.407868 -160.748221 
L 82.266038 -158.719519 
L 82.119717 -156.690817 
L 82.010006 -154.662115 
L 81.978006 -152.633413 
L 82.023719 -150.604712 
L 82.147143 -148.57601 
L 82.348279 -146.547308 
L 82.627127 -144.518606 
L 82.983686 -142.489904 
L 83.417957 -140.461203 
L 83.825646 -138.432501 
L 84.102456 -136.403799 
L 84.248389 -134.375097 
L 84.263445 -132.346395 
L 84.147623 -130.317694 
L 83.900924 -128.288992 
L 83.523347 -126.26029 
L 83.014893 -124.231588 
L 82.515721 -122.202887 
L 82.165994 -120.174185 
L 81.96571 -118.145483 
L 81.91487 -116.116781 
L 82.013474 -114.088079 
L 82.261522 -112.059378 
L 82.659013 -110.030676 
L 83.205948 -108.001974 
L 83.810118 -105.973272 
L 84.379314 -103.94457 
L 84.913536 -101.915869 
L 85.412785 -99.887167 
L 85.877059 -97.858465 
L 86.30636 -95.829763 
L 86.700686 -93.801061 
L 87.060039 -91.77236 
L 87.346688 -89.743658 
L 87.522904 -87.714956 
L 87.588687 -85.686254 
L 87.544037 -83.657553 
L 87.388954 -81.628851 
L 87.123438 -79.600149 
L 86.747488 -77.571447 
L 86.261106 -75.542745 
L 85.659488 -73.514044 
L 84.937833 -71.485342 
L 84.096139 -69.45664 
L 83.134408 -67.427938 
L 82.052639 -65.399236 
L 80.850832 -63.370535 
L 79.528988 -61.341833 
L 78.087105 -59.313131 
L 76.525185 -57.284429 
L 74.843226 -55.255727 
L 73.04123 -53.227026 
L 71.119196 -51.198324 
z
" style="stroke: #90ee90; stroke-opacity: 0.75"/>
    </defs>
    <g clip-path="url(#p525635e3c4)">
     <use xlink:href="#m4707d29fcd" x="0" y="288" style="fill: #90ee90; fill-opacity: 0.75; stroke: #90ee90; stroke-opacity: 0.75"/>
    </g>
   </g>
   <g id="PolyCollection_2">
    <defs>
     <path id="m9fad5d1032" d="M 71.088437 -51.198324 
L 70.924877 -51.198324 
L 71.004509 -53.227026 
L 71.056477 -55.255727 
L 71.096427 -57.284429 
L 71.137129 -59.313131 
L 71.166714 -61.341833 
L 71.205059 -63.370535 
L 71.243257 -65.399236 
L 71.274336 -67.427938 
L 71.297302 -69.45664 
L 71.332099 -71.485342 
L 71.362372 -73.514044 
L 71.38601 -75.542745 
L 71.41953 -77.571447 
L 71.444928 -79.600149 
L 71.471698 -81.628851 
L 71.500911 -83.657553 
L 71.518981 -85.686254 
L 71.537267 -87.714956 
L 71.553267 -89.743658 
L 71.570023 -91.77236 
L 71.585895 -93.801061 
L 71.594297 -95.829763 
L 71.607723 -97.858465 
L 71.614585 -99.887167 
L 71.617699 -101.915869 
L 71.620899 -103.94457 
L 71.620308 -105.973272 
L 71.622328 -108.001974 
L 71.618511 -110.030676 
L 71.599058 -112.059378 
L 71.593665 -114.088079 
L 71.581005 -116.116781 
L 71.566097 -118.145483 
L 71.557186 -120.174185 
L 71.536892 -122.202887 
L 71.520795 -124.231588 
L 71.502598 -126.26029 
L 71.488768 -128.288992 
L 71.478754 -130.317694 
L 71.455103 -132.346395 
L 71.435544 -134.375097 
L 71.416459 -136.403799 
L 71.389806 -138.432501 
L 71.360506 -140.461203 
L 71.340692 -142.489904 
L 71.316082 -144.518606 
L 71.301646 -146.547308 
L 71.281946 -148.57601 
L 71.24705 -150.604712 
L 71.242835 -152.633413 
L 71.218278 -154.662115 
L 71.199798 -156.690817 
L 71.191049 -158.719519 
L 71.174961 -160.748221 
L 71.147022 -162.776922 
L 71.143231 -164.805624 
L 71.121012 -166.834326 
L 71.113544 -168.863028 
L 71.089965 -170.89173 
L 71.078906 -172.920431 
L 71.075486 -174.949133 
L 71.047637 -176.977835 
L 71.048685 -179.006537 
L 71.034734 -181.035238 
L 71.040465 -183.06394 
L 71.025136 -185.092642 
L 71.028635 -187.121344 
L 71.00385 -189.150046 
L 71.012742 -191.178747 
L 71.004341 -193.207449 
L 71.000612 -195.236151 
L 70.99841 -197.264853 
L 70.985561 -199.293555 
L 70.999188 -201.322256 
L 70.994216 -203.350958 
L 71.014107 -205.37966 
L 70.99752 -207.408362 
L 70.999821 -209.437064 
L 70.981208 -211.465765 
L 70.993557 -213.494467 
L 71.003556 -215.523169 
L 71.003995 -217.551871 
L 71.002635 -219.580572 
L 70.994461 -221.609274 
L 70.998799 -223.637976 
L 71.000672 -225.666678 
L 70.987445 -227.69538 
L 70.989978 -229.724081 
L 70.99826 -231.752783 
L 71.004444 -233.781485 
L 70.988263 -235.810187 
L 70.961505 -237.838889 
L 70.955947 -239.86759 
L 70.939697 -241.896292 
L 70.920229 -243.924994 
L 70.902185 -245.953696 
L 70.881555 -247.982398 
L 70.861267 -250.011099 
L 70.837995 -252.039801 
L 73.157952 -252.039801 
L 73.157952 -252.039801 
L 73.17745 -250.011099 
L 73.196032 -247.982398 
L 73.208611 -245.953696 
L 73.229687 -243.924994 
L 73.245751 -241.896292 
L 73.266545 -239.86759 
L 73.27915 -237.838889 
L 73.295063 -235.810187 
L 73.320258 -233.781485 
L 73.328332 -231.752783 
L 73.326452 -229.724081 
L 73.332396 -227.69538 
L 73.331295 -225.666678 
L 73.334059 -223.637976 
L 73.333704 -221.609274 
L 73.337161 -219.580572 
L 73.350412 -217.551871 
L 73.357795 -215.523169 
L 73.363872 -213.494467 
L 73.375284 -211.465765 
L 73.375031 -209.437064 
L 73.388394 -207.408362 
L 73.384484 -205.37966 
L 73.389514 -203.350958 
L 73.391515 -201.322256 
L 73.387026 -199.293555 
L 73.386254 -197.264853 
L 73.391266 -195.236151 
L 73.3882 -193.207449 
L 73.399359 -191.178747 
L 73.40566 -189.150046 
L 73.405678 -187.121344 
L 73.418467 -185.092642 
L 73.415401 -183.06394 
L 73.412799 -181.035238 
L 73.419845 -179.006537 
L 73.422207 -176.977835 
L 73.432851 -174.949133 
L 73.420621 -172.920431 
L 73.426042 -170.89173 
L 73.442771 -168.863028 
L 73.438092 -166.834326 
L 73.458519 -164.805624 
L 73.46591 -162.776922 
L 73.473178 -160.748221 
L 73.473142 -158.719519 
L 73.473822 -156.690817 
L 73.490532 -154.662115 
L 73.487417 -152.633413 
L 73.487426 -150.604712 
L 73.484582 -148.57601 
L 73.481395 -146.547308 
L 73.489021 -144.518606 
L 73.483287 -142.489904 
L 73.484272 -140.461203 
L 73.485396 -138.432501 
L 73.485448 -136.403799 
L 73.491068 -134.375097 
L 73.498921 -132.346395 
L 73.491496 -130.317694 
L 73.50232 -128.288992 
L 73.49727 -126.26029 
L 73.484642 -124.231588 
L 73.477113 -122.202887 
L 73.469824 -120.174185 
L 73.455132 -118.145483 
L 73.451089 -116.116781 
L 73.435805 -114.088079 
L 73.418569 -112.059378 
L 73.399057 -110.030676 
L 73.380532 -108.001974 
L 73.357591 -105.973272 
L 73.338778 -103.94457 
L 73.295144 -101.915869 
L 73.267098 -99.887167 
L 73.226061 -97.858465 
L 73.180256 -95.829763 
L 73.140981 -93.801061 
L 73.087989 -91.77236 
L 73.033016 -89.743658 
L 72.97784 -87.714956 
L 72.919324 -85.686254 
L 72.86021 -83.657553 
L 72.781607 -81.628851 
L 72.713725 -79.600149 
L 72.636826 -77.571447 
L 72.542829 -75.542745 
L 72.458436 -73.514044 
L 72.361686 -71.485342 
L 72.265526 -69.45664 
L 72.150314 -67.427938 
L 72.04102 -65.399236 
L 71.914612 -63.370535 
L 71.786656 -61.341833 
L 71.658114 -59.313131 
L 71.513908 -57.284429 
L 71.364173 -55.255727 
L 71.21307 -53.227026 
L 71.088437 -51.198324 
z
" style="stroke: #6495ed; stroke-opacity: 0.75"/>
    </defs>
    <g clip-path="url(#p525635e3c4)">
     <use xlink:href="#m9fad5d1032" x="0" y="288" style="fill: #6495ed; fill-opacity: 0.75; stroke: #6495ed; stroke-opacity: 0.75"/>
    </g>
   </g>
   <g id="matplotlib.axis_1">
    <g id="xtick_1">
     <g id="line2d_1">
      <defs>
       <path id="md2b603fe60" d="M 0 0 
L 0 3.5 
" style="stroke: #000000; stroke-width: 0.8"/>
      </defs>
      <g>
       <use xlink:href="#md2b603fe60" x="71.069646" y="246.84375" style="stroke: #000000; stroke-width: 0.8"/>
      </g>
     </g>
     <g id="text_1">
      <!-- 0.00 -->
      <g transform="translate(59.936834 261.442187) scale(0.1 -0.1)">
       <defs>
        <path id="DejaVuSans-30" d="M 2034 4250 
Q 1547 4250 1301 3770 
Q 1056 3291 1056 2328 
Q 1056 1369 1301 889 
Q 1547 409 2034 409 
Q 2525 409 2770 889 
Q 3016 1369 3016 2328 
Q 3016 3291 2770 3770 
Q 2525 4250 2034 4250 
z
M 2034 4750 
Q 2819 4750 3233 4129 
Q 3647 3509 3647 2328 
Q 3647 1150 3233 529 
Q 2819 -91 2034 -91 
Q 1250 -91 836 529 
Q 422 1150 422 2328 
Q 422 3509 836 4129 
Q 1250 4750 2034 4750 
z
" transform="scale(0.015625)"/>
        <path id="DejaVuSans-2e" d="M 684 794 
L 1344 794 
L 1344 0 
L 684 0 
L 684 794 
z
" transform="scale(0.015625)"/>
       </defs>
       <use xlink:href="#DejaVuSans-30"/>
       <use xlink:href="#DejaVuSans-2e" x="63.623047"/>
       <use xlink:href="#DejaVuSans-30" x="95.410156"/>
       <use xlink:href="#DejaVuSans-30" x="159.033203"/>
      </g>
     </g>
    </g>
    <g id="xtick_2">
     <g id="line2d_2">
      <g>
       <use xlink:href="#md2b603fe60" x="106.891674" y="246.84375" style="stroke: #000000; stroke-width: 0.8"/>
      </g>
     </g>
     <g id="text_2">
      <!-- 0.02 -->
      <g transform="translate(95.758862 261.442187) scale(0.1 -0.1)">
       <defs>
        <path id="DejaVuSans-32" d="M 1228 531 
L 3431 531 
L 3431 0 
L 469 0 
L 469 531 
Q 828 903 1448 1529 
Q 2069 2156 2228 2338 
Q 2531 2678 2651 2914 
Q 2772 3150 2772 3378 
Q 2772 3750 2511 3984 
Q 2250 4219 1831 4219 
Q 1534 4219 1204 4116 
Q 875 4013 500 3803 
L 500 4441 
Q 881 4594 1212 4672 
Q 1544 4750 1819 4750 
Q 2544 4750 2975 4387 
Q 3406 4025 3406 3419 
Q 3406 3131 3298 2873 
Q 3191 2616 2906 2266 
Q 2828 2175 2409 1742 
Q 1991 1309 1228 531 
z
" transform="scale(0.015625)"/>
       </defs>
       <use xlink:href="#DejaVuSans-30"/>
       <use xlink:href="#DejaVuSans-2e" x="63.623047"/>
       <use xlink:href="#DejaVuSans-30" x="95.410156"/>
       <use xlink:href="#DejaVuSans-32" x="159.033203"/>
      </g>
     </g>
    </g>
    <g id="xtick_3">
     <g id="line2d_3">
      <g>
       <use xlink:href="#md2b603fe60" x="142.713702" y="246.84375" style="stroke: #000000; stroke-width: 0.8"/>
      </g>
     </g>
     <g id="text_3">
      <!-- 0.04 -->
      <g transform="translate(131.58089 261.442187) scale(0.1 -0.1)">
       <defs>
        <path id="DejaVuSans-34" d="M 2419 4116 
L 825 1625 
L 2419 1625 
L 2419 4116 
z
M 2253 4666 
L 3047 4666 
L 3047 1625 
L 3713 1625 
L 3713 1100 
L 3047 1100 
L 3047 0 
L 2419 0 
L 2419 1100 
L 313 1100 
L 313 1709 
L 2253 4666 
z
" transform="scale(0.015625)"/>
       </defs>
       <use xlink:href="#DejaVuSans-30"/>
       <use xlink:href="#DejaVuSans-2e" x="63.623047"/>
       <use xlink:href="#DejaVuSans-30" x="95.410156"/>
       <use xlink:href="#DejaVuSans-34" x="159.033203"/>
      </g>
     </g>
    </g>
    <g id="xtick_4">
     <g id="line2d_4">
      <g>
       <use xlink:href="#md2b603fe60" x="178.53573" y="246.84375" style="stroke: #000000; stroke-width: 0.8"/>
      </g>
     </g>
     <g id="text_4">
      <!-- 0.06 -->
      <g transform="translate(167.402918 261.442187) scale(0.1 -0.1)">
       <defs>
        <path id="DejaVuSans-36" d="M 2113 2584 
Q 1688 2584 1439 2293 
Q 1191 2003 1191 1497 
Q 1191 994 1439 701 
Q 1688 409 2113 409 
Q 2538 409 2786 701 
Q 3034 994 3034 1497 
Q 3034 2003 2786 2293 
Q 2538 2584 2113 2584 
z
M 3366 4563 
L 3366 3988 
Q 3128 4100 2886 4159 
Q 2644 4219 2406 4219 
Q 1781 4219 1451 3797 
Q 1122 3375 1075 2522 
Q 1259 2794 1537 2939 
Q 1816 3084 2150 3084 
Q 2853 3084 3261 2657 
Q 3669 2231 3669 1497 
Q 3669 778 3244 343 
Q 2819 -91 2113 -91 
Q 1303 -91 875 529 
Q 447 1150 447 2328 
Q 447 3434 972 4092 
Q 1497 4750 2381 4750 
Q 2619 4750 2861 4703 
Q 3103 4656 3366 4563 
z
" transform="scale(0.015625)"/>
       </defs>
       <use xlink:href="#DejaVuSans-30"/>
       <use xlink:href="#DejaVuSans-2e" x="63.623047"/>
       <use xlink:href="#DejaVuSans-30" x="95.410156"/>
       <use xlink:href="#DejaVuSans-36" x="159.033203"/>
      </g>
     </g>
    </g>
    <g id="xtick_5">
     <g id="line2d_5">
      <g>
       <use xlink:href="#md2b603fe60" x="214.357758" y="246.84375" style="stroke: #000000; stroke-width: 0.8"/>
      </g>
     </g>
     <g id="text_5">
      <!-- 0.08 -->
      <g transform="translate(203.224946 261.442187) scale(0.1 -0.1)">
       <defs>
        <path id="DejaVuSans-38" d="M 2034 2216 
Q 1584 2216 1326 1975 
Q 1069 1734 1069 1313 
Q 1069 891 1326 650 
Q 1584 409 2034 409 
Q 2484 409 2743 651 
Q 3003 894 3003 1313 
Q 3003 1734 2745 1975 
Q 2488 2216 2034 2216 
z
M 1403 2484 
Q 997 2584 770 2862 
Q 544 3141 544 3541 
Q 544 4100 942 4425 
Q 1341 4750 2034 4750 
Q 2731 4750 3128 4425 
Q 3525 4100 3525 3541 
Q 3525 3141 3298 2862 
Q 3072 2584 2669 2484 
Q 3125 2378 3379 2068 
Q 3634 1759 3634 1313 
Q 3634 634 3220 271 
Q 2806 -91 2034 -91 
Q 1263 -91 848 271 
Q 434 634 434 1313 
Q 434 1759 690 2068 
Q 947 2378 1403 2484 
z
M 1172 3481 
Q 1172 3119 1398 2916 
Q 1625 2713 2034 2713 
Q 2441 2713 2670 2916 
Q 2900 3119 2900 3481 
Q 2900 3844 2670 4047 
Q 2441 4250 2034 4250 
Q 1625 4250 1398 4047 
Q 1172 3844 1172 3481 
z
" transform="scale(0.015625)"/>
       </defs>
       <use xlink:href="#DejaVuSans-30"/>
       <use xlink:href="#DejaVuSans-2e" x="63.623047"/>
       <use xlink:href="#DejaVuSans-30" x="95.410156"/>
       <use xlink:href="#DejaVuSans-38" x="159.033203"/>
      </g>
     </g>
    </g>
    <g id="xtick_6">
     <g id="line2d_6">
      <g>
       <use xlink:href="#md2b603fe60" x="250.179786" y="246.84375" style="stroke: #000000; stroke-width: 0.8"/>
      </g>
     </g>
     <g id="text_6">
      <!-- 0.10 -->
      <g transform="translate(239.046974 261.442187) scale(0.1 -0.1)">
       <defs>
        <path id="DejaVuSans-31" d="M 794 531 
L 1825 531 
L 1825 4091 
L 703 3866 
L 703 4441 
L 1819 4666 
L 2450 4666 
L 2450 531 
L 3481 531 
L 3481 0 
L 794 0 
L 794 531 
z
" transform="scale(0.015625)"/>
       </defs>
       <use xlink:href="#DejaVuSans-30"/>
       <use xlink:href="#DejaVuSans-2e" x="63.623047"/>
       <use xlink:href="#DejaVuSans-31" x="95.410156"/>
       <use xlink:href="#DejaVuSans-30" x="159.033203"/>
      </g>
     </g>
    </g>
    <g id="xtick_7">
     <g id="line2d_7">
      <g>
       <use xlink:href="#md2b603fe60" x="286.001814" y="246.84375" style="stroke: #000000; stroke-width: 0.8"/>
      </g>
     </g>
     <g id="text_7">
      <!-- 0.12 -->
      <g transform="translate(274.869002 261.442187) scale(0.1 -0.1)">
       <use xlink:href="#DejaVuSans-30"/>
       <use xlink:href="#DejaVuSans-2e" x="63.623047"/>
       <use xlink:href="#DejaVuSans-31" x="95.410156"/>
       <use xlink:href="#DejaVuSans-32" x="159.033203"/>
      </g>
     </g>
    </g>
    <g id="text_8">
     <!-- Normal Extension [mm] -->
     <g transform="translate(110.122411 275.120313) scale(0.1 -0.1)">
      <defs>
       <path id="DejaVuSans-4e" d="M 628 4666 
L 1478 4666 
L 3547 763 
L 3547 4666 
L 4159 4666 
L 4159 0 
L 3309 0 
L 1241 3903 
L 1241 0 
L 628 0 
L 628 4666 
z
" transform="scale(0.015625)"/>
       <path id="DejaVuSans-6f" d="M 1959 3097 
Q 1497 3097 1228 2736 
Q 959 2375 959 1747 
Q 959 1119 1226 758 
Q 1494 397 1959 397 
Q 2419 397 2687 759 
Q 2956 1122 2956 1747 
Q 2956 2369 2687 2733 
Q 2419 3097 1959 3097 
z
M 1959 3584 
Q 2709 3584 3137 3096 
Q 3566 2609 3566 1747 
Q 3566 888 3137 398 
Q 2709 -91 1959 -91 
Q 1206 -91 779 398 
Q 353 888 353 1747 
Q 353 2609 779 3096 
Q 1206 3584 1959 3584 
z
" transform="scale(0.015625)"/>
       <path id="DejaVuSans-72" d="M 2631 2963 
Q 2534 3019 2420 3045 
Q 2306 3072 2169 3072 
Q 1681 3072 1420 2755 
Q 1159 2438 1159 1844 
L 1159 0 
L 581 0 
L 581 3500 
L 1159 3500 
L 1159 2956 
Q 1341 3275 1631 3429 
Q 1922 3584 2338 3584 
Q 2397 3584 2469 3576 
Q 2541 3569 2628 3553 
L 2631 2963 
z
" transform="scale(0.015625)"/>
       <path id="DejaVuSans-6d" d="M 3328 2828 
Q 3544 3216 3844 3400 
Q 4144 3584 4550 3584 
Q 5097 3584 5394 3201 
Q 5691 2819 5691 2113 
L 5691 0 
L 5113 0 
L 5113 2094 
Q 5113 2597 4934 2840 
Q 4756 3084 4391 3084 
Q 3944 3084 3684 2787 
Q 3425 2491 3425 1978 
L 3425 0 
L 2847 0 
L 2847 2094 
Q 2847 2600 2669 2842 
Q 2491 3084 2119 3084 
Q 1678 3084 1418 2786 
Q 1159 2488 1159 1978 
L 1159 0 
L 581 0 
L 581 3500 
L 1159 3500 
L 1159 2956 
Q 1356 3278 1631 3431 
Q 1906 3584 2284 3584 
Q 2666 3584 2933 3390 
Q 3200 3197 3328 2828 
z
" transform="scale(0.015625)"/>
       <path id="DejaVuSans-61" d="M 2194 1759 
Q 1497 1759 1228 1600 
Q 959 1441 959 1056 
Q 959 750 1161 570 
Q 1363 391 1709 391 
Q 2188 391 2477 730 
Q 2766 1069 2766 1631 
L 2766 1759 
L 2194 1759 
z
M 3341 1997 
L 3341 0 
L 2766 0 
L 2766 531 
Q 2569 213 2275 61 
Q 1981 -91 1556 -91 
Q 1019 -91 701 211 
Q 384 513 384 1019 
Q 384 1609 779 1909 
Q 1175 2209 1959 2209 
L 2766 2209 
L 2766 2266 
Q 2766 2663 2505 2880 
Q 2244 3097 1772 3097 
Q 1472 3097 1187 3025 
Q 903 2953 641 2809 
L 641 3341 
Q 956 3463 1253 3523 
Q 1550 3584 1831 3584 
Q 2591 3584 2966 3190 
Q 3341 2797 3341 1997 
z
" transform="scale(0.015625)"/>
       <path id="DejaVuSans-6c" d="M 603 4863 
L 1178 4863 
L 1178 0 
L 603 0 
L 603 4863 
z
" transform="scale(0.015625)"/>
       <path id="DejaVuSans-20" transform="scale(0.015625)"/>
       <path id="DejaVuSans-45" d="M 628 4666 
L 3578 4666 
L 3578 4134 
L 1259 4134 
L 1259 2753 
L 3481 2753 
L 3481 2222 
L 1259 2222 
L 1259 531 
L 3634 531 
L 3634 0 
L 628 0 
L 628 4666 
z
" transform="scale(0.015625)"/>
       <path id="DejaVuSans-78" d="M 3513 3500 
L 2247 1797 
L 3578 0 
L 2900 0 
L 1881 1375 
L 863 0 
L 184 0 
L 1544 1831 
L 300 3500 
L 978 3500 
L 1906 2253 
L 2834 3500 
L 3513 3500 
z
" transform="scale(0.015625)"/>
       <path id="DejaVuSans-74" d="M 1172 4494 
L 1172 3500 
L 2356 3500 
L 2356 3053 
L 1172 3053 
L 1172 1153 
Q 1172 725 1289 603 
Q 1406 481 1766 481 
L 2356 481 
L 2356 0 
L 1766 0 
Q 1100 0 847 248 
Q 594 497 594 1153 
L 594 3053 
L 172 3053 
L 172 3500 
L 594 3500 
L 594 4494 
L 1172 4494 
z
" transform="scale(0.015625)"/>
       <path id="DejaVuSans-65" d="M 3597 1894 
L 3597 1613 
L 953 1613 
Q 991 1019 1311 708 
Q 1631 397 2203 397 
Q 2534 397 2845 478 
Q 3156 559 3463 722 
L 3463 178 
Q 3153 47 2828 -22 
Q 2503 -91 2169 -91 
Q 1331 -91 842 396 
Q 353 884 353 1716 
Q 353 2575 817 3079 
Q 1281 3584 2069 3584 
Q 2775 3584 3186 3129 
Q 3597 2675 3597 1894 
z
M 3022 2063 
Q 3016 2534 2758 2815 
Q 2500 3097 2075 3097 
Q 1594 3097 1305 2825 
Q 1016 2553 972 2059 
L 3022 2063 
z
" transform="scale(0.015625)"/>
       <path id="DejaVuSans-6e" d="M 3513 2113 
L 3513 0 
L 2938 0 
L 2938 2094 
Q 2938 2591 2744 2837 
Q 2550 3084 2163 3084 
Q 1697 3084 1428 2787 
Q 1159 2491 1159 1978 
L 1159 0 
L 581 0 
L 581 3500 
L 1159 3500 
L 1159 2956 
Q 1366 3272 1645 3428 
Q 1925 3584 2291 3584 
Q 2894 3584 3203 3211 
Q 3513 2838 3513 2113 
z
" transform="scale(0.015625)"/>
       <path id="DejaVuSans-73" d="M 2834 3397 
L 2834 2853 
Q 2591 2978 2328 3040 
Q 2066 3103 1784 3103 
Q 1356 3103 1142 2972 
Q 928 2841 928 2578 
Q 928 2378 1081 2264 
Q 1234 2150 1697 2047 
L 1894 2003 
Q 2506 1872 2764 1633 
Q 3022 1394 3022 966 
Q 3022 478 2636 193 
Q 2250 -91 1575 -91 
Q 1294 -91 989 -36 
Q 684 19 347 128 
L 347 722 
Q 666 556 975 473 
Q 1284 391 1588 391 
Q 1994 391 2212 530 
Q 2431 669 2431 922 
Q 2431 1156 2273 1281 
Q 2116 1406 1581 1522 
L 1381 1569 
Q 847 1681 609 1914 
Q 372 2147 372 2553 
Q 372 3047 722 3315 
Q 1072 3584 1716 3584 
Q 2034 3584 2315 3537 
Q 2597 3491 2834 3397 
z
" transform="scale(0.015625)"/>
       <path id="DejaVuSans-69" d="M 603 3500 
L 1178 3500 
L 1178 0 
L 603 0 
L 603 3500 
z
M 603 4863 
L 1178 4863 
L 1178 4134 
L 603 4134 
L 603 4863 
z
" transform="scale(0.015625)"/>
       <path id="DejaVuSans-5b" d="M 550 4863 
L 1875 4863 
L 1875 4416 
L 1125 4416 
L 1125 -397 
L 1875 -397 
L 1875 -844 
L 550 -844 
L 550 4863 
z
" transform="scale(0.015625)"/>
       <path id="DejaVuSans-5d" d="M 1947 4863 
L 1947 -844 
L 622 -844 
L 622 -397 
L 1369 -397 
L 1369 4416 
L 622 4416 
L 622 4863 
L 1947 4863 
z
" transform="scale(0.015625)"/>
      </defs>
      <use xlink:href="#DejaVuSans-4e"/>
      <use xlink:href="#DejaVuSans-6f" x="74.804688"/>
      <use xlink:href="#DejaVuSans-72" x="135.986328"/>
      <use xlink:href="#DejaVuSans-6d" x="175.349609"/>
      <use xlink:href="#DejaVuSans-61" x="272.761719"/>
      <use xlink:href="#DejaVuSans-6c" x="334.041016"/>
      <use xlink:href="#DejaVuSans-20" x="361.824219"/>
      <use xlink:href="#DejaVuSans-45" x="393.611328"/>
      <use xlink:href="#DejaVuSans-78" x="456.794922"/>
      <use xlink:href="#DejaVuSans-74" x="515.974609"/>
      <use xlink:href="#DejaVuSans-65" x="555.183594"/>
      <use xlink:href="#DejaVuSans-6e" x="616.707031"/>
      <use xlink:href="#DejaVuSans-73" x="680.085938"/>
      <use xlink:href="#DejaVuSans-69" x="732.185547"/>
      <use xlink:href="#DejaVuSans-6f" x="759.96875"/>
      <use xlink:href="#DejaVuSans-6e" x="821.150391"/>
      <use xlink:href="#DejaVuSans-20" x="884.529297"/>
      <use xlink:href="#DejaVuSans-5b" x="916.316406"/>
      <use xlink:href="#DejaVuSans-6d" x="955.330078"/>
      <use xlink:href="#DejaVuSans-6d" x="1052.742188"/>
      <use xlink:href="#DejaVuSans-5d" x="1150.154297"/>
     </g>
    </g>
   </g>
   <g id="matplotlib.axis_2">
    <g id="ytick_1">
     <g id="line2d_8">
      <defs>
       <path id="m7d4c050d84" d="M 0 0 
L -3.5 0 
" style="stroke: #000000; stroke-width: 0.8"/>
      </defs>
      <g>
       <use xlink:href="#m7d4c050d84" x="44.203125" y="236.801676" style="stroke: #000000; stroke-width: 0.8"/>
      </g>
     </g>
     <g id="text_9">
      <!-- 0 -->
      <g transform="translate(30.840625 240.600895) scale(0.1 -0.1)">
       <use xlink:href="#DejaVuSans-30"/>
      </g>
     </g>
    </g>
    <g id="ytick_2">
     <g id="line2d_9">
      <g>
       <use xlink:href="#m7d4c050d84" x="44.203125" y="196.633381" style="stroke: #000000; stroke-width: 0.8"/>
      </g>
     </g>
     <g id="text_10">
      <!-- 2 -->
      <g transform="translate(30.840625 200.432599) scale(0.1 -0.1)">
       <use xlink:href="#DejaVuSans-32"/>
      </g>
     </g>
    </g>
    <g id="ytick_3">
     <g id="line2d_10">
      <g>
       <use xlink:href="#m7d4c050d84" x="44.203125" y="156.465085" style="stroke: #000000; stroke-width: 0.8"/>
      </g>
     </g>
     <g id="text_11">
      <!-- 4 -->
      <g transform="translate(30.840625 160.264304) scale(0.1 -0.1)">
       <use xlink:href="#DejaVuSans-34"/>
      </g>
     </g>
    </g>
    <g id="ytick_4">
     <g id="line2d_11">
      <g>
       <use xlink:href="#m7d4c050d84" x="44.203125" y="116.29679" style="stroke: #000000; stroke-width: 0.8"/>
      </g>
     </g>
     <g id="text_12">
      <!-- 6 -->
      <g transform="translate(30.840625 120.096009) scale(0.1 -0.1)">
       <use xlink:href="#DejaVuSans-36"/>
      </g>
     </g>
    </g>
    <g id="ytick_5">
     <g id="line2d_12">
      <g>
       <use xlink:href="#m7d4c050d84" x="44.203125" y="76.128494" style="stroke: #000000; stroke-width: 0.8"/>
      </g>
     </g>
     <g id="text_13">
      <!-- 8 -->
      <g transform="translate(30.840625 79.927713) scale(0.1 -0.1)">
       <use xlink:href="#DejaVuSans-38"/>
      </g>
     </g>
    </g>
    <g id="ytick_6">
     <g id="line2d_13">
      <g>
       <use xlink:href="#m7d4c050d84" x="44.203125" y="35.960199" style="stroke: #000000; stroke-width: 0.8"/>
      </g>
     </g>
     <g id="text_14">
      <!-- 10 -->
      <g transform="translate(24.478125 39.759418) scale(0.1 -0.1)">
       <use xlink:href="#DejaVuSans-31"/>
       <use xlink:href="#DejaVuSans-30" x="63.623047"/>
      </g>
     </g>
    </g>
    <g id="text_15">
     <!-- Load [kN] -->
     <g transform="translate(18.398438 160.503594) rotate(-90) scale(0.1 -0.1)">
      <defs>
       <path id="DejaVuSans-4c" d="M 628 4666 
L 1259 4666 
L 1259 531 
L 3531 531 
L 3531 0 
L 628 0 
L 628 4666 
z
" transform="scale(0.015625)"/>
       <path id="DejaVuSans-64" d="M 2906 2969 
L 2906 4863 
L 3481 4863 
L 3481 0 
L 2906 0 
L 2906 525 
Q 2725 213 2448 61 
Q 2172 -91 1784 -91 
Q 1150 -91 751 415 
Q 353 922 353 1747 
Q 353 2572 751 3078 
Q 1150 3584 1784 3584 
Q 2172 3584 2448 3432 
Q 2725 3281 2906 2969 
z
M 947 1747 
Q 947 1113 1208 752 
Q 1469 391 1925 391 
Q 2381 391 2643 752 
Q 2906 1113 2906 1747 
Q 2906 2381 2643 2742 
Q 2381 3103 1925 3103 
Q 1469 3103 1208 2742 
Q 947 2381 947 1747 
z
" transform="scale(0.015625)"/>
       <path id="DejaVuSans-6b" d="M 581 4863 
L 1159 4863 
L 1159 1991 
L 2875 3500 
L 3609 3500 
L 1753 1863 
L 3688 0 
L 2938 0 
L 1159 1709 
L 1159 0 
L 581 0 
L 581 4863 
z
" transform="scale(0.015625)"/>
      </defs>
      <use xlink:href="#DejaVuSans-4c"/>
      <use xlink:href="#DejaVuSans-6f" x="53.962891"/>
      <use xlink:href="#DejaVuSans-61" x="115.144531"/>
      <use xlink:href="#DejaVuSans-64" x="176.423828"/>
      <use xlink:href="#DejaVuSans-20" x="239.900391"/>
      <use xlink:href="#DejaVuSans-5b" x="271.6875"/>
      <use xlink:href="#DejaVuSans-6b" x="310.701172"/>
      <use xlink:href="#DejaVuSans-4e" x="368.611328"/>
      <use xlink:href="#DejaVuSans-5d" x="443.416016"/>
     </g>
    </g>
   </g>
   <g id="line2d_14">
    <path d="M 44.203125 236.801676 
L 294.957321 236.801676 
" clip-path="url(#p525635e3c4)" style="fill: none; stroke-dasharray: 2.775,1.2; stroke-dashoffset: 0; stroke: #808080; stroke-opacity: 0.75; stroke-width: 0.75"/>
   </g>
   <g id="line2d_15">
    <path d="M 71.069646 246.84375 
L 71.069646 25.918125 
" clip-path="url(#p525635e3c4)" style="fill: none; stroke-dasharray: 2.775,1.2; stroke-dashoffset: 0; stroke: #808080; stroke-opacity: 0.75; stroke-width: 0.75"/>
   </g>
   <g id="line2d_16">
    <path d="M 71.07001 236.801676 
L 71.07218 234.772974 
L 71.07477 232.744273 
L 71.077819 230.715571 
L 71.081373 228.686869 
L 71.085492 226.658167 
L 71.09024 224.629465 
L 71.095688 222.600764 
L 71.101906 220.572062 
L 71.10896 218.54336 
L 71.116904 216.514658 
L 71.125781 214.485956 
L 71.135614 212.457255 
L 71.146412 210.428553 
L 71.158173 208.399851 
L 71.170888 206.371149 
L 71.184546 204.342447 
L 71.19914 202.313746 
L 71.214664 200.285044 
L 71.231121 198.256342 
L 71.248509 196.22764 
L 71.266824 194.198939 
L 71.286051 192.170237 
L 71.306163 190.141535 
L 71.327113 188.112833 
L 71.348839 186.084131 
L 71.371259 184.05543 
L 71.394269 182.026728 
L 71.417739 179.998026 
L 71.441513 177.969324 
L 71.465395 175.940622 
L 71.489158 173.911921 
L 71.512537 171.883219 
L 71.535244 169.854517 
L 71.556986 167.825815 
L 71.577492 165.797113 
L 71.596545 163.768412 
L 71.614013 161.73971 
L 71.629881 159.711008 
L 71.644265 157.682306 
L 71.657417 155.653605 
L 71.669713 153.624903 
L 71.68162 151.596201 
L 71.693657 149.567499 
L 71.706338 147.538797 
L 71.720122 145.510096 
L 71.735361 143.481394 
L 71.752264 141.452692 
L 71.770876 139.42399 
L 71.791076 137.395288 
L 71.812597 135.366587 
L 71.835067 133.337885 
L 71.858061 131.309183 
L 71.881163 129.280481 
L 71.904029 127.251779 
L 71.926439 125.223078 
L 71.948335 123.194376 
L 71.96983 121.165674 
L 71.991193 119.136972 
L 72.012808 117.10827 
L 72.035114 115.079569 
L 72.058541 113.050867 
L 72.083445 111.022165 
L 72.110065 108.993463 
L 72.138509 106.964762 
L 72.168762 104.93606 
L 72.200725 102.907358 
L 72.234263 100.878656 
L 72.269258 98.849954 
L 72.305657 96.821253 
L 72.343489 94.792551 
L 72.382869 92.763849 
L 72.423977 90.735147 
L 72.46701 88.706445 
L 72.512138 86.677744 
L 72.559448 84.649042 
L 72.608898 82.62034 
L 72.660284 80.591638 
L 72.713225 78.562936 
L 72.767167 76.534235 
L 72.82141 74.505533 
L 72.875149 72.476831 
L 72.927536 70.448129 
L 72.977746 68.419428 
L 73.025047 66.390726 
L 73.068861 64.362024 
L 73.108814 62.333322 
L 73.144757 60.30462 
L 73.176777 58.275919 
L 73.205171 56.247217 
L 73.230407 54.218515 
L 73.25307 52.189813 
L 73.273799 50.161111 
L 73.293235 48.13241 
L 73.311969 46.103708 
L 73.330515 44.075006 
L 73.349303 42.046304 
L 73.368685 40.017602 
L 73.388956 37.988901 
L 73.410388 35.960199 
" clip-path="url(#p525635e3c4)" style="fill: none; stroke-dasharray: 3.7,1.6; stroke-dashoffset: 0; stroke: #008000"/>
   </g>
   <g id="line2d_17">
    <path d="M 71.019642 236.801676 
L 71.110624 234.772974 
L 71.198388 232.744273 
L 71.282932 230.715571 
L 71.364088 228.686869 
L 71.440784 226.658167 
L 71.515327 224.629465 
L 71.586199 222.600764 
L 71.653067 220.572062 
L 71.718102 218.54336 
L 71.77841 216.514658 
L 71.836897 214.485956 
L 71.891 212.457255 
L 71.943698 210.428553 
L 71.992626 208.399851 
L 72.03901 206.371149 
L 72.082464 204.342447 
L 72.122807 202.313746 
L 72.161544 200.285044 
L 72.197222 198.256342 
L 72.230509 196.22764 
L 72.260606 194.198939 
L 72.289123 192.170237 
L 72.31526 190.141535 
L 72.339511 188.112833 
L 72.361172 186.084131 
L 72.380839 184.05543 
L 72.399096 182.026728 
L 72.415157 179.998026 
L 72.42952 177.969324 
L 72.441645 175.940622 
L 72.453041 173.911921 
L 72.462919 171.883219 
L 72.471248 169.854517 
L 72.477342 167.825815 
L 72.482988 165.797113 
L 72.487057 163.768412 
L 72.490825 161.73971 
L 72.493144 159.711008 
L 72.493963 157.682306 
L 72.494599 155.653605 
L 72.494237 153.624903 
L 72.49242 151.596201 
L 72.491169 149.567499 
L 72.488215 147.538797 
L 72.485513 145.510096 
L 72.482049 143.481394 
L 72.478593 141.452692 
L 72.473766 139.42399 
L 72.469762 137.395288 
L 72.465441 135.366587 
L 72.460124 133.337885 
L 72.455339 131.309183 
L 72.450803 129.280481 
L 72.445472 127.251779 
L 72.440883 125.223078 
L 72.436366 123.194376 
L 72.431084 121.165674 
L 72.426751 119.136972 
L 72.422393 117.10827 
L 72.417961 115.079569 
L 72.414194 113.050867 
L 72.409991 111.022165 
L 72.406963 108.993463 
L 72.404147 106.964762 
L 72.401597 104.93606 
L 72.399015 102.907358 
L 72.396734 100.878656 
L 72.394992 98.849954 
L 72.393698 96.821253 
L 72.392165 94.792551 
L 72.391342 92.763849 
L 72.390747 90.735147 
L 72.390305 88.706445 
L 72.390741 86.677744 
L 72.391167 84.649042 
L 72.391471 82.62034 
L 72.392663 80.591638 
L 72.393295 78.562936 
L 72.393848 76.534235 
L 72.395191 74.505533 
L 72.396661 72.476831 
L 72.398372 70.448129 
L 72.400117 68.419428 
L 72.400419 66.390726 
L 72.40155 64.362024 
L 72.402993 62.333322 
L 72.403233 60.30462 
L 72.404016 58.275919 
L 72.404089 56.247217 
L 72.403951 54.218515 
L 72.403668 52.189813 
L 72.402147 50.161111 
L 72.40047 48.13241 
L 72.398096 46.103708 
L 72.395021 44.075006 
L 72.390214 42.046304 
L 72.386165 40.017602 
L 72.380427 37.988901 
L 72.373143 35.960199 
" clip-path="url(#p525635e3c4)" style="fill: none; stroke: #0000ff; stroke-width: 0.5; stroke-linecap: square"/>
   </g>
   <g id="line2d_18">
    <defs>
     <path id="m7df3625613" d="M 0 0.5 
C 0.132602 0.5 0.25979 0.447317 0.353553 0.353553 
C 0.447317 0.25979 0.5 0.132602 0.5 0 
C 0.5 -0.132602 0.447317 -0.25979 0.353553 -0.353553 
C 0.25979 -0.447317 0.132602 -0.5 0 -0.5 
C -0.132602 -0.5 -0.25979 -0.447317 -0.353553 -0.353553 
C -0.447317 -0.25979 -0.5 -0.132602 -0.5 0 
C -0.5 0.132602 -0.447317 0.25979 -0.353553 0.353553 
C -0.25979 0.447317 -0.132602 0.5 0 0.5 
z
" style="stroke: #1f77b4"/>
    </defs>
    <g clip-path="url(#p525635e3c4)">
     <use xlink:href="#m7df3625613" x="71.069646" y="236.801676" style="fill: #1f77b4; stroke: #1f77b4"/>
     <use xlink:href="#m7df3625613" x="70.963578" y="211.256531" style="fill: #1f77b4; stroke: #1f77b4"/>
     <use xlink:href="#m7df3625613" x="71.637603" y="199.503823" style="fill: #1f77b4; stroke: #1f77b4"/>
     <use xlink:href="#m7df3625613" x="70.513806" y="187.394973" style="fill: #1f77b4; stroke: #1f77b4"/>
     <use xlink:href="#m7df3625613" x="71.357464" y="175.998408" style="fill: #1f77b4; stroke: #1f77b4"/>
     <use xlink:href="#m7df3625613" x="70.507642" y="163.662922" style="fill: #1f77b4; stroke: #1f77b4"/>
     <use xlink:href="#m7df3625613" x="70.080129" y="152.395863" style="fill: #1f77b4; stroke: #1f77b4"/>
     <use xlink:href="#m7df3625613" x="69.979908" y="142.002973" style="fill: #1f77b4; stroke: #1f77b4"/>
     <use xlink:href="#m7df3625613" x="70.477566" y="130.541654" style="fill: #1f77b4; stroke: #1f77b4"/>
     <use xlink:href="#m7df3625613" x="70.690473" y="121.281944" style="fill: #1f77b4; stroke: #1f77b4"/>
     <use xlink:href="#m7df3625613" x="72.129007" y="111.083312" style="fill: #1f77b4; stroke: #1f77b4"/>
     <use xlink:href="#m7df3625613" x="69.375698" y="101.920731" style="fill: #1f77b4; stroke: #1f77b4"/>
     <use xlink:href="#m7df3625613" x="68.995596" y="93.179045" style="fill: #1f77b4; stroke: #1f77b4"/>
     <use xlink:href="#m7df3625613" x="68.720644" y="84.307852" style="fill: #1f77b4; stroke: #1f77b4"/>
     <use xlink:href="#m7df3625613" x="69.142017" y="76.246073" style="fill: #1f77b4; stroke: #1f77b4"/>
     <use xlink:href="#m7df3625613" x="67.370388" y="68.79945" style="fill: #1f77b4; stroke: #1f77b4"/>
     <use xlink:href="#m7df3625613" x="68.817507" y="60.996683" style="fill: #1f77b4; stroke: #1f77b4"/>
     <use xlink:href="#m7df3625613" x="68.561686" y="54.10046" style="fill: #1f77b4; stroke: #1f77b4"/>
     <use xlink:href="#m7df3625613" x="67.366023" y="46.945225" style="fill: #1f77b4; stroke: #1f77b4"/>
     <use xlink:href="#m7df3625613" x="67.196361" y="40.308014" style="fill: #1f77b4; stroke: #1f77b4"/>
    </g>
   </g>
   <g id="line2d_19">
    <defs>
     <path id="m4caba82e40" d="M 0 0.5 
C 0.132602 0.5 0.25979 0.447317 0.353553 0.353553 
C 0.447317 0.25979 0.5 0.132602 0.5 0 
C 0.5 -0.132602 0.447317 -0.25979 0.353553 -0.353553 
C 0.25979 -0.447317 0.132602 -0.5 0 -0.5 
C -0.132602 -0.5 -0.25979 -0.447317 -0.353553 -0.353553 
C -0.447317 -0.25979 -0.5 -0.132602 -0.5 0 
C -0.5 0.132602 -0.447317 0.25979 -0.353553 0.353553 
C -0.25979 0.447317 -0.132602 0.5 0 0.5 
z
" style="stroke: #ff7f0e"/>
    </defs>
    <g clip-path="url(#p525635e3c4)">
     <use xlink:href="#m4caba82e40" x="70.419716" y="221.487539" style="fill: #ff7f0e; stroke: #ff7f0e"/>
     <use xlink:href="#m4caba82e40" x="70.384507" y="210.803258" style="fill: #ff7f0e; stroke: #ff7f0e"/>
     <use xlink:href="#m4caba82e40" x="70.904381" y="199.600953" style="fill: #ff7f0e; stroke: #ff7f0e"/>
     <use xlink:href="#m4caba82e40" x="70.433806" y="186.74744" style="fill: #ff7f0e; stroke: #ff7f0e"/>
     <use xlink:href="#m4caba82e40" x="68.165862" y="174.379578" style="fill: #ff7f0e; stroke: #ff7f0e"/>
     <use xlink:href="#m4caba82e40" x="70.578205" y="162.076468" style="fill: #ff7f0e; stroke: #ff7f0e"/>
     <use xlink:href="#m4caba82e40" x="69.10294" y="148.931566" style="fill: #ff7f0e; stroke: #ff7f0e"/>
     <use xlink:href="#m4caba82e40" x="69.273861" y="135.819041" style="fill: #ff7f0e; stroke: #ff7f0e"/>
     <use xlink:href="#m4caba82e40" x="69.983501" y="123.742567" style="fill: #ff7f0e; stroke: #ff7f0e"/>
     <use xlink:href="#m4caba82e40" x="67.733355" y="111.407078" style="fill: #ff7f0e; stroke: #ff7f0e"/>
     <use xlink:href="#m4caba82e40" x="68.872942" y="99.460108" style="fill: #ff7f0e; stroke: #ff7f0e"/>
     <use xlink:href="#m4caba82e40" x="67.977719" y="87.189371" style="fill: #ff7f0e; stroke: #ff7f0e"/>
     <use xlink:href="#m4caba82e40" x="67.792906" y="75.469034" style="fill: #ff7f0e; stroke: #ff7f0e"/>
     <use xlink:href="#m4caba82e40" x="67.812603" y="63.845826" style="fill: #ff7f0e; stroke: #ff7f0e"/>
     <use xlink:href="#m4caba82e40" x="66.556425" y="53.323422" style="fill: #ff7f0e; stroke: #ff7f0e"/>
     <use xlink:href="#m4caba82e40" x="66.508191" y="41.570703" style="fill: #ff7f0e; stroke: #ff7f0e"/>
    </g>
   </g>
   <g id="line2d_20">
    <defs>
     <path id="m4d5bf7086c" d="M 0 0.5 
C 0.132602 0.5 0.25979 0.447317 0.353553 0.353553 
C 0.447317 0.25979 0.5 0.132602 0.5 0 
C 0.5 -0.132602 0.447317 -0.25979 0.353553 -0.353553 
C 0.25979 -0.447317 0.132602 -0.5 0 -0.5 
C -0.132602 -0.5 -0.25979 -0.447317 -0.353553 -0.353553 
C -0.447317 -0.25979 -0.5 -0.132602 -0.5 0 
C -0.5 0.132602 -0.447317 0.25979 -0.353553 0.353553 
C -0.25979 0.447317 -0.132602 0.5 0 0.5 
z
" style="stroke: #2ca02c"/>
    </defs>
    <g clip-path="url(#p525635e3c4)">
     <use xlink:href="#m4d5bf7086c" x="70.153608" y="213.814283" style="fill: #2ca02c; stroke: #2ca02c"/>
     <use xlink:href="#m4d5bf7086c" x="70.111929" y="202.741484" style="fill: #2ca02c; stroke: #2ca02c"/>
     <use xlink:href="#m4d5bf7086c" x="70.647724" y="190.503127" style="fill: #2ca02c; stroke: #2ca02c"/>
     <use xlink:href="#m4d5bf7086c" x="68.425135" y="178.3619" style="fill: #2ca02c; stroke: #2ca02c"/>
     <use xlink:href="#m4d5bf7086c" x="69.125961" y="166.285427" style="fill: #2ca02c; stroke: #2ca02c"/>
     <use xlink:href="#m4d5bf7086c" x="69.333248" y="154.176577" style="fill: #2ca02c; stroke: #2ca02c"/>
     <use xlink:href="#m4d5bf7086c" x="69.442439" y="140.837415" style="fill: #2ca02c; stroke: #2ca02c"/>
     <use xlink:href="#m4d5bf7086c" x="67.556092" y="128.145785" style="fill: #2ca02c; stroke: #2ca02c"/>
     <use xlink:href="#m4d5bf7086c" x="69.731212" y="116.3607" style="fill: #2ca02c; stroke: #2ca02c"/>
     <use xlink:href="#m4d5bf7086c" x="69.228317" y="103.733821" style="fill: #2ca02c; stroke: #2ca02c"/>
     <use xlink:href="#m4d5bf7086c" x="68.417448" y="91.78685" style="fill: #2ca02c; stroke: #2ca02c"/>
     <use xlink:href="#m4d5bf7086c" x="63.422841" y="79.775124" style="fill: #2ca02c; stroke: #2ca02c"/>
     <use xlink:href="#m4d5bf7086c" x="68.364765" y="68.443306" style="fill: #2ca02c; stroke: #2ca02c"/>
     <use xlink:href="#m4d5bf7086c" x="68.047976" y="56.755344" style="fill: #2ca02c; stroke: #2ca02c"/>
     <use xlink:href="#m4d5bf7086c" x="67.077399" y="46.297691" style="fill: #2ca02c; stroke: #2ca02c"/>
    </g>
   </g>
   <g id="patch_3">
    <path d="M 44.203125 246.84375 
L 44.203125 25.918125 
" style="fill: none; stroke: #000000; stroke-width: 0.8; stroke-linejoin: miter; stroke-linecap: square"/>
   </g>
   <g id="patch_4">
    <path d="M 294.957321 246.84375 
L 294.957321 25.918125 
" style="fill: none; stroke: #000000; stroke-width: 0.8; stroke-linejoin: miter; stroke-linecap: square"/>
   </g>
   <g id="patch_5">
    <path d="M 44.203125 246.84375 
L 294.957321 246.84375 
" style="fill: none; stroke: #000000; stroke-width: 0.8; stroke-linejoin: miter; stroke-linecap: square"/>
   </g>
   <g id="patch_6">
    <path d="M 44.203125 25.918125 
L 294.957321 25.918125 
" style="fill: none; stroke: #000000; stroke-width: 0.8; stroke-linejoin: miter; stroke-linecap: square"/>
   </g>
   <g id="text_16">
    <!-- Predictions ($90^\circ$) -->
    <g transform="translate(117.680223 19.918125) scale(0.12 -0.12)">
     <defs>
      <path id="DejaVuSans-50" d="M 1259 4147 
L 1259 2394 
L 2053 2394 
Q 2494 2394 2734 2622 
Q 2975 2850 2975 3272 
Q 2975 3691 2734 3919 
Q 2494 4147 2053 4147 
L 1259 4147 
z
M 628 4666 
L 2053 4666 
Q 2838 4666 3239 4311 
Q 3641 3956 3641 3272 
Q 3641 2581 3239 2228 
Q 2838 1875 2053 1875 
L 1259 1875 
L 1259 0 
L 628 0 
L 628 4666 
z
" transform="scale(0.015625)"/>
      <path id="DejaVuSans-63" d="M 3122 3366 
L 3122 2828 
Q 2878 2963 2633 3030 
Q 2388 3097 2138 3097 
Q 1578 3097 1268 2742 
Q 959 2388 959 1747 
Q 959 1106 1268 751 
Q 1578 397 2138 397 
Q 2388 397 2633 464 
Q 2878 531 3122 666 
L 3122 134 
Q 2881 22 2623 -34 
Q 2366 -91 2075 -91 
Q 1284 -91 818 406 
Q 353 903 353 1747 
Q 353 2603 823 3093 
Q 1294 3584 2113 3584 
Q 2378 3584 2631 3529 
Q 2884 3475 3122 3366 
z
" transform="scale(0.015625)"/>
      <path id="DejaVuSans-28" d="M 1984 4856 
Q 1566 4138 1362 3434 
Q 1159 2731 1159 2009 
Q 1159 1288 1364 580 
Q 1569 -128 1984 -844 
L 1484 -844 
Q 1016 -109 783 600 
Q 550 1309 550 2009 
Q 550 2706 781 3412 
Q 1013 4119 1484 4856 
L 1984 4856 
z
" transform="scale(0.015625)"/>
      <path id="DejaVuSans-39" d="M 703 97 
L 703 672 
Q 941 559 1184 500 
Q 1428 441 1663 441 
Q 2288 441 2617 861 
Q 2947 1281 2994 2138 
Q 2813 1869 2534 1725 
Q 2256 1581 1919 1581 
Q 1219 1581 811 2004 
Q 403 2428 403 3163 
Q 403 3881 828 4315 
Q 1253 4750 1959 4750 
Q 2769 4750 3195 4129 
Q 3622 3509 3622 2328 
Q 3622 1225 3098 567 
Q 2575 -91 1691 -91 
Q 1453 -91 1209 -44 
Q 966 3 703 97 
z
M 1959 2075 
Q 2384 2075 2632 2365 
Q 2881 2656 2881 3163 
Q 2881 3666 2632 3958 
Q 2384 4250 1959 4250 
Q 1534 4250 1286 3958 
Q 1038 3666 1038 3163 
Q 1038 2656 1286 2365 
Q 1534 2075 1959 2075 
z
" transform="scale(0.015625)"/>
      <path id="DejaVuSans-2218" d="M 2003 2603 
Q 1753 2603 1581 2429 
Q 1409 2256 1409 2006 
Q 1409 1759 1581 1589 
Q 1753 1419 2003 1419 
Q 2253 1419 2425 1589 
Q 2597 1759 2597 2006 
Q 2597 2253 2423 2428 
Q 2250 2603 2003 2603 
z
M 2003 3006 
Q 2203 3006 2387 2929 
Q 2572 2853 2706 2709 
Q 2850 2569 2922 2390 
Q 2994 2212 2994 2006 
Q 2994 1594 2705 1308 
Q 2416 1022 1997 1022 
Q 1575 1022 1294 1303 
Q 1013 1584 1013 2006 
Q 1013 2425 1300 2715 
Q 1588 3006 2003 3006 
z
" transform="scale(0.015625)"/>
      <path id="DejaVuSans-29" d="M 513 4856 
L 1013 4856 
Q 1481 4119 1714 3412 
Q 1947 2706 1947 2009 
Q 1947 1309 1714 600 
Q 1481 -109 1013 -844 
L 513 -844 
Q 928 -128 1133 580 
Q 1338 1288 1338 2009 
Q 1338 2731 1133 3434 
Q 928 4138 513 4856 
z
" transform="scale(0.015625)"/>
     </defs>
     <use xlink:href="#DejaVuSans-50" transform="translate(0 0.015625)"/>
     <use xlink:href="#DejaVuSans-72" transform="translate(60.302734 0.015625)"/>
     <use xlink:href="#DejaVuSans-65" transform="translate(101.416016 0.015625)"/>
     <use xlink:href="#DejaVuSans-64" transform="translate(162.939453 0.015625)"/>
     <use xlink:href="#DejaVuSans-69" transform="translate(226.416016 0.015625)"/>
     <use xlink:href="#DejaVuSans-63" transform="translate(254.199219 0.015625)"/>
     <use xlink:href="#DejaVuSans-74" transform="translate(309.179688 0.015625)"/>
     <use xlink:href="#DejaVuSans-69" transform="translate(348.388672 0.015625)"/>
     <use xlink:href="#DejaVuSans-6f" transform="translate(376.171875 0.015625)"/>
     <use xlink:href="#DejaVuSans-6e" transform="translate(437.353516 0.015625)"/>
     <use xlink:href="#DejaVuSans-73" transform="translate(500.732422 0.015625)"/>
     <use xlink:href="#DejaVuSans-20" transform="translate(552.832031 0.015625)"/>
     <use xlink:href="#DejaVuSans-28" transform="translate(584.619141 0.015625)"/>
     <use xlink:href="#DejaVuSans-39" transform="translate(623.632812 0.015625)"/>
     <use xlink:href="#DejaVuSans-30" transform="translate(687.255859 0.015625)"/>
     <use xlink:href="#DejaVuSans-2218" transform="translate(765.473633 38.296875) scale(0.7)"/>
     <use xlink:href="#DejaVuSans-29" transform="translate(825.664062 0.015625)"/>
    </g>
   </g>
   <g id="legend_1">
    <g id="patch_7">
     <path d="M 145.062009 136.665 
L 287.957321 136.665 
Q 289.957321 136.665 289.957321 134.665 
L 289.957321 32.918125 
Q 289.957321 30.918125 287.957321 30.918125 
L 145.062009 30.918125 
Q 143.062009 30.918125 143.062009 32.918125 
L 143.062009 134.665 
Q 143.062009 136.665 145.062009 136.665 
z
" style="fill: #ffffff; opacity: 0.8; stroke: #cccccc; stroke-linejoin: miter"/>
    </g>
    <g id="patch_8">
     <path d="M 147.062009 42.516562 
L 167.062009 42.516562 
L 167.062009 35.516562 
L 147.062009 35.516562 
z
" style="fill: #90ee90; fill-opacity: 0.75; stroke: #90ee90; stroke-opacity: 0.75; stroke-linejoin: miter"/>
    </g>
    <g id="text_17">
     <!-- Prior 95% interval -->
     <g transform="translate(175.062009 42.516562) scale(0.1 -0.1)">
      <defs>
       <path id="DejaVuSans-35" d="M 691 4666 
L 3169 4666 
L 3169 4134 
L 1269 4134 
L 1269 2991 
Q 1406 3038 1543 3061 
Q 1681 3084 1819 3084 
Q 2600 3084 3056 2656 
Q 3513 2228 3513 1497 
Q 3513 744 3044 326 
Q 2575 -91 1722 -91 
Q 1428 -91 1123 -41 
Q 819 9 494 109 
L 494 744 
Q 775 591 1075 516 
Q 1375 441 1709 441 
Q 2250 441 2565 725 
Q 2881 1009 2881 1497 
Q 2881 1984 2565 2268 
Q 2250 2553 1709 2553 
Q 1456 2553 1204 2497 
Q 953 2441 691 2322 
L 691 4666 
z
" transform="scale(0.015625)"/>
       <path id="DejaVuSans-25" d="M 4653 2053 
Q 4381 2053 4226 1822 
Q 4072 1591 4072 1178 
Q 4072 772 4226 539 
Q 4381 306 4653 306 
Q 4919 306 5073 539 
Q 5228 772 5228 1178 
Q 5228 1588 5073 1820 
Q 4919 2053 4653 2053 
z
M 4653 2450 
Q 5147 2450 5437 2106 
Q 5728 1763 5728 1178 
Q 5728 594 5436 251 
Q 5144 -91 4653 -91 
Q 4153 -91 3862 251 
Q 3572 594 3572 1178 
Q 3572 1766 3864 2108 
Q 4156 2450 4653 2450 
z
M 1428 4353 
Q 1159 4353 1004 4120 
Q 850 3888 850 3481 
Q 850 3069 1003 2837 
Q 1156 2606 1428 2606 
Q 1700 2606 1854 2837 
Q 2009 3069 2009 3481 
Q 2009 3884 1853 4118 
Q 1697 4353 1428 4353 
z
M 4250 4750 
L 4750 4750 
L 1831 -91 
L 1331 -91 
L 4250 4750 
z
M 1428 4750 
Q 1922 4750 2215 4408 
Q 2509 4066 2509 3481 
Q 2509 2891 2217 2550 
Q 1925 2209 1428 2209 
Q 931 2209 642 2551 
Q 353 2894 353 3481 
Q 353 4063 643 4406 
Q 934 4750 1428 4750 
z
" transform="scale(0.015625)"/>
       <path id="DejaVuSans-76" d="M 191 3500 
L 800 3500 
L 1894 563 
L 2988 3500 
L 3597 3500 
L 2284 0 
L 1503 0 
L 191 3500 
z
" transform="scale(0.015625)"/>
      </defs>
      <use xlink:href="#DejaVuSans-50"/>
      <use xlink:href="#DejaVuSans-72" x="58.552734"/>
      <use xlink:href="#DejaVuSans-69" x="99.666016"/>
      <use xlink:href="#DejaVuSans-6f" x="127.449219"/>
      <use xlink:href="#DejaVuSans-72" x="188.630859"/>
      <use xlink:href="#DejaVuSans-20" x="229.744141"/>
      <use xlink:href="#DejaVuSans-39" x="261.53125"/>
      <use xlink:href="#DejaVuSans-35" x="325.154297"/>
      <use xlink:href="#DejaVuSans-25" x="388.777344"/>
      <use xlink:href="#DejaVuSans-20" x="483.796875"/>
      <use xlink:href="#DejaVuSans-69" x="515.583984"/>
      <use xlink:href="#DejaVuSans-6e" x="543.367188"/>
      <use xlink:href="#DejaVuSans-74" x="606.746094"/>
      <use xlink:href="#DejaVuSans-65" x="645.955078"/>
      <use xlink:href="#DejaVuSans-72" x="707.478516"/>
      <use xlink:href="#DejaVuSans-76" x="748.591797"/>
      <use xlink:href="#DejaVuSans-61" x="807.771484"/>
      <use xlink:href="#DejaVuSans-6c" x="869.050781"/>
     </g>
    </g>
    <g id="line2d_21">
     <path d="M 147.062009 53.694687 
L 157.062009 53.694687 
L 167.062009 53.694687 
" style="fill: none; stroke-dasharray: 3.7,1.6; stroke-dashoffset: 0; stroke: #008000"/>
    </g>
    <g id="text_18">
     <!-- Prior mean -->
     <g transform="translate(175.062009 57.194687) scale(0.1 -0.1)">
      <use xlink:href="#DejaVuSans-50"/>
      <use xlink:href="#DejaVuSans-72" x="58.552734"/>
      <use xlink:href="#DejaVuSans-69" x="99.666016"/>
      <use xlink:href="#DejaVuSans-6f" x="127.449219"/>
      <use xlink:href="#DejaVuSans-72" x="188.630859"/>
      <use xlink:href="#DejaVuSans-20" x="229.744141"/>
      <use xlink:href="#DejaVuSans-6d" x="261.53125"/>
      <use xlink:href="#DejaVuSans-65" x="358.943359"/>
      <use xlink:href="#DejaVuSans-61" x="420.466797"/>
      <use xlink:href="#DejaVuSans-6e" x="481.746094"/>
     </g>
    </g>
    <g id="patch_9">
     <path d="M 147.062009 71.872812 
L 167.062009 71.872812 
L 167.062009 64.872812 
L 147.062009 64.872812 
z
" style="fill: #6495ed; fill-opacity: 0.75; stroke: #6495ed; stroke-opacity: 0.75; stroke-linejoin: miter"/>
    </g>
    <g id="text_19">
     <!-- Posterior 95% interval -->
     <g transform="translate(175.062009 71.872812) scale(0.1 -0.1)">
      <use xlink:href="#DejaVuSans-50"/>
      <use xlink:href="#DejaVuSans-6f" x="56.677734"/>
      <use xlink:href="#DejaVuSans-73" x="117.859375"/>
      <use xlink:href="#DejaVuSans-74" x="169.958984"/>
      <use xlink:href="#DejaVuSans-65" x="209.167969"/>
      <use xlink:href="#DejaVuSans-72" x="270.691406"/>
      <use xlink:href="#DejaVuSans-69" x="311.804688"/>
      <use xlink:href="#DejaVuSans-6f" x="339.587891"/>
      <use xlink:href="#DejaVuSans-72" x="400.769531"/>
      <use xlink:href="#DejaVuSans-20" x="441.882812"/>
      <use xlink:href="#DejaVuSans-39" x="473.669922"/>
      <use xlink:href="#DejaVuSans-35" x="537.292969"/>
      <use xlink:href="#DejaVuSans-25" x="600.916016"/>
      <use xlink:href="#DejaVuSans-20" x="695.935547"/>
      <use xlink:href="#DejaVuSans-69" x="727.722656"/>
      <use xlink:href="#DejaVuSans-6e" x="755.505859"/>
      <use xlink:href="#DejaVuSans-74" x="818.884766"/>
      <use xlink:href="#DejaVuSans-65" x="858.09375"/>
      <use xlink:href="#DejaVuSans-72" x="919.617188"/>
      <use xlink:href="#DejaVuSans-76" x="960.730469"/>
      <use xlink:href="#DejaVuSans-61" x="1019.910156"/>
      <use xlink:href="#DejaVuSans-6c" x="1081.189453"/>
     </g>
    </g>
    <g id="line2d_22">
     <path d="M 147.062009 83.050937 
L 157.062009 83.050937 
L 167.062009 83.050937 
" style="fill: none; stroke: #0000ff; stroke-width: 0.5; stroke-linecap: square"/>
    </g>
    <g id="text_20">
     <!-- Posterior mean -->
     <g transform="translate(175.062009 86.550937) scale(0.1 -0.1)">
      <use xlink:href="#DejaVuSans-50"/>
      <use xlink:href="#DejaVuSans-6f" x="56.677734"/>
      <use xlink:href="#DejaVuSans-73" x="117.859375"/>
      <use xlink:href="#DejaVuSans-74" x="169.958984"/>
      <use xlink:href="#DejaVuSans-65" x="209.167969"/>
      <use xlink:href="#DejaVuSans-72" x="270.691406"/>
      <use xlink:href="#DejaVuSans-69" x="311.804688"/>
      <use xlink:href="#DejaVuSans-6f" x="339.587891"/>
      <use xlink:href="#DejaVuSans-72" x="400.769531"/>
      <use xlink:href="#DejaVuSans-20" x="441.882812"/>
      <use xlink:href="#DejaVuSans-6d" x="473.669922"/>
      <use xlink:href="#DejaVuSans-65" x="571.082031"/>
      <use xlink:href="#DejaVuSans-61" x="632.605469"/>
      <use xlink:href="#DejaVuSans-6e" x="693.884766"/>
     </g>
    </g>
    <g id="line2d_23">
     <g>
      <use xlink:href="#m7df3625613" x="157.062009" y="97.729062" style="fill: #1f77b4; stroke: #1f77b4"/>
     </g>
    </g>
    <g id="text_21">
     <!-- Experimental data 1 -->
     <g transform="translate(175.062009 101.229062) scale(0.1 -0.1)">
      <defs>
       <path id="DejaVuSans-70" d="M 1159 525 
L 1159 -1331 
L 581 -1331 
L 581 3500 
L 1159 3500 
L 1159 2969 
Q 1341 3281 1617 3432 
Q 1894 3584 2278 3584 
Q 2916 3584 3314 3078 
Q 3713 2572 3713 1747 
Q 3713 922 3314 415 
Q 2916 -91 2278 -91 
Q 1894 -91 1617 61 
Q 1341 213 1159 525 
z
M 3116 1747 
Q 3116 2381 2855 2742 
Q 2594 3103 2138 3103 
Q 1681 3103 1420 2742 
Q 1159 2381 1159 1747 
Q 1159 1113 1420 752 
Q 1681 391 2138 391 
Q 2594 391 2855 752 
Q 3116 1113 3116 1747 
z
" transform="scale(0.015625)"/>
      </defs>
      <use xlink:href="#DejaVuSans-45"/>
      <use xlink:href="#DejaVuSans-78" x="63.183594"/>
      <use xlink:href="#DejaVuSans-70" x="122.363281"/>
      <use xlink:href="#DejaVuSans-65" x="185.839844"/>
      <use xlink:href="#DejaVuSans-72" x="247.363281"/>
      <use xlink:href="#DejaVuSans-69" x="288.476562"/>
      <use xlink:href="#DejaVuSans-6d" x="316.259766"/>
      <use xlink:href="#DejaVuSans-65" x="413.671875"/>
      <use xlink:href="#DejaVuSans-6e" x="475.195312"/>
      <use xlink:href="#DejaVuSans-74" x="538.574219"/>
      <use xlink:href="#DejaVuSans-61" x="577.783203"/>
      <use xlink:href="#DejaVuSans-6c" x="639.0625"/>
      <use xlink:href="#DejaVuSans-20" x="666.845703"/>
      <use xlink:href="#DejaVuSans-64" x="698.632812"/>
      <use xlink:href="#DejaVuSans-61" x="762.109375"/>
      <use xlink:href="#DejaVuSans-74" x="823.388672"/>
      <use xlink:href="#DejaVuSans-61" x="862.597656"/>
      <use xlink:href="#DejaVuSans-20" x="923.876953"/>
      <use xlink:href="#DejaVuSans-31" x="955.664062"/>
     </g>
    </g>
    <g id="line2d_24">
     <g>
      <use xlink:href="#m4caba82e40" x="157.062009" y="112.407187" style="fill: #ff7f0e; stroke: #ff7f0e"/>
     </g>
    </g>
    <g id="text_22">
     <!-- Experimental data 2 -->
     <g transform="translate(175.062009 115.907187) scale(0.1 -0.1)">
      <use xlink:href="#DejaVuSans-45"/>
      <use xlink:href="#DejaVuSans-78" x="63.183594"/>
      <use xlink:href="#DejaVuSans-70" x="122.363281"/>
      <use xlink:href="#DejaVuSans-65" x="185.839844"/>
      <use xlink:href="#DejaVuSans-72" x="247.363281"/>
      <use xlink:href="#DejaVuSans-69" x="288.476562"/>
      <use xlink:href="#DejaVuSans-6d" x="316.259766"/>
      <use xlink:href="#DejaVuSans-65" x="413.671875"/>
      <use xlink:href="#DejaVuSans-6e" x="475.195312"/>
      <use xlink:href="#DejaVuSans-74" x="538.574219"/>
      <use xlink:href="#DejaVuSans-61" x="577.783203"/>
      <use xlink:href="#DejaVuSans-6c" x="639.0625"/>
      <use xlink:href="#DejaVuSans-20" x="666.845703"/>
      <use xlink:href="#DejaVuSans-64" x="698.632812"/>
      <use xlink:href="#DejaVuSans-61" x="762.109375"/>
      <use xlink:href="#DejaVuSans-74" x="823.388672"/>
      <use xlink:href="#DejaVuSans-61" x="862.597656"/>
      <use xlink:href="#DejaVuSans-20" x="923.876953"/>
      <use xlink:href="#DejaVuSans-32" x="955.664062"/>
     </g>
    </g>
    <g id="line2d_25">
     <g>
      <use xlink:href="#m4d5bf7086c" x="157.062009" y="127.085312" style="fill: #2ca02c; stroke: #2ca02c"/>
     </g>
    </g>
    <g id="text_23">
     <!-- Experimental data 3 -->
     <g transform="translate(175.062009 130.585312) scale(0.1 -0.1)">
      <defs>
       <path id="DejaVuSans-33" d="M 2597 2516 
Q 3050 2419 3304 2112 
Q 3559 1806 3559 1356 
Q 3559 666 3084 287 
Q 2609 -91 1734 -91 
Q 1441 -91 1130 -33 
Q 819 25 488 141 
L 488 750 
Q 750 597 1062 519 
Q 1375 441 1716 441 
Q 2309 441 2620 675 
Q 2931 909 2931 1356 
Q 2931 1769 2642 2001 
Q 2353 2234 1838 2234 
L 1294 2234 
L 1294 2753 
L 1863 2753 
Q 2328 2753 2575 2939 
Q 2822 3125 2822 3475 
Q 2822 3834 2567 4026 
Q 2313 4219 1838 4219 
Q 1578 4219 1281 4162 
Q 984 4106 628 3988 
L 628 4550 
Q 988 4650 1302 4700 
Q 1616 4750 1894 4750 
Q 2613 4750 3031 4423 
Q 3450 4097 3450 3541 
Q 3450 3153 3228 2886 
Q 3006 2619 2597 2516 
z
" transform="scale(0.015625)"/>
      </defs>
      <use xlink:href="#DejaVuSans-45"/>
      <use xlink:href="#DejaVuSans-78" x="63.183594"/>
      <use xlink:href="#DejaVuSans-70" x="122.363281"/>
      <use xlink:href="#DejaVuSans-65" x="185.839844"/>
      <use xlink:href="#DejaVuSans-72" x="247.363281"/>
      <use xlink:href="#DejaVuSans-69" x="288.476562"/>
      <use xlink:href="#DejaVuSans-6d" x="316.259766"/>
      <use xlink:href="#DejaVuSans-65" x="413.671875"/>
      <use xlink:href="#DejaVuSans-6e" x="475.195312"/>
      <use xlink:href="#DejaVuSans-74" x="538.574219"/>
      <use xlink:href="#DejaVuSans-61" x="577.783203"/>
      <use xlink:href="#DejaVuSans-6c" x="639.0625"/>
      <use xlink:href="#DejaVuSans-20" x="666.845703"/>
      <use xlink:href="#DejaVuSans-64" x="698.632812"/>
      <use xlink:href="#DejaVuSans-61" x="762.109375"/>
      <use xlink:href="#DejaVuSans-74" x="823.388672"/>
      <use xlink:href="#DejaVuSans-61" x="862.597656"/>
      <use xlink:href="#DejaVuSans-20" x="923.876953"/>
      <use xlink:href="#DejaVuSans-33" x="955.664062"/>
     </g>
    </g>
   </g>
  </g>
  <g id="axes_2">
   <g id="patch_10">
    <path d="M 311.851562 246.84375 
L 562.605759 246.84375 
L 562.605759 25.918125 
L 311.851562 25.918125 
z
" style="fill: #ffffff"/>
   </g>
   <g id="PolyCollection_3">
    <defs>
     <path id="mebb8333c5a" d="M 338.77224 -51.198324 
L 338.668457 -51.198324 
L 338.425801 -53.227026 
L 338.314646 -55.255727 
L 338.334991 -57.284429 
L 338.486837 -59.313131 
L 338.770183 -61.341833 
L 339.18503 -63.370535 
L 339.731376 -65.399236 
L 340.409224 -67.427938 
L 341.218572 -69.45664 
L 342.15942 -71.485342 
L 343.231768 -73.514044 
L 344.435617 -75.542745 
L 345.770967 -77.571447 
L 347.237816 -79.600149 
L 348.836167 -81.628851 
L 350.566017 -83.657553 
L 352.427368 -85.686254 
L 354.42022 -87.714956 
L 356.544572 -89.743658 
L 358.800424 -91.77236 
L 361.187777 -93.801061 
L 363.70663 -95.829763 
L 366.256934 -97.858465 
L 368.738638 -99.887167 
L 371.151742 -101.915869 
L 373.496246 -103.94457 
L 375.772151 -105.973272 
L 377.979457 -108.001974 
L 380.118162 -110.030676 
L 382.188268 -112.059378 
L 384.176319 -114.088079 
L 386.068861 -116.116781 
L 387.865894 -118.145483 
L 389.567416 -120.174185 
L 391.173429 -122.202887 
L 392.683933 -124.231588 
L 394.098927 -126.26029 
L 395.418412 -128.288992 
L 396.744496 -130.317694 
L 398.179288 -132.346395 
L 399.722789 -134.375097 
L 401.374999 -136.403799 
L 403.135917 -138.432501 
L 405.005544 -140.461203 
L 406.983879 -142.489904 
L 409.070923 -144.518606 
L 411.174123 -146.547308 
L 413.200926 -148.57601 
L 415.151332 -150.604712 
L 417.025342 -152.633413 
L 418.822954 -154.662115 
L 420.54417 -156.690817 
L 422.188989 -158.719519 
L 423.757411 -160.748221 
L 425.314951 -162.776922 
L 426.927124 -164.805624 
L 428.593929 -166.834326 
L 430.315366 -168.863028 
L 432.091436 -170.89173 
L 433.922138 -172.920431 
L 435.807473 -174.949133 
L 437.747439 -176.977835 
L 439.645944 -179.006537 
L 441.406892 -181.035238 
L 443.030283 -183.06394 
L 444.516118 -185.092642 
L 445.864395 -187.121344 
L 447.075116 -189.150046 
L 448.148279 -191.178747 
L 449.083886 -193.207449 
L 449.978112 -195.236151 
L 450.927134 -197.264853 
L 451.93095 -199.293555 
L 452.989561 -201.322256 
L 454.102968 -203.350958 
L 455.271169 -205.37966 
L 456.494166 -207.408362 
L 457.771958 -209.437064 
L 459.073954 -211.465765 
L 460.369566 -213.494467 
L 461.658794 -215.523169 
L 462.941636 -217.551871 
L 464.218093 -219.580572 
L 465.488166 -221.609274 
L 466.751854 -223.637976 
L 468.009157 -225.666678 
L 469.366811 -227.69538 
L 470.931553 -229.724081 
L 472.703382 -231.752783 
L 474.682299 -233.781485 
L 476.868303 -235.810187 
L 479.261395 -237.838889 
L 481.861574 -239.86759 
L 484.668841 -241.896292 
L 487.683195 -243.924994 
L 490.904637 -245.953696 
L 494.333166 -247.982398 
L 497.968783 -250.011099 
L 501.811488 -252.039801 
L 550.547042 -252.039801 
L 550.547042 -252.039801 
L 549.44568 -250.011099 
L 548.257992 -247.982398 
L 546.983978 -245.953696 
L 545.623638 -243.924994 
L 544.176973 -241.896292 
L 542.643981 -239.86759 
L 541.024664 -237.838889 
L 539.319021 -235.810187 
L 537.527052 -233.781485 
L 535.648757 -231.752783 
L 533.684137 -229.724081 
L 531.63319 -227.69538 
L 529.495918 -225.666678 
L 527.27232 -223.637976 
L 524.962396 -221.609274 
L 522.604987 -219.580572 
L 520.238932 -217.551871 
L 517.864234 -215.523169 
L 515.48089 -213.494467 
L 513.088901 -211.465765 
L 510.688268 -209.437064 
L 508.27899 -207.408362 
L 505.861067 -205.37966 
L 503.397108 -203.350958 
L 500.849721 -201.322256 
L 498.218906 -199.293555 
L 495.504664 -197.264853 
L 492.706994 -195.236151 
L 489.825896 -193.207449 
L 486.86137 -191.178747 
L 483.813417 -189.150046 
L 480.769858 -187.121344 
L 477.818516 -185.092642 
L 474.95939 -183.06394 
L 472.19248 -181.035238 
L 469.517787 -179.006537 
L 466.93531 -176.977835 
L 464.445049 -174.949133 
L 462.047005 -172.920431 
L 459.707753 -170.89173 
L 457.393871 -168.863028 
L 455.105357 -166.834326 
L 452.842213 -164.805624 
L 450.604438 -162.776922 
L 448.392031 -160.748221 
L 446.204994 -158.719519 
L 444.043326 -156.690817 
L 441.943336 -154.662115 
L 439.941334 -152.633413 
L 438.037319 -150.604712 
L 436.231292 -148.57601 
L 434.523252 -146.547308 
L 432.9132 -144.518606 
L 431.401135 -142.489904 
L 429.987058 -140.461203 
L 428.564513 -138.432501 
L 427.027044 -136.403799 
L 425.374652 -134.375097 
L 423.607337 -132.346395 
L 421.725097 -130.317694 
L 419.727935 -128.288992 
L 417.615848 -126.26029 
L 415.388839 -124.231588 
L 413.173813 -122.202887 
L 411.09768 -120.174185 
L 409.160439 -118.145483 
L 407.36209 -116.116781 
L 405.702633 -114.088079 
L 404.182068 -112.059378 
L 402.800396 -110.030676 
L 401.557615 -108.001974 
L 400.368414 -105.973272 
L 399.14748 -103.94457 
L 397.894812 -101.915869 
L 396.610412 -99.887167 
L 395.294278 -97.858465 
L 393.946412 -95.829763 
L 392.566812 -93.801061 
L 391.155479 -91.77236 
L 389.659454 -89.743658 
L 388.025779 -87.714956 
L 386.254454 -85.686254 
L 384.345478 -83.657553 
L 382.298852 -81.628851 
L 380.114576 -79.600149 
L 377.792649 -77.571447 
L 375.333072 -75.542745 
L 372.761476 -73.514044 
L 370.10349 -71.485342 
L 367.359115 -69.45664 
L 364.528352 -67.427938 
L 361.611199 -65.399236 
L 358.607658 -63.370535 
L 355.517727 -61.341833 
L 352.341408 -59.313131 
L 349.078699 -57.284429 
L 345.729602 -55.255727 
L 342.294116 -53.227026 
L 338.77224 -51.198324 
z
" style="stroke: #90ee90; stroke-opacity: 0.75"/>
    </defs>
    <g clip-path="url(#pb976ae2263)">
     <use xlink:href="#mebb8333c5a" x="0" y="288" style="fill: #90ee90; fill-opacity: 0.75; stroke: #90ee90; stroke-opacity: 0.75"/>
    </g>
   </g>
   <g id="PolyCollection_4">
    <defs>
     <path id="m1a172d76dd" d="M 338.773702 -51.198324 
L 338.651439 -51.198324 
L 340.568752 -53.227026 
L 342.469151 -55.255727 
L 344.364445 -57.284429 
L 346.256739 -59.313131 
L 348.147631 -61.341833 
L 350.043971 -63.370535 
L 351.931886 -65.399236 
L 353.820092 -67.427938 
L 355.711914 -69.45664 
L 357.599225 -71.485342 
L 359.491136 -73.514044 
L 361.379459 -75.542745 
L 363.269764 -77.571447 
L 365.15678 -79.600149 
L 367.044312 -81.628851 
L 368.935938 -83.657553 
L 370.820533 -85.686254 
L 372.708334 -87.714956 
L 374.597648 -89.743658 
L 376.489568 -91.77236 
L 378.376196 -93.801061 
L 380.266156 -95.829763 
L 382.149956 -97.858465 
L 384.037449 -99.887167 
L 385.919538 -101.915869 
L 387.817074 -103.94457 
L 389.698509 -105.973272 
L 391.593302 -108.001974 
L 393.476748 -110.030676 
L 395.359604 -112.059378 
L 397.250072 -114.088079 
L 399.134721 -116.116781 
L 401.019632 -118.145483 
L 402.909015 -120.174185 
L 404.790761 -122.202887 
L 406.677888 -124.231588 
L 408.56638 -126.26029 
L 410.457129 -128.288992 
L 412.346735 -130.317694 
L 414.230336 -132.346395 
L 416.123812 -134.375097 
L 418.023228 -136.403799 
L 419.921005 -138.432501 
L 421.80622 -140.461203 
L 423.706164 -142.489904 
L 425.599032 -144.518606 
L 427.491015 -146.547308 
L 429.376478 -148.57601 
L 431.272463 -150.604712 
L 433.172175 -152.633413 
L 435.056 -154.662115 
L 436.954807 -156.690817 
L 438.846344 -158.719519 
L 440.737168 -160.748221 
L 442.631858 -162.776922 
L 444.52384 -164.805624 
L 446.419017 -166.834326 
L 448.330027 -168.863028 
L 450.220131 -170.89173 
L 452.103105 -172.920431 
L 454.002299 -174.949133 
L 455.898168 -176.977835 
L 457.804681 -179.006537 
L 459.702166 -181.035238 
L 461.596468 -183.06394 
L 463.504303 -185.092642 
L 465.406219 -187.121344 
L 467.293874 -189.150046 
L 469.201538 -191.178747 
L 471.101805 -193.207449 
L 473.021602 -195.236151 
L 474.931268 -197.264853 
L 476.835471 -199.293555 
L 478.75895 -201.322256 
L 480.674991 -203.350958 
L 482.586222 -205.37966 
L 484.492549 -207.408362 
L 486.417884 -209.437064 
L 488.323328 -211.465765 
L 490.249873 -213.494467 
L 492.175455 -215.523169 
L 494.074614 -217.551871 
L 496.006122 -219.580572 
L 497.933069 -221.609274 
L 499.855142 -223.637976 
L 501.791334 -225.666678 
L 503.701439 -227.69538 
L 505.626109 -229.724081 
L 507.55885 -231.752783 
L 509.502973 -233.781485 
L 511.426803 -235.810187 
L 513.357744 -237.838889 
L 515.292873 -239.86759 
L 517.230015 -241.896292 
L 519.147489 -243.924994 
L 521.079968 -245.953696 
L 523.001386 -247.982398 
L 524.93598 -250.011099 
L 526.846192 -252.039801 
L 533.224419 -252.039801 
L 533.224419 -252.039801 
L 531.267823 -250.011099 
L 529.274115 -247.982398 
L 527.274413 -245.953696 
L 525.290344 -243.924994 
L 523.327358 -241.896292 
L 521.340428 -239.86759 
L 519.355403 -237.838889 
L 517.392607 -235.810187 
L 515.417264 -233.781485 
L 513.455957 -231.752783 
L 511.462475 -229.724081 
L 509.462975 -227.69538 
L 507.497 -225.666678 
L 505.530287 -223.637976 
L 503.55326 -221.609274 
L 501.583151 -219.580572 
L 499.585249 -217.551871 
L 497.618909 -215.523169 
L 495.6471 -213.494467 
L 493.676575 -211.465765 
L 491.700741 -209.437064 
L 489.736806 -207.408362 
L 487.776324 -205.37966 
L 485.804699 -203.350958 
L 483.836167 -201.322256 
L 481.865128 -199.293555 
L 479.892623 -197.264853 
L 477.924634 -195.236151 
L 475.956737 -193.207449 
L 473.995327 -191.178747 
L 472.026634 -189.150046 
L 470.063007 -187.121344 
L 468.091008 -185.092642 
L 466.131046 -183.06394 
L 464.163792 -181.035238 
L 462.203412 -179.006537 
L 460.24511 -176.977835 
L 458.295798 -174.949133 
L 456.330207 -172.920431 
L 454.367949 -170.89173 
L 452.401436 -168.863028 
L 450.445982 -166.834326 
L 448.497206 -164.805624 
L 446.531199 -162.776922 
L 444.573234 -160.748221 
L 442.615635 -158.719519 
L 440.649951 -156.690817 
L 438.697207 -154.662115 
L 436.758499 -152.633413 
L 434.813713 -150.604712 
L 432.839994 -148.57601 
L 430.891842 -146.547308 
L 428.94312 -144.518606 
L 426.981512 -142.489904 
L 425.039231 -140.461203 
L 423.0764 -138.432501 
L 421.127105 -136.403799 
L 419.18304 -134.375097 
L 417.238406 -132.346395 
L 415.282904 -130.317694 
L 413.338404 -128.288992 
L 411.37878 -126.26029 
L 409.434152 -124.231588 
L 407.493538 -122.202887 
L 405.543804 -120.174185 
L 403.600632 -118.145483 
L 401.644077 -116.116781 
L 399.693829 -114.088079 
L 397.736701 -112.059378 
L 395.793117 -110.030676 
L 393.845361 -108.001974 
L 391.894925 -105.973272 
L 389.938382 -103.94457 
L 388.001436 -101.915869 
L 386.041896 -99.887167 
L 384.086747 -97.858465 
L 382.135704 -95.829763 
L 380.177724 -93.801061 
L 378.22646 -91.77236 
L 376.269482 -89.743658 
L 374.313529 -87.714956 
L 372.346773 -85.686254 
L 370.38517 -83.657553 
L 368.422678 -81.628851 
L 366.460509 -79.600149 
L 364.493357 -77.571447 
L 362.524761 -75.542745 
L 360.56368 -73.514044 
L 358.588432 -71.485342 
L 356.61988 -69.45664 
L 354.640923 -67.427938 
L 352.662471 -65.399236 
L 350.684537 -63.370535 
L 348.699704 -61.341833 
L 346.717229 -59.313131 
L 344.725191 -57.284429 
L 342.733396 -55.255727 
L 340.743147 -53.227026 
L 338.773702 -51.198324 
z
" style="stroke: #6495ed; stroke-opacity: 0.75"/>
    </defs>
    <g clip-path="url(#pb976ae2263)">
     <use xlink:href="#m1a172d76dd" x="0" y="288" style="fill: #6495ed; fill-opacity: 0.75; stroke: #6495ed; stroke-opacity: 0.75"/>
    </g>
   </g>
   <g id="matplotlib.axis_3">
    <g id="xtick_8">
     <g id="line2d_26">
      <g>
       <use xlink:href="#md2b603fe60" x="338.718084" y="246.84375" style="stroke: #000000; stroke-width: 0.8"/>
      </g>
     </g>
     <g id="text_24">
      <!-- 0.00 -->
      <g transform="translate(327.585271 261.442187) scale(0.1 -0.1)">
       <use xlink:href="#DejaVuSans-30"/>
       <use xlink:href="#DejaVuSans-2e" x="63.623047"/>
       <use xlink:href="#DejaVuSans-30" x="95.410156"/>
       <use xlink:href="#DejaVuSans-30" x="159.033203"/>
      </g>
     </g>
    </g>
    <g id="xtick_9">
     <g id="line2d_27">
      <g>
       <use xlink:href="#md2b603fe60" x="374.540112" y="246.84375" style="stroke: #000000; stroke-width: 0.8"/>
      </g>
     </g>
     <g id="text_25">
      <!-- 0.02 -->
      <g transform="translate(363.407299 261.442187) scale(0.1 -0.1)">
       <use xlink:href="#DejaVuSans-30"/>
       <use xlink:href="#DejaVuSans-2e" x="63.623047"/>
       <use xlink:href="#DejaVuSans-30" x="95.410156"/>
       <use xlink:href="#DejaVuSans-32" x="159.033203"/>
      </g>
     </g>
    </g>
    <g id="xtick_10">
     <g id="line2d_28">
      <g>
       <use xlink:href="#md2b603fe60" x="410.36214" y="246.84375" style="stroke: #000000; stroke-width: 0.8"/>
      </g>
     </g>
     <g id="text_26">
      <!-- 0.04 -->
      <g transform="translate(399.229327 261.442187) scale(0.1 -0.1)">
       <use xlink:href="#DejaVuSans-30"/>
       <use xlink:href="#DejaVuSans-2e" x="63.623047"/>
       <use xlink:href="#DejaVuSans-30" x="95.410156"/>
       <use xlink:href="#DejaVuSans-34" x="159.033203"/>
      </g>
     </g>
    </g>
    <g id="xtick_11">
     <g id="line2d_29">
      <g>
       <use xlink:href="#md2b603fe60" x="446.184168" y="246.84375" style="stroke: #000000; stroke-width: 0.8"/>
      </g>
     </g>
     <g id="text_27">
      <!-- 0.06 -->
      <g transform="translate(435.051355 261.442187) scale(0.1 -0.1)">
       <use xlink:href="#DejaVuSans-30"/>
       <use xlink:href="#DejaVuSans-2e" x="63.623047"/>
       <use xlink:href="#DejaVuSans-30" x="95.410156"/>
       <use xlink:href="#DejaVuSans-36" x="159.033203"/>
      </g>
     </g>
    </g>
    <g id="xtick_12">
     <g id="line2d_30">
      <g>
       <use xlink:href="#md2b603fe60" x="482.006196" y="246.84375" style="stroke: #000000; stroke-width: 0.8"/>
      </g>
     </g>
     <g id="text_28">
      <!-- 0.08 -->
      <g transform="translate(470.873383 261.442187) scale(0.1 -0.1)">
       <use xlink:href="#DejaVuSans-30"/>
       <use xlink:href="#DejaVuSans-2e" x="63.623047"/>
       <use xlink:href="#DejaVuSans-30" x="95.410156"/>
       <use xlink:href="#DejaVuSans-38" x="159.033203"/>
      </g>
     </g>
    </g>
    <g id="xtick_13">
     <g id="line2d_31">
      <g>
       <use xlink:href="#md2b603fe60" x="517.828224" y="246.84375" style="stroke: #000000; stroke-width: 0.8"/>
      </g>
     </g>
     <g id="text_29">
      <!-- 0.10 -->
      <g transform="translate(506.695411 261.442187) scale(0.1 -0.1)">
       <use xlink:href="#DejaVuSans-30"/>
       <use xlink:href="#DejaVuSans-2e" x="63.623047"/>
       <use xlink:href="#DejaVuSans-31" x="95.410156"/>
       <use xlink:href="#DejaVuSans-30" x="159.033203"/>
      </g>
     </g>
    </g>
    <g id="xtick_14">
     <g id="line2d_32">
      <g>
       <use xlink:href="#md2b603fe60" x="553.650252" y="246.84375" style="stroke: #000000; stroke-width: 0.8"/>
      </g>
     </g>
     <g id="text_30">
      <!-- 0.12 -->
      <g transform="translate(542.517439 261.442187) scale(0.1 -0.1)">
       <use xlink:href="#DejaVuSans-30"/>
       <use xlink:href="#DejaVuSans-2e" x="63.623047"/>
       <use xlink:href="#DejaVuSans-31" x="95.410156"/>
       <use xlink:href="#DejaVuSans-32" x="159.033203"/>
      </g>
     </g>
    </g>
    <g id="text_31">
     <!-- Shear Extension [mm] -->
     <g transform="translate(381.323192 275.120313) scale(0.1 -0.1)">
      <defs>
       <path id="DejaVuSans-53" d="M 3425 4513 
L 3425 3897 
Q 3066 4069 2747 4153 
Q 2428 4238 2131 4238 
Q 1616 4238 1336 4038 
Q 1056 3838 1056 3469 
Q 1056 3159 1242 3001 
Q 1428 2844 1947 2747 
L 2328 2669 
Q 3034 2534 3370 2195 
Q 3706 1856 3706 1288 
Q 3706 609 3251 259 
Q 2797 -91 1919 -91 
Q 1588 -91 1214 -16 
Q 841 59 441 206 
L 441 856 
Q 825 641 1194 531 
Q 1563 422 1919 422 
Q 2459 422 2753 634 
Q 3047 847 3047 1241 
Q 3047 1584 2836 1778 
Q 2625 1972 2144 2069 
L 1759 2144 
Q 1053 2284 737 2584 
Q 422 2884 422 3419 
Q 422 4038 858 4394 
Q 1294 4750 2059 4750 
Q 2388 4750 2728 4690 
Q 3069 4631 3425 4513 
z
" transform="scale(0.015625)"/>
       <path id="DejaVuSans-68" d="M 3513 2113 
L 3513 0 
L 2938 0 
L 2938 2094 
Q 2938 2591 2744 2837 
Q 2550 3084 2163 3084 
Q 1697 3084 1428 2787 
Q 1159 2491 1159 1978 
L 1159 0 
L 581 0 
L 581 4863 
L 1159 4863 
L 1159 2956 
Q 1366 3272 1645 3428 
Q 1925 3584 2291 3584 
Q 2894 3584 3203 3211 
Q 3513 2838 3513 2113 
z
" transform="scale(0.015625)"/>
      </defs>
      <use xlink:href="#DejaVuSans-53"/>
      <use xlink:href="#DejaVuSans-68" x="63.476562"/>
      <use xlink:href="#DejaVuSans-65" x="126.855469"/>
      <use xlink:href="#DejaVuSans-61" x="188.378906"/>
      <use xlink:href="#DejaVuSans-72" x="249.658203"/>
      <use xlink:href="#DejaVuSans-20" x="290.771484"/>
      <use xlink:href="#DejaVuSans-45" x="322.558594"/>
      <use xlink:href="#DejaVuSans-78" x="385.742188"/>
      <use xlink:href="#DejaVuSans-74" x="444.921875"/>
      <use xlink:href="#DejaVuSans-65" x="484.130859"/>
      <use xlink:href="#DejaVuSans-6e" x="545.654297"/>
      <use xlink:href="#DejaVuSans-73" x="609.033203"/>
      <use xlink:href="#DejaVuSans-69" x="661.132812"/>
      <use xlink:href="#DejaVuSans-6f" x="688.916016"/>
      <use xlink:href="#DejaVuSans-6e" x="750.097656"/>
      <use xlink:href="#DejaVuSans-20" x="813.476562"/>
      <use xlink:href="#DejaVuSans-5b" x="845.263672"/>
      <use xlink:href="#DejaVuSans-6d" x="884.277344"/>
      <use xlink:href="#DejaVuSans-6d" x="981.689453"/>
      <use xlink:href="#DejaVuSans-5d" x="1079.101562"/>
     </g>
    </g>
   </g>
   <g id="matplotlib.axis_4">
    <g id="ytick_7">
     <g id="line2d_33">
      <g>
       <use xlink:href="#m7d4c050d84" x="311.851562" y="236.801676" style="stroke: #000000; stroke-width: 0.8"/>
      </g>
     </g>
    </g>
    <g id="ytick_8">
     <g id="line2d_34">
      <g>
       <use xlink:href="#m7d4c050d84" x="311.851562" y="196.633381" style="stroke: #000000; stroke-width: 0.8"/>
      </g>
     </g>
    </g>
    <g id="ytick_9">
     <g id="line2d_35">
      <g>
       <use xlink:href="#m7d4c050d84" x="311.851562" y="156.465085" style="stroke: #000000; stroke-width: 0.8"/>
      </g>
     </g>
    </g>
    <g id="ytick_10">
     <g id="line2d_36">
      <g>
       <use xlink:href="#m7d4c050d84" x="311.851562" y="116.29679" style="stroke: #000000; stroke-width: 0.8"/>
      </g>
     </g>
    </g>
    <g id="ytick_11">
     <g id="line2d_37">
      <g>
       <use xlink:href="#m7d4c050d84" x="311.851562" y="76.128494" style="stroke: #000000; stroke-width: 0.8"/>
      </g>
     </g>
    </g>
    <g id="ytick_12">
     <g id="line2d_38">
      <g>
       <use xlink:href="#m7d4c050d84" x="311.851562" y="35.960199" style="stroke: #000000; stroke-width: 0.8"/>
      </g>
     </g>
    </g>
   </g>
   <g id="line2d_39">
    <path d="M 311.851562 236.801676 
L 562.605759 236.801676 
" clip-path="url(#pb976ae2263)" style="fill: none; stroke-dasharray: 2.775,1.2; stroke-dashoffset: 0; stroke: #808080; stroke-opacity: 0.75; stroke-width: 0.75"/>
   </g>
   <g id="line2d_40">
    <path d="M 338.718084 246.84375 
L 338.718084 25.918125 
" clip-path="url(#pb976ae2263)" style="fill: none; stroke-dasharray: 2.775,1.2; stroke-dashoffset: 0; stroke: #808080; stroke-opacity: 0.75; stroke-width: 0.75"/>
   </g>
   <g id="line2d_41">
    <path d="M 338.723824 236.801676 
L 340.338988 234.772974 
L 341.996178 232.744273 
L 343.691249 230.715571 
L 345.419948 228.686869 
L 347.178019 226.658167 
L 348.961288 224.629465 
L 350.765745 222.600764 
L 352.587606 220.572062 
L 354.423356 218.54336 
L 356.269775 216.514658 
L 358.123948 214.485956 
L 359.983267 212.457255 
L 361.84542 210.428553 
L 363.708384 208.399851 
L 365.570408 206.371149 
L 367.430009 204.342447 
L 369.285954 202.313746 
L 371.137249 200.285044 
L 372.983125 198.256342 
L 374.823016 196.22764 
L 376.656551 194.198939 
L 378.483528 192.170237 
L 380.303913 190.141535 
L 382.117826 188.112833 
L 383.925542 186.084131 
L 385.727485 184.05543 
L 387.524224 182.026728 
L 389.316452 179.998026 
L 391.104965 177.969324 
L 392.89062 175.940622 
L 394.67429 173.911921 
L 396.456818 171.883219 
L 398.23897 169.854517 
L 400.021404 167.825815 
L 401.80466 165.797113 
L 403.589171 163.768412 
L 405.375295 161.73971 
L 407.163364 159.711008 
L 408.953742 157.682306 
L 410.746886 155.653605 
L 412.543383 153.624903 
L 414.343972 151.596201 
L 416.149534 149.567499 
L 417.96105 147.538797 
L 419.77954 145.510096 
L 421.605992 143.481394 
L 423.441291 141.452692 
L 425.286167 139.42399 
L 427.141178 137.395288 
L 429.006714 135.366587 
L 430.883034 133.337885 
L 432.770309 131.309183 
L 434.668673 129.280481 
L 436.578242 127.251779 
L 438.499115 125.223078 
L 440.431329 123.194376 
L 442.374785 121.165674 
L 444.329157 119.136972 
L 446.29378 117.10827 
L 448.267559 115.079569 
L 450.248898 113.050867 
L 452.235678 111.022165 
L 454.225279 108.993463 
L 456.214662 106.964762 
L 458.200511 104.93606 
L 460.179396 102.907358 
L 462.147974 100.878656 
L 464.103172 98.849954 
L 466.042346 96.821253 
L 467.963388 94.792551 
L 469.864777 92.763849 
L 471.745566 90.735147 
L 473.605335 88.706445 
L 475.444115 86.677744 
L 477.26232 84.649042 
L 479.06071 82.62034 
L 480.840391 80.591638 
L 482.602865 78.562936 
L 484.35011 76.534235 
L 486.084679 74.505533 
L 487.809784 72.476831 
L 489.529337 70.448129 
L 491.247931 68.419428 
L 492.970745 66.390726 
L 494.703371 64.362024 
L 496.451581 62.333322 
L 498.221035 60.30462 
L 500.016981 58.275919 
L 501.843952 56.247217 
L 503.705493 54.218515 
L 505.603938 52.189813 
L 507.540251 50.161111 
L 509.513935 48.13241 
L 511.523005 46.103708 
L 513.564022 44.075006 
L 515.632171 42.046304 
L 517.72137 40.017602 
L 519.824382 37.988901 
L 521.932941 35.960199 
" clip-path="url(#pb976ae2263)" style="fill: none; stroke-dasharray: 3.7,1.6; stroke-dashoffset: 0; stroke: #008000"/>
   </g>
   <g id="line2d_42">
    <path d="M 338.713085 236.801676 
L 340.652192 234.772974 
L 342.590065 232.744273 
L 344.526727 230.715571 
L 346.462032 228.686869 
L 348.394927 226.658167 
L 350.327732 224.629465 
L 352.258945 222.600764 
L 354.18824 220.572062 
L 356.117796 218.54336 
L 358.044722 216.514658 
L 359.971924 214.485956 
L 361.896837 212.457255 
L 363.822435 210.428553 
L 365.746345 208.399851 
L 367.669782 206.371149 
L 369.592346 204.342447 
L 371.51384 202.313746 
L 373.435751 200.285044 
L 375.356605 198.256342 
L 377.277047 196.22764 
L 379.19625 194.198939 
L 381.115798 192.170237 
L 383.034862 190.141535 
L 384.953903 188.112833 
L 386.872185 186.084131 
L 388.790266 184.05543 
L 390.708695 182.026728 
L 392.626649 179.998026 
L 394.544583 177.969324 
L 396.461919 175.940622 
L 398.380123 173.911921 
L 400.298364 171.883219 
L 402.216567 169.854517 
L 404.134003 167.825815 
L 406.052413 165.797113 
L 407.970623 163.768412 
L 409.889865 161.73971 
L 411.808944 159.711008 
L 413.727763 157.682306 
L 415.647597 155.653605 
L 417.567585 153.624903 
L 419.487225 151.596201 
L 421.408493 149.567499 
L 423.329078 147.538797 
L 425.250892 145.510096 
L 427.172882 143.481394 
L 429.095774 141.452692 
L 431.018153 139.42399 
L 432.942171 137.395288 
L 434.866655 135.366587 
L 436.79089 133.337885 
L 438.716368 131.309183 
L 440.642777 129.280481 
L 442.56904 127.251779 
L 444.496667 125.223078 
L 446.424962 123.194376 
L 448.353061 121.165674 
L 450.282655 119.136972 
L 452.212752 117.10827 
L 454.143282 115.079569 
L 456.074967 113.050867 
L 458.006692 111.022165 
L 459.940057 108.993463 
L 461.874086 106.964762 
L 463.808827 104.93606 
L 465.743976 102.907358 
L 467.67986 100.878656 
L 469.616718 98.849954 
L 471.554459 96.821253 
L 473.492398 94.792551 
L 475.431489 92.763849 
L 477.371257 90.735147 
L 479.311635 88.706445 
L 481.253359 86.677744 
L 483.195554 84.649042 
L 485.138123 82.62034 
L 487.082091 80.591638 
L 489.026027 78.562936 
L 490.970435 76.534235 
L 492.916201 74.505533 
L 494.862686 72.476831 
L 496.810028 70.448129 
L 498.758044 68.419428 
L 500.705283 66.390726 
L 502.654044 64.362024 
L 504.603837 62.333322 
L 506.553178 60.30462 
L 508.50384 58.275919 
L 510.454599 56.247217 
L 512.405985 54.218515 
L 514.358094 52.189813 
L 516.309864 50.161111 
L 518.262405 48.13241 
L 520.215208 46.103708 
L 522.168297 44.075006 
L 524.120671 42.046304 
L 526.074849 40.017602 
L 528.028411 37.988901 
L 529.981526 35.960199 
" clip-path="url(#pb976ae2263)" style="fill: none; stroke: #0000ff; stroke-width: 0.5; stroke-linecap: square"/>
   </g>
   <g id="line2d_43">
    <g clip-path="url(#pb976ae2263)">
     <use xlink:href="#m7df3625613" x="338.718084" y="236.801676" style="fill: #1f77b4; stroke: #1f77b4"/>
     <use xlink:href="#m7df3625613" x="363.035788" y="211.256531" style="fill: #1f77b4; stroke: #1f77b4"/>
     <use xlink:href="#m7df3625613" x="373.589485" y="199.503823" style="fill: #1f77b4; stroke: #1f77b4"/>
     <use xlink:href="#m7df3625613" x="384.489274" y="187.394973" style="fill: #1f77b4; stroke: #1f77b4"/>
     <use xlink:href="#m7df3625613" x="395.892756" y="175.998408" style="fill: #1f77b4; stroke: #1f77b4"/>
     <use xlink:href="#m7df3625613" x="407.148533" y="163.662922" style="fill: #1f77b4; stroke: #1f77b4"/>
     <use xlink:href="#m7df3625613" x="417.850312" y="152.395863" style="fill: #1f77b4; stroke: #1f77b4"/>
     <use xlink:href="#m7df3625613" x="428.226538" y="142.002973" style="fill: #1f77b4; stroke: #1f77b4"/>
     <use xlink:href="#m7df3625613" x="438.860154" y="130.541654" style="fill: #1f77b4; stroke: #1f77b4"/>
     <use xlink:href="#m7df3625613" x="448.937483" y="121.281944" style="fill: #1f77b4; stroke: #1f77b4"/>
     <use xlink:href="#m7df3625613" x="457.92443" y="111.083312" style="fill: #1f77b4; stroke: #1f77b4"/>
     <use xlink:href="#m7df3625613" x="467.494595" y="101.920731" style="fill: #1f77b4; stroke: #1f77b4"/>
     <use xlink:href="#m7df3625613" x="475.554689" y="93.179045" style="fill: #1f77b4; stroke: #1f77b4"/>
     <use xlink:href="#m7df3625613" x="484.178955" y="84.307852" style="fill: #1f77b4; stroke: #1f77b4"/>
     <use xlink:href="#m7df3625613" x="492.999559" y="76.246073" style="fill: #1f77b4; stroke: #1f77b4"/>
     <use xlink:href="#m7df3625613" x="500.06903" y="68.79945" style="fill: #1f77b4; stroke: #1f77b4"/>
     <use xlink:href="#m7df3625613" x="508.253839" y="60.996683" style="fill: #1f77b4; stroke: #1f77b4"/>
     <use xlink:href="#m7df3625613" x="515.430565" y="54.10046" style="fill: #1f77b4; stroke: #1f77b4"/>
     <use xlink:href="#m7df3625613" x="523.443724" y="46.945225" style="fill: #1f77b4; stroke: #1f77b4"/>
     <use xlink:href="#m7df3625613" x="528.920059" y="40.308014" style="fill: #1f77b4; stroke: #1f77b4"/>
    </g>
   </g>
   <g id="line2d_44">
    <g clip-path="url(#pb976ae2263)">
     <use xlink:href="#m4caba82e40" x="354.333019" y="221.487539" style="fill: #ff7f0e; stroke: #ff7f0e"/>
     <use xlink:href="#m4caba82e40" x="366.30949" y="210.803258" style="fill: #ff7f0e; stroke: #ff7f0e"/>
     <use xlink:href="#m4caba82e40" x="375.534342" y="199.600953" style="fill: #ff7f0e; stroke: #ff7f0e"/>
     <use xlink:href="#m4caba82e40" x="387.360544" y="186.74744" style="fill: #ff7f0e; stroke: #ff7f0e"/>
     <use xlink:href="#m4caba82e40" x="399.38282" y="174.379578" style="fill: #ff7f0e; stroke: #ff7f0e"/>
     <use xlink:href="#m4caba82e40" x="412.013339" y="162.076468" style="fill: #ff7f0e; stroke: #ff7f0e"/>
     <use xlink:href="#m4caba82e40" x="423.336119" y="148.931566" style="fill: #ff7f0e; stroke: #ff7f0e"/>
     <use xlink:href="#m4caba82e40" x="436.310975" y="135.819041" style="fill: #ff7f0e; stroke: #ff7f0e"/>
     <use xlink:href="#m4caba82e40" x="448.622842" y="123.742567" style="fill: #ff7f0e; stroke: #ff7f0e"/>
     <use xlink:href="#m4caba82e40" x="461.619762" y="111.407078" style="fill: #ff7f0e; stroke: #ff7f0e"/>
     <use xlink:href="#m4caba82e40" x="473.056442" y="99.460108" style="fill: #ff7f0e; stroke: #ff7f0e"/>
     <use xlink:href="#m4caba82e40" x="485.390467" y="87.189371" style="fill: #ff7f0e; stroke: #ff7f0e"/>
     <use xlink:href="#m4caba82e40" x="496.856698" y="75.469034" style="fill: #ff7f0e; stroke: #ff7f0e"/>
     <use xlink:href="#m4caba82e40" x="508.910635" y="63.845826" style="fill: #ff7f0e; stroke: #ff7f0e"/>
     <use xlink:href="#m4caba82e40" x="520.167956" y="53.323422" style="fill: #ff7f0e; stroke: #ff7f0e"/>
     <use xlink:href="#m4caba82e40" x="531.828154" y="41.570703" style="fill: #ff7f0e; stroke: #ff7f0e"/>
    </g>
   </g>
   <g id="line2d_45">
    <g clip-path="url(#pb976ae2263)">
     <use xlink:href="#m4d5bf7086c" x="359.967621" y="213.814283" style="fill: #2ca02c; stroke: #2ca02c"/>
     <use xlink:href="#m4d5bf7086c" x="371.201505" y="202.741484" style="fill: #2ca02c; stroke: #2ca02c"/>
     <use xlink:href="#m4d5bf7086c" x="383.0906" y="190.503127" style="fill: #2ca02c; stroke: #2ca02c"/>
     <use xlink:href="#m4d5bf7086c" x="395.632078" y="178.3619" style="fill: #2ca02c; stroke: #2ca02c"/>
     <use xlink:href="#m4d5bf7086c" x="406.028243" y="166.285427" style="fill: #2ca02c; stroke: #2ca02c"/>
     <use xlink:href="#m4d5bf7086c" x="417.929046" y="154.176577" style="fill: #2ca02c; stroke: #2ca02c"/>
     <use xlink:href="#m4d5bf7086c" x="430.857801" y="140.837415" style="fill: #2ca02c; stroke: #2ca02c"/>
     <use xlink:href="#m4d5bf7086c" x="441.933605" y="128.145785" style="fill: #2ca02c; stroke: #2ca02c"/>
     <use xlink:href="#m4d5bf7086c" x="454.362249" y="116.3607" style="fill: #2ca02c; stroke: #2ca02c"/>
     <use xlink:href="#m4d5bf7086c" x="466.929303" y="103.733821" style="fill: #2ca02c; stroke: #2ca02c"/>
     <use xlink:href="#m4d5bf7086c" x="479.49955" y="91.78685" style="fill: #2ca02c; stroke: #2ca02c"/>
     <use xlink:href="#m4d5bf7086c" x="489.202517" y="79.775124" style="fill: #2ca02c; stroke: #2ca02c"/>
     <use xlink:href="#m4d5bf7086c" x="503.543758" y="68.443306" style="fill: #2ca02c; stroke: #2ca02c"/>
     <use xlink:href="#m4d5bf7086c" x="514.902573" y="56.755344" style="fill: #2ca02c; stroke: #2ca02c"/>
     <use xlink:href="#m4d5bf7086c" x="525.287229" y="46.297691" style="fill: #2ca02c; stroke: #2ca02c"/>
    </g>
   </g>
   <g id="patch_11">
    <path d="M 311.851562 246.84375 
L 311.851562 25.918125 
" style="fill: none; stroke: #000000; stroke-width: 0.8; stroke-linejoin: miter; stroke-linecap: square"/>
   </g>
   <g id="patch_12">
    <path d="M 562.605759 246.84375 
L 562.605759 25.918125 
" style="fill: none; stroke: #000000; stroke-width: 0.8; stroke-linejoin: miter; stroke-linecap: square"/>
   </g>
   <g id="patch_13">
    <path d="M 311.851562 246.84375 
L 562.605759 246.84375 
" style="fill: none; stroke: #000000; stroke-width: 0.8; stroke-linejoin: miter; stroke-linecap: square"/>
   </g>
   <g id="patch_14">
    <path d="M 311.851562 25.918125 
L 562.605759 25.918125 
" style="fill: none; stroke: #000000; stroke-width: 0.8; stroke-linejoin: miter; stroke-linecap: square"/>
   </g>
   <g id="text_32">
    <!-- Predictions ($90^\circ$) -->
    <g transform="translate(385.328661 19.918125) scale(0.12 -0.12)">
     <use xlink:href="#DejaVuSans-50" transform="translate(0 0.015625)"/>
     <use xlink:href="#DejaVuSans-72" transform="translate(60.302734 0.015625)"/>
     <use xlink:href="#DejaVuSans-65" transform="translate(101.416016 0.015625)"/>
     <use xlink:href="#DejaVuSans-64" transform="translate(162.939453 0.015625)"/>
     <use xlink:href="#DejaVuSans-69" transform="translate(226.416016 0.015625)"/>
     <use xlink:href="#DejaVuSans-63" transform="translate(254.199219 0.015625)"/>
     <use xlink:href="#DejaVuSans-74" transform="translate(309.179688 0.015625)"/>
     <use xlink:href="#DejaVuSans-69" transform="translate(348.388672 0.015625)"/>
     <use xlink:href="#DejaVuSans-6f" transform="translate(376.171875 0.015625)"/>
     <use xlink:href="#DejaVuSans-6e" transform="translate(437.353516 0.015625)"/>
     <use xlink:href="#DejaVuSans-73" transform="translate(500.732422 0.015625)"/>
     <use xlink:href="#DejaVuSans-20" transform="translate(552.832031 0.015625)"/>
     <use xlink:href="#DejaVuSans-28" transform="translate(584.619141 0.015625)"/>
     <use xlink:href="#DejaVuSans-39" transform="translate(623.632812 0.015625)"/>
     <use xlink:href="#DejaVuSans-30" transform="translate(687.255859 0.015625)"/>
     <use xlink:href="#DejaVuSans-2218" transform="translate(765.473633 38.296875) scale(0.7)"/>
     <use xlink:href="#DejaVuSans-29" transform="translate(825.664062 0.015625)"/>
    </g>
   </g>
  </g>
 </g>
 <defs>
  <clipPath id="p525635e3c4">
   <rect x="44.203125" y="25.918125" width="250.754196" height="220.925625"/>
  </clipPath>
  <clipPath id="pb976ae2263">
   <rect x="311.851562" y="25.918125" width="250.754196" height="220.925625"/>
  </clipPath>
 </defs>
</svg>
