<?xml version="1.0" encoding="utf-8" standalone="no"?>
<!DOCTYPE svg PUBLIC "-//W3C//DTD SVG 1.1//EN"
  "http://www.w3.org/Graphics/SVG/1.1/DTD/svg11.dtd">
<svg xmlns:xlink="http://www.w3.org/1999/xlink" width="576pt" height="288pt" viewBox="0 0 576 288" xmlns="http://www.w3.org/2000/svg" version="1.1">
 <metadata>
  <rdf:RDF xmlns:dc="http://purl.org/dc/elements/1.1/" xmlns:cc="http://creativecommons.org/ns#" xmlns:rdf="http://www.w3.org/1999/02/22-rdf-syntax-ns#">
   <cc:Work>
    <dc:type rdf:resource="http://purl.org/dc/dcmitype/StillImage"/>
    <dc:date>2024-11-24T10:56:40.194221</dc:date>
    <dc:format>image/svg+xml</dc:format>
    <dc:creator>
     <cc:Agent>
      <dc:title>Matplotlib v3.9.2, https://matplotlib.org/</dc:title>
     </cc:Agent>
    </dc:creator>
   </cc:Work>
  </rdf:RDF>
 </metadata>
 <defs>
  <style type="text/css">*{stroke-linejoin: round; stroke-linecap: butt}</style>
 </defs>
 <g id="figure_1">
  <g id="patch_1">
   <path d="M 0 288 
L 576 288 
L 576 0 
L 0 0 
z
" style="fill: #ffffff"/>
  </g>
  <g id="axes_1">
   <g id="patch_2">
    <path d="M 44.203125 246.84375 
L 297.551562 246.84375 
L 297.551562 25.918125 
L 44.203125 25.918125 
z
" style="fill: #ffffff"/>
   </g>
   <g id="PolyCollection_1">
    <defs>
     <path id="medbef8a203" d="M 57.611744 -51.198324 
L 57.46113 -51.198324 
L 57.282791 -53.227026 
L 57.128559 -55.255727 
L 56.998433 -57.284429 
L 56.892413 -59.313131 
L 56.8105 -61.341833 
L 56.752693 -63.370535 
L 56.718993 -65.399236 
L 56.709399 -67.427938 
L 56.723911 -69.45664 
L 56.76253 -71.485342 
L 56.825256 -73.514044 
L 56.912088 -75.542745 
L 57.023026 -77.571447 
L 57.158071 -79.600149 
L 57.317222 -81.628851 
L 57.50048 -83.657553 
L 57.707844 -85.686254 
L 57.939315 -87.714956 
L 58.194892 -89.743658 
L 58.474576 -91.77236 
L 58.778366 -93.801061 
L 59.106262 -95.829763 
L 59.458265 -97.858465 
L 59.834374 -99.887167 
L 60.23459 -101.915869 
L 60.658912 -103.94457 
L 61.107341 -105.973272 
L 61.579876 -108.001974 
L 62.076518 -110.030676 
L 62.597266 -112.059378 
L 63.142121 -114.088079 
L 63.711082 -116.116781 
L 64.304149 -118.145483 
L 64.921323 -120.174185 
L 65.562603 -122.202887 
L 66.22799 -124.231588 
L 66.917483 -126.26029 
L 67.631083 -128.288992 
L 68.368789 -130.317694 
L 69.130602 -132.346395 
L 69.916521 -134.375097 
L 70.726546 -136.403799 
L 71.560678 -138.432501 
L 72.418917 -140.461203 
L 73.301262 -142.489904 
L 74.207713 -144.518606 
L 75.138271 -146.547308 
L 76.092935 -148.57601 
L 77.071706 -150.604712 
L 78.074583 -152.633413 
L 79.101566 -154.662115 
L 80.152656 -156.690817 
L 81.227853 -158.719519 
L 82.327156 -160.748221 
L 83.450565 -162.776922 
L 84.598081 -164.805624 
L 85.746079 -166.834326 
L 86.870935 -168.863028 
L 87.97265 -170.89173 
L 89.051222 -172.920431 
L 90.106653 -174.949133 
L 91.138942 -176.977835 
L 92.148089 -179.006537 
L 93.134095 -181.035238 
L 94.095913 -183.06394 
L 95.0325 -185.092642 
L 95.943855 -187.121344 
L 96.829978 -189.150046 
L 97.690869 -191.178747 
L 98.526529 -193.207449 
L 99.336956 -195.236151 
L 100.122152 -197.264853 
L 100.926664 -199.293555 
L 101.795039 -201.322256 
L 102.727277 -203.350958 
L 103.723379 -205.37966 
L 104.783343 -207.408362 
L 105.907172 -209.437064 
L 107.094863 -211.465765 
L 108.346418 -213.494467 
L 109.619048 -215.523169 
L 110.869965 -217.551871 
L 112.099169 -219.580572 
L 113.306661 -221.609274 
L 114.492439 -223.637976 
L 115.656505 -225.666678 
L 116.798858 -227.69538 
L 117.919497 -229.724081 
L 119.018424 -231.752783 
L 120.095639 -233.781485 
L 121.15114 -235.810187 
L 122.184928 -237.838889 
L 123.197004 -239.86759 
L 124.187366 -241.896292 
L 125.156016 -243.924994 
L 126.102953 -245.953696 
L 127.028177 -247.982398 
L 127.931688 -250.011099 
L 128.813486 -252.039801 
L 182.306877 -252.039801 
L 182.306877 -252.039801 
L 181.12473 -250.011099 
L 179.946053 -247.982398 
L 178.770848 -245.953696 
L 177.599115 -243.924994 
L 176.430853 -241.896292 
L 175.266062 -239.86759 
L 174.104743 -237.838889 
L 172.946895 -235.810187 
L 171.792519 -233.781485 
L 170.641614 -231.752783 
L 169.494181 -229.724081 
L 168.350219 -227.69538 
L 167.209728 -225.666678 
L 166.072709 -223.637976 
L 164.939162 -221.609274 
L 163.827804 -219.580572 
L 162.757355 -217.551871 
L 161.727815 -215.523169 
L 160.739183 -213.494467 
L 159.79146 -211.465765 
L 158.884645 -209.437064 
L 158.018739 -207.408362 
L 157.193742 -205.37966 
L 156.384769 -203.350958 
L 155.566934 -201.322256 
L 154.740239 -199.293555 
L 153.904683 -197.264853 
L 153.060265 -195.236151 
L 152.206987 -193.207449 
L 151.344848 -191.178747 
L 150.473847 -189.150046 
L 149.582967 -187.121344 
L 148.661187 -185.092642 
L 147.708508 -183.06394 
L 146.72493 -181.035238 
L 145.710452 -179.006537 
L 144.665075 -176.977835 
L 143.588799 -174.949133 
L 142.481624 -172.920431 
L 141.357368 -170.89173 
L 140.229851 -168.863028 
L 139.099073 -166.834326 
L 137.965034 -164.805624 
L 136.827734 -162.776922 
L 135.687173 -160.748221 
L 134.54335 -158.719519 
L 133.396267 -156.690817 
L 132.281859 -154.662115 
L 131.236063 -152.633413 
L 130.25888 -150.604712 
L 129.350308 -148.57601 
L 128.510349 -146.547308 
L 127.739002 -144.518606 
L 127.036267 -142.489904 
L 126.402144 -140.461203 
L 125.750089 -138.432501 
L 124.993559 -136.403799 
L 124.132554 -134.375097 
L 123.167074 -132.346395 
L 122.097118 -130.317694 
L 120.922687 -128.288992 
L 119.643781 -126.26029 
L 118.260399 -124.231588 
L 116.911997 -122.202887 
L 115.73803 -120.174185 
L 114.738496 -118.145483 
L 113.913397 -116.116781 
L 113.262732 -114.088079 
L 112.786501 -112.059378 
L 112.484705 -110.030676 
L 112.357343 -108.001974 
L 112.331941 -105.973272 
L 112.336024 -103.94457 
L 112.369592 -101.915869 
L 112.432646 -99.887167 
L 112.525186 -97.858465 
L 112.64721 -95.829763 
L 112.79872 -93.801061 
L 112.979716 -91.77236 
L 113.06838 -89.743658 
L 112.942895 -87.714956 
L 112.60326 -85.686254 
L 112.049477 -83.657553 
L 111.281545 -81.628851 
L 110.299464 -79.600149 
L 109.103234 -77.571447 
L 107.692856 -75.542745 
L 105.954071 -73.514044 
L 103.772625 -71.485342 
L 101.148516 -69.45664 
L 98.081745 -67.427938 
L 94.572312 -65.399236 
L 90.620218 -63.370535 
L 86.22546 -61.341833 
L 81.388041 -59.313131 
L 76.10796 -57.284429 
L 70.385217 -55.255727 
L 64.219811 -53.227026 
L 57.611744 -51.198324 
z
" style="stroke: #90ee90; stroke-opacity: 0.75"/>
    </defs>
    <g clip-path="url(#pbbd87f2623)">
     <use xlink:href="#medbef8a203" x="0" y="288" style="fill: #90ee90; fill-opacity: 0.75; stroke: #90ee90; stroke-opacity: 0.75"/>
    </g>
   </g>
   <g id="PolyCollection_2">
    <defs>
     <path id="m0ec99c356b" d="M 57.626403 -51.198324 
L 57.470585 -51.198324 
L 58.28133 -53.227026 
L 59.058518 -55.255727 
L 59.816791 -57.284429 
L 60.593688 -59.313131 
L 61.367547 -61.341833 
L 62.161029 -63.370535 
L 62.947735 -65.399236 
L 63.737133 -67.427938 
L 64.545867 -69.45664 
L 65.357845 -71.485342 
L 66.171129 -73.514044 
L 66.987967 -75.542745 
L 67.812505 -77.571447 
L 68.657797 -79.600149 
L 69.488094 -81.628851 
L 70.351299 -83.657553 
L 71.20446 -85.686254 
L 72.049834 -87.714956 
L 72.906125 -89.743658 
L 73.768218 -91.77236 
L 74.649486 -93.801061 
L 75.516113 -95.829763 
L 76.415255 -97.858465 
L 77.299183 -99.887167 
L 78.231942 -101.915869 
L 79.154434 -103.94457 
L 80.072071 -105.973272 
L 81.007313 -108.001974 
L 81.925434 -110.030676 
L 82.879768 -112.059378 
L 83.836139 -114.088079 
L 84.765776 -116.116781 
L 85.739046 -118.145483 
L 86.676147 -120.174185 
L 87.658832 -122.202887 
L 88.612147 -124.231588 
L 89.60001 -126.26029 
L 90.606508 -128.288992 
L 91.596482 -130.317694 
L 92.609954 -132.346395 
L 93.620874 -134.375097 
L 94.608621 -136.403799 
L 95.571258 -138.432501 
L 96.565929 -140.461203 
L 97.570888 -142.489904 
L 98.554725 -144.518606 
L 99.597851 -146.547308 
L 100.563845 -148.57601 
L 101.560533 -150.604712 
L 102.56497 -152.633413 
L 103.593284 -154.662115 
L 104.614525 -156.690817 
L 105.614483 -158.719519 
L 106.640553 -160.748221 
L 107.61981 -162.776922 
L 108.626099 -164.805624 
L 109.642994 -166.834326 
L 110.629503 -168.863028 
L 111.641872 -170.89173 
L 112.633642 -172.920431 
L 113.630352 -174.949133 
L 114.655132 -176.977835 
L 115.619761 -179.006537 
L 116.614246 -181.035238 
L 117.618384 -183.06394 
L 118.615172 -185.092642 
L 119.599243 -187.121344 
L 120.594277 -189.150046 
L 121.615151 -191.178747 
L 122.601074 -193.207449 
L 123.602292 -195.236151 
L 124.570173 -197.264853 
L 125.547672 -199.293555 
L 126.528941 -201.322256 
L 127.490726 -203.350958 
L 128.448915 -205.37966 
L 129.431675 -207.408362 
L 130.423204 -209.437064 
L 131.408153 -211.465765 
L 132.379343 -213.494467 
L 133.353287 -215.523169 
L 134.312707 -217.551871 
L 135.274389 -219.580572 
L 136.261362 -221.609274 
L 137.241753 -223.637976 
L 138.211809 -225.666678 
L 139.188031 -227.69538 
L 140.146354 -229.724081 
L 141.130384 -231.752783 
L 142.132347 -233.781485 
L 143.101706 -235.810187 
L 144.078314 -237.838889 
L 145.064097 -239.86759 
L 146.064433 -241.896292 
L 147.084491 -243.924994 
L 148.085254 -245.953696 
L 149.097409 -247.982398 
L 150.121492 -250.011099 
L 151.152492 -252.039801 
L 159.57279 -252.039801 
L 159.57279 -252.039801 
L 158.320773 -250.011099 
L 157.043547 -247.982398 
L 155.843547 -245.953696 
L 154.684093 -243.924994 
L 153.505202 -241.896292 
L 152.365614 -239.86759 
L 151.204997 -237.838889 
L 150.05035 -235.810187 
L 148.89766 -233.781485 
L 147.780416 -231.752783 
L 146.649691 -229.724081 
L 145.533206 -227.69538 
L 144.386842 -225.666678 
L 143.285285 -223.637976 
L 142.2083 -221.609274 
L 141.134518 -219.580572 
L 140.057432 -217.551871 
L 138.993903 -215.523169 
L 137.934062 -213.494467 
L 136.845124 -211.465765 
L 135.811066 -209.437064 
L 134.755968 -207.408362 
L 133.71976 -205.37966 
L 132.711267 -203.350958 
L 131.652831 -201.322256 
L 130.600045 -199.293555 
L 129.580075 -197.264853 
L 128.567671 -195.236151 
L 127.546672 -193.207449 
L 126.524464 -191.178747 
L 125.524927 -189.150046 
L 124.524721 -187.121344 
L 123.530349 -185.092642 
L 122.529901 -183.06394 
L 121.530288 -181.035238 
L 120.519156 -179.006537 
L 119.519537 -176.977835 
L 118.523229 -174.949133 
L 117.553523 -172.920431 
L 116.567401 -170.89173 
L 115.560198 -168.863028 
L 114.573425 -166.834326 
L 113.58173 -164.805624 
L 112.592494 -162.776922 
L 111.626901 -160.748221 
L 110.63288 -158.719519 
L 109.617517 -156.690817 
L 108.628347 -154.662115 
L 107.619462 -152.633413 
L 106.63274 -150.604712 
L 105.653906 -148.57601 
L 104.671392 -146.547308 
L 103.67125 -144.518606 
L 102.691717 -142.489904 
L 101.701189 -140.461203 
L 100.716144 -138.432501 
L 99.712004 -136.403799 
L 98.730532 -134.375097 
L 97.757907 -132.346395 
L 96.761593 -130.317694 
L 95.775302 -128.288992 
L 94.771245 -126.26029 
L 93.78213 -124.231588 
L 92.786859 -122.202887 
L 91.777715 -120.174185 
L 90.784726 -118.145483 
L 89.78665 -116.116781 
L 88.805072 -114.088079 
L 87.80311 -112.059378 
L 86.836305 -110.030676 
L 85.851665 -108.001974 
L 84.853687 -105.973272 
L 83.831103 -103.94457 
L 82.842914 -101.915869 
L 81.858837 -99.887167 
L 80.882793 -97.858465 
L 79.88627 -95.829763 
L 78.896222 -93.801061 
L 77.9331 -91.77236 
L 76.918336 -89.743658 
L 75.949079 -87.714956 
L 74.935 -85.686254 
L 73.951502 -83.657553 
L 72.9662 -81.628851 
L 71.961455 -79.600149 
L 70.984289 -77.571447 
L 69.966698 -75.542745 
L 68.97352 -73.514044 
L 67.967905 -71.485342 
L 66.954365 -69.45664 
L 65.940064 -67.427938 
L 64.909607 -65.399236 
L 63.883229 -63.370535 
L 62.845025 -61.341833 
L 61.796555 -59.313131 
L 60.743765 -57.284429 
L 59.700153 -55.255727 
L 58.642631 -53.227026 
L 57.626403 -51.198324 
z
" style="stroke: #6495ed; stroke-opacity: 0.75"/>
    </defs>
    <g clip-path="url(#pbbd87f2623)">
     <use xlink:href="#m0ec99c356b" x="0" y="288" style="fill: #6495ed; fill-opacity: 0.75; stroke: #6495ed; stroke-opacity: 0.75"/>
    </g>
   </g>
   <g id="matplotlib.axis_1">
    <g id="xtick_1">
     <g id="line2d_1">
      <defs>
       <path id="m396db7bafd" d="M 0 0 
L 0 3.5 
" style="stroke: #000000; stroke-width: 0.8"/>
      </defs>
      <g>
       <use xlink:href="#m396db7bafd" x="57.537253" y="246.84375" style="stroke: #000000; stroke-width: 0.8"/>
      </g>
     </g>
     <g id="text_1">
      <!-- 0.00 -->
      <g transform="translate(46.404441 261.442187) scale(0.1 -0.1)">
       <defs>
        <path id="DejaVuSans-30" d="M 2034 4250 
Q 1547 4250 1301 3770 
Q 1056 3291 1056 2328 
Q 1056 1369 1301 889 
Q 1547 409 2034 409 
Q 2525 409 2770 889 
Q 3016 1369 3016 2328 
Q 3016 3291 2770 3770 
Q 2525 4250 2034 4250 
z
M 2034 4750 
Q 2819 4750 3233 4129 
Q 3647 3509 3647 2328 
Q 3647 1150 3233 529 
Q 2819 -91 2034 -91 
Q 1250 -91 836 529 
Q 422 1150 422 2328 
Q 422 3509 836 4129 
Q 1250 4750 2034 4750 
z
" transform="scale(0.015625)"/>
        <path id="DejaVuSans-2e" d="M 684 794 
L 1344 794 
L 1344 0 
L 684 0 
L 684 794 
z
" transform="scale(0.015625)"/>
       </defs>
       <use xlink:href="#DejaVuSans-30"/>
       <use xlink:href="#DejaVuSans-2e" x="63.623047"/>
       <use xlink:href="#DejaVuSans-30" x="95.410156"/>
       <use xlink:href="#DejaVuSans-30" x="159.033203"/>
      </g>
     </g>
    </g>
    <g id="xtick_2">
     <g id="line2d_2">
      <g>
       <use xlink:href="#m396db7bafd" x="110.873766" y="246.84375" style="stroke: #000000; stroke-width: 0.8"/>
      </g>
     </g>
     <g id="text_2">
      <!-- 0.02 -->
      <g transform="translate(99.740954 261.442187) scale(0.1 -0.1)">
       <defs>
        <path id="DejaVuSans-32" d="M 1228 531 
L 3431 531 
L 3431 0 
L 469 0 
L 469 531 
Q 828 903 1448 1529 
Q 2069 2156 2228 2338 
Q 2531 2678 2651 2914 
Q 2772 3150 2772 3378 
Q 2772 3750 2511 3984 
Q 2250 4219 1831 4219 
Q 1534 4219 1204 4116 
Q 875 4013 500 3803 
L 500 4441 
Q 881 4594 1212 4672 
Q 1544 4750 1819 4750 
Q 2544 4750 2975 4387 
Q 3406 4025 3406 3419 
Q 3406 3131 3298 2873 
Q 3191 2616 2906 2266 
Q 2828 2175 2409 1742 
Q 1991 1309 1228 531 
z
" transform="scale(0.015625)"/>
       </defs>
       <use xlink:href="#DejaVuSans-30"/>
       <use xlink:href="#DejaVuSans-2e" x="63.623047"/>
       <use xlink:href="#DejaVuSans-30" x="95.410156"/>
       <use xlink:href="#DejaVuSans-32" x="159.033203"/>
      </g>
     </g>
    </g>
    <g id="xtick_3">
     <g id="line2d_3">
      <g>
       <use xlink:href="#m396db7bafd" x="164.21028" y="246.84375" style="stroke: #000000; stroke-width: 0.8"/>
      </g>
     </g>
     <g id="text_3">
      <!-- 0.04 -->
      <g transform="translate(153.077467 261.442187) scale(0.1 -0.1)">
       <defs>
        <path id="DejaVuSans-34" d="M 2419 4116 
L 825 1625 
L 2419 1625 
L 2419 4116 
z
M 2253 4666 
L 3047 4666 
L 3047 1625 
L 3713 1625 
L 3713 1100 
L 3047 1100 
L 3047 0 
L 2419 0 
L 2419 1100 
L 313 1100 
L 313 1709 
L 2253 4666 
z
" transform="scale(0.015625)"/>
       </defs>
       <use xlink:href="#DejaVuSans-30"/>
       <use xlink:href="#DejaVuSans-2e" x="63.623047"/>
       <use xlink:href="#DejaVuSans-30" x="95.410156"/>
       <use xlink:href="#DejaVuSans-34" x="159.033203"/>
      </g>
     </g>
    </g>
    <g id="xtick_4">
     <g id="line2d_4">
      <g>
       <use xlink:href="#m396db7bafd" x="217.546793" y="246.84375" style="stroke: #000000; stroke-width: 0.8"/>
      </g>
     </g>
     <g id="text_4">
      <!-- 0.06 -->
      <g transform="translate(206.41398 261.442187) scale(0.1 -0.1)">
       <defs>
        <path id="DejaVuSans-36" d="M 2113 2584 
Q 1688 2584 1439 2293 
Q 1191 2003 1191 1497 
Q 1191 994 1439 701 
Q 1688 409 2113 409 
Q 2538 409 2786 701 
Q 3034 994 3034 1497 
Q 3034 2003 2786 2293 
Q 2538 2584 2113 2584 
z
M 3366 4563 
L 3366 3988 
Q 3128 4100 2886 4159 
Q 2644 4219 2406 4219 
Q 1781 4219 1451 3797 
Q 1122 3375 1075 2522 
Q 1259 2794 1537 2939 
Q 1816 3084 2150 3084 
Q 2853 3084 3261 2657 
Q 3669 2231 3669 1497 
Q 3669 778 3244 343 
Q 2819 -91 2113 -91 
Q 1303 -91 875 529 
Q 447 1150 447 2328 
Q 447 3434 972 4092 
Q 1497 4750 2381 4750 
Q 2619 4750 2861 4703 
Q 3103 4656 3366 4563 
z
" transform="scale(0.015625)"/>
       </defs>
       <use xlink:href="#DejaVuSans-30"/>
       <use xlink:href="#DejaVuSans-2e" x="63.623047"/>
       <use xlink:href="#DejaVuSans-30" x="95.410156"/>
       <use xlink:href="#DejaVuSans-36" x="159.033203"/>
      </g>
     </g>
    </g>
    <g id="xtick_5">
     <g id="line2d_5">
      <g>
       <use xlink:href="#m396db7bafd" x="270.883306" y="246.84375" style="stroke: #000000; stroke-width: 0.8"/>
      </g>
     </g>
     <g id="text_5">
      <!-- 0.08 -->
      <g transform="translate(259.750493 261.442187) scale(0.1 -0.1)">
       <defs>
        <path id="DejaVuSans-38" d="M 2034 2216 
Q 1584 2216 1326 1975 
Q 1069 1734 1069 1313 
Q 1069 891 1326 650 
Q 1584 409 2034 409 
Q 2484 409 2743 651 
Q 3003 894 3003 1313 
Q 3003 1734 2745 1975 
Q 2488 2216 2034 2216 
z
M 1403 2484 
Q 997 2584 770 2862 
Q 544 3141 544 3541 
Q 544 4100 942 4425 
Q 1341 4750 2034 4750 
Q 2731 4750 3128 4425 
Q 3525 4100 3525 3541 
Q 3525 3141 3298 2862 
Q 3072 2584 2669 2484 
Q 3125 2378 3379 2068 
Q 3634 1759 3634 1313 
Q 3634 634 3220 271 
Q 2806 -91 2034 -91 
Q 1263 -91 848 271 
Q 434 634 434 1313 
Q 434 1759 690 2068 
Q 947 2378 1403 2484 
z
M 1172 3481 
Q 1172 3119 1398 2916 
Q 1625 2713 2034 2713 
Q 2441 2713 2670 2916 
Q 2900 3119 2900 3481 
Q 2900 3844 2670 4047 
Q 2441 4250 2034 4250 
Q 1625 4250 1398 4047 
Q 1172 3844 1172 3481 
z
" transform="scale(0.015625)"/>
       </defs>
       <use xlink:href="#DejaVuSans-30"/>
       <use xlink:href="#DejaVuSans-2e" x="63.623047"/>
       <use xlink:href="#DejaVuSans-30" x="95.410156"/>
       <use xlink:href="#DejaVuSans-38" x="159.033203"/>
      </g>
     </g>
    </g>
    <g id="text_6">
     <!-- Normal Extension [mm] -->
     <g transform="translate(111.419531 275.120313) scale(0.1 -0.1)">
      <defs>
       <path id="DejaVuSans-4e" d="M 628 4666 
L 1478 4666 
L 3547 763 
L 3547 4666 
L 4159 4666 
L 4159 0 
L 3309 0 
L 1241 3903 
L 1241 0 
L 628 0 
L 628 4666 
z
" transform="scale(0.015625)"/>
       <path id="DejaVuSans-6f" d="M 1959 3097 
Q 1497 3097 1228 2736 
Q 959 2375 959 1747 
Q 959 1119 1226 758 
Q 1494 397 1959 397 
Q 2419 397 2687 759 
Q 2956 1122 2956 1747 
Q 2956 2369 2687 2733 
Q 2419 3097 1959 3097 
z
M 1959 3584 
Q 2709 3584 3137 3096 
Q 3566 2609 3566 1747 
Q 3566 888 3137 398 
Q 2709 -91 1959 -91 
Q 1206 -91 779 398 
Q 353 888 353 1747 
Q 353 2609 779 3096 
Q 1206 3584 1959 3584 
z
" transform="scale(0.015625)"/>
       <path id="DejaVuSans-72" d="M 2631 2963 
Q 2534 3019 2420 3045 
Q 2306 3072 2169 3072 
Q 1681 3072 1420 2755 
Q 1159 2438 1159 1844 
L 1159 0 
L 581 0 
L 581 3500 
L 1159 3500 
L 1159 2956 
Q 1341 3275 1631 3429 
Q 1922 3584 2338 3584 
Q 2397 3584 2469 3576 
Q 2541 3569 2628 3553 
L 2631 2963 
z
" transform="scale(0.015625)"/>
       <path id="DejaVuSans-6d" d="M 3328 2828 
Q 3544 3216 3844 3400 
Q 4144 3584 4550 3584 
Q 5097 3584 5394 3201 
Q 5691 2819 5691 2113 
L 5691 0 
L 5113 0 
L 5113 2094 
Q 5113 2597 4934 2840 
Q 4756 3084 4391 3084 
Q 3944 3084 3684 2787 
Q 3425 2491 3425 1978 
L 3425 0 
L 2847 0 
L 2847 2094 
Q 2847 2600 2669 2842 
Q 2491 3084 2119 3084 
Q 1678 3084 1418 2786 
Q 1159 2488 1159 1978 
L 1159 0 
L 581 0 
L 581 3500 
L 1159 3500 
L 1159 2956 
Q 1356 3278 1631 3431 
Q 1906 3584 2284 3584 
Q 2666 3584 2933 3390 
Q 3200 3197 3328 2828 
z
" transform="scale(0.015625)"/>
       <path id="DejaVuSans-61" d="M 2194 1759 
Q 1497 1759 1228 1600 
Q 959 1441 959 1056 
Q 959 750 1161 570 
Q 1363 391 1709 391 
Q 2188 391 2477 730 
Q 2766 1069 2766 1631 
L 2766 1759 
L 2194 1759 
z
M 3341 1997 
L 3341 0 
L 2766 0 
L 2766 531 
Q 2569 213 2275 61 
Q 1981 -91 1556 -91 
Q 1019 -91 701 211 
Q 384 513 384 1019 
Q 384 1609 779 1909 
Q 1175 2209 1959 2209 
L 2766 2209 
L 2766 2266 
Q 2766 2663 2505 2880 
Q 2244 3097 1772 3097 
Q 1472 3097 1187 3025 
Q 903 2953 641 2809 
L 641 3341 
Q 956 3463 1253 3523 
Q 1550 3584 1831 3584 
Q 2591 3584 2966 3190 
Q 3341 2797 3341 1997 
z
" transform="scale(0.015625)"/>
       <path id="DejaVuSans-6c" d="M 603 4863 
L 1178 4863 
L 1178 0 
L 603 0 
L 603 4863 
z
" transform="scale(0.015625)"/>
       <path id="DejaVuSans-20" transform="scale(0.015625)"/>
       <path id="DejaVuSans-45" d="M 628 4666 
L 3578 4666 
L 3578 4134 
L 1259 4134 
L 1259 2753 
L 3481 2753 
L 3481 2222 
L 1259 2222 
L 1259 531 
L 3634 531 
L 3634 0 
L 628 0 
L 628 4666 
z
" transform="scale(0.015625)"/>
       <path id="DejaVuSans-78" d="M 3513 3500 
L 2247 1797 
L 3578 0 
L 2900 0 
L 1881 1375 
L 863 0 
L 184 0 
L 1544 1831 
L 300 3500 
L 978 3500 
L 1906 2253 
L 2834 3500 
L 3513 3500 
z
" transform="scale(0.015625)"/>
       <path id="DejaVuSans-74" d="M 1172 4494 
L 1172 3500 
L 2356 3500 
L 2356 3053 
L 1172 3053 
L 1172 1153 
Q 1172 725 1289 603 
Q 1406 481 1766 481 
L 2356 481 
L 2356 0 
L 1766 0 
Q 1100 0 847 248 
Q 594 497 594 1153 
L 594 3053 
L 172 3053 
L 172 3500 
L 594 3500 
L 594 4494 
L 1172 4494 
z
" transform="scale(0.015625)"/>
       <path id="DejaVuSans-65" d="M 3597 1894 
L 3597 1613 
L 953 1613 
Q 991 1019 1311 708 
Q 1631 397 2203 397 
Q 2534 397 2845 478 
Q 3156 559 3463 722 
L 3463 178 
Q 3153 47 2828 -22 
Q 2503 -91 2169 -91 
Q 1331 -91 842 396 
Q 353 884 353 1716 
Q 353 2575 817 3079 
Q 1281 3584 2069 3584 
Q 2775 3584 3186 3129 
Q 3597 2675 3597 1894 
z
M 3022 2063 
Q 3016 2534 2758 2815 
Q 2500 3097 2075 3097 
Q 1594 3097 1305 2825 
Q 1016 2553 972 2059 
L 3022 2063 
z
" transform="scale(0.015625)"/>
       <path id="DejaVuSans-6e" d="M 3513 2113 
L 3513 0 
L 2938 0 
L 2938 2094 
Q 2938 2591 2744 2837 
Q 2550 3084 2163 3084 
Q 1697 3084 1428 2787 
Q 1159 2491 1159 1978 
L 1159 0 
L 581 0 
L 581 3500 
L 1159 3500 
L 1159 2956 
Q 1366 3272 1645 3428 
Q 1925 3584 2291 3584 
Q 2894 3584 3203 3211 
Q 3513 2838 3513 2113 
z
" transform="scale(0.015625)"/>
       <path id="DejaVuSans-73" d="M 2834 3397 
L 2834 2853 
Q 2591 2978 2328 3040 
Q 2066 3103 1784 3103 
Q 1356 3103 1142 2972 
Q 928 2841 928 2578 
Q 928 2378 1081 2264 
Q 1234 2150 1697 2047 
L 1894 2003 
Q 2506 1872 2764 1633 
Q 3022 1394 3022 966 
Q 3022 478 2636 193 
Q 2250 -91 1575 -91 
Q 1294 -91 989 -36 
Q 684 19 347 128 
L 347 722 
Q 666 556 975 473 
Q 1284 391 1588 391 
Q 1994 391 2212 530 
Q 2431 669 2431 922 
Q 2431 1156 2273 1281 
Q 2116 1406 1581 1522 
L 1381 1569 
Q 847 1681 609 1914 
Q 372 2147 372 2553 
Q 372 3047 722 3315 
Q 1072 3584 1716 3584 
Q 2034 3584 2315 3537 
Q 2597 3491 2834 3397 
z
" transform="scale(0.015625)"/>
       <path id="DejaVuSans-69" d="M 603 3500 
L 1178 3500 
L 1178 0 
L 603 0 
L 603 3500 
z
M 603 4863 
L 1178 4863 
L 1178 4134 
L 603 4134 
L 603 4863 
z
" transform="scale(0.015625)"/>
       <path id="DejaVuSans-5b" d="M 550 4863 
L 1875 4863 
L 1875 4416 
L 1125 4416 
L 1125 -397 
L 1875 -397 
L 1875 -844 
L 550 -844 
L 550 4863 
z
" transform="scale(0.015625)"/>
       <path id="DejaVuSans-5d" d="M 1947 4863 
L 1947 -844 
L 622 -844 
L 622 -397 
L 1369 -397 
L 1369 4416 
L 622 4416 
L 622 4863 
L 1947 4863 
z
" transform="scale(0.015625)"/>
      </defs>
      <use xlink:href="#DejaVuSans-4e"/>
      <use xlink:href="#DejaVuSans-6f" x="74.804688"/>
      <use xlink:href="#DejaVuSans-72" x="135.986328"/>
      <use xlink:href="#DejaVuSans-6d" x="175.349609"/>
      <use xlink:href="#DejaVuSans-61" x="272.761719"/>
      <use xlink:href="#DejaVuSans-6c" x="334.041016"/>
      <use xlink:href="#DejaVuSans-20" x="361.824219"/>
      <use xlink:href="#DejaVuSans-45" x="393.611328"/>
      <use xlink:href="#DejaVuSans-78" x="456.794922"/>
      <use xlink:href="#DejaVuSans-74" x="515.974609"/>
      <use xlink:href="#DejaVuSans-65" x="555.183594"/>
      <use xlink:href="#DejaVuSans-6e" x="616.707031"/>
      <use xlink:href="#DejaVuSans-73" x="680.085938"/>
      <use xlink:href="#DejaVuSans-69" x="732.185547"/>
      <use xlink:href="#DejaVuSans-6f" x="759.96875"/>
      <use xlink:href="#DejaVuSans-6e" x="821.150391"/>
      <use xlink:href="#DejaVuSans-20" x="884.529297"/>
      <use xlink:href="#DejaVuSans-5b" x="916.316406"/>
      <use xlink:href="#DejaVuSans-6d" x="955.330078"/>
      <use xlink:href="#DejaVuSans-6d" x="1052.742188"/>
      <use xlink:href="#DejaVuSans-5d" x="1150.154297"/>
     </g>
    </g>
   </g>
   <g id="matplotlib.axis_2">
    <g id="ytick_1">
     <g id="line2d_6">
      <defs>
       <path id="m4a5934031c" d="M 0 0 
L -3.5 0 
" style="stroke: #000000; stroke-width: 0.8"/>
      </defs>
      <g>
       <use xlink:href="#m4a5934031c" x="44.203125" y="236.801676" style="stroke: #000000; stroke-width: 0.8"/>
      </g>
     </g>
     <g id="text_7">
      <!-- 0 -->
      <g transform="translate(30.840625 240.600895) scale(0.1 -0.1)">
       <use xlink:href="#DejaVuSans-30"/>
      </g>
     </g>
    </g>
    <g id="ytick_2">
     <g id="line2d_7">
      <g>
       <use xlink:href="#m4a5934031c" x="44.203125" y="196.633381" style="stroke: #000000; stroke-width: 0.8"/>
      </g>
     </g>
     <g id="text_8">
      <!-- 2 -->
      <g transform="translate(30.840625 200.432599) scale(0.1 -0.1)">
       <use xlink:href="#DejaVuSans-32"/>
      </g>
     </g>
    </g>
    <g id="ytick_3">
     <g id="line2d_8">
      <g>
       <use xlink:href="#m4a5934031c" x="44.203125" y="156.465085" style="stroke: #000000; stroke-width: 0.8"/>
      </g>
     </g>
     <g id="text_9">
      <!-- 4 -->
      <g transform="translate(30.840625 160.264304) scale(0.1 -0.1)">
       <use xlink:href="#DejaVuSans-34"/>
      </g>
     </g>
    </g>
    <g id="ytick_4">
     <g id="line2d_9">
      <g>
       <use xlink:href="#m4a5934031c" x="44.203125" y="116.29679" style="stroke: #000000; stroke-width: 0.8"/>
      </g>
     </g>
     <g id="text_10">
      <!-- 6 -->
      <g transform="translate(30.840625 120.096009) scale(0.1 -0.1)">
       <use xlink:href="#DejaVuSans-36"/>
      </g>
     </g>
    </g>
    <g id="ytick_5">
     <g id="line2d_10">
      <g>
       <use xlink:href="#m4a5934031c" x="44.203125" y="76.128494" style="stroke: #000000; stroke-width: 0.8"/>
      </g>
     </g>
     <g id="text_11">
      <!-- 8 -->
      <g transform="translate(30.840625 79.927713) scale(0.1 -0.1)">
       <use xlink:href="#DejaVuSans-38"/>
      </g>
     </g>
    </g>
    <g id="ytick_6">
     <g id="line2d_11">
      <g>
       <use xlink:href="#m4a5934031c" x="44.203125" y="35.960199" style="stroke: #000000; stroke-width: 0.8"/>
      </g>
     </g>
     <g id="text_12">
      <!-- 10 -->
      <g transform="translate(24.478125 39.759418) scale(0.1 -0.1)">
       <defs>
        <path id="DejaVuSans-31" d="M 794 531 
L 1825 531 
L 1825 4091 
L 703 3866 
L 703 4441 
L 1819 4666 
L 2450 4666 
L 2450 531 
L 3481 531 
L 3481 0 
L 794 0 
L 794 531 
z
" transform="scale(0.015625)"/>
       </defs>
       <use xlink:href="#DejaVuSans-31"/>
       <use xlink:href="#DejaVuSans-30" x="63.623047"/>
      </g>
     </g>
    </g>
    <g id="text_13">
     <!-- Load [kN] -->
     <g transform="translate(18.398438 160.503594) rotate(-90) scale(0.1 -0.1)">
      <defs>
       <path id="DejaVuSans-4c" d="M 628 4666 
L 1259 4666 
L 1259 531 
L 3531 531 
L 3531 0 
L 628 0 
L 628 4666 
z
" transform="scale(0.015625)"/>
       <path id="DejaVuSans-64" d="M 2906 2969 
L 2906 4863 
L 3481 4863 
L 3481 0 
L 2906 0 
L 2906 525 
Q 2725 213 2448 61 
Q 2172 -91 1784 -91 
Q 1150 -91 751 415 
Q 353 922 353 1747 
Q 353 2572 751 3078 
Q 1150 3584 1784 3584 
Q 2172 3584 2448 3432 
Q 2725 3281 2906 2969 
z
M 947 1747 
Q 947 1113 1208 752 
Q 1469 391 1925 391 
Q 2381 391 2643 752 
Q 2906 1113 2906 1747 
Q 2906 2381 2643 2742 
Q 2381 3103 1925 3103 
Q 1469 3103 1208 2742 
Q 947 2381 947 1747 
z
" transform="scale(0.015625)"/>
       <path id="DejaVuSans-6b" d="M 581 4863 
L 1159 4863 
L 1159 1991 
L 2875 3500 
L 3609 3500 
L 1753 1863 
L 3688 0 
L 2938 0 
L 1159 1709 
L 1159 0 
L 581 0 
L 581 4863 
z
" transform="scale(0.015625)"/>
      </defs>
      <use xlink:href="#DejaVuSans-4c"/>
      <use xlink:href="#DejaVuSans-6f" x="53.962891"/>
      <use xlink:href="#DejaVuSans-61" x="115.144531"/>
      <use xlink:href="#DejaVuSans-64" x="176.423828"/>
      <use xlink:href="#DejaVuSans-20" x="239.900391"/>
      <use xlink:href="#DejaVuSans-5b" x="271.6875"/>
      <use xlink:href="#DejaVuSans-6b" x="310.701172"/>
      <use xlink:href="#DejaVuSans-4e" x="368.611328"/>
      <use xlink:href="#DejaVuSans-5d" x="443.416016"/>
     </g>
    </g>
   </g>
   <g id="line2d_12">
    <path d="M 44.203125 236.801676 
L 297.551562 236.801676 
" clip-path="url(#pbbd87f2623)" style="fill: none; stroke-dasharray: 2.775,1.2; stroke-dashoffset: 0; stroke: #808080; stroke-opacity: 0.75; stroke-width: 0.75"/>
   </g>
   <g id="line2d_13">
    <path d="M 57.537253 246.84375 
L 57.537253 25.918125 
" clip-path="url(#pbbd87f2623)" style="fill: none; stroke-dasharray: 2.775,1.2; stroke-dashoffset: 0; stroke: #808080; stroke-opacity: 0.75; stroke-width: 0.75"/>
   </g>
   <g id="line2d_14">
    <path d="M 57.539338 236.801676 
L 58.307213 234.772974 
L 59.101484 232.744273 
L 59.920374 230.715571 
L 60.762021 228.686869 
L 61.624513 226.658167 
L 62.505933 224.629465 
L 63.404388 222.600764 
L 64.318044 220.572062 
L 65.245145 218.54336 
L 66.184026 216.514658 
L 67.133134 214.485956 
L 68.091024 212.457255 
L 69.056375 210.428553 
L 70.027983 208.399851 
L 71.004771 206.371149 
L 71.985773 204.342447 
L 72.970131 202.313746 
L 73.957075 200.285044 
L 74.945905 198.256342 
L 75.935965 196.22764 
L 76.926627 194.198939 
L 77.917276 192.170237 
L 78.907308 190.141535 
L 79.896136 188.112833 
L 80.883205 186.084131 
L 81.868014 184.05543 
L 82.850142 182.026728 
L 83.829258 179.998026 
L 84.805143 177.969324 
L 85.777682 175.940622 
L 86.746868 173.911921 
L 87.712792 171.883219 
L 88.675644 169.854517 
L 89.635715 167.825815 
L 90.593407 165.797113 
L 91.549256 163.768412 
L 92.503951 161.73971 
L 93.458347 159.711008 
L 94.413467 157.682306 
L 95.370477 155.653605 
L 96.330647 153.624903 
L 97.295277 151.596201 
L 98.26562 149.567499 
L 99.242793 147.538797 
L 100.227686 145.510096 
L 101.220902 143.481394 
L 102.222701 141.452692 
L 103.232986 139.42399 
L 104.251311 137.395288 
L 105.276909 135.366587 
L 106.30876 133.337885 
L 107.345654 131.309183 
L 108.386282 129.280481 
L 109.42931 127.251779 
L 110.473453 125.223078 
L 111.517525 123.194376 
L 112.560466 121.165674 
L 113.601332 119.136972 
L 114.639269 117.10827 
L 115.673464 115.079569 
L 116.703101 113.050867 
L 117.727321 111.022165 
L 118.745215 108.993463 
L 119.755852 106.964762 
L 120.758336 104.93606 
L 121.751883 102.907358 
L 122.735911 100.878656 
L 123.710114 98.849954 
L 124.674513 96.821253 
L 125.629472 94.792551 
L 126.57568 92.763849 
L 127.5141 90.735147 
L 128.445898 88.706445 
L 129.372365 86.677744 
L 130.294845 84.649042 
L 131.214672 82.62034 
L 132.133127 80.591638 
L 133.051422 78.562936 
L 133.970704 76.534235 
L 134.892076 74.505533 
L 135.816641 72.476831 
L 136.74554 70.448129 
L 137.679995 68.419428 
L 138.621338 66.390726 
L 139.571016 64.362024 
L 140.530565 62.333322 
L 141.501563 60.30462 
L 142.485541 58.275919 
L 143.483867 56.247217 
L 144.497616 54.218515 
L 145.527421 52.189813 
L 146.573329 50.161111 
L 147.63469 48.13241 
L 148.710071 46.103708 
L 149.797239 44.075006 
L 150.893193 42.046304 
L 151.994256 40.017602 
L 153.096213 37.988901 
L 154.19445 35.960199 
" clip-path="url(#pbbd87f2623)" style="fill: none; stroke-dasharray: 3.7,1.6; stroke-dashoffset: 0; stroke: #008000"/>
   </g>
   <g id="line2d_15">
    <path d="M 57.548479 236.801676 
L 58.448996 234.772974 
L 59.351444 232.744273 
L 60.255941 230.715571 
L 61.162397 228.686869 
L 62.06907 226.658167 
L 62.979477 224.629465 
L 63.891503 222.600764 
L 64.804566 220.572062 
L 65.721942 218.54336 
L 66.639324 216.514658 
L 67.560997 214.485956 
L 68.483122 212.457255 
L 69.410121 210.428553 
L 70.338457 208.399851 
L 71.269839 206.371149 
L 72.203644 204.342447 
L 73.139475 202.313746 
L 74.079529 200.285044 
L 75.021571 198.256342 
L 75.966428 196.22764 
L 76.91276 194.198939 
L 77.862807 192.170237 
L 78.815265 190.141535 
L 79.77073 188.112833 
L 80.727971 186.084131 
L 81.687668 184.05543 
L 82.650539 182.026728 
L 83.615241 179.998026 
L 84.582299 177.969324 
L 85.550688 175.940622 
L 86.522459 173.911921 
L 87.49625 171.883219 
L 88.471794 169.854517 
L 89.447807 167.825815 
L 90.426726 165.797113 
L 91.406668 163.768412 
L 92.389314 161.73971 
L 93.372742 159.711008 
L 94.356615 157.682306 
L 95.342671 155.653605 
L 96.329494 153.624903 
L 97.316147 151.596201 
L 98.305416 149.567499 
L 99.29372 147.538797 
L 100.28375 145.510096 
L 101.273801 143.481394 
L 102.264815 141.452692 
L 103.254541 139.42399 
L 104.246054 137.395288 
L 105.237503 135.366587 
L 106.227693 133.337885 
L 107.21873 131.309183 
L 108.210075 129.280481 
L 109.200025 127.251779 
L 110.19074 125.223078 
L 111.181133 123.194376 
L 112.169837 121.165674 
L 113.159317 119.136972 
L 114.148079 117.10827 
L 115.135984 115.079569 
L 116.124106 113.050867 
L 117.110772 111.022165 
L 118.098388 108.993463 
L 119.085568 106.964762 
L 120.07243 104.93606 
L 121.058581 102.907358 
L 122.044565 100.878656 
L 123.030838 98.849954 
L 124.017389 96.821253 
L 125.003321 94.792551 
L 125.990204 92.763849 
L 126.977494 90.735147 
L 127.965264 88.706445 
L 128.954834 86.677744 
L 129.945136 84.649042 
L 130.936241 82.62034 
L 131.929943 80.591638 
L 132.924377 78.562936 
L 133.920558 76.534235 
L 134.92015 74.505533 
L 135.922552 72.476831 
L 136.92832 70.448129 
L 137.937562 68.419428 
L 138.948464 66.390726 
L 139.964831 64.362024 
L 140.9864 62.333322 
L 142.011384 60.30462 
L 143.04287 58.275919 
L 144.079522 56.247217 
L 145.122626 54.218515 
L 146.172838 52.189813 
L 147.229069 50.161111 
L 148.293521 48.13241 
L 149.366003 46.103708 
L 150.447093 44.075006 
L 151.535856 42.046304 
L 152.636644 40.017602 
L 153.746493 37.988901 
L 154.866232 35.960199 
" clip-path="url(#pbbd87f2623)" style="fill: none; stroke: #0000ff; stroke-width: 0.5; stroke-linecap: square"/>
   </g>
   <g id="line2d_16">
    <defs>
     <path id="me32b3e478b" d="M 0 0.5 
C 0.132602 0.5 0.25979 0.447317 0.353553 0.353553 
C 0.447317 0.25979 0.5 0.132602 0.5 0 
C 0.5 -0.132602 0.447317 -0.25979 0.353553 -0.353553 
C 0.25979 -0.447317 0.132602 -0.5 0 -0.5 
C -0.132602 -0.5 -0.25979 -0.447317 -0.353553 -0.353553 
C -0.447317 -0.25979 -0.5 -0.132602 -0.5 0 
C -0.5 0.132602 -0.447317 0.25979 -0.353553 0.353553 
C -0.25979 0.447317 -0.132602 0.5 0 0.5 
z
" style="stroke: #1f77b4"/>
    </defs>
    <g clip-path="url(#pbbd87f2623)">
     <use xlink:href="#me32b3e478b" x="57.537253" y="236.801676" style="fill: #1f77b4; stroke: #1f77b4"/>
     <use xlink:href="#me32b3e478b" x="57.129751" y="234.243924" style="fill: #1f77b4; stroke: #1f77b4"/>
     <use xlink:href="#me32b3e478b" x="59.678846" y="232.042314" style="fill: #1f77b4; stroke: #1f77b4"/>
     <use xlink:href="#me32b3e478b" x="61.458921" y="229.096042" style="fill: #1f77b4; stroke: #1f77b4"/>
     <use xlink:href="#me32b3e478b" x="67.641535" y="226.279277" style="fill: #1f77b4; stroke: #1f77b4"/>
     <use xlink:href="#me32b3e478b" x="68.872763" y="221.390409" style="fill: #1f77b4; stroke: #1f77b4"/>
     <use xlink:href="#me32b3e478b" x="70.218229" y="216.080645" style="fill: #1f77b4; stroke: #1f77b4"/>
     <use xlink:href="#me32b3e478b" x="74.468445" y="210.608999" style="fill: #1f77b4; stroke: #1f77b4"/>
     <use xlink:href="#me32b3e478b" x="77.27785" y="204.263184" style="fill: #1f77b4; stroke: #1f77b4"/>
     <use xlink:href="#me32b3e478b" x="80.187615" y="197.690733" style="fill: #1f77b4; stroke: #1f77b4"/>
     <use xlink:href="#me32b3e478b" x="84.762362" y="190.049854" style="fill: #1f77b4; stroke: #1f77b4"/>
     <use xlink:href="#me32b3e478b" x="89.604739" y="182.052833" style="fill: #1f77b4; stroke: #1f77b4"/>
     <use xlink:href="#me32b3e478b" x="93.743016" y="173.278773" style="fill: #1f77b4; stroke: #1f77b4"/>
     <use xlink:href="#me32b3e478b" x="97.90084" y="164.763726" style="fill: #1f77b4; stroke: #1f77b4"/>
     <use xlink:href="#me32b3e478b" x="102.633726" y="155.924913" style="fill: #1f77b4; stroke: #1f77b4"/>
     <use xlink:href="#me32b3e478b" x="107.12485" y="147.215606" style="fill: #1f77b4; stroke: #1f77b4"/>
     <use xlink:href="#me32b3e478b" x="111.796459" y="137.146482" style="fill: #1f77b4; stroke: #1f77b4"/>
     <use xlink:href="#me32b3e478b" x="116.517641" y="127.789642" style="fill: #1f77b4; stroke: #1f77b4"/>
     <use xlink:href="#me32b3e478b" x="121.460888" y="118.756569" style="fill: #1f77b4; stroke: #1f77b4"/>
     <use xlink:href="#me32b3e478b" x="127.768113" y="109.140715" style="fill: #1f77b4; stroke: #1f77b4"/>
     <use xlink:href="#me32b3e478b" x="130.681922" y="99.524861" style="fill: #1f77b4; stroke: #1f77b4"/>
     <use xlink:href="#me32b3e478b" x="136.35694" y="90.459409" style="fill: #1f77b4; stroke: #1f77b4"/>
     <use xlink:href="#me32b3e478b" x="143.001261" y="80.390281" style="fill: #1f77b4; stroke: #1f77b4"/>
     <use xlink:href="#me32b3e478b" x="147.146277" y="71.162944" style="fill: #1f77b4; stroke: #1f77b4"/>
     <use xlink:href="#me32b3e478b" x="150.218217" y="62.453631" style="fill: #1f77b4; stroke: #1f77b4"/>
     <use xlink:href="#me32b3e478b" x="155.512945" y="52.708266" style="fill: #1f77b4; stroke: #1f77b4"/>
     <use xlink:href="#me32b3e478b" x="160.059499" y="43.707562" style="fill: #1f77b4; stroke: #1f77b4"/>
    </g>
   </g>
   <g id="line2d_17">
    <defs>
     <path id="m6f0c03abb1" d="M 0 0.5 
C 0.132602 0.5 0.25979 0.447317 0.353553 0.353553 
C 0.447317 0.25979 0.5 0.132602 0.5 0 
C 0.5 -0.132602 0.447317 -0.25979 0.353553 -0.353553 
C 0.25979 -0.447317 0.132602 -0.5 0 -0.5 
C -0.132602 -0.5 -0.25979 -0.447317 -0.353553 -0.353553 
C -0.447317 -0.25979 -0.5 -0.132602 -0.5 0 
C -0.5 0.132602 -0.447317 0.25979 -0.353553 0.353553 
C -0.25979 0.447317 -0.132602 0.5 0 0.5 
z
" style="stroke: #ff7f0e"/>
    </defs>
    <g clip-path="url(#pbbd87f2623)">
     <use xlink:href="#m6f0c03abb1" x="62.879095" y="226.797303" style="fill: #ff7f0e; stroke: #ff7f0e"/>
     <use xlink:href="#m6f0c03abb1" x="66.888854" y="220.710501" style="fill: #ff7f0e; stroke: #ff7f0e"/>
     <use xlink:href="#m6f0c03abb1" x="70.236951" y="213.94379" style="fill: #ff7f0e; stroke: #ff7f0e"/>
     <use xlink:href="#m6f0c03abb1" x="74.340932" y="206.529547" style="fill: #ff7f0e; stroke: #ff7f0e"/>
     <use xlink:href="#m6f0c03abb1" x="77.656024" y="197.982123" style="fill: #ff7f0e; stroke: #ff7f0e"/>
     <use xlink:href="#m6f0c03abb1" x="82.41188" y="189.110933" style="fill: #ff7f0e; stroke: #ff7f0e"/>
     <use xlink:href="#m6f0c03abb1" x="87.293104" y="180.304497" style="fill: #ff7f0e; stroke: #ff7f0e"/>
     <use xlink:href="#m6f0c03abb1" x="91.13124" y="171.368554" style="fill: #ff7f0e; stroke: #ff7f0e"/>
     <use xlink:href="#m6f0c03abb1" x="94.38333" y="161.979339" style="fill: #ff7f0e; stroke: #ff7f0e"/>
     <use xlink:href="#m6f0c03abb1" x="100.690455" y="152.687253" style="fill: #ff7f0e; stroke: #ff7f0e"/>
     <use xlink:href="#m6f0c03abb1" x="104.919449" y="143.459921" style="fill: #ff7f0e; stroke: #ff7f0e"/>
     <use xlink:href="#m6f0c03abb1" x="110.363109" y="133.973575" style="fill: #ff7f0e; stroke: #ff7f0e"/>
     <use xlink:href="#m6f0c03abb1" x="114.384912" y="124.325346" style="fill: #ff7f0e; stroke: #ff7f0e"/>
     <use xlink:href="#m6f0c03abb1" x="117.609548" y="113.997207" style="fill: #ff7f0e; stroke: #ff7f0e"/>
     <use xlink:href="#m6f0c03abb1" x="124.822321" y="104.867003" style="fill: #ff7f0e; stroke: #ff7f0e"/>
     <use xlink:href="#m6f0c03abb1" x="128.954701" y="95.186395" style="fill: #ff7f0e; stroke: #ff7f0e"/>
     <use xlink:href="#m6f0c03abb1" x="133.54087" y="85.37628" style="fill: #ff7f0e; stroke: #ff7f0e"/>
     <use xlink:href="#m6f0c03abb1" x="138.004338" y="76.116566" style="fill: #ff7f0e; stroke: #ff7f0e"/>
     <use xlink:href="#m6f0c03abb1" x="141.588694" y="66.727345" style="fill: #ff7f0e; stroke: #ff7f0e"/>
     <use xlink:href="#m6f0c03abb1" x="148.075218" y="57.208616" style="fill: #ff7f0e; stroke: #ff7f0e"/>
     <use xlink:href="#m6f0c03abb1" x="150.341687" y="48.143159" style="fill: #ff7f0e; stroke: #ff7f0e"/>
    </g>
   </g>
   <g id="line2d_18">
    <defs>
     <path id="m4373da43f3" d="M 0 0.5 
C 0.132602 0.5 0.25979 0.447317 0.353553 0.353553 
C 0.447317 0.25979 0.5 0.132602 0.5 0 
C 0.5 -0.132602 0.447317 -0.25979 0.353553 -0.353553 
C 0.25979 -0.447317 0.132602 -0.5 0 -0.5 
C -0.132602 -0.5 -0.25979 -0.447317 -0.353553 -0.353553 
C -0.447317 -0.25979 -0.5 -0.132602 -0.5 0 
C -0.5 0.132602 -0.447317 0.25979 -0.353553 0.353553 
C -0.25979 0.447317 -0.132602 0.5 0 0.5 
z
" style="stroke: #2ca02c"/>
    </defs>
    <g clip-path="url(#pbbd87f2623)">
     <use xlink:href="#m4373da43f3" x="58.335859" y="235.474235" style="fill: #2ca02c; stroke: #2ca02c"/>
     <use xlink:href="#m4373da43f3" x="57.296421" y="233.725898" style="fill: #2ca02c; stroke: #2ca02c"/>
     <use xlink:href="#m4373da43f3" x="58.511921" y="232.333704" style="fill: #2ca02c; stroke: #2ca02c"/>
     <use xlink:href="#m4373da43f3" x="60.494647" y="229.905458" style="fill: #2ca02c; stroke: #2ca02c"/>
     <use xlink:href="#m4373da43f3" x="62.472468" y="226.991563" style="fill: #2ca02c; stroke: #2ca02c"/>
     <use xlink:href="#m4373da43f3" x="61.566561" y="222.523591" style="fill: #2ca02c; stroke: #2ca02c"/>
     <use xlink:href="#m4373da43f3" x="66.885582" y="216.663424" style="fill: #2ca02c; stroke: #2ca02c"/>
     <use xlink:href="#m4373da43f3" x="69.25285" y="209.152051" style="fill: #2ca02c; stroke: #2ca02c"/>
     <use xlink:href="#m4373da43f3" x="74.140367" y="201.090276" style="fill: #2ca02c; stroke: #2ca02c"/>
     <use xlink:href="#m4373da43f3" x="78.512965" y="192.08958" style="fill: #2ca02c; stroke: #2ca02c"/>
     <use xlink:href="#m4373da43f3" x="82.859781" y="183.736416" style="fill: #2ca02c; stroke: #2ca02c"/>
     <use xlink:href="#m4373da43f3" x="87.91836" y="174.73572" style="fill: #2ca02c; stroke: #2ca02c"/>
     <use xlink:href="#m4373da43f3" x="93.508488" y="165.735024" style="fill: #2ca02c; stroke: #2ca02c"/>
     <use xlink:href="#m4373da43f3" x="97.619232" y="156.572445" style="fill: #2ca02c; stroke: #2ca02c"/>
     <use xlink:href="#m4373da43f3" x="102.372568" y="147.150853" style="fill: #2ca02c; stroke: #2ca02c"/>
     <use xlink:href="#m4373da43f3" x="107.12065" y="138.376793" style="fill: #2ca02c; stroke: #2ca02c"/>
     <use xlink:href="#m4373da43f3" x="111.028181" y="128.825694" style="fill: #2ca02c; stroke: #2ca02c"/>
     <use xlink:href="#m4373da43f3" x="117.542969" y="119.371724" style="fill: #2ca02c; stroke: #2ca02c"/>
     <use xlink:href="#m4373da43f3" x="121.331847" y="109.755871" style="fill: #2ca02c; stroke: #2ca02c"/>
     <use xlink:href="#m4373da43f3" x="127.899885" y="100.852303" style="fill: #2ca02c; stroke: #2ca02c"/>
     <use xlink:href="#m4373da43f3" x="128.045225" y="91.624967" style="fill: #2ca02c; stroke: #2ca02c"/>
     <use xlink:href="#m4373da43f3" x="133.790366" y="82.365255" style="fill: #2ca02c; stroke: #2ca02c"/>
     <use xlink:href="#m4373da43f3" x="139.540286" y="73.332177" style="fill: #2ca02c; stroke: #2ca02c"/>
     <use xlink:href="#m4373da43f3" x="144.536276" y="64.687619" style="fill: #2ca02c; stroke: #2ca02c"/>
     <use xlink:href="#m4373da43f3" x="148.720703" y="56.107812" style="fill: #2ca02c; stroke: #2ca02c"/>
     <use xlink:href="#m4373da43f3" x="154.674778" y="47.528005" style="fill: #2ca02c; stroke: #2ca02c"/>
     <use xlink:href="#m4373da43f3" x="156.623966" y="39.239586" style="fill: #2ca02c; stroke: #2ca02c"/>
    </g>
   </g>
   <g id="patch_3">
    <path d="M 44.203125 246.84375 
L 44.203125 25.918125 
" style="fill: none; stroke: #000000; stroke-width: 0.8; stroke-linejoin: miter; stroke-linecap: square"/>
   </g>
   <g id="patch_4">
    <path d="M 297.551562 246.84375 
L 297.551562 25.918125 
" style="fill: none; stroke: #000000; stroke-width: 0.8; stroke-linejoin: miter; stroke-linecap: square"/>
   </g>
   <g id="patch_5">
    <path d="M 44.203125 246.84375 
L 297.551563 246.84375 
" style="fill: none; stroke: #000000; stroke-width: 0.8; stroke-linejoin: miter; stroke-linecap: square"/>
   </g>
   <g id="patch_6">
    <path d="M 44.203125 25.918125 
L 297.551563 25.918125 
" style="fill: none; stroke: #000000; stroke-width: 0.8; stroke-linejoin: miter; stroke-linecap: square"/>
   </g>
   <g id="text_14">
    <!-- Predictions ($45^\circ$) -->
    <g transform="translate(118.977344 19.918125) scale(0.12 -0.12)">
     <defs>
      <path id="DejaVuSans-50" d="M 1259 4147 
L 1259 2394 
L 2053 2394 
Q 2494 2394 2734 2622 
Q 2975 2850 2975 3272 
Q 2975 3691 2734 3919 
Q 2494 4147 2053 4147 
L 1259 4147 
z
M 628 4666 
L 2053 4666 
Q 2838 4666 3239 4311 
Q 3641 3956 3641 3272 
Q 3641 2581 3239 2228 
Q 2838 1875 2053 1875 
L 1259 1875 
L 1259 0 
L 628 0 
L 628 4666 
z
" transform="scale(0.015625)"/>
      <path id="DejaVuSans-63" d="M 3122 3366 
L 3122 2828 
Q 2878 2963 2633 3030 
Q 2388 3097 2138 3097 
Q 1578 3097 1268 2742 
Q 959 2388 959 1747 
Q 959 1106 1268 751 
Q 1578 397 2138 397 
Q 2388 397 2633 464 
Q 2878 531 3122 666 
L 3122 134 
Q 2881 22 2623 -34 
Q 2366 -91 2075 -91 
Q 1284 -91 818 406 
Q 353 903 353 1747 
Q 353 2603 823 3093 
Q 1294 3584 2113 3584 
Q 2378 3584 2631 3529 
Q 2884 3475 3122 3366 
z
" transform="scale(0.015625)"/>
      <path id="DejaVuSans-28" d="M 1984 4856 
Q 1566 4138 1362 3434 
Q 1159 2731 1159 2009 
Q 1159 1288 1364 580 
Q 1569 -128 1984 -844 
L 1484 -844 
Q 1016 -109 783 600 
Q 550 1309 550 2009 
Q 550 2706 781 3412 
Q 1013 4119 1484 4856 
L 1984 4856 
z
" transform="scale(0.015625)"/>
      <path id="DejaVuSans-35" d="M 691 4666 
L 3169 4666 
L 3169 4134 
L 1269 4134 
L 1269 2991 
Q 1406 3038 1543 3061 
Q 1681 3084 1819 3084 
Q 2600 3084 3056 2656 
Q 3513 2228 3513 1497 
Q 3513 744 3044 326 
Q 2575 -91 1722 -91 
Q 1428 -91 1123 -41 
Q 819 9 494 109 
L 494 744 
Q 775 591 1075 516 
Q 1375 441 1709 441 
Q 2250 441 2565 725 
Q 2881 1009 2881 1497 
Q 2881 1984 2565 2268 
Q 2250 2553 1709 2553 
Q 1456 2553 1204 2497 
Q 953 2441 691 2322 
L 691 4666 
z
" transform="scale(0.015625)"/>
      <path id="DejaVuSans-2218" d="M 2003 2603 
Q 1753 2603 1581 2429 
Q 1409 2256 1409 2006 
Q 1409 1759 1581 1589 
Q 1753 1419 2003 1419 
Q 2253 1419 2425 1589 
Q 2597 1759 2597 2006 
Q 2597 2253 2423 2428 
Q 2250 2603 2003 2603 
z
M 2003 3006 
Q 2203 3006 2387 2929 
Q 2572 2853 2706 2709 
Q 2850 2569 2922 2390 
Q 2994 2212 2994 2006 
Q 2994 1594 2705 1308 
Q 2416 1022 1997 1022 
Q 1575 1022 1294 1303 
Q 1013 1584 1013 2006 
Q 1013 2425 1300 2715 
Q 1588 3006 2003 3006 
z
" transform="scale(0.015625)"/>
      <path id="DejaVuSans-29" d="M 513 4856 
L 1013 4856 
Q 1481 4119 1714 3412 
Q 1947 2706 1947 2009 
Q 1947 1309 1714 600 
Q 1481 -109 1013 -844 
L 513 -844 
Q 928 -128 1133 580 
Q 1338 1288 1338 2009 
Q 1338 2731 1133 3434 
Q 928 4138 513 4856 
z
" transform="scale(0.015625)"/>
     </defs>
     <use xlink:href="#DejaVuSans-50" transform="translate(0 0.015625)"/>
     <use xlink:href="#DejaVuSans-72" transform="translate(60.302734 0.015625)"/>
     <use xlink:href="#DejaVuSans-65" transform="translate(101.416016 0.015625)"/>
     <use xlink:href="#DejaVuSans-64" transform="translate(162.939453 0.015625)"/>
     <use xlink:href="#DejaVuSans-69" transform="translate(226.416016 0.015625)"/>
     <use xlink:href="#DejaVuSans-63" transform="translate(254.199219 0.015625)"/>
     <use xlink:href="#DejaVuSans-74" transform="translate(309.179688 0.015625)"/>
     <use xlink:href="#DejaVuSans-69" transform="translate(348.388672 0.015625)"/>
     <use xlink:href="#DejaVuSans-6f" transform="translate(376.171875 0.015625)"/>
     <use xlink:href="#DejaVuSans-6e" transform="translate(437.353516 0.015625)"/>
     <use xlink:href="#DejaVuSans-73" transform="translate(500.732422 0.015625)"/>
     <use xlink:href="#DejaVuSans-20" transform="translate(552.832031 0.015625)"/>
     <use xlink:href="#DejaVuSans-28" transform="translate(584.619141 0.015625)"/>
     <use xlink:href="#DejaVuSans-34" transform="translate(623.632812 0.015625)"/>
     <use xlink:href="#DejaVuSans-35" transform="translate(687.255859 0.015625)"/>
     <use xlink:href="#DejaVuSans-2218" transform="translate(765.473633 38.296875) scale(0.7)"/>
     <use xlink:href="#DejaVuSans-29" transform="translate(825.664062 0.015625)"/>
    </g>
   </g>
   <g id="legend_1">
    <g id="patch_7">
     <path d="M 147.65625 241.84375 
L 290.551562 241.84375 
Q 292.551562 241.84375 292.551562 239.84375 
L 292.551562 138.096875 
Q 292.551562 136.096875 290.551562 136.096875 
L 147.65625 136.096875 
Q 145.65625 136.096875 145.65625 138.096875 
L 145.65625 239.84375 
Q 145.65625 241.84375 147.65625 241.84375 
z
" style="fill: #ffffff; opacity: 0.8; stroke: #cccccc; stroke-linejoin: miter"/>
    </g>
    <g id="patch_8">
     <path d="M 149.65625 147.695312 
L 169.65625 147.695312 
L 169.65625 140.695312 
L 149.65625 140.695312 
z
" style="fill: #90ee90; fill-opacity: 0.75; stroke: #90ee90; stroke-opacity: 0.75; stroke-linejoin: miter"/>
    </g>
    <g id="text_15">
     <!-- Prior 95% interval -->
     <g transform="translate(177.65625 147.695312) scale(0.1 -0.1)">
      <defs>
       <path id="DejaVuSans-39" d="M 703 97 
L 703 672 
Q 941 559 1184 500 
Q 1428 441 1663 441 
Q 2288 441 2617 861 
Q 2947 1281 2994 2138 
Q 2813 1869 2534 1725 
Q 2256 1581 1919 1581 
Q 1219 1581 811 2004 
Q 403 2428 403 3163 
Q 403 3881 828 4315 
Q 1253 4750 1959 4750 
Q 2769 4750 3195 4129 
Q 3622 3509 3622 2328 
Q 3622 1225 3098 567 
Q 2575 -91 1691 -91 
Q 1453 -91 1209 -44 
Q 966 3 703 97 
z
M 1959 2075 
Q 2384 2075 2632 2365 
Q 2881 2656 2881 3163 
Q 2881 3666 2632 3958 
Q 2384 4250 1959 4250 
Q 1534 4250 1286 3958 
Q 1038 3666 1038 3163 
Q 1038 2656 1286 2365 
Q 1534 2075 1959 2075 
z
" transform="scale(0.015625)"/>
       <path id="DejaVuSans-25" d="M 4653 2053 
Q 4381 2053 4226 1822 
Q 4072 1591 4072 1178 
Q 4072 772 4226 539 
Q 4381 306 4653 306 
Q 4919 306 5073 539 
Q 5228 772 5228 1178 
Q 5228 1588 5073 1820 
Q 4919 2053 4653 2053 
z
M 4653 2450 
Q 5147 2450 5437 2106 
Q 5728 1763 5728 1178 
Q 5728 594 5436 251 
Q 5144 -91 4653 -91 
Q 4153 -91 3862 251 
Q 3572 594 3572 1178 
Q 3572 1766 3864 2108 
Q 4156 2450 4653 2450 
z
M 1428 4353 
Q 1159 4353 1004 4120 
Q 850 3888 850 3481 
Q 850 3069 1003 2837 
Q 1156 2606 1428 2606 
Q 1700 2606 1854 2837 
Q 2009 3069 2009 3481 
Q 2009 3884 1853 4118 
Q 1697 4353 1428 4353 
z
M 4250 4750 
L 4750 4750 
L 1831 -91 
L 1331 -91 
L 4250 4750 
z
M 1428 4750 
Q 1922 4750 2215 4408 
Q 2509 4066 2509 3481 
Q 2509 2891 2217 2550 
Q 1925 2209 1428 2209 
Q 931 2209 642 2551 
Q 353 2894 353 3481 
Q 353 4063 643 4406 
Q 934 4750 1428 4750 
z
" transform="scale(0.015625)"/>
       <path id="DejaVuSans-76" d="M 191 3500 
L 800 3500 
L 1894 563 
L 2988 3500 
L 3597 3500 
L 2284 0 
L 1503 0 
L 191 3500 
z
" transform="scale(0.015625)"/>
      </defs>
      <use xlink:href="#DejaVuSans-50"/>
      <use xlink:href="#DejaVuSans-72" x="58.552734"/>
      <use xlink:href="#DejaVuSans-69" x="99.666016"/>
      <use xlink:href="#DejaVuSans-6f" x="127.449219"/>
      <use xlink:href="#DejaVuSans-72" x="188.630859"/>
      <use xlink:href="#DejaVuSans-20" x="229.744141"/>
      <use xlink:href="#DejaVuSans-39" x="261.53125"/>
      <use xlink:href="#DejaVuSans-35" x="325.154297"/>
      <use xlink:href="#DejaVuSans-25" x="388.777344"/>
      <use xlink:href="#DejaVuSans-20" x="483.796875"/>
      <use xlink:href="#DejaVuSans-69" x="515.583984"/>
      <use xlink:href="#DejaVuSans-6e" x="543.367188"/>
      <use xlink:href="#DejaVuSans-74" x="606.746094"/>
      <use xlink:href="#DejaVuSans-65" x="645.955078"/>
      <use xlink:href="#DejaVuSans-72" x="707.478516"/>
      <use xlink:href="#DejaVuSans-76" x="748.591797"/>
      <use xlink:href="#DejaVuSans-61" x="807.771484"/>
      <use xlink:href="#DejaVuSans-6c" x="869.050781"/>
     </g>
    </g>
    <g id="line2d_19">
     <path d="M 149.65625 158.873438 
L 159.65625 158.873438 
L 169.65625 158.873438 
" style="fill: none; stroke-dasharray: 3.7,1.6; stroke-dashoffset: 0; stroke: #008000"/>
    </g>
    <g id="text_16">
     <!-- Prior mean -->
     <g transform="translate(177.65625 162.373438) scale(0.1 -0.1)">
      <use xlink:href="#DejaVuSans-50"/>
      <use xlink:href="#DejaVuSans-72" x="58.552734"/>
      <use xlink:href="#DejaVuSans-69" x="99.666016"/>
      <use xlink:href="#DejaVuSans-6f" x="127.449219"/>
      <use xlink:href="#DejaVuSans-72" x="188.630859"/>
      <use xlink:href="#DejaVuSans-20" x="229.744141"/>
      <use xlink:href="#DejaVuSans-6d" x="261.53125"/>
      <use xlink:href="#DejaVuSans-65" x="358.943359"/>
      <use xlink:href="#DejaVuSans-61" x="420.466797"/>
      <use xlink:href="#DejaVuSans-6e" x="481.746094"/>
     </g>
    </g>
    <g id="patch_9">
     <path d="M 149.65625 177.051562 
L 169.65625 177.051562 
L 169.65625 170.051562 
L 149.65625 170.051562 
z
" style="fill: #6495ed; fill-opacity: 0.75; stroke: #6495ed; stroke-opacity: 0.75; stroke-linejoin: miter"/>
    </g>
    <g id="text_17">
     <!-- Posterior 95% interval -->
     <g transform="translate(177.65625 177.051562) scale(0.1 -0.1)">
      <use xlink:href="#DejaVuSans-50"/>
      <use xlink:href="#DejaVuSans-6f" x="56.677734"/>
      <use xlink:href="#DejaVuSans-73" x="117.859375"/>
      <use xlink:href="#DejaVuSans-74" x="169.958984"/>
      <use xlink:href="#DejaVuSans-65" x="209.167969"/>
      <use xlink:href="#DejaVuSans-72" x="270.691406"/>
      <use xlink:href="#DejaVuSans-69" x="311.804688"/>
      <use xlink:href="#DejaVuSans-6f" x="339.587891"/>
      <use xlink:href="#DejaVuSans-72" x="400.769531"/>
      <use xlink:href="#DejaVuSans-20" x="441.882812"/>
      <use xlink:href="#DejaVuSans-39" x="473.669922"/>
      <use xlink:href="#DejaVuSans-35" x="537.292969"/>
      <use xlink:href="#DejaVuSans-25" x="600.916016"/>
      <use xlink:href="#DejaVuSans-20" x="695.935547"/>
      <use xlink:href="#DejaVuSans-69" x="727.722656"/>
      <use xlink:href="#DejaVuSans-6e" x="755.505859"/>
      <use xlink:href="#DejaVuSans-74" x="818.884766"/>
      <use xlink:href="#DejaVuSans-65" x="858.09375"/>
      <use xlink:href="#DejaVuSans-72" x="919.617188"/>
      <use xlink:href="#DejaVuSans-76" x="960.730469"/>
      <use xlink:href="#DejaVuSans-61" x="1019.910156"/>
      <use xlink:href="#DejaVuSans-6c" x="1081.189453"/>
     </g>
    </g>
    <g id="line2d_20">
     <path d="M 149.65625 188.229688 
L 159.65625 188.229688 
L 169.65625 188.229688 
" style="fill: none; stroke: #0000ff; stroke-width: 0.5; stroke-linecap: square"/>
    </g>
    <g id="text_18">
     <!-- Posterior mean -->
     <g transform="translate(177.65625 191.729688) scale(0.1 -0.1)">
      <use xlink:href="#DejaVuSans-50"/>
      <use xlink:href="#DejaVuSans-6f" x="56.677734"/>
      <use xlink:href="#DejaVuSans-73" x="117.859375"/>
      <use xlink:href="#DejaVuSans-74" x="169.958984"/>
      <use xlink:href="#DejaVuSans-65" x="209.167969"/>
      <use xlink:href="#DejaVuSans-72" x="270.691406"/>
      <use xlink:href="#DejaVuSans-69" x="311.804688"/>
      <use xlink:href="#DejaVuSans-6f" x="339.587891"/>
      <use xlink:href="#DejaVuSans-72" x="400.769531"/>
      <use xlink:href="#DejaVuSans-20" x="441.882812"/>
      <use xlink:href="#DejaVuSans-6d" x="473.669922"/>
      <use xlink:href="#DejaVuSans-65" x="571.082031"/>
      <use xlink:href="#DejaVuSans-61" x="632.605469"/>
      <use xlink:href="#DejaVuSans-6e" x="693.884766"/>
     </g>
    </g>
    <g id="line2d_21">
     <g>
      <use xlink:href="#me32b3e478b" x="159.65625" y="202.907813" style="fill: #1f77b4; stroke: #1f77b4"/>
     </g>
    </g>
    <g id="text_19">
     <!-- Experimental data 1 -->
     <g transform="translate(177.65625 206.407813) scale(0.1 -0.1)">
      <defs>
       <path id="DejaVuSans-70" d="M 1159 525 
L 1159 -1331 
L 581 -1331 
L 581 3500 
L 1159 3500 
L 1159 2969 
Q 1341 3281 1617 3432 
Q 1894 3584 2278 3584 
Q 2916 3584 3314 3078 
Q 3713 2572 3713 1747 
Q 3713 922 3314 415 
Q 2916 -91 2278 -91 
Q 1894 -91 1617 61 
Q 1341 213 1159 525 
z
M 3116 1747 
Q 3116 2381 2855 2742 
Q 2594 3103 2138 3103 
Q 1681 3103 1420 2742 
Q 1159 2381 1159 1747 
Q 1159 1113 1420 752 
Q 1681 391 2138 391 
Q 2594 391 2855 752 
Q 3116 1113 3116 1747 
z
" transform="scale(0.015625)"/>
      </defs>
      <use xlink:href="#DejaVuSans-45"/>
      <use xlink:href="#DejaVuSans-78" x="63.183594"/>
      <use xlink:href="#DejaVuSans-70" x="122.363281"/>
      <use xlink:href="#DejaVuSans-65" x="185.839844"/>
      <use xlink:href="#DejaVuSans-72" x="247.363281"/>
      <use xlink:href="#DejaVuSans-69" x="288.476562"/>
      <use xlink:href="#DejaVuSans-6d" x="316.259766"/>
      <use xlink:href="#DejaVuSans-65" x="413.671875"/>
      <use xlink:href="#DejaVuSans-6e" x="475.195312"/>
      <use xlink:href="#DejaVuSans-74" x="538.574219"/>
      <use xlink:href="#DejaVuSans-61" x="577.783203"/>
      <use xlink:href="#DejaVuSans-6c" x="639.0625"/>
      <use xlink:href="#DejaVuSans-20" x="666.845703"/>
      <use xlink:href="#DejaVuSans-64" x="698.632812"/>
      <use xlink:href="#DejaVuSans-61" x="762.109375"/>
      <use xlink:href="#DejaVuSans-74" x="823.388672"/>
      <use xlink:href="#DejaVuSans-61" x="862.597656"/>
      <use xlink:href="#DejaVuSans-20" x="923.876953"/>
      <use xlink:href="#DejaVuSans-31" x="955.664062"/>
     </g>
    </g>
    <g id="line2d_22">
     <g>
      <use xlink:href="#m6f0c03abb1" x="159.65625" y="217.585938" style="fill: #ff7f0e; stroke: #ff7f0e"/>
     </g>
    </g>
    <g id="text_20">
     <!-- Experimental data 2 -->
     <g transform="translate(177.65625 221.085938) scale(0.1 -0.1)">
      <use xlink:href="#DejaVuSans-45"/>
      <use xlink:href="#DejaVuSans-78" x="63.183594"/>
      <use xlink:href="#DejaVuSans-70" x="122.363281"/>
      <use xlink:href="#DejaVuSans-65" x="185.839844"/>
      <use xlink:href="#DejaVuSans-72" x="247.363281"/>
      <use xlink:href="#DejaVuSans-69" x="288.476562"/>
      <use xlink:href="#DejaVuSans-6d" x="316.259766"/>
      <use xlink:href="#DejaVuSans-65" x="413.671875"/>
      <use xlink:href="#DejaVuSans-6e" x="475.195312"/>
      <use xlink:href="#DejaVuSans-74" x="538.574219"/>
      <use xlink:href="#DejaVuSans-61" x="577.783203"/>
      <use xlink:href="#DejaVuSans-6c" x="639.0625"/>
      <use xlink:href="#DejaVuSans-20" x="666.845703"/>
      <use xlink:href="#DejaVuSans-64" x="698.632812"/>
      <use xlink:href="#DejaVuSans-61" x="762.109375"/>
      <use xlink:href="#DejaVuSans-74" x="823.388672"/>
      <use xlink:href="#DejaVuSans-61" x="862.597656"/>
      <use xlink:href="#DejaVuSans-20" x="923.876953"/>
      <use xlink:href="#DejaVuSans-32" x="955.664062"/>
     </g>
    </g>
    <g id="line2d_23">
     <g>
      <use xlink:href="#m4373da43f3" x="159.65625" y="232.264062" style="fill: #2ca02c; stroke: #2ca02c"/>
     </g>
    </g>
    <g id="text_21">
     <!-- Experimental data 3 -->
     <g transform="translate(177.65625 235.764062) scale(0.1 -0.1)">
      <defs>
       <path id="DejaVuSans-33" d="M 2597 2516 
Q 3050 2419 3304 2112 
Q 3559 1806 3559 1356 
Q 3559 666 3084 287 
Q 2609 -91 1734 -91 
Q 1441 -91 1130 -33 
Q 819 25 488 141 
L 488 750 
Q 750 597 1062 519 
Q 1375 441 1716 441 
Q 2309 441 2620 675 
Q 2931 909 2931 1356 
Q 2931 1769 2642 2001 
Q 2353 2234 1838 2234 
L 1294 2234 
L 1294 2753 
L 1863 2753 
Q 2328 2753 2575 2939 
Q 2822 3125 2822 3475 
Q 2822 3834 2567 4026 
Q 2313 4219 1838 4219 
Q 1578 4219 1281 4162 
Q 984 4106 628 3988 
L 628 4550 
Q 988 4650 1302 4700 
Q 1616 4750 1894 4750 
Q 2613 4750 3031 4423 
Q 3450 4097 3450 3541 
Q 3450 3153 3228 2886 
Q 3006 2619 2597 2516 
z
" transform="scale(0.015625)"/>
      </defs>
      <use xlink:href="#DejaVuSans-45"/>
      <use xlink:href="#DejaVuSans-78" x="63.183594"/>
      <use xlink:href="#DejaVuSans-70" x="122.363281"/>
      <use xlink:href="#DejaVuSans-65" x="185.839844"/>
      <use xlink:href="#DejaVuSans-72" x="247.363281"/>
      <use xlink:href="#DejaVuSans-69" x="288.476562"/>
      <use xlink:href="#DejaVuSans-6d" x="316.259766"/>
      <use xlink:href="#DejaVuSans-65" x="413.671875"/>
      <use xlink:href="#DejaVuSans-6e" x="475.195312"/>
      <use xlink:href="#DejaVuSans-74" x="538.574219"/>
      <use xlink:href="#DejaVuSans-61" x="577.783203"/>
      <use xlink:href="#DejaVuSans-6c" x="639.0625"/>
      <use xlink:href="#DejaVuSans-20" x="666.845703"/>
      <use xlink:href="#DejaVuSans-64" x="698.632812"/>
      <use xlink:href="#DejaVuSans-61" x="762.109375"/>
      <use xlink:href="#DejaVuSans-74" x="823.388672"/>
      <use xlink:href="#DejaVuSans-61" x="862.597656"/>
      <use xlink:href="#DejaVuSans-20" x="923.876953"/>
      <use xlink:href="#DejaVuSans-33" x="955.664062"/>
     </g>
    </g>
   </g>
  </g>
  <g id="axes_2">
   <g id="patch_10">
    <path d="M 311.851562 246.84375 
L 565.2 246.84375 
L 565.2 25.918125 
L 311.851562 25.918125 
z
" style="fill: #ffffff"/>
   </g>
   <g id="PolyCollection_3">
    <defs>
     <path id="mebd077ae3e" d="M 325.258985 -51.198324 
L 325.110478 -51.198324 
L 324.497287 -53.227026 
L 324.000409 -55.255727 
L 323.619843 -57.284429 
L 323.35559 -59.313131 
L 323.20765 -61.341833 
L 323.176023 -63.370535 
L 323.260709 -65.399236 
L 323.461707 -67.427938 
L 323.779018 -69.45664 
L 324.212642 -71.485342 
L 324.762579 -73.514044 
L 325.428829 -75.542745 
L 326.211391 -77.571447 
L 327.110266 -79.600149 
L 328.125454 -81.628851 
L 329.256955 -83.657553 
L 330.504769 -85.686254 
L 331.868895 -87.714956 
L 333.349335 -89.743658 
L 334.946087 -91.77236 
L 336.659151 -93.801061 
L 338.488529 -95.829763 
L 340.43422 -97.858465 
L 342.496223 -99.887167 
L 344.674539 -101.915869 
L 346.969168 -103.94457 
L 349.380109 -105.973272 
L 351.907364 -108.001974 
L 354.550931 -110.030676 
L 357.310811 -112.059378 
L 360.187004 -114.088079 
L 363.003211 -116.116781 
L 365.583134 -118.145483 
L 367.926774 -120.174185 
L 370.034129 -122.202887 
L 371.9052 -124.231588 
L 373.539987 -126.26029 
L 374.93849 -128.288992 
L 376.10071 -130.317694 
L 377.194655 -132.346395 
L 378.388337 -134.375097 
L 379.681756 -136.403799 
L 381.074911 -138.432501 
L 382.567803 -140.461203 
L 384.160431 -142.489904 
L 385.852796 -144.518606 
L 387.644898 -146.547308 
L 389.513252 -148.57601 
L 391.434375 -150.604712 
L 393.408267 -152.633413 
L 395.434928 -154.662115 
L 397.514357 -156.690817 
L 399.646555 -158.719519 
L 401.831521 -160.748221 
L 404.069256 -162.776922 
L 406.323126 -164.805624 
L 408.556495 -166.834326 
L 410.769363 -168.863028 
L 412.961731 -170.89173 
L 415.133599 -172.920431 
L 417.284966 -174.949133 
L 419.415832 -176.977835 
L 421.526198 -179.006537 
L 423.598106 -181.035238 
L 425.613598 -183.06394 
L 427.572674 -185.092642 
L 429.475333 -187.121344 
L 431.321577 -189.150046 
L 433.111404 -191.178747 
L 434.844816 -193.207449 
L 436.521811 -195.236151 
L 438.200125 -197.264853 
L 439.937492 -199.293555 
L 441.733912 -201.322256 
L 443.589385 -203.350958 
L 445.503911 -205.37966 
L 447.47749 -207.408362 
L 449.510123 -209.437064 
L 451.601809 -211.465765 
L 453.691107 -213.494467 
L 455.716576 -215.523169 
L 457.678218 -217.551871 
L 459.576031 -219.580572 
L 461.410016 -221.609274 
L 463.180172 -223.637976 
L 464.8865 -225.666678 
L 466.529 -227.69538 
L 468.181839 -229.724081 
L 469.919184 -231.752783 
L 471.741035 -233.781485 
L 473.647393 -235.810187 
L 475.638258 -237.838889 
L 477.713629 -239.86759 
L 479.873507 -241.896292 
L 482.11789 -243.924994 
L 484.446781 -245.953696 
L 486.860178 -247.982398 
L 489.358081 -250.011099 
L 491.940491 -252.039801 
L 542.683499 -252.039801 
L 542.683499 -252.039801 
L 540.72064 -250.011099 
L 538.75875 -247.982398 
L 536.797828 -245.953696 
L 534.837874 -243.924994 
L 532.878887 -241.896292 
L 530.920869 -239.86759 
L 528.963819 -237.838889 
L 527.007738 -235.810187 
L 525.052624 -233.781485 
L 523.098478 -231.752783 
L 521.145301 -229.724081 
L 519.193091 -227.69538 
L 517.24185 -225.666678 
L 515.291576 -223.637976 
L 513.342271 -221.609274 
L 511.419238 -219.580572 
L 509.547781 -217.551871 
L 507.7279 -215.523169 
L 505.959596 -213.494467 
L 504.242867 -211.465765 
L 502.577715 -209.437064 
L 500.964139 -207.408362 
L 499.402139 -205.37966 
L 497.841139 -203.350958 
L 496.230563 -201.322256 
L 494.570411 -199.293555 
L 492.860682 -197.264853 
L 491.101378 -195.236151 
L 489.292497 -193.207449 
L 487.43404 -191.178747 
L 485.526007 -189.150046 
L 483.582886 -187.121344 
L 481.619165 -185.092642 
L 479.634845 -183.06394 
L 477.629924 -181.035238 
L 475.604404 -179.006537 
L 473.558284 -176.977835 
L 471.491564 -174.949133 
L 469.404245 -172.920431 
L 467.289772 -170.89173 
L 465.141593 -168.863028 
L 462.959708 -166.834326 
L 460.744116 -164.805624 
L 458.494818 -162.776922 
L 456.211814 -160.748221 
L 453.895104 -158.719519 
L 451.544687 -156.690817 
L 449.216695 -154.662115 
L 446.967258 -152.633413 
L 444.796377 -150.604712 
L 442.704051 -148.57601 
L 440.69028 -146.547308 
L 438.755064 -144.518606 
L 436.898404 -142.489904 
L 435.120299 -140.461203 
L 433.350981 -138.432501 
L 431.520682 -136.403799 
L 429.629402 -134.375097 
L 427.677141 -132.346395 
L 425.6639 -130.317694 
L 423.589677 -128.288992 
L 421.454474 -126.26029 
L 419.258289 -124.231588 
L 417.118006 -122.202887 
L 415.150507 -120.174185 
L 413.355791 -118.145483 
L 411.73386 -116.116781 
L 410.284712 -114.088079 
L 409.008348 -112.059378 
L 407.904768 -110.030676 
L 406.973972 -108.001974 
L 406.132345 -105.973272 
L 405.29627 -103.94457 
L 404.465749 -101.915869 
L 403.640781 -99.887167 
L 402.821366 -97.858465 
L 402.007505 -95.829763 
L 401.199197 -93.801061 
L 400.396442 -91.77236 
L 399.470008 -89.743658 
L 398.290663 -87.714956 
L 396.858406 -85.686254 
L 395.173238 -83.657553 
L 393.235159 -81.628851 
L 391.044168 -79.600149 
L 388.600266 -77.571447 
L 385.903453 -75.542745 
L 382.894314 -73.514044 
L 379.513436 -71.485342 
L 375.760818 -69.45664 
L 371.636461 -67.427938 
L 367.140365 -65.399236 
L 362.272529 -63.370535 
L 357.032954 -61.341833 
L 351.421639 -59.313131 
L 345.438584 -57.284429 
L 339.083791 -55.255727 
L 332.357258 -53.227026 
L 325.258985 -51.198324 
z
" style="stroke: #90ee90; stroke-opacity: 0.75"/>
    </defs>
    <g clip-path="url(#pe9246ebf33)">
     <use xlink:href="#mebd077ae3e" x="0" y="288" style="fill: #90ee90; fill-opacity: 0.75; stroke: #90ee90; stroke-opacity: 0.75"/>
    </g>
   </g>
   <g id="PolyCollection_4">
    <defs>
     <path id="m286fec11cf" d="M 325.251391 -51.198324 
L 325.101217 -51.198324 
L 327.129366 -53.227026 
L 329.109935 -55.255727 
L 331.083789 -57.284429 
L 333.062508 -59.313131 
L 335.040197 -61.341833 
L 337.011499 -63.370535 
L 338.999898 -65.399236 
L 340.963565 -67.427938 
L 342.958807 -69.45664 
L 344.935206 -71.485342 
L 346.913469 -73.514044 
L 348.905557 -75.542745 
L 350.865779 -77.571447 
L 352.837099 -79.600149 
L 354.818143 -81.628851 
L 356.804965 -83.657553 
L 358.79187 -85.686254 
L 360.762684 -87.714956 
L 362.734149 -89.743658 
L 364.709497 -91.77236 
L 366.699924 -93.801061 
L 368.689681 -95.829763 
L 370.681041 -97.858465 
L 372.670916 -99.887167 
L 374.660039 -101.915869 
L 376.658506 -103.94457 
L 378.638102 -105.973272 
L 380.602922 -108.001974 
L 382.596133 -110.030676 
L 384.602736 -112.059378 
L 386.587547 -114.088079 
L 388.566323 -116.116781 
L 390.536105 -118.145483 
L 392.524356 -120.174185 
L 394.536679 -122.202887 
L 396.506023 -124.231588 
L 398.483076 -126.26029 
L 400.479133 -128.288992 
L 402.46856 -130.317694 
L 404.45844 -132.346395 
L 406.468219 -134.375097 
L 408.464831 -136.403799 
L 410.465172 -138.432501 
L 412.454266 -140.461203 
L 414.462903 -142.489904 
L 416.486094 -144.518606 
L 418.492695 -146.547308 
L 420.512695 -148.57601 
L 422.538249 -150.604712 
L 424.555178 -152.633413 
L 426.583431 -154.662115 
L 428.618269 -156.690817 
L 430.637472 -158.719519 
L 432.675775 -160.748221 
L 434.70857 -162.776922 
L 436.72784 -164.805624 
L 438.755474 -166.834326 
L 440.802492 -168.863028 
L 442.845387 -170.89173 
L 444.864027 -172.920431 
L 446.919233 -174.949133 
L 448.967655 -176.977835 
L 451.00683 -179.006537 
L 453.078026 -181.035238 
L 455.142067 -183.06394 
L 457.196006 -185.092642 
L 459.243119 -187.121344 
L 461.313774 -189.150046 
L 463.409544 -191.178747 
L 465.450142 -193.207449 
L 467.526567 -195.236151 
L 469.58834 -197.264853 
L 471.645574 -199.293555 
L 473.735621 -201.322256 
L 475.794749 -203.350958 
L 477.860467 -205.37966 
L 479.909299 -207.408362 
L 481.959642 -209.437064 
L 484.028297 -211.465765 
L 486.100124 -213.494467 
L 488.187215 -215.523169 
L 490.249138 -217.551871 
L 492.324894 -219.580572 
L 494.380305 -221.609274 
L 496.451043 -223.637976 
L 498.504025 -225.666678 
L 500.550344 -227.69538 
L 502.600323 -229.724081 
L 504.64634 -231.752783 
L 506.718507 -233.781485 
L 508.724942 -235.810187 
L 510.779756 -237.838889 
L 512.831717 -239.86759 
L 514.882288 -241.896292 
L 516.88891 -243.924994 
L 518.868271 -245.953696 
L 520.888291 -247.982398 
L 522.840241 -250.011099 
L 524.810618 -252.039801 
L 532.074016 -252.039801 
L 532.074016 -252.039801 
L 529.999272 -250.011099 
L 527.940742 -247.982398 
L 525.868172 -245.953696 
L 523.767907 -243.924994 
L 521.659163 -241.896292 
L 519.584076 -239.86759 
L 517.463628 -237.838889 
L 515.347643 -235.810187 
L 513.233527 -233.781485 
L 511.121593 -231.752783 
L 509.040781 -229.724081 
L 506.945947 -227.69538 
L 504.840245 -225.666678 
L 502.74492 -223.637976 
L 500.664025 -221.609274 
L 498.542025 -219.580572 
L 496.452124 -217.551871 
L 494.39868 -215.523169 
L 492.289904 -213.494467 
L 490.190281 -211.465765 
L 488.097616 -209.437064 
L 485.990243 -207.408362 
L 483.891275 -205.37966 
L 481.798276 -203.350958 
L 479.725402 -201.322256 
L 477.656524 -199.293555 
L 475.587932 -197.264853 
L 473.483415 -195.236151 
L 471.418928 -193.207449 
L 469.368934 -191.178747 
L 467.326638 -189.150046 
L 465.275566 -187.121344 
L 463.211211 -185.092642 
L 461.142992 -183.06394 
L 459.104037 -181.035238 
L 457.053573 -179.006537 
L 454.962686 -176.977835 
L 452.906866 -174.949133 
L 450.846833 -172.920431 
L 448.768831 -170.89173 
L 446.747669 -168.863028 
L 444.683083 -166.834326 
L 442.63793 -164.805624 
L 440.574807 -162.776922 
L 438.497864 -160.748221 
L 436.415891 -158.719519 
L 434.367461 -156.690817 
L 432.276999 -154.662115 
L 430.281168 -152.633413 
L 428.198234 -150.604712 
L 426.183698 -148.57601 
L 424.157735 -146.547308 
L 422.129162 -144.518606 
L 420.063344 -142.489904 
L 418.032301 -140.461203 
L 415.993721 -138.432501 
L 413.94555 -136.403799 
L 411.88406 -134.375097 
L 409.823696 -132.346395 
L 407.78631 -130.317694 
L 405.747547 -128.288992 
L 403.718115 -126.26029 
L 401.647134 -124.231588 
L 399.596203 -122.202887 
L 397.550203 -120.174185 
L 395.53028 -118.145483 
L 393.486395 -116.116781 
L 391.409959 -114.088079 
L 389.380907 -112.059378 
L 387.29161 -110.030676 
L 385.237903 -108.001974 
L 383.167682 -105.973272 
L 381.120314 -103.94457 
L 379.039887 -101.915869 
L 376.955512 -99.887167 
L 374.880523 -97.858465 
L 372.786288 -95.829763 
L 370.695602 -93.801061 
L 368.587885 -91.77236 
L 366.491556 -89.743658 
L 364.38625 -87.714956 
L 362.263297 -85.686254 
L 360.151094 -83.657553 
L 358.034652 -81.628851 
L 355.889215 -79.600149 
L 353.740581 -77.571447 
L 351.604229 -75.542745 
L 349.46254 -73.514044 
L 347.291338 -71.485342 
L 345.122726 -69.45664 
L 342.942259 -67.427938 
L 340.771645 -65.399236 
L 338.562137 -63.370535 
L 336.362553 -61.341833 
L 334.155469 -59.313131 
L 331.930434 -57.284429 
L 329.698966 -55.255727 
L 327.460898 -53.227026 
L 325.251391 -51.198324 
z
" style="stroke: #6495ed; stroke-opacity: 0.75"/>
    </defs>
    <g clip-path="url(#pe9246ebf33)">
     <use xlink:href="#m286fec11cf" x="0" y="288" style="fill: #6495ed; fill-opacity: 0.75; stroke: #6495ed; stroke-opacity: 0.75"/>
    </g>
   </g>
   <g id="matplotlib.axis_3">
    <g id="xtick_6">
     <g id="line2d_24">
      <g>
       <use xlink:href="#m396db7bafd" x="325.185691" y="246.84375" style="stroke: #000000; stroke-width: 0.8"/>
      </g>
     </g>
     <g id="text_22">
      <!-- 0.00 -->
      <g transform="translate(314.052878 261.442187) scale(0.1 -0.1)">
       <use xlink:href="#DejaVuSans-30"/>
       <use xlink:href="#DejaVuSans-2e" x="63.623047"/>
       <use xlink:href="#DejaVuSans-30" x="95.410156"/>
       <use xlink:href="#DejaVuSans-30" x="159.033203"/>
      </g>
     </g>
    </g>
    <g id="xtick_7">
     <g id="line2d_25">
      <g>
       <use xlink:href="#m396db7bafd" x="378.522204" y="246.84375" style="stroke: #000000; stroke-width: 0.8"/>
      </g>
     </g>
     <g id="text_23">
      <!-- 0.02 -->
      <g transform="translate(367.389391 261.442187) scale(0.1 -0.1)">
       <use xlink:href="#DejaVuSans-30"/>
       <use xlink:href="#DejaVuSans-2e" x="63.623047"/>
       <use xlink:href="#DejaVuSans-30" x="95.410156"/>
       <use xlink:href="#DejaVuSans-32" x="159.033203"/>
      </g>
     </g>
    </g>
    <g id="xtick_8">
     <g id="line2d_26">
      <g>
       <use xlink:href="#m396db7bafd" x="431.858717" y="246.84375" style="stroke: #000000; stroke-width: 0.8"/>
      </g>
     </g>
     <g id="text_24">
      <!-- 0.04 -->
      <g transform="translate(420.725905 261.442187) scale(0.1 -0.1)">
       <use xlink:href="#DejaVuSans-30"/>
       <use xlink:href="#DejaVuSans-2e" x="63.623047"/>
       <use xlink:href="#DejaVuSans-30" x="95.410156"/>
       <use xlink:href="#DejaVuSans-34" x="159.033203"/>
      </g>
     </g>
    </g>
    <g id="xtick_9">
     <g id="line2d_27">
      <g>
       <use xlink:href="#m396db7bafd" x="485.19523" y="246.84375" style="stroke: #000000; stroke-width: 0.8"/>
      </g>
     </g>
     <g id="text_25">
      <!-- 0.06 -->
      <g transform="translate(474.062418 261.442187) scale(0.1 -0.1)">
       <use xlink:href="#DejaVuSans-30"/>
       <use xlink:href="#DejaVuSans-2e" x="63.623047"/>
       <use xlink:href="#DejaVuSans-30" x="95.410156"/>
       <use xlink:href="#DejaVuSans-36" x="159.033203"/>
      </g>
     </g>
    </g>
    <g id="xtick_10">
     <g id="line2d_28">
      <g>
       <use xlink:href="#m396db7bafd" x="538.531743" y="246.84375" style="stroke: #000000; stroke-width: 0.8"/>
      </g>
     </g>
     <g id="text_26">
      <!-- 0.08 -->
      <g transform="translate(527.398931 261.442187) scale(0.1 -0.1)">
       <use xlink:href="#DejaVuSans-30"/>
       <use xlink:href="#DejaVuSans-2e" x="63.623047"/>
       <use xlink:href="#DejaVuSans-30" x="95.410156"/>
       <use xlink:href="#DejaVuSans-38" x="159.033203"/>
      </g>
     </g>
    </g>
    <g id="text_27">
     <!-- Shear Extension [mm] -->
     <g transform="translate(382.620312 275.120313) scale(0.1 -0.1)">
      <defs>
       <path id="DejaVuSans-53" d="M 3425 4513 
L 3425 3897 
Q 3066 4069 2747 4153 
Q 2428 4238 2131 4238 
Q 1616 4238 1336 4038 
Q 1056 3838 1056 3469 
Q 1056 3159 1242 3001 
Q 1428 2844 1947 2747 
L 2328 2669 
Q 3034 2534 3370 2195 
Q 3706 1856 3706 1288 
Q 3706 609 3251 259 
Q 2797 -91 1919 -91 
Q 1588 -91 1214 -16 
Q 841 59 441 206 
L 441 856 
Q 825 641 1194 531 
Q 1563 422 1919 422 
Q 2459 422 2753 634 
Q 3047 847 3047 1241 
Q 3047 1584 2836 1778 
Q 2625 1972 2144 2069 
L 1759 2144 
Q 1053 2284 737 2584 
Q 422 2884 422 3419 
Q 422 4038 858 4394 
Q 1294 4750 2059 4750 
Q 2388 4750 2728 4690 
Q 3069 4631 3425 4513 
z
" transform="scale(0.015625)"/>
       <path id="DejaVuSans-68" d="M 3513 2113 
L 3513 0 
L 2938 0 
L 2938 2094 
Q 2938 2591 2744 2837 
Q 2550 3084 2163 3084 
Q 1697 3084 1428 2787 
Q 1159 2491 1159 1978 
L 1159 0 
L 581 0 
L 581 4863 
L 1159 4863 
L 1159 2956 
Q 1366 3272 1645 3428 
Q 1925 3584 2291 3584 
Q 2894 3584 3203 3211 
Q 3513 2838 3513 2113 
z
" transform="scale(0.015625)"/>
      </defs>
      <use xlink:href="#DejaVuSans-53"/>
      <use xlink:href="#DejaVuSans-68" x="63.476562"/>
      <use xlink:href="#DejaVuSans-65" x="126.855469"/>
      <use xlink:href="#DejaVuSans-61" x="188.378906"/>
      <use xlink:href="#DejaVuSans-72" x="249.658203"/>
      <use xlink:href="#DejaVuSans-20" x="290.771484"/>
      <use xlink:href="#DejaVuSans-45" x="322.558594"/>
      <use xlink:href="#DejaVuSans-78" x="385.742188"/>
      <use xlink:href="#DejaVuSans-74" x="444.921875"/>
      <use xlink:href="#DejaVuSans-65" x="484.130859"/>
      <use xlink:href="#DejaVuSans-6e" x="545.654297"/>
      <use xlink:href="#DejaVuSans-73" x="609.033203"/>
      <use xlink:href="#DejaVuSans-69" x="661.132812"/>
      <use xlink:href="#DejaVuSans-6f" x="688.916016"/>
      <use xlink:href="#DejaVuSans-6e" x="750.097656"/>
      <use xlink:href="#DejaVuSans-20" x="813.476562"/>
      <use xlink:href="#DejaVuSans-5b" x="845.263672"/>
      <use xlink:href="#DejaVuSans-6d" x="884.277344"/>
      <use xlink:href="#DejaVuSans-6d" x="981.689453"/>
      <use xlink:href="#DejaVuSans-5d" x="1079.101562"/>
     </g>
    </g>
   </g>
   <g id="matplotlib.axis_4">
    <g id="ytick_7">
     <g id="line2d_29">
      <g>
       <use xlink:href="#m4a5934031c" x="311.851562" y="236.801676" style="stroke: #000000; stroke-width: 0.8"/>
      </g>
     </g>
    </g>
    <g id="ytick_8">
     <g id="line2d_30">
      <g>
       <use xlink:href="#m4a5934031c" x="311.851562" y="196.633381" style="stroke: #000000; stroke-width: 0.8"/>
      </g>
     </g>
    </g>
    <g id="ytick_9">
     <g id="line2d_31">
      <g>
       <use xlink:href="#m4a5934031c" x="311.851562" y="156.465085" style="stroke: #000000; stroke-width: 0.8"/>
      </g>
     </g>
    </g>
    <g id="ytick_10">
     <g id="line2d_32">
      <g>
       <use xlink:href="#m4a5934031c" x="311.851562" y="116.29679" style="stroke: #000000; stroke-width: 0.8"/>
      </g>
     </g>
    </g>
    <g id="ytick_11">
     <g id="line2d_33">
      <g>
       <use xlink:href="#m4a5934031c" x="311.851562" y="76.128494" style="stroke: #000000; stroke-width: 0.8"/>
      </g>
     </g>
    </g>
    <g id="ytick_12">
     <g id="line2d_34">
      <g>
       <use xlink:href="#m4a5934031c" x="311.851562" y="35.960199" style="stroke: #000000; stroke-width: 0.8"/>
      </g>
     </g>
    </g>
   </g>
   <g id="line2d_35">
    <path d="M 311.851562 236.801676 
L 565.2 236.801676 
" clip-path="url(#pe9246ebf33)" style="fill: none; stroke-dasharray: 2.775,1.2; stroke-dashoffset: 0; stroke: #808080; stroke-opacity: 0.75; stroke-width: 0.75"/>
   </g>
   <g id="line2d_36">
    <path d="M 325.185691 246.84375 
L 325.185691 25.918125 
" clip-path="url(#pe9246ebf33)" style="fill: none; stroke-dasharray: 2.775,1.2; stroke-dashoffset: 0; stroke: #808080; stroke-opacity: 0.75; stroke-width: 0.75"/>
   </g>
   <g id="line2d_37">
    <path d="M 325.188963 236.801676 
L 326.796803 234.772974 
L 328.45711 232.744273 
L 330.166204 230.715571 
L 331.920132 228.686869 
L 333.714756 226.658167 
L 335.545839 224.629465 
L 337.409132 222.600764 
L 339.300441 220.572062 
L 341.215691 218.54336 
L 343.150965 216.514658 
L 345.102537 214.485956 
L 347.066881 212.457255 
L 349.04069 210.428553 
L 351.020873 208.399851 
L 353.004573 206.371149 
L 354.989168 204.342447 
L 356.97229 202.313746 
L 358.951837 200.285044 
L 360.925996 198.256342 
L 362.893258 196.22764 
L 364.852433 194.198939 
L 366.802668 192.170237 
L 368.743455 190.141535 
L 370.674638 188.112833 
L 372.596411 186.084131 
L 374.509305 184.05543 
L 376.414165 182.026728 
L 378.312111 179.998026 
L 380.204498 177.969324 
L 382.092854 175.940622 
L 383.978829 173.911921 
L 385.864136 171.883219 
L 387.750503 169.854517 
L 389.639628 167.825815 
L 391.533141 165.797113 
L 393.43258 163.768412 
L 395.339362 161.73971 
L 397.254769 159.711008 
L 399.179926 157.682306 
L 401.115795 155.653605 
L 403.063153 153.624903 
L 405.022568 151.596201 
L 406.994373 149.567499 
L 408.978617 147.538797 
L 410.975014 145.510096 
L 412.982898 143.481394 
L 415.001189 141.452692 
L 417.0284 139.42399 
L 419.062695 137.395288 
L 421.102 135.366587 
L 423.144172 133.337885 
L 425.187198 131.309183 
L 427.229389 129.280481 
L 429.269541 127.251779 
L 431.307022 125.223078 
L 433.34177 123.194376 
L 435.374181 121.165674 
L 437.404918 119.136972 
L 439.434649 117.10827 
L 441.463779 115.079569 
L 443.492196 113.050867 
L 445.519089 111.022165 
L 447.542877 108.993463 
L 449.561246 106.964762 
L 451.571312 104.93606 
L 453.569873 102.907358 
L 455.553723 100.878656 
L 457.51997 98.849954 
L 459.466316 96.821253 
L 461.391256 94.792551 
L 463.294165 92.763849 
L 465.17527 90.735147 
L 467.035531 88.706445 
L 468.876453 86.677744 
L 470.699867 84.649042 
L 472.507746 82.62034 
L 474.302066 80.591638 
L 476.084745 78.562936 
L 477.857665 76.534235 
L 479.62275 74.505533 
L 481.382082 72.476831 
L 483.138016 70.448129 
L 484.893262 68.419428 
L 486.650914 66.390726 
L 488.41442 64.362024 
L 490.187493 62.333322 
L 491.973981 60.30462 
L 493.777708 58.275919 
L 495.602303 56.247217 
L 497.451027 54.218515 
L 499.326601 52.189813 
L 501.231032 50.161111 
L 503.165456 48.13241 
L 505.13 46.103708 
L 507.123675 44.075006 
L 509.144319 42.046304 
L 511.188588 40.017602 
L 513.252012 37.988901 
L 515.329084 35.960199 
" clip-path="url(#pe9246ebf33)" style="fill: none; stroke-dasharray: 3.7,1.6; stroke-dashoffset: 0; stroke: #008000"/>
   </g>
   <g id="line2d_38">
    <path d="M 325.178117 236.801676 
L 327.292603 234.772974 
L 329.401532 232.744273 
L 331.505042 230.715571 
L 333.603069 228.686869 
L 335.693913 226.658167 
L 337.781143 224.629465 
L 339.862707 222.600764 
L 341.938098 220.572062 
L 344.010681 218.54336 
L 346.076245 216.514658 
L 348.139187 214.485956 
L 350.195788 212.457255 
L 352.250604 210.428553 
L 354.300239 208.399851 
L 356.346557 206.371149 
L 358.389098 204.342447 
L 360.42764 202.313746 
L 362.464563 200.285044 
L 364.497826 198.256342 
L 366.528459 196.22764 
L 368.555332 194.198939 
L 370.580904 192.170237 
L 372.604099 190.141535 
L 374.625746 188.112833 
L 376.644855 186.084131 
L 378.662355 184.05543 
L 380.679215 182.026728 
L 382.694352 179.998026 
L 384.70855 177.969324 
L 386.721055 175.940622 
L 388.734184 173.911921 
L 390.746849 171.883219 
L 392.759055 169.854517 
L 394.769794 167.825815 
L 396.781777 165.797113 
L 398.793397 163.768412 
L 400.806606 161.73971 
L 402.819755 159.711008 
L 404.832776 157.682306 
L 406.847668 155.653605 
L 408.863277 153.624903 
L 410.87892 151.596201 
L 412.897631 149.567499 
L 414.916069 147.538797 
L 416.937158 145.510096 
L 418.959416 143.481394 
L 420.983999 141.452692 
L 423.008858 139.42399 
L 425.03726 137.395288 
L 427.067533 135.366587 
L 429.098644 133.337885 
L 431.132852 131.309183 
L 433.169752 129.280481 
L 435.207762 127.251779 
L 437.249143 125.223078 
L 439.292893 123.194376 
L 441.33771 121.165674 
L 443.386107 119.136972 
L 445.436617 117.10827 
L 447.489107 115.079569 
L 449.544635 113.050867 
L 451.60149 111.022165 
L 453.662017 108.993463 
L 455.724748 106.964762 
L 457.789691 104.93606 
L 459.856322 102.907358 
L 461.925029 100.878656 
L 463.996082 98.849954 
L 466.069264 96.821253 
L 468.14344 94.792551 
L 470.219922 92.763849 
L 472.297876 90.735147 
L 474.37706 88.706445 
L 476.458451 86.677744 
L 478.540613 84.649042 
L 480.623217 82.62034 
L 482.707634 80.591638 
L 484.791548 78.562936 
L 486.875493 76.534235 
L 488.960628 74.505533 
L 491.045818 72.476831 
L 493.131059 70.448129 
L 495.215873 68.419428 
L 497.297836 66.390726 
L 499.380111 64.362024 
L 501.461776 62.333322 
L 503.540357 60.30462 
L 505.618229 58.275919 
L 507.693322 56.247217 
L 509.766165 54.218515 
L 511.836637 52.189813 
L 513.902849 50.161111 
L 515.966183 48.13241 
L 518.025612 46.103708 
L 520.080857 44.075006 
L 522.130107 42.046304 
L 524.176827 40.017602 
L 526.217149 37.988901 
L 528.250982 35.960199 
" clip-path="url(#pe9246ebf33)" style="fill: none; stroke: #0000ff; stroke-width: 0.5; stroke-linecap: square"/>
   </g>
   <g id="line2d_39">
    <g clip-path="url(#pe9246ebf33)">
     <use xlink:href="#me32b3e478b" x="325.185691" y="236.801676" style="fill: #1f77b4; stroke: #1f77b4"/>
     <use xlink:href="#me32b3e478b" x="326.752226" y="234.243924" style="fill: #1f77b4; stroke: #1f77b4"/>
     <use xlink:href="#me32b3e478b" x="328.807152" y="232.042314" style="fill: #1f77b4; stroke: #1f77b4"/>
     <use xlink:href="#me32b3e478b" x="333.485433" y="229.096042" style="fill: #1f77b4; stroke: #1f77b4"/>
     <use xlink:href="#me32b3e478b" x="335.503415" y="226.279277" style="fill: #1f77b4; stroke: #1f77b4"/>
     <use xlink:href="#me32b3e478b" x="342.471349" y="221.390409" style="fill: #1f77b4; stroke: #1f77b4"/>
     <use xlink:href="#me32b3e478b" x="348.225058" y="216.080645" style="fill: #1f77b4; stroke: #1f77b4"/>
     <use xlink:href="#me32b3e478b" x="353.808755" y="210.608999" style="fill: #1f77b4; stroke: #1f77b4"/>
     <use xlink:href="#me32b3e478b" x="358.761966" y="204.263184" style="fill: #1f77b4; stroke: #1f77b4"/>
     <use xlink:href="#me32b3e478b" x="365.737967" y="197.690733" style="fill: #1f77b4; stroke: #1f77b4"/>
     <use xlink:href="#me32b3e478b" x="373.679982" y="190.049854" style="fill: #1f77b4; stroke: #1f77b4"/>
     <use xlink:href="#me32b3e478b" x="382.065707" y="182.052833" style="fill: #1f77b4; stroke: #1f77b4"/>
     <use xlink:href="#me32b3e478b" x="390.980165" y="173.278773" style="fill: #1f77b4; stroke: #1f77b4"/>
     <use xlink:href="#me32b3e478b" x="400.482938" y="164.763726" style="fill: #1f77b4; stroke: #1f77b4"/>
     <use xlink:href="#me32b3e478b" x="410.127556" y="155.924913" style="fill: #1f77b4; stroke: #1f77b4"/>
     <use xlink:href="#me32b3e478b" x="419.641103" y="147.215606" style="fill: #1f77b4; stroke: #1f77b4"/>
     <use xlink:href="#me32b3e478b" x="429.78463" y="137.146482" style="fill: #1f77b4; stroke: #1f77b4"/>
     <use xlink:href="#me32b3e478b" x="438.471493" y="127.789642" style="fill: #1f77b4; stroke: #1f77b4"/>
     <use xlink:href="#me32b3e478b" x="448.607641" y="118.756569" style="fill: #1f77b4; stroke: #1f77b4"/>
     <use xlink:href="#me32b3e478b" x="457.617853" y="109.140715" style="fill: #1f77b4; stroke: #1f77b4"/>
     <use xlink:href="#me32b3e478b" x="468.066314" y="99.524861" style="fill: #1f77b4; stroke: #1f77b4"/>
     <use xlink:href="#me32b3e478b" x="478.020445" y="90.459409" style="fill: #1f77b4; stroke: #1f77b4"/>
     <use xlink:href="#me32b3e478b" x="487.133245" y="80.390281" style="fill: #1f77b4; stroke: #1f77b4"/>
     <use xlink:href="#me32b3e478b" x="496.781935" y="71.162944" style="fill: #1f77b4; stroke: #1f77b4"/>
     <use xlink:href="#me32b3e478b" x="506.643205" y="62.453631" style="fill: #1f77b4; stroke: #1f77b4"/>
     <use xlink:href="#me32b3e478b" x="516.189128" y="52.708266" style="fill: #1f77b4; stroke: #1f77b4"/>
     <use xlink:href="#me32b3e478b" x="525.932467" y="43.707562" style="fill: #1f77b4; stroke: #1f77b4"/>
    </g>
   </g>
   <g id="line2d_40">
    <g clip-path="url(#pe9246ebf33)">
     <use xlink:href="#m6f0c03abb1" x="336.168609" y="226.797303" style="fill: #ff7f0e; stroke: #ff7f0e"/>
     <use xlink:href="#m6f0c03abb1" x="341.784017" y="220.710501" style="fill: #ff7f0e; stroke: #ff7f0e"/>
     <use xlink:href="#m6f0c03abb1" x="348.470569" y="213.94379" style="fill: #ff7f0e; stroke: #ff7f0e"/>
     <use xlink:href="#m6f0c03abb1" x="356.175021" y="206.529547" style="fill: #ff7f0e; stroke: #ff7f0e"/>
     <use xlink:href="#m6f0c03abb1" x="364.623056" y="197.982123" style="fill: #ff7f0e; stroke: #ff7f0e"/>
     <use xlink:href="#m6f0c03abb1" x="373.433145" y="189.110933" style="fill: #ff7f0e; stroke: #ff7f0e"/>
     <use xlink:href="#m6f0c03abb1" x="382.266352" y="180.304497" style="fill: #ff7f0e; stroke: #ff7f0e"/>
     <use xlink:href="#m6f0c03abb1" x="392.61871" y="171.368554" style="fill: #ff7f0e; stroke: #ff7f0e"/>
     <use xlink:href="#m6f0c03abb1" x="400.642795" y="161.979339" style="fill: #ff7f0e; stroke: #ff7f0e"/>
     <use xlink:href="#m6f0c03abb1" x="409.642721" y="152.687253" style="fill: #ff7f0e; stroke: #ff7f0e"/>
     <use xlink:href="#m6f0c03abb1" x="418.763359" y="143.459921" style="fill: #ff7f0e; stroke: #ff7f0e"/>
     <use xlink:href="#m6f0c03abb1" x="428.065312" y="133.973575" style="fill: #ff7f0e; stroke: #ff7f0e"/>
     <use xlink:href="#m6f0c03abb1" x="437.295187" y="124.325346" style="fill: #ff7f0e; stroke: #ff7f0e"/>
     <use xlink:href="#m6f0c03abb1" x="447.367034" y="113.997207" style="fill: #ff7f0e; stroke: #ff7f0e"/>
     <use xlink:href="#m6f0c03abb1" x="456.659439" y="104.867003" style="fill: #ff7f0e; stroke: #ff7f0e"/>
     <use xlink:href="#m6f0c03abb1" x="467.238988" y="95.186395" style="fill: #ff7f0e; stroke: #ff7f0e"/>
     <use xlink:href="#m6f0c03abb1" x="475.747969" y="85.37628" style="fill: #ff7f0e; stroke: #ff7f0e"/>
     <use xlink:href="#m6f0c03abb1" x="485.261186" y="76.116566" style="fill: #ff7f0e; stroke: #ff7f0e"/>
     <use xlink:href="#m6f0c03abb1" x="494.036462" y="66.727345" style="fill: #ff7f0e; stroke: #ff7f0e"/>
     <use xlink:href="#m6f0c03abb1" x="505.889889" y="57.208616" style="fill: #ff7f0e; stroke: #ff7f0e"/>
     <use xlink:href="#m6f0c03abb1" x="512.961438" y="48.143159" style="fill: #ff7f0e; stroke: #ff7f0e"/>
    </g>
   </g>
   <g id="line2d_41">
    <g clip-path="url(#pe9246ebf33)">
     <use xlink:href="#m4373da43f3" x="326.649659" y="235.474235" style="fill: #2ca02c; stroke: #2ca02c"/>
     <use xlink:href="#m4373da43f3" x="328.949811" y="233.725898" style="fill: #2ca02c; stroke: #2ca02c"/>
     <use xlink:href="#m4373da43f3" x="329.643182" y="232.333704" style="fill: #2ca02c; stroke: #2ca02c"/>
     <use xlink:href="#m4373da43f3" x="332.311316" y="229.905458" style="fill: #2ca02c; stroke: #2ca02c"/>
     <use xlink:href="#m4373da43f3" x="334.364962" y="226.991563" style="fill: #2ca02c; stroke: #2ca02c"/>
     <use xlink:href="#m4373da43f3" x="338.485597" y="222.523591" style="fill: #2ca02c; stroke: #2ca02c"/>
     <use xlink:href="#m4373da43f3" x="345.771286" y="216.663424" style="fill: #2ca02c; stroke: #2ca02c"/>
     <use xlink:href="#m4373da43f3" x="351.246105" y="209.152051" style="fill: #2ca02c; stroke: #2ca02c"/>
     <use xlink:href="#m4373da43f3" x="359.95795" y="201.090276" style="fill: #2ca02c; stroke: #2ca02c"/>
     <use xlink:href="#m4373da43f3" x="369.542214" y="192.08958" style="fill: #2ca02c; stroke: #2ca02c"/>
     <use xlink:href="#m4373da43f3" x="377.592125" y="183.736416" style="fill: #2ca02c; stroke: #2ca02c"/>
     <use xlink:href="#m4373da43f3" x="385.66194" y="174.73572" style="fill: #2ca02c; stroke: #2ca02c"/>
     <use xlink:href="#m4373da43f3" x="394.724834" y="165.735024" style="fill: #2ca02c; stroke: #2ca02c"/>
     <use xlink:href="#m4373da43f3" x="403.784289" y="156.572445" style="fill: #2ca02c; stroke: #2ca02c"/>
     <use xlink:href="#m4373da43f3" x="412.725923" y="147.150853" style="fill: #2ca02c; stroke: #2ca02c"/>
     <use xlink:href="#m4373da43f3" x="421.709151" y="138.376793" style="fill: #2ca02c; stroke: #2ca02c"/>
     <use xlink:href="#m4373da43f3" x="429.194651" y="128.825694" style="fill: #2ca02c; stroke: #2ca02c"/>
     <use xlink:href="#m4373da43f3" x="440.49088" y="119.371724" style="fill: #2ca02c; stroke: #2ca02c"/>
     <use xlink:href="#m4373da43f3" x="450.463662" y="109.755871" style="fill: #2ca02c; stroke: #2ca02c"/>
     <use xlink:href="#m4373da43f3" x="458.308617" y="100.852303" style="fill: #2ca02c; stroke: #2ca02c"/>
     <use xlink:href="#m4373da43f3" x="468.282005" y="91.624967" style="fill: #2ca02c; stroke: #2ca02c"/>
     <use xlink:href="#m4373da43f3" x="477.843657" y="82.365255" style="fill: #2ca02c; stroke: #2ca02c"/>
     <use xlink:href="#m4373da43f3" x="485.983101" y="73.332177" style="fill: #2ca02c; stroke: #2ca02c"/>
     <use xlink:href="#m4373da43f3" x="493.537076" y="64.687619" style="fill: #2ca02c; stroke: #2ca02c"/>
     <use xlink:href="#m4373da43f3" x="502.079339" y="56.107812" style="fill: #2ca02c; stroke: #2ca02c"/>
     <use xlink:href="#m4373da43f3" x="511.346096" y="47.528005" style="fill: #2ca02c; stroke: #2ca02c"/>
     <use xlink:href="#m4373da43f3" x="518.965809" y="39.239586" style="fill: #2ca02c; stroke: #2ca02c"/>
    </g>
   </g>
   <g id="patch_11">
    <path d="M 311.851562 246.84375 
L 311.851562 25.918125 
" style="fill: none; stroke: #000000; stroke-width: 0.8; stroke-linejoin: miter; stroke-linecap: square"/>
   </g>
   <g id="patch_12">
    <path d="M 565.2 246.84375 
L 565.2 25.918125 
" style="fill: none; stroke: #000000; stroke-width: 0.8; stroke-linejoin: miter; stroke-linecap: square"/>
   </g>
   <g id="patch_13">
    <path d="M 311.851562 246.84375 
L 565.2 246.84375 
" style="fill: none; stroke: #000000; stroke-width: 0.8; stroke-linejoin: miter; stroke-linecap: square"/>
   </g>
   <g id="patch_14">
    <path d="M 311.851562 25.918125 
L 565.2 25.918125 
" style="fill: none; stroke: #000000; stroke-width: 0.8; stroke-linejoin: miter; stroke-linecap: square"/>
   </g>
   <g id="text_28">
    <!-- Predictions ($45^\circ$) -->
    <g transform="translate(386.625781 19.918125) scale(0.12 -0.12)">
     <use xlink:href="#DejaVuSans-50" transform="translate(0 0.015625)"/>
     <use xlink:href="#DejaVuSans-72" transform="translate(60.302734 0.015625)"/>
     <use xlink:href="#DejaVuSans-65" transform="translate(101.416016 0.015625)"/>
     <use xlink:href="#DejaVuSans-64" transform="translate(162.939453 0.015625)"/>
     <use xlink:href="#DejaVuSans-69" transform="translate(226.416016 0.015625)"/>
     <use xlink:href="#DejaVuSans-63" transform="translate(254.199219 0.015625)"/>
     <use xlink:href="#DejaVuSans-74" transform="translate(309.179688 0.015625)"/>
     <use xlink:href="#DejaVuSans-69" transform="translate(348.388672 0.015625)"/>
     <use xlink:href="#DejaVuSans-6f" transform="translate(376.171875 0.015625)"/>
     <use xlink:href="#DejaVuSans-6e" transform="translate(437.353516 0.015625)"/>
     <use xlink:href="#DejaVuSans-73" transform="translate(500.732422 0.015625)"/>
     <use xlink:href="#DejaVuSans-20" transform="translate(552.832031 0.015625)"/>
     <use xlink:href="#DejaVuSans-28" transform="translate(584.619141 0.015625)"/>
     <use xlink:href="#DejaVuSans-34" transform="translate(623.632812 0.015625)"/>
     <use xlink:href="#DejaVuSans-35" transform="translate(687.255859 0.015625)"/>
     <use xlink:href="#DejaVuSans-2218" transform="translate(765.473633 38.296875) scale(0.7)"/>
     <use xlink:href="#DejaVuSans-29" transform="translate(825.664062 0.015625)"/>
    </g>
   </g>
  </g>
 </g>
 <defs>
  <clipPath id="pbbd87f2623">
   <rect x="44.203125" y="25.918125" width="253.348437" height="220.925625"/>
  </clipPath>
  <clipPath id="pe9246ebf33">
   <rect x="311.851562" y="25.918125" width="253.348437" height="220.925625"/>
  </clipPath>
 </defs>
</svg>
