<?xml version="1.0" encoding="utf-8" standalone="no"?>
<!DOCTYPE svg PUBLIC "-//W3C//DTD SVG 1.1//EN"
  "http://www.w3.org/Graphics/SVG/1.1/DTD/svg11.dtd">
<svg xmlns:xlink="http://www.w3.org/1999/xlink" width="1440pt" height="288pt" viewBox="0 0 1440 288" xmlns="http://www.w3.org/2000/svg" version="1.1">
 <metadata>
  <rdf:RDF xmlns:dc="http://purl.org/dc/elements/1.1/" xmlns:cc="http://creativecommons.org/ns#" xmlns:rdf="http://www.w3.org/1999/02/22-rdf-syntax-ns#">
   <cc:Work>
    <dc:type rdf:resource="http://purl.org/dc/dcmitype/StillImage"/>
    <dc:date>2025-03-09T21:23:27.597803</dc:date>
    <dc:format>image/svg+xml</dc:format>
    <dc:creator>
     <cc:Agent>
      <dc:title>Matplotlib v3.8.4, https://matplotlib.org/</dc:title>
     </cc:Agent>
    </dc:creator>
   </cc:Work>
  </rdf:RDF>
 </metadata>
 <defs>
  <style type="text/css">*{stroke-linejoin: round; stroke-linecap: butt}</style>
 </defs>
 <g id="figure_1">
  <g id="patch_1">
   <path d="M 0 288 
L 1440 288 
L 1440 0 
L 0 0 
z
" style="fill: #ffffff"/>
  </g>
  <g id="axes_1">
   <g id="patch_2">
    <path d="M 58.72149 246.90101 
L 297.137976 246.90101 
L 297.137976 16.638052 
L 58.72149 16.638052 
z
" style="fill: #ffffff"/>
   </g>
   <g id="patch_3">
    <path d="M 69.558603 246.90101 
L 73.18386 246.90101 
L 73.18386 245.961832 
L 69.558603 245.961832 
z
" clip-path="url(#p4d82c4c53c)" style="fill: #1f77b4"/>
   </g>
   <g id="patch_4">
    <path d="M 73.586666 246.90101 
L 77.211923 246.90101 
L 77.211923 246.90101 
L 73.586666 246.90101 
z
" clip-path="url(#p4d82c4c53c)" style="fill: #1f77b4"/>
   </g>
   <g id="patch_5">
    <path d="M 77.614729 246.90101 
L 81.239986 246.90101 
L 81.239986 246.431421 
L 77.614729 246.431421 
z
" clip-path="url(#p4d82c4c53c)" style="fill: #1f77b4"/>
   </g>
   <g id="patch_6">
    <path d="M 81.642792 246.90101 
L 85.268049 246.90101 
L 85.268049 245.492243 
L 81.642792 245.492243 
z
" clip-path="url(#p4d82c4c53c)" style="fill: #1f77b4"/>
   </g>
   <g id="patch_7">
    <path d="M 85.670855 246.90101 
L 89.296112 246.90101 
L 89.296112 246.431421 
L 85.670855 246.431421 
z
" clip-path="url(#p4d82c4c53c)" style="fill: #1f77b4"/>
   </g>
   <g id="patch_8">
    <path d="M 89.698918 246.90101 
L 93.324175 246.90101 
L 93.324175 244.553065 
L 89.698918 244.553065 
z
" clip-path="url(#p4d82c4c53c)" style="fill: #1f77b4"/>
   </g>
   <g id="patch_9">
    <path d="M 93.726981 246.90101 
L 97.352238 246.90101 
L 97.352238 238.448408 
L 93.726981 238.448408 
z
" clip-path="url(#p4d82c4c53c)" style="fill: #1f77b4"/>
   </g>
   <g id="patch_10">
    <path d="M 97.755044 246.90101 
L 101.380301 246.90101 
L 101.380301 236.570052 
L 97.755044 236.570052 
z
" clip-path="url(#p4d82c4c53c)" style="fill: #1f77b4"/>
   </g>
   <g id="patch_11">
    <path d="M 101.783107 246.90101 
L 105.408364 246.90101 
L 105.408364 225.769506 
L 101.783107 225.769506 
z
" clip-path="url(#p4d82c4c53c)" style="fill: #1f77b4"/>
   </g>
   <g id="patch_12">
    <path d="M 105.81117 246.90101 
L 109.436427 246.90101 
L 109.436427 211.681836 
L 105.81117 211.681836 
z
" clip-path="url(#p4d82c4c53c)" style="fill: #1f77b4"/>
   </g>
   <g id="patch_13">
    <path d="M 109.839233 246.90101 
L 113.46449 246.90101 
L 113.46449 182.567319 
L 109.839233 182.567319 
z
" clip-path="url(#p4d82c4c53c)" style="fill: #1f77b4"/>
   </g>
   <g id="patch_14">
    <path d="M 113.867296 246.90101 
L 117.492553 246.90101 
L 117.492553 147.348146 
L 113.867296 147.348146 
z
" clip-path="url(#p4d82c4c53c)" style="fill: #1f77b4"/>
   </g>
   <g id="patch_15">
    <path d="M 117.895359 246.90101 
L 121.520615 246.90101 
L 121.520615 117.294451 
L 117.895359 117.294451 
z
" clip-path="url(#p4d82c4c53c)" style="fill: #1f77b4"/>
   </g>
   <g id="patch_16">
    <path d="M 121.923422 246.90101 
L 125.548678 246.90101 
L 125.548678 94.284591 
L 121.923422 94.284591 
z
" clip-path="url(#p4d82c4c53c)" style="fill: #1f77b4"/>
   </g>
   <g id="patch_17">
    <path d="M 125.951485 246.90101 
L 129.576741 246.90101 
L 129.576741 44.508159 
L 125.951485 44.508159 
z
" clip-path="url(#p4d82c4c53c)" style="fill: #1f77b4"/>
   </g>
   <g id="patch_18">
    <path d="M 129.979548 246.90101 
L 133.604804 246.90101 
L 133.604804 33.707612 
L 129.979548 33.707612 
z
" clip-path="url(#p4d82c4c53c)" style="fill: #1f77b4"/>
   </g>
   <g id="patch_19">
    <path d="M 134.007611 246.90101 
L 137.632867 246.90101 
L 137.632867 27.602955 
L 134.007611 27.602955 
z
" clip-path="url(#p4d82c4c53c)" style="fill: #1f77b4"/>
   </g>
   <g id="patch_20">
    <path d="M 138.035674 246.90101 
L 141.66093 246.90101 
L 141.66093 44.508159 
L 138.035674 44.508159 
z
" clip-path="url(#p4d82c4c53c)" style="fill: #1f77b4"/>
   </g>
   <g id="patch_21">
    <path d="M 142.063737 246.90101 
L 145.688993 246.90101 
L 145.688993 96.632536 
L 142.063737 96.632536 
z
" clip-path="url(#p4d82c4c53c)" style="fill: #1f77b4"/>
   </g>
   <g id="patch_22">
    <path d="M 146.0918 246.90101 
L 149.717056 246.90101 
L 149.717056 121.051163 
L 146.0918 121.051163 
z
" clip-path="url(#p4d82c4c53c)" style="fill: #1f77b4"/>
   </g>
   <g id="patch_23">
    <path d="M 150.119863 246.90101 
L 153.745119 246.90101 
L 153.745119 162.374993 
L 150.119863 162.374993 
z
" clip-path="url(#p4d82c4c53c)" style="fill: #1f77b4"/>
   </g>
   <g id="patch_24">
    <path d="M 154.147926 246.90101 
L 157.773182 246.90101 
L 157.773182 188.202387 
L 154.147926 188.202387 
z
" clip-path="url(#p4d82c4c53c)" style="fill: #1f77b4"/>
   </g>
   <g id="patch_25">
    <path d="M 158.175989 246.90101 
L 161.801245 246.90101 
L 161.801245 214.49937 
L 158.175989 214.49937 
z
" clip-path="url(#p4d82c4c53c)" style="fill: #1f77b4"/>
   </g>
   <g id="patch_26">
    <path d="M 162.204052 246.90101 
L 165.829308 246.90101 
L 165.829308 224.830328 
L 162.204052 224.830328 
z
" clip-path="url(#p4d82c4c53c)" style="fill: #1f77b4"/>
   </g>
   <g id="patch_27">
    <path d="M 166.232115 246.90101 
L 169.857371 246.90101 
L 169.857371 231.404574 
L 166.232115 231.404574 
z
" clip-path="url(#p4d82c4c53c)" style="fill: #1f77b4"/>
   </g>
   <g id="patch_28">
    <path d="M 170.260178 246.90101 
L 173.885434 246.90101 
L 173.885434 236.570052 
L 170.260178 236.570052 
z
" clip-path="url(#p4d82c4c53c)" style="fill: #1f77b4"/>
   </g>
   <g id="patch_29">
    <path d="M 174.288241 246.90101 
L 177.913497 246.90101 
L 177.913497 239.387586 
L 174.288241 239.387586 
z
" clip-path="url(#p4d82c4c53c)" style="fill: #1f77b4"/>
   </g>
   <g id="patch_30">
    <path d="M 178.316304 246.90101 
L 181.94156 246.90101 
L 181.94156 244.083476 
L 178.316304 244.083476 
z
" clip-path="url(#p4d82c4c53c)" style="fill: #1f77b4"/>
   </g>
   <g id="patch_31">
    <path d="M 182.344367 246.90101 
L 185.969623 246.90101 
L 185.969623 245.492243 
L 182.344367 245.492243 
z
" clip-path="url(#p4d82c4c53c)" style="fill: #1f77b4"/>
   </g>
   <g id="patch_32">
    <path d="M 186.372429 246.90101 
L 189.997686 246.90101 
L 189.997686 244.083476 
L 186.372429 244.083476 
z
" clip-path="url(#p4d82c4c53c)" style="fill: #1f77b4"/>
   </g>
   <g id="matplotlib.axis_1">
    <g id="xtick_1">
     <g id="line2d_1">
      <defs>
       <path id="m9496685b0a" d="M 0 0 
L 0 3.5 
" style="stroke: #000000; stroke-width: 0.8"/>
      </defs>
      <g>
       <use xlink:href="#m9496685b0a" x="73.205074" y="246.90101" style="stroke: #000000; stroke-width: 0.8"/>
      </g>
     </g>
     <g id="text_1">
      <!-- 1.4 -->
      <g transform="translate(62.072887 264.538822) scale(0.14 -0.14)">
       <defs>
        <path id="DejaVuSans-31" d="M 794 531 
L 1825 531 
L 1825 4091 
L 703 3866 
L 703 4441 
L 1819 4666 
L 2450 4666 
L 2450 531 
L 3481 531 
L 3481 0 
L 794 0 
L 794 531 
z
" transform="scale(0.015625)"/>
        <path id="DejaVuSans-2e" d="M 684 794 
L 1344 794 
L 1344 0 
L 684 0 
L 684 794 
z
" transform="scale(0.015625)"/>
        <path id="DejaVuSans-34" d="M 2419 4116 
L 825 1625 
L 2419 1625 
L 2419 4116 
z
M 2253 4666 
L 3047 4666 
L 3047 1625 
L 3713 1625 
L 3713 1100 
L 3047 1100 
L 3047 0 
L 2419 0 
L 2419 1100 
L 313 1100 
L 313 1709 
L 2253 4666 
z
" transform="scale(0.015625)"/>
       </defs>
       <use xlink:href="#DejaVuSans-31"/>
       <use xlink:href="#DejaVuSans-2e" x="63.623047"/>
       <use xlink:href="#DejaVuSans-34" x="95.410156"/>
      </g>
     </g>
    </g>
    <g id="xtick_2">
     <g id="line2d_2">
      <g>
       <use xlink:href="#m9496685b0a" x="134.089586" y="246.90101" style="stroke: #000000; stroke-width: 0.8"/>
      </g>
     </g>
     <g id="text_2">
      <!-- 1.5 -->
      <g transform="translate(122.957398 264.538822) scale(0.14 -0.14)">
       <defs>
        <path id="DejaVuSans-35" d="M 691 4666 
L 3169 4666 
L 3169 4134 
L 1269 4134 
L 1269 2991 
Q 1406 3038 1543 3061 
Q 1681 3084 1819 3084 
Q 2600 3084 3056 2656 
Q 3513 2228 3513 1497 
Q 3513 744 3044 326 
Q 2575 -91 1722 -91 
Q 1428 -91 1123 -41 
Q 819 9 494 109 
L 494 744 
Q 775 591 1075 516 
Q 1375 441 1709 441 
Q 2250 441 2565 725 
Q 2881 1009 2881 1497 
Q 2881 1984 2565 2268 
Q 2250 2553 1709 2553 
Q 1456 2553 1204 2497 
Q 953 2441 691 2322 
L 691 4666 
z
" transform="scale(0.015625)"/>
       </defs>
       <use xlink:href="#DejaVuSans-31"/>
       <use xlink:href="#DejaVuSans-2e" x="63.623047"/>
       <use xlink:href="#DejaVuSans-35" x="95.410156"/>
      </g>
     </g>
    </g>
    <g id="xtick_3">
     <g id="line2d_3">
      <g>
       <use xlink:href="#m9496685b0a" x="194.974097" y="246.90101" style="stroke: #000000; stroke-width: 0.8"/>
      </g>
     </g>
     <g id="text_3">
      <!-- 1.6 -->
      <g transform="translate(183.841909 264.538822) scale(0.14 -0.14)">
       <defs>
        <path id="DejaVuSans-36" d="M 2113 2584 
Q 1688 2584 1439 2293 
Q 1191 2003 1191 1497 
Q 1191 994 1439 701 
Q 1688 409 2113 409 
Q 2538 409 2786 701 
Q 3034 994 3034 1497 
Q 3034 2003 2786 2293 
Q 2538 2584 2113 2584 
z
M 3366 4563 
L 3366 3988 
Q 3128 4100 2886 4159 
Q 2644 4219 2406 4219 
Q 1781 4219 1451 3797 
Q 1122 3375 1075 2522 
Q 1259 2794 1537 2939 
Q 1816 3084 2150 3084 
Q 2853 3084 3261 2657 
Q 3669 2231 3669 1497 
Q 3669 778 3244 343 
Q 2819 -91 2113 -91 
Q 1303 -91 875 529 
Q 447 1150 447 2328 
Q 447 3434 972 4092 
Q 1497 4750 2381 4750 
Q 2619 4750 2861 4703 
Q 3103 4656 3366 4563 
z
" transform="scale(0.015625)"/>
       </defs>
       <use xlink:href="#DejaVuSans-31"/>
       <use xlink:href="#DejaVuSans-2e" x="63.623047"/>
       <use xlink:href="#DejaVuSans-36" x="95.410156"/>
      </g>
     </g>
    </g>
    <g id="xtick_4">
     <g id="line2d_4">
      <g>
       <use xlink:href="#m9496685b0a" x="255.858608" y="246.90101" style="stroke: #000000; stroke-width: 0.8"/>
      </g>
     </g>
     <g id="text_4">
      <!-- 1.7 -->
      <g transform="translate(244.72642 264.538822) scale(0.14 -0.14)">
       <defs>
        <path id="DejaVuSans-37" d="M 525 4666 
L 3525 4666 
L 3525 4397 
L 1831 0 
L 1172 0 
L 2766 4134 
L 525 4134 
L 525 4666 
z
" transform="scale(0.015625)"/>
       </defs>
       <use xlink:href="#DejaVuSans-31"/>
       <use xlink:href="#DejaVuSans-2e" x="63.623047"/>
       <use xlink:href="#DejaVuSans-37" x="95.410156"/>
      </g>
     </g>
    </g>
    <g id="text_5">
     <!-- $E_1$ [MPa] -->
     <g transform="translate(147.899733 282.088197) scale(0.14 -0.14)">
      <defs>
       <path id="DejaVuSans-Oblique-45" d="M 1081 4666 
L 4031 4666 
L 3928 4134 
L 1606 4134 
L 1338 2753 
L 3566 2753 
L 3463 2222 
L 1234 2222 
L 909 531 
L 3284 531 
L 3181 0 
L 172 0 
L 1081 4666 
z
" transform="scale(0.015625)"/>
       <path id="DejaVuSans-20" transform="scale(0.015625)"/>
       <path id="DejaVuSans-5b" d="M 550 4863 
L 1875 4863 
L 1875 4416 
L 1125 4416 
L 1125 -397 
L 1875 -397 
L 1875 -844 
L 550 -844 
L 550 4863 
z
" transform="scale(0.015625)"/>
       <path id="DejaVuSans-4d" d="M 628 4666 
L 1569 4666 
L 2759 1491 
L 3956 4666 
L 4897 4666 
L 4897 0 
L 4281 0 
L 4281 4097 
L 3078 897 
L 2444 897 
L 1241 4097 
L 1241 0 
L 628 0 
L 628 4666 
z
" transform="scale(0.015625)"/>
       <path id="DejaVuSans-50" d="M 1259 4147 
L 1259 2394 
L 2053 2394 
Q 2494 2394 2734 2622 
Q 2975 2850 2975 3272 
Q 2975 3691 2734 3919 
Q 2494 4147 2053 4147 
L 1259 4147 
z
M 628 4666 
L 2053 4666 
Q 2838 4666 3239 4311 
Q 3641 3956 3641 3272 
Q 3641 2581 3239 2228 
Q 2838 1875 2053 1875 
L 1259 1875 
L 1259 0 
L 628 0 
L 628 4666 
z
" transform="scale(0.015625)"/>
       <path id="DejaVuSans-61" d="M 2194 1759 
Q 1497 1759 1228 1600 
Q 959 1441 959 1056 
Q 959 750 1161 570 
Q 1363 391 1709 391 
Q 2188 391 2477 730 
Q 2766 1069 2766 1631 
L 2766 1759 
L 2194 1759 
z
M 3341 1997 
L 3341 0 
L 2766 0 
L 2766 531 
Q 2569 213 2275 61 
Q 1981 -91 1556 -91 
Q 1019 -91 701 211 
Q 384 513 384 1019 
Q 384 1609 779 1909 
Q 1175 2209 1959 2209 
L 2766 2209 
L 2766 2266 
Q 2766 2663 2505 2880 
Q 2244 3097 1772 3097 
Q 1472 3097 1187 3025 
Q 903 2953 641 2809 
L 641 3341 
Q 956 3463 1253 3523 
Q 1550 3584 1831 3584 
Q 2591 3584 2966 3190 
Q 3341 2797 3341 1997 
z
" transform="scale(0.015625)"/>
       <path id="DejaVuSans-5d" d="M 1947 4863 
L 1947 -844 
L 622 -844 
L 622 -397 
L 1369 -397 
L 1369 4416 
L 622 4416 
L 622 4863 
L 1947 4863 
z
" transform="scale(0.015625)"/>
      </defs>
      <use xlink:href="#DejaVuSans-Oblique-45" transform="translate(0 0.015625)"/>
      <use xlink:href="#DejaVuSans-31" transform="translate(63.183594 -16.390625) scale(0.7)"/>
      <use xlink:href="#DejaVuSans-20" transform="translate(110.454102 0.015625)"/>
      <use xlink:href="#DejaVuSans-5b" transform="translate(142.241211 0.015625)"/>
      <use xlink:href="#DejaVuSans-4d" transform="translate(181.254883 0.015625)"/>
      <use xlink:href="#DejaVuSans-50" transform="translate(267.53418 0.015625)"/>
      <use xlink:href="#DejaVuSans-61" transform="translate(327.836914 0.015625)"/>
      <use xlink:href="#DejaVuSans-5d" transform="translate(389.116211 0.015625)"/>
     </g>
    </g>
    <g id="text_6">
     <!-- 1e5 -->
     <g transform="translate(270.708601 281.088197) scale(0.14 -0.14)">
      <defs>
       <path id="DejaVuSans-65" d="M 3597 1894 
L 3597 1613 
L 953 1613 
Q 991 1019 1311 708 
Q 1631 397 2203 397 
Q 2534 397 2845 478 
Q 3156 559 3463 722 
L 3463 178 
Q 3153 47 2828 -22 
Q 2503 -91 2169 -91 
Q 1331 -91 842 396 
Q 353 884 353 1716 
Q 353 2575 817 3079 
Q 1281 3584 2069 3584 
Q 2775 3584 3186 3129 
Q 3597 2675 3597 1894 
z
M 3022 2063 
Q 3016 2534 2758 2815 
Q 2500 3097 2075 3097 
Q 1594 3097 1305 2825 
Q 1016 2553 972 2059 
L 3022 2063 
z
" transform="scale(0.015625)"/>
      </defs>
      <use xlink:href="#DejaVuSans-31"/>
      <use xlink:href="#DejaVuSans-65" x="63.623047"/>
      <use xlink:href="#DejaVuSans-35" x="125.146484"/>
     </g>
    </g>
   </g>
   <g id="matplotlib.axis_2">
    <g id="ytick_1">
     <g id="line2d_5">
      <defs>
       <path id="m9ab47a8326" d="M 0 0 
L -3.5 0 
" style="stroke: #000000; stroke-width: 0.8"/>
      </defs>
      <g>
       <use xlink:href="#m9ab47a8326" x="58.72149" y="246.90101" style="stroke: #000000; stroke-width: 0.8"/>
      </g>
     </g>
     <g id="text_7">
      <!-- 0.00 -->
      <g transform="translate(20.549615 252.219916) scale(0.14 -0.14)">
       <defs>
        <path id="DejaVuSans-30" d="M 2034 4250 
Q 1547 4250 1301 3770 
Q 1056 3291 1056 2328 
Q 1056 1369 1301 889 
Q 1547 409 2034 409 
Q 2525 409 2770 889 
Q 3016 1369 3016 2328 
Q 3016 3291 2770 3770 
Q 2525 4250 2034 4250 
z
M 2034 4750 
Q 2819 4750 3233 4129 
Q 3647 3509 3647 2328 
Q 3647 1150 3233 529 
Q 2819 -91 2034 -91 
Q 1250 -91 836 529 
Q 422 1150 422 2328 
Q 422 3509 836 4129 
Q 1250 4750 2034 4750 
z
" transform="scale(0.015625)"/>
       </defs>
       <use xlink:href="#DejaVuSans-30"/>
       <use xlink:href="#DejaVuSans-2e" x="63.623047"/>
       <use xlink:href="#DejaVuSans-30" x="95.410156"/>
       <use xlink:href="#DejaVuSans-30" x="159.033203"/>
      </g>
     </g>
    </g>
    <g id="ytick_2">
     <g id="line2d_6">
      <g>
       <use xlink:href="#m9ab47a8326" x="58.72149" y="215.833437" style="stroke: #000000; stroke-width: 0.8"/>
      </g>
     </g>
     <g id="text_8">
      <!-- 0.25 -->
      <g transform="translate(20.549615 221.152343) scale(0.14 -0.14)">
       <defs>
        <path id="DejaVuSans-32" d="M 1228 531 
L 3431 531 
L 3431 0 
L 469 0 
L 469 531 
Q 828 903 1448 1529 
Q 2069 2156 2228 2338 
Q 2531 2678 2651 2914 
Q 2772 3150 2772 3378 
Q 2772 3750 2511 3984 
Q 2250 4219 1831 4219 
Q 1534 4219 1204 4116 
Q 875 4013 500 3803 
L 500 4441 
Q 881 4594 1212 4672 
Q 1544 4750 1819 4750 
Q 2544 4750 2975 4387 
Q 3406 4025 3406 3419 
Q 3406 3131 3298 2873 
Q 3191 2616 2906 2266 
Q 2828 2175 2409 1742 
Q 1991 1309 1228 531 
z
" transform="scale(0.015625)"/>
       </defs>
       <use xlink:href="#DejaVuSans-30"/>
       <use xlink:href="#DejaVuSans-2e" x="63.623047"/>
       <use xlink:href="#DejaVuSans-32" x="95.410156"/>
       <use xlink:href="#DejaVuSans-35" x="159.033203"/>
      </g>
     </g>
    </g>
    <g id="ytick_3">
     <g id="line2d_7">
      <g>
       <use xlink:href="#m9ab47a8326" x="58.72149" y="184.765864" style="stroke: #000000; stroke-width: 0.8"/>
      </g>
     </g>
     <g id="text_9">
      <!-- 0.50 -->
      <g transform="translate(20.549615 190.08477) scale(0.14 -0.14)">
       <use xlink:href="#DejaVuSans-30"/>
       <use xlink:href="#DejaVuSans-2e" x="63.623047"/>
       <use xlink:href="#DejaVuSans-35" x="95.410156"/>
       <use xlink:href="#DejaVuSans-30" x="159.033203"/>
      </g>
     </g>
    </g>
    <g id="ytick_4">
     <g id="line2d_8">
      <g>
       <use xlink:href="#m9ab47a8326" x="58.72149" y="153.698291" style="stroke: #000000; stroke-width: 0.8"/>
      </g>
     </g>
     <g id="text_10">
      <!-- 0.75 -->
      <g transform="translate(20.549615 159.017197) scale(0.14 -0.14)">
       <use xlink:href="#DejaVuSans-30"/>
       <use xlink:href="#DejaVuSans-2e" x="63.623047"/>
       <use xlink:href="#DejaVuSans-37" x="95.410156"/>
       <use xlink:href="#DejaVuSans-35" x="159.033203"/>
      </g>
     </g>
    </g>
    <g id="ytick_5">
     <g id="line2d_9">
      <g>
       <use xlink:href="#m9ab47a8326" x="58.72149" y="122.630718" style="stroke: #000000; stroke-width: 0.8"/>
      </g>
     </g>
     <g id="text_11">
      <!-- 1.00 -->
      <g transform="translate(20.549615 127.949624) scale(0.14 -0.14)">
       <use xlink:href="#DejaVuSans-31"/>
       <use xlink:href="#DejaVuSans-2e" x="63.623047"/>
       <use xlink:href="#DejaVuSans-30" x="95.410156"/>
       <use xlink:href="#DejaVuSans-30" x="159.033203"/>
      </g>
     </g>
    </g>
    <g id="ytick_6">
     <g id="line2d_10">
      <g>
       <use xlink:href="#m9ab47a8326" x="58.72149" y="91.563145" style="stroke: #000000; stroke-width: 0.8"/>
      </g>
     </g>
     <g id="text_12">
      <!-- 1.25 -->
      <g transform="translate(20.549615 96.882051) scale(0.14 -0.14)">
       <use xlink:href="#DejaVuSans-31"/>
       <use xlink:href="#DejaVuSans-2e" x="63.623047"/>
       <use xlink:href="#DejaVuSans-32" x="95.410156"/>
       <use xlink:href="#DejaVuSans-35" x="159.033203"/>
      </g>
     </g>
    </g>
    <g id="ytick_7">
     <g id="line2d_11">
      <g>
       <use xlink:href="#m9ab47a8326" x="58.72149" y="60.495572" style="stroke: #000000; stroke-width: 0.8"/>
      </g>
     </g>
     <g id="text_13">
      <!-- 1.50 -->
      <g transform="translate(20.549615 65.814478) scale(0.14 -0.14)">
       <use xlink:href="#DejaVuSans-31"/>
       <use xlink:href="#DejaVuSans-2e" x="63.623047"/>
       <use xlink:href="#DejaVuSans-35" x="95.410156"/>
       <use xlink:href="#DejaVuSans-30" x="159.033203"/>
      </g>
     </g>
    </g>
    <g id="ytick_8">
     <g id="line2d_12">
      <g>
       <use xlink:href="#m9ab47a8326" x="58.72149" y="29.427999" style="stroke: #000000; stroke-width: 0.8"/>
      </g>
     </g>
     <g id="text_14">
      <!-- 1.75 -->
      <g transform="translate(20.549615 34.746905) scale(0.14 -0.14)">
       <use xlink:href="#DejaVuSans-31"/>
       <use xlink:href="#DejaVuSans-2e" x="63.623047"/>
       <use xlink:href="#DejaVuSans-37" x="95.410156"/>
       <use xlink:href="#DejaVuSans-35" x="159.033203"/>
      </g>
     </g>
    </g>
    <g id="text_15">
     <!-- PDF -->
     <g transform="translate(13.638053 145.406406) rotate(-90) scale(0.14 -0.14)">
      <defs>
       <path id="DejaVuSans-44" d="M 1259 4147 
L 1259 519 
L 2022 519 
Q 2988 519 3436 956 
Q 3884 1394 3884 2338 
Q 3884 3275 3436 3711 
Q 2988 4147 2022 4147 
L 1259 4147 
z
M 628 4666 
L 1925 4666 
Q 3281 4666 3915 4102 
Q 4550 3538 4550 2338 
Q 4550 1131 3912 565 
Q 3275 0 1925 0 
L 628 0 
L 628 4666 
z
" transform="scale(0.015625)"/>
       <path id="DejaVuSans-46" d="M 628 4666 
L 3309 4666 
L 3309 4134 
L 1259 4134 
L 1259 2759 
L 3109 2759 
L 3109 2228 
L 1259 2228 
L 1259 0 
L 628 0 
L 628 4666 
z
" transform="scale(0.015625)"/>
      </defs>
      <use xlink:href="#DejaVuSans-50"/>
      <use xlink:href="#DejaVuSans-44" x="60.302734"/>
      <use xlink:href="#DejaVuSans-46" x="137.304688"/>
     </g>
    </g>
    <g id="text_16">
     <!-- 1e−4 -->
     <g transform="translate(58.72149 13.638052) scale(0.14 -0.14)">
      <defs>
       <path id="DejaVuSans-2212" d="M 678 2272 
L 4684 2272 
L 4684 1741 
L 678 1741 
L 678 2272 
z
" transform="scale(0.015625)"/>
      </defs>
      <use xlink:href="#DejaVuSans-31"/>
      <use xlink:href="#DejaVuSans-65" x="63.623047"/>
      <use xlink:href="#DejaVuSans-2212" x="125.146484"/>
      <use xlink:href="#DejaVuSans-34" x="208.935547"/>
     </g>
    </g>
   </g>
   <g id="line2d_13">
    <path d="M 73.205074 245.637357 
L 77.553968 245.002006 
L 81.902862 244.103732 
L 86.251755 242.862169 
L 90.600649 241.185048 
L 94.949543 238.971737 
L 99.298436 236.119267 
L 103.64733 232.531035 
L 107.996224 228.127972 
L 112.345117 222.861557 
L 116.694011 216.727482 
L 121.042905 209.778349 
L 125.391798 202.133433 
L 129.740692 193.983481 
L 134.089586 185.588793 
L 138.438479 177.269475 
L 142.787373 169.387679 
L 147.136267 162.322833 
L 151.48516 156.442022 
L 155.834054 152.068637 
L 160.182947 149.452996 
L 164.531841 148.748624 
L 168.880735 149.997343 
L 173.229628 153.125152 
L 177.578522 157.94949 
L 181.927416 164.196883 
L 186.276309 171.528586 
L 190.625203 179.570909 
L 194.974097 187.946432 
L 199.32299 196.302551 
L 203.671884 204.334452 
L 208.020778 211.800675 
L 212.369671 218.530609 
L 216.718565 224.424381 
L 221.067459 229.446472 
L 225.416352 233.614924 
L 229.765246 236.98819 
L 234.11414 239.651497 
L 238.463033 241.704258 
L 242.811927 243.24955 
L 247.160821 244.386156 
L 251.509714 245.203273 
L 255.858608 245.777597 
L 260.207502 246.172358 
L 264.556395 246.437764 
L 268.905289 246.612331 
L 273.254183 246.724678 
L 277.603076 246.795436 
L 281.95197 246.839052 
L 286.300863 246.865369 
" clip-path="url(#p4d82c4c53c)" style="fill: none; stroke: #2ca02c; stroke-width: 1.5; stroke-linecap: square"/>
   </g>
   <g id="patch_33">
    <path d="M 58.72149 246.90101 
L 58.72149 16.638052 
" style="fill: none; stroke: #000000; stroke-width: 0.8; stroke-linejoin: miter; stroke-linecap: square"/>
   </g>
   <g id="patch_34">
    <path d="M 297.137976 246.90101 
L 297.137976 16.638052 
" style="fill: none; stroke: #000000; stroke-width: 0.8; stroke-linejoin: miter; stroke-linecap: square"/>
   </g>
   <g id="patch_35">
    <path d="M 58.72149 246.90101 
L 297.137976 246.90101 
" style="fill: none; stroke: #000000; stroke-width: 0.8; stroke-linejoin: miter; stroke-linecap: square"/>
   </g>
   <g id="patch_36">
    <path d="M 58.72149 16.638052 
L 297.137976 16.638052 
" style="fill: none; stroke: #000000; stroke-width: 0.8; stroke-linejoin: miter; stroke-linecap: square"/>
   </g>
   <g id="legend_1">
    <g id="patch_37">
     <path d="M 180.675476 68.936802 
L 287.337976 68.936802 
Q 290.137976 68.936802 290.137976 66.136802 
L 290.137976 26.438053 
Q 290.137976 23.638053 287.337976 23.638053 
L 180.675476 23.638053 
Q 177.875476 23.638053 177.875476 26.438053 
L 177.875476 66.136802 
Q 177.875476 68.936802 180.675476 68.936802 
z
" style="fill: #ffffff; opacity: 0.8; stroke: #cccccc; stroke-linejoin: miter"/>
    </g>
    <g id="line2d_14">
     <path d="M 183.475476 34.975865 
L 197.475476 34.975865 
L 211.475476 34.975865 
" style="fill: none; stroke: #2ca02c; stroke-width: 1.5; stroke-linecap: square"/>
    </g>
    <g id="text_17">
     <!-- Prior -->
     <g transform="translate(222.675476 39.875865) scale(0.14 -0.14)">
      <defs>
       <path id="DejaVuSans-72" d="M 2631 2963 
Q 2534 3019 2420 3045 
Q 2306 3072 2169 3072 
Q 1681 3072 1420 2755 
Q 1159 2438 1159 1844 
L 1159 0 
L 581 0 
L 581 3500 
L 1159 3500 
L 1159 2956 
Q 1341 3275 1631 3429 
Q 1922 3584 2338 3584 
Q 2397 3584 2469 3576 
Q 2541 3569 2628 3553 
L 2631 2963 
z
" transform="scale(0.015625)"/>
       <path id="DejaVuSans-69" d="M 603 3500 
L 1178 3500 
L 1178 0 
L 603 0 
L 603 3500 
z
M 603 4863 
L 1178 4863 
L 1178 4134 
L 603 4134 
L 603 4863 
z
" transform="scale(0.015625)"/>
       <path id="DejaVuSans-6f" d="M 1959 3097 
Q 1497 3097 1228 2736 
Q 959 2375 959 1747 
Q 959 1119 1226 758 
Q 1494 397 1959 397 
Q 2419 397 2687 759 
Q 2956 1122 2956 1747 
Q 2956 2369 2687 2733 
Q 2419 3097 1959 3097 
z
M 1959 3584 
Q 2709 3584 3137 3096 
Q 3566 2609 3566 1747 
Q 3566 888 3137 398 
Q 2709 -91 1959 -91 
Q 1206 -91 779 398 
Q 353 888 353 1747 
Q 353 2609 779 3096 
Q 1206 3584 1959 3584 
z
" transform="scale(0.015625)"/>
      </defs>
      <use xlink:href="#DejaVuSans-50"/>
      <use xlink:href="#DejaVuSans-72" x="58.552734"/>
      <use xlink:href="#DejaVuSans-69" x="99.666016"/>
      <use xlink:href="#DejaVuSans-6f" x="127.449219"/>
      <use xlink:href="#DejaVuSans-72" x="188.630859"/>
     </g>
    </g>
    <g id="patch_38">
     <path d="M 183.475476 60.42524 
L 211.475476 60.42524 
L 211.475476 50.62524 
L 183.475476 50.62524 
z
" style="fill: #1f77b4"/>
    </g>
    <g id="text_18">
     <!-- Posterior -->
     <g transform="translate(222.675476 60.42524) scale(0.14 -0.14)">
      <defs>
       <path id="DejaVuSans-73" d="M 2834 3397 
L 2834 2853 
Q 2591 2978 2328 3040 
Q 2066 3103 1784 3103 
Q 1356 3103 1142 2972 
Q 928 2841 928 2578 
Q 928 2378 1081 2264 
Q 1234 2150 1697 2047 
L 1894 2003 
Q 2506 1872 2764 1633 
Q 3022 1394 3022 966 
Q 3022 478 2636 193 
Q 2250 -91 1575 -91 
Q 1294 -91 989 -36 
Q 684 19 347 128 
L 347 722 
Q 666 556 975 473 
Q 1284 391 1588 391 
Q 1994 391 2212 530 
Q 2431 669 2431 922 
Q 2431 1156 2273 1281 
Q 2116 1406 1581 1522 
L 1381 1569 
Q 847 1681 609 1914 
Q 372 2147 372 2553 
Q 372 3047 722 3315 
Q 1072 3584 1716 3584 
Q 2034 3584 2315 3537 
Q 2597 3491 2834 3397 
z
" transform="scale(0.015625)"/>
       <path id="DejaVuSans-74" d="M 1172 4494 
L 1172 3500 
L 2356 3500 
L 2356 3053 
L 1172 3053 
L 1172 1153 
Q 1172 725 1289 603 
Q 1406 481 1766 481 
L 2356 481 
L 2356 0 
L 1766 0 
Q 1100 0 847 248 
Q 594 497 594 1153 
L 594 3053 
L 172 3053 
L 172 3500 
L 594 3500 
L 594 4494 
L 1172 4494 
z
" transform="scale(0.015625)"/>
      </defs>
      <use xlink:href="#DejaVuSans-50"/>
      <use xlink:href="#DejaVuSans-6f" x="56.677734"/>
      <use xlink:href="#DejaVuSans-73" x="117.859375"/>
      <use xlink:href="#DejaVuSans-74" x="169.958984"/>
      <use xlink:href="#DejaVuSans-65" x="209.167969"/>
      <use xlink:href="#DejaVuSans-72" x="270.691406"/>
      <use xlink:href="#DejaVuSans-69" x="311.804688"/>
      <use xlink:href="#DejaVuSans-6f" x="339.587891"/>
      <use xlink:href="#DejaVuSans-72" x="400.769531"/>
     </g>
    </g>
   </g>
  </g>
  <g id="axes_2">
   <g id="patch_39">
    <path d="M 359.125331 246.90101 
L 597.541818 246.90101 
L 597.541818 16.638052 
L 359.125331 16.638052 
z
" style="fill: #ffffff"/>
   </g>
   <g id="patch_40">
    <path d="M 459.648243 246.90101 
L 462.246333 246.90101 
L 462.246333 245.574403 
L 459.648243 245.574403 
z
" clip-path="url(#p83837a0d84)" style="fill: #1f77b4"/>
   </g>
   <g id="patch_41">
    <path d="M 462.53501 246.90101 
L 465.1331 246.90101 
L 465.1331 246.458808 
L 462.53501 246.458808 
z
" clip-path="url(#p83837a0d84)" style="fill: #1f77b4"/>
   </g>
   <g id="patch_42">
    <path d="M 465.421776 246.90101 
L 468.019866 246.90101 
L 468.019866 242.921188 
L 465.421776 242.921188 
z
" clip-path="url(#p83837a0d84)" style="fill: #1f77b4"/>
   </g>
   <g id="patch_43">
    <path d="M 468.308543 246.90101 
L 470.906633 246.90101 
L 470.906633 241.594581 
L 468.308543 241.594581 
z
" clip-path="url(#p83837a0d84)" style="fill: #1f77b4"/>
   </g>
   <g id="patch_44">
    <path d="M 471.195309 246.90101 
L 473.793399 246.90101 
L 473.793399 230.097318 
L 471.195309 230.097318 
z
" clip-path="url(#p83837a0d84)" style="fill: #1f77b4"/>
   </g>
   <g id="patch_45">
    <path d="M 474.082076 246.90101 
L 476.680166 246.90101 
L 476.680166 223.02208 
L 474.082076 223.02208 
z
" clip-path="url(#p83837a0d84)" style="fill: #1f77b4"/>
   </g>
   <g id="patch_46">
    <path d="M 476.968842 246.90101 
L 479.566932 246.90101 
L 479.566932 213.735829 
L 476.968842 213.735829 
z
" clip-path="url(#p83837a0d84)" style="fill: #1f77b4"/>
   </g>
   <g id="patch_47">
    <path d="M 479.855609 246.90101 
L 482.453699 246.90101 
L 482.453699 200.469757 
L 479.855609 200.469757 
z
" clip-path="url(#p83837a0d84)" style="fill: #1f77b4"/>
   </g>
   <g id="patch_48">
    <path d="M 482.742375 246.90101 
L 485.340465 246.90101 
L 485.340465 184.992672 
L 482.742375 184.992672 
z
" clip-path="url(#p83837a0d84)" style="fill: #1f77b4"/>
   </g>
   <g id="patch_49">
    <path d="M 485.629142 246.90101 
L 488.227232 246.90101 
L 488.227232 156.249515 
L 485.629142 156.249515 
z
" clip-path="url(#p83837a0d84)" style="fill: #1f77b4"/>
   </g>
   <g id="patch_50">
    <path d="M 488.515908 246.90101 
L 491.113998 246.90101 
L 491.113998 137.677014 
L 488.515908 137.677014 
z
" clip-path="url(#p83837a0d84)" style="fill: #1f77b4"/>
   </g>
   <g id="patch_51">
    <path d="M 491.402675 246.90101 
L 494.000765 246.90101 
L 494.000765 108.049453 
L 491.402675 108.049453 
z
" clip-path="url(#p83837a0d84)" style="fill: #1f77b4"/>
   </g>
   <g id="patch_52">
    <path d="M 494.289441 246.90101 
L 496.887531 246.90101 
L 496.887531 86.823737 
L 494.289441 86.823737 
z
" clip-path="url(#p83837a0d84)" style="fill: #1f77b4"/>
   </g>
   <g id="patch_53">
    <path d="M 497.176208 246.90101 
L 499.774298 246.90101 
L 499.774298 91.687963 
L 497.176208 91.687963 
z
" clip-path="url(#p83837a0d84)" style="fill: #1f77b4"/>
   </g>
   <g id="patch_54">
    <path d="M 500.062974 246.90101 
L 502.661064 246.90101 
L 502.661064 76.653081 
L 500.062974 76.653081 
z
" clip-path="url(#p83837a0d84)" style="fill: #1f77b4"/>
   </g>
   <g id="patch_55">
    <path d="M 502.949741 246.90101 
L 505.547831 246.90101 
L 505.547831 80.632903 
L 502.949741 80.632903 
z
" clip-path="url(#p83837a0d84)" style="fill: #1f77b4"/>
   </g>
   <g id="patch_56">
    <path d="M 505.836507 246.90101 
L 508.434597 246.90101 
L 508.434597 104.954036 
L 505.836507 104.954036 
z
" clip-path="url(#p83837a0d84)" style="fill: #1f77b4"/>
   </g>
   <g id="patch_57">
    <path d="M 508.723274 246.90101 
L 511.321364 246.90101 
L 511.321364 116.893501 
L 508.723274 116.893501 
z
" clip-path="url(#p83837a0d84)" style="fill: #1f77b4"/>
   </g>
   <g id="patch_58">
    <path d="M 511.61004 246.90101 
L 514.20813 246.90101 
L 514.20813 140.330229 
L 511.61004 140.330229 
z
" clip-path="url(#p83837a0d84)" style="fill: #1f77b4"/>
   </g>
   <g id="patch_59">
    <path d="M 514.496807 246.90101 
L 517.094897 246.90101 
L 517.094897 173.053207 
L 514.496807 173.053207 
z
" clip-path="url(#p83837a0d84)" style="fill: #1f77b4"/>
   </g>
   <g id="patch_60">
    <path d="M 517.383574 246.90101 
L 519.981663 246.90101 
L 519.981663 190.741304 
L 517.383574 190.741304 
z
" clip-path="url(#p83837a0d84)" style="fill: #1f77b4"/>
   </g>
   <g id="patch_61">
    <path d="M 520.27034 246.90101 
L 522.86843 246.90101 
L 522.86843 213.293627 
L 520.27034 213.293627 
z
" clip-path="url(#p83837a0d84)" style="fill: #1f77b4"/>
   </g>
   <g id="patch_62">
    <path d="M 523.157107 246.90101 
L 525.755196 246.90101 
L 525.755196 225.675294 
L 523.157107 225.675294 
z
" clip-path="url(#p83837a0d84)" style="fill: #1f77b4"/>
   </g>
   <g id="patch_63">
    <path d="M 526.043873 246.90101 
L 528.641963 246.90101 
L 528.641963 235.403747 
L 526.043873 235.403747 
z
" clip-path="url(#p83837a0d84)" style="fill: #1f77b4"/>
   </g>
   <g id="patch_64">
    <path d="M 528.93064 246.90101 
L 531.528729 246.90101 
L 531.528729 242.036783 
L 528.93064 242.036783 
z
" clip-path="url(#p83837a0d84)" style="fill: #1f77b4"/>
   </g>
   <g id="patch_65">
    <path d="M 531.817406 246.90101 
L 534.415496 246.90101 
L 534.415496 244.247796 
L 531.817406 244.247796 
z
" clip-path="url(#p83837a0d84)" style="fill: #1f77b4"/>
   </g>
   <g id="patch_66">
    <path d="M 534.704173 246.90101 
L 537.302262 246.90101 
L 537.302262 245.1322 
L 534.704173 245.1322 
z
" clip-path="url(#p83837a0d84)" style="fill: #1f77b4"/>
   </g>
   <g id="patch_67">
    <path d="M 537.590939 246.90101 
L 540.189029 246.90101 
L 540.189029 246.90101 
L 537.590939 246.90101 
z
" clip-path="url(#p83837a0d84)" style="fill: #1f77b4"/>
   </g>
   <g id="patch_68">
    <path d="M 540.477706 246.90101 
L 543.075795 246.90101 
L 543.075795 246.458808 
L 540.477706 246.458808 
z
" clip-path="url(#p83837a0d84)" style="fill: #1f77b4"/>
   </g>
   <g id="patch_69">
    <path d="M 543.364472 246.90101 
L 545.962562 246.90101 
L 545.962562 246.458808 
L 543.364472 246.458808 
z
" clip-path="url(#p83837a0d84)" style="fill: #1f77b4"/>
   </g>
   <g id="matplotlib.axis_3">
    <g id="xtick_5">
     <g id="line2d_15">
      <g>
       <use xlink:href="#m9496685b0a" x="369.962445" y="246.90101" style="stroke: #000000; stroke-width: 0.8"/>
      </g>
     </g>
     <g id="text_19">
      <!-- 0.6 -->
      <g transform="translate(358.830257 264.538822) scale(0.14 -0.14)">
       <use xlink:href="#DejaVuSans-30"/>
       <use xlink:href="#DejaVuSans-2e" x="63.623047"/>
       <use xlink:href="#DejaVuSans-36" x="95.410156"/>
      </g>
     </g>
    </g>
    <g id="xtick_6">
     <g id="line2d_16">
      <g>
       <use xlink:href="#m9496685b0a" x="431.888805" y="246.90101" style="stroke: #000000; stroke-width: 0.8"/>
      </g>
     </g>
     <g id="text_20">
      <!-- 0.8 -->
      <g transform="translate(420.756617 264.538822) scale(0.14 -0.14)">
       <defs>
        <path id="DejaVuSans-38" d="M 2034 2216 
Q 1584 2216 1326 1975 
Q 1069 1734 1069 1313 
Q 1069 891 1326 650 
Q 1584 409 2034 409 
Q 2484 409 2743 651 
Q 3003 894 3003 1313 
Q 3003 1734 2745 1975 
Q 2488 2216 2034 2216 
z
M 1403 2484 
Q 997 2584 770 2862 
Q 544 3141 544 3541 
Q 544 4100 942 4425 
Q 1341 4750 2034 4750 
Q 2731 4750 3128 4425 
Q 3525 4100 3525 3541 
Q 3525 3141 3298 2862 
Q 3072 2584 2669 2484 
Q 3125 2378 3379 2068 
Q 3634 1759 3634 1313 
Q 3634 634 3220 271 
Q 2806 -91 2034 -91 
Q 1263 -91 848 271 
Q 434 634 434 1313 
Q 434 1759 690 2068 
Q 947 2378 1403 2484 
z
M 1172 3481 
Q 1172 3119 1398 2916 
Q 1625 2713 2034 2713 
Q 2441 2713 2670 2916 
Q 2900 3119 2900 3481 
Q 2900 3844 2670 4047 
Q 2441 4250 2034 4250 
Q 1625 4250 1398 4047 
Q 1172 3844 1172 3481 
z
" transform="scale(0.015625)"/>
       </defs>
       <use xlink:href="#DejaVuSans-30"/>
       <use xlink:href="#DejaVuSans-2e" x="63.623047"/>
       <use xlink:href="#DejaVuSans-38" x="95.410156"/>
      </g>
     </g>
    </g>
    <g id="xtick_7">
     <g id="line2d_17">
      <g>
       <use xlink:href="#m9496685b0a" x="493.815165" y="246.90101" style="stroke: #000000; stroke-width: 0.8"/>
      </g>
     </g>
     <g id="text_21">
      <!-- 1.0 -->
      <g transform="translate(482.682977 264.538822) scale(0.14 -0.14)">
       <use xlink:href="#DejaVuSans-31"/>
       <use xlink:href="#DejaVuSans-2e" x="63.623047"/>
       <use xlink:href="#DejaVuSans-30" x="95.410156"/>
      </g>
     </g>
    </g>
    <g id="xtick_8">
     <g id="line2d_18">
      <g>
       <use xlink:href="#m9496685b0a" x="555.741525" y="246.90101" style="stroke: #000000; stroke-width: 0.8"/>
      </g>
     </g>
     <g id="text_22">
      <!-- 1.2 -->
      <g transform="translate(544.609337 264.538822) scale(0.14 -0.14)">
       <use xlink:href="#DejaVuSans-31"/>
       <use xlink:href="#DejaVuSans-2e" x="63.623047"/>
       <use xlink:href="#DejaVuSans-32" x="95.410156"/>
      </g>
     </g>
    </g>
    <g id="text_23">
     <!-- $E_2$ [MPa] -->
     <g transform="translate(448.303575 282.088197) scale(0.14 -0.14)">
      <use xlink:href="#DejaVuSans-Oblique-45" transform="translate(0 0.015625)"/>
      <use xlink:href="#DejaVuSans-32" transform="translate(63.183594 -16.390625) scale(0.7)"/>
      <use xlink:href="#DejaVuSans-20" transform="translate(110.454102 0.015625)"/>
      <use xlink:href="#DejaVuSans-5b" transform="translate(142.241211 0.015625)"/>
      <use xlink:href="#DejaVuSans-4d" transform="translate(181.254883 0.015625)"/>
      <use xlink:href="#DejaVuSans-50" transform="translate(267.53418 0.015625)"/>
      <use xlink:href="#DejaVuSans-61" transform="translate(327.836914 0.015625)"/>
      <use xlink:href="#DejaVuSans-5d" transform="translate(389.116211 0.015625)"/>
     </g>
    </g>
    <g id="text_24">
     <!-- 1e4 -->
     <g transform="translate(571.112443 281.088197) scale(0.14 -0.14)">
      <use xlink:href="#DejaVuSans-31"/>
      <use xlink:href="#DejaVuSans-65" x="63.623047"/>
      <use xlink:href="#DejaVuSans-34" x="125.146484"/>
     </g>
    </g>
   </g>
   <g id="matplotlib.axis_4">
    <g id="ytick_9">
     <g id="line2d_19">
      <g>
       <use xlink:href="#m9ab47a8326" x="359.125331" y="246.90101" style="stroke: #000000; stroke-width: 0.8"/>
      </g>
     </g>
     <g id="text_25">
      <!-- 0.0000 -->
      <g transform="translate(303.138456 252.219916) scale(0.14 -0.14)">
       <use xlink:href="#DejaVuSans-30"/>
       <use xlink:href="#DejaVuSans-2e" x="63.623047"/>
       <use xlink:href="#DejaVuSans-30" x="95.410156"/>
       <use xlink:href="#DejaVuSans-30" x="159.033203"/>
       <use xlink:href="#DejaVuSans-30" x="222.65625"/>
       <use xlink:href="#DejaVuSans-30" x="286.279297"/>
      </g>
     </g>
    </g>
    <g id="ytick_10">
     <g id="line2d_20">
      <g>
       <use xlink:href="#m9ab47a8326" x="359.125331" y="213.918994" style="stroke: #000000; stroke-width: 0.8"/>
      </g>
     </g>
     <g id="text_26">
      <!-- 0.0002 -->
      <g transform="translate(303.138456 219.2379) scale(0.14 -0.14)">
       <use xlink:href="#DejaVuSans-30"/>
       <use xlink:href="#DejaVuSans-2e" x="63.623047"/>
       <use xlink:href="#DejaVuSans-30" x="95.410156"/>
       <use xlink:href="#DejaVuSans-30" x="159.033203"/>
       <use xlink:href="#DejaVuSans-30" x="222.65625"/>
       <use xlink:href="#DejaVuSans-32" x="286.279297"/>
      </g>
     </g>
    </g>
    <g id="ytick_11">
     <g id="line2d_21">
      <g>
       <use xlink:href="#m9ab47a8326" x="359.125331" y="180.936978" style="stroke: #000000; stroke-width: 0.8"/>
      </g>
     </g>
     <g id="text_27">
      <!-- 0.0004 -->
      <g transform="translate(303.138456 186.255885) scale(0.14 -0.14)">
       <use xlink:href="#DejaVuSans-30"/>
       <use xlink:href="#DejaVuSans-2e" x="63.623047"/>
       <use xlink:href="#DejaVuSans-30" x="95.410156"/>
       <use xlink:href="#DejaVuSans-30" x="159.033203"/>
       <use xlink:href="#DejaVuSans-30" x="222.65625"/>
       <use xlink:href="#DejaVuSans-34" x="286.279297"/>
      </g>
     </g>
    </g>
    <g id="ytick_12">
     <g id="line2d_22">
      <g>
       <use xlink:href="#m9ab47a8326" x="359.125331" y="147.954963" style="stroke: #000000; stroke-width: 0.8"/>
      </g>
     </g>
     <g id="text_28">
      <!-- 0.0006 -->
      <g transform="translate(303.138456 153.273869) scale(0.14 -0.14)">
       <use xlink:href="#DejaVuSans-30"/>
       <use xlink:href="#DejaVuSans-2e" x="63.623047"/>
       <use xlink:href="#DejaVuSans-30" x="95.410156"/>
       <use xlink:href="#DejaVuSans-30" x="159.033203"/>
       <use xlink:href="#DejaVuSans-30" x="222.65625"/>
       <use xlink:href="#DejaVuSans-36" x="286.279297"/>
      </g>
     </g>
    </g>
    <g id="ytick_13">
     <g id="line2d_23">
      <g>
       <use xlink:href="#m9ab47a8326" x="359.125331" y="114.972947" style="stroke: #000000; stroke-width: 0.8"/>
      </g>
     </g>
     <g id="text_29">
      <!-- 0.0008 -->
      <g transform="translate(303.138456 120.291853) scale(0.14 -0.14)">
       <use xlink:href="#DejaVuSans-30"/>
       <use xlink:href="#DejaVuSans-2e" x="63.623047"/>
       <use xlink:href="#DejaVuSans-30" x="95.410156"/>
       <use xlink:href="#DejaVuSans-30" x="159.033203"/>
       <use xlink:href="#DejaVuSans-30" x="222.65625"/>
       <use xlink:href="#DejaVuSans-38" x="286.279297"/>
      </g>
     </g>
    </g>
    <g id="ytick_14">
     <g id="line2d_24">
      <g>
       <use xlink:href="#m9ab47a8326" x="359.125331" y="81.990931" style="stroke: #000000; stroke-width: 0.8"/>
      </g>
     </g>
     <g id="text_30">
      <!-- 0.0010 -->
      <g transform="translate(303.138456 87.309837) scale(0.14 -0.14)">
       <use xlink:href="#DejaVuSans-30"/>
       <use xlink:href="#DejaVuSans-2e" x="63.623047"/>
       <use xlink:href="#DejaVuSans-30" x="95.410156"/>
       <use xlink:href="#DejaVuSans-30" x="159.033203"/>
       <use xlink:href="#DejaVuSans-31" x="222.65625"/>
       <use xlink:href="#DejaVuSans-30" x="286.279297"/>
      </g>
     </g>
    </g>
    <g id="ytick_15">
     <g id="line2d_25">
      <g>
       <use xlink:href="#m9ab47a8326" x="359.125331" y="49.008915" style="stroke: #000000; stroke-width: 0.8"/>
      </g>
     </g>
     <g id="text_31">
      <!-- 0.0012 -->
      <g transform="translate(303.138456 54.327822) scale(0.14 -0.14)">
       <use xlink:href="#DejaVuSans-30"/>
       <use xlink:href="#DejaVuSans-2e" x="63.623047"/>
       <use xlink:href="#DejaVuSans-30" x="95.410156"/>
       <use xlink:href="#DejaVuSans-30" x="159.033203"/>
       <use xlink:href="#DejaVuSans-31" x="222.65625"/>
       <use xlink:href="#DejaVuSans-32" x="286.279297"/>
      </g>
     </g>
    </g>
   </g>
   <g id="line2d_26">
    <path d="M 369.962445 246.90101 
L 374.385756 246.90101 
L 378.809067 246.90101 
L 383.232379 246.90101 
L 387.65569 246.90101 
L 392.079002 246.90101 
L 396.502313 246.90101 
L 400.925625 246.90101 
L 405.348936 246.90101 
L 409.772247 246.90101 
L 414.195559 246.90101 
L 418.61887 246.90101 
L 423.042182 246.90101 
L 427.465493 246.90101 
L 431.888805 246.90101 
L 436.312116 246.90101 
L 440.735428 246.90101 
L 445.158739 246.901009 
L 449.58205 246.900992 
L 454.005362 246.900765 
L 458.428673 246.898368 
L 462.851985 246.878257 
L 467.275296 246.744828 
L 471.698608 246.046466 
L 476.121919 243.174017 
L 480.54523 233.944043 
L 484.968542 210.994882 
L 489.391853 167.586191 
L 493.815165 107.24468 
L 498.238476 50.886853 
L 502.661788 27.602955 
L 507.085099 51.330826 
L 511.508411 107.876608 
L 515.931722 168.123917 
L 520.355033 211.319089 
L 524.778345 234.090118 
L 529.201656 243.224381 
L 533.624968 246.059923 
L 538.048279 246.747636 
L 542.471591 246.878716 
L 546.894902 246.898427 
L 551.318213 246.900771 
L 555.741525 246.900992 
L 560.164836 246.901009 
L 564.588148 246.90101 
L 569.011459 246.90101 
L 573.434771 246.90101 
L 577.858082 246.90101 
L 582.281394 246.90101 
L 586.704705 246.90101 
" clip-path="url(#p83837a0d84)" style="fill: none; stroke: #2ca02c; stroke-width: 1.5; stroke-linecap: square"/>
   </g>
   <g id="patch_70">
    <path d="M 359.125331 246.90101 
L 359.125331 16.638052 
" style="fill: none; stroke: #000000; stroke-width: 0.8; stroke-linejoin: miter; stroke-linecap: square"/>
   </g>
   <g id="patch_71">
    <path d="M 597.541818 246.90101 
L 597.541818 16.638052 
" style="fill: none; stroke: #000000; stroke-width: 0.8; stroke-linejoin: miter; stroke-linecap: square"/>
   </g>
   <g id="patch_72">
    <path d="M 359.125331 246.90101 
L 597.541818 246.90101 
" style="fill: none; stroke: #000000; stroke-width: 0.8; stroke-linejoin: miter; stroke-linecap: square"/>
   </g>
   <g id="patch_73">
    <path d="M 359.125331 16.638052 
L 597.541818 16.638052 
" style="fill: none; stroke: #000000; stroke-width: 0.8; stroke-linejoin: miter; stroke-linecap: square"/>
   </g>
  </g>
  <g id="axes_3">
   <g id="patch_74">
    <path d="M 628.357298 246.90101 
L 866.773784 246.90101 
L 866.773784 16.638052 
L 628.357298 16.638052 
z
" style="fill: #ffffff"/>
   </g>
   <g id="patch_75">
    <path d="M 643.46717 246.90101 
L 649.541437 246.90101 
L 649.541437 246.018036 
L 643.46717 246.018036 
z
" clip-path="url(#p39f81b45e9)" style="fill: #1f77b4"/>
   </g>
   <g id="patch_76">
    <path d="M 650.216355 246.90101 
L 656.290623 246.90101 
L 656.290623 246.459523 
L 650.216355 246.459523 
z
" clip-path="url(#p39f81b45e9)" style="fill: #1f77b4"/>
   </g>
   <g id="patch_77">
    <path d="M 656.965541 246.90101 
L 663.039808 246.90101 
L 663.039808 245.135063 
L 656.965541 245.135063 
z
" clip-path="url(#p39f81b45e9)" style="fill: #1f77b4"/>
   </g>
   <g id="patch_78">
    <path d="M 663.714727 246.90101 
L 669.788994 246.90101 
L 669.788994 242.486142 
L 663.714727 242.486142 
z
" clip-path="url(#p39f81b45e9)" style="fill: #1f77b4"/>
   </g>
   <g id="patch_79">
    <path d="M 670.463913 246.90101 
L 676.53818 246.90101 
L 676.53818 242.044655 
L 670.463913 242.044655 
z
" clip-path="url(#p39f81b45e9)" style="fill: #1f77b4"/>
   </g>
   <g id="patch_80">
    <path d="M 677.213098 246.90101 
L 683.287365 246.90101 
L 683.287365 234.53938 
L 677.213098 234.53938 
z
" clip-path="url(#p39f81b45e9)" style="fill: #1f77b4"/>
   </g>
   <g id="patch_81">
    <path d="M 683.962284 246.90101 
L 690.036551 246.90101 
L 690.036551 226.592617 
L 683.962284 226.592617 
z
" clip-path="url(#p39f81b45e9)" style="fill: #1f77b4"/>
   </g>
   <g id="patch_82">
    <path d="M 690.71147 246.90101 
L 696.785737 246.90101 
L 696.785737 210.699092 
L 690.71147 210.699092 
z
" clip-path="url(#p39f81b45e9)" style="fill: #1f77b4"/>
   </g>
   <g id="patch_83">
    <path d="M 697.460655 246.90101 
L 703.534922 246.90101 
L 703.534922 198.337462 
L 697.460655 198.337462 
z
" clip-path="url(#p39f81b45e9)" style="fill: #1f77b4"/>
   </g>
   <g id="patch_84">
    <path d="M 704.209841 246.90101 
L 710.284108 246.90101 
L 710.284108 188.183265 
L 704.209841 188.183265 
z
" clip-path="url(#p39f81b45e9)" style="fill: #1f77b4"/>
   </g>
   <g id="patch_85">
    <path d="M 710.959027 246.90101 
L 717.033294 246.90101 
L 717.033294 168.757846 
L 710.959027 168.757846 
z
" clip-path="url(#p39f81b45e9)" style="fill: #1f77b4"/>
   </g>
   <g id="patch_86">
    <path d="M 717.708212 246.90101 
L 723.782479 246.90101 
L 723.782479 159.045136 
L 717.708212 159.045136 
z
" clip-path="url(#p39f81b45e9)" style="fill: #1f77b4"/>
   </g>
   <g id="patch_87">
    <path d="M 724.457398 246.90101 
L 730.531665 246.90101 
L 730.531665 145.800532 
L 724.457398 145.800532 
z
" clip-path="url(#p39f81b45e9)" style="fill: #1f77b4"/>
   </g>
   <g id="patch_88">
    <path d="M 731.206584 246.90101 
L 737.280851 246.90101 
L 737.280851 118.42835 
L 731.206584 118.42835 
z
" clip-path="url(#p39f81b45e9)" style="fill: #1f77b4"/>
   </g>
   <g id="patch_89">
    <path d="M 737.955769 246.90101 
L 744.030037 246.90101 
L 744.030037 125.050652 
L 737.955769 125.050652 
z
" clip-path="url(#p39f81b45e9)" style="fill: #1f77b4"/>
   </g>
   <g id="patch_90">
    <path d="M 744.704955 246.90101 
L 750.779222 246.90101 
L 750.779222 97.236984 
L 744.704955 97.236984 
z
" clip-path="url(#p39f81b45e9)" style="fill: #1f77b4"/>
   </g>
   <g id="patch_91">
    <path d="M 751.454141 246.90101 
L 757.528408 246.90101 
L 757.528408 98.561444 
L 751.454141 98.561444 
z
" clip-path="url(#p39f81b45e9)" style="fill: #1f77b4"/>
   </g>
   <g id="patch_92">
    <path d="M 758.203326 246.90101 
L 764.277594 246.90101 
L 764.277594 102.534825 
L 758.203326 102.534825 
z
" clip-path="url(#p39f81b45e9)" style="fill: #1f77b4"/>
   </g>
   <g id="patch_93">
    <path d="M 764.952512 246.90101 
L 771.026779 246.90101 
L 771.026779 113.571995 
L 764.952512 113.571995 
z
" clip-path="url(#p39f81b45e9)" style="fill: #1f77b4"/>
   </g>
   <g id="patch_94">
    <path d="M 771.701698 246.90101 
L 777.775965 246.90101 
L 777.775965 131.231467 
L 771.701698 131.231467 
z
" clip-path="url(#p39f81b45e9)" style="fill: #1f77b4"/>
   </g>
   <g id="patch_95">
    <path d="M 778.450884 246.90101 
L 784.525151 246.90101 
L 784.525151 145.800532 
L 778.450884 145.800532 
z
" clip-path="url(#p39f81b45e9)" style="fill: #1f77b4"/>
   </g>
   <g id="patch_96">
    <path d="M 785.200069 246.90101 
L 791.274336 246.90101 
L 791.274336 167.874872 
L 785.200069 167.874872 
z
" clip-path="url(#p39f81b45e9)" style="fill: #1f77b4"/>
   </g>
   <g id="patch_97">
    <path d="M 791.949255 246.90101 
L 798.023522 246.90101 
L 798.023522 184.209884 
L 791.949255 184.209884 
z
" clip-path="url(#p39f81b45e9)" style="fill: #1f77b4"/>
   </g>
   <g id="patch_98">
    <path d="M 798.698441 246.90101 
L 804.772708 246.90101 
L 804.772708 201.427869 
L 798.698441 201.427869 
z
" clip-path="url(#p39f81b45e9)" style="fill: #1f77b4"/>
   </g>
   <g id="patch_99">
    <path d="M 805.447626 246.90101 
L 811.521893 246.90101 
L 811.521893 212.023553 
L 805.447626 212.023553 
z
" clip-path="url(#p39f81b45e9)" style="fill: #1f77b4"/>
   </g>
   <g id="patch_100">
    <path d="M 812.196812 246.90101 
L 818.271079 246.90101 
L 818.271079 221.294775 
L 812.196812 221.294775 
z
" clip-path="url(#p39f81b45e9)" style="fill: #1f77b4"/>
   </g>
   <g id="patch_101">
    <path d="M 818.945998 246.90101 
L 825.020265 246.90101 
L 825.020265 237.1883 
L 818.945998 237.1883 
z
" clip-path="url(#p39f81b45e9)" style="fill: #1f77b4"/>
   </g>
   <g id="patch_102">
    <path d="M 825.695183 246.90101 
L 831.76945 246.90101 
L 831.76945 240.720195 
L 825.695183 240.720195 
z
" clip-path="url(#p39f81b45e9)" style="fill: #1f77b4"/>
   </g>
   <g id="patch_103">
    <path d="M 832.444369 246.90101 
L 838.518636 246.90101 
L 838.518636 243.810602 
L 832.444369 243.810602 
z
" clip-path="url(#p39f81b45e9)" style="fill: #1f77b4"/>
   </g>
   <g id="patch_104">
    <path d="M 839.193555 246.90101 
L 845.267822 246.90101 
L 845.267822 246.018036 
L 839.193555 246.018036 
z
" clip-path="url(#p39f81b45e9)" style="fill: #1f77b4"/>
   </g>
   <g id="matplotlib.axis_5">
    <g id="xtick_9">
     <g id="line2d_27">
      <g>
       <use xlink:href="#m9496685b0a" x="639.194411" y="246.90101" style="stroke: #000000; stroke-width: 0.8"/>
      </g>
     </g>
     <g id="text_32">
      <!-- 0.25 -->
      <g transform="translate(623.608474 264.538822) scale(0.14 -0.14)">
       <use xlink:href="#DejaVuSans-30"/>
       <use xlink:href="#DejaVuSans-2e" x="63.623047"/>
       <use xlink:href="#DejaVuSans-32" x="95.410156"/>
       <use xlink:href="#DejaVuSans-35" x="159.033203"/>
      </g>
     </g>
    </g>
    <g id="xtick_10">
     <g id="line2d_28">
      <g>
       <use xlink:href="#m9496685b0a" x="711.441831" y="246.90101" style="stroke: #000000; stroke-width: 0.8"/>
      </g>
     </g>
     <g id="text_33">
      <!-- 0.30 -->
      <g transform="translate(695.855894 264.538822) scale(0.14 -0.14)">
       <defs>
        <path id="DejaVuSans-33" d="M 2597 2516 
Q 3050 2419 3304 2112 
Q 3559 1806 3559 1356 
Q 3559 666 3084 287 
Q 2609 -91 1734 -91 
Q 1441 -91 1130 -33 
Q 819 25 488 141 
L 488 750 
Q 750 597 1062 519 
Q 1375 441 1716 441 
Q 2309 441 2620 675 
Q 2931 909 2931 1356 
Q 2931 1769 2642 2001 
Q 2353 2234 1838 2234 
L 1294 2234 
L 1294 2753 
L 1863 2753 
Q 2328 2753 2575 2939 
Q 2822 3125 2822 3475 
Q 2822 3834 2567 4026 
Q 2313 4219 1838 4219 
Q 1578 4219 1281 4162 
Q 984 4106 628 3988 
L 628 4550 
Q 988 4650 1302 4700 
Q 1616 4750 1894 4750 
Q 2613 4750 3031 4423 
Q 3450 4097 3450 3541 
Q 3450 3153 3228 2886 
Q 3006 2619 2597 2516 
z
" transform="scale(0.015625)"/>
       </defs>
       <use xlink:href="#DejaVuSans-30"/>
       <use xlink:href="#DejaVuSans-2e" x="63.623047"/>
       <use xlink:href="#DejaVuSans-33" x="95.410156"/>
       <use xlink:href="#DejaVuSans-30" x="159.033203"/>
      </g>
     </g>
    </g>
    <g id="xtick_11">
     <g id="line2d_29">
      <g>
       <use xlink:href="#m9496685b0a" x="783.689251" y="246.90101" style="stroke: #000000; stroke-width: 0.8"/>
      </g>
     </g>
     <g id="text_34">
      <!-- 0.35 -->
      <g transform="translate(768.103314 264.538822) scale(0.14 -0.14)">
       <use xlink:href="#DejaVuSans-30"/>
       <use xlink:href="#DejaVuSans-2e" x="63.623047"/>
       <use xlink:href="#DejaVuSans-33" x="95.410156"/>
       <use xlink:href="#DejaVuSans-35" x="159.033203"/>
      </g>
     </g>
    </g>
    <g id="xtick_12">
     <g id="line2d_30">
      <g>
       <use xlink:href="#m9496685b0a" x="855.936671" y="246.90101" style="stroke: #000000; stroke-width: 0.8"/>
      </g>
     </g>
     <g id="text_35">
      <!-- 0.40 -->
      <g transform="translate(840.350734 264.538822) scale(0.14 -0.14)">
       <use xlink:href="#DejaVuSans-30"/>
       <use xlink:href="#DejaVuSans-2e" x="63.623047"/>
       <use xlink:href="#DejaVuSans-34" x="95.410156"/>
       <use xlink:href="#DejaVuSans-30" x="159.033203"/>
      </g>
     </g>
    </g>
    <g id="text_36">
     <!-- $\nu_{12}$ [-] -->
     <g transform="translate(726.985541 282.088197) scale(0.14 -0.14)">
      <defs>
       <path id="DejaVuSans-Oblique-3bd" d="M 959 0 
L 572 3500 
L 1191 3500 
L 1522 563 
Q 1972 950 2391 1488 
Q 2706 1891 2788 2241 
Q 2825 2406 2809 2719 
Q 2794 3091 2544 3500 
L 3125 3500 
L 3125 3500 
Q 3288 3222 3353 2834 
Q 3416 2478 3369 2234 
Q 3250 1622 2719 1075 
Q 2025 363 1572 0 
L 959 0 
z
" transform="scale(0.015625)"/>
       <path id="DejaVuSans-2d" d="M 313 2009 
L 1997 2009 
L 1997 1497 
L 313 1497 
L 313 2009 
z
" transform="scale(0.015625)"/>
      </defs>
      <use xlink:href="#DejaVuSans-Oblique-3bd" transform="translate(0 0.015625)"/>
      <use xlink:href="#DejaVuSans-31" transform="translate(55.859375 -16.390625) scale(0.7)"/>
      <use xlink:href="#DejaVuSans-32" transform="translate(100.395508 -16.390625) scale(0.7)"/>
      <use xlink:href="#DejaVuSans-20" transform="translate(147.666016 0.015625)"/>
      <use xlink:href="#DejaVuSans-5b" transform="translate(179.453125 0.015625)"/>
      <use xlink:href="#DejaVuSans-2d" transform="translate(218.466797 0.015625)"/>
      <use xlink:href="#DejaVuSans-5d" transform="translate(254.550781 0.015625)"/>
     </g>
    </g>
   </g>
   <g id="matplotlib.axis_6">
    <g id="ytick_16">
     <g id="line2d_31">
      <g>
       <use xlink:href="#m9ab47a8326" x="628.357298" y="246.90101" style="stroke: #000000; stroke-width: 0.8"/>
      </g>
     </g>
     <g id="text_37">
      <!-- 0 -->
      <g transform="translate(612.449798 252.219916) scale(0.14 -0.14)">
       <use xlink:href="#DejaVuSans-30"/>
      </g>
     </g>
    </g>
    <g id="ytick_17">
     <g id="line2d_32">
      <g>
       <use xlink:href="#m9ab47a8326" x="628.357298" y="205.658341" style="stroke: #000000; stroke-width: 0.8"/>
      </g>
     </g>
     <g id="text_38">
      <!-- 5 -->
      <g transform="translate(612.449798 210.977248) scale(0.14 -0.14)">
       <use xlink:href="#DejaVuSans-35"/>
      </g>
     </g>
    </g>
    <g id="ytick_18">
     <g id="line2d_33">
      <g>
       <use xlink:href="#m9ab47a8326" x="628.357298" y="164.415673" style="stroke: #000000; stroke-width: 0.8"/>
      </g>
     </g>
     <g id="text_39">
      <!-- 10 -->
      <g transform="translate(603.542298 169.734579) scale(0.14 -0.14)">
       <use xlink:href="#DejaVuSans-31"/>
       <use xlink:href="#DejaVuSans-30" x="63.623047"/>
      </g>
     </g>
    </g>
    <g id="ytick_19">
     <g id="line2d_34">
      <g>
       <use xlink:href="#m9ab47a8326" x="628.357298" y="123.173004" style="stroke: #000000; stroke-width: 0.8"/>
      </g>
     </g>
     <g id="text_40">
      <!-- 15 -->
      <g transform="translate(603.542298 128.49191) scale(0.14 -0.14)">
       <use xlink:href="#DejaVuSans-31"/>
       <use xlink:href="#DejaVuSans-35" x="63.623047"/>
      </g>
     </g>
    </g>
    <g id="ytick_20">
     <g id="line2d_35">
      <g>
       <use xlink:href="#m9ab47a8326" x="628.357298" y="81.930335" style="stroke: #000000; stroke-width: 0.8"/>
      </g>
     </g>
     <g id="text_41">
      <!-- 20 -->
      <g transform="translate(603.542298 87.249241) scale(0.14 -0.14)">
       <use xlink:href="#DejaVuSans-32"/>
       <use xlink:href="#DejaVuSans-30" x="63.623047"/>
      </g>
     </g>
    </g>
    <g id="ytick_21">
     <g id="line2d_36">
      <g>
       <use xlink:href="#m9ab47a8326" x="628.357298" y="40.687666" style="stroke: #000000; stroke-width: 0.8"/>
      </g>
     </g>
     <g id="text_42">
      <!-- 25 -->
      <g transform="translate(603.542298 46.006573) scale(0.14 -0.14)">
       <use xlink:href="#DejaVuSans-32"/>
       <use xlink:href="#DejaVuSans-35" x="63.623047"/>
      </g>
     </g>
    </g>
   </g>
   <g id="line2d_37">
    <path d="M 639.194411 246.900864 
L 643.617722 246.900585 
L 648.041034 246.899825 
L 652.464345 246.897838 
L 656.887657 246.892869 
L 661.310968 246.880967 
L 665.73428 246.853675 
L 670.157591 246.79378 
L 674.580903 246.66801 
L 679.004214 246.415376 
L 683.427525 245.93011 
L 687.850837 245.039132 
L 692.274148 243.476173 
L 696.69746 240.858178 
L 701.120771 236.673897 
L 705.544083 230.298354 
L 709.967394 221.047827 
L 714.390705 208.285445 
L 718.814017 191.575846 
L 723.237328 170.869267 
L 727.66064 146.675304 
L 732.083951 120.172236 
L 736.507263 93.19768 
L 740.930574 68.086296 
L 745.353886 47.358624 
L 749.777197 33.31195 
L 754.200508 27.602955 
L 758.62382 30.926505 
L 763.047131 42.8766 
L 767.470443 62.027918 
L 771.893754 86.215315 
L 776.317066 112.935606 
L 780.740377 139.768808 
L 785.163688 164.722296 
L 789.587 186.435102 
L 794.010311 204.225988 
L 798.433623 218.010922 
L 802.856934 228.140877 
L 807.280246 235.215844 
L 811.703557 239.919557 
L 816.126869 242.900009 
L 820.55018 244.701614 
L 824.973491 245.741298 
L 829.396803 246.314455 
L 833.820114 246.616446 
L 838.243426 246.768587 
L 842.666737 246.841901 
L 847.090049 246.875702 
L 851.51336 246.890616 
L 855.936671 246.896915 
" clip-path="url(#p39f81b45e9)" style="fill: none; stroke: #2ca02c; stroke-width: 1.5; stroke-linecap: square"/>
   </g>
   <g id="patch_105">
    <path d="M 628.357298 246.90101 
L 628.357298 16.638052 
" style="fill: none; stroke: #000000; stroke-width: 0.8; stroke-linejoin: miter; stroke-linecap: square"/>
   </g>
   <g id="patch_106">
    <path d="M 866.773784 246.90101 
L 866.773784 16.638052 
" style="fill: none; stroke: #000000; stroke-width: 0.8; stroke-linejoin: miter; stroke-linecap: square"/>
   </g>
   <g id="patch_107">
    <path d="M 628.357298 246.90101 
L 866.773784 246.90101 
" style="fill: none; stroke: #000000; stroke-width: 0.8; stroke-linejoin: miter; stroke-linecap: square"/>
   </g>
   <g id="patch_108">
    <path d="M 628.357298 16.638052 
L 866.773784 16.638052 
" style="fill: none; stroke: #000000; stroke-width: 0.8; stroke-linejoin: miter; stroke-linecap: square"/>
   </g>
  </g>
  <g id="axes_4">
   <g id="patch_109">
    <path d="M 902.338098 246.90101 
L 1140.754585 246.90101 
L 1140.754585 16.638052 
L 902.338098 16.638052 
z
" style="fill: #ffffff"/>
   </g>
   <g id="patch_110">
    <path d="M 944.557014 246.90101 
L 949.571939 246.90101 
L 949.571939 246.454826 
L 944.557014 246.454826 
z
" clip-path="url(#p670c24222e)" style="fill: #1f77b4"/>
   </g>
   <g id="patch_111">
    <path d="M 950.129153 246.90101 
L 955.144079 246.90101 
L 955.144079 246.454826 
L 950.129153 246.454826 
z
" clip-path="url(#p670c24222e)" style="fill: #1f77b4"/>
   </g>
   <g id="patch_112">
    <path d="M 955.701293 246.90101 
L 960.716218 246.90101 
L 960.716218 246.90101 
L 955.701293 246.90101 
z
" clip-path="url(#p670c24222e)" style="fill: #1f77b4"/>
   </g>
   <g id="patch_113">
    <path d="M 961.273432 246.90101 
L 966.288358 246.90101 
L 966.288358 244.223905 
L 961.273432 244.223905 
z
" clip-path="url(#p670c24222e)" style="fill: #1f77b4"/>
   </g>
   <g id="patch_114">
    <path d="M 966.845572 246.90101 
L 971.860497 246.90101 
L 971.860497 240.654432 
L 966.845572 240.654432 
z
" clip-path="url(#p670c24222e)" style="fill: #1f77b4"/>
   </g>
   <g id="patch_115">
    <path d="M 972.417711 246.90101 
L 977.432637 246.90101 
L 977.432637 233.961669 
L 972.417711 233.961669 
z
" clip-path="url(#p670c24222e)" style="fill: #1f77b4"/>
   </g>
   <g id="patch_116">
    <path d="M 977.989851 246.90101 
L 983.004776 246.90101 
L 983.004776 229.499828 
L 977.989851 229.499828 
z
" clip-path="url(#p670c24222e)" style="fill: #1f77b4"/>
   </g>
   <g id="patch_117">
    <path d="M 983.56199 246.90101 
L 988.576915 246.90101 
L 988.576915 205.405883 
L 983.56199 205.405883 
z
" clip-path="url(#p670c24222e)" style="fill: #1f77b4"/>
   </g>
   <g id="patch_118">
    <path d="M 989.134129 246.90101 
L 994.149055 246.90101 
L 994.149055 170.603518 
L 989.134129 170.603518 
z
" clip-path="url(#p670c24222e)" style="fill: #1f77b4"/>
   </g>
   <g id="patch_119">
    <path d="M 994.706269 246.90101 
L 999.721194 246.90101 
L 999.721194 162.126019 
L 994.706269 162.126019 
z
" clip-path="url(#p670c24222e)" style="fill: #1f77b4"/>
   </g>
   <g id="patch_120">
    <path d="M 1000.278408 246.90101 
L 1005.293334 246.90101 
L 1005.293334 138.478259 
L 1000.278408 138.478259 
z
" clip-path="url(#p670c24222e)" style="fill: #1f77b4"/>
   </g>
   <g id="patch_121">
    <path d="M 1005.850548 246.90101 
L 1010.865473 246.90101 
L 1010.865473 125.092734 
L 1005.850548 125.092734 
z
" clip-path="url(#p670c24222e)" style="fill: #1f77b4"/>
   </g>
   <g id="patch_122">
    <path d="M 1011.422687 246.90101 
L 1016.437613 246.90101 
L 1016.437613 114.830498 
L 1011.422687 114.830498 
z
" clip-path="url(#p670c24222e)" style="fill: #1f77b4"/>
   </g>
   <g id="patch_123">
    <path d="M 1016.994827 246.90101 
L 1022.009752 246.90101 
L 1022.009752 112.599577 
L 1016.994827 112.599577 
z
" clip-path="url(#p670c24222e)" style="fill: #1f77b4"/>
   </g>
   <g id="patch_124">
    <path d="M 1022.566966 246.90101 
L 1027.581892 246.90101 
L 1027.581892 96.536947 
L 1022.566966 96.536947 
z
" clip-path="url(#p670c24222e)" style="fill: #1f77b4"/>
   </g>
   <g id="patch_125">
    <path d="M 1028.139106 246.90101 
L 1033.154031 246.90101 
L 1033.154031 92.967474 
L 1028.139106 92.967474 
z
" clip-path="url(#p670c24222e)" style="fill: #1f77b4"/>
   </g>
   <g id="patch_126">
    <path d="M 1033.711245 246.90101 
L 1038.726171 246.90101 
L 1038.726171 94.752211 
L 1033.711245 94.752211 
z
" clip-path="url(#p670c24222e)" style="fill: #1f77b4"/>
   </g>
   <g id="patch_127">
    <path d="M 1039.283384 246.90101 
L 1044.29831 246.90101 
L 1044.29831 126.431286 
L 1039.283384 126.431286 
z
" clip-path="url(#p670c24222e)" style="fill: #1f77b4"/>
   </g>
   <g id="patch_128">
    <path d="M 1044.855524 246.90101 
L 1049.870449 246.90101 
L 1049.870449 136.247338 
L 1044.855524 136.247338 
z
" clip-path="url(#p670c24222e)" style="fill: #1f77b4"/>
   </g>
   <g id="patch_129">
    <path d="M 1050.427663 246.90101 
L 1055.442589 246.90101 
L 1055.442589 145.171021 
L 1050.427663 145.171021 
z
" clip-path="url(#p670c24222e)" style="fill: #1f77b4"/>
   </g>
   <g id="patch_130">
    <path d="M 1055.999803 246.90101 
L 1061.014728 246.90101 
L 1061.014728 165.249308 
L 1055.999803 165.249308 
z
" clip-path="url(#p670c24222e)" style="fill: #1f77b4"/>
   </g>
   <g id="patch_131">
    <path d="M 1061.571942 246.90101 
L 1066.586868 246.90101 
L 1066.586868 192.466542 
L 1061.571942 192.466542 
z
" clip-path="url(#p670c24222e)" style="fill: #1f77b4"/>
   </g>
   <g id="patch_132">
    <path d="M 1067.144082 246.90101 
L 1072.159007 246.90101 
L 1072.159007 201.83641 
L 1067.144082 201.83641 
z
" clip-path="url(#p670c24222e)" style="fill: #1f77b4"/>
   </g>
   <g id="patch_133">
    <path d="M 1072.716221 246.90101 
L 1077.731147 246.90101 
L 1077.731147 217.006671 
L 1072.716221 217.006671 
z
" clip-path="url(#p670c24222e)" style="fill: #1f77b4"/>
   </g>
   <g id="patch_134">
    <path d="M 1078.288361 246.90101 
L 1083.303286 246.90101 
L 1083.303286 224.591802 
L 1078.288361 224.591802 
z
" clip-path="url(#p670c24222e)" style="fill: #1f77b4"/>
   </g>
   <g id="patch_135">
    <path d="M 1083.8605 246.90101 
L 1088.875426 246.90101 
L 1088.875426 236.19259 
L 1083.8605 236.19259 
z
" clip-path="url(#p670c24222e)" style="fill: #1f77b4"/>
   </g>
   <g id="patch_136">
    <path d="M 1089.432639 246.90101 
L 1094.447565 246.90101 
L 1094.447565 241.5468 
L 1089.432639 241.5468 
z
" clip-path="url(#p670c24222e)" style="fill: #1f77b4"/>
   </g>
   <g id="patch_137">
    <path d="M 1095.004779 246.90101 
L 1100.019704 246.90101 
L 1100.019704 244.223905 
L 1095.004779 244.223905 
z
" clip-path="url(#p670c24222e)" style="fill: #1f77b4"/>
   </g>
   <g id="patch_138">
    <path d="M 1100.576918 246.90101 
L 1105.591844 246.90101 
L 1105.591844 245.116273 
L 1100.576918 245.116273 
z
" clip-path="url(#p670c24222e)" style="fill: #1f77b4"/>
   </g>
   <g id="patch_139">
    <path d="M 1106.149058 246.90101 
L 1111.163983 246.90101 
L 1111.163983 244.670089 
L 1106.149058 244.670089 
z
" clip-path="url(#p670c24222e)" style="fill: #1f77b4"/>
   </g>
   <g id="matplotlib.axis_7">
    <g id="xtick_13">
     <g id="line2d_38">
      <g>
       <use xlink:href="#m9496685b0a" x="913.175211" y="246.90101" style="stroke: #000000; stroke-width: 0.8"/>
      </g>
     </g>
     <g id="text_43">
      <!-- 0.35 -->
      <g transform="translate(897.589274 264.538822) scale(0.14 -0.14)">
       <use xlink:href="#DejaVuSans-30"/>
       <use xlink:href="#DejaVuSans-2e" x="63.623047"/>
       <use xlink:href="#DejaVuSans-33" x="95.410156"/>
       <use xlink:href="#DejaVuSans-35" x="159.033203"/>
      </g>
     </g>
    </g>
    <g id="xtick_14">
     <g id="line2d_39">
      <g>
       <use xlink:href="#m9496685b0a" x="985.422631" y="246.90101" style="stroke: #000000; stroke-width: 0.8"/>
      </g>
     </g>
     <g id="text_44">
      <!-- 0.40 -->
      <g transform="translate(969.836694 264.538822) scale(0.14 -0.14)">
       <use xlink:href="#DejaVuSans-30"/>
       <use xlink:href="#DejaVuSans-2e" x="63.623047"/>
       <use xlink:href="#DejaVuSans-34" x="95.410156"/>
       <use xlink:href="#DejaVuSans-30" x="159.033203"/>
      </g>
     </g>
    </g>
    <g id="xtick_15">
     <g id="line2d_40">
      <g>
       <use xlink:href="#m9496685b0a" x="1057.670052" y="246.90101" style="stroke: #000000; stroke-width: 0.8"/>
      </g>
     </g>
     <g id="text_45">
      <!-- 0.45 -->
      <g transform="translate(1042.084114 264.538822) scale(0.14 -0.14)">
       <use xlink:href="#DejaVuSans-30"/>
       <use xlink:href="#DejaVuSans-2e" x="63.623047"/>
       <use xlink:href="#DejaVuSans-34" x="95.410156"/>
       <use xlink:href="#DejaVuSans-35" x="159.033203"/>
      </g>
     </g>
    </g>
    <g id="xtick_16">
     <g id="line2d_41">
      <g>
       <use xlink:href="#m9496685b0a" x="1129.917472" y="246.90101" style="stroke: #000000; stroke-width: 0.8"/>
      </g>
     </g>
     <g id="text_46">
      <!-- 0.50 -->
      <g transform="translate(1114.331534 264.538822) scale(0.14 -0.14)">
       <use xlink:href="#DejaVuSans-30"/>
       <use xlink:href="#DejaVuSans-2e" x="63.623047"/>
       <use xlink:href="#DejaVuSans-35" x="95.410156"/>
       <use xlink:href="#DejaVuSans-30" x="159.033203"/>
      </g>
     </g>
    </g>
    <g id="text_47">
     <!-- $\nu_{23}$ [-] -->
     <g transform="translate(1000.966341 282.088197) scale(0.14 -0.14)">
      <use xlink:href="#DejaVuSans-Oblique-3bd" transform="translate(0 0.015625)"/>
      <use xlink:href="#DejaVuSans-32" transform="translate(55.859375 -16.390625) scale(0.7)"/>
      <use xlink:href="#DejaVuSans-33" transform="translate(100.395508 -16.390625) scale(0.7)"/>
      <use xlink:href="#DejaVuSans-20" transform="translate(147.666016 0.015625)"/>
      <use xlink:href="#DejaVuSans-5b" transform="translate(179.453125 0.015625)"/>
      <use xlink:href="#DejaVuSans-2d" transform="translate(218.466797 0.015625)"/>
      <use xlink:href="#DejaVuSans-5d" transform="translate(254.550781 0.015625)"/>
     </g>
    </g>
   </g>
   <g id="matplotlib.axis_8">
    <g id="ytick_22">
     <g id="line2d_42">
      <g>
       <use xlink:href="#m9ab47a8326" x="902.338098" y="246.90101" style="stroke: #000000; stroke-width: 0.8"/>
      </g>
     </g>
     <g id="text_48">
      <!-- 0 -->
      <g transform="translate(886.430598 252.219916) scale(0.14 -0.14)">
       <use xlink:href="#DejaVuSans-30"/>
      </g>
     </g>
    </g>
    <g id="ytick_23">
     <g id="line2d_43">
      <g>
       <use xlink:href="#m9ab47a8326" x="902.338098" y="212.488703" style="stroke: #000000; stroke-width: 0.8"/>
      </g>
     </g>
     <g id="text_49">
      <!-- 5 -->
      <g transform="translate(886.430598 217.80761) scale(0.14 -0.14)">
       <use xlink:href="#DejaVuSans-35"/>
      </g>
     </g>
    </g>
    <g id="ytick_24">
     <g id="line2d_44">
      <g>
       <use xlink:href="#m9ab47a8326" x="902.338098" y="178.076397" style="stroke: #000000; stroke-width: 0.8"/>
      </g>
     </g>
     <g id="text_50">
      <!-- 10 -->
      <g transform="translate(877.523098 183.395303) scale(0.14 -0.14)">
       <use xlink:href="#DejaVuSans-31"/>
       <use xlink:href="#DejaVuSans-30" x="63.623047"/>
      </g>
     </g>
    </g>
    <g id="ytick_25">
     <g id="line2d_45">
      <g>
       <use xlink:href="#m9ab47a8326" x="902.338098" y="143.66409" style="stroke: #000000; stroke-width: 0.8"/>
      </g>
     </g>
     <g id="text_51">
      <!-- 15 -->
      <g transform="translate(877.523098 148.982997) scale(0.14 -0.14)">
       <use xlink:href="#DejaVuSans-31"/>
       <use xlink:href="#DejaVuSans-35" x="63.623047"/>
      </g>
     </g>
    </g>
    <g id="ytick_26">
     <g id="line2d_46">
      <g>
       <use xlink:href="#m9ab47a8326" x="902.338098" y="109.251784" style="stroke: #000000; stroke-width: 0.8"/>
      </g>
     </g>
     <g id="text_52">
      <!-- 20 -->
      <g transform="translate(877.523098 114.57069) scale(0.14 -0.14)">
       <use xlink:href="#DejaVuSans-32"/>
       <use xlink:href="#DejaVuSans-30" x="63.623047"/>
      </g>
     </g>
    </g>
    <g id="ytick_27">
     <g id="line2d_47">
      <g>
       <use xlink:href="#m9ab47a8326" x="902.338098" y="74.839477" style="stroke: #000000; stroke-width: 0.8"/>
      </g>
     </g>
     <g id="text_53">
      <!-- 25 -->
      <g transform="translate(877.523098 80.158383) scale(0.14 -0.14)">
       <use xlink:href="#DejaVuSans-32"/>
       <use xlink:href="#DejaVuSans-35" x="63.623047"/>
      </g>
     </g>
    </g>
    <g id="ytick_28">
     <g id="line2d_48">
      <g>
       <use xlink:href="#m9ab47a8326" x="902.338098" y="40.427171" style="stroke: #000000; stroke-width: 0.8"/>
      </g>
     </g>
     <g id="text_54">
      <!-- 30 -->
      <g transform="translate(877.523098 45.746077) scale(0.14 -0.14)">
       <use xlink:href="#DejaVuSans-33"/>
       <use xlink:href="#DejaVuSans-30" x="63.623047"/>
      </g>
     </g>
    </g>
   </g>
   <g id="line2d_49">
    <path d="M 913.175211 246.90101 
L 917.598523 246.90101 
L 922.021834 246.90101 
L 926.445146 246.901008 
L 930.868457 246.901 
L 935.291768 246.900971 
L 939.71508 246.900862 
L 944.138391 246.900479 
L 948.561703 246.899218 
L 952.985014 246.895321 
L 957.408326 246.883994 
L 961.831637 246.853082 
L 966.254949 246.77387 
L 970.67826 246.583372 
L 975.101571 246.153644 
L 979.524883 245.244906 
L 983.948194 243.44484 
L 988.371506 240.108099 
L 992.794817 234.327114 
L 997.218129 224.981187 
L 1001.64144 210.913037 
L 1006.064751 191.255399 
L 1010.488063 165.86881 
L 1014.911374 135.769419 
L 1019.334686 103.36178 
L 1023.757997 72.295929 
L 1028.181309 46.87046 
L 1032.60462 31.082365 
L 1037.027932 27.602955 
L 1041.451243 37.039023 
L 1045.874554 57.759886 
L 1050.297866 86.358024 
L 1054.721177 118.564599 
L 1059.144489 150.282213 
L 1063.5678 178.395335 
L 1067.991112 201.155902 
L 1072.414423 218.132595 
L 1076.837734 229.862155 
L 1081.261046 237.396755 
L 1085.684357 241.908155 
L 1090.107669 244.430805 
L 1094.53098 245.750024 
L 1098.954292 246.39593 
L 1103.377603 246.692271 
L 1107.800915 246.819764 
L 1112.224226 246.871228 
L 1116.647537 246.890729 
L 1121.070849 246.897667 
L 1125.49416 246.899986 
L 1129.917472 246.900715 
" clip-path="url(#p670c24222e)" style="fill: none; stroke: #2ca02c; stroke-width: 1.5; stroke-linecap: square"/>
   </g>
   <g id="patch_140">
    <path d="M 902.338098 246.90101 
L 902.338098 16.638052 
" style="fill: none; stroke: #000000; stroke-width: 0.8; stroke-linejoin: miter; stroke-linecap: square"/>
   </g>
   <g id="patch_141">
    <path d="M 1140.754585 246.90101 
L 1140.754585 16.638052 
" style="fill: none; stroke: #000000; stroke-width: 0.8; stroke-linejoin: miter; stroke-linecap: square"/>
   </g>
   <g id="patch_142">
    <path d="M 902.338098 246.90101 
L 1140.754585 246.90101 
" style="fill: none; stroke: #000000; stroke-width: 0.8; stroke-linejoin: miter; stroke-linecap: square"/>
   </g>
   <g id="patch_143">
    <path d="M 902.338098 16.638052 
L 1140.754585 16.638052 
" style="fill: none; stroke: #000000; stroke-width: 0.8; stroke-linejoin: miter; stroke-linecap: square"/>
   </g>
  </g>
  <g id="axes_5">
   <g id="patch_144">
    <path d="M 1198.583274 246.90101 
L 1436.99976 246.90101 
L 1436.99976 16.638052 
L 1198.583274 16.638052 
z
" style="fill: #ffffff"/>
   </g>
   <g id="patch_145">
    <path d="M 1228.277417 246.90101 
L 1234.144046 246.90101 
L 1234.144046 245.071134 
L 1228.277417 245.071134 
z
" clip-path="url(#p499bb7802f)" style="fill: #1f77b4"/>
   </g>
   <g id="patch_146">
    <path d="M 1234.795893 246.90101 
L 1240.662522 246.90101 
L 1240.662522 243.241258 
L 1234.795893 243.241258 
z
" clip-path="url(#p499bb7802f)" style="fill: #1f77b4"/>
   </g>
   <g id="patch_147">
    <path d="M 1241.314369 246.90101 
L 1247.180998 246.90101 
L 1247.180998 239.581505 
L 1241.314369 239.581505 
z
" clip-path="url(#p499bb7802f)" style="fill: #1f77b4"/>
   </g>
   <g id="patch_148">
    <path d="M 1247.832845 246.90101 
L 1253.699474 246.90101 
L 1253.699474 236.379222 
L 1247.832845 236.379222 
z
" clip-path="url(#p499bb7802f)" style="fill: #1f77b4"/>
   </g>
   <g id="patch_149">
    <path d="M 1254.351321 246.90101 
L 1260.21795 246.90101 
L 1260.21795 221.282744 
L 1254.351321 221.282744 
z
" clip-path="url(#p499bb7802f)" style="fill: #1f77b4"/>
   </g>
   <g id="patch_150">
    <path d="M 1260.869797 246.90101 
L 1266.736426 246.90101 
L 1266.736426 209.388549 
L 1260.869797 209.388549 
z
" clip-path="url(#p499bb7802f)" style="fill: #1f77b4"/>
   </g>
   <g id="patch_151">
    <path d="M 1267.388274 246.90101 
L 1273.254902 246.90101 
L 1273.254902 192.919664 
L 1267.388274 192.919664 
z
" clip-path="url(#p499bb7802f)" style="fill: #1f77b4"/>
   </g>
   <g id="patch_152">
    <path d="M 1273.90675 246.90101 
L 1279.773378 246.90101 
L 1279.773378 185.600159 
L 1273.90675 185.600159 
z
" clip-path="url(#p499bb7802f)" style="fill: #1f77b4"/>
   </g>
   <g id="patch_153">
    <path d="M 1280.425226 246.90101 
L 1286.291854 246.90101 
L 1286.291854 181.025469 
L 1280.425226 181.025469 
z
" clip-path="url(#p499bb7802f)" style="fill: #1f77b4"/>
   </g>
   <g id="patch_154">
    <path d="M 1286.943702 246.90101 
L 1292.81033 246.90101 
L 1292.81033 183.770283 
L 1286.943702 183.770283 
z
" clip-path="url(#p499bb7802f)" style="fill: #1f77b4"/>
   </g>
   <g id="patch_155">
    <path d="M 1293.462178 246.90101 
L 1299.328806 246.90101 
L 1299.328806 175.99331 
L 1293.462178 175.99331 
z
" clip-path="url(#p499bb7802f)" style="fill: #1f77b4"/>
   </g>
   <g id="patch_156">
    <path d="M 1299.980654 246.90101 
L 1305.847282 246.90101 
L 1305.847282 170.046212 
L 1299.980654 170.046212 
z
" clip-path="url(#p499bb7802f)" style="fill: #1f77b4"/>
   </g>
   <g id="patch_157">
    <path d="M 1306.49913 246.90101 
L 1312.365758 246.90101 
L 1312.365758 155.407203 
L 1306.49913 155.407203 
z
" clip-path="url(#p499bb7802f)" style="fill: #1f77b4"/>
   </g>
   <g id="patch_158">
    <path d="M 1313.017606 246.90101 
L 1318.884234 246.90101 
L 1318.884234 147.63023 
L 1313.017606 147.63023 
z
" clip-path="url(#p499bb7802f)" style="fill: #1f77b4"/>
   </g>
   <g id="patch_159">
    <path d="M 1319.536082 246.90101 
L 1325.40271 246.90101 
L 1325.40271 152.662389 
L 1319.536082 152.662389 
z
" clip-path="url(#p499bb7802f)" style="fill: #1f77b4"/>
   </g>
   <g id="patch_160">
    <path d="M 1326.054558 246.90101 
L 1331.921187 246.90101 
L 1331.921187 142.59807 
L 1326.054558 142.59807 
z
" clip-path="url(#p499bb7802f)" style="fill: #1f77b4"/>
   </g>
   <g id="patch_161">
    <path d="M 1332.573034 246.90101 
L 1338.439663 246.90101 
L 1338.439663 152.20492 
L 1332.573034 152.20492 
z
" clip-path="url(#p499bb7802f)" style="fill: #1f77b4"/>
   </g>
   <g id="patch_162">
    <path d="M 1339.09151 246.90101 
L 1344.958139 246.90101 
L 1344.958139 152.662389 
L 1339.09151 152.662389 
z
" clip-path="url(#p499bb7802f)" style="fill: #1f77b4"/>
   </g>
   <g id="patch_163">
    <path d="M 1345.609986 246.90101 
L 1351.476615 246.90101 
L 1351.476615 136.650973 
L 1345.609986 136.650973 
z
" clip-path="url(#p499bb7802f)" style="fill: #1f77b4"/>
   </g>
   <g id="patch_164">
    <path d="M 1352.128462 246.90101 
L 1357.995091 246.90101 
L 1357.995091 122.469433 
L 1352.128462 122.469433 
z
" clip-path="url(#p499bb7802f)" style="fill: #1f77b4"/>
   </g>
   <g id="patch_165">
    <path d="M 1358.646938 246.90101 
L 1364.513567 246.90101 
L 1364.513567 116.522335 
L 1358.646938 116.522335 
z
" clip-path="url(#p499bb7802f)" style="fill: #1f77b4"/>
   </g>
   <g id="patch_166">
    <path d="M 1365.165414 246.90101 
L 1371.032043 246.90101 
L 1371.032043 118.352211 
L 1365.165414 118.352211 
z
" clip-path="url(#p499bb7802f)" style="fill: #1f77b4"/>
   </g>
   <g id="patch_167">
    <path d="M 1371.683891 246.90101 
L 1377.550519 246.90101 
L 1377.550519 143.513008 
L 1371.683891 143.513008 
z
" clip-path="url(#p499bb7802f)" style="fill: #1f77b4"/>
   </g>
   <g id="patch_168">
    <path d="M 1378.202367 246.90101 
L 1384.068995 246.90101 
L 1384.068995 168.673805 
L 1378.202367 168.673805 
z
" clip-path="url(#p499bb7802f)" style="fill: #1f77b4"/>
   </g>
   <g id="patch_169">
    <path d="M 1384.720843 246.90101 
L 1390.587471 246.90101 
L 1390.587471 198.409292 
L 1384.720843 198.409292 
z
" clip-path="url(#p499bb7802f)" style="fill: #1f77b4"/>
   </g>
   <g id="patch_170">
    <path d="M 1391.239319 246.90101 
L 1397.105947 246.90101 
L 1397.105947 220.367806 
L 1391.239319 220.367806 
z
" clip-path="url(#p499bb7802f)" style="fill: #1f77b4"/>
   </g>
   <g id="patch_171">
    <path d="M 1397.757795 246.90101 
L 1403.624423 246.90101 
L 1403.624423 233.176939 
L 1397.757795 233.176939 
z
" clip-path="url(#p499bb7802f)" style="fill: #1f77b4"/>
   </g>
   <g id="patch_172">
    <path d="M 1404.276271 246.90101 
L 1410.142899 246.90101 
L 1410.142899 241.411382 
L 1404.276271 241.411382 
z
" clip-path="url(#p499bb7802f)" style="fill: #1f77b4"/>
   </g>
   <g id="patch_173">
    <path d="M 1410.794747 246.90101 
L 1416.661375 246.90101 
L 1416.661375 245.071134 
L 1410.794747 245.071134 
z
" clip-path="url(#p499bb7802f)" style="fill: #1f77b4"/>
   </g>
   <g id="patch_174">
    <path d="M 1417.313223 246.90101 
L 1423.179851 246.90101 
L 1423.179851 245.071134 
L 1417.313223 245.071134 
z
" clip-path="url(#p499bb7802f)" style="fill: #1f77b4"/>
   </g>
   <g id="matplotlib.axis_9">
    <g id="xtick_17">
     <g id="line2d_50">
      <g>
       <use xlink:href="#m9496685b0a" x="1241.931726" y="246.90101" style="stroke: #000000; stroke-width: 0.8"/>
      </g>
     </g>
     <g id="text_55">
      <!-- 4750 -->
      <g transform="translate(1224.116726 264.538822) scale(0.14 -0.14)">
       <use xlink:href="#DejaVuSans-34"/>
       <use xlink:href="#DejaVuSans-37" x="63.623047"/>
       <use xlink:href="#DejaVuSans-35" x="127.246094"/>
       <use xlink:href="#DejaVuSans-30" x="190.869141"/>
      </g>
     </g>
    </g>
    <g id="xtick_18">
     <g id="line2d_51">
      <g>
       <use xlink:href="#m9496685b0a" x="1296.117291" y="246.90101" style="stroke: #000000; stroke-width: 0.8"/>
      </g>
     </g>
     <g id="text_56">
      <!-- 5000 -->
      <g transform="translate(1278.302291 264.538822) scale(0.14 -0.14)">
       <use xlink:href="#DejaVuSans-35"/>
       <use xlink:href="#DejaVuSans-30" x="63.623047"/>
       <use xlink:href="#DejaVuSans-30" x="127.246094"/>
       <use xlink:href="#DejaVuSans-30" x="190.869141"/>
      </g>
     </g>
    </g>
    <g id="xtick_19">
     <g id="line2d_52">
      <g>
       <use xlink:href="#m9496685b0a" x="1350.302856" y="246.90101" style="stroke: #000000; stroke-width: 0.8"/>
      </g>
     </g>
     <g id="text_57">
      <!-- 5250 -->
      <g transform="translate(1332.487856 264.538822) scale(0.14 -0.14)">
       <use xlink:href="#DejaVuSans-35"/>
       <use xlink:href="#DejaVuSans-32" x="63.623047"/>
       <use xlink:href="#DejaVuSans-35" x="127.246094"/>
       <use xlink:href="#DejaVuSans-30" x="190.869141"/>
      </g>
     </g>
    </g>
    <g id="xtick_20">
     <g id="line2d_53">
      <g>
       <use xlink:href="#m9496685b0a" x="1404.488421" y="246.90101" style="stroke: #000000; stroke-width: 0.8"/>
      </g>
     </g>
     <g id="text_58">
      <!-- 5500 -->
      <g transform="translate(1386.673421 264.538822) scale(0.14 -0.14)">
       <use xlink:href="#DejaVuSans-35"/>
       <use xlink:href="#DejaVuSans-35" x="63.623047"/>
       <use xlink:href="#DejaVuSans-30" x="127.246094"/>
       <use xlink:href="#DejaVuSans-30" x="190.869141"/>
      </g>
     </g>
    </g>
    <g id="text_59">
     <!-- $G_{12}$ [MPa] -->
     <g transform="translate(1283.701517 282.088197) scale(0.14 -0.14)">
      <defs>
       <path id="DejaVuSans-Oblique-47" d="M 3494 697 
L 3738 1919 
L 2700 1919 
L 2797 2438 
L 4453 2438 
L 4050 384 
Q 3634 156 3143 32 
Q 2653 -91 2156 -91 
Q 1278 -91 783 396 
Q 288 884 288 1753 
Q 288 2475 589 3126 
Q 891 3778 1422 4213 
Q 1756 4484 2153 4617 
Q 2550 4750 3034 4750 
Q 3472 4750 3873 4639 
Q 4275 4528 4641 4306 
L 4513 3634 
Q 4231 3928 3853 4083 
Q 3475 4238 3047 4238 
Q 2550 4238 2172 4048 
Q 1794 3859 1497 3463 
Q 1244 3125 1098 2667 
Q 953 2209 953 1734 
Q 953 1081 1287 751 
Q 1622 422 2284 422 
Q 2616 422 2925 492 
Q 3234 563 3494 697 
z
" transform="scale(0.015625)"/>
      </defs>
      <use xlink:href="#DejaVuSans-Oblique-47" transform="translate(0 0.015625)"/>
      <use xlink:href="#DejaVuSans-31" transform="translate(77.490234 -16.390625) scale(0.7)"/>
      <use xlink:href="#DejaVuSans-32" transform="translate(122.026367 -16.390625) scale(0.7)"/>
      <use xlink:href="#DejaVuSans-20" transform="translate(169.296875 0.015625)"/>
      <use xlink:href="#DejaVuSans-5b" transform="translate(201.083984 0.015625)"/>
      <use xlink:href="#DejaVuSans-4d" transform="translate(240.097656 0.015625)"/>
      <use xlink:href="#DejaVuSans-50" transform="translate(326.376953 0.015625)"/>
      <use xlink:href="#DejaVuSans-61" transform="translate(386.679688 0.015625)"/>
      <use xlink:href="#DejaVuSans-5d" transform="translate(447.958984 0.015625)"/>
     </g>
    </g>
   </g>
   <g id="matplotlib.axis_10">
    <g id="ytick_29">
     <g id="line2d_54">
      <g>
       <use xlink:href="#m9ab47a8326" x="1198.583274" y="246.90101" style="stroke: #000000; stroke-width: 0.8"/>
      </g>
     </g>
     <g id="text_60">
      <!-- 0.000 -->
      <g transform="translate(1151.503899 252.219916) scale(0.14 -0.14)">
       <use xlink:href="#DejaVuSans-30"/>
       <use xlink:href="#DejaVuSans-2e" x="63.623047"/>
       <use xlink:href="#DejaVuSans-30" x="95.410156"/>
       <use xlink:href="#DejaVuSans-30" x="159.033203"/>
       <use xlink:href="#DejaVuSans-30" x="222.65625"/>
      </g>
     </g>
    </g>
    <g id="ytick_30">
     <g id="line2d_55">
      <g>
       <use xlink:href="#m9ab47a8326" x="1198.583274" y="191.867886" style="stroke: #000000; stroke-width: 0.8"/>
      </g>
     </g>
     <g id="text_61">
      <!-- 0.001 -->
      <g transform="translate(1151.503899 197.186792) scale(0.14 -0.14)">
       <use xlink:href="#DejaVuSans-30"/>
       <use xlink:href="#DejaVuSans-2e" x="63.623047"/>
       <use xlink:href="#DejaVuSans-30" x="95.410156"/>
       <use xlink:href="#DejaVuSans-30" x="159.033203"/>
       <use xlink:href="#DejaVuSans-31" x="222.65625"/>
      </g>
     </g>
    </g>
    <g id="ytick_31">
     <g id="line2d_56">
      <g>
       <use xlink:href="#m9ab47a8326" x="1198.583274" y="136.834761" style="stroke: #000000; stroke-width: 0.8"/>
      </g>
     </g>
     <g id="text_62">
      <!-- 0.002 -->
      <g transform="translate(1151.503899 142.153667) scale(0.14 -0.14)">
       <use xlink:href="#DejaVuSans-30"/>
       <use xlink:href="#DejaVuSans-2e" x="63.623047"/>
       <use xlink:href="#DejaVuSans-30" x="95.410156"/>
       <use xlink:href="#DejaVuSans-30" x="159.033203"/>
       <use xlink:href="#DejaVuSans-32" x="222.65625"/>
      </g>
     </g>
    </g>
    <g id="ytick_32">
     <g id="line2d_57">
      <g>
       <use xlink:href="#m9ab47a8326" x="1198.583274" y="81.801637" style="stroke: #000000; stroke-width: 0.8"/>
      </g>
     </g>
     <g id="text_63">
      <!-- 0.003 -->
      <g transform="translate(1151.503899 87.120543) scale(0.14 -0.14)">
       <use xlink:href="#DejaVuSans-30"/>
       <use xlink:href="#DejaVuSans-2e" x="63.623047"/>
       <use xlink:href="#DejaVuSans-30" x="95.410156"/>
       <use xlink:href="#DejaVuSans-30" x="159.033203"/>
       <use xlink:href="#DejaVuSans-33" x="222.65625"/>
      </g>
     </g>
    </g>
    <g id="ytick_33">
     <g id="line2d_58">
      <g>
       <use xlink:href="#m9ab47a8326" x="1198.583274" y="26.768512" style="stroke: #000000; stroke-width: 0.8"/>
      </g>
     </g>
     <g id="text_64">
      <!-- 0.004 -->
      <g transform="translate(1151.503899 32.087418) scale(0.14 -0.14)">
       <use xlink:href="#DejaVuSans-30"/>
       <use xlink:href="#DejaVuSans-2e" x="63.623047"/>
       <use xlink:href="#DejaVuSans-30" x="95.410156"/>
       <use xlink:href="#DejaVuSans-30" x="159.033203"/>
       <use xlink:href="#DejaVuSans-34" x="222.65625"/>
      </g>
     </g>
    </g>
   </g>
   <g id="line2d_59">
    <path d="M 1209.420387 246.900628 
L 1213.843698 246.899939 
L 1218.267009 246.898133 
L 1222.690321 246.893593 
L 1227.113632 246.882672 
L 1231.536944 246.857518 
L 1235.960255 246.802069 
L 1240.383567 246.685109 
L 1244.806878 246.449105 
L 1249.230189 245.99371 
L 1253.653501 245.153713 
L 1258.076812 243.6733 
L 1262.500124 241.181826 
L 1266.923435 237.180577 
L 1271.346747 231.053936 
L 1275.770058 222.119687 
L 1280.19337 209.729362 
L 1284.616681 193.418586 
L 1289.039992 173.089808 
L 1293.463304 149.189572 
L 1297.886615 122.8271 
L 1302.309927 95.77909 
L 1306.733238 70.34342 
L 1311.15655 49.041352 
L 1315.579861 34.214448 
L 1320.003172 27.602955 
L 1324.426484 30.010055 
L 1328.849795 41.141443 
L 1333.273107 59.664488 
L 1337.696418 83.47054 
L 1342.11973 110.069089 
L 1346.543041 137.012129 
L 1350.966353 162.250025 
L 1355.389664 184.351745 
L 1359.812975 202.568294 
L 1364.236287 216.761346 
L 1368.659598 227.246402 
L 1373.08291 234.606752 
L 1377.506221 239.524479 
L 1381.929533 242.655655 
L 1386.352844 244.557387 
L 1390.776155 245.660005 
L 1395.199467 246.270676 
L 1399.622778 246.59391 
L 1404.04609 246.757493 
L 1408.469401 246.836677 
L 1412.892713 246.873348 
L 1417.316024 246.889601 
L 1421.739336 246.896497 
L 1426.162647 246.899297 
" clip-path="url(#p499bb7802f)" style="fill: none; stroke: #2ca02c; stroke-width: 1.5; stroke-linecap: square"/>
   </g>
   <g id="patch_175">
    <path d="M 1198.583274 246.90101 
L 1198.583274 16.638052 
" style="fill: none; stroke: #000000; stroke-width: 0.8; stroke-linejoin: miter; stroke-linecap: square"/>
   </g>
   <g id="patch_176">
    <path d="M 1436.99976 246.90101 
L 1436.99976 16.638052 
" style="fill: none; stroke: #000000; stroke-width: 0.8; stroke-linejoin: miter; stroke-linecap: square"/>
   </g>
   <g id="patch_177">
    <path d="M 1198.583274 246.90101 
L 1436.99976 246.90101 
" style="fill: none; stroke: #000000; stroke-width: 0.8; stroke-linejoin: miter; stroke-linecap: square"/>
   </g>
   <g id="patch_178">
    <path d="M 1198.583274 16.638052 
L 1436.99976 16.638052 
" style="fill: none; stroke: #000000; stroke-width: 0.8; stroke-linejoin: miter; stroke-linecap: square"/>
   </g>
  </g>
 </g>
 <defs>
  <clipPath id="p4d82c4c53c">
   <rect x="58.72149" y="16.638052" width="238.416486" height="230.262958"/>
  </clipPath>
  <clipPath id="p83837a0d84">
   <rect x="359.125331" y="16.638052" width="238.416486" height="230.262958"/>
  </clipPath>
  <clipPath id="p39f81b45e9">
   <rect x="628.357298" y="16.638052" width="238.416486" height="230.262958"/>
  </clipPath>
  <clipPath id="p670c24222e">
   <rect x="902.338098" y="16.638052" width="238.416486" height="230.262958"/>
  </clipPath>
  <clipPath id="p499bb7802f">
   <rect x="1198.583274" y="16.638052" width="238.416486" height="230.262958"/>
  </clipPath>
 </defs>
</svg>
