<?xml version="1.0" encoding="utf-8" standalone="no"?>
<!DOCTYPE svg PUBLIC "-//W3C//DTD SVG 1.1//EN"
  "http://www.w3.org/Graphics/SVG/1.1/DTD/svg11.dtd">
<svg xmlns:xlink="http://www.w3.org/1999/xlink" width="1440pt" height="288pt" viewBox="0 0 1440 288" xmlns="http://www.w3.org/2000/svg" version="1.1">
 <metadata>
  <rdf:RDF xmlns:dc="http://purl.org/dc/elements/1.1/" xmlns:cc="http://creativecommons.org/ns#" xmlns:rdf="http://www.w3.org/1999/02/22-rdf-syntax-ns#">
   <cc:Work>
    <dc:type rdf:resource="http://purl.org/dc/dcmitype/StillImage"/>
    <dc:date>2024-11-24T11:20:24.797378</dc:date>
    <dc:format>image/svg+xml</dc:format>
    <dc:creator>
     <cc:Agent>
      <dc:title>Matplotlib v3.9.2, https://matplotlib.org/</dc:title>
     </cc:Agent>
    </dc:creator>
   </cc:Work>
  </rdf:RDF>
 </metadata>
 <defs>
  <style type="text/css">*{stroke-linejoin: round; stroke-linecap: butt}</style>
 </defs>
 <g id="figure_1">
  <g id="patch_1">
   <path d="M 0 288 
L 1440 288 
L 1440 0 
L 0 0 
z
" style="fill: #ffffff"/>
  </g>
  <g id="axes_1">
   <g id="patch_2">
    <path d="M 49.81399 246.310385 
L 299.03926 246.310385 
L 299.03926 3.151178 
L 49.81399 3.151178 
z
" style="fill: #ffffff"/>
   </g>
   <g id="patch_3">
    <path d="M 155.869808 246.310385 
L 159.36241 246.310385 
L 159.36241 244.920904 
L 155.869808 244.920904 
z
" clip-path="url(#pb836e60504)" style="fill: #1f77b4"/>
   </g>
   <g id="patch_4">
    <path d="M 159.750477 246.310385 
L 163.243078 246.310385 
L 163.243078 245.384064 
L 159.750477 245.384064 
z
" clip-path="url(#pb836e60504)" style="fill: #1f77b4"/>
   </g>
   <g id="patch_5">
    <path d="M 163.631145 246.310385 
L 167.123747 246.310385 
L 167.123747 241.215621 
L 163.631145 241.215621 
z
" clip-path="url(#pb836e60504)" style="fill: #1f77b4"/>
   </g>
   <g id="patch_6">
    <path d="M 167.511814 246.310385 
L 171.004416 246.310385 
L 171.004416 239.362979 
L 167.511814 239.362979 
z
" clip-path="url(#pb836e60504)" style="fill: #1f77b4"/>
   </g>
   <g id="patch_7">
    <path d="M 171.392482 246.310385 
L 174.885084 246.310385 
L 174.885084 228.24713 
L 171.392482 228.24713 
z
" clip-path="url(#pb836e60504)" style="fill: #1f77b4"/>
   </g>
   <g id="patch_8">
    <path d="M 175.273151 246.310385 
L 178.765753 246.310385 
L 178.765753 229.17345 
L 175.273151 229.17345 
z
" clip-path="url(#pb836e60504)" style="fill: #1f77b4"/>
   </g>
   <g id="patch_9">
    <path d="M 179.15382 246.310385 
L 182.646422 246.310385 
L 182.646422 213.889157 
L 179.15382 213.889157 
z
" clip-path="url(#pb836e60504)" style="fill: #1f77b4"/>
   </g>
   <g id="patch_10">
    <path d="M 183.034488 246.310385 
L 186.52709 246.310385 
L 186.52709 189.804817 
L 183.034488 189.804817 
z
" clip-path="url(#pb836e60504)" style="fill: #1f77b4"/>
   </g>
   <g id="patch_11">
    <path d="M 186.915157 246.310385 
L 190.407759 246.310385 
L 190.407759 168.962599 
L 186.915157 168.962599 
z
" clip-path="url(#pb836e60504)" style="fill: #1f77b4"/>
   </g>
   <g id="patch_12">
    <path d="M 190.795826 246.310385 
L 194.288428 246.310385 
L 194.288428 131.446607 
L 190.795826 131.446607 
z
" clip-path="url(#pb836e60504)" style="fill: #1f77b4"/>
   </g>
   <g id="patch_13">
    <path d="M 194.676494 246.310385 
L 198.169096 246.310385 
L 198.169096 109.678069 
L 194.676494 109.678069 
z
" clip-path="url(#pb836e60504)" style="fill: #1f77b4"/>
   </g>
   <g id="patch_14">
    <path d="M 198.557163 246.310385 
L 202.049765 246.310385 
L 202.049765 62.898869 
L 198.557163 62.898869 
z
" clip-path="url(#pb836e60504)" style="fill: #1f77b4"/>
   </g>
   <g id="patch_15">
    <path d="M 202.437832 246.310385 
L 205.930433 246.310385 
L 205.930433 64.28835 
L 202.437832 64.28835 
z
" clip-path="url(#pb836e60504)" style="fill: #1f77b4"/>
   </g>
   <g id="patch_16">
    <path d="M 206.3185 246.310385 
L 209.811102 246.310385 
L 209.811102 14.730188 
L 206.3185 14.730188 
z
" clip-path="url(#pb836e60504)" style="fill: #1f77b4"/>
   </g>
   <g id="patch_17">
    <path d="M 210.199169 246.310385 
L 213.691771 246.310385 
L 213.691771 25.846038 
L 210.199169 25.846038 
z
" clip-path="url(#pb836e60504)" style="fill: #1f77b4"/>
   </g>
   <g id="patch_18">
    <path d="M 214.079838 246.310385 
L 217.572439 246.310385 
L 217.572439 33.719764 
L 214.079838 33.719764 
z
" clip-path="url(#pb836e60504)" style="fill: #1f77b4"/>
   </g>
   <g id="patch_19">
    <path d="M 217.960506 246.310385 
L 221.453108 246.310385 
L 221.453108 65.214671 
L 217.960506 65.214671 
z
" clip-path="url(#pb836e60504)" style="fill: #1f77b4"/>
   </g>
   <g id="patch_20">
    <path d="M 221.841175 246.310385 
L 225.333777 246.310385 
L 225.333777 85.593728 
L 221.841175 85.593728 
z
" clip-path="url(#pb836e60504)" style="fill: #1f77b4"/>
   </g>
   <g id="patch_21">
    <path d="M 225.721844 246.310385 
L 229.214445 246.310385 
L 229.214445 105.509625 
L 225.721844 105.509625 
z
" clip-path="url(#pb836e60504)" style="fill: #1f77b4"/>
   </g>
   <g id="patch_22">
    <path d="M 229.602512 246.310385 
L 233.095114 246.310385 
L 233.095114 136.078211 
L 229.602512 136.078211 
z
" clip-path="url(#pb836e60504)" style="fill: #1f77b4"/>
   </g>
   <g id="patch_23">
    <path d="M 233.483181 246.310385 
L 236.975783 246.310385 
L 236.975783 158.773071 
L 233.483181 158.773071 
z
" clip-path="url(#pb836e60504)" style="fill: #1f77b4"/>
   </g>
   <g id="patch_24">
    <path d="M 237.36385 246.310385 
L 240.856451 246.310385 
L 240.856451 197.678544 
L 237.36385 197.678544 
z
" clip-path="url(#pb836e60504)" style="fill: #1f77b4"/>
   </g>
   <g id="patch_25">
    <path d="M 241.244518 246.310385 
L 244.73712 246.310385 
L 244.73712 209.720714 
L 241.244518 209.720714 
z
" clip-path="url(#pb836e60504)" style="fill: #1f77b4"/>
   </g>
   <g id="patch_26">
    <path d="M 245.125187 246.310385 
L 248.617789 246.310385 
L 248.617789 224.078686 
L 245.125187 224.078686 
z
" clip-path="url(#pb836e60504)" style="fill: #1f77b4"/>
   </g>
   <g id="patch_27">
    <path d="M 249.005855 246.310385 
L 252.498457 246.310385 
L 252.498457 234.268215 
L 249.005855 234.268215 
z
" clip-path="url(#pb836e60504)" style="fill: #1f77b4"/>
   </g>
   <g id="patch_28">
    <path d="M 252.886524 246.310385 
L 256.379126 246.310385 
L 256.379126 238.436658 
L 252.886524 238.436658 
z
" clip-path="url(#pb836e60504)" style="fill: #1f77b4"/>
   </g>
   <g id="patch_29">
    <path d="M 256.767193 246.310385 
L 260.259795 246.310385 
L 260.259795 239.826139 
L 256.767193 239.826139 
z
" clip-path="url(#pb836e60504)" style="fill: #1f77b4"/>
   </g>
   <g id="patch_30">
    <path d="M 260.647861 246.310385 
L 264.140463 246.310385 
L 264.140463 244.457743 
L 260.647861 244.457743 
z
" clip-path="url(#pb836e60504)" style="fill: #1f77b4"/>
   </g>
   <g id="patch_31">
    <path d="M 264.52853 246.310385 
L 268.021132 246.310385 
L 268.021132 244.920904 
L 264.52853 244.920904 
z
" clip-path="url(#pb836e60504)" style="fill: #1f77b4"/>
   </g>
   <g id="patch_32">
    <path d="M 268.409199 246.310385 
L 271.901801 246.310385 
L 271.901801 245.384064 
L 268.409199 245.384064 
z
" clip-path="url(#pb836e60504)" style="fill: #1f77b4"/>
   </g>
   <g id="matplotlib.axis_1">
    <g id="xtick_1">
     <g id="line2d_1">
      <defs>
       <path id="m8b73025b66" d="M 0 0 
L 0 3.5 
" style="stroke: #000000; stroke-width: 0.8"/>
      </defs>
      <g>
       <use xlink:href="#m8b73025b66" x="98.903816" y="246.310385" style="stroke: #000000; stroke-width: 0.8"/>
      </g>
     </g>
     <g id="text_1">
      <!-- −2 -->
      <g transform="translate(88.584285 263.948197) scale(0.14 -0.14)">
       <defs>
        <path id="DejaVuSans-2212" d="M 678 2272 
L 4684 2272 
L 4684 1741 
L 678 1741 
L 678 2272 
z
" transform="scale(0.015625)"/>
        <path id="DejaVuSans-32" d="M 1228 531 
L 3431 531 
L 3431 0 
L 469 0 
L 469 531 
Q 828 903 1448 1529 
Q 2069 2156 2228 2338 
Q 2531 2678 2651 2914 
Q 2772 3150 2772 3378 
Q 2772 3750 2511 3984 
Q 2250 4219 1831 4219 
Q 1534 4219 1204 4116 
Q 875 4013 500 3803 
L 500 4441 
Q 881 4594 1212 4672 
Q 1544 4750 1819 4750 
Q 2544 4750 2975 4387 
Q 3406 4025 3406 3419 
Q 3406 3131 3298 2873 
Q 3191 2616 2906 2266 
Q 2828 2175 2409 1742 
Q 1991 1309 1228 531 
z
" transform="scale(0.015625)"/>
       </defs>
       <use xlink:href="#DejaVuSans-2212"/>
       <use xlink:href="#DejaVuSans-32" x="83.789062"/>
      </g>
     </g>
    </g>
    <g id="xtick_2">
     <g id="line2d_2">
      <g>
       <use xlink:href="#m8b73025b66" x="174.426625" y="246.310385" style="stroke: #000000; stroke-width: 0.8"/>
      </g>
     </g>
     <g id="text_2">
      <!-- 0 -->
      <g transform="translate(169.972875 263.948197) scale(0.14 -0.14)">
       <defs>
        <path id="DejaVuSans-30" d="M 2034 4250 
Q 1547 4250 1301 3770 
Q 1056 3291 1056 2328 
Q 1056 1369 1301 889 
Q 1547 409 2034 409 
Q 2525 409 2770 889 
Q 3016 1369 3016 2328 
Q 3016 3291 2770 3770 
Q 2525 4250 2034 4250 
z
M 2034 4750 
Q 2819 4750 3233 4129 
Q 3647 3509 3647 2328 
Q 3647 1150 3233 529 
Q 2819 -91 2034 -91 
Q 1250 -91 836 529 
Q 422 1150 422 2328 
Q 422 3509 836 4129 
Q 1250 4750 2034 4750 
z
" transform="scale(0.015625)"/>
       </defs>
       <use xlink:href="#DejaVuSans-30"/>
      </g>
     </g>
    </g>
    <g id="xtick_3">
     <g id="line2d_3">
      <g>
       <use xlink:href="#m8b73025b66" x="249.949434" y="246.310385" style="stroke: #000000; stroke-width: 0.8"/>
      </g>
     </g>
     <g id="text_3">
      <!-- 2 -->
      <g transform="translate(245.495684 263.948197) scale(0.14 -0.14)">
       <use xlink:href="#DejaVuSans-32"/>
      </g>
     </g>
    </g>
    <g id="text_4">
     <!-- $b_{\alpha,1}$ [deg] -->
     <g transform="translate(139.986625 281.49976) scale(0.14 -0.14)">
      <defs>
       <path id="DejaVuSans-Oblique-62" d="M 3169 2138 
Q 3169 2591 2961 2847 
Q 2753 3103 2388 3103 
Q 2122 3103 1889 2973 
Q 1656 2844 1484 2597 
Q 1303 2338 1198 1995 
Q 1094 1653 1094 1313 
Q 1094 881 1298 636 
Q 1503 391 1863 391 
Q 2134 391 2365 517 
Q 2597 644 2772 891 
Q 2950 1147 3059 1487 
Q 3169 1828 3169 2138 
z
M 1381 2969 
Q 1594 3256 1914 3420 
Q 2234 3584 2584 3584 
Q 3122 3584 3439 3221 
Q 3756 2859 3756 2241 
Q 3756 1734 3570 1259 
Q 3384 784 3041 416 
Q 2816 172 2522 40 
Q 2228 -91 1906 -91 
Q 1566 -91 1316 65 
Q 1066 222 909 531 
L 806 0 
L 231 0 
L 1178 4863 
L 1753 4863 
L 1381 2969 
z
" transform="scale(0.015625)"/>
       <path id="DejaVuSans-Oblique-3b1" d="M 2619 1628 
L 2622 2350 
Q 2625 3088 2069 3091 
Q 1653 3094 1394 2747 
Q 1069 2319 959 1747 
Q 825 1059 994 731 
Q 1169 397 1547 397 
Q 1966 397 2319 1063 
L 2619 1628 
z
M 2166 3578 
Q 3141 3594 3128 2584 
Q 3128 2584 3616 3500 
L 4128 3500 
L 3119 1603 
L 3109 919 
Q 3109 766 3194 638 
Q 3291 488 3391 488 
L 3669 488 
L 3575 0 
L 3228 0 
Q 2934 0 2722 263 
Q 2622 394 2619 669 
Q 2416 334 2066 50 
Q 1900 -81 1453 -78 
Q 722 -72 456 397 
Q 184 884 353 1747 
Q 534 2675 1009 3097 
Q 1544 3569 2166 3578 
z
" transform="scale(0.015625)"/>
       <path id="DejaVuSans-2c" d="M 750 794 
L 1409 794 
L 1409 256 
L 897 -744 
L 494 -744 
L 750 256 
L 750 794 
z
" transform="scale(0.015625)"/>
       <path id="DejaVuSans-31" d="M 794 531 
L 1825 531 
L 1825 4091 
L 703 3866 
L 703 4441 
L 1819 4666 
L 2450 4666 
L 2450 531 
L 3481 531 
L 3481 0 
L 794 0 
L 794 531 
z
" transform="scale(0.015625)"/>
       <path id="DejaVuSans-20" transform="scale(0.015625)"/>
       <path id="DejaVuSans-5b" d="M 550 4863 
L 1875 4863 
L 1875 4416 
L 1125 4416 
L 1125 -397 
L 1875 -397 
L 1875 -844 
L 550 -844 
L 550 4863 
z
" transform="scale(0.015625)"/>
       <path id="DejaVuSans-64" d="M 2906 2969 
L 2906 4863 
L 3481 4863 
L 3481 0 
L 2906 0 
L 2906 525 
Q 2725 213 2448 61 
Q 2172 -91 1784 -91 
Q 1150 -91 751 415 
Q 353 922 353 1747 
Q 353 2572 751 3078 
Q 1150 3584 1784 3584 
Q 2172 3584 2448 3432 
Q 2725 3281 2906 2969 
z
M 947 1747 
Q 947 1113 1208 752 
Q 1469 391 1925 391 
Q 2381 391 2643 752 
Q 2906 1113 2906 1747 
Q 2906 2381 2643 2742 
Q 2381 3103 1925 3103 
Q 1469 3103 1208 2742 
Q 947 2381 947 1747 
z
" transform="scale(0.015625)"/>
       <path id="DejaVuSans-65" d="M 3597 1894 
L 3597 1613 
L 953 1613 
Q 991 1019 1311 708 
Q 1631 397 2203 397 
Q 2534 397 2845 478 
Q 3156 559 3463 722 
L 3463 178 
Q 3153 47 2828 -22 
Q 2503 -91 2169 -91 
Q 1331 -91 842 396 
Q 353 884 353 1716 
Q 353 2575 817 3079 
Q 1281 3584 2069 3584 
Q 2775 3584 3186 3129 
Q 3597 2675 3597 1894 
z
M 3022 2063 
Q 3016 2534 2758 2815 
Q 2500 3097 2075 3097 
Q 1594 3097 1305 2825 
Q 1016 2553 972 2059 
L 3022 2063 
z
" transform="scale(0.015625)"/>
       <path id="DejaVuSans-67" d="M 2906 1791 
Q 2906 2416 2648 2759 
Q 2391 3103 1925 3103 
Q 1463 3103 1205 2759 
Q 947 2416 947 1791 
Q 947 1169 1205 825 
Q 1463 481 1925 481 
Q 2391 481 2648 825 
Q 2906 1169 2906 1791 
z
M 3481 434 
Q 3481 -459 3084 -895 
Q 2688 -1331 1869 -1331 
Q 1566 -1331 1297 -1286 
Q 1028 -1241 775 -1147 
L 775 -588 
Q 1028 -725 1275 -790 
Q 1522 -856 1778 -856 
Q 2344 -856 2625 -561 
Q 2906 -266 2906 331 
L 2906 616 
Q 2728 306 2450 153 
Q 2172 0 1784 0 
Q 1141 0 747 490 
Q 353 981 353 1791 
Q 353 2603 747 3093 
Q 1141 3584 1784 3584 
Q 2172 3584 2450 3431 
Q 2728 3278 2906 2969 
L 2906 3500 
L 3481 3500 
L 3481 434 
z
" transform="scale(0.015625)"/>
       <path id="DejaVuSans-5d" d="M 1947 4863 
L 1947 -844 
L 622 -844 
L 622 -397 
L 1369 -397 
L 1369 4416 
L 622 4416 
L 622 4863 
L 1947 4863 
z
" transform="scale(0.015625)"/>
      </defs>
      <use xlink:href="#DejaVuSans-Oblique-62" transform="translate(0 0.015625)"/>
      <use xlink:href="#DejaVuSans-Oblique-3b1" transform="translate(63.476562 -16.390625) scale(0.7)"/>
      <use xlink:href="#DejaVuSans-2c" transform="translate(109.619141 -16.390625) scale(0.7)"/>
      <use xlink:href="#DejaVuSans-31" transform="translate(145.507812 -16.390625) scale(0.7)"/>
      <use xlink:href="#DejaVuSans-20" transform="translate(192.77832 0.015625)"/>
      <use xlink:href="#DejaVuSans-5b" transform="translate(224.56543 0.015625)"/>
      <use xlink:href="#DejaVuSans-64" transform="translate(263.579102 0.015625)"/>
      <use xlink:href="#DejaVuSans-65" transform="translate(327.055664 0.015625)"/>
      <use xlink:href="#DejaVuSans-67" transform="translate(388.579102 0.015625)"/>
      <use xlink:href="#DejaVuSans-5d" transform="translate(452.055664 0.015625)"/>
     </g>
    </g>
   </g>
   <g id="matplotlib.axis_2">
    <g id="ytick_1">
     <g id="line2d_4">
      <defs>
       <path id="m76eb64b889" d="M 0 0 
L -3.5 0 
" style="stroke: #000000; stroke-width: 0.8"/>
      </defs>
      <g>
       <use xlink:href="#m76eb64b889" x="49.81399" y="246.310385" style="stroke: #000000; stroke-width: 0.8"/>
      </g>
     </g>
     <g id="text_5">
      <!-- 0.0 -->
      <g transform="translate(20.549615 251.629291) scale(0.14 -0.14)">
       <defs>
        <path id="DejaVuSans-2e" d="M 684 794 
L 1344 794 
L 1344 0 
L 684 0 
L 684 794 
z
" transform="scale(0.015625)"/>
       </defs>
       <use xlink:href="#DejaVuSans-30"/>
       <use xlink:href="#DejaVuSans-2e" x="63.623047"/>
       <use xlink:href="#DejaVuSans-30" x="95.410156"/>
      </g>
     </g>
    </g>
    <g id="ytick_2">
     <g id="line2d_5">
      <g>
       <use xlink:href="#m76eb64b889" x="49.81399" y="198.712261" style="stroke: #000000; stroke-width: 0.8"/>
      </g>
     </g>
     <g id="text_6">
      <!-- 0.2 -->
      <g transform="translate(20.549615 204.031167) scale(0.14 -0.14)">
       <use xlink:href="#DejaVuSans-30"/>
       <use xlink:href="#DejaVuSans-2e" x="63.623047"/>
       <use xlink:href="#DejaVuSans-32" x="95.410156"/>
      </g>
     </g>
    </g>
    <g id="ytick_3">
     <g id="line2d_6">
      <g>
       <use xlink:href="#m76eb64b889" x="49.81399" y="151.114137" style="stroke: #000000; stroke-width: 0.8"/>
      </g>
     </g>
     <g id="text_7">
      <!-- 0.4 -->
      <g transform="translate(20.549615 156.433043) scale(0.14 -0.14)">
       <defs>
        <path id="DejaVuSans-34" d="M 2419 4116 
L 825 1625 
L 2419 1625 
L 2419 4116 
z
M 2253 4666 
L 3047 4666 
L 3047 1625 
L 3713 1625 
L 3713 1100 
L 3047 1100 
L 3047 0 
L 2419 0 
L 2419 1100 
L 313 1100 
L 313 1709 
L 2253 4666 
z
" transform="scale(0.015625)"/>
       </defs>
       <use xlink:href="#DejaVuSans-30"/>
       <use xlink:href="#DejaVuSans-2e" x="63.623047"/>
       <use xlink:href="#DejaVuSans-34" x="95.410156"/>
      </g>
     </g>
    </g>
    <g id="ytick_4">
     <g id="line2d_7">
      <g>
       <use xlink:href="#m76eb64b889" x="49.81399" y="103.516013" style="stroke: #000000; stroke-width: 0.8"/>
      </g>
     </g>
     <g id="text_8">
      <!-- 0.6 -->
      <g transform="translate(20.549615 108.834919) scale(0.14 -0.14)">
       <defs>
        <path id="DejaVuSans-36" d="M 2113 2584 
Q 1688 2584 1439 2293 
Q 1191 2003 1191 1497 
Q 1191 994 1439 701 
Q 1688 409 2113 409 
Q 2538 409 2786 701 
Q 3034 994 3034 1497 
Q 3034 2003 2786 2293 
Q 2538 2584 2113 2584 
z
M 3366 4563 
L 3366 3988 
Q 3128 4100 2886 4159 
Q 2644 4219 2406 4219 
Q 1781 4219 1451 3797 
Q 1122 3375 1075 2522 
Q 1259 2794 1537 2939 
Q 1816 3084 2150 3084 
Q 2853 3084 3261 2657 
Q 3669 2231 3669 1497 
Q 3669 778 3244 343 
Q 2819 -91 2113 -91 
Q 1303 -91 875 529 
Q 447 1150 447 2328 
Q 447 3434 972 4092 
Q 1497 4750 2381 4750 
Q 2619 4750 2861 4703 
Q 3103 4656 3366 4563 
z
" transform="scale(0.015625)"/>
       </defs>
       <use xlink:href="#DejaVuSans-30"/>
       <use xlink:href="#DejaVuSans-2e" x="63.623047"/>
       <use xlink:href="#DejaVuSans-36" x="95.410156"/>
      </g>
     </g>
    </g>
    <g id="ytick_5">
     <g id="line2d_8">
      <g>
       <use xlink:href="#m76eb64b889" x="49.81399" y="55.917889" style="stroke: #000000; stroke-width: 0.8"/>
      </g>
     </g>
     <g id="text_9">
      <!-- 0.8 -->
      <g transform="translate(20.549615 61.236795) scale(0.14 -0.14)">
       <defs>
        <path id="DejaVuSans-38" d="M 2034 2216 
Q 1584 2216 1326 1975 
Q 1069 1734 1069 1313 
Q 1069 891 1326 650 
Q 1584 409 2034 409 
Q 2484 409 2743 651 
Q 3003 894 3003 1313 
Q 3003 1734 2745 1975 
Q 2488 2216 2034 2216 
z
M 1403 2484 
Q 997 2584 770 2862 
Q 544 3141 544 3541 
Q 544 4100 942 4425 
Q 1341 4750 2034 4750 
Q 2731 4750 3128 4425 
Q 3525 4100 3525 3541 
Q 3525 3141 3298 2862 
Q 3072 2584 2669 2484 
Q 3125 2378 3379 2068 
Q 3634 1759 3634 1313 
Q 3634 634 3220 271 
Q 2806 -91 2034 -91 
Q 1263 -91 848 271 
Q 434 634 434 1313 
Q 434 1759 690 2068 
Q 947 2378 1403 2484 
z
M 1172 3481 
Q 1172 3119 1398 2916 
Q 1625 2713 2034 2713 
Q 2441 2713 2670 2916 
Q 2900 3119 2900 3481 
Q 2900 3844 2670 4047 
Q 2441 4250 2034 4250 
Q 1625 4250 1398 4047 
Q 1172 3844 1172 3481 
z
" transform="scale(0.015625)"/>
       </defs>
       <use xlink:href="#DejaVuSans-30"/>
       <use xlink:href="#DejaVuSans-2e" x="63.623047"/>
       <use xlink:href="#DejaVuSans-38" x="95.410156"/>
      </g>
     </g>
    </g>
    <g id="ytick_6">
     <g id="line2d_9">
      <g>
       <use xlink:href="#m76eb64b889" x="49.81399" y="8.319765" style="stroke: #000000; stroke-width: 0.8"/>
      </g>
     </g>
     <g id="text_10">
      <!-- 1.0 -->
      <g transform="translate(20.549615 13.638671) scale(0.14 -0.14)">
       <use xlink:href="#DejaVuSans-31"/>
       <use xlink:href="#DejaVuSans-2e" x="63.623047"/>
       <use xlink:href="#DejaVuSans-30" x="95.410156"/>
      </g>
     </g>
    </g>
    <g id="text_11">
     <!-- PDF -->
     <g transform="translate(13.638053 138.367657) rotate(-90) scale(0.14 -0.14)">
      <defs>
       <path id="DejaVuSans-50" d="M 1259 4147 
L 1259 2394 
L 2053 2394 
Q 2494 2394 2734 2622 
Q 2975 2850 2975 3272 
Q 2975 3691 2734 3919 
Q 2494 4147 2053 4147 
L 1259 4147 
z
M 628 4666 
L 2053 4666 
Q 2838 4666 3239 4311 
Q 3641 3956 3641 3272 
Q 3641 2581 3239 2228 
Q 2838 1875 2053 1875 
L 1259 1875 
L 1259 0 
L 628 0 
L 628 4666 
z
" transform="scale(0.015625)"/>
       <path id="DejaVuSans-44" d="M 1259 4147 
L 1259 519 
L 2022 519 
Q 2988 519 3436 956 
Q 3884 1394 3884 2338 
Q 3884 3275 3436 3711 
Q 2988 4147 2022 4147 
L 1259 4147 
z
M 628 4666 
L 1925 4666 
Q 3281 4666 3915 4102 
Q 4550 3538 4550 2338 
Q 4550 1131 3912 565 
Q 3275 0 1925 0 
L 628 0 
L 628 4666 
z
" transform="scale(0.015625)"/>
       <path id="DejaVuSans-46" d="M 628 4666 
L 3309 4666 
L 3309 4134 
L 1259 4134 
L 1259 2759 
L 3109 2759 
L 3109 2228 
L 1259 2228 
L 1259 0 
L 628 0 
L 628 4666 
z
" transform="scale(0.015625)"/>
      </defs>
      <use xlink:href="#DejaVuSans-50"/>
      <use xlink:href="#DejaVuSans-44" x="60.302734"/>
      <use xlink:href="#DejaVuSans-46" x="137.304688"/>
     </g>
    </g>
   </g>
   <g id="line2d_10">
    <path d="M 61.142411 245.255647 
L 63.430981 245.047657 
L 65.719551 244.804196 
L 68.008121 244.52038 
L 70.296691 244.190884 
L 72.585261 243.809937 
L 74.873831 243.371336 
L 77.162401 242.868466 
L 79.450971 242.294334 
L 81.739541 241.641613 
L 84.028111 240.902707 
L 86.316681 240.069821 
L 88.605251 239.13506 
L 90.893821 238.09053 
L 93.182391 236.928469 
L 95.470961 235.641385 
L 97.759531 234.222212 
L 100.048101 232.664478 
L 102.336671 230.962485 
L 104.625241 229.111499 
L 106.913811 227.107943 
L 109.202381 224.949591 
L 111.490951 222.635759 
L 113.779521 220.167492 
L 116.068091 217.54773 
L 118.356661 214.781465 
L 120.645231 211.875867 
L 122.933801 208.840383 
L 125.222371 205.686803 
L 127.510941 202.429284 
L 129.799511 199.084336 
L 132.088081 195.670758 
L 134.37665 192.209523 
L 136.66522 188.723622 
L 138.95379 185.237851 
L 141.24236 181.77855 
L 143.53093 178.373305 
L 145.8195 175.050595 
L 148.10807 171.839418 
L 150.39664 168.768876 
L 152.68521 165.867749 
L 154.97378 163.164045 
L 157.26235 160.684559 
L 159.55092 158.454429 
L 161.83949 156.496717 
L 164.12806 154.832006 
L 166.41663 153.478049 
L 168.7052 152.449447 
L 170.99377 151.757387 
L 173.28234 151.409447 
L 175.57091 151.409447 
L 177.85948 151.757387 
L 180.14805 152.449447 
L 182.43662 153.478049 
L 184.72519 154.832006 
L 187.01376 156.496717 
L 189.30233 158.454429 
L 191.5909 160.684559 
L 193.87947 163.164045 
L 196.16804 165.867749 
L 198.45661 168.768876 
L 200.74518 171.839418 
L 203.03375 175.050595 
L 205.32232 178.373305 
L 207.61089 181.77855 
L 209.89946 185.237851 
L 212.18803 188.723622 
L 214.4766 192.209523 
L 216.765169 195.670758 
L 219.053739 199.084336 
L 221.342309 202.429284 
L 223.630879 205.686803 
L 225.919449 208.840383 
L 228.208019 211.875867 
L 230.496589 214.781465 
L 232.785159 217.54773 
L 235.073729 220.167492 
L 237.362299 222.635759 
L 239.650869 224.949591 
L 241.939439 227.107943 
L 244.228009 229.111499 
L 246.516579 230.962485 
L 248.805149 232.664478 
L 251.093719 234.222212 
L 253.382289 235.641385 
L 255.670859 236.928469 
L 257.959429 238.09053 
L 260.247999 239.13506 
L 262.536569 240.069821 
L 264.825139 240.902707 
L 267.113709 241.641613 
L 269.402279 242.294334 
L 271.690849 242.868466 
L 273.979419 243.371336 
L 276.267989 243.809937 
L 278.556559 244.190884 
L 280.845129 244.52038 
L 283.133699 244.804196 
L 285.422269 245.047657 
L 287.710839 245.255647 
" clip-path="url(#pb836e60504)" style="fill: none; stroke: #2ca02c; stroke-width: 1.5; stroke-linecap: square"/>
   </g>
   <g id="patch_33">
    <path d="M 49.81399 246.310385 
L 49.81399 3.151178 
" style="fill: none; stroke: #000000; stroke-width: 0.8; stroke-linejoin: miter; stroke-linecap: square"/>
   </g>
   <g id="patch_34">
    <path d="M 299.03926 246.310385 
L 299.03926 3.151178 
" style="fill: none; stroke: #000000; stroke-width: 0.8; stroke-linejoin: miter; stroke-linecap: square"/>
   </g>
   <g id="patch_35">
    <path d="M 49.81399 246.310385 
L 299.03926 246.310385 
" style="fill: none; stroke: #000000; stroke-width: 0.8; stroke-linejoin: miter; stroke-linecap: square"/>
   </g>
   <g id="patch_36">
    <path d="M 49.81399 3.151178 
L 299.03926 3.151178 
" style="fill: none; stroke: #000000; stroke-width: 0.8; stroke-linejoin: miter; stroke-linecap: square"/>
   </g>
   <g id="legend_1">
    <g id="patch_37">
     <path d="M 59.61399 55.449928 
L 166.27649 55.449928 
Q 169.07649 55.449928 169.07649 52.649928 
L 169.07649 12.951178 
Q 169.07649 10.151178 166.27649 10.151178 
L 59.61399 10.151178 
Q 56.81399 10.151178 56.81399 12.951178 
L 56.81399 52.649928 
Q 56.81399 55.449928 59.61399 55.449928 
z
" style="fill: #ffffff; opacity: 0.8; stroke: #cccccc; stroke-linejoin: miter"/>
    </g>
    <g id="line2d_11">
     <path d="M 62.41399 21.488991 
L 76.41399 21.488991 
L 90.41399 21.488991 
" style="fill: none; stroke: #2ca02c; stroke-width: 1.5; stroke-linecap: square"/>
    </g>
    <g id="text_12">
     <!-- Prior -->
     <g transform="translate(101.61399 26.388991) scale(0.14 -0.14)">
      <defs>
       <path id="DejaVuSans-72" d="M 2631 2963 
Q 2534 3019 2420 3045 
Q 2306 3072 2169 3072 
Q 1681 3072 1420 2755 
Q 1159 2438 1159 1844 
L 1159 0 
L 581 0 
L 581 3500 
L 1159 3500 
L 1159 2956 
Q 1341 3275 1631 3429 
Q 1922 3584 2338 3584 
Q 2397 3584 2469 3576 
Q 2541 3569 2628 3553 
L 2631 2963 
z
" transform="scale(0.015625)"/>
       <path id="DejaVuSans-69" d="M 603 3500 
L 1178 3500 
L 1178 0 
L 603 0 
L 603 3500 
z
M 603 4863 
L 1178 4863 
L 1178 4134 
L 603 4134 
L 603 4863 
z
" transform="scale(0.015625)"/>
       <path id="DejaVuSans-6f" d="M 1959 3097 
Q 1497 3097 1228 2736 
Q 959 2375 959 1747 
Q 959 1119 1226 758 
Q 1494 397 1959 397 
Q 2419 397 2687 759 
Q 2956 1122 2956 1747 
Q 2956 2369 2687 2733 
Q 2419 3097 1959 3097 
z
M 1959 3584 
Q 2709 3584 3137 3096 
Q 3566 2609 3566 1747 
Q 3566 888 3137 398 
Q 2709 -91 1959 -91 
Q 1206 -91 779 398 
Q 353 888 353 1747 
Q 353 2609 779 3096 
Q 1206 3584 1959 3584 
z
" transform="scale(0.015625)"/>
      </defs>
      <use xlink:href="#DejaVuSans-50"/>
      <use xlink:href="#DejaVuSans-72" x="58.552734"/>
      <use xlink:href="#DejaVuSans-69" x="99.666016"/>
      <use xlink:href="#DejaVuSans-6f" x="127.449219"/>
      <use xlink:href="#DejaVuSans-72" x="188.630859"/>
     </g>
    </g>
    <g id="patch_38">
     <path d="M 62.41399 46.938366 
L 90.41399 46.938366 
L 90.41399 37.138366 
L 62.41399 37.138366 
z
" style="fill: #1f77b4"/>
    </g>
    <g id="text_13">
     <!-- Posterior -->
     <g transform="translate(101.61399 46.938366) scale(0.14 -0.14)">
      <defs>
       <path id="DejaVuSans-73" d="M 2834 3397 
L 2834 2853 
Q 2591 2978 2328 3040 
Q 2066 3103 1784 3103 
Q 1356 3103 1142 2972 
Q 928 2841 928 2578 
Q 928 2378 1081 2264 
Q 1234 2150 1697 2047 
L 1894 2003 
Q 2506 1872 2764 1633 
Q 3022 1394 3022 966 
Q 3022 478 2636 193 
Q 2250 -91 1575 -91 
Q 1294 -91 989 -36 
Q 684 19 347 128 
L 347 722 
Q 666 556 975 473 
Q 1284 391 1588 391 
Q 1994 391 2212 530 
Q 2431 669 2431 922 
Q 2431 1156 2273 1281 
Q 2116 1406 1581 1522 
L 1381 1569 
Q 847 1681 609 1914 
Q 372 2147 372 2553 
Q 372 3047 722 3315 
Q 1072 3584 1716 3584 
Q 2034 3584 2315 3537 
Q 2597 3491 2834 3397 
z
" transform="scale(0.015625)"/>
       <path id="DejaVuSans-74" d="M 1172 4494 
L 1172 3500 
L 2356 3500 
L 2356 3053 
L 1172 3053 
L 1172 1153 
Q 1172 725 1289 603 
Q 1406 481 1766 481 
L 2356 481 
L 2356 0 
L 1766 0 
Q 1100 0 847 248 
Q 594 497 594 1153 
L 594 3053 
L 172 3053 
L 172 3500 
L 594 3500 
L 594 4494 
L 1172 4494 
z
" transform="scale(0.015625)"/>
      </defs>
      <use xlink:href="#DejaVuSans-50"/>
      <use xlink:href="#DejaVuSans-6f" x="56.677734"/>
      <use xlink:href="#DejaVuSans-73" x="117.859375"/>
      <use xlink:href="#DejaVuSans-74" x="169.958984"/>
      <use xlink:href="#DejaVuSans-65" x="209.167969"/>
      <use xlink:href="#DejaVuSans-72" x="270.691406"/>
      <use xlink:href="#DejaVuSans-69" x="311.804688"/>
      <use xlink:href="#DejaVuSans-6f" x="339.587891"/>
      <use xlink:href="#DejaVuSans-72" x="400.769531"/>
     </g>
    </g>
   </g>
  </g>
  <g id="axes_2">
   <g id="patch_39">
    <path d="M 334.304115 246.310385 
L 583.529385 246.310385 
L 583.529385 3.151178 
L 334.304115 3.151178 
z
" style="fill: #ffffff"/>
   </g>
   <g id="patch_40">
    <path d="M 398.450249 246.310385 
L 402.084079 246.310385 
L 402.084079 245.829928 
L 398.450249 245.829928 
z
" clip-path="url(#p272e7a90cc)" style="fill: #1f77b4"/>
   </g>
   <g id="patch_41">
    <path d="M 402.487838 246.310385 
L 406.121668 246.310385 
L 406.121668 245.349471 
L 402.487838 245.349471 
z
" clip-path="url(#p272e7a90cc)" style="fill: #1f77b4"/>
   </g>
   <g id="patch_42">
    <path d="M 406.525427 246.310385 
L 410.159257 246.310385 
L 410.159257 244.869014 
L 406.525427 244.869014 
z
" clip-path="url(#p272e7a90cc)" style="fill: #1f77b4"/>
   </g>
   <g id="patch_43">
    <path d="M 410.563016 246.310385 
L 414.196846 246.310385 
L 414.196846 245.349471 
L 410.563016 245.349471 
z
" clip-path="url(#p272e7a90cc)" style="fill: #1f77b4"/>
   </g>
   <g id="patch_44">
    <path d="M 414.600605 246.310385 
L 418.234436 246.310385 
L 418.234436 241.02536 
L 414.600605 241.02536 
z
" clip-path="url(#p272e7a90cc)" style="fill: #1f77b4"/>
   </g>
   <g id="patch_45">
    <path d="M 418.638194 246.310385 
L 422.272025 246.310385 
L 422.272025 232.857593 
L 418.638194 232.857593 
z
" clip-path="url(#p272e7a90cc)" style="fill: #1f77b4"/>
   </g>
   <g id="patch_46">
    <path d="M 422.675784 246.310385 
L 426.309614 246.310385 
L 426.309614 222.287543 
L 422.675784 222.287543 
z
" clip-path="url(#p272e7a90cc)" style="fill: #1f77b4"/>
   </g>
   <g id="patch_47">
    <path d="M 426.713373 246.310385 
L 430.347203 246.310385 
L 430.347203 200.666985 
L 426.713373 200.666985 
z
" clip-path="url(#p272e7a90cc)" style="fill: #1f77b4"/>
   </g>
   <g id="patch_48">
    <path d="M 430.750962 246.310385 
L 434.384792 246.310385 
L 434.384792 176.163686 
L 430.750962 176.163686 
z
" clip-path="url(#p272e7a90cc)" style="fill: #1f77b4"/>
   </g>
   <g id="patch_49">
    <path d="M 434.788551 246.310385 
L 438.422381 246.310385 
L 438.422381 159.828154 
L 434.788551 159.828154 
z
" clip-path="url(#p272e7a90cc)" style="fill: #1f77b4"/>
   </g>
   <g id="patch_50">
    <path d="M 438.82614 246.310385 
L 442.45997 246.310385 
L 442.45997 110.821556 
L 438.82614 110.821556 
z
" clip-path="url(#p272e7a90cc)" style="fill: #1f77b4"/>
   </g>
   <g id="patch_51">
    <path d="M 442.863729 246.310385 
L 446.497559 246.310385 
L 446.497559 91.603283 
L 442.863729 91.603283 
z
" clip-path="url(#p272e7a90cc)" style="fill: #1f77b4"/>
   </g>
   <g id="patch_52">
    <path d="M 446.901318 246.310385 
L 450.535149 246.310385 
L 450.535149 63.736786 
L 446.901318 63.736786 
z
" clip-path="url(#p272e7a90cc)" style="fill: #1f77b4"/>
   </g>
   <g id="patch_53">
    <path d="M 450.938907 246.310385 
L 454.572738 246.310385 
L 454.572738 30.104807 
L 450.938907 30.104807 
z
" clip-path="url(#p272e7a90cc)" style="fill: #1f77b4"/>
   </g>
   <g id="patch_54">
    <path d="M 454.976497 246.310385 
L 458.610327 246.310385 
L 458.610327 16.171559 
L 454.976497 16.171559 
z
" clip-path="url(#p272e7a90cc)" style="fill: #1f77b4"/>
   </g>
   <g id="patch_55">
    <path d="M 459.014086 246.310385 
L 462.647916 246.310385 
L 462.647916 14.730188 
L 459.014086 14.730188 
z
" clip-path="url(#p272e7a90cc)" style="fill: #1f77b4"/>
   </g>
   <g id="patch_56">
    <path d="M 463.051675 246.310385 
L 466.685505 246.310385 
L 466.685505 34.909375 
L 463.051675 34.909375 
z
" clip-path="url(#p272e7a90cc)" style="fill: #1f77b4"/>
   </g>
   <g id="patch_57">
    <path d="M 467.089264 246.310385 
L 470.723094 246.310385 
L 470.723094 58.451761 
L 467.089264 58.451761 
z
" clip-path="url(#p272e7a90cc)" style="fill: #1f77b4"/>
   </g>
   <g id="patch_58">
    <path d="M 471.126853 246.310385 
L 474.760683 246.310385 
L 474.760683 74.787293 
L 471.126853 74.787293 
z
" clip-path="url(#p272e7a90cc)" style="fill: #1f77b4"/>
   </g>
   <g id="patch_59">
    <path d="M 475.164442 246.310385 
L 478.798272 246.310385 
L 478.798272 111.302013 
L 475.164442 111.302013 
z
" clip-path="url(#p272e7a90cc)" style="fill: #1f77b4"/>
   </g>
   <g id="patch_60">
    <path d="M 479.202031 246.310385 
L 482.835861 246.310385 
L 482.835861 155.023585 
L 479.202031 155.023585 
z
" clip-path="url(#p272e7a90cc)" style="fill: #1f77b4"/>
   </g>
   <g id="patch_61">
    <path d="M 483.23962 246.310385 
L 486.873451 246.310385 
L 486.873451 177.1246 
L 483.23962 177.1246 
z
" clip-path="url(#p272e7a90cc)" style="fill: #1f77b4"/>
   </g>
   <g id="patch_62">
    <path d="M 487.27721 246.310385 
L 490.91104 246.310385 
L 490.91104 190.096935 
L 487.27721 190.096935 
z
" clip-path="url(#p272e7a90cc)" style="fill: #1f77b4"/>
   </g>
   <g id="patch_63">
    <path d="M 491.314799 246.310385 
L 494.948629 246.310385 
L 494.948629 205.95201 
L 491.314799 205.95201 
z
" clip-path="url(#p272e7a90cc)" style="fill: #1f77b4"/>
   </g>
   <g id="patch_64">
    <path d="M 495.352388 246.310385 
L 498.986218 246.310385 
L 498.986218 228.533482 
L 495.352388 228.533482 
z
" clip-path="url(#p272e7a90cc)" style="fill: #1f77b4"/>
   </g>
   <g id="patch_65">
    <path d="M 499.389977 246.310385 
L 503.023807 246.310385 
L 503.023807 234.298964 
L 499.389977 234.298964 
z
" clip-path="url(#p272e7a90cc)" style="fill: #1f77b4"/>
   </g>
   <g id="patch_66">
    <path d="M 503.427566 246.310385 
L 507.061396 246.310385 
L 507.061396 241.02536 
L 503.427566 241.02536 
z
" clip-path="url(#p272e7a90cc)" style="fill: #1f77b4"/>
   </g>
   <g id="patch_67">
    <path d="M 507.465155 246.310385 
L 511.098985 246.310385 
L 511.098985 243.427644 
L 507.465155 243.427644 
z
" clip-path="url(#p272e7a90cc)" style="fill: #1f77b4"/>
   </g>
   <g id="patch_68">
    <path d="M 511.502744 246.310385 
L 515.136574 246.310385 
L 515.136574 244.869014 
L 511.502744 244.869014 
z
" clip-path="url(#p272e7a90cc)" style="fill: #1f77b4"/>
   </g>
   <g id="patch_69">
    <path d="M 515.540333 246.310385 
L 519.174164 246.310385 
L 519.174164 245.829928 
L 515.540333 245.829928 
z
" clip-path="url(#p272e7a90cc)" style="fill: #1f77b4"/>
   </g>
   <g id="matplotlib.axis_3">
    <g id="xtick_4">
     <g id="line2d_12">
      <g>
       <use xlink:href="#m8b73025b66" x="383.393941" y="246.310385" style="stroke: #000000; stroke-width: 0.8"/>
      </g>
     </g>
     <g id="text_14">
      <!-- −2 -->
      <g transform="translate(373.07441 263.948197) scale(0.14 -0.14)">
       <use xlink:href="#DejaVuSans-2212"/>
       <use xlink:href="#DejaVuSans-32" x="83.789062"/>
      </g>
     </g>
    </g>
    <g id="xtick_5">
     <g id="line2d_13">
      <g>
       <use xlink:href="#m8b73025b66" x="458.91675" y="246.310385" style="stroke: #000000; stroke-width: 0.8"/>
      </g>
     </g>
     <g id="text_15">
      <!-- 0 -->
      <g transform="translate(454.463 263.948197) scale(0.14 -0.14)">
       <use xlink:href="#DejaVuSans-30"/>
      </g>
     </g>
    </g>
    <g id="xtick_6">
     <g id="line2d_14">
      <g>
       <use xlink:href="#m8b73025b66" x="534.439559" y="246.310385" style="stroke: #000000; stroke-width: 0.8"/>
      </g>
     </g>
     <g id="text_16">
      <!-- 2 -->
      <g transform="translate(529.985809 263.948197) scale(0.14 -0.14)">
       <use xlink:href="#DejaVuSans-32"/>
      </g>
     </g>
    </g>
    <g id="text_17">
     <!-- $b_{\alpha,2}$ [deg] -->
     <g transform="translate(424.47675 281.49976) scale(0.14 -0.14)">
      <use xlink:href="#DejaVuSans-Oblique-62" transform="translate(0 0.015625)"/>
      <use xlink:href="#DejaVuSans-Oblique-3b1" transform="translate(63.476562 -16.390625) scale(0.7)"/>
      <use xlink:href="#DejaVuSans-2c" transform="translate(109.619141 -16.390625) scale(0.7)"/>
      <use xlink:href="#DejaVuSans-32" transform="translate(145.507812 -16.390625) scale(0.7)"/>
      <use xlink:href="#DejaVuSans-20" transform="translate(192.77832 0.015625)"/>
      <use xlink:href="#DejaVuSans-5b" transform="translate(224.56543 0.015625)"/>
      <use xlink:href="#DejaVuSans-64" transform="translate(263.579102 0.015625)"/>
      <use xlink:href="#DejaVuSans-65" transform="translate(327.055664 0.015625)"/>
      <use xlink:href="#DejaVuSans-67" transform="translate(388.579102 0.015625)"/>
      <use xlink:href="#DejaVuSans-5d" transform="translate(452.055664 0.015625)"/>
     </g>
    </g>
   </g>
   <g id="matplotlib.axis_4">
    <g id="ytick_7">
     <g id="line2d_15">
      <g>
       <use xlink:href="#m76eb64b889" x="334.304115" y="246.310385" style="stroke: #000000; stroke-width: 0.8"/>
      </g>
     </g>
     <g id="text_18">
      <!-- 0.0 -->
      <g transform="translate(305.03974 251.629291) scale(0.14 -0.14)">
       <use xlink:href="#DejaVuSans-30"/>
       <use xlink:href="#DejaVuSans-2e" x="63.623047"/>
       <use xlink:href="#DejaVuSans-30" x="95.410156"/>
      </g>
     </g>
    </g>
    <g id="ytick_8">
     <g id="line2d_16">
      <g>
       <use xlink:href="#m76eb64b889" x="334.304115" y="194.938162" style="stroke: #000000; stroke-width: 0.8"/>
      </g>
     </g>
     <g id="text_19">
      <!-- 0.2 -->
      <g transform="translate(305.03974 200.257068) scale(0.14 -0.14)">
       <use xlink:href="#DejaVuSans-30"/>
       <use xlink:href="#DejaVuSans-2e" x="63.623047"/>
       <use xlink:href="#DejaVuSans-32" x="95.410156"/>
      </g>
     </g>
    </g>
    <g id="ytick_9">
     <g id="line2d_17">
      <g>
       <use xlink:href="#m76eb64b889" x="334.304115" y="143.565938" style="stroke: #000000; stroke-width: 0.8"/>
      </g>
     </g>
     <g id="text_20">
      <!-- 0.4 -->
      <g transform="translate(305.03974 148.884845) scale(0.14 -0.14)">
       <use xlink:href="#DejaVuSans-30"/>
       <use xlink:href="#DejaVuSans-2e" x="63.623047"/>
       <use xlink:href="#DejaVuSans-34" x="95.410156"/>
      </g>
     </g>
    </g>
    <g id="ytick_10">
     <g id="line2d_18">
      <g>
       <use xlink:href="#m76eb64b889" x="334.304115" y="92.193715" style="stroke: #000000; stroke-width: 0.8"/>
      </g>
     </g>
     <g id="text_21">
      <!-- 0.6 -->
      <g transform="translate(305.03974 97.512621) scale(0.14 -0.14)">
       <use xlink:href="#DejaVuSans-30"/>
       <use xlink:href="#DejaVuSans-2e" x="63.623047"/>
       <use xlink:href="#DejaVuSans-36" x="95.410156"/>
      </g>
     </g>
    </g>
    <g id="ytick_11">
     <g id="line2d_19">
      <g>
       <use xlink:href="#m76eb64b889" x="334.304115" y="40.821492" style="stroke: #000000; stroke-width: 0.8"/>
      </g>
     </g>
     <g id="text_22">
      <!-- 0.8 -->
      <g transform="translate(305.03974 46.140398) scale(0.14 -0.14)">
       <use xlink:href="#DejaVuSans-30"/>
       <use xlink:href="#DejaVuSans-2e" x="63.623047"/>
       <use xlink:href="#DejaVuSans-38" x="95.410156"/>
      </g>
     </g>
    </g>
   </g>
   <g id="line2d_20">
    <path d="M 345.632536 245.172015 
L 347.921106 244.947534 
L 350.209676 244.684768 
L 352.498246 244.378449 
L 354.786816 244.022827 
L 357.075386 243.611674 
L 359.363956 243.138296 
L 361.652526 242.595553 
L 363.941096 241.975897 
L 366.229666 241.271422 
L 368.518236 240.473927 
L 370.806806 239.575001 
L 373.095376 238.566121 
L 375.383946 237.43877 
L 377.672516 236.184568 
L 379.961086 234.79543 
L 382.249656 233.26373 
L 384.538226 231.582481 
L 386.826796 229.745535 
L 389.115366 227.747783 
L 391.403936 225.585364 
L 393.692506 223.255874 
L 395.981076 220.758576 
L 398.269646 218.094597 
L 400.558216 215.267112 
L 402.846786 212.281508 
L 405.135356 209.145522 
L 407.423926 205.869352 
L 409.712496 202.465721 
L 412.001066 198.949911 
L 414.289636 195.339739 
L 416.578206 191.655495 
L 418.866775 187.919815 
L 421.155345 184.157514 
L 423.443915 180.395353 
L 425.732485 176.661762 
L 428.021055 172.986511 
L 430.309625 169.40034 
L 432.598195 165.934546 
L 434.886765 162.620538 
L 437.175335 159.489378 
L 439.463905 156.571295 
L 441.752475 153.895208 
L 444.041045 151.488249 
L 446.329615 149.375308 
L 448.618185 147.578601 
L 450.906755 146.117287 
L 453.195325 145.007126 
L 455.483895 144.260193 
L 457.772465 143.884664 
L 460.061035 143.884664 
L 462.349605 144.260193 
L 464.638175 145.007126 
L 466.926745 146.117287 
L 469.215315 147.578601 
L 471.503885 149.375308 
L 473.792455 151.488249 
L 476.081025 153.895208 
L 478.369595 156.571295 
L 480.658165 159.489378 
L 482.946735 162.620538 
L 485.235305 165.934546 
L 487.523875 169.40034 
L 489.812445 172.986511 
L 492.101015 176.661762 
L 494.389585 180.395353 
L 496.678155 184.157514 
L 498.966725 187.919815 
L 501.255294 191.655495 
L 503.543864 195.339739 
L 505.832434 198.949911 
L 508.121004 202.465721 
L 510.409574 205.869352 
L 512.698144 209.145522 
L 514.986714 212.281508 
L 517.275284 215.267112 
L 519.563854 218.094597 
L 521.852424 220.758576 
L 524.140994 223.255874 
L 526.429564 225.585364 
L 528.718134 227.747783 
L 531.006704 229.745535 
L 533.295274 231.582481 
L 535.583844 233.26373 
L 537.872414 234.79543 
L 540.160984 236.184568 
L 542.449554 237.43877 
L 544.738124 238.566121 
L 547.026694 239.575001 
L 549.315264 240.473927 
L 551.603834 241.271422 
L 553.892404 241.975897 
L 556.180974 242.595553 
L 558.469544 243.138296 
L 560.758114 243.611674 
L 563.046684 244.022827 
L 565.335254 244.378449 
L 567.623824 244.684768 
L 569.912394 244.947534 
L 572.200964 245.172015 
" clip-path="url(#p272e7a90cc)" style="fill: none; stroke: #2ca02c; stroke-width: 1.5; stroke-linecap: square"/>
   </g>
   <g id="patch_70">
    <path d="M 334.304115 246.310385 
L 334.304115 3.151178 
" style="fill: none; stroke: #000000; stroke-width: 0.8; stroke-linejoin: miter; stroke-linecap: square"/>
   </g>
   <g id="patch_71">
    <path d="M 583.529385 246.310385 
L 583.529385 3.151178 
" style="fill: none; stroke: #000000; stroke-width: 0.8; stroke-linejoin: miter; stroke-linecap: square"/>
   </g>
   <g id="patch_72">
    <path d="M 334.304115 246.310385 
L 583.529385 246.310385 
" style="fill: none; stroke: #000000; stroke-width: 0.8; stroke-linejoin: miter; stroke-linecap: square"/>
   </g>
   <g id="patch_73">
    <path d="M 334.304115 3.151178 
L 583.529385 3.151178 
" style="fill: none; stroke: #000000; stroke-width: 0.8; stroke-linejoin: miter; stroke-linecap: square"/>
   </g>
  </g>
  <g id="axes_3">
   <g id="patch_74">
    <path d="M 618.79424 246.310385 
L 868.01951 246.310385 
L 868.01951 3.151178 
L 618.79424 3.151178 
z
" style="fill: #ffffff"/>
   </g>
   <g id="patch_75">
    <path d="M 654.386266 246.310385 
L 658.008968 246.310385 
L 658.008968 245.834861 
L 654.386266 245.834861 
z
" clip-path="url(#p54204560e0)" style="fill: #1f77b4"/>
   </g>
   <g id="patch_76">
    <path d="M 658.41149 246.310385 
L 662.034192 246.310385 
L 662.034192 245.834861 
L 658.41149 245.834861 
z
" clip-path="url(#p54204560e0)" style="fill: #1f77b4"/>
   </g>
   <g id="patch_77">
    <path d="M 662.436714 246.310385 
L 666.059416 246.310385 
L 666.059416 244.883813 
L 662.436714 244.883813 
z
" clip-path="url(#p54204560e0)" style="fill: #1f77b4"/>
   </g>
   <g id="patch_78">
    <path d="M 666.461938 246.310385 
L 670.08464 246.310385 
L 670.08464 242.030669 
L 666.461938 242.030669 
z
" clip-path="url(#p54204560e0)" style="fill: #1f77b4"/>
   </g>
   <g id="patch_79">
    <path d="M 670.487162 246.310385 
L 674.109864 246.310385 
L 674.109864 237.750953 
L 670.487162 237.750953 
z
" clip-path="url(#p54204560e0)" style="fill: #1f77b4"/>
   </g>
   <g id="patch_80">
    <path d="M 674.512386 246.310385 
L 678.135088 246.310385 
L 678.135088 231.56914 
L 674.512386 231.56914 
z
" clip-path="url(#p54204560e0)" style="fill: #1f77b4"/>
   </g>
   <g id="patch_81">
    <path d="M 678.53761 246.310385 
L 682.160312 246.310385 
L 682.160312 223.960756 
L 678.53761 223.960756 
z
" clip-path="url(#p54204560e0)" style="fill: #1f77b4"/>
   </g>
   <g id="patch_82">
    <path d="M 682.562834 246.310385 
L 686.185536 246.310385 
L 686.185536 192.576171 
L 682.562834 192.576171 
z
" clip-path="url(#p54204560e0)" style="fill: #1f77b4"/>
   </g>
   <g id="patch_83">
    <path d="M 686.588058 246.310385 
L 690.21076 246.310385 
L 690.21076 175.93283 
L 686.588058 175.93283 
z
" clip-path="url(#p54204560e0)" style="fill: #1f77b4"/>
   </g>
   <g id="patch_84">
    <path d="M 690.613282 246.310385 
L 694.235984 246.310385 
L 694.235984 154.058725 
L 690.613282 154.058725 
z
" clip-path="url(#p54204560e0)" style="fill: #1f77b4"/>
   </g>
   <g id="patch_85">
    <path d="M 694.638506 246.310385 
L 698.261208 246.310385 
L 698.261208 114.590232 
L 694.638506 114.590232 
z
" clip-path="url(#p54204560e0)" style="fill: #1f77b4"/>
   </g>
   <g id="patch_86">
    <path d="M 698.66373 246.310385 
L 702.286432 246.310385 
L 702.286432 77.974883 
L 698.66373 77.974883 
z
" clip-path="url(#p54204560e0)" style="fill: #1f77b4"/>
   </g>
   <g id="patch_87">
    <path d="M 702.688954 246.310385 
L 706.311656 246.310385 
L 706.311656 30.422481 
L 702.688954 30.422481 
z
" clip-path="url(#p54204560e0)" style="fill: #1f77b4"/>
   </g>
   <g id="patch_88">
    <path d="M 706.714178 246.310385 
L 710.33688 246.310385 
L 710.33688 19.485428 
L 706.714178 19.485428 
z
" clip-path="url(#p54204560e0)" style="fill: #1f77b4"/>
   </g>
   <g id="patch_89">
    <path d="M 710.739402 246.310385 
L 714.362104 246.310385 
L 714.362104 19.485428 
L 710.739402 19.485428 
z
" clip-path="url(#p54204560e0)" style="fill: #1f77b4"/>
   </g>
   <g id="patch_90">
    <path d="M 714.764626 246.310385 
L 718.387328 246.310385 
L 718.387328 14.730188 
L 714.764626 14.730188 
z
" clip-path="url(#p54204560e0)" style="fill: #1f77b4"/>
   </g>
   <g id="patch_91">
    <path d="M 718.78985 246.310385 
L 722.412552 246.310385 
L 722.412552 38.506389 
L 718.78985 38.506389 
z
" clip-path="url(#p54204560e0)" style="fill: #1f77b4"/>
   </g>
   <g id="patch_92">
    <path d="M 722.815075 246.310385 
L 726.437776 246.310385 
L 726.437776 53.723158 
L 722.815075 53.723158 
z
" clip-path="url(#p54204560e0)" style="fill: #1f77b4"/>
   </g>
   <g id="patch_93">
    <path d="M 726.840299 246.310385 
L 730.463 246.310385 
L 730.463 99.373463 
L 726.840299 99.373463 
z
" clip-path="url(#p54204560e0)" style="fill: #1f77b4"/>
   </g>
   <g id="patch_94">
    <path d="M 730.865523 246.310385 
L 734.488224 246.310385 
L 734.488224 116.492328 
L 730.865523 116.492328 
z
" clip-path="url(#p54204560e0)" style="fill: #1f77b4"/>
   </g>
   <g id="patch_95">
    <path d="M 734.890747 246.310385 
L 738.513448 246.310385 
L 738.513448 165.946826 
L 734.890747 165.946826 
z
" clip-path="url(#p54204560e0)" style="fill: #1f77b4"/>
   </g>
   <g id="patch_96">
    <path d="M 738.915971 246.310385 
L 742.538672 246.310385 
L 742.538672 186.394359 
L 738.915971 186.394359 
z
" clip-path="url(#p54204560e0)" style="fill: #1f77b4"/>
   </g>
   <g id="patch_97">
    <path d="M 742.941195 246.310385 
L 746.563896 246.310385 
L 746.563896 207.317416 
L 742.941195 207.317416 
z
" clip-path="url(#p54204560e0)" style="fill: #1f77b4"/>
   </g>
   <g id="patch_98">
    <path d="M 746.966419 246.310385 
L 750.58912 246.310385 
L 750.58912 220.632088 
L 746.966419 220.632088 
z
" clip-path="url(#p54204560e0)" style="fill: #1f77b4"/>
   </g>
   <g id="patch_99">
    <path d="M 750.991643 246.310385 
L 754.614344 246.310385 
L 754.614344 233.946761 
L 750.991643 233.946761 
z
" clip-path="url(#p54204560e0)" style="fill: #1f77b4"/>
   </g>
   <g id="patch_100">
    <path d="M 755.016867 246.310385 
L 758.639568 246.310385 
L 758.639568 240.128573 
L 755.016867 240.128573 
z
" clip-path="url(#p54204560e0)" style="fill: #1f77b4"/>
   </g>
   <g id="patch_101">
    <path d="M 759.042091 246.310385 
L 762.664792 246.310385 
L 762.664792 241.555145 
L 759.042091 241.555145 
z
" clip-path="url(#p54204560e0)" style="fill: #1f77b4"/>
   </g>
   <g id="patch_102">
    <path d="M 763.067315 246.310385 
L 766.690016 246.310385 
L 766.690016 244.883813 
L 763.067315 244.883813 
z
" clip-path="url(#p54204560e0)" style="fill: #1f77b4"/>
   </g>
   <g id="patch_103">
    <path d="M 767.092539 246.310385 
L 770.71524 246.310385 
L 770.71524 245.834861 
L 767.092539 245.834861 
z
" clip-path="url(#p54204560e0)" style="fill: #1f77b4"/>
   </g>
   <g id="patch_104">
    <path d="M 771.117763 246.310385 
L 774.740464 246.310385 
L 774.740464 245.834861 
L 771.117763 245.834861 
z
" clip-path="url(#p54204560e0)" style="fill: #1f77b4"/>
   </g>
   <g id="matplotlib.axis_5">
    <g id="xtick_7">
     <g id="line2d_21">
      <g>
       <use xlink:href="#m8b73025b66" x="667.884066" y="246.310385" style="stroke: #000000; stroke-width: 0.8"/>
      </g>
     </g>
     <g id="text_23">
      <!-- −2 -->
      <g transform="translate(657.564535 263.948197) scale(0.14 -0.14)">
       <use xlink:href="#DejaVuSans-2212"/>
       <use xlink:href="#DejaVuSans-32" x="83.789062"/>
      </g>
     </g>
    </g>
    <g id="xtick_8">
     <g id="line2d_22">
      <g>
       <use xlink:href="#m8b73025b66" x="743.406875" y="246.310385" style="stroke: #000000; stroke-width: 0.8"/>
      </g>
     </g>
     <g id="text_24">
      <!-- 0 -->
      <g transform="translate(738.953125 263.948197) scale(0.14 -0.14)">
       <use xlink:href="#DejaVuSans-30"/>
      </g>
     </g>
    </g>
    <g id="xtick_9">
     <g id="line2d_23">
      <g>
       <use xlink:href="#m8b73025b66" x="818.929684" y="246.310385" style="stroke: #000000; stroke-width: 0.8"/>
      </g>
     </g>
     <g id="text_25">
      <!-- 2 -->
      <g transform="translate(814.475934 263.948197) scale(0.14 -0.14)">
       <use xlink:href="#DejaVuSans-32"/>
      </g>
     </g>
    </g>
    <g id="text_26">
     <!-- $b_{\alpha,3}$ [deg] -->
     <g transform="translate(708.966875 281.49976) scale(0.14 -0.14)">
      <defs>
       <path id="DejaVuSans-33" d="M 2597 2516 
Q 3050 2419 3304 2112 
Q 3559 1806 3559 1356 
Q 3559 666 3084 287 
Q 2609 -91 1734 -91 
Q 1441 -91 1130 -33 
Q 819 25 488 141 
L 488 750 
Q 750 597 1062 519 
Q 1375 441 1716 441 
Q 2309 441 2620 675 
Q 2931 909 2931 1356 
Q 2931 1769 2642 2001 
Q 2353 2234 1838 2234 
L 1294 2234 
L 1294 2753 
L 1863 2753 
Q 2328 2753 2575 2939 
Q 2822 3125 2822 3475 
Q 2822 3834 2567 4026 
Q 2313 4219 1838 4219 
Q 1578 4219 1281 4162 
Q 984 4106 628 3988 
L 628 4550 
Q 988 4650 1302 4700 
Q 1616 4750 1894 4750 
Q 2613 4750 3031 4423 
Q 3450 4097 3450 3541 
Q 3450 3153 3228 2886 
Q 3006 2619 2597 2516 
z
" transform="scale(0.015625)"/>
      </defs>
      <use xlink:href="#DejaVuSans-Oblique-62" transform="translate(0 0.015625)"/>
      <use xlink:href="#DejaVuSans-Oblique-3b1" transform="translate(63.476562 -16.390625) scale(0.7)"/>
      <use xlink:href="#DejaVuSans-2c" transform="translate(109.619141 -16.390625) scale(0.7)"/>
      <use xlink:href="#DejaVuSans-33" transform="translate(145.507812 -16.390625) scale(0.7)"/>
      <use xlink:href="#DejaVuSans-20" transform="translate(192.77832 0.015625)"/>
      <use xlink:href="#DejaVuSans-5b" transform="translate(224.56543 0.015625)"/>
      <use xlink:href="#DejaVuSans-64" transform="translate(263.579102 0.015625)"/>
      <use xlink:href="#DejaVuSans-65" transform="translate(327.055664 0.015625)"/>
      <use xlink:href="#DejaVuSans-67" transform="translate(388.579102 0.015625)"/>
      <use xlink:href="#DejaVuSans-5d" transform="translate(452.055664 0.015625)"/>
     </g>
    </g>
   </g>
   <g id="matplotlib.axis_6">
    <g id="ytick_12">
     <g id="line2d_24">
      <g>
       <use xlink:href="#m76eb64b889" x="618.79424" y="246.310385" style="stroke: #000000; stroke-width: 0.8"/>
      </g>
     </g>
     <g id="text_27">
      <!-- 0.0 -->
      <g transform="translate(589.529865 251.629291) scale(0.14 -0.14)">
       <use xlink:href="#DejaVuSans-30"/>
       <use xlink:href="#DejaVuSans-2e" x="63.623047"/>
       <use xlink:href="#DejaVuSans-30" x="95.410156"/>
      </g>
     </g>
    </g>
    <g id="ytick_13">
     <g id="line2d_25">
      <g>
       <use xlink:href="#m76eb64b889" x="618.79424" y="195.621309" style="stroke: #000000; stroke-width: 0.8"/>
      </g>
     </g>
     <g id="text_28">
      <!-- 0.2 -->
      <g transform="translate(589.529865 200.940215) scale(0.14 -0.14)">
       <use xlink:href="#DejaVuSans-30"/>
       <use xlink:href="#DejaVuSans-2e" x="63.623047"/>
       <use xlink:href="#DejaVuSans-32" x="95.410156"/>
      </g>
     </g>
    </g>
    <g id="ytick_14">
     <g id="line2d_26">
      <g>
       <use xlink:href="#m76eb64b889" x="618.79424" y="144.932233" style="stroke: #000000; stroke-width: 0.8"/>
      </g>
     </g>
     <g id="text_29">
      <!-- 0.4 -->
      <g transform="translate(589.529865 150.25114) scale(0.14 -0.14)">
       <use xlink:href="#DejaVuSans-30"/>
       <use xlink:href="#DejaVuSans-2e" x="63.623047"/>
       <use xlink:href="#DejaVuSans-34" x="95.410156"/>
      </g>
     </g>
    </g>
    <g id="ytick_15">
     <g id="line2d_27">
      <g>
       <use xlink:href="#m76eb64b889" x="618.79424" y="94.243158" style="stroke: #000000; stroke-width: 0.8"/>
      </g>
     </g>
     <g id="text_30">
      <!-- 0.6 -->
      <g transform="translate(589.529865 99.562064) scale(0.14 -0.14)">
       <use xlink:href="#DejaVuSans-30"/>
       <use xlink:href="#DejaVuSans-2e" x="63.623047"/>
       <use xlink:href="#DejaVuSans-36" x="95.410156"/>
      </g>
     </g>
    </g>
    <g id="ytick_16">
     <g id="line2d_28">
      <g>
       <use xlink:href="#m76eb64b889" x="618.79424" y="43.554082" style="stroke: #000000; stroke-width: 0.8"/>
      </g>
     </g>
     <g id="text_31">
      <!-- 0.8 -->
      <g transform="translate(589.529865 48.872988) scale(0.14 -0.14)">
       <use xlink:href="#DejaVuSans-30"/>
       <use xlink:href="#DejaVuSans-2e" x="63.623047"/>
       <use xlink:href="#DejaVuSans-38" x="95.410156"/>
      </g>
     </g>
    </g>
   </g>
   <g id="line2d_29">
    <path d="M 630.122661 245.187153 
L 632.411231 244.965657 
L 634.699801 244.706386 
L 636.988371 244.40414 
L 639.276941 244.053247 
L 641.565511 243.647561 
L 643.854081 243.180478 
L 646.142651 242.644953 
L 648.431221 242.033537 
L 650.719791 241.33843 
L 653.008361 240.55154 
L 655.296931 239.664568 
L 657.585501 238.669105 
L 659.874071 237.556744 
L 662.162641 236.319221 
L 664.451211 234.948556 
L 666.739781 233.437224 
L 669.028351 231.778333 
L 671.316921 229.965815 
L 673.605491 227.994629 
L 675.894061 225.860965 
L 678.182631 223.562452 
L 680.471201 221.098364 
L 682.759771 218.469811 
L 685.048341 215.679925 
L 687.336911 212.734024 
L 689.625481 209.63974 
L 691.914051 206.407137 
L 694.202621 203.048767 
L 696.491191 199.57971 
L 698.779761 196.017546 
L 701.068331 192.382295 
L 703.3569 188.696293 
L 705.64547 184.984023 
L 707.93404 181.271891 
L 710.22261 177.587949 
L 712.51118 173.961571 
L 714.79975 170.42309 
L 717.08832 167.003383 
L 719.37689 163.733445 
L 721.66546 160.643923 
L 723.95403 157.764645 
L 726.2426 155.124144 
L 728.53117 152.749194 
L 730.81974 150.66435 
L 733.10831 148.891536 
L 735.39688 147.449655 
L 737.68545 146.354256 
L 739.97402 145.617256 
L 742.26259 145.24672 
L 744.55116 145.24672 
L 746.83973 145.617256 
L 749.1283 146.354256 
L 751.41687 147.449655 
L 753.70544 148.891536 
L 755.99401 150.66435 
L 758.28258 152.749194 
L 760.57115 155.124144 
L 762.85972 157.764645 
L 765.14829 160.643923 
L 767.43686 163.733445 
L 769.72543 167.003383 
L 772.014 170.42309 
L 774.30257 173.961571 
L 776.59114 177.587949 
L 778.87971 181.271891 
L 781.16828 184.984023 
L 783.45685 188.696293 
L 785.745419 192.382295 
L 788.033989 196.017546 
L 790.322559 199.57971 
L 792.611129 203.048767 
L 794.899699 206.407137 
L 797.188269 209.63974 
L 799.476839 212.734024 
L 801.765409 215.679925 
L 804.053979 218.469811 
L 806.342549 221.098364 
L 808.631119 223.562452 
L 810.919689 225.860965 
L 813.208259 227.994629 
L 815.496829 229.965815 
L 817.785399 231.778333 
L 820.073969 233.437224 
L 822.362539 234.948556 
L 824.651109 236.319221 
L 826.939679 237.556744 
L 829.228249 238.669105 
L 831.516819 239.664568 
L 833.805389 240.55154 
L 836.093959 241.33843 
L 838.382529 242.033537 
L 840.671099 242.644953 
L 842.959669 243.180478 
L 845.248239 243.647561 
L 847.536809 244.053247 
L 849.825379 244.40414 
L 852.113949 244.706386 
L 854.402519 244.965657 
L 856.691089 245.187153 
" clip-path="url(#p54204560e0)" style="fill: none; stroke: #2ca02c; stroke-width: 1.5; stroke-linecap: square"/>
   </g>
   <g id="patch_105">
    <path d="M 618.79424 246.310385 
L 618.79424 3.151178 
" style="fill: none; stroke: #000000; stroke-width: 0.8; stroke-linejoin: miter; stroke-linecap: square"/>
   </g>
   <g id="patch_106">
    <path d="M 868.01951 246.310385 
L 868.01951 3.151178 
" style="fill: none; stroke: #000000; stroke-width: 0.8; stroke-linejoin: miter; stroke-linecap: square"/>
   </g>
   <g id="patch_107">
    <path d="M 618.79424 246.310385 
L 868.01951 246.310385 
" style="fill: none; stroke: #000000; stroke-width: 0.8; stroke-linejoin: miter; stroke-linecap: square"/>
   </g>
   <g id="patch_108">
    <path d="M 618.79424 3.151178 
L 868.01951 3.151178 
" style="fill: none; stroke: #000000; stroke-width: 0.8; stroke-linejoin: miter; stroke-linecap: square"/>
   </g>
  </g>
  <g id="axes_4">
   <g id="patch_109">
    <path d="M 903.284365 246.310385 
L 1152.509635 246.310385 
L 1152.509635 3.151178 
L 903.284365 3.151178 
z
" style="fill: #ffffff"/>
   </g>
   <g id="patch_110">
    <path d="M 914.612786 246.310385 
L 918.175459 246.310385 
L 918.175459 245.804751 
L 914.612786 245.804751 
z
" clip-path="url(#pe842af7180)" style="fill: #1f77b4"/>
   </g>
   <g id="patch_111">
    <path d="M 918.571312 246.310385 
L 922.133985 246.310385 
L 922.133985 244.287851 
L 918.571312 244.287851 
z
" clip-path="url(#pe842af7180)" style="fill: #1f77b4"/>
   </g>
   <g id="patch_112">
    <path d="M 922.529837 246.310385 
L 926.09251 246.310385 
L 926.09251 243.276583 
L 922.529837 243.276583 
z
" clip-path="url(#pe842af7180)" style="fill: #1f77b4"/>
   </g>
   <g id="patch_113">
    <path d="M 926.488363 246.310385 
L 930.051036 246.310385 
L 930.051036 241.759682 
L 926.488363 241.759682 
z
" clip-path="url(#pe842af7180)" style="fill: #1f77b4"/>
   </g>
   <g id="patch_114">
    <path d="M 930.446888 246.310385 
L 934.009561 246.310385 
L 934.009561 235.692079 
L 930.446888 235.692079 
z
" clip-path="url(#pe842af7180)" style="fill: #1f77b4"/>
   </g>
   <g id="patch_115">
    <path d="M 934.405414 246.310385 
L 937.968087 246.310385 
L 937.968087 228.613208 
L 934.405414 228.613208 
z
" clip-path="url(#pe842af7180)" style="fill: #1f77b4"/>
   </g>
   <g id="patch_116">
    <path d="M 938.363939 246.310385 
L 941.926612 246.310385 
L 941.926612 211.421665 
L 938.363939 211.421665 
z
" clip-path="url(#pe842af7180)" style="fill: #1f77b4"/>
   </g>
   <g id="patch_117">
    <path d="M 942.322465 246.310385 
L 945.885138 246.310385 
L 945.885138 199.792092 
L 942.322465 199.792092 
z
" clip-path="url(#pe842af7180)" style="fill: #1f77b4"/>
   </g>
   <g id="patch_118">
    <path d="M 946.28099 246.310385 
L 949.843663 246.310385 
L 949.843663 177.038579 
L 946.28099 177.038579 
z
" clip-path="url(#pe842af7180)" style="fill: #1f77b4"/>
   </g>
   <g id="patch_119">
    <path d="M 950.239516 246.310385 
L 953.802189 246.310385 
L 953.802189 131.02592 
L 950.239516 131.02592 
z
" clip-path="url(#pe842af7180)" style="fill: #1f77b4"/>
   </g>
   <g id="patch_120">
    <path d="M 954.198041 246.310385 
L 957.760714 246.310385 
L 957.760714 110.800576 
L 954.198041 110.800576 
z
" clip-path="url(#pe842af7180)" style="fill: #1f77b4"/>
   </g>
   <g id="patch_121">
    <path d="M 958.156567 246.310385 
L 961.71924 246.310385 
L 961.71924 82.485093 
L 958.156567 82.485093 
z
" clip-path="url(#pe842af7180)" style="fill: #1f77b4"/>
   </g>
   <g id="patch_122">
    <path d="M 962.115092 246.310385 
L 965.677765 246.310385 
L 965.677765 48.607641 
L 962.115092 48.607641 
z
" clip-path="url(#pe842af7180)" style="fill: #1f77b4"/>
   </g>
   <g id="patch_123">
    <path d="M 966.073618 246.310385 
L 969.636291 246.310385 
L 969.636291 39.506235 
L 966.073618 39.506235 
z
" clip-path="url(#pe842af7180)" style="fill: #1f77b4"/>
   </g>
   <g id="patch_124">
    <path d="M 970.032143 246.310385 
L 973.594816 246.310385 
L 973.594816 22.820326 
L 970.032143 22.820326 
z
" clip-path="url(#pe842af7180)" style="fill: #1f77b4"/>
   </g>
   <g id="patch_125">
    <path d="M 973.990669 246.310385 
L 977.553342 246.310385 
L 977.553342 14.730188 
L 973.990669 14.730188 
z
" clip-path="url(#pe842af7180)" style="fill: #1f77b4"/>
   </g>
   <g id="patch_126">
    <path d="M 977.949194 246.310385 
L 981.511867 246.310385 
L 981.511867 29.899197 
L 977.949194 29.899197 
z
" clip-path="url(#pe842af7180)" style="fill: #1f77b4"/>
   </g>
   <g id="patch_127">
    <path d="M 981.90772 246.310385 
L 985.470393 246.310385 
L 985.470393 50.124541 
L 981.90772 50.124541 
z
" clip-path="url(#pe842af7180)" style="fill: #1f77b4"/>
   </g>
   <g id="patch_128">
    <path d="M 985.866245 246.310385 
L 989.428918 246.310385 
L 989.428918 79.451291 
L 985.866245 79.451291 
z
" clip-path="url(#pe842af7180)" style="fill: #1f77b4"/>
   </g>
   <g id="patch_129">
    <path d="M 989.824771 246.310385 
L 993.387444 246.310385 
L 993.387444 100.687903 
L 989.824771 100.687903 
z
" clip-path="url(#pe842af7180)" style="fill: #1f77b4"/>
   </g>
   <g id="patch_130">
    <path d="M 993.783297 246.310385 
L 997.345969 246.310385 
L 997.345969 139.116058 
L 993.783297 139.116058 
z
" clip-path="url(#pe842af7180)" style="fill: #1f77b4"/>
   </g>
   <g id="patch_131">
    <path d="M 997.741822 246.310385 
L 1001.304495 246.310385 
L 1001.304495 173.499144 
L 997.741822 173.499144 
z
" clip-path="url(#pe842af7180)" style="fill: #1f77b4"/>
   </g>
   <g id="patch_132">
    <path d="M 1001.700348 246.310385 
L 1005.26302 246.310385 
L 1005.26302 190.185053 
L 1001.700348 190.185053 
z
" clip-path="url(#pe842af7180)" style="fill: #1f77b4"/>
   </g>
   <g id="patch_133">
    <path d="M 1005.658873 246.310385 
L 1009.221546 246.310385 
L 1009.221546 203.837161 
L 1005.658873 203.837161 
z
" clip-path="url(#pe842af7180)" style="fill: #1f77b4"/>
   </g>
   <g id="patch_134">
    <path d="M 1009.617399 246.310385 
L 1013.180071 246.310385 
L 1013.180071 221.534338 
L 1009.617399 221.534338 
z
" clip-path="url(#pe842af7180)" style="fill: #1f77b4"/>
   </g>
   <g id="patch_135">
    <path d="M 1013.575924 246.310385 
L 1017.138597 246.310385 
L 1017.138597 229.118842 
L 1013.575924 229.118842 
z
" clip-path="url(#pe842af7180)" style="fill: #1f77b4"/>
   </g>
   <g id="patch_136">
    <path d="M 1017.53445 246.310385 
L 1021.097123 246.310385 
L 1021.097123 235.186445 
L 1017.53445 235.186445 
z
" clip-path="url(#pe842af7180)" style="fill: #1f77b4"/>
   </g>
   <g id="patch_137">
    <path d="M 1021.492975 246.310385 
L 1025.055648 246.310385 
L 1025.055648 241.254049 
L 1021.492975 241.254049 
z
" clip-path="url(#pe842af7180)" style="fill: #1f77b4"/>
   </g>
   <g id="patch_138">
    <path d="M 1025.451501 246.310385 
L 1029.014174 246.310385 
L 1029.014174 244.287851 
L 1025.451501 244.287851 
z
" clip-path="url(#pe842af7180)" style="fill: #1f77b4"/>
   </g>
   <g id="patch_139">
    <path d="M 1029.410026 246.310385 
L 1032.972699 246.310385 
L 1032.972699 245.299118 
L 1029.410026 245.299118 
z
" clip-path="url(#pe842af7180)" style="fill: #1f77b4"/>
   </g>
   <g id="matplotlib.axis_7">
    <g id="xtick_10">
     <g id="line2d_30">
      <g>
       <use xlink:href="#m8b73025b66" x="969.026902" y="246.310385" style="stroke: #000000; stroke-width: 0.8"/>
      </g>
     </g>
     <g id="text_32">
      <!-- −2 -->
      <g transform="translate(958.707371 263.948197) scale(0.14 -0.14)">
       <use xlink:href="#DejaVuSans-2212"/>
       <use xlink:href="#DejaVuSans-32" x="83.789062"/>
      </g>
     </g>
    </g>
    <g id="xtick_11">
     <g id="line2d_31">
      <g>
       <use xlink:href="#m8b73025b66" x="1037.888627" y="246.310385" style="stroke: #000000; stroke-width: 0.8"/>
      </g>
     </g>
     <g id="text_33">
      <!-- 0 -->
      <g transform="translate(1033.434877 263.948197) scale(0.14 -0.14)">
       <use xlink:href="#DejaVuSans-30"/>
      </g>
     </g>
    </g>
    <g id="xtick_12">
     <g id="line2d_32">
      <g>
       <use xlink:href="#m8b73025b66" x="1106.750351" y="246.310385" style="stroke: #000000; stroke-width: 0.8"/>
      </g>
     </g>
     <g id="text_34">
      <!-- 2 -->
      <g transform="translate(1102.296601 263.948197) scale(0.14 -0.14)">
       <use xlink:href="#DejaVuSans-32"/>
      </g>
     </g>
    </g>
    <g id="text_35">
     <!-- $b_{\alpha,4}$ [deg] -->
     <g transform="translate(993.457 281.49976) scale(0.14 -0.14)">
      <use xlink:href="#DejaVuSans-Oblique-62" transform="translate(0 0.015625)"/>
      <use xlink:href="#DejaVuSans-Oblique-3b1" transform="translate(63.476562 -16.390625) scale(0.7)"/>
      <use xlink:href="#DejaVuSans-2c" transform="translate(109.619141 -16.390625) scale(0.7)"/>
      <use xlink:href="#DejaVuSans-34" transform="translate(145.507812 -16.390625) scale(0.7)"/>
      <use xlink:href="#DejaVuSans-20" transform="translate(192.77832 0.015625)"/>
      <use xlink:href="#DejaVuSans-5b" transform="translate(224.56543 0.015625)"/>
      <use xlink:href="#DejaVuSans-64" transform="translate(263.579102 0.015625)"/>
      <use xlink:href="#DejaVuSans-65" transform="translate(327.055664 0.015625)"/>
      <use xlink:href="#DejaVuSans-67" transform="translate(388.579102 0.015625)"/>
      <use xlink:href="#DejaVuSans-5d" transform="translate(452.055664 0.015625)"/>
     </g>
    </g>
   </g>
   <g id="matplotlib.axis_8">
    <g id="ytick_17">
     <g id="line2d_33">
      <g>
       <use xlink:href="#m76eb64b889" x="903.284365" y="246.310385" style="stroke: #000000; stroke-width: 0.8"/>
      </g>
     </g>
     <g id="text_36">
      <!-- 0.0 -->
      <g transform="translate(874.01999 251.629291) scale(0.14 -0.14)">
       <use xlink:href="#DejaVuSans-30"/>
       <use xlink:href="#DejaVuSans-2e" x="63.623047"/>
       <use xlink:href="#DejaVuSans-30" x="95.410156"/>
      </g>
     </g>
    </g>
    <g id="ytick_18">
     <g id="line2d_34">
      <g>
       <use xlink:href="#m76eb64b889" x="903.284365" y="188.177552" style="stroke: #000000; stroke-width: 0.8"/>
      </g>
     </g>
     <g id="text_37">
      <!-- 0.2 -->
      <g transform="translate(874.01999 193.496458) scale(0.14 -0.14)">
       <use xlink:href="#DejaVuSans-30"/>
       <use xlink:href="#DejaVuSans-2e" x="63.623047"/>
       <use xlink:href="#DejaVuSans-32" x="95.410156"/>
      </g>
     </g>
    </g>
    <g id="ytick_19">
     <g id="line2d_35">
      <g>
       <use xlink:href="#m76eb64b889" x="903.284365" y="130.044719" style="stroke: #000000; stroke-width: 0.8"/>
      </g>
     </g>
     <g id="text_38">
      <!-- 0.4 -->
      <g transform="translate(874.01999 135.363625) scale(0.14 -0.14)">
       <use xlink:href="#DejaVuSans-30"/>
       <use xlink:href="#DejaVuSans-2e" x="63.623047"/>
       <use xlink:href="#DejaVuSans-34" x="95.410156"/>
      </g>
     </g>
    </g>
    <g id="ytick_20">
     <g id="line2d_36">
      <g>
       <use xlink:href="#m76eb64b889" x="903.284365" y="71.911886" style="stroke: #000000; stroke-width: 0.8"/>
      </g>
     </g>
     <g id="text_39">
      <!-- 0.6 -->
      <g transform="translate(874.01999 77.230792) scale(0.14 -0.14)">
       <use xlink:href="#DejaVuSans-30"/>
       <use xlink:href="#DejaVuSans-2e" x="63.623047"/>
       <use xlink:href="#DejaVuSans-36" x="95.410156"/>
      </g>
     </g>
    </g>
    <g id="ytick_21">
     <g id="line2d_37">
      <g>
       <use xlink:href="#m76eb64b889" x="903.284365" y="13.779053" style="stroke: #000000; stroke-width: 0.8"/>
      </g>
     </g>
     <g id="text_40">
      <!-- 0.8 -->
      <g transform="translate(874.01999 19.097959) scale(0.14 -0.14)">
       <use xlink:href="#DejaVuSans-30"/>
       <use xlink:href="#DejaVuSans-2e" x="63.623047"/>
       <use xlink:href="#DejaVuSans-38" x="95.410156"/>
      </g>
     </g>
    </g>
   </g>
   <g id="line2d_38">
    <path d="M 934.59604 245.022205 
L 936.682759 244.768182 
L 938.769478 244.470836 
L 940.856197 244.124205 
L 942.942916 243.721783 
L 945.029634 243.256522 
L 947.116353 242.720847 
L 949.203072 242.106679 
L 951.289791 241.405477 
L 953.37651 240.608292 
L 955.463229 239.705846 
L 957.549948 238.688621 
L 959.636667 237.546973 
L 961.723386 236.271261 
L 963.810105 234.852006 
L 965.896824 233.280057 
L 967.983543 231.546783 
L 970.070262 229.644282 
L 972.156981 227.565593 
L 974.243699 225.304936 
L 976.330418 222.857941 
L 978.417137 220.221889 
L 980.503856 217.395945 
L 982.590575 214.381386 
L 984.677294 211.181802 
L 986.764013 207.803291 
L 988.850732 204.254608 
L 990.937451 200.547292 
L 993.02417 196.695742 
L 995.110889 192.717249 
L 997.197608 188.631977 
L 999.284327 184.462884 
L 1001.371046 180.235588 
L 1003.457764 175.978166 
L 1005.544483 171.720903 
L 1007.631202 167.495969 
L 1009.717921 163.337053 
L 1011.80464 159.278941 
L 1013.891359 155.357046 
L 1015.978078 151.606913 
L 1018.064797 148.063691 
L 1020.151516 144.761587 
L 1022.238235 141.733325 
L 1024.324954 139.00961 
L 1026.411673 136.618604 
L 1028.498392 134.58545 
L 1030.585111 132.931827 
L 1032.671829 131.675567 
L 1034.758548 130.830338 
L 1036.845267 130.405388 
L 1038.931986 130.405388 
L 1041.018705 130.830338 
L 1043.105424 131.675567 
L 1045.192143 132.931827 
L 1047.278862 134.58545 
L 1049.365581 136.618604 
L 1051.4523 139.00961 
L 1053.539019 141.733325 
L 1055.625738 144.761587 
L 1057.712457 148.063691 
L 1059.799175 151.606913 
L 1061.885894 155.357046 
L 1063.972613 159.278941 
L 1066.059332 163.337053 
L 1068.146051 167.495969 
L 1070.23277 171.720903 
L 1072.319489 175.978166 
L 1074.406208 180.235588 
L 1076.492927 184.462884 
L 1078.579646 188.631977 
L 1080.666365 192.717249 
L 1082.753084 196.695742 
L 1084.839803 200.547292 
L 1086.926522 204.254608 
L 1089.01324 207.803291 
L 1091.099959 211.181802 
L 1093.186678 214.381386 
L 1095.273397 217.395945 
L 1097.360116 220.221889 
L 1099.446835 222.857941 
L 1101.533554 225.304936 
L 1103.620273 227.565593 
L 1105.706992 229.644282 
L 1107.793711 231.546783 
L 1109.88043 233.280057 
L 1111.967149 234.852006 
L 1114.053868 236.271261 
L 1116.140587 237.546973 
L 1118.227305 238.688621 
L 1120.314024 239.705846 
L 1122.400743 240.608292 
L 1124.487462 241.405477 
L 1126.574181 242.106679 
L 1128.6609 242.720847 
L 1130.747619 243.256522 
L 1132.834338 243.721783 
L 1134.921057 244.124205 
L 1137.007776 244.470836 
L 1139.094495 244.768182 
L 1141.181214 245.022205 
" clip-path="url(#pe842af7180)" style="fill: none; stroke: #2ca02c; stroke-width: 1.5; stroke-linecap: square"/>
   </g>
   <g id="patch_140">
    <path d="M 903.284365 246.310385 
L 903.284365 3.151178 
" style="fill: none; stroke: #000000; stroke-width: 0.8; stroke-linejoin: miter; stroke-linecap: square"/>
   </g>
   <g id="patch_141">
    <path d="M 1152.509635 246.310385 
L 1152.509635 3.151178 
" style="fill: none; stroke: #000000; stroke-width: 0.8; stroke-linejoin: miter; stroke-linecap: square"/>
   </g>
   <g id="patch_142">
    <path d="M 903.284365 246.310385 
L 1152.509635 246.310385 
" style="fill: none; stroke: #000000; stroke-width: 0.8; stroke-linejoin: miter; stroke-linecap: square"/>
   </g>
   <g id="patch_143">
    <path d="M 903.284365 3.151178 
L 1152.509635 3.151178 
" style="fill: none; stroke: #000000; stroke-width: 0.8; stroke-linejoin: miter; stroke-linecap: square"/>
   </g>
  </g>
  <g id="axes_5">
   <g id="patch_144">
    <path d="M 1187.77449 246.310385 
L 1436.99976 246.310385 
L 1436.99976 3.151178 
L 1187.77449 3.151178 
z
" style="fill: #ffffff"/>
   </g>
   <g id="patch_145">
    <path d="M 1221.909149 246.310385 
L 1225.901018 246.310385 
L 1225.901018 244.969187 
L 1221.909149 244.969187 
z
" clip-path="url(#p39a1774168)" style="fill: #1f77b4"/>
   </g>
   <g id="patch_146">
    <path d="M 1226.344559 246.310385 
L 1230.336427 246.310385 
L 1230.336427 245.863319 
L 1226.344559 245.863319 
z
" clip-path="url(#p39a1774168)" style="fill: #1f77b4"/>
   </g>
   <g id="patch_147">
    <path d="M 1230.779968 246.310385 
L 1234.771837 246.310385 
L 1234.771837 244.969187 
L 1230.779968 244.969187 
z
" clip-path="url(#p39a1774168)" style="fill: #1f77b4"/>
   </g>
   <g id="patch_148">
    <path d="M 1235.215378 246.310385 
L 1239.207246 246.310385 
L 1239.207246 243.180923 
L 1235.215378 243.180923 
z
" clip-path="url(#p39a1774168)" style="fill: #1f77b4"/>
   </g>
   <g id="patch_149">
    <path d="M 1239.650787 246.310385 
L 1243.642655 246.310385 
L 1243.642655 238.263197 
L 1239.650787 238.263197 
z
" clip-path="url(#p39a1774168)" style="fill: #1f77b4"/>
   </g>
   <g id="patch_150">
    <path d="M 1244.086196 246.310385 
L 1248.078065 246.310385 
L 1248.078065 234.686669 
L 1244.086196 234.686669 
z
" clip-path="url(#p39a1774168)" style="fill: #1f77b4"/>
   </g>
   <g id="patch_151">
    <path d="M 1248.521606 246.310385 
L 1252.513474 246.310385 
L 1252.513474 224.851216 
L 1248.521606 224.851216 
z
" clip-path="url(#p39a1774168)" style="fill: #1f77b4"/>
   </g>
   <g id="patch_152">
    <path d="M 1252.957015 246.310385 
L 1256.948884 246.310385 
L 1256.948884 212.780434 
L 1252.957015 212.780434 
z
" clip-path="url(#p39a1774168)" style="fill: #1f77b4"/>
   </g>
   <g id="patch_153">
    <path d="M 1257.392425 246.310385 
L 1261.384293 246.310385 
L 1261.384293 190.874199 
L 1257.392425 190.874199 
z
" clip-path="url(#p39a1774168)" style="fill: #1f77b4"/>
   </g>
   <g id="patch_154">
    <path d="M 1261.827834 246.310385 
L 1265.819703 246.310385 
L 1265.819703 175.673954 
L 1261.827834 175.673954 
z
" clip-path="url(#p39a1774168)" style="fill: #1f77b4"/>
   </g>
   <g id="patch_155">
    <path d="M 1266.263243 246.310385 
L 1270.255112 246.310385 
L 1270.255112 142.591069 
L 1266.263243 142.591069 
z
" clip-path="url(#p39a1774168)" style="fill: #1f77b4"/>
   </g>
   <g id="patch_156">
    <path d="M 1270.698653 246.310385 
L 1274.690521 246.310385 
L 1274.690521 114.872976 
L 1270.698653 114.872976 
z
" clip-path="url(#p39a1774168)" style="fill: #1f77b4"/>
   </g>
   <g id="patch_157">
    <path d="M 1275.134062 246.310385 
L 1279.125931 246.310385 
L 1279.125931 90.284345 
L 1275.134062 90.284345 
z
" clip-path="url(#p39a1774168)" style="fill: #1f77b4"/>
   </g>
   <g id="patch_158">
    <path d="M 1279.569472 246.310385 
L 1283.56134 246.310385 
L 1283.56134 67.931044 
L 1279.569472 67.931044 
z
" clip-path="url(#p39a1774168)" style="fill: #1f77b4"/>
   </g>
   <g id="patch_159">
    <path d="M 1284.004881 246.310385 
L 1287.99675 246.310385 
L 1287.99675 53.624932 
L 1284.004881 53.624932 
z
" clip-path="url(#p39a1774168)" style="fill: #1f77b4"/>
   </g>
   <g id="patch_160">
    <path d="M 1288.440291 246.310385 
L 1292.432159 246.310385 
L 1292.432159 14.730188 
L 1288.440291 14.730188 
z
" clip-path="url(#p39a1774168)" style="fill: #1f77b4"/>
   </g>
   <g id="patch_161">
    <path d="M 1292.8757 246.310385 
L 1296.867568 246.310385 
L 1296.867568 36.189357 
L 1292.8757 36.189357 
z
" clip-path="url(#p39a1774168)" style="fill: #1f77b4"/>
   </g>
   <g id="patch_162">
    <path d="M 1297.311109 246.310385 
L 1301.302978 246.310385 
L 1301.302978 80.895959 
L 1297.311109 80.895959 
z
" clip-path="url(#p39a1774168)" style="fill: #1f77b4"/>
   </g>
   <g id="patch_163">
    <path d="M 1301.746519 246.310385 
L 1305.738387 246.310385 
L 1305.738387 74.189968 
L 1301.746519 74.189968 
z
" clip-path="url(#p39a1774168)" style="fill: #1f77b4"/>
   </g>
   <g id="patch_164">
    <path d="M 1306.181928 246.310385 
L 1310.173797 246.310385 
L 1310.173797 111.296448 
L 1306.181928 111.296448 
z
" clip-path="url(#p39a1774168)" style="fill: #1f77b4"/>
   </g>
   <g id="patch_165">
    <path d="M 1310.617338 246.310385 
L 1314.609206 246.310385 
L 1314.609206 129.179089 
L 1310.617338 129.179089 
z
" clip-path="url(#p39a1774168)" style="fill: #1f77b4"/>
   </g>
   <g id="patch_166">
    <path d="M 1315.052747 246.310385 
L 1319.044616 246.310385 
L 1319.044616 166.285568 
L 1315.052747 166.285568 
z
" clip-path="url(#p39a1774168)" style="fill: #1f77b4"/>
   </g>
   <g id="patch_167">
    <path d="M 1319.488156 246.310385 
L 1323.480025 246.310385 
L 1323.480025 190.874199 
L 1319.488156 190.874199 
z
" clip-path="url(#p39a1774168)" style="fill: #1f77b4"/>
   </g>
   <g id="patch_168">
    <path d="M 1323.923566 246.310385 
L 1327.915434 246.310385 
L 1327.915434 210.545104 
L 1323.923566 210.545104 
z
" clip-path="url(#p39a1774168)" style="fill: #1f77b4"/>
   </g>
   <g id="patch_169">
    <path d="M 1328.358975 246.310385 
L 1332.350844 246.310385 
L 1332.350844 217.69816 
L 1328.358975 217.69816 
z
" clip-path="url(#p39a1774168)" style="fill: #1f77b4"/>
   </g>
   <g id="patch_170">
    <path d="M 1332.794385 246.310385 
L 1336.786253 246.310385 
L 1336.786253 230.216008 
L 1332.794385 230.216008 
z
" clip-path="url(#p39a1774168)" style="fill: #1f77b4"/>
   </g>
   <g id="patch_171">
    <path d="M 1337.229794 246.310385 
L 1341.221663 246.310385 
L 1341.221663 234.686669 
L 1337.229794 234.686669 
z
" clip-path="url(#p39a1774168)" style="fill: #1f77b4"/>
   </g>
   <g id="patch_172">
    <path d="M 1341.665204 246.310385 
L 1345.657072 246.310385 
L 1345.657072 243.627989 
L 1341.665204 243.627989 
z
" clip-path="url(#p39a1774168)" style="fill: #1f77b4"/>
   </g>
   <g id="patch_173">
    <path d="M 1346.100613 246.310385 
L 1350.092481 246.310385 
L 1350.092481 244.522121 
L 1346.100613 244.522121 
z
" clip-path="url(#p39a1774168)" style="fill: #1f77b4"/>
   </g>
   <g id="patch_174">
    <path d="M 1350.536022 246.310385 
L 1354.527891 246.310385 
L 1354.527891 243.627989 
L 1350.536022 243.627989 
z
" clip-path="url(#p39a1774168)" style="fill: #1f77b4"/>
   </g>
   <g id="matplotlib.axis_9">
    <g id="xtick_13">
     <g id="line2d_39">
      <g>
       <use xlink:href="#m8b73025b66" x="1236.864316" y="246.310385" style="stroke: #000000; stroke-width: 0.8"/>
      </g>
     </g>
     <g id="text_41">
      <!-- −2 -->
      <g transform="translate(1226.544785 263.948197) scale(0.14 -0.14)">
       <use xlink:href="#DejaVuSans-2212"/>
       <use xlink:href="#DejaVuSans-32" x="83.789062"/>
      </g>
     </g>
    </g>
    <g id="xtick_14">
     <g id="line2d_40">
      <g>
       <use xlink:href="#m8b73025b66" x="1312.387125" y="246.310385" style="stroke: #000000; stroke-width: 0.8"/>
      </g>
     </g>
     <g id="text_42">
      <!-- 0 -->
      <g transform="translate(1307.933375 263.948197) scale(0.14 -0.14)">
       <use xlink:href="#DejaVuSans-30"/>
      </g>
     </g>
    </g>
    <g id="xtick_15">
     <g id="line2d_41">
      <g>
       <use xlink:href="#m8b73025b66" x="1387.909934" y="246.310385" style="stroke: #000000; stroke-width: 0.8"/>
      </g>
     </g>
     <g id="text_43">
      <!-- 2 -->
      <g transform="translate(1383.456184 263.948197) scale(0.14 -0.14)">
       <use xlink:href="#DejaVuSans-32"/>
      </g>
     </g>
    </g>
    <g id="text_44">
     <!-- $b_{\alpha,5}$ [deg] -->
     <g transform="translate(1277.947125 281.49976) scale(0.14 -0.14)">
      <defs>
       <path id="DejaVuSans-35" d="M 691 4666 
L 3169 4666 
L 3169 4134 
L 1269 4134 
L 1269 2991 
Q 1406 3038 1543 3061 
Q 1681 3084 1819 3084 
Q 2600 3084 3056 2656 
Q 3513 2228 3513 1497 
Q 3513 744 3044 326 
Q 2575 -91 1722 -91 
Q 1428 -91 1123 -41 
Q 819 9 494 109 
L 494 744 
Q 775 591 1075 516 
Q 1375 441 1709 441 
Q 2250 441 2565 725 
Q 2881 1009 2881 1497 
Q 2881 1984 2565 2268 
Q 2250 2553 1709 2553 
Q 1456 2553 1204 2497 
Q 953 2441 691 2322 
L 691 4666 
z
" transform="scale(0.015625)"/>
      </defs>
      <use xlink:href="#DejaVuSans-Oblique-62" transform="translate(0 0.015625)"/>
      <use xlink:href="#DejaVuSans-Oblique-3b1" transform="translate(63.476562 -16.390625) scale(0.7)"/>
      <use xlink:href="#DejaVuSans-2c" transform="translate(109.619141 -16.390625) scale(0.7)"/>
      <use xlink:href="#DejaVuSans-35" transform="translate(145.507812 -16.390625) scale(0.7)"/>
      <use xlink:href="#DejaVuSans-20" transform="translate(192.77832 0.015625)"/>
      <use xlink:href="#DejaVuSans-5b" transform="translate(224.56543 0.015625)"/>
      <use xlink:href="#DejaVuSans-64" transform="translate(263.579102 0.015625)"/>
      <use xlink:href="#DejaVuSans-65" transform="translate(327.055664 0.015625)"/>
      <use xlink:href="#DejaVuSans-67" transform="translate(388.579102 0.015625)"/>
      <use xlink:href="#DejaVuSans-5d" transform="translate(452.055664 0.015625)"/>
     </g>
    </g>
   </g>
   <g id="matplotlib.axis_10">
    <g id="ytick_22">
     <g id="line2d_42">
      <g>
       <use xlink:href="#m76eb64b889" x="1187.77449" y="246.310385" style="stroke: #000000; stroke-width: 0.8"/>
      </g>
     </g>
     <g id="text_45">
      <!-- 0.0 -->
      <g transform="translate(1158.510115 251.629291) scale(0.14 -0.14)">
       <use xlink:href="#DejaVuSans-30"/>
       <use xlink:href="#DejaVuSans-2e" x="63.623047"/>
       <use xlink:href="#DejaVuSans-30" x="95.410156"/>
      </g>
     </g>
    </g>
    <g id="ytick_23">
     <g id="line2d_43">
      <g>
       <use xlink:href="#m76eb64b889" x="1187.77449" y="193.798545" style="stroke: #000000; stroke-width: 0.8"/>
      </g>
     </g>
     <g id="text_46">
      <!-- 0.2 -->
      <g transform="translate(1158.510115 199.117452) scale(0.14 -0.14)">
       <use xlink:href="#DejaVuSans-30"/>
       <use xlink:href="#DejaVuSans-2e" x="63.623047"/>
       <use xlink:href="#DejaVuSans-32" x="95.410156"/>
      </g>
     </g>
    </g>
    <g id="ytick_24">
     <g id="line2d_44">
      <g>
       <use xlink:href="#m76eb64b889" x="1187.77449" y="141.286706" style="stroke: #000000; stroke-width: 0.8"/>
      </g>
     </g>
     <g id="text_47">
      <!-- 0.4 -->
      <g transform="translate(1158.510115 146.605612) scale(0.14 -0.14)">
       <use xlink:href="#DejaVuSans-30"/>
       <use xlink:href="#DejaVuSans-2e" x="63.623047"/>
       <use xlink:href="#DejaVuSans-34" x="95.410156"/>
      </g>
     </g>
    </g>
    <g id="ytick_25">
     <g id="line2d_45">
      <g>
       <use xlink:href="#m76eb64b889" x="1187.77449" y="88.774866" style="stroke: #000000; stroke-width: 0.8"/>
      </g>
     </g>
     <g id="text_48">
      <!-- 0.6 -->
      <g transform="translate(1158.510115 94.093772) scale(0.14 -0.14)">
       <use xlink:href="#DejaVuSans-30"/>
       <use xlink:href="#DejaVuSans-2e" x="63.623047"/>
       <use xlink:href="#DejaVuSans-36" x="95.410156"/>
      </g>
     </g>
    </g>
    <g id="ytick_26">
     <g id="line2d_46">
      <g>
       <use xlink:href="#m76eb64b889" x="1187.77449" y="36.263026" style="stroke: #000000; stroke-width: 0.8"/>
      </g>
     </g>
     <g id="text_49">
      <!-- 0.8 -->
      <g transform="translate(1158.510115 41.581933) scale(0.14 -0.14)">
       <use xlink:href="#DejaVuSans-30"/>
       <use xlink:href="#DejaVuSans-2e" x="63.623047"/>
       <use xlink:href="#DejaVuSans-38" x="95.410156"/>
      </g>
     </g>
    </g>
   </g>
   <g id="line2d_47">
    <path d="M 1199.102911 245.146762 
L 1201.391481 244.917301 
L 1203.680051 244.648707 
L 1205.968621 244.335592 
L 1208.257191 243.972081 
L 1210.545761 243.551807 
L 1212.834331 243.067928 
L 1215.122901 242.513145 
L 1217.411471 241.879743 
L 1219.700041 241.15964 
L 1221.988611 240.344454 
L 1224.277181 239.425587 
L 1226.565751 238.394327 
L 1228.854321 237.241966 
L 1231.142891 235.959942 
L 1233.431461 234.539988 
L 1235.720031 232.974309 
L 1238.008601 231.255764 
L 1240.297171 229.378069 
L 1242.585741 227.336 
L 1244.874311 225.12561 
L 1247.162881 222.744444 
L 1249.451451 220.191747 
L 1251.740021 217.468672 
L 1254.028591 214.578463 
L 1256.317161 211.526628 
L 1258.605731 208.321075 
L 1260.894301 204.972228 
L 1263.182871 201.493093 
L 1265.471441 197.899289 
L 1267.760011 194.209031 
L 1270.048581 190.443057 
L 1272.33715 186.624508 
L 1274.62572 182.778746 
L 1276.91429 178.933126 
L 1279.20286 175.116711 
L 1281.49143 171.35993 
L 1283.78 167.694205 
L 1286.06857 164.151527 
L 1288.35714 160.764004 
L 1290.64571 157.563383 
L 1292.93428 154.580567 
L 1295.22285 151.845115 
L 1297.51142 149.384761 
L 1299.79999 147.224947 
L 1302.08856 145.388383 
L 1304.37713 143.894653 
L 1306.6657 142.759864 
L 1308.95427 141.996361 
L 1311.24284 141.612501 
L 1313.53141 141.612501 
L 1315.81998 141.996361 
L 1318.10855 142.759864 
L 1320.39712 143.894653 
L 1322.68569 145.388383 
L 1324.97426 147.224947 
L 1327.26283 149.384761 
L 1329.5514 151.845115 
L 1331.83997 154.580567 
L 1334.12854 157.563383 
L 1336.41711 160.764004 
L 1338.70568 164.151527 
L 1340.99425 167.694205 
L 1343.28282 171.35993 
L 1345.57139 175.116711 
L 1347.85996 178.933126 
L 1350.14853 182.778746 
L 1352.4371 186.624508 
L 1354.725669 190.443057 
L 1357.014239 194.209031 
L 1359.302809 197.899289 
L 1361.591379 201.493093 
L 1363.879949 204.972228 
L 1366.168519 208.321075 
L 1368.457089 211.526628 
L 1370.745659 214.578463 
L 1373.034229 217.468672 
L 1375.322799 220.191747 
L 1377.611369 222.744444 
L 1379.899939 225.12561 
L 1382.188509 227.336 
L 1384.477079 229.378069 
L 1386.765649 231.255764 
L 1389.054219 232.974309 
L 1391.342789 234.539988 
L 1393.631359 235.959942 
L 1395.919929 237.241966 
L 1398.208499 238.394327 
L 1400.497069 239.425587 
L 1402.785639 240.344454 
L 1405.074209 241.15964 
L 1407.362779 241.879743 
L 1409.651349 242.513145 
L 1411.939919 243.067928 
L 1414.228489 243.551807 
L 1416.517059 243.972081 
L 1418.805629 244.335592 
L 1421.094199 244.648707 
L 1423.382769 244.917301 
L 1425.671339 245.146762 
" clip-path="url(#p39a1774168)" style="fill: none; stroke: #2ca02c; stroke-width: 1.5; stroke-linecap: square"/>
   </g>
   <g id="patch_175">
    <path d="M 1187.77449 246.310385 
L 1187.77449 3.151178 
" style="fill: none; stroke: #000000; stroke-width: 0.8; stroke-linejoin: miter; stroke-linecap: square"/>
   </g>
   <g id="patch_176">
    <path d="M 1436.99976 246.310385 
L 1436.99976 3.151178 
" style="fill: none; stroke: #000000; stroke-width: 0.8; stroke-linejoin: miter; stroke-linecap: square"/>
   </g>
   <g id="patch_177">
    <path d="M 1187.77449 246.310385 
L 1436.99976 246.310385 
" style="fill: none; stroke: #000000; stroke-width: 0.8; stroke-linejoin: miter; stroke-linecap: square"/>
   </g>
   <g id="patch_178">
    <path d="M 1187.77449 3.151178 
L 1436.99976 3.151178 
" style="fill: none; stroke: #000000; stroke-width: 0.8; stroke-linejoin: miter; stroke-linecap: square"/>
   </g>
  </g>
 </g>
 <defs>
  <clipPath id="pb836e60504">
   <rect x="49.81399" y="3.151178" width="249.22527" height="243.159207"/>
  </clipPath>
  <clipPath id="p272e7a90cc">
   <rect x="334.304115" y="3.151178" width="249.22527" height="243.159207"/>
  </clipPath>
  <clipPath id="p54204560e0">
   <rect x="618.79424" y="3.151178" width="249.22527" height="243.159207"/>
  </clipPath>
  <clipPath id="pe842af7180">
   <rect x="903.284365" y="3.151178" width="249.22527" height="243.159207"/>
  </clipPath>
  <clipPath id="p39a1774168">
   <rect x="1187.77449" y="3.151178" width="249.22527" height="243.159207"/>
  </clipPath>
 </defs>
</svg>
