<?xml version="1.0" encoding="utf-8" standalone="no"?>
<!DOCTYPE svg PUBLIC "-//W3C//DTD SVG 1.1//EN"
  "http://www.w3.org/Graphics/SVG/1.1/DTD/svg11.dtd">
<svg xmlns:xlink="http://www.w3.org/1999/xlink" width="1440pt" height="288pt" viewBox="0 0 1440 288" xmlns="http://www.w3.org/2000/svg" version="1.1">
 <metadata>
  <rdf:RDF xmlns:dc="http://purl.org/dc/elements/1.1/" xmlns:cc="http://creativecommons.org/ns#" xmlns:rdf="http://www.w3.org/1999/02/22-rdf-syntax-ns#">
   <cc:Work>
    <dc:type rdf:resource="http://purl.org/dc/dcmitype/StillImage"/>
    <dc:date>2024-11-24T11:22:59.231606</dc:date>
    <dc:format>image/svg+xml</dc:format>
    <dc:creator>
     <cc:Agent>
      <dc:title>Matplotlib v3.9.2, https://matplotlib.org/</dc:title>
     </cc:Agent>
    </dc:creator>
   </cc:Work>
  </rdf:RDF>
 </metadata>
 <defs>
  <style type="text/css">*{stroke-linejoin: round; stroke-linecap: butt}</style>
 </defs>
 <g id="figure_1">
  <g id="patch_1">
   <path d="M 0 288 
L 1440 288 
L 1440 0 
L 0 0 
z
" style="fill: #ffffff"/>
  </g>
  <g id="axes_1">
   <g id="patch_2">
    <path d="M 49.81399 246.310385 
L 299.03926 246.310385 
L 299.03926 3.687398 
L 49.81399 3.687398 
z
" style="fill: #ffffff"/>
   </g>
   <g id="patch_3">
    <path d="M 113.848675 246.310385 
L 118.604636 246.310385 
L 118.604636 245.076918 
L 113.848675 245.076918 
z
" clip-path="url(#p179523908b)" style="fill: #1f77b4"/>
   </g>
   <g id="patch_4">
    <path d="M 119.133076 246.310385 
L 123.889036 246.310385 
L 123.889036 244.665762 
L 119.133076 244.665762 
z
" clip-path="url(#p179523908b)" style="fill: #1f77b4"/>
   </g>
   <g id="patch_5">
    <path d="M 124.417477 246.310385 
L 129.173437 246.310385 
L 129.173437 244.254606 
L 124.417477 244.254606 
z
" clip-path="url(#p179523908b)" style="fill: #1f77b4"/>
   </g>
   <g id="patch_6">
    <path d="M 129.701877 246.310385 
L 134.457838 246.310385 
L 134.457838 245.076918 
L 129.701877 245.076918 
z
" clip-path="url(#p179523908b)" style="fill: #1f77b4"/>
   </g>
   <g id="patch_7">
    <path d="M 134.986278 246.310385 
L 139.742238 246.310385 
L 139.742238 237.264959 
L 134.986278 237.264959 
z
" clip-path="url(#p179523908b)" style="fill: #1f77b4"/>
   </g>
   <g id="patch_8">
    <path d="M 140.270678 246.310385 
L 145.026639 246.310385 
L 145.026639 232.331091 
L 140.270678 232.331091 
z
" clip-path="url(#p179523908b)" style="fill: #1f77b4"/>
   </g>
   <g id="patch_9">
    <path d="M 145.555079 246.310385 
L 150.311039 246.310385 
L 150.311039 225.341444 
L 145.555079 225.341444 
z
" clip-path="url(#p179523908b)" style="fill: #1f77b4"/>
   </g>
   <g id="patch_10">
    <path d="M 150.839479 246.310385 
L 155.59544 246.310385 
L 155.59544 206.017125 
L 150.839479 206.017125 
z
" clip-path="url(#p179523908b)" style="fill: #1f77b4"/>
   </g>
   <g id="patch_11">
    <path d="M 156.12388 246.310385 
L 160.87984 246.310385 
L 160.87984 185.459339 
L 156.12388 185.459339 
z
" clip-path="url(#p179523908b)" style="fill: #1f77b4"/>
   </g>
   <g id="patch_12">
    <path d="M 161.40828 246.310385 
L 166.164241 246.310385 
L 166.164241 152.566882 
L 161.40828 152.566882 
z
" clip-path="url(#p179523908b)" style="fill: #1f77b4"/>
   </g>
   <g id="patch_13">
    <path d="M 166.692681 246.310385 
L 171.448642 246.310385 
L 171.448642 143.521457 
L 166.692681 143.521457 
z
" clip-path="url(#p179523908b)" style="fill: #1f77b4"/>
   </g>
   <g id="patch_14">
    <path d="M 171.977082 246.310385 
L 176.733042 246.310385 
L 176.733042 95.827394 
L 171.977082 95.827394 
z
" clip-path="url(#p179523908b)" style="fill: #1f77b4"/>
   </g>
   <g id="patch_15">
    <path d="M 177.261482 246.310385 
L 182.017443 246.310385 
L 182.017443 90.071214 
L 177.261482 90.071214 
z
" clip-path="url(#p179523908b)" style="fill: #1f77b4"/>
   </g>
   <g id="patch_16">
    <path d="M 182.545883 246.310385 
L 187.301843 246.310385 
L 187.301843 55.945289 
L 182.545883 55.945289 
z
" clip-path="url(#p179523908b)" style="fill: #1f77b4"/>
   </g>
   <g id="patch_17">
    <path d="M 187.830283 246.310385 
L 192.586244 246.310385 
L 192.586244 15.240874 
L 187.830283 15.240874 
z
" clip-path="url(#p179523908b)" style="fill: #1f77b4"/>
   </g>
   <g id="patch_18">
    <path d="M 193.114684 246.310385 
L 197.870644 246.310385 
L 197.870644 41.554839 
L 193.114684 41.554839 
z
" clip-path="url(#p179523908b)" style="fill: #1f77b4"/>
   </g>
   <g id="patch_19">
    <path d="M 198.399084 246.310385 
L 203.155045 246.310385 
L 203.155045 70.335739 
L 198.399084 70.335739 
z
" clip-path="url(#p179523908b)" style="fill: #1f77b4"/>
   </g>
   <g id="patch_20">
    <path d="M 203.683485 246.310385 
L 208.439446 246.310385 
L 208.439446 89.248902 
L 203.683485 89.248902 
z
" clip-path="url(#p179523908b)" style="fill: #1f77b4"/>
   </g>
   <g id="patch_21">
    <path d="M 208.967886 246.310385 
L 213.723846 246.310385 
L 213.723846 115.151712 
L 208.967886 115.151712 
z
" clip-path="url(#p179523908b)" style="fill: #1f77b4"/>
   </g>
   <g id="patch_22">
    <path d="M 214.252286 246.310385 
L 219.008247 246.310385 
L 219.008247 147.221858 
L 214.252286 147.221858 
z
" clip-path="url(#p179523908b)" style="fill: #1f77b4"/>
   </g>
   <g id="patch_23">
    <path d="M 219.536687 246.310385 
L 224.292647 246.310385 
L 224.292647 153.800349 
L 219.536687 153.800349 
z
" clip-path="url(#p179523908b)" style="fill: #1f77b4"/>
   </g>
   <g id="patch_24">
    <path d="M 224.821087 246.310385 
L 229.577048 246.310385 
L 229.577048 196.971699 
L 224.821087 196.971699 
z
" clip-path="url(#p179523908b)" style="fill: #1f77b4"/>
   </g>
   <g id="patch_25">
    <path d="M 230.105488 246.310385 
L 234.861448 246.310385 
L 234.861448 213.829084 
L 230.105488 213.829084 
z
" clip-path="url(#p179523908b)" style="fill: #1f77b4"/>
   </g>
   <g id="patch_26">
    <path d="M 235.389888 246.310385 
L 240.145849 246.310385 
L 240.145849 231.919935 
L 235.389888 231.919935 
z
" clip-path="url(#p179523908b)" style="fill: #1f77b4"/>
   </g>
   <g id="patch_27">
    <path d="M 240.674289 246.310385 
L 245.430249 246.310385 
L 245.430249 233.975714 
L 240.674289 233.975714 
z
" clip-path="url(#p179523908b)" style="fill: #1f77b4"/>
   </g>
   <g id="patch_28">
    <path d="M 245.95869 246.310385 
L 250.71465 246.310385 
L 250.71465 240.143049 
L 245.95869 240.143049 
z
" clip-path="url(#p179523908b)" style="fill: #1f77b4"/>
   </g>
   <g id="patch_29">
    <path d="M 251.24309 246.310385 
L 255.999051 246.310385 
L 255.999051 243.021139 
L 251.24309 243.021139 
z
" clip-path="url(#p179523908b)" style="fill: #1f77b4"/>
   </g>
   <g id="patch_30">
    <path d="M 256.527491 246.310385 
L 261.283451 246.310385 
L 261.283451 245.488074 
L 256.527491 245.488074 
z
" clip-path="url(#p179523908b)" style="fill: #1f77b4"/>
   </g>
   <g id="patch_31">
    <path d="M 261.811891 246.310385 
L 266.567852 246.310385 
L 266.567852 246.310385 
L 261.811891 246.310385 
z
" clip-path="url(#p179523908b)" style="fill: #1f77b4"/>
   </g>
   <g id="patch_32">
    <path d="M 267.096292 246.310385 
L 271.852252 246.310385 
L 271.852252 245.899229 
L 267.096292 245.899229 
z
" clip-path="url(#p179523908b)" style="fill: #1f77b4"/>
   </g>
   <g id="matplotlib.axis_1">
    <g id="xtick_1">
     <g id="line2d_1">
      <defs>
       <path id="m10a4f952d9" d="M 0 0 
L 0 3.5 
" style="stroke: #000000; stroke-width: 0.8"/>
      </defs>
      <g>
       <use xlink:href="#m10a4f952d9" x="98.903816" y="246.310385" style="stroke: #000000; stroke-width: 0.8"/>
      </g>
     </g>
     <g id="text_1">
      <!-- −2 -->
      <g transform="translate(88.584285 263.948197) scale(0.14 -0.14)">
       <defs>
        <path id="DejaVuSans-2212" d="M 678 2272 
L 4684 2272 
L 4684 1741 
L 678 1741 
L 678 2272 
z
" transform="scale(0.015625)"/>
        <path id="DejaVuSans-32" d="M 1228 531 
L 3431 531 
L 3431 0 
L 469 0 
L 469 531 
Q 828 903 1448 1529 
Q 2069 2156 2228 2338 
Q 2531 2678 2651 2914 
Q 2772 3150 2772 3378 
Q 2772 3750 2511 3984 
Q 2250 4219 1831 4219 
Q 1534 4219 1204 4116 
Q 875 4013 500 3803 
L 500 4441 
Q 881 4594 1212 4672 
Q 1544 4750 1819 4750 
Q 2544 4750 2975 4387 
Q 3406 4025 3406 3419 
Q 3406 3131 3298 2873 
Q 3191 2616 2906 2266 
Q 2828 2175 2409 1742 
Q 1991 1309 1228 531 
z
" transform="scale(0.015625)"/>
       </defs>
       <use xlink:href="#DejaVuSans-2212"/>
       <use xlink:href="#DejaVuSans-32" x="83.789062"/>
      </g>
     </g>
    </g>
    <g id="xtick_2">
     <g id="line2d_2">
      <g>
       <use xlink:href="#m10a4f952d9" x="174.426625" y="246.310385" style="stroke: #000000; stroke-width: 0.8"/>
      </g>
     </g>
     <g id="text_2">
      <!-- 0 -->
      <g transform="translate(169.972875 263.948197) scale(0.14 -0.14)">
       <defs>
        <path id="DejaVuSans-30" d="M 2034 4250 
Q 1547 4250 1301 3770 
Q 1056 3291 1056 2328 
Q 1056 1369 1301 889 
Q 1547 409 2034 409 
Q 2525 409 2770 889 
Q 3016 1369 3016 2328 
Q 3016 3291 2770 3770 
Q 2525 4250 2034 4250 
z
M 2034 4750 
Q 2819 4750 3233 4129 
Q 3647 3509 3647 2328 
Q 3647 1150 3233 529 
Q 2819 -91 2034 -91 
Q 1250 -91 836 529 
Q 422 1150 422 2328 
Q 422 3509 836 4129 
Q 1250 4750 2034 4750 
z
" transform="scale(0.015625)"/>
       </defs>
       <use xlink:href="#DejaVuSans-30"/>
      </g>
     </g>
    </g>
    <g id="xtick_3">
     <g id="line2d_3">
      <g>
       <use xlink:href="#m10a4f952d9" x="249.949434" y="246.310385" style="stroke: #000000; stroke-width: 0.8"/>
      </g>
     </g>
     <g id="text_3">
      <!-- 2 -->
      <g transform="translate(245.495684 263.948197) scale(0.14 -0.14)">
       <use xlink:href="#DejaVuSans-32"/>
      </g>
     </g>
    </g>
    <g id="text_4">
     <!-- $b_{\alpha,1}$ [deg] -->
     <g transform="translate(139.986625 281.49976) scale(0.14 -0.14)">
      <defs>
       <path id="DejaVuSans-Oblique-62" d="M 3169 2138 
Q 3169 2591 2961 2847 
Q 2753 3103 2388 3103 
Q 2122 3103 1889 2973 
Q 1656 2844 1484 2597 
Q 1303 2338 1198 1995 
Q 1094 1653 1094 1313 
Q 1094 881 1298 636 
Q 1503 391 1863 391 
Q 2134 391 2365 517 
Q 2597 644 2772 891 
Q 2950 1147 3059 1487 
Q 3169 1828 3169 2138 
z
M 1381 2969 
Q 1594 3256 1914 3420 
Q 2234 3584 2584 3584 
Q 3122 3584 3439 3221 
Q 3756 2859 3756 2241 
Q 3756 1734 3570 1259 
Q 3384 784 3041 416 
Q 2816 172 2522 40 
Q 2228 -91 1906 -91 
Q 1566 -91 1316 65 
Q 1066 222 909 531 
L 806 0 
L 231 0 
L 1178 4863 
L 1753 4863 
L 1381 2969 
z
" transform="scale(0.015625)"/>
       <path id="DejaVuSans-Oblique-3b1" d="M 2619 1628 
L 2622 2350 
Q 2625 3088 2069 3091 
Q 1653 3094 1394 2747 
Q 1069 2319 959 1747 
Q 825 1059 994 731 
Q 1169 397 1547 397 
Q 1966 397 2319 1063 
L 2619 1628 
z
M 2166 3578 
Q 3141 3594 3128 2584 
Q 3128 2584 3616 3500 
L 4128 3500 
L 3119 1603 
L 3109 919 
Q 3109 766 3194 638 
Q 3291 488 3391 488 
L 3669 488 
L 3575 0 
L 3228 0 
Q 2934 0 2722 263 
Q 2622 394 2619 669 
Q 2416 334 2066 50 
Q 1900 -81 1453 -78 
Q 722 -72 456 397 
Q 184 884 353 1747 
Q 534 2675 1009 3097 
Q 1544 3569 2166 3578 
z
" transform="scale(0.015625)"/>
       <path id="DejaVuSans-2c" d="M 750 794 
L 1409 794 
L 1409 256 
L 897 -744 
L 494 -744 
L 750 256 
L 750 794 
z
" transform="scale(0.015625)"/>
       <path id="DejaVuSans-31" d="M 794 531 
L 1825 531 
L 1825 4091 
L 703 3866 
L 703 4441 
L 1819 4666 
L 2450 4666 
L 2450 531 
L 3481 531 
L 3481 0 
L 794 0 
L 794 531 
z
" transform="scale(0.015625)"/>
       <path id="DejaVuSans-20" transform="scale(0.015625)"/>
       <path id="DejaVuSans-5b" d="M 550 4863 
L 1875 4863 
L 1875 4416 
L 1125 4416 
L 1125 -397 
L 1875 -397 
L 1875 -844 
L 550 -844 
L 550 4863 
z
" transform="scale(0.015625)"/>
       <path id="DejaVuSans-64" d="M 2906 2969 
L 2906 4863 
L 3481 4863 
L 3481 0 
L 2906 0 
L 2906 525 
Q 2725 213 2448 61 
Q 2172 -91 1784 -91 
Q 1150 -91 751 415 
Q 353 922 353 1747 
Q 353 2572 751 3078 
Q 1150 3584 1784 3584 
Q 2172 3584 2448 3432 
Q 2725 3281 2906 2969 
z
M 947 1747 
Q 947 1113 1208 752 
Q 1469 391 1925 391 
Q 2381 391 2643 752 
Q 2906 1113 2906 1747 
Q 2906 2381 2643 2742 
Q 2381 3103 1925 3103 
Q 1469 3103 1208 2742 
Q 947 2381 947 1747 
z
" transform="scale(0.015625)"/>
       <path id="DejaVuSans-65" d="M 3597 1894 
L 3597 1613 
L 953 1613 
Q 991 1019 1311 708 
Q 1631 397 2203 397 
Q 2534 397 2845 478 
Q 3156 559 3463 722 
L 3463 178 
Q 3153 47 2828 -22 
Q 2503 -91 2169 -91 
Q 1331 -91 842 396 
Q 353 884 353 1716 
Q 353 2575 817 3079 
Q 1281 3584 2069 3584 
Q 2775 3584 3186 3129 
Q 3597 2675 3597 1894 
z
M 3022 2063 
Q 3016 2534 2758 2815 
Q 2500 3097 2075 3097 
Q 1594 3097 1305 2825 
Q 1016 2553 972 2059 
L 3022 2063 
z
" transform="scale(0.015625)"/>
       <path id="DejaVuSans-67" d="M 2906 1791 
Q 2906 2416 2648 2759 
Q 2391 3103 1925 3103 
Q 1463 3103 1205 2759 
Q 947 2416 947 1791 
Q 947 1169 1205 825 
Q 1463 481 1925 481 
Q 2391 481 2648 825 
Q 2906 1169 2906 1791 
z
M 3481 434 
Q 3481 -459 3084 -895 
Q 2688 -1331 1869 -1331 
Q 1566 -1331 1297 -1286 
Q 1028 -1241 775 -1147 
L 775 -588 
Q 1028 -725 1275 -790 
Q 1522 -856 1778 -856 
Q 2344 -856 2625 -561 
Q 2906 -266 2906 331 
L 2906 616 
Q 2728 306 2450 153 
Q 2172 0 1784 0 
Q 1141 0 747 490 
Q 353 981 353 1791 
Q 353 2603 747 3093 
Q 1141 3584 1784 3584 
Q 2172 3584 2450 3431 
Q 2728 3278 2906 2969 
L 2906 3500 
L 3481 3500 
L 3481 434 
z
" transform="scale(0.015625)"/>
       <path id="DejaVuSans-5d" d="M 1947 4863 
L 1947 -844 
L 622 -844 
L 622 -397 
L 1369 -397 
L 1369 4416 
L 622 4416 
L 622 4863 
L 1947 4863 
z
" transform="scale(0.015625)"/>
      </defs>
      <use xlink:href="#DejaVuSans-Oblique-62" transform="translate(0 0.015625)"/>
      <use xlink:href="#DejaVuSans-Oblique-3b1" transform="translate(63.476562 -16.390625) scale(0.7)"/>
      <use xlink:href="#DejaVuSans-2c" transform="translate(109.619141 -16.390625) scale(0.7)"/>
      <use xlink:href="#DejaVuSans-31" transform="translate(145.507812 -16.390625) scale(0.7)"/>
      <use xlink:href="#DejaVuSans-20" transform="translate(192.77832 0.015625)"/>
      <use xlink:href="#DejaVuSans-5b" transform="translate(224.56543 0.015625)"/>
      <use xlink:href="#DejaVuSans-64" transform="translate(263.579102 0.015625)"/>
      <use xlink:href="#DejaVuSans-65" transform="translate(327.055664 0.015625)"/>
      <use xlink:href="#DejaVuSans-67" transform="translate(388.579102 0.015625)"/>
      <use xlink:href="#DejaVuSans-5d" transform="translate(452.055664 0.015625)"/>
     </g>
    </g>
   </g>
   <g id="matplotlib.axis_2">
    <g id="ytick_1">
     <g id="line2d_4">
      <defs>
       <path id="mb6f2f17a5b" d="M 0 0 
L -3.5 0 
" style="stroke: #000000; stroke-width: 0.8"/>
      </defs>
      <g>
       <use xlink:href="#mb6f2f17a5b" x="49.81399" y="246.310385" style="stroke: #000000; stroke-width: 0.8"/>
      </g>
     </g>
     <g id="text_5">
      <!-- 0.0 -->
      <g transform="translate(20.549615 251.629291) scale(0.14 -0.14)">
       <defs>
        <path id="DejaVuSans-2e" d="M 684 794 
L 1344 794 
L 1344 0 
L 684 0 
L 684 794 
z
" transform="scale(0.015625)"/>
       </defs>
       <use xlink:href="#DejaVuSans-30"/>
       <use xlink:href="#DejaVuSans-2e" x="63.623047"/>
       <use xlink:href="#DejaVuSans-30" x="95.410156"/>
      </g>
     </g>
    </g>
    <g id="ytick_2">
     <g id="line2d_5">
      <g>
       <use xlink:href="#mb6f2f17a5b" x="49.81399" y="188.772496" style="stroke: #000000; stroke-width: 0.8"/>
      </g>
     </g>
     <g id="text_6">
      <!-- 0.2 -->
      <g transform="translate(20.549615 194.091403) scale(0.14 -0.14)">
       <use xlink:href="#DejaVuSans-30"/>
       <use xlink:href="#DejaVuSans-2e" x="63.623047"/>
       <use xlink:href="#DejaVuSans-32" x="95.410156"/>
      </g>
     </g>
    </g>
    <g id="ytick_3">
     <g id="line2d_6">
      <g>
       <use xlink:href="#mb6f2f17a5b" x="49.81399" y="131.234608" style="stroke: #000000; stroke-width: 0.8"/>
      </g>
     </g>
     <g id="text_7">
      <!-- 0.4 -->
      <g transform="translate(20.549615 136.553514) scale(0.14 -0.14)">
       <defs>
        <path id="DejaVuSans-34" d="M 2419 4116 
L 825 1625 
L 2419 1625 
L 2419 4116 
z
M 2253 4666 
L 3047 4666 
L 3047 1625 
L 3713 1625 
L 3713 1100 
L 3047 1100 
L 3047 0 
L 2419 0 
L 2419 1100 
L 313 1100 
L 313 1709 
L 2253 4666 
z
" transform="scale(0.015625)"/>
       </defs>
       <use xlink:href="#DejaVuSans-30"/>
       <use xlink:href="#DejaVuSans-2e" x="63.623047"/>
       <use xlink:href="#DejaVuSans-34" x="95.410156"/>
      </g>
     </g>
    </g>
    <g id="ytick_4">
     <g id="line2d_7">
      <g>
       <use xlink:href="#mb6f2f17a5b" x="49.81399" y="73.696719" style="stroke: #000000; stroke-width: 0.8"/>
      </g>
     </g>
     <g id="text_8">
      <!-- 0.6 -->
      <g transform="translate(20.549615 79.015626) scale(0.14 -0.14)">
       <defs>
        <path id="DejaVuSans-36" d="M 2113 2584 
Q 1688 2584 1439 2293 
Q 1191 2003 1191 1497 
Q 1191 994 1439 701 
Q 1688 409 2113 409 
Q 2538 409 2786 701 
Q 3034 994 3034 1497 
Q 3034 2003 2786 2293 
Q 2538 2584 2113 2584 
z
M 3366 4563 
L 3366 3988 
Q 3128 4100 2886 4159 
Q 2644 4219 2406 4219 
Q 1781 4219 1451 3797 
Q 1122 3375 1075 2522 
Q 1259 2794 1537 2939 
Q 1816 3084 2150 3084 
Q 2853 3084 3261 2657 
Q 3669 2231 3669 1497 
Q 3669 778 3244 343 
Q 2819 -91 2113 -91 
Q 1303 -91 875 529 
Q 447 1150 447 2328 
Q 447 3434 972 4092 
Q 1497 4750 2381 4750 
Q 2619 4750 2861 4703 
Q 3103 4656 3366 4563 
z
" transform="scale(0.015625)"/>
       </defs>
       <use xlink:href="#DejaVuSans-30"/>
       <use xlink:href="#DejaVuSans-2e" x="63.623047"/>
       <use xlink:href="#DejaVuSans-36" x="95.410156"/>
      </g>
     </g>
    </g>
    <g id="ytick_5">
     <g id="line2d_8">
      <g>
       <use xlink:href="#mb6f2f17a5b" x="49.81399" y="16.158831" style="stroke: #000000; stroke-width: 0.8"/>
      </g>
     </g>
     <g id="text_9">
      <!-- 0.8 -->
      <g transform="translate(20.549615 21.477737) scale(0.14 -0.14)">
       <defs>
        <path id="DejaVuSans-38" d="M 2034 2216 
Q 1584 2216 1326 1975 
Q 1069 1734 1069 1313 
Q 1069 891 1326 650 
Q 1584 409 2034 409 
Q 2484 409 2743 651 
Q 3003 894 3003 1313 
Q 3003 1734 2745 1975 
Q 2488 2216 2034 2216 
z
M 1403 2484 
Q 997 2584 770 2862 
Q 544 3141 544 3541 
Q 544 4100 942 4425 
Q 1341 4750 2034 4750 
Q 2731 4750 3128 4425 
Q 3525 4100 3525 3541 
Q 3525 3141 3298 2862 
Q 3072 2584 2669 2484 
Q 3125 2378 3379 2068 
Q 3634 1759 3634 1313 
Q 3634 634 3220 271 
Q 2806 -91 2034 -91 
Q 1263 -91 848 271 
Q 434 634 434 1313 
Q 434 1759 690 2068 
Q 947 2378 1403 2484 
z
M 1172 3481 
Q 1172 3119 1398 2916 
Q 1625 2713 2034 2713 
Q 2441 2713 2670 2916 
Q 2900 3119 2900 3481 
Q 2900 3844 2670 4047 
Q 2441 4250 2034 4250 
Q 1625 4250 1398 4047 
Q 1172 3844 1172 3481 
z
" transform="scale(0.015625)"/>
       </defs>
       <use xlink:href="#DejaVuSans-30"/>
       <use xlink:href="#DejaVuSans-2e" x="63.623047"/>
       <use xlink:href="#DejaVuSans-38" x="95.410156"/>
      </g>
     </g>
    </g>
    <g id="text_10">
     <!-- PDF -->
     <g transform="translate(13.638053 138.635767) rotate(-90) scale(0.14 -0.14)">
      <defs>
       <path id="DejaVuSans-50" d="M 1259 4147 
L 1259 2394 
L 2053 2394 
Q 2494 2394 2734 2622 
Q 2975 2850 2975 3272 
Q 2975 3691 2734 3919 
Q 2494 4147 2053 4147 
L 1259 4147 
z
M 628 4666 
L 2053 4666 
Q 2838 4666 3239 4311 
Q 3641 3956 3641 3272 
Q 3641 2581 3239 2228 
Q 2838 1875 2053 1875 
L 1259 1875 
L 1259 0 
L 628 0 
L 628 4666 
z
" transform="scale(0.015625)"/>
       <path id="DejaVuSans-44" d="M 1259 4147 
L 1259 519 
L 2022 519 
Q 2988 519 3436 956 
Q 3884 1394 3884 2338 
Q 3884 3275 3436 3711 
Q 2988 4147 2022 4147 
L 1259 4147 
z
M 628 4666 
L 1925 4666 
Q 3281 4666 3915 4102 
Q 4550 3538 4550 2338 
Q 4550 1131 3912 565 
Q 3275 0 1925 0 
L 628 0 
L 628 4666 
z
" transform="scale(0.015625)"/>
       <path id="DejaVuSans-46" d="M 628 4666 
L 3309 4666 
L 3309 4134 
L 1259 4134 
L 1259 2759 
L 3109 2759 
L 3109 2228 
L 1259 2228 
L 1259 0 
L 628 0 
L 628 4666 
z
" transform="scale(0.015625)"/>
      </defs>
      <use xlink:href="#DejaVuSans-50"/>
      <use xlink:href="#DejaVuSans-44" x="60.302734"/>
      <use xlink:href="#DejaVuSans-46" x="137.304688"/>
     </g>
    </g>
   </g>
   <g id="line2d_9">
    <path d="M 61.142411 245.035389 
L 63.430981 244.783966 
L 65.719551 244.489663 
L 68.008121 244.146579 
L 70.296691 243.748275 
L 72.585261 243.287776 
L 74.873831 242.757584 
L 77.162401 242.149701 
L 79.450971 241.455675 
L 81.739541 240.666648 
L 84.028111 239.773439 
L 86.316681 238.766624 
L 88.605251 237.636659 
L 90.893821 236.374004 
L 93.182391 234.969273 
L 95.470961 233.413412 
L 97.759531 231.697877 
L 100.048101 229.814846 
L 102.336671 227.757432 
L 104.625241 225.519911 
L 106.913811 223.097958 
L 109.202381 220.488884 
L 111.490951 217.691862 
L 113.779521 214.708154 
L 116.068091 211.541316 
L 118.356661 208.197381 
L 120.645231 204.685017 
L 122.933801 201.015642 
L 125.222371 197.203509 
L 127.510941 193.265733 
L 129.799511 189.222271 
L 132.088081 185.095846 
L 134.37665 180.911812 
L 136.66522 176.697962 
L 138.95379 172.484268 
L 141.24236 168.302573 
L 143.53093 164.186221 
L 145.8195 160.16964 
L 148.10807 156.287883 
L 150.39664 152.57613 
L 152.68521 149.06917 
L 154.97378 145.80086 
L 157.26235 142.803591 
L 159.55092 140.10775 
L 161.83949 137.741214 
L 164.12806 135.728868 
L 166.41663 134.092168 
L 168.7052 132.848766 
L 170.99377 132.012186 
L 173.28234 131.591586 
L 175.57091 131.591586 
L 177.85948 132.012186 
L 180.14805 132.848766 
L 182.43662 134.092168 
L 184.72519 135.728868 
L 187.01376 137.741214 
L 189.30233 140.10775 
L 191.5909 142.803591 
L 193.87947 145.80086 
L 196.16804 149.06917 
L 198.45661 152.57613 
L 200.74518 156.287883 
L 203.03375 160.16964 
L 205.32232 164.186221 
L 207.61089 168.302573 
L 209.89946 172.484268 
L 212.18803 176.697962 
L 214.4766 180.911812 
L 216.765169 185.095846 
L 219.053739 189.222271 
L 221.342309 193.265733 
L 223.630879 197.203509 
L 225.919449 201.015642 
L 228.208019 204.685017 
L 230.496589 208.197381 
L 232.785159 211.541316 
L 235.073729 214.708154 
L 237.362299 217.691862 
L 239.650869 220.488884 
L 241.939439 223.097958 
L 244.228009 225.519911 
L 246.516579 227.757432 
L 248.805149 229.814846 
L 251.093719 231.697877 
L 253.382289 233.413412 
L 255.670859 234.969273 
L 257.959429 236.374004 
L 260.247999 237.636659 
L 262.536569 238.766624 
L 264.825139 239.773439 
L 267.113709 240.666648 
L 269.402279 241.455675 
L 271.690849 242.149701 
L 273.979419 242.757584 
L 276.267989 243.287776 
L 278.556559 243.748275 
L 280.845129 244.146579 
L 283.133699 244.489663 
L 285.422269 244.783966 
L 287.710839 245.035389 
" clip-path="url(#p179523908b)" style="fill: none; stroke: #2ca02c; stroke-width: 1.5; stroke-linecap: square"/>
   </g>
   <g id="patch_33">
    <path d="M 49.81399 246.310385 
L 49.81399 3.687398 
" style="fill: none; stroke: #000000; stroke-width: 0.8; stroke-linejoin: miter; stroke-linecap: square"/>
   </g>
   <g id="patch_34">
    <path d="M 299.03926 246.310385 
L 299.03926 3.687398 
" style="fill: none; stroke: #000000; stroke-width: 0.8; stroke-linejoin: miter; stroke-linecap: square"/>
   </g>
   <g id="patch_35">
    <path d="M 49.81399 246.310385 
L 299.03926 246.310385 
" style="fill: none; stroke: #000000; stroke-width: 0.8; stroke-linejoin: miter; stroke-linecap: square"/>
   </g>
   <g id="patch_36">
    <path d="M 49.81399 3.687398 
L 299.03926 3.687398 
" style="fill: none; stroke: #000000; stroke-width: 0.8; stroke-linejoin: miter; stroke-linecap: square"/>
   </g>
   <g id="legend_1">
    <g id="patch_37">
     <path d="M 59.61399 55.986148 
L 166.27649 55.986148 
Q 169.07649 55.986148 169.07649 53.186148 
L 169.07649 13.487398 
Q 169.07649 10.687398 166.27649 10.687398 
L 59.61399 10.687398 
Q 56.81399 10.687398 56.81399 13.487398 
L 56.81399 53.186148 
Q 56.81399 55.986148 59.61399 55.986148 
z
" style="fill: #ffffff; opacity: 0.8; stroke: #cccccc; stroke-linejoin: miter"/>
    </g>
    <g id="line2d_10">
     <path d="M 62.41399 22.025211 
L 76.41399 22.025211 
L 90.41399 22.025211 
" style="fill: none; stroke: #2ca02c; stroke-width: 1.5; stroke-linecap: square"/>
    </g>
    <g id="text_11">
     <!-- Prior -->
     <g transform="translate(101.61399 26.925211) scale(0.14 -0.14)">
      <defs>
       <path id="DejaVuSans-72" d="M 2631 2963 
Q 2534 3019 2420 3045 
Q 2306 3072 2169 3072 
Q 1681 3072 1420 2755 
Q 1159 2438 1159 1844 
L 1159 0 
L 581 0 
L 581 3500 
L 1159 3500 
L 1159 2956 
Q 1341 3275 1631 3429 
Q 1922 3584 2338 3584 
Q 2397 3584 2469 3576 
Q 2541 3569 2628 3553 
L 2631 2963 
z
" transform="scale(0.015625)"/>
       <path id="DejaVuSans-69" d="M 603 3500 
L 1178 3500 
L 1178 0 
L 603 0 
L 603 3500 
z
M 603 4863 
L 1178 4863 
L 1178 4134 
L 603 4134 
L 603 4863 
z
" transform="scale(0.015625)"/>
       <path id="DejaVuSans-6f" d="M 1959 3097 
Q 1497 3097 1228 2736 
Q 959 2375 959 1747 
Q 959 1119 1226 758 
Q 1494 397 1959 397 
Q 2419 397 2687 759 
Q 2956 1122 2956 1747 
Q 2956 2369 2687 2733 
Q 2419 3097 1959 3097 
z
M 1959 3584 
Q 2709 3584 3137 3096 
Q 3566 2609 3566 1747 
Q 3566 888 3137 398 
Q 2709 -91 1959 -91 
Q 1206 -91 779 398 
Q 353 888 353 1747 
Q 353 2609 779 3096 
Q 1206 3584 1959 3584 
z
" transform="scale(0.015625)"/>
      </defs>
      <use xlink:href="#DejaVuSans-50"/>
      <use xlink:href="#DejaVuSans-72" x="58.552734"/>
      <use xlink:href="#DejaVuSans-69" x="99.666016"/>
      <use xlink:href="#DejaVuSans-6f" x="127.449219"/>
      <use xlink:href="#DejaVuSans-72" x="188.630859"/>
     </g>
    </g>
    <g id="patch_38">
     <path d="M 62.41399 47.474586 
L 90.41399 47.474586 
L 90.41399 37.674586 
L 62.41399 37.674586 
z
" style="fill: #1f77b4"/>
    </g>
    <g id="text_12">
     <!-- Posterior -->
     <g transform="translate(101.61399 47.474586) scale(0.14 -0.14)">
      <defs>
       <path id="DejaVuSans-73" d="M 2834 3397 
L 2834 2853 
Q 2591 2978 2328 3040 
Q 2066 3103 1784 3103 
Q 1356 3103 1142 2972 
Q 928 2841 928 2578 
Q 928 2378 1081 2264 
Q 1234 2150 1697 2047 
L 1894 2003 
Q 2506 1872 2764 1633 
Q 3022 1394 3022 966 
Q 3022 478 2636 193 
Q 2250 -91 1575 -91 
Q 1294 -91 989 -36 
Q 684 19 347 128 
L 347 722 
Q 666 556 975 473 
Q 1284 391 1588 391 
Q 1994 391 2212 530 
Q 2431 669 2431 922 
Q 2431 1156 2273 1281 
Q 2116 1406 1581 1522 
L 1381 1569 
Q 847 1681 609 1914 
Q 372 2147 372 2553 
Q 372 3047 722 3315 
Q 1072 3584 1716 3584 
Q 2034 3584 2315 3537 
Q 2597 3491 2834 3397 
z
" transform="scale(0.015625)"/>
       <path id="DejaVuSans-74" d="M 1172 4494 
L 1172 3500 
L 2356 3500 
L 2356 3053 
L 1172 3053 
L 1172 1153 
Q 1172 725 1289 603 
Q 1406 481 1766 481 
L 2356 481 
L 2356 0 
L 1766 0 
Q 1100 0 847 248 
Q 594 497 594 1153 
L 594 3053 
L 172 3053 
L 172 3500 
L 594 3500 
L 594 4494 
L 1172 4494 
z
" transform="scale(0.015625)"/>
      </defs>
      <use xlink:href="#DejaVuSans-50"/>
      <use xlink:href="#DejaVuSans-6f" x="56.677734"/>
      <use xlink:href="#DejaVuSans-73" x="117.859375"/>
      <use xlink:href="#DejaVuSans-74" x="169.958984"/>
      <use xlink:href="#DejaVuSans-65" x="209.167969"/>
      <use xlink:href="#DejaVuSans-72" x="270.691406"/>
      <use xlink:href="#DejaVuSans-69" x="311.804688"/>
      <use xlink:href="#DejaVuSans-6f" x="339.587891"/>
      <use xlink:href="#DejaVuSans-72" x="400.769531"/>
     </g>
    </g>
   </g>
  </g>
  <g id="axes_2">
   <g id="patch_39">
    <path d="M 334.304115 246.310385 
L 583.529385 246.310385 
L 583.529385 3.687398 
L 334.304115 3.687398 
z
" style="fill: #ffffff"/>
   </g>
   <g id="patch_40">
    <path d="M 411.352938 246.310385 
L 416.194517 246.310385 
L 416.194517 245.907122 
L 411.352938 245.907122 
z
" clip-path="url(#p5f57db9d74)" style="fill: #1f77b4"/>
   </g>
   <g id="patch_41">
    <path d="M 416.73247 246.310385 
L 421.57405 246.310385 
L 421.57405 245.907122 
L 416.73247 245.907122 
z
" clip-path="url(#p5f57db9d74)" style="fill: #1f77b4"/>
   </g>
   <g id="patch_42">
    <path d="M 422.112003 246.310385 
L 426.953582 246.310385 
L 426.953582 245.907122 
L 422.112003 245.907122 
z
" clip-path="url(#p5f57db9d74)" style="fill: #1f77b4"/>
   </g>
   <g id="patch_43">
    <path d="M 427.491535 246.310385 
L 432.333115 246.310385 
L 432.333115 245.907122 
L 427.491535 245.907122 
z
" clip-path="url(#p5f57db9d74)" style="fill: #1f77b4"/>
   </g>
   <g id="patch_44">
    <path d="M 432.871068 246.310385 
L 437.712648 246.310385 
L 437.712648 245.907122 
L 432.871068 245.907122 
z
" clip-path="url(#p5f57db9d74)" style="fill: #1f77b4"/>
   </g>
   <g id="patch_45">
    <path d="M 438.250601 246.310385 
L 443.09218 246.310385 
L 443.09218 241.06797 
L 438.250601 241.06797 
z
" clip-path="url(#p5f57db9d74)" style="fill: #1f77b4"/>
   </g>
   <g id="patch_46">
    <path d="M 443.630133 246.310385 
L 448.471713 246.310385 
L 448.471713 236.228818 
L 443.630133 236.228818 
z
" clip-path="url(#p5f57db9d74)" style="fill: #1f77b4"/>
   </g>
   <g id="patch_47">
    <path d="M 449.009666 246.310385 
L 453.851245 246.310385 
L 453.851245 230.583141 
L 449.009666 230.583141 
z
" clip-path="url(#p5f57db9d74)" style="fill: #1f77b4"/>
   </g>
   <g id="patch_48">
    <path d="M 454.389199 246.310385 
L 459.230778 246.310385 
L 459.230778 222.114625 
L 454.389199 222.114625 
z
" clip-path="url(#p5f57db9d74)" style="fill: #1f77b4"/>
   </g>
   <g id="patch_49">
    <path d="M 459.768731 246.310385 
L 464.610311 246.310385 
L 464.610311 207.597168 
L 459.768731 207.597168 
z
" clip-path="url(#p5f57db9d74)" style="fill: #1f77b4"/>
   </g>
   <g id="patch_50">
    <path d="M 465.148264 246.310385 
L 469.989843 246.310385 
L 469.989843 180.578569 
L 465.148264 180.578569 
z
" clip-path="url(#p5f57db9d74)" style="fill: #1f77b4"/>
   </g>
   <g id="patch_51">
    <path d="M 470.527797 246.310385 
L 475.369376 246.310385 
L 475.369376 147.51103 
L 470.527797 147.51103 
z
" clip-path="url(#p5f57db9d74)" style="fill: #1f77b4"/>
   </g>
   <g id="patch_52">
    <path d="M 475.907329 246.310385 
L 480.748909 246.310385 
L 480.748909 113.233703 
L 475.907329 113.233703 
z
" clip-path="url(#p5f57db9d74)" style="fill: #1f77b4"/>
   </g>
   <g id="patch_53">
    <path d="M 481.286862 246.310385 
L 486.128441 246.310385 
L 486.128441 83.392265 
L 481.286862 83.392265 
z
" clip-path="url(#p5f57db9d74)" style="fill: #1f77b4"/>
   </g>
   <g id="patch_54">
    <path d="M 486.666395 246.310385 
L 491.507974 246.310385 
L 491.507974 45.485574 
L 486.666395 45.485574 
z
" clip-path="url(#p5f57db9d74)" style="fill: #1f77b4"/>
   </g>
   <g id="patch_55">
    <path d="M 492.045927 246.310385 
L 496.887507 246.310385 
L 496.887507 15.240874 
L 492.045927 15.240874 
z
" clip-path="url(#p5f57db9d74)" style="fill: #1f77b4"/>
   </g>
   <g id="patch_56">
    <path d="M 497.42546 246.310385 
L 502.267039 246.310385 
L 502.267039 23.70939 
L 497.42546 23.70939 
z
" clip-path="url(#p5f57db9d74)" style="fill: #1f77b4"/>
   </g>
   <g id="patch_57">
    <path d="M 502.804993 246.310385 
L 507.646572 246.310385 
L 507.646572 43.872524 
L 502.804993 43.872524 
z
" clip-path="url(#p5f57db9d74)" style="fill: #1f77b4"/>
   </g>
   <g id="patch_58">
    <path d="M 508.184525 246.310385 
L 513.026105 246.310385 
L 513.026105 91.054256 
L 508.184525 91.054256 
z
" clip-path="url(#p5f57db9d74)" style="fill: #1f77b4"/>
   </g>
   <g id="patch_59">
    <path d="M 513.564058 246.310385 
L 518.405637 246.310385 
L 518.405637 117.26633 
L 513.564058 117.26633 
z
" clip-path="url(#p5f57db9d74)" style="fill: #1f77b4"/>
   </g>
   <g id="patch_60">
    <path d="M 518.94359 246.310385 
L 523.78517 246.310385 
L 523.78517 120.089169 
L 518.94359 120.089169 
z
" clip-path="url(#p5f57db9d74)" style="fill: #1f77b4"/>
   </g>
   <g id="patch_61">
    <path d="M 524.323123 246.310385 
L 529.164702 246.310385 
L 529.164702 174.932892 
L 524.323123 174.932892 
z
" clip-path="url(#p5f57db9d74)" style="fill: #1f77b4"/>
   </g>
   <g id="patch_62">
    <path d="M 529.702656 246.310385 
L 534.544235 246.310385 
L 534.544235 195.096026 
L 529.702656 195.096026 
z
" clip-path="url(#p5f57db9d74)" style="fill: #1f77b4"/>
   </g>
   <g id="patch_63">
    <path d="M 535.082188 246.310385 
L 539.923768 246.310385 
L 539.923768 216.065685 
L 535.082188 216.065685 
z
" clip-path="url(#p5f57db9d74)" style="fill: #1f77b4"/>
   </g>
   <g id="patch_64">
    <path d="M 540.461721 246.310385 
L 545.3033 246.310385 
L 545.3033 230.179878 
L 540.461721 230.179878 
z
" clip-path="url(#p5f57db9d74)" style="fill: #1f77b4"/>
   </g>
   <g id="patch_65">
    <path d="M 545.841254 246.310385 
L 550.682833 246.310385 
L 550.682833 234.212505 
L 545.841254 234.212505 
z
" clip-path="url(#p5f57db9d74)" style="fill: #1f77b4"/>
   </g>
   <g id="patch_66">
    <path d="M 551.220786 246.310385 
L 556.062366 246.310385 
L 556.062366 239.051657 
L 551.220786 239.051657 
z
" clip-path="url(#p5f57db9d74)" style="fill: #1f77b4"/>
   </g>
   <g id="patch_67">
    <path d="M 556.600319 246.310385 
L 561.441898 246.310385 
L 561.441898 243.890809 
L 556.600319 243.890809 
z
" clip-path="url(#p5f57db9d74)" style="fill: #1f77b4"/>
   </g>
   <g id="patch_68">
    <path d="M 561.979852 246.310385 
L 566.821431 246.310385 
L 566.821431 245.100597 
L 561.979852 245.100597 
z
" clip-path="url(#p5f57db9d74)" style="fill: #1f77b4"/>
   </g>
   <g id="patch_69">
    <path d="M 567.359384 246.310385 
L 572.200964 246.310385 
L 572.200964 245.907122 
L 567.359384 245.907122 
z
" clip-path="url(#p5f57db9d74)" style="fill: #1f77b4"/>
   </g>
   <g id="matplotlib.axis_3">
    <g id="xtick_4">
     <g id="line2d_11">
      <g>
       <use xlink:href="#m10a4f952d9" x="382.093866" y="246.310385" style="stroke: #000000; stroke-width: 0.8"/>
      </g>
     </g>
     <g id="text_13">
      <!-- −2 -->
      <g transform="translate(371.774335 263.948197) scale(0.14 -0.14)">
       <use xlink:href="#DejaVuSans-2212"/>
       <use xlink:href="#DejaVuSans-32" x="83.789062"/>
      </g>
     </g>
    </g>
    <g id="xtick_5">
     <g id="line2d_12">
      <g>
       <use xlink:href="#m10a4f952d9" x="455.016525" y="246.310385" style="stroke: #000000; stroke-width: 0.8"/>
      </g>
     </g>
     <g id="text_14">
      <!-- 0 -->
      <g transform="translate(450.562775 263.948197) scale(0.14 -0.14)">
       <use xlink:href="#DejaVuSans-30"/>
      </g>
     </g>
    </g>
    <g id="xtick_6">
     <g id="line2d_13">
      <g>
       <use xlink:href="#m10a4f952d9" x="527.939184" y="246.310385" style="stroke: #000000; stroke-width: 0.8"/>
      </g>
     </g>
     <g id="text_15">
      <!-- 2 -->
      <g transform="translate(523.485434 263.948197) scale(0.14 -0.14)">
       <use xlink:href="#DejaVuSans-32"/>
      </g>
     </g>
    </g>
    <g id="text_16">
     <!-- $b_{\alpha,2}$ [deg] -->
     <g transform="translate(424.47675 281.49976) scale(0.14 -0.14)">
      <use xlink:href="#DejaVuSans-Oblique-62" transform="translate(0 0.015625)"/>
      <use xlink:href="#DejaVuSans-Oblique-3b1" transform="translate(63.476562 -16.390625) scale(0.7)"/>
      <use xlink:href="#DejaVuSans-2c" transform="translate(109.619141 -16.390625) scale(0.7)"/>
      <use xlink:href="#DejaVuSans-32" transform="translate(145.507812 -16.390625) scale(0.7)"/>
      <use xlink:href="#DejaVuSans-20" transform="translate(192.77832 0.015625)"/>
      <use xlink:href="#DejaVuSans-5b" transform="translate(224.56543 0.015625)"/>
      <use xlink:href="#DejaVuSans-64" transform="translate(263.579102 0.015625)"/>
      <use xlink:href="#DejaVuSans-65" transform="translate(327.055664 0.015625)"/>
      <use xlink:href="#DejaVuSans-67" transform="translate(388.579102 0.015625)"/>
      <use xlink:href="#DejaVuSans-5d" transform="translate(452.055664 0.015625)"/>
     </g>
    </g>
   </g>
   <g id="matplotlib.axis_4">
    <g id="ytick_6">
     <g id="line2d_14">
      <g>
       <use xlink:href="#mb6f2f17a5b" x="334.304115" y="246.310385" style="stroke: #000000; stroke-width: 0.8"/>
      </g>
     </g>
     <g id="text_17">
      <!-- 0.0 -->
      <g transform="translate(305.03974 251.629291) scale(0.14 -0.14)">
       <use xlink:href="#DejaVuSans-30"/>
       <use xlink:href="#DejaVuSans-2e" x="63.623047"/>
       <use xlink:href="#DejaVuSans-30" x="95.410156"/>
      </g>
     </g>
    </g>
    <g id="ytick_7">
     <g id="line2d_15">
      <g>
       <use xlink:href="#mb6f2f17a5b" x="334.304115" y="186.8127" style="stroke: #000000; stroke-width: 0.8"/>
      </g>
     </g>
     <g id="text_18">
      <!-- 0.2 -->
      <g transform="translate(305.03974 192.131606) scale(0.14 -0.14)">
       <use xlink:href="#DejaVuSans-30"/>
       <use xlink:href="#DejaVuSans-2e" x="63.623047"/>
       <use xlink:href="#DejaVuSans-32" x="95.410156"/>
      </g>
     </g>
    </g>
    <g id="ytick_8">
     <g id="line2d_16">
      <g>
       <use xlink:href="#mb6f2f17a5b" x="334.304115" y="127.315015" style="stroke: #000000; stroke-width: 0.8"/>
      </g>
     </g>
     <g id="text_19">
      <!-- 0.4 -->
      <g transform="translate(305.03974 132.633921) scale(0.14 -0.14)">
       <use xlink:href="#DejaVuSans-30"/>
       <use xlink:href="#DejaVuSans-2e" x="63.623047"/>
       <use xlink:href="#DejaVuSans-34" x="95.410156"/>
      </g>
     </g>
    </g>
    <g id="ytick_9">
     <g id="line2d_17">
      <g>
       <use xlink:href="#mb6f2f17a5b" x="334.304115" y="67.81733" style="stroke: #000000; stroke-width: 0.8"/>
      </g>
     </g>
     <g id="text_20">
      <!-- 0.6 -->
      <g transform="translate(305.03974 73.136236) scale(0.14 -0.14)">
       <use xlink:href="#DejaVuSans-30"/>
       <use xlink:href="#DejaVuSans-2e" x="63.623047"/>
       <use xlink:href="#DejaVuSans-36" x="95.410156"/>
      </g>
     </g>
    </g>
    <g id="ytick_10">
     <g id="line2d_18">
      <g>
       <use xlink:href="#mb6f2f17a5b" x="334.304115" y="8.319644" style="stroke: #000000; stroke-width: 0.8"/>
      </g>
     </g>
     <g id="text_21">
      <!-- 0.8 -->
      <g transform="translate(305.03974 13.638551) scale(0.14 -0.14)">
       <use xlink:href="#DejaVuSans-30"/>
       <use xlink:href="#DejaVuSans-2e" x="63.623047"/>
       <use xlink:href="#DejaVuSans-38" x="95.410156"/>
      </g>
     </g>
    </g>
   </g>
   <g id="line2d_19">
    <path d="M 345.632536 244.991961 
L 347.842314 244.731974 
L 350.052091 244.427647 
L 352.261869 244.072878 
L 354.471647 243.661007 
L 356.681424 243.184823 
L 358.891202 242.636572 
L 361.100979 242.007984 
L 363.310757 241.290318 
L 365.520534 240.474417 
L 367.730312 239.550784 
L 369.940089 238.509676 
L 372.149867 237.341224 
L 374.359645 236.035561 
L 376.569422 234.582984 
L 378.7792 232.974129 
L 380.988977 231.200161 
L 383.198755 229.252992 
L 385.408532 227.1255 
L 387.61831 224.811767 
L 389.828087 222.307321 
L 392.037865 219.609379 
L 394.247643 216.717088 
L 396.45742 213.631752 
L 398.667198 210.357048 
L 400.876975 206.899215 
L 403.086753 203.267216 
L 405.29653 199.472859 
L 407.506308 195.530881 
L 409.716085 191.458981 
L 411.925863 187.277794 
L 414.135641 183.010819 
L 416.345418 178.684273 
L 418.555196 174.326895 
L 420.764973 169.969679 
L 422.974751 165.645551 
L 425.184528 161.388992 
L 427.394306 157.235602 
L 429.604083 153.221629 
L 431.813861 149.38345 
L 434.023638 145.757039 
L 436.233416 142.377408 
L 438.443194 139.278048 
L 440.652971 136.490385 
L 442.862749 134.043243 
L 445.072526 131.962354 
L 447.282304 130.269907 
L 449.492081 128.984153 
L 451.701859 128.119078 
L 453.911636 127.684152 
L 456.121414 127.684152 
L 458.331192 128.119078 
L 460.540969 128.984153 
L 462.750747 130.269907 
L 464.960524 131.962354 
L 467.170302 134.043243 
L 469.380079 136.490385 
L 471.589857 139.278048 
L 473.799634 142.377408 
L 476.009412 145.757039 
L 478.21919 149.38345 
L 480.428967 153.221629 
L 482.638745 157.235602 
L 484.848522 161.388992 
L 487.0583 165.645551 
L 489.268077 169.969679 
L 491.477855 174.326895 
L 493.687632 178.684273 
L 495.89741 183.010819 
L 498.107188 187.277794 
L 500.316965 191.458981 
L 502.526743 195.530881 
L 504.73652 199.472859 
L 506.946298 203.267216 
L 509.156075 206.899215 
L 511.365853 210.357048 
L 513.57563 213.631752 
L 515.785408 216.717088 
L 517.995186 219.609379 
L 520.204963 222.307321 
L 522.414741 224.811767 
L 524.624518 227.1255 
L 526.834296 229.252992 
L 529.044073 231.200161 
L 531.253851 232.974129 
L 533.463628 234.582984 
L 535.673406 236.035561 
L 537.883183 237.341224 
L 540.092961 238.509676 
L 542.302739 239.550784 
L 544.512516 240.474417 
L 546.722294 241.290318 
L 548.932071 242.007984 
L 551.141849 242.636572 
L 553.351626 243.184823 
L 555.561404 243.661007 
L 557.771181 244.072878 
L 559.980959 244.427647 
L 562.190737 244.731974 
L 564.400514 244.991961 
" clip-path="url(#p5f57db9d74)" style="fill: none; stroke: #2ca02c; stroke-width: 1.5; stroke-linecap: square"/>
   </g>
   <g id="patch_70">
    <path d="M 334.304115 246.310385 
L 334.304115 3.687398 
" style="fill: none; stroke: #000000; stroke-width: 0.8; stroke-linejoin: miter; stroke-linecap: square"/>
   </g>
   <g id="patch_71">
    <path d="M 583.529385 246.310385 
L 583.529385 3.687398 
" style="fill: none; stroke: #000000; stroke-width: 0.8; stroke-linejoin: miter; stroke-linecap: square"/>
   </g>
   <g id="patch_72">
    <path d="M 334.304115 246.310385 
L 583.529385 246.310385 
" style="fill: none; stroke: #000000; stroke-width: 0.8; stroke-linejoin: miter; stroke-linecap: square"/>
   </g>
   <g id="patch_73">
    <path d="M 334.304115 3.687398 
L 583.529385 3.687398 
" style="fill: none; stroke: #000000; stroke-width: 0.8; stroke-linejoin: miter; stroke-linecap: square"/>
   </g>
  </g>
  <g id="axes_3">
   <g id="patch_74">
    <path d="M 618.79424 246.310385 
L 868.01951 246.310385 
L 868.01951 3.687398 
L 618.79424 3.687398 
z
" style="fill: #ffffff"/>
   </g>
   <g id="patch_75">
    <path d="M 707.956869 246.310385 
L 712.433819 246.310385 
L 712.433819 245.859957 
L 707.956869 245.859957 
z
" clip-path="url(#p966c0d5d8b)" style="fill: #1f77b4"/>
   </g>
   <g id="patch_76">
    <path d="M 712.931258 246.310385 
L 717.408207 246.310385 
L 717.408207 244.959101 
L 712.931258 244.959101 
z
" clip-path="url(#p966c0d5d8b)" style="fill: #1f77b4"/>
   </g>
   <g id="patch_77">
    <path d="M 717.905646 246.310385 
L 722.382596 246.310385 
L 722.382596 243.607818 
L 717.905646 243.607818 
z
" clip-path="url(#p966c0d5d8b)" style="fill: #1f77b4"/>
   </g>
   <g id="patch_78">
    <path d="M 722.880035 246.310385 
L 727.356985 246.310385 
L 727.356985 241.355678 
L 722.880035 241.355678 
z
" clip-path="url(#p966c0d5d8b)" style="fill: #1f77b4"/>
   </g>
   <g id="patch_79">
    <path d="M 727.854423 246.310385 
L 732.331373 246.310385 
L 732.331373 240.454822 
L 727.854423 240.454822 
z
" clip-path="url(#p966c0d5d8b)" style="fill: #1f77b4"/>
   </g>
   <g id="patch_80">
    <path d="M 732.828812 246.310385 
L 737.305762 246.310385 
L 737.305762 230.995836 
L 732.828812 230.995836 
z
" clip-path="url(#p966c0d5d8b)" style="fill: #1f77b4"/>
   </g>
   <g id="patch_81">
    <path d="M 737.803201 246.310385 
L 742.28015 246.310385 
L 742.28015 218.834283 
L 737.803201 218.834283 
z
" clip-path="url(#p966c0d5d8b)" style="fill: #1f77b4"/>
   </g>
   <g id="patch_82">
    <path d="M 742.777589 246.310385 
L 747.254539 246.310385 
L 747.254539 208.024014 
L 742.777589 208.024014 
z
" clip-path="url(#p966c0d5d8b)" style="fill: #1f77b4"/>
   </g>
   <g id="patch_83">
    <path d="M 747.751978 246.310385 
L 752.228928 246.310385 
L 752.228928 181.899196 
L 747.751978 181.899196 
z
" clip-path="url(#p966c0d5d8b)" style="fill: #1f77b4"/>
   </g>
   <g id="patch_84">
    <path d="M 752.726367 246.310385 
L 757.203316 246.310385 
L 757.203316 160.729085 
L 752.726367 160.729085 
z
" clip-path="url(#p966c0d5d8b)" style="fill: #1f77b4"/>
   </g>
   <g id="patch_85">
    <path d="M 757.700755 246.310385 
L 762.177705 246.310385 
L 762.177705 126.946992 
L 757.700755 126.946992 
z
" clip-path="url(#p966c0d5d8b)" style="fill: #1f77b4"/>
   </g>
   <g id="patch_86">
    <path d="M 762.675144 246.310385 
L 767.152094 246.310385 
L 767.152094 103.074314 
L 762.675144 103.074314 
z
" clip-path="url(#p966c0d5d8b)" style="fill: #1f77b4"/>
   </g>
   <g id="patch_87">
    <path d="M 767.649532 246.310385 
L 772.126482 246.310385 
L 772.126482 75.147784 
L 767.649532 75.147784 
z
" clip-path="url(#p966c0d5d8b)" style="fill: #1f77b4"/>
   </g>
   <g id="patch_88">
    <path d="M 772.623921 246.310385 
L 777.100871 246.310385 
L 777.100871 49.923822 
L 772.623921 49.923822 
z
" clip-path="url(#p966c0d5d8b)" style="fill: #1f77b4"/>
   </g>
   <g id="patch_89">
    <path d="M 777.59831 246.310385 
L 782.075259 246.310385 
L 782.075259 20.195581 
L 777.59831 20.195581 
z
" clip-path="url(#p966c0d5d8b)" style="fill: #1f77b4"/>
   </g>
   <g id="patch_90">
    <path d="M 782.572698 246.310385 
L 787.049648 246.310385 
L 787.049648 15.240874 
L 782.572698 15.240874 
z
" clip-path="url(#p966c0d5d8b)" style="fill: #1f77b4"/>
   </g>
   <g id="patch_91">
    <path d="M 787.547087 246.310385 
L 792.024037 246.310385 
L 792.024037 22.898148 
L 787.547087 22.898148 
z
" clip-path="url(#p966c0d5d8b)" style="fill: #1f77b4"/>
   </g>
   <g id="patch_92">
    <path d="M 792.521475 246.310385 
L 796.998425 246.310385 
L 796.998425 79.201635 
L 792.521475 79.201635 
z
" clip-path="url(#p966c0d5d8b)" style="fill: #1f77b4"/>
   </g>
   <g id="patch_93">
    <path d="M 797.495864 246.310385 
L 801.972814 246.310385 
L 801.972814 87.759765 
L 797.495864 87.759765 
z
" clip-path="url(#p966c0d5d8b)" style="fill: #1f77b4"/>
   </g>
   <g id="patch_94">
    <path d="M 802.470253 246.310385 
L 806.947202 246.310385 
L 806.947202 133.703411 
L 802.470253 133.703411 
z
" clip-path="url(#p966c0d5d8b)" style="fill: #1f77b4"/>
   </g>
   <g id="patch_95">
    <path d="M 807.444641 246.310385 
L 811.921591 246.310385 
L 811.921591 155.32395 
L 807.444641 155.32395 
z
" clip-path="url(#p966c0d5d8b)" style="fill: #1f77b4"/>
   </g>
   <g id="patch_96">
    <path d="M 812.41903 246.310385 
L 816.89598 246.310385 
L 816.89598 183.250479 
L 812.41903 183.250479 
z
" clip-path="url(#p966c0d5d8b)" style="fill: #1f77b4"/>
   </g>
   <g id="patch_97">
    <path d="M 817.393419 246.310385 
L 821.870368 246.310385 
L 821.870368 204.420591 
L 817.393419 204.420591 
z
" clip-path="url(#p966c0d5d8b)" style="fill: #1f77b4"/>
   </g>
   <g id="patch_98">
    <path d="M 822.367807 246.310385 
L 826.844757 246.310385 
L 826.844757 217.483 
L 822.367807 217.483 
z
" clip-path="url(#p966c0d5d8b)" style="fill: #1f77b4"/>
   </g>
   <g id="patch_99">
    <path d="M 827.342196 246.310385 
L 831.819146 246.310385 
L 831.819146 231.896692 
L 827.342196 231.896692 
z
" clip-path="url(#p966c0d5d8b)" style="fill: #1f77b4"/>
   </g>
   <g id="patch_100">
    <path d="M 832.316584 246.310385 
L 836.793534 246.310385 
L 836.793534 236.851399 
L 832.316584 236.851399 
z
" clip-path="url(#p966c0d5d8b)" style="fill: #1f77b4"/>
   </g>
   <g id="patch_101">
    <path d="M 837.290973 246.310385 
L 841.767923 246.310385 
L 841.767923 240.90525 
L 837.290973 240.90525 
z
" clip-path="url(#p966c0d5d8b)" style="fill: #1f77b4"/>
   </g>
   <g id="patch_102">
    <path d="M 842.265362 246.310385 
L 846.742311 246.310385 
L 846.742311 244.959101 
L 842.265362 244.959101 
z
" clip-path="url(#p966c0d5d8b)" style="fill: #1f77b4"/>
   </g>
   <g id="patch_103">
    <path d="M 847.23975 246.310385 
L 851.7167 246.310385 
L 851.7167 245.859957 
L 847.23975 245.859957 
z
" clip-path="url(#p966c0d5d8b)" style="fill: #1f77b4"/>
   </g>
   <g id="patch_104">
    <path d="M 852.214139 246.310385 
L 856.691089 246.310385 
L 856.691089 245.409529 
L 852.214139 245.409529 
z
" clip-path="url(#p966c0d5d8b)" style="fill: #1f77b4"/>
   </g>
   <g id="matplotlib.axis_5">
    <g id="xtick_7">
     <g id="line2d_20">
      <g>
       <use xlink:href="#m10a4f952d9" x="665.167187" y="246.310385" style="stroke: #000000; stroke-width: 0.8"/>
      </g>
     </g>
     <g id="text_22">
      <!-- −2 -->
      <g transform="translate(654.847656 263.948197) scale(0.14 -0.14)">
       <use xlink:href="#DejaVuSans-2212"/>
       <use xlink:href="#DejaVuSans-32" x="83.789062"/>
      </g>
     </g>
    </g>
    <g id="xtick_8">
     <g id="line2d_21">
      <g>
       <use xlink:href="#m10a4f952d9" x="735.256239" y="246.310385" style="stroke: #000000; stroke-width: 0.8"/>
      </g>
     </g>
     <g id="text_23">
      <!-- 0 -->
      <g transform="translate(730.802489 263.948197) scale(0.14 -0.14)">
       <use xlink:href="#DejaVuSans-30"/>
      </g>
     </g>
    </g>
    <g id="xtick_9">
     <g id="line2d_22">
      <g>
       <use xlink:href="#m10a4f952d9" x="805.345291" y="246.310385" style="stroke: #000000; stroke-width: 0.8"/>
      </g>
     </g>
     <g id="text_24">
      <!-- 2 -->
      <g transform="translate(800.891541 263.948197) scale(0.14 -0.14)">
       <use xlink:href="#DejaVuSans-32"/>
      </g>
     </g>
    </g>
    <g id="text_25">
     <!-- $b_{\alpha,3}$ [deg] -->
     <g transform="translate(708.966875 281.49976) scale(0.14 -0.14)">
      <defs>
       <path id="DejaVuSans-33" d="M 2597 2516 
Q 3050 2419 3304 2112 
Q 3559 1806 3559 1356 
Q 3559 666 3084 287 
Q 2609 -91 1734 -91 
Q 1441 -91 1130 -33 
Q 819 25 488 141 
L 488 750 
Q 750 597 1062 519 
Q 1375 441 1716 441 
Q 2309 441 2620 675 
Q 2931 909 2931 1356 
Q 2931 1769 2642 2001 
Q 2353 2234 1838 2234 
L 1294 2234 
L 1294 2753 
L 1863 2753 
Q 2328 2753 2575 2939 
Q 2822 3125 2822 3475 
Q 2822 3834 2567 4026 
Q 2313 4219 1838 4219 
Q 1578 4219 1281 4162 
Q 984 4106 628 3988 
L 628 4550 
Q 988 4650 1302 4700 
Q 1616 4750 1894 4750 
Q 2613 4750 3031 4423 
Q 3450 4097 3450 3541 
Q 3450 3153 3228 2886 
Q 3006 2619 2597 2516 
z
" transform="scale(0.015625)"/>
      </defs>
      <use xlink:href="#DejaVuSans-Oblique-62" transform="translate(0 0.015625)"/>
      <use xlink:href="#DejaVuSans-Oblique-3b1" transform="translate(63.476562 -16.390625) scale(0.7)"/>
      <use xlink:href="#DejaVuSans-2c" transform="translate(109.619141 -16.390625) scale(0.7)"/>
      <use xlink:href="#DejaVuSans-33" transform="translate(145.507812 -16.390625) scale(0.7)"/>
      <use xlink:href="#DejaVuSans-20" transform="translate(192.77832 0.015625)"/>
      <use xlink:href="#DejaVuSans-5b" transform="translate(224.56543 0.015625)"/>
      <use xlink:href="#DejaVuSans-64" transform="translate(263.579102 0.015625)"/>
      <use xlink:href="#DejaVuSans-65" transform="translate(327.055664 0.015625)"/>
      <use xlink:href="#DejaVuSans-67" transform="translate(388.579102 0.015625)"/>
      <use xlink:href="#DejaVuSans-5d" transform="translate(452.055664 0.015625)"/>
     </g>
    </g>
   </g>
   <g id="matplotlib.axis_6">
    <g id="ytick_11">
     <g id="line2d_23">
      <g>
       <use xlink:href="#mb6f2f17a5b" x="618.79424" y="246.310385" style="stroke: #000000; stroke-width: 0.8"/>
      </g>
     </g>
     <g id="text_26">
      <!-- 0.0 -->
      <g transform="translate(589.529865 251.629291) scale(0.14 -0.14)">
       <use xlink:href="#DejaVuSans-30"/>
       <use xlink:href="#DejaVuSans-2e" x="63.623047"/>
       <use xlink:href="#DejaVuSans-30" x="95.410156"/>
      </g>
     </g>
    </g>
    <g id="ytick_12">
     <g id="line2d_24">
      <g>
       <use xlink:href="#mb6f2f17a5b" x="618.79424" y="214.342434" style="stroke: #000000; stroke-width: 0.8"/>
      </g>
     </g>
     <g id="text_27">
      <!-- 0.1 -->
      <g transform="translate(589.529865 219.66134) scale(0.14 -0.14)">
       <use xlink:href="#DejaVuSans-30"/>
       <use xlink:href="#DejaVuSans-2e" x="63.623047"/>
       <use xlink:href="#DejaVuSans-31" x="95.410156"/>
      </g>
     </g>
    </g>
    <g id="ytick_13">
     <g id="line2d_25">
      <g>
       <use xlink:href="#mb6f2f17a5b" x="618.79424" y="182.374482" style="stroke: #000000; stroke-width: 0.8"/>
      </g>
     </g>
     <g id="text_28">
      <!-- 0.2 -->
      <g transform="translate(589.529865 187.693388) scale(0.14 -0.14)">
       <use xlink:href="#DejaVuSans-30"/>
       <use xlink:href="#DejaVuSans-2e" x="63.623047"/>
       <use xlink:href="#DejaVuSans-32" x="95.410156"/>
      </g>
     </g>
    </g>
    <g id="ytick_14">
     <g id="line2d_26">
      <g>
       <use xlink:href="#mb6f2f17a5b" x="618.79424" y="150.406531" style="stroke: #000000; stroke-width: 0.8"/>
      </g>
     </g>
     <g id="text_29">
      <!-- 0.3 -->
      <g transform="translate(589.529865 155.725437) scale(0.14 -0.14)">
       <use xlink:href="#DejaVuSans-30"/>
       <use xlink:href="#DejaVuSans-2e" x="63.623047"/>
       <use xlink:href="#DejaVuSans-33" x="95.410156"/>
      </g>
     </g>
    </g>
    <g id="ytick_15">
     <g id="line2d_27">
      <g>
       <use xlink:href="#mb6f2f17a5b" x="618.79424" y="118.438579" style="stroke: #000000; stroke-width: 0.8"/>
      </g>
     </g>
     <g id="text_30">
      <!-- 0.4 -->
      <g transform="translate(589.529865 123.757485) scale(0.14 -0.14)">
       <use xlink:href="#DejaVuSans-30"/>
       <use xlink:href="#DejaVuSans-2e" x="63.623047"/>
       <use xlink:href="#DejaVuSans-34" x="95.410156"/>
      </g>
     </g>
    </g>
    <g id="ytick_16">
     <g id="line2d_28">
      <g>
       <use xlink:href="#mb6f2f17a5b" x="618.79424" y="86.470628" style="stroke: #000000; stroke-width: 0.8"/>
      </g>
     </g>
     <g id="text_31">
      <!-- 0.5 -->
      <g transform="translate(589.529865 91.789534) scale(0.14 -0.14)">
       <defs>
        <path id="DejaVuSans-35" d="M 691 4666 
L 3169 4666 
L 3169 4134 
L 1269 4134 
L 1269 2991 
Q 1406 3038 1543 3061 
Q 1681 3084 1819 3084 
Q 2600 3084 3056 2656 
Q 3513 2228 3513 1497 
Q 3513 744 3044 326 
Q 2575 -91 1722 -91 
Q 1428 -91 1123 -41 
Q 819 9 494 109 
L 494 744 
Q 775 591 1075 516 
Q 1375 441 1709 441 
Q 2250 441 2565 725 
Q 2881 1009 2881 1497 
Q 2881 1984 2565 2268 
Q 2250 2553 1709 2553 
Q 1456 2553 1204 2497 
Q 953 2441 691 2322 
L 691 4666 
z
" transform="scale(0.015625)"/>
       </defs>
       <use xlink:href="#DejaVuSans-30"/>
       <use xlink:href="#DejaVuSans-2e" x="63.623047"/>
       <use xlink:href="#DejaVuSans-35" x="95.410156"/>
      </g>
     </g>
    </g>
    <g id="ytick_17">
     <g id="line2d_29">
      <g>
       <use xlink:href="#mb6f2f17a5b" x="618.79424" y="54.502676" style="stroke: #000000; stroke-width: 0.8"/>
      </g>
     </g>
     <g id="text_32">
      <!-- 0.6 -->
      <g transform="translate(589.529865 59.821582) scale(0.14 -0.14)">
       <use xlink:href="#DejaVuSans-30"/>
       <use xlink:href="#DejaVuSans-2e" x="63.623047"/>
       <use xlink:href="#DejaVuSans-36" x="95.410156"/>
      </g>
     </g>
    </g>
    <g id="ytick_18">
     <g id="line2d_30">
      <g>
       <use xlink:href="#mb6f2f17a5b" x="618.79424" y="22.534725" style="stroke: #000000; stroke-width: 0.8"/>
      </g>
     </g>
     <g id="text_33">
      <!-- 0.7 -->
      <g transform="translate(589.529865 27.853631) scale(0.14 -0.14)">
       <defs>
        <path id="DejaVuSans-37" d="M 525 4666 
L 3525 4666 
L 3525 4397 
L 1831 0 
L 1172 0 
L 2766 4134 
L 525 4134 
L 525 4666 
z
" transform="scale(0.015625)"/>
       </defs>
       <use xlink:href="#DejaVuSans-30"/>
       <use xlink:href="#DejaVuSans-2e" x="63.623047"/>
       <use xlink:href="#DejaVuSans-37" x="95.410156"/>
      </g>
     </g>
    </g>
   </g>
   <g id="line2d_31">
    <path d="M 630.122661 244.893614 
L 632.246572 244.614233 
L 634.370483 244.287205 
L 636.494393 243.905971 
L 638.618304 243.463378 
L 640.742215 242.951673 
L 642.866125 242.362524 
L 644.990036 241.687047 
L 647.113947 240.915847 
L 649.237857 240.039084 
L 651.361768 239.046553 
L 653.485679 237.927784 
L 655.609589 236.672171 
L 657.7335 235.269112 
L 659.857411 233.708181 
L 661.981321 231.979313 
L 664.105232 230.073017 
L 666.229143 227.980599 
L 668.353053 225.694407 
L 670.476964 223.208082 
L 672.600875 220.516817 
L 674.724785 217.617623 
L 676.848696 214.509582 
L 678.972606 211.194096 
L 681.096517 207.675116 
L 683.220428 203.959347 
L 685.344338 200.056419 
L 687.468249 195.979023 
L 689.59216 191.742995 
L 691.71607 187.367351 
L 693.839981 182.87427 
L 695.963892 178.289 
L 698.087802 173.639717 
L 700.211713 168.957301 
L 702.335624 164.275059 
L 704.459534 159.628374 
L 706.583445 155.054298 
L 708.707356 150.591087 
L 710.831266 146.277692 
L 712.955177 142.153205 
L 715.079088 138.256282 
L 717.202998 134.624548 
L 719.326909 131.293993 
L 721.45082 128.298384 
L 723.57473 125.668698 
L 725.698641 123.432585 
L 727.822552 121.613891 
L 729.946462 120.232226 
L 732.070373 119.302622 
L 734.194284 118.835252 
L 736.318194 118.835252 
L 738.442105 119.302622 
L 740.566016 120.232226 
L 742.689926 121.613891 
L 744.813837 123.432585 
L 746.937748 125.668698 
L 749.061658 128.298384 
L 751.185569 131.293993 
L 753.309479 134.624548 
L 755.43339 138.256282 
L 757.557301 142.153205 
L 759.681211 146.277692 
L 761.805122 150.591087 
L 763.929033 155.054298 
L 766.052943 159.628374 
L 768.176854 164.275059 
L 770.300765 168.957301 
L 772.424675 173.639717 
L 774.548586 178.289 
L 776.672497 182.87427 
L 778.796407 187.367351 
L 780.920318 191.742995 
L 783.044229 195.979023 
L 785.168139 200.056419 
L 787.29205 203.959347 
L 789.415961 207.675116 
L 791.539871 211.194096 
L 793.663782 214.509582 
L 795.787693 217.617623 
L 797.911603 220.516817 
L 800.035514 223.208082 
L 802.159425 225.694407 
L 804.283335 227.980599 
L 806.407246 230.073017 
L 808.531157 231.979313 
L 810.655067 233.708181 
L 812.778978 235.269112 
L 814.902889 236.672171 
L 817.026799 237.927784 
L 819.15071 239.046553 
L 821.274621 240.039084 
L 823.398531 240.915847 
L 825.522442 241.687047 
L 827.646352 242.362524 
L 829.770263 242.951673 
L 831.894174 243.463378 
L 834.018084 243.905971 
L 836.141995 244.287205 
L 838.265906 244.614233 
L 840.389816 244.893614 
" clip-path="url(#p966c0d5d8b)" style="fill: none; stroke: #2ca02c; stroke-width: 1.5; stroke-linecap: square"/>
   </g>
   <g id="patch_105">
    <path d="M 618.79424 246.310385 
L 618.79424 3.687398 
" style="fill: none; stroke: #000000; stroke-width: 0.8; stroke-linejoin: miter; stroke-linecap: square"/>
   </g>
   <g id="patch_106">
    <path d="M 868.01951 246.310385 
L 868.01951 3.687398 
" style="fill: none; stroke: #000000; stroke-width: 0.8; stroke-linejoin: miter; stroke-linecap: square"/>
   </g>
   <g id="patch_107">
    <path d="M 618.79424 246.310385 
L 868.01951 246.310385 
" style="fill: none; stroke: #000000; stroke-width: 0.8; stroke-linejoin: miter; stroke-linecap: square"/>
   </g>
   <g id="patch_108">
    <path d="M 618.79424 3.687398 
L 868.01951 3.687398 
" style="fill: none; stroke: #000000; stroke-width: 0.8; stroke-linejoin: miter; stroke-linecap: square"/>
   </g>
  </g>
  <g id="axes_4">
   <g id="patch_109">
    <path d="M 903.284365 246.310385 
L 1152.509635 246.310385 
L 1152.509635 3.687398 
L 903.284365 3.687398 
z
" style="fill: #ffffff"/>
   </g>
   <g id="patch_110">
    <path d="M 914.612786 246.310385 
L 918.126319 246.310385 
L 918.126319 245.810235 
L 914.612786 245.810235 
z
" clip-path="url(#p36f9277983)" style="fill: #1f77b4"/>
   </g>
   <g id="patch_111">
    <path d="M 918.516711 246.310385 
L 922.030244 246.310385 
L 922.030244 245.310084 
L 918.516711 245.310084 
z
" clip-path="url(#p36f9277983)" style="fill: #1f77b4"/>
   </g>
   <g id="patch_112">
    <path d="M 922.420636 246.310385 
L 925.934169 246.310385 
L 925.934169 245.310084 
L 922.420636 245.310084 
z
" clip-path="url(#p36f9277983)" style="fill: #1f77b4"/>
   </g>
   <g id="patch_113">
    <path d="M 926.324561 246.310385 
L 929.838093 246.310385 
L 929.838093 242.309181 
L 926.324561 242.309181 
z
" clip-path="url(#p36f9277983)" style="fill: #1f77b4"/>
   </g>
   <g id="patch_114">
    <path d="M 930.228486 246.310385 
L 933.742018 246.310385 
L 933.742018 240.30858 
L 930.228486 240.30858 
z
" clip-path="url(#p36f9277983)" style="fill: #1f77b4"/>
   </g>
   <g id="patch_115">
    <path d="M 934.132411 246.310385 
L 937.645943 246.310385 
L 937.645943 232.806323 
L 934.132411 232.806323 
z
" clip-path="url(#p36f9277983)" style="fill: #1f77b4"/>
   </g>
   <g id="patch_116">
    <path d="M 938.036336 246.310385 
L 941.549868 246.310385 
L 941.549868 222.303163 
L 938.036336 222.303163 
z
" clip-path="url(#p36f9277983)" style="fill: #1f77b4"/>
   </g>
   <g id="patch_117">
    <path d="M 941.940261 246.310385 
L 945.453793 246.310385 
L 945.453793 213.800605 
L 941.940261 213.800605 
z
" clip-path="url(#p36f9277983)" style="fill: #1f77b4"/>
   </g>
   <g id="patch_118">
    <path d="M 945.844185 246.310385 
L 949.357718 246.310385 
L 949.357718 192.794286 
L 945.844185 192.794286 
z
" clip-path="url(#p36f9277983)" style="fill: #1f77b4"/>
   </g>
   <g id="patch_119">
    <path d="M 949.74811 246.310385 
L 953.261643 246.310385 
L 953.261643 165.786161 
L 949.74811 165.786161 
z
" clip-path="url(#p36f9277983)" style="fill: #1f77b4"/>
   </g>
   <g id="patch_120">
    <path d="M 953.652035 246.310385 
L 957.165568 246.310385 
L 957.165568 147.280594 
L 953.652035 147.280594 
z
" clip-path="url(#p36f9277983)" style="fill: #1f77b4"/>
   </g>
   <g id="patch_121">
    <path d="M 957.55596 246.310385 
L 961.069492 246.310385 
L 961.069492 107.268558 
L 957.55596 107.268558 
z
" clip-path="url(#p36f9277983)" style="fill: #1f77b4"/>
   </g>
   <g id="patch_122">
    <path d="M 961.459885 246.310385 
L 964.973417 246.310385 
L 964.973417 91.263743 
L 961.459885 91.263743 
z
" clip-path="url(#p36f9277983)" style="fill: #1f77b4"/>
   </g>
   <g id="patch_123">
    <path d="M 965.36381 246.310385 
L 968.877342 246.310385 
L 968.877342 38.747945 
L 965.36381 38.747945 
z
" clip-path="url(#p36f9277983)" style="fill: #1f77b4"/>
   </g>
   <g id="patch_124">
    <path d="M 969.267735 246.310385 
L 972.781267 246.310385 
L 972.781267 38.247795 
L 969.267735 38.247795 
z
" clip-path="url(#p36f9277983)" style="fill: #1f77b4"/>
   </g>
   <g id="patch_125">
    <path d="M 973.17166 246.310385 
L 976.685192 246.310385 
L 976.685192 15.240874 
L 973.17166 15.240874 
z
" clip-path="url(#p36f9277983)" style="fill: #1f77b4"/>
   </g>
   <g id="patch_126">
    <path d="M 977.075584 246.310385 
L 980.589117 246.310385 
L 980.589117 21.74283 
L 977.075584 21.74283 
z
" clip-path="url(#p36f9277983)" style="fill: #1f77b4"/>
   </g>
   <g id="patch_127">
    <path d="M 980.979509 246.310385 
L 984.493042 246.310385 
L 984.493042 36.747343 
L 980.979509 36.747343 
z
" clip-path="url(#p36f9277983)" style="fill: #1f77b4"/>
   </g>
   <g id="patch_128">
    <path d="M 984.883434 246.310385 
L 988.396967 246.310385 
L 988.396967 53.252309 
L 984.883434 53.252309 
z
" clip-path="url(#p36f9277983)" style="fill: #1f77b4"/>
   </g>
   <g id="patch_129">
    <path d="M 988.787359 246.310385 
L 992.300891 246.310385 
L 992.300891 90.263442 
L 988.787359 90.263442 
z
" clip-path="url(#p36f9277983)" style="fill: #1f77b4"/>
   </g>
   <g id="patch_130">
    <path d="M 992.691284 246.310385 
L 996.204816 246.310385 
L 996.204816 119.272169 
L 992.691284 119.272169 
z
" clip-path="url(#p36f9277983)" style="fill: #1f77b4"/>
   </g>
   <g id="patch_131">
    <path d="M 996.595209 246.310385 
L 1000.108741 246.310385 
L 1000.108741 133.276382 
L 996.595209 133.276382 
z
" clip-path="url(#p36f9277983)" style="fill: #1f77b4"/>
   </g>
   <g id="patch_132">
    <path d="M 1000.499134 246.310385 
L 1004.012666 246.310385 
L 1004.012666 173.288418 
L 1000.499134 173.288418 
z
" clip-path="url(#p36f9277983)" style="fill: #1f77b4"/>
   </g>
   <g id="patch_133">
    <path d="M 1004.403059 246.310385 
L 1007.916591 246.310385 
L 1007.916591 198.796092 
L 1004.403059 198.796092 
z
" clip-path="url(#p36f9277983)" style="fill: #1f77b4"/>
   </g>
   <g id="patch_134">
    <path d="M 1008.306983 246.310385 
L 1011.820516 246.310385 
L 1011.820516 208.29895 
L 1008.306983 208.29895 
z
" clip-path="url(#p36f9277983)" style="fill: #1f77b4"/>
   </g>
   <g id="patch_135">
    <path d="M 1012.210908 246.310385 
L 1015.724441 246.310385 
L 1015.724441 220.302561 
L 1012.210908 220.302561 
z
" clip-path="url(#p36f9277983)" style="fill: #1f77b4"/>
   </g>
   <g id="patch_136">
    <path d="M 1016.114833 246.310385 
L 1019.628366 246.310385 
L 1019.628366 229.305269 
L 1016.114833 229.305269 
z
" clip-path="url(#p36f9277983)" style="fill: #1f77b4"/>
   </g>
   <g id="patch_137">
    <path d="M 1020.018758 246.310385 
L 1023.53229 246.310385 
L 1023.53229 236.807526 
L 1020.018758 236.807526 
z
" clip-path="url(#p36f9277983)" style="fill: #1f77b4"/>
   </g>
   <g id="patch_138">
    <path d="M 1023.922683 246.310385 
L 1027.436215 246.310385 
L 1027.436215 240.80873 
L 1023.922683 240.80873 
z
" clip-path="url(#p36f9277983)" style="fill: #1f77b4"/>
   </g>
   <g id="patch_139">
    <path d="M 1027.826608 246.310385 
L 1031.34014 246.310385 
L 1031.34014 241.809031 
L 1027.826608 241.809031 
z
" clip-path="url(#p36f9277983)" style="fill: #1f77b4"/>
   </g>
   <g id="matplotlib.axis_7">
    <g id="xtick_10">
     <g id="line2d_32">
      <g>
       <use xlink:href="#m10a4f952d9" x="960.236475" y="246.310385" style="stroke: #000000; stroke-width: 0.8"/>
      </g>
     </g>
     <g id="text_34">
      <!-- −2 -->
      <g transform="translate(949.916944 263.948197) scale(0.14 -0.14)">
       <use xlink:href="#DejaVuSans-2212"/>
       <use xlink:href="#DejaVuSans-32" x="83.789062"/>
      </g>
     </g>
    </g>
    <g id="xtick_11">
     <g id="line2d_33">
      <g>
       <use xlink:href="#m10a4f952d9" x="1032.614371" y="246.310385" style="stroke: #000000; stroke-width: 0.8"/>
      </g>
     </g>
     <g id="text_35">
      <!-- 0 -->
      <g transform="translate(1028.160621 263.948197) scale(0.14 -0.14)">
       <use xlink:href="#DejaVuSans-30"/>
      </g>
     </g>
    </g>
    <g id="xtick_12">
     <g id="line2d_34">
      <g>
       <use xlink:href="#m10a4f952d9" x="1104.992266" y="246.310385" style="stroke: #000000; stroke-width: 0.8"/>
      </g>
     </g>
     <g id="text_36">
      <!-- 2 -->
      <g transform="translate(1100.538516 263.948197) scale(0.14 -0.14)">
       <use xlink:href="#DejaVuSans-32"/>
      </g>
     </g>
    </g>
    <g id="text_37">
     <!-- $b_{\alpha,4}$ [deg] -->
     <g transform="translate(993.457 281.49976) scale(0.14 -0.14)">
      <use xlink:href="#DejaVuSans-Oblique-62" transform="translate(0 0.015625)"/>
      <use xlink:href="#DejaVuSans-Oblique-3b1" transform="translate(63.476562 -16.390625) scale(0.7)"/>
      <use xlink:href="#DejaVuSans-2c" transform="translate(109.619141 -16.390625) scale(0.7)"/>
      <use xlink:href="#DejaVuSans-34" transform="translate(145.507812 -16.390625) scale(0.7)"/>
      <use xlink:href="#DejaVuSans-20" transform="translate(192.77832 0.015625)"/>
      <use xlink:href="#DejaVuSans-5b" transform="translate(224.56543 0.015625)"/>
      <use xlink:href="#DejaVuSans-64" transform="translate(263.579102 0.015625)"/>
      <use xlink:href="#DejaVuSans-65" transform="translate(327.055664 0.015625)"/>
      <use xlink:href="#DejaVuSans-67" transform="translate(388.579102 0.015625)"/>
      <use xlink:href="#DejaVuSans-5d" transform="translate(452.055664 0.015625)"/>
     </g>
    </g>
   </g>
   <g id="matplotlib.axis_8">
    <g id="ytick_19">
     <g id="line2d_35">
      <g>
       <use xlink:href="#mb6f2f17a5b" x="903.284365" y="246.310385" style="stroke: #000000; stroke-width: 0.8"/>
      </g>
     </g>
     <g id="text_38">
      <!-- 0.0 -->
      <g transform="translate(874.01999 251.629291) scale(0.14 -0.14)">
       <use xlink:href="#DejaVuSans-30"/>
       <use xlink:href="#DejaVuSans-2e" x="63.623047"/>
       <use xlink:href="#DejaVuSans-30" x="95.410156"/>
      </g>
     </g>
    </g>
    <g id="ytick_20">
     <g id="line2d_36">
      <g>
       <use xlink:href="#mb6f2f17a5b" x="903.284365" y="192.356072" style="stroke: #000000; stroke-width: 0.8"/>
      </g>
     </g>
     <g id="text_39">
      <!-- 0.2 -->
      <g transform="translate(874.01999 197.674978) scale(0.14 -0.14)">
       <use xlink:href="#DejaVuSans-30"/>
       <use xlink:href="#DejaVuSans-2e" x="63.623047"/>
       <use xlink:href="#DejaVuSans-32" x="95.410156"/>
      </g>
     </g>
    </g>
    <g id="ytick_21">
     <g id="line2d_37">
      <g>
       <use xlink:href="#mb6f2f17a5b" x="903.284365" y="138.401759" style="stroke: #000000; stroke-width: 0.8"/>
      </g>
     </g>
     <g id="text_40">
      <!-- 0.4 -->
      <g transform="translate(874.01999 143.720665) scale(0.14 -0.14)">
       <use xlink:href="#DejaVuSans-30"/>
       <use xlink:href="#DejaVuSans-2e" x="63.623047"/>
       <use xlink:href="#DejaVuSans-34" x="95.410156"/>
      </g>
     </g>
    </g>
    <g id="ytick_22">
     <g id="line2d_38">
      <g>
       <use xlink:href="#mb6f2f17a5b" x="903.284365" y="84.447446" style="stroke: #000000; stroke-width: 0.8"/>
      </g>
     </g>
     <g id="text_41">
      <!-- 0.6 -->
      <g transform="translate(874.01999 89.766352) scale(0.14 -0.14)">
       <use xlink:href="#DejaVuSans-30"/>
       <use xlink:href="#DejaVuSans-2e" x="63.623047"/>
       <use xlink:href="#DejaVuSans-36" x="95.410156"/>
      </g>
     </g>
    </g>
    <g id="ytick_23">
     <g id="line2d_39">
      <g>
       <use xlink:href="#mb6f2f17a5b" x="903.284365" y="30.493132" style="stroke: #000000; stroke-width: 0.8"/>
      </g>
     </g>
     <g id="text_42">
      <!-- 0.8 -->
      <g transform="translate(874.01999 35.812039) scale(0.14 -0.14)">
       <use xlink:href="#DejaVuSans-30"/>
       <use xlink:href="#DejaVuSans-2e" x="63.623047"/>
       <use xlink:href="#DejaVuSans-38" x="95.410156"/>
      </g>
     </g>
    </g>
   </g>
   <g id="line2d_40">
    <path d="M 924.047528 245.114798 
L 926.240797 244.879034 
L 928.434067 244.603061 
L 930.627336 244.281345 
L 932.820606 243.907849 
L 935.013876 243.47603 
L 937.207145 242.978859 
L 939.400415 242.408837 
L 941.593684 241.758036 
L 943.786954 241.018152 
L 945.980223 240.180573 
L 948.173493 239.236465 
L 950.366762 238.176876 
L 952.560032 236.992861 
L 954.753302 235.675621 
L 956.946571 234.216661 
L 959.139841 232.607974 
L 961.33311 230.842222 
L 963.52638 228.912947 
L 965.719649 226.814783 
L 967.912919 224.543675 
L 970.106188 222.097099 
L 972.299458 219.474282 
L 974.492728 216.676405 
L 976.685997 213.706804 
L 978.879267 210.571136 
L 981.072536 207.277528 
L 983.265806 203.83669 
L 985.459075 200.261984 
L 987.652345 196.569461 
L 989.845614 192.777834 
L 992.038884 188.90841 
L 994.232154 184.984967 
L 996.425423 181.033564 
L 998.618693 177.082307 
L 1000.811962 173.161057 
L 1003.005232 169.301079 
L 1005.198501 165.534659 
L 1007.391771 161.894665 
L 1009.58504 158.414088 
L 1011.77831 155.125548 
L 1013.97158 152.060795 
L 1016.164849 149.250202 
L 1018.358119 146.722264 
L 1020.551388 144.503121 
L 1022.744658 142.616107 
L 1024.937927 141.081345 
L 1027.131197 139.915384 
L 1029.324466 139.130908 
L 1031.517736 138.736504 
L 1033.711006 138.736504 
L 1035.904275 139.130908 
L 1038.097545 139.915384 
L 1040.290814 141.081345 
L 1042.484084 142.616107 
L 1044.677353 144.503121 
L 1046.870623 146.722264 
L 1049.063892 149.250202 
L 1051.257162 152.060795 
L 1053.450431 155.125548 
L 1055.643701 158.414088 
L 1057.836971 161.894665 
L 1060.03024 165.534659 
L 1062.22351 169.301079 
L 1064.416779 173.161057 
L 1066.610049 177.082307 
L 1068.803318 181.033564 
L 1070.996588 184.984967 
L 1073.189857 188.90841 
L 1075.383127 192.777834 
L 1077.576397 196.569461 
L 1079.769666 200.261984 
L 1081.962936 203.83669 
L 1084.156205 207.277528 
L 1086.349475 210.571136 
L 1088.542744 213.706804 
L 1090.736014 216.676405 
L 1092.929283 219.474282 
L 1095.122553 222.097099 
L 1097.315823 224.543675 
L 1099.509092 226.814783 
L 1101.702362 228.912947 
L 1103.895631 230.842222 
L 1106.088901 232.607974 
L 1108.28217 234.216661 
L 1110.47544 235.675621 
L 1112.668709 236.992861 
L 1114.861979 238.176876 
L 1117.055249 239.236465 
L 1119.248518 240.180573 
L 1121.441788 241.018152 
L 1123.635057 241.758036 
L 1125.828327 242.408837 
L 1128.021596 242.978859 
L 1130.214866 243.47603 
L 1132.408135 243.907849 
L 1134.601405 244.281345 
L 1136.794675 244.603061 
L 1138.987944 244.879034 
L 1141.181214 245.114798 
" clip-path="url(#p36f9277983)" style="fill: none; stroke: #2ca02c; stroke-width: 1.5; stroke-linecap: square"/>
   </g>
   <g id="patch_140">
    <path d="M 903.284365 246.310385 
L 903.284365 3.687398 
" style="fill: none; stroke: #000000; stroke-width: 0.8; stroke-linejoin: miter; stroke-linecap: square"/>
   </g>
   <g id="patch_141">
    <path d="M 1152.509635 246.310385 
L 1152.509635 3.687398 
" style="fill: none; stroke: #000000; stroke-width: 0.8; stroke-linejoin: miter; stroke-linecap: square"/>
   </g>
   <g id="patch_142">
    <path d="M 903.284365 246.310385 
L 1152.509635 246.310385 
" style="fill: none; stroke: #000000; stroke-width: 0.8; stroke-linejoin: miter; stroke-linecap: square"/>
   </g>
   <g id="patch_143">
    <path d="M 903.284365 3.687398 
L 1152.509635 3.687398 
" style="fill: none; stroke: #000000; stroke-width: 0.8; stroke-linejoin: miter; stroke-linecap: square"/>
   </g>
  </g>
  <g id="axes_5">
   <g id="patch_144">
    <path d="M 1187.77449 246.310385 
L 1436.99976 246.310385 
L 1436.99976 3.687398 
L 1187.77449 3.687398 
z
" style="fill: #ffffff"/>
   </g>
   <g id="patch_145">
    <path d="M 1239.044849 246.310385 
L 1242.832081 246.310385 
L 1242.832081 245.345585 
L 1239.044849 245.345585 
z
" clip-path="url(#p446c3a6e22)" style="fill: #1f77b4"/>
   </g>
   <g id="patch_146">
    <path d="M 1243.252885 246.310385 
L 1247.040117 246.310385 
L 1247.040117 245.827985 
L 1243.252885 245.827985 
z
" clip-path="url(#p446c3a6e22)" style="fill: #1f77b4"/>
   </g>
   <g id="patch_147">
    <path d="M 1247.46092 246.310385 
L 1251.248152 246.310385 
L 1251.248152 245.345585 
L 1247.46092 245.345585 
z
" clip-path="url(#p446c3a6e22)" style="fill: #1f77b4"/>
   </g>
   <g id="patch_148">
    <path d="M 1251.668956 246.310385 
L 1255.456188 246.310385 
L 1255.456188 239.556788 
L 1251.668956 239.556788 
z
" clip-path="url(#p446c3a6e22)" style="fill: #1f77b4"/>
   </g>
   <g id="patch_149">
    <path d="M 1255.876991 246.310385 
L 1259.664223 246.310385 
L 1259.664223 234.25039 
L 1255.876991 234.25039 
z
" clip-path="url(#p446c3a6e22)" style="fill: #1f77b4"/>
   </g>
   <g id="patch_150">
    <path d="M 1260.085027 246.310385 
L 1263.872259 246.310385 
L 1263.872259 235.215189 
L 1260.085027 235.215189 
z
" clip-path="url(#p446c3a6e22)" style="fill: #1f77b4"/>
   </g>
   <g id="patch_151">
    <path d="M 1264.293062 246.310385 
L 1268.080294 246.310385 
L 1268.080294 218.813596 
L 1264.293062 218.813596 
z
" clip-path="url(#p446c3a6e22)" style="fill: #1f77b4"/>
   </g>
   <g id="patch_152">
    <path d="M 1268.501098 246.310385 
L 1272.28833 246.310385 
L 1272.28833 206.7536 
L 1268.501098 206.7536 
z
" clip-path="url(#p446c3a6e22)" style="fill: #1f77b4"/>
   </g>
   <g id="patch_153">
    <path d="M 1272.709133 246.310385 
L 1276.496365 246.310385 
L 1276.496365 189.869607 
L 1272.709133 189.869607 
z
" clip-path="url(#p446c3a6e22)" style="fill: #1f77b4"/>
   </g>
   <g id="patch_154">
    <path d="M 1276.917169 246.310385 
L 1280.704401 246.310385 
L 1280.704401 159.960818 
L 1276.917169 159.960818 
z
" clip-path="url(#p446c3a6e22)" style="fill: #1f77b4"/>
   </g>
   <g id="patch_155">
    <path d="M 1281.125204 246.310385 
L 1284.912436 246.310385 
L 1284.912436 126.675231 
L 1281.125204 126.675231 
z
" clip-path="url(#p446c3a6e22)" style="fill: #1f77b4"/>
   </g>
   <g id="patch_156">
    <path d="M 1285.33324 246.310385 
L 1289.120472 246.310385 
L 1289.120472 104.00244 
L 1285.33324 104.00244 
z
" clip-path="url(#p446c3a6e22)" style="fill: #1f77b4"/>
   </g>
   <g id="patch_157">
    <path d="M 1289.541275 246.310385 
L 1293.328507 246.310385 
L 1293.328507 89.530445 
L 1289.541275 89.530445 
z
" clip-path="url(#p446c3a6e22)" style="fill: #1f77b4"/>
   </g>
   <g id="patch_158">
    <path d="M 1293.749311 246.310385 
L 1297.536543 246.310385 
L 1297.536543 47.079262 
L 1293.749311 47.079262 
z
" clip-path="url(#p446c3a6e22)" style="fill: #1f77b4"/>
   </g>
   <g id="patch_159">
    <path d="M 1297.957346 246.310385 
L 1301.744578 246.310385 
L 1301.744578 19.582472 
L 1297.957346 19.582472 
z
" clip-path="url(#p446c3a6e22)" style="fill: #1f77b4"/>
   </g>
   <g id="patch_160">
    <path d="M 1302.165382 246.310385 
L 1305.952614 246.310385 
L 1305.952614 15.240874 
L 1302.165382 15.240874 
z
" clip-path="url(#p446c3a6e22)" style="fill: #1f77b4"/>
   </g>
   <g id="patch_161">
    <path d="M 1306.373417 246.310385 
L 1310.160649 246.310385 
L 1310.160649 20.064872 
L 1306.373417 20.064872 
z
" clip-path="url(#p446c3a6e22)" style="fill: #1f77b4"/>
   </g>
   <g id="patch_162">
    <path d="M 1310.581453 246.310385 
L 1314.368685 246.310385 
L 1314.368685 61.068856 
L 1310.581453 61.068856 
z
" clip-path="url(#p446c3a6e22)" style="fill: #1f77b4"/>
   </g>
   <g id="patch_163">
    <path d="M 1314.789488 246.310385 
L 1318.57672 246.310385 
L 1318.57672 67.822454 
L 1314.789488 67.822454 
z
" clip-path="url(#p446c3a6e22)" style="fill: #1f77b4"/>
   </g>
   <g id="patch_164">
    <path d="M 1318.997524 246.310385 
L 1322.784756 246.310385 
L 1322.784756 101.108041 
L 1318.997524 101.108041 
z
" clip-path="url(#p446c3a6e22)" style="fill: #1f77b4"/>
   </g>
   <g id="patch_165">
    <path d="M 1323.205559 246.310385 
L 1326.992791 246.310385 
L 1326.992791 133.911228 
L 1323.205559 133.911228 
z
" clip-path="url(#p446c3a6e22)" style="fill: #1f77b4"/>
   </g>
   <g id="patch_166">
    <path d="M 1327.413595 246.310385 
L 1331.200827 246.310385 
L 1331.200827 163.820017 
L 1327.413595 163.820017 
z
" clip-path="url(#p446c3a6e22)" style="fill: #1f77b4"/>
   </g>
   <g id="patch_167">
    <path d="M 1331.62163 246.310385 
L 1335.408862 246.310385 
L 1335.408862 187.457608 
L 1331.62163 187.457608 
z
" clip-path="url(#p446c3a6e22)" style="fill: #1f77b4"/>
   </g>
   <g id="patch_168">
    <path d="M 1335.829666 246.310385 
L 1339.616898 246.310385 
L 1339.616898 205.306401 
L 1335.829666 205.306401 
z
" clip-path="url(#p446c3a6e22)" style="fill: #1f77b4"/>
   </g>
   <g id="patch_169">
    <path d="M 1340.037701 246.310385 
L 1343.824933 246.310385 
L 1343.824933 221.707994 
L 1340.037701 221.707994 
z
" clip-path="url(#p446c3a6e22)" style="fill: #1f77b4"/>
   </g>
   <g id="patch_170">
    <path d="M 1344.245737 246.310385 
L 1348.032969 246.310385 
L 1348.032969 230.873591 
L 1344.245737 230.873591 
z
" clip-path="url(#p446c3a6e22)" style="fill: #1f77b4"/>
   </g>
   <g id="patch_171">
    <path d="M 1348.453772 246.310385 
L 1352.241004 246.310385 
L 1352.241004 235.697589 
L 1348.453772 235.697589 
z
" clip-path="url(#p446c3a6e22)" style="fill: #1f77b4"/>
   </g>
   <g id="patch_172">
    <path d="M 1352.661808 246.310385 
L 1356.44904 246.310385 
L 1356.44904 238.109588 
L 1352.661808 238.109588 
z
" clip-path="url(#p446c3a6e22)" style="fill: #1f77b4"/>
   </g>
   <g id="patch_173">
    <path d="M 1356.869843 246.310385 
L 1360.657075 246.310385 
L 1360.657075 242.451186 
L 1356.869843 242.451186 
z
" clip-path="url(#p446c3a6e22)" style="fill: #1f77b4"/>
   </g>
   <g id="patch_174">
    <path d="M 1361.077879 246.310385 
L 1364.865111 246.310385 
L 1364.865111 244.863186 
L 1361.077879 244.863186 
z
" clip-path="url(#p446c3a6e22)" style="fill: #1f77b4"/>
   </g>
   <g id="matplotlib.axis_9">
    <g id="xtick_13">
     <g id="line2d_41">
      <g>
       <use xlink:href="#m10a4f952d9" x="1236.864316" y="246.310385" style="stroke: #000000; stroke-width: 0.8"/>
      </g>
     </g>
     <g id="text_43">
      <!-- −2 -->
      <g transform="translate(1226.544785 263.948197) scale(0.14 -0.14)">
       <use xlink:href="#DejaVuSans-2212"/>
       <use xlink:href="#DejaVuSans-32" x="83.789062"/>
      </g>
     </g>
    </g>
    <g id="xtick_14">
     <g id="line2d_42">
      <g>
       <use xlink:href="#m10a4f952d9" x="1312.387125" y="246.310385" style="stroke: #000000; stroke-width: 0.8"/>
      </g>
     </g>
     <g id="text_44">
      <!-- 0 -->
      <g transform="translate(1307.933375 263.948197) scale(0.14 -0.14)">
       <use xlink:href="#DejaVuSans-30"/>
      </g>
     </g>
    </g>
    <g id="xtick_15">
     <g id="line2d_43">
      <g>
       <use xlink:href="#m10a4f952d9" x="1387.909934" y="246.310385" style="stroke: #000000; stroke-width: 0.8"/>
      </g>
     </g>
     <g id="text_45">
      <!-- 2 -->
      <g transform="translate(1383.456184 263.948197) scale(0.14 -0.14)">
       <use xlink:href="#DejaVuSans-32"/>
      </g>
     </g>
    </g>
    <g id="text_46">
     <!-- $b_{\alpha,5}$ [deg] -->
     <g transform="translate(1277.947125 281.49976) scale(0.14 -0.14)">
      <use xlink:href="#DejaVuSans-Oblique-62" transform="translate(0 0.015625)"/>
      <use xlink:href="#DejaVuSans-Oblique-3b1" transform="translate(63.476562 -16.390625) scale(0.7)"/>
      <use xlink:href="#DejaVuSans-2c" transform="translate(109.619141 -16.390625) scale(0.7)"/>
      <use xlink:href="#DejaVuSans-35" transform="translate(145.507812 -16.390625) scale(0.7)"/>
      <use xlink:href="#DejaVuSans-20" transform="translate(192.77832 0.015625)"/>
      <use xlink:href="#DejaVuSans-5b" transform="translate(224.56543 0.015625)"/>
      <use xlink:href="#DejaVuSans-64" transform="translate(263.579102 0.015625)"/>
      <use xlink:href="#DejaVuSans-65" transform="translate(327.055664 0.015625)"/>
      <use xlink:href="#DejaVuSans-67" transform="translate(388.579102 0.015625)"/>
      <use xlink:href="#DejaVuSans-5d" transform="translate(452.055664 0.015625)"/>
     </g>
    </g>
   </g>
   <g id="matplotlib.axis_10">
    <g id="ytick_24">
     <g id="line2d_44">
      <g>
       <use xlink:href="#mb6f2f17a5b" x="1187.77449" y="246.310385" style="stroke: #000000; stroke-width: 0.8"/>
      </g>
     </g>
     <g id="text_47">
      <!-- 0.0 -->
      <g transform="translate(1158.510115 251.629291) scale(0.14 -0.14)">
       <use xlink:href="#DejaVuSans-30"/>
       <use xlink:href="#DejaVuSans-2e" x="63.623047"/>
       <use xlink:href="#DejaVuSans-30" x="95.410156"/>
      </g>
     </g>
    </g>
    <g id="ytick_25">
     <g id="line2d_45">
      <g>
       <use xlink:href="#mb6f2f17a5b" x="1187.77449" y="192.552969" style="stroke: #000000; stroke-width: 0.8"/>
      </g>
     </g>
     <g id="text_48">
      <!-- 0.2 -->
      <g transform="translate(1158.510115 197.871875) scale(0.14 -0.14)">
       <use xlink:href="#DejaVuSans-30"/>
       <use xlink:href="#DejaVuSans-2e" x="63.623047"/>
       <use xlink:href="#DejaVuSans-32" x="95.410156"/>
      </g>
     </g>
    </g>
    <g id="ytick_26">
     <g id="line2d_46">
      <g>
       <use xlink:href="#mb6f2f17a5b" x="1187.77449" y="138.795552" style="stroke: #000000; stroke-width: 0.8"/>
      </g>
     </g>
     <g id="text_49">
      <!-- 0.4 -->
      <g transform="translate(1158.510115 144.114459) scale(0.14 -0.14)">
       <use xlink:href="#DejaVuSans-30"/>
       <use xlink:href="#DejaVuSans-2e" x="63.623047"/>
       <use xlink:href="#DejaVuSans-34" x="95.410156"/>
      </g>
     </g>
    </g>
    <g id="ytick_27">
     <g id="line2d_47">
      <g>
       <use xlink:href="#mb6f2f17a5b" x="1187.77449" y="85.038136" style="stroke: #000000; stroke-width: 0.8"/>
      </g>
     </g>
     <g id="text_50">
      <!-- 0.6 -->
      <g transform="translate(1158.510115 90.357042) scale(0.14 -0.14)">
       <use xlink:href="#DejaVuSans-30"/>
       <use xlink:href="#DejaVuSans-2e" x="63.623047"/>
       <use xlink:href="#DejaVuSans-36" x="95.410156"/>
      </g>
     </g>
    </g>
    <g id="ytick_28">
     <g id="line2d_48">
      <g>
       <use xlink:href="#mb6f2f17a5b" x="1187.77449" y="31.28072" style="stroke: #000000; stroke-width: 0.8"/>
      </g>
     </g>
     <g id="text_51">
      <!-- 0.8 -->
      <g transform="translate(1158.510115 36.599626) scale(0.14 -0.14)">
       <use xlink:href="#DejaVuSans-30"/>
       <use xlink:href="#DejaVuSans-2e" x="63.623047"/>
       <use xlink:href="#DejaVuSans-38" x="95.410156"/>
      </g>
     </g>
    </g>
   </g>
   <g id="line2d_49">
    <path d="M 1199.102911 245.119161 
L 1201.391481 244.884258 
L 1203.680051 244.609292 
L 1205.968621 244.28875 
L 1208.257191 243.916616 
L 1210.545761 243.486374 
L 1212.834331 242.991017 
L 1215.122901 242.423075 
L 1217.411471 241.774649 
L 1219.700041 241.037465 
L 1221.988611 240.202943 
L 1224.277181 239.26228 
L 1226.565751 238.206558 
L 1228.854321 237.026864 
L 1231.142891 235.71443 
L 1233.431461 234.260795 
L 1235.720031 232.657978 
L 1238.008601 230.89867 
L 1240.297171 228.976436 
L 1242.585741 226.885929 
L 1244.874311 224.623109 
L 1247.162881 222.185461 
L 1249.451451 219.572215 
L 1251.740021 216.784549 
L 1254.028591 213.825785 
L 1256.317161 210.70156 
L 1258.605731 207.419972 
L 1260.894301 203.99169 
L 1263.182871 200.43003 
L 1265.471441 196.750982 
L 1267.760011 192.973191 
L 1270.048581 189.117889 
L 1272.33715 185.208763 
L 1274.62572 181.27178 
L 1276.91429 177.334943 
L 1279.20286 173.428002 
L 1281.49143 169.582111 
L 1283.78 165.829436 
L 1286.06857 162.202726 
L 1288.35714 158.73485 
L 1290.64571 155.458311 
L 1292.93428 152.404743 
L 1295.22285 149.604406 
L 1297.51142 147.085693 
L 1299.79999 144.874649 
L 1302.08856 142.994521 
L 1304.37713 141.46536 
L 1306.6657 140.303654 
L 1308.95427 139.522041 
L 1311.24284 139.129076 
L 1313.53141 139.129076 
L 1315.81998 139.522041 
L 1318.10855 140.303654 
L 1320.39712 141.46536 
L 1322.68569 142.994521 
L 1324.97426 144.874649 
L 1327.26283 147.085693 
L 1329.5514 149.604406 
L 1331.83997 152.404743 
L 1334.12854 155.458311 
L 1336.41711 158.73485 
L 1338.70568 162.202726 
L 1340.99425 165.829436 
L 1343.28282 169.582111 
L 1345.57139 173.428002 
L 1347.85996 177.334943 
L 1350.14853 181.27178 
L 1352.4371 185.208763 
L 1354.725669 189.117889 
L 1357.014239 192.973191 
L 1359.302809 196.750982 
L 1361.591379 200.43003 
L 1363.879949 203.99169 
L 1366.168519 207.419972 
L 1368.457089 210.70156 
L 1370.745659 213.825785 
L 1373.034229 216.784549 
L 1375.322799 219.572215 
L 1377.611369 222.185461 
L 1379.899939 224.623109 
L 1382.188509 226.885929 
L 1384.477079 228.976436 
L 1386.765649 230.89867 
L 1389.054219 232.657978 
L 1391.342789 234.260795 
L 1393.631359 235.71443 
L 1395.919929 237.026864 
L 1398.208499 238.206558 
L 1400.497069 239.26228 
L 1402.785639 240.202943 
L 1405.074209 241.037465 
L 1407.362779 241.774649 
L 1409.651349 242.423075 
L 1411.939919 242.991017 
L 1414.228489 243.486374 
L 1416.517059 243.916616 
L 1418.805629 244.28875 
L 1421.094199 244.609292 
L 1423.382769 244.884258 
L 1425.671339 245.119161 
" clip-path="url(#p446c3a6e22)" style="fill: none; stroke: #2ca02c; stroke-width: 1.5; stroke-linecap: square"/>
   </g>
   <g id="patch_175">
    <path d="M 1187.77449 246.310385 
L 1187.77449 3.687398 
" style="fill: none; stroke: #000000; stroke-width: 0.8; stroke-linejoin: miter; stroke-linecap: square"/>
   </g>
   <g id="patch_176">
    <path d="M 1436.99976 246.310385 
L 1436.99976 3.687398 
" style="fill: none; stroke: #000000; stroke-width: 0.8; stroke-linejoin: miter; stroke-linecap: square"/>
   </g>
   <g id="patch_177">
    <path d="M 1187.77449 246.310385 
L 1436.99976 246.310385 
" style="fill: none; stroke: #000000; stroke-width: 0.8; stroke-linejoin: miter; stroke-linecap: square"/>
   </g>
   <g id="patch_178">
    <path d="M 1187.77449 3.687398 
L 1436.99976 3.687398 
" style="fill: none; stroke: #000000; stroke-width: 0.8; stroke-linejoin: miter; stroke-linecap: square"/>
   </g>
  </g>
 </g>
 <defs>
  <clipPath id="p179523908b">
   <rect x="49.81399" y="3.687398" width="249.22527" height="242.622987"/>
  </clipPath>
  <clipPath id="p5f57db9d74">
   <rect x="334.304115" y="3.687398" width="249.22527" height="242.622987"/>
  </clipPath>
  <clipPath id="p966c0d5d8b">
   <rect x="618.79424" y="3.687398" width="249.22527" height="242.622987"/>
  </clipPath>
  <clipPath id="p36f9277983">
   <rect x="903.284365" y="3.687398" width="249.22527" height="242.622987"/>
  </clipPath>
  <clipPath id="p446c3a6e22">
   <rect x="1187.77449" y="3.687398" width="249.22527" height="242.622987"/>
  </clipPath>
 </defs>
</svg>
