<?xml version="1.0" encoding="utf-8" standalone="no"?>
<!DOCTYPE svg PUBLIC "-//W3C//DTD SVG 1.1//EN"
  "http://www.w3.org/Graphics/SVG/1.1/DTD/svg11.dtd">
<svg xmlns:xlink="http://www.w3.org/1999/xlink" width="1440pt" height="288pt" viewBox="0 0 1440 288" xmlns="http://www.w3.org/2000/svg" version="1.1">
 <metadata>
  <rdf:RDF xmlns:dc="http://purl.org/dc/elements/1.1/" xmlns:cc="http://creativecommons.org/ns#" xmlns:rdf="http://www.w3.org/1999/02/22-rdf-syntax-ns#">
   <cc:Work>
    <dc:type rdf:resource="http://purl.org/dc/dcmitype/StillImage"/>
    <dc:date>2024-11-24T11:20:23.264923</dc:date>
    <dc:format>image/svg+xml</dc:format>
    <dc:creator>
     <cc:Agent>
      <dc:title>Matplotlib v3.9.2, https://matplotlib.org/</dc:title>
     </cc:Agent>
    </dc:creator>
   </cc:Work>
  </rdf:RDF>
 </metadata>
 <defs>
  <style type="text/css">*{stroke-linejoin: round; stroke-linecap: butt}</style>
 </defs>
 <g id="figure_1">
  <g id="patch_1">
   <path d="M 0 288 
L 1440 288 
L 1440 0 
L 0 0 
z
" style="fill: #ffffff"/>
  </g>
  <g id="axes_1">
   <g id="patch_2">
    <path d="M 36.457115 246.90101 
L 279.886542 246.90101 
L 279.886542 16.638052 
L 36.457115 16.638052 
z
" style="fill: #ffffff"/>
   </g>
   <g id="patch_3">
    <path d="M 47.522089 246.90101 
L 49.630242 246.90101 
L 49.630242 246.020295 
L 47.522089 246.020295 
z
" clip-path="url(#p4bca69b7bc)" style="fill: #1f77b4"/>
   </g>
   <g id="patch_4">
    <path d="M 49.864481 246.90101 
L 51.972634 246.90101 
L 51.972634 246.90101 
L 49.864481 246.90101 
z
" clip-path="url(#p4bca69b7bc)" style="fill: #1f77b4"/>
   </g>
   <g id="patch_5">
    <path d="M 52.206873 246.90101 
L 54.315026 246.90101 
L 54.315026 246.020295 
L 52.206873 246.020295 
z
" clip-path="url(#p4bca69b7bc)" style="fill: #1f77b4"/>
   </g>
   <g id="patch_6">
    <path d="M 54.549265 246.90101 
L 56.657418 246.90101 
L 56.657418 243.818507 
L 54.549265 243.818507 
z
" clip-path="url(#p4bca69b7bc)" style="fill: #1f77b4"/>
   </g>
   <g id="patch_7">
    <path d="M 56.891658 246.90101 
L 58.999811 246.90101 
L 58.999811 242.497435 
L 56.891658 242.497435 
z
" clip-path="url(#p4bca69b7bc)" style="fill: #1f77b4"/>
   </g>
   <g id="patch_8">
    <path d="M 59.23405 246.90101 
L 61.342203 246.90101 
L 61.342203 240.736004 
L 59.23405 240.736004 
z
" clip-path="url(#p4bca69b7bc)" style="fill: #1f77b4"/>
   </g>
   <g id="patch_9">
    <path d="M 61.576442 246.90101 
L 63.684595 246.90101 
L 63.684595 230.607781 
L 61.576442 230.607781 
z
" clip-path="url(#p4bca69b7bc)" style="fill: #1f77b4"/>
   </g>
   <g id="patch_10">
    <path d="M 63.918834 246.90101 
L 66.026987 246.90101 
L 66.026987 223.121703 
L 63.918834 223.121703 
z
" clip-path="url(#p4bca69b7bc)" style="fill: #1f77b4"/>
   </g>
   <g id="patch_11">
    <path d="M 66.261226 246.90101 
L 68.369379 246.90101 
L 68.369379 211.672407 
L 66.261226 211.672407 
z
" clip-path="url(#p4bca69b7bc)" style="fill: #1f77b4"/>
   </g>
   <g id="patch_12">
    <path d="M 68.603618 246.90101 
L 70.711771 246.90101 
L 70.711771 195.379178 
L 68.603618 195.379178 
z
" clip-path="url(#p4bca69b7bc)" style="fill: #1f77b4"/>
   </g>
   <g id="patch_13">
    <path d="M 70.946011 246.90101 
L 73.054163 246.90101 
L 73.054163 161.471647 
L 70.946011 161.471647 
z
" clip-path="url(#p4bca69b7bc)" style="fill: #1f77b4"/>
   </g>
   <g id="patch_14">
    <path d="M 73.288403 246.90101 
L 75.396556 246.90101 
L 75.396556 121.399111 
L 73.288403 121.399111 
z
" clip-path="url(#p4bca69b7bc)" style="fill: #1f77b4"/>
   </g>
   <g id="patch_15">
    <path d="M 75.630795 246.90101 
L 77.738948 246.90101 
L 77.738948 112.59196 
L 75.630795 112.59196 
z
" clip-path="url(#p4bca69b7bc)" style="fill: #1f77b4"/>
   </g>
   <g id="patch_16">
    <path d="M 77.973187 246.90101 
L 80.08134 246.90101 
L 80.08134 57.547268 
L 77.973187 57.547268 
z
" clip-path="url(#p4bca69b7bc)" style="fill: #1f77b4"/>
   </g>
   <g id="patch_17">
    <path d="M 80.315579 246.90101 
L 82.423732 246.90101 
L 82.423732 47.859402 
L 80.315579 47.859402 
z
" clip-path="url(#p4bca69b7bc)" style="fill: #1f77b4"/>
   </g>
   <g id="patch_18">
    <path d="M 82.657971 246.90101 
L 84.766124 246.90101 
L 84.766124 35.529391 
L 82.657971 35.529391 
z
" clip-path="url(#p4bca69b7bc)" style="fill: #1f77b4"/>
   </g>
   <g id="patch_19">
    <path d="M 85.000363 246.90101 
L 87.108516 246.90101 
L 87.108516 27.602955 
L 85.000363 27.602955 
z
" clip-path="url(#p4bca69b7bc)" style="fill: #1f77b4"/>
   </g>
   <g id="patch_20">
    <path d="M 87.342756 246.90101 
L 89.450909 246.90101 
L 89.450909 33.767961 
L 87.342756 33.767961 
z
" clip-path="url(#p4bca69b7bc)" style="fill: #1f77b4"/>
   </g>
   <g id="patch_21">
    <path d="M 89.685148 246.90101 
L 91.793301 246.90101 
L 91.793301 53.58405 
L 89.685148 53.58405 
z
" clip-path="url(#p4bca69b7bc)" style="fill: #1f77b4"/>
   </g>
   <g id="patch_22">
    <path d="M 92.02754 246.90101 
L 94.135693 246.90101 
L 94.135693 93.216229 
L 92.02754 93.216229 
z
" clip-path="url(#p4bca69b7bc)" style="fill: #1f77b4"/>
   </g>
   <g id="patch_23">
    <path d="M 94.369932 246.90101 
L 96.478085 246.90101 
L 96.478085 129.765904 
L 94.369932 129.765904 
z
" clip-path="url(#p4bca69b7bc)" style="fill: #1f77b4"/>
   </g>
   <g id="patch_24">
    <path d="M 96.712324 246.90101 
L 98.820477 246.90101 
L 98.820477 157.948787 
L 96.712324 157.948787 
z
" clip-path="url(#p4bca69b7bc)" style="fill: #1f77b4"/>
   </g>
   <g id="patch_25">
    <path d="M 99.054716 246.90101 
L 101.162869 246.90101 
L 101.162869 194.93882 
L 99.054716 194.93882 
z
" clip-path="url(#p4bca69b7bc)" style="fill: #1f77b4"/>
   </g>
   <g id="patch_26">
    <path d="M 101.397109 246.90101 
L 103.505261 246.90101 
L 103.505261 213.433837 
L 101.397109 213.433837 
z
" clip-path="url(#p4bca69b7bc)" style="fill: #1f77b4"/>
   </g>
   <g id="patch_27">
    <path d="M 103.739501 246.90101 
L 105.847654 246.90101 
L 105.847654 226.644563 
L 103.739501 226.644563 
z
" clip-path="url(#p4bca69b7bc)" style="fill: #1f77b4"/>
   </g>
   <g id="patch_28">
    <path d="M 106.081893 246.90101 
L 108.190046 246.90101 
L 108.190046 236.332429 
L 106.081893 236.332429 
z
" clip-path="url(#p4bca69b7bc)" style="fill: #1f77b4"/>
   </g>
   <g id="patch_29">
    <path d="M 108.424285 246.90101 
L 110.532438 246.90101 
L 110.532438 239.855289 
L 108.424285 239.855289 
z
" clip-path="url(#p4bca69b7bc)" style="fill: #1f77b4"/>
   </g>
   <g id="patch_30">
    <path d="M 110.766677 246.90101 
L 112.87483 246.90101 
L 112.87483 245.13958 
L 110.766677 245.13958 
z
" clip-path="url(#p4bca69b7bc)" style="fill: #1f77b4"/>
   </g>
   <g id="patch_31">
    <path d="M 113.109069 246.90101 
L 115.217222 246.90101 
L 115.217222 244.699222 
L 113.109069 244.699222 
z
" clip-path="url(#p4bca69b7bc)" style="fill: #1f77b4"/>
   </g>
   <g id="patch_32">
    <path d="M 115.451461 246.90101 
L 117.559614 246.90101 
L 117.559614 245.13958 
L 115.451461 245.13958 
z
" clip-path="url(#p4bca69b7bc)" style="fill: #1f77b4"/>
   </g>
   <g id="matplotlib.axis_1">
    <g id="xtick_1">
     <g id="line2d_1">
      <defs>
       <path id="m274df28ce9" d="M 0 0 
L 0 3.5 
" style="stroke: #000000; stroke-width: 0.8"/>
      </defs>
      <g>
       <use xlink:href="#m274df28ce9" x="68.471255" y="246.90101" style="stroke: #000000; stroke-width: 0.8"/>
      </g>
     </g>
     <g id="text_1">
      <!-- 1.35 -->
      <g transform="translate(52.885318 264.538822) scale(0.14 -0.14)">
       <defs>
        <path id="DejaVuSans-31" d="M 794 531 
L 1825 531 
L 1825 4091 
L 703 3866 
L 703 4441 
L 1819 4666 
L 2450 4666 
L 2450 531 
L 3481 531 
L 3481 0 
L 794 0 
L 794 531 
z
" transform="scale(0.015625)"/>
        <path id="DejaVuSans-2e" d="M 684 794 
L 1344 794 
L 1344 0 
L 684 0 
L 684 794 
z
" transform="scale(0.015625)"/>
        <path id="DejaVuSans-33" d="M 2597 2516 
Q 3050 2419 3304 2112 
Q 3559 1806 3559 1356 
Q 3559 666 3084 287 
Q 2609 -91 1734 -91 
Q 1441 -91 1130 -33 
Q 819 25 488 141 
L 488 750 
Q 750 597 1062 519 
Q 1375 441 1716 441 
Q 2309 441 2620 675 
Q 2931 909 2931 1356 
Q 2931 1769 2642 2001 
Q 2353 2234 1838 2234 
L 1294 2234 
L 1294 2753 
L 1863 2753 
Q 2328 2753 2575 2939 
Q 2822 3125 2822 3475 
Q 2822 3834 2567 4026 
Q 2313 4219 1838 4219 
Q 1578 4219 1281 4162 
Q 984 4106 628 3988 
L 628 4550 
Q 988 4650 1302 4700 
Q 1616 4750 1894 4750 
Q 2613 4750 3031 4423 
Q 3450 4097 3450 3541 
Q 3450 3153 3228 2886 
Q 3006 2619 2597 2516 
z
" transform="scale(0.015625)"/>
        <path id="DejaVuSans-35" d="M 691 4666 
L 3169 4666 
L 3169 4134 
L 1269 4134 
L 1269 2991 
Q 1406 3038 1543 3061 
Q 1681 3084 1819 3084 
Q 2600 3084 3056 2656 
Q 3513 2228 3513 1497 
Q 3513 744 3044 326 
Q 2575 -91 1722 -91 
Q 1428 -91 1123 -41 
Q 819 9 494 109 
L 494 744 
Q 775 591 1075 516 
Q 1375 441 1709 441 
Q 2250 441 2565 725 
Q 2881 1009 2881 1497 
Q 2881 1984 2565 2268 
Q 2250 2553 1709 2553 
Q 1456 2553 1204 2497 
Q 953 2441 691 2322 
L 691 4666 
z
" transform="scale(0.015625)"/>
       </defs>
       <use xlink:href="#DejaVuSans-31"/>
       <use xlink:href="#DejaVuSans-2e" x="63.623047"/>
       <use xlink:href="#DejaVuSans-33" x="95.410156"/>
       <use xlink:href="#DejaVuSans-35" x="159.033203"/>
      </g>
     </g>
    </g>
    <g id="xtick_2">
     <g id="line2d_2">
      <g>
       <use xlink:href="#m274df28ce9" x="119.064769" y="246.90101" style="stroke: #000000; stroke-width: 0.8"/>
      </g>
     </g>
     <g id="text_2">
      <!-- 1.40 -->
      <g transform="translate(103.478831 264.538822) scale(0.14 -0.14)">
       <defs>
        <path id="DejaVuSans-34" d="M 2419 4116 
L 825 1625 
L 2419 1625 
L 2419 4116 
z
M 2253 4666 
L 3047 4666 
L 3047 1625 
L 3713 1625 
L 3713 1100 
L 3047 1100 
L 3047 0 
L 2419 0 
L 2419 1100 
L 313 1100 
L 313 1709 
L 2253 4666 
z
" transform="scale(0.015625)"/>
        <path id="DejaVuSans-30" d="M 2034 4250 
Q 1547 4250 1301 3770 
Q 1056 3291 1056 2328 
Q 1056 1369 1301 889 
Q 1547 409 2034 409 
Q 2525 409 2770 889 
Q 3016 1369 3016 2328 
Q 3016 3291 2770 3770 
Q 2525 4250 2034 4250 
z
M 2034 4750 
Q 2819 4750 3233 4129 
Q 3647 3509 3647 2328 
Q 3647 1150 3233 529 
Q 2819 -91 2034 -91 
Q 1250 -91 836 529 
Q 422 1150 422 2328 
Q 422 3509 836 4129 
Q 1250 4750 2034 4750 
z
" transform="scale(0.015625)"/>
       </defs>
       <use xlink:href="#DejaVuSans-31"/>
       <use xlink:href="#DejaVuSans-2e" x="63.623047"/>
       <use xlink:href="#DejaVuSans-34" x="95.410156"/>
       <use xlink:href="#DejaVuSans-30" x="159.033203"/>
      </g>
     </g>
    </g>
    <g id="xtick_3">
     <g id="line2d_3">
      <g>
       <use xlink:href="#m274df28ce9" x="169.658282" y="246.90101" style="stroke: #000000; stroke-width: 0.8"/>
      </g>
     </g>
     <g id="text_3">
      <!-- 1.45 -->
      <g transform="translate(154.072345 264.538822) scale(0.14 -0.14)">
       <use xlink:href="#DejaVuSans-31"/>
       <use xlink:href="#DejaVuSans-2e" x="63.623047"/>
       <use xlink:href="#DejaVuSans-34" x="95.410156"/>
       <use xlink:href="#DejaVuSans-35" x="159.033203"/>
      </g>
     </g>
    </g>
    <g id="xtick_4">
     <g id="line2d_4">
      <g>
       <use xlink:href="#m274df28ce9" x="220.251795" y="246.90101" style="stroke: #000000; stroke-width: 0.8"/>
      </g>
     </g>
     <g id="text_4">
      <!-- 1.50 -->
      <g transform="translate(204.665858 264.538822) scale(0.14 -0.14)">
       <use xlink:href="#DejaVuSans-31"/>
       <use xlink:href="#DejaVuSans-2e" x="63.623047"/>
       <use xlink:href="#DejaVuSans-35" x="95.410156"/>
       <use xlink:href="#DejaVuSans-30" x="159.033203"/>
      </g>
     </g>
    </g>
    <g id="xtick_5">
     <g id="line2d_5">
      <g>
       <use xlink:href="#m274df28ce9" x="270.845309" y="246.90101" style="stroke: #000000; stroke-width: 0.8"/>
      </g>
     </g>
     <g id="text_5">
      <!-- 1.55 -->
      <g transform="translate(255.259371 264.538822) scale(0.14 -0.14)">
       <use xlink:href="#DejaVuSans-31"/>
       <use xlink:href="#DejaVuSans-2e" x="63.623047"/>
       <use xlink:href="#DejaVuSans-35" x="95.410156"/>
       <use xlink:href="#DejaVuSans-35" x="159.033203"/>
      </g>
     </g>
    </g>
    <g id="text_6">
     <!-- $E_1$ [MPa] -->
     <g transform="translate(128.141829 282.088197) scale(0.14 -0.14)">
      <defs>
       <path id="DejaVuSans-Oblique-45" d="M 1081 4666 
L 4031 4666 
L 3928 4134 
L 1606 4134 
L 1338 2753 
L 3566 2753 
L 3463 2222 
L 1234 2222 
L 909 531 
L 3284 531 
L 3181 0 
L 172 0 
L 1081 4666 
z
" transform="scale(0.015625)"/>
       <path id="DejaVuSans-20" transform="scale(0.015625)"/>
       <path id="DejaVuSans-5b" d="M 550 4863 
L 1875 4863 
L 1875 4416 
L 1125 4416 
L 1125 -397 
L 1875 -397 
L 1875 -844 
L 550 -844 
L 550 4863 
z
" transform="scale(0.015625)"/>
       <path id="DejaVuSans-4d" d="M 628 4666 
L 1569 4666 
L 2759 1491 
L 3956 4666 
L 4897 4666 
L 4897 0 
L 4281 0 
L 4281 4097 
L 3078 897 
L 2444 897 
L 1241 4097 
L 1241 0 
L 628 0 
L 628 4666 
z
" transform="scale(0.015625)"/>
       <path id="DejaVuSans-50" d="M 1259 4147 
L 1259 2394 
L 2053 2394 
Q 2494 2394 2734 2622 
Q 2975 2850 2975 3272 
Q 2975 3691 2734 3919 
Q 2494 4147 2053 4147 
L 1259 4147 
z
M 628 4666 
L 2053 4666 
Q 2838 4666 3239 4311 
Q 3641 3956 3641 3272 
Q 3641 2581 3239 2228 
Q 2838 1875 2053 1875 
L 1259 1875 
L 1259 0 
L 628 0 
L 628 4666 
z
" transform="scale(0.015625)"/>
       <path id="DejaVuSans-61" d="M 2194 1759 
Q 1497 1759 1228 1600 
Q 959 1441 959 1056 
Q 959 750 1161 570 
Q 1363 391 1709 391 
Q 2188 391 2477 730 
Q 2766 1069 2766 1631 
L 2766 1759 
L 2194 1759 
z
M 3341 1997 
L 3341 0 
L 2766 0 
L 2766 531 
Q 2569 213 2275 61 
Q 1981 -91 1556 -91 
Q 1019 -91 701 211 
Q 384 513 384 1019 
Q 384 1609 779 1909 
Q 1175 2209 1959 2209 
L 2766 2209 
L 2766 2266 
Q 2766 2663 2505 2880 
Q 2244 3097 1772 3097 
Q 1472 3097 1187 3025 
Q 903 2953 641 2809 
L 641 3341 
Q 956 3463 1253 3523 
Q 1550 3584 1831 3584 
Q 2591 3584 2966 3190 
Q 3341 2797 3341 1997 
z
" transform="scale(0.015625)"/>
       <path id="DejaVuSans-5d" d="M 1947 4863 
L 1947 -844 
L 622 -844 
L 622 -397 
L 1369 -397 
L 1369 4416 
L 622 4416 
L 622 4863 
L 1947 4863 
z
" transform="scale(0.015625)"/>
      </defs>
      <use xlink:href="#DejaVuSans-Oblique-45" transform="translate(0 0.015625)"/>
      <use xlink:href="#DejaVuSans-31" transform="translate(63.183594 -16.390625) scale(0.7)"/>
      <use xlink:href="#DejaVuSans-20" transform="translate(110.454102 0.015625)"/>
      <use xlink:href="#DejaVuSans-5b" transform="translate(142.241211 0.015625)"/>
      <use xlink:href="#DejaVuSans-4d" transform="translate(181.254883 0.015625)"/>
      <use xlink:href="#DejaVuSans-50" transform="translate(267.53418 0.015625)"/>
      <use xlink:href="#DejaVuSans-61" transform="translate(327.836914 0.015625)"/>
      <use xlink:href="#DejaVuSans-5d" transform="translate(389.116211 0.015625)"/>
     </g>
    </g>
    <g id="text_7">
     <!-- 1e5 -->
     <g transform="translate(253.457167 281.088197) scale(0.14 -0.14)">
      <defs>
       <path id="DejaVuSans-65" d="M 3597 1894 
L 3597 1613 
L 953 1613 
Q 991 1019 1311 708 
Q 1631 397 2203 397 
Q 2534 397 2845 478 
Q 3156 559 3463 722 
L 3463 178 
Q 3153 47 2828 -22 
Q 2503 -91 2169 -91 
Q 1331 -91 842 396 
Q 353 884 353 1716 
Q 353 2575 817 3079 
Q 1281 3584 2069 3584 
Q 2775 3584 3186 3129 
Q 3597 2675 3597 1894 
z
M 3022 2063 
Q 3016 2534 2758 2815 
Q 2500 3097 2075 3097 
Q 1594 3097 1305 2825 
Q 1016 2553 972 2059 
L 3022 2063 
z
" transform="scale(0.015625)"/>
      </defs>
      <use xlink:href="#DejaVuSans-31"/>
      <use xlink:href="#DejaVuSans-65" x="63.623047"/>
      <use xlink:href="#DejaVuSans-35" x="125.146484"/>
     </g>
    </g>
   </g>
   <g id="matplotlib.axis_2">
    <g id="ytick_1">
     <g id="line2d_6">
      <defs>
       <path id="m2a43689dfe" d="M 0 0 
L -3.5 0 
" style="stroke: #000000; stroke-width: 0.8"/>
      </defs>
      <g>
       <use xlink:href="#m2a43689dfe" x="36.457115" y="246.90101" style="stroke: #000000; stroke-width: 0.8"/>
      </g>
     </g>
     <g id="text_8">
      <!-- 0 -->
      <g transform="translate(20.549615 252.219916) scale(0.14 -0.14)">
       <use xlink:href="#DejaVuSans-30"/>
      </g>
     </g>
    </g>
    <g id="ytick_2">
     <g id="line2d_7">
      <g>
       <use xlink:href="#m2a43689dfe" x="36.457115" y="195.931529" style="stroke: #000000; stroke-width: 0.8"/>
      </g>
     </g>
     <g id="text_9">
      <!-- 1 -->
      <g transform="translate(20.549615 201.250435) scale(0.14 -0.14)">
       <use xlink:href="#DejaVuSans-31"/>
      </g>
     </g>
    </g>
    <g id="ytick_3">
     <g id="line2d_8">
      <g>
       <use xlink:href="#m2a43689dfe" x="36.457115" y="144.962048" style="stroke: #000000; stroke-width: 0.8"/>
      </g>
     </g>
     <g id="text_10">
      <!-- 2 -->
      <g transform="translate(20.549615 150.280955) scale(0.14 -0.14)">
       <defs>
        <path id="DejaVuSans-32" d="M 1228 531 
L 3431 531 
L 3431 0 
L 469 0 
L 469 531 
Q 828 903 1448 1529 
Q 2069 2156 2228 2338 
Q 2531 2678 2651 2914 
Q 2772 3150 2772 3378 
Q 2772 3750 2511 3984 
Q 2250 4219 1831 4219 
Q 1534 4219 1204 4116 
Q 875 4013 500 3803 
L 500 4441 
Q 881 4594 1212 4672 
Q 1544 4750 1819 4750 
Q 2544 4750 2975 4387 
Q 3406 4025 3406 3419 
Q 3406 3131 3298 2873 
Q 3191 2616 2906 2266 
Q 2828 2175 2409 1742 
Q 1991 1309 1228 531 
z
" transform="scale(0.015625)"/>
       </defs>
       <use xlink:href="#DejaVuSans-32"/>
      </g>
     </g>
    </g>
    <g id="ytick_4">
     <g id="line2d_9">
      <g>
       <use xlink:href="#m2a43689dfe" x="36.457115" y="93.992567" style="stroke: #000000; stroke-width: 0.8"/>
      </g>
     </g>
     <g id="text_11">
      <!-- 3 -->
      <g transform="translate(20.549615 99.311474) scale(0.14 -0.14)">
       <use xlink:href="#DejaVuSans-33"/>
      </g>
     </g>
    </g>
    <g id="ytick_5">
     <g id="line2d_10">
      <g>
       <use xlink:href="#m2a43689dfe" x="36.457115" y="43.023087" style="stroke: #000000; stroke-width: 0.8"/>
      </g>
     </g>
     <g id="text_12">
      <!-- 4 -->
      <g transform="translate(20.549615 48.341993) scale(0.14 -0.14)">
       <use xlink:href="#DejaVuSans-34"/>
      </g>
     </g>
    </g>
    <g id="text_13">
     <!-- PDF -->
     <g transform="translate(13.638053 145.406406) rotate(-90) scale(0.14 -0.14)">
      <defs>
       <path id="DejaVuSans-44" d="M 1259 4147 
L 1259 519 
L 2022 519 
Q 2988 519 3436 956 
Q 3884 1394 3884 2338 
Q 3884 3275 3436 3711 
Q 2988 4147 2022 4147 
L 1259 4147 
z
M 628 4666 
L 1925 4666 
Q 3281 4666 3915 4102 
Q 4550 3538 4550 2338 
Q 4550 1131 3912 565 
Q 3275 0 1925 0 
L 628 0 
L 628 4666 
z
" transform="scale(0.015625)"/>
       <path id="DejaVuSans-46" d="M 628 4666 
L 3309 4666 
L 3309 4134 
L 1259 4134 
L 1259 2759 
L 3109 2759 
L 3109 2228 
L 1259 2228 
L 1259 0 
L 628 0 
L 628 4666 
z
" transform="scale(0.015625)"/>
      </defs>
      <use xlink:href="#DejaVuSans-50"/>
      <use xlink:href="#DejaVuSans-44" x="60.302734"/>
      <use xlink:href="#DejaVuSans-46" x="137.304688"/>
     </g>
    </g>
    <g id="text_14">
     <!-- 1e−4 -->
     <g transform="translate(36.457115 13.638052) scale(0.14 -0.14)">
      <defs>
       <path id="DejaVuSans-2212" d="M 678 2272 
L 4684 2272 
L 4684 1741 
L 678 1741 
L 678 2272 
z
" transform="scale(0.015625)"/>
      </defs>
      <use xlink:href="#DejaVuSans-31"/>
      <use xlink:href="#DejaVuSans-65" x="63.623047"/>
      <use xlink:href="#DejaVuSans-2212" x="125.146484"/>
      <use xlink:href="#DejaVuSans-34" x="208.935547"/>
     </g>
    </g>
   </g>
   <g id="line2d_11">
    <path d="M 147.397136 245.771565 
L 148.623645 245.548844 
L 149.850155 245.288138 
L 151.076664 244.98422 
L 152.303174 244.631386 
L 153.529683 244.223456 
L 154.756193 243.753789 
L 155.982702 243.215301 
L 157.209211 242.600503 
L 158.435721 241.901551 
L 159.66223 241.110308 
L 160.88874 240.21843 
L 162.115249 239.217459 
L 163.341759 238.098946 
L 164.568268 236.854577 
L 165.794777 235.476329 
L 167.021287 233.956636 
L 168.247796 232.288568 
L 169.474306 230.466024 
L 170.700815 228.483934 
L 171.927324 226.338467 
L 173.153834 224.027239 
L 174.380343 221.549519 
L 175.606853 218.906425 
L 176.833362 216.101107 
L 178.059872 213.138909 
L 179.286381 210.027508 
L 180.51289 206.777022 
L 181.7394 203.400075 
L 182.965909 199.911827 
L 184.192419 196.329958 
L 185.418928 192.674597 
L 186.645437 188.968205 
L 187.871947 185.235399 
L 189.098456 181.502732 
L 190.324966 177.79841 
L 191.551475 174.151973 
L 192.777985 170.593916 
L 194.004494 167.155293 
L 195.231003 163.867266 
L 196.457513 160.760653 
L 197.684022 157.865447 
L 198.910532 155.21034 
L 200.137041 152.822251 
L 201.36355 150.725874 
L 202.59006 148.943253 
L 203.816569 147.493396 
L 205.043079 146.391937 
L 206.269588 145.65086 
L 207.496098 145.278275 
L 208.722607 145.278275 
L 209.949116 145.65086 
L 211.175626 146.391937 
L 212.402135 147.493396 
L 213.628645 148.943253 
L 214.855154 150.725874 
L 216.081663 152.822251 
L 217.308173 155.21034 
L 218.534682 157.865447 
L 219.761192 160.760653 
L 220.987701 163.867266 
L 222.214211 167.155293 
L 223.44072 170.593916 
L 224.667229 174.151973 
L 225.893739 177.79841 
L 227.120248 181.502732 
L 228.346758 185.235399 
L 229.573267 188.968205 
L 230.799776 192.674597 
L 232.026286 196.329958 
L 233.252795 199.911827 
L 234.479305 203.400075 
L 235.705814 206.777022 
L 236.932324 210.027508 
L 238.158833 213.138909 
L 239.385342 216.101107 
L 240.611852 218.906425 
L 241.838361 221.549519 
L 243.064871 224.027239 
L 244.29138 226.338467 
L 245.517889 228.483934 
L 246.744399 230.466024 
L 247.970908 232.288568 
L 249.197418 233.956636 
L 250.423927 235.476329 
L 251.650437 236.854577 
L 252.876946 238.098946 
L 254.103455 239.217459 
L 255.329965 240.21843 
L 256.556474 241.110308 
L 257.782984 241.901551 
L 259.009493 242.600503 
L 260.236002 243.215301 
L 261.462512 243.753789 
L 262.689021 244.223456 
L 263.915531 244.631386 
L 265.14204 244.98422 
L 266.36855 245.288138 
L 267.595059 245.548844 
L 268.821568 245.771565 
" clip-path="url(#p4bca69b7bc)" style="fill: none; stroke: #2ca02c; stroke-width: 1.5; stroke-linecap: square"/>
   </g>
   <g id="patch_33">
    <path d="M 36.457115 246.90101 
L 36.457115 16.638052 
" style="fill: none; stroke: #000000; stroke-width: 0.8; stroke-linejoin: miter; stroke-linecap: square"/>
   </g>
   <g id="patch_34">
    <path d="M 279.886542 246.90101 
L 279.886542 16.638052 
" style="fill: none; stroke: #000000; stroke-width: 0.8; stroke-linejoin: miter; stroke-linecap: square"/>
   </g>
   <g id="patch_35">
    <path d="M 36.457115 246.90101 
L 279.886542 246.90101 
" style="fill: none; stroke: #000000; stroke-width: 0.8; stroke-linejoin: miter; stroke-linecap: square"/>
   </g>
   <g id="patch_36">
    <path d="M 36.457115 16.638052 
L 279.886542 16.638052 
" style="fill: none; stroke: #000000; stroke-width: 0.8; stroke-linejoin: miter; stroke-linecap: square"/>
   </g>
   <g id="legend_1">
    <g id="patch_37">
     <path d="M 163.424042 68.936802 
L 270.086542 68.936802 
Q 272.886542 68.936802 272.886542 66.136802 
L 272.886542 26.438053 
Q 272.886542 23.638053 270.086542 23.638053 
L 163.424042 23.638053 
Q 160.624042 23.638053 160.624042 26.438053 
L 160.624042 66.136802 
Q 160.624042 68.936802 163.424042 68.936802 
z
" style="fill: #ffffff; opacity: 0.8; stroke: #cccccc; stroke-linejoin: miter"/>
    </g>
    <g id="line2d_12">
     <path d="M 166.224042 34.975865 
L 180.224042 34.975865 
L 194.224042 34.975865 
" style="fill: none; stroke: #2ca02c; stroke-width: 1.5; stroke-linecap: square"/>
    </g>
    <g id="text_15">
     <!-- Prior -->
     <g transform="translate(205.424042 39.875865) scale(0.14 -0.14)">
      <defs>
       <path id="DejaVuSans-72" d="M 2631 2963 
Q 2534 3019 2420 3045 
Q 2306 3072 2169 3072 
Q 1681 3072 1420 2755 
Q 1159 2438 1159 1844 
L 1159 0 
L 581 0 
L 581 3500 
L 1159 3500 
L 1159 2956 
Q 1341 3275 1631 3429 
Q 1922 3584 2338 3584 
Q 2397 3584 2469 3576 
Q 2541 3569 2628 3553 
L 2631 2963 
z
" transform="scale(0.015625)"/>
       <path id="DejaVuSans-69" d="M 603 3500 
L 1178 3500 
L 1178 0 
L 603 0 
L 603 3500 
z
M 603 4863 
L 1178 4863 
L 1178 4134 
L 603 4134 
L 603 4863 
z
" transform="scale(0.015625)"/>
       <path id="DejaVuSans-6f" d="M 1959 3097 
Q 1497 3097 1228 2736 
Q 959 2375 959 1747 
Q 959 1119 1226 758 
Q 1494 397 1959 397 
Q 2419 397 2687 759 
Q 2956 1122 2956 1747 
Q 2956 2369 2687 2733 
Q 2419 3097 1959 3097 
z
M 1959 3584 
Q 2709 3584 3137 3096 
Q 3566 2609 3566 1747 
Q 3566 888 3137 398 
Q 2709 -91 1959 -91 
Q 1206 -91 779 398 
Q 353 888 353 1747 
Q 353 2609 779 3096 
Q 1206 3584 1959 3584 
z
" transform="scale(0.015625)"/>
      </defs>
      <use xlink:href="#DejaVuSans-50"/>
      <use xlink:href="#DejaVuSans-72" x="58.552734"/>
      <use xlink:href="#DejaVuSans-69" x="99.666016"/>
      <use xlink:href="#DejaVuSans-6f" x="127.449219"/>
      <use xlink:href="#DejaVuSans-72" x="188.630859"/>
     </g>
    </g>
    <g id="patch_38">
     <path d="M 166.224042 60.42524 
L 194.224042 60.42524 
L 194.224042 50.62524 
L 166.224042 50.62524 
z
" style="fill: #1f77b4"/>
    </g>
    <g id="text_16">
     <!-- Posterior -->
     <g transform="translate(205.424042 60.42524) scale(0.14 -0.14)">
      <defs>
       <path id="DejaVuSans-73" d="M 2834 3397 
L 2834 2853 
Q 2591 2978 2328 3040 
Q 2066 3103 1784 3103 
Q 1356 3103 1142 2972 
Q 928 2841 928 2578 
Q 928 2378 1081 2264 
Q 1234 2150 1697 2047 
L 1894 2003 
Q 2506 1872 2764 1633 
Q 3022 1394 3022 966 
Q 3022 478 2636 193 
Q 2250 -91 1575 -91 
Q 1294 -91 989 -36 
Q 684 19 347 128 
L 347 722 
Q 666 556 975 473 
Q 1284 391 1588 391 
Q 1994 391 2212 530 
Q 2431 669 2431 922 
Q 2431 1156 2273 1281 
Q 2116 1406 1581 1522 
L 1381 1569 
Q 847 1681 609 1914 
Q 372 2147 372 2553 
Q 372 3047 722 3315 
Q 1072 3584 1716 3584 
Q 2034 3584 2315 3537 
Q 2597 3491 2834 3397 
z
" transform="scale(0.015625)"/>
       <path id="DejaVuSans-74" d="M 1172 4494 
L 1172 3500 
L 2356 3500 
L 2356 3053 
L 1172 3053 
L 1172 1153 
Q 1172 725 1289 603 
Q 1406 481 1766 481 
L 2356 481 
L 2356 0 
L 1766 0 
Q 1100 0 847 248 
Q 594 497 594 1153 
L 594 3053 
L 172 3053 
L 172 3500 
L 594 3500 
L 594 4494 
L 1172 4494 
z
" transform="scale(0.015625)"/>
      </defs>
      <use xlink:href="#DejaVuSans-50"/>
      <use xlink:href="#DejaVuSans-6f" x="56.677734"/>
      <use xlink:href="#DejaVuSans-73" x="117.859375"/>
      <use xlink:href="#DejaVuSans-74" x="169.958984"/>
      <use xlink:href="#DejaVuSans-65" x="209.167969"/>
      <use xlink:href="#DejaVuSans-72" x="270.691406"/>
      <use xlink:href="#DejaVuSans-69" x="311.804688"/>
      <use xlink:href="#DejaVuSans-6f" x="339.587891"/>
      <use xlink:href="#DejaVuSans-72" x="400.769531"/>
     </g>
    </g>
   </g>
  </g>
  <g id="axes_2">
   <g id="patch_39">
    <path d="M 339.511106 246.90101 
L 582.940534 246.90101 
L 582.940534 16.638052 
L 339.511106 16.638052 
z
" style="fill: #ffffff"/>
   </g>
   <g id="patch_40">
    <path d="M 350.57608 246.90101 
L 357.237269 246.90101 
L 357.237269 246.087288 
L 350.57608 246.087288 
z
" clip-path="url(#pe8ccee6f9f)" style="fill: #1f77b4"/>
   </g>
   <g id="patch_41">
    <path d="M 357.977401 246.90101 
L 364.638589 246.90101 
L 364.638589 245.680427 
L 357.977401 245.680427 
z
" clip-path="url(#pe8ccee6f9f)" style="fill: #1f77b4"/>
   </g>
   <g id="patch_42">
    <path d="M 365.378721 246.90101 
L 372.039909 246.90101 
L 372.039909 241.611818 
L 365.378721 241.611818 
z
" clip-path="url(#pe8ccee6f9f)" style="fill: #1f77b4"/>
   </g>
   <g id="patch_43">
    <path d="M 372.780041 246.90101 
L 379.44123 246.90101 
L 379.44123 240.798096 
L 372.780041 240.798096 
z
" clip-path="url(#pe8ccee6f9f)" style="fill: #1f77b4"/>
   </g>
   <g id="patch_44">
    <path d="M 380.181362 246.90101 
L 386.84255 246.90101 
L 386.84255 230.219711 
L 380.181362 230.219711 
z
" clip-path="url(#pe8ccee6f9f)" style="fill: #1f77b4"/>
   </g>
   <g id="patch_45">
    <path d="M 387.582682 246.90101 
L 394.243871 246.90101 
L 394.243871 218.013882 
L 387.582682 218.013882 
z
" clip-path="url(#pe8ccee6f9f)" style="fill: #1f77b4"/>
   </g>
   <g id="patch_46">
    <path d="M 394.984003 246.90101 
L 401.645191 246.90101 
L 401.645191 207.842358 
L 394.984003 207.842358 
z
" clip-path="url(#pe8ccee6f9f)" style="fill: #1f77b4"/>
   </g>
   <g id="patch_47">
    <path d="M 402.385323 246.90101 
L 409.046511 246.90101 
L 409.046511 189.126754 
L 402.385323 189.126754 
z
" clip-path="url(#pe8ccee6f9f)" style="fill: #1f77b4"/>
   </g>
   <g id="patch_48">
    <path d="M 409.786643 246.90101 
L 416.447832 246.90101 
L 416.447832 152.102407 
L 409.786643 152.102407 
z
" clip-path="url(#pe8ccee6f9f)" style="fill: #1f77b4"/>
   </g>
   <g id="patch_49">
    <path d="M 417.187964 246.90101 
L 423.849152 246.90101 
L 423.849152 130.945638 
L 417.187964 130.945638 
z
" clip-path="url(#pe8ccee6f9f)" style="fill: #1f77b4"/>
   </g>
   <g id="patch_50">
    <path d="M 424.589284 246.90101 
L 431.250472 246.90101 
L 431.250472 114.264339 
L 424.589284 114.264339 
z
" clip-path="url(#pe8ccee6f9f)" style="fill: #1f77b4"/>
   </g>
   <g id="patch_51">
    <path d="M 431.990605 246.90101 
L 438.651793 246.90101 
L 438.651793 81.308601 
L 431.990605 81.308601 
z
" clip-path="url(#pe8ccee6f9f)" style="fill: #1f77b4"/>
   </g>
   <g id="patch_52">
    <path d="M 439.391925 246.90101 
L 446.053113 246.90101 
L 446.053113 59.33811 
L 439.391925 59.33811 
z
" clip-path="url(#pe8ccee6f9f)" style="fill: #1f77b4"/>
   </g>
   <g id="patch_53">
    <path d="M 446.793245 246.90101 
L 453.454434 246.90101 
L 453.454434 27.602955 
L 446.793245 27.602955 
z
" clip-path="url(#pe8ccee6f9f)" style="fill: #1f77b4"/>
   </g>
   <g id="patch_54">
    <path d="M 454.194566 246.90101 
L 460.855754 246.90101 
L 460.855754 55.2695 
L 454.194566 55.2695 
z
" clip-path="url(#pe8ccee6f9f)" style="fill: #1f77b4"/>
   </g>
   <g id="patch_55">
    <path d="M 461.595886 246.90101 
L 468.257074 246.90101 
L 468.257074 65.441024 
L 461.595886 65.441024 
z
" clip-path="url(#pe8ccee6f9f)" style="fill: #1f77b4"/>
   </g>
   <g id="patch_56">
    <path d="M 468.997206 246.90101 
L 475.658395 246.90101 
L 475.658395 87.818377 
L 468.997206 87.818377 
z
" clip-path="url(#pe8ccee6f9f)" style="fill: #1f77b4"/>
   </g>
   <g id="patch_57">
    <path d="M 476.398527 246.90101 
L 483.059715 246.90101 
L 483.059715 102.05851 
L 476.398527 102.05851 
z
" clip-path="url(#pe8ccee6f9f)" style="fill: #1f77b4"/>
   </g>
   <g id="patch_58">
    <path d="M 483.799847 246.90101 
L 490.461036 246.90101 
L 490.461036 157.3916 
L 483.799847 157.3916 
z
" clip-path="url(#pe8ccee6f9f)" style="fill: #1f77b4"/>
   </g>
   <g id="patch_59">
    <path d="M 491.201168 246.90101 
L 497.862356 246.90101 
L 497.862356 175.293482 
L 491.201168 175.293482 
z
" clip-path="url(#pe8ccee6f9f)" style="fill: #1f77b4"/>
   </g>
   <g id="patch_60">
    <path d="M 498.602488 246.90101 
L 505.263676 246.90101 
L 505.263676 194.009086 
L 498.602488 194.009086 
z
" clip-path="url(#pe8ccee6f9f)" style="fill: #1f77b4"/>
   </g>
   <g id="patch_61">
    <path d="M 506.003808 246.90101 
L 512.664997 246.90101 
L 512.664997 211.910968 
L 506.003808 211.910968 
z
" clip-path="url(#pe8ccee6f9f)" style="fill: #1f77b4"/>
   </g>
   <g id="patch_62">
    <path d="M 513.405129 246.90101 
L 520.066317 246.90101 
L 520.066317 231.440294 
L 513.405129 231.440294 
z
" clip-path="url(#pe8ccee6f9f)" style="fill: #1f77b4"/>
   </g>
   <g id="patch_63">
    <path d="M 520.806449 246.90101 
L 527.467637 246.90101 
L 527.467637 236.729486 
L 520.806449 236.729486 
z
" clip-path="url(#pe8ccee6f9f)" style="fill: #1f77b4"/>
   </g>
   <g id="patch_64">
    <path d="M 528.207769 246.90101 
L 534.868958 246.90101 
L 534.868958 240.798096 
L 528.207769 240.798096 
z
" clip-path="url(#pe8ccee6f9f)" style="fill: #1f77b4"/>
   </g>
   <g id="patch_65">
    <path d="M 535.60909 246.90101 
L 542.270278 246.90101 
L 542.270278 243.646122 
L 535.60909 243.646122 
z
" clip-path="url(#pe8ccee6f9f)" style="fill: #1f77b4"/>
   </g>
   <g id="patch_66">
    <path d="M 543.01041 246.90101 
L 549.671599 246.90101 
L 549.671599 246.90101 
L 543.01041 246.90101 
z
" clip-path="url(#pe8ccee6f9f)" style="fill: #1f77b4"/>
   </g>
   <g id="patch_67">
    <path d="M 550.411731 246.90101 
L 557.072919 246.90101 
L 557.072919 246.087288 
L 550.411731 246.087288 
z
" clip-path="url(#pe8ccee6f9f)" style="fill: #1f77b4"/>
   </g>
   <g id="patch_68">
    <path d="M 557.813051 246.90101 
L 564.474239 246.90101 
L 564.474239 246.494149 
L 557.813051 246.494149 
z
" clip-path="url(#pe8ccee6f9f)" style="fill: #1f77b4"/>
   </g>
   <g id="patch_69">
    <path d="M 565.214371 246.90101 
L 571.87556 246.90101 
L 571.87556 246.494149 
L 565.214371 246.494149 
z
" clip-path="url(#pe8ccee6f9f)" style="fill: #1f77b4"/>
   </g>
   <g id="matplotlib.axis_3">
    <g id="xtick_6">
     <g id="line2d_13">
      <g>
       <use xlink:href="#m274df28ce9" x="397.945652" y="246.90101" style="stroke: #000000; stroke-width: 0.8"/>
      </g>
     </g>
     <g id="text_17">
      <!-- 9000 -->
      <g transform="translate(380.130652 264.538822) scale(0.14 -0.14)">
       <defs>
        <path id="DejaVuSans-39" d="M 703 97 
L 703 672 
Q 941 559 1184 500 
Q 1428 441 1663 441 
Q 2288 441 2617 861 
Q 2947 1281 2994 2138 
Q 2813 1869 2534 1725 
Q 2256 1581 1919 1581 
Q 1219 1581 811 2004 
Q 403 2428 403 3163 
Q 403 3881 828 4315 
Q 1253 4750 1959 4750 
Q 2769 4750 3195 4129 
Q 3622 3509 3622 2328 
Q 3622 1225 3098 567 
Q 2575 -91 1691 -91 
Q 1453 -91 1209 -44 
Q 966 3 703 97 
z
M 1959 2075 
Q 2384 2075 2632 2365 
Q 2881 2656 2881 3163 
Q 2881 3666 2632 3958 
Q 2384 4250 1959 4250 
Q 1534 4250 1286 3958 
Q 1038 3666 1038 3163 
Q 1038 2656 1286 2365 
Q 1534 2075 1959 2075 
z
" transform="scale(0.015625)"/>
       </defs>
       <use xlink:href="#DejaVuSans-39"/>
       <use xlink:href="#DejaVuSans-30" x="63.623047"/>
       <use xlink:href="#DejaVuSans-30" x="127.246094"/>
       <use xlink:href="#DejaVuSans-30" x="190.869141"/>
      </g>
     </g>
    </g>
    <g id="xtick_7">
     <g id="line2d_14">
      <g>
       <use xlink:href="#m274df28ce9" x="456.692321" y="246.90101" style="stroke: #000000; stroke-width: 0.8"/>
      </g>
     </g>
     <g id="text_18">
      <!-- 9200 -->
      <g transform="translate(438.877321 264.538822) scale(0.14 -0.14)">
       <use xlink:href="#DejaVuSans-39"/>
       <use xlink:href="#DejaVuSans-32" x="63.623047"/>
       <use xlink:href="#DejaVuSans-30" x="127.246094"/>
       <use xlink:href="#DejaVuSans-30" x="190.869141"/>
      </g>
     </g>
    </g>
    <g id="xtick_8">
     <g id="line2d_15">
      <g>
       <use xlink:href="#m274df28ce9" x="515.438989" y="246.90101" style="stroke: #000000; stroke-width: 0.8"/>
      </g>
     </g>
     <g id="text_19">
      <!-- 9400 -->
      <g transform="translate(497.623989 264.538822) scale(0.14 -0.14)">
       <use xlink:href="#DejaVuSans-39"/>
       <use xlink:href="#DejaVuSans-34" x="63.623047"/>
       <use xlink:href="#DejaVuSans-30" x="127.246094"/>
       <use xlink:href="#DejaVuSans-30" x="190.869141"/>
      </g>
     </g>
    </g>
    <g id="xtick_9">
     <g id="line2d_16">
      <g>
       <use xlink:href="#m274df28ce9" x="574.185658" y="246.90101" style="stroke: #000000; stroke-width: 0.8"/>
      </g>
     </g>
     <g id="text_20">
      <!-- 9600 -->
      <g transform="translate(556.370658 264.538822) scale(0.14 -0.14)">
       <defs>
        <path id="DejaVuSans-36" d="M 2113 2584 
Q 1688 2584 1439 2293 
Q 1191 2003 1191 1497 
Q 1191 994 1439 701 
Q 1688 409 2113 409 
Q 2538 409 2786 701 
Q 3034 994 3034 1497 
Q 3034 2003 2786 2293 
Q 2538 2584 2113 2584 
z
M 3366 4563 
L 3366 3988 
Q 3128 4100 2886 4159 
Q 2644 4219 2406 4219 
Q 1781 4219 1451 3797 
Q 1122 3375 1075 2522 
Q 1259 2794 1537 2939 
Q 1816 3084 2150 3084 
Q 2853 3084 3261 2657 
Q 3669 2231 3669 1497 
Q 3669 778 3244 343 
Q 2819 -91 2113 -91 
Q 1303 -91 875 529 
Q 447 1150 447 2328 
Q 447 3434 972 4092 
Q 1497 4750 2381 4750 
Q 2619 4750 2861 4703 
Q 3103 4656 3366 4563 
z
" transform="scale(0.015625)"/>
       </defs>
       <use xlink:href="#DejaVuSans-39"/>
       <use xlink:href="#DejaVuSans-36" x="63.623047"/>
       <use xlink:href="#DejaVuSans-30" x="127.246094"/>
       <use xlink:href="#DejaVuSans-30" x="190.869141"/>
      </g>
     </g>
    </g>
    <g id="text_21">
     <!-- $E_2$ [MPa] -->
     <g transform="translate(431.19582 282.088197) scale(0.14 -0.14)">
      <use xlink:href="#DejaVuSans-Oblique-45" transform="translate(0 0.015625)"/>
      <use xlink:href="#DejaVuSans-32" transform="translate(63.183594 -16.390625) scale(0.7)"/>
      <use xlink:href="#DejaVuSans-20" transform="translate(110.454102 0.015625)"/>
      <use xlink:href="#DejaVuSans-5b" transform="translate(142.241211 0.015625)"/>
      <use xlink:href="#DejaVuSans-4d" transform="translate(181.254883 0.015625)"/>
      <use xlink:href="#DejaVuSans-50" transform="translate(267.53418 0.015625)"/>
      <use xlink:href="#DejaVuSans-61" transform="translate(327.836914 0.015625)"/>
      <use xlink:href="#DejaVuSans-5d" transform="translate(389.116211 0.015625)"/>
     </g>
    </g>
   </g>
   <g id="matplotlib.axis_4">
    <g id="ytick_6">
     <g id="line2d_17">
      <g>
       <use xlink:href="#m2a43689dfe" x="339.511106" y="246.90101" style="stroke: #000000; stroke-width: 0.8"/>
      </g>
     </g>
     <g id="text_22">
      <!-- 0.000 -->
      <g transform="translate(292.431731 252.219916) scale(0.14 -0.14)">
       <use xlink:href="#DejaVuSans-30"/>
       <use xlink:href="#DejaVuSans-2e" x="63.623047"/>
       <use xlink:href="#DejaVuSans-30" x="95.410156"/>
       <use xlink:href="#DejaVuSans-30" x="159.033203"/>
       <use xlink:href="#DejaVuSans-30" x="222.65625"/>
      </g>
     </g>
    </g>
    <g id="ytick_7">
     <g id="line2d_18">
      <g>
       <use xlink:href="#m2a43689dfe" x="339.511106" y="195.641792" style="stroke: #000000; stroke-width: 0.8"/>
      </g>
     </g>
     <g id="text_23">
      <!-- 0.001 -->
      <g transform="translate(292.431731 200.960699) scale(0.14 -0.14)">
       <use xlink:href="#DejaVuSans-30"/>
       <use xlink:href="#DejaVuSans-2e" x="63.623047"/>
       <use xlink:href="#DejaVuSans-30" x="95.410156"/>
       <use xlink:href="#DejaVuSans-30" x="159.033203"/>
       <use xlink:href="#DejaVuSans-31" x="222.65625"/>
      </g>
     </g>
    </g>
    <g id="ytick_8">
     <g id="line2d_19">
      <g>
       <use xlink:href="#m2a43689dfe" x="339.511106" y="144.382575" style="stroke: #000000; stroke-width: 0.8"/>
      </g>
     </g>
     <g id="text_24">
      <!-- 0.002 -->
      <g transform="translate(292.431731 149.701481) scale(0.14 -0.14)">
       <use xlink:href="#DejaVuSans-30"/>
       <use xlink:href="#DejaVuSans-2e" x="63.623047"/>
       <use xlink:href="#DejaVuSans-30" x="95.410156"/>
       <use xlink:href="#DejaVuSans-30" x="159.033203"/>
       <use xlink:href="#DejaVuSans-32" x="222.65625"/>
      </g>
     </g>
    </g>
    <g id="ytick_9">
     <g id="line2d_20">
      <g>
       <use xlink:href="#m2a43689dfe" x="339.511106" y="93.123357" style="stroke: #000000; stroke-width: 0.8"/>
      </g>
     </g>
     <g id="text_25">
      <!-- 0.003 -->
      <g transform="translate(292.431731 98.442263) scale(0.14 -0.14)">
       <use xlink:href="#DejaVuSans-30"/>
       <use xlink:href="#DejaVuSans-2e" x="63.623047"/>
       <use xlink:href="#DejaVuSans-30" x="95.410156"/>
       <use xlink:href="#DejaVuSans-30" x="159.033203"/>
       <use xlink:href="#DejaVuSans-33" x="222.65625"/>
      </g>
     </g>
    </g>
    <g id="ytick_10">
     <g id="line2d_21">
      <g>
       <use xlink:href="#m2a43689dfe" x="339.511106" y="41.864139" style="stroke: #000000; stroke-width: 0.8"/>
      </g>
     </g>
     <g id="text_26">
      <!-- 0.004 -->
      <g transform="translate(292.431731 47.183045) scale(0.14 -0.14)">
       <use xlink:href="#DejaVuSans-30"/>
       <use xlink:href="#DejaVuSans-2e" x="63.623047"/>
       <use xlink:href="#DejaVuSans-30" x="95.410156"/>
       <use xlink:href="#DejaVuSans-30" x="159.033203"/>
       <use xlink:href="#DejaVuSans-34" x="222.65625"/>
      </g>
     </g>
    </g>
   </g>
   <g id="line2d_22">
    <path d="M 365.634984 244.629279 
L 367.415186 244.181304 
L 369.195388 243.656929 
L 370.97559 243.045637 
L 372.755793 242.335958 
L 374.535995 241.515461 
L 376.316197 240.570787 
L 378.096399 239.487689 
L 379.876601 238.251104 
L 381.656803 236.845253 
L 383.437005 235.253772 
L 385.217207 233.459875 
L 386.997409 231.446554 
L 388.777611 229.19681 
L 390.557813 226.693925 
L 392.338015 223.921761 
L 394.118218 220.865098 
L 395.89842 217.509997 
L 397.678622 213.844188 
L 399.458824 209.857473 
L 401.239026 205.542147 
L 403.019228 200.893415 
L 404.79943 195.909807 
L 406.579632 190.59357 
L 408.359834 184.951039 
L 410.140036 178.992965 
L 411.920238 172.734791 
L 413.70044 166.196864 
L 415.480643 159.404576 
L 417.260845 152.388423 
L 419.041047 145.183963 
L 420.821249 137.831683 
L 422.601451 130.376759 
L 424.381653 122.86871 
L 426.161855 115.360938 
L 427.942057 107.910181 
L 429.722259 100.575849 
L 431.502461 93.419285 
L 433.282663 86.502944 
L 435.062865 79.889509 
L 436.843068 73.640963 
L 438.62327 67.817635 
L 440.403472 62.477235 
L 442.183674 57.673907 
L 443.963876 53.45732 
L 445.744078 49.871811 
L 447.52428 46.955613 
L 449.304482 44.740174 
L 451.084684 43.249594 
L 452.864886 42.500188 
L 454.645088 42.500188 
L 456.42529 43.249594 
L 458.205492 44.740174 
L 459.985695 46.955613 
L 461.765897 49.871811 
L 463.546099 53.45732 
L 465.326301 57.673907 
L 467.106503 62.477235 
L 468.886705 67.817635 
L 470.666907 73.640963 
L 472.447109 79.889509 
L 474.227311 86.502944 
L 476.007513 93.419285 
L 477.787715 100.575849 
L 479.567917 107.910181 
L 481.34812 115.360938 
L 483.128322 122.86871 
L 484.908524 130.376759 
L 486.688726 137.831683 
L 488.468928 145.183963 
L 490.24913 152.388423 
L 492.029332 159.404576 
L 493.809534 166.196864 
L 495.589736 172.734791 
L 497.369938 178.992965 
L 499.15014 184.951039 
L 500.930342 190.59357 
L 502.710545 195.909807 
L 504.490747 200.893415 
L 506.270949 205.542147 
L 508.051151 209.857473 
L 509.831353 213.844188 
L 511.611555 217.509997 
L 513.391757 220.865098 
L 515.171959 223.921761 
L 516.952161 226.693925 
L 518.732363 229.19681 
L 520.512565 231.446554 
L 522.292767 233.459875 
L 524.07297 235.253772 
L 525.853172 236.845253 
L 527.633374 238.251104 
L 529.413576 239.487689 
L 531.193778 240.570787 
L 532.97398 241.515461 
L 534.754182 242.335958 
L 536.534384 243.045637 
L 538.314586 243.656929 
L 540.094788 244.181304 
L 541.87499 244.629279 
" clip-path="url(#pe8ccee6f9f)" style="fill: none; stroke: #2ca02c; stroke-width: 1.5; stroke-linecap: square"/>
   </g>
   <g id="patch_70">
    <path d="M 339.511106 246.90101 
L 339.511106 16.638052 
" style="fill: none; stroke: #000000; stroke-width: 0.8; stroke-linejoin: miter; stroke-linecap: square"/>
   </g>
   <g id="patch_71">
    <path d="M 582.940534 246.90101 
L 582.940534 16.638052 
" style="fill: none; stroke: #000000; stroke-width: 0.8; stroke-linejoin: miter; stroke-linecap: square"/>
   </g>
   <g id="patch_72">
    <path d="M 339.511106 246.90101 
L 582.940534 246.90101 
" style="fill: none; stroke: #000000; stroke-width: 0.8; stroke-linejoin: miter; stroke-linecap: square"/>
   </g>
   <g id="patch_73">
    <path d="M 339.511106 16.638052 
L 582.940534 16.638052 
" style="fill: none; stroke: #000000; stroke-width: 0.8; stroke-linejoin: miter; stroke-linecap: square"/>
   </g>
  </g>
  <g id="axes_3">
   <g id="patch_74">
    <path d="M 622.816143 246.90101 
L 866.24557 246.90101 
L 866.24557 16.638052 
L 622.816143 16.638052 
z
" style="fill: #ffffff"/>
   </g>
   <g id="patch_75">
    <path d="M 633.881117 246.90101 
L 640.542305 246.90101 
L 640.542305 246.512641 
L 633.881117 246.512641 
z
" clip-path="url(#pf886db05aa)" style="fill: #1f77b4"/>
   </g>
   <g id="patch_76">
    <path d="M 641.282437 246.90101 
L 647.943626 246.90101 
L 647.943626 246.124272 
L 641.282437 246.124272 
z
" clip-path="url(#pf886db05aa)" style="fill: #1f77b4"/>
   </g>
   <g id="patch_77">
    <path d="M 648.683758 246.90101 
L 655.344946 246.90101 
L 655.344946 244.959165 
L 648.683758 244.959165 
z
" clip-path="url(#pf886db05aa)" style="fill: #1f77b4"/>
   </g>
   <g id="patch_78">
    <path d="M 656.085078 246.90101 
L 662.746266 246.90101 
L 662.746266 242.240582 
L 656.085078 242.240582 
z
" clip-path="url(#pf886db05aa)" style="fill: #1f77b4"/>
   </g>
   <g id="patch_79">
    <path d="M 663.486398 246.90101 
L 670.147587 246.90101 
L 670.147587 243.01732 
L 663.486398 243.01732 
z
" clip-path="url(#pf886db05aa)" style="fill: #1f77b4"/>
   </g>
   <g id="patch_80">
    <path d="M 670.887719 246.90101 
L 677.548907 246.90101 
L 677.548907 231.754618 
L 670.887719 231.754618 
z
" clip-path="url(#pf886db05aa)" style="fill: #1f77b4"/>
   </g>
   <g id="patch_81">
    <path d="M 678.289039 246.90101 
L 684.950227 246.90101 
L 684.950227 225.929083 
L 678.289039 225.929083 
z
" clip-path="url(#pf886db05aa)" style="fill: #1f77b4"/>
   </g>
   <g id="patch_82">
    <path d="M 685.69036 246.90101 
L 692.351548 246.90101 
L 692.351548 203.015311 
L 685.69036 203.015311 
z
" clip-path="url(#pf886db05aa)" style="fill: #1f77b4"/>
   </g>
   <g id="patch_83">
    <path d="M 693.09168 246.90101 
L 699.752868 246.90101 
L 699.752868 186.315443 
L 693.09168 186.315443 
z
" clip-path="url(#pf886db05aa)" style="fill: #1f77b4"/>
   </g>
   <g id="patch_84">
    <path d="M 700.493 246.90101 
L 707.154189 246.90101 
L 707.154189 159.129612 
L 700.493 159.129612 
z
" clip-path="url(#pf886db05aa)" style="fill: #1f77b4"/>
   </g>
   <g id="patch_85">
    <path d="M 707.894321 246.90101 
L 714.555509 246.90101 
L 714.555509 139.322792 
L 707.894321 139.322792 
z
" clip-path="url(#pf886db05aa)" style="fill: #1f77b4"/>
   </g>
   <g id="patch_86">
    <path d="M 715.295641 246.90101 
L 721.956829 246.90101 
L 721.956829 100.48589 
L 715.295641 100.48589 
z
" clip-path="url(#pf886db05aa)" style="fill: #1f77b4"/>
   </g>
   <g id="patch_87">
    <path d="M 722.696961 246.90101 
L 729.35815 246.90101 
L 729.35815 65.144309 
L 722.696961 65.144309 
z
" clip-path="url(#pf886db05aa)" style="fill: #1f77b4"/>
   </g>
   <g id="patch_88">
    <path d="M 730.098282 246.90101 
L 736.75947 246.90101 
L 736.75947 55.435084 
L 730.098282 55.435084 
z
" clip-path="url(#pf886db05aa)" style="fill: #1f77b4"/>
   </g>
   <g id="patch_89">
    <path d="M 737.499602 246.90101 
L 744.160791 246.90101 
L 744.160791 40.677061 
L 737.499602 40.677061 
z
" clip-path="url(#pf886db05aa)" style="fill: #1f77b4"/>
   </g>
   <g id="patch_90">
    <path d="M 744.900923 246.90101 
L 751.562111 246.90101 
L 751.562111 42.618906 
L 744.900923 42.618906 
z
" clip-path="url(#pf886db05aa)" style="fill: #1f77b4"/>
   </g>
   <g id="patch_91">
    <path d="M 752.302243 246.90101 
L 758.963431 246.90101 
L 758.963431 67.086154 
L 752.302243 67.086154 
z
" clip-path="url(#pf886db05aa)" style="fill: #1f77b4"/>
   </g>
   <g id="patch_92">
    <path d="M 759.703563 246.90101 
L 766.364752 246.90101 
L 766.364752 97.378938 
L 759.703563 97.378938 
z
" clip-path="url(#pf886db05aa)" style="fill: #1f77b4"/>
   </g>
   <g id="patch_93">
    <path d="M 767.104884 246.90101 
L 773.766072 246.90101 
L 773.766072 117.962496 
L 767.104884 117.962496 
z
" clip-path="url(#pf886db05aa)" style="fill: #1f77b4"/>
   </g>
   <g id="patch_94">
    <path d="M 774.506204 246.90101 
L 781.167392 246.90101 
L 781.167392 167.285361 
L 774.506204 167.285361 
z
" clip-path="url(#pf886db05aa)" style="fill: #1f77b4"/>
   </g>
   <g id="patch_95">
    <path d="M 781.907524 246.90101 
L 788.568713 246.90101 
L 788.568713 197.189776 
L 781.907524 197.189776 
z
" clip-path="url(#pf886db05aa)" style="fill: #1f77b4"/>
   </g>
   <g id="patch_96">
    <path d="M 789.308845 246.90101 
L 795.970033 246.90101 
L 795.970033 213.501274 
L 789.308845 213.501274 
z
" clip-path="url(#pf886db05aa)" style="fill: #1f77b4"/>
   </g>
   <g id="patch_97">
    <path d="M 796.710165 246.90101 
L 803.371354 246.90101 
L 803.371354 227.09419 
L 796.710165 227.09419 
z
" clip-path="url(#pf886db05aa)" style="fill: #1f77b4"/>
   </g>
   <g id="patch_98">
    <path d="M 804.111486 246.90101 
L 810.772674 246.90101 
L 810.772674 237.191785 
L 804.111486 237.191785 
z
" clip-path="url(#pf886db05aa)" style="fill: #1f77b4"/>
   </g>
   <g id="patch_99">
    <path d="M 811.512806 246.90101 
L 818.173994 246.90101 
L 818.173994 238.356892 
L 811.512806 238.356892 
z
" clip-path="url(#pf886db05aa)" style="fill: #1f77b4"/>
   </g>
   <g id="patch_100">
    <path d="M 818.914126 246.90101 
L 825.575315 246.90101 
L 825.575315 243.794058 
L 818.914126 243.794058 
z
" clip-path="url(#pf886db05aa)" style="fill: #1f77b4"/>
   </g>
   <g id="patch_101">
    <path d="M 826.315447 246.90101 
L 832.976635 246.90101 
L 832.976635 245.735903 
L 826.315447 245.735903 
z
" clip-path="url(#pf886db05aa)" style="fill: #1f77b4"/>
   </g>
   <g id="patch_102">
    <path d="M 833.716767 246.90101 
L 840.377956 246.90101 
L 840.377956 246.512641 
L 833.716767 246.512641 
z
" clip-path="url(#pf886db05aa)" style="fill: #1f77b4"/>
   </g>
   <g id="patch_103">
    <path d="M 841.118088 246.90101 
L 847.779276 246.90101 
L 847.779276 246.90101 
L 841.118088 246.90101 
z
" clip-path="url(#pf886db05aa)" style="fill: #1f77b4"/>
   </g>
   <g id="patch_104">
    <path d="M 848.519408 246.90101 
L 855.180596 246.90101 
L 855.180596 246.512641 
L 848.519408 246.512641 
z
" clip-path="url(#pf886db05aa)" style="fill: #1f77b4"/>
   </g>
   <g id="matplotlib.axis_5">
    <g id="xtick_10">
     <g id="line2d_23">
      <g>
       <use xlink:href="#m274df28ce9" x="633.351967" y="246.90101" style="stroke: #000000; stroke-width: 0.8"/>
      </g>
     </g>
     <g id="text_27">
      <!-- 0.30 -->
      <g transform="translate(617.766029 264.538822) scale(0.14 -0.14)">
       <use xlink:href="#DejaVuSans-30"/>
       <use xlink:href="#DejaVuSans-2e" x="63.623047"/>
       <use xlink:href="#DejaVuSans-33" x="95.410156"/>
       <use xlink:href="#DejaVuSans-30" x="159.033203"/>
      </g>
     </g>
    </g>
    <g id="xtick_11">
     <g id="line2d_24">
      <g>
       <use xlink:href="#m274df28ce9" x="685.619219" y="246.90101" style="stroke: #000000; stroke-width: 0.8"/>
      </g>
     </g>
     <g id="text_28">
      <!-- 0.32 -->
      <g transform="translate(670.033281 264.538822) scale(0.14 -0.14)">
       <use xlink:href="#DejaVuSans-30"/>
       <use xlink:href="#DejaVuSans-2e" x="63.623047"/>
       <use xlink:href="#DejaVuSans-33" x="95.410156"/>
       <use xlink:href="#DejaVuSans-32" x="159.033203"/>
      </g>
     </g>
    </g>
    <g id="xtick_12">
     <g id="line2d_25">
      <g>
       <use xlink:href="#m274df28ce9" x="737.886471" y="246.90101" style="stroke: #000000; stroke-width: 0.8"/>
      </g>
     </g>
     <g id="text_29">
      <!-- 0.34 -->
      <g transform="translate(722.300533 264.538822) scale(0.14 -0.14)">
       <use xlink:href="#DejaVuSans-30"/>
       <use xlink:href="#DejaVuSans-2e" x="63.623047"/>
       <use xlink:href="#DejaVuSans-33" x="95.410156"/>
       <use xlink:href="#DejaVuSans-34" x="159.033203"/>
      </g>
     </g>
    </g>
    <g id="xtick_13">
     <g id="line2d_26">
      <g>
       <use xlink:href="#m274df28ce9" x="790.153723" y="246.90101" style="stroke: #000000; stroke-width: 0.8"/>
      </g>
     </g>
     <g id="text_30">
      <!-- 0.36 -->
      <g transform="translate(774.567785 264.538822) scale(0.14 -0.14)">
       <use xlink:href="#DejaVuSans-30"/>
       <use xlink:href="#DejaVuSans-2e" x="63.623047"/>
       <use xlink:href="#DejaVuSans-33" x="95.410156"/>
       <use xlink:href="#DejaVuSans-36" x="159.033203"/>
      </g>
     </g>
    </g>
    <g id="xtick_14">
     <g id="line2d_27">
      <g>
       <use xlink:href="#m274df28ce9" x="842.420975" y="246.90101" style="stroke: #000000; stroke-width: 0.8"/>
      </g>
     </g>
     <g id="text_31">
      <!-- 0.38 -->
      <g transform="translate(826.835037 264.538822) scale(0.14 -0.14)">
       <defs>
        <path id="DejaVuSans-38" d="M 2034 2216 
Q 1584 2216 1326 1975 
Q 1069 1734 1069 1313 
Q 1069 891 1326 650 
Q 1584 409 2034 409 
Q 2484 409 2743 651 
Q 3003 894 3003 1313 
Q 3003 1734 2745 1975 
Q 2488 2216 2034 2216 
z
M 1403 2484 
Q 997 2584 770 2862 
Q 544 3141 544 3541 
Q 544 4100 942 4425 
Q 1341 4750 2034 4750 
Q 2731 4750 3128 4425 
Q 3525 4100 3525 3541 
Q 3525 3141 3298 2862 
Q 3072 2584 2669 2484 
Q 3125 2378 3379 2068 
Q 3634 1759 3634 1313 
Q 3634 634 3220 271 
Q 2806 -91 2034 -91 
Q 1263 -91 848 271 
Q 434 634 434 1313 
Q 434 1759 690 2068 
Q 947 2378 1403 2484 
z
M 1172 3481 
Q 1172 3119 1398 2916 
Q 1625 2713 2034 2713 
Q 2441 2713 2670 2916 
Q 2900 3119 2900 3481 
Q 2900 3844 2670 4047 
Q 2441 4250 2034 4250 
Q 1625 4250 1398 4047 
Q 1172 3844 1172 3481 
z
" transform="scale(0.015625)"/>
       </defs>
       <use xlink:href="#DejaVuSans-30"/>
       <use xlink:href="#DejaVuSans-2e" x="63.623047"/>
       <use xlink:href="#DejaVuSans-33" x="95.410156"/>
       <use xlink:href="#DejaVuSans-38" x="159.033203"/>
      </g>
     </g>
    </g>
    <g id="text_32">
     <!-- $\nu_{12}$ [-] -->
     <g transform="translate(723.950857 282.088197) scale(0.14 -0.14)">
      <defs>
       <path id="DejaVuSans-Oblique-3bd" d="M 959 0 
L 572 3500 
L 1191 3500 
L 1522 563 
Q 1972 950 2391 1488 
Q 2706 1891 2788 2241 
Q 2825 2406 2809 2719 
Q 2794 3091 2544 3500 
L 3125 3500 
L 3125 3500 
Q 3288 3222 3353 2834 
Q 3416 2478 3369 2234 
Q 3250 1622 2719 1075 
Q 2025 363 1572 0 
L 959 0 
z
" transform="scale(0.015625)"/>
       <path id="DejaVuSans-2d" d="M 313 2009 
L 1997 2009 
L 1997 1497 
L 313 1497 
L 313 2009 
z
" transform="scale(0.015625)"/>
      </defs>
      <use xlink:href="#DejaVuSans-Oblique-3bd" transform="translate(0 0.015625)"/>
      <use xlink:href="#DejaVuSans-31" transform="translate(55.859375 -16.390625) scale(0.7)"/>
      <use xlink:href="#DejaVuSans-32" transform="translate(100.395508 -16.390625) scale(0.7)"/>
      <use xlink:href="#DejaVuSans-20" transform="translate(147.666016 0.015625)"/>
      <use xlink:href="#DejaVuSans-5b" transform="translate(179.453125 0.015625)"/>
      <use xlink:href="#DejaVuSans-2d" transform="translate(218.466797 0.015625)"/>
      <use xlink:href="#DejaVuSans-5d" transform="translate(254.550781 0.015625)"/>
     </g>
    </g>
   </g>
   <g id="matplotlib.axis_6">
    <g id="ytick_11">
     <g id="line2d_28">
      <g>
       <use xlink:href="#m2a43689dfe" x="622.816143" y="246.90101" style="stroke: #000000; stroke-width: 0.8"/>
      </g>
     </g>
     <g id="text_33">
      <!-- 0 -->
      <g transform="translate(606.908643 252.219916) scale(0.14 -0.14)">
       <use xlink:href="#DejaVuSans-30"/>
      </g>
     </g>
    </g>
    <g id="ytick_12">
     <g id="line2d_29">
      <g>
       <use xlink:href="#m2a43689dfe" x="622.816143" y="191.905895" style="stroke: #000000; stroke-width: 0.8"/>
      </g>
     </g>
     <g id="text_34">
      <!-- 10 -->
      <g transform="translate(598.001143 197.224801) scale(0.14 -0.14)">
       <use xlink:href="#DejaVuSans-31"/>
       <use xlink:href="#DejaVuSans-30" x="63.623047"/>
      </g>
     </g>
    </g>
    <g id="ytick_13">
     <g id="line2d_30">
      <g>
       <use xlink:href="#m2a43689dfe" x="622.816143" y="136.91078" style="stroke: #000000; stroke-width: 0.8"/>
      </g>
     </g>
     <g id="text_35">
      <!-- 20 -->
      <g transform="translate(598.001143 142.229686) scale(0.14 -0.14)">
       <use xlink:href="#DejaVuSans-32"/>
       <use xlink:href="#DejaVuSans-30" x="63.623047"/>
      </g>
     </g>
    </g>
    <g id="ytick_14">
     <g id="line2d_31">
      <g>
       <use xlink:href="#m2a43689dfe" x="622.816143" y="81.915665" style="stroke: #000000; stroke-width: 0.8"/>
      </g>
     </g>
     <g id="text_36">
      <!-- 30 -->
      <g transform="translate(598.001143 87.234571) scale(0.14 -0.14)">
       <use xlink:href="#DejaVuSans-33"/>
       <use xlink:href="#DejaVuSans-30" x="63.623047"/>
      </g>
     </g>
    </g>
    <g id="ytick_15">
     <g id="line2d_32">
      <g>
       <use xlink:href="#m2a43689dfe" x="622.816143" y="26.92055" style="stroke: #000000; stroke-width: 0.8"/>
      </g>
     </g>
     <g id="text_37">
      <!-- 40 -->
      <g transform="translate(598.001143 32.239456) scale(0.14 -0.14)">
       <use xlink:href="#DejaVuSans-34"/>
       <use xlink:href="#DejaVuSans-30" x="63.623047"/>
      </g>
     </g>
    </g>
   </g>
   <g id="line2d_33">
    <path d="M 659.485593 244.46371 
L 661.069449 243.983086 
L 662.653305 243.420492 
L 664.237161 242.764648 
L 665.821017 242.003245 
L 667.404873 241.122949 
L 668.988729 240.109425 
L 670.572585 238.947388 
L 672.156442 237.620678 
L 673.740298 236.112365 
L 675.324154 234.404892 
L 676.90801 232.480252 
L 678.491866 230.320195 
L 680.075722 227.906485 
L 681.659578 225.221183 
L 683.243434 222.246977 
L 684.827291 218.967537 
L 686.411147 215.367908 
L 687.995003 211.434926 
L 689.578859 207.157649 
L 691.162715 202.527812 
L 692.746571 197.540269 
L 694.330427 192.193443 
L 695.914283 186.489745 
L 697.49814 180.435973 
L 699.081996 174.043661 
L 700.665852 167.329375 
L 702.249708 160.314948 
L 703.833564 153.027622 
L 705.41742 145.500114 
L 707.001276 137.770575 
L 708.585132 129.882443 
L 710.168989 121.884187 
L 711.752845 113.828932 
L 713.336701 105.773976 
L 714.920557 97.780189 
L 716.504413 89.911313 
L 718.088269 82.233161 
L 719.672125 74.81274 
L 721.255981 67.717302 
L 722.839838 61.013347 
L 724.423694 54.765601 
L 726.00755 49.035979 
L 727.591406 43.882573 
L 729.175262 39.35867 
L 730.759118 35.511841 
L 732.342974 32.383103 
L 733.92683 30.006197 
L 735.510687 28.40698 
L 737.094543 27.602955 
L 738.678399 27.602955 
L 740.262255 28.40698 
L 741.846111 30.006197 
L 743.429967 32.383103 
L 745.013823 35.511841 
L 746.597679 39.35867 
L 748.181535 43.882573 
L 749.765392 49.035979 
L 751.349248 54.765601 
L 752.933104 61.013347 
L 754.51696 67.717302 
L 756.100816 74.81274 
L 757.684672 82.233161 
L 759.268528 89.911313 
L 760.852384 97.780189 
L 762.436241 105.773976 
L 764.020097 113.828932 
L 765.603953 121.884187 
L 767.187809 129.882443 
L 768.771665 137.770575 
L 770.355521 145.500114 
L 771.939377 153.027622 
L 773.523233 160.314948 
L 775.10709 167.329375 
L 776.690946 174.043661 
L 778.274802 180.435973 
L 779.858658 186.489745 
L 781.442514 192.193443 
L 783.02637 197.540269 
L 784.610226 202.527812 
L 786.194082 207.157649 
L 787.777939 211.434926 
L 789.361795 215.367908 
L 790.945651 218.967537 
L 792.529507 222.246977 
L 794.113363 225.221183 
L 795.697219 227.906485 
L 797.281075 230.320195 
L 798.864931 232.480252 
L 800.448788 234.404892 
L 802.032644 236.112365 
L 803.6165 237.620678 
L 805.200356 238.947388 
L 806.784212 240.109425 
L 808.368068 241.122949 
L 809.951924 242.003245 
L 811.53578 242.764648 
L 813.119637 243.420492 
L 814.703493 243.983086 
L 816.287349 244.46371 
" clip-path="url(#pf886db05aa)" style="fill: none; stroke: #2ca02c; stroke-width: 1.5; stroke-linecap: square"/>
   </g>
   <g id="patch_105">
    <path d="M 622.816143 246.90101 
L 622.816143 16.638052 
" style="fill: none; stroke: #000000; stroke-width: 0.8; stroke-linejoin: miter; stroke-linecap: square"/>
   </g>
   <g id="patch_106">
    <path d="M 866.24557 246.90101 
L 866.24557 16.638052 
" style="fill: none; stroke: #000000; stroke-width: 0.8; stroke-linejoin: miter; stroke-linecap: square"/>
   </g>
   <g id="patch_107">
    <path d="M 622.816143 246.90101 
L 866.24557 246.90101 
" style="fill: none; stroke: #000000; stroke-width: 0.8; stroke-linejoin: miter; stroke-linecap: square"/>
   </g>
   <g id="patch_108">
    <path d="M 622.816143 16.638052 
L 866.24557 16.638052 
" style="fill: none; stroke: #000000; stroke-width: 0.8; stroke-linejoin: miter; stroke-linecap: square"/>
   </g>
  </g>
  <g id="axes_4">
   <g id="patch_109">
    <path d="M 897.06105 246.90101 
L 1140.490478 246.90101 
L 1140.490478 16.638052 
L 897.06105 16.638052 
z
" style="fill: #ffffff"/>
   </g>
   <g id="patch_110">
    <path d="M 908.126024 246.90101 
L 914.787213 246.90101 
L 914.787213 246.127472 
L 908.126024 246.127472 
z
" clip-path="url(#p0a9c7c8173)" style="fill: #1f77b4"/>
   </g>
   <g id="patch_111">
    <path d="M 915.527345 246.90101 
L 922.188533 246.90101 
L 922.188533 246.514241 
L 915.527345 246.514241 
z
" clip-path="url(#p0a9c7c8173)" style="fill: #1f77b4"/>
   </g>
   <g id="patch_112">
    <path d="M 922.928665 246.90101 
L 929.589853 246.90101 
L 929.589853 246.127472 
L 922.928665 246.127472 
z
" clip-path="url(#p0a9c7c8173)" style="fill: #1f77b4"/>
   </g>
   <g id="patch_113">
    <path d="M 930.329985 246.90101 
L 936.991174 246.90101 
L 936.991174 245.353934 
L 930.329985 245.353934 
z
" clip-path="url(#p0a9c7c8173)" style="fill: #1f77b4"/>
   </g>
   <g id="patch_114">
    <path d="M 937.731306 246.90101 
L 944.392494 246.90101 
L 944.392494 244.193627 
L 937.731306 244.193627 
z
" clip-path="url(#p0a9c7c8173)" style="fill: #1f77b4"/>
   </g>
   <g id="patch_115">
    <path d="M 945.132626 246.90101 
L 951.793814 246.90101 
L 951.793814 239.165629 
L 945.132626 239.165629 
z
" clip-path="url(#p0a9c7c8173)" style="fill: #1f77b4"/>
   </g>
   <g id="patch_116">
    <path d="M 952.533947 246.90101 
L 959.195135 246.90101 
L 959.195135 231.430248 
L 952.533947 231.430248 
z
" clip-path="url(#p0a9c7c8173)" style="fill: #1f77b4"/>
   </g>
   <g id="patch_117">
    <path d="M 959.935267 246.90101 
L 966.596455 246.90101 
L 966.596455 217.119793 
L 959.935267 217.119793 
z
" clip-path="url(#p0a9c7c8173)" style="fill: #1f77b4"/>
   </g>
   <g id="patch_118">
    <path d="M 967.336587 246.90101 
L 973.997776 246.90101 
L 973.997776 205.90349 
L 967.336587 205.90349 
z
" clip-path="url(#p0a9c7c8173)" style="fill: #1f77b4"/>
   </g>
   <g id="patch_119">
    <path d="M 974.737908 246.90101 
L 981.399096 246.90101 
L 981.399096 181.15027 
L 974.737908 181.15027 
z
" clip-path="url(#p0a9c7c8173)" style="fill: #1f77b4"/>
   </g>
   <g id="patch_120">
    <path d="M 982.139228 246.90101 
L 988.800416 246.90101 
L 988.800416 137.832136 
L 982.139228 137.832136 
z
" clip-path="url(#p0a9c7c8173)" style="fill: #1f77b4"/>
   </g>
   <g id="patch_121">
    <path d="M 989.540548 246.90101 
L 996.201737 246.90101 
L 996.201737 115.012762 
L 989.540548 115.012762 
z
" clip-path="url(#p0a9c7c8173)" style="fill: #1f77b4"/>
   </g>
   <g id="patch_122">
    <path d="M 996.941869 246.90101 
L 1003.603057 246.90101 
L 1003.603057 74.78878 
L 996.941869 74.78878 
z
" clip-path="url(#p0a9c7c8173)" style="fill: #1f77b4"/>
   </g>
   <g id="patch_123">
    <path d="M 1004.343189 246.90101 
L 1011.004378 246.90101 
L 1011.004378 69.760782 
L 1004.343189 69.760782 
z
" clip-path="url(#p0a9c7c8173)" style="fill: #1f77b4"/>
   </g>
   <g id="patch_124">
    <path d="M 1011.74451 246.90101 
L 1018.405698 246.90101 
L 1018.405698 27.602955 
L 1011.74451 27.602955 
z
" clip-path="url(#p0a9c7c8173)" style="fill: #1f77b4"/>
   </g>
   <g id="patch_125">
    <path d="M 1019.14583 246.90101 
L 1025.807018 246.90101 
L 1025.807018 42.300179 
L 1019.14583 42.300179 
z
" clip-path="url(#p0a9c7c8173)" style="fill: #1f77b4"/>
   </g>
   <g id="patch_126">
    <path d="M 1026.54715 246.90101 
L 1033.208339 246.90101 
L 1033.208339 49.262022 
L 1026.54715 49.262022 
z
" clip-path="url(#p0a9c7c8173)" style="fill: #1f77b4"/>
   </g>
   <g id="patch_127">
    <path d="M 1033.948471 246.90101 
L 1040.609659 246.90101 
L 1040.609659 90.259542 
L 1033.948471 90.259542 
z
" clip-path="url(#p0a9c7c8173)" style="fill: #1f77b4"/>
   </g>
   <g id="patch_128">
    <path d="M 1041.349791 246.90101 
L 1048.010979 246.90101 
L 1048.010979 116.173069 
L 1041.349791 116.173069 
z
" clip-path="url(#p0a9c7c8173)" style="fill: #1f77b4"/>
   </g>
   <g id="patch_129">
    <path d="M 1048.751111 246.90101 
L 1055.4123 246.90101 
L 1055.4123 165.292739 
L 1048.751111 165.292739 
z
" clip-path="url(#p0a9c7c8173)" style="fill: #1f77b4"/>
   </g>
   <g id="patch_130">
    <path d="M 1056.152432 246.90101 
L 1062.81362 246.90101 
L 1062.81362 172.641351 
L 1056.152432 172.641351 
z
" clip-path="url(#p0a9c7c8173)" style="fill: #1f77b4"/>
   </g>
   <g id="patch_131">
    <path d="M 1063.553752 246.90101 
L 1070.214941 246.90101 
L 1070.214941 197.78134 
L 1063.553752 197.78134 
z
" clip-path="url(#p0a9c7c8173)" style="fill: #1f77b4"/>
   </g>
   <g id="patch_132">
    <path d="M 1070.955073 246.90101 
L 1077.616261 246.90101 
L 1077.616261 218.666869 
L 1070.955073 218.666869 
z
" clip-path="url(#p0a9c7c8173)" style="fill: #1f77b4"/>
   </g>
   <g id="patch_133">
    <path d="M 1078.356393 246.90101 
L 1085.017581 246.90101 
L 1085.017581 231.430248 
L 1078.356393 231.430248 
z
" clip-path="url(#p0a9c7c8173)" style="fill: #1f77b4"/>
   </g>
   <g id="patch_134">
    <path d="M 1085.757713 246.90101 
L 1092.418902 246.90101 
L 1092.418902 235.297938 
L 1085.757713 235.297938 
z
" clip-path="url(#p0a9c7c8173)" style="fill: #1f77b4"/>
   </g>
   <g id="patch_135">
    <path d="M 1093.159034 246.90101 
L 1099.820222 246.90101 
L 1099.820222 242.64655 
L 1093.159034 242.64655 
z
" clip-path="url(#p0a9c7c8173)" style="fill: #1f77b4"/>
   </g>
   <g id="patch_136">
    <path d="M 1100.560354 246.90101 
L 1107.221542 246.90101 
L 1107.221542 243.806858 
L 1100.560354 243.806858 
z
" clip-path="url(#p0a9c7c8173)" style="fill: #1f77b4"/>
   </g>
   <g id="patch_137">
    <path d="M 1107.961675 246.90101 
L 1114.622863 246.90101 
L 1114.622863 246.90101 
L 1107.961675 246.90101 
z
" clip-path="url(#p0a9c7c8173)" style="fill: #1f77b4"/>
   </g>
   <g id="patch_138">
    <path d="M 1115.362995 246.90101 
L 1122.024183 246.90101 
L 1122.024183 246.90101 
L 1115.362995 246.90101 
z
" clip-path="url(#p0a9c7c8173)" style="fill: #1f77b4"/>
   </g>
   <g id="patch_139">
    <path d="M 1122.764315 246.90101 
L 1129.425504 246.90101 
L 1129.425504 245.740703 
L 1122.764315 245.740703 
z
" clip-path="url(#p0a9c7c8173)" style="fill: #1f77b4"/>
   </g>
   <g id="matplotlib.axis_7">
    <g id="xtick_15">
     <g id="line2d_34">
      <g>
       <use xlink:href="#m274df28ce9" x="909.77147" y="246.90101" style="stroke: #000000; stroke-width: 0.8"/>
      </g>
     </g>
     <g id="text_38">
      <!-- 0.40 -->
      <g transform="translate(894.185532 264.538822) scale(0.14 -0.14)">
       <use xlink:href="#DejaVuSans-30"/>
       <use xlink:href="#DejaVuSans-2e" x="63.623047"/>
       <use xlink:href="#DejaVuSans-34" x="95.410156"/>
       <use xlink:href="#DejaVuSans-30" x="159.033203"/>
      </g>
     </g>
    </g>
    <g id="xtick_16">
     <g id="line2d_35">
      <g>
       <use xlink:href="#m274df28ce9" x="963.260167" y="246.90101" style="stroke: #000000; stroke-width: 0.8"/>
      </g>
     </g>
     <g id="text_39">
      <!-- 0.42 -->
      <g transform="translate(947.674229 264.538822) scale(0.14 -0.14)">
       <use xlink:href="#DejaVuSans-30"/>
       <use xlink:href="#DejaVuSans-2e" x="63.623047"/>
       <use xlink:href="#DejaVuSans-34" x="95.410156"/>
       <use xlink:href="#DejaVuSans-32" x="159.033203"/>
      </g>
     </g>
    </g>
    <g id="xtick_17">
     <g id="line2d_36">
      <g>
       <use xlink:href="#m274df28ce9" x="1016.748864" y="246.90101" style="stroke: #000000; stroke-width: 0.8"/>
      </g>
     </g>
     <g id="text_40">
      <!-- 0.44 -->
      <g transform="translate(1001.162926 264.538822) scale(0.14 -0.14)">
       <use xlink:href="#DejaVuSans-30"/>
       <use xlink:href="#DejaVuSans-2e" x="63.623047"/>
       <use xlink:href="#DejaVuSans-34" x="95.410156"/>
       <use xlink:href="#DejaVuSans-34" x="159.033203"/>
      </g>
     </g>
    </g>
    <g id="xtick_18">
     <g id="line2d_37">
      <g>
       <use xlink:href="#m274df28ce9" x="1070.237561" y="246.90101" style="stroke: #000000; stroke-width: 0.8"/>
      </g>
     </g>
     <g id="text_41">
      <!-- 0.46 -->
      <g transform="translate(1054.651624 264.538822) scale(0.14 -0.14)">
       <use xlink:href="#DejaVuSans-30"/>
       <use xlink:href="#DejaVuSans-2e" x="63.623047"/>
       <use xlink:href="#DejaVuSans-34" x="95.410156"/>
       <use xlink:href="#DejaVuSans-36" x="159.033203"/>
      </g>
     </g>
    </g>
    <g id="xtick_19">
     <g id="line2d_38">
      <g>
       <use xlink:href="#m274df28ce9" x="1123.726258" y="246.90101" style="stroke: #000000; stroke-width: 0.8"/>
      </g>
     </g>
     <g id="text_42">
      <!-- 0.48 -->
      <g transform="translate(1108.140321 264.538822) scale(0.14 -0.14)">
       <use xlink:href="#DejaVuSans-30"/>
       <use xlink:href="#DejaVuSans-2e" x="63.623047"/>
       <use xlink:href="#DejaVuSans-34" x="95.410156"/>
       <use xlink:href="#DejaVuSans-38" x="159.033203"/>
      </g>
     </g>
    </g>
    <g id="text_43">
     <!-- $\nu_{23}$ [-] -->
     <g transform="translate(998.195764 282.088197) scale(0.14 -0.14)">
      <use xlink:href="#DejaVuSans-Oblique-3bd" transform="translate(0 0.015625)"/>
      <use xlink:href="#DejaVuSans-32" transform="translate(55.859375 -16.390625) scale(0.7)"/>
      <use xlink:href="#DejaVuSans-33" transform="translate(100.395508 -16.390625) scale(0.7)"/>
      <use xlink:href="#DejaVuSans-20" transform="translate(147.666016 0.015625)"/>
      <use xlink:href="#DejaVuSans-5b" transform="translate(179.453125 0.015625)"/>
      <use xlink:href="#DejaVuSans-2d" transform="translate(218.466797 0.015625)"/>
      <use xlink:href="#DejaVuSans-5d" transform="translate(254.550781 0.015625)"/>
     </g>
    </g>
   </g>
   <g id="matplotlib.axis_8">
    <g id="ytick_16">
     <g id="line2d_39">
      <g>
       <use xlink:href="#m2a43689dfe" x="897.06105" y="246.90101" style="stroke: #000000; stroke-width: 0.8"/>
      </g>
     </g>
     <g id="text_44">
      <!-- 0 -->
      <g transform="translate(881.15355 252.219916) scale(0.14 -0.14)">
       <use xlink:href="#DejaVuSans-30"/>
      </g>
     </g>
    </g>
    <g id="ytick_17">
     <g id="line2d_40">
      <g>
       <use xlink:href="#m2a43689dfe" x="897.06105" y="193.383129" style="stroke: #000000; stroke-width: 0.8"/>
      </g>
     </g>
     <g id="text_45">
      <!-- 10 -->
      <g transform="translate(872.24605 198.702036) scale(0.14 -0.14)">
       <use xlink:href="#DejaVuSans-31"/>
       <use xlink:href="#DejaVuSans-30" x="63.623047"/>
      </g>
     </g>
    </g>
    <g id="ytick_18">
     <g id="line2d_41">
      <g>
       <use xlink:href="#m2a43689dfe" x="897.06105" y="139.865249" style="stroke: #000000; stroke-width: 0.8"/>
      </g>
     </g>
     <g id="text_46">
      <!-- 20 -->
      <g transform="translate(872.24605 145.184155) scale(0.14 -0.14)">
       <use xlink:href="#DejaVuSans-32"/>
       <use xlink:href="#DejaVuSans-30" x="63.623047"/>
      </g>
     </g>
    </g>
    <g id="ytick_19">
     <g id="line2d_42">
      <g>
       <use xlink:href="#m2a43689dfe" x="897.06105" y="86.347368" style="stroke: #000000; stroke-width: 0.8"/>
      </g>
     </g>
     <g id="text_47">
      <!-- 30 -->
      <g transform="translate(872.24605 91.666275) scale(0.14 -0.14)">
       <use xlink:href="#DejaVuSans-33"/>
       <use xlink:href="#DejaVuSans-30" x="63.623047"/>
      </g>
     </g>
    </g>
    <g id="ytick_20">
     <g id="line2d_43">
      <g>
       <use xlink:href="#m2a43689dfe" x="897.06105" y="32.829488" style="stroke: #000000; stroke-width: 0.8"/>
      </g>
     </g>
     <g id="text_48">
      <!-- 40 -->
      <g transform="translate(872.24605 38.148394) scale(0.14 -0.14)">
       <use xlink:href="#DejaVuSans-34"/>
       <use xlink:href="#DejaVuSans-30" x="63.623047"/>
      </g>
     </g>
    </g>
   </g>
   <g id="line2d_44">
    <path d="M 936.515818 244.529179 
L 938.136688 244.061464 
L 939.757558 243.513983 
L 941.378427 242.875756 
L 942.999297 242.134805 
L 944.620166 241.278155 
L 946.241036 240.291855 
L 947.861906 239.161032 
L 949.482775 237.869959 
L 951.103645 236.402161 
L 952.724515 234.740553 
L 954.345384 232.867611 
L 955.966254 230.765576 
L 957.587123 228.4167 
L 959.207993 225.803529 
L 960.828863 222.909213 
L 962.449732 219.717863 
L 964.070602 216.214925 
L 965.691471 212.387587 
L 967.312341 208.225203 
L 968.933211 203.719729 
L 970.55408 198.866158 
L 972.17495 193.662954 
L 973.795819 188.112464 
L 975.416689 182.221303 
L 977.037559 176.000696 
L 978.658428 169.466764 
L 980.279298 162.640753 
L 981.900167 155.549173 
L 983.521037 148.223864 
L 985.141907 140.701949 
L 986.762776 133.025702 
L 988.383646 125.242288 
L 990.004515 117.403407 
L 991.625385 109.564817 
L 993.246255 101.785753 
L 994.867124 94.128244 
L 996.487994 86.656336 
L 998.108864 79.435236 
L 999.729733 72.53039 
L 1001.350603 66.006511 
L 1002.971472 59.926587 
L 1004.592342 54.35087 
L 1006.213212 49.33589 
L 1007.834081 44.933505 
L 1009.454951 41.190006 
L 1011.07582 38.14531 
L 1012.69669 35.832251 
L 1014.31756 34.275991 
L 1015.938429 33.493563 
L 1017.559299 33.493563 
L 1019.180168 34.275991 
L 1020.801038 35.832251 
L 1022.421908 38.14531 
L 1024.042777 41.190006 
L 1025.663647 44.933505 
L 1027.284516 49.33589 
L 1028.905386 54.35087 
L 1030.526256 59.926587 
L 1032.147125 66.006511 
L 1033.767995 72.53039 
L 1035.388864 79.435236 
L 1037.009734 86.656336 
L 1038.630604 94.128244 
L 1040.251473 101.785753 
L 1041.872343 109.564817 
L 1043.493212 117.403407 
L 1045.114082 125.242288 
L 1046.734952 133.025702 
L 1048.355821 140.701949 
L 1049.976691 148.223864 
L 1051.597561 155.549173 
L 1053.21843 162.640753 
L 1054.8393 169.466764 
L 1056.460169 176.000696 
L 1058.081039 182.221303 
L 1059.701909 188.112464 
L 1061.322778 193.662954 
L 1062.943648 198.866158 
L 1064.564517 203.719729 
L 1066.185387 208.225203 
L 1067.806257 212.387587 
L 1069.427126 216.214925 
L 1071.047996 219.717863 
L 1072.668865 222.909213 
L 1074.289735 225.803529 
L 1075.910605 228.4167 
L 1077.531474 230.765576 
L 1079.152344 232.867611 
L 1080.773213 234.740553 
L 1082.394083 236.402161 
L 1084.014953 237.869959 
L 1085.635822 239.161032 
L 1087.256692 240.291855 
L 1088.877561 241.278155 
L 1090.498431 242.134805 
L 1092.119301 242.875756 
L 1093.74017 243.513983 
L 1095.36104 244.061464 
L 1096.98191 244.529179 
" clip-path="url(#p0a9c7c8173)" style="fill: none; stroke: #2ca02c; stroke-width: 1.5; stroke-linecap: square"/>
   </g>
   <g id="patch_140">
    <path d="M 897.06105 246.90101 
L 897.06105 16.638052 
" style="fill: none; stroke: #000000; stroke-width: 0.8; stroke-linejoin: miter; stroke-linecap: square"/>
   </g>
   <g id="patch_141">
    <path d="M 1140.490478 246.90101 
L 1140.490478 16.638052 
" style="fill: none; stroke: #000000; stroke-width: 0.8; stroke-linejoin: miter; stroke-linecap: square"/>
   </g>
   <g id="patch_142">
    <path d="M 897.06105 246.90101 
L 1140.490478 246.90101 
" style="fill: none; stroke: #000000; stroke-width: 0.8; stroke-linejoin: miter; stroke-linecap: square"/>
   </g>
   <g id="patch_143">
    <path d="M 897.06105 16.638052 
L 1140.490478 16.638052 
" style="fill: none; stroke: #000000; stroke-width: 0.8; stroke-linejoin: miter; stroke-linecap: square"/>
   </g>
  </g>
  <g id="axes_5">
   <g id="patch_144">
    <path d="M 1193.570333 246.90101 
L 1436.99976 246.90101 
L 1436.99976 16.638052 
L 1193.570333 16.638052 
z
" style="fill: #ffffff"/>
   </g>
   <g id="patch_145">
    <path d="M 1204.635307 246.90101 
L 1211.296495 246.90101 
L 1211.296495 246.091223 
L 1204.635307 246.091223 
z
" clip-path="url(#p1ced77e68b)" style="fill: #1f77b4"/>
   </g>
   <g id="patch_146">
    <path d="M 1212.036627 246.90101 
L 1218.697815 246.90101 
L 1218.697815 246.496117 
L 1212.036627 246.496117 
z
" clip-path="url(#p1ced77e68b)" style="fill: #1f77b4"/>
   </g>
   <g id="patch_147">
    <path d="M 1219.437947 246.90101 
L 1226.099136 246.90101 
L 1226.099136 243.661863 
L 1219.437947 243.661863 
z
" clip-path="url(#p1ced77e68b)" style="fill: #1f77b4"/>
   </g>
   <g id="patch_148">
    <path d="M 1226.839268 246.90101 
L 1233.500456 246.90101 
L 1233.500456 244.471649 
L 1226.839268 244.471649 
z
" clip-path="url(#p1ced77e68b)" style="fill: #1f77b4"/>
   </g>
   <g id="patch_149">
    <path d="M 1234.240588 246.90101 
L 1240.901776 246.90101 
L 1240.901776 235.563994 
L 1234.240588 235.563994 
z
" clip-path="url(#p1ced77e68b)" style="fill: #1f77b4"/>
   </g>
   <g id="patch_150">
    <path d="M 1241.641909 246.90101 
L 1248.303097 246.90101 
L 1248.303097 233.94442 
L 1241.641909 233.94442 
z
" clip-path="url(#p1ced77e68b)" style="fill: #1f77b4"/>
   </g>
   <g id="patch_151">
    <path d="M 1249.043229 246.90101 
L 1255.704417 246.90101 
L 1255.704417 218.963364 
L 1249.043229 218.963364 
z
" clip-path="url(#p1ced77e68b)" style="fill: #1f77b4"/>
   </g>
   <g id="patch_152">
    <path d="M 1256.444549 246.90101 
L 1263.105738 246.90101 
L 1263.105738 189.811037 
L 1256.444549 189.811037 
z
" clip-path="url(#p1ced77e68b)" style="fill: #1f77b4"/>
   </g>
   <g id="patch_153">
    <path d="M 1263.84587 246.90101 
L 1270.507058 246.90101 
L 1270.507058 162.683178 
L 1263.84587 162.683178 
z
" clip-path="url(#p1ced77e68b)" style="fill: #1f77b4"/>
   </g>
   <g id="patch_154">
    <path d="M 1271.24719 246.90101 
L 1277.908378 246.90101 
L 1277.908378 144.867867 
L 1271.24719 144.867867 
z
" clip-path="url(#p1ced77e68b)" style="fill: #1f77b4"/>
   </g>
   <g id="patch_155">
    <path d="M 1278.64851 246.90101 
L 1285.309699 246.90101 
L 1285.309699 105.593205 
L 1278.64851 105.593205 
z
" clip-path="url(#p1ced77e68b)" style="fill: #1f77b4"/>
   </g>
   <g id="patch_156">
    <path d="M 1286.049831 246.90101 
L 1292.711019 246.90101 
L 1292.711019 95.875763 
L 1286.049831 95.875763 
z
" clip-path="url(#p1ced77e68b)" style="fill: #1f77b4"/>
   </g>
   <g id="patch_157">
    <path d="M 1293.451151 246.90101 
L 1300.11234 246.90101 
L 1300.11234 41.215151 
L 1293.451151 41.215151 
z
" clip-path="url(#p1ced77e68b)" style="fill: #1f77b4"/>
   </g>
   <g id="patch_158">
    <path d="M 1300.852472 246.90101 
L 1307.51366 246.90101 
L 1307.51366 35.14175 
L 1300.852472 35.14175 
z
" clip-path="url(#p1ced77e68b)" style="fill: #1f77b4"/>
   </g>
   <g id="patch_159">
    <path d="M 1308.253792 246.90101 
L 1314.91498 246.90101 
L 1314.91498 31.092816 
L 1308.253792 31.092816 
z
" clip-path="url(#p1ced77e68b)" style="fill: #1f77b4"/>
   </g>
   <g id="patch_160">
    <path d="M 1315.655112 246.90101 
L 1322.316301 246.90101 
L 1322.316301 64.294076 
L 1315.655112 64.294076 
z
" clip-path="url(#p1ced77e68b)" style="fill: #1f77b4"/>
   </g>
   <g id="patch_161">
    <path d="M 1323.056433 246.90101 
L 1329.717621 246.90101 
L 1329.717621 82.109387 
L 1323.056433 82.109387 
z
" clip-path="url(#p1ced77e68b)" style="fill: #1f77b4"/>
   </g>
   <g id="patch_162">
    <path d="M 1330.457753 246.90101 
L 1337.118941 246.90101 
L 1337.118941 97.090443 
L 1330.457753 97.090443 
z
" clip-path="url(#p1ced77e68b)" style="fill: #1f77b4"/>
   </g>
   <g id="patch_163">
    <path d="M 1337.859073 246.90101 
L 1344.520262 246.90101 
L 1344.520262 145.272761 
L 1337.859073 145.272761 
z
" clip-path="url(#p1ced77e68b)" style="fill: #1f77b4"/>
   </g>
   <g id="patch_164">
    <path d="M 1345.260394 246.90101 
L 1351.921582 246.90101 
L 1351.921582 171.590833 
L 1345.260394 171.590833 
z
" clip-path="url(#p1ced77e68b)" style="fill: #1f77b4"/>
   </g>
   <g id="patch_165">
    <path d="M 1352.661714 246.90101 
L 1359.322903 246.90101 
L 1359.322903 199.123586 
L 1352.661714 199.123586 
z
" clip-path="url(#p1ced77e68b)" style="fill: #1f77b4"/>
   </g>
   <g id="patch_166">
    <path d="M 1360.063035 246.90101 
L 1366.724223 246.90101 
L 1366.724223 214.104643 
L 1360.063035 214.104643 
z
" clip-path="url(#p1ced77e68b)" style="fill: #1f77b4"/>
   </g>
   <g id="patch_167">
    <path d="M 1367.464355 246.90101 
L 1374.125543 246.90101 
L 1374.125543 227.871019 
L 1367.464355 227.871019 
z
" clip-path="url(#p1ced77e68b)" style="fill: #1f77b4"/>
   </g>
   <g id="patch_168">
    <path d="M 1374.865675 246.90101 
L 1381.526864 246.90101 
L 1381.526864 233.134634 
L 1374.865675 233.134634 
z
" clip-path="url(#p1ced77e68b)" style="fill: #1f77b4"/>
   </g>
   <g id="patch_169">
    <path d="M 1382.266996 246.90101 
L 1388.928184 246.90101 
L 1388.928184 244.066756 
L 1382.266996 244.066756 
z
" clip-path="url(#p1ced77e68b)" style="fill: #1f77b4"/>
   </g>
   <g id="patch_170">
    <path d="M 1389.668316 246.90101 
L 1396.329504 246.90101 
L 1396.329504 242.852076 
L 1389.668316 242.852076 
z
" clip-path="url(#p1ced77e68b)" style="fill: #1f77b4"/>
   </g>
   <g id="patch_171">
    <path d="M 1397.069637 246.90101 
L 1403.730825 246.90101 
L 1403.730825 245.281436 
L 1397.069637 245.281436 
z
" clip-path="url(#p1ced77e68b)" style="fill: #1f77b4"/>
   </g>
   <g id="patch_172">
    <path d="M 1404.470957 246.90101 
L 1411.132145 246.90101 
L 1411.132145 246.90101 
L 1404.470957 246.90101 
z
" clip-path="url(#p1ced77e68b)" style="fill: #1f77b4"/>
   </g>
   <g id="patch_173">
    <path d="M 1411.872277 246.90101 
L 1418.533466 246.90101 
L 1418.533466 246.90101 
L 1411.872277 246.90101 
z
" clip-path="url(#p1ced77e68b)" style="fill: #1f77b4"/>
   </g>
   <g id="patch_174">
    <path d="M 1419.273598 246.90101 
L 1425.934786 246.90101 
L 1425.934786 246.496117 
L 1419.273598 246.496117 
z
" clip-path="url(#p1ced77e68b)" style="fill: #1f77b4"/>
   </g>
   <g id="matplotlib.axis_9">
    <g id="xtick_20">
     <g id="line2d_45">
      <g>
       <use xlink:href="#m274df28ce9" x="1226.108699" y="246.90101" style="stroke: #000000; stroke-width: 0.8"/>
      </g>
     </g>
     <g id="text_49">
      <!-- 4800 -->
      <g transform="translate(1208.293699 264.538822) scale(0.14 -0.14)">
       <use xlink:href="#DejaVuSans-34"/>
       <use xlink:href="#DejaVuSans-38" x="63.623047"/>
       <use xlink:href="#DejaVuSans-30" x="127.246094"/>
       <use xlink:href="#DejaVuSans-30" x="190.869141"/>
      </g>
     </g>
    </g>
    <g id="xtick_21">
     <g id="line2d_46">
      <g>
       <use xlink:href="#m274df28ce9" x="1303.95317" y="246.90101" style="stroke: #000000; stroke-width: 0.8"/>
      </g>
     </g>
     <g id="text_50">
      <!-- 5000 -->
      <g transform="translate(1286.13817 264.538822) scale(0.14 -0.14)">
       <use xlink:href="#DejaVuSans-35"/>
       <use xlink:href="#DejaVuSans-30" x="63.623047"/>
       <use xlink:href="#DejaVuSans-30" x="127.246094"/>
       <use xlink:href="#DejaVuSans-30" x="190.869141"/>
      </g>
     </g>
    </g>
    <g id="xtick_22">
     <g id="line2d_47">
      <g>
       <use xlink:href="#m274df28ce9" x="1381.797641" y="246.90101" style="stroke: #000000; stroke-width: 0.8"/>
      </g>
     </g>
     <g id="text_51">
      <!-- 5200 -->
      <g transform="translate(1363.982641 264.538822) scale(0.14 -0.14)">
       <use xlink:href="#DejaVuSans-35"/>
       <use xlink:href="#DejaVuSans-32" x="63.623047"/>
       <use xlink:href="#DejaVuSans-30" x="127.246094"/>
       <use xlink:href="#DejaVuSans-30" x="190.869141"/>
      </g>
     </g>
    </g>
    <g id="text_52">
     <!-- $G_{12}$ [MPa] -->
     <g transform="translate(1281.195046 282.088197) scale(0.14 -0.14)">
      <defs>
       <path id="DejaVuSans-Oblique-47" d="M 3494 697 
L 3738 1919 
L 2700 1919 
L 2797 2438 
L 4453 2438 
L 4050 384 
Q 3634 156 3143 32 
Q 2653 -91 2156 -91 
Q 1278 -91 783 396 
Q 288 884 288 1753 
Q 288 2475 589 3126 
Q 891 3778 1422 4213 
Q 1756 4484 2153 4617 
Q 2550 4750 3034 4750 
Q 3472 4750 3873 4639 
Q 4275 4528 4641 4306 
L 4513 3634 
Q 4231 3928 3853 4083 
Q 3475 4238 3047 4238 
Q 2550 4238 2172 4048 
Q 1794 3859 1497 3463 
Q 1244 3125 1098 2667 
Q 953 2209 953 1734 
Q 953 1081 1287 751 
Q 1622 422 2284 422 
Q 2616 422 2925 492 
Q 3234 563 3494 697 
z
" transform="scale(0.015625)"/>
      </defs>
      <use xlink:href="#DejaVuSans-Oblique-47" transform="translate(0 0.015625)"/>
      <use xlink:href="#DejaVuSans-31" transform="translate(77.490234 -16.390625) scale(0.7)"/>
      <use xlink:href="#DejaVuSans-32" transform="translate(122.026367 -16.390625) scale(0.7)"/>
      <use xlink:href="#DejaVuSans-20" transform="translate(169.296875 0.015625)"/>
      <use xlink:href="#DejaVuSans-5b" transform="translate(201.083984 0.015625)"/>
      <use xlink:href="#DejaVuSans-4d" transform="translate(240.097656 0.015625)"/>
      <use xlink:href="#DejaVuSans-50" transform="translate(326.376953 0.015625)"/>
      <use xlink:href="#DejaVuSans-61" transform="translate(386.679688 0.015625)"/>
      <use xlink:href="#DejaVuSans-5d" transform="translate(447.958984 0.015625)"/>
     </g>
    </g>
   </g>
   <g id="matplotlib.axis_10">
    <g id="ytick_21">
     <g id="line2d_48">
      <g>
       <use xlink:href="#m2a43689dfe" x="1193.570333" y="246.90101" style="stroke: #000000; stroke-width: 0.8"/>
      </g>
     </g>
     <g id="text_53">
      <!-- 0.000 -->
      <g transform="translate(1146.490958 252.219916) scale(0.14 -0.14)">
       <use xlink:href="#DejaVuSans-30"/>
       <use xlink:href="#DejaVuSans-2e" x="63.623047"/>
       <use xlink:href="#DejaVuSans-30" x="95.410156"/>
       <use xlink:href="#DejaVuSans-30" x="159.033203"/>
       <use xlink:href="#DejaVuSans-30" x="222.65625"/>
      </g>
     </g>
    </g>
    <g id="ytick_22">
     <g id="line2d_49">
      <g>
       <use xlink:href="#m2a43689dfe" x="1193.570333" y="208.40443" style="stroke: #000000; stroke-width: 0.8"/>
      </g>
     </g>
     <g id="text_54">
      <!-- 0.001 -->
      <g transform="translate(1146.490958 213.723336) scale(0.14 -0.14)">
       <use xlink:href="#DejaVuSans-30"/>
       <use xlink:href="#DejaVuSans-2e" x="63.623047"/>
       <use xlink:href="#DejaVuSans-30" x="95.410156"/>
       <use xlink:href="#DejaVuSans-30" x="159.033203"/>
       <use xlink:href="#DejaVuSans-31" x="222.65625"/>
      </g>
     </g>
    </g>
    <g id="ytick_23">
     <g id="line2d_50">
      <g>
       <use xlink:href="#m2a43689dfe" x="1193.570333" y="169.907849" style="stroke: #000000; stroke-width: 0.8"/>
      </g>
     </g>
     <g id="text_55">
      <!-- 0.002 -->
      <g transform="translate(1146.490958 175.226755) scale(0.14 -0.14)">
       <use xlink:href="#DejaVuSans-30"/>
       <use xlink:href="#DejaVuSans-2e" x="63.623047"/>
       <use xlink:href="#DejaVuSans-30" x="95.410156"/>
       <use xlink:href="#DejaVuSans-30" x="159.033203"/>
       <use xlink:href="#DejaVuSans-32" x="222.65625"/>
      </g>
     </g>
    </g>
    <g id="ytick_24">
     <g id="line2d_51">
      <g>
       <use xlink:href="#m2a43689dfe" x="1193.570333" y="131.411269" style="stroke: #000000; stroke-width: 0.8"/>
      </g>
     </g>
     <g id="text_56">
      <!-- 0.003 -->
      <g transform="translate(1146.490958 136.730175) scale(0.14 -0.14)">
       <use xlink:href="#DejaVuSans-30"/>
       <use xlink:href="#DejaVuSans-2e" x="63.623047"/>
       <use xlink:href="#DejaVuSans-30" x="95.410156"/>
       <use xlink:href="#DejaVuSans-30" x="159.033203"/>
       <use xlink:href="#DejaVuSans-33" x="222.65625"/>
      </g>
     </g>
    </g>
    <g id="ytick_25">
     <g id="line2d_52">
      <g>
       <use xlink:href="#m2a43689dfe" x="1193.570333" y="92.914688" style="stroke: #000000; stroke-width: 0.8"/>
      </g>
     </g>
     <g id="text_57">
      <!-- 0.004 -->
      <g transform="translate(1146.490958 98.233594) scale(0.14 -0.14)">
       <use xlink:href="#DejaVuSans-30"/>
       <use xlink:href="#DejaVuSans-2e" x="63.623047"/>
       <use xlink:href="#DejaVuSans-30" x="95.410156"/>
       <use xlink:href="#DejaVuSans-30" x="159.033203"/>
       <use xlink:href="#DejaVuSans-34" x="222.65625"/>
      </g>
     </g>
    </g>
    <g id="ytick_26">
     <g id="line2d_53">
      <g>
       <use xlink:href="#m2a43689dfe" x="1193.570333" y="54.418108" style="stroke: #000000; stroke-width: 0.8"/>
      </g>
     </g>
     <g id="text_58">
      <!-- 0.005 -->
      <g transform="translate(1146.490958 59.737014) scale(0.14 -0.14)">
       <use xlink:href="#DejaVuSans-30"/>
       <use xlink:href="#DejaVuSans-2e" x="63.623047"/>
       <use xlink:href="#DejaVuSans-30" x="95.410156"/>
       <use xlink:href="#DejaVuSans-30" x="159.033203"/>
       <use xlink:href="#DejaVuSans-35" x="222.65625"/>
      </g>
     </g>
    </g>
   </g>
   <g id="line2d_54">
    <path d="M 1245.569817 244.46371 
L 1247.221063 243.983086 
L 1248.87231 243.420492 
L 1250.523556 242.764648 
L 1252.174803 242.003245 
L 1253.826049 241.122949 
L 1255.477295 240.109425 
L 1257.128542 238.947388 
L 1258.779788 237.620678 
L 1260.431034 236.112365 
L 1262.082281 234.404892 
L 1263.733527 232.480252 
L 1265.384773 230.320195 
L 1267.03602 227.906485 
L 1268.687266 225.221183 
L 1270.338512 222.246977 
L 1271.989759 218.967537 
L 1273.641005 215.367908 
L 1275.292252 211.434926 
L 1276.943498 207.157649 
L 1278.594744 202.527812 
L 1280.245991 197.540269 
L 1281.897237 192.193443 
L 1283.548483 186.489745 
L 1285.19973 180.435973 
L 1286.850976 174.043661 
L 1288.502222 167.329375 
L 1290.153469 160.314948 
L 1291.804715 153.027622 
L 1293.455961 145.500114 
L 1295.107208 137.770575 
L 1296.758454 129.882443 
L 1298.4097 121.884187 
L 1300.060947 113.828932 
L 1301.712193 105.773976 
L 1303.36344 97.780189 
L 1305.014686 89.911313 
L 1306.665932 82.233161 
L 1308.317179 74.81274 
L 1309.968425 67.717302 
L 1311.619671 61.013347 
L 1313.270918 54.765601 
L 1314.922164 49.035979 
L 1316.57341 43.882573 
L 1318.224657 39.35867 
L 1319.875903 35.511841 
L 1321.527149 32.383103 
L 1323.178396 30.006197 
L 1324.829642 28.40698 
L 1326.480889 27.602955 
L 1328.132135 27.602955 
L 1329.783381 28.40698 
L 1331.434628 30.006197 
L 1333.085874 32.383103 
L 1334.73712 35.511841 
L 1336.388367 39.35867 
L 1338.039613 43.882573 
L 1339.690859 49.035979 
L 1341.342106 54.765601 
L 1342.993352 61.013347 
L 1344.644598 67.717302 
L 1346.295845 74.81274 
L 1347.947091 82.233161 
L 1349.598338 89.911313 
L 1351.249584 97.780189 
L 1352.90083 105.773976 
L 1354.552077 113.828932 
L 1356.203323 121.884187 
L 1357.854569 129.882443 
L 1359.505816 137.770575 
L 1361.157062 145.500114 
L 1362.808308 153.027622 
L 1364.459555 160.314948 
L 1366.110801 167.329375 
L 1367.762047 174.043661 
L 1369.413294 180.435973 
L 1371.06454 186.489745 
L 1372.715787 192.193443 
L 1374.367033 197.540269 
L 1376.018279 202.527812 
L 1377.669526 207.157649 
L 1379.320772 211.434926 
L 1380.972018 215.367908 
L 1382.623265 218.967537 
L 1384.274511 222.246977 
L 1385.925757 225.221183 
L 1387.577004 227.906485 
L 1389.22825 230.320195 
L 1390.879496 232.480252 
L 1392.530743 234.404892 
L 1394.181989 236.112365 
L 1395.833236 237.620678 
L 1397.484482 238.947388 
L 1399.135728 240.109425 
L 1400.786975 241.122949 
L 1402.438221 242.003245 
L 1404.089467 242.764648 
L 1405.740714 243.420492 
L 1407.39196 243.983086 
L 1409.043206 244.46371 
" clip-path="url(#p1ced77e68b)" style="fill: none; stroke: #2ca02c; stroke-width: 1.5; stroke-linecap: square"/>
   </g>
   <g id="patch_175">
    <path d="M 1193.570333 246.90101 
L 1193.570333 16.638052 
" style="fill: none; stroke: #000000; stroke-width: 0.8; stroke-linejoin: miter; stroke-linecap: square"/>
   </g>
   <g id="patch_176">
    <path d="M 1436.99976 246.90101 
L 1436.99976 16.638052 
" style="fill: none; stroke: #000000; stroke-width: 0.8; stroke-linejoin: miter; stroke-linecap: square"/>
   </g>
   <g id="patch_177">
    <path d="M 1193.570333 246.90101 
L 1436.99976 246.90101 
" style="fill: none; stroke: #000000; stroke-width: 0.8; stroke-linejoin: miter; stroke-linecap: square"/>
   </g>
   <g id="patch_178">
    <path d="M 1193.570333 16.638052 
L 1436.99976 16.638052 
" style="fill: none; stroke: #000000; stroke-width: 0.8; stroke-linejoin: miter; stroke-linecap: square"/>
   </g>
  </g>
 </g>
 <defs>
  <clipPath id="p4bca69b7bc">
   <rect x="36.457115" y="16.638052" width="243.429427" height="230.262958"/>
  </clipPath>
  <clipPath id="pe8ccee6f9f">
   <rect x="339.511106" y="16.638052" width="243.429427" height="230.262958"/>
  </clipPath>
  <clipPath id="pf886db05aa">
   <rect x="622.816143" y="16.638052" width="243.429427" height="230.262958"/>
  </clipPath>
  <clipPath id="p0a9c7c8173">
   <rect x="897.06105" y="16.638052" width="243.429427" height="230.262958"/>
  </clipPath>
  <clipPath id="p1ced77e68b">
   <rect x="1193.570333" y="16.638052" width="243.429427" height="230.262958"/>
  </clipPath>
 </defs>
</svg>
