<?xml version="1.0" encoding="utf-8" standalone="no"?>
<!DOCTYPE svg PUBLIC "-//W3C//DTD SVG 1.1//EN"
  "http://www.w3.org/Graphics/SVG/1.1/DTD/svg11.dtd">
<svg xmlns:xlink="http://www.w3.org/1999/xlink" width="1440pt" height="288pt" viewBox="0 0 1440 288" xmlns="http://www.w3.org/2000/svg" version="1.1">
 <metadata>
  <rdf:RDF xmlns:dc="http://purl.org/dc/elements/1.1/" xmlns:cc="http://creativecommons.org/ns#" xmlns:rdf="http://www.w3.org/1999/02/22-rdf-syntax-ns#">
   <cc:Work>
    <dc:type rdf:resource="http://purl.org/dc/dcmitype/StillImage"/>
    <dc:date>2024-11-24T11:22:57.614207</dc:date>
    <dc:format>image/svg+xml</dc:format>
    <dc:creator>
     <cc:Agent>
      <dc:title>Matplotlib v3.9.2, https://matplotlib.org/</dc:title>
     </cc:Agent>
    </dc:creator>
   </cc:Work>
  </rdf:RDF>
 </metadata>
 <defs>
  <style type="text/css">*{stroke-linejoin: round; stroke-linecap: butt}</style>
 </defs>
 <g id="figure_1">
  <g id="patch_1">
   <path d="M 0 288 
L 1440 288 
L 1440 0 
L 0 0 
z
" style="fill: #ffffff"/>
  </g>
  <g id="axes_1">
   <g id="patch_2">
    <path d="M 36.457115 246.90101 
L 280.217095 246.90101 
L 280.217095 16.638052 
L 36.457115 16.638052 
z
" style="fill: #ffffff"/>
   </g>
   <g id="patch_3">
    <path d="M 47.537114 246.90101 
L 49.784535 246.90101 
L 49.784535 245.282574 
L 47.537114 245.282574 
z
" clip-path="url(#p3bc5a974f9)" style="fill: #1f77b4"/>
   </g>
   <g id="patch_4">
    <path d="M 50.034248 246.90101 
L 52.281669 246.90101 
L 52.281669 245.687183 
L 50.034248 245.687183 
z
" clip-path="url(#p3bc5a974f9)" style="fill: #1f77b4"/>
   </g>
   <g id="patch_5">
    <path d="M 52.531382 246.90101 
L 54.778803 246.90101 
L 54.778803 245.282574 
L 52.531382 245.282574 
z
" clip-path="url(#p3bc5a974f9)" style="fill: #1f77b4"/>
   </g>
   <g id="patch_6">
    <path d="M 55.028517 246.90101 
L 57.275937 246.90101 
L 57.275937 240.427267 
L 55.028517 240.427267 
z
" clip-path="url(#p3bc5a974f9)" style="fill: #1f77b4"/>
   </g>
   <g id="patch_7">
    <path d="M 57.525651 246.90101 
L 59.773072 246.90101 
L 59.773072 237.999613 
L 57.525651 237.999613 
z
" clip-path="url(#p3bc5a974f9)" style="fill: #1f77b4"/>
   </g>
   <g id="patch_8">
    <path d="M 60.022785 246.90101 
L 62.270206 246.90101 
L 62.270206 235.16735 
L 60.022785 235.16735 
z
" clip-path="url(#p3bc5a974f9)" style="fill: #1f77b4"/>
   </g>
   <g id="patch_9">
    <path d="M 62.519919 246.90101 
L 64.76734 246.90101 
L 64.76734 214.936902 
L 62.519919 214.936902 
z
" clip-path="url(#p3bc5a974f9)" style="fill: #1f77b4"/>
   </g>
   <g id="patch_10">
    <path d="M 65.017053 246.90101 
L 67.264474 246.90101 
L 67.264474 195.111063 
L 65.017053 195.111063 
z
" clip-path="url(#p3bc5a974f9)" style="fill: #1f77b4"/>
   </g>
   <g id="patch_11">
    <path d="M 67.514188 246.90101 
L 69.761608 246.90101 
L 69.761608 168.002263 
L 67.514188 168.002263 
z
" clip-path="url(#p3bc5a974f9)" style="fill: #1f77b4"/>
   </g>
   <g id="patch_12">
    <path d="M 70.011322 246.90101 
L 72.258743 246.90101 
L 72.258743 142.511899 
L 70.011322 142.511899 
z
" clip-path="url(#p3bc5a974f9)" style="fill: #1f77b4"/>
   </g>
   <g id="patch_13">
    <path d="M 72.508456 246.90101 
L 74.755877 246.90101 
L 74.755877 104.478657 
L 72.508456 104.478657 
z
" clip-path="url(#p3bc5a974f9)" style="fill: #1f77b4"/>
   </g>
   <g id="patch_14">
    <path d="M 75.00559 246.90101 
L 77.253011 246.90101 
L 77.253011 53.902537 
L 75.00559 53.902537 
z
" clip-path="url(#p3bc5a974f9)" style="fill: #1f77b4"/>
   </g>
   <g id="patch_15">
    <path d="M 77.502724 246.90101 
L 79.750145 246.90101 
L 79.750145 34.885916 
L 77.502724 34.885916 
z
" clip-path="url(#p3bc5a974f9)" style="fill: #1f77b4"/>
   </g>
   <g id="patch_16">
    <path d="M 79.999859 246.90101 
L 82.247279 246.90101 
L 82.247279 27.602955 
L 79.999859 27.602955 
z
" clip-path="url(#p3bc5a974f9)" style="fill: #1f77b4"/>
   </g>
   <g id="patch_17">
    <path d="M 82.496993 246.90101 
L 84.744414 246.90101 
L 84.744414 32.862872 
L 82.496993 32.862872 
z
" clip-path="url(#p3bc5a974f9)" style="fill: #1f77b4"/>
   </g>
   <g id="patch_18">
    <path d="M 84.994127 246.90101 
L 87.241548 246.90101 
L 87.241548 58.353236 
L 84.994127 58.353236 
z
" clip-path="url(#p3bc5a974f9)" style="fill: #1f77b4"/>
   </g>
   <g id="patch_19">
    <path d="M 87.491261 246.90101 
L 89.738682 246.90101 
L 89.738682 94.768042 
L 87.491261 94.768042 
z
" clip-path="url(#p3bc5a974f9)" style="fill: #1f77b4"/>
   </g>
   <g id="patch_20">
    <path d="M 89.988395 246.90101 
L 92.235816 246.90101 
L 92.235816 108.120138 
L 89.988395 108.120138 
z
" clip-path="url(#p3bc5a974f9)" style="fill: #1f77b4"/>
   </g>
   <g id="patch_21">
    <path d="M 92.48553 246.90101 
L 94.73295 246.90101 
L 94.73295 167.193045 
L 92.48553 167.193045 
z
" clip-path="url(#p3bc5a974f9)" style="fill: #1f77b4"/>
   </g>
   <g id="patch_22">
    <path d="M 94.982664 246.90101 
L 97.230085 246.90101 
L 97.230085 180.545141 
L 94.982664 180.545141 
z
" clip-path="url(#p3bc5a974f9)" style="fill: #1f77b4"/>
   </g>
   <g id="patch_23">
    <path d="M 97.479798 246.90101 
L 99.727219 246.90101 
L 99.727219 203.607852 
L 97.479798 203.607852 
z
" clip-path="url(#p3bc5a974f9)" style="fill: #1f77b4"/>
   </g>
   <g id="patch_24">
    <path d="M 99.976932 246.90101 
L 102.224353 246.90101 
L 102.224353 216.150729 
L 99.976932 216.150729 
z
" clip-path="url(#p3bc5a974f9)" style="fill: #1f77b4"/>
   </g>
   <g id="patch_25">
    <path d="M 102.474066 246.90101 
L 104.721487 246.90101 
L 104.721487 226.670562 
L 102.474066 226.670562 
z
" clip-path="url(#p3bc5a974f9)" style="fill: #1f77b4"/>
   </g>
   <g id="patch_26">
    <path d="M 104.971201 246.90101 
L 107.218621 246.90101 
L 107.218621 237.190395 
L 104.971201 237.190395 
z
" clip-path="url(#p3bc5a974f9)" style="fill: #1f77b4"/>
   </g>
   <g id="patch_27">
    <path d="M 107.468335 246.90101 
L 109.715756 246.90101 
L 109.715756 240.427267 
L 107.468335 240.427267 
z
" clip-path="url(#p3bc5a974f9)" style="fill: #1f77b4"/>
   </g>
   <g id="patch_28">
    <path d="M 109.965469 246.90101 
L 112.21289 246.90101 
L 112.21289 244.877965 
L 109.965469 244.877965 
z
" clip-path="url(#p3bc5a974f9)" style="fill: #1f77b4"/>
   </g>
   <g id="patch_29">
    <path d="M 112.462603 246.90101 
L 114.710024 246.90101 
L 114.710024 244.068747 
L 112.462603 244.068747 
z
" clip-path="url(#p3bc5a974f9)" style="fill: #1f77b4"/>
   </g>
   <g id="patch_30">
    <path d="M 114.959737 246.90101 
L 117.207158 246.90101 
L 117.207158 244.877965 
L 114.959737 244.877965 
z
" clip-path="url(#p3bc5a974f9)" style="fill: #1f77b4"/>
   </g>
   <g id="patch_31">
    <path d="M 117.456872 246.90101 
L 119.704292 246.90101 
L 119.704292 246.496401 
L 117.456872 246.496401 
z
" clip-path="url(#p3bc5a974f9)" style="fill: #1f77b4"/>
   </g>
   <g id="patch_32">
    <path d="M 119.954006 246.90101 
L 122.201427 246.90101 
L 122.201427 246.496401 
L 119.954006 246.496401 
z
" clip-path="url(#p3bc5a974f9)" style="fill: #1f77b4"/>
   </g>
   <g id="matplotlib.axis_1">
    <g id="xtick_1">
     <g id="line2d_1">
      <defs>
       <path id="mdc00101e93" d="M 0 0 
L 0 3.5 
" style="stroke: #000000; stroke-width: 0.8"/>
      </defs>
      <g>
       <use xlink:href="#mdc00101e93" x="74.952934" y="246.90101" style="stroke: #000000; stroke-width: 0.8"/>
      </g>
     </g>
     <g id="text_1">
      <!-- 1.35 -->
      <g transform="translate(59.366997 264.538822) scale(0.14 -0.14)">
       <defs>
        <path id="DejaVuSans-31" d="M 794 531 
L 1825 531 
L 1825 4091 
L 703 3866 
L 703 4441 
L 1819 4666 
L 2450 4666 
L 2450 531 
L 3481 531 
L 3481 0 
L 794 0 
L 794 531 
z
" transform="scale(0.015625)"/>
        <path id="DejaVuSans-2e" d="M 684 794 
L 1344 794 
L 1344 0 
L 684 0 
L 684 794 
z
" transform="scale(0.015625)"/>
        <path id="DejaVuSans-33" d="M 2597 2516 
Q 3050 2419 3304 2112 
Q 3559 1806 3559 1356 
Q 3559 666 3084 287 
Q 2609 -91 1734 -91 
Q 1441 -91 1130 -33 
Q 819 25 488 141 
L 488 750 
Q 750 597 1062 519 
Q 1375 441 1716 441 
Q 2309 441 2620 675 
Q 2931 909 2931 1356 
Q 2931 1769 2642 2001 
Q 2353 2234 1838 2234 
L 1294 2234 
L 1294 2753 
L 1863 2753 
Q 2328 2753 2575 2939 
Q 2822 3125 2822 3475 
Q 2822 3834 2567 4026 
Q 2313 4219 1838 4219 
Q 1578 4219 1281 4162 
Q 984 4106 628 3988 
L 628 4550 
Q 988 4650 1302 4700 
Q 1616 4750 1894 4750 
Q 2613 4750 3031 4423 
Q 3450 4097 3450 3541 
Q 3450 3153 3228 2886 
Q 3006 2619 2597 2516 
z
" transform="scale(0.015625)"/>
        <path id="DejaVuSans-35" d="M 691 4666 
L 3169 4666 
L 3169 4134 
L 1269 4134 
L 1269 2991 
Q 1406 3038 1543 3061 
Q 1681 3084 1819 3084 
Q 2600 3084 3056 2656 
Q 3513 2228 3513 1497 
Q 3513 744 3044 326 
Q 2575 -91 1722 -91 
Q 1428 -91 1123 -41 
Q 819 9 494 109 
L 494 744 
Q 775 591 1075 516 
Q 1375 441 1709 441 
Q 2250 441 2565 725 
Q 2881 1009 2881 1497 
Q 2881 1984 2565 2268 
Q 2250 2553 1709 2553 
Q 1456 2553 1204 2497 
Q 953 2441 691 2322 
L 691 4666 
z
" transform="scale(0.015625)"/>
       </defs>
       <use xlink:href="#DejaVuSans-31"/>
       <use xlink:href="#DejaVuSans-2e" x="63.623047"/>
       <use xlink:href="#DejaVuSans-33" x="95.410156"/>
       <use xlink:href="#DejaVuSans-35" x="159.033203"/>
      </g>
     </g>
    </g>
    <g id="xtick_2">
     <g id="line2d_2">
      <g>
       <use xlink:href="#mdc00101e93" x="123.989339" y="246.90101" style="stroke: #000000; stroke-width: 0.8"/>
      </g>
     </g>
     <g id="text_2">
      <!-- 1.40 -->
      <g transform="translate(108.403401 264.538822) scale(0.14 -0.14)">
       <defs>
        <path id="DejaVuSans-34" d="M 2419 4116 
L 825 1625 
L 2419 1625 
L 2419 4116 
z
M 2253 4666 
L 3047 4666 
L 3047 1625 
L 3713 1625 
L 3713 1100 
L 3047 1100 
L 3047 0 
L 2419 0 
L 2419 1100 
L 313 1100 
L 313 1709 
L 2253 4666 
z
" transform="scale(0.015625)"/>
        <path id="DejaVuSans-30" d="M 2034 4250 
Q 1547 4250 1301 3770 
Q 1056 3291 1056 2328 
Q 1056 1369 1301 889 
Q 1547 409 2034 409 
Q 2525 409 2770 889 
Q 3016 1369 3016 2328 
Q 3016 3291 2770 3770 
Q 2525 4250 2034 4250 
z
M 2034 4750 
Q 2819 4750 3233 4129 
Q 3647 3509 3647 2328 
Q 3647 1150 3233 529 
Q 2819 -91 2034 -91 
Q 1250 -91 836 529 
Q 422 1150 422 2328 
Q 422 3509 836 4129 
Q 1250 4750 2034 4750 
z
" transform="scale(0.015625)"/>
       </defs>
       <use xlink:href="#DejaVuSans-31"/>
       <use xlink:href="#DejaVuSans-2e" x="63.623047"/>
       <use xlink:href="#DejaVuSans-34" x="95.410156"/>
       <use xlink:href="#DejaVuSans-30" x="159.033203"/>
      </g>
     </g>
    </g>
    <g id="xtick_3">
     <g id="line2d_3">
      <g>
       <use xlink:href="#mdc00101e93" x="173.025743" y="246.90101" style="stroke: #000000; stroke-width: 0.8"/>
      </g>
     </g>
     <g id="text_3">
      <!-- 1.45 -->
      <g transform="translate(157.439806 264.538822) scale(0.14 -0.14)">
       <use xlink:href="#DejaVuSans-31"/>
       <use xlink:href="#DejaVuSans-2e" x="63.623047"/>
       <use xlink:href="#DejaVuSans-34" x="95.410156"/>
       <use xlink:href="#DejaVuSans-35" x="159.033203"/>
      </g>
     </g>
    </g>
    <g id="xtick_4">
     <g id="line2d_4">
      <g>
       <use xlink:href="#mdc00101e93" x="222.062147" y="246.90101" style="stroke: #000000; stroke-width: 0.8"/>
      </g>
     </g>
     <g id="text_4">
      <!-- 1.50 -->
      <g transform="translate(206.47621 264.538822) scale(0.14 -0.14)">
       <use xlink:href="#DejaVuSans-31"/>
       <use xlink:href="#DejaVuSans-2e" x="63.623047"/>
       <use xlink:href="#DejaVuSans-35" x="95.410156"/>
       <use xlink:href="#DejaVuSans-30" x="159.033203"/>
      </g>
     </g>
    </g>
    <g id="xtick_5">
     <g id="line2d_5">
      <g>
       <use xlink:href="#mdc00101e93" x="271.098552" y="246.90101" style="stroke: #000000; stroke-width: 0.8"/>
      </g>
     </g>
     <g id="text_5">
      <!-- 1.55 -->
      <g transform="translate(255.512614 264.538822) scale(0.14 -0.14)">
       <use xlink:href="#DejaVuSans-31"/>
       <use xlink:href="#DejaVuSans-2e" x="63.623047"/>
       <use xlink:href="#DejaVuSans-35" x="95.410156"/>
       <use xlink:href="#DejaVuSans-35" x="159.033203"/>
      </g>
     </g>
    </g>
    <g id="text_6">
     <!-- $E_1$ [MPa] -->
     <g transform="translate(128.307105 282.088197) scale(0.14 -0.14)">
      <defs>
       <path id="DejaVuSans-Oblique-45" d="M 1081 4666 
L 4031 4666 
L 3928 4134 
L 1606 4134 
L 1338 2753 
L 3566 2753 
L 3463 2222 
L 1234 2222 
L 909 531 
L 3284 531 
L 3181 0 
L 172 0 
L 1081 4666 
z
" transform="scale(0.015625)"/>
       <path id="DejaVuSans-20" transform="scale(0.015625)"/>
       <path id="DejaVuSans-5b" d="M 550 4863 
L 1875 4863 
L 1875 4416 
L 1125 4416 
L 1125 -397 
L 1875 -397 
L 1875 -844 
L 550 -844 
L 550 4863 
z
" transform="scale(0.015625)"/>
       <path id="DejaVuSans-4d" d="M 628 4666 
L 1569 4666 
L 2759 1491 
L 3956 4666 
L 4897 4666 
L 4897 0 
L 4281 0 
L 4281 4097 
L 3078 897 
L 2444 897 
L 1241 4097 
L 1241 0 
L 628 0 
L 628 4666 
z
" transform="scale(0.015625)"/>
       <path id="DejaVuSans-50" d="M 1259 4147 
L 1259 2394 
L 2053 2394 
Q 2494 2394 2734 2622 
Q 2975 2850 2975 3272 
Q 2975 3691 2734 3919 
Q 2494 4147 2053 4147 
L 1259 4147 
z
M 628 4666 
L 2053 4666 
Q 2838 4666 3239 4311 
Q 3641 3956 3641 3272 
Q 3641 2581 3239 2228 
Q 2838 1875 2053 1875 
L 1259 1875 
L 1259 0 
L 628 0 
L 628 4666 
z
" transform="scale(0.015625)"/>
       <path id="DejaVuSans-61" d="M 2194 1759 
Q 1497 1759 1228 1600 
Q 959 1441 959 1056 
Q 959 750 1161 570 
Q 1363 391 1709 391 
Q 2188 391 2477 730 
Q 2766 1069 2766 1631 
L 2766 1759 
L 2194 1759 
z
M 3341 1997 
L 3341 0 
L 2766 0 
L 2766 531 
Q 2569 213 2275 61 
Q 1981 -91 1556 -91 
Q 1019 -91 701 211 
Q 384 513 384 1019 
Q 384 1609 779 1909 
Q 1175 2209 1959 2209 
L 2766 2209 
L 2766 2266 
Q 2766 2663 2505 2880 
Q 2244 3097 1772 3097 
Q 1472 3097 1187 3025 
Q 903 2953 641 2809 
L 641 3341 
Q 956 3463 1253 3523 
Q 1550 3584 1831 3584 
Q 2591 3584 2966 3190 
Q 3341 2797 3341 1997 
z
" transform="scale(0.015625)"/>
       <path id="DejaVuSans-5d" d="M 1947 4863 
L 1947 -844 
L 622 -844 
L 622 -397 
L 1369 -397 
L 1369 4416 
L 622 4416 
L 622 4863 
L 1947 4863 
z
" transform="scale(0.015625)"/>
      </defs>
      <use xlink:href="#DejaVuSans-Oblique-45" transform="translate(0 0.015625)"/>
      <use xlink:href="#DejaVuSans-31" transform="translate(63.183594 -16.390625) scale(0.7)"/>
      <use xlink:href="#DejaVuSans-20" transform="translate(110.454102 0.015625)"/>
      <use xlink:href="#DejaVuSans-5b" transform="translate(142.241211 0.015625)"/>
      <use xlink:href="#DejaVuSans-4d" transform="translate(181.254883 0.015625)"/>
      <use xlink:href="#DejaVuSans-50" transform="translate(267.53418 0.015625)"/>
      <use xlink:href="#DejaVuSans-61" transform="translate(327.836914 0.015625)"/>
      <use xlink:href="#DejaVuSans-5d" transform="translate(389.116211 0.015625)"/>
     </g>
    </g>
    <g id="text_7">
     <!-- 1e5 -->
     <g transform="translate(253.78772 281.088197) scale(0.14 -0.14)">
      <defs>
       <path id="DejaVuSans-65" d="M 3597 1894 
L 3597 1613 
L 953 1613 
Q 991 1019 1311 708 
Q 1631 397 2203 397 
Q 2534 397 2845 478 
Q 3156 559 3463 722 
L 3463 178 
Q 3153 47 2828 -22 
Q 2503 -91 2169 -91 
Q 1331 -91 842 396 
Q 353 884 353 1716 
Q 353 2575 817 3079 
Q 1281 3584 2069 3584 
Q 2775 3584 3186 3129 
Q 3597 2675 3597 1894 
z
M 3022 2063 
Q 3016 2534 2758 2815 
Q 2500 3097 2075 3097 
Q 1594 3097 1305 2825 
Q 1016 2553 972 2059 
L 3022 2063 
z
" transform="scale(0.015625)"/>
      </defs>
      <use xlink:href="#DejaVuSans-31"/>
      <use xlink:href="#DejaVuSans-65" x="63.623047"/>
      <use xlink:href="#DejaVuSans-35" x="125.146484"/>
     </g>
    </g>
   </g>
   <g id="matplotlib.axis_2">
    <g id="ytick_1">
     <g id="line2d_6">
      <defs>
       <path id="mab7ab11a7a" d="M 0 0 
L -3.5 0 
" style="stroke: #000000; stroke-width: 0.8"/>
      </defs>
      <g>
       <use xlink:href="#mab7ab11a7a" x="36.457115" y="246.90101" style="stroke: #000000; stroke-width: 0.8"/>
      </g>
     </g>
     <g id="text_8">
      <!-- 0 -->
      <g transform="translate(20.549615 252.219916) scale(0.14 -0.14)">
       <use xlink:href="#DejaVuSans-30"/>
      </g>
     </g>
    </g>
    <g id="ytick_2">
     <g id="line2d_7">
      <g>
       <use xlink:href="#mab7ab11a7a" x="36.457115" y="195.390154" style="stroke: #000000; stroke-width: 0.8"/>
      </g>
     </g>
     <g id="text_9">
      <!-- 1 -->
      <g transform="translate(20.549615 200.70906) scale(0.14 -0.14)">
       <use xlink:href="#DejaVuSans-31"/>
      </g>
     </g>
    </g>
    <g id="ytick_3">
     <g id="line2d_8">
      <g>
       <use xlink:href="#mab7ab11a7a" x="36.457115" y="143.879298" style="stroke: #000000; stroke-width: 0.8"/>
      </g>
     </g>
     <g id="text_10">
      <!-- 2 -->
      <g transform="translate(20.549615 149.198204) scale(0.14 -0.14)">
       <defs>
        <path id="DejaVuSans-32" d="M 1228 531 
L 3431 531 
L 3431 0 
L 469 0 
L 469 531 
Q 828 903 1448 1529 
Q 2069 2156 2228 2338 
Q 2531 2678 2651 2914 
Q 2772 3150 2772 3378 
Q 2772 3750 2511 3984 
Q 2250 4219 1831 4219 
Q 1534 4219 1204 4116 
Q 875 4013 500 3803 
L 500 4441 
Q 881 4594 1212 4672 
Q 1544 4750 1819 4750 
Q 2544 4750 2975 4387 
Q 3406 4025 3406 3419 
Q 3406 3131 3298 2873 
Q 3191 2616 2906 2266 
Q 2828 2175 2409 1742 
Q 1991 1309 1228 531 
z
" transform="scale(0.015625)"/>
       </defs>
       <use xlink:href="#DejaVuSans-32"/>
      </g>
     </g>
    </g>
    <g id="ytick_4">
     <g id="line2d_9">
      <g>
       <use xlink:href="#mab7ab11a7a" x="36.457115" y="92.368442" style="stroke: #000000; stroke-width: 0.8"/>
      </g>
     </g>
     <g id="text_11">
      <!-- 3 -->
      <g transform="translate(20.549615 97.687348) scale(0.14 -0.14)">
       <use xlink:href="#DejaVuSans-33"/>
      </g>
     </g>
    </g>
    <g id="ytick_5">
     <g id="line2d_10">
      <g>
       <use xlink:href="#mab7ab11a7a" x="36.457115" y="40.857586" style="stroke: #000000; stroke-width: 0.8"/>
      </g>
     </g>
     <g id="text_12">
      <!-- 4 -->
      <g transform="translate(20.549615 46.176492) scale(0.14 -0.14)">
       <use xlink:href="#DejaVuSans-34"/>
      </g>
     </g>
    </g>
    <g id="text_13">
     <!-- PDF -->
     <g transform="translate(13.638053 145.406406) rotate(-90) scale(0.14 -0.14)">
      <defs>
       <path id="DejaVuSans-44" d="M 1259 4147 
L 1259 519 
L 2022 519 
Q 2988 519 3436 956 
Q 3884 1394 3884 2338 
Q 3884 3275 3436 3711 
Q 2988 4147 2022 4147 
L 1259 4147 
z
M 628 4666 
L 1925 4666 
Q 3281 4666 3915 4102 
Q 4550 3538 4550 2338 
Q 4550 1131 3912 565 
Q 3275 0 1925 0 
L 628 0 
L 628 4666 
z
" transform="scale(0.015625)"/>
       <path id="DejaVuSans-46" d="M 628 4666 
L 3309 4666 
L 3309 4134 
L 1259 4134 
L 1259 2759 
L 3109 2759 
L 3109 2228 
L 1259 2228 
L 1259 0 
L 628 0 
L 628 4666 
z
" transform="scale(0.015625)"/>
      </defs>
      <use xlink:href="#DejaVuSans-50"/>
      <use xlink:href="#DejaVuSans-44" x="60.302734"/>
      <use xlink:href="#DejaVuSans-46" x="137.304688"/>
     </g>
    </g>
    <g id="text_14">
     <!-- 1e−4 -->
     <g transform="translate(36.457115 13.638052) scale(0.14 -0.14)">
      <defs>
       <path id="DejaVuSans-2212" d="M 678 2272 
L 4684 2272 
L 4684 1741 
L 678 1741 
L 678 2272 
z
" transform="scale(0.015625)"/>
      </defs>
      <use xlink:href="#DejaVuSans-31"/>
      <use xlink:href="#DejaVuSans-65" x="63.623047"/>
      <use xlink:href="#DejaVuSans-2212" x="125.146484"/>
      <use xlink:href="#DejaVuSans-34" x="208.935547"/>
     </g>
    </g>
   </g>
   <g id="line2d_11">
    <path d="M 151.449725 245.759568 
L 152.638487 245.534481 
L 153.827248 245.271007 
L 155.016009 244.96386 
L 156.20477 244.607279 
L 157.393532 244.195016 
L 158.582293 243.720361 
L 159.771054 243.176153 
L 160.959816 242.554825 
L 162.148577 241.848449 
L 163.337338 241.048802 
L 164.5261 240.14745 
L 165.714861 239.135848 
L 166.903622 238.005454 
L 168.092384 236.747868 
L 169.281145 235.354981 
L 170.469906 233.819147 
L 171.658668 232.133361 
L 172.847429 230.291459 
L 174.03619 228.288316 
L 175.224952 226.12006 
L 176.413713 223.784284 
L 177.602474 221.280247 
L 178.791236 218.609079 
L 179.979997 215.773964 
L 181.168758 212.780303 
L 182.357519 209.635855 
L 183.546281 206.350843 
L 184.735042 202.938027 
L 185.923803 199.412729 
L 187.112565 195.792815 
L 188.301326 192.098629 
L 189.490087 188.352868 
L 190.678849 184.580414 
L 191.86761 180.8081 
L 193.056371 177.064433 
L 194.245133 173.379265 
L 195.433894 169.783416 
L 196.622655 166.308269 
L 197.811417 162.985319 
L 199.000178 159.845708 
L 200.188939 156.919751 
L 201.377701 154.236442 
L 202.566462 151.822988 
L 203.755223 149.704345 
L 204.943985 147.902789 
L 206.132746 146.437532 
L 207.321507 145.324375 
L 208.510268 144.575426 
L 209.69903 144.198883 
L 210.887791 144.198883 
L 212.076552 144.575426 
L 213.265314 145.324375 
L 214.454075 146.437532 
L 215.642836 147.902789 
L 216.831598 149.704345 
L 218.020359 151.822988 
L 219.20912 154.236442 
L 220.397882 156.919751 
L 221.586643 159.845708 
L 222.775404 162.985319 
L 223.964166 166.308269 
L 225.152927 169.783416 
L 226.341688 173.379265 
L 227.53045 177.064433 
L 228.719211 180.8081 
L 229.907972 184.580414 
L 231.096733 188.352868 
L 232.285495 192.098629 
L 233.474256 195.792815 
L 234.663017 199.412729 
L 235.851779 202.938027 
L 237.04054 206.350843 
L 238.229301 209.635855 
L 239.418063 212.780303 
L 240.606824 215.773964 
L 241.795585 218.609079 
L 242.984347 221.280247 
L 244.173108 223.784284 
L 245.361869 226.12006 
L 246.550631 228.288316 
L 247.739392 230.291459 
L 248.928153 232.133361 
L 250.116915 233.819147 
L 251.305676 235.354981 
L 252.494437 236.747868 
L 253.683199 238.005454 
L 254.87196 239.135848 
L 256.060721 240.14745 
L 257.249482 241.048802 
L 258.438244 241.848449 
L 259.627005 242.554825 
L 260.815766 243.176153 
L 262.004528 243.720361 
L 263.193289 244.195016 
L 264.38205 244.607279 
L 265.570812 244.96386 
L 266.759573 245.271007 
L 267.948334 245.534481 
L 269.137096 245.759568 
" clip-path="url(#p3bc5a974f9)" style="fill: none; stroke: #2ca02c; stroke-width: 1.5; stroke-linecap: square"/>
   </g>
   <g id="patch_33">
    <path d="M 36.457115 246.90101 
L 36.457115 16.638052 
" style="fill: none; stroke: #000000; stroke-width: 0.8; stroke-linejoin: miter; stroke-linecap: square"/>
   </g>
   <g id="patch_34">
    <path d="M 280.217095 246.90101 
L 280.217095 16.638052 
" style="fill: none; stroke: #000000; stroke-width: 0.8; stroke-linejoin: miter; stroke-linecap: square"/>
   </g>
   <g id="patch_35">
    <path d="M 36.457115 246.90101 
L 280.217095 246.90101 
" style="fill: none; stroke: #000000; stroke-width: 0.8; stroke-linejoin: miter; stroke-linecap: square"/>
   </g>
   <g id="patch_36">
    <path d="M 36.457115 16.638052 
L 280.217095 16.638052 
" style="fill: none; stroke: #000000; stroke-width: 0.8; stroke-linejoin: miter; stroke-linecap: square"/>
   </g>
   <g id="legend_1">
    <g id="patch_37">
     <path d="M 163.754595 68.936802 
L 270.417095 68.936802 
Q 273.217095 68.936802 273.217095 66.136802 
L 273.217095 26.438053 
Q 273.217095 23.638053 270.417095 23.638053 
L 163.754595 23.638053 
Q 160.954595 23.638053 160.954595 26.438053 
L 160.954595 66.136802 
Q 160.954595 68.936802 163.754595 68.936802 
z
" style="fill: #ffffff; opacity: 0.8; stroke: #cccccc; stroke-linejoin: miter"/>
    </g>
    <g id="line2d_12">
     <path d="M 166.554595 34.975865 
L 180.554595 34.975865 
L 194.554595 34.975865 
" style="fill: none; stroke: #2ca02c; stroke-width: 1.5; stroke-linecap: square"/>
    </g>
    <g id="text_15">
     <!-- Prior -->
     <g transform="translate(205.754595 39.875865) scale(0.14 -0.14)">
      <defs>
       <path id="DejaVuSans-72" d="M 2631 2963 
Q 2534 3019 2420 3045 
Q 2306 3072 2169 3072 
Q 1681 3072 1420 2755 
Q 1159 2438 1159 1844 
L 1159 0 
L 581 0 
L 581 3500 
L 1159 3500 
L 1159 2956 
Q 1341 3275 1631 3429 
Q 1922 3584 2338 3584 
Q 2397 3584 2469 3576 
Q 2541 3569 2628 3553 
L 2631 2963 
z
" transform="scale(0.015625)"/>
       <path id="DejaVuSans-69" d="M 603 3500 
L 1178 3500 
L 1178 0 
L 603 0 
L 603 3500 
z
M 603 4863 
L 1178 4863 
L 1178 4134 
L 603 4134 
L 603 4863 
z
" transform="scale(0.015625)"/>
       <path id="DejaVuSans-6f" d="M 1959 3097 
Q 1497 3097 1228 2736 
Q 959 2375 959 1747 
Q 959 1119 1226 758 
Q 1494 397 1959 397 
Q 2419 397 2687 759 
Q 2956 1122 2956 1747 
Q 2956 2369 2687 2733 
Q 2419 3097 1959 3097 
z
M 1959 3584 
Q 2709 3584 3137 3096 
Q 3566 2609 3566 1747 
Q 3566 888 3137 398 
Q 2709 -91 1959 -91 
Q 1206 -91 779 398 
Q 353 888 353 1747 
Q 353 2609 779 3096 
Q 1206 3584 1959 3584 
z
" transform="scale(0.015625)"/>
      </defs>
      <use xlink:href="#DejaVuSans-50"/>
      <use xlink:href="#DejaVuSans-72" x="58.552734"/>
      <use xlink:href="#DejaVuSans-69" x="99.666016"/>
      <use xlink:href="#DejaVuSans-6f" x="127.449219"/>
      <use xlink:href="#DejaVuSans-72" x="188.630859"/>
     </g>
    </g>
    <g id="patch_38">
     <path d="M 166.554595 60.42524 
L 194.554595 60.42524 
L 194.554595 50.62524 
L 166.554595 50.62524 
z
" style="fill: #1f77b4"/>
    </g>
    <g id="text_16">
     <!-- Posterior -->
     <g transform="translate(205.754595 60.42524) scale(0.14 -0.14)">
      <defs>
       <path id="DejaVuSans-73" d="M 2834 3397 
L 2834 2853 
Q 2591 2978 2328 3040 
Q 2066 3103 1784 3103 
Q 1356 3103 1142 2972 
Q 928 2841 928 2578 
Q 928 2378 1081 2264 
Q 1234 2150 1697 2047 
L 1894 2003 
Q 2506 1872 2764 1633 
Q 3022 1394 3022 966 
Q 3022 478 2636 193 
Q 2250 -91 1575 -91 
Q 1294 -91 989 -36 
Q 684 19 347 128 
L 347 722 
Q 666 556 975 473 
Q 1284 391 1588 391 
Q 1994 391 2212 530 
Q 2431 669 2431 922 
Q 2431 1156 2273 1281 
Q 2116 1406 1581 1522 
L 1381 1569 
Q 847 1681 609 1914 
Q 372 2147 372 2553 
Q 372 3047 722 3315 
Q 1072 3584 1716 3584 
Q 2034 3584 2315 3537 
Q 2597 3491 2834 3397 
z
" transform="scale(0.015625)"/>
       <path id="DejaVuSans-74" d="M 1172 4494 
L 1172 3500 
L 2356 3500 
L 2356 3053 
L 1172 3053 
L 1172 1153 
Q 1172 725 1289 603 
Q 1406 481 1766 481 
L 2356 481 
L 2356 0 
L 1766 0 
Q 1100 0 847 248 
Q 594 497 594 1153 
L 594 3053 
L 172 3053 
L 172 3500 
L 594 3500 
L 594 4494 
L 1172 4494 
z
" transform="scale(0.015625)"/>
      </defs>
      <use xlink:href="#DejaVuSans-50"/>
      <use xlink:href="#DejaVuSans-6f" x="56.677734"/>
      <use xlink:href="#DejaVuSans-73" x="117.859375"/>
      <use xlink:href="#DejaVuSans-74" x="169.958984"/>
      <use xlink:href="#DejaVuSans-65" x="209.167969"/>
      <use xlink:href="#DejaVuSans-72" x="270.691406"/>
      <use xlink:href="#DejaVuSans-69" x="311.804688"/>
      <use xlink:href="#DejaVuSans-6f" x="339.587891"/>
      <use xlink:href="#DejaVuSans-72" x="400.769531"/>
     </g>
    </g>
   </g>
  </g>
  <g id="axes_2">
   <g id="patch_39">
    <path d="M 339.764352 246.90101 
L 583.524331 246.90101 
L 583.524331 16.638052 
L 339.764352 16.638052 
z
" style="fill: #ffffff"/>
   </g>
   <g id="patch_40">
    <path d="M 350.844351 246.90101 
L 357.514584 246.90101 
L 357.514584 246.5108 
L 350.844351 246.5108 
z
" clip-path="url(#p0c09c6b4af)" style="fill: #1f77b4"/>
   </g>
   <g id="patch_41">
    <path d="M 358.255721 246.90101 
L 364.925955 246.90101 
L 364.925955 246.90101 
L 358.255721 246.90101 
z
" clip-path="url(#p0c09c6b4af)" style="fill: #1f77b4"/>
   </g>
   <g id="patch_42">
    <path d="M 365.667092 246.90101 
L 372.337325 246.90101 
L 372.337325 246.12059 
L 365.667092 246.12059 
z
" clip-path="url(#p0c09c6b4af)" style="fill: #1f77b4"/>
   </g>
   <g id="patch_43">
    <path d="M 373.078463 246.90101 
L 379.748696 246.90101 
L 379.748696 244.55975 
L 373.078463 244.55975 
z
" clip-path="url(#p0c09c6b4af)" style="fill: #1f77b4"/>
   </g>
   <g id="patch_44">
    <path d="M 380.489833 246.90101 
L 387.160067 246.90101 
L 387.160067 245.34017 
L 380.489833 245.34017 
z
" clip-path="url(#p0c09c6b4af)" style="fill: #1f77b4"/>
   </g>
   <g id="patch_45">
    <path d="M 387.901204 246.90101 
L 394.571437 246.90101 
L 394.571437 239.096809 
L 387.901204 239.096809 
z
" clip-path="url(#p0c09c6b4af)" style="fill: #1f77b4"/>
   </g>
   <g id="patch_46">
    <path d="M 395.312574 246.90101 
L 401.982808 246.90101 
L 401.982808 235.975128 
L 395.312574 235.975128 
z
" clip-path="url(#p0c09c6b4af)" style="fill: #1f77b4"/>
   </g>
   <g id="patch_47">
    <path d="M 402.723945 246.90101 
L 409.394179 246.90101 
L 409.394179 218.805886 
L 402.723945 218.805886 
z
" clip-path="url(#p0c09c6b4af)" style="fill: #1f77b4"/>
   </g>
   <g id="patch_48">
    <path d="M 410.135316 246.90101 
L 416.805549 246.90101 
L 416.805549 211.782104 
L 410.135316 211.782104 
z
" clip-path="url(#p0c09c6b4af)" style="fill: #1f77b4"/>
   </g>
   <g id="patch_49">
    <path d="M 417.546686 246.90101 
L 424.21692 246.90101 
L 424.21692 175.882779 
L 417.546686 175.882779 
z
" clip-path="url(#p0c09c6b4af)" style="fill: #1f77b4"/>
   </g>
   <g id="patch_50">
    <path d="M 424.958057 246.90101 
L 431.62829 246.90101 
L 431.62829 144.275764 
L 424.958057 144.275764 
z
" clip-path="url(#p0c09c6b4af)" style="fill: #1f77b4"/>
   </g>
   <g id="patch_51">
    <path d="M 432.369427 246.90101 
L 439.039661 246.90101 
L 439.039661 127.886941 
L 432.369427 127.886941 
z
" clip-path="url(#p0c09c6b4af)" style="fill: #1f77b4"/>
   </g>
   <g id="patch_52">
    <path d="M 439.780798 246.90101 
L 446.451032 246.90101 
L 446.451032 99.401607 
L 439.780798 99.401607 
z
" clip-path="url(#p0c09c6b4af)" style="fill: #1f77b4"/>
   </g>
   <g id="patch_53">
    <path d="M 447.192169 246.90101 
L 453.862402 246.90101 
L 453.862402 70.526062 
L 447.192169 70.526062 
z
" clip-path="url(#p0c09c6b4af)" style="fill: #1f77b4"/>
   </g>
   <g id="patch_54">
    <path d="M 454.603539 246.90101 
L 461.273773 246.90101 
L 461.273773 50.625349 
L 454.603539 50.625349 
z
" clip-path="url(#p0c09c6b4af)" style="fill: #1f77b4"/>
   </g>
   <g id="patch_55">
    <path d="M 462.01491 246.90101 
L 468.685144 246.90101 
L 468.685144 27.602955 
L 462.01491 27.602955 
z
" clip-path="url(#p0c09c6b4af)" style="fill: #1f77b4"/>
   </g>
   <g id="patch_56">
    <path d="M 469.426281 246.90101 
L 476.096514 246.90101 
L 476.096514 52.576399 
L 469.426281 52.576399 
z
" clip-path="url(#p0c09c6b4af)" style="fill: #1f77b4"/>
   </g>
   <g id="patch_57">
    <path d="M 476.837651 246.90101 
L 483.507885 246.90101 
L 483.507885 68.965222 
L 476.837651 68.965222 
z
" clip-path="url(#p0c09c6b4af)" style="fill: #1f77b4"/>
   </g>
   <g id="patch_58">
    <path d="M 484.249022 246.90101 
L 490.919255 246.90101 
L 490.919255 109.156858 
L 484.249022 109.156858 
z
" clip-path="url(#p0c09c6b4af)" style="fill: #1f77b4"/>
   </g>
   <g id="patch_59">
    <path d="M 491.660392 246.90101 
L 498.330626 246.90101 
L 498.330626 135.300932 
L 491.660392 135.300932 
z
" clip-path="url(#p0c09c6b4af)" style="fill: #1f77b4"/>
   </g>
   <g id="patch_60">
    <path d="M 499.071763 246.90101 
L 505.741997 246.90101 
L 505.741997 171.980678 
L 499.071763 171.980678 
z
" clip-path="url(#p0c09c6b4af)" style="fill: #1f77b4"/>
   </g>
   <g id="patch_61">
    <path d="M 506.483134 246.90101 
L 513.153367 246.90101 
L 513.153367 191.491181 
L 506.483134 191.491181 
z
" clip-path="url(#p0c09c6b4af)" style="fill: #1f77b4"/>
   </g>
   <g id="patch_62">
    <path d="M 513.894504 246.90101 
L 520.564738 246.90101 
L 520.564738 211.782104 
L 513.894504 211.782104 
z
" clip-path="url(#p0c09c6b4af)" style="fill: #1f77b4"/>
   </g>
   <g id="patch_63">
    <path d="M 521.305875 246.90101 
L 527.976108 246.90101 
L 527.976108 224.659036 
L 521.305875 224.659036 
z
" clip-path="url(#p0c09c6b4af)" style="fill: #1f77b4"/>
   </g>
   <g id="patch_64">
    <path d="M 528.717246 246.90101 
L 535.387479 246.90101 
L 535.387479 236.755548 
L 528.717246 236.755548 
z
" clip-path="url(#p0c09c6b4af)" style="fill: #1f77b4"/>
   </g>
   <g id="patch_65">
    <path d="M 536.128616 246.90101 
L 542.79885 246.90101 
L 542.79885 239.487019 
L 536.128616 239.487019 
z
" clip-path="url(#p0c09c6b4af)" style="fill: #1f77b4"/>
   </g>
   <g id="patch_66">
    <path d="M 543.539987 246.90101 
L 550.21022 246.90101 
L 550.21022 243.77933 
L 543.539987 243.77933 
z
" clip-path="url(#p0c09c6b4af)" style="fill: #1f77b4"/>
   </g>
   <g id="patch_67">
    <path d="M 550.951357 246.90101 
L 557.621591 246.90101 
L 557.621591 246.12059 
L 550.951357 246.12059 
z
" clip-path="url(#p0c09c6b4af)" style="fill: #1f77b4"/>
   </g>
   <g id="patch_68">
    <path d="M 558.362728 246.90101 
L 565.032962 246.90101 
L 565.032962 246.5108 
L 558.362728 246.5108 
z
" clip-path="url(#p0c09c6b4af)" style="fill: #1f77b4"/>
   </g>
   <g id="patch_69">
    <path d="M 565.774099 246.90101 
L 572.444332 246.90101 
L 572.444332 246.12059 
L 565.774099 246.12059 
z
" clip-path="url(#p0c09c6b4af)" style="fill: #1f77b4"/>
   </g>
   <g id="matplotlib.axis_3">
    <g id="xtick_6">
     <g id="line2d_13">
      <g>
       <use xlink:href="#mdc00101e93" x="361.932441" y="246.90101" style="stroke: #000000; stroke-width: 0.8"/>
      </g>
     </g>
     <g id="text_17">
      <!-- 8800 -->
      <g transform="translate(344.117441 264.538822) scale(0.14 -0.14)">
       <defs>
        <path id="DejaVuSans-38" d="M 2034 2216 
Q 1584 2216 1326 1975 
Q 1069 1734 1069 1313 
Q 1069 891 1326 650 
Q 1584 409 2034 409 
Q 2484 409 2743 651 
Q 3003 894 3003 1313 
Q 3003 1734 2745 1975 
Q 2488 2216 2034 2216 
z
M 1403 2484 
Q 997 2584 770 2862 
Q 544 3141 544 3541 
Q 544 4100 942 4425 
Q 1341 4750 2034 4750 
Q 2731 4750 3128 4425 
Q 3525 4100 3525 3541 
Q 3525 3141 3298 2862 
Q 3072 2584 2669 2484 
Q 3125 2378 3379 2068 
Q 3634 1759 3634 1313 
Q 3634 634 3220 271 
Q 2806 -91 2034 -91 
Q 1263 -91 848 271 
Q 434 634 434 1313 
Q 434 1759 690 2068 
Q 947 2378 1403 2484 
z
M 1172 3481 
Q 1172 3119 1398 2916 
Q 1625 2713 2034 2713 
Q 2441 2713 2670 2916 
Q 2900 3119 2900 3481 
Q 2900 3844 2670 4047 
Q 2441 4250 2034 4250 
Q 1625 4250 1398 4047 
Q 1172 3844 1172 3481 
z
" transform="scale(0.015625)"/>
       </defs>
       <use xlink:href="#DejaVuSans-38"/>
       <use xlink:href="#DejaVuSans-38" x="63.623047"/>
       <use xlink:href="#DejaVuSans-30" x="127.246094"/>
       <use xlink:href="#DejaVuSans-30" x="190.869141"/>
      </g>
     </g>
    </g>
    <g id="xtick_7">
     <g id="line2d_14">
      <g>
       <use xlink:href="#mdc00101e93" x="414.74783" y="246.90101" style="stroke: #000000; stroke-width: 0.8"/>
      </g>
     </g>
     <g id="text_18">
      <!-- 9000 -->
      <g transform="translate(396.93283 264.538822) scale(0.14 -0.14)">
       <defs>
        <path id="DejaVuSans-39" d="M 703 97 
L 703 672 
Q 941 559 1184 500 
Q 1428 441 1663 441 
Q 2288 441 2617 861 
Q 2947 1281 2994 2138 
Q 2813 1869 2534 1725 
Q 2256 1581 1919 1581 
Q 1219 1581 811 2004 
Q 403 2428 403 3163 
Q 403 3881 828 4315 
Q 1253 4750 1959 4750 
Q 2769 4750 3195 4129 
Q 3622 3509 3622 2328 
Q 3622 1225 3098 567 
Q 2575 -91 1691 -91 
Q 1453 -91 1209 -44 
Q 966 3 703 97 
z
M 1959 2075 
Q 2384 2075 2632 2365 
Q 2881 2656 2881 3163 
Q 2881 3666 2632 3958 
Q 2384 4250 1959 4250 
Q 1534 4250 1286 3958 
Q 1038 3666 1038 3163 
Q 1038 2656 1286 2365 
Q 1534 2075 1959 2075 
z
" transform="scale(0.015625)"/>
       </defs>
       <use xlink:href="#DejaVuSans-39"/>
       <use xlink:href="#DejaVuSans-30" x="63.623047"/>
       <use xlink:href="#DejaVuSans-30" x="127.246094"/>
       <use xlink:href="#DejaVuSans-30" x="190.869141"/>
      </g>
     </g>
    </g>
    <g id="xtick_8">
     <g id="line2d_15">
      <g>
       <use xlink:href="#mdc00101e93" x="467.563219" y="246.90101" style="stroke: #000000; stroke-width: 0.8"/>
      </g>
     </g>
     <g id="text_19">
      <!-- 9200 -->
      <g transform="translate(449.748219 264.538822) scale(0.14 -0.14)">
       <use xlink:href="#DejaVuSans-39"/>
       <use xlink:href="#DejaVuSans-32" x="63.623047"/>
       <use xlink:href="#DejaVuSans-30" x="127.246094"/>
       <use xlink:href="#DejaVuSans-30" x="190.869141"/>
      </g>
     </g>
    </g>
    <g id="xtick_9">
     <g id="line2d_16">
      <g>
       <use xlink:href="#mdc00101e93" x="520.378608" y="246.90101" style="stroke: #000000; stroke-width: 0.8"/>
      </g>
     </g>
     <g id="text_20">
      <!-- 9400 -->
      <g transform="translate(502.563608 264.538822) scale(0.14 -0.14)">
       <use xlink:href="#DejaVuSans-39"/>
       <use xlink:href="#DejaVuSans-34" x="63.623047"/>
       <use xlink:href="#DejaVuSans-30" x="127.246094"/>
       <use xlink:href="#DejaVuSans-30" x="190.869141"/>
      </g>
     </g>
    </g>
    <g id="xtick_10">
     <g id="line2d_17">
      <g>
       <use xlink:href="#mdc00101e93" x="573.193998" y="246.90101" style="stroke: #000000; stroke-width: 0.8"/>
      </g>
     </g>
     <g id="text_21">
      <!-- 9600 -->
      <g transform="translate(555.378998 264.538822) scale(0.14 -0.14)">
       <defs>
        <path id="DejaVuSans-36" d="M 2113 2584 
Q 1688 2584 1439 2293 
Q 1191 2003 1191 1497 
Q 1191 994 1439 701 
Q 1688 409 2113 409 
Q 2538 409 2786 701 
Q 3034 994 3034 1497 
Q 3034 2003 2786 2293 
Q 2538 2584 2113 2584 
z
M 3366 4563 
L 3366 3988 
Q 3128 4100 2886 4159 
Q 2644 4219 2406 4219 
Q 1781 4219 1451 3797 
Q 1122 3375 1075 2522 
Q 1259 2794 1537 2939 
Q 1816 3084 2150 3084 
Q 2853 3084 3261 2657 
Q 3669 2231 3669 1497 
Q 3669 778 3244 343 
Q 2819 -91 2113 -91 
Q 1303 -91 875 529 
Q 447 1150 447 2328 
Q 447 3434 972 4092 
Q 1497 4750 2381 4750 
Q 2619 4750 2861 4703 
Q 3103 4656 3366 4563 
z
" transform="scale(0.015625)"/>
       </defs>
       <use xlink:href="#DejaVuSans-39"/>
       <use xlink:href="#DejaVuSans-36" x="63.623047"/>
       <use xlink:href="#DejaVuSans-30" x="127.246094"/>
       <use xlink:href="#DejaVuSans-30" x="190.869141"/>
      </g>
     </g>
    </g>
    <g id="text_22">
     <!-- $E_2$ [MPa] -->
     <g transform="translate(431.614341 282.088197) scale(0.14 -0.14)">
      <use xlink:href="#DejaVuSans-Oblique-45" transform="translate(0 0.015625)"/>
      <use xlink:href="#DejaVuSans-32" transform="translate(63.183594 -16.390625) scale(0.7)"/>
      <use xlink:href="#DejaVuSans-20" transform="translate(110.454102 0.015625)"/>
      <use xlink:href="#DejaVuSans-5b" transform="translate(142.241211 0.015625)"/>
      <use xlink:href="#DejaVuSans-4d" transform="translate(181.254883 0.015625)"/>
      <use xlink:href="#DejaVuSans-50" transform="translate(267.53418 0.015625)"/>
      <use xlink:href="#DejaVuSans-61" transform="translate(327.836914 0.015625)"/>
      <use xlink:href="#DejaVuSans-5d" transform="translate(389.116211 0.015625)"/>
     </g>
    </g>
   </g>
   <g id="matplotlib.axis_4">
    <g id="ytick_6">
     <g id="line2d_18">
      <g>
       <use xlink:href="#mab7ab11a7a" x="339.764352" y="246.90101" style="stroke: #000000; stroke-width: 0.8"/>
      </g>
     </g>
     <g id="text_23">
      <!-- 0.000 -->
      <g transform="translate(292.684977 252.219916) scale(0.14 -0.14)">
       <use xlink:href="#DejaVuSans-30"/>
       <use xlink:href="#DejaVuSans-2e" x="63.623047"/>
       <use xlink:href="#DejaVuSans-30" x="95.410156"/>
       <use xlink:href="#DejaVuSans-30" x="159.033203"/>
       <use xlink:href="#DejaVuSans-30" x="222.65625"/>
      </g>
     </g>
    </g>
    <g id="ytick_7">
     <g id="line2d_19">
      <g>
       <use xlink:href="#mab7ab11a7a" x="339.764352" y="192.144405" style="stroke: #000000; stroke-width: 0.8"/>
      </g>
     </g>
     <g id="text_24">
      <!-- 0.001 -->
      <g transform="translate(292.684977 197.463311) scale(0.14 -0.14)">
       <use xlink:href="#DejaVuSans-30"/>
       <use xlink:href="#DejaVuSans-2e" x="63.623047"/>
       <use xlink:href="#DejaVuSans-30" x="95.410156"/>
       <use xlink:href="#DejaVuSans-30" x="159.033203"/>
       <use xlink:href="#DejaVuSans-31" x="222.65625"/>
      </g>
     </g>
    </g>
    <g id="ytick_8">
     <g id="line2d_20">
      <g>
       <use xlink:href="#mab7ab11a7a" x="339.764352" y="137.3878" style="stroke: #000000; stroke-width: 0.8"/>
      </g>
     </g>
     <g id="text_25">
      <!-- 0.002 -->
      <g transform="translate(292.684977 142.706707) scale(0.14 -0.14)">
       <use xlink:href="#DejaVuSans-30"/>
       <use xlink:href="#DejaVuSans-2e" x="63.623047"/>
       <use xlink:href="#DejaVuSans-30" x="95.410156"/>
       <use xlink:href="#DejaVuSans-30" x="159.033203"/>
       <use xlink:href="#DejaVuSans-32" x="222.65625"/>
      </g>
     </g>
    </g>
    <g id="ytick_9">
     <g id="line2d_21">
      <g>
       <use xlink:href="#mab7ab11a7a" x="339.764352" y="82.631196" style="stroke: #000000; stroke-width: 0.8"/>
      </g>
     </g>
     <g id="text_26">
      <!-- 0.003 -->
      <g transform="translate(292.684977 87.950102) scale(0.14 -0.14)">
       <use xlink:href="#DejaVuSans-30"/>
       <use xlink:href="#DejaVuSans-2e" x="63.623047"/>
       <use xlink:href="#DejaVuSans-30" x="95.410156"/>
       <use xlink:href="#DejaVuSans-30" x="159.033203"/>
       <use xlink:href="#DejaVuSans-33" x="222.65625"/>
      </g>
     </g>
    </g>
    <g id="ytick_10">
     <g id="line2d_22">
      <g>
       <use xlink:href="#mab7ab11a7a" x="339.764352" y="27.874591" style="stroke: #000000; stroke-width: 0.8"/>
      </g>
     </g>
     <g id="text_27">
      <!-- 0.004 -->
      <g transform="translate(292.684977 33.193497) scale(0.14 -0.14)">
       <use xlink:href="#DejaVuSans-30"/>
       <use xlink:href="#DejaVuSans-2e" x="63.623047"/>
       <use xlink:href="#DejaVuSans-30" x="95.410156"/>
       <use xlink:href="#DejaVuSans-30" x="159.033203"/>
       <use xlink:href="#DejaVuSans-34" x="222.65625"/>
      </g>
     </g>
    </g>
   </g>
   <g id="line2d_23">
    <path d="M 385.699366 244.47428 
L 387.299832 243.99574 
L 388.900299 243.435587 
L 390.500765 242.782588 
L 392.101231 242.024487 
L 393.701698 241.148008 
L 395.302164 240.13888 
L 396.902631 238.981883 
L 398.503097 237.660926 
L 400.103563 236.159154 
L 401.70403 234.459087 
L 403.304496 232.542794 
L 404.904962 230.392105 
L 406.505429 227.988863 
L 408.105895 225.315207 
L 409.706361 222.3539 
L 411.306828 219.088682 
L 412.907294 215.504665 
L 414.50776 211.58874 
L 416.108227 207.330013 
L 417.708693 202.720255 
L 419.309159 197.754344 
L 420.909626 192.430706 
L 422.510092 186.751745 
L 424.110558 180.724228 
L 425.711025 174.359638 
L 427.311491 167.674472 
L 428.911957 160.690466 
L 430.512424 153.434745 
L 432.11289 145.939883 
L 433.713356 138.243867 
L 435.313823 130.389945 
L 436.914289 122.426377 
L 438.514755 114.406057 
L 440.115222 106.386035 
L 441.715688 98.426917 
L 443.316154 90.592167 
L 444.916621 82.947315 
L 446.517087 75.559076 
L 448.117553 68.49441 
L 449.71802 61.81953 
L 451.318486 55.598879 
L 452.918952 49.894107 
L 454.519419 44.76305 
L 456.119885 40.258768 
L 457.720351 36.428622 
L 459.320818 33.313453 
L 460.921284 30.946856 
L 462.52175 29.354574 
L 464.122217 28.554036 
L 465.722683 28.554036 
L 467.323149 29.354574 
L 468.923616 30.946856 
L 470.524082 33.313453 
L 472.124548 36.428622 
L 473.725015 40.258768 
L 475.325481 44.76305 
L 476.925947 49.894107 
L 478.526414 55.598879 
L 480.12688 61.81953 
L 481.727346 68.49441 
L 483.327813 75.559076 
L 484.928279 82.947315 
L 486.528745 90.592167 
L 488.129212 98.426917 
L 489.729678 106.386035 
L 491.330144 114.406057 
L 492.930611 122.426377 
L 494.531077 130.389945 
L 496.131543 138.243867 
L 497.73201 145.939883 
L 499.332476 153.434745 
L 500.932942 160.690466 
L 502.533409 167.674472 
L 504.133875 174.359638 
L 505.734341 180.724228 
L 507.334808 186.751745 
L 508.935274 192.430706 
L 510.53574 197.754344 
L 512.136207 202.720255 
L 513.736673 207.330013 
L 515.33714 211.58874 
L 516.937606 215.504665 
L 518.538072 219.088682 
L 520.138539 222.3539 
L 521.739005 225.315207 
L 523.339471 227.988863 
L 524.939938 230.392105 
L 526.540404 232.542794 
L 528.14087 234.459087 
L 529.741337 236.159154 
L 531.341803 237.660926 
L 532.942269 238.981883 
L 534.542736 240.13888 
L 536.143202 241.148008 
L 537.743668 242.024487 
L 539.344135 242.782588 
L 540.944601 243.435587 
L 542.545067 243.99574 
L 544.145534 244.47428 
" clip-path="url(#p0c09c6b4af)" style="fill: none; stroke: #2ca02c; stroke-width: 1.5; stroke-linecap: square"/>
   </g>
   <g id="patch_70">
    <path d="M 339.764352 246.90101 
L 339.764352 16.638052 
" style="fill: none; stroke: #000000; stroke-width: 0.8; stroke-linejoin: miter; stroke-linecap: square"/>
   </g>
   <g id="patch_71">
    <path d="M 583.524331 246.90101 
L 583.524331 16.638052 
" style="fill: none; stroke: #000000; stroke-width: 0.8; stroke-linejoin: miter; stroke-linecap: square"/>
   </g>
   <g id="patch_72">
    <path d="M 339.764352 246.90101 
L 583.524331 246.90101 
" style="fill: none; stroke: #000000; stroke-width: 0.8; stroke-linejoin: miter; stroke-linecap: square"/>
   </g>
   <g id="patch_73">
    <path d="M 339.764352 16.638052 
L 583.524331 16.638052 
" style="fill: none; stroke: #000000; stroke-width: 0.8; stroke-linejoin: miter; stroke-linecap: square"/>
   </g>
  </g>
  <g id="axes_3">
   <g id="patch_74">
    <path d="M 621.824486 246.90101 
L 865.584466 246.90101 
L 865.584466 16.638052 
L 621.824486 16.638052 
z
" style="fill: #ffffff"/>
   </g>
   <g id="patch_75">
    <path d="M 632.904485 246.90101 
L 639.574718 246.90101 
L 639.574718 246.181318 
L 632.904485 246.181318 
z
" clip-path="url(#p38d28119a4)" style="fill: #1f77b4"/>
   </g>
   <g id="patch_76">
    <path d="M 640.315856 246.90101 
L 646.986089 246.90101 
L 646.986089 245.461626 
L 640.315856 245.461626 
z
" clip-path="url(#p38d28119a4)" style="fill: #1f77b4"/>
   </g>
   <g id="patch_77">
    <path d="M 647.727226 246.90101 
L 654.39746 246.90101 
L 654.39746 245.10178 
L 647.727226 245.10178 
z
" clip-path="url(#p38d28119a4)" style="fill: #1f77b4"/>
   </g>
   <g id="patch_78">
    <path d="M 655.138597 246.90101 
L 661.80883 246.90101 
L 661.80883 240.783629 
L 655.138597 240.783629 
z
" clip-path="url(#p38d28119a4)" style="fill: #1f77b4"/>
   </g>
   <g id="patch_79">
    <path d="M 662.549967 246.90101 
L 669.220201 246.90101 
L 669.220201 236.825324 
L 662.549967 236.825324 
z
" clip-path="url(#p38d28119a4)" style="fill: #1f77b4"/>
   </g>
   <g id="patch_80">
    <path d="M 669.961338 246.90101 
L 676.631572 246.90101 
L 676.631572 230.348098 
L 669.961338 230.348098 
z
" clip-path="url(#p38d28119a4)" style="fill: #1f77b4"/>
   </g>
   <g id="patch_81">
    <path d="M 677.372709 246.90101 
L 684.042942 246.90101 
L 684.042942 214.155031 
L 677.372709 214.155031 
z
" clip-path="url(#p38d28119a4)" style="fill: #1f77b4"/>
   </g>
   <g id="patch_82">
    <path d="M 684.784079 246.90101 
L 691.454313 246.90101 
L 691.454313 205.518729 
L 684.784079 205.518729 
z
" clip-path="url(#p38d28119a4)" style="fill: #1f77b4"/>
   </g>
   <g id="patch_83">
    <path d="M 692.19545 246.90101 
L 698.865683 246.90101 
L 698.865683 177.450748 
L 692.19545 177.450748 
z
" clip-path="url(#p38d28119a4)" style="fill: #1f77b4"/>
   </g>
   <g id="patch_84">
    <path d="M 699.606821 246.90101 
L 706.277054 246.90101 
L 706.277054 156.93953 
L 699.606821 156.93953 
z
" clip-path="url(#p38d28119a4)" style="fill: #1f77b4"/>
   </g>
   <g id="patch_85">
    <path d="M 707.018191 246.90101 
L 713.688425 246.90101 
L 713.688425 139.30708 
L 707.018191 139.30708 
z
" clip-path="url(#p38d28119a4)" style="fill: #1f77b4"/>
   </g>
   <g id="patch_86">
    <path d="M 714.429562 246.90101 
L 721.099795 246.90101 
L 721.099795 104.761872 
L 714.429562 104.761872 
z
" clip-path="url(#p38d28119a4)" style="fill: #1f77b4"/>
   </g>
   <g id="patch_87">
    <path d="M 721.840932 246.90101 
L 728.511166 246.90101 
L 728.511166 93.966495 
L 721.840932 93.966495 
z
" clip-path="url(#p38d28119a4)" style="fill: #1f77b4"/>
   </g>
   <g id="patch_88">
    <path d="M 729.252303 246.90101 
L 735.922537 246.90101 
L 735.922537 72.735586 
L 729.252303 72.735586 
z
" clip-path="url(#p38d28119a4)" style="fill: #1f77b4"/>
   </g>
   <g id="patch_89">
    <path d="M 736.663674 246.90101 
L 743.333907 246.90101 
L 743.333907 63.379592 
L 736.663674 63.379592 
z
" clip-path="url(#p38d28119a4)" style="fill: #1f77b4"/>
   </g>
   <g id="patch_90">
    <path d="M 744.075044 246.90101 
L 750.745278 246.90101 
L 750.745278 74.174969 
L 744.075044 74.174969 
z
" clip-path="url(#p38d28119a4)" style="fill: #1f77b4"/>
   </g>
   <g id="patch_91">
    <path d="M 751.486415 246.90101 
L 758.156648 246.90101 
L 758.156648 105.481564 
L 751.486415 105.481564 
z
" clip-path="url(#p38d28119a4)" style="fill: #1f77b4"/>
   </g>
   <g id="patch_92">
    <path d="M 758.897785 246.90101 
L 765.568019 246.90101 
L 765.568019 117.356479 
L 758.897785 117.356479 
z
" clip-path="url(#p38d28119a4)" style="fill: #1f77b4"/>
   </g>
   <g id="patch_93">
    <path d="M 766.309156 246.90101 
L 772.97939 246.90101 
L 772.97939 148.663074 
L 766.309156 148.663074 
z
" clip-path="url(#p38d28119a4)" style="fill: #1f77b4"/>
   </g>
   <g id="patch_94">
    <path d="M 773.720527 246.90101 
L 780.39076 246.90101 
L 780.39076 170.973521 
L 773.720527 170.973521 
z
" clip-path="url(#p38d28119a4)" style="fill: #1f77b4"/>
   </g>
   <g id="patch_95">
    <path d="M 781.131897 246.90101 
L 787.802131 246.90101 
L 787.802131 190.045355 
L 781.131897 190.045355 
z
" clip-path="url(#p38d28119a4)" style="fill: #1f77b4"/>
   </g>
   <g id="patch_96">
    <path d="M 788.543268 246.90101 
L 795.213502 246.90101 
L 795.213502 210.196726 
L 788.543268 210.196726 
z
" clip-path="url(#p38d28119a4)" style="fill: #1f77b4"/>
   </g>
   <g id="patch_97">
    <path d="M 795.954639 246.90101 
L 802.624872 246.90101 
L 802.624872 227.109484 
L 795.954639 227.109484 
z
" clip-path="url(#p38d28119a4)" style="fill: #1f77b4"/>
   </g>
   <g id="patch_98">
    <path d="M 803.366009 246.90101 
L 810.036243 246.90101 
L 810.036243 228.908714 
L 803.366009 228.908714 
z
" clip-path="url(#p38d28119a4)" style="fill: #1f77b4"/>
   </g>
   <g id="patch_99">
    <path d="M 810.77738 246.90101 
L 817.447613 246.90101 
L 817.447613 235.026095 
L 810.77738 235.026095 
z
" clip-path="url(#p38d28119a4)" style="fill: #1f77b4"/>
   </g>
   <g id="patch_100">
    <path d="M 818.18875 246.90101 
L 824.858984 246.90101 
L 824.858984 242.582859 
L 818.18875 242.582859 
z
" clip-path="url(#p38d28119a4)" style="fill: #1f77b4"/>
   </g>
   <g id="patch_101">
    <path d="M 825.600121 246.90101 
L 832.270355 246.90101 
L 832.270355 244.741934 
L 825.600121 244.741934 
z
" clip-path="url(#p38d28119a4)" style="fill: #1f77b4"/>
   </g>
   <g id="patch_102">
    <path d="M 833.011492 246.90101 
L 839.681725 246.90101 
L 839.681725 246.181318 
L 833.011492 246.181318 
z
" clip-path="url(#p38d28119a4)" style="fill: #1f77b4"/>
   </g>
   <g id="patch_103">
    <path d="M 840.422862 246.90101 
L 847.093096 246.90101 
L 847.093096 246.90101 
L 840.422862 246.90101 
z
" clip-path="url(#p38d28119a4)" style="fill: #1f77b4"/>
   </g>
   <g id="patch_104">
    <path d="M 847.834233 246.90101 
L 854.504466 246.90101 
L 854.504466 246.541164 
L 847.834233 246.541164 
z
" clip-path="url(#p38d28119a4)" style="fill: #1f77b4"/>
   </g>
   <g id="matplotlib.axis_5">
    <g id="xtick_11">
     <g id="line2d_24">
      <g>
       <use xlink:href="#mdc00101e93" x="627.142143" y="246.90101" style="stroke: #000000; stroke-width: 0.8"/>
      </g>
     </g>
     <g id="text_28">
      <!-- 0.300 -->
      <g transform="translate(607.102455 264.538822) scale(0.14 -0.14)">
       <use xlink:href="#DejaVuSans-30"/>
       <use xlink:href="#DejaVuSans-2e" x="63.623047"/>
       <use xlink:href="#DejaVuSans-33" x="95.410156"/>
       <use xlink:href="#DejaVuSans-30" x="159.033203"/>
       <use xlink:href="#DejaVuSans-30" x="222.65625"/>
      </g>
     </g>
    </g>
    <g id="xtick_12">
     <g id="line2d_25">
      <g>
       <use xlink:href="#mdc00101e93" x="687.76006" y="246.90101" style="stroke: #000000; stroke-width: 0.8"/>
      </g>
     </g>
     <g id="text_29">
      <!-- 0.325 -->
      <g transform="translate(667.720373 264.538822) scale(0.14 -0.14)">
       <use xlink:href="#DejaVuSans-30"/>
       <use xlink:href="#DejaVuSans-2e" x="63.623047"/>
       <use xlink:href="#DejaVuSans-33" x="95.410156"/>
       <use xlink:href="#DejaVuSans-32" x="159.033203"/>
       <use xlink:href="#DejaVuSans-35" x="222.65625"/>
      </g>
     </g>
    </g>
    <g id="xtick_13">
     <g id="line2d_26">
      <g>
       <use xlink:href="#mdc00101e93" x="748.377977" y="246.90101" style="stroke: #000000; stroke-width: 0.8"/>
      </g>
     </g>
     <g id="text_30">
      <!-- 0.350 -->
      <g transform="translate(728.33829 264.538822) scale(0.14 -0.14)">
       <use xlink:href="#DejaVuSans-30"/>
       <use xlink:href="#DejaVuSans-2e" x="63.623047"/>
       <use xlink:href="#DejaVuSans-33" x="95.410156"/>
       <use xlink:href="#DejaVuSans-35" x="159.033203"/>
       <use xlink:href="#DejaVuSans-30" x="222.65625"/>
      </g>
     </g>
    </g>
    <g id="xtick_14">
     <g id="line2d_27">
      <g>
       <use xlink:href="#mdc00101e93" x="808.995895" y="246.90101" style="stroke: #000000; stroke-width: 0.8"/>
      </g>
     </g>
     <g id="text_31">
      <!-- 0.375 -->
      <g transform="translate(788.956207 264.538822) scale(0.14 -0.14)">
       <defs>
        <path id="DejaVuSans-37" d="M 525 4666 
L 3525 4666 
L 3525 4397 
L 1831 0 
L 1172 0 
L 2766 4134 
L 525 4134 
L 525 4666 
z
" transform="scale(0.015625)"/>
       </defs>
       <use xlink:href="#DejaVuSans-30"/>
       <use xlink:href="#DejaVuSans-2e" x="63.623047"/>
       <use xlink:href="#DejaVuSans-33" x="95.410156"/>
       <use xlink:href="#DejaVuSans-37" x="159.033203"/>
       <use xlink:href="#DejaVuSans-35" x="222.65625"/>
      </g>
     </g>
    </g>
    <g id="text_32">
     <!-- $\nu_{12}$ [-] -->
     <g transform="translate(723.124476 282.088197) scale(0.14 -0.14)">
      <defs>
       <path id="DejaVuSans-Oblique-3bd" d="M 959 0 
L 572 3500 
L 1191 3500 
L 1522 563 
Q 1972 950 2391 1488 
Q 2706 1891 2788 2241 
Q 2825 2406 2809 2719 
Q 2794 3091 2544 3500 
L 3125 3500 
L 3125 3500 
Q 3288 3222 3353 2834 
Q 3416 2478 3369 2234 
Q 3250 1622 2719 1075 
Q 2025 363 1572 0 
L 959 0 
z
" transform="scale(0.015625)"/>
       <path id="DejaVuSans-2d" d="M 313 2009 
L 1997 2009 
L 1997 1497 
L 313 1497 
L 313 2009 
z
" transform="scale(0.015625)"/>
      </defs>
      <use xlink:href="#DejaVuSans-Oblique-3bd" transform="translate(0 0.015625)"/>
      <use xlink:href="#DejaVuSans-31" transform="translate(55.859375 -16.390625) scale(0.7)"/>
      <use xlink:href="#DejaVuSans-32" transform="translate(100.395508 -16.390625) scale(0.7)"/>
      <use xlink:href="#DejaVuSans-20" transform="translate(147.666016 0.015625)"/>
      <use xlink:href="#DejaVuSans-5b" transform="translate(179.453125 0.015625)"/>
      <use xlink:href="#DejaVuSans-2d" transform="translate(218.466797 0.015625)"/>
      <use xlink:href="#DejaVuSans-5d" transform="translate(254.550781 0.015625)"/>
     </g>
    </g>
   </g>
   <g id="matplotlib.axis_6">
    <g id="ytick_11">
     <g id="line2d_28">
      <g>
       <use xlink:href="#mab7ab11a7a" x="621.824486" y="246.90101" style="stroke: #000000; stroke-width: 0.8"/>
      </g>
     </g>
     <g id="text_33">
      <!-- 0 -->
      <g transform="translate(605.916986 252.219916) scale(0.14 -0.14)">
       <use xlink:href="#DejaVuSans-30"/>
      </g>
     </g>
    </g>
    <g id="ytick_12">
     <g id="line2d_29">
      <g>
       <use xlink:href="#mab7ab11a7a" x="621.824486" y="191.905895" style="stroke: #000000; stroke-width: 0.8"/>
      </g>
     </g>
     <g id="text_34">
      <!-- 10 -->
      <g transform="translate(597.009486 197.224801) scale(0.14 -0.14)">
       <use xlink:href="#DejaVuSans-31"/>
       <use xlink:href="#DejaVuSans-30" x="63.623047"/>
      </g>
     </g>
    </g>
    <g id="ytick_13">
     <g id="line2d_30">
      <g>
       <use xlink:href="#mab7ab11a7a" x="621.824486" y="136.91078" style="stroke: #000000; stroke-width: 0.8"/>
      </g>
     </g>
     <g id="text_35">
      <!-- 20 -->
      <g transform="translate(597.009486 142.229686) scale(0.14 -0.14)">
       <use xlink:href="#DejaVuSans-32"/>
       <use xlink:href="#DejaVuSans-30" x="63.623047"/>
      </g>
     </g>
    </g>
    <g id="ytick_14">
     <g id="line2d_31">
      <g>
       <use xlink:href="#mab7ab11a7a" x="621.824486" y="81.915665" style="stroke: #000000; stroke-width: 0.8"/>
      </g>
     </g>
     <g id="text_36">
      <!-- 30 -->
      <g transform="translate(597.009486 87.234571) scale(0.14 -0.14)">
       <use xlink:href="#DejaVuSans-33"/>
       <use xlink:href="#DejaVuSans-30" x="63.623047"/>
      </g>
     </g>
    </g>
    <g id="ytick_15">
     <g id="line2d_32">
      <g>
       <use xlink:href="#mab7ab11a7a" x="621.824486" y="26.92055" style="stroke: #000000; stroke-width: 0.8"/>
      </g>
     </g>
     <g id="text_37">
      <!-- 40 -->
      <g transform="translate(597.009486 32.239456) scale(0.14 -0.14)">
       <use xlink:href="#DejaVuSans-34"/>
       <use xlink:href="#DejaVuSans-30" x="63.623047"/>
      </g>
     </g>
    </g>
   </g>
   <g id="line2d_33">
    <path d="M 651.38931 244.46371 
L 652.858835 243.983086 
L 654.32836 243.420492 
L 655.797885 242.764648 
L 657.267411 242.003245 
L 658.736936 241.122949 
L 660.206461 240.109425 
L 661.675987 238.947388 
L 663.145512 237.620678 
L 664.615037 236.112365 
L 666.084562 234.404892 
L 667.554088 232.480252 
L 669.023613 230.320195 
L 670.493138 227.906485 
L 671.962663 225.221183 
L 673.432189 222.246977 
L 674.901714 218.967537 
L 676.371239 215.367908 
L 677.840764 211.434926 
L 679.31029 207.157649 
L 680.779815 202.527812 
L 682.24934 197.540269 
L 683.718866 192.193443 
L 685.188391 186.489745 
L 686.657916 180.435973 
L 688.127441 174.043661 
L 689.596967 167.329375 
L 691.066492 160.314948 
L 692.536017 153.027622 
L 694.005542 145.500114 
L 695.475068 137.770575 
L 696.944593 129.882443 
L 698.414118 121.884187 
L 699.883644 113.828932 
L 701.353169 105.773976 
L 702.822694 97.780189 
L 704.292219 89.911313 
L 705.761745 82.233161 
L 707.23127 74.81274 
L 708.700795 67.717302 
L 710.17032 61.013347 
L 711.639846 54.765601 
L 713.109371 49.035979 
L 714.578896 43.882573 
L 716.048421 39.35867 
L 717.517947 35.511841 
L 718.987472 32.383103 
L 720.456997 30.006197 
L 721.926523 28.40698 
L 723.396048 27.602955 
L 724.865573 27.602955 
L 726.335098 28.40698 
L 727.804624 30.006197 
L 729.274149 32.383103 
L 730.743674 35.511841 
L 732.213199 39.35867 
L 733.682725 43.882573 
L 735.15225 49.035979 
L 736.621775 54.765601 
L 738.091301 61.013347 
L 739.560826 67.717302 
L 741.030351 74.81274 
L 742.499876 82.233161 
L 743.969402 89.911313 
L 745.438927 97.780189 
L 746.908452 105.773976 
L 748.377977 113.828932 
L 749.847503 121.884187 
L 751.317028 129.882443 
L 752.786553 137.770575 
L 754.256078 145.500114 
L 755.725604 153.027622 
L 757.195129 160.314948 
L 758.664654 167.329375 
L 760.13418 174.043661 
L 761.603705 180.435973 
L 763.07323 186.489745 
L 764.542755 192.193443 
L 766.012281 197.540269 
L 767.481806 202.527812 
L 768.951331 207.157649 
L 770.420856 211.434926 
L 771.890382 215.367908 
L 773.359907 218.967537 
L 774.829432 222.246977 
L 776.298958 225.221183 
L 777.768483 227.906485 
L 779.238008 230.320195 
L 780.707533 232.480252 
L 782.177059 234.404892 
L 783.646584 236.112365 
L 785.116109 237.620678 
L 786.585634 238.947388 
L 788.05516 240.109425 
L 789.524685 241.122949 
L 790.99421 242.003245 
L 792.463735 242.764648 
L 793.933261 243.420492 
L 795.402786 243.983086 
L 796.872311 244.46371 
" clip-path="url(#p38d28119a4)" style="fill: none; stroke: #2ca02c; stroke-width: 1.5; stroke-linecap: square"/>
   </g>
   <g id="patch_105">
    <path d="M 621.824486 246.90101 
L 621.824486 16.638052 
" style="fill: none; stroke: #000000; stroke-width: 0.8; stroke-linejoin: miter; stroke-linecap: square"/>
   </g>
   <g id="patch_106">
    <path d="M 865.584466 246.90101 
L 865.584466 16.638052 
" style="fill: none; stroke: #000000; stroke-width: 0.8; stroke-linejoin: miter; stroke-linecap: square"/>
   </g>
   <g id="patch_107">
    <path d="M 621.824486 246.90101 
L 865.584466 246.90101 
" style="fill: none; stroke: #000000; stroke-width: 0.8; stroke-linejoin: miter; stroke-linecap: square"/>
   </g>
   <g id="patch_108">
    <path d="M 621.824486 16.638052 
L 865.584466 16.638052 
" style="fill: none; stroke: #000000; stroke-width: 0.8; stroke-linejoin: miter; stroke-linecap: square"/>
   </g>
  </g>
  <g id="axes_4">
   <g id="patch_109">
    <path d="M 896.399946 246.90101 
L 1140.159925 246.90101 
L 1140.159925 16.638052 
L 896.399946 16.638052 
z
" style="fill: #ffffff"/>
   </g>
   <g id="patch_110">
    <path d="M 907.479945 246.90101 
L 914.150178 246.90101 
L 914.150178 246.567841 
L 907.479945 246.567841 
z
" clip-path="url(#pbfe4b95f2f)" style="fill: #1f77b4"/>
   </g>
   <g id="patch_111">
    <path d="M 914.891315 246.90101 
L 921.561549 246.90101 
L 921.561549 245.901504 
L 914.891315 245.901504 
z
" clip-path="url(#pbfe4b95f2f)" style="fill: #1f77b4"/>
   </g>
   <g id="patch_112">
    <path d="M 922.302686 246.90101 
L 928.972919 246.90101 
L 928.972919 246.567841 
L 922.302686 246.567841 
z
" clip-path="url(#pbfe4b95f2f)" style="fill: #1f77b4"/>
   </g>
   <g id="patch_113">
    <path d="M 929.714057 246.90101 
L 936.38429 246.90101 
L 936.38429 245.901504 
L 929.714057 245.901504 
z
" clip-path="url(#pbfe4b95f2f)" style="fill: #1f77b4"/>
   </g>
   <g id="patch_114">
    <path d="M 937.125427 246.90101 
L 943.795661 246.90101 
L 943.795661 242.569819 
L 937.125427 242.569819 
z
" clip-path="url(#pbfe4b95f2f)" style="fill: #1f77b4"/>
   </g>
   <g id="patch_115">
    <path d="M 944.536798 246.90101 
L 951.207031 246.90101 
L 951.207031 241.570313 
L 944.536798 241.570313 
z
" clip-path="url(#pbfe4b95f2f)" style="fill: #1f77b4"/>
   </g>
   <g id="patch_116">
    <path d="M 951.948168 246.90101 
L 958.618402 246.90101 
L 958.618402 230.242583 
L 951.948168 230.242583 
z
" clip-path="url(#pbfe4b95f2f)" style="fill: #1f77b4"/>
   </g>
   <g id="patch_117">
    <path d="M 959.359539 246.90101 
L 966.029773 246.90101 
L 966.029773 213.250988 
L 959.359539 213.250988 
z
" clip-path="url(#pbfe4b95f2f)" style="fill: #1f77b4"/>
   </g>
   <g id="patch_118">
    <path d="M 966.77091 246.90101 
L 973.441143 246.90101 
L 973.441143 196.592561 
L 966.77091 196.592561 
z
" clip-path="url(#pbfe4b95f2f)" style="fill: #1f77b4"/>
   </g>
   <g id="patch_119">
    <path d="M 974.18228 246.90101 
L 980.852514 246.90101 
L 980.852514 170.938583 
L 974.18228 170.938583 
z
" clip-path="url(#pbfe4b95f2f)" style="fill: #1f77b4"/>
   </g>
   <g id="patch_120">
    <path d="M 981.593651 246.90101 
L 988.263884 246.90101 
L 988.263884 138.954404 
L 981.593651 138.954404 
z
" clip-path="url(#pbfe4b95f2f)" style="fill: #1f77b4"/>
   </g>
   <g id="patch_121">
    <path d="M 989.005021 246.90101 
L 995.675255 246.90101 
L 995.675255 92.977146 
L 989.005021 92.977146 
z
" clip-path="url(#pbfe4b95f2f)" style="fill: #1f77b4"/>
   </g>
   <g id="patch_122">
    <path d="M 996.416392 246.90101 
L 1003.086626 246.90101 
L 1003.086626 76.985056 
L 996.416392 76.985056 
z
" clip-path="url(#pbfe4b95f2f)" style="fill: #1f77b4"/>
   </g>
   <g id="patch_123">
    <path d="M 1003.827763 246.90101 
L 1010.497996 246.90101 
L 1010.497996 43.335034 
L 1003.827763 43.335034 
z
" clip-path="url(#pbfe4b95f2f)" style="fill: #1f77b4"/>
   </g>
   <g id="patch_124">
    <path d="M 1011.239133 246.90101 
L 1017.909367 246.90101 
L 1017.909367 57.661281 
L 1011.239133 57.661281 
z
" clip-path="url(#pbfe4b95f2f)" style="fill: #1f77b4"/>
   </g>
   <g id="patch_125">
    <path d="M 1018.650504 246.90101 
L 1025.320738 246.90101 
L 1025.320738 58.660786 
L 1018.650504 58.660786 
z
" clip-path="url(#pbfe4b95f2f)" style="fill: #1f77b4"/>
   </g>
   <g id="patch_126">
    <path d="M 1026.061875 246.90101 
L 1032.732108 246.90101 
L 1032.732108 103.971707 
L 1026.061875 103.971707 
z
" clip-path="url(#pbfe4b95f2f)" style="fill: #1f77b4"/>
   </g>
   <g id="patch_127">
    <path d="M 1033.473245 246.90101 
L 1040.143479 246.90101 
L 1040.143479 135.28955 
L 1033.473245 135.28955 
z
" clip-path="url(#pbfe4b95f2f)" style="fill: #1f77b4"/>
   </g>
   <g id="patch_128">
    <path d="M 1040.884616 246.90101 
L 1047.554849 246.90101 
L 1047.554849 169.272741 
L 1040.884616 169.272741 
z
" clip-path="url(#pbfe4b95f2f)" style="fill: #1f77b4"/>
   </g>
   <g id="patch_129">
    <path d="M 1048.295986 246.90101 
L 1054.96622 246.90101 
L 1054.96622 194.59355 
L 1048.295986 194.59355 
z
" clip-path="url(#pbfe4b95f2f)" style="fill: #1f77b4"/>
   </g>
   <g id="patch_130">
    <path d="M 1055.707357 246.90101 
L 1062.377591 246.90101 
L 1062.377591 212.251482 
L 1055.707357 212.251482 
z
" clip-path="url(#pbfe4b95f2f)" style="fill: #1f77b4"/>
   </g>
   <g id="patch_131">
    <path d="M 1063.118728 246.90101 
L 1069.788961 246.90101 
L 1069.788961 224.911887 
L 1063.118728 224.911887 
z
" clip-path="url(#pbfe4b95f2f)" style="fill: #1f77b4"/>
   </g>
   <g id="patch_132">
    <path d="M 1070.530098 246.90101 
L 1077.200332 246.90101 
L 1077.200332 231.575257 
L 1070.530098 231.575257 
z
" clip-path="url(#pbfe4b95f2f)" style="fill: #1f77b4"/>
   </g>
   <g id="patch_133">
    <path d="M 1077.941469 246.90101 
L 1084.611702 246.90101 
L 1084.611702 243.236156 
L 1077.941469 243.236156 
z
" clip-path="url(#pbfe4b95f2f)" style="fill: #1f77b4"/>
   </g>
   <g id="patch_134">
    <path d="M 1085.35284 246.90101 
L 1092.023073 246.90101 
L 1092.023073 244.56883 
L 1085.35284 244.56883 
z
" clip-path="url(#pbfe4b95f2f)" style="fill: #1f77b4"/>
   </g>
   <g id="patch_135">
    <path d="M 1092.76421 246.90101 
L 1099.434444 246.90101 
L 1099.434444 245.901504 
L 1092.76421 245.901504 
z
" clip-path="url(#pbfe4b95f2f)" style="fill: #1f77b4"/>
   </g>
   <g id="patch_136">
    <path d="M 1100.175581 246.90101 
L 1106.845814 246.90101 
L 1106.845814 246.90101 
L 1100.175581 246.90101 
z
" clip-path="url(#pbfe4b95f2f)" style="fill: #1f77b4"/>
   </g>
   <g id="patch_137">
    <path d="M 1107.586951 246.90101 
L 1114.257185 246.90101 
L 1114.257185 246.567841 
L 1107.586951 246.567841 
z
" clip-path="url(#pbfe4b95f2f)" style="fill: #1f77b4"/>
   </g>
   <g id="patch_138">
    <path d="M 1114.998322 246.90101 
L 1121.668556 246.90101 
L 1121.668556 246.90101 
L 1114.998322 246.90101 
z
" clip-path="url(#pbfe4b95f2f)" style="fill: #1f77b4"/>
   </g>
   <g id="patch_139">
    <path d="M 1122.409693 246.90101 
L 1129.079926 246.90101 
L 1129.079926 246.567841 
L 1122.409693 246.567841 
z
" clip-path="url(#pbfe4b95f2f)" style="fill: #1f77b4"/>
   </g>
   <g id="matplotlib.axis_7">
    <g id="xtick_15">
     <g id="line2d_34">
      <g>
       <use xlink:href="#mdc00101e93" x="917.348957" y="246.90101" style="stroke: #000000; stroke-width: 0.8"/>
      </g>
     </g>
     <g id="text_38">
      <!-- 0.400 -->
      <g transform="translate(897.309269 264.538822) scale(0.14 -0.14)">
       <use xlink:href="#DejaVuSans-30"/>
       <use xlink:href="#DejaVuSans-2e" x="63.623047"/>
       <use xlink:href="#DejaVuSans-34" x="95.410156"/>
       <use xlink:href="#DejaVuSans-30" x="159.033203"/>
       <use xlink:href="#DejaVuSans-30" x="222.65625"/>
      </g>
     </g>
    </g>
    <g id="xtick_16">
     <g id="line2d_35">
      <g>
       <use xlink:href="#mdc00101e93" x="973.47293" y="246.90101" style="stroke: #000000; stroke-width: 0.8"/>
      </g>
     </g>
     <g id="text_39">
      <!-- 0.425 -->
      <g transform="translate(953.433243 264.538822) scale(0.14 -0.14)">
       <use xlink:href="#DejaVuSans-30"/>
       <use xlink:href="#DejaVuSans-2e" x="63.623047"/>
       <use xlink:href="#DejaVuSans-34" x="95.410156"/>
       <use xlink:href="#DejaVuSans-32" x="159.033203"/>
       <use xlink:href="#DejaVuSans-35" x="222.65625"/>
      </g>
     </g>
    </g>
    <g id="xtick_17">
     <g id="line2d_36">
      <g>
       <use xlink:href="#mdc00101e93" x="1029.596904" y="246.90101" style="stroke: #000000; stroke-width: 0.8"/>
      </g>
     </g>
     <g id="text_40">
      <!-- 0.450 -->
      <g transform="translate(1009.557217 264.538822) scale(0.14 -0.14)">
       <use xlink:href="#DejaVuSans-30"/>
       <use xlink:href="#DejaVuSans-2e" x="63.623047"/>
       <use xlink:href="#DejaVuSans-34" x="95.410156"/>
       <use xlink:href="#DejaVuSans-35" x="159.033203"/>
       <use xlink:href="#DejaVuSans-30" x="222.65625"/>
      </g>
     </g>
    </g>
    <g id="xtick_18">
     <g id="line2d_37">
      <g>
       <use xlink:href="#mdc00101e93" x="1085.720878" y="246.90101" style="stroke: #000000; stroke-width: 0.8"/>
      </g>
     </g>
     <g id="text_41">
      <!-- 0.475 -->
      <g transform="translate(1065.68119 264.538822) scale(0.14 -0.14)">
       <use xlink:href="#DejaVuSans-30"/>
       <use xlink:href="#DejaVuSans-2e" x="63.623047"/>
       <use xlink:href="#DejaVuSans-34" x="95.410156"/>
       <use xlink:href="#DejaVuSans-37" x="159.033203"/>
       <use xlink:href="#DejaVuSans-35" x="222.65625"/>
      </g>
     </g>
    </g>
    <g id="text_42">
     <!-- $\nu_{23}$ [-] -->
     <g transform="translate(997.699935 282.088197) scale(0.14 -0.14)">
      <use xlink:href="#DejaVuSans-Oblique-3bd" transform="translate(0 0.015625)"/>
      <use xlink:href="#DejaVuSans-32" transform="translate(55.859375 -16.390625) scale(0.7)"/>
      <use xlink:href="#DejaVuSans-33" transform="translate(100.395508 -16.390625) scale(0.7)"/>
      <use xlink:href="#DejaVuSans-20" transform="translate(147.666016 0.015625)"/>
      <use xlink:href="#DejaVuSans-5b" transform="translate(179.453125 0.015625)"/>
      <use xlink:href="#DejaVuSans-2d" transform="translate(218.466797 0.015625)"/>
      <use xlink:href="#DejaVuSans-5d" transform="translate(254.550781 0.015625)"/>
     </g>
    </g>
   </g>
   <g id="matplotlib.axis_8">
    <g id="ytick_16">
     <g id="line2d_38">
      <g>
       <use xlink:href="#mab7ab11a7a" x="896.399946" y="246.90101" style="stroke: #000000; stroke-width: 0.8"/>
      </g>
     </g>
     <g id="text_43">
      <!-- 0 -->
      <g transform="translate(880.492446 252.219916) scale(0.14 -0.14)">
       <use xlink:href="#DejaVuSans-30"/>
      </g>
     </g>
    </g>
    <g id="ytick_17">
     <g id="line2d_39">
      <g>
       <use xlink:href="#mab7ab11a7a" x="896.399946" y="191.905895" style="stroke: #000000; stroke-width: 0.8"/>
      </g>
     </g>
     <g id="text_44">
      <!-- 10 -->
      <g transform="translate(871.584946 197.224801) scale(0.14 -0.14)">
       <use xlink:href="#DejaVuSans-31"/>
       <use xlink:href="#DejaVuSans-30" x="63.623047"/>
      </g>
     </g>
    </g>
    <g id="ytick_18">
     <g id="line2d_40">
      <g>
       <use xlink:href="#mab7ab11a7a" x="896.399946" y="136.91078" style="stroke: #000000; stroke-width: 0.8"/>
      </g>
     </g>
     <g id="text_45">
      <!-- 20 -->
      <g transform="translate(871.584946 142.229686) scale(0.14 -0.14)">
       <use xlink:href="#DejaVuSans-32"/>
       <use xlink:href="#DejaVuSans-30" x="63.623047"/>
      </g>
     </g>
    </g>
    <g id="ytick_19">
     <g id="line2d_41">
      <g>
       <use xlink:href="#mab7ab11a7a" x="896.399946" y="81.915665" style="stroke: #000000; stroke-width: 0.8"/>
      </g>
     </g>
     <g id="text_46">
      <!-- 30 -->
      <g transform="translate(871.584946 87.234571) scale(0.14 -0.14)">
       <use xlink:href="#DejaVuSans-33"/>
       <use xlink:href="#DejaVuSans-30" x="63.623047"/>
      </g>
     </g>
    </g>
    <g id="ytick_20">
     <g id="line2d_42">
      <g>
       <use xlink:href="#mab7ab11a7a" x="896.399946" y="26.92055" style="stroke: #000000; stroke-width: 0.8"/>
      </g>
     </g>
     <g id="text_47">
      <!-- 40 -->
      <g transform="translate(871.584946 32.239456) scale(0.14 -0.14)">
       <use xlink:href="#DejaVuSans-34"/>
       <use xlink:href="#DejaVuSans-30" x="63.623047"/>
      </g>
     </g>
    </g>
   </g>
   <g id="line2d_43">
    <path d="M 939.798546 244.46371 
L 941.159127 243.983086 
L 942.519708 243.420492 
L 943.88029 242.764648 
L 945.240871 242.003245 
L 946.601452 241.122949 
L 947.962033 240.109425 
L 949.322614 238.947388 
L 950.683196 237.620678 
L 952.043777 236.112365 
L 953.404358 234.404892 
L 954.764939 232.480252 
L 956.12552 230.320195 
L 957.486101 227.906485 
L 958.846683 225.221183 
L 960.207264 222.246977 
L 961.567845 218.967537 
L 962.928426 215.367908 
L 964.289007 211.434926 
L 965.649589 207.157649 
L 967.01017 202.527812 
L 968.370751 197.540269 
L 969.731332 192.193443 
L 971.091913 186.489745 
L 972.452494 180.435973 
L 973.813076 174.043661 
L 975.173657 167.329375 
L 976.534238 160.314948 
L 977.894819 153.027622 
L 979.2554 145.500114 
L 980.615982 137.770575 
L 981.976563 129.882443 
L 983.337144 121.884187 
L 984.697725 113.828932 
L 986.058306 105.773976 
L 987.418887 97.780189 
L 988.779469 89.911313 
L 990.14005 82.233161 
L 991.500631 74.81274 
L 992.861212 67.717302 
L 994.221793 61.013347 
L 995.582375 54.765601 
L 996.942956 49.035979 
L 998.303537 43.882573 
L 999.664118 39.35867 
L 1001.024699 35.511841 
L 1002.38528 32.383103 
L 1003.745862 30.006197 
L 1005.106443 28.40698 
L 1006.467024 27.602955 
L 1007.827605 27.602955 
L 1009.188186 28.40698 
L 1010.548768 30.006197 
L 1011.909349 32.383103 
L 1013.26993 35.511841 
L 1014.630511 39.35867 
L 1015.991092 43.882573 
L 1017.351673 49.035979 
L 1018.712255 54.765601 
L 1020.072836 61.013347 
L 1021.433417 67.717302 
L 1022.793998 74.81274 
L 1024.154579 82.233161 
L 1025.515161 89.911313 
L 1026.875742 97.780189 
L 1028.236323 105.773976 
L 1029.596904 113.828932 
L 1030.957485 121.884187 
L 1032.318067 129.882443 
L 1033.678648 137.770575 
L 1035.039229 145.500114 
L 1036.39981 153.027622 
L 1037.760391 160.314948 
L 1039.120972 167.329375 
L 1040.481554 174.043661 
L 1041.842135 180.435973 
L 1043.202716 186.489745 
L 1044.563297 192.193443 
L 1045.923878 197.540269 
L 1047.28446 202.527812 
L 1048.645041 207.157649 
L 1050.005622 211.434926 
L 1051.366203 215.367908 
L 1052.726784 218.967537 
L 1054.087365 222.246977 
L 1055.447947 225.221183 
L 1056.808528 227.906485 
L 1058.169109 230.320195 
L 1059.52969 232.480252 
L 1060.890271 234.404892 
L 1062.250853 236.112365 
L 1063.611434 237.620678 
L 1064.972015 238.947388 
L 1066.332596 240.109425 
L 1067.693177 241.122949 
L 1069.053758 242.003245 
L 1070.41434 242.764648 
L 1071.774921 243.420492 
L 1073.135502 243.983086 
L 1074.496083 244.46371 
" clip-path="url(#pbfe4b95f2f)" style="fill: none; stroke: #2ca02c; stroke-width: 1.5; stroke-linecap: square"/>
   </g>
   <g id="patch_140">
    <path d="M 896.399946 246.90101 
L 896.399946 16.638052 
" style="fill: none; stroke: #000000; stroke-width: 0.8; stroke-linejoin: miter; stroke-linecap: square"/>
   </g>
   <g id="patch_141">
    <path d="M 1140.159925 246.90101 
L 1140.159925 16.638052 
" style="fill: none; stroke: #000000; stroke-width: 0.8; stroke-linejoin: miter; stroke-linecap: square"/>
   </g>
   <g id="patch_142">
    <path d="M 896.399946 246.90101 
L 1140.159925 246.90101 
" style="fill: none; stroke: #000000; stroke-width: 0.8; stroke-linejoin: miter; stroke-linecap: square"/>
   </g>
   <g id="patch_143">
    <path d="M 896.399946 16.638052 
L 1140.159925 16.638052 
" style="fill: none; stroke: #000000; stroke-width: 0.8; stroke-linejoin: miter; stroke-linecap: square"/>
   </g>
  </g>
  <g id="axes_5">
   <g id="patch_144">
    <path d="M 1193.23978 246.90101 
L 1436.99976 246.90101 
L 1436.99976 16.638052 
L 1193.23978 16.638052 
z
" style="fill: #ffffff"/>
   </g>
   <g id="patch_145">
    <path d="M 1204.319779 246.90101 
L 1210.990013 246.90101 
L 1210.990013 244.435871 
L 1204.319779 244.435871 
z
" clip-path="url(#pe9173e1996)" style="fill: #1f77b4"/>
   </g>
   <g id="patch_146">
    <path d="M 1211.73115 246.90101 
L 1218.401384 246.90101 
L 1218.401384 245.257584 
L 1211.73115 245.257584 
z
" clip-path="url(#pe9173e1996)" style="fill: #1f77b4"/>
   </g>
   <g id="patch_147">
    <path d="M 1219.142521 246.90101 
L 1225.812754 246.90101 
L 1225.812754 241.149018 
L 1219.142521 241.149018 
z
" clip-path="url(#pe9173e1996)" style="fill: #1f77b4"/>
   </g>
   <g id="patch_148">
    <path d="M 1226.553891 246.90101 
L 1233.224125 246.90101 
L 1233.224125 239.505592 
L 1226.553891 239.505592 
z
" clip-path="url(#pe9173e1996)" style="fill: #1f77b4"/>
   </g>
   <g id="patch_149">
    <path d="M 1233.965262 246.90101 
L 1240.635495 246.90101 
L 1240.635495 228.82332 
L 1233.965262 228.82332 
z
" clip-path="url(#pe9173e1996)" style="fill: #1f77b4"/>
   </g>
   <g id="patch_150">
    <path d="M 1241.376632 246.90101 
L 1248.046866 246.90101 
L 1248.046866 219.784476 
L 1241.376632 219.784476 
z
" clip-path="url(#pe9173e1996)" style="fill: #1f77b4"/>
   </g>
   <g id="patch_151">
    <path d="M 1248.788003 246.90101 
L 1255.458237 246.90101 
L 1255.458237 202.939356 
L 1248.788003 202.939356 
z
" clip-path="url(#pe9173e1996)" style="fill: #1f77b4"/>
   </g>
   <g id="patch_152">
    <path d="M 1256.199374 246.90101 
L 1262.869607 246.90101 
L 1262.869607 186.915949 
L 1256.199374 186.915949 
z
" clip-path="url(#pe9173e1996)" style="fill: #1f77b4"/>
   </g>
   <g id="patch_153">
    <path d="M 1263.610744 246.90101 
L 1270.280978 246.90101 
L 1270.280978 151.171427 
L 1263.610744 151.171427 
z
" clip-path="url(#pe9173e1996)" style="fill: #1f77b4"/>
   </g>
   <g id="patch_154">
    <path d="M 1271.022115 246.90101 
L 1277.692349 246.90101 
L 1277.692349 150.76057 
L 1271.022115 150.76057 
z
" clip-path="url(#pe9173e1996)" style="fill: #1f77b4"/>
   </g>
   <g id="patch_155">
    <path d="M 1278.433486 246.90101 
L 1285.103719 246.90101 
L 1285.103719 108.031486 
L 1278.433486 108.031486 
z
" clip-path="url(#pe9173e1996)" style="fill: #1f77b4"/>
   </g>
   <g id="patch_156">
    <path d="M 1285.844856 246.90101 
L 1292.51509 246.90101 
L 1292.51509 89.132083 
L 1285.844856 89.132083 
z
" clip-path="url(#pe9173e1996)" style="fill: #1f77b4"/>
   </g>
   <g id="patch_157">
    <path d="M 1293.256227 246.90101 
L 1299.92646 246.90101 
L 1299.92646 66.534972 
L 1293.256227 66.534972 
z
" clip-path="url(#pe9173e1996)" style="fill: #1f77b4"/>
   </g>
   <g id="patch_158">
    <path d="M 1300.667597 246.90101 
L 1307.337831 246.90101 
L 1307.337831 54.209274 
L 1300.667597 54.209274 
z
" clip-path="url(#pe9173e1996)" style="fill: #1f77b4"/>
   </g>
   <g id="patch_159">
    <path d="M 1308.078968 246.90101 
L 1314.749202 246.90101 
L 1314.749202 60.372123 
L 1308.078968 60.372123 
z
" clip-path="url(#pe9173e1996)" style="fill: #1f77b4"/>
   </g>
   <g id="patch_160">
    <path d="M 1315.490339 246.90101 
L 1322.160572 246.90101 
L 1322.160572 56.263557 
L 1315.490339 56.263557 
z
" clip-path="url(#pe9173e1996)" style="fill: #1f77b4"/>
   </g>
   <g id="patch_161">
    <path d="M 1322.901709 246.90101 
L 1329.571943 246.90101 
L 1329.571943 87.899514 
L 1322.901709 87.899514 
z
" clip-path="url(#pe9173e1996)" style="fill: #1f77b4"/>
   </g>
   <g id="patch_162">
    <path d="M 1330.31308 246.90101 
L 1336.983313 246.90101 
L 1336.983313 99.814354 
L 1330.31308 99.814354 
z
" clip-path="url(#pe9173e1996)" style="fill: #1f77b4"/>
   </g>
   <g id="patch_163">
    <path d="M 1337.724451 246.90101 
L 1344.394684 246.90101 
L 1344.394684 134.737164 
L 1337.724451 134.737164 
z
" clip-path="url(#pe9173e1996)" style="fill: #1f77b4"/>
   </g>
   <g id="patch_164">
    <path d="M 1345.135821 246.90101 
L 1351.806055 246.90101 
L 1351.806055 162.264555 
L 1345.135821 162.264555 
z
" clip-path="url(#pe9173e1996)" style="fill: #1f77b4"/>
   </g>
   <g id="patch_165">
    <path d="M 1352.547192 246.90101 
L 1359.217425 246.90101 
L 1359.217425 184.45081 
L 1352.547192 184.45081 
z
" clip-path="url(#pe9173e1996)" style="fill: #1f77b4"/>
   </g>
   <g id="patch_166">
    <path d="M 1359.958562 246.90101 
L 1366.628796 246.90101 
L 1366.628796 213.621627 
L 1359.958562 213.621627 
z
" clip-path="url(#pe9173e1996)" style="fill: #1f77b4"/>
   </g>
   <g id="patch_167">
    <path d="M 1367.369933 246.90101 
L 1374.040167 246.90101 
L 1374.040167 225.536468 
L 1367.369933 225.536468 
z
" clip-path="url(#pe9173e1996)" style="fill: #1f77b4"/>
   </g>
   <g id="patch_168">
    <path d="M 1374.781304 246.90101 
L 1381.451537 246.90101 
L 1381.451537 234.986169 
L 1374.781304 234.986169 
z
" clip-path="url(#pe9173e1996)" style="fill: #1f77b4"/>
   </g>
   <g id="patch_169">
    <path d="M 1382.192674 246.90101 
L 1388.862908 246.90101 
L 1388.862908 238.683878 
L 1382.192674 238.683878 
z
" clip-path="url(#pe9173e1996)" style="fill: #1f77b4"/>
   </g>
   <g id="patch_170">
    <path d="M 1389.604045 246.90101 
L 1396.274278 246.90101 
L 1396.274278 242.381588 
L 1389.604045 242.381588 
z
" clip-path="url(#pe9173e1996)" style="fill: #1f77b4"/>
   </g>
   <g id="patch_171">
    <path d="M 1397.015416 246.90101 
L 1403.685649 246.90101 
L 1403.685649 244.435871 
L 1397.015416 244.435871 
z
" clip-path="url(#pe9173e1996)" style="fill: #1f77b4"/>
   </g>
   <g id="patch_172">
    <path d="M 1404.426786 246.90101 
L 1411.09702 246.90101 
L 1411.09702 245.257584 
L 1404.426786 245.257584 
z
" clip-path="url(#pe9173e1996)" style="fill: #1f77b4"/>
   </g>
   <g id="patch_173">
    <path d="M 1411.838157 246.90101 
L 1418.50839 246.90101 
L 1418.50839 246.90101 
L 1411.838157 246.90101 
z
" clip-path="url(#pe9173e1996)" style="fill: #1f77b4"/>
   </g>
   <g id="patch_174">
    <path d="M 1419.249527 246.90101 
L 1425.919761 246.90101 
L 1425.919761 246.490153 
L 1419.249527 246.490153 
z
" clip-path="url(#pe9173e1996)" style="fill: #1f77b4"/>
   </g>
   <g id="matplotlib.axis_9">
    <g id="xtick_19">
     <g id="line2d_44">
      <g>
       <use xlink:href="#mdc00101e93" x="1222.47349" y="246.90101" style="stroke: #000000; stroke-width: 0.8"/>
      </g>
     </g>
     <g id="text_48">
      <!-- 4800 -->
      <g transform="translate(1204.65849 264.538822) scale(0.14 -0.14)">
       <use xlink:href="#DejaVuSans-34"/>
       <use xlink:href="#DejaVuSans-38" x="63.623047"/>
       <use xlink:href="#DejaVuSans-30" x="127.246094"/>
       <use xlink:href="#DejaVuSans-30" x="190.869141"/>
      </g>
     </g>
    </g>
    <g id="xtick_20">
     <g id="line2d_45">
      <g>
       <use xlink:href="#mdc00101e93" x="1301.571695" y="246.90101" style="stroke: #000000; stroke-width: 0.8"/>
      </g>
     </g>
     <g id="text_49">
      <!-- 5000 -->
      <g transform="translate(1283.756695 264.538822) scale(0.14 -0.14)">
       <use xlink:href="#DejaVuSans-35"/>
       <use xlink:href="#DejaVuSans-30" x="63.623047"/>
       <use xlink:href="#DejaVuSans-30" x="127.246094"/>
       <use xlink:href="#DejaVuSans-30" x="190.869141"/>
      </g>
     </g>
    </g>
    <g id="xtick_21">
     <g id="line2d_46">
      <g>
       <use xlink:href="#mdc00101e93" x="1380.669899" y="246.90101" style="stroke: #000000; stroke-width: 0.8"/>
      </g>
     </g>
     <g id="text_50">
      <!-- 5200 -->
      <g transform="translate(1362.854899 264.538822) scale(0.14 -0.14)">
       <use xlink:href="#DejaVuSans-35"/>
       <use xlink:href="#DejaVuSans-32" x="63.623047"/>
       <use xlink:href="#DejaVuSans-30" x="127.246094"/>
       <use xlink:href="#DejaVuSans-30" x="190.869141"/>
      </g>
     </g>
    </g>
    <g id="text_51">
     <!-- $G_{12}$ [MPa] -->
     <g transform="translate(1281.02977 282.088197) scale(0.14 -0.14)">
      <defs>
       <path id="DejaVuSans-Oblique-47" d="M 3494 697 
L 3738 1919 
L 2700 1919 
L 2797 2438 
L 4453 2438 
L 4050 384 
Q 3634 156 3143 32 
Q 2653 -91 2156 -91 
Q 1278 -91 783 396 
Q 288 884 288 1753 
Q 288 2475 589 3126 
Q 891 3778 1422 4213 
Q 1756 4484 2153 4617 
Q 2550 4750 3034 4750 
Q 3472 4750 3873 4639 
Q 4275 4528 4641 4306 
L 4513 3634 
Q 4231 3928 3853 4083 
Q 3475 4238 3047 4238 
Q 2550 4238 2172 4048 
Q 1794 3859 1497 3463 
Q 1244 3125 1098 2667 
Q 953 2209 953 1734 
Q 953 1081 1287 751 
Q 1622 422 2284 422 
Q 2616 422 2925 492 
Q 3234 563 3494 697 
z
" transform="scale(0.015625)"/>
      </defs>
      <use xlink:href="#DejaVuSans-Oblique-47" transform="translate(0 0.015625)"/>
      <use xlink:href="#DejaVuSans-31" transform="translate(77.490234 -16.390625) scale(0.7)"/>
      <use xlink:href="#DejaVuSans-32" transform="translate(122.026367 -16.390625) scale(0.7)"/>
      <use xlink:href="#DejaVuSans-20" transform="translate(169.296875 0.015625)"/>
      <use xlink:href="#DejaVuSans-5b" transform="translate(201.083984 0.015625)"/>
      <use xlink:href="#DejaVuSans-4d" transform="translate(240.097656 0.015625)"/>
      <use xlink:href="#DejaVuSans-50" transform="translate(326.376953 0.015625)"/>
      <use xlink:href="#DejaVuSans-61" transform="translate(386.679688 0.015625)"/>
      <use xlink:href="#DejaVuSans-5d" transform="translate(447.958984 0.015625)"/>
     </g>
    </g>
   </g>
   <g id="matplotlib.axis_10">
    <g id="ytick_21">
     <g id="line2d_47">
      <g>
       <use xlink:href="#mab7ab11a7a" x="1193.23978" y="246.90101" style="stroke: #000000; stroke-width: 0.8"/>
      </g>
     </g>
     <g id="text_52">
      <!-- 0.000 -->
      <g transform="translate(1146.160405 252.219916) scale(0.14 -0.14)">
       <use xlink:href="#DejaVuSans-30"/>
       <use xlink:href="#DejaVuSans-2e" x="63.623047"/>
       <use xlink:href="#DejaVuSans-30" x="95.410156"/>
       <use xlink:href="#DejaVuSans-30" x="159.033203"/>
       <use xlink:href="#DejaVuSans-30" x="222.65625"/>
      </g>
     </g>
    </g>
    <g id="ytick_22">
     <g id="line2d_48">
      <g>
       <use xlink:href="#mab7ab11a7a" x="1193.23978" y="208.40443" style="stroke: #000000; stroke-width: 0.8"/>
      </g>
     </g>
     <g id="text_53">
      <!-- 0.001 -->
      <g transform="translate(1146.160405 213.723336) scale(0.14 -0.14)">
       <use xlink:href="#DejaVuSans-30"/>
       <use xlink:href="#DejaVuSans-2e" x="63.623047"/>
       <use xlink:href="#DejaVuSans-30" x="95.410156"/>
       <use xlink:href="#DejaVuSans-30" x="159.033203"/>
       <use xlink:href="#DejaVuSans-31" x="222.65625"/>
      </g>
     </g>
    </g>
    <g id="ytick_23">
     <g id="line2d_49">
      <g>
       <use xlink:href="#mab7ab11a7a" x="1193.23978" y="169.907849" style="stroke: #000000; stroke-width: 0.8"/>
      </g>
     </g>
     <g id="text_54">
      <!-- 0.002 -->
      <g transform="translate(1146.160405 175.226755) scale(0.14 -0.14)">
       <use xlink:href="#DejaVuSans-30"/>
       <use xlink:href="#DejaVuSans-2e" x="63.623047"/>
       <use xlink:href="#DejaVuSans-30" x="95.410156"/>
       <use xlink:href="#DejaVuSans-30" x="159.033203"/>
       <use xlink:href="#DejaVuSans-32" x="222.65625"/>
      </g>
     </g>
    </g>
    <g id="ytick_24">
     <g id="line2d_50">
      <g>
       <use xlink:href="#mab7ab11a7a" x="1193.23978" y="131.411269" style="stroke: #000000; stroke-width: 0.8"/>
      </g>
     </g>
     <g id="text_55">
      <!-- 0.003 -->
      <g transform="translate(1146.160405 136.730175) scale(0.14 -0.14)">
       <use xlink:href="#DejaVuSans-30"/>
       <use xlink:href="#DejaVuSans-2e" x="63.623047"/>
       <use xlink:href="#DejaVuSans-30" x="95.410156"/>
       <use xlink:href="#DejaVuSans-30" x="159.033203"/>
       <use xlink:href="#DejaVuSans-33" x="222.65625"/>
      </g>
     </g>
    </g>
    <g id="ytick_25">
     <g id="line2d_51">
      <g>
       <use xlink:href="#mab7ab11a7a" x="1193.23978" y="92.914688" style="stroke: #000000; stroke-width: 0.8"/>
      </g>
     </g>
     <g id="text_56">
      <!-- 0.004 -->
      <g transform="translate(1146.160405 98.233594) scale(0.14 -0.14)">
       <use xlink:href="#DejaVuSans-30"/>
       <use xlink:href="#DejaVuSans-2e" x="63.623047"/>
       <use xlink:href="#DejaVuSans-30" x="95.410156"/>
       <use xlink:href="#DejaVuSans-30" x="159.033203"/>
       <use xlink:href="#DejaVuSans-34" x="222.65625"/>
      </g>
     </g>
    </g>
    <g id="ytick_26">
     <g id="line2d_52">
      <g>
       <use xlink:href="#mab7ab11a7a" x="1193.23978" y="54.418108" style="stroke: #000000; stroke-width: 0.8"/>
      </g>
     </g>
     <g id="text_57">
      <!-- 0.005 -->
      <g transform="translate(1146.160405 59.737014) scale(0.14 -0.14)">
       <use xlink:href="#DejaVuSans-30"/>
       <use xlink:href="#DejaVuSans-2e" x="63.623047"/>
       <use xlink:href="#DejaVuSans-30" x="95.410156"/>
       <use xlink:href="#DejaVuSans-30" x="159.033203"/>
       <use xlink:href="#DejaVuSans-35" x="222.65625"/>
      </g>
     </g>
    </g>
   </g>
   <g id="line2d_53">
    <path d="M 1242.248041 244.46371 
L 1243.925882 243.983086 
L 1245.603723 243.420492 
L 1247.281564 242.764648 
L 1248.959404 242.003245 
L 1250.637245 241.122949 
L 1252.315086 240.109425 
L 1253.992926 238.947388 
L 1255.670767 237.620678 
L 1257.348608 236.112365 
L 1259.026448 234.404892 
L 1260.704289 232.480252 
L 1262.38213 230.320195 
L 1264.05997 227.906485 
L 1265.737811 225.221183 
L 1267.415652 222.246977 
L 1269.093493 218.967537 
L 1270.771333 215.367908 
L 1272.449174 211.434926 
L 1274.127015 207.157649 
L 1275.804855 202.527812 
L 1277.482696 197.540269 
L 1279.160537 192.193443 
L 1280.838377 186.489745 
L 1282.516218 180.435973 
L 1284.194059 174.043661 
L 1285.8719 167.329375 
L 1287.54974 160.314948 
L 1289.227581 153.027622 
L 1290.905422 145.500114 
L 1292.583262 137.770575 
L 1294.261103 129.882443 
L 1295.938944 121.884187 
L 1297.616784 113.828932 
L 1299.294625 105.773976 
L 1300.972466 97.780189 
L 1302.650306 89.911313 
L 1304.328147 82.233161 
L 1306.005988 74.81274 
L 1307.683829 67.717302 
L 1309.361669 61.013347 
L 1311.03951 54.765601 
L 1312.717351 49.035979 
L 1314.395191 43.882573 
L 1316.073032 39.35867 
L 1317.750873 35.511841 
L 1319.428713 32.383103 
L 1321.106554 30.006197 
L 1322.784395 28.40698 
L 1324.462236 27.602955 
L 1326.140076 27.602955 
L 1327.817917 28.40698 
L 1329.495758 30.006197 
L 1331.173598 32.383103 
L 1332.851439 35.511841 
L 1334.52928 39.35867 
L 1336.20712 43.882573 
L 1337.884961 49.035979 
L 1339.562802 54.765601 
L 1341.240642 61.013347 
L 1342.918483 67.717302 
L 1344.596324 74.81274 
L 1346.274165 82.233161 
L 1347.952005 89.911313 
L 1349.629846 97.780189 
L 1351.307687 105.773976 
L 1352.985527 113.828932 
L 1354.663368 121.884187 
L 1356.341209 129.882443 
L 1358.019049 137.770575 
L 1359.69689 145.500114 
L 1361.374731 153.027622 
L 1363.052572 160.314948 
L 1364.730412 167.329375 
L 1366.408253 174.043661 
L 1368.086094 180.435973 
L 1369.763934 186.489745 
L 1371.441775 192.193443 
L 1373.119616 197.540269 
L 1374.797456 202.527812 
L 1376.475297 207.157649 
L 1378.153138 211.434926 
L 1379.830978 215.367908 
L 1381.508819 218.967537 
L 1383.18666 222.246977 
L 1384.864501 225.221183 
L 1386.542341 227.906485 
L 1388.220182 230.320195 
L 1389.898023 232.480252 
L 1391.575863 234.404892 
L 1393.253704 236.112365 
L 1394.931545 237.620678 
L 1396.609385 238.947388 
L 1398.287226 240.109425 
L 1399.965067 241.122949 
L 1401.642908 242.003245 
L 1403.320748 242.764648 
L 1404.998589 243.420492 
L 1406.67643 243.983086 
L 1408.35427 244.46371 
" clip-path="url(#pe9173e1996)" style="fill: none; stroke: #2ca02c; stroke-width: 1.5; stroke-linecap: square"/>
   </g>
   <g id="patch_175">
    <path d="M 1193.23978 246.90101 
L 1193.23978 16.638052 
" style="fill: none; stroke: #000000; stroke-width: 0.8; stroke-linejoin: miter; stroke-linecap: square"/>
   </g>
   <g id="patch_176">
    <path d="M 1436.99976 246.90101 
L 1436.99976 16.638052 
" style="fill: none; stroke: #000000; stroke-width: 0.8; stroke-linejoin: miter; stroke-linecap: square"/>
   </g>
   <g id="patch_177">
    <path d="M 1193.23978 246.90101 
L 1436.99976 246.90101 
" style="fill: none; stroke: #000000; stroke-width: 0.8; stroke-linejoin: miter; stroke-linecap: square"/>
   </g>
   <g id="patch_178">
    <path d="M 1193.23978 16.638052 
L 1436.99976 16.638052 
" style="fill: none; stroke: #000000; stroke-width: 0.8; stroke-linejoin: miter; stroke-linecap: square"/>
   </g>
  </g>
 </g>
 <defs>
  <clipPath id="p3bc5a974f9">
   <rect x="36.457115" y="16.638052" width="243.75998" height="230.262958"/>
  </clipPath>
  <clipPath id="p0c09c6b4af">
   <rect x="339.764352" y="16.638052" width="243.75998" height="230.262958"/>
  </clipPath>
  <clipPath id="p38d28119a4">
   <rect x="621.824486" y="16.638052" width="243.75998" height="230.262958"/>
  </clipPath>
  <clipPath id="pbfe4b95f2f">
   <rect x="896.399946" y="16.638052" width="243.75998" height="230.262958"/>
  </clipPath>
  <clipPath id="pe9173e1996">
   <rect x="1193.23978" y="16.638052" width="243.75998" height="230.262958"/>
  </clipPath>
 </defs>
</svg>
