<?xml version="1.0" encoding="utf-8" standalone="no"?>
<!DOCTYPE svg PUBLIC "-//W3C//DTD SVG 1.1//EN"
  "http://www.w3.org/Graphics/SVG/1.1/DTD/svg11.dtd">
<svg xmlns:xlink="http://www.w3.org/1999/xlink" width="576pt" height="288pt" viewBox="0 0 576 288" xmlns="http://www.w3.org/2000/svg" version="1.1">
 <metadata>
  <rdf:RDF xmlns:dc="http://purl.org/dc/elements/1.1/" xmlns:cc="http://creativecommons.org/ns#" xmlns:rdf="http://www.w3.org/1999/02/22-rdf-syntax-ns#">
   <cc:Work>
    <dc:type rdf:resource="http://purl.org/dc/dcmitype/StillImage"/>
    <dc:date>2024-11-24T11:27:28.048065</dc:date>
    <dc:format>image/svg+xml</dc:format>
    <dc:creator>
     <cc:Agent>
      <dc:title>Matplotlib v3.9.2, https://matplotlib.org/</dc:title>
     </cc:Agent>
    </dc:creator>
   </cc:Work>
  </rdf:RDF>
 </metadata>
 <defs>
  <style type="text/css">*{stroke-linejoin: round; stroke-linecap: butt}</style>
 </defs>
 <g id="figure_1">
  <g id="patch_1">
   <path d="M 0 288 
L 576 288 
L 576 0 
L 0 0 
z
" style="fill: #ffffff"/>
  </g>
  <g id="axes_1">
   <g id="patch_2">
    <path d="M 44.203125 246.84375 
L 297.551562 246.84375 
L 297.551562 25.918125 
L 44.203125 25.918125 
z
" style="fill: #ffffff"/>
   </g>
   <g id="PolyCollection_1">
    <defs>
     <path id="m708aba776a" d="M 134.734913 -51.198324 
L 134.630208 -51.198324 
L 130.726474 -53.227026 
L 127.111801 -55.255727 
L 123.786187 -57.284429 
L 120.749633 -59.313131 
L 118.00214 -61.341833 
L 115.543706 -63.370535 
L 113.374332 -65.399236 
L 111.494018 -67.427938 
L 109.902764 -69.45664 
L 108.60057 -71.485342 
L 107.587436 -73.514044 
L 106.863362 -75.542745 
L 106.289103 -77.571447 
L 105.725414 -79.600149 
L 105.172295 -81.628851 
L 104.629747 -83.657553 
L 104.097768 -85.686254 
L 103.57636 -87.714956 
L 103.065521 -89.743658 
L 102.565253 -91.77236 
L 102.093275 -93.801061 
L 101.667307 -95.829763 
L 101.287348 -97.858465 
L 100.953399 -99.887167 
L 100.665459 -101.915869 
L 100.42353 -103.94457 
L 100.22761 -105.973272 
L 100.077699 -108.001974 
L 99.93538 -110.030676 
L 99.762234 -112.059378 
L 99.55826 -114.088079 
L 99.323459 -116.116781 
L 99.057831 -118.145483 
L 98.761375 -120.174185 
L 98.434092 -122.202887 
L 98.075982 -124.231588 
L 97.682345 -126.26029 
L 97.24848 -128.288992 
L 96.774388 -130.317694 
L 96.260068 -132.346395 
L 95.705521 -134.375097 
L 95.110747 -136.403799 
L 94.475746 -138.432501 
L 93.800517 -140.461203 
L 93.112343 -142.489904 
L 92.438507 -144.518606 
L 91.779009 -146.547308 
L 91.133849 -148.57601 
L 90.503027 -150.604712 
L 89.886542 -152.633413 
L 89.284395 -154.662115 
L 88.696586 -156.690817 
L 88.097548 -158.719519 
L 87.461715 -160.748221 
L 86.789087 -162.776922 
L 86.079664 -164.805624 
L 85.333446 -166.834326 
L 84.550432 -168.863028 
L 83.730623 -170.89173 
L 82.874019 -172.920431 
L 82.001628 -174.949133 
L 81.134459 -176.977835 
L 80.272511 -179.006537 
L 79.415784 -181.035238 
L 78.564279 -183.06394 
L 77.717995 -185.092642 
L 76.876933 -187.121344 
L 76.041092 -189.150046 
L 75.240917 -191.178747 
L 74.506854 -193.207449 
L 73.838901 -195.236151 
L 73.23706 -197.264853 
L 72.701329 -199.293555 
L 72.23171 -201.322256 
L 71.828201 -203.350958 
L 71.490804 -205.37966 
L 71.102725 -207.408362 
L 70.547171 -209.437064 
L 69.824143 -211.465765 
L 68.93364 -213.494467 
L 67.875663 -215.523169 
L 66.650212 -217.551871 
L 65.257286 -219.580572 
L 63.696886 -221.609274 
L 62.105872 -223.637976 
L 60.621108 -225.666678 
L 59.242593 -227.69538 
L 57.970326 -229.724081 
L 56.804308 -231.752783 
L 55.744539 -233.781485 
L 54.791018 -235.810187 
L 53.943747 -237.838889 
L 53.202724 -239.86759 
L 52.56795 -241.896292 
L 52.039425 -243.924994 
L 51.617149 -245.953696 
L 51.301121 -247.982398 
L 51.091342 -250.011099 
L 50.987812 -252.039801 
L 95.811045 -252.039801 
L 95.811045 -252.039801 
L 96.767183 -250.011099 
L 97.619208 -247.982398 
L 98.367121 -245.953696 
L 99.010921 -243.924994 
L 99.550609 -241.896292 
L 99.986184 -239.86759 
L 100.317646 -237.838889 
L 100.544996 -235.810187 
L 100.668233 -233.781485 
L 100.687358 -231.752783 
L 100.60237 -229.724081 
L 100.41327 -227.69538 
L 100.213262 -225.666678 
L 100.095551 -223.637976 
L 100.060136 -221.609274 
L 100.107019 -219.580572 
L 100.236198 -217.551871 
L 100.447674 -215.523169 
L 100.741448 -213.494467 
L 101.117518 -211.465765 
L 101.559302 -209.437064 
L 102.05022 -207.408362 
L 102.590271 -205.37966 
L 103.179454 -203.350958 
L 103.817771 -201.322256 
L 104.50522 -199.293555 
L 105.241802 -197.264853 
L 106.027517 -195.236151 
L 106.803111 -193.207449 
L 107.509333 -191.178747 
L 108.14618 -189.150046 
L 108.713655 -187.121344 
L 109.211756 -185.092642 
L 109.640483 -183.06394 
L 109.999838 -181.035238 
L 110.289819 -179.006537 
L 110.566975 -176.977835 
L 110.887858 -174.949133 
L 111.252466 -172.920431 
L 111.6608 -170.89173 
L 112.112859 -168.863028 
L 112.608644 -166.834326 
L 113.148154 -164.805624 
L 113.73139 -162.776922 
L 114.334579 -160.748221 
L 114.933947 -158.719519 
L 115.529495 -156.690817 
L 116.121223 -154.662115 
L 116.70913 -152.633413 
L 117.293217 -150.604712 
L 117.873483 -148.57601 
L 118.449929 -146.547308 
L 119.022871 -144.518606 
L 119.592624 -142.489904 
L 120.159188 -140.461203 
L 120.722564 -138.432501 
L 121.28275 -136.403799 
L 121.839748 -134.375097 
L 122.393558 -132.346395 
L 122.944179 -130.317694 
L 123.486879 -128.288992 
L 124.016929 -126.26029 
L 124.534327 -124.231588 
L 125.039074 -122.202887 
L 125.53117 -120.174185 
L 126.010614 -118.145483 
L 126.477407 -116.116781 
L 126.931549 -114.088079 
L 127.373039 -112.059378 
L 127.801879 -110.030676 
L 128.218067 -108.001974 
L 128.621603 -105.973272 
L 129.012489 -103.94457 
L 129.390723 -101.915869 
L 129.756306 -99.887167 
L 130.109237 -97.858465 
L 130.449518 -95.829763 
L 130.777147 -93.801061 
L 131.092125 -91.77236 
L 131.394451 -89.743658 
L 131.684126 -87.714956 
L 131.96115 -85.686254 
L 132.225523 -83.657553 
L 132.477244 -81.628851 
L 132.716315 -79.600149 
L 132.942733 -77.571447 
L 133.156501 -75.542745 
L 133.357617 -73.514044 
L 133.546082 -71.485342 
L 133.721896 -69.45664 
L 133.885059 -67.427938 
L 134.03557 -65.399236 
L 134.17343 -63.370535 
L 134.298639 -61.341833 
L 134.411196 -59.313131 
L 134.511102 -57.284429 
L 134.598357 -55.255727 
L 134.67296 -53.227026 
L 134.734913 -51.198324 
z
" style="stroke: #90ee90; stroke-opacity: 0.75"/>
    </defs>
    <g clip-path="url(#p3476b83766)">
     <use xlink:href="#m708aba776a" x="0" y="288" style="fill: #90ee90; fill-opacity: 0.75; stroke: #90ee90; stroke-opacity: 0.75"/>
    </g>
   </g>
   <g id="PolyCollection_2">
    <defs>
     <path id="mc9fd2e9baa" d="M 134.75429 -51.198324 
L 134.647084 -51.198324 
L 133.896417 -53.227026 
L 133.125409 -55.255727 
L 132.356547 -57.284429 
L 131.582302 -59.313131 
L 130.823163 -61.341833 
L 130.067225 -63.370535 
L 129.322291 -65.399236 
L 128.568877 -67.427938 
L 127.840315 -69.45664 
L 127.11079 -71.485342 
L 126.37271 -73.514044 
L 125.648123 -75.542745 
L 124.934512 -77.571447 
L 124.213242 -79.600149 
L 123.514381 -81.628851 
L 122.789646 -83.657553 
L 122.079243 -85.686254 
L 121.37691 -87.714956 
L 120.671334 -89.743658 
L 119.984957 -91.77236 
L 119.286124 -93.801061 
L 118.588164 -95.829763 
L 117.88569 -97.858465 
L 117.191022 -99.887167 
L 116.491893 -101.915869 
L 115.813909 -103.94457 
L 115.111597 -105.973272 
L 114.429714 -108.001974 
L 113.733705 -110.030676 
L 113.045743 -112.059378 
L 112.345358 -114.088079 
L 111.646981 -116.116781 
L 110.960766 -118.145483 
L 110.260253 -120.174185 
L 109.559124 -122.202887 
L 108.877289 -124.231588 
L 108.184247 -126.26029 
L 107.48295 -128.288992 
L 106.785386 -130.317694 
L 106.084923 -132.346395 
L 105.381443 -134.375097 
L 104.681051 -136.403799 
L 103.963814 -138.432501 
L 103.26419 -140.461203 
L 102.556011 -142.489904 
L 101.832775 -144.518606 
L 101.11392 -146.547308 
L 100.396447 -148.57601 
L 99.679931 -150.604712 
L 98.958715 -152.633413 
L 98.240551 -154.662115 
L 97.529606 -156.690817 
L 96.800224 -158.719519 
L 96.074928 -160.748221 
L 95.318 -162.776922 
L 94.573246 -164.805624 
L 93.819734 -166.834326 
L 93.079269 -168.863028 
L 92.322669 -170.89173 
L 91.566543 -172.920431 
L 90.842434 -174.949133 
L 90.08922 -176.977835 
L 89.321966 -179.006537 
L 88.565936 -181.035238 
L 87.784572 -183.06394 
L 86.983369 -185.092642 
L 86.214692 -187.121344 
L 85.417981 -189.150046 
L 84.618664 -191.178747 
L 83.809408 -193.207449 
L 83.01495 -195.236151 
L 82.206228 -197.264853 
L 81.393195 -199.293555 
L 80.555989 -201.322256 
L 79.714331 -203.350958 
L 78.893949 -205.37966 
L 78.080981 -207.408362 
L 77.236836 -209.437064 
L 76.410129 -211.465765 
L 75.5464 -213.494467 
L 74.695375 -215.523169 
L 73.875322 -217.551871 
L 72.982321 -219.580572 
L 72.16759 -221.609274 
L 71.303799 -223.637976 
L 70.421527 -225.666678 
L 69.543539 -227.69538 
L 68.71199 -229.724081 
L 67.838746 -231.752783 
L 66.92033 -233.781485 
L 66.092779 -235.810187 
L 65.281557 -237.838889 
L 64.423054 -239.86759 
L 63.591194 -241.896292 
L 62.784046 -243.924994 
L 61.948857 -245.953696 
L 61.139744 -247.982398 
L 60.245875 -250.011099 
L 59.409956 -252.039801 
L 72.060096 -252.039801 
L 72.060096 -252.039801 
L 72.564492 -250.011099 
L 73.103214 -247.982398 
L 73.616535 -245.953696 
L 74.170592 -243.924994 
L 74.709998 -241.896292 
L 75.270884 -239.86759 
L 75.832434 -237.838889 
L 76.410779 -235.810187 
L 76.978465 -233.781485 
L 77.565087 -231.752783 
L 78.156891 -229.724081 
L 78.754928 -227.69538 
L 79.350887 -225.666678 
L 79.945598 -223.637976 
L 80.563528 -221.609274 
L 81.170385 -219.580572 
L 81.79002 -217.551871 
L 82.401497 -215.523169 
L 83.026699 -213.494467 
L 83.66946 -211.465765 
L 84.28609 -209.437064 
L 84.933958 -207.408362 
L 85.584157 -205.37966 
L 86.239068 -203.350958 
L 86.894575 -201.322256 
L 87.546593 -199.293555 
L 88.196412 -197.264853 
L 88.87962 -195.236151 
L 89.552782 -193.207449 
L 90.224115 -191.178747 
L 90.880754 -189.150046 
L 91.556551 -187.121344 
L 92.227911 -185.092642 
L 92.89813 -183.06394 
L 93.574746 -181.035238 
L 94.246137 -179.006537 
L 94.911724 -176.977835 
L 95.602253 -174.949133 
L 96.286296 -172.920431 
L 96.971309 -170.89173 
L 97.647793 -168.863028 
L 98.321662 -166.834326 
L 99.010774 -164.805624 
L 99.685364 -162.776922 
L 100.371483 -160.748221 
L 101.021387 -158.719519 
L 101.695954 -156.690817 
L 102.370618 -154.662115 
L 103.043218 -152.633413 
L 103.705351 -150.604712 
L 104.376836 -148.57601 
L 105.034769 -146.547308 
L 105.701957 -144.518606 
L 106.366184 -142.489904 
L 107.017277 -140.461203 
L 107.668775 -138.432501 
L 108.313721 -136.403799 
L 108.961513 -134.375097 
L 109.615405 -132.346395 
L 110.257667 -130.317694 
L 110.898199 -128.288992 
L 111.54497 -126.26029 
L 112.176013 -124.231588 
L 112.813604 -122.202887 
L 113.443591 -120.174185 
L 114.083195 -118.145483 
L 114.707688 -116.116781 
L 115.337016 -114.088079 
L 115.973452 -112.059378 
L 116.608214 -110.030676 
L 117.235062 -108.001974 
L 117.851058 -105.973272 
L 118.475705 -103.94457 
L 119.101201 -101.915869 
L 119.722356 -99.887167 
L 120.352831 -97.858465 
L 120.969313 -95.829763 
L 121.594158 -93.801061 
L 122.226756 -91.77236 
L 122.84787 -89.743658 
L 123.475701 -87.714956 
L 124.098724 -85.686254 
L 124.724611 -83.657553 
L 125.345832 -81.628851 
L 125.970971 -79.600149 
L 126.596782 -77.571447 
L 127.223924 -75.542745 
L 127.846913 -73.514044 
L 128.474083 -71.485342 
L 129.096741 -69.45664 
L 129.719589 -67.427938 
L 130.346962 -65.399236 
L 130.966025 -63.370535 
L 131.597293 -61.341833 
L 132.221301 -59.313131 
L 132.846551 -57.284429 
L 133.468879 -55.255727 
L 134.095688 -53.227026 
L 134.75429 -51.198324 
z
" style="stroke: #6495ed; stroke-opacity: 0.75"/>
    </defs>
    <g clip-path="url(#p3476b83766)">
     <use xlink:href="#mc9fd2e9baa" x="0" y="288" style="fill: #6495ed; fill-opacity: 0.75; stroke: #6495ed; stroke-opacity: 0.75"/>
    </g>
   </g>
   <g id="matplotlib.axis_1">
    <g id="xtick_1">
     <g id="line2d_1">
      <defs>
       <path id="mf613700793" d="M 0 0 
L 0 3.5 
" style="stroke: #000000; stroke-width: 0.8"/>
      </defs>
      <g>
       <use xlink:href="#mf613700793" x="62.299442" y="246.84375" style="stroke: #000000; stroke-width: 0.8"/>
      </g>
     </g>
     <g id="text_1">
      <!-- −0.04 -->
      <g transform="translate(46.976786 261.442187) scale(0.1 -0.1)">
       <defs>
        <path id="DejaVuSans-2212" d="M 678 2272 
L 4684 2272 
L 4684 1741 
L 678 1741 
L 678 2272 
z
" transform="scale(0.015625)"/>
        <path id="DejaVuSans-30" d="M 2034 4250 
Q 1547 4250 1301 3770 
Q 1056 3291 1056 2328 
Q 1056 1369 1301 889 
Q 1547 409 2034 409 
Q 2525 409 2770 889 
Q 3016 1369 3016 2328 
Q 3016 3291 2770 3770 
Q 2525 4250 2034 4250 
z
M 2034 4750 
Q 2819 4750 3233 4129 
Q 3647 3509 3647 2328 
Q 3647 1150 3233 529 
Q 2819 -91 2034 -91 
Q 1250 -91 836 529 
Q 422 1150 422 2328 
Q 422 3509 836 4129 
Q 1250 4750 2034 4750 
z
" transform="scale(0.015625)"/>
        <path id="DejaVuSans-2e" d="M 684 794 
L 1344 794 
L 1344 0 
L 684 0 
L 684 794 
z
" transform="scale(0.015625)"/>
        <path id="DejaVuSans-34" d="M 2419 4116 
L 825 1625 
L 2419 1625 
L 2419 4116 
z
M 2253 4666 
L 3047 4666 
L 3047 1625 
L 3713 1625 
L 3713 1100 
L 3047 1100 
L 3047 0 
L 2419 0 
L 2419 1100 
L 313 1100 
L 313 1709 
L 2253 4666 
z
" transform="scale(0.015625)"/>
       </defs>
       <use xlink:href="#DejaVuSans-2212"/>
       <use xlink:href="#DejaVuSans-30" x="83.789062"/>
       <use xlink:href="#DejaVuSans-2e" x="147.412109"/>
       <use xlink:href="#DejaVuSans-30" x="179.199219"/>
       <use xlink:href="#DejaVuSans-34" x="242.822266"/>
      </g>
     </g>
    </g>
    <g id="xtick_2">
     <g id="line2d_2">
      <g>
       <use xlink:href="#mf613700793" x="98.492076" y="246.84375" style="stroke: #000000; stroke-width: 0.8"/>
      </g>
     </g>
     <g id="text_2">
      <!-- −0.02 -->
      <g transform="translate(83.16942 261.442187) scale(0.1 -0.1)">
       <defs>
        <path id="DejaVuSans-32" d="M 1228 531 
L 3431 531 
L 3431 0 
L 469 0 
L 469 531 
Q 828 903 1448 1529 
Q 2069 2156 2228 2338 
Q 2531 2678 2651 2914 
Q 2772 3150 2772 3378 
Q 2772 3750 2511 3984 
Q 2250 4219 1831 4219 
Q 1534 4219 1204 4116 
Q 875 4013 500 3803 
L 500 4441 
Q 881 4594 1212 4672 
Q 1544 4750 1819 4750 
Q 2544 4750 2975 4387 
Q 3406 4025 3406 3419 
Q 3406 3131 3298 2873 
Q 3191 2616 2906 2266 
Q 2828 2175 2409 1742 
Q 1991 1309 1228 531 
z
" transform="scale(0.015625)"/>
       </defs>
       <use xlink:href="#DejaVuSans-2212"/>
       <use xlink:href="#DejaVuSans-30" x="83.789062"/>
       <use xlink:href="#DejaVuSans-2e" x="147.412109"/>
       <use xlink:href="#DejaVuSans-30" x="179.199219"/>
       <use xlink:href="#DejaVuSans-32" x="242.822266"/>
      </g>
     </g>
    </g>
    <g id="xtick_3">
     <g id="line2d_3">
      <g>
       <use xlink:href="#mf613700793" x="134.68471" y="246.84375" style="stroke: #000000; stroke-width: 0.8"/>
      </g>
     </g>
     <g id="text_3">
      <!-- 0.00 -->
      <g transform="translate(123.551897 261.442187) scale(0.1 -0.1)">
       <use xlink:href="#DejaVuSans-30"/>
       <use xlink:href="#DejaVuSans-2e" x="63.623047"/>
       <use xlink:href="#DejaVuSans-30" x="95.410156"/>
       <use xlink:href="#DejaVuSans-30" x="159.033203"/>
      </g>
     </g>
    </g>
    <g id="xtick_4">
     <g id="line2d_4">
      <g>
       <use xlink:href="#mf613700793" x="170.877344" y="246.84375" style="stroke: #000000; stroke-width: 0.8"/>
      </g>
     </g>
     <g id="text_4">
      <!-- 0.02 -->
      <g transform="translate(159.744531 261.442187) scale(0.1 -0.1)">
       <use xlink:href="#DejaVuSans-30"/>
       <use xlink:href="#DejaVuSans-2e" x="63.623047"/>
       <use xlink:href="#DejaVuSans-30" x="95.410156"/>
       <use xlink:href="#DejaVuSans-32" x="159.033203"/>
      </g>
     </g>
    </g>
    <g id="xtick_5">
     <g id="line2d_5">
      <g>
       <use xlink:href="#mf613700793" x="207.069978" y="246.84375" style="stroke: #000000; stroke-width: 0.8"/>
      </g>
     </g>
     <g id="text_5">
      <!-- 0.04 -->
      <g transform="translate(195.937165 261.442187) scale(0.1 -0.1)">
       <use xlink:href="#DejaVuSans-30"/>
       <use xlink:href="#DejaVuSans-2e" x="63.623047"/>
       <use xlink:href="#DejaVuSans-30" x="95.410156"/>
       <use xlink:href="#DejaVuSans-34" x="159.033203"/>
      </g>
     </g>
    </g>
    <g id="xtick_6">
     <g id="line2d_6">
      <g>
       <use xlink:href="#mf613700793" x="243.262612" y="246.84375" style="stroke: #000000; stroke-width: 0.8"/>
      </g>
     </g>
     <g id="text_6">
      <!-- 0.06 -->
      <g transform="translate(232.129799 261.442187) scale(0.1 -0.1)">
       <defs>
        <path id="DejaVuSans-36" d="M 2113 2584 
Q 1688 2584 1439 2293 
Q 1191 2003 1191 1497 
Q 1191 994 1439 701 
Q 1688 409 2113 409 
Q 2538 409 2786 701 
Q 3034 994 3034 1497 
Q 3034 2003 2786 2293 
Q 2538 2584 2113 2584 
z
M 3366 4563 
L 3366 3988 
Q 3128 4100 2886 4159 
Q 2644 4219 2406 4219 
Q 1781 4219 1451 3797 
Q 1122 3375 1075 2522 
Q 1259 2794 1537 2939 
Q 1816 3084 2150 3084 
Q 2853 3084 3261 2657 
Q 3669 2231 3669 1497 
Q 3669 778 3244 343 
Q 2819 -91 2113 -91 
Q 1303 -91 875 529 
Q 447 1150 447 2328 
Q 447 3434 972 4092 
Q 1497 4750 2381 4750 
Q 2619 4750 2861 4703 
Q 3103 4656 3366 4563 
z
" transform="scale(0.015625)"/>
       </defs>
       <use xlink:href="#DejaVuSans-30"/>
       <use xlink:href="#DejaVuSans-2e" x="63.623047"/>
       <use xlink:href="#DejaVuSans-30" x="95.410156"/>
       <use xlink:href="#DejaVuSans-36" x="159.033203"/>
      </g>
     </g>
    </g>
    <g id="xtick_7">
     <g id="line2d_7">
      <g>
       <use xlink:href="#mf613700793" x="279.455246" y="246.84375" style="stroke: #000000; stroke-width: 0.8"/>
      </g>
     </g>
     <g id="text_7">
      <!-- 0.08 -->
      <g transform="translate(268.322433 261.442187) scale(0.1 -0.1)">
       <defs>
        <path id="DejaVuSans-38" d="M 2034 2216 
Q 1584 2216 1326 1975 
Q 1069 1734 1069 1313 
Q 1069 891 1326 650 
Q 1584 409 2034 409 
Q 2484 409 2743 651 
Q 3003 894 3003 1313 
Q 3003 1734 2745 1975 
Q 2488 2216 2034 2216 
z
M 1403 2484 
Q 997 2584 770 2862 
Q 544 3141 544 3541 
Q 544 4100 942 4425 
Q 1341 4750 2034 4750 
Q 2731 4750 3128 4425 
Q 3525 4100 3525 3541 
Q 3525 3141 3298 2862 
Q 3072 2584 2669 2484 
Q 3125 2378 3379 2068 
Q 3634 1759 3634 1313 
Q 3634 634 3220 271 
Q 2806 -91 2034 -91 
Q 1263 -91 848 271 
Q 434 634 434 1313 
Q 434 1759 690 2068 
Q 947 2378 1403 2484 
z
M 1172 3481 
Q 1172 3119 1398 2916 
Q 1625 2713 2034 2713 
Q 2441 2713 2670 2916 
Q 2900 3119 2900 3481 
Q 2900 3844 2670 4047 
Q 2441 4250 2034 4250 
Q 1625 4250 1398 4047 
Q 1172 3844 1172 3481 
z
" transform="scale(0.015625)"/>
       </defs>
       <use xlink:href="#DejaVuSans-30"/>
       <use xlink:href="#DejaVuSans-2e" x="63.623047"/>
       <use xlink:href="#DejaVuSans-30" x="95.410156"/>
       <use xlink:href="#DejaVuSans-38" x="159.033203"/>
      </g>
     </g>
    </g>
    <g id="text_8">
     <!-- Normal Extension [mm] -->
     <g transform="translate(111.419531 275.120313) scale(0.1 -0.1)">
      <defs>
       <path id="DejaVuSans-4e" d="M 628 4666 
L 1478 4666 
L 3547 763 
L 3547 4666 
L 4159 4666 
L 4159 0 
L 3309 0 
L 1241 3903 
L 1241 0 
L 628 0 
L 628 4666 
z
" transform="scale(0.015625)"/>
       <path id="DejaVuSans-6f" d="M 1959 3097 
Q 1497 3097 1228 2736 
Q 959 2375 959 1747 
Q 959 1119 1226 758 
Q 1494 397 1959 397 
Q 2419 397 2687 759 
Q 2956 1122 2956 1747 
Q 2956 2369 2687 2733 
Q 2419 3097 1959 3097 
z
M 1959 3584 
Q 2709 3584 3137 3096 
Q 3566 2609 3566 1747 
Q 3566 888 3137 398 
Q 2709 -91 1959 -91 
Q 1206 -91 779 398 
Q 353 888 353 1747 
Q 353 2609 779 3096 
Q 1206 3584 1959 3584 
z
" transform="scale(0.015625)"/>
       <path id="DejaVuSans-72" d="M 2631 2963 
Q 2534 3019 2420 3045 
Q 2306 3072 2169 3072 
Q 1681 3072 1420 2755 
Q 1159 2438 1159 1844 
L 1159 0 
L 581 0 
L 581 3500 
L 1159 3500 
L 1159 2956 
Q 1341 3275 1631 3429 
Q 1922 3584 2338 3584 
Q 2397 3584 2469 3576 
Q 2541 3569 2628 3553 
L 2631 2963 
z
" transform="scale(0.015625)"/>
       <path id="DejaVuSans-6d" d="M 3328 2828 
Q 3544 3216 3844 3400 
Q 4144 3584 4550 3584 
Q 5097 3584 5394 3201 
Q 5691 2819 5691 2113 
L 5691 0 
L 5113 0 
L 5113 2094 
Q 5113 2597 4934 2840 
Q 4756 3084 4391 3084 
Q 3944 3084 3684 2787 
Q 3425 2491 3425 1978 
L 3425 0 
L 2847 0 
L 2847 2094 
Q 2847 2600 2669 2842 
Q 2491 3084 2119 3084 
Q 1678 3084 1418 2786 
Q 1159 2488 1159 1978 
L 1159 0 
L 581 0 
L 581 3500 
L 1159 3500 
L 1159 2956 
Q 1356 3278 1631 3431 
Q 1906 3584 2284 3584 
Q 2666 3584 2933 3390 
Q 3200 3197 3328 2828 
z
" transform="scale(0.015625)"/>
       <path id="DejaVuSans-61" d="M 2194 1759 
Q 1497 1759 1228 1600 
Q 959 1441 959 1056 
Q 959 750 1161 570 
Q 1363 391 1709 391 
Q 2188 391 2477 730 
Q 2766 1069 2766 1631 
L 2766 1759 
L 2194 1759 
z
M 3341 1997 
L 3341 0 
L 2766 0 
L 2766 531 
Q 2569 213 2275 61 
Q 1981 -91 1556 -91 
Q 1019 -91 701 211 
Q 384 513 384 1019 
Q 384 1609 779 1909 
Q 1175 2209 1959 2209 
L 2766 2209 
L 2766 2266 
Q 2766 2663 2505 2880 
Q 2244 3097 1772 3097 
Q 1472 3097 1187 3025 
Q 903 2953 641 2809 
L 641 3341 
Q 956 3463 1253 3523 
Q 1550 3584 1831 3584 
Q 2591 3584 2966 3190 
Q 3341 2797 3341 1997 
z
" transform="scale(0.015625)"/>
       <path id="DejaVuSans-6c" d="M 603 4863 
L 1178 4863 
L 1178 0 
L 603 0 
L 603 4863 
z
" transform="scale(0.015625)"/>
       <path id="DejaVuSans-20" transform="scale(0.015625)"/>
       <path id="DejaVuSans-45" d="M 628 4666 
L 3578 4666 
L 3578 4134 
L 1259 4134 
L 1259 2753 
L 3481 2753 
L 3481 2222 
L 1259 2222 
L 1259 531 
L 3634 531 
L 3634 0 
L 628 0 
L 628 4666 
z
" transform="scale(0.015625)"/>
       <path id="DejaVuSans-78" d="M 3513 3500 
L 2247 1797 
L 3578 0 
L 2900 0 
L 1881 1375 
L 863 0 
L 184 0 
L 1544 1831 
L 300 3500 
L 978 3500 
L 1906 2253 
L 2834 3500 
L 3513 3500 
z
" transform="scale(0.015625)"/>
       <path id="DejaVuSans-74" d="M 1172 4494 
L 1172 3500 
L 2356 3500 
L 2356 3053 
L 1172 3053 
L 1172 1153 
Q 1172 725 1289 603 
Q 1406 481 1766 481 
L 2356 481 
L 2356 0 
L 1766 0 
Q 1100 0 847 248 
Q 594 497 594 1153 
L 594 3053 
L 172 3053 
L 172 3500 
L 594 3500 
L 594 4494 
L 1172 4494 
z
" transform="scale(0.015625)"/>
       <path id="DejaVuSans-65" d="M 3597 1894 
L 3597 1613 
L 953 1613 
Q 991 1019 1311 708 
Q 1631 397 2203 397 
Q 2534 397 2845 478 
Q 3156 559 3463 722 
L 3463 178 
Q 3153 47 2828 -22 
Q 2503 -91 2169 -91 
Q 1331 -91 842 396 
Q 353 884 353 1716 
Q 353 2575 817 3079 
Q 1281 3584 2069 3584 
Q 2775 3584 3186 3129 
Q 3597 2675 3597 1894 
z
M 3022 2063 
Q 3016 2534 2758 2815 
Q 2500 3097 2075 3097 
Q 1594 3097 1305 2825 
Q 1016 2553 972 2059 
L 3022 2063 
z
" transform="scale(0.015625)"/>
       <path id="DejaVuSans-6e" d="M 3513 2113 
L 3513 0 
L 2938 0 
L 2938 2094 
Q 2938 2591 2744 2837 
Q 2550 3084 2163 3084 
Q 1697 3084 1428 2787 
Q 1159 2491 1159 1978 
L 1159 0 
L 581 0 
L 581 3500 
L 1159 3500 
L 1159 2956 
Q 1366 3272 1645 3428 
Q 1925 3584 2291 3584 
Q 2894 3584 3203 3211 
Q 3513 2838 3513 2113 
z
" transform="scale(0.015625)"/>
       <path id="DejaVuSans-73" d="M 2834 3397 
L 2834 2853 
Q 2591 2978 2328 3040 
Q 2066 3103 1784 3103 
Q 1356 3103 1142 2972 
Q 928 2841 928 2578 
Q 928 2378 1081 2264 
Q 1234 2150 1697 2047 
L 1894 2003 
Q 2506 1872 2764 1633 
Q 3022 1394 3022 966 
Q 3022 478 2636 193 
Q 2250 -91 1575 -91 
Q 1294 -91 989 -36 
Q 684 19 347 128 
L 347 722 
Q 666 556 975 473 
Q 1284 391 1588 391 
Q 1994 391 2212 530 
Q 2431 669 2431 922 
Q 2431 1156 2273 1281 
Q 2116 1406 1581 1522 
L 1381 1569 
Q 847 1681 609 1914 
Q 372 2147 372 2553 
Q 372 3047 722 3315 
Q 1072 3584 1716 3584 
Q 2034 3584 2315 3537 
Q 2597 3491 2834 3397 
z
" transform="scale(0.015625)"/>
       <path id="DejaVuSans-69" d="M 603 3500 
L 1178 3500 
L 1178 0 
L 603 0 
L 603 3500 
z
M 603 4863 
L 1178 4863 
L 1178 4134 
L 603 4134 
L 603 4863 
z
" transform="scale(0.015625)"/>
       <path id="DejaVuSans-5b" d="M 550 4863 
L 1875 4863 
L 1875 4416 
L 1125 4416 
L 1125 -397 
L 1875 -397 
L 1875 -844 
L 550 -844 
L 550 4863 
z
" transform="scale(0.015625)"/>
       <path id="DejaVuSans-5d" d="M 1947 4863 
L 1947 -844 
L 622 -844 
L 622 -397 
L 1369 -397 
L 1369 4416 
L 622 4416 
L 622 4863 
L 1947 4863 
z
" transform="scale(0.015625)"/>
      </defs>
      <use xlink:href="#DejaVuSans-4e"/>
      <use xlink:href="#DejaVuSans-6f" x="74.804688"/>
      <use xlink:href="#DejaVuSans-72" x="135.986328"/>
      <use xlink:href="#DejaVuSans-6d" x="175.349609"/>
      <use xlink:href="#DejaVuSans-61" x="272.761719"/>
      <use xlink:href="#DejaVuSans-6c" x="334.041016"/>
      <use xlink:href="#DejaVuSans-20" x="361.824219"/>
      <use xlink:href="#DejaVuSans-45" x="393.611328"/>
      <use xlink:href="#DejaVuSans-78" x="456.794922"/>
      <use xlink:href="#DejaVuSans-74" x="515.974609"/>
      <use xlink:href="#DejaVuSans-65" x="555.183594"/>
      <use xlink:href="#DejaVuSans-6e" x="616.707031"/>
      <use xlink:href="#DejaVuSans-73" x="680.085938"/>
      <use xlink:href="#DejaVuSans-69" x="732.185547"/>
      <use xlink:href="#DejaVuSans-6f" x="759.96875"/>
      <use xlink:href="#DejaVuSans-6e" x="821.150391"/>
      <use xlink:href="#DejaVuSans-20" x="884.529297"/>
      <use xlink:href="#DejaVuSans-5b" x="916.316406"/>
      <use xlink:href="#DejaVuSans-6d" x="955.330078"/>
      <use xlink:href="#DejaVuSans-6d" x="1052.742188"/>
      <use xlink:href="#DejaVuSans-5d" x="1150.154297"/>
     </g>
    </g>
   </g>
   <g id="matplotlib.axis_2">
    <g id="ytick_1">
     <g id="line2d_8">
      <defs>
       <path id="m8d9f29b7d8" d="M 0 0 
L -3.5 0 
" style="stroke: #000000; stroke-width: 0.8"/>
      </defs>
      <g>
       <use xlink:href="#m8d9f29b7d8" x="44.203125" y="236.801676" style="stroke: #000000; stroke-width: 0.8"/>
      </g>
     </g>
     <g id="text_9">
      <!-- 0 -->
      <g transform="translate(30.840625 240.600895) scale(0.1 -0.1)">
       <use xlink:href="#DejaVuSans-30"/>
      </g>
     </g>
    </g>
    <g id="ytick_2">
     <g id="line2d_9">
      <g>
       <use xlink:href="#m8d9f29b7d8" x="44.203125" y="196.633381" style="stroke: #000000; stroke-width: 0.8"/>
      </g>
     </g>
     <g id="text_10">
      <!-- 2 -->
      <g transform="translate(30.840625 200.432599) scale(0.1 -0.1)">
       <use xlink:href="#DejaVuSans-32"/>
      </g>
     </g>
    </g>
    <g id="ytick_3">
     <g id="line2d_10">
      <g>
       <use xlink:href="#m8d9f29b7d8" x="44.203125" y="156.465085" style="stroke: #000000; stroke-width: 0.8"/>
      </g>
     </g>
     <g id="text_11">
      <!-- 4 -->
      <g transform="translate(30.840625 160.264304) scale(0.1 -0.1)">
       <use xlink:href="#DejaVuSans-34"/>
      </g>
     </g>
    </g>
    <g id="ytick_4">
     <g id="line2d_11">
      <g>
       <use xlink:href="#m8d9f29b7d8" x="44.203125" y="116.29679" style="stroke: #000000; stroke-width: 0.8"/>
      </g>
     </g>
     <g id="text_12">
      <!-- 6 -->
      <g transform="translate(30.840625 120.096009) scale(0.1 -0.1)">
       <use xlink:href="#DejaVuSans-36"/>
      </g>
     </g>
    </g>
    <g id="ytick_5">
     <g id="line2d_12">
      <g>
       <use xlink:href="#m8d9f29b7d8" x="44.203125" y="76.128494" style="stroke: #000000; stroke-width: 0.8"/>
      </g>
     </g>
     <g id="text_13">
      <!-- 8 -->
      <g transform="translate(30.840625 79.927713) scale(0.1 -0.1)">
       <use xlink:href="#DejaVuSans-38"/>
      </g>
     </g>
    </g>
    <g id="ytick_6">
     <g id="line2d_13">
      <g>
       <use xlink:href="#m8d9f29b7d8" x="44.203125" y="35.960199" style="stroke: #000000; stroke-width: 0.8"/>
      </g>
     </g>
     <g id="text_14">
      <!-- 10 -->
      <g transform="translate(24.478125 39.759418) scale(0.1 -0.1)">
       <defs>
        <path id="DejaVuSans-31" d="M 794 531 
L 1825 531 
L 1825 4091 
L 703 3866 
L 703 4441 
L 1819 4666 
L 2450 4666 
L 2450 531 
L 3481 531 
L 3481 0 
L 794 0 
L 794 531 
z
" transform="scale(0.015625)"/>
       </defs>
       <use xlink:href="#DejaVuSans-31"/>
       <use xlink:href="#DejaVuSans-30" x="63.623047"/>
      </g>
     </g>
    </g>
    <g id="text_15">
     <!-- Load [kN] -->
     <g transform="translate(18.398438 160.503594) rotate(-90) scale(0.1 -0.1)">
      <defs>
       <path id="DejaVuSans-4c" d="M 628 4666 
L 1259 4666 
L 1259 531 
L 3531 531 
L 3531 0 
L 628 0 
L 628 4666 
z
" transform="scale(0.015625)"/>
       <path id="DejaVuSans-64" d="M 2906 2969 
L 2906 4863 
L 3481 4863 
L 3481 0 
L 2906 0 
L 2906 525 
Q 2725 213 2448 61 
Q 2172 -91 1784 -91 
Q 1150 -91 751 415 
Q 353 922 353 1747 
Q 353 2572 751 3078 
Q 1150 3584 1784 3584 
Q 2172 3584 2448 3432 
Q 2725 3281 2906 2969 
z
M 947 1747 
Q 947 1113 1208 752 
Q 1469 391 1925 391 
Q 2381 391 2643 752 
Q 2906 1113 2906 1747 
Q 2906 2381 2643 2742 
Q 2381 3103 1925 3103 
Q 1469 3103 1208 2742 
Q 947 2381 947 1747 
z
" transform="scale(0.015625)"/>
       <path id="DejaVuSans-6b" d="M 581 4863 
L 1159 4863 
L 1159 1991 
L 2875 3500 
L 3609 3500 
L 1753 1863 
L 3688 0 
L 2938 0 
L 1159 1709 
L 1159 0 
L 581 0 
L 581 4863 
z
" transform="scale(0.015625)"/>
      </defs>
      <use xlink:href="#DejaVuSans-4c"/>
      <use xlink:href="#DejaVuSans-6f" x="53.962891"/>
      <use xlink:href="#DejaVuSans-61" x="115.144531"/>
      <use xlink:href="#DejaVuSans-64" x="176.423828"/>
      <use xlink:href="#DejaVuSans-20" x="239.900391"/>
      <use xlink:href="#DejaVuSans-5b" x="271.6875"/>
      <use xlink:href="#DejaVuSans-6b" x="310.701172"/>
      <use xlink:href="#DejaVuSans-4e" x="368.611328"/>
      <use xlink:href="#DejaVuSans-5d" x="443.416016"/>
     </g>
    </g>
   </g>
   <g id="line2d_14">
    <path d="M 44.203125 236.801676 
L 297.551562 236.801676 
" clip-path="url(#p3476b83766)" style="fill: none; stroke-dasharray: 2.775,1.2; stroke-dashoffset: 0; stroke: #808080; stroke-opacity: 0.75; stroke-width: 0.75"/>
   </g>
   <g id="line2d_15">
    <path d="M 134.68471 246.84375 
L 134.68471 25.918125 
" clip-path="url(#p3476b83766)" style="fill: none; stroke-dasharray: 2.775,1.2; stroke-dashoffset: 0; stroke: #808080; stroke-opacity: 0.75; stroke-width: 0.75"/>
   </g>
   <g id="line2d_16">
    <path d="M 134.683364 236.801676 
L 134.140797 234.772974 
L 133.581915 232.744273 
L 133.00796 230.715571 
L 132.420231 228.686869 
L 131.820054 226.658167 
L 131.208747 224.629465 
L 130.587602 222.600764 
L 129.957864 220.572062 
L 129.320719 218.54336 
L 128.677284 216.514658 
L 128.028609 214.485956 
L 127.375676 212.457255 
L 126.719399 210.428553 
L 126.06063 208.399851 
L 125.400156 206.371149 
L 124.738702 204.342447 
L 124.076928 202.313746 
L 123.415428 200.285044 
L 122.754732 198.256342 
L 122.095302 196.22764 
L 121.437541 194.198939 
L 120.781789 192.170237 
L 120.128335 190.141535 
L 119.477422 188.112833 
L 118.829245 186.084131 
L 118.183955 184.05543 
L 117.541654 182.026728 
L 116.902387 179.998026 
L 116.266129 177.969324 
L 115.632771 175.940622 
L 115.002114 173.911921 
L 114.373858 171.883219 
L 113.747611 169.854517 
L 113.12291 167.825815 
L 112.499249 165.797113 
L 111.876128 163.768412 
L 111.253095 161.73971 
L 110.629801 159.711008 
L 110.006031 157.682306 
L 109.381725 155.653605 
L 108.756975 153.624903 
L 108.131989 151.596201 
L 107.507046 149.567499 
L 106.882425 147.538797 
L 106.258346 145.510096 
L 105.634906 143.481394 
L 105.012052 141.452692 
L 104.389572 139.42399 
L 103.767122 137.395288 
L 103.144278 135.366587 
L 102.520601 133.337885 
L 101.895715 131.309183 
L 101.269364 129.280481 
L 100.641465 127.251779 
L 100.012119 125.223078 
L 99.381609 123.194376 
L 98.750361 121.165674 
L 98.118897 119.136972 
L 97.487777 117.10827 
L 96.857541 115.079569 
L 96.228671 113.050867 
L 95.601559 111.022165 
L 94.976497 108.993463 
L 94.353693 106.964762 
L 93.733283 104.93606 
L 93.115363 102.907358 
L 92.500011 100.878656 
L 91.887308 98.849954 
L 91.277335 96.821253 
L 90.670168 94.792551 
L 90.065849 92.763849 
L 89.464352 90.735147 
L 88.865545 88.706445 
L 88.269159 86.677744 
L 87.674759 84.649042 
L 87.081738 82.62034 
L 86.489327 80.591638 
L 85.896626 78.562936 
L 85.302645 76.534235 
L 84.706366 74.505533 
L 84.106801 72.476831 
L 83.503058 70.448129 
L 82.894387 68.419428 
L 82.280223 66.390726 
L 81.660201 64.362024 
L 81.034169 62.333322 
L 80.402168 60.30462 
L 79.764414 58.275919 
L 79.121269 56.247217 
L 78.473211 54.218515 
L 77.820816 52.189813 
L 77.164738 50.161111 
L 76.505712 48.13241 
L 75.84456 46.103708 
L 75.182212 44.075006 
L 74.519739 42.046304 
L 73.858385 40.017602 
L 73.199606 37.988901 
L 72.545115 35.960199 
" clip-path="url(#p3476b83766)" style="fill: none; stroke-dasharray: 3.7,1.6; stroke-dashoffset: 0; stroke: #008000"/>
   </g>
   <g id="line2d_17">
    <path d="M 134.698597 236.801676 
L 134.001265 234.772974 
L 133.307621 232.744273 
L 132.617687 230.715571 
L 131.929756 228.686869 
L 131.245513 226.658167 
L 130.563106 224.629465 
L 129.883588 222.600764 
L 129.207019 220.572062 
L 128.532206 218.54336 
L 127.859394 216.514658 
L 127.18866 214.485956 
L 126.51956 212.457255 
L 125.852557 210.428553 
L 125.187491 208.399851 
L 124.523576 206.371149 
L 123.861116 204.342447 
L 123.199376 202.313746 
L 122.538324 200.285044 
L 121.879163 198.256342 
L 121.219833 196.22764 
L 120.561958 194.198939 
L 119.903615 192.170237 
L 119.246293 190.141535 
L 118.589111 188.112833 
L 117.931069 186.084131 
L 117.273528 184.05543 
L 116.615693 182.026728 
L 115.958475 179.998026 
L 115.299669 177.969324 
L 114.640684 175.940622 
L 113.980994 173.911921 
L 113.320033 171.883219 
L 112.659283 169.854517 
L 111.995856 167.825815 
L 111.332488 165.797113 
L 110.667607 163.768412 
L 110.000722 161.73971 
L 109.333475 159.711008 
L 108.664452 157.682306 
L 107.993962 155.653605 
L 107.3215 153.624903 
L 106.647647 151.596201 
L 105.97169 149.567499 
L 105.294476 147.538797 
L 104.615423 145.510096 
L 103.933901 143.481394 
L 103.251124 141.452692 
L 102.565876 139.42399 
L 101.879187 137.395288 
L 101.190341 135.366587 
L 100.499196 133.337885 
L 99.80709 131.309183 
L 99.112233 129.280481 
L 98.416184 127.251779 
L 97.717354 125.223078 
L 97.017366 123.194376 
L 96.316009 121.165674 
L 95.612645 119.136972 
L 94.907425 117.10827 
L 94.200489 115.079569 
L 93.492711 113.050867 
L 92.783559 111.022165 
L 92.072801 108.993463 
L 91.361137 106.964762 
L 90.647876 104.93606 
L 89.934069 102.907358 
L 89.219252 100.878656 
L 88.504891 98.849954 
L 87.78892 96.821253 
L 87.072969 94.792551 
L 86.356041 92.763849 
L 85.640727 90.735147 
L 84.924259 88.706445 
L 84.208313 86.677744 
L 83.493333 84.649042 
L 82.778597 82.62034 
L 82.06504 80.591638 
L 81.352556 78.562936 
L 80.642055 76.534235 
L 79.932712 74.505533 
L 79.224803 72.476831 
L 78.518676 70.448129 
L 77.815777 68.419428 
L 77.114521 66.390726 
L 76.41595 64.362024 
L 75.721347 62.333322 
L 75.028822 60.30462 
L 74.340541 58.275919 
L 73.655401 56.247217 
L 72.97402 54.218515 
L 72.29713 52.189813 
L 71.624761 50.161111 
L 70.95729 48.13241 
L 70.294343 46.103708 
L 69.636889 44.075006 
L 68.98439 42.046304 
L 68.339236 40.017602 
L 67.697817 37.988901 
L 67.063489 35.960199 
" clip-path="url(#p3476b83766)" style="fill: none; stroke: #0000ff; stroke-width: 0.5; stroke-linecap: square"/>
   </g>
   <g id="line2d_18">
    <defs>
     <path id="m17b74be9eb" d="M 0 1 
C 0.265203 1 0.51958 0.894634 0.707107 0.707107 
C 0.894634 0.51958 1 0.265203 1 0 
C 1 -0.265203 0.894634 -0.51958 0.707107 -0.707107 
C 0.51958 -0.894634 0.265203 -1 0 -1 
C -0.265203 -1 -0.51958 -0.894634 -0.707107 -0.707107 
C -0.894634 -0.51958 -1 -0.265203 -1 0 
C -1 0.265203 -0.894634 0.51958 -0.707107 0.707107 
C -0.51958 0.894634 -0.265203 1 0 1 
z
" style="stroke: #1f77b4"/>
    </defs>
    <g clip-path="url(#p3476b83766)">
     <use xlink:href="#m17b74be9eb" x="134.68471" y="236.801676" style="fill: #1f77b4; stroke: #1f77b4"/>
     <use xlink:href="#m17b74be9eb" x="132.819264" y="230.391107" style="fill: #1f77b4; stroke: #1f77b4"/>
     <use xlink:href="#m17b74be9eb" x="129.12454" y="225.826005" style="fill: #1f77b4; stroke: #1f77b4"/>
     <use xlink:href="#m17b74be9eb" x="128.572554" y="222.717851" style="fill: #1f77b4; stroke: #1f77b4"/>
     <use xlink:href="#m17b74be9eb" x="127.073315" y="218.055619" style="fill: #1f77b4; stroke: #1f77b4"/>
     <use xlink:href="#m17b74be9eb" x="126.843949" y="213.069622" style="fill: #1f77b4; stroke: #1f77b4"/>
     <use xlink:href="#m17b74be9eb" x="126.069281" y="208.018871" style="fill: #1f77b4; stroke: #1f77b4"/>
     <use xlink:href="#m17b74be9eb" x="124.004602" y="202.968121" style="fill: #1f77b4; stroke: #1f77b4"/>
     <use xlink:href="#m17b74be9eb" x="122.577575" y="197.561227" style="fill: #1f77b4; stroke: #1f77b4"/>
     <use xlink:href="#m17b74be9eb" x="119.514628" y="192.316217" style="fill: #1f77b4; stroke: #1f77b4"/>
     <use xlink:href="#m17b74be9eb" x="117.439501" y="186.812195" style="fill: #1f77b4; stroke: #1f77b4"/>
     <use xlink:href="#m17b74be9eb" x="116.121162" y="180.142614" style="fill: #1f77b4; stroke: #1f77b4"/>
     <use xlink:href="#m17b74be9eb" x="115.997161" y="175.545136" style="fill: #1f77b4; stroke: #1f77b4"/>
     <use xlink:href="#m17b74be9eb" x="112.598825" y="169.490711" style="fill: #1f77b4; stroke: #1f77b4"/>
     <use xlink:href="#m17b74be9eb" x="111.263209" y="163.242027" style="fill: #1f77b4; stroke: #1f77b4"/>
     <use xlink:href="#m17b74be9eb" x="108.341684" y="157.349485" style="fill: #1f77b4; stroke: #1f77b4"/>
     <use xlink:href="#m17b74be9eb" x="104.645335" y="151.392189" style="fill: #1f77b4; stroke: #1f77b4"/>
     <use xlink:href="#m17b74be9eb" x="102.793764" y="144.981622" style="fill: #1f77b4; stroke: #1f77b4"/>
     <use xlink:href="#m17b74be9eb" x="101.904664" y="138.830066" style="fill: #1f77b4; stroke: #1f77b4"/>
     <use xlink:href="#m17b74be9eb" x="99.97475" y="132.840394" style="fill: #1f77b4; stroke: #1f77b4"/>
     <use xlink:href="#m17b74be9eb" x="99.371643" y="126.559332" style="fill: #1f77b4; stroke: #1f77b4"/>
     <use xlink:href="#m17b74be9eb" x="97.325739" y="120.602036" style="fill: #1f77b4; stroke: #1f77b4"/>
     <use xlink:href="#m17b74be9eb" x="93.5821" y="114.288597" style="fill: #1f77b4; stroke: #1f77b4"/>
     <use xlink:href="#m17b74be9eb" x="91.805113" y="108.23417" style="fill: #1f77b4; stroke: #1f77b4"/>
     <use xlink:href="#m17b74be9eb" x="88.857822" y="101.985484" style="fill: #1f77b4; stroke: #1f77b4"/>
     <use xlink:href="#m17b74be9eb" x="87.852583" y="96.125316" style="fill: #1f77b4; stroke: #1f77b4"/>
     <use xlink:href="#m17b74be9eb" x="85.170481" y="89.552863" style="fill: #1f77b4; stroke: #1f77b4"/>
     <use xlink:href="#m17b74be9eb" x="82.937173" y="83.207045" style="fill: #1f77b4; stroke: #1f77b4"/>
     <use xlink:href="#m17b74be9eb" x="80.70791" y="77.638266" style="fill: #1f77b4; stroke: #1f77b4"/>
     <use xlink:href="#m17b74be9eb" x="77.615237" y="71.713344" style="fill: #1f77b4; stroke: #1f77b4"/>
     <use xlink:href="#m17b74be9eb" x="76.054923" y="65.464655" style="fill: #1f77b4; stroke: #1f77b4"/>
     <use xlink:href="#m17b74be9eb" x="74.050906" y="59.669239" style="fill: #1f77b4; stroke: #1f77b4"/>
     <use xlink:href="#m17b74be9eb" x="72.449873" y="54.553731" style="fill: #1f77b4; stroke: #1f77b4"/>
     <use xlink:href="#m17b74be9eb" x="69.243831" y="48.175534" style="fill: #1f77b4; stroke: #1f77b4"/>
    </g>
   </g>
   <g id="line2d_19">
    <defs>
     <path id="mf16fc38fb5" d="M 0 1 
C 0.265203 1 0.51958 0.894634 0.707107 0.707107 
C 0.894634 0.51958 1 0.265203 1 0 
C 1 -0.265203 0.894634 -0.51958 0.707107 -0.707107 
C 0.51958 -0.894634 0.265203 -1 0 -1 
C -0.265203 -1 -0.51958 -0.894634 -0.707107 -0.707107 
C -0.894634 -0.51958 -1 -0.265203 -1 0 
C -1 0.265203 -0.894634 0.51958 -0.707107 0.707107 
C -0.51958 0.894634 -0.265203 1 0 1 
z
" style="stroke: #ff7f0e"/>
    </defs>
    <g clip-path="url(#p3476b83766)">
     <use xlink:href="#mf16fc38fb5" x="132.588137" y="230.973886" style="fill: #ff7f0e; stroke: #ff7f0e"/>
     <use xlink:href="#mf16fc38fb5" x="133.195339" y="226.246901" style="fill: #ff7f0e; stroke: #ff7f0e"/>
     <use xlink:href="#mf16fc38fb5" x="130.663324" y="221.746553" style="fill: #ff7f0e; stroke: #ff7f0e"/>
     <use xlink:href="#mf16fc38fb5" x="129.301004" y="216.922438" style="fill: #ff7f0e; stroke: #ff7f0e"/>
     <use xlink:href="#mf16fc38fb5" x="127.211367" y="212.163077" style="fill: #ff7f0e; stroke: #ff7f0e"/>
     <use xlink:href="#mf16fc38fb5" x="126.711935" y="206.594301" style="fill: #ff7f0e; stroke: #ff7f0e"/>
     <use xlink:href="#mf16fc38fb5" x="124.06885" y="201.025525" style="fill: #ff7f0e; stroke: #ff7f0e"/>
     <use xlink:href="#mf16fc38fb5" x="121.910141" y="195.424372" style="fill: #ff7f0e; stroke: #ff7f0e"/>
     <use xlink:href="#mf16fc38fb5" x="120.530793" y="189.887973" style="fill: #ff7f0e; stroke: #ff7f0e"/>
     <use xlink:href="#mf16fc38fb5" x="118.917197" y="183.412652" style="fill: #ff7f0e; stroke: #ff7f0e"/>
     <use xlink:href="#mf16fc38fb5" x="115.666726" y="176.710695" style="fill: #ff7f0e; stroke: #ff7f0e"/>
     <use xlink:href="#mf16fc38fb5" x="114.394691" y="171.141919" style="fill: #ff7f0e; stroke: #ff7f0e"/>
     <use xlink:href="#mf16fc38fb5" x="112.48388" y="164.957987" style="fill: #ff7f0e; stroke: #ff7f0e"/>
     <use xlink:href="#mf16fc38fb5" x="109.400474" y="158.35316" style="fill: #ff7f0e; stroke: #ff7f0e"/>
     <use xlink:href="#mf16fc38fb5" x="107.445835" y="152.363488" style="fill: #ff7f0e; stroke: #ff7f0e"/>
     <use xlink:href="#mf16fc38fb5" x="106.598876" y="145.888167" style="fill: #ff7f0e; stroke: #ff7f0e"/>
     <use xlink:href="#mf16fc38fb5" x="104.083429" y="139.671858" style="fill: #ff7f0e; stroke: #ff7f0e"/>
     <use xlink:href="#mf16fc38fb5" x="101.308539" y="133.45555" style="fill: #ff7f0e; stroke: #ff7f0e"/>
     <use xlink:href="#mf16fc38fb5" x="98.967877" y="127.206864" style="fill: #ff7f0e; stroke: #ff7f0e"/>
     <use xlink:href="#mf16fc38fb5" x="96.702447" y="120.569659" style="fill: #ff7f0e; stroke: #ff7f0e"/>
     <use xlink:href="#mf16fc38fb5" x="94.076348" y="114.54761" style="fill: #ff7f0e; stroke: #ff7f0e"/>
     <use xlink:href="#mf16fc38fb5" x="91.855112" y="108.52556" style="fill: #ff7f0e; stroke: #ff7f0e"/>
     <use xlink:href="#mf16fc38fb5" x="88.852187" y="102.21212" style="fill: #ff7f0e; stroke: #ff7f0e"/>
     <use xlink:href="#mf16fc38fb5" x="87.791575" y="95.80155" style="fill: #ff7f0e; stroke: #ff7f0e"/>
     <use xlink:href="#mf16fc38fb5" x="85.178484" y="89.973759" style="fill: #ff7f0e; stroke: #ff7f0e"/>
     <use xlink:href="#mf16fc38fb5" x="83.683259" y="83.725071" style="fill: #ff7f0e; stroke: #ff7f0e"/>
     <use xlink:href="#mf16fc38fb5" x="80.808571" y="77.444006" style="fill: #ff7f0e; stroke: #ff7f0e"/>
     <use xlink:href="#mf16fc38fb5" x="78.201213" y="71.162941" style="fill: #ff7f0e; stroke: #ff7f0e"/>
     <use xlink:href="#mf16fc38fb5" x="75.891101" y="65.464654" style="fill: #ff7f0e; stroke: #ff7f0e"/>
     <use xlink:href="#mf16fc38fb5" x="73.22763" y="59.572108" style="fill: #ff7f0e; stroke: #ff7f0e"/>
     <use xlink:href="#mf16fc38fb5" x="71.382423" y="53.67956" style="fill: #ff7f0e; stroke: #ff7f0e"/>
     <use xlink:href="#mf16fc38fb5" x="69.213601" y="47.625129" style="fill: #ff7f0e; stroke: #ff7f0e"/>
    </g>
   </g>
   <g id="patch_3">
    <path d="M 44.203125 246.84375 
L 44.203125 25.918125 
" style="fill: none; stroke: #000000; stroke-width: 0.8; stroke-linejoin: miter; stroke-linecap: square"/>
   </g>
   <g id="patch_4">
    <path d="M 297.551562 246.84375 
L 297.551562 25.918125 
" style="fill: none; stroke: #000000; stroke-width: 0.8; stroke-linejoin: miter; stroke-linecap: square"/>
   </g>
   <g id="patch_5">
    <path d="M 44.203125 246.84375 
L 297.551562 246.84375 
" style="fill: none; stroke: #000000; stroke-width: 0.8; stroke-linejoin: miter; stroke-linecap: square"/>
   </g>
   <g id="patch_6">
    <path d="M 44.203125 25.918125 
L 297.551562 25.918125 
" style="fill: none; stroke: #000000; stroke-width: 0.8; stroke-linejoin: miter; stroke-linecap: square"/>
   </g>
   <g id="text_16">
    <!-- Predictions ($135^\circ$) -->
    <g transform="translate(115.137344 19.918125) scale(0.12 -0.12)">
     <defs>
      <path id="DejaVuSans-50" d="M 1259 4147 
L 1259 2394 
L 2053 2394 
Q 2494 2394 2734 2622 
Q 2975 2850 2975 3272 
Q 2975 3691 2734 3919 
Q 2494 4147 2053 4147 
L 1259 4147 
z
M 628 4666 
L 2053 4666 
Q 2838 4666 3239 4311 
Q 3641 3956 3641 3272 
Q 3641 2581 3239 2228 
Q 2838 1875 2053 1875 
L 1259 1875 
L 1259 0 
L 628 0 
L 628 4666 
z
" transform="scale(0.015625)"/>
      <path id="DejaVuSans-63" d="M 3122 3366 
L 3122 2828 
Q 2878 2963 2633 3030 
Q 2388 3097 2138 3097 
Q 1578 3097 1268 2742 
Q 959 2388 959 1747 
Q 959 1106 1268 751 
Q 1578 397 2138 397 
Q 2388 397 2633 464 
Q 2878 531 3122 666 
L 3122 134 
Q 2881 22 2623 -34 
Q 2366 -91 2075 -91 
Q 1284 -91 818 406 
Q 353 903 353 1747 
Q 353 2603 823 3093 
Q 1294 3584 2113 3584 
Q 2378 3584 2631 3529 
Q 2884 3475 3122 3366 
z
" transform="scale(0.015625)"/>
      <path id="DejaVuSans-28" d="M 1984 4856 
Q 1566 4138 1362 3434 
Q 1159 2731 1159 2009 
Q 1159 1288 1364 580 
Q 1569 -128 1984 -844 
L 1484 -844 
Q 1016 -109 783 600 
Q 550 1309 550 2009 
Q 550 2706 781 3412 
Q 1013 4119 1484 4856 
L 1984 4856 
z
" transform="scale(0.015625)"/>
      <path id="DejaVuSans-33" d="M 2597 2516 
Q 3050 2419 3304 2112 
Q 3559 1806 3559 1356 
Q 3559 666 3084 287 
Q 2609 -91 1734 -91 
Q 1441 -91 1130 -33 
Q 819 25 488 141 
L 488 750 
Q 750 597 1062 519 
Q 1375 441 1716 441 
Q 2309 441 2620 675 
Q 2931 909 2931 1356 
Q 2931 1769 2642 2001 
Q 2353 2234 1838 2234 
L 1294 2234 
L 1294 2753 
L 1863 2753 
Q 2328 2753 2575 2939 
Q 2822 3125 2822 3475 
Q 2822 3834 2567 4026 
Q 2313 4219 1838 4219 
Q 1578 4219 1281 4162 
Q 984 4106 628 3988 
L 628 4550 
Q 988 4650 1302 4700 
Q 1616 4750 1894 4750 
Q 2613 4750 3031 4423 
Q 3450 4097 3450 3541 
Q 3450 3153 3228 2886 
Q 3006 2619 2597 2516 
z
" transform="scale(0.015625)"/>
      <path id="DejaVuSans-35" d="M 691 4666 
L 3169 4666 
L 3169 4134 
L 1269 4134 
L 1269 2991 
Q 1406 3038 1543 3061 
Q 1681 3084 1819 3084 
Q 2600 3084 3056 2656 
Q 3513 2228 3513 1497 
Q 3513 744 3044 326 
Q 2575 -91 1722 -91 
Q 1428 -91 1123 -41 
Q 819 9 494 109 
L 494 744 
Q 775 591 1075 516 
Q 1375 441 1709 441 
Q 2250 441 2565 725 
Q 2881 1009 2881 1497 
Q 2881 1984 2565 2268 
Q 2250 2553 1709 2553 
Q 1456 2553 1204 2497 
Q 953 2441 691 2322 
L 691 4666 
z
" transform="scale(0.015625)"/>
      <path id="DejaVuSans-2218" d="M 2003 2603 
Q 1753 2603 1581 2429 
Q 1409 2256 1409 2006 
Q 1409 1759 1581 1589 
Q 1753 1419 2003 1419 
Q 2253 1419 2425 1589 
Q 2597 1759 2597 2006 
Q 2597 2253 2423 2428 
Q 2250 2603 2003 2603 
z
M 2003 3006 
Q 2203 3006 2387 2929 
Q 2572 2853 2706 2709 
Q 2850 2569 2922 2390 
Q 2994 2212 2994 2006 
Q 2994 1594 2705 1308 
Q 2416 1022 1997 1022 
Q 1575 1022 1294 1303 
Q 1013 1584 1013 2006 
Q 1013 2425 1300 2715 
Q 1588 3006 2003 3006 
z
" transform="scale(0.015625)"/>
      <path id="DejaVuSans-29" d="M 513 4856 
L 1013 4856 
Q 1481 4119 1714 3412 
Q 1947 2706 1947 2009 
Q 1947 1309 1714 600 
Q 1481 -109 1013 -844 
L 513 -844 
Q 928 -128 1133 580 
Q 1338 1288 1338 2009 
Q 1338 2731 1133 3434 
Q 928 4138 513 4856 
z
" transform="scale(0.015625)"/>
     </defs>
     <use xlink:href="#DejaVuSans-50" transform="translate(0 0.015625)"/>
     <use xlink:href="#DejaVuSans-72" transform="translate(60.302734 0.015625)"/>
     <use xlink:href="#DejaVuSans-65" transform="translate(101.416016 0.015625)"/>
     <use xlink:href="#DejaVuSans-64" transform="translate(162.939453 0.015625)"/>
     <use xlink:href="#DejaVuSans-69" transform="translate(226.416016 0.015625)"/>
     <use xlink:href="#DejaVuSans-63" transform="translate(254.199219 0.015625)"/>
     <use xlink:href="#DejaVuSans-74" transform="translate(309.179688 0.015625)"/>
     <use xlink:href="#DejaVuSans-69" transform="translate(348.388672 0.015625)"/>
     <use xlink:href="#DejaVuSans-6f" transform="translate(376.171875 0.015625)"/>
     <use xlink:href="#DejaVuSans-6e" transform="translate(437.353516 0.015625)"/>
     <use xlink:href="#DejaVuSans-73" transform="translate(500.732422 0.015625)"/>
     <use xlink:href="#DejaVuSans-20" transform="translate(552.832031 0.015625)"/>
     <use xlink:href="#DejaVuSans-28" transform="translate(584.619141 0.015625)"/>
     <use xlink:href="#DejaVuSans-31" transform="translate(623.632812 0.015625)"/>
     <use xlink:href="#DejaVuSans-33" transform="translate(687.255859 0.015625)"/>
     <use xlink:href="#DejaVuSans-35" transform="translate(750.878906 0.015625)"/>
     <use xlink:href="#DejaVuSans-2218" transform="translate(829.09668 38.296875) scale(0.7)"/>
     <use xlink:href="#DejaVuSans-29" transform="translate(889.287109 0.015625)"/>
    </g>
   </g>
   <g id="legend_1">
    <g id="patch_7">
     <path d="M 147.65625 121.986875 
L 290.551562 121.986875 
Q 292.551562 121.986875 292.551562 119.986875 
L 292.551562 32.918125 
Q 292.551562 30.918125 290.551562 30.918125 
L 147.65625 30.918125 
Q 145.65625 30.918125 145.65625 32.918125 
L 145.65625 119.986875 
Q 145.65625 121.986875 147.65625 121.986875 
z
" style="fill: #ffffff; opacity: 0.8; stroke: #cccccc; stroke-linejoin: miter"/>
    </g>
    <g id="patch_8">
     <path d="M 149.65625 42.516562 
L 169.65625 42.516562 
L 169.65625 35.516562 
L 149.65625 35.516562 
z
" style="fill: #90ee90; fill-opacity: 0.75; stroke: #90ee90; stroke-opacity: 0.75; stroke-linejoin: miter"/>
    </g>
    <g id="text_17">
     <!-- Prior 95% interval -->
     <g transform="translate(177.65625 42.516562) scale(0.1 -0.1)">
      <defs>
       <path id="DejaVuSans-39" d="M 703 97 
L 703 672 
Q 941 559 1184 500 
Q 1428 441 1663 441 
Q 2288 441 2617 861 
Q 2947 1281 2994 2138 
Q 2813 1869 2534 1725 
Q 2256 1581 1919 1581 
Q 1219 1581 811 2004 
Q 403 2428 403 3163 
Q 403 3881 828 4315 
Q 1253 4750 1959 4750 
Q 2769 4750 3195 4129 
Q 3622 3509 3622 2328 
Q 3622 1225 3098 567 
Q 2575 -91 1691 -91 
Q 1453 -91 1209 -44 
Q 966 3 703 97 
z
M 1959 2075 
Q 2384 2075 2632 2365 
Q 2881 2656 2881 3163 
Q 2881 3666 2632 3958 
Q 2384 4250 1959 4250 
Q 1534 4250 1286 3958 
Q 1038 3666 1038 3163 
Q 1038 2656 1286 2365 
Q 1534 2075 1959 2075 
z
" transform="scale(0.015625)"/>
       <path id="DejaVuSans-25" d="M 4653 2053 
Q 4381 2053 4226 1822 
Q 4072 1591 4072 1178 
Q 4072 772 4226 539 
Q 4381 306 4653 306 
Q 4919 306 5073 539 
Q 5228 772 5228 1178 
Q 5228 1588 5073 1820 
Q 4919 2053 4653 2053 
z
M 4653 2450 
Q 5147 2450 5437 2106 
Q 5728 1763 5728 1178 
Q 5728 594 5436 251 
Q 5144 -91 4653 -91 
Q 4153 -91 3862 251 
Q 3572 594 3572 1178 
Q 3572 1766 3864 2108 
Q 4156 2450 4653 2450 
z
M 1428 4353 
Q 1159 4353 1004 4120 
Q 850 3888 850 3481 
Q 850 3069 1003 2837 
Q 1156 2606 1428 2606 
Q 1700 2606 1854 2837 
Q 2009 3069 2009 3481 
Q 2009 3884 1853 4118 
Q 1697 4353 1428 4353 
z
M 4250 4750 
L 4750 4750 
L 1831 -91 
L 1331 -91 
L 4250 4750 
z
M 1428 4750 
Q 1922 4750 2215 4408 
Q 2509 4066 2509 3481 
Q 2509 2891 2217 2550 
Q 1925 2209 1428 2209 
Q 931 2209 642 2551 
Q 353 2894 353 3481 
Q 353 4063 643 4406 
Q 934 4750 1428 4750 
z
" transform="scale(0.015625)"/>
       <path id="DejaVuSans-76" d="M 191 3500 
L 800 3500 
L 1894 563 
L 2988 3500 
L 3597 3500 
L 2284 0 
L 1503 0 
L 191 3500 
z
" transform="scale(0.015625)"/>
      </defs>
      <use xlink:href="#DejaVuSans-50"/>
      <use xlink:href="#DejaVuSans-72" x="58.552734"/>
      <use xlink:href="#DejaVuSans-69" x="99.666016"/>
      <use xlink:href="#DejaVuSans-6f" x="127.449219"/>
      <use xlink:href="#DejaVuSans-72" x="188.630859"/>
      <use xlink:href="#DejaVuSans-20" x="229.744141"/>
      <use xlink:href="#DejaVuSans-39" x="261.53125"/>
      <use xlink:href="#DejaVuSans-35" x="325.154297"/>
      <use xlink:href="#DejaVuSans-25" x="388.777344"/>
      <use xlink:href="#DejaVuSans-20" x="483.796875"/>
      <use xlink:href="#DejaVuSans-69" x="515.583984"/>
      <use xlink:href="#DejaVuSans-6e" x="543.367188"/>
      <use xlink:href="#DejaVuSans-74" x="606.746094"/>
      <use xlink:href="#DejaVuSans-65" x="645.955078"/>
      <use xlink:href="#DejaVuSans-72" x="707.478516"/>
      <use xlink:href="#DejaVuSans-76" x="748.591797"/>
      <use xlink:href="#DejaVuSans-61" x="807.771484"/>
      <use xlink:href="#DejaVuSans-6c" x="869.050781"/>
     </g>
    </g>
    <g id="line2d_20">
     <path d="M 149.65625 53.694687 
L 159.65625 53.694687 
L 169.65625 53.694687 
" style="fill: none; stroke-dasharray: 3.7,1.6; stroke-dashoffset: 0; stroke: #008000"/>
    </g>
    <g id="text_18">
     <!-- Prior mean -->
     <g transform="translate(177.65625 57.194687) scale(0.1 -0.1)">
      <use xlink:href="#DejaVuSans-50"/>
      <use xlink:href="#DejaVuSans-72" x="58.552734"/>
      <use xlink:href="#DejaVuSans-69" x="99.666016"/>
      <use xlink:href="#DejaVuSans-6f" x="127.449219"/>
      <use xlink:href="#DejaVuSans-72" x="188.630859"/>
      <use xlink:href="#DejaVuSans-20" x="229.744141"/>
      <use xlink:href="#DejaVuSans-6d" x="261.53125"/>
      <use xlink:href="#DejaVuSans-65" x="358.943359"/>
      <use xlink:href="#DejaVuSans-61" x="420.466797"/>
      <use xlink:href="#DejaVuSans-6e" x="481.746094"/>
     </g>
    </g>
    <g id="patch_9">
     <path d="M 149.65625 71.872812 
L 169.65625 71.872812 
L 169.65625 64.872812 
L 149.65625 64.872812 
z
" style="fill: #6495ed; fill-opacity: 0.75; stroke: #6495ed; stroke-opacity: 0.75; stroke-linejoin: miter"/>
    </g>
    <g id="text_19">
     <!-- Posterior 95% interval -->
     <g transform="translate(177.65625 71.872812) scale(0.1 -0.1)">
      <use xlink:href="#DejaVuSans-50"/>
      <use xlink:href="#DejaVuSans-6f" x="56.677734"/>
      <use xlink:href="#DejaVuSans-73" x="117.859375"/>
      <use xlink:href="#DejaVuSans-74" x="169.958984"/>
      <use xlink:href="#DejaVuSans-65" x="209.167969"/>
      <use xlink:href="#DejaVuSans-72" x="270.691406"/>
      <use xlink:href="#DejaVuSans-69" x="311.804688"/>
      <use xlink:href="#DejaVuSans-6f" x="339.587891"/>
      <use xlink:href="#DejaVuSans-72" x="400.769531"/>
      <use xlink:href="#DejaVuSans-20" x="441.882812"/>
      <use xlink:href="#DejaVuSans-39" x="473.669922"/>
      <use xlink:href="#DejaVuSans-35" x="537.292969"/>
      <use xlink:href="#DejaVuSans-25" x="600.916016"/>
      <use xlink:href="#DejaVuSans-20" x="695.935547"/>
      <use xlink:href="#DejaVuSans-69" x="727.722656"/>
      <use xlink:href="#DejaVuSans-6e" x="755.505859"/>
      <use xlink:href="#DejaVuSans-74" x="818.884766"/>
      <use xlink:href="#DejaVuSans-65" x="858.09375"/>
      <use xlink:href="#DejaVuSans-72" x="919.617188"/>
      <use xlink:href="#DejaVuSans-76" x="960.730469"/>
      <use xlink:href="#DejaVuSans-61" x="1019.910156"/>
      <use xlink:href="#DejaVuSans-6c" x="1081.189453"/>
     </g>
    </g>
    <g id="line2d_21">
     <path d="M 149.65625 83.050937 
L 159.65625 83.050937 
L 169.65625 83.050937 
" style="fill: none; stroke: #0000ff; stroke-width: 0.5; stroke-linecap: square"/>
    </g>
    <g id="text_20">
     <!-- Posterior mean -->
     <g transform="translate(177.65625 86.550937) scale(0.1 -0.1)">
      <use xlink:href="#DejaVuSans-50"/>
      <use xlink:href="#DejaVuSans-6f" x="56.677734"/>
      <use xlink:href="#DejaVuSans-73" x="117.859375"/>
      <use xlink:href="#DejaVuSans-74" x="169.958984"/>
      <use xlink:href="#DejaVuSans-65" x="209.167969"/>
      <use xlink:href="#DejaVuSans-72" x="270.691406"/>
      <use xlink:href="#DejaVuSans-69" x="311.804688"/>
      <use xlink:href="#DejaVuSans-6f" x="339.587891"/>
      <use xlink:href="#DejaVuSans-72" x="400.769531"/>
      <use xlink:href="#DejaVuSans-20" x="441.882812"/>
      <use xlink:href="#DejaVuSans-6d" x="473.669922"/>
      <use xlink:href="#DejaVuSans-65" x="571.082031"/>
      <use xlink:href="#DejaVuSans-61" x="632.605469"/>
      <use xlink:href="#DejaVuSans-6e" x="693.884766"/>
     </g>
    </g>
    <g id="line2d_22">
     <g>
      <use xlink:href="#m17b74be9eb" x="159.65625" y="97.729062" style="fill: #1f77b4; stroke: #1f77b4"/>
     </g>
    </g>
    <g id="text_21">
     <!-- Experimental data 1 -->
     <g transform="translate(177.65625 101.229062) scale(0.1 -0.1)">
      <defs>
       <path id="DejaVuSans-70" d="M 1159 525 
L 1159 -1331 
L 581 -1331 
L 581 3500 
L 1159 3500 
L 1159 2969 
Q 1341 3281 1617 3432 
Q 1894 3584 2278 3584 
Q 2916 3584 3314 3078 
Q 3713 2572 3713 1747 
Q 3713 922 3314 415 
Q 2916 -91 2278 -91 
Q 1894 -91 1617 61 
Q 1341 213 1159 525 
z
M 3116 1747 
Q 3116 2381 2855 2742 
Q 2594 3103 2138 3103 
Q 1681 3103 1420 2742 
Q 1159 2381 1159 1747 
Q 1159 1113 1420 752 
Q 1681 391 2138 391 
Q 2594 391 2855 752 
Q 3116 1113 3116 1747 
z
" transform="scale(0.015625)"/>
      </defs>
      <use xlink:href="#DejaVuSans-45"/>
      <use xlink:href="#DejaVuSans-78" x="63.183594"/>
      <use xlink:href="#DejaVuSans-70" x="122.363281"/>
      <use xlink:href="#DejaVuSans-65" x="185.839844"/>
      <use xlink:href="#DejaVuSans-72" x="247.363281"/>
      <use xlink:href="#DejaVuSans-69" x="288.476562"/>
      <use xlink:href="#DejaVuSans-6d" x="316.259766"/>
      <use xlink:href="#DejaVuSans-65" x="413.671875"/>
      <use xlink:href="#DejaVuSans-6e" x="475.195312"/>
      <use xlink:href="#DejaVuSans-74" x="538.574219"/>
      <use xlink:href="#DejaVuSans-61" x="577.783203"/>
      <use xlink:href="#DejaVuSans-6c" x="639.0625"/>
      <use xlink:href="#DejaVuSans-20" x="666.845703"/>
      <use xlink:href="#DejaVuSans-64" x="698.632812"/>
      <use xlink:href="#DejaVuSans-61" x="762.109375"/>
      <use xlink:href="#DejaVuSans-74" x="823.388672"/>
      <use xlink:href="#DejaVuSans-61" x="862.597656"/>
      <use xlink:href="#DejaVuSans-20" x="923.876953"/>
      <use xlink:href="#DejaVuSans-31" x="955.664062"/>
     </g>
    </g>
    <g id="line2d_23">
     <g>
      <use xlink:href="#mf16fc38fb5" x="159.65625" y="112.407187" style="fill: #ff7f0e; stroke: #ff7f0e"/>
     </g>
    </g>
    <g id="text_22">
     <!-- Experimental data 2 -->
     <g transform="translate(177.65625 115.907187) scale(0.1 -0.1)">
      <use xlink:href="#DejaVuSans-45"/>
      <use xlink:href="#DejaVuSans-78" x="63.183594"/>
      <use xlink:href="#DejaVuSans-70" x="122.363281"/>
      <use xlink:href="#DejaVuSans-65" x="185.839844"/>
      <use xlink:href="#DejaVuSans-72" x="247.363281"/>
      <use xlink:href="#DejaVuSans-69" x="288.476562"/>
      <use xlink:href="#DejaVuSans-6d" x="316.259766"/>
      <use xlink:href="#DejaVuSans-65" x="413.671875"/>
      <use xlink:href="#DejaVuSans-6e" x="475.195312"/>
      <use xlink:href="#DejaVuSans-74" x="538.574219"/>
      <use xlink:href="#DejaVuSans-61" x="577.783203"/>
      <use xlink:href="#DejaVuSans-6c" x="639.0625"/>
      <use xlink:href="#DejaVuSans-20" x="666.845703"/>
      <use xlink:href="#DejaVuSans-64" x="698.632812"/>
      <use xlink:href="#DejaVuSans-61" x="762.109375"/>
      <use xlink:href="#DejaVuSans-74" x="823.388672"/>
      <use xlink:href="#DejaVuSans-61" x="862.597656"/>
      <use xlink:href="#DejaVuSans-20" x="923.876953"/>
      <use xlink:href="#DejaVuSans-32" x="955.664062"/>
     </g>
    </g>
   </g>
  </g>
  <g id="axes_2">
   <g id="patch_10">
    <path d="M 311.851562 246.84375 
L 565.2 246.84375 
L 565.2 25.918125 
L 311.851562 25.918125 
z
" style="fill: #ffffff"/>
   </g>
   <g id="PolyCollection_3">
    <defs>
     <path id="m06693bf83a" d="M 402.386049 -51.198324 
L 402.279715 -51.198324 
L 401.92372 -53.227026 
L 401.648908 -55.255727 
L 401.455279 -57.284429 
L 401.342833 -59.313131 
L 401.31157 -61.341833 
L 401.36149 -63.370535 
L 401.492593 -65.399236 
L 401.704879 -67.427938 
L 401.998348 -69.45664 
L 402.372999 -71.485342 
L 402.828834 -73.514044 
L 403.365852 -75.542745 
L 403.984052 -77.571447 
L 404.683436 -79.600149 
L 405.464002 -81.628851 
L 406.325752 -83.657553 
L 407.268684 -85.686254 
L 408.2928 -87.714956 
L 409.398098 -89.743658 
L 410.584579 -91.77236 
L 411.852243 -93.801061 
L 413.20109 -95.829763 
L 414.63112 -97.858465 
L 416.142333 -99.887167 
L 417.734729 -101.915869 
L 419.408308 -103.94457 
L 421.16307 -105.973272 
L 422.999015 -108.001974 
L 424.916143 -110.030676 
L 426.829866 -112.059378 
L 428.655598 -114.088079 
L 430.393339 -116.116781 
L 432.043087 -118.145483 
L 433.604845 -120.174185 
L 435.078611 -122.202887 
L 436.464385 -124.231588 
L 437.762168 -126.26029 
L 439.008976 -128.288992 
L 440.241825 -130.317694 
L 441.460715 -132.346395 
L 442.665647 -134.375097 
L 443.85662 -136.403799 
L 445.033634 -138.432501 
L 446.19669 -140.461203 
L 447.345787 -142.489904 
L 448.500735 -144.518606 
L 449.681344 -146.547308 
L 450.887613 -148.57601 
L 452.119544 -150.604712 
L 453.377135 -152.633413 
L 454.660386 -154.662115 
L 455.969299 -156.690817 
L 457.303872 -158.719519 
L 458.64448 -160.748221 
L 459.971497 -162.776922 
L 461.284923 -164.805624 
L 462.584758 -166.834326 
L 463.871001 -168.863028 
L 465.143654 -170.89173 
L 466.402716 -172.920431 
L 467.648186 -174.949133 
L 468.880833 -176.977835 
L 470.101424 -179.006537 
L 471.309959 -181.035238 
L 472.506438 -183.06394 
L 473.69086 -185.092642 
L 474.863227 -187.121344 
L 476.023538 -189.150046 
L 477.171792 -191.178747 
L 478.330757 -193.207449 
L 479.523198 -195.236151 
L 480.749114 -197.264853 
L 482.008507 -199.293555 
L 483.301376 -201.322256 
L 484.627721 -203.350958 
L 485.987542 -205.37966 
L 487.380839 -207.408362 
L 488.676486 -209.437064 
L 489.743356 -211.465765 
L 490.581451 -213.494467 
L 491.190769 -215.523169 
L 491.57131 -217.551871 
L 491.723076 -219.580572 
L 491.646065 -221.609274 
L 491.340278 -223.637976 
L 491.027828 -225.666678 
L 490.93083 -227.69538 
L 491.049283 -229.724081 
L 491.383187 -231.752783 
L 491.932543 -233.781485 
L 492.697351 -235.810187 
L 493.677609 -237.838889 
L 494.873319 -239.86759 
L 496.284481 -241.896292 
L 497.911094 -243.924994 
L 499.753158 -245.953696 
L 501.810674 -247.982398 
L 504.083641 -250.011099 
L 506.572059 -252.039801 
L 549.947982 -252.039801 
L 549.947982 -252.039801 
L 548.83154 -250.011099 
L 547.672703 -247.982398 
L 546.471472 -245.953696 
L 545.227845 -243.924994 
L 543.941824 -241.896292 
L 542.613409 -239.86759 
L 541.242598 -237.838889 
L 539.829393 -235.810187 
L 538.373793 -233.781485 
L 536.875798 -231.752783 
L 535.335409 -229.724081 
L 533.752624 -227.69538 
L 532.127445 -225.666678 
L 530.459872 -223.637976 
L 528.749903 -221.609274 
L 527.077726 -219.580572 
L 525.523527 -217.551871 
L 524.087305 -215.523169 
L 522.76906 -213.494467 
L 521.568794 -211.465765 
L 520.486504 -209.437064 
L 519.522193 -207.408362 
L 518.675858 -205.37966 
L 517.822928 -203.350958 
L 516.838826 -201.322256 
L 515.723554 -199.293555 
L 514.477111 -197.264853 
L 513.099497 -195.236151 
L 511.590712 -193.207449 
L 509.950757 -191.178747 
L 508.179631 -189.150046 
L 506.360136 -187.121344 
L 504.575077 -185.092642 
L 502.824451 -183.06394 
L 501.108261 -181.035238 
L 499.426505 -179.006537 
L 497.779184 -176.977835 
L 496.166297 -174.949133 
L 494.587845 -172.920431 
L 493.045163 -170.89173 
L 491.539587 -168.863028 
L 490.071116 -166.834326 
L 488.63975 -164.805624 
L 487.24549 -162.776922 
L 485.888336 -160.748221 
L 484.568287 -158.719519 
L 483.285343 -156.690817 
L 482.018767 -154.662115 
L 480.747819 -152.633413 
L 479.472499 -150.604712 
L 478.192809 -148.57601 
L 476.908746 -146.547308 
L 475.620313 -144.518606 
L 474.327508 -142.489904 
L 473.030331 -140.461203 
L 471.746935 -138.432501 
L 470.495469 -136.403799 
L 469.275935 -134.375097 
L 468.088332 -132.346395 
L 466.932661 -130.317694 
L 465.808921 -128.288992 
L 464.717112 -126.26029 
L 463.657234 -124.231588 
L 462.638832 -122.202887 
L 461.671451 -120.174185 
L 460.75509 -118.145483 
L 459.889749 -116.116781 
L 459.075429 -114.088079 
L 458.31213 -112.059378 
L 457.59985 -110.030676 
L 456.938592 -108.001974 
L 456.250281 -105.973272 
L 455.456847 -103.94457 
L 454.55829 -101.915869 
L 453.554608 -99.887167 
L 452.445803 -97.858465 
L 451.231875 -95.829763 
L 449.912823 -93.801061 
L 448.488647 -91.77236 
L 447.019931 -89.743658 
L 445.567259 -87.714956 
L 444.13063 -85.686254 
L 442.710046 -83.657553 
L 441.305505 -81.628851 
L 439.917007 -79.600149 
L 438.544554 -77.571447 
L 437.188144 -75.542745 
L 435.710441 -73.514044 
L 433.974106 -71.485342 
L 431.97914 -69.45664 
L 429.725543 -67.427938 
L 427.213315 -65.399236 
L 424.442456 -63.370535 
L 421.412966 -61.341833 
L 418.124845 -59.313131 
L 414.578092 -57.284429 
L 410.772709 -55.255727 
L 406.708694 -53.227026 
L 402.386049 -51.198324 
z
" style="stroke: #90ee90; stroke-opacity: 0.75"/>
    </defs>
    <g clip-path="url(#p1bb1acf338)">
     <use xlink:href="#m06693bf83a" x="0" y="288" style="fill: #90ee90; fill-opacity: 0.75; stroke: #90ee90; stroke-opacity: 0.75"/>
    </g>
   </g>
   <g id="PolyCollection_4">
    <defs>
     <path id="maf2ec12c75" d="M 402.386951 -51.198324 
L 402.284422 -51.198324 
L 403.654859 -53.227026 
L 405.001347 -55.255727 
L 406.336475 -57.284429 
L 407.671889 -59.313131 
L 409.01051 -61.341833 
L 410.345563 -63.370535 
L 411.684121 -65.399236 
L 413.011233 -67.427938 
L 414.350273 -69.45664 
L 415.680839 -71.485342 
L 417.017167 -73.514044 
L 418.347309 -75.542745 
L 419.682861 -77.571447 
L 421.013214 -79.600149 
L 422.345421 -81.628851 
L 423.68394 -83.657553 
L 425.011369 -85.686254 
L 426.342581 -87.714956 
L 427.674422 -89.743658 
L 429.004135 -91.77236 
L 430.346522 -93.801061 
L 431.665372 -95.829763 
L 432.998235 -97.858465 
L 434.322927 -99.887167 
L 435.649169 -101.915869 
L 436.968693 -103.94457 
L 438.290279 -105.973272 
L 439.60763 -108.001974 
L 440.927129 -110.030676 
L 442.244592 -112.059378 
L 443.592743 -114.088079 
L 444.92056 -116.116781 
L 446.280143 -118.145483 
L 447.586875 -120.174185 
L 448.928265 -122.202887 
L 450.265103 -124.231588 
L 451.579807 -126.26029 
L 452.928534 -128.288992 
L 454.255089 -130.317694 
L 455.596128 -132.346395 
L 456.928463 -134.375097 
L 458.265131 -136.403799 
L 459.596611 -138.432501 
L 460.945227 -140.461203 
L 462.287674 -142.489904 
L 463.636053 -144.518606 
L 464.985817 -146.547308 
L 466.336346 -148.57601 
L 467.687478 -150.604712 
L 469.041057 -152.633413 
L 470.393853 -154.662115 
L 471.755125 -156.690817 
L 473.113683 -158.719519 
L 474.472127 -160.748221 
L 475.81917 -162.776922 
L 477.203644 -164.805624 
L 478.553949 -166.834326 
L 479.927643 -168.863028 
L 481.294034 -170.89173 
L 482.689954 -172.920431 
L 484.040633 -174.949133 
L 485.39736 -176.977835 
L 486.776503 -179.006537 
L 488.142947 -181.035238 
L 489.512979 -183.06394 
L 490.860036 -185.092642 
L 492.240055 -187.121344 
L 493.631025 -189.150046 
L 495.028602 -191.178747 
L 496.39005 -193.207449 
L 497.752559 -195.236151 
L 499.099547 -197.264853 
L 500.46924 -199.293555 
L 501.841019 -201.322256 
L 503.216101 -203.350958 
L 504.561398 -205.37966 
L 505.919293 -207.408362 
L 507.260905 -209.437064 
L 508.61746 -211.465765 
L 509.953617 -213.494467 
L 511.305113 -215.523169 
L 512.654799 -217.551871 
L 513.969035 -219.580572 
L 515.326758 -221.609274 
L 516.653234 -223.637976 
L 518.006128 -225.666678 
L 519.326895 -227.69538 
L 520.657669 -229.724081 
L 521.991212 -231.752783 
L 523.315711 -233.781485 
L 524.646135 -235.810187 
L 525.949531 -237.838889 
L 527.257777 -239.86759 
L 528.543003 -241.896292 
L 529.821435 -243.924994 
L 531.121888 -245.953696 
L 532.412064 -247.982398 
L 533.675532 -250.011099 
L 534.933822 -252.039801 
L 550.555876 -252.039801 
L 550.555876 -252.039801 
L 548.913552 -250.011099 
L 547.320069 -247.982398 
L 545.688182 -245.953696 
L 544.076504 -243.924994 
L 542.418733 -241.896292 
L 540.772701 -239.86759 
L 539.119617 -237.838889 
L 537.509145 -235.810187 
L 535.902894 -233.781485 
L 534.282281 -231.752783 
L 532.669494 -229.724081 
L 531.036951 -227.69538 
L 529.433902 -225.666678 
L 527.862123 -223.637976 
L 526.248819 -221.609274 
L 524.627544 -219.580572 
L 522.994615 -217.551871 
L 521.396913 -215.523169 
L 519.81627 -213.494467 
L 518.228828 -211.465765 
L 516.642714 -209.437064 
L 515.061691 -207.408362 
L 513.496853 -205.37966 
L 511.940854 -203.350958 
L 510.384753 -201.322256 
L 508.814427 -199.293555 
L 507.291817 -197.264853 
L 505.758636 -195.236151 
L 504.228385 -193.207449 
L 502.684477 -191.178747 
L 501.168867 -189.150046 
L 499.643233 -187.121344 
L 498.139378 -185.092642 
L 496.608557 -183.06394 
L 495.08024 -181.035238 
L 493.589976 -179.006537 
L 492.066554 -176.977835 
L 490.549613 -174.949133 
L 489.051457 -172.920431 
L 487.564462 -170.89173 
L 486.088564 -168.863028 
L 484.585792 -166.834326 
L 483.099058 -164.805624 
L 481.623893 -162.776922 
L 480.145562 -160.748221 
L 478.662917 -158.719519 
L 477.198481 -156.690817 
L 475.72879 -154.662115 
L 474.284617 -152.633413 
L 472.814897 -150.604712 
L 471.367692 -148.57601 
L 469.902118 -146.547308 
L 468.452435 -144.518606 
L 467.008469 -142.489904 
L 465.565274 -140.461203 
L 464.102325 -138.432501 
L 462.668155 -136.403799 
L 461.223296 -134.375097 
L 459.788141 -132.346395 
L 458.348368 -130.317694 
L 456.915463 -128.288992 
L 455.475874 -126.26029 
L 454.052199 -124.231588 
L 452.637265 -122.202887 
L 451.21108 -120.174185 
L 449.805531 -118.145483 
L 448.367152 -116.116781 
L 446.95461 -114.088079 
L 445.532492 -112.059378 
L 444.117089 -110.030676 
L 442.68697 -108.001974 
L 441.282073 -105.973272 
L 439.85989 -103.94457 
L 438.457693 -101.915869 
L 437.049459 -99.887167 
L 435.635156 -97.858465 
L 434.220735 -95.829763 
L 432.807229 -93.801061 
L 431.392123 -91.77236 
L 429.978934 -89.743658 
L 428.567118 -87.714956 
L 427.145702 -85.686254 
L 425.731058 -83.657553 
L 424.310522 -81.628851 
L 422.885642 -79.600149 
L 421.457835 -77.571447 
L 420.017089 -75.542745 
L 418.57986 -73.514044 
L 417.139577 -71.485342 
L 415.689545 -69.45664 
L 414.234953 -67.427938 
L 412.765105 -65.399236 
L 411.305452 -63.370535 
L 409.829424 -61.341833 
L 408.348949 -59.313131 
L 406.857586 -57.284429 
L 405.359752 -55.255727 
L 403.860838 -53.227026 
L 402.386951 -51.198324 
z
" style="stroke: #6495ed; stroke-opacity: 0.75"/>
    </defs>
    <g clip-path="url(#p1bb1acf338)">
     <use xlink:href="#maf2ec12c75" x="0" y="288" style="fill: #6495ed; fill-opacity: 0.75; stroke: #6495ed; stroke-opacity: 0.75"/>
    </g>
   </g>
   <g id="matplotlib.axis_3">
    <g id="xtick_8">
     <g id="line2d_24">
      <g>
       <use xlink:href="#mf613700793" x="329.947879" y="246.84375" style="stroke: #000000; stroke-width: 0.8"/>
      </g>
     </g>
     <g id="text_23">
      <!-- −0.04 -->
      <g transform="translate(314.625223 261.442187) scale(0.1 -0.1)">
       <use xlink:href="#DejaVuSans-2212"/>
       <use xlink:href="#DejaVuSans-30" x="83.789062"/>
       <use xlink:href="#DejaVuSans-2e" x="147.412109"/>
       <use xlink:href="#DejaVuSans-30" x="179.199219"/>
       <use xlink:href="#DejaVuSans-34" x="242.822266"/>
      </g>
     </g>
    </g>
    <g id="xtick_9">
     <g id="line2d_25">
      <g>
       <use xlink:href="#mf613700793" x="366.140513" y="246.84375" style="stroke: #000000; stroke-width: 0.8"/>
      </g>
     </g>
     <g id="text_24">
      <!-- −0.02 -->
      <g transform="translate(350.817857 261.442187) scale(0.1 -0.1)">
       <use xlink:href="#DejaVuSans-2212"/>
       <use xlink:href="#DejaVuSans-30" x="83.789062"/>
       <use xlink:href="#DejaVuSans-2e" x="147.412109"/>
       <use xlink:href="#DejaVuSans-30" x="179.199219"/>
       <use xlink:href="#DejaVuSans-32" x="242.822266"/>
      </g>
     </g>
    </g>
    <g id="xtick_10">
     <g id="line2d_26">
      <g>
       <use xlink:href="#mf613700793" x="402.333147" y="246.84375" style="stroke: #000000; stroke-width: 0.8"/>
      </g>
     </g>
     <g id="text_25">
      <!-- 0.00 -->
      <g transform="translate(391.200335 261.442187) scale(0.1 -0.1)">
       <use xlink:href="#DejaVuSans-30"/>
       <use xlink:href="#DejaVuSans-2e" x="63.623047"/>
       <use xlink:href="#DejaVuSans-30" x="95.410156"/>
       <use xlink:href="#DejaVuSans-30" x="159.033203"/>
      </g>
     </g>
    </g>
    <g id="xtick_11">
     <g id="line2d_27">
      <g>
       <use xlink:href="#mf613700793" x="438.525781" y="246.84375" style="stroke: #000000; stroke-width: 0.8"/>
      </g>
     </g>
     <g id="text_26">
      <!-- 0.02 -->
      <g transform="translate(427.392969 261.442187) scale(0.1 -0.1)">
       <use xlink:href="#DejaVuSans-30"/>
       <use xlink:href="#DejaVuSans-2e" x="63.623047"/>
       <use xlink:href="#DejaVuSans-30" x="95.410156"/>
       <use xlink:href="#DejaVuSans-32" x="159.033203"/>
      </g>
     </g>
    </g>
    <g id="xtick_12">
     <g id="line2d_28">
      <g>
       <use xlink:href="#mf613700793" x="474.718415" y="246.84375" style="stroke: #000000; stroke-width: 0.8"/>
      </g>
     </g>
     <g id="text_27">
      <!-- 0.04 -->
      <g transform="translate(463.585603 261.442187) scale(0.1 -0.1)">
       <use xlink:href="#DejaVuSans-30"/>
       <use xlink:href="#DejaVuSans-2e" x="63.623047"/>
       <use xlink:href="#DejaVuSans-30" x="95.410156"/>
       <use xlink:href="#DejaVuSans-34" x="159.033203"/>
      </g>
     </g>
    </g>
    <g id="xtick_13">
     <g id="line2d_29">
      <g>
       <use xlink:href="#mf613700793" x="510.911049" y="246.84375" style="stroke: #000000; stroke-width: 0.8"/>
      </g>
     </g>
     <g id="text_28">
      <!-- 0.06 -->
      <g transform="translate(499.778237 261.442187) scale(0.1 -0.1)">
       <use xlink:href="#DejaVuSans-30"/>
       <use xlink:href="#DejaVuSans-2e" x="63.623047"/>
       <use xlink:href="#DejaVuSans-30" x="95.410156"/>
       <use xlink:href="#DejaVuSans-36" x="159.033203"/>
      </g>
     </g>
    </g>
    <g id="xtick_14">
     <g id="line2d_30">
      <g>
       <use xlink:href="#mf613700793" x="547.103683" y="246.84375" style="stroke: #000000; stroke-width: 0.8"/>
      </g>
     </g>
     <g id="text_29">
      <!-- 0.08 -->
      <g transform="translate(535.970871 261.442187) scale(0.1 -0.1)">
       <use xlink:href="#DejaVuSans-30"/>
       <use xlink:href="#DejaVuSans-2e" x="63.623047"/>
       <use xlink:href="#DejaVuSans-30" x="95.410156"/>
       <use xlink:href="#DejaVuSans-38" x="159.033203"/>
      </g>
     </g>
    </g>
    <g id="text_30">
     <!-- Shear Extension [mm] -->
     <g transform="translate(382.620313 275.120313) scale(0.1 -0.1)">
      <defs>
       <path id="DejaVuSans-53" d="M 3425 4513 
L 3425 3897 
Q 3066 4069 2747 4153 
Q 2428 4238 2131 4238 
Q 1616 4238 1336 4038 
Q 1056 3838 1056 3469 
Q 1056 3159 1242 3001 
Q 1428 2844 1947 2747 
L 2328 2669 
Q 3034 2534 3370 2195 
Q 3706 1856 3706 1288 
Q 3706 609 3251 259 
Q 2797 -91 1919 -91 
Q 1588 -91 1214 -16 
Q 841 59 441 206 
L 441 856 
Q 825 641 1194 531 
Q 1563 422 1919 422 
Q 2459 422 2753 634 
Q 3047 847 3047 1241 
Q 3047 1584 2836 1778 
Q 2625 1972 2144 2069 
L 1759 2144 
Q 1053 2284 737 2584 
Q 422 2884 422 3419 
Q 422 4038 858 4394 
Q 1294 4750 2059 4750 
Q 2388 4750 2728 4690 
Q 3069 4631 3425 4513 
z
" transform="scale(0.015625)"/>
       <path id="DejaVuSans-68" d="M 3513 2113 
L 3513 0 
L 2938 0 
L 2938 2094 
Q 2938 2591 2744 2837 
Q 2550 3084 2163 3084 
Q 1697 3084 1428 2787 
Q 1159 2491 1159 1978 
L 1159 0 
L 581 0 
L 581 4863 
L 1159 4863 
L 1159 2956 
Q 1366 3272 1645 3428 
Q 1925 3584 2291 3584 
Q 2894 3584 3203 3211 
Q 3513 2838 3513 2113 
z
" transform="scale(0.015625)"/>
      </defs>
      <use xlink:href="#DejaVuSans-53"/>
      <use xlink:href="#DejaVuSans-68" x="63.476562"/>
      <use xlink:href="#DejaVuSans-65" x="126.855469"/>
      <use xlink:href="#DejaVuSans-61" x="188.378906"/>
      <use xlink:href="#DejaVuSans-72" x="249.658203"/>
      <use xlink:href="#DejaVuSans-20" x="290.771484"/>
      <use xlink:href="#DejaVuSans-45" x="322.558594"/>
      <use xlink:href="#DejaVuSans-78" x="385.742188"/>
      <use xlink:href="#DejaVuSans-74" x="444.921875"/>
      <use xlink:href="#DejaVuSans-65" x="484.130859"/>
      <use xlink:href="#DejaVuSans-6e" x="545.654297"/>
      <use xlink:href="#DejaVuSans-73" x="609.033203"/>
      <use xlink:href="#DejaVuSans-69" x="661.132812"/>
      <use xlink:href="#DejaVuSans-6f" x="688.916016"/>
      <use xlink:href="#DejaVuSans-6e" x="750.097656"/>
      <use xlink:href="#DejaVuSans-20" x="813.476562"/>
      <use xlink:href="#DejaVuSans-5b" x="845.263672"/>
      <use xlink:href="#DejaVuSans-6d" x="884.277344"/>
      <use xlink:href="#DejaVuSans-6d" x="981.689453"/>
      <use xlink:href="#DejaVuSans-5d" x="1079.101562"/>
     </g>
    </g>
   </g>
   <g id="matplotlib.axis_4">
    <g id="ytick_7">
     <g id="line2d_31">
      <g>
       <use xlink:href="#m8d9f29b7d8" x="311.851562" y="236.801676" style="stroke: #000000; stroke-width: 0.8"/>
      </g>
     </g>
    </g>
    <g id="ytick_8">
     <g id="line2d_32">
      <g>
       <use xlink:href="#m8d9f29b7d8" x="311.851562" y="196.633381" style="stroke: #000000; stroke-width: 0.8"/>
      </g>
     </g>
    </g>
    <g id="ytick_9">
     <g id="line2d_33">
      <g>
       <use xlink:href="#m8d9f29b7d8" x="311.851562" y="156.465085" style="stroke: #000000; stroke-width: 0.8"/>
      </g>
     </g>
    </g>
    <g id="ytick_10">
     <g id="line2d_34">
      <g>
       <use xlink:href="#m8d9f29b7d8" x="311.851562" y="116.29679" style="stroke: #000000; stroke-width: 0.8"/>
      </g>
     </g>
    </g>
    <g id="ytick_11">
     <g id="line2d_35">
      <g>
       <use xlink:href="#m8d9f29b7d8" x="311.851562" y="76.128494" style="stroke: #000000; stroke-width: 0.8"/>
      </g>
     </g>
    </g>
    <g id="ytick_12">
     <g id="line2d_36">
      <g>
       <use xlink:href="#m8d9f29b7d8" x="311.851562" y="35.960199" style="stroke: #000000; stroke-width: 0.8"/>
      </g>
     </g>
    </g>
   </g>
   <g id="line2d_37">
    <path d="M 311.851562 236.801676 
L 565.2 236.801676 
" clip-path="url(#p1bb1acf338)" style="fill: none; stroke-dasharray: 2.775,1.2; stroke-dashoffset: 0; stroke: #808080; stroke-opacity: 0.75; stroke-width: 0.75"/>
   </g>
   <g id="line2d_38">
    <path d="M 402.333147 246.84375 
L 402.333147 25.918125 
" clip-path="url(#p1bb1acf338)" style="fill: none; stroke-dasharray: 2.775,1.2; stroke-dashoffset: 0; stroke: #808080; stroke-opacity: 0.75; stroke-width: 0.75"/>
   </g>
   <g id="line2d_39">
    <path d="M 402.33512 236.801676 
L 403.457084 234.772974 
L 404.611668 232.744273 
L 405.796255 230.715571 
L 407.008153 228.686869 
L 408.244659 226.658167 
L 409.503118 224.629465 
L 410.780973 222.600764 
L 412.075806 220.572062 
L 413.385363 218.54336 
L 414.707565 216.514658 
L 416.040514 214.485956 
L 417.382487 212.457255 
L 418.731919 210.428553 
L 420.087389 208.399851 
L 421.447596 206.371149 
L 422.811331 204.342447 
L 424.177451 202.313746 
L 425.544846 200.285044 
L 426.912413 198.256342 
L 428.279035 196.22764 
L 429.643566 194.198939 
L 431.004835 192.170237 
L 432.36166 190.141535 
L 433.712883 188.112833 
L 435.057413 186.084131 
L 436.394276 184.05543 
L 437.722667 182.026728 
L 439.041984 179.998026 
L 440.351854 177.969324 
L 441.65213 175.940622 
L 442.942877 173.911921 
L 444.224331 171.883219 
L 445.496859 169.854517 
L 446.760924 167.825815 
L 448.017051 165.797113 
L 449.265827 163.768412 
L 450.507908 161.73971 
L 451.744049 159.711008 
L 452.97514 157.682306 
L 454.202236 155.653605 
L 455.426571 153.624903 
L 456.649545 151.596201 
L 457.872688 149.567499 
L 459.097596 147.538797 
L 460.325853 145.510096 
L 461.558954 143.481394 
L 462.798241 141.452692 
L 464.044858 139.42399 
L 465.299738 137.395288 
L 466.56361 135.366587 
L 467.837032 133.337885 
L 469.120421 131.309183 
L 470.414083 129.280481 
L 471.718232 127.251779 
L 473.032988 125.223078 
L 474.358349 123.194376 
L 475.694159 121.165674 
L 477.04006 119.136972 
L 478.395445 117.10827 
L 479.75942 115.079569 
L 481.130786 113.050867 
L 482.508038 111.022165 
L 483.889398 108.993463 
L 485.27286 106.964762 
L 486.656259 104.93606 
L 488.037352 102.907358 
L 489.413881 100.878656 
L 490.783635 98.849954 
L 492.144476 96.821253 
L 493.494356 94.792551 
L 494.831302 92.763849 
L 496.15341 90.735147 
L 497.458844 88.706445 
L 498.745875 86.677744 
L 500.012949 84.649042 
L 501.258804 82.62034 
L 502.482615 80.591638 
L 503.684148 78.562936 
L 504.863907 76.534235 
L 506.023229 74.505533 
L 507.164327 72.476831 
L 508.290248 70.448129 
L 509.404756 68.419428 
L 510.512139 66.390726 
L 511.616955 64.362024 
L 512.723747 62.333322 
L 513.836747 60.30462 
L 514.959599 58.275919 
L 516.095128 56.247217 
L 517.245166 54.218515 
L 518.410468 52.189813 
L 519.590697 50.161111 
L 520.784494 48.13241 
L 521.989606 46.103708 
L 523.203045 44.075006 
L 524.421266 42.046304 
L 525.640331 40.017602 
L 526.856038 37.988901 
L 528.064013 35.960199 
" clip-path="url(#p1bb1acf338)" style="fill: none; stroke-dasharray: 3.7,1.6; stroke-dashoffset: 0; stroke: #008000"/>
   </g>
   <g id="line2d_40">
    <path d="M 402.334308 236.801676 
L 403.749787 234.772974 
L 405.162323 232.744273 
L 406.572196 230.715571 
L 407.977959 228.686869 
L 409.381568 226.658167 
L 410.781442 224.629465 
L 412.178911 222.600764 
L 413.574315 220.572062 
L 414.966747 218.54336 
L 416.356738 216.514658 
L 417.744655 214.485956 
L 419.130345 212.457255 
L 420.514565 210.428553 
L 421.89745 208.399851 
L 423.278508 206.371149 
L 424.658339 204.342447 
L 426.036503 202.313746 
L 427.413261 200.285044 
L 428.790111 198.256342 
L 430.165283 196.22764 
L 431.54069 194.198939 
L 432.914696 192.170237 
L 434.28907 190.141535 
L 435.663213 188.112833 
L 437.036398 186.084131 
L 438.410256 184.05543 
L 439.784257 182.026728 
L 441.159571 179.998026 
L 442.534245 177.969324 
L 443.909935 175.940622 
L 445.286353 173.911921 
L 446.663164 171.883219 
L 448.042074 169.854517 
L 449.420408 167.825815 
L 450.801108 165.797113 
L 452.182799 163.768412 
L 453.565174 161.73971 
L 454.950054 159.711008 
L 456.336188 157.682306 
L 457.72404 155.653605 
L 459.113247 153.624903 
L 460.504523 151.596201 
L 461.897273 149.567499 
L 463.292451 147.538797 
L 464.689569 145.510096 
L 466.088077 143.481394 
L 467.489259 141.452692 
L 468.891951 139.42399 
L 470.297225 137.395288 
L 471.704391 135.366587 
L 473.113319 133.337885 
L 474.525346 131.309183 
L 475.938665 129.280481 
L 477.354805 127.251779 
L 478.77213 125.223078 
L 480.192203 123.194376 
L 481.614739 121.165674 
L 483.039007 119.136972 
L 484.465054 117.10827 
L 485.892901 115.079569 
L 487.323287 113.050867 
L 488.755529 111.022165 
L 490.189231 108.993463 
L 491.624914 106.964762 
L 493.061693 104.93606 
L 494.50041 102.907358 
L 495.94038 100.878656 
L 497.382831 98.849954 
L 498.825448 96.821253 
L 500.269597 94.792551 
L 501.714003 92.763849 
L 503.160967 90.735147 
L 504.607418 88.706445 
L 506.054717 86.677744 
L 507.502981 84.649042 
L 508.951147 82.62034 
L 510.3998 80.591638 
L 511.848473 78.562936 
L 513.297705 76.534235 
L 514.746287 74.505533 
L 516.194106 72.476831 
L 517.641107 70.448129 
L 519.088329 68.419428 
L 520.533768 66.390726 
L 521.978043 64.362024 
L 523.422004 62.333322 
L 524.863323 60.30462 
L 526.303721 58.275919 
L 527.741649 56.247217 
L 529.177268 54.218515 
L 530.610853 52.189813 
L 532.041973 50.161111 
L 533.470541 48.13241 
L 534.895715 46.103708 
L 536.317997 44.075006 
L 537.736381 42.046304 
L 539.152786 40.017602 
L 540.563135 37.988901 
L 541.970314 35.960199 
" clip-path="url(#p1bb1acf338)" style="fill: none; stroke: #0000ff; stroke-width: 0.5; stroke-linecap: square"/>
   </g>
   <g id="line2d_41">
    <g clip-path="url(#p1bb1acf338)">
     <use xlink:href="#m17b74be9eb" x="402.333147" y="236.801676" style="fill: #1f77b4; stroke: #1f77b4"/>
     <use xlink:href="#m17b74be9eb" x="406.534006" y="230.391107" style="fill: #1f77b4; stroke: #1f77b4"/>
     <use xlink:href="#m17b74be9eb" x="410.833637" y="225.826005" style="fill: #1f77b4; stroke: #1f77b4"/>
     <use xlink:href="#m17b74be9eb" x="412.399172" y="222.717851" style="fill: #1f77b4; stroke: #1f77b4"/>
     <use xlink:href="#m17b74be9eb" x="415.903118" y="218.055619" style="fill: #1f77b4; stroke: #1f77b4"/>
     <use xlink:href="#m17b74be9eb" x="419.737362" y="213.069622" style="fill: #1f77b4; stroke: #1f77b4"/>
     <use xlink:href="#m17b74be9eb" x="421.966684" y="208.018871" style="fill: #1f77b4; stroke: #1f77b4"/>
     <use xlink:href="#m17b74be9eb" x="426.325991" y="202.968121" style="fill: #1f77b4; stroke: #1f77b4"/>
     <use xlink:href="#m17b74be9eb" x="430.287534" y="197.561227" style="fill: #1f77b4; stroke: #1f77b4"/>
     <use xlink:href="#m17b74be9eb" x="433.758953" y="192.316217" style="fill: #1f77b4; stroke: #1f77b4"/>
     <use xlink:href="#m17b74be9eb" x="437.989863" y="186.812195" style="fill: #1f77b4; stroke: #1f77b4"/>
     <use xlink:href="#m17b74be9eb" x="441.874609" y="180.142614" style="fill: #1f77b4; stroke: #1f77b4"/>
     <use xlink:href="#m17b74be9eb" x="446.493324" y="175.545136" style="fill: #1f77b4; stroke: #1f77b4"/>
     <use xlink:href="#m17b74be9eb" x="450.78857" y="169.490711" style="fill: #1f77b4; stroke: #1f77b4"/>
     <use xlink:href="#m17b74be9eb" x="453.61578" y="163.242027" style="fill: #1f77b4; stroke: #1f77b4"/>
     <use xlink:href="#m17b74be9eb" x="458.831525" y="157.349485" style="fill: #1f77b4; stroke: #1f77b4"/>
     <use xlink:href="#m17b74be9eb" x="462.179319" y="151.392189" style="fill: #1f77b4; stroke: #1f77b4"/>
     <use xlink:href="#m17b74be9eb" x="467.860069" y="144.981622" style="fill: #1f77b4; stroke: #1f77b4"/>
     <use xlink:href="#m17b74be9eb" x="471.870309" y="138.830066" style="fill: #1f77b4; stroke: #1f77b4"/>
     <use xlink:href="#m17b74be9eb" x="476.728801" y="132.840394" style="fill: #1f77b4; stroke: #1f77b4"/>
     <use xlink:href="#m17b74be9eb" x="482.164859" y="126.559332" style="fill: #1f77b4; stroke: #1f77b4"/>
     <use xlink:href="#m17b74be9eb" x="484.398015" y="120.602036" style="fill: #1f77b4; stroke: #1f77b4"/>
     <use xlink:href="#m17b74be9eb" x="489.70409" y="114.288597" style="fill: #1f77b4; stroke: #1f77b4"/>
     <use xlink:href="#m17b74be9eb" x="494.196774" y="108.23417" style="fill: #1f77b4; stroke: #1f77b4"/>
     <use xlink:href="#m17b74be9eb" x="498.232167" y="101.985484" style="fill: #1f77b4; stroke: #1f77b4"/>
     <use xlink:href="#m17b74be9eb" x="503.042786" y="96.125316" style="fill: #1f77b4; stroke: #1f77b4"/>
     <use xlink:href="#m17b74be9eb" x="507.146457" y="89.552863" style="fill: #1f77b4; stroke: #1f77b4"/>
     <use xlink:href="#m17b74be9eb" x="512.580843" y="83.207045" style="fill: #1f77b4; stroke: #1f77b4"/>
     <use xlink:href="#m17b74be9eb" x="515.960141" y="77.638266" style="fill: #1f77b4; stroke: #1f77b4"/>
     <use xlink:href="#m17b74be9eb" x="520.382201" y="71.713344" style="fill: #1f77b4; stroke: #1f77b4"/>
     <use xlink:href="#m17b74be9eb" x="526.029038" y="65.464655" style="fill: #1f77b4; stroke: #1f77b4"/>
     <use xlink:href="#m17b74be9eb" x="530.447602" y="59.669239" style="fill: #1f77b4; stroke: #1f77b4"/>
     <use xlink:href="#m17b74be9eb" x="534.862812" y="54.553731" style="fill: #1f77b4; stroke: #1f77b4"/>
     <use xlink:href="#m17b74be9eb" x="538.322451" y="48.175534" style="fill: #1f77b4; stroke: #1f77b4"/>
    </g>
   </g>
   <g id="line2d_42">
    <g clip-path="url(#p1bb1acf338)">
     <use xlink:href="#mf16fc38fb5" x="406.703063" y="230.973886" style="fill: #ff7f0e; stroke: #ff7f0e"/>
     <use xlink:href="#mf16fc38fb5" x="409.560446" y="226.246901" style="fill: #ff7f0e; stroke: #ff7f0e"/>
     <use xlink:href="#mf16fc38fb5" x="413.616477" y="221.746553" style="fill: #ff7f0e; stroke: #ff7f0e"/>
     <use xlink:href="#mf16fc38fb5" x="415.379401" y="216.922438" style="fill: #ff7f0e; stroke: #ff7f0e"/>
     <use xlink:href="#mf16fc38fb5" x="419.442644" y="212.163077" style="fill: #ff7f0e; stroke: #ff7f0e"/>
     <use xlink:href="#mf16fc38fb5" x="423.114017" y="206.594301" style="fill: #ff7f0e; stroke: #ff7f0e"/>
     <use xlink:href="#mf16fc38fb5" x="426.564134" y="201.025525" style="fill: #ff7f0e; stroke: #ff7f0e"/>
     <use xlink:href="#mf16fc38fb5" x="430.55766" y="195.424372" style="fill: #ff7f0e; stroke: #ff7f0e"/>
     <use xlink:href="#mf16fc38fb5" x="434.061656" y="189.887973" style="fill: #ff7f0e; stroke: #ff7f0e"/>
     <use xlink:href="#mf16fc38fb5" x="438.592184" y="183.412652" style="fill: #ff7f0e; stroke: #ff7f0e"/>
     <use xlink:href="#mf16fc38fb5" x="443.058845" y="176.710695" style="fill: #ff7f0e; stroke: #ff7f0e"/>
     <use xlink:href="#mf16fc38fb5" x="447.394888" y="171.141919" style="fill: #ff7f0e; stroke: #ff7f0e"/>
     <use xlink:href="#mf16fc38fb5" x="450.96133" y="164.957987" style="fill: #ff7f0e; stroke: #ff7f0e"/>
     <use xlink:href="#mf16fc38fb5" x="455.506996" y="158.35316" style="fill: #ff7f0e; stroke: #ff7f0e"/>
     <use xlink:href="#mf16fc38fb5" x="460.028455" y="152.363488" style="fill: #ff7f0e; stroke: #ff7f0e"/>
     <use xlink:href="#mf16fc38fb5" x="464.874424" y="145.888167" style="fill: #ff7f0e; stroke: #ff7f0e"/>
     <use xlink:href="#mf16fc38fb5" x="469.472949" y="139.671858" style="fill: #ff7f0e; stroke: #ff7f0e"/>
     <use xlink:href="#mf16fc38fb5" x="473.609755" y="133.45555" style="fill: #ff7f0e; stroke: #ff7f0e"/>
     <use xlink:href="#mf16fc38fb5" x="478.176987" y="127.206864" style="fill: #ff7f0e; stroke: #ff7f0e"/>
     <use xlink:href="#mf16fc38fb5" x="482.276782" y="120.569659" style="fill: #ff7f0e; stroke: #ff7f0e"/>
     <use xlink:href="#mf16fc38fb5" x="487.531904" y="114.54761" style="fill: #ff7f0e; stroke: #ff7f0e"/>
     <use xlink:href="#mf16fc38fb5" x="490.344374" y="108.52556" style="fill: #ff7f0e; stroke: #ff7f0e"/>
     <use xlink:href="#mf16fc38fb5" x="495.720545" y="102.21212" style="fill: #ff7f0e; stroke: #ff7f0e"/>
     <use xlink:href="#mf16fc38fb5" x="500.660463" y="95.80155" style="fill: #ff7f0e; stroke: #ff7f0e"/>
     <use xlink:href="#mf16fc38fb5" x="504.28455" y="89.973759" style="fill: #ff7f0e; stroke: #ff7f0e"/>
     <use xlink:href="#mf16fc38fb5" x="508.593958" y="83.725071" style="fill: #ff7f0e; stroke: #ff7f0e"/>
     <use xlink:href="#mf16fc38fb5" x="512.718864" y="77.444006" style="fill: #ff7f0e; stroke: #ff7f0e"/>
     <use xlink:href="#mf16fc38fb5" x="517.495303" y="71.162941" style="fill: #ff7f0e; stroke: #ff7f0e"/>
     <use xlink:href="#mf16fc38fb5" x="522.118043" y="65.464654" style="fill: #ff7f0e; stroke: #ff7f0e"/>
     <use xlink:href="#mf16fc38fb5" x="526.846501" y="59.572108" style="fill: #ff7f0e; stroke: #ff7f0e"/>
     <use xlink:href="#mf16fc38fb5" x="530.787806" y="53.67956" style="fill: #ff7f0e; stroke: #ff7f0e"/>
     <use xlink:href="#mf16fc38fb5" x="535.725536" y="47.625129" style="fill: #ff7f0e; stroke: #ff7f0e"/>
    </g>
   </g>
   <g id="patch_11">
    <path d="M 311.851562 246.84375 
L 311.851562 25.918125 
" style="fill: none; stroke: #000000; stroke-width: 0.8; stroke-linejoin: miter; stroke-linecap: square"/>
   </g>
   <g id="patch_12">
    <path d="M 565.2 246.84375 
L 565.2 25.918125 
" style="fill: none; stroke: #000000; stroke-width: 0.8; stroke-linejoin: miter; stroke-linecap: square"/>
   </g>
   <g id="patch_13">
    <path d="M 311.851562 246.84375 
L 565.2 246.84375 
" style="fill: none; stroke: #000000; stroke-width: 0.8; stroke-linejoin: miter; stroke-linecap: square"/>
   </g>
   <g id="patch_14">
    <path d="M 311.851562 25.918125 
L 565.2 25.918125 
" style="fill: none; stroke: #000000; stroke-width: 0.8; stroke-linejoin: miter; stroke-linecap: square"/>
   </g>
   <g id="text_31">
    <!-- Predictions ($135^\circ$) -->
    <g transform="translate(382.785781 19.918125) scale(0.12 -0.12)">
     <use xlink:href="#DejaVuSans-50" transform="translate(0 0.015625)"/>
     <use xlink:href="#DejaVuSans-72" transform="translate(60.302734 0.015625)"/>
     <use xlink:href="#DejaVuSans-65" transform="translate(101.416016 0.015625)"/>
     <use xlink:href="#DejaVuSans-64" transform="translate(162.939453 0.015625)"/>
     <use xlink:href="#DejaVuSans-69" transform="translate(226.416016 0.015625)"/>
     <use xlink:href="#DejaVuSans-63" transform="translate(254.199219 0.015625)"/>
     <use xlink:href="#DejaVuSans-74" transform="translate(309.179688 0.015625)"/>
     <use xlink:href="#DejaVuSans-69" transform="translate(348.388672 0.015625)"/>
     <use xlink:href="#DejaVuSans-6f" transform="translate(376.171875 0.015625)"/>
     <use xlink:href="#DejaVuSans-6e" transform="translate(437.353516 0.015625)"/>
     <use xlink:href="#DejaVuSans-73" transform="translate(500.732422 0.015625)"/>
     <use xlink:href="#DejaVuSans-20" transform="translate(552.832031 0.015625)"/>
     <use xlink:href="#DejaVuSans-28" transform="translate(584.619141 0.015625)"/>
     <use xlink:href="#DejaVuSans-31" transform="translate(623.632812 0.015625)"/>
     <use xlink:href="#DejaVuSans-33" transform="translate(687.255859 0.015625)"/>
     <use xlink:href="#DejaVuSans-35" transform="translate(750.878906 0.015625)"/>
     <use xlink:href="#DejaVuSans-2218" transform="translate(829.09668 38.296875) scale(0.7)"/>
     <use xlink:href="#DejaVuSans-29" transform="translate(889.287109 0.015625)"/>
    </g>
   </g>
  </g>
 </g>
 <defs>
  <clipPath id="p3476b83766">
   <rect x="44.203125" y="25.918125" width="253.348437" height="220.925625"/>
  </clipPath>
  <clipPath id="p1bb1acf338">
   <rect x="311.851562" y="25.918125" width="253.348438" height="220.925625"/>
  </clipPath>
 </defs>
</svg>
