<?xml version="1.0" encoding="utf-8" standalone="no"?>
<!DOCTYPE svg PUBLIC "-//W3C//DTD SVG 1.1//EN"
  "http://www.w3.org/Graphics/SVG/1.1/DTD/svg11.dtd">
<svg xmlns:xlink="http://www.w3.org/1999/xlink" width="1440pt" height="288pt" viewBox="0 0 1440 288" xmlns="http://www.w3.org/2000/svg" version="1.1">
 <metadata>
  <rdf:RDF xmlns:dc="http://purl.org/dc/elements/1.1/" xmlns:cc="http://creativecommons.org/ns#" xmlns:rdf="http://www.w3.org/1999/02/22-rdf-syntax-ns#">
   <cc:Work>
    <dc:type rdf:resource="http://purl.org/dc/dcmitype/StillImage"/>
    <dc:date>2024-11-24T11:05:13.678589</dc:date>
    <dc:format>image/svg+xml</dc:format>
    <dc:creator>
     <cc:Agent>
      <dc:title>Matplotlib v3.9.2, https://matplotlib.org/</dc:title>
     </cc:Agent>
    </dc:creator>
   </cc:Work>
  </rdf:RDF>
 </metadata>
 <defs>
  <style type="text/css">*{stroke-linejoin: round; stroke-linecap: butt}</style>
 </defs>
 <g id="figure_1">
  <g id="patch_1">
   <path d="M 0 288 
L 1440 288 
L 1440 0 
L 0 0 
z
" style="fill: #ffffff"/>
  </g>
  <g id="axes_1">
   <g id="patch_2">
    <path d="M 36.457115 246.90101 
L 277.20243 246.90101 
L 277.20243 16.638052 
L 36.457115 16.638052 
z
" style="fill: #ffffff"/>
   </g>
   <g id="patch_3">
    <path d="M 47.400084 246.90101 
L 49.527419 246.90101 
L 49.527419 246.116402 
L 47.400084 246.116402 
z
" clip-path="url(#p70b8972f14)" style="fill: #1f77b4"/>
   </g>
   <g id="patch_4">
    <path d="M 49.76379 246.90101 
L 51.891125 246.90101 
L 51.891125 246.90101 
L 49.76379 246.90101 
z
" clip-path="url(#p70b8972f14)" style="fill: #1f77b4"/>
   </g>
   <g id="patch_5">
    <path d="M 52.127496 246.90101 
L 54.254831 246.90101 
L 54.254831 245.724097 
L 52.127496 245.724097 
z
" clip-path="url(#p70b8972f14)" style="fill: #1f77b4"/>
   </g>
   <g id="patch_6">
    <path d="M 54.491201 246.90101 
L 56.618537 246.90101 
L 56.618537 244.547185 
L 54.491201 244.547185 
z
" clip-path="url(#p70b8972f14)" style="fill: #1f77b4"/>
   </g>
   <g id="patch_7">
    <path d="M 56.854907 246.90101 
L 58.982242 246.90101 
L 58.982242 245.724097 
L 56.854907 245.724097 
z
" clip-path="url(#p70b8972f14)" style="fill: #1f77b4"/>
   </g>
   <g id="patch_8">
    <path d="M 59.218613 246.90101 
L 61.345948 246.90101 
L 61.345948 241.408751 
L 59.218613 241.408751 
z
" clip-path="url(#p70b8972f14)" style="fill: #1f77b4"/>
   </g>
   <g id="patch_9">
    <path d="M 61.582319 246.90101 
L 63.709654 246.90101 
L 63.709654 235.524188 
L 61.582319 235.524188 
z
" clip-path="url(#p70b8972f14)" style="fill: #1f77b4"/>
   </g>
   <g id="patch_10">
    <path d="M 63.946025 246.90101 
L 66.07336 246.90101 
L 66.07336 225.324278 
L 63.946025 225.324278 
z
" clip-path="url(#p70b8972f14)" style="fill: #1f77b4"/>
   </g>
   <g id="patch_11">
    <path d="M 66.309731 246.90101 
L 68.437066 246.90101 
L 68.437066 214.732065 
L 66.309731 214.732065 
z
" clip-path="url(#p70b8972f14)" style="fill: #1f77b4"/>
   </g>
   <g id="patch_12">
    <path d="M 68.673436 246.90101 
L 70.800772 246.90101 
L 70.800772 191.193812 
L 68.673436 191.193812 
z
" clip-path="url(#p70b8972f14)" style="fill: #1f77b4"/>
   </g>
   <g id="patch_13">
    <path d="M 71.037142 246.90101 
L 73.164477 246.90101 
L 73.164477 163.340213 
L 71.037142 163.340213 
z
" clip-path="url(#p70b8972f14)" style="fill: #1f77b4"/>
   </g>
   <g id="patch_14">
    <path d="M 73.400848 246.90101 
L 75.528183 246.90101 
L 75.528183 134.702005 
L 73.400848 134.702005 
z
" clip-path="url(#p70b8972f14)" style="fill: #1f77b4"/>
   </g>
   <g id="patch_15">
    <path d="M 75.764554 246.90101 
L 77.891889 246.90101 
L 77.891889 92.33315 
L 75.764554 92.33315 
z
" clip-path="url(#p70b8972f14)" style="fill: #1f77b4"/>
   </g>
   <g id="patch_16">
    <path d="M 78.12826 246.90101 
L 80.255595 246.90101 
L 80.255595 62.125726 
L 78.12826 62.125726 
z
" clip-path="url(#p70b8972f14)" style="fill: #1f77b4"/>
   </g>
   <g id="patch_17">
    <path d="M 80.491966 246.90101 
L 82.619301 246.90101 
L 82.619301 31.525997 
L 80.491966 31.525997 
z
" clip-path="url(#p70b8972f14)" style="fill: #1f77b4"/>
   </g>
   <g id="patch_18">
    <path d="M 82.855671 246.90101 
L 84.983007 246.90101 
L 84.983007 27.602955 
L 82.855671 27.602955 
z
" clip-path="url(#p70b8972f14)" style="fill: #1f77b4"/>
   </g>
   <g id="patch_19">
    <path d="M 85.219377 246.90101 
L 87.346713 246.90101 
L 87.346713 32.310606 
L 85.219377 32.310606 
z
" clip-path="url(#p70b8972f14)" style="fill: #1f77b4"/>
   </g>
   <g id="patch_20">
    <path d="M 87.583083 246.90101 
L 89.710418 246.90101 
L 89.710418 50.748904 
L 87.583083 50.748904 
z
" clip-path="url(#p70b8972f14)" style="fill: #1f77b4"/>
   </g>
   <g id="patch_21">
    <path d="M 89.946789 246.90101 
L 92.074124 246.90101 
L 92.074124 89.979325 
L 89.946789 89.979325 
z
" clip-path="url(#p70b8972f14)" style="fill: #1f77b4"/>
   </g>
   <g id="patch_22">
    <path d="M 92.310495 246.90101 
L 94.43783 246.90101 
L 94.43783 132.740484 
L 92.310495 132.740484 
z
" clip-path="url(#p70b8972f14)" style="fill: #1f77b4"/>
   </g>
   <g id="patch_23">
    <path d="M 94.674201 246.90101 
L 96.801536 246.90101 
L 96.801536 166.086342 
L 94.674201 166.086342 
z
" clip-path="url(#p70b8972f14)" style="fill: #1f77b4"/>
   </g>
   <g id="patch_24">
    <path d="M 97.037906 246.90101 
L 99.165242 246.90101 
L 99.165242 196.293767 
L 97.037906 196.293767 
z
" clip-path="url(#p70b8972f14)" style="fill: #1f77b4"/>
   </g>
   <g id="patch_25">
    <path d="M 99.401612 246.90101 
L 101.528948 246.90101 
L 101.528948 227.678104 
L 99.401612 227.678104 
z
" clip-path="url(#p70b8972f14)" style="fill: #1f77b4"/>
   </g>
   <g id="patch_26">
    <path d="M 101.765318 246.90101 
L 103.892653 246.90101 
L 103.892653 231.601146 
L 101.765318 231.601146 
z
" clip-path="url(#p70b8972f14)" style="fill: #1f77b4"/>
   </g>
   <g id="patch_27">
    <path d="M 104.129024 246.90101 
L 106.256359 246.90101 
L 106.256359 239.839534 
L 104.129024 239.839534 
z
" clip-path="url(#p70b8972f14)" style="fill: #1f77b4"/>
   </g>
   <g id="patch_28">
    <path d="M 106.49273 246.90101 
L 108.620065 246.90101 
L 108.620065 244.547185 
L 106.49273 244.547185 
z
" clip-path="url(#p70b8972f14)" style="fill: #1f77b4"/>
   </g>
   <g id="patch_29">
    <path d="M 108.856436 246.90101 
L 110.983771 246.90101 
L 110.983771 245.724097 
L 108.856436 245.724097 
z
" clip-path="url(#p70b8972f14)" style="fill: #1f77b4"/>
   </g>
   <g id="patch_30">
    <path d="M 111.220141 246.90101 
L 113.347477 246.90101 
L 113.347477 246.116402 
L 111.220141 246.116402 
z
" clip-path="url(#p70b8972f14)" style="fill: #1f77b4"/>
   </g>
   <g id="patch_31">
    <path d="M 113.583847 246.90101 
L 115.711183 246.90101 
L 115.711183 246.90101 
L 113.583847 246.90101 
z
" clip-path="url(#p70b8972f14)" style="fill: #1f77b4"/>
   </g>
   <g id="patch_32">
    <path d="M 115.947553 246.90101 
L 118.074888 246.90101 
L 118.074888 246.116402 
L 115.947553 246.116402 
z
" clip-path="url(#p70b8972f14)" style="fill: #1f77b4"/>
   </g>
   <g id="matplotlib.axis_1">
    <g id="xtick_1">
     <g id="line2d_1">
      <defs>
       <path id="m9d9a559844" d="M 0 0 
L 0 3.5 
" style="stroke: #000000; stroke-width: 0.8"/>
      </defs>
      <g>
       <use xlink:href="#m9d9a559844" x="74.048987" y="246.90101" style="stroke: #000000; stroke-width: 0.8"/>
      </g>
     </g>
     <g id="text_1">
      <!-- 1.35 -->
      <g transform="translate(58.463049 264.538822) scale(0.14 -0.14)">
       <defs>
        <path id="DejaVuSans-31" d="M 794 531 
L 1825 531 
L 1825 4091 
L 703 3866 
L 703 4441 
L 1819 4666 
L 2450 4666 
L 2450 531 
L 3481 531 
L 3481 0 
L 794 0 
L 794 531 
z
" transform="scale(0.015625)"/>
        <path id="DejaVuSans-2e" d="M 684 794 
L 1344 794 
L 1344 0 
L 684 0 
L 684 794 
z
" transform="scale(0.015625)"/>
        <path id="DejaVuSans-33" d="M 2597 2516 
Q 3050 2419 3304 2112 
Q 3559 1806 3559 1356 
Q 3559 666 3084 287 
Q 2609 -91 1734 -91 
Q 1441 -91 1130 -33 
Q 819 25 488 141 
L 488 750 
Q 750 597 1062 519 
Q 1375 441 1716 441 
Q 2309 441 2620 675 
Q 2931 909 2931 1356 
Q 2931 1769 2642 2001 
Q 2353 2234 1838 2234 
L 1294 2234 
L 1294 2753 
L 1863 2753 
Q 2328 2753 2575 2939 
Q 2822 3125 2822 3475 
Q 2822 3834 2567 4026 
Q 2313 4219 1838 4219 
Q 1578 4219 1281 4162 
Q 984 4106 628 3988 
L 628 4550 
Q 988 4650 1302 4700 
Q 1616 4750 1894 4750 
Q 2613 4750 3031 4423 
Q 3450 4097 3450 3541 
Q 3450 3153 3228 2886 
Q 3006 2619 2597 2516 
z
" transform="scale(0.015625)"/>
        <path id="DejaVuSans-35" d="M 691 4666 
L 3169 4666 
L 3169 4134 
L 1269 4134 
L 1269 2991 
Q 1406 3038 1543 3061 
Q 1681 3084 1819 3084 
Q 2600 3084 3056 2656 
Q 3513 2228 3513 1497 
Q 3513 744 3044 326 
Q 2575 -91 1722 -91 
Q 1428 -91 1123 -41 
Q 819 9 494 109 
L 494 744 
Q 775 591 1075 516 
Q 1375 441 1709 441 
Q 2250 441 2565 725 
Q 2881 1009 2881 1497 
Q 2881 1984 2565 2268 
Q 2250 2553 1709 2553 
Q 1456 2553 1204 2497 
Q 953 2441 691 2322 
L 691 4666 
z
" transform="scale(0.015625)"/>
       </defs>
       <use xlink:href="#DejaVuSans-31"/>
       <use xlink:href="#DejaVuSans-2e" x="63.623047"/>
       <use xlink:href="#DejaVuSans-33" x="95.410156"/>
       <use xlink:href="#DejaVuSans-35" x="159.033203"/>
      </g>
     </g>
    </g>
    <g id="xtick_2">
     <g id="line2d_2">
      <g>
       <use xlink:href="#m9d9a559844" x="122.586985" y="246.90101" style="stroke: #000000; stroke-width: 0.8"/>
      </g>
     </g>
     <g id="text_2">
      <!-- 1.40 -->
      <g transform="translate(107.001048 264.538822) scale(0.14 -0.14)">
       <defs>
        <path id="DejaVuSans-34" d="M 2419 4116 
L 825 1625 
L 2419 1625 
L 2419 4116 
z
M 2253 4666 
L 3047 4666 
L 3047 1625 
L 3713 1625 
L 3713 1100 
L 3047 1100 
L 3047 0 
L 2419 0 
L 2419 1100 
L 313 1100 
L 313 1709 
L 2253 4666 
z
" transform="scale(0.015625)"/>
        <path id="DejaVuSans-30" d="M 2034 4250 
Q 1547 4250 1301 3770 
Q 1056 3291 1056 2328 
Q 1056 1369 1301 889 
Q 1547 409 2034 409 
Q 2525 409 2770 889 
Q 3016 1369 3016 2328 
Q 3016 3291 2770 3770 
Q 2525 4250 2034 4250 
z
M 2034 4750 
Q 2819 4750 3233 4129 
Q 3647 3509 3647 2328 
Q 3647 1150 3233 529 
Q 2819 -91 2034 -91 
Q 1250 -91 836 529 
Q 422 1150 422 2328 
Q 422 3509 836 4129 
Q 1250 4750 2034 4750 
z
" transform="scale(0.015625)"/>
       </defs>
       <use xlink:href="#DejaVuSans-31"/>
       <use xlink:href="#DejaVuSans-2e" x="63.623047"/>
       <use xlink:href="#DejaVuSans-34" x="95.410156"/>
       <use xlink:href="#DejaVuSans-30" x="159.033203"/>
      </g>
     </g>
    </g>
    <g id="xtick_3">
     <g id="line2d_3">
      <g>
       <use xlink:href="#m9d9a559844" x="171.124984" y="246.90101" style="stroke: #000000; stroke-width: 0.8"/>
      </g>
     </g>
     <g id="text_3">
      <!-- 1.45 -->
      <g transform="translate(155.539046 264.538822) scale(0.14 -0.14)">
       <use xlink:href="#DejaVuSans-31"/>
       <use xlink:href="#DejaVuSans-2e" x="63.623047"/>
       <use xlink:href="#DejaVuSans-34" x="95.410156"/>
       <use xlink:href="#DejaVuSans-35" x="159.033203"/>
      </g>
     </g>
    </g>
    <g id="xtick_4">
     <g id="line2d_4">
      <g>
       <use xlink:href="#m9d9a559844" x="219.662982" y="246.90101" style="stroke: #000000; stroke-width: 0.8"/>
      </g>
     </g>
     <g id="text_4">
      <!-- 1.50 -->
      <g transform="translate(204.077045 264.538822) scale(0.14 -0.14)">
       <use xlink:href="#DejaVuSans-31"/>
       <use xlink:href="#DejaVuSans-2e" x="63.623047"/>
       <use xlink:href="#DejaVuSans-35" x="95.410156"/>
       <use xlink:href="#DejaVuSans-30" x="159.033203"/>
      </g>
     </g>
    </g>
    <g id="xtick_5">
     <g id="line2d_5">
      <g>
       <use xlink:href="#m9d9a559844" x="268.200981" y="246.90101" style="stroke: #000000; stroke-width: 0.8"/>
      </g>
     </g>
     <g id="text_5">
      <!-- 1.55 -->
      <g transform="translate(252.615043 264.538822) scale(0.14 -0.14)">
       <use xlink:href="#DejaVuSans-31"/>
       <use xlink:href="#DejaVuSans-2e" x="63.623047"/>
       <use xlink:href="#DejaVuSans-35" x="95.410156"/>
       <use xlink:href="#DejaVuSans-35" x="159.033203"/>
      </g>
     </g>
    </g>
    <g id="text_6">
     <!-- $E_1$ [MPa] -->
     <g transform="translate(126.799772 282.088197) scale(0.14 -0.14)">
      <defs>
       <path id="DejaVuSans-Oblique-45" d="M 1081 4666 
L 4031 4666 
L 3928 4134 
L 1606 4134 
L 1338 2753 
L 3566 2753 
L 3463 2222 
L 1234 2222 
L 909 531 
L 3284 531 
L 3181 0 
L 172 0 
L 1081 4666 
z
" transform="scale(0.015625)"/>
       <path id="DejaVuSans-20" transform="scale(0.015625)"/>
       <path id="DejaVuSans-5b" d="M 550 4863 
L 1875 4863 
L 1875 4416 
L 1125 4416 
L 1125 -397 
L 1875 -397 
L 1875 -844 
L 550 -844 
L 550 4863 
z
" transform="scale(0.015625)"/>
       <path id="DejaVuSans-4d" d="M 628 4666 
L 1569 4666 
L 2759 1491 
L 3956 4666 
L 4897 4666 
L 4897 0 
L 4281 0 
L 4281 4097 
L 3078 897 
L 2444 897 
L 1241 4097 
L 1241 0 
L 628 0 
L 628 4666 
z
" transform="scale(0.015625)"/>
       <path id="DejaVuSans-50" d="M 1259 4147 
L 1259 2394 
L 2053 2394 
Q 2494 2394 2734 2622 
Q 2975 2850 2975 3272 
Q 2975 3691 2734 3919 
Q 2494 4147 2053 4147 
L 1259 4147 
z
M 628 4666 
L 2053 4666 
Q 2838 4666 3239 4311 
Q 3641 3956 3641 3272 
Q 3641 2581 3239 2228 
Q 2838 1875 2053 1875 
L 1259 1875 
L 1259 0 
L 628 0 
L 628 4666 
z
" transform="scale(0.015625)"/>
       <path id="DejaVuSans-61" d="M 2194 1759 
Q 1497 1759 1228 1600 
Q 959 1441 959 1056 
Q 959 750 1161 570 
Q 1363 391 1709 391 
Q 2188 391 2477 730 
Q 2766 1069 2766 1631 
L 2766 1759 
L 2194 1759 
z
M 3341 1997 
L 3341 0 
L 2766 0 
L 2766 531 
Q 2569 213 2275 61 
Q 1981 -91 1556 -91 
Q 1019 -91 701 211 
Q 384 513 384 1019 
Q 384 1609 779 1909 
Q 1175 2209 1959 2209 
L 2766 2209 
L 2766 2266 
Q 2766 2663 2505 2880 
Q 2244 3097 1772 3097 
Q 1472 3097 1187 3025 
Q 903 2953 641 2809 
L 641 3341 
Q 956 3463 1253 3523 
Q 1550 3584 1831 3584 
Q 2591 3584 2966 3190 
Q 3341 2797 3341 1997 
z
" transform="scale(0.015625)"/>
       <path id="DejaVuSans-5d" d="M 1947 4863 
L 1947 -844 
L 622 -844 
L 622 -397 
L 1369 -397 
L 1369 4416 
L 622 4416 
L 622 4863 
L 1947 4863 
z
" transform="scale(0.015625)"/>
      </defs>
      <use xlink:href="#DejaVuSans-Oblique-45" transform="translate(0 0.015625)"/>
      <use xlink:href="#DejaVuSans-31" transform="translate(63.183594 -16.390625) scale(0.7)"/>
      <use xlink:href="#DejaVuSans-20" transform="translate(110.454102 0.015625)"/>
      <use xlink:href="#DejaVuSans-5b" transform="translate(142.241211 0.015625)"/>
      <use xlink:href="#DejaVuSans-4d" transform="translate(181.254883 0.015625)"/>
      <use xlink:href="#DejaVuSans-50" transform="translate(267.53418 0.015625)"/>
      <use xlink:href="#DejaVuSans-61" transform="translate(327.836914 0.015625)"/>
      <use xlink:href="#DejaVuSans-5d" transform="translate(389.116211 0.015625)"/>
     </g>
    </g>
    <g id="text_7">
     <!-- 1e5 -->
     <g transform="translate(250.773055 281.088197) scale(0.14 -0.14)">
      <defs>
       <path id="DejaVuSans-65" d="M 3597 1894 
L 3597 1613 
L 953 1613 
Q 991 1019 1311 708 
Q 1631 397 2203 397 
Q 2534 397 2845 478 
Q 3156 559 3463 722 
L 3463 178 
Q 3153 47 2828 -22 
Q 2503 -91 2169 -91 
Q 1331 -91 842 396 
Q 353 884 353 1716 
Q 353 2575 817 3079 
Q 1281 3584 2069 3584 
Q 2775 3584 3186 3129 
Q 3597 2675 3597 1894 
z
M 3022 2063 
Q 3016 2534 2758 2815 
Q 2500 3097 2075 3097 
Q 1594 3097 1305 2825 
Q 1016 2553 972 2059 
L 3022 2063 
z
" transform="scale(0.015625)"/>
      </defs>
      <use xlink:href="#DejaVuSans-31"/>
      <use xlink:href="#DejaVuSans-65" x="63.623047"/>
      <use xlink:href="#DejaVuSans-35" x="125.146484"/>
     </g>
    </g>
   </g>
   <g id="matplotlib.axis_2">
    <g id="ytick_1">
     <g id="line2d_6">
      <defs>
       <path id="m8b7f692b00" d="M 0 0 
L -3.5 0 
" style="stroke: #000000; stroke-width: 0.8"/>
      </defs>
      <g>
       <use xlink:href="#m8b7f692b00" x="36.457115" y="246.90101" style="stroke: #000000; stroke-width: 0.8"/>
      </g>
     </g>
     <g id="text_8">
      <!-- 0 -->
      <g transform="translate(20.549615 252.219916) scale(0.14 -0.14)">
       <use xlink:href="#DejaVuSans-30"/>
      </g>
     </g>
    </g>
    <g id="ytick_2">
     <g id="line2d_7">
      <g>
       <use xlink:href="#m8b7f692b00" x="36.457115" y="199.139885" style="stroke: #000000; stroke-width: 0.8"/>
      </g>
     </g>
     <g id="text_9">
      <!-- 1 -->
      <g transform="translate(20.549615 204.458792) scale(0.14 -0.14)">
       <use xlink:href="#DejaVuSans-31"/>
      </g>
     </g>
    </g>
    <g id="ytick_3">
     <g id="line2d_8">
      <g>
       <use xlink:href="#m8b7f692b00" x="36.457115" y="151.378761" style="stroke: #000000; stroke-width: 0.8"/>
      </g>
     </g>
     <g id="text_10">
      <!-- 2 -->
      <g transform="translate(20.549615 156.697667) scale(0.14 -0.14)">
       <defs>
        <path id="DejaVuSans-32" d="M 1228 531 
L 3431 531 
L 3431 0 
L 469 0 
L 469 531 
Q 828 903 1448 1529 
Q 2069 2156 2228 2338 
Q 2531 2678 2651 2914 
Q 2772 3150 2772 3378 
Q 2772 3750 2511 3984 
Q 2250 4219 1831 4219 
Q 1534 4219 1204 4116 
Q 875 4013 500 3803 
L 500 4441 
Q 881 4594 1212 4672 
Q 1544 4750 1819 4750 
Q 2544 4750 2975 4387 
Q 3406 4025 3406 3419 
Q 3406 3131 3298 2873 
Q 3191 2616 2906 2266 
Q 2828 2175 2409 1742 
Q 1991 1309 1228 531 
z
" transform="scale(0.015625)"/>
       </defs>
       <use xlink:href="#DejaVuSans-32"/>
      </g>
     </g>
    </g>
    <g id="ytick_4">
     <g id="line2d_9">
      <g>
       <use xlink:href="#m8b7f692b00" x="36.457115" y="103.617636" style="stroke: #000000; stroke-width: 0.8"/>
      </g>
     </g>
     <g id="text_11">
      <!-- 3 -->
      <g transform="translate(20.549615 108.936542) scale(0.14 -0.14)">
       <use xlink:href="#DejaVuSans-33"/>
      </g>
     </g>
    </g>
    <g id="ytick_5">
     <g id="line2d_10">
      <g>
       <use xlink:href="#m8b7f692b00" x="36.457115" y="55.856511" style="stroke: #000000; stroke-width: 0.8"/>
      </g>
     </g>
     <g id="text_12">
      <!-- 4 -->
      <g transform="translate(20.549615 61.175418) scale(0.14 -0.14)">
       <use xlink:href="#DejaVuSans-34"/>
      </g>
     </g>
    </g>
    <g id="text_13">
     <!-- PDF -->
     <g transform="translate(13.638053 145.406406) rotate(-90) scale(0.14 -0.14)">
      <defs>
       <path id="DejaVuSans-44" d="M 1259 4147 
L 1259 519 
L 2022 519 
Q 2988 519 3436 956 
Q 3884 1394 3884 2338 
Q 3884 3275 3436 3711 
Q 2988 4147 2022 4147 
L 1259 4147 
z
M 628 4666 
L 1925 4666 
Q 3281 4666 3915 4102 
Q 4550 3538 4550 2338 
Q 4550 1131 3912 565 
Q 3275 0 1925 0 
L 628 0 
L 628 4666 
z
" transform="scale(0.015625)"/>
       <path id="DejaVuSans-46" d="M 628 4666 
L 3309 4666 
L 3309 4134 
L 1259 4134 
L 1259 2759 
L 3109 2759 
L 3109 2228 
L 1259 2228 
L 1259 0 
L 628 0 
L 628 4666 
z
" transform="scale(0.015625)"/>
      </defs>
      <use xlink:href="#DejaVuSans-50"/>
      <use xlink:href="#DejaVuSans-44" x="60.302734"/>
      <use xlink:href="#DejaVuSans-46" x="137.304688"/>
     </g>
    </g>
    <g id="text_14">
     <!-- 1e−4 -->
     <g transform="translate(36.457115 13.638052) scale(0.14 -0.14)">
      <defs>
       <path id="DejaVuSans-2212" d="M 678 2272 
L 4684 2272 
L 4684 1741 
L 678 1741 
L 678 2272 
z
" transform="scale(0.015625)"/>
      </defs>
      <use xlink:href="#DejaVuSans-31"/>
      <use xlink:href="#DejaVuSans-65" x="63.623047"/>
      <use xlink:href="#DejaVuSans-2212" x="125.146484"/>
      <use xlink:href="#DejaVuSans-34" x="208.935547"/>
     </g>
    </g>
   </g>
   <g id="line2d_11">
    <path d="M 149.768264 245.84266 
L 150.944943 245.633958 
L 152.121622 245.389663 
L 153.298301 245.104875 
L 154.474979 244.774251 
L 155.651658 244.391999 
L 156.828337 243.951896 
L 158.005016 243.447304 
L 159.181694 242.871206 
L 160.358373 242.21625 
L 161.535052 241.474813 
L 162.711731 240.639075 
L 163.888409 239.701113 
L 165.065088 238.653006 
L 166.241767 237.486965 
L 167.418446 236.195474 
L 168.595124 234.771441 
L 169.771803 233.208372 
L 170.948482 231.50055 
L 172.125161 229.643226 
L 173.301839 227.632809 
L 174.478518 225.467065 
L 175.655197 223.14531 
L 176.831876 220.66859 
L 178.008554 218.039857 
L 179.185233 215.264119 
L 180.361912 212.348571 
L 181.538591 209.302691 
L 182.715269 206.138311 
L 183.891948 202.869637 
L 185.068627 199.513235 
L 186.245306 196.087966 
L 187.421984 192.614879 
L 188.598663 189.11704 
L 189.775342 185.619332 
L 190.952021 182.148185 
L 192.128699 178.731278 
L 193.305378 175.397189 
L 194.482057 172.175015 
L 195.658736 169.093959 
L 196.835414 166.182897 
L 198.012093 163.469934 
L 199.188772 160.981957 
L 200.365451 158.74419 
L 201.542129 156.779773 
L 202.718808 155.109362 
L 203.895487 153.750768 
L 205.072166 152.718643 
L 206.248844 152.024214 
L 207.425523 151.675082 
L 208.602202 151.675082 
L 209.778881 152.024214 
L 210.955559 152.718643 
L 212.132238 153.750768 
L 213.308917 155.109362 
L 214.485596 156.779773 
L 215.662274 158.74419 
L 216.838953 160.981957 
L 218.015632 163.469934 
L 219.192311 166.182897 
L 220.368989 169.093959 
L 221.545668 172.175015 
L 222.722347 175.397189 
L 223.899026 178.731278 
L 225.075704 182.148185 
L 226.252383 185.619332 
L 227.429062 189.11704 
L 228.605741 192.614879 
L 229.782419 196.087966 
L 230.959098 199.513235 
L 232.135777 202.869637 
L 233.312456 206.138311 
L 234.489134 209.302691 
L 235.665813 212.348571 
L 236.842492 215.264119 
L 238.019171 218.039857 
L 239.195849 220.66859 
L 240.372528 223.14531 
L 241.549207 225.467065 
L 242.725886 227.632809 
L 243.902564 229.643226 
L 245.079243 231.50055 
L 246.255922 233.208372 
L 247.432601 234.771441 
L 248.609279 236.195474 
L 249.785958 237.486965 
L 250.962637 238.653006 
L 252.139316 239.701113 
L 253.315994 240.639075 
L 254.492673 241.474813 
L 255.669352 242.21625 
L 256.846031 242.871206 
L 258.022709 243.447304 
L 259.199388 243.951896 
L 260.376067 244.391999 
L 261.552746 244.774251 
L 262.729424 245.104875 
L 263.906103 245.389663 
L 265.082782 245.633958 
L 266.259461 245.84266 
" clip-path="url(#p70b8972f14)" style="fill: none; stroke: #2ca02c; stroke-width: 1.5; stroke-linecap: square"/>
   </g>
   <g id="patch_33">
    <path d="M 36.457115 246.90101 
L 36.457115 16.638052 
" style="fill: none; stroke: #000000; stroke-width: 0.8; stroke-linejoin: miter; stroke-linecap: square"/>
   </g>
   <g id="patch_34">
    <path d="M 277.20243 246.90101 
L 277.20243 16.638052 
" style="fill: none; stroke: #000000; stroke-width: 0.8; stroke-linejoin: miter; stroke-linecap: square"/>
   </g>
   <g id="patch_35">
    <path d="M 36.457115 246.90101 
L 277.20243 246.90101 
" style="fill: none; stroke: #000000; stroke-width: 0.8; stroke-linejoin: miter; stroke-linecap: square"/>
   </g>
   <g id="patch_36">
    <path d="M 36.457115 16.638052 
L 277.20243 16.638052 
" style="fill: none; stroke: #000000; stroke-width: 0.8; stroke-linejoin: miter; stroke-linecap: square"/>
   </g>
   <g id="legend_1">
    <g id="patch_37">
     <path d="M 160.73993 68.936802 
L 267.40243 68.936802 
Q 270.20243 68.936802 270.20243 66.136802 
L 270.20243 26.438053 
Q 270.20243 23.638053 267.40243 23.638053 
L 160.73993 23.638053 
Q 157.93993 23.638053 157.93993 26.438053 
L 157.93993 66.136802 
Q 157.93993 68.936802 160.73993 68.936802 
z
" style="fill: #ffffff; opacity: 0.8; stroke: #cccccc; stroke-linejoin: miter"/>
    </g>
    <g id="line2d_12">
     <path d="M 163.53993 34.975865 
L 177.53993 34.975865 
L 191.53993 34.975865 
" style="fill: none; stroke: #2ca02c; stroke-width: 1.5; stroke-linecap: square"/>
    </g>
    <g id="text_15">
     <!-- Prior -->
     <g transform="translate(202.73993 39.875865) scale(0.14 -0.14)">
      <defs>
       <path id="DejaVuSans-72" d="M 2631 2963 
Q 2534 3019 2420 3045 
Q 2306 3072 2169 3072 
Q 1681 3072 1420 2755 
Q 1159 2438 1159 1844 
L 1159 0 
L 581 0 
L 581 3500 
L 1159 3500 
L 1159 2956 
Q 1341 3275 1631 3429 
Q 1922 3584 2338 3584 
Q 2397 3584 2469 3576 
Q 2541 3569 2628 3553 
L 2631 2963 
z
" transform="scale(0.015625)"/>
       <path id="DejaVuSans-69" d="M 603 3500 
L 1178 3500 
L 1178 0 
L 603 0 
L 603 3500 
z
M 603 4863 
L 1178 4863 
L 1178 4134 
L 603 4134 
L 603 4863 
z
" transform="scale(0.015625)"/>
       <path id="DejaVuSans-6f" d="M 1959 3097 
Q 1497 3097 1228 2736 
Q 959 2375 959 1747 
Q 959 1119 1226 758 
Q 1494 397 1959 397 
Q 2419 397 2687 759 
Q 2956 1122 2956 1747 
Q 2956 2369 2687 2733 
Q 2419 3097 1959 3097 
z
M 1959 3584 
Q 2709 3584 3137 3096 
Q 3566 2609 3566 1747 
Q 3566 888 3137 398 
Q 2709 -91 1959 -91 
Q 1206 -91 779 398 
Q 353 888 353 1747 
Q 353 2609 779 3096 
Q 1206 3584 1959 3584 
z
" transform="scale(0.015625)"/>
      </defs>
      <use xlink:href="#DejaVuSans-50"/>
      <use xlink:href="#DejaVuSans-72" x="58.552734"/>
      <use xlink:href="#DejaVuSans-69" x="99.666016"/>
      <use xlink:href="#DejaVuSans-6f" x="127.449219"/>
      <use xlink:href="#DejaVuSans-72" x="188.630859"/>
     </g>
    </g>
    <g id="patch_38">
     <path d="M 163.53993 60.42524 
L 191.53993 60.42524 
L 191.53993 50.62524 
L 163.53993 50.62524 
z
" style="fill: #1f77b4"/>
    </g>
    <g id="text_16">
     <!-- Posterior -->
     <g transform="translate(202.73993 60.42524) scale(0.14 -0.14)">
      <defs>
       <path id="DejaVuSans-73" d="M 2834 3397 
L 2834 2853 
Q 2591 2978 2328 3040 
Q 2066 3103 1784 3103 
Q 1356 3103 1142 2972 
Q 928 2841 928 2578 
Q 928 2378 1081 2264 
Q 1234 2150 1697 2047 
L 1894 2003 
Q 2506 1872 2764 1633 
Q 3022 1394 3022 966 
Q 3022 478 2636 193 
Q 2250 -91 1575 -91 
Q 1294 -91 989 -36 
Q 684 19 347 128 
L 347 722 
Q 666 556 975 473 
Q 1284 391 1588 391 
Q 1994 391 2212 530 
Q 2431 669 2431 922 
Q 2431 1156 2273 1281 
Q 2116 1406 1581 1522 
L 1381 1569 
Q 847 1681 609 1914 
Q 372 2147 372 2553 
Q 372 3047 722 3315 
Q 1072 3584 1716 3584 
Q 2034 3584 2315 3537 
Q 2597 3491 2834 3397 
z
" transform="scale(0.015625)"/>
       <path id="DejaVuSans-74" d="M 1172 4494 
L 1172 3500 
L 2356 3500 
L 2356 3053 
L 1172 3053 
L 1172 1153 
Q 1172 725 1289 603 
Q 1406 481 1766 481 
L 2356 481 
L 2356 0 
L 1766 0 
Q 1100 0 847 248 
Q 594 497 594 1153 
L 594 3053 
L 172 3053 
L 172 3500 
L 594 3500 
L 594 4494 
L 1172 4494 
z
" transform="scale(0.015625)"/>
      </defs>
      <use xlink:href="#DejaVuSans-50"/>
      <use xlink:href="#DejaVuSans-6f" x="56.677734"/>
      <use xlink:href="#DejaVuSans-73" x="117.859375"/>
      <use xlink:href="#DejaVuSans-74" x="169.958984"/>
      <use xlink:href="#DejaVuSans-65" x="209.167969"/>
      <use xlink:href="#DejaVuSans-72" x="270.691406"/>
      <use xlink:href="#DejaVuSans-69" x="311.804688"/>
      <use xlink:href="#DejaVuSans-6f" x="339.587891"/>
      <use xlink:href="#DejaVuSans-72" x="400.769531"/>
     </g>
    </g>
   </g>
  </g>
  <g id="axes_2">
   <g id="patch_39">
    <path d="M 336.866716 246.90101 
L 577.61203 246.90101 
L 577.61203 16.638052 
L 336.866716 16.638052 
z
" style="fill: #ffffff"/>
   </g>
   <g id="patch_40">
    <path d="M 347.809685 246.90101 
L 354.397425 246.90101 
L 354.397425 245.684939 
L 347.809685 245.684939 
z
" clip-path="url(#p80fe1eba44)" style="fill: #1f77b4"/>
   </g>
   <g id="patch_41">
    <path d="M 355.129396 246.90101 
L 361.717137 246.90101 
L 361.717137 244.063512 
L 355.129396 244.063512 
z
" clip-path="url(#p80fe1eba44)" style="fill: #1f77b4"/>
   </g>
   <g id="patch_42">
    <path d="M 362.449108 246.90101 
L 369.036848 246.90101 
L 369.036848 244.063512 
L 362.449108 244.063512 
z
" clip-path="url(#p80fe1eba44)" style="fill: #1f77b4"/>
   </g>
   <g id="patch_43">
    <path d="M 369.76882 246.90101 
L 376.35656 246.90101 
L 376.35656 237.172446 
L 369.76882 237.172446 
z
" clip-path="url(#p80fe1eba44)" style="fill: #1f77b4"/>
   </g>
   <g id="patch_44">
    <path d="M 377.088531 246.90101 
L 383.676272 246.90101 
L 383.676272 230.281379 
L 377.088531 230.281379 
z
" clip-path="url(#p80fe1eba44)" style="fill: #1f77b4"/>
   </g>
   <g id="patch_45">
    <path d="M 384.408243 246.90101 
L 390.995983 246.90101 
L 390.995983 224.201027 
L 384.408243 224.201027 
z
" clip-path="url(#p80fe1eba44)" style="fill: #1f77b4"/>
   </g>
   <g id="patch_46">
    <path d="M 391.727954 246.90101 
L 398.315695 246.90101 
L 398.315695 197.447475 
L 391.727954 197.447475 
z
" clip-path="url(#p80fe1eba44)" style="fill: #1f77b4"/>
   </g>
   <g id="patch_47">
    <path d="M 399.047666 246.90101 
L 405.635406 246.90101 
L 405.635406 190.151051 
L 399.047666 190.151051 
z
" clip-path="url(#p80fe1eba44)" style="fill: #1f77b4"/>
   </g>
   <g id="patch_48">
    <path d="M 406.367378 246.90101 
L 412.955118 246.90101 
L 412.955118 158.938574 
L 406.367378 158.938574 
z
" clip-path="url(#p80fe1eba44)" style="fill: #1f77b4"/>
   </g>
   <g id="patch_49">
    <path d="M 413.687089 246.90101 
L 420.27483 246.90101 
L 420.27483 128.53681 
L 413.687089 128.53681 
z
" clip-path="url(#p80fe1eba44)" style="fill: #1f77b4"/>
   </g>
   <g id="patch_50">
    <path d="M 421.006801 246.90101 
L 427.594541 246.90101 
L 427.594541 102.188615 
L 421.006801 102.188615 
z
" clip-path="url(#p80fe1eba44)" style="fill: #1f77b4"/>
   </g>
   <g id="patch_51">
    <path d="M 428.326512 246.90101 
L 434.914253 246.90101 
L 434.914253 64.895785 
L 428.326512 64.895785 
z
" clip-path="url(#p80fe1eba44)" style="fill: #1f77b4"/>
   </g>
   <g id="patch_52">
    <path d="M 435.646224 246.90101 
L 442.233964 246.90101 
L 442.233964 44.627943 
L 435.646224 44.627943 
z
" clip-path="url(#p80fe1eba44)" style="fill: #1f77b4"/>
   </g>
   <g id="patch_53">
    <path d="M 442.965936 246.90101 
L 449.553676 246.90101 
L 449.553676 27.602955 
L 442.965936 27.602955 
z
" clip-path="url(#p80fe1eba44)" style="fill: #1f77b4"/>
   </g>
   <g id="patch_54">
    <path d="M 450.285647 246.90101 
L 456.873388 246.90101 
L 456.873388 51.924366 
L 450.285647 51.924366 
z
" clip-path="url(#p80fe1eba44)" style="fill: #1f77b4"/>
   </g>
   <g id="patch_55">
    <path d="M 457.605359 246.90101 
L 464.193099 246.90101 
L 464.193099 70.570781 
L 457.605359 70.570781 
z
" clip-path="url(#p80fe1eba44)" style="fill: #1f77b4"/>
   </g>
   <g id="patch_56">
    <path d="M 464.92507 246.90101 
L 471.512811 246.90101 
L 471.512811 96.918976 
L 464.92507 96.918976 
z
" clip-path="url(#p80fe1eba44)" style="fill: #1f77b4"/>
   </g>
   <g id="patch_57">
    <path d="M 472.244782 246.90101 
L 478.832522 246.90101 
L 478.832522 116.376105 
L 472.244782 116.376105 
z
" clip-path="url(#p80fe1eba44)" style="fill: #1f77b4"/>
   </g>
   <g id="patch_58">
    <path d="M 479.564494 246.90101 
L 486.152234 246.90101 
L 486.152234 154.074292 
L 479.564494 154.074292 
z
" clip-path="url(#p80fe1eba44)" style="fill: #1f77b4"/>
   </g>
   <g id="patch_59">
    <path d="M 486.884205 246.90101 
L 493.471946 246.90101 
L 493.471946 181.233201 
L 486.884205 181.233201 
z
" clip-path="url(#p80fe1eba44)" style="fill: #1f77b4"/>
   </g>
   <g id="patch_60">
    <path d="M 494.203917 246.90101 
L 500.791657 246.90101 
L 500.791657 210.418894 
L 494.203917 210.418894 
z
" clip-path="url(#p80fe1eba44)" style="fill: #1f77b4"/>
   </g>
   <g id="patch_61">
    <path d="M 501.523628 246.90101 
L 508.111369 246.90101 
L 508.111369 218.120674 
L 501.523628 218.120674 
z
" clip-path="url(#p80fe1eba44)" style="fill: #1f77b4"/>
   </g>
   <g id="patch_62">
    <path d="M 508.84334 246.90101 
L 515.43108 246.90101 
L 515.43108 230.686736 
L 508.84334 230.686736 
z
" clip-path="url(#p80fe1eba44)" style="fill: #1f77b4"/>
   </g>
   <g id="patch_63">
    <path d="M 516.163052 246.90101 
L 522.750792 246.90101 
L 522.750792 238.793873 
L 516.163052 238.793873 
z
" clip-path="url(#p80fe1eba44)" style="fill: #1f77b4"/>
   </g>
   <g id="patch_64">
    <path d="M 523.482763 246.90101 
L 530.070504 246.90101 
L 530.070504 241.631371 
L 523.482763 241.631371 
z
" clip-path="url(#p80fe1eba44)" style="fill: #1f77b4"/>
   </g>
   <g id="patch_65">
    <path d="M 530.802475 246.90101 
L 537.390215 246.90101 
L 537.390215 243.658155 
L 530.802475 243.658155 
z
" clip-path="url(#p80fe1eba44)" style="fill: #1f77b4"/>
   </g>
   <g id="patch_66">
    <path d="M 538.122186 246.90101 
L 544.709927 246.90101 
L 544.709927 246.495653 
L 538.122186 246.495653 
z
" clip-path="url(#p80fe1eba44)" style="fill: #1f77b4"/>
   </g>
   <g id="patch_67">
    <path d="M 545.441898 246.90101 
L 552.029638 246.90101 
L 552.029638 246.090296 
L 545.441898 246.090296 
z
" clip-path="url(#p80fe1eba44)" style="fill: #1f77b4"/>
   </g>
   <g id="patch_68">
    <path d="M 552.76161 246.90101 
L 559.34935 246.90101 
L 559.34935 246.90101 
L 552.76161 246.90101 
z
" clip-path="url(#p80fe1eba44)" style="fill: #1f77b4"/>
   </g>
   <g id="patch_69">
    <path d="M 560.081321 246.90101 
L 566.669062 246.90101 
L 566.669062 246.495653 
L 560.081321 246.495653 
z
" clip-path="url(#p80fe1eba44)" style="fill: #1f77b4"/>
   </g>
   <g id="matplotlib.axis_3">
    <g id="xtick_6">
     <g id="line2d_13">
      <g>
       <use xlink:href="#m9d9a559844" x="338.175866" y="246.90101" style="stroke: #000000; stroke-width: 0.8"/>
      </g>
     </g>
     <g id="text_17">
      <!-- 8800 -->
      <g transform="translate(320.360866 264.538822) scale(0.14 -0.14)">
       <defs>
        <path id="DejaVuSans-38" d="M 2034 2216 
Q 1584 2216 1326 1975 
Q 1069 1734 1069 1313 
Q 1069 891 1326 650 
Q 1584 409 2034 409 
Q 2484 409 2743 651 
Q 3003 894 3003 1313 
Q 3003 1734 2745 1975 
Q 2488 2216 2034 2216 
z
M 1403 2484 
Q 997 2584 770 2862 
Q 544 3141 544 3541 
Q 544 4100 942 4425 
Q 1341 4750 2034 4750 
Q 2731 4750 3128 4425 
Q 3525 4100 3525 3541 
Q 3525 3141 3298 2862 
Q 3072 2584 2669 2484 
Q 3125 2378 3379 2068 
Q 3634 1759 3634 1313 
Q 3634 634 3220 271 
Q 2806 -91 2034 -91 
Q 1263 -91 848 271 
Q 434 634 434 1313 
Q 434 1759 690 2068 
Q 947 2378 1403 2484 
z
M 1172 3481 
Q 1172 3119 1398 2916 
Q 1625 2713 2034 2713 
Q 2441 2713 2670 2916 
Q 2900 3119 2900 3481 
Q 2900 3844 2670 4047 
Q 2441 4250 2034 4250 
Q 1625 4250 1398 4047 
Q 1172 3844 1172 3481 
z
" transform="scale(0.015625)"/>
       </defs>
       <use xlink:href="#DejaVuSans-38"/>
       <use xlink:href="#DejaVuSans-38" x="63.623047"/>
       <use xlink:href="#DejaVuSans-30" x="127.246094"/>
       <use xlink:href="#DejaVuSans-30" x="190.869141"/>
      </g>
     </g>
    </g>
    <g id="xtick_7">
     <g id="line2d_14">
      <g>
       <use xlink:href="#m9d9a559844" x="394.619661" y="246.90101" style="stroke: #000000; stroke-width: 0.8"/>
      </g>
     </g>
     <g id="text_18">
      <!-- 9000 -->
      <g transform="translate(376.804661 264.538822) scale(0.14 -0.14)">
       <defs>
        <path id="DejaVuSans-39" d="M 703 97 
L 703 672 
Q 941 559 1184 500 
Q 1428 441 1663 441 
Q 2288 441 2617 861 
Q 2947 1281 2994 2138 
Q 2813 1869 2534 1725 
Q 2256 1581 1919 1581 
Q 1219 1581 811 2004 
Q 403 2428 403 3163 
Q 403 3881 828 4315 
Q 1253 4750 1959 4750 
Q 2769 4750 3195 4129 
Q 3622 3509 3622 2328 
Q 3622 1225 3098 567 
Q 2575 -91 1691 -91 
Q 1453 -91 1209 -44 
Q 966 3 703 97 
z
M 1959 2075 
Q 2384 2075 2632 2365 
Q 2881 2656 2881 3163 
Q 2881 3666 2632 3958 
Q 2384 4250 1959 4250 
Q 1534 4250 1286 3958 
Q 1038 3666 1038 3163 
Q 1038 2656 1286 2365 
Q 1534 2075 1959 2075 
z
" transform="scale(0.015625)"/>
       </defs>
       <use xlink:href="#DejaVuSans-39"/>
       <use xlink:href="#DejaVuSans-30" x="63.623047"/>
       <use xlink:href="#DejaVuSans-30" x="127.246094"/>
       <use xlink:href="#DejaVuSans-30" x="190.869141"/>
      </g>
     </g>
    </g>
    <g id="xtick_8">
     <g id="line2d_15">
      <g>
       <use xlink:href="#m9d9a559844" x="451.063457" y="246.90101" style="stroke: #000000; stroke-width: 0.8"/>
      </g>
     </g>
     <g id="text_19">
      <!-- 9200 -->
      <g transform="translate(433.248457 264.538822) scale(0.14 -0.14)">
       <use xlink:href="#DejaVuSans-39"/>
       <use xlink:href="#DejaVuSans-32" x="63.623047"/>
       <use xlink:href="#DejaVuSans-30" x="127.246094"/>
       <use xlink:href="#DejaVuSans-30" x="190.869141"/>
      </g>
     </g>
    </g>
    <g id="xtick_9">
     <g id="line2d_16">
      <g>
       <use xlink:href="#m9d9a559844" x="507.507253" y="246.90101" style="stroke: #000000; stroke-width: 0.8"/>
      </g>
     </g>
     <g id="text_20">
      <!-- 9400 -->
      <g transform="translate(489.692253 264.538822) scale(0.14 -0.14)">
       <use xlink:href="#DejaVuSans-39"/>
       <use xlink:href="#DejaVuSans-34" x="63.623047"/>
       <use xlink:href="#DejaVuSans-30" x="127.246094"/>
       <use xlink:href="#DejaVuSans-30" x="190.869141"/>
      </g>
     </g>
    </g>
    <g id="xtick_10">
     <g id="line2d_17">
      <g>
       <use xlink:href="#m9d9a559844" x="563.951048" y="246.90101" style="stroke: #000000; stroke-width: 0.8"/>
      </g>
     </g>
     <g id="text_21">
      <!-- 9600 -->
      <g transform="translate(546.136048 264.538822) scale(0.14 -0.14)">
       <defs>
        <path id="DejaVuSans-36" d="M 2113 2584 
Q 1688 2584 1439 2293 
Q 1191 2003 1191 1497 
Q 1191 994 1439 701 
Q 1688 409 2113 409 
Q 2538 409 2786 701 
Q 3034 994 3034 1497 
Q 3034 2003 2786 2293 
Q 2538 2584 2113 2584 
z
M 3366 4563 
L 3366 3988 
Q 3128 4100 2886 4159 
Q 2644 4219 2406 4219 
Q 1781 4219 1451 3797 
Q 1122 3375 1075 2522 
Q 1259 2794 1537 2939 
Q 1816 3084 2150 3084 
Q 2853 3084 3261 2657 
Q 3669 2231 3669 1497 
Q 3669 778 3244 343 
Q 2819 -91 2113 -91 
Q 1303 -91 875 529 
Q 447 1150 447 2328 
Q 447 3434 972 4092 
Q 1497 4750 2381 4750 
Q 2619 4750 2861 4703 
Q 3103 4656 3366 4563 
z
" transform="scale(0.015625)"/>
       </defs>
       <use xlink:href="#DejaVuSans-39"/>
       <use xlink:href="#DejaVuSans-36" x="63.623047"/>
       <use xlink:href="#DejaVuSans-30" x="127.246094"/>
       <use xlink:href="#DejaVuSans-30" x="190.869141"/>
      </g>
     </g>
    </g>
    <g id="text_22">
     <!-- $E_2$ [MPa] -->
     <g transform="translate(427.209373 282.088197) scale(0.14 -0.14)">
      <use xlink:href="#DejaVuSans-Oblique-45" transform="translate(0 0.015625)"/>
      <use xlink:href="#DejaVuSans-32" transform="translate(63.183594 -16.390625) scale(0.7)"/>
      <use xlink:href="#DejaVuSans-20" transform="translate(110.454102 0.015625)"/>
      <use xlink:href="#DejaVuSans-5b" transform="translate(142.241211 0.015625)"/>
      <use xlink:href="#DejaVuSans-4d" transform="translate(181.254883 0.015625)"/>
      <use xlink:href="#DejaVuSans-50" transform="translate(267.53418 0.015625)"/>
      <use xlink:href="#DejaVuSans-61" transform="translate(327.836914 0.015625)"/>
      <use xlink:href="#DejaVuSans-5d" transform="translate(389.116211 0.015625)"/>
     </g>
    </g>
   </g>
   <g id="matplotlib.axis_4">
    <g id="ytick_6">
     <g id="line2d_18">
      <g>
       <use xlink:href="#m8b7f692b00" x="336.866716" y="246.90101" style="stroke: #000000; stroke-width: 0.8"/>
      </g>
     </g>
     <g id="text_23">
      <!-- 0.000 -->
      <g transform="translate(289.787341 252.219916) scale(0.14 -0.14)">
       <use xlink:href="#DejaVuSans-30"/>
       <use xlink:href="#DejaVuSans-2e" x="63.623047"/>
       <use xlink:href="#DejaVuSans-30" x="95.410156"/>
       <use xlink:href="#DejaVuSans-30" x="159.033203"/>
       <use xlink:href="#DejaVuSans-30" x="222.65625"/>
      </g>
     </g>
    </g>
    <g id="ytick_7">
     <g id="line2d_19">
      <g>
       <use xlink:href="#m8b7f692b00" x="336.866716" y="194.333758" style="stroke: #000000; stroke-width: 0.8"/>
      </g>
     </g>
     <g id="text_24">
      <!-- 0.001 -->
      <g transform="translate(289.787341 199.652664) scale(0.14 -0.14)">
       <use xlink:href="#DejaVuSans-30"/>
       <use xlink:href="#DejaVuSans-2e" x="63.623047"/>
       <use xlink:href="#DejaVuSans-30" x="95.410156"/>
       <use xlink:href="#DejaVuSans-30" x="159.033203"/>
       <use xlink:href="#DejaVuSans-31" x="222.65625"/>
      </g>
     </g>
    </g>
    <g id="ytick_8">
     <g id="line2d_20">
      <g>
       <use xlink:href="#m8b7f692b00" x="336.866716" y="141.766506" style="stroke: #000000; stroke-width: 0.8"/>
      </g>
     </g>
     <g id="text_25">
      <!-- 0.002 -->
      <g transform="translate(289.787341 147.085413) scale(0.14 -0.14)">
       <use xlink:href="#DejaVuSans-30"/>
       <use xlink:href="#DejaVuSans-2e" x="63.623047"/>
       <use xlink:href="#DejaVuSans-30" x="95.410156"/>
       <use xlink:href="#DejaVuSans-30" x="159.033203"/>
       <use xlink:href="#DejaVuSans-32" x="222.65625"/>
      </g>
     </g>
    </g>
    <g id="ytick_9">
     <g id="line2d_21">
      <g>
       <use xlink:href="#m8b7f692b00" x="336.866716" y="89.199254" style="stroke: #000000; stroke-width: 0.8"/>
      </g>
     </g>
     <g id="text_26">
      <!-- 0.003 -->
      <g transform="translate(289.787341 94.518161) scale(0.14 -0.14)">
       <use xlink:href="#DejaVuSans-30"/>
       <use xlink:href="#DejaVuSans-2e" x="63.623047"/>
       <use xlink:href="#DejaVuSans-30" x="95.410156"/>
       <use xlink:href="#DejaVuSans-30" x="159.033203"/>
       <use xlink:href="#DejaVuSans-33" x="222.65625"/>
      </g>
     </g>
    </g>
    <g id="ytick_10">
     <g id="line2d_22">
      <g>
       <use xlink:href="#m8b7f692b00" x="336.866716" y="36.632003" style="stroke: #000000; stroke-width: 0.8"/>
      </g>
     </g>
     <g id="text_27">
      <!-- 0.004 -->
      <g transform="translate(289.787341 41.950909) scale(0.14 -0.14)">
       <use xlink:href="#DejaVuSans-30"/>
       <use xlink:href="#DejaVuSans-2e" x="63.623047"/>
       <use xlink:href="#DejaVuSans-30" x="95.410156"/>
       <use xlink:href="#DejaVuSans-30" x="159.033203"/>
       <use xlink:href="#DejaVuSans-34" x="222.65625"/>
      </g>
     </g>
    </g>
   </g>
   <g id="line2d_23">
    <path d="M 363.575574 244.571309 
L 365.285992 244.111903 
L 366.99641 243.574146 
L 368.706828 242.947256 
L 370.417246 242.219466 
L 372.127664 241.378032 
L 373.838082 240.409253 
L 375.5485 239.298516 
L 377.258918 238.030376 
L 378.969336 236.58865 
L 380.679754 234.956557 
L 382.390172 233.116884 
L 384.10059 231.052187 
L 385.811008 228.745034 
L 387.521426 226.17828 
L 389.231844 223.335376 
L 390.942263 220.200713 
L 392.652681 216.759996 
L 394.363099 213.000643 
L 396.073517 208.912195 
L 397.783935 204.48675 
L 399.494353 199.719392 
L 401.204771 194.608612 
L 402.915189 189.156715 
L 404.625607 183.370198 
L 406.336025 177.260086 
L 408.046443 170.842215 
L 409.756861 164.137453 
L 411.467279 157.17184 
L 413.177697 149.976648 
L 414.888115 142.588344 
L 416.598533 135.048449 
L 418.308951 127.40329 
L 420.019369 119.70365 
L 421.729787 112.004295 
L 423.440206 104.363409 
L 425.150624 96.841919 
L 426.861042 89.502734 
L 428.57146 82.409901 
L 430.281878 75.627705 
L 431.992296 69.219709 
L 433.702714 63.247781 
L 435.413132 57.771104 
L 437.12355 52.845205 
L 438.833968 48.521018 
L 440.544386 44.844014 
L 442.254804 41.853401 
L 443.965222 39.581428 
L 445.67564 38.052811 
L 447.386058 37.284282 
L 449.096476 37.284282 
L 450.806894 38.052811 
L 452.517312 39.581428 
L 454.22773 41.853401 
L 455.938148 44.844014 
L 457.648567 48.521018 
L 459.358985 52.845205 
L 461.069403 57.771104 
L 462.779821 63.247781 
L 464.490239 69.219709 
L 466.200657 75.627705 
L 467.911075 82.409901 
L 469.621493 89.502734 
L 471.331911 96.841919 
L 473.042329 104.363409 
L 474.752747 112.004295 
L 476.463165 119.70365 
L 478.173583 127.40329 
L 479.884001 135.048449 
L 481.594419 142.588344 
L 483.304837 149.976648 
L 485.015255 157.17184 
L 486.725673 164.137453 
L 488.436091 170.842215 
L 490.146509 177.260086 
L 491.856928 183.370198 
L 493.567346 189.156715 
L 495.277764 194.608612 
L 496.988182 199.719392 
L 498.6986 204.48675 
L 500.409018 208.912195 
L 502.119436 213.000643 
L 503.829854 216.759996 
L 505.540272 220.200713 
L 507.25069 223.335376 
L 508.961108 226.17828 
L 510.671526 228.745034 
L 512.381944 231.052187 
L 514.092362 233.116884 
L 515.80278 234.956557 
L 517.513198 236.58865 
L 519.223616 238.030376 
L 520.934034 239.298516 
L 522.644452 240.409253 
L 524.354871 241.378032 
L 526.065289 242.219466 
L 527.775707 242.947256 
L 529.486125 243.574146 
L 531.196543 244.111903 
L 532.906961 244.571309 
" clip-path="url(#p80fe1eba44)" style="fill: none; stroke: #2ca02c; stroke-width: 1.5; stroke-linecap: square"/>
   </g>
   <g id="patch_70">
    <path d="M 336.866716 246.90101 
L 336.866716 16.638052 
" style="fill: none; stroke: #000000; stroke-width: 0.8; stroke-linejoin: miter; stroke-linecap: square"/>
   </g>
   <g id="patch_71">
    <path d="M 577.61203 246.90101 
L 577.61203 16.638052 
" style="fill: none; stroke: #000000; stroke-width: 0.8; stroke-linejoin: miter; stroke-linecap: square"/>
   </g>
   <g id="patch_72">
    <path d="M 336.866716 246.90101 
L 577.61203 246.90101 
" style="fill: none; stroke: #000000; stroke-width: 0.8; stroke-linejoin: miter; stroke-linecap: square"/>
   </g>
   <g id="patch_73">
    <path d="M 336.866716 16.638052 
L 577.61203 16.638052 
" style="fill: none; stroke: #000000; stroke-width: 0.8; stroke-linejoin: miter; stroke-linecap: square"/>
   </g>
  </g>
  <g id="axes_3">
   <g id="patch_74">
    <path d="M 612.581442 246.90101 
L 853.326756 246.90101 
L 853.326756 16.638052 
L 612.581442 16.638052 
z
" style="fill: #ffffff"/>
   </g>
   <g id="patch_75">
    <path d="M 623.524411 246.90101 
L 630.112151 246.90101 
L 630.112151 246.022533 
L 623.524411 246.022533 
z
" clip-path="url(#pa9d66cb355)" style="fill: #1f77b4"/>
   </g>
   <g id="patch_76">
    <path d="M 630.844122 246.90101 
L 637.431863 246.90101 
L 637.431863 244.26558 
L 630.844122 244.26558 
z
" clip-path="url(#pa9d66cb355)" style="fill: #1f77b4"/>
   </g>
   <g id="patch_77">
    <path d="M 638.163834 246.90101 
L 644.751574 246.90101 
L 644.751574 243.387103 
L 638.163834 243.387103 
z
" clip-path="url(#pa9d66cb355)" style="fill: #1f77b4"/>
   </g>
   <g id="patch_78">
    <path d="M 645.483545 246.90101 
L 652.071286 246.90101 
L 652.071286 238.555481 
L 645.483545 238.555481 
z
" clip-path="url(#pa9d66cb355)" style="fill: #1f77b4"/>
   </g>
   <g id="patch_79">
    <path d="M 652.803257 246.90101 
L 659.390997 246.90101 
L 659.390997 237.677004 
L 652.803257 237.677004 
z
" clip-path="url(#pa9d66cb355)" style="fill: #1f77b4"/>
   </g>
   <g id="patch_80">
    <path d="M 660.122969 246.90101 
L 666.710709 246.90101 
L 666.710709 227.574521 
L 660.122969 227.574521 
z
" clip-path="url(#pa9d66cb355)" style="fill: #1f77b4"/>
   </g>
   <g id="patch_81">
    <path d="M 667.44268 246.90101 
L 674.030421 246.90101 
L 674.030421 211.76194 
L 667.44268 211.76194 
z
" clip-path="url(#pa9d66cb355)" style="fill: #1f77b4"/>
   </g>
   <g id="patch_82">
    <path d="M 674.762392 246.90101 
L 681.350132 246.90101 
L 681.350132 201.220219 
L 674.762392 201.220219 
z
" clip-path="url(#pa9d66cb355)" style="fill: #1f77b4"/>
   </g>
   <g id="patch_83">
    <path d="M 682.082103 246.90101 
L 688.669844 246.90101 
L 688.669844 188.043067 
L 682.082103 188.043067 
z
" clip-path="url(#pa9d66cb355)" style="fill: #1f77b4"/>
   </g>
   <g id="patch_84">
    <path d="M 689.401815 246.90101 
L 695.989555 246.90101 
L 695.989555 170.473532 
L 689.401815 170.473532 
z
" clip-path="url(#pa9d66cb355)" style="fill: #1f77b4"/>
   </g>
   <g id="patch_85">
    <path d="M 696.721527 246.90101 
L 703.309267 246.90101 
L 703.309267 119.961119 
L 696.721527 119.961119 
z
" clip-path="url(#pa9d66cb355)" style="fill: #1f77b4"/>
   </g>
   <g id="patch_86">
    <path d="M 704.041238 246.90101 
L 710.628979 246.90101 
L 710.628979 110.737113 
L 704.041238 110.737113 
z
" clip-path="url(#pa9d66cb355)" style="fill: #1f77b4"/>
   </g>
   <g id="patch_87">
    <path d="M 711.36095 246.90101 
L 717.94869 246.90101 
L 717.94869 69.887944 
L 711.36095 69.887944 
z
" clip-path="url(#pa9d66cb355)" style="fill: #1f77b4"/>
   </g>
   <g id="patch_88">
    <path d="M 718.680661 246.90101 
L 725.268402 246.90101 
L 725.268402 68.570229 
L 718.680661 68.570229 
z
" clip-path="url(#pa9d66cb355)" style="fill: #1f77b4"/>
   </g>
   <g id="patch_89">
    <path d="M 726.000373 246.90101 
L 732.588113 246.90101 
L 732.588113 50.561455 
L 726.000373 50.561455 
z
" clip-path="url(#pa9d66cb355)" style="fill: #1f77b4"/>
   </g>
   <g id="patch_90">
    <path d="M 733.320085 246.90101 
L 739.907825 246.90101 
L 739.907825 56.271554 
L 733.320085 56.271554 
z
" clip-path="url(#pa9d66cb355)" style="fill: #1f77b4"/>
   </g>
   <g id="patch_91">
    <path d="M 740.639796 246.90101 
L 747.227537 246.90101 
L 747.227537 79.990427 
L 740.639796 79.990427 
z
" clip-path="url(#pa9d66cb355)" style="fill: #1f77b4"/>
   </g>
   <g id="patch_92">
    <path d="M 747.959508 246.90101 
L 754.547248 246.90101 
L 754.547248 86.139764 
L 747.959508 86.139764 
z
" clip-path="url(#pa9d66cb355)" style="fill: #1f77b4"/>
   </g>
   <g id="patch_93">
    <path d="M 755.279219 246.90101 
L 761.86696 246.90101 
L 761.86696 94.046055 
L 755.279219 94.046055 
z
" clip-path="url(#pa9d66cb355)" style="fill: #1f77b4"/>
   </g>
   <g id="patch_94">
    <path d="M 762.598931 246.90101 
L 769.186671 246.90101 
L 769.186671 111.176352 
L 762.598931 111.176352 
z
" clip-path="url(#pa9d66cb355)" style="fill: #1f77b4"/>
   </g>
   <g id="patch_95">
    <path d="M 769.918643 246.90101 
L 776.506383 246.90101 
L 776.506383 142.362276 
L 769.918643 142.362276 
z
" clip-path="url(#pa9d66cb355)" style="fill: #1f77b4"/>
   </g>
   <g id="patch_96">
    <path d="M 777.238354 246.90101 
L 783.826095 246.90101 
L 783.826095 177.940585 
L 777.238354 177.940585 
z
" clip-path="url(#pa9d66cb355)" style="fill: #1f77b4"/>
   </g>
   <g id="patch_97">
    <path d="M 784.558066 246.90101 
L 791.145806 246.90101 
L 791.145806 195.070882 
L 784.558066 195.070882 
z
" clip-path="url(#pa9d66cb355)" style="fill: #1f77b4"/>
   </g>
   <g id="patch_98">
    <path d="M 791.877777 246.90101 
L 798.465518 246.90101 
L 798.465518 207.369556 
L 791.877777 207.369556 
z
" clip-path="url(#pa9d66cb355)" style="fill: #1f77b4"/>
   </g>
   <g id="patch_99">
    <path d="M 799.197489 246.90101 
L 805.785229 246.90101 
L 805.785229 227.574521 
L 799.197489 227.574521 
z
" clip-path="url(#pa9d66cb355)" style="fill: #1f77b4"/>
   </g>
   <g id="patch_100">
    <path d="M 806.517201 246.90101 
L 813.104941 246.90101 
L 813.104941 233.723859 
L 806.517201 233.723859 
z
" clip-path="url(#pa9d66cb355)" style="fill: #1f77b4"/>
   </g>
   <g id="patch_101">
    <path d="M 813.836912 246.90101 
L 820.424653 246.90101 
L 820.424653 239.873196 
L 813.836912 239.873196 
z
" clip-path="url(#pa9d66cb355)" style="fill: #1f77b4"/>
   </g>
   <g id="patch_102">
    <path d="M 821.156624 246.90101 
L 827.744364 246.90101 
L 827.744364 242.069388 
L 821.156624 242.069388 
z
" clip-path="url(#pa9d66cb355)" style="fill: #1f77b4"/>
   </g>
   <g id="patch_103">
    <path d="M 828.476335 246.90101 
L 835.064076 246.90101 
L 835.064076 244.704818 
L 828.476335 244.704818 
z
" clip-path="url(#pa9d66cb355)" style="fill: #1f77b4"/>
   </g>
   <g id="patch_104">
    <path d="M 835.796047 246.90101 
L 842.383787 246.90101 
L 842.383787 243.826341 
L 835.796047 243.826341 
z
" clip-path="url(#pa9d66cb355)" style="fill: #1f77b4"/>
   </g>
   <g id="matplotlib.axis_5">
    <g id="xtick_11">
     <g id="line2d_24">
      <g>
       <use xlink:href="#m9d9a559844" x="614.422243" y="246.90101" style="stroke: #000000; stroke-width: 0.8"/>
      </g>
     </g>
     <g id="text_28">
      <!-- 0.30 -->
      <g transform="translate(598.836306 264.538822) scale(0.14 -0.14)">
       <use xlink:href="#DejaVuSans-30"/>
       <use xlink:href="#DejaVuSans-2e" x="63.623047"/>
       <use xlink:href="#DejaVuSans-33" x="95.410156"/>
       <use xlink:href="#DejaVuSans-30" x="159.033203"/>
      </g>
     </g>
    </g>
    <g id="xtick_12">
     <g id="line2d_25">
      <g>
       <use xlink:href="#m9d9a559844" x="672.883767" y="246.90101" style="stroke: #000000; stroke-width: 0.8"/>
      </g>
     </g>
     <g id="text_29">
      <!-- 0.32 -->
      <g transform="translate(657.29783 264.538822) scale(0.14 -0.14)">
       <use xlink:href="#DejaVuSans-30"/>
       <use xlink:href="#DejaVuSans-2e" x="63.623047"/>
       <use xlink:href="#DejaVuSans-33" x="95.410156"/>
       <use xlink:href="#DejaVuSans-32" x="159.033203"/>
      </g>
     </g>
    </g>
    <g id="xtick_13">
     <g id="line2d_26">
      <g>
       <use xlink:href="#m9d9a559844" x="731.345292" y="246.90101" style="stroke: #000000; stroke-width: 0.8"/>
      </g>
     </g>
     <g id="text_30">
      <!-- 0.34 -->
      <g transform="translate(715.759354 264.538822) scale(0.14 -0.14)">
       <use xlink:href="#DejaVuSans-30"/>
       <use xlink:href="#DejaVuSans-2e" x="63.623047"/>
       <use xlink:href="#DejaVuSans-33" x="95.410156"/>
       <use xlink:href="#DejaVuSans-34" x="159.033203"/>
      </g>
     </g>
    </g>
    <g id="xtick_14">
     <g id="line2d_27">
      <g>
       <use xlink:href="#m9d9a559844" x="789.806816" y="246.90101" style="stroke: #000000; stroke-width: 0.8"/>
      </g>
     </g>
     <g id="text_31">
      <!-- 0.36 -->
      <g transform="translate(774.220878 264.538822) scale(0.14 -0.14)">
       <use xlink:href="#DejaVuSans-30"/>
       <use xlink:href="#DejaVuSans-2e" x="63.623047"/>
       <use xlink:href="#DejaVuSans-33" x="95.410156"/>
       <use xlink:href="#DejaVuSans-36" x="159.033203"/>
      </g>
     </g>
    </g>
    <g id="xtick_15">
     <g id="line2d_28">
      <g>
       <use xlink:href="#m9d9a559844" x="848.26834" y="246.90101" style="stroke: #000000; stroke-width: 0.8"/>
      </g>
     </g>
     <g id="text_32">
      <!-- 0.38 -->
      <g transform="translate(832.682402 264.538822) scale(0.14 -0.14)">
       <use xlink:href="#DejaVuSans-30"/>
       <use xlink:href="#DejaVuSans-2e" x="63.623047"/>
       <use xlink:href="#DejaVuSans-33" x="95.410156"/>
       <use xlink:href="#DejaVuSans-38" x="159.033203"/>
      </g>
     </g>
    </g>
    <g id="text_33">
     <!-- $\nu_{12}$ [-] -->
     <g transform="translate(712.374099 282.088197) scale(0.14 -0.14)">
      <defs>
       <path id="DejaVuSans-Oblique-3bd" d="M 959 0 
L 572 3500 
L 1191 3500 
L 1522 563 
Q 1972 950 2391 1488 
Q 2706 1891 2788 2241 
Q 2825 2406 2809 2719 
Q 2794 3091 2544 3500 
L 3125 3500 
L 3125 3500 
Q 3288 3222 3353 2834 
Q 3416 2478 3369 2234 
Q 3250 1622 2719 1075 
Q 2025 363 1572 0 
L 959 0 
z
" transform="scale(0.015625)"/>
       <path id="DejaVuSans-2d" d="M 313 2009 
L 1997 2009 
L 1997 1497 
L 313 1497 
L 313 2009 
z
" transform="scale(0.015625)"/>
      </defs>
      <use xlink:href="#DejaVuSans-Oblique-3bd" transform="translate(0 0.015625)"/>
      <use xlink:href="#DejaVuSans-31" transform="translate(55.859375 -16.390625) scale(0.7)"/>
      <use xlink:href="#DejaVuSans-32" transform="translate(100.395508 -16.390625) scale(0.7)"/>
      <use xlink:href="#DejaVuSans-20" transform="translate(147.666016 0.015625)"/>
      <use xlink:href="#DejaVuSans-5b" transform="translate(179.453125 0.015625)"/>
      <use xlink:href="#DejaVuSans-2d" transform="translate(218.466797 0.015625)"/>
      <use xlink:href="#DejaVuSans-5d" transform="translate(254.550781 0.015625)"/>
     </g>
    </g>
   </g>
   <g id="matplotlib.axis_6">
    <g id="ytick_11">
     <g id="line2d_29">
      <g>
       <use xlink:href="#m8b7f692b00" x="612.581442" y="246.90101" style="stroke: #000000; stroke-width: 0.8"/>
      </g>
     </g>
     <g id="text_34">
      <!-- 0 -->
      <g transform="translate(596.673942 252.219916) scale(0.14 -0.14)">
       <use xlink:href="#DejaVuSans-30"/>
      </g>
     </g>
    </g>
    <g id="ytick_12">
     <g id="line2d_30">
      <g>
       <use xlink:href="#m8b7f692b00" x="612.581442" y="191.905895" style="stroke: #000000; stroke-width: 0.8"/>
      </g>
     </g>
     <g id="text_35">
      <!-- 10 -->
      <g transform="translate(587.766442 197.224801) scale(0.14 -0.14)">
       <use xlink:href="#DejaVuSans-31"/>
       <use xlink:href="#DejaVuSans-30" x="63.623047"/>
      </g>
     </g>
    </g>
    <g id="ytick_13">
     <g id="line2d_31">
      <g>
       <use xlink:href="#m8b7f692b00" x="612.581442" y="136.91078" style="stroke: #000000; stroke-width: 0.8"/>
      </g>
     </g>
     <g id="text_36">
      <!-- 20 -->
      <g transform="translate(587.766442 142.229686) scale(0.14 -0.14)">
       <use xlink:href="#DejaVuSans-32"/>
       <use xlink:href="#DejaVuSans-30" x="63.623047"/>
      </g>
     </g>
    </g>
    <g id="ytick_14">
     <g id="line2d_32">
      <g>
       <use xlink:href="#m8b7f692b00" x="612.581442" y="81.915665" style="stroke: #000000; stroke-width: 0.8"/>
      </g>
     </g>
     <g id="text_37">
      <!-- 30 -->
      <g transform="translate(587.766442 87.234571) scale(0.14 -0.14)">
       <use xlink:href="#DejaVuSans-33"/>
       <use xlink:href="#DejaVuSans-30" x="63.623047"/>
      </g>
     </g>
    </g>
    <g id="ytick_15">
     <g id="line2d_33">
      <g>
       <use xlink:href="#m8b7f692b00" x="612.581442" y="26.92055" style="stroke: #000000; stroke-width: 0.8"/>
      </g>
     </g>
     <g id="text_38">
      <!-- 40 -->
      <g transform="translate(587.766442 32.239456) scale(0.14 -0.14)">
       <use xlink:href="#DejaVuSans-34"/>
       <use xlink:href="#DejaVuSans-30" x="63.623047"/>
      </g>
     </g>
    </g>
   </g>
   <g id="line2d_34">
    <path d="M 643.653005 244.46371 
L 645.424567 243.983086 
L 647.196128 243.420492 
L 648.967689 242.764648 
L 650.739251 242.003245 
L 652.510812 241.122949 
L 654.282373 240.109425 
L 656.053935 238.947388 
L 657.825496 237.620678 
L 659.597057 236.112365 
L 661.368619 234.404892 
L 663.14018 232.480252 
L 664.911741 230.320195 
L 666.683303 227.906485 
L 668.454864 225.221183 
L 670.226425 222.246977 
L 671.997987 218.967537 
L 673.769548 215.367908 
L 675.541109 211.434926 
L 677.312671 207.157649 
L 679.084232 202.527812 
L 680.855793 197.540269 
L 682.627355 192.193443 
L 684.398916 186.489745 
L 686.170477 180.435973 
L 687.942039 174.043661 
L 689.7136 167.329375 
L 691.485161 160.314948 
L 693.256723 153.027622 
L 695.028284 145.500114 
L 696.799845 137.770575 
L 698.571407 129.882443 
L 700.342968 121.884187 
L 702.114529 113.828932 
L 703.886091 105.773976 
L 705.657652 97.780189 
L 707.429213 89.911313 
L 709.200775 82.233161 
L 710.972336 74.81274 
L 712.743897 67.717302 
L 714.515459 61.013347 
L 716.28702 54.765601 
L 718.058581 49.035979 
L 719.830143 43.882573 
L 721.601704 39.35867 
L 723.373266 35.511841 
L 725.144827 32.383103 
L 726.916388 30.006197 
L 728.68795 28.40698 
L 730.459511 27.602955 
L 732.231072 27.602955 
L 734.002634 28.40698 
L 735.774195 30.006197 
L 737.545756 32.383103 
L 739.317318 35.511841 
L 741.088879 39.35867 
L 742.86044 43.882573 
L 744.632002 49.035979 
L 746.403563 54.765601 
L 748.175124 61.013347 
L 749.946686 67.717302 
L 751.718247 74.81274 
L 753.489808 82.233161 
L 755.26137 89.911313 
L 757.032931 97.780189 
L 758.804492 105.773976 
L 760.576054 113.828932 
L 762.347615 121.884187 
L 764.119176 129.882443 
L 765.890738 137.770575 
L 767.662299 145.500114 
L 769.43386 153.027622 
L 771.205422 160.314948 
L 772.976983 167.329375 
L 774.748544 174.043661 
L 776.520106 180.435973 
L 778.291667 186.489745 
L 780.063228 192.193443 
L 781.83479 197.540269 
L 783.606351 202.527812 
L 785.377912 207.157649 
L 787.149474 211.434926 
L 788.921035 215.367908 
L 790.692596 218.967537 
L 792.464158 222.246977 
L 794.235719 225.221183 
L 796.00728 227.906485 
L 797.778842 230.320195 
L 799.550403 232.480252 
L 801.321964 234.404892 
L 803.093526 236.112365 
L 804.865087 237.620678 
L 806.636648 238.947388 
L 808.40821 240.109425 
L 810.179771 241.122949 
L 811.951332 242.003245 
L 813.722894 242.764648 
L 815.494455 243.420492 
L 817.266016 243.983086 
L 819.037578 244.46371 
" clip-path="url(#pa9d66cb355)" style="fill: none; stroke: #2ca02c; stroke-width: 1.5; stroke-linecap: square"/>
   </g>
   <g id="patch_105">
    <path d="M 612.581442 246.90101 
L 612.581442 16.638052 
" style="fill: none; stroke: #000000; stroke-width: 0.8; stroke-linejoin: miter; stroke-linecap: square"/>
   </g>
   <g id="patch_106">
    <path d="M 853.326756 246.90101 
L 853.326756 16.638052 
" style="fill: none; stroke: #000000; stroke-width: 0.8; stroke-linejoin: miter; stroke-linecap: square"/>
   </g>
   <g id="patch_107">
    <path d="M 612.581442 246.90101 
L 853.326756 246.90101 
" style="fill: none; stroke: #000000; stroke-width: 0.8; stroke-linejoin: miter; stroke-linecap: square"/>
   </g>
   <g id="patch_108">
    <path d="M 612.581442 16.638052 
L 853.326756 16.638052 
" style="fill: none; stroke: #000000; stroke-width: 0.8; stroke-linejoin: miter; stroke-linecap: square"/>
   </g>
  </g>
  <g id="axes_4">
   <g id="patch_109">
    <path d="M 894.669725 246.90101 
L 1135.41504 246.90101 
L 1135.41504 16.638052 
L 894.669725 16.638052 
z
" style="fill: #ffffff"/>
   </g>
   <g id="patch_110">
    <path d="M 905.612694 246.90101 
L 912.200435 246.90101 
L 912.200435 245.156202 
L 905.612694 245.156202 
z
" clip-path="url(#p58925408bc)" style="fill: #1f77b4"/>
   </g>
   <g id="patch_111">
    <path d="M 912.932406 246.90101 
L 919.520146 246.90101 
L 919.520146 245.156202 
L 912.932406 245.156202 
z
" clip-path="url(#p58925408bc)" style="fill: #1f77b4"/>
   </g>
   <g id="patch_112">
    <path d="M 920.252117 246.90101 
L 926.839858 246.90101 
L 926.839858 246.028606 
L 920.252117 246.028606 
z
" clip-path="url(#p58925408bc)" style="fill: #1f77b4"/>
   </g>
   <g id="patch_113">
    <path d="M 927.571829 246.90101 
L 934.159569 246.90101 
L 934.159569 244.720001 
L 927.571829 244.720001 
z
" clip-path="url(#p58925408bc)" style="fill: #1f77b4"/>
   </g>
   <g id="patch_114">
    <path d="M 934.891541 246.90101 
L 941.479281 246.90101 
L 941.479281 239.049376 
L 934.891541 239.049376 
z
" clip-path="url(#p58925408bc)" style="fill: #1f77b4"/>
   </g>
   <g id="patch_115">
    <path d="M 942.211252 246.90101 
L 948.798993 246.90101 
L 948.798993 231.197742 
L 942.211252 231.197742 
z
" clip-path="url(#p58925408bc)" style="fill: #1f77b4"/>
   </g>
   <g id="patch_116">
    <path d="M 949.530964 246.90101 
L 956.118704 246.90101 
L 956.118704 225.527117 
L 949.530964 225.527117 
z
" clip-path="url(#p58925408bc)" style="fill: #1f77b4"/>
   </g>
   <g id="patch_117">
    <path d="M 956.850675 246.90101 
L 963.438416 246.90101 
L 963.438416 201.536013 
L 956.850675 201.536013 
z
" clip-path="url(#p58925408bc)" style="fill: #1f77b4"/>
   </g>
   <g id="patch_118">
    <path d="M 964.170387 246.90101 
L 970.758127 246.90101 
L 970.758127 192.811975 
L 964.170387 192.811975 
z
" clip-path="url(#p58925408bc)" style="fill: #1f77b4"/>
   </g>
   <g id="patch_119">
    <path d="M 971.490099 246.90101 
L 978.077839 246.90101 
L 978.077839 160.096833 
L 971.490099 160.096833 
z
" clip-path="url(#p58925408bc)" style="fill: #1f77b4"/>
   </g>
   <g id="patch_120">
    <path d="M 978.80981 246.90101 
L 985.397551 246.90101 
L 985.397551 141.340151 
L 978.80981 141.340151 
z
" clip-path="url(#p58925408bc)" style="fill: #1f77b4"/>
   </g>
   <g id="patch_121">
    <path d="M 986.129522 246.90101 
L 992.717262 246.90101 
L 992.717262 112.114625 
L 986.129522 112.114625 
z
" clip-path="url(#p58925408bc)" style="fill: #1f77b4"/>
   </g>
   <g id="patch_122">
    <path d="M 993.449233 246.90101 
L 1000.036974 246.90101 
L 1000.036974 79.835684 
L 993.449233 79.835684 
z
" clip-path="url(#p58925408bc)" style="fill: #1f77b4"/>
   </g>
   <g id="patch_123">
    <path d="M 1000.768945 246.90101 
L 1007.356685 246.90101 
L 1007.356685 51.918763 
L 1000.768945 51.918763 
z
" clip-path="url(#p58925408bc)" style="fill: #1f77b4"/>
   </g>
   <g id="patch_124">
    <path d="M 1008.088657 246.90101 
L 1014.676397 246.90101 
L 1014.676397 41.013716 
L 1008.088657 41.013716 
z
" clip-path="url(#p58925408bc)" style="fill: #1f77b4"/>
   </g>
   <g id="patch_125">
    <path d="M 1015.408368 246.90101 
L 1021.996109 246.90101 
L 1021.996109 47.992946 
L 1015.408368 47.992946 
z
" clip-path="url(#p58925408bc)" style="fill: #1f77b4"/>
   </g>
   <g id="patch_126">
    <path d="M 1022.72808 246.90101 
L 1029.31582 246.90101 
L 1029.31582 52.354965 
L 1022.72808 52.354965 
z
" clip-path="url(#p58925408bc)" style="fill: #1f77b4"/>
   </g>
   <g id="patch_127">
    <path d="M 1030.047791 246.90101 
L 1036.635532 246.90101 
L 1036.635532 58.897993 
L 1030.047791 58.897993 
z
" clip-path="url(#p58925408bc)" style="fill: #1f77b4"/>
   </g>
   <g id="patch_128">
    <path d="M 1037.367503 246.90101 
L 1043.955243 246.90101 
L 1043.955243 93.357943 
L 1037.367503 93.357943 
z
" clip-path="url(#p58925408bc)" style="fill: #1f77b4"/>
   </g>
   <g id="patch_129">
    <path d="M 1044.687215 246.90101 
L 1051.274955 246.90101 
L 1051.274955 127.817893 
L 1044.687215 127.817893 
z
" clip-path="url(#p58925408bc)" style="fill: #1f77b4"/>
   </g>
   <g id="patch_130">
    <path d="M 1052.006926 246.90101 
L 1058.594667 246.90101 
L 1058.594667 153.553805 
L 1052.006926 153.553805 
z
" clip-path="url(#p58925408bc)" style="fill: #1f77b4"/>
   </g>
   <g id="patch_131">
    <path d="M 1059.326638 246.90101 
L 1065.914378 246.90101 
L 1065.914378 183.215533 
L 1059.326638 183.215533 
z
" clip-path="url(#p58925408bc)" style="fill: #1f77b4"/>
   </g>
   <g id="patch_132">
    <path d="M 1066.646349 246.90101 
L 1073.23409 246.90101 
L 1073.23409 194.120581 
L 1066.646349 194.120581 
z
" clip-path="url(#p58925408bc)" style="fill: #1f77b4"/>
   </g>
   <g id="patch_133">
    <path d="M 1073.966061 246.90101 
L 1080.553801 246.90101 
L 1080.553801 218.547887 
L 1073.966061 218.547887 
z
" clip-path="url(#p58925408bc)" style="fill: #1f77b4"/>
   </g>
   <g id="patch_134">
    <path d="M 1081.285773 246.90101 
L 1087.873513 246.90101 
L 1087.873513 229.016732 
L 1081.285773 229.016732 
z
" clip-path="url(#p58925408bc)" style="fill: #1f77b4"/>
   </g>
   <g id="patch_135">
    <path d="M 1088.605484 246.90101 
L 1095.193225 246.90101 
L 1095.193225 232.942549 
L 1088.605484 232.942549 
z
" clip-path="url(#p58925408bc)" style="fill: #1f77b4"/>
   </g>
   <g id="patch_136">
    <path d="M 1095.925196 246.90101 
L 1102.512936 246.90101 
L 1102.512936 242.538991 
L 1095.925196 242.538991 
z
" clip-path="url(#p58925408bc)" style="fill: #1f77b4"/>
   </g>
   <g id="patch_137">
    <path d="M 1103.244907 246.90101 
L 1109.832648 246.90101 
L 1109.832648 242.975193 
L 1103.244907 242.975193 
z
" clip-path="url(#p58925408bc)" style="fill: #1f77b4"/>
   </g>
   <g id="patch_138">
    <path d="M 1110.564619 246.90101 
L 1117.152359 246.90101 
L 1117.152359 245.156202 
L 1110.564619 245.156202 
z
" clip-path="url(#p58925408bc)" style="fill: #1f77b4"/>
   </g>
   <g id="patch_139">
    <path d="M 1117.884331 246.90101 
L 1124.472071 246.90101 
L 1124.472071 246.028606 
L 1117.884331 246.028606 
z
" clip-path="url(#p58925408bc)" style="fill: #1f77b4"/>
   </g>
   <g id="matplotlib.axis_7">
    <g id="xtick_16">
     <g id="line2d_35">
      <g>
       <use xlink:href="#m9d9a559844" x="895.359198" y="246.90101" style="stroke: #000000; stroke-width: 0.8"/>
      </g>
     </g>
     <g id="text_39">
      <!-- 0.40 -->
      <g transform="translate(879.773261 264.538822) scale(0.14 -0.14)">
       <use xlink:href="#DejaVuSans-30"/>
       <use xlink:href="#DejaVuSans-2e" x="63.623047"/>
       <use xlink:href="#DejaVuSans-34" x="95.410156"/>
       <use xlink:href="#DejaVuSans-30" x="159.033203"/>
      </g>
     </g>
    </g>
    <g id="xtick_17">
     <g id="line2d_36">
      <g>
       <use xlink:href="#m9d9a559844" x="953.416575" y="246.90101" style="stroke: #000000; stroke-width: 0.8"/>
      </g>
     </g>
     <g id="text_40">
      <!-- 0.42 -->
      <g transform="translate(937.830637 264.538822) scale(0.14 -0.14)">
       <use xlink:href="#DejaVuSans-30"/>
       <use xlink:href="#DejaVuSans-2e" x="63.623047"/>
       <use xlink:href="#DejaVuSans-34" x="95.410156"/>
       <use xlink:href="#DejaVuSans-32" x="159.033203"/>
      </g>
     </g>
    </g>
    <g id="xtick_18">
     <g id="line2d_37">
      <g>
       <use xlink:href="#m9d9a559844" x="1011.473951" y="246.90101" style="stroke: #000000; stroke-width: 0.8"/>
      </g>
     </g>
     <g id="text_41">
      <!-- 0.44 -->
      <g transform="translate(995.888013 264.538822) scale(0.14 -0.14)">
       <use xlink:href="#DejaVuSans-30"/>
       <use xlink:href="#DejaVuSans-2e" x="63.623047"/>
       <use xlink:href="#DejaVuSans-34" x="95.410156"/>
       <use xlink:href="#DejaVuSans-34" x="159.033203"/>
      </g>
     </g>
    </g>
    <g id="xtick_19">
     <g id="line2d_38">
      <g>
       <use xlink:href="#m9d9a559844" x="1069.531327" y="246.90101" style="stroke: #000000; stroke-width: 0.8"/>
      </g>
     </g>
     <g id="text_42">
      <!-- 0.46 -->
      <g transform="translate(1053.945389 264.538822) scale(0.14 -0.14)">
       <use xlink:href="#DejaVuSans-30"/>
       <use xlink:href="#DejaVuSans-2e" x="63.623047"/>
       <use xlink:href="#DejaVuSans-34" x="95.410156"/>
       <use xlink:href="#DejaVuSans-36" x="159.033203"/>
      </g>
     </g>
    </g>
    <g id="xtick_20">
     <g id="line2d_39">
      <g>
       <use xlink:href="#m9d9a559844" x="1127.588703" y="246.90101" style="stroke: #000000; stroke-width: 0.8"/>
      </g>
     </g>
     <g id="text_43">
      <!-- 0.48 -->
      <g transform="translate(1112.002765 264.538822) scale(0.14 -0.14)">
       <use xlink:href="#DejaVuSans-30"/>
       <use xlink:href="#DejaVuSans-2e" x="63.623047"/>
       <use xlink:href="#DejaVuSans-34" x="95.410156"/>
       <use xlink:href="#DejaVuSans-38" x="159.033203"/>
      </g>
     </g>
    </g>
    <g id="text_44">
     <!-- $\nu_{23}$ [-] -->
     <g transform="translate(994.462383 282.088197) scale(0.14 -0.14)">
      <use xlink:href="#DejaVuSans-Oblique-3bd" transform="translate(0 0.015625)"/>
      <use xlink:href="#DejaVuSans-32" transform="translate(55.859375 -16.390625) scale(0.7)"/>
      <use xlink:href="#DejaVuSans-33" transform="translate(100.395508 -16.390625) scale(0.7)"/>
      <use xlink:href="#DejaVuSans-20" transform="translate(147.666016 0.015625)"/>
      <use xlink:href="#DejaVuSans-5b" transform="translate(179.453125 0.015625)"/>
      <use xlink:href="#DejaVuSans-2d" transform="translate(218.466797 0.015625)"/>
      <use xlink:href="#DejaVuSans-5d" transform="translate(254.550781 0.015625)"/>
     </g>
    </g>
   </g>
   <g id="matplotlib.axis_8">
    <g id="ytick_16">
     <g id="line2d_40">
      <g>
       <use xlink:href="#m8b7f692b00" x="894.669725" y="246.90101" style="stroke: #000000; stroke-width: 0.8"/>
      </g>
     </g>
     <g id="text_45">
      <!-- 0 -->
      <g transform="translate(878.762225 252.219916) scale(0.14 -0.14)">
       <use xlink:href="#DejaVuSans-30"/>
      </g>
     </g>
    </g>
    <g id="ytick_17">
     <g id="line2d_41">
      <g>
       <use xlink:href="#m8b7f692b00" x="894.669725" y="191.905895" style="stroke: #000000; stroke-width: 0.8"/>
      </g>
     </g>
     <g id="text_46">
      <!-- 10 -->
      <g transform="translate(869.854725 197.224801) scale(0.14 -0.14)">
       <use xlink:href="#DejaVuSans-31"/>
       <use xlink:href="#DejaVuSans-30" x="63.623047"/>
      </g>
     </g>
    </g>
    <g id="ytick_18">
     <g id="line2d_42">
      <g>
       <use xlink:href="#m8b7f692b00" x="894.669725" y="136.91078" style="stroke: #000000; stroke-width: 0.8"/>
      </g>
     </g>
     <g id="text_47">
      <!-- 20 -->
      <g transform="translate(869.854725 142.229686) scale(0.14 -0.14)">
       <use xlink:href="#DejaVuSans-32"/>
       <use xlink:href="#DejaVuSans-30" x="63.623047"/>
      </g>
     </g>
    </g>
    <g id="ytick_19">
     <g id="line2d_43">
      <g>
       <use xlink:href="#m8b7f692b00" x="894.669725" y="81.915665" style="stroke: #000000; stroke-width: 0.8"/>
      </g>
     </g>
     <g id="text_48">
      <!-- 30 -->
      <g transform="translate(869.854725 87.234571) scale(0.14 -0.14)">
       <use xlink:href="#DejaVuSans-33"/>
       <use xlink:href="#DejaVuSans-30" x="63.623047"/>
      </g>
     </g>
    </g>
    <g id="ytick_20">
     <g id="line2d_44">
      <g>
       <use xlink:href="#m8b7f692b00" x="894.669725" y="26.92055" style="stroke: #000000; stroke-width: 0.8"/>
      </g>
     </g>
     <g id="text_49">
      <!-- 40 -->
      <g transform="translate(869.854725 32.239456) scale(0.14 -0.14)">
       <use xlink:href="#DejaVuSans-34"/>
       <use xlink:href="#DejaVuSans-30" x="63.623047"/>
      </g>
     </g>
    </g>
   </g>
   <g id="line2d_45">
    <path d="M 924.387887 244.46371 
L 926.147201 243.983086 
L 927.906515 243.420492 
L 929.66583 242.764648 
L 931.425144 242.003245 
L 933.184459 241.122949 
L 934.943773 240.109425 
L 936.703087 238.947388 
L 938.462402 237.620678 
L 940.221716 236.112365 
L 941.981031 234.404892 
L 943.740345 232.480252 
L 945.49966 230.320195 
L 947.258974 227.906485 
L 949.018288 225.221183 
L 950.777603 222.246977 
L 952.536917 218.967537 
L 954.296232 215.367908 
L 956.055546 211.434926 
L 957.814861 207.157649 
L 959.574175 202.527812 
L 961.333489 197.540269 
L 963.092804 192.193443 
L 964.852118 186.489745 
L 966.611433 180.435973 
L 968.370747 174.043661 
L 970.130062 167.329375 
L 971.889376 160.314948 
L 973.64869 153.027622 
L 975.408005 145.500114 
L 977.167319 137.770575 
L 978.926634 129.882443 
L 980.685948 121.884187 
L 982.445263 113.828932 
L 984.204577 105.773976 
L 985.963891 97.780189 
L 987.723206 89.911313 
L 989.48252 82.233161 
L 991.241835 74.81274 
L 993.001149 67.717302 
L 994.760464 61.013347 
L 996.519778 54.765601 
L 998.279092 49.035979 
L 1000.038407 43.882573 
L 1001.797721 39.35867 
L 1003.557036 35.511841 
L 1005.31635 32.383103 
L 1007.075665 30.006197 
L 1008.834979 28.40698 
L 1010.594293 27.602955 
L 1012.353608 27.602955 
L 1014.112922 28.40698 
L 1015.872237 30.006197 
L 1017.631551 32.383103 
L 1019.390865 35.511841 
L 1021.15018 39.35867 
L 1022.909494 43.882573 
L 1024.668809 49.035979 
L 1026.428123 54.765601 
L 1028.187438 61.013347 
L 1029.946752 67.717302 
L 1031.706066 74.81274 
L 1033.465381 82.233161 
L 1035.224695 89.911313 
L 1036.98401 97.780189 
L 1038.743324 105.773976 
L 1040.502639 113.828932 
L 1042.261953 121.884187 
L 1044.021267 129.882443 
L 1045.780582 137.770575 
L 1047.539896 145.500114 
L 1049.299211 153.027622 
L 1051.058525 160.314948 
L 1052.81784 167.329375 
L 1054.577154 174.043661 
L 1056.336468 180.435973 
L 1058.095783 186.489745 
L 1059.855097 192.193443 
L 1061.614412 197.540269 
L 1063.373726 202.527812 
L 1065.133041 207.157649 
L 1066.892355 211.434926 
L 1068.651669 215.367908 
L 1070.410984 218.967537 
L 1072.170298 222.246977 
L 1073.929613 225.221183 
L 1075.688927 227.906485 
L 1077.448242 230.320195 
L 1079.207556 232.480252 
L 1080.96687 234.404892 
L 1082.726185 236.112365 
L 1084.485499 237.620678 
L 1086.244814 238.947388 
L 1088.004128 240.109425 
L 1089.763443 241.122949 
L 1091.522757 242.003245 
L 1093.282071 242.764648 
L 1095.041386 243.420492 
L 1096.8007 243.983086 
L 1098.560015 244.46371 
" clip-path="url(#p58925408bc)" style="fill: none; stroke: #2ca02c; stroke-width: 1.5; stroke-linecap: square"/>
   </g>
   <g id="patch_140">
    <path d="M 894.669725 246.90101 
L 894.669725 16.638052 
" style="fill: none; stroke: #000000; stroke-width: 0.8; stroke-linejoin: miter; stroke-linecap: square"/>
   </g>
   <g id="patch_141">
    <path d="M 1135.41504 246.90101 
L 1135.41504 16.638052 
" style="fill: none; stroke: #000000; stroke-width: 0.8; stroke-linejoin: miter; stroke-linecap: square"/>
   </g>
   <g id="patch_142">
    <path d="M 894.669725 246.90101 
L 1135.41504 246.90101 
" style="fill: none; stroke: #000000; stroke-width: 0.8; stroke-linejoin: miter; stroke-linecap: square"/>
   </g>
   <g id="patch_143">
    <path d="M 894.669725 16.638052 
L 1135.41504 16.638052 
" style="fill: none; stroke: #000000; stroke-width: 0.8; stroke-linejoin: miter; stroke-linecap: square"/>
   </g>
  </g>
  <g id="axes_5">
   <g id="patch_144">
    <path d="M 1196.254445 246.90101 
L 1436.99976 246.90101 
L 1436.99976 16.638052 
L 1196.254445 16.638052 
z
" style="fill: #ffffff"/>
   </g>
   <g id="patch_145">
    <path d="M 1207.197414 246.90101 
L 1213.785155 246.90101 
L 1213.785155 246.016239 
L 1207.197414 246.016239 
z
" clip-path="url(#pa500ec2fcc)" style="fill: #1f77b4"/>
   </g>
   <g id="patch_146">
    <path d="M 1214.517126 246.90101 
L 1221.104866 246.90101 
L 1221.104866 245.573854 
L 1214.517126 245.573854 
z
" clip-path="url(#pa500ec2fcc)" style="fill: #1f77b4"/>
   </g>
   <g id="patch_147">
    <path d="M 1221.836838 246.90101 
L 1228.424578 246.90101 
L 1228.424578 246.016239 
L 1221.836838 246.016239 
z
" clip-path="url(#pa500ec2fcc)" style="fill: #1f77b4"/>
   </g>
   <g id="patch_148">
    <path d="M 1229.156549 246.90101 
L 1235.74429 246.90101 
L 1235.74429 239.822844 
L 1229.156549 239.822844 
z
" clip-path="url(#pa500ec2fcc)" style="fill: #1f77b4"/>
   </g>
   <g id="patch_149">
    <path d="M 1236.476261 246.90101 
L 1243.064001 246.90101 
L 1243.064001 237.168532 
L 1236.476261 237.168532 
z
" clip-path="url(#pa500ec2fcc)" style="fill: #1f77b4"/>
   </g>
   <g id="patch_150">
    <path d="M 1243.795972 246.90101 
L 1250.383713 246.90101 
L 1250.383713 231.859908 
L 1243.795972 231.859908 
z
" clip-path="url(#pa500ec2fcc)" style="fill: #1f77b4"/>
   </g>
   <g id="patch_151">
    <path d="M 1251.115684 246.90101 
L 1257.703424 246.90101 
L 1257.703424 217.261192 
L 1251.115684 217.261192 
z
" clip-path="url(#pa500ec2fcc)" style="fill: #1f77b4"/>
   </g>
   <g id="patch_152">
    <path d="M 1258.435396 246.90101 
L 1265.023136 246.90101 
L 1265.023136 205.316788 
L 1258.435396 205.316788 
z
" clip-path="url(#pa500ec2fcc)" style="fill: #1f77b4"/>
   </g>
   <g id="patch_153">
    <path d="M 1265.755107 246.90101 
L 1272.342848 246.90101 
L 1272.342848 192.487612 
L 1265.755107 192.487612 
z
" clip-path="url(#pa500ec2fcc)" style="fill: #1f77b4"/>
   </g>
   <g id="patch_154">
    <path d="M 1273.074819 246.90101 
L 1279.662559 246.90101 
L 1279.662559 159.308712 
L 1273.074819 159.308712 
z
" clip-path="url(#pa500ec2fcc)" style="fill: #1f77b4"/>
   </g>
   <g id="patch_155">
    <path d="M 1280.39453 246.90101 
L 1286.982271 246.90101 
L 1286.982271 127.899352 
L 1280.39453 127.899352 
z
" clip-path="url(#pa500ec2fcc)" style="fill: #1f77b4"/>
   </g>
   <g id="patch_156">
    <path d="M 1287.714242 246.90101 
L 1294.301982 246.90101 
L 1294.301982 106.22247 
L 1287.714242 106.22247 
z
" clip-path="url(#pa500ec2fcc)" style="fill: #1f77b4"/>
   </g>
   <g id="patch_157">
    <path d="M 1295.033954 246.90101 
L 1301.621694 246.90101 
L 1301.621694 85.872744 
L 1295.033954 85.872744 
z
" clip-path="url(#pa500ec2fcc)" style="fill: #1f77b4"/>
   </g>
   <g id="patch_158">
    <path d="M 1302.353665 246.90101 
L 1308.941406 246.90101 
L 1308.941406 47.385219 
L 1302.353665 47.385219 
z
" clip-path="url(#pa500ec2fcc)" style="fill: #1f77b4"/>
   </g>
   <g id="patch_159">
    <path d="M 1309.673377 246.90101 
L 1316.261117 246.90101 
L 1316.261117 46.500448 
L 1309.673377 46.500448 
z
" clip-path="url(#pa500ec2fcc)" style="fill: #1f77b4"/>
   </g>
   <g id="patch_160">
    <path d="M 1316.993088 246.90101 
L 1323.580829 246.90101 
L 1323.580829 35.8832 
L 1316.993088 35.8832 
z
" clip-path="url(#pa500ec2fcc)" style="fill: #1f77b4"/>
   </g>
   <g id="patch_161">
    <path d="M 1324.3128 246.90101 
L 1330.90054 246.90101 
L 1330.90054 29.24742 
L 1324.3128 29.24742 
z
" clip-path="url(#pa500ec2fcc)" style="fill: #1f77b4"/>
   </g>
   <g id="patch_162">
    <path d="M 1331.632512 246.90101 
L 1338.220252 246.90101 
L 1338.220252 67.734945 
L 1331.632512 67.734945 
z
" clip-path="url(#pa500ec2fcc)" style="fill: #1f77b4"/>
   </g>
   <g id="patch_163">
    <path d="M 1338.952223 246.90101 
L 1345.539964 246.90101 
L 1345.539964 99.58669 
L 1338.952223 99.58669 
z
" clip-path="url(#pa500ec2fcc)" style="fill: #1f77b4"/>
   </g>
   <g id="patch_164">
    <path d="M 1346.271935 246.90101 
L 1352.859675 246.90101 
L 1352.859675 112.85825 
L 1346.271935 112.85825 
z
" clip-path="url(#pa500ec2fcc)" style="fill: #1f77b4"/>
   </g>
   <g id="patch_165">
    <path d="M 1353.591646 246.90101 
L 1360.179387 246.90101 
L 1360.179387 158.423941 
L 1353.591646 158.423941 
z
" clip-path="url(#pa500ec2fcc)" style="fill: #1f77b4"/>
   </g>
   <g id="patch_166">
    <path d="M 1360.911358 246.90101 
L 1367.499098 246.90101 
L 1367.499098 181.870364 
L 1360.911358 181.870364 
z
" clip-path="url(#pa500ec2fcc)" style="fill: #1f77b4"/>
   </g>
   <g id="patch_167">
    <path d="M 1368.23107 246.90101 
L 1374.81881 246.90101 
L 1374.81881 202.22009 
L 1368.23107 202.22009 
z
" clip-path="url(#pa500ec2fcc)" style="fill: #1f77b4"/>
   </g>
   <g id="patch_168">
    <path d="M 1375.550781 246.90101 
L 1382.138522 246.90101 
L 1382.138522 226.993669 
L 1375.550781 226.993669 
z
" clip-path="url(#pa500ec2fcc)" style="fill: #1f77b4"/>
   </g>
   <g id="patch_169">
    <path d="M 1382.870493 246.90101 
L 1389.458233 246.90101 
L 1389.458233 227.436055 
L 1382.870493 227.436055 
z
" clip-path="url(#pa500ec2fcc)" style="fill: #1f77b4"/>
   </g>
   <g id="patch_170">
    <path d="M 1390.190204 246.90101 
L 1396.777945 246.90101 
L 1396.777945 236.283762 
L 1390.190204 236.283762 
z
" clip-path="url(#pa500ec2fcc)" style="fill: #1f77b4"/>
   </g>
   <g id="patch_171">
    <path d="M 1397.509916 246.90101 
L 1404.097656 246.90101 
L 1404.097656 244.246698 
L 1397.509916 244.246698 
z
" clip-path="url(#pa500ec2fcc)" style="fill: #1f77b4"/>
   </g>
   <g id="patch_172">
    <path d="M 1404.829628 246.90101 
L 1411.417368 246.90101 
L 1411.417368 245.573854 
L 1404.829628 245.573854 
z
" clip-path="url(#pa500ec2fcc)" style="fill: #1f77b4"/>
   </g>
   <g id="patch_173">
    <path d="M 1412.149339 246.90101 
L 1418.73708 246.90101 
L 1418.73708 246.016239 
L 1412.149339 246.016239 
z
" clip-path="url(#pa500ec2fcc)" style="fill: #1f77b4"/>
   </g>
   <g id="patch_174">
    <path d="M 1419.469051 246.90101 
L 1426.056791 246.90101 
L 1426.056791 246.016239 
L 1419.469051 246.016239 
z
" clip-path="url(#pa500ec2fcc)" style="fill: #1f77b4"/>
   </g>
   <g id="matplotlib.axis_9">
    <g id="xtick_21">
     <g id="line2d_46">
      <g>
       <use xlink:href="#m9d9a559844" x="1227.681009" y="246.90101" style="stroke: #000000; stroke-width: 0.8"/>
      </g>
     </g>
     <g id="text_50">
      <!-- 4800 -->
      <g transform="translate(1209.866009 264.538822) scale(0.14 -0.14)">
       <use xlink:href="#DejaVuSans-34"/>
       <use xlink:href="#DejaVuSans-38" x="63.623047"/>
       <use xlink:href="#DejaVuSans-30" x="127.246094"/>
       <use xlink:href="#DejaVuSans-30" x="190.869141"/>
      </g>
     </g>
    </g>
    <g id="xtick_22">
     <g id="line2d_47">
      <g>
       <use xlink:href="#m9d9a559844" x="1311.795834" y="246.90101" style="stroke: #000000; stroke-width: 0.8"/>
      </g>
     </g>
     <g id="text_51">
      <!-- 5000 -->
      <g transform="translate(1293.980834 264.538822) scale(0.14 -0.14)">
       <use xlink:href="#DejaVuSans-35"/>
       <use xlink:href="#DejaVuSans-30" x="63.623047"/>
       <use xlink:href="#DejaVuSans-30" x="127.246094"/>
       <use xlink:href="#DejaVuSans-30" x="190.869141"/>
      </g>
     </g>
    </g>
    <g id="xtick_23">
     <g id="line2d_48">
      <g>
       <use xlink:href="#m9d9a559844" x="1395.91066" y="246.90101" style="stroke: #000000; stroke-width: 0.8"/>
      </g>
     </g>
     <g id="text_52">
      <!-- 5200 -->
      <g transform="translate(1378.09566 264.538822) scale(0.14 -0.14)">
       <use xlink:href="#DejaVuSans-35"/>
       <use xlink:href="#DejaVuSans-32" x="63.623047"/>
       <use xlink:href="#DejaVuSans-30" x="127.246094"/>
       <use xlink:href="#DejaVuSans-30" x="190.869141"/>
      </g>
     </g>
    </g>
    <g id="text_53">
     <!-- $G_{12}$ [MPa] -->
     <g transform="translate(1282.537103 282.088197) scale(0.14 -0.14)">
      <defs>
       <path id="DejaVuSans-Oblique-47" d="M 3494 697 
L 3738 1919 
L 2700 1919 
L 2797 2438 
L 4453 2438 
L 4050 384 
Q 3634 156 3143 32 
Q 2653 -91 2156 -91 
Q 1278 -91 783 396 
Q 288 884 288 1753 
Q 288 2475 589 3126 
Q 891 3778 1422 4213 
Q 1756 4484 2153 4617 
Q 2550 4750 3034 4750 
Q 3472 4750 3873 4639 
Q 4275 4528 4641 4306 
L 4513 3634 
Q 4231 3928 3853 4083 
Q 3475 4238 3047 4238 
Q 2550 4238 2172 4048 
Q 1794 3859 1497 3463 
Q 1244 3125 1098 2667 
Q 953 2209 953 1734 
Q 953 1081 1287 751 
Q 1622 422 2284 422 
Q 2616 422 2925 492 
Q 3234 563 3494 697 
z
" transform="scale(0.015625)"/>
      </defs>
      <use xlink:href="#DejaVuSans-Oblique-47" transform="translate(0 0.015625)"/>
      <use xlink:href="#DejaVuSans-31" transform="translate(77.490234 -16.390625) scale(0.7)"/>
      <use xlink:href="#DejaVuSans-32" transform="translate(122.026367 -16.390625) scale(0.7)"/>
      <use xlink:href="#DejaVuSans-20" transform="translate(169.296875 0.015625)"/>
      <use xlink:href="#DejaVuSans-5b" transform="translate(201.083984 0.015625)"/>
      <use xlink:href="#DejaVuSans-4d" transform="translate(240.097656 0.015625)"/>
      <use xlink:href="#DejaVuSans-50" transform="translate(326.376953 0.015625)"/>
      <use xlink:href="#DejaVuSans-61" transform="translate(386.679688 0.015625)"/>
      <use xlink:href="#DejaVuSans-5d" transform="translate(447.958984 0.015625)"/>
     </g>
    </g>
   </g>
   <g id="matplotlib.axis_10">
    <g id="ytick_21">
     <g id="line2d_49">
      <g>
       <use xlink:href="#m8b7f692b00" x="1196.254445" y="246.90101" style="stroke: #000000; stroke-width: 0.8"/>
      </g>
     </g>
     <g id="text_54">
      <!-- 0.000 -->
      <g transform="translate(1149.17507 252.219916) scale(0.14 -0.14)">
       <use xlink:href="#DejaVuSans-30"/>
       <use xlink:href="#DejaVuSans-2e" x="63.623047"/>
       <use xlink:href="#DejaVuSans-30" x="95.410156"/>
       <use xlink:href="#DejaVuSans-30" x="159.033203"/>
       <use xlink:href="#DejaVuSans-30" x="222.65625"/>
      </g>
     </g>
    </g>
    <g id="ytick_22">
     <g id="line2d_50">
      <g>
       <use xlink:href="#m8b7f692b00" x="1196.254445" y="208.40443" style="stroke: #000000; stroke-width: 0.8"/>
      </g>
     </g>
     <g id="text_55">
      <!-- 0.001 -->
      <g transform="translate(1149.17507 213.723336) scale(0.14 -0.14)">
       <use xlink:href="#DejaVuSans-30"/>
       <use xlink:href="#DejaVuSans-2e" x="63.623047"/>
       <use xlink:href="#DejaVuSans-30" x="95.410156"/>
       <use xlink:href="#DejaVuSans-30" x="159.033203"/>
       <use xlink:href="#DejaVuSans-31" x="222.65625"/>
      </g>
     </g>
    </g>
    <g id="ytick_23">
     <g id="line2d_51">
      <g>
       <use xlink:href="#m8b7f692b00" x="1196.254445" y="169.907849" style="stroke: #000000; stroke-width: 0.8"/>
      </g>
     </g>
     <g id="text_56">
      <!-- 0.002 -->
      <g transform="translate(1149.17507 175.226755) scale(0.14 -0.14)">
       <use xlink:href="#DejaVuSans-30"/>
       <use xlink:href="#DejaVuSans-2e" x="63.623047"/>
       <use xlink:href="#DejaVuSans-30" x="95.410156"/>
       <use xlink:href="#DejaVuSans-30" x="159.033203"/>
       <use xlink:href="#DejaVuSans-32" x="222.65625"/>
      </g>
     </g>
    </g>
    <g id="ytick_24">
     <g id="line2d_52">
      <g>
       <use xlink:href="#m8b7f692b00" x="1196.254445" y="131.411269" style="stroke: #000000; stroke-width: 0.8"/>
      </g>
     </g>
     <g id="text_57">
      <!-- 0.003 -->
      <g transform="translate(1149.17507 136.730175) scale(0.14 -0.14)">
       <use xlink:href="#DejaVuSans-30"/>
       <use xlink:href="#DejaVuSans-2e" x="63.623047"/>
       <use xlink:href="#DejaVuSans-30" x="95.410156"/>
       <use xlink:href="#DejaVuSans-30" x="159.033203"/>
       <use xlink:href="#DejaVuSans-33" x="222.65625"/>
      </g>
     </g>
    </g>
    <g id="ytick_25">
     <g id="line2d_53">
      <g>
       <use xlink:href="#m8b7f692b00" x="1196.254445" y="92.914688" style="stroke: #000000; stroke-width: 0.8"/>
      </g>
     </g>
     <g id="text_58">
      <!-- 0.004 -->
      <g transform="translate(1149.17507 98.233594) scale(0.14 -0.14)">
       <use xlink:href="#DejaVuSans-30"/>
       <use xlink:href="#DejaVuSans-2e" x="63.623047"/>
       <use xlink:href="#DejaVuSans-30" x="95.410156"/>
       <use xlink:href="#DejaVuSans-30" x="159.033203"/>
       <use xlink:href="#DejaVuSans-34" x="222.65625"/>
      </g>
     </g>
    </g>
    <g id="ytick_26">
     <g id="line2d_54">
      <g>
       <use xlink:href="#m8b7f692b00" x="1196.254445" y="54.418108" style="stroke: #000000; stroke-width: 0.8"/>
      </g>
     </g>
     <g id="text_59">
      <!-- 0.005 -->
      <g transform="translate(1149.17507 59.737014) scale(0.14 -0.14)">
       <use xlink:href="#DejaVuSans-30"/>
       <use xlink:href="#DejaVuSans-2e" x="63.623047"/>
       <use xlink:href="#DejaVuSans-30" x="95.410156"/>
       <use xlink:href="#DejaVuSans-30" x="159.033203"/>
       <use xlink:href="#DejaVuSans-35" x="222.65625"/>
      </g>
     </g>
    </g>
   </g>
   <g id="line2d_55">
    <path d="M 1248.709715 244.46371 
L 1250.493969 243.983086 
L 1252.278223 243.420492 
L 1254.062477 242.764648 
L 1255.846731 242.003245 
L 1257.630985 241.122949 
L 1259.415239 240.109425 
L 1261.199492 238.947388 
L 1262.983746 237.620678 
L 1264.768 236.112365 
L 1266.552254 234.404892 
L 1268.336508 232.480252 
L 1270.120762 230.320195 
L 1271.905016 227.906485 
L 1273.68927 225.221183 
L 1275.473523 222.246977 
L 1277.257777 218.967537 
L 1279.042031 215.367908 
L 1280.826285 211.434926 
L 1282.610539 207.157649 
L 1284.394793 202.527812 
L 1286.179047 197.540269 
L 1287.963301 192.193443 
L 1289.747554 186.489745 
L 1291.531808 180.435973 
L 1293.316062 174.043661 
L 1295.100316 167.329375 
L 1296.88457 160.314948 
L 1298.668824 153.027622 
L 1300.453078 145.500114 
L 1302.237332 137.770575 
L 1304.021585 129.882443 
L 1305.805839 121.884187 
L 1307.590093 113.828932 
L 1309.374347 105.773976 
L 1311.158601 97.780189 
L 1312.942855 89.911313 
L 1314.727109 82.233161 
L 1316.511363 74.81274 
L 1318.295616 67.717302 
L 1320.07987 61.013347 
L 1321.864124 54.765601 
L 1323.648378 49.035979 
L 1325.432632 43.882573 
L 1327.216886 39.35867 
L 1329.00114 35.511841 
L 1330.785393 32.383103 
L 1332.569647 30.006197 
L 1334.353901 28.40698 
L 1336.138155 27.602955 
L 1337.922409 27.602955 
L 1339.706663 28.40698 
L 1341.490917 30.006197 
L 1343.275171 32.383103 
L 1345.059424 35.511841 
L 1346.843678 39.35867 
L 1348.627932 43.882573 
L 1350.412186 49.035979 
L 1352.19644 54.765601 
L 1353.980694 61.013347 
L 1355.764948 67.717302 
L 1357.549202 74.81274 
L 1359.333455 82.233161 
L 1361.117709 89.911313 
L 1362.901963 97.780189 
L 1364.686217 105.773976 
L 1366.470471 113.828932 
L 1368.254725 121.884187 
L 1370.038979 129.882443 
L 1371.823233 137.770575 
L 1373.607486 145.500114 
L 1375.39174 153.027622 
L 1377.175994 160.314948 
L 1378.960248 167.329375 
L 1380.744502 174.043661 
L 1382.528756 180.435973 
L 1384.31301 186.489745 
L 1386.097264 192.193443 
L 1387.881517 197.540269 
L 1389.665771 202.527812 
L 1391.450025 207.157649 
L 1393.234279 211.434926 
L 1395.018533 215.367908 
L 1396.802787 218.967537 
L 1398.587041 222.246977 
L 1400.371295 225.221183 
L 1402.155548 227.906485 
L 1403.939802 230.320195 
L 1405.724056 232.480252 
L 1407.50831 234.404892 
L 1409.292564 236.112365 
L 1411.076818 237.620678 
L 1412.861072 238.947388 
L 1414.645326 240.109425 
L 1416.429579 241.122949 
L 1418.213833 242.003245 
L 1419.998087 242.764648 
L 1421.782341 243.420492 
L 1423.566595 243.983086 
L 1425.350849 244.46371 
" clip-path="url(#pa500ec2fcc)" style="fill: none; stroke: #2ca02c; stroke-width: 1.5; stroke-linecap: square"/>
   </g>
   <g id="patch_175">
    <path d="M 1196.254445 246.90101 
L 1196.254445 16.638052 
" style="fill: none; stroke: #000000; stroke-width: 0.8; stroke-linejoin: miter; stroke-linecap: square"/>
   </g>
   <g id="patch_176">
    <path d="M 1436.99976 246.90101 
L 1436.99976 16.638052 
" style="fill: none; stroke: #000000; stroke-width: 0.8; stroke-linejoin: miter; stroke-linecap: square"/>
   </g>
   <g id="patch_177">
    <path d="M 1196.254445 246.90101 
L 1436.99976 246.90101 
" style="fill: none; stroke: #000000; stroke-width: 0.8; stroke-linejoin: miter; stroke-linecap: square"/>
   </g>
   <g id="patch_178">
    <path d="M 1196.254445 16.638052 
L 1436.99976 16.638052 
" style="fill: none; stroke: #000000; stroke-width: 0.8; stroke-linejoin: miter; stroke-linecap: square"/>
   </g>
  </g>
 </g>
 <defs>
  <clipPath id="p70b8972f14">
   <rect x="36.457115" y="16.638052" width="240.745315" height="230.262958"/>
  </clipPath>
  <clipPath id="p80fe1eba44">
   <rect x="336.866716" y="16.638052" width="240.745315" height="230.262958"/>
  </clipPath>
  <clipPath id="pa9d66cb355">
   <rect x="612.581442" y="16.638052" width="240.745315" height="230.262958"/>
  </clipPath>
  <clipPath id="p58925408bc">
   <rect x="894.669725" y="16.638052" width="240.745315" height="230.262958"/>
  </clipPath>
  <clipPath id="pa500ec2fcc">
   <rect x="1196.254445" y="16.638052" width="240.745315" height="230.262958"/>
  </clipPath>
 </defs>
</svg>
