<?xml version="1.0" encoding="utf-8" standalone="no"?>
<!DOCTYPE svg PUBLIC "-//W3C//DTD SVG 1.1//EN"
  "http://www.w3.org/Graphics/SVG/1.1/DTD/svg11.dtd">
<svg xmlns:xlink="http://www.w3.org/1999/xlink" width="1440pt" height="288pt" viewBox="0 0 1440 288" xmlns="http://www.w3.org/2000/svg" version="1.1">
 <metadata>
  <rdf:RDF xmlns:dc="http://purl.org/dc/elements/1.1/" xmlns:cc="http://creativecommons.org/ns#" xmlns:rdf="http://www.w3.org/1999/02/22-rdf-syntax-ns#">
   <cc:Work>
    <dc:type rdf:resource="http://purl.org/dc/dcmitype/StillImage"/>
    <dc:date>2024-11-24T11:04:08.912352</dc:date>
    <dc:format>image/svg+xml</dc:format>
    <dc:creator>
     <cc:Agent>
      <dc:title>Matplotlib v3.9.2, https://matplotlib.org/</dc:title>
     </cc:Agent>
    </dc:creator>
   </cc:Work>
  </rdf:RDF>
 </metadata>
 <defs>
  <style type="text/css">*{stroke-linejoin: round; stroke-linecap: butt}</style>
 </defs>
 <g id="figure_1">
  <g id="patch_1">
   <path d="M 0 288 
L 1440 288 
L 1440 0 
L 0 0 
z
" style="fill: #ffffff"/>
  </g>
  <g id="axes_1">
   <g id="patch_2">
    <path d="M 36.457115 246.90101 
L 278.80134 246.90101 
L 278.80134 16.638052 
L 36.457115 16.638052 
z
" style="fill: #ffffff"/>
   </g>
   <g id="patch_3">
    <path d="M 47.472762 246.90101 
L 50.170714 246.90101 
L 50.170714 246.230374 
L 47.472762 246.230374 
z
" clip-path="url(#p8946902c4a)" style="fill: #1f77b4"/>
   </g>
   <g id="patch_4">
    <path d="M 50.470487 246.90101 
L 53.168439 246.90101 
L 53.168439 245.895056 
L 50.470487 245.895056 
z
" clip-path="url(#p8946902c4a)" style="fill: #1f77b4"/>
   </g>
   <g id="patch_5">
    <path d="M 53.468212 246.90101 
L 56.166165 246.90101 
L 56.166165 245.224419 
L 53.468212 245.224419 
z
" clip-path="url(#p8946902c4a)" style="fill: #1f77b4"/>
   </g>
   <g id="patch_6">
    <path d="M 56.465937 246.90101 
L 59.16389 246.90101 
L 59.16389 240.529966 
L 56.465937 240.529966 
z
" clip-path="url(#p8946902c4a)" style="fill: #1f77b4"/>
   </g>
   <g id="patch_7">
    <path d="M 59.463662 246.90101 
L 62.161615 246.90101 
L 62.161615 238.182739 
L 59.463662 238.182739 
z
" clip-path="url(#p8946902c4a)" style="fill: #1f77b4"/>
   </g>
   <g id="patch_8">
    <path d="M 62.461388 246.90101 
L 65.15934 246.90101 
L 65.15934 224.770014 
L 62.461388 224.770014 
z
" clip-path="url(#p8946902c4a)" style="fill: #1f77b4"/>
   </g>
   <g id="patch_9">
    <path d="M 65.459113 246.90101 
L 68.157066 246.90101 
L 68.157066 208.339425 
L 65.459113 208.339425 
z
" clip-path="url(#p8946902c4a)" style="fill: #1f77b4"/>
   </g>
   <g id="patch_10">
    <path d="M 68.456838 246.90101 
L 71.154791 246.90101 
L 71.154791 171.454432 
L 68.456838 171.454432 
z
" clip-path="url(#p8946902c4a)" style="fill: #1f77b4"/>
   </g>
   <g id="patch_11">
    <path d="M 71.454563 246.90101 
L 74.152516 246.90101 
L 74.152516 149.658753 
L 71.454563 149.658753 
z
" clip-path="url(#p8946902c4a)" style="fill: #1f77b4"/>
   </g>
   <g id="patch_12">
    <path d="M 74.452288 246.90101 
L 77.150241 246.90101 
L 77.150241 101.708261 
L 74.452288 101.708261 
z
" clip-path="url(#p8946902c4a)" style="fill: #1f77b4"/>
   </g>
   <g id="patch_13">
    <path d="M 77.450014 246.90101 
L 80.147966 246.90101 
L 80.147966 62.140722 
L 77.450014 62.140722 
z
" clip-path="url(#p8946902c4a)" style="fill: #1f77b4"/>
   </g>
   <g id="patch_14">
    <path d="M 80.447739 246.90101 
L 83.145692 246.90101 
L 83.145692 27.602955 
L 80.447739 27.602955 
z
" clip-path="url(#p8946902c4a)" style="fill: #1f77b4"/>
   </g>
   <g id="patch_15">
    <path d="M 83.445464 246.90101 
L 86.143417 246.90101 
L 86.143417 56.440314 
L 83.445464 56.440314 
z
" clip-path="url(#p8946902c4a)" style="fill: #1f77b4"/>
   </g>
   <g id="patch_16">
    <path d="M 86.443189 246.90101 
L 89.141142 246.90101 
L 89.141142 52.081178 
L 86.443189 52.081178 
z
" clip-path="url(#p8946902c4a)" style="fill: #1f77b4"/>
   </g>
   <g id="patch_17">
    <path d="M 89.440915 246.90101 
L 92.138867 246.90101 
L 92.138867 119.144804 
L 89.440915 119.144804 
z
" clip-path="url(#p8946902c4a)" style="fill: #1f77b4"/>
   </g>
   <g id="patch_18">
    <path d="M 92.43864 246.90101 
L 95.136592 246.90101 
L 95.136592 136.916664 
L 92.43864 136.916664 
z
" clip-path="url(#p8946902c4a)" style="fill: #1f77b4"/>
   </g>
   <g id="patch_19">
    <path d="M 95.436365 246.90101 
L 98.134318 246.90101 
L 98.134318 162.73616 
L 95.436365 162.73616 
z
" clip-path="url(#p8946902c4a)" style="fill: #1f77b4"/>
   </g>
   <g id="patch_20">
    <path d="M 98.43409 246.90101 
L 101.132043 246.90101 
L 101.132043 186.543747 
L 98.43409 186.543747 
z
" clip-path="url(#p8946902c4a)" style="fill: #1f77b4"/>
   </g>
   <g id="patch_21">
    <path d="M 101.431815 246.90101 
L 104.129768 246.90101 
L 104.129768 209.010062 
L 101.431815 209.010062 
z
" clip-path="url(#p8946902c4a)" style="fill: #1f77b4"/>
   </g>
   <g id="patch_22">
    <path d="M 104.429541 246.90101 
L 107.127493 246.90101 
L 107.127493 221.416832 
L 104.429541 221.416832 
z
" clip-path="url(#p8946902c4a)" style="fill: #1f77b4"/>
   </g>
   <g id="patch_23">
    <path d="M 107.427266 246.90101 
L 110.125218 246.90101 
L 110.125218 229.464467 
L 107.427266 229.464467 
z
" clip-path="url(#p8946902c4a)" style="fill: #1f77b4"/>
   </g>
   <g id="patch_24">
    <path d="M 110.424991 246.90101 
L 113.122944 246.90101 
L 113.122944 236.506148 
L 110.424991 236.506148 
z
" clip-path="url(#p8946902c4a)" style="fill: #1f77b4"/>
   </g>
   <g id="patch_25">
    <path d="M 113.422716 246.90101 
L 116.120669 246.90101 
L 116.120669 239.524011 
L 113.422716 239.524011 
z
" clip-path="url(#p8946902c4a)" style="fill: #1f77b4"/>
   </g>
   <g id="patch_26">
    <path d="M 116.420441 246.90101 
L 119.118394 246.90101 
L 119.118394 241.871238 
L 116.420441 241.871238 
z
" clip-path="url(#p8946902c4a)" style="fill: #1f77b4"/>
   </g>
   <g id="patch_27">
    <path d="M 119.418167 246.90101 
L 122.116119 246.90101 
L 122.116119 244.218465 
L 119.418167 244.218465 
z
" clip-path="url(#p8946902c4a)" style="fill: #1f77b4"/>
   </g>
   <g id="patch_28">
    <path d="M 122.415892 246.90101 
L 125.113845 246.90101 
L 125.113845 246.230374 
L 122.415892 246.230374 
z
" clip-path="url(#p8946902c4a)" style="fill: #1f77b4"/>
   </g>
   <g id="patch_29">
    <path d="M 125.413617 246.90101 
L 128.11157 246.90101 
L 128.11157 246.565692 
L 125.413617 246.565692 
z
" clip-path="url(#p8946902c4a)" style="fill: #1f77b4"/>
   </g>
   <g id="patch_30">
    <path d="M 128.411342 246.90101 
L 131.109295 246.90101 
L 131.109295 246.565692 
L 128.411342 246.565692 
z
" clip-path="url(#p8946902c4a)" style="fill: #1f77b4"/>
   </g>
   <g id="patch_31">
    <path d="M 131.409067 246.90101 
L 134.10702 246.90101 
L 134.10702 246.90101 
L 131.409067 246.90101 
z
" clip-path="url(#p8946902c4a)" style="fill: #1f77b4"/>
   </g>
   <g id="patch_32">
    <path d="M 134.406793 246.90101 
L 137.104745 246.90101 
L 137.104745 246.565692 
L 134.406793 246.565692 
z
" clip-path="url(#p8946902c4a)" style="fill: #1f77b4"/>
   </g>
   <g id="matplotlib.axis_1">
    <g id="xtick_1">
     <g id="line2d_1">
      <defs>
       <path id="mc118fe6e53" d="M 0 0 
L 0 3.5 
" style="stroke: #000000; stroke-width: 0.8"/>
      </defs>
      <g>
       <use xlink:href="#mc118fe6e53" x="78.227538" y="246.90101" style="stroke: #000000; stroke-width: 0.8"/>
      </g>
     </g>
     <g id="text_1">
      <!-- 1.35 -->
      <g transform="translate(62.6416 264.538822) scale(0.14 -0.14)">
       <defs>
        <path id="DejaVuSans-31" d="M 794 531 
L 1825 531 
L 1825 4091 
L 703 3866 
L 703 4441 
L 1819 4666 
L 2450 4666 
L 2450 531 
L 3481 531 
L 3481 0 
L 794 0 
L 794 531 
z
" transform="scale(0.015625)"/>
        <path id="DejaVuSans-2e" d="M 684 794 
L 1344 794 
L 1344 0 
L 684 0 
L 684 794 
z
" transform="scale(0.015625)"/>
        <path id="DejaVuSans-33" d="M 2597 2516 
Q 3050 2419 3304 2112 
Q 3559 1806 3559 1356 
Q 3559 666 3084 287 
Q 2609 -91 1734 -91 
Q 1441 -91 1130 -33 
Q 819 25 488 141 
L 488 750 
Q 750 597 1062 519 
Q 1375 441 1716 441 
Q 2309 441 2620 675 
Q 2931 909 2931 1356 
Q 2931 1769 2642 2001 
Q 2353 2234 1838 2234 
L 1294 2234 
L 1294 2753 
L 1863 2753 
Q 2328 2753 2575 2939 
Q 2822 3125 2822 3475 
Q 2822 3834 2567 4026 
Q 2313 4219 1838 4219 
Q 1578 4219 1281 4162 
Q 984 4106 628 3988 
L 628 4550 
Q 988 4650 1302 4700 
Q 1616 4750 1894 4750 
Q 2613 4750 3031 4423 
Q 3450 4097 3450 3541 
Q 3450 3153 3228 2886 
Q 3006 2619 2597 2516 
z
" transform="scale(0.015625)"/>
        <path id="DejaVuSans-35" d="M 691 4666 
L 3169 4666 
L 3169 4134 
L 1269 4134 
L 1269 2991 
Q 1406 3038 1543 3061 
Q 1681 3084 1819 3084 
Q 2600 3084 3056 2656 
Q 3513 2228 3513 1497 
Q 3513 744 3044 326 
Q 2575 -91 1722 -91 
Q 1428 -91 1123 -41 
Q 819 9 494 109 
L 494 744 
Q 775 591 1075 516 
Q 1375 441 1709 441 
Q 2250 441 2565 725 
Q 2881 1009 2881 1497 
Q 2881 1984 2565 2268 
Q 2250 2553 1709 2553 
Q 1456 2553 1204 2497 
Q 953 2441 691 2322 
L 691 4666 
z
" transform="scale(0.015625)"/>
       </defs>
       <use xlink:href="#DejaVuSans-31"/>
       <use xlink:href="#DejaVuSans-2e" x="63.623047"/>
       <use xlink:href="#DejaVuSans-33" x="95.410156"/>
       <use xlink:href="#DejaVuSans-35" x="159.033203"/>
      </g>
     </g>
    </g>
    <g id="xtick_2">
     <g id="line2d_2">
      <g>
       <use xlink:href="#mc118fe6e53" x="126.095759" y="246.90101" style="stroke: #000000; stroke-width: 0.8"/>
      </g>
     </g>
     <g id="text_2">
      <!-- 1.40 -->
      <g transform="translate(110.509821 264.538822) scale(0.14 -0.14)">
       <defs>
        <path id="DejaVuSans-34" d="M 2419 4116 
L 825 1625 
L 2419 1625 
L 2419 4116 
z
M 2253 4666 
L 3047 4666 
L 3047 1625 
L 3713 1625 
L 3713 1100 
L 3047 1100 
L 3047 0 
L 2419 0 
L 2419 1100 
L 313 1100 
L 313 1709 
L 2253 4666 
z
" transform="scale(0.015625)"/>
        <path id="DejaVuSans-30" d="M 2034 4250 
Q 1547 4250 1301 3770 
Q 1056 3291 1056 2328 
Q 1056 1369 1301 889 
Q 1547 409 2034 409 
Q 2525 409 2770 889 
Q 3016 1369 3016 2328 
Q 3016 3291 2770 3770 
Q 2525 4250 2034 4250 
z
M 2034 4750 
Q 2819 4750 3233 4129 
Q 3647 3509 3647 2328 
Q 3647 1150 3233 529 
Q 2819 -91 2034 -91 
Q 1250 -91 836 529 
Q 422 1150 422 2328 
Q 422 3509 836 4129 
Q 1250 4750 2034 4750 
z
" transform="scale(0.015625)"/>
       </defs>
       <use xlink:href="#DejaVuSans-31"/>
       <use xlink:href="#DejaVuSans-2e" x="63.623047"/>
       <use xlink:href="#DejaVuSans-34" x="95.410156"/>
       <use xlink:href="#DejaVuSans-30" x="159.033203"/>
      </g>
     </g>
    </g>
    <g id="xtick_3">
     <g id="line2d_3">
      <g>
       <use xlink:href="#mc118fe6e53" x="173.96398" y="246.90101" style="stroke: #000000; stroke-width: 0.8"/>
      </g>
     </g>
     <g id="text_3">
      <!-- 1.45 -->
      <g transform="translate(158.378042 264.538822) scale(0.14 -0.14)">
       <use xlink:href="#DejaVuSans-31"/>
       <use xlink:href="#DejaVuSans-2e" x="63.623047"/>
       <use xlink:href="#DejaVuSans-34" x="95.410156"/>
       <use xlink:href="#DejaVuSans-35" x="159.033203"/>
      </g>
     </g>
    </g>
    <g id="xtick_4">
     <g id="line2d_4">
      <g>
       <use xlink:href="#mc118fe6e53" x="221.832201" y="246.90101" style="stroke: #000000; stroke-width: 0.8"/>
      </g>
     </g>
     <g id="text_4">
      <!-- 1.50 -->
      <g transform="translate(206.246263 264.538822) scale(0.14 -0.14)">
       <use xlink:href="#DejaVuSans-31"/>
       <use xlink:href="#DejaVuSans-2e" x="63.623047"/>
       <use xlink:href="#DejaVuSans-35" x="95.410156"/>
       <use xlink:href="#DejaVuSans-30" x="159.033203"/>
      </g>
     </g>
    </g>
    <g id="xtick_5">
     <g id="line2d_5">
      <g>
       <use xlink:href="#mc118fe6e53" x="269.700422" y="246.90101" style="stroke: #000000; stroke-width: 0.8"/>
      </g>
     </g>
     <g id="text_5">
      <!-- 1.55 -->
      <g transform="translate(254.114484 264.538822) scale(0.14 -0.14)">
       <use xlink:href="#DejaVuSans-31"/>
       <use xlink:href="#DejaVuSans-2e" x="63.623047"/>
       <use xlink:href="#DejaVuSans-35" x="95.410156"/>
       <use xlink:href="#DejaVuSans-35" x="159.033203"/>
      </g>
     </g>
    </g>
    <g id="text_6">
     <!-- $E_1$ [MPa] -->
     <g transform="translate(127.599227 282.088197) scale(0.14 -0.14)">
      <defs>
       <path id="DejaVuSans-Oblique-45" d="M 1081 4666 
L 4031 4666 
L 3928 4134 
L 1606 4134 
L 1338 2753 
L 3566 2753 
L 3463 2222 
L 1234 2222 
L 909 531 
L 3284 531 
L 3181 0 
L 172 0 
L 1081 4666 
z
" transform="scale(0.015625)"/>
       <path id="DejaVuSans-20" transform="scale(0.015625)"/>
       <path id="DejaVuSans-5b" d="M 550 4863 
L 1875 4863 
L 1875 4416 
L 1125 4416 
L 1125 -397 
L 1875 -397 
L 1875 -844 
L 550 -844 
L 550 4863 
z
" transform="scale(0.015625)"/>
       <path id="DejaVuSans-4d" d="M 628 4666 
L 1569 4666 
L 2759 1491 
L 3956 4666 
L 4897 4666 
L 4897 0 
L 4281 0 
L 4281 4097 
L 3078 897 
L 2444 897 
L 1241 4097 
L 1241 0 
L 628 0 
L 628 4666 
z
" transform="scale(0.015625)"/>
       <path id="DejaVuSans-50" d="M 1259 4147 
L 1259 2394 
L 2053 2394 
Q 2494 2394 2734 2622 
Q 2975 2850 2975 3272 
Q 2975 3691 2734 3919 
Q 2494 4147 2053 4147 
L 1259 4147 
z
M 628 4666 
L 2053 4666 
Q 2838 4666 3239 4311 
Q 3641 3956 3641 3272 
Q 3641 2581 3239 2228 
Q 2838 1875 2053 1875 
L 1259 1875 
L 1259 0 
L 628 0 
L 628 4666 
z
" transform="scale(0.015625)"/>
       <path id="DejaVuSans-61" d="M 2194 1759 
Q 1497 1759 1228 1600 
Q 959 1441 959 1056 
Q 959 750 1161 570 
Q 1363 391 1709 391 
Q 2188 391 2477 730 
Q 2766 1069 2766 1631 
L 2766 1759 
L 2194 1759 
z
M 3341 1997 
L 3341 0 
L 2766 0 
L 2766 531 
Q 2569 213 2275 61 
Q 1981 -91 1556 -91 
Q 1019 -91 701 211 
Q 384 513 384 1019 
Q 384 1609 779 1909 
Q 1175 2209 1959 2209 
L 2766 2209 
L 2766 2266 
Q 2766 2663 2505 2880 
Q 2244 3097 1772 3097 
Q 1472 3097 1187 3025 
Q 903 2953 641 2809 
L 641 3341 
Q 956 3463 1253 3523 
Q 1550 3584 1831 3584 
Q 2591 3584 2966 3190 
Q 3341 2797 3341 1997 
z
" transform="scale(0.015625)"/>
       <path id="DejaVuSans-5d" d="M 1947 4863 
L 1947 -844 
L 622 -844 
L 622 -397 
L 1369 -397 
L 1369 4416 
L 622 4416 
L 622 4863 
L 1947 4863 
z
" transform="scale(0.015625)"/>
      </defs>
      <use xlink:href="#DejaVuSans-Oblique-45" transform="translate(0 0.015625)"/>
      <use xlink:href="#DejaVuSans-31" transform="translate(63.183594 -16.390625) scale(0.7)"/>
      <use xlink:href="#DejaVuSans-20" transform="translate(110.454102 0.015625)"/>
      <use xlink:href="#DejaVuSans-5b" transform="translate(142.241211 0.015625)"/>
      <use xlink:href="#DejaVuSans-4d" transform="translate(181.254883 0.015625)"/>
      <use xlink:href="#DejaVuSans-50" transform="translate(267.53418 0.015625)"/>
      <use xlink:href="#DejaVuSans-61" transform="translate(327.836914 0.015625)"/>
      <use xlink:href="#DejaVuSans-5d" transform="translate(389.116211 0.015625)"/>
     </g>
    </g>
    <g id="text_7">
     <!-- 1e5 -->
     <g transform="translate(252.371965 281.088197) scale(0.14 -0.14)">
      <defs>
       <path id="DejaVuSans-65" d="M 3597 1894 
L 3597 1613 
L 953 1613 
Q 991 1019 1311 708 
Q 1631 397 2203 397 
Q 2534 397 2845 478 
Q 3156 559 3463 722 
L 3463 178 
Q 3153 47 2828 -22 
Q 2503 -91 2169 -91 
Q 1331 -91 842 396 
Q 353 884 353 1716 
Q 353 2575 817 3079 
Q 1281 3584 2069 3584 
Q 2775 3584 3186 3129 
Q 3597 2675 3597 1894 
z
M 3022 2063 
Q 3016 2534 2758 2815 
Q 2500 3097 2075 3097 
Q 1594 3097 1305 2825 
Q 1016 2553 972 2059 
L 3022 2063 
z
" transform="scale(0.015625)"/>
      </defs>
      <use xlink:href="#DejaVuSans-31"/>
      <use xlink:href="#DejaVuSans-65" x="63.623047"/>
      <use xlink:href="#DejaVuSans-35" x="125.146484"/>
     </g>
    </g>
   </g>
   <g id="matplotlib.axis_2">
    <g id="ytick_1">
     <g id="line2d_6">
      <defs>
       <path id="ma844113fd5" d="M 0 0 
L -3.5 0 
" style="stroke: #000000; stroke-width: 0.8"/>
      </defs>
      <g>
       <use xlink:href="#ma844113fd5" x="36.457115" y="246.90101" style="stroke: #000000; stroke-width: 0.8"/>
      </g>
     </g>
     <g id="text_8">
      <!-- 0 -->
      <g transform="translate(20.549615 252.219916) scale(0.14 -0.14)">
       <use xlink:href="#DejaVuSans-30"/>
      </g>
     </g>
    </g>
    <g id="ytick_2">
     <g id="line2d_7">
      <g>
       <use xlink:href="#ma844113fd5" x="36.457115" y="194.403153" style="stroke: #000000; stroke-width: 0.8"/>
      </g>
     </g>
     <g id="text_9">
      <!-- 1 -->
      <g transform="translate(20.549615 199.72206) scale(0.14 -0.14)">
       <use xlink:href="#DejaVuSans-31"/>
      </g>
     </g>
    </g>
    <g id="ytick_3">
     <g id="line2d_8">
      <g>
       <use xlink:href="#ma844113fd5" x="36.457115" y="141.905297" style="stroke: #000000; stroke-width: 0.8"/>
      </g>
     </g>
     <g id="text_10">
      <!-- 2 -->
      <g transform="translate(20.549615 147.224203) scale(0.14 -0.14)">
       <defs>
        <path id="DejaVuSans-32" d="M 1228 531 
L 3431 531 
L 3431 0 
L 469 0 
L 469 531 
Q 828 903 1448 1529 
Q 2069 2156 2228 2338 
Q 2531 2678 2651 2914 
Q 2772 3150 2772 3378 
Q 2772 3750 2511 3984 
Q 2250 4219 1831 4219 
Q 1534 4219 1204 4116 
Q 875 4013 500 3803 
L 500 4441 
Q 881 4594 1212 4672 
Q 1544 4750 1819 4750 
Q 2544 4750 2975 4387 
Q 3406 4025 3406 3419 
Q 3406 3131 3298 2873 
Q 3191 2616 2906 2266 
Q 2828 2175 2409 1742 
Q 1991 1309 1228 531 
z
" transform="scale(0.015625)"/>
       </defs>
       <use xlink:href="#DejaVuSans-32"/>
      </g>
     </g>
    </g>
    <g id="ytick_4">
     <g id="line2d_9">
      <g>
       <use xlink:href="#ma844113fd5" x="36.457115" y="89.40744" style="stroke: #000000; stroke-width: 0.8"/>
      </g>
     </g>
     <g id="text_11">
      <!-- 3 -->
      <g transform="translate(20.549615 94.726346) scale(0.14 -0.14)">
       <use xlink:href="#DejaVuSans-33"/>
      </g>
     </g>
    </g>
    <g id="ytick_5">
     <g id="line2d_10">
      <g>
       <use xlink:href="#ma844113fd5" x="36.457115" y="36.909583" style="stroke: #000000; stroke-width: 0.8"/>
      </g>
     </g>
     <g id="text_12">
      <!-- 4 -->
      <g transform="translate(20.549615 42.22849) scale(0.14 -0.14)">
       <use xlink:href="#DejaVuSans-34"/>
      </g>
     </g>
    </g>
    <g id="text_13">
     <!-- PDF -->
     <g transform="translate(13.638053 145.406406) rotate(-90) scale(0.14 -0.14)">
      <defs>
       <path id="DejaVuSans-44" d="M 1259 4147 
L 1259 519 
L 2022 519 
Q 2988 519 3436 956 
Q 3884 1394 3884 2338 
Q 3884 3275 3436 3711 
Q 2988 4147 2022 4147 
L 1259 4147 
z
M 628 4666 
L 1925 4666 
Q 3281 4666 3915 4102 
Q 4550 3538 4550 2338 
Q 4550 1131 3912 565 
Q 3275 0 1925 0 
L 628 0 
L 628 4666 
z
" transform="scale(0.015625)"/>
       <path id="DejaVuSans-46" d="M 628 4666 
L 3309 4666 
L 3309 4134 
L 1259 4134 
L 1259 2759 
L 3109 2759 
L 3109 2228 
L 1259 2228 
L 1259 0 
L 628 0 
L 628 4666 
z
" transform="scale(0.015625)"/>
      </defs>
      <use xlink:href="#DejaVuSans-50"/>
      <use xlink:href="#DejaVuSans-44" x="60.302734"/>
      <use xlink:href="#DejaVuSans-46" x="137.304688"/>
     </g>
    </g>
    <g id="text_14">
     <!-- 1e−4 -->
     <g transform="translate(36.457115 13.638052) scale(0.14 -0.14)">
      <defs>
       <path id="DejaVuSans-2212" d="M 678 2272 
L 4684 2272 
L 4684 1741 
L 678 1741 
L 678 2272 
z
" transform="scale(0.015625)"/>
      </defs>
      <use xlink:href="#DejaVuSans-31"/>
      <use xlink:href="#DejaVuSans-65" x="63.623047"/>
      <use xlink:href="#DejaVuSans-2212" x="125.146484"/>
      <use xlink:href="#DejaVuSans-34" x="208.935547"/>
     </g>
    </g>
   </g>
   <g id="line2d_11">
    <path d="M 152.901963 245.737697 
L 154.062404 245.508297 
L 155.222846 245.239774 
L 156.383288 244.926743 
L 157.543729 244.563328 
L 158.704171 244.143167 
L 159.864613 243.659416 
L 161.025055 243.104781 
L 162.185496 242.471548 
L 163.345938 241.751637 
L 164.50638 240.936668 
L 165.666822 240.018045 
L 166.827263 238.987059 
L 167.987705 237.835006 
L 169.148147 236.553323 
L 170.308588 235.133748 
L 171.46903 233.568485 
L 172.629472 231.850398 
L 173.789914 229.973203 
L 174.950355 227.931677 
L 176.110797 225.721876 
L 177.271239 223.341344 
L 178.43168 220.789327 
L 179.592122 218.066977 
L 180.752564 215.177538 
L 181.913006 212.126515 
L 183.073447 208.921816 
L 184.233889 205.573861 
L 185.394331 202.095652 
L 186.554773 198.502805 
L 187.715214 194.81353 
L 188.875656 191.048559 
L 190.036098 187.231026 
L 191.196539 183.386288 
L 192.356981 179.541693 
L 193.517423 175.726293 
L 194.677865 171.970513 
L 195.838306 168.305764 
L 196.998748 164.76403 
L 198.15919 161.377408 
L 199.319631 158.17764 
L 200.480073 155.195618 
L 201.640515 152.460894 
L 202.800957 150.001196 
L 203.961398 147.841957 
L 205.12184 146.005882 
L 206.282282 144.512549 
L 207.442723 143.378063 
L 208.603165 142.614763 
L 209.763607 142.231006 
L 210.924049 142.231006 
L 212.08449 142.614763 
L 213.244932 143.378063 
L 214.405374 144.512549 
L 215.565816 146.005882 
L 216.726257 147.841957 
L 217.886699 150.001196 
L 219.047141 152.460894 
L 220.207582 155.195618 
L 221.368024 158.17764 
L 222.528466 161.377408 
L 223.688908 164.76403 
L 224.849349 168.305764 
L 226.009791 171.970513 
L 227.170233 175.726293 
L 228.330674 179.541693 
L 229.491116 183.386288 
L 230.651558 187.231026 
L 231.812 191.048559 
L 232.972441 194.81353 
L 234.132883 198.502805 
L 235.293325 202.095652 
L 236.453767 205.573861 
L 237.614208 208.921816 
L 238.77465 212.126515 
L 239.935092 215.177538 
L 241.095533 218.066977 
L 242.255975 220.789327 
L 243.416417 223.341344 
L 244.576859 225.721876 
L 245.7373 227.931677 
L 246.897742 229.973203 
L 248.058184 231.850398 
L 249.218625 233.568485 
L 250.379067 235.133748 
L 251.539509 236.553323 
L 252.699951 237.835006 
L 253.860392 238.987059 
L 255.020834 240.018045 
L 256.181276 240.936668 
L 257.341717 241.751637 
L 258.502159 242.471548 
L 259.662601 243.104781 
L 260.823043 243.659416 
L 261.983484 244.143167 
L 263.143926 244.563328 
L 264.304368 244.926743 
L 265.46481 245.239774 
L 266.625251 245.508297 
L 267.785693 245.737697 
" clip-path="url(#p8946902c4a)" style="fill: none; stroke: #2ca02c; stroke-width: 1.5; stroke-linecap: square"/>
   </g>
   <g id="patch_33">
    <path d="M 36.457115 246.90101 
L 36.457115 16.638052 
" style="fill: none; stroke: #000000; stroke-width: 0.8; stroke-linejoin: miter; stroke-linecap: square"/>
   </g>
   <g id="patch_34">
    <path d="M 278.80134 246.90101 
L 278.80134 16.638052 
" style="fill: none; stroke: #000000; stroke-width: 0.8; stroke-linejoin: miter; stroke-linecap: square"/>
   </g>
   <g id="patch_35">
    <path d="M 36.457115 246.90101 
L 278.80134 246.90101 
" style="fill: none; stroke: #000000; stroke-width: 0.8; stroke-linejoin: miter; stroke-linecap: square"/>
   </g>
   <g id="patch_36">
    <path d="M 36.457115 16.638052 
L 278.80134 16.638052 
" style="fill: none; stroke: #000000; stroke-width: 0.8; stroke-linejoin: miter; stroke-linecap: square"/>
   </g>
   <g id="legend_1">
    <g id="patch_37">
     <path d="M 162.33884 68.936802 
L 269.00134 68.936802 
Q 271.80134 68.936802 271.80134 66.136802 
L 271.80134 26.438053 
Q 271.80134 23.638053 269.00134 23.638053 
L 162.33884 23.638053 
Q 159.53884 23.638053 159.53884 26.438053 
L 159.53884 66.136802 
Q 159.53884 68.936802 162.33884 68.936802 
z
" style="fill: #ffffff; opacity: 0.8; stroke: #cccccc; stroke-linejoin: miter"/>
    </g>
    <g id="line2d_12">
     <path d="M 165.13884 34.975865 
L 179.13884 34.975865 
L 193.13884 34.975865 
" style="fill: none; stroke: #2ca02c; stroke-width: 1.5; stroke-linecap: square"/>
    </g>
    <g id="text_15">
     <!-- Prior -->
     <g transform="translate(204.33884 39.875865) scale(0.14 -0.14)">
      <defs>
       <path id="DejaVuSans-72" d="M 2631 2963 
Q 2534 3019 2420 3045 
Q 2306 3072 2169 3072 
Q 1681 3072 1420 2755 
Q 1159 2438 1159 1844 
L 1159 0 
L 581 0 
L 581 3500 
L 1159 3500 
L 1159 2956 
Q 1341 3275 1631 3429 
Q 1922 3584 2338 3584 
Q 2397 3584 2469 3576 
Q 2541 3569 2628 3553 
L 2631 2963 
z
" transform="scale(0.015625)"/>
       <path id="DejaVuSans-69" d="M 603 3500 
L 1178 3500 
L 1178 0 
L 603 0 
L 603 3500 
z
M 603 4863 
L 1178 4863 
L 1178 4134 
L 603 4134 
L 603 4863 
z
" transform="scale(0.015625)"/>
       <path id="DejaVuSans-6f" d="M 1959 3097 
Q 1497 3097 1228 2736 
Q 959 2375 959 1747 
Q 959 1119 1226 758 
Q 1494 397 1959 397 
Q 2419 397 2687 759 
Q 2956 1122 2956 1747 
Q 2956 2369 2687 2733 
Q 2419 3097 1959 3097 
z
M 1959 3584 
Q 2709 3584 3137 3096 
Q 3566 2609 3566 1747 
Q 3566 888 3137 398 
Q 2709 -91 1959 -91 
Q 1206 -91 779 398 
Q 353 888 353 1747 
Q 353 2609 779 3096 
Q 1206 3584 1959 3584 
z
" transform="scale(0.015625)"/>
      </defs>
      <use xlink:href="#DejaVuSans-50"/>
      <use xlink:href="#DejaVuSans-72" x="58.552734"/>
      <use xlink:href="#DejaVuSans-69" x="99.666016"/>
      <use xlink:href="#DejaVuSans-6f" x="127.449219"/>
      <use xlink:href="#DejaVuSans-72" x="188.630859"/>
     </g>
    </g>
    <g id="patch_38">
     <path d="M 165.13884 60.42524 
L 193.13884 60.42524 
L 193.13884 50.62524 
L 165.13884 50.62524 
z
" style="fill: #1f77b4"/>
    </g>
    <g id="text_16">
     <!-- Posterior -->
     <g transform="translate(204.33884 60.42524) scale(0.14 -0.14)">
      <defs>
       <path id="DejaVuSans-73" d="M 2834 3397 
L 2834 2853 
Q 2591 2978 2328 3040 
Q 2066 3103 1784 3103 
Q 1356 3103 1142 2972 
Q 928 2841 928 2578 
Q 928 2378 1081 2264 
Q 1234 2150 1697 2047 
L 1894 2003 
Q 2506 1872 2764 1633 
Q 3022 1394 3022 966 
Q 3022 478 2636 193 
Q 2250 -91 1575 -91 
Q 1294 -91 989 -36 
Q 684 19 347 128 
L 347 722 
Q 666 556 975 473 
Q 1284 391 1588 391 
Q 1994 391 2212 530 
Q 2431 669 2431 922 
Q 2431 1156 2273 1281 
Q 2116 1406 1581 1522 
L 1381 1569 
Q 847 1681 609 1914 
Q 372 2147 372 2553 
Q 372 3047 722 3315 
Q 1072 3584 1716 3584 
Q 2034 3584 2315 3537 
Q 2597 3491 2834 3397 
z
" transform="scale(0.015625)"/>
       <path id="DejaVuSans-74" d="M 1172 4494 
L 1172 3500 
L 2356 3500 
L 2356 3053 
L 1172 3053 
L 1172 1153 
Q 1172 725 1289 603 
Q 1406 481 1766 481 
L 2356 481 
L 2356 0 
L 1766 0 
Q 1100 0 847 248 
Q 594 497 594 1153 
L 594 3053 
L 172 3053 
L 172 3500 
L 594 3500 
L 594 4494 
L 1172 4494 
z
" transform="scale(0.015625)"/>
      </defs>
      <use xlink:href="#DejaVuSans-50"/>
      <use xlink:href="#DejaVuSans-6f" x="56.677734"/>
      <use xlink:href="#DejaVuSans-73" x="117.859375"/>
      <use xlink:href="#DejaVuSans-74" x="169.958984"/>
      <use xlink:href="#DejaVuSans-65" x="209.167969"/>
      <use xlink:href="#DejaVuSans-72" x="270.691406"/>
      <use xlink:href="#DejaVuSans-69" x="311.804688"/>
      <use xlink:href="#DejaVuSans-6f" x="339.587891"/>
      <use xlink:href="#DejaVuSans-72" x="400.769531"/>
     </g>
    </g>
   </g>
  </g>
  <g id="axes_2">
   <g id="patch_39">
    <path d="M 338.366226 246.90101 
L 580.71045 246.90101 
L 580.71045 16.638052 
L 338.366226 16.638052 
z
" style="fill: #ffffff"/>
   </g>
   <g id="patch_40">
    <path d="M 349.381872 246.90101 
L 356.013365 246.90101 
L 356.013365 246.105934 
L 349.381872 246.105934 
z
" clip-path="url(#p4eb34fe24d)" style="fill: #1f77b4"/>
   </g>
   <g id="patch_41">
    <path d="M 356.750198 246.90101 
L 363.381691 246.90101 
L 363.381691 245.310858 
L 356.750198 245.310858 
z
" clip-path="url(#p4eb34fe24d)" style="fill: #1f77b4"/>
   </g>
   <g id="patch_42">
    <path d="M 364.118523 246.90101 
L 370.750016 246.90101 
L 370.750016 246.105934 
L 364.118523 246.105934 
z
" clip-path="url(#p4eb34fe24d)" style="fill: #1f77b4"/>
   </g>
   <g id="patch_43">
    <path d="M 371.486849 246.90101 
L 378.118342 246.90101 
L 378.118342 245.310858 
L 371.486849 245.310858 
z
" clip-path="url(#p4eb34fe24d)" style="fill: #1f77b4"/>
   </g>
   <g id="patch_44">
    <path d="M 378.855174 246.90101 
L 385.486667 246.90101 
L 385.486667 240.937939 
L 378.855174 240.937939 
z
" clip-path="url(#p4eb34fe24d)" style="fill: #1f77b4"/>
   </g>
   <g id="patch_45">
    <path d="M 386.2235 246.90101 
L 392.854993 246.90101 
L 392.854993 225.831493 
L 386.2235 225.831493 
z
" clip-path="url(#p4eb34fe24d)" style="fill: #1f77b4"/>
   </g>
   <g id="patch_46">
    <path d="M 393.591825 246.90101 
L 400.223318 246.90101 
L 400.223318 218.675808 
L 393.591825 218.675808 
z
" clip-path="url(#p4eb34fe24d)" style="fill: #1f77b4"/>
   </g>
   <g id="patch_47">
    <path d="M 400.960151 246.90101 
L 407.591644 246.90101 
L 407.591644 193.233372 
L 400.960151 193.233372 
z
" clip-path="url(#p4eb34fe24d)" style="fill: #1f77b4"/>
   </g>
   <g id="patch_48">
    <path d="M 408.328476 246.90101 
L 414.959969 246.90101 
L 414.959969 178.524464 
L 408.328476 178.524464 
z
" clip-path="url(#p4eb34fe24d)" style="fill: #1f77b4"/>
   </g>
   <g id="patch_49">
    <path d="M 415.696802 246.90101 
L 422.328294 246.90101 
L 422.328294 156.262333 
L 415.696802 156.262333 
z
" clip-path="url(#p4eb34fe24d)" style="fill: #1f77b4"/>
   </g>
   <g id="patch_50">
    <path d="M 423.065127 246.90101 
L 429.69662 246.90101 
L 429.69662 117.701141 
L 423.065127 117.701141 
z
" clip-path="url(#p4eb34fe24d)" style="fill: #1f77b4"/>
   </g>
   <g id="patch_51">
    <path d="M 430.433452 246.90101 
L 437.064945 246.90101 
L 437.064945 99.811929 
L 430.433452 99.811929 
z
" clip-path="url(#p4eb34fe24d)" style="fill: #1f77b4"/>
   </g>
   <g id="patch_52">
    <path d="M 437.801778 246.90101 
L 444.433271 246.90101 
L 444.433271 54.49259 
L 437.801778 54.49259 
z
" clip-path="url(#p4eb34fe24d)" style="fill: #1f77b4"/>
   </g>
   <g id="patch_53">
    <path d="M 445.170103 246.90101 
L 451.801596 246.90101 
L 451.801596 37.398454 
L 445.170103 37.398454 
z
" clip-path="url(#p4eb34fe24d)" style="fill: #1f77b4"/>
   </g>
   <g id="patch_54">
    <path d="M 452.538429 246.90101 
L 459.169922 246.90101 
L 459.169922 58.865509 
L 452.538429 58.865509 
z
" clip-path="url(#p4eb34fe24d)" style="fill: #1f77b4"/>
   </g>
   <g id="patch_55">
    <path d="M 459.906754 246.90101 
L 466.538247 246.90101 
L 466.538247 46.144291 
L 459.906754 46.144291 
z
" clip-path="url(#p4eb34fe24d)" style="fill: #1f77b4"/>
   </g>
   <g id="patch_56">
    <path d="M 467.27508 246.90101 
L 473.906573 246.90101 
L 473.906573 65.226118 
L 467.27508 65.226118 
z
" clip-path="url(#p4eb34fe24d)" style="fill: #1f77b4"/>
   </g>
   <g id="patch_57">
    <path d="M 474.643405 246.90101 
L 481.274898 246.90101 
L 481.274898 102.992233 
L 474.643405 102.992233 
z
" clip-path="url(#p4eb34fe24d)" style="fill: #1f77b4"/>
   </g>
   <g id="patch_58">
    <path d="M 482.011731 246.90101 
L 488.643224 246.90101 
L 488.643224 127.639593 
L 482.011731 127.639593 
z
" clip-path="url(#p4eb34fe24d)" style="fill: #1f77b4"/>
   </g>
   <g id="patch_59">
    <path d="M 489.380056 246.90101 
L 496.011549 246.90101 
L 496.011549 169.381089 
L 489.380056 169.381089 
z
" clip-path="url(#p4eb34fe24d)" style="fill: #1f77b4"/>
   </g>
   <g id="patch_60">
    <path d="M 496.748382 246.90101 
L 503.379875 246.90101 
L 503.379875 192.438296 
L 496.748382 192.438296 
z
" clip-path="url(#p4eb34fe24d)" style="fill: #1f77b4"/>
   </g>
   <g id="patch_61">
    <path d="M 504.116707 246.90101 
L 510.7482 246.90101 
L 510.7482 213.507813 
L 504.116707 213.507813 
z
" clip-path="url(#p4eb34fe24d)" style="fill: #1f77b4"/>
   </g>
   <g id="patch_62">
    <path d="M 511.485033 246.90101 
L 518.116525 246.90101 
L 518.116525 229.806874 
L 511.485033 229.806874 
z
" clip-path="url(#p4eb34fe24d)" style="fill: #1f77b4"/>
   </g>
   <g id="patch_63">
    <path d="M 518.853358 246.90101 
L 525.484851 246.90101 
L 525.484851 237.757635 
L 518.853358 237.757635 
z
" clip-path="url(#p4eb34fe24d)" style="fill: #1f77b4"/>
   </g>
   <g id="patch_64">
    <path d="M 526.221684 246.90101 
L 532.853176 246.90101 
L 532.853176 240.142863 
L 526.221684 240.142863 
z
" clip-path="url(#p4eb34fe24d)" style="fill: #1f77b4"/>
   </g>
   <g id="patch_65">
    <path d="M 533.590009 246.90101 
L 540.221502 246.90101 
L 540.221502 244.91332 
L 533.590009 244.91332 
z
" clip-path="url(#p4eb34fe24d)" style="fill: #1f77b4"/>
   </g>
   <g id="patch_66">
    <path d="M 540.958334 246.90101 
L 547.589827 246.90101 
L 547.589827 245.708396 
L 540.958334 245.708396 
z
" clip-path="url(#p4eb34fe24d)" style="fill: #1f77b4"/>
   </g>
   <g id="patch_67">
    <path d="M 548.32666 246.90101 
L 554.958153 246.90101 
L 554.958153 246.503472 
L 548.32666 246.503472 
z
" clip-path="url(#p4eb34fe24d)" style="fill: #1f77b4"/>
   </g>
   <g id="patch_68">
    <path d="M 555.694985 246.90101 
L 562.326478 246.90101 
L 562.326478 246.105934 
L 555.694985 246.105934 
z
" clip-path="url(#p4eb34fe24d)" style="fill: #1f77b4"/>
   </g>
   <g id="patch_69">
    <path d="M 563.063311 246.90101 
L 569.694804 246.90101 
L 569.694804 246.503472 
L 563.063311 246.503472 
z
" clip-path="url(#p4eb34fe24d)" style="fill: #1f77b4"/>
   </g>
   <g id="matplotlib.axis_3">
    <g id="xtick_6">
     <g id="line2d_13">
      <g>
       <use xlink:href="#mc118fe6e53" x="348.552565" y="246.90101" style="stroke: #000000; stroke-width: 0.8"/>
      </g>
     </g>
     <g id="text_17">
      <!-- 8800 -->
      <g transform="translate(330.737565 264.538822) scale(0.14 -0.14)">
       <defs>
        <path id="DejaVuSans-38" d="M 2034 2216 
Q 1584 2216 1326 1975 
Q 1069 1734 1069 1313 
Q 1069 891 1326 650 
Q 1584 409 2034 409 
Q 2484 409 2743 651 
Q 3003 894 3003 1313 
Q 3003 1734 2745 1975 
Q 2488 2216 2034 2216 
z
M 1403 2484 
Q 997 2584 770 2862 
Q 544 3141 544 3541 
Q 544 4100 942 4425 
Q 1341 4750 2034 4750 
Q 2731 4750 3128 4425 
Q 3525 4100 3525 3541 
Q 3525 3141 3298 2862 
Q 3072 2584 2669 2484 
Q 3125 2378 3379 2068 
Q 3634 1759 3634 1313 
Q 3634 634 3220 271 
Q 2806 -91 2034 -91 
Q 1263 -91 848 271 
Q 434 634 434 1313 
Q 434 1759 690 2068 
Q 947 2378 1403 2484 
z
M 1172 3481 
Q 1172 3119 1398 2916 
Q 1625 2713 2034 2713 
Q 2441 2713 2670 2916 
Q 2900 3119 2900 3481 
Q 2900 3844 2670 4047 
Q 2441 4250 2034 4250 
Q 1625 4250 1398 4047 
Q 1172 3844 1172 3481 
z
" transform="scale(0.015625)"/>
       </defs>
       <use xlink:href="#DejaVuSans-38"/>
       <use xlink:href="#DejaVuSans-38" x="63.623047"/>
       <use xlink:href="#DejaVuSans-30" x="127.246094"/>
       <use xlink:href="#DejaVuSans-30" x="190.869141"/>
      </g>
     </g>
    </g>
    <g id="xtick_7">
     <g id="line2d_14">
      <g>
       <use xlink:href="#mc118fe6e53" x="401.815292" y="246.90101" style="stroke: #000000; stroke-width: 0.8"/>
      </g>
     </g>
     <g id="text_18">
      <!-- 9000 -->
      <g transform="translate(384.000292 264.538822) scale(0.14 -0.14)">
       <defs>
        <path id="DejaVuSans-39" d="M 703 97 
L 703 672 
Q 941 559 1184 500 
Q 1428 441 1663 441 
Q 2288 441 2617 861 
Q 2947 1281 2994 2138 
Q 2813 1869 2534 1725 
Q 2256 1581 1919 1581 
Q 1219 1581 811 2004 
Q 403 2428 403 3163 
Q 403 3881 828 4315 
Q 1253 4750 1959 4750 
Q 2769 4750 3195 4129 
Q 3622 3509 3622 2328 
Q 3622 1225 3098 567 
Q 2575 -91 1691 -91 
Q 1453 -91 1209 -44 
Q 966 3 703 97 
z
M 1959 2075 
Q 2384 2075 2632 2365 
Q 2881 2656 2881 3163 
Q 2881 3666 2632 3958 
Q 2384 4250 1959 4250 
Q 1534 4250 1286 3958 
Q 1038 3666 1038 3163 
Q 1038 2656 1286 2365 
Q 1534 2075 1959 2075 
z
" transform="scale(0.015625)"/>
       </defs>
       <use xlink:href="#DejaVuSans-39"/>
       <use xlink:href="#DejaVuSans-30" x="63.623047"/>
       <use xlink:href="#DejaVuSans-30" x="127.246094"/>
       <use xlink:href="#DejaVuSans-30" x="190.869141"/>
      </g>
     </g>
    </g>
    <g id="xtick_8">
     <g id="line2d_15">
      <g>
       <use xlink:href="#mc118fe6e53" x="455.078019" y="246.90101" style="stroke: #000000; stroke-width: 0.8"/>
      </g>
     </g>
     <g id="text_19">
      <!-- 9200 -->
      <g transform="translate(437.263019 264.538822) scale(0.14 -0.14)">
       <use xlink:href="#DejaVuSans-39"/>
       <use xlink:href="#DejaVuSans-32" x="63.623047"/>
       <use xlink:href="#DejaVuSans-30" x="127.246094"/>
       <use xlink:href="#DejaVuSans-30" x="190.869141"/>
      </g>
     </g>
    </g>
    <g id="xtick_9">
     <g id="line2d_16">
      <g>
       <use xlink:href="#mc118fe6e53" x="508.340746" y="246.90101" style="stroke: #000000; stroke-width: 0.8"/>
      </g>
     </g>
     <g id="text_20">
      <!-- 9400 -->
      <g transform="translate(490.525746 264.538822) scale(0.14 -0.14)">
       <use xlink:href="#DejaVuSans-39"/>
       <use xlink:href="#DejaVuSans-34" x="63.623047"/>
       <use xlink:href="#DejaVuSans-30" x="127.246094"/>
       <use xlink:href="#DejaVuSans-30" x="190.869141"/>
      </g>
     </g>
    </g>
    <g id="xtick_10">
     <g id="line2d_17">
      <g>
       <use xlink:href="#mc118fe6e53" x="561.603473" y="246.90101" style="stroke: #000000; stroke-width: 0.8"/>
      </g>
     </g>
     <g id="text_21">
      <!-- 9600 -->
      <g transform="translate(543.788473 264.538822) scale(0.14 -0.14)">
       <defs>
        <path id="DejaVuSans-36" d="M 2113 2584 
Q 1688 2584 1439 2293 
Q 1191 2003 1191 1497 
Q 1191 994 1439 701 
Q 1688 409 2113 409 
Q 2538 409 2786 701 
Q 3034 994 3034 1497 
Q 3034 2003 2786 2293 
Q 2538 2584 2113 2584 
z
M 3366 4563 
L 3366 3988 
Q 3128 4100 2886 4159 
Q 2644 4219 2406 4219 
Q 1781 4219 1451 3797 
Q 1122 3375 1075 2522 
Q 1259 2794 1537 2939 
Q 1816 3084 2150 3084 
Q 2853 3084 3261 2657 
Q 3669 2231 3669 1497 
Q 3669 778 3244 343 
Q 2819 -91 2113 -91 
Q 1303 -91 875 529 
Q 447 1150 447 2328 
Q 447 3434 972 4092 
Q 1497 4750 2381 4750 
Q 2619 4750 2861 4703 
Q 3103 4656 3366 4563 
z
" transform="scale(0.015625)"/>
       </defs>
       <use xlink:href="#DejaVuSans-39"/>
       <use xlink:href="#DejaVuSans-36" x="63.623047"/>
       <use xlink:href="#DejaVuSans-30" x="127.246094"/>
       <use xlink:href="#DejaVuSans-30" x="190.869141"/>
      </g>
     </g>
    </g>
    <g id="text_22">
     <!-- $E_2$ [MPa] -->
     <g transform="translate(429.508338 282.088197) scale(0.14 -0.14)">
      <use xlink:href="#DejaVuSans-Oblique-45" transform="translate(0 0.015625)"/>
      <use xlink:href="#DejaVuSans-32" transform="translate(63.183594 -16.390625) scale(0.7)"/>
      <use xlink:href="#DejaVuSans-20" transform="translate(110.454102 0.015625)"/>
      <use xlink:href="#DejaVuSans-5b" transform="translate(142.241211 0.015625)"/>
      <use xlink:href="#DejaVuSans-4d" transform="translate(181.254883 0.015625)"/>
      <use xlink:href="#DejaVuSans-50" transform="translate(267.53418 0.015625)"/>
      <use xlink:href="#DejaVuSans-61" transform="translate(327.836914 0.015625)"/>
      <use xlink:href="#DejaVuSans-5d" transform="translate(389.116211 0.015625)"/>
     </g>
    </g>
   </g>
   <g id="matplotlib.axis_4">
    <g id="ytick_6">
     <g id="line2d_18">
      <g>
       <use xlink:href="#ma844113fd5" x="338.366226" y="246.90101" style="stroke: #000000; stroke-width: 0.8"/>
      </g>
     </g>
     <g id="text_23">
      <!-- 0.000 -->
      <g transform="translate(291.286851 252.219916) scale(0.14 -0.14)">
       <use xlink:href="#DejaVuSans-30"/>
       <use xlink:href="#DejaVuSans-2e" x="63.623047"/>
       <use xlink:href="#DejaVuSans-30" x="95.410156"/>
       <use xlink:href="#DejaVuSans-30" x="159.033203"/>
       <use xlink:href="#DejaVuSans-30" x="222.65625"/>
      </g>
     </g>
    </g>
    <g id="ytick_7">
     <g id="line2d_19">
      <g>
       <use xlink:href="#ma844113fd5" x="338.366226" y="191.905895" style="stroke: #000000; stroke-width: 0.8"/>
      </g>
     </g>
     <g id="text_24">
      <!-- 0.001 -->
      <g transform="translate(291.286851 197.224801) scale(0.14 -0.14)">
       <use xlink:href="#DejaVuSans-30"/>
       <use xlink:href="#DejaVuSans-2e" x="63.623047"/>
       <use xlink:href="#DejaVuSans-30" x="95.410156"/>
       <use xlink:href="#DejaVuSans-30" x="159.033203"/>
       <use xlink:href="#DejaVuSans-31" x="222.65625"/>
      </g>
     </g>
    </g>
    <g id="ytick_8">
     <g id="line2d_20">
      <g>
       <use xlink:href="#ma844113fd5" x="338.366226" y="136.91078" style="stroke: #000000; stroke-width: 0.8"/>
      </g>
     </g>
     <g id="text_25">
      <!-- 0.002 -->
      <g transform="translate(291.286851 142.229686) scale(0.14 -0.14)">
       <use xlink:href="#DejaVuSans-30"/>
       <use xlink:href="#DejaVuSans-2e" x="63.623047"/>
       <use xlink:href="#DejaVuSans-30" x="95.410156"/>
       <use xlink:href="#DejaVuSans-30" x="159.033203"/>
       <use xlink:href="#DejaVuSans-32" x="222.65625"/>
      </g>
     </g>
    </g>
    <g id="ytick_9">
     <g id="line2d_21">
      <g>
       <use xlink:href="#ma844113fd5" x="338.366226" y="81.915665" style="stroke: #000000; stroke-width: 0.8"/>
      </g>
     </g>
     <g id="text_26">
      <!-- 0.003 -->
      <g transform="translate(291.286851 87.234571) scale(0.14 -0.14)">
       <use xlink:href="#DejaVuSans-30"/>
       <use xlink:href="#DejaVuSans-2e" x="63.623047"/>
       <use xlink:href="#DejaVuSans-30" x="95.410156"/>
       <use xlink:href="#DejaVuSans-30" x="159.033203"/>
       <use xlink:href="#DejaVuSans-33" x="222.65625"/>
      </g>
     </g>
    </g>
    <g id="ytick_10">
     <g id="line2d_22">
      <g>
       <use xlink:href="#ma844113fd5" x="338.366226" y="26.92055" style="stroke: #000000; stroke-width: 0.8"/>
      </g>
     </g>
     <g id="text_27">
      <!-- 0.004 -->
      <g transform="translate(291.286851 32.239456) scale(0.14 -0.14)">
       <use xlink:href="#DejaVuSans-30"/>
       <use xlink:href="#DejaVuSans-2e" x="63.623047"/>
       <use xlink:href="#DejaVuSans-30" x="95.410156"/>
       <use xlink:href="#DejaVuSans-30" x="159.033203"/>
       <use xlink:href="#DejaVuSans-34" x="222.65625"/>
      </g>
     </g>
    </g>
   </g>
   <g id="line2d_23">
    <path d="M 372.520792 244.46371 
L 374.134814 243.983086 
L 375.748836 243.420492 
L 377.362858 242.764648 
L 378.97688 242.003245 
L 380.590902 241.122949 
L 382.204924 240.109425 
L 383.818946 238.947388 
L 385.432968 237.620678 
L 387.04699 236.112365 
L 388.661012 234.404892 
L 390.275034 232.480252 
L 391.889056 230.320195 
L 393.503078 227.906485 
L 395.117101 225.221183 
L 396.731123 222.246977 
L 398.345145 218.967537 
L 399.959167 215.367908 
L 401.573189 211.434926 
L 403.187211 207.157649 
L 404.801233 202.527812 
L 406.415255 197.540269 
L 408.029277 192.193443 
L 409.643299 186.489745 
L 411.257321 180.435973 
L 412.871343 174.043661 
L 414.485365 167.329375 
L 416.099387 160.314948 
L 417.713409 153.027622 
L 419.327431 145.500114 
L 420.941453 137.770575 
L 422.555475 129.882443 
L 424.169497 121.884187 
L 425.783519 113.828932 
L 427.397541 105.773976 
L 429.011563 97.780189 
L 430.625585 89.911313 
L 432.239607 82.233161 
L 433.853629 74.81274 
L 435.467651 67.717302 
L 437.081673 61.013347 
L 438.695695 54.765601 
L 440.309717 49.035979 
L 441.923739 43.882573 
L 443.537761 39.35867 
L 445.151783 35.511841 
L 446.765805 32.383103 
L 448.379827 30.006197 
L 449.993849 28.40698 
L 451.607871 27.602955 
L 453.221893 27.602955 
L 454.835916 28.40698 
L 456.449938 30.006197 
L 458.06396 32.383103 
L 459.677982 35.511841 
L 461.292004 39.35867 
L 462.906026 43.882573 
L 464.520048 49.035979 
L 466.13407 54.765601 
L 467.748092 61.013347 
L 469.362114 67.717302 
L 470.976136 74.81274 
L 472.590158 82.233161 
L 474.20418 89.911313 
L 475.818202 97.780189 
L 477.432224 105.773976 
L 479.046246 113.828932 
L 480.660268 121.884187 
L 482.27429 129.882443 
L 483.888312 137.770575 
L 485.502334 145.500114 
L 487.116356 153.027622 
L 488.730378 160.314948 
L 490.3444 167.329375 
L 491.958422 174.043661 
L 493.572444 180.435973 
L 495.186466 186.489745 
L 496.800488 192.193443 
L 498.41451 197.540269 
L 500.028532 202.527812 
L 501.642554 207.157649 
L 503.256576 211.434926 
L 504.870598 215.367908 
L 506.48462 218.967537 
L 508.098642 222.246977 
L 509.712664 225.221183 
L 511.326686 227.906485 
L 512.940709 230.320195 
L 514.554731 232.480252 
L 516.168753 234.404892 
L 517.782775 236.112365 
L 519.396797 237.620678 
L 521.010819 238.947388 
L 522.624841 240.109425 
L 524.238863 241.122949 
L 525.852885 242.003245 
L 527.466907 242.764648 
L 529.080929 243.420492 
L 530.694951 243.983086 
L 532.308973 244.46371 
" clip-path="url(#p4eb34fe24d)" style="fill: none; stroke: #2ca02c; stroke-width: 1.5; stroke-linecap: square"/>
   </g>
   <g id="patch_70">
    <path d="M 338.366226 246.90101 
L 338.366226 16.638052 
" style="fill: none; stroke: #000000; stroke-width: 0.8; stroke-linejoin: miter; stroke-linecap: square"/>
   </g>
   <g id="patch_71">
    <path d="M 580.71045 246.90101 
L 580.71045 16.638052 
" style="fill: none; stroke: #000000; stroke-width: 0.8; stroke-linejoin: miter; stroke-linecap: square"/>
   </g>
   <g id="patch_72">
    <path d="M 338.366226 246.90101 
L 580.71045 246.90101 
" style="fill: none; stroke: #000000; stroke-width: 0.8; stroke-linejoin: miter; stroke-linecap: square"/>
   </g>
   <g id="patch_73">
    <path d="M 338.366226 16.638052 
L 580.71045 16.638052 
" style="fill: none; stroke: #000000; stroke-width: 0.8; stroke-linejoin: miter; stroke-linecap: square"/>
   </g>
  </g>
  <g id="axes_3">
   <g id="patch_74">
    <path d="M 611.52593 246.90101 
L 853.870155 246.90101 
L 853.870155 16.638052 
L 611.52593 16.638052 
z
" style="fill: #ffffff"/>
   </g>
   <g id="patch_75">
    <path d="M 622.541577 246.90101 
L 629.17307 246.90101 
L 629.17307 246.599353 
L 622.541577 246.599353 
z
" clip-path="url(#p875ad88689)" style="fill: #1f77b4"/>
   </g>
   <g id="patch_76">
    <path d="M 629.909902 246.90101 
L 636.541395 246.90101 
L 636.541395 246.599353 
L 629.909902 246.599353 
z
" clip-path="url(#p875ad88689)" style="fill: #1f77b4"/>
   </g>
   <g id="patch_77">
    <path d="M 637.278228 246.90101 
L 643.909721 246.90101 
L 643.909721 246.297697 
L 637.278228 246.297697 
z
" clip-path="url(#p875ad88689)" style="fill: #1f77b4"/>
   </g>
   <g id="patch_78">
    <path d="M 644.646553 246.90101 
L 651.278046 246.90101 
L 651.278046 245.694383 
L 644.646553 245.694383 
z
" clip-path="url(#p875ad88689)" style="fill: #1f77b4"/>
   </g>
   <g id="patch_79">
    <path d="M 652.014879 246.90101 
L 658.646372 246.90101 
L 658.646372 246.297697 
L 652.014879 246.297697 
z
" clip-path="url(#p875ad88689)" style="fill: #1f77b4"/>
   </g>
   <g id="patch_80">
    <path d="M 659.383204 246.90101 
L 666.014697 246.90101 
L 666.014697 245.09107 
L 659.383204 245.09107 
z
" clip-path="url(#p875ad88689)" style="fill: #1f77b4"/>
   </g>
   <g id="patch_81">
    <path d="M 666.75153 246.90101 
L 673.383023 246.90101 
L 673.383023 243.582786 
L 666.75153 243.582786 
z
" clip-path="url(#p875ad88689)" style="fill: #1f77b4"/>
   </g>
   <g id="patch_82">
    <path d="M 674.119855 246.90101 
L 680.751348 246.90101 
L 680.751348 240.867876 
L 674.119855 240.867876 
z
" clip-path="url(#p875ad88689)" style="fill: #1f77b4"/>
   </g>
   <g id="patch_83">
    <path d="M 681.488181 246.90101 
L 688.119674 246.90101 
L 688.119674 236.946339 
L 681.488181 236.946339 
z
" clip-path="url(#p875ad88689)" style="fill: #1f77b4"/>
   </g>
   <g id="patch_84">
    <path d="M 688.856506 246.90101 
L 695.487999 246.90101 
L 695.487999 230.309891 
L 688.856506 230.309891 
z
" clip-path="url(#p875ad88689)" style="fill: #1f77b4"/>
   </g>
   <g id="patch_85">
    <path d="M 696.224832 246.90101 
L 702.856324 246.90101 
L 702.856324 215.528713 
L 696.224832 215.528713 
z
" clip-path="url(#p875ad88689)" style="fill: #1f77b4"/>
   </g>
   <g id="patch_86">
    <path d="M 703.593157 246.90101 
L 710.22465 246.90101 
L 710.22465 195.921027 
L 703.593157 195.921027 
z
" clip-path="url(#p875ad88689)" style="fill: #1f77b4"/>
   </g>
   <g id="patch_87">
    <path d="M 710.961482 246.90101 
L 717.592975 246.90101 
L 717.592975 178.726595 
L 710.961482 178.726595 
z
" clip-path="url(#p875ad88689)" style="fill: #1f77b4"/>
   </g>
   <g id="patch_88">
    <path d="M 718.329808 246.90101 
L 724.961301 246.90101 
L 724.961301 152.180805 
L 718.329808 152.180805 
z
" clip-path="url(#p875ad88689)" style="fill: #1f77b4"/>
   </g>
   <g id="patch_89">
    <path d="M 725.698133 246.90101 
L 732.329626 246.90101 
L 732.329626 138.00294 
L 725.698133 138.00294 
z
" clip-path="url(#p875ad88689)" style="fill: #1f77b4"/>
   </g>
   <g id="patch_90">
    <path d="M 733.066459 246.90101 
L 739.697952 246.90101 
L 739.697952 119.300224 
L 733.066459 119.300224 
z
" clip-path="url(#p875ad88689)" style="fill: #1f77b4"/>
   </g>
   <g id="patch_91">
    <path d="M 740.434784 246.90101 
L 747.066277 246.90101 
L 747.066277 100.899165 
L 740.434784 100.899165 
z
" clip-path="url(#p875ad88689)" style="fill: #1f77b4"/>
   </g>
   <g id="patch_92">
    <path d="M 747.80311 246.90101 
L 754.434603 246.90101 
L 754.434603 101.200822 
L 747.80311 101.200822 
z
" clip-path="url(#p875ad88689)" style="fill: #1f77b4"/>
   </g>
   <g id="patch_93">
    <path d="M 755.171435 246.90101 
L 761.802928 246.90101 
L 761.802928 99.994195 
L 755.171435 99.994195 
z
" clip-path="url(#p875ad88689)" style="fill: #1f77b4"/>
   </g>
   <g id="patch_94">
    <path d="M 762.539761 246.90101 
L 769.171254 246.90101 
L 769.171254 109.043896 
L 762.539761 109.043896 
z
" clip-path="url(#p875ad88689)" style="fill: #1f77b4"/>
   </g>
   <g id="patch_95">
    <path d="M 769.908086 246.90101 
L 776.539579 246.90101 
L 776.539579 132.573119 
L 769.908086 132.573119 
z
" clip-path="url(#p875ad88689)" style="fill: #1f77b4"/>
   </g>
   <g id="patch_96">
    <path d="M 777.276412 246.90101 
L 783.907905 246.90101 
L 783.907905 156.403999 
L 777.276412 156.403999 
z
" clip-path="url(#p875ad88689)" style="fill: #1f77b4"/>
   </g>
   <g id="patch_97">
    <path d="M 784.644737 246.90101 
L 791.27623 246.90101 
L 791.27623 168.16861 
L 784.644737 168.16861 
z
" clip-path="url(#p875ad88689)" style="fill: #1f77b4"/>
   </g>
   <g id="patch_98">
    <path d="M 792.013063 246.90101 
L 798.644556 246.90101 
L 798.644556 197.127654 
L 792.013063 197.127654 
z
" clip-path="url(#p875ad88689)" style="fill: #1f77b4"/>
   </g>
   <g id="patch_99">
    <path d="M 799.381388 246.90101 
L 806.012881 246.90101 
L 806.012881 209.797235 
L 799.381388 209.797235 
z
" clip-path="url(#p875ad88689)" style="fill: #1f77b4"/>
   </g>
   <g id="patch_100">
    <path d="M 806.749714 246.90101 
L 813.381206 246.90101 
L 813.381206 227.293324 
L 806.749714 227.293324 
z
" clip-path="url(#p875ad88689)" style="fill: #1f77b4"/>
   </g>
   <g id="patch_101">
    <path d="M 814.118039 246.90101 
L 820.749532 246.90101 
L 820.749532 233.628115 
L 814.118039 233.628115 
z
" clip-path="url(#p875ad88689)" style="fill: #1f77b4"/>
   </g>
   <g id="patch_102">
    <path d="M 821.486364 246.90101 
L 828.117857 246.90101 
L 828.117857 243.28113 
L 821.486364 243.28113 
z
" clip-path="url(#p875ad88689)" style="fill: #1f77b4"/>
   </g>
   <g id="patch_103">
    <path d="M 828.85469 246.90101 
L 835.486183 246.90101 
L 835.486183 245.392726 
L 828.85469 245.392726 
z
" clip-path="url(#p875ad88689)" style="fill: #1f77b4"/>
   </g>
   <g id="patch_104">
    <path d="M 836.223015 246.90101 
L 842.854508 246.90101 
L 842.854508 245.99604 
L 836.223015 245.99604 
z
" clip-path="url(#p875ad88689)" style="fill: #1f77b4"/>
   </g>
   <g id="matplotlib.axis_5">
    <g id="xtick_11">
     <g id="line2d_24">
      <g>
       <use xlink:href="#mc118fe6e53" x="646.294262" y="246.90101" style="stroke: #000000; stroke-width: 0.8"/>
      </g>
     </g>
     <g id="text_28">
      <!-- 0.300 -->
      <g transform="translate(626.254575 264.538822) scale(0.14 -0.14)">
       <use xlink:href="#DejaVuSans-30"/>
       <use xlink:href="#DejaVuSans-2e" x="63.623047"/>
       <use xlink:href="#DejaVuSans-33" x="95.410156"/>
       <use xlink:href="#DejaVuSans-30" x="159.033203"/>
       <use xlink:href="#DejaVuSans-30" x="222.65625"/>
      </g>
     </g>
    </g>
    <g id="xtick_12">
     <g id="line2d_25">
      <g>
       <use xlink:href="#mc118fe6e53" x="696.814767" y="246.90101" style="stroke: #000000; stroke-width: 0.8"/>
      </g>
     </g>
     <g id="text_29">
      <!-- 0.325 -->
      <g transform="translate(676.775079 264.538822) scale(0.14 -0.14)">
       <use xlink:href="#DejaVuSans-30"/>
       <use xlink:href="#DejaVuSans-2e" x="63.623047"/>
       <use xlink:href="#DejaVuSans-33" x="95.410156"/>
       <use xlink:href="#DejaVuSans-32" x="159.033203"/>
       <use xlink:href="#DejaVuSans-35" x="222.65625"/>
      </g>
     </g>
    </g>
    <g id="xtick_13">
     <g id="line2d_26">
      <g>
       <use xlink:href="#mc118fe6e53" x="747.335272" y="246.90101" style="stroke: #000000; stroke-width: 0.8"/>
      </g>
     </g>
     <g id="text_30">
      <!-- 0.350 -->
      <g transform="translate(727.295584 264.538822) scale(0.14 -0.14)">
       <use xlink:href="#DejaVuSans-30"/>
       <use xlink:href="#DejaVuSans-2e" x="63.623047"/>
       <use xlink:href="#DejaVuSans-33" x="95.410156"/>
       <use xlink:href="#DejaVuSans-35" x="159.033203"/>
       <use xlink:href="#DejaVuSans-30" x="222.65625"/>
      </g>
     </g>
    </g>
    <g id="xtick_14">
     <g id="line2d_27">
      <g>
       <use xlink:href="#mc118fe6e53" x="797.855777" y="246.90101" style="stroke: #000000; stroke-width: 0.8"/>
      </g>
     </g>
     <g id="text_31">
      <!-- 0.375 -->
      <g transform="translate(777.816089 264.538822) scale(0.14 -0.14)">
       <defs>
        <path id="DejaVuSans-37" d="M 525 4666 
L 3525 4666 
L 3525 4397 
L 1831 0 
L 1172 0 
L 2766 4134 
L 525 4134 
L 525 4666 
z
" transform="scale(0.015625)"/>
       </defs>
       <use xlink:href="#DejaVuSans-30"/>
       <use xlink:href="#DejaVuSans-2e" x="63.623047"/>
       <use xlink:href="#DejaVuSans-33" x="95.410156"/>
       <use xlink:href="#DejaVuSans-37" x="159.033203"/>
       <use xlink:href="#DejaVuSans-35" x="222.65625"/>
      </g>
     </g>
    </g>
    <g id="xtick_15">
     <g id="line2d_28">
      <g>
       <use xlink:href="#mc118fe6e53" x="848.376281" y="246.90101" style="stroke: #000000; stroke-width: 0.8"/>
      </g>
     </g>
     <g id="text_32">
      <!-- 0.400 -->
      <g transform="translate(828.336594 264.538822) scale(0.14 -0.14)">
       <use xlink:href="#DejaVuSans-30"/>
       <use xlink:href="#DejaVuSans-2e" x="63.623047"/>
       <use xlink:href="#DejaVuSans-34" x="95.410156"/>
       <use xlink:href="#DejaVuSans-30" x="159.033203"/>
       <use xlink:href="#DejaVuSans-30" x="222.65625"/>
      </g>
     </g>
    </g>
    <g id="text_33">
     <!-- $\nu_{12}$ [-] -->
     <g transform="translate(712.118043 282.088197) scale(0.14 -0.14)">
      <defs>
       <path id="DejaVuSans-Oblique-3bd" d="M 959 0 
L 572 3500 
L 1191 3500 
L 1522 563 
Q 1972 950 2391 1488 
Q 2706 1891 2788 2241 
Q 2825 2406 2809 2719 
Q 2794 3091 2544 3500 
L 3125 3500 
L 3125 3500 
Q 3288 3222 3353 2834 
Q 3416 2478 3369 2234 
Q 3250 1622 2719 1075 
Q 2025 363 1572 0 
L 959 0 
z
" transform="scale(0.015625)"/>
       <path id="DejaVuSans-2d" d="M 313 2009 
L 1997 2009 
L 1997 1497 
L 313 1497 
L 313 2009 
z
" transform="scale(0.015625)"/>
      </defs>
      <use xlink:href="#DejaVuSans-Oblique-3bd" transform="translate(0 0.015625)"/>
      <use xlink:href="#DejaVuSans-31" transform="translate(55.859375 -16.390625) scale(0.7)"/>
      <use xlink:href="#DejaVuSans-32" transform="translate(100.395508 -16.390625) scale(0.7)"/>
      <use xlink:href="#DejaVuSans-20" transform="translate(147.666016 0.015625)"/>
      <use xlink:href="#DejaVuSans-5b" transform="translate(179.453125 0.015625)"/>
      <use xlink:href="#DejaVuSans-2d" transform="translate(218.466797 0.015625)"/>
      <use xlink:href="#DejaVuSans-5d" transform="translate(254.550781 0.015625)"/>
     </g>
    </g>
   </g>
   <g id="matplotlib.axis_6">
    <g id="ytick_11">
     <g id="line2d_29">
      <g>
       <use xlink:href="#ma844113fd5" x="611.52593" y="246.90101" style="stroke: #000000; stroke-width: 0.8"/>
      </g>
     </g>
     <g id="text_34">
      <!-- 0 -->
      <g transform="translate(595.61843 252.219916) scale(0.14 -0.14)">
       <use xlink:href="#DejaVuSans-30"/>
      </g>
     </g>
    </g>
    <g id="ytick_12">
     <g id="line2d_30">
      <g>
       <use xlink:href="#ma844113fd5" x="611.52593" y="191.905895" style="stroke: #000000; stroke-width: 0.8"/>
      </g>
     </g>
     <g id="text_35">
      <!-- 10 -->
      <g transform="translate(586.71093 197.224801) scale(0.14 -0.14)">
       <use xlink:href="#DejaVuSans-31"/>
       <use xlink:href="#DejaVuSans-30" x="63.623047"/>
      </g>
     </g>
    </g>
    <g id="ytick_13">
     <g id="line2d_31">
      <g>
       <use xlink:href="#ma844113fd5" x="611.52593" y="136.91078" style="stroke: #000000; stroke-width: 0.8"/>
      </g>
     </g>
     <g id="text_36">
      <!-- 20 -->
      <g transform="translate(586.71093 142.229686) scale(0.14 -0.14)">
       <use xlink:href="#DejaVuSans-32"/>
       <use xlink:href="#DejaVuSans-30" x="63.623047"/>
      </g>
     </g>
    </g>
    <g id="ytick_14">
     <g id="line2d_32">
      <g>
       <use xlink:href="#ma844113fd5" x="611.52593" y="81.915665" style="stroke: #000000; stroke-width: 0.8"/>
      </g>
     </g>
     <g id="text_37">
      <!-- 30 -->
      <g transform="translate(586.71093 87.234571) scale(0.14 -0.14)">
       <use xlink:href="#DejaVuSans-33"/>
       <use xlink:href="#DejaVuSans-30" x="63.623047"/>
      </g>
     </g>
    </g>
    <g id="ytick_15">
     <g id="line2d_33">
      <g>
       <use xlink:href="#ma844113fd5" x="611.52593" y="26.92055" style="stroke: #000000; stroke-width: 0.8"/>
      </g>
     </g>
     <g id="text_38">
      <!-- 40 -->
      <g transform="translate(586.71093 32.239456) scale(0.14 -0.14)">
       <use xlink:href="#DejaVuSans-34"/>
       <use xlink:href="#DejaVuSans-30" x="63.623047"/>
      </g>
     </g>
    </g>
   </g>
   <g id="line2d_34">
    <path d="M 666.502464 244.46371 
L 667.727203 243.983086 
L 668.951943 243.420492 
L 670.176683 242.764648 
L 671.401422 242.003245 
L 672.626162 241.122949 
L 673.850901 240.109425 
L 675.075641 238.947388 
L 676.30038 237.620678 
L 677.52512 236.112365 
L 678.749859 234.404892 
L 679.974599 232.480252 
L 681.199338 230.320195 
L 682.424078 227.906485 
L 683.648817 225.221183 
L 684.873557 222.246977 
L 686.098296 218.967537 
L 687.323036 215.367908 
L 688.547775 211.434926 
L 689.772515 207.157649 
L 690.997254 202.527812 
L 692.221994 197.540269 
L 693.446733 192.193443 
L 694.671473 186.489745 
L 695.896212 180.435973 
L 697.120952 174.043661 
L 698.345691 167.329375 
L 699.570431 160.314948 
L 700.79517 153.027622 
L 702.01991 145.500114 
L 703.244649 137.770575 
L 704.469389 129.882443 
L 705.694128 121.884187 
L 706.918868 113.828932 
L 708.143607 105.773976 
L 709.368347 97.780189 
L 710.593086 89.911313 
L 711.817826 82.233161 
L 713.042565 74.81274 
L 714.267305 67.717302 
L 715.492044 61.013347 
L 716.716784 54.765601 
L 717.941523 49.035979 
L 719.166263 43.882573 
L 720.391003 39.35867 
L 721.615742 35.511841 
L 722.840482 32.383103 
L 724.065221 30.006197 
L 725.289961 28.40698 
L 726.5147 27.602955 
L 727.73944 27.602955 
L 728.964179 28.40698 
L 730.188919 30.006197 
L 731.413658 32.383103 
L 732.638398 35.511841 
L 733.863137 39.35867 
L 735.087877 43.882573 
L 736.312616 49.035979 
L 737.537356 54.765601 
L 738.762095 61.013347 
L 739.986835 67.717302 
L 741.211574 74.81274 
L 742.436314 82.233161 
L 743.661053 89.911313 
L 744.885793 97.780189 
L 746.110532 105.773976 
L 747.335272 113.828932 
L 748.560011 121.884187 
L 749.784751 129.882443 
L 751.00949 137.770575 
L 752.23423 145.500114 
L 753.458969 153.027622 
L 754.683709 160.314948 
L 755.908448 167.329375 
L 757.133188 174.043661 
L 758.357927 180.435973 
L 759.582667 186.489745 
L 760.807406 192.193443 
L 762.032146 197.540269 
L 763.256885 202.527812 
L 764.481625 207.157649 
L 765.706364 211.434926 
L 766.931104 215.367908 
L 768.155843 218.967537 
L 769.380583 222.246977 
L 770.605322 225.221183 
L 771.830062 227.906485 
L 773.054802 230.320195 
L 774.279541 232.480252 
L 775.504281 234.404892 
L 776.72902 236.112365 
L 777.95376 237.620678 
L 779.178499 238.947388 
L 780.403239 240.109425 
L 781.627978 241.122949 
L 782.852718 242.003245 
L 784.077457 242.764648 
L 785.302197 243.420492 
L 786.526936 243.983086 
L 787.751676 244.46371 
" clip-path="url(#p875ad88689)" style="fill: none; stroke: #2ca02c; stroke-width: 1.5; stroke-linecap: square"/>
   </g>
   <g id="patch_105">
    <path d="M 611.52593 246.90101 
L 611.52593 16.638052 
" style="fill: none; stroke: #000000; stroke-width: 0.8; stroke-linejoin: miter; stroke-linecap: square"/>
   </g>
   <g id="patch_106">
    <path d="M 853.870155 246.90101 
L 853.870155 16.638052 
" style="fill: none; stroke: #000000; stroke-width: 0.8; stroke-linejoin: miter; stroke-linecap: square"/>
   </g>
   <g id="patch_107">
    <path d="M 611.52593 246.90101 
L 853.870155 246.90101 
" style="fill: none; stroke: #000000; stroke-width: 0.8; stroke-linejoin: miter; stroke-linecap: square"/>
   </g>
   <g id="patch_108">
    <path d="M 611.52593 16.638052 
L 853.870155 16.638052 
" style="fill: none; stroke: #000000; stroke-width: 0.8; stroke-linejoin: miter; stroke-linecap: square"/>
   </g>
  </g>
  <g id="axes_4">
   <g id="patch_109">
    <path d="M 899.231456 246.90101 
L 1141.57568 246.90101 
L 1141.57568 16.638052 
L 899.231456 16.638052 
z
" style="fill: #ffffff"/>
   </g>
   <g id="patch_110">
    <path d="M 910.247102 246.90101 
L 916.878595 246.90101 
L 916.878595 246.539319 
L 910.247102 246.539319 
z
" clip-path="url(#p6f8a2db795)" style="fill: #1f77b4"/>
   </g>
   <g id="patch_111">
    <path d="M 917.615428 246.90101 
L 924.246921 246.90101 
L 924.246921 246.90101 
L 917.615428 246.90101 
z
" clip-path="url(#p6f8a2db795)" style="fill: #1f77b4"/>
   </g>
   <g id="patch_112">
    <path d="M 924.983753 246.90101 
L 931.615246 246.90101 
L 931.615246 246.177629 
L 924.983753 246.177629 
z
" clip-path="url(#p6f8a2db795)" style="fill: #1f77b4"/>
   </g>
   <g id="patch_113">
    <path d="M 932.352079 246.90101 
L 938.983572 246.90101 
L 938.983572 246.177629 
L 932.352079 246.177629 
z
" clip-path="url(#p6f8a2db795)" style="fill: #1f77b4"/>
   </g>
   <g id="patch_114">
    <path d="M 939.720404 246.90101 
L 946.351897 246.90101 
L 946.351897 244.730866 
L 939.720404 244.730866 
z
" clip-path="url(#p6f8a2db795)" style="fill: #1f77b4"/>
   </g>
   <g id="patch_115">
    <path d="M 947.08873 246.90101 
L 953.720223 246.90101 
L 953.720223 243.284103 
L 947.08873 243.284103 
z
" clip-path="url(#p6f8a2db795)" style="fill: #1f77b4"/>
   </g>
   <g id="patch_116">
    <path d="M 954.457055 246.90101 
L 961.088548 246.90101 
L 961.088548 241.475649 
L 954.457055 241.475649 
z
" clip-path="url(#p6f8a2db795)" style="fill: #1f77b4"/>
   </g>
   <g id="patch_117">
    <path d="M 961.825381 246.90101 
L 968.456874 246.90101 
L 968.456874 231.709999 
L 961.825381 231.709999 
z
" clip-path="url(#p6f8a2db795)" style="fill: #1f77b4"/>
   </g>
   <g id="patch_118">
    <path d="M 969.193706 246.90101 
L 975.825199 246.90101 
L 975.825199 229.539854 
L 969.193706 229.539854 
z
" clip-path="url(#p6f8a2db795)" style="fill: #1f77b4"/>
   </g>
   <g id="patch_119">
    <path d="M 976.562032 246.90101 
L 983.193525 246.90101 
L 983.193525 206.753337 
L 976.562032 206.753337 
z
" clip-path="url(#p6f8a2db795)" style="fill: #1f77b4"/>
   </g>
   <g id="patch_120">
    <path d="M 983.930357 246.90101 
L 990.56185 246.90101 
L 990.56185 187.222037 
L 983.930357 187.222037 
z
" clip-path="url(#p6f8a2db795)" style="fill: #1f77b4"/>
   </g>
   <g id="patch_121">
    <path d="M 991.298683 246.90101 
L 997.930175 246.90101 
L 997.930175 163.712138 
L 991.298683 163.712138 
z
" clip-path="url(#p6f8a2db795)" style="fill: #1f77b4"/>
   </g>
   <g id="patch_122">
    <path d="M 998.667008 246.90101 
L 1005.298501 246.90101 
L 1005.298501 132.606734 
L 998.667008 132.606734 
z
" clip-path="url(#p6f8a2db795)" style="fill: #1f77b4"/>
   </g>
   <g id="patch_123">
    <path d="M 1006.035334 246.90101 
L 1012.666826 246.90101 
L 1012.666826 111.990361 
L 1006.035334 111.990361 
z
" clip-path="url(#p6f8a2db795)" style="fill: #1f77b4"/>
   </g>
   <g id="patch_124">
    <path d="M 1013.403659 246.90101 
L 1020.035152 246.90101 
L 1020.035152 92.09737 
L 1013.403659 92.09737 
z
" clip-path="url(#p6f8a2db795)" style="fill: #1f77b4"/>
   </g>
   <g id="patch_125">
    <path d="M 1020.771984 246.90101 
L 1027.403477 246.90101 
L 1027.403477 71.842688 
L 1020.771984 71.842688 
z
" clip-path="url(#p6f8a2db795)" style="fill: #1f77b4"/>
   </g>
   <g id="patch_126">
    <path d="M 1028.14031 246.90101 
L 1034.771803 246.90101 
L 1034.771803 56.289986 
L 1028.14031 56.289986 
z
" clip-path="url(#p6f8a2db795)" style="fill: #1f77b4"/>
   </g>
   <g id="patch_127">
    <path d="M 1035.508635 246.90101 
L 1042.140128 246.90101 
L 1042.140128 70.757616 
L 1035.508635 70.757616 
z
" clip-path="url(#p6f8a2db795)" style="fill: #1f77b4"/>
   </g>
   <g id="patch_128">
    <path d="M 1042.876961 246.90101 
L 1049.508454 246.90101 
L 1049.508454 88.118772 
L 1042.876961 88.118772 
z
" clip-path="url(#p6f8a2db795)" style="fill: #1f77b4"/>
   </g>
   <g id="patch_129">
    <path d="M 1050.245286 246.90101 
L 1056.876779 246.90101 
L 1056.876779 107.650072 
L 1050.245286 107.650072 
z
" clip-path="url(#p6f8a2db795)" style="fill: #1f77b4"/>
   </g>
   <g id="patch_130">
    <path d="M 1057.613612 246.90101 
L 1064.245105 246.90101 
L 1064.245105 134.776878 
L 1057.613612 134.776878 
z
" clip-path="url(#p6f8a2db795)" style="fill: #1f77b4"/>
   </g>
   <g id="patch_131">
    <path d="M 1064.981937 246.90101 
L 1071.61343 246.90101 
L 1071.61343 171.307644 
L 1064.981937 171.307644 
z
" clip-path="url(#p6f8a2db795)" style="fill: #1f77b4"/>
   </g>
   <g id="patch_132">
    <path d="M 1072.350263 246.90101 
L 1078.981756 246.90101 
L 1078.981756 193.73247 
L 1072.350263 193.73247 
z
" clip-path="url(#p6f8a2db795)" style="fill: #1f77b4"/>
   </g>
   <g id="patch_133">
    <path d="M 1079.718588 246.90101 
L 1086.350081 246.90101 
L 1086.350081 208.561791 
L 1079.718588 208.561791 
z
" clip-path="url(#p6f8a2db795)" style="fill: #1f77b4"/>
   </g>
   <g id="patch_134">
    <path d="M 1087.086914 246.90101 
L 1093.718407 246.90101 
L 1093.718407 220.859276 
L 1087.086914 220.859276 
z
" clip-path="url(#p6f8a2db795)" style="fill: #1f77b4"/>
   </g>
   <g id="patch_135">
    <path d="M 1094.455239 246.90101 
L 1101.086732 246.90101 
L 1101.086732 232.795071 
L 1094.455239 232.795071 
z
" clip-path="url(#p6f8a2db795)" style="fill: #1f77b4"/>
   </g>
   <g id="patch_136">
    <path d="M 1101.823565 246.90101 
L 1108.455057 246.90101 
L 1108.455057 236.411978 
L 1101.823565 236.411978 
z
" clip-path="url(#p6f8a2db795)" style="fill: #1f77b4"/>
   </g>
   <g id="patch_137">
    <path d="M 1109.19189 246.90101 
L 1115.823383 246.90101 
L 1115.823383 244.369175 
L 1109.19189 244.369175 
z
" clip-path="url(#p6f8a2db795)" style="fill: #1f77b4"/>
   </g>
   <g id="patch_138">
    <path d="M 1116.560215 246.90101 
L 1123.191708 246.90101 
L 1123.191708 244.369175 
L 1116.560215 244.369175 
z
" clip-path="url(#p6f8a2db795)" style="fill: #1f77b4"/>
   </g>
   <g id="patch_139">
    <path d="M 1123.928541 246.90101 
L 1130.560034 246.90101 
L 1130.560034 245.815938 
L 1123.928541 245.815938 
z
" clip-path="url(#p6f8a2db795)" style="fill: #1f77b4"/>
   </g>
   <g id="matplotlib.axis_7">
    <g id="xtick_16">
     <g id="line2d_35">
      <g>
       <use xlink:href="#mc118fe6e53" x="931.012706" y="246.90101" style="stroke: #000000; stroke-width: 0.8"/>
      </g>
     </g>
     <g id="text_39">
      <!-- 0.400 -->
      <g transform="translate(910.973019 264.538822) scale(0.14 -0.14)">
       <use xlink:href="#DejaVuSans-30"/>
       <use xlink:href="#DejaVuSans-2e" x="63.623047"/>
       <use xlink:href="#DejaVuSans-34" x="95.410156"/>
       <use xlink:href="#DejaVuSans-30" x="159.033203"/>
       <use xlink:href="#DejaVuSans-30" x="222.65625"/>
      </g>
     </g>
    </g>
    <g id="xtick_17">
     <g id="line2d_36">
      <g>
       <use xlink:href="#mc118fe6e53" x="991.587522" y="246.90101" style="stroke: #000000; stroke-width: 0.8"/>
      </g>
     </g>
     <g id="text_40">
      <!-- 0.425 -->
      <g transform="translate(971.547834 264.538822) scale(0.14 -0.14)">
       <use xlink:href="#DejaVuSans-30"/>
       <use xlink:href="#DejaVuSans-2e" x="63.623047"/>
       <use xlink:href="#DejaVuSans-34" x="95.410156"/>
       <use xlink:href="#DejaVuSans-32" x="159.033203"/>
       <use xlink:href="#DejaVuSans-35" x="222.65625"/>
      </g>
     </g>
    </g>
    <g id="xtick_18">
     <g id="line2d_37">
      <g>
       <use xlink:href="#mc118fe6e53" x="1052.162337" y="246.90101" style="stroke: #000000; stroke-width: 0.8"/>
      </g>
     </g>
     <g id="text_41">
      <!-- 0.450 -->
      <g transform="translate(1032.12265 264.538822) scale(0.14 -0.14)">
       <use xlink:href="#DejaVuSans-30"/>
       <use xlink:href="#DejaVuSans-2e" x="63.623047"/>
       <use xlink:href="#DejaVuSans-34" x="95.410156"/>
       <use xlink:href="#DejaVuSans-35" x="159.033203"/>
       <use xlink:href="#DejaVuSans-30" x="222.65625"/>
      </g>
     </g>
    </g>
    <g id="xtick_19">
     <g id="line2d_38">
      <g>
       <use xlink:href="#mc118fe6e53" x="1112.737153" y="246.90101" style="stroke: #000000; stroke-width: 0.8"/>
      </g>
     </g>
     <g id="text_42">
      <!-- 0.475 -->
      <g transform="translate(1092.697465 264.538822) scale(0.14 -0.14)">
       <use xlink:href="#DejaVuSans-30"/>
       <use xlink:href="#DejaVuSans-2e" x="63.623047"/>
       <use xlink:href="#DejaVuSans-34" x="95.410156"/>
       <use xlink:href="#DejaVuSans-37" x="159.033203"/>
       <use xlink:href="#DejaVuSans-35" x="222.65625"/>
      </g>
     </g>
    </g>
    <g id="text_43">
     <!-- $\nu_{23}$ [-] -->
     <g transform="translate(999.823568 282.088197) scale(0.14 -0.14)">
      <use xlink:href="#DejaVuSans-Oblique-3bd" transform="translate(0 0.015625)"/>
      <use xlink:href="#DejaVuSans-32" transform="translate(55.859375 -16.390625) scale(0.7)"/>
      <use xlink:href="#DejaVuSans-33" transform="translate(100.395508 -16.390625) scale(0.7)"/>
      <use xlink:href="#DejaVuSans-20" transform="translate(147.666016 0.015625)"/>
      <use xlink:href="#DejaVuSans-5b" transform="translate(179.453125 0.015625)"/>
      <use xlink:href="#DejaVuSans-2d" transform="translate(218.466797 0.015625)"/>
      <use xlink:href="#DejaVuSans-5d" transform="translate(254.550781 0.015625)"/>
     </g>
    </g>
   </g>
   <g id="matplotlib.axis_8">
    <g id="ytick_16">
     <g id="line2d_39">
      <g>
       <use xlink:href="#ma844113fd5" x="899.231456" y="246.90101" style="stroke: #000000; stroke-width: 0.8"/>
      </g>
     </g>
     <g id="text_44">
      <!-- 0 -->
      <g transform="translate(883.323956 252.219916) scale(0.14 -0.14)">
       <use xlink:href="#DejaVuSans-30"/>
      </g>
     </g>
    </g>
    <g id="ytick_17">
     <g id="line2d_40">
      <g>
       <use xlink:href="#ma844113fd5" x="899.231456" y="191.905895" style="stroke: #000000; stroke-width: 0.8"/>
      </g>
     </g>
     <g id="text_45">
      <!-- 10 -->
      <g transform="translate(874.416456 197.224801) scale(0.14 -0.14)">
       <use xlink:href="#DejaVuSans-31"/>
       <use xlink:href="#DejaVuSans-30" x="63.623047"/>
      </g>
     </g>
    </g>
    <g id="ytick_18">
     <g id="line2d_41">
      <g>
       <use xlink:href="#ma844113fd5" x="899.231456" y="136.91078" style="stroke: #000000; stroke-width: 0.8"/>
      </g>
     </g>
     <g id="text_46">
      <!-- 20 -->
      <g transform="translate(874.416456 142.229686) scale(0.14 -0.14)">
       <use xlink:href="#DejaVuSans-32"/>
       <use xlink:href="#DejaVuSans-30" x="63.623047"/>
      </g>
     </g>
    </g>
    <g id="ytick_19">
     <g id="line2d_42">
      <g>
       <use xlink:href="#ma844113fd5" x="899.231456" y="81.915665" style="stroke: #000000; stroke-width: 0.8"/>
      </g>
     </g>
     <g id="text_47">
      <!-- 30 -->
      <g transform="translate(874.416456 87.234571) scale(0.14 -0.14)">
       <use xlink:href="#DejaVuSans-33"/>
       <use xlink:href="#DejaVuSans-30" x="63.623047"/>
      </g>
     </g>
    </g>
    <g id="ytick_20">
     <g id="line2d_43">
      <g>
       <use xlink:href="#ma844113fd5" x="899.231456" y="26.92055" style="stroke: #000000; stroke-width: 0.8"/>
      </g>
     </g>
     <g id="text_48">
      <!-- 40 -->
      <g transform="translate(874.416456 32.239456) scale(0.14 -0.14)">
       <use xlink:href="#DejaVuSans-34"/>
       <use xlink:href="#DejaVuSans-30" x="63.623047"/>
      </g>
     </g>
    </g>
   </g>
   <g id="line2d_44">
    <path d="M 955.242633 244.46371 
L 956.711113 243.983086 
L 958.179593 243.420492 
L 959.648074 242.764648 
L 961.116554 242.003245 
L 962.585034 241.122949 
L 964.053515 240.109425 
L 965.521995 238.947388 
L 966.990476 237.620678 
L 968.458956 236.112365 
L 969.927436 234.404892 
L 971.395917 232.480252 
L 972.864397 230.320195 
L 974.332877 227.906485 
L 975.801358 225.221183 
L 977.269838 222.246977 
L 978.738319 218.967537 
L 980.206799 215.367908 
L 981.675279 211.434926 
L 983.14376 207.157649 
L 984.61224 202.527812 
L 986.08072 197.540269 
L 987.549201 192.193443 
L 989.017681 186.489745 
L 990.486162 180.435973 
L 991.954642 174.043661 
L 993.423122 167.329375 
L 994.891603 160.314948 
L 996.360083 153.027622 
L 997.828563 145.500114 
L 999.297044 137.770575 
L 1000.765524 129.882443 
L 1002.234005 121.884187 
L 1003.702485 113.828932 
L 1005.170965 105.773976 
L 1006.639446 97.780189 
L 1008.107926 89.911313 
L 1009.576406 82.233161 
L 1011.044887 74.81274 
L 1012.513367 67.717302 
L 1013.981848 61.013347 
L 1015.450328 54.765601 
L 1016.918808 49.035979 
L 1018.387289 43.882573 
L 1019.855769 39.35867 
L 1021.324249 35.511841 
L 1022.79273 32.383103 
L 1024.26121 30.006197 
L 1025.72969 28.40698 
L 1027.198171 27.602955 
L 1028.666651 27.602955 
L 1030.135132 28.40698 
L 1031.603612 30.006197 
L 1033.072092 32.383103 
L 1034.540573 35.511841 
L 1036.009053 39.35867 
L 1037.477533 43.882573 
L 1038.946014 49.035979 
L 1040.414494 54.765601 
L 1041.882975 61.013347 
L 1043.351455 67.717302 
L 1044.819935 74.81274 
L 1046.288416 82.233161 
L 1047.756896 89.911313 
L 1049.225376 97.780189 
L 1050.693857 105.773976 
L 1052.162337 113.828932 
L 1053.630818 121.884187 
L 1055.099298 129.882443 
L 1056.567778 137.770575 
L 1058.036259 145.500114 
L 1059.504739 153.027622 
L 1060.973219 160.314948 
L 1062.4417 167.329375 
L 1063.91018 174.043661 
L 1065.378661 180.435973 
L 1066.847141 186.489745 
L 1068.315621 192.193443 
L 1069.784102 197.540269 
L 1071.252582 202.527812 
L 1072.721062 207.157649 
L 1074.189543 211.434926 
L 1075.658023 215.367908 
L 1077.126504 218.967537 
L 1078.594984 222.246977 
L 1080.063464 225.221183 
L 1081.531945 227.906485 
L 1083.000425 230.320195 
L 1084.468905 232.480252 
L 1085.937386 234.404892 
L 1087.405866 236.112365 
L 1088.874347 237.620678 
L 1090.342827 238.947388 
L 1091.811307 240.109425 
L 1093.279788 241.122949 
L 1094.748268 242.003245 
L 1096.216748 242.764648 
L 1097.685229 243.420492 
L 1099.153709 243.983086 
L 1100.62219 244.46371 
" clip-path="url(#p6f8a2db795)" style="fill: none; stroke: #2ca02c; stroke-width: 1.5; stroke-linecap: square"/>
   </g>
   <g id="patch_140">
    <path d="M 899.231456 246.90101 
L 899.231456 16.638052 
" style="fill: none; stroke: #000000; stroke-width: 0.8; stroke-linejoin: miter; stroke-linecap: square"/>
   </g>
   <g id="patch_141">
    <path d="M 1141.57568 246.90101 
L 1141.57568 16.638052 
" style="fill: none; stroke: #000000; stroke-width: 0.8; stroke-linejoin: miter; stroke-linecap: square"/>
   </g>
   <g id="patch_142">
    <path d="M 899.231456 246.90101 
L 1141.57568 246.90101 
" style="fill: none; stroke: #000000; stroke-width: 0.8; stroke-linejoin: miter; stroke-linecap: square"/>
   </g>
   <g id="patch_143">
    <path d="M 899.231456 16.638052 
L 1141.57568 16.638052 
" style="fill: none; stroke: #000000; stroke-width: 0.8; stroke-linejoin: miter; stroke-linecap: square"/>
   </g>
  </g>
  <g id="axes_5">
   <g id="patch_144">
    <path d="M 1194.655535 246.90101 
L 1436.99976 246.90101 
L 1436.99976 16.638052 
L 1194.655535 16.638052 
z
" style="fill: #ffffff"/>
   </g>
   <g id="patch_145">
    <path d="M 1205.671182 246.90101 
L 1212.302675 246.90101 
L 1212.302675 246.510035 
L 1205.671182 246.510035 
z
" clip-path="url(#p33cccd7660)" style="fill: #1f77b4"/>
   </g>
   <g id="patch_146">
    <path d="M 1213.039507 246.90101 
L 1219.671 246.90101 
L 1219.671 245.337111 
L 1213.039507 245.337111 
z
" clip-path="url(#p33cccd7660)" style="fill: #1f77b4"/>
   </g>
   <g id="patch_147">
    <path d="M 1220.407833 246.90101 
L 1227.039326 246.90101 
L 1227.039326 245.728086 
L 1220.407833 245.728086 
z
" clip-path="url(#p33cccd7660)" style="fill: #1f77b4"/>
   </g>
   <g id="patch_148">
    <path d="M 1227.776158 246.90101 
L 1234.407651 246.90101 
L 1234.407651 246.119061 
L 1227.776158 246.119061 
z
" clip-path="url(#p33cccd7660)" style="fill: #1f77b4"/>
   </g>
   <g id="patch_149">
    <path d="M 1235.144484 246.90101 
L 1241.775977 246.90101 
L 1241.775977 243.773212 
L 1235.144484 243.773212 
z
" clip-path="url(#p33cccd7660)" style="fill: #1f77b4"/>
   </g>
   <g id="patch_150">
    <path d="M 1242.512809 246.90101 
L 1249.144302 246.90101 
L 1249.144302 239.863465 
L 1242.512809 239.863465 
z
" clip-path="url(#p33cccd7660)" style="fill: #1f77b4"/>
   </g>
   <g id="patch_151">
    <path d="M 1249.881135 246.90101 
L 1256.512628 246.90101 
L 1256.512628 234.780794 
L 1249.881135 234.780794 
z
" clip-path="url(#p33cccd7660)" style="fill: #1f77b4"/>
   </g>
   <g id="patch_152">
    <path d="M 1257.24946 246.90101 
L 1263.880953 246.90101 
L 1263.880953 225.006426 
L 1257.24946 225.006426 
z
" clip-path="url(#p33cccd7660)" style="fill: #1f77b4"/>
   </g>
   <g id="patch_153">
    <path d="M 1264.617786 246.90101 
L 1271.249279 246.90101 
L 1271.249279 213.277185 
L 1264.617786 213.277185 
z
" clip-path="url(#p33cccd7660)" style="fill: #1f77b4"/>
   </g>
   <g id="patch_154">
    <path d="M 1271.986111 246.90101 
L 1278.617604 246.90101 
L 1278.617604 194.510398 
L 1271.986111 194.510398 
z
" clip-path="url(#p33cccd7660)" style="fill: #1f77b4"/>
   </g>
   <g id="patch_155">
    <path d="M 1279.354437 246.90101 
L 1285.98593 246.90101 
L 1285.98593 170.269966 
L 1279.354437 170.269966 
z
" clip-path="url(#p33cccd7660)" style="fill: #1f77b4"/>
   </g>
   <g id="patch_156">
    <path d="M 1286.722762 246.90101 
L 1293.354255 246.90101 
L 1293.354255 153.067078 
L 1286.722762 153.067078 
z
" clip-path="url(#p33cccd7660)" style="fill: #1f77b4"/>
   </g>
   <g id="patch_157">
    <path d="M 1294.091088 246.90101 
L 1300.722581 246.90101 
L 1300.722581 124.916899 
L 1294.091088 124.916899 
z
" clip-path="url(#p33cccd7660)" style="fill: #1f77b4"/>
   </g>
   <g id="patch_158">
    <path d="M 1301.459413 246.90101 
L 1308.090906 246.90101 
L 1308.090906 90.902099 
L 1301.459413 90.902099 
z
" clip-path="url(#p33cccd7660)" style="fill: #1f77b4"/>
   </g>
   <g id="patch_159">
    <path d="M 1308.827739 246.90101 
L 1315.459231 246.90101 
L 1315.459231 70.962388 
L 1308.827739 70.962388 
z
" clip-path="url(#p33cccd7660)" style="fill: #1f77b4"/>
   </g>
   <g id="patch_160">
    <path d="M 1316.196064 246.90101 
L 1322.827557 246.90101 
L 1322.827557 55.3234 
L 1316.196064 55.3234 
z
" clip-path="url(#p33cccd7660)" style="fill: #1f77b4"/>
   </g>
   <g id="patch_161">
    <path d="M 1323.564389 246.90101 
L 1330.195882 246.90101 
L 1330.195882 46.721956 
L 1323.564389 46.721956 
z
" clip-path="url(#p33cccd7660)" style="fill: #1f77b4"/>
   </g>
   <g id="patch_162">
    <path d="M 1330.932715 246.90101 
L 1337.564208 246.90101 
L 1337.564208 63.142894 
L 1330.932715 63.142894 
z
" clip-path="url(#p33cccd7660)" style="fill: #1f77b4"/>
   </g>
   <g id="patch_163">
    <path d="M 1338.30104 246.90101 
L 1344.932533 246.90101 
L 1344.932533 82.300655 
L 1338.30104 82.300655 
z
" clip-path="url(#p33cccd7660)" style="fill: #1f77b4"/>
   </g>
   <g id="patch_164">
    <path d="M 1345.669366 246.90101 
L 1352.300859 246.90101 
L 1352.300859 106.541087 
L 1345.669366 106.541087 
z
" clip-path="url(#p33cccd7660)" style="fill: #1f77b4"/>
   </g>
   <g id="patch_165">
    <path d="M 1353.037691 246.90101 
L 1359.669184 246.90101 
L 1359.669184 140.555888 
L 1353.037691 140.555888 
z
" clip-path="url(#p33cccd7660)" style="fill: #1f77b4"/>
   </g>
   <g id="patch_166">
    <path d="M 1360.406017 246.90101 
L 1367.03751 246.90101 
L 1367.03751 172.615814 
L 1360.406017 172.615814 
z
" clip-path="url(#p33cccd7660)" style="fill: #1f77b4"/>
   </g>
   <g id="patch_167">
    <path d="M 1367.774342 246.90101 
L 1374.405835 246.90101 
L 1374.405835 189.427727 
L 1367.774342 189.427727 
z
" clip-path="url(#p33cccd7660)" style="fill: #1f77b4"/>
   </g>
   <g id="patch_168">
    <path d="M 1375.142668 246.90101 
L 1381.774161 246.90101 
L 1381.774161 210.931336 
L 1375.142668 210.931336 
z
" clip-path="url(#p33cccd7660)" style="fill: #1f77b4"/>
   </g>
   <g id="patch_169">
    <path d="M 1382.510993 246.90101 
L 1389.142486 246.90101 
L 1389.142486 229.698123 
L 1382.510993 229.698123 
z
" clip-path="url(#p33cccd7660)" style="fill: #1f77b4"/>
   </g>
   <g id="patch_170">
    <path d="M 1389.879319 246.90101 
L 1396.510812 246.90101 
L 1396.510812 234.389819 
L 1389.879319 234.389819 
z
" clip-path="url(#p33cccd7660)" style="fill: #1f77b4"/>
   </g>
   <g id="patch_171">
    <path d="M 1397.247644 246.90101 
L 1403.879137 246.90101 
L 1403.879137 239.863465 
L 1397.247644 239.863465 
z
" clip-path="url(#p33cccd7660)" style="fill: #1f77b4"/>
   </g>
   <g id="patch_172">
    <path d="M 1404.61597 246.90101 
L 1411.247462 246.90101 
L 1411.247462 244.164187 
L 1404.61597 244.164187 
z
" clip-path="url(#p33cccd7660)" style="fill: #1f77b4"/>
   </g>
   <g id="patch_173">
    <path d="M 1411.984295 246.90101 
L 1418.615788 246.90101 
L 1418.615788 244.946136 
L 1411.984295 244.946136 
z
" clip-path="url(#p33cccd7660)" style="fill: #1f77b4"/>
   </g>
   <g id="patch_174">
    <path d="M 1419.352621 246.90101 
L 1425.984113 246.90101 
L 1425.984113 246.510035 
L 1419.352621 246.510035 
z
" clip-path="url(#p33cccd7660)" style="fill: #1f77b4"/>
   </g>
   <g id="matplotlib.axis_9">
    <g id="xtick_20">
     <g id="line2d_45">
      <g>
       <use xlink:href="#mc118fe6e53" x="1242.296469" y="246.90101" style="stroke: #000000; stroke-width: 0.8"/>
      </g>
     </g>
     <g id="text_49">
      <!-- 4800 -->
      <g transform="translate(1224.481469 264.538822) scale(0.14 -0.14)">
       <use xlink:href="#DejaVuSans-34"/>
       <use xlink:href="#DejaVuSans-38" x="63.623047"/>
       <use xlink:href="#DejaVuSans-30" x="127.246094"/>
       <use xlink:href="#DejaVuSans-30" x="190.869141"/>
      </g>
     </g>
    </g>
    <g id="xtick_21">
     <g id="line2d_46">
      <g>
       <use xlink:href="#mc118fe6e53" x="1317.129842" y="246.90101" style="stroke: #000000; stroke-width: 0.8"/>
      </g>
     </g>
     <g id="text_50">
      <!-- 5000 -->
      <g transform="translate(1299.314842 264.538822) scale(0.14 -0.14)">
       <use xlink:href="#DejaVuSans-35"/>
       <use xlink:href="#DejaVuSans-30" x="63.623047"/>
       <use xlink:href="#DejaVuSans-30" x="127.246094"/>
       <use xlink:href="#DejaVuSans-30" x="190.869141"/>
      </g>
     </g>
    </g>
    <g id="xtick_22">
     <g id="line2d_47">
      <g>
       <use xlink:href="#mc118fe6e53" x="1391.963214" y="246.90101" style="stroke: #000000; stroke-width: 0.8"/>
      </g>
     </g>
     <g id="text_51">
      <!-- 5200 -->
      <g transform="translate(1374.148214 264.538822) scale(0.14 -0.14)">
       <use xlink:href="#DejaVuSans-35"/>
       <use xlink:href="#DejaVuSans-32" x="63.623047"/>
       <use xlink:href="#DejaVuSans-30" x="127.246094"/>
       <use xlink:href="#DejaVuSans-30" x="190.869141"/>
      </g>
     </g>
    </g>
    <g id="text_52">
     <!-- $G_{12}$ [MPa] -->
     <g transform="translate(1281.737648 282.088197) scale(0.14 -0.14)">
      <defs>
       <path id="DejaVuSans-Oblique-47" d="M 3494 697 
L 3738 1919 
L 2700 1919 
L 2797 2438 
L 4453 2438 
L 4050 384 
Q 3634 156 3143 32 
Q 2653 -91 2156 -91 
Q 1278 -91 783 396 
Q 288 884 288 1753 
Q 288 2475 589 3126 
Q 891 3778 1422 4213 
Q 1756 4484 2153 4617 
Q 2550 4750 3034 4750 
Q 3472 4750 3873 4639 
Q 4275 4528 4641 4306 
L 4513 3634 
Q 4231 3928 3853 4083 
Q 3475 4238 3047 4238 
Q 2550 4238 2172 4048 
Q 1794 3859 1497 3463 
Q 1244 3125 1098 2667 
Q 953 2209 953 1734 
Q 953 1081 1287 751 
Q 1622 422 2284 422 
Q 2616 422 2925 492 
Q 3234 563 3494 697 
z
" transform="scale(0.015625)"/>
      </defs>
      <use xlink:href="#DejaVuSans-Oblique-47" transform="translate(0 0.015625)"/>
      <use xlink:href="#DejaVuSans-31" transform="translate(77.490234 -16.390625) scale(0.7)"/>
      <use xlink:href="#DejaVuSans-32" transform="translate(122.026367 -16.390625) scale(0.7)"/>
      <use xlink:href="#DejaVuSans-20" transform="translate(169.296875 0.015625)"/>
      <use xlink:href="#DejaVuSans-5b" transform="translate(201.083984 0.015625)"/>
      <use xlink:href="#DejaVuSans-4d" transform="translate(240.097656 0.015625)"/>
      <use xlink:href="#DejaVuSans-50" transform="translate(326.376953 0.015625)"/>
      <use xlink:href="#DejaVuSans-61" transform="translate(386.679688 0.015625)"/>
      <use xlink:href="#DejaVuSans-5d" transform="translate(447.958984 0.015625)"/>
     </g>
    </g>
   </g>
   <g id="matplotlib.axis_10">
    <g id="ytick_21">
     <g id="line2d_48">
      <g>
       <use xlink:href="#ma844113fd5" x="1194.655535" y="246.90101" style="stroke: #000000; stroke-width: 0.8"/>
      </g>
     </g>
     <g id="text_53">
      <!-- 0.000 -->
      <g transform="translate(1147.57616 252.219916) scale(0.14 -0.14)">
       <use xlink:href="#DejaVuSans-30"/>
       <use xlink:href="#DejaVuSans-2e" x="63.623047"/>
       <use xlink:href="#DejaVuSans-30" x="95.410156"/>
       <use xlink:href="#DejaVuSans-30" x="159.033203"/>
       <use xlink:href="#DejaVuSans-30" x="222.65625"/>
      </g>
     </g>
    </g>
    <g id="ytick_22">
     <g id="line2d_49">
      <g>
       <use xlink:href="#ma844113fd5" x="1194.655535" y="208.40443" style="stroke: #000000; stroke-width: 0.8"/>
      </g>
     </g>
     <g id="text_54">
      <!-- 0.001 -->
      <g transform="translate(1147.57616 213.723336) scale(0.14 -0.14)">
       <use xlink:href="#DejaVuSans-30"/>
       <use xlink:href="#DejaVuSans-2e" x="63.623047"/>
       <use xlink:href="#DejaVuSans-30" x="95.410156"/>
       <use xlink:href="#DejaVuSans-30" x="159.033203"/>
       <use xlink:href="#DejaVuSans-31" x="222.65625"/>
      </g>
     </g>
    </g>
    <g id="ytick_23">
     <g id="line2d_50">
      <g>
       <use xlink:href="#ma844113fd5" x="1194.655535" y="169.907849" style="stroke: #000000; stroke-width: 0.8"/>
      </g>
     </g>
     <g id="text_55">
      <!-- 0.002 -->
      <g transform="translate(1147.57616 175.226755) scale(0.14 -0.14)">
       <use xlink:href="#DejaVuSans-30"/>
       <use xlink:href="#DejaVuSans-2e" x="63.623047"/>
       <use xlink:href="#DejaVuSans-30" x="95.410156"/>
       <use xlink:href="#DejaVuSans-30" x="159.033203"/>
       <use xlink:href="#DejaVuSans-32" x="222.65625"/>
      </g>
     </g>
    </g>
    <g id="ytick_24">
     <g id="line2d_51">
      <g>
       <use xlink:href="#ma844113fd5" x="1194.655535" y="131.411269" style="stroke: #000000; stroke-width: 0.8"/>
      </g>
     </g>
     <g id="text_56">
      <!-- 0.003 -->
      <g transform="translate(1147.57616 136.730175) scale(0.14 -0.14)">
       <use xlink:href="#DejaVuSans-30"/>
       <use xlink:href="#DejaVuSans-2e" x="63.623047"/>
       <use xlink:href="#DejaVuSans-30" x="95.410156"/>
       <use xlink:href="#DejaVuSans-30" x="159.033203"/>
       <use xlink:href="#DejaVuSans-33" x="222.65625"/>
      </g>
     </g>
    </g>
    <g id="ytick_25">
     <g id="line2d_52">
      <g>
       <use xlink:href="#ma844113fd5" x="1194.655535" y="92.914688" style="stroke: #000000; stroke-width: 0.8"/>
      </g>
     </g>
     <g id="text_57">
      <!-- 0.004 -->
      <g transform="translate(1147.57616 98.233594) scale(0.14 -0.14)">
       <use xlink:href="#DejaVuSans-30"/>
       <use xlink:href="#DejaVuSans-2e" x="63.623047"/>
       <use xlink:href="#DejaVuSans-30" x="95.410156"/>
       <use xlink:href="#DejaVuSans-30" x="159.033203"/>
       <use xlink:href="#DejaVuSans-34" x="222.65625"/>
      </g>
     </g>
    </g>
    <g id="ytick_26">
     <g id="line2d_53">
      <g>
       <use xlink:href="#ma844113fd5" x="1194.655535" y="54.418108" style="stroke: #000000; stroke-width: 0.8"/>
      </g>
     </g>
     <g id="text_58">
      <!-- 0.005 -->
      <g transform="translate(1147.57616 59.737014) scale(0.14 -0.14)">
       <use xlink:href="#DejaVuSans-30"/>
       <use xlink:href="#DejaVuSans-2e" x="63.623047"/>
       <use xlink:href="#DejaVuSans-30" x="95.410156"/>
       <use xlink:href="#DejaVuSans-30" x="159.033203"/>
       <use xlink:href="#DejaVuSans-35" x="222.65625"/>
      </g>
     </g>
    </g>
   </g>
   <g id="line2d_54">
    <path d="M 1261.004812 244.46371 
L 1262.592187 243.983086 
L 1264.179561 243.420492 
L 1265.766936 242.764648 
L 1267.35431 242.003245 
L 1268.941685 241.122949 
L 1270.52906 240.109425 
L 1272.116434 238.947388 
L 1273.703809 237.620678 
L 1275.291183 236.112365 
L 1276.878558 234.404892 
L 1278.465932 232.480252 
L 1280.053307 230.320195 
L 1281.640682 227.906485 
L 1283.228056 225.221183 
L 1284.815431 222.246977 
L 1286.402805 218.967537 
L 1287.99018 215.367908 
L 1289.577554 211.434926 
L 1291.164929 207.157649 
L 1292.752304 202.527812 
L 1294.339678 197.540269 
L 1295.927053 192.193443 
L 1297.514427 186.489745 
L 1299.101802 180.435973 
L 1300.689176 174.043661 
L 1302.276551 167.329375 
L 1303.863925 160.314948 
L 1305.4513 153.027622 
L 1307.038675 145.500114 
L 1308.626049 137.770575 
L 1310.213424 129.882443 
L 1311.800798 121.884187 
L 1313.388173 113.828932 
L 1314.975547 105.773976 
L 1316.562922 97.780189 
L 1318.150297 89.911313 
L 1319.737671 82.233161 
L 1321.325046 74.81274 
L 1322.91242 67.717302 
L 1324.499795 61.013347 
L 1326.087169 54.765601 
L 1327.674544 49.035979 
L 1329.261919 43.882573 
L 1330.849293 39.35867 
L 1332.436668 35.511841 
L 1334.024042 32.383103 
L 1335.611417 30.006197 
L 1337.198791 28.40698 
L 1338.786166 27.602955 
L 1340.373541 27.602955 
L 1341.960915 28.40698 
L 1343.54829 30.006197 
L 1345.135664 32.383103 
L 1346.723039 35.511841 
L 1348.310413 39.35867 
L 1349.897788 43.882573 
L 1351.485163 49.035979 
L 1353.072537 54.765601 
L 1354.659912 61.013347 
L 1356.247286 67.717302 
L 1357.834661 74.81274 
L 1359.422035 82.233161 
L 1361.00941 89.911313 
L 1362.596785 97.780189 
L 1364.184159 105.773976 
L 1365.771534 113.828932 
L 1367.358908 121.884187 
L 1368.946283 129.882443 
L 1370.533657 137.770575 
L 1372.121032 145.500114 
L 1373.708406 153.027622 
L 1375.295781 160.314948 
L 1376.883156 167.329375 
L 1378.47053 174.043661 
L 1380.057905 180.435973 
L 1381.645279 186.489745 
L 1383.232654 192.193443 
L 1384.820028 197.540269 
L 1386.407403 202.527812 
L 1387.994778 207.157649 
L 1389.582152 211.434926 
L 1391.169527 215.367908 
L 1392.756901 218.967537 
L 1394.344276 222.246977 
L 1395.93165 225.221183 
L 1397.519025 227.906485 
L 1399.1064 230.320195 
L 1400.693774 232.480252 
L 1402.281149 234.404892 
L 1403.868523 236.112365 
L 1405.455898 237.620678 
L 1407.043272 238.947388 
L 1408.630647 240.109425 
L 1410.218022 241.122949 
L 1411.805396 242.003245 
L 1413.392771 242.764648 
L 1414.980145 243.420492 
L 1416.56752 243.983086 
L 1418.154894 244.46371 
" clip-path="url(#p33cccd7660)" style="fill: none; stroke: #2ca02c; stroke-width: 1.5; stroke-linecap: square"/>
   </g>
   <g id="patch_175">
    <path d="M 1194.655535 246.90101 
L 1194.655535 16.638052 
" style="fill: none; stroke: #000000; stroke-width: 0.8; stroke-linejoin: miter; stroke-linecap: square"/>
   </g>
   <g id="patch_176">
    <path d="M 1436.99976 246.90101 
L 1436.99976 16.638052 
" style="fill: none; stroke: #000000; stroke-width: 0.8; stroke-linejoin: miter; stroke-linecap: square"/>
   </g>
   <g id="patch_177">
    <path d="M 1194.655535 246.90101 
L 1436.99976 246.90101 
" style="fill: none; stroke: #000000; stroke-width: 0.8; stroke-linejoin: miter; stroke-linecap: square"/>
   </g>
   <g id="patch_178">
    <path d="M 1194.655535 16.638052 
L 1436.99976 16.638052 
" style="fill: none; stroke: #000000; stroke-width: 0.8; stroke-linejoin: miter; stroke-linecap: square"/>
   </g>
  </g>
 </g>
 <defs>
  <clipPath id="p8946902c4a">
   <rect x="36.457115" y="16.638052" width="242.344225" height="230.262958"/>
  </clipPath>
  <clipPath id="p4eb34fe24d">
   <rect x="338.366226" y="16.638052" width="242.344225" height="230.262958"/>
  </clipPath>
  <clipPath id="p875ad88689">
   <rect x="611.52593" y="16.638052" width="242.344225" height="230.262958"/>
  </clipPath>
  <clipPath id="p6f8a2db795">
   <rect x="899.231456" y="16.638052" width="242.344225" height="230.262958"/>
  </clipPath>
  <clipPath id="p33cccd7660">
   <rect x="1194.655535" y="16.638052" width="242.344225" height="230.262958"/>
  </clipPath>
 </defs>
</svg>
