<?xml version="1.0" encoding="utf-8" standalone="no"?>
<!DOCTYPE svg PUBLIC "-//W3C//DTD SVG 1.1//EN"
  "http://www.w3.org/Graphics/SVG/1.1/DTD/svg11.dtd">
<svg xmlns:xlink="http://www.w3.org/1999/xlink" width="504pt" height="252pt" viewBox="0 0 504 252" xmlns="http://www.w3.org/2000/svg" version="1.1">
 <metadata>
  <rdf:RDF xmlns:dc="http://purl.org/dc/elements/1.1/" xmlns:cc="http://creativecommons.org/ns#" xmlns:rdf="http://www.w3.org/1999/02/22-rdf-syntax-ns#">
   <cc:Work>
    <dc:type rdf:resource="http://purl.org/dc/dcmitype/StillImage"/>
    <dc:date>2024-11-24T00:01:07.176160</dc:date>
    <dc:format>image/svg+xml</dc:format>
    <dc:creator>
     <cc:Agent>
      <dc:title>Matplotlib v3.9.2, https://matplotlib.org/</dc:title>
     </cc:Agent>
    </dc:creator>
   </cc:Work>
  </rdf:RDF>
 </metadata>
 <defs>
  <style type="text/css">*{stroke-linejoin: round; stroke-linecap: butt}</style>
 </defs>
 <g id="figure_1">
  <g id="patch_1">
   <path d="M 0 252 
L 504 252 
L 504 0 
L 0 0 
z
" style="fill: #ffffff"/>
  </g>
  <g id="axes_1">
   <g id="patch_2">
    <path d="M 36.403365 218.64351 
L 263.951323 218.64351 
L 263.951323 18.118365 
L 36.403365 18.118365 
z
" style="fill: #ffffff"/>
   </g>
   <g id="PolyCollection_1">
    <defs>
     <path id="m463654e350" d="M 117.714916 -42.471269 
L 117.623441 -42.471269 
L 114.304477 -44.312639 
L 111.219127 -46.154008 
L 108.367391 -47.995378 
L 105.749268 -49.836748 
L 103.364759 -51.678117 
L 101.213863 -53.519487 
L 99.296582 -55.360856 
L 97.612914 -57.202226 
L 96.16286 -59.043595 
L 94.94642 -60.884965 
L 93.963593 -62.726334 
L 93.214381 -64.567704 
L 92.591225 -66.409074 
L 91.986572 -68.250443 
L 91.400419 -70.091813 
L 90.832768 -71.933182 
L 90.283618 -73.774552 
L 89.75297 -75.615921 
L 89.240822 -77.457291 
L 88.747176 -79.298661 
L 88.297303 -81.14003 
L 87.916475 -82.9814 
L 87.60469 -84.822769 
L 87.36195 -86.664139 
L 87.188254 -88.505508 
L 87.083603 -90.346878 
L 87.047996 -92.188247 
L 87.081433 -94.029617 
L 87.128642 -95.870987 
L 87.134352 -97.712356 
L 87.098561 -99.553726 
L 87.021271 -101.395095 
L 86.902481 -103.236465 
L 86.742191 -105.077834 
L 86.540401 -106.919204 
L 86.297111 -108.760573 
L 86.002373 -110.601943 
L 85.64624 -112.443313 
L 85.22871 -114.284682 
L 84.749784 -116.126052 
L 84.209462 -117.967421 
L 83.607744 -119.808791 
L 82.944629 -121.65016 
L 82.220119 -123.49153 
L 81.481889 -125.332899 
L 80.777615 -127.174269 
L 80.107297 -129.015639 
L 79.470935 -130.857008 
L 78.86853 -132.698378 
L 78.300081 -134.539747 
L 77.765588 -136.381117 
L 77.265051 -138.222486 
L 76.754733 -140.063856 
L 76.190898 -141.905226 
L 75.573545 -143.746595 
L 74.902674 -145.587965 
L 74.178286 -147.429334 
L 73.40038 -149.270704 
L 72.568956 -151.112073 
L 71.684014 -152.953443 
L 70.782655 -154.794812 
L 69.901979 -156.636182 
L 69.041985 -158.477552 
L 68.202675 -160.318921 
L 67.384047 -162.160291 
L 66.586102 -164.00166 
L 65.808839 -165.84303 
L 65.05226 -167.684399 
L 64.335734 -169.525769 
L 63.678634 -171.367138 
L 63.080959 -173.208508 
L 62.542709 -175.049878 
L 62.063885 -176.891247 
L 61.644485 -178.732617 
L 61.284511 -180.573986 
L 60.983962 -182.415356 
L 60.640621 -184.256725 
L 60.152269 -186.098095 
L 59.518908 -187.939464 
L 58.740536 -189.780834 
L 57.817154 -191.622204 
L 56.748762 -193.463573 
L 55.53536 -195.304943 
L 54.176948 -197.146312 
L 52.795518 -198.987682 
L 51.513066 -200.829051 
L 50.329589 -202.670421 
L 49.24509 -204.511791 
L 48.259566 -206.35316 
L 47.373019 -208.19453 
L 46.585448 -210.035899 
L 45.896854 -211.877269 
L 45.307236 -213.718638 
L 44.816595 -215.560008 
L 44.42493 -217.401377 
L 44.132241 -219.242747 
L 43.938529 -221.084117 
L 43.843794 -222.925486 
L 43.848034 -224.766856 
L 87.631211 -224.766856 
L 87.631211 -224.766856 
L 87.319355 -222.925486 
L 87.039673 -221.084117 
L 86.792167 -219.242747 
L 86.576836 -217.401377 
L 86.393681 -215.560008 
L 86.242701 -213.718638 
L 86.123896 -211.877269 
L 86.037266 -210.035899 
L 85.982812 -208.19453 
L 85.960533 -206.35316 
L 85.970429 -204.511791 
L 86.0125 -202.670421 
L 86.086747 -200.829051 
L 86.193169 -198.987682 
L 86.331766 -197.146312 
L 86.502539 -195.304943 
L 86.705487 -193.463573 
L 86.94061 -191.622204 
L 87.207908 -189.780834 
L 87.520608 -187.939464 
L 87.891935 -186.098095 
L 88.321889 -184.256725 
L 88.81047 -182.415356 
L 89.357678 -180.573986 
L 89.963513 -178.732617 
L 90.627976 -176.891247 
L 91.351065 -175.049878 
L 92.078632 -173.208508 
L 92.756526 -171.367138 
L 93.384748 -169.525769 
L 93.963297 -167.684399 
L 94.492174 -165.84303 
L 94.971378 -164.00166 
L 95.40091 -162.160291 
L 95.780769 -160.318921 
L 96.125792 -158.477552 
L 96.450817 -156.636182 
L 96.755842 -154.794812 
L 97.040867 -152.953443 
L 97.305894 -151.112073 
L 97.550922 -149.270704 
L 97.77595 -147.429334 
L 97.980979 -145.587965 
L 98.214666 -143.746595 
L 98.525665 -141.905226 
L 98.913978 -140.063856 
L 99.379604 -138.222486 
L 99.922544 -136.381117 
L 100.542796 -134.539747 
L 101.240362 -132.698378 
L 102.015241 -130.857008 
L 102.806614 -129.015639 
L 103.553659 -127.174269 
L 104.256377 -125.332899 
L 104.914768 -123.49153 
L 105.528832 -121.65016 
L 106.098569 -119.808791 
L 106.623979 -117.967421 
L 107.105062 -116.126052 
L 107.55914 -114.284682 
L 108.003534 -112.443313 
L 108.438244 -110.601943 
L 108.863271 -108.760573 
L 109.278614 -106.919204 
L 109.684273 -105.077834 
L 110.080249 -103.236465 
L 110.466541 -101.395095 
L 110.843149 -99.553726 
L 111.210074 -97.712356 
L 111.567315 -95.870987 
L 111.914872 -94.029617 
L 112.252746 -92.188247 
L 112.580936 -90.346878 
L 112.899443 -88.505508 
L 113.208265 -86.664139 
L 113.507404 -84.822769 
L 113.79686 -82.9814 
L 114.076632 -81.14003 
L 114.34672 -79.298661 
L 114.607124 -77.457291 
L 114.857845 -75.615921 
L 115.098883 -73.774552 
L 115.330236 -71.933182 
L 115.551906 -70.091813 
L 115.763892 -68.250443 
L 115.966195 -66.409074 
L 116.158814 -64.567704 
L 116.341749 -62.726334 
L 116.515001 -60.884965 
L 116.678569 -59.043595 
L 116.832453 -57.202226 
L 116.976654 -55.360856 
L 117.111171 -53.519487 
L 117.236004 -51.678117 
L 117.351154 -49.836748 
L 117.45662 -47.995378 
L 117.552402 -46.154008 
L 117.638501 -44.312639 
L 117.714916 -42.471269 
z
" style="stroke: #90ee90; stroke-opacity: 0.75"/>
    </defs>
    <g clip-path="url(#pb090adbc3a)">
     <use xlink:href="#m463654e350" x="0" y="252" style="fill: #90ee90; fill-opacity: 0.75; stroke: #90ee90; stroke-opacity: 0.75"/>
    </g>
   </g>
   <g id="PolyCollection_2">
    <defs>
     <path id="m7b7140051e" d="M 117.722801 -42.471269 
L 117.631463 -42.471269 
L 116.977027 -44.312639 
L 116.298195 -46.154008 
L 115.619865 -47.995378 
L 114.946574 -49.836748 
L 114.276319 -51.678117 
L 113.611062 -53.519487 
L 112.948847 -55.360856 
L 112.291414 -57.202226 
L 111.637572 -59.043595 
L 110.987974 -60.884965 
L 110.341333 -62.726334 
L 109.698354 -64.567704 
L 109.05815 -66.409074 
L 108.418132 -68.250443 
L 107.781901 -70.091813 
L 107.154558 -71.933182 
L 106.512961 -73.774552 
L 105.875198 -75.615921 
L 105.254156 -77.457291 
L 104.62792 -79.298661 
L 103.998259 -81.14003 
L 103.373279 -82.9814 
L 102.759092 -84.822769 
L 102.137691 -86.664139 
L 101.511375 -88.505508 
L 100.892367 -90.346878 
L 100.259452 -92.188247 
L 99.639616 -94.029617 
L 99.014996 -95.870987 
L 98.38917 -97.712356 
L 97.765734 -99.553726 
L 97.133471 -101.395095 
L 96.518418 -103.236465 
L 95.896702 -105.077834 
L 95.281789 -106.919204 
L 94.647019 -108.760573 
L 94.030877 -110.601943 
L 93.410414 -112.443313 
L 92.785063 -114.284682 
L 92.162065 -116.126052 
L 91.533825 -117.967421 
L 90.902459 -119.808791 
L 90.267838 -121.65016 
L 89.629823 -123.49153 
L 88.999326 -125.332899 
L 88.374271 -127.174269 
L 87.738291 -129.015639 
L 87.100921 -130.857008 
L 86.487801 -132.698378 
L 85.830615 -134.539747 
L 85.185489 -136.381117 
L 84.551826 -138.222486 
L 83.900859 -140.063856 
L 83.256893 -141.905226 
L 82.599883 -143.746595 
L 81.945832 -145.587965 
L 81.299519 -147.429334 
L 80.639409 -149.270704 
L 79.981705 -151.112073 
L 79.33372 -152.953443 
L 78.660261 -154.794812 
L 77.987821 -156.636182 
L 77.324071 -158.477552 
L 76.643425 -160.318921 
L 75.968314 -162.160291 
L 75.258647 -164.00166 
L 74.574382 -165.84303 
L 73.87467 -167.684399 
L 73.201948 -169.525769 
L 72.500876 -171.367138 
L 71.785131 -173.208508 
L 71.076872 -175.049878 
L 70.372831 -176.891247 
L 69.635056 -178.732617 
L 68.901677 -180.573986 
L 68.178364 -182.415356 
L 67.418848 -184.256725 
L 66.640041 -186.098095 
L 65.888791 -187.939464 
L 65.13908 -189.780834 
L 64.375824 -191.622204 
L 63.619585 -193.463573 
L 62.88828 -195.304943 
L 62.132537 -197.146312 
L 61.414326 -198.987682 
L 60.612586 -200.829051 
L 59.853568 -202.670421 
L 59.016806 -204.511791 
L 58.288291 -206.35316 
L 57.500891 -208.19453 
L 56.711663 -210.035899 
L 55.972921 -211.877269 
L 55.178483 -213.718638 
L 54.422787 -215.560008 
L 53.701117 -217.401377 
L 52.964883 -219.242747 
L 52.183556 -221.084117 
L 51.47845 -222.925486 
L 50.711716 -224.766856 
L 60.340673 -224.766856 
L 60.340673 -224.766856 
L 60.83666 -222.925486 
L 61.324468 -221.084117 
L 61.824742 -219.242747 
L 62.344677 -217.401377 
L 62.858583 -215.560008 
L 63.354136 -213.718638 
L 63.880123 -211.877269 
L 64.409763 -210.035899 
L 64.930537 -208.19453 
L 65.44954 -206.35316 
L 65.989112 -204.511791 
L 66.549772 -202.670421 
L 67.09367 -200.829051 
L 67.642866 -198.987682 
L 68.190278 -197.146312 
L 68.762707 -195.304943 
L 69.326395 -193.463573 
L 69.892868 -191.622204 
L 70.458275 -189.780834 
L 71.023834 -187.939464 
L 71.600898 -186.098095 
L 72.170642 -184.256725 
L 72.760922 -182.415356 
L 73.336471 -180.573986 
L 73.931436 -178.732617 
L 74.52225 -176.891247 
L 75.111303 -175.049878 
L 75.713315 -173.208508 
L 76.299675 -171.367138 
L 76.902696 -169.525769 
L 77.495066 -167.684399 
L 78.090906 -165.84303 
L 78.706719 -164.00166 
L 79.313043 -162.160291 
L 79.914266 -160.318921 
L 80.532623 -158.477552 
L 81.142975 -156.636182 
L 81.768588 -154.794812 
L 82.379459 -152.953443 
L 82.993046 -151.112073 
L 83.612172 -149.270704 
L 84.228116 -147.429334 
L 84.853181 -145.587965 
L 85.48056 -143.746595 
L 86.102969 -141.905226 
L 86.723362 -140.063856 
L 87.339912 -138.222486 
L 87.957644 -136.381117 
L 88.568386 -134.539747 
L 89.172589 -132.698378 
L 89.786889 -130.857008 
L 90.406842 -129.015639 
L 91.010986 -127.174269 
L 91.60904 -125.332899 
L 92.215325 -123.49153 
L 92.816236 -121.65016 
L 93.41575 -119.808791 
L 94.011692 -117.967421 
L 94.604232 -116.126052 
L 95.196244 -114.284682 
L 95.784138 -112.443313 
L 96.380396 -110.601943 
L 96.968917 -108.760573 
L 97.549875 -106.919204 
L 98.1372 -105.077834 
L 98.721347 -103.236465 
L 99.299812 -101.395095 
L 99.890089 -99.553726 
L 100.470054 -97.712356 
L 101.041927 -95.870987 
L 101.627792 -94.029617 
L 102.200201 -92.188247 
L 102.778437 -90.346878 
L 103.350879 -88.505508 
L 103.922312 -86.664139 
L 104.505152 -84.822769 
L 105.076023 -82.9814 
L 105.64477 -81.14003 
L 106.218729 -79.298661 
L 106.79486 -77.457291 
L 107.364407 -75.615921 
L 107.938215 -73.774552 
L 108.515559 -71.933182 
L 109.084519 -70.091813 
L 109.65786 -68.250443 
L 110.238274 -66.409074 
L 110.808625 -64.567704 
L 111.37928 -62.726334 
L 111.95849 -60.884965 
L 112.533342 -59.043595 
L 113.100922 -57.202226 
L 113.675208 -55.360856 
L 114.246189 -53.519487 
L 114.820472 -51.678117 
L 115.39855 -49.836748 
L 115.971693 -47.995378 
L 116.546842 -46.154008 
L 117.12644 -44.312639 
L 117.722801 -42.471269 
z
" style="stroke: #6495ed; stroke-opacity: 0.75"/>
    </defs>
    <g clip-path="url(#pb090adbc3a)">
     <use xlink:href="#m7b7140051e" x="0" y="252" style="fill: #6495ed; fill-opacity: 0.75; stroke: #6495ed; stroke-opacity: 0.75"/>
    </g>
   </g>
   <g id="matplotlib.axis_1">
    <g id="xtick_1">
     <g id="line2d_1">
      <defs>
       <path id="me812259b82" d="M 0 0 
L 0 3.5 
" style="stroke: #000000; stroke-width: 0.8"/>
      </defs>
      <g>
       <use xlink:href="#me812259b82" x="52.656791" y="218.64351" style="stroke: #000000; stroke-width: 0.8"/>
      </g>
     </g>
     <g id="text_1">
      <!-- −0.04 -->
      <g transform="translate(37.334134 233.241948) scale(0.1 -0.1)">
       <defs>
        <path id="DejaVuSans-2212" d="M 678 2272 
L 4684 2272 
L 4684 1741 
L 678 1741 
L 678 2272 
z
" transform="scale(0.015625)"/>
        <path id="DejaVuSans-30" d="M 2034 4250 
Q 1547 4250 1301 3770 
Q 1056 3291 1056 2328 
Q 1056 1369 1301 889 
Q 1547 409 2034 409 
Q 2525 409 2770 889 
Q 3016 1369 3016 2328 
Q 3016 3291 2770 3770 
Q 2525 4250 2034 4250 
z
M 2034 4750 
Q 2819 4750 3233 4129 
Q 3647 3509 3647 2328 
Q 3647 1150 3233 529 
Q 2819 -91 2034 -91 
Q 1250 -91 836 529 
Q 422 1150 422 2328 
Q 422 3509 836 4129 
Q 1250 4750 2034 4750 
z
" transform="scale(0.015625)"/>
        <path id="DejaVuSans-2e" d="M 684 794 
L 1344 794 
L 1344 0 
L 684 0 
L 684 794 
z
" transform="scale(0.015625)"/>
        <path id="DejaVuSans-34" d="M 2419 4116 
L 825 1625 
L 2419 1625 
L 2419 4116 
z
M 2253 4666 
L 3047 4666 
L 3047 1625 
L 3713 1625 
L 3713 1100 
L 3047 1100 
L 3047 0 
L 2419 0 
L 2419 1100 
L 313 1100 
L 313 1709 
L 2253 4666 
z
" transform="scale(0.015625)"/>
       </defs>
       <use xlink:href="#DejaVuSans-2212"/>
       <use xlink:href="#DejaVuSans-30" x="83.789062"/>
       <use xlink:href="#DejaVuSans-2e" x="147.412109"/>
       <use xlink:href="#DejaVuSans-30" x="179.199219"/>
       <use xlink:href="#DejaVuSans-34" x="242.822266"/>
      </g>
     </g>
    </g>
    <g id="xtick_2">
     <g id="line2d_2">
      <g>
       <use xlink:href="#me812259b82" x="85.163642" y="218.64351" style="stroke: #000000; stroke-width: 0.8"/>
      </g>
     </g>
     <g id="text_2">
      <!-- −0.02 -->
      <g transform="translate(69.840985 233.241948) scale(0.1 -0.1)">
       <defs>
        <path id="DejaVuSans-32" d="M 1228 531 
L 3431 531 
L 3431 0 
L 469 0 
L 469 531 
Q 828 903 1448 1529 
Q 2069 2156 2228 2338 
Q 2531 2678 2651 2914 
Q 2772 3150 2772 3378 
Q 2772 3750 2511 3984 
Q 2250 4219 1831 4219 
Q 1534 4219 1204 4116 
Q 875 4013 500 3803 
L 500 4441 
Q 881 4594 1212 4672 
Q 1544 4750 1819 4750 
Q 2544 4750 2975 4387 
Q 3406 4025 3406 3419 
Q 3406 3131 3298 2873 
Q 3191 2616 2906 2266 
Q 2828 2175 2409 1742 
Q 1991 1309 1228 531 
z
" transform="scale(0.015625)"/>
       </defs>
       <use xlink:href="#DejaVuSans-2212"/>
       <use xlink:href="#DejaVuSans-30" x="83.789062"/>
       <use xlink:href="#DejaVuSans-2e" x="147.412109"/>
       <use xlink:href="#DejaVuSans-30" x="179.199219"/>
       <use xlink:href="#DejaVuSans-32" x="242.822266"/>
      </g>
     </g>
    </g>
    <g id="xtick_3">
     <g id="line2d_3">
      <g>
       <use xlink:href="#me812259b82" x="117.670493" y="218.64351" style="stroke: #000000; stroke-width: 0.8"/>
      </g>
     </g>
     <g id="text_3">
      <!-- 0.00 -->
      <g transform="translate(106.53768 233.241948) scale(0.1 -0.1)">
       <use xlink:href="#DejaVuSans-30"/>
       <use xlink:href="#DejaVuSans-2e" x="63.623047"/>
       <use xlink:href="#DejaVuSans-30" x="95.410156"/>
       <use xlink:href="#DejaVuSans-30" x="159.033203"/>
      </g>
     </g>
    </g>
    <g id="xtick_4">
     <g id="line2d_4">
      <g>
       <use xlink:href="#me812259b82" x="150.177344" y="218.64351" style="stroke: #000000; stroke-width: 0.8"/>
      </g>
     </g>
     <g id="text_4">
      <!-- 0.02 -->
      <g transform="translate(139.044531 233.241948) scale(0.1 -0.1)">
       <use xlink:href="#DejaVuSans-30"/>
       <use xlink:href="#DejaVuSans-2e" x="63.623047"/>
       <use xlink:href="#DejaVuSans-30" x="95.410156"/>
       <use xlink:href="#DejaVuSans-32" x="159.033203"/>
      </g>
     </g>
    </g>
    <g id="xtick_5">
     <g id="line2d_5">
      <g>
       <use xlink:href="#me812259b82" x="182.684195" y="218.64351" style="stroke: #000000; stroke-width: 0.8"/>
      </g>
     </g>
     <g id="text_5">
      <!-- 0.04 -->
      <g transform="translate(171.551382 233.241948) scale(0.1 -0.1)">
       <use xlink:href="#DejaVuSans-30"/>
       <use xlink:href="#DejaVuSans-2e" x="63.623047"/>
       <use xlink:href="#DejaVuSans-30" x="95.410156"/>
       <use xlink:href="#DejaVuSans-34" x="159.033203"/>
      </g>
     </g>
    </g>
    <g id="xtick_6">
     <g id="line2d_6">
      <g>
       <use xlink:href="#me812259b82" x="215.191046" y="218.64351" style="stroke: #000000; stroke-width: 0.8"/>
      </g>
     </g>
     <g id="text_6">
      <!-- 0.06 -->
      <g transform="translate(204.058233 233.241948) scale(0.1 -0.1)">
       <defs>
        <path id="DejaVuSans-36" d="M 2113 2584 
Q 1688 2584 1439 2293 
Q 1191 2003 1191 1497 
Q 1191 994 1439 701 
Q 1688 409 2113 409 
Q 2538 409 2786 701 
Q 3034 994 3034 1497 
Q 3034 2003 2786 2293 
Q 2538 2584 2113 2584 
z
M 3366 4563 
L 3366 3988 
Q 3128 4100 2886 4159 
Q 2644 4219 2406 4219 
Q 1781 4219 1451 3797 
Q 1122 3375 1075 2522 
Q 1259 2794 1537 2939 
Q 1816 3084 2150 3084 
Q 2853 3084 3261 2657 
Q 3669 2231 3669 1497 
Q 3669 778 3244 343 
Q 2819 -91 2113 -91 
Q 1303 -91 875 529 
Q 447 1150 447 2328 
Q 447 3434 972 4092 
Q 1497 4750 2381 4750 
Q 2619 4750 2861 4703 
Q 3103 4656 3366 4563 
z
" transform="scale(0.015625)"/>
       </defs>
       <use xlink:href="#DejaVuSans-30"/>
       <use xlink:href="#DejaVuSans-2e" x="63.623047"/>
       <use xlink:href="#DejaVuSans-30" x="95.410156"/>
       <use xlink:href="#DejaVuSans-36" x="159.033203"/>
      </g>
     </g>
    </g>
    <g id="xtick_7">
     <g id="line2d_7">
      <g>
       <use xlink:href="#me812259b82" x="247.697897" y="218.64351" style="stroke: #000000; stroke-width: 0.8"/>
      </g>
     </g>
     <g id="text_7">
      <!-- 0.08 -->
      <g transform="translate(236.565084 233.241948) scale(0.1 -0.1)">
       <defs>
        <path id="DejaVuSans-38" d="M 2034 2216 
Q 1584 2216 1326 1975 
Q 1069 1734 1069 1313 
Q 1069 891 1326 650 
Q 1584 409 2034 409 
Q 2484 409 2743 651 
Q 3003 894 3003 1313 
Q 3003 1734 2745 1975 
Q 2488 2216 2034 2216 
z
M 1403 2484 
Q 997 2584 770 2862 
Q 544 3141 544 3541 
Q 544 4100 942 4425 
Q 1341 4750 2034 4750 
Q 2731 4750 3128 4425 
Q 3525 4100 3525 3541 
Q 3525 3141 3298 2862 
Q 3072 2584 2669 2484 
Q 3125 2378 3379 2068 
Q 3634 1759 3634 1313 
Q 3634 634 3220 271 
Q 2806 -91 2034 -91 
Q 1263 -91 848 271 
Q 434 634 434 1313 
Q 434 1759 690 2068 
Q 947 2378 1403 2484 
z
M 1172 3481 
Q 1172 3119 1398 2916 
Q 1625 2713 2034 2713 
Q 2441 2713 2670 2916 
Q 2900 3119 2900 3481 
Q 2900 3844 2670 4047 
Q 2441 4250 2034 4250 
Q 1625 4250 1398 4047 
Q 1172 3844 1172 3481 
z
" transform="scale(0.015625)"/>
       </defs>
       <use xlink:href="#DejaVuSans-30"/>
       <use xlink:href="#DejaVuSans-2e" x="63.623047"/>
       <use xlink:href="#DejaVuSans-30" x="95.410156"/>
       <use xlink:href="#DejaVuSans-38" x="159.033203"/>
      </g>
     </g>
    </g>
    <g id="text_8">
     <!-- Normal Extension [mm] -->
     <g transform="translate(90.719531 246.920073) scale(0.1 -0.1)">
      <defs>
       <path id="DejaVuSans-4e" d="M 628 4666 
L 1478 4666 
L 3547 763 
L 3547 4666 
L 4159 4666 
L 4159 0 
L 3309 0 
L 1241 3903 
L 1241 0 
L 628 0 
L 628 4666 
z
" transform="scale(0.015625)"/>
       <path id="DejaVuSans-6f" d="M 1959 3097 
Q 1497 3097 1228 2736 
Q 959 2375 959 1747 
Q 959 1119 1226 758 
Q 1494 397 1959 397 
Q 2419 397 2687 759 
Q 2956 1122 2956 1747 
Q 2956 2369 2687 2733 
Q 2419 3097 1959 3097 
z
M 1959 3584 
Q 2709 3584 3137 3096 
Q 3566 2609 3566 1747 
Q 3566 888 3137 398 
Q 2709 -91 1959 -91 
Q 1206 -91 779 398 
Q 353 888 353 1747 
Q 353 2609 779 3096 
Q 1206 3584 1959 3584 
z
" transform="scale(0.015625)"/>
       <path id="DejaVuSans-72" d="M 2631 2963 
Q 2534 3019 2420 3045 
Q 2306 3072 2169 3072 
Q 1681 3072 1420 2755 
Q 1159 2438 1159 1844 
L 1159 0 
L 581 0 
L 581 3500 
L 1159 3500 
L 1159 2956 
Q 1341 3275 1631 3429 
Q 1922 3584 2338 3584 
Q 2397 3584 2469 3576 
Q 2541 3569 2628 3553 
L 2631 2963 
z
" transform="scale(0.015625)"/>
       <path id="DejaVuSans-6d" d="M 3328 2828 
Q 3544 3216 3844 3400 
Q 4144 3584 4550 3584 
Q 5097 3584 5394 3201 
Q 5691 2819 5691 2113 
L 5691 0 
L 5113 0 
L 5113 2094 
Q 5113 2597 4934 2840 
Q 4756 3084 4391 3084 
Q 3944 3084 3684 2787 
Q 3425 2491 3425 1978 
L 3425 0 
L 2847 0 
L 2847 2094 
Q 2847 2600 2669 2842 
Q 2491 3084 2119 3084 
Q 1678 3084 1418 2786 
Q 1159 2488 1159 1978 
L 1159 0 
L 581 0 
L 581 3500 
L 1159 3500 
L 1159 2956 
Q 1356 3278 1631 3431 
Q 1906 3584 2284 3584 
Q 2666 3584 2933 3390 
Q 3200 3197 3328 2828 
z
" transform="scale(0.015625)"/>
       <path id="DejaVuSans-61" d="M 2194 1759 
Q 1497 1759 1228 1600 
Q 959 1441 959 1056 
Q 959 750 1161 570 
Q 1363 391 1709 391 
Q 2188 391 2477 730 
Q 2766 1069 2766 1631 
L 2766 1759 
L 2194 1759 
z
M 3341 1997 
L 3341 0 
L 2766 0 
L 2766 531 
Q 2569 213 2275 61 
Q 1981 -91 1556 -91 
Q 1019 -91 701 211 
Q 384 513 384 1019 
Q 384 1609 779 1909 
Q 1175 2209 1959 2209 
L 2766 2209 
L 2766 2266 
Q 2766 2663 2505 2880 
Q 2244 3097 1772 3097 
Q 1472 3097 1187 3025 
Q 903 2953 641 2809 
L 641 3341 
Q 956 3463 1253 3523 
Q 1550 3584 1831 3584 
Q 2591 3584 2966 3190 
Q 3341 2797 3341 1997 
z
" transform="scale(0.015625)"/>
       <path id="DejaVuSans-6c" d="M 603 4863 
L 1178 4863 
L 1178 0 
L 603 0 
L 603 4863 
z
" transform="scale(0.015625)"/>
       <path id="DejaVuSans-20" transform="scale(0.015625)"/>
       <path id="DejaVuSans-45" d="M 628 4666 
L 3578 4666 
L 3578 4134 
L 1259 4134 
L 1259 2753 
L 3481 2753 
L 3481 2222 
L 1259 2222 
L 1259 531 
L 3634 531 
L 3634 0 
L 628 0 
L 628 4666 
z
" transform="scale(0.015625)"/>
       <path id="DejaVuSans-78" d="M 3513 3500 
L 2247 1797 
L 3578 0 
L 2900 0 
L 1881 1375 
L 863 0 
L 184 0 
L 1544 1831 
L 300 3500 
L 978 3500 
L 1906 2253 
L 2834 3500 
L 3513 3500 
z
" transform="scale(0.015625)"/>
       <path id="DejaVuSans-74" d="M 1172 4494 
L 1172 3500 
L 2356 3500 
L 2356 3053 
L 1172 3053 
L 1172 1153 
Q 1172 725 1289 603 
Q 1406 481 1766 481 
L 2356 481 
L 2356 0 
L 1766 0 
Q 1100 0 847 248 
Q 594 497 594 1153 
L 594 3053 
L 172 3053 
L 172 3500 
L 594 3500 
L 594 4494 
L 1172 4494 
z
" transform="scale(0.015625)"/>
       <path id="DejaVuSans-65" d="M 3597 1894 
L 3597 1613 
L 953 1613 
Q 991 1019 1311 708 
Q 1631 397 2203 397 
Q 2534 397 2845 478 
Q 3156 559 3463 722 
L 3463 178 
Q 3153 47 2828 -22 
Q 2503 -91 2169 -91 
Q 1331 -91 842 396 
Q 353 884 353 1716 
Q 353 2575 817 3079 
Q 1281 3584 2069 3584 
Q 2775 3584 3186 3129 
Q 3597 2675 3597 1894 
z
M 3022 2063 
Q 3016 2534 2758 2815 
Q 2500 3097 2075 3097 
Q 1594 3097 1305 2825 
Q 1016 2553 972 2059 
L 3022 2063 
z
" transform="scale(0.015625)"/>
       <path id="DejaVuSans-6e" d="M 3513 2113 
L 3513 0 
L 2938 0 
L 2938 2094 
Q 2938 2591 2744 2837 
Q 2550 3084 2163 3084 
Q 1697 3084 1428 2787 
Q 1159 2491 1159 1978 
L 1159 0 
L 581 0 
L 581 3500 
L 1159 3500 
L 1159 2956 
Q 1366 3272 1645 3428 
Q 1925 3584 2291 3584 
Q 2894 3584 3203 3211 
Q 3513 2838 3513 2113 
z
" transform="scale(0.015625)"/>
       <path id="DejaVuSans-73" d="M 2834 3397 
L 2834 2853 
Q 2591 2978 2328 3040 
Q 2066 3103 1784 3103 
Q 1356 3103 1142 2972 
Q 928 2841 928 2578 
Q 928 2378 1081 2264 
Q 1234 2150 1697 2047 
L 1894 2003 
Q 2506 1872 2764 1633 
Q 3022 1394 3022 966 
Q 3022 478 2636 193 
Q 2250 -91 1575 -91 
Q 1294 -91 989 -36 
Q 684 19 347 128 
L 347 722 
Q 666 556 975 473 
Q 1284 391 1588 391 
Q 1994 391 2212 530 
Q 2431 669 2431 922 
Q 2431 1156 2273 1281 
Q 2116 1406 1581 1522 
L 1381 1569 
Q 847 1681 609 1914 
Q 372 2147 372 2553 
Q 372 3047 722 3315 
Q 1072 3584 1716 3584 
Q 2034 3584 2315 3537 
Q 2597 3491 2834 3397 
z
" transform="scale(0.015625)"/>
       <path id="DejaVuSans-69" d="M 603 3500 
L 1178 3500 
L 1178 0 
L 603 0 
L 603 3500 
z
M 603 4863 
L 1178 4863 
L 1178 4134 
L 603 4134 
L 603 4863 
z
" transform="scale(0.015625)"/>
       <path id="DejaVuSans-5b" d="M 550 4863 
L 1875 4863 
L 1875 4416 
L 1125 4416 
L 1125 -397 
L 1875 -397 
L 1875 -844 
L 550 -844 
L 550 4863 
z
" transform="scale(0.015625)"/>
       <path id="DejaVuSans-5d" d="M 1947 4863 
L 1947 -844 
L 622 -844 
L 622 -397 
L 1369 -397 
L 1369 4416 
L 622 4416 
L 622 4863 
L 1947 4863 
z
" transform="scale(0.015625)"/>
      </defs>
      <use xlink:href="#DejaVuSans-4e"/>
      <use xlink:href="#DejaVuSans-6f" x="74.804688"/>
      <use xlink:href="#DejaVuSans-72" x="135.986328"/>
      <use xlink:href="#DejaVuSans-6d" x="175.349609"/>
      <use xlink:href="#DejaVuSans-61" x="272.761719"/>
      <use xlink:href="#DejaVuSans-6c" x="334.041016"/>
      <use xlink:href="#DejaVuSans-20" x="361.824219"/>
      <use xlink:href="#DejaVuSans-45" x="393.611328"/>
      <use xlink:href="#DejaVuSans-78" x="456.794922"/>
      <use xlink:href="#DejaVuSans-74" x="515.974609"/>
      <use xlink:href="#DejaVuSans-65" x="555.183594"/>
      <use xlink:href="#DejaVuSans-6e" x="616.707031"/>
      <use xlink:href="#DejaVuSans-73" x="680.085938"/>
      <use xlink:href="#DejaVuSans-69" x="732.185547"/>
      <use xlink:href="#DejaVuSans-6f" x="759.96875"/>
      <use xlink:href="#DejaVuSans-6e" x="821.150391"/>
      <use xlink:href="#DejaVuSans-20" x="884.529297"/>
      <use xlink:href="#DejaVuSans-5b" x="916.316406"/>
      <use xlink:href="#DejaVuSans-6d" x="955.330078"/>
      <use xlink:href="#DejaVuSans-6d" x="1052.742188"/>
      <use xlink:href="#DejaVuSans-5d" x="1150.154297"/>
     </g>
    </g>
   </g>
   <g id="matplotlib.axis_2">
    <g id="ytick_1">
     <g id="line2d_8">
      <defs>
       <path id="m221a9ceb76" d="M 0 0 
L -3.5 0 
" style="stroke: #000000; stroke-width: 0.8"/>
      </defs>
      <g>
       <use xlink:href="#m221a9ceb76" x="36.403365" y="209.528731" style="stroke: #000000; stroke-width: 0.8"/>
      </g>
     </g>
     <g id="text_9">
      <!-- 0 -->
      <g transform="translate(23.040865 213.327949) scale(0.1 -0.1)">
       <use xlink:href="#DejaVuSans-30"/>
      </g>
     </g>
    </g>
    <g id="ytick_2">
     <g id="line2d_9">
      <g>
       <use xlink:href="#m221a9ceb76" x="36.403365" y="173.069613" style="stroke: #000000; stroke-width: 0.8"/>
      </g>
     </g>
     <g id="text_10">
      <!-- 2 -->
      <g transform="translate(23.040865 176.868832) scale(0.1 -0.1)">
       <use xlink:href="#DejaVuSans-32"/>
      </g>
     </g>
    </g>
    <g id="ytick_3">
     <g id="line2d_10">
      <g>
       <use xlink:href="#m221a9ceb76" x="36.403365" y="136.610496" style="stroke: #000000; stroke-width: 0.8"/>
      </g>
     </g>
     <g id="text_11">
      <!-- 4 -->
      <g transform="translate(23.040865 140.409715) scale(0.1 -0.1)">
       <use xlink:href="#DejaVuSans-34"/>
      </g>
     </g>
    </g>
    <g id="ytick_4">
     <g id="line2d_11">
      <g>
       <use xlink:href="#m221a9ceb76" x="36.403365" y="100.151379" style="stroke: #000000; stroke-width: 0.8"/>
      </g>
     </g>
     <g id="text_12">
      <!-- 6 -->
      <g transform="translate(23.040865 103.950598) scale(0.1 -0.1)">
       <use xlink:href="#DejaVuSans-36"/>
      </g>
     </g>
    </g>
    <g id="ytick_5">
     <g id="line2d_12">
      <g>
       <use xlink:href="#m221a9ceb76" x="36.403365" y="63.692262" style="stroke: #000000; stroke-width: 0.8"/>
      </g>
     </g>
     <g id="text_13">
      <!-- 8 -->
      <g transform="translate(23.040865 67.49148) scale(0.1 -0.1)">
       <use xlink:href="#DejaVuSans-38"/>
      </g>
     </g>
    </g>
    <g id="ytick_6">
     <g id="line2d_13">
      <g>
       <use xlink:href="#m221a9ceb76" x="36.403365" y="27.233144" style="stroke: #000000; stroke-width: 0.8"/>
      </g>
     </g>
     <g id="text_14">
      <!-- 10 -->
      <g transform="translate(16.678365 31.032363) scale(0.1 -0.1)">
       <defs>
        <path id="DejaVuSans-31" d="M 794 531 
L 1825 531 
L 1825 4091 
L 703 3866 
L 703 4441 
L 1819 4666 
L 2450 4666 
L 2450 531 
L 3481 531 
L 3481 0 
L 794 0 
L 794 531 
z
" transform="scale(0.015625)"/>
       </defs>
       <use xlink:href="#DejaVuSans-31"/>
       <use xlink:href="#DejaVuSans-30" x="63.623047"/>
      </g>
     </g>
    </g>
    <g id="text_15">
     <!-- Load [kN] -->
     <g transform="translate(10.598678 142.503594) rotate(-90) scale(0.1 -0.1)">
      <defs>
       <path id="DejaVuSans-4c" d="M 628 4666 
L 1259 4666 
L 1259 531 
L 3531 531 
L 3531 0 
L 628 0 
L 628 4666 
z
" transform="scale(0.015625)"/>
       <path id="DejaVuSans-64" d="M 2906 2969 
L 2906 4863 
L 3481 4863 
L 3481 0 
L 2906 0 
L 2906 525 
Q 2725 213 2448 61 
Q 2172 -91 1784 -91 
Q 1150 -91 751 415 
Q 353 922 353 1747 
Q 353 2572 751 3078 
Q 1150 3584 1784 3584 
Q 2172 3584 2448 3432 
Q 2725 3281 2906 2969 
z
M 947 1747 
Q 947 1113 1208 752 
Q 1469 391 1925 391 
Q 2381 391 2643 752 
Q 2906 1113 2906 1747 
Q 2906 2381 2643 2742 
Q 2381 3103 1925 3103 
Q 1469 3103 1208 2742 
Q 947 2381 947 1747 
z
" transform="scale(0.015625)"/>
       <path id="DejaVuSans-6b" d="M 581 4863 
L 1159 4863 
L 1159 1991 
L 2875 3500 
L 3609 3500 
L 1753 1863 
L 3688 0 
L 2938 0 
L 1159 1709 
L 1159 0 
L 581 0 
L 581 4863 
z
" transform="scale(0.015625)"/>
      </defs>
      <use xlink:href="#DejaVuSans-4c"/>
      <use xlink:href="#DejaVuSans-6f" x="53.962891"/>
      <use xlink:href="#DejaVuSans-61" x="115.144531"/>
      <use xlink:href="#DejaVuSans-64" x="176.423828"/>
      <use xlink:href="#DejaVuSans-20" x="239.900391"/>
      <use xlink:href="#DejaVuSans-5b" x="271.6875"/>
      <use xlink:href="#DejaVuSans-6b" x="310.701172"/>
      <use xlink:href="#DejaVuSans-4e" x="368.611328"/>
      <use xlink:href="#DejaVuSans-5d" x="443.416016"/>
     </g>
    </g>
   </g>
   <g id="line2d_14">
    <path d="M 36.403365 209.528731 
L 263.951323 209.528731 
" clip-path="url(#pb090adbc3a)" style="fill: none; stroke-dasharray: 2.775,1.2; stroke-dashoffset: 0; stroke: #808080; stroke-opacity: 0.75; stroke-width: 0.75"/>
   </g>
   <g id="line2d_15">
    <path d="M 117.670493 218.64351 
L 117.670493 18.118365 
" clip-path="url(#pb090adbc3a)" style="fill: none; stroke-dasharray: 2.775,1.2; stroke-dashoffset: 0; stroke: #808080; stroke-opacity: 0.75; stroke-width: 0.75"/>
   </g>
   <g id="line2d_16">
    <path d="M 117.665922 209.528731 
L 117.148207 207.687361 
L 116.62338 205.845992 
L 116.092018 204.004622 
L 115.555801 202.163252 
L 115.012847 200.321883 
L 114.463496 198.480513 
L 113.907268 196.639144 
L 113.343471 194.797774 
L 112.773681 192.956405 
L 112.198601 191.115035 
L 111.619397 189.273666 
L 111.03891 187.432296 
L 110.45703 185.590926 
L 109.874633 183.749557 
L 109.294055 181.908187 
L 108.713192 180.066818 
L 108.133007 178.225448 
L 107.552422 176.384079 
L 106.972211 174.542709 
L 106.390428 172.701339 
L 105.808508 170.85997 
L 105.224977 169.0186 
L 104.642002 167.177231 
L 104.058517 165.335861 
L 103.476662 163.494492 
L 102.897875 161.653122 
L 102.322105 159.811753 
L 101.751097 157.970383 
L 101.18506 156.129013 
L 100.622267 154.287644 
L 100.063011 152.446274 
L 99.505064 150.604905 
L 98.948182 148.763535 
L 98.391087 146.922166 
L 97.83343 145.080796 
L 97.277159 143.239427 
L 96.721134 141.398057 
L 96.16652 139.556687 
L 95.612544 137.715318 
L 95.059235 135.873948 
L 94.504306 134.032579 
L 93.950046 132.191209 
L 93.39303 130.34984 
L 92.835708 128.50847 
L 92.277914 126.667101 
L 91.720393 124.825731 
L 91.164797 122.984361 
L 90.611475 121.142992 
L 90.061734 119.301622 
L 89.513589 117.460253 
L 88.966813 115.618883 
L 88.418914 113.777514 
L 87.868856 111.936144 
L 87.315408 110.094774 
L 86.757763 108.253405 
L 86.196559 106.412035 
L 85.631332 104.570666 
L 85.061837 102.729296 
L 84.489549 100.887927 
L 83.913724 99.046557 
L 83.333957 97.205188 
L 82.753494 95.363818 
L 82.171714 93.522448 
L 81.591725 91.681079 
L 81.015439 89.839709 
L 80.445906 87.99834 
L 79.883735 86.15697 
L 79.329138 84.315601 
L 78.783181 82.474231 
L 78.243008 80.632862 
L 77.706782 78.791492 
L 77.171914 76.950122 
L 76.637177 75.108753 
L 76.099909 73.267383 
L 75.559095 71.426014 
L 75.014755 69.584644 
L 74.466049 67.743275 
L 73.91349 65.901905 
L 73.356815 64.060536 
L 72.795169 62.219166 
L 72.230205 60.377796 
L 71.663335 58.536427 
L 71.095316 56.695057 
L 70.528148 54.853688 
L 69.962439 53.012318 
L 69.399128 51.170949 
L 68.836172 49.329579 
L 68.271654 47.488209 
L 67.705524 45.64684 
L 67.134884 43.80547 
L 66.55999 41.964101 
L 65.979365 40.122731 
L 65.393266 38.281362 
L 64.803918 36.439992 
L 64.211566 34.598623 
L 63.617677 32.757253 
L 63.023679 30.915883 
L 62.430743 29.074514 
L 61.837325 27.233144 
" clip-path="url(#pb090adbc3a)" style="fill: none; stroke-dasharray: 3.7,1.6; stroke-dashoffset: 0; stroke: #008000"/>
   </g>
   <g id="line2d_17">
    <path d="M 117.677736 209.528731 
L 117.054987 207.687361 
L 116.434783 205.845992 
L 115.817013 204.004622 
L 115.201424 202.163252 
L 114.586792 200.321883 
L 113.975092 198.480513 
L 113.364857 196.639144 
L 112.755582 194.797774 
L 112.149106 192.956405 
L 111.542649 191.115035 
L 110.938678 189.273666 
L 110.334714 187.432296 
L 109.73331 185.590926 
L 109.13218 183.749557 
L 108.532257 181.908187 
L 107.933029 180.066818 
L 107.334158 178.225448 
L 106.736855 176.384079 
L 106.139659 174.542709 
L 105.543016 172.701339 
L 104.946019 170.85997 
L 104.349956 169.0186 
L 103.753951 167.177231 
L 103.158295 165.335861 
L 102.562193 163.494492 
L 101.966023 161.653122 
L 101.370172 159.811753 
L 100.773777 157.970383 
L 100.177141 156.129013 
L 99.579616 154.287644 
L 98.982429 152.446274 
L 98.384748 150.604905 
L 97.786406 148.763535 
L 97.186624 146.922166 
L 96.586897 145.080796 
L 95.986091 143.239427 
L 95.385249 141.398057 
L 94.783235 139.556687 
L 94.179874 137.715318 
L 93.576253 135.873948 
L 92.971546 134.032579 
L 92.365233 132.191209 
L 91.759062 130.34984 
L 91.15091 128.50847 
L 90.542476 126.667101 
L 89.932776 124.825731 
L 89.322442 122.984361 
L 88.710161 121.142992 
L 88.097873 119.301622 
L 87.484529 117.460253 
L 86.869465 115.618883 
L 86.254036 113.777514 
L 85.638 111.936144 
L 85.020377 110.094774 
L 84.402557 108.253405 
L 83.783962 106.412035 
L 83.163813 104.570666 
L 82.543681 102.729296 
L 81.922724 100.887927 
L 81.300921 99.046557 
L 80.67899 97.205188 
L 80.055967 95.363818 
L 79.433386 93.522448 
L 78.810468 91.681079 
L 78.187335 89.839709 
L 77.563782 87.99834 
L 76.940168 86.15697 
L 76.316805 84.315601 
L 75.693744 82.474231 
L 75.070439 80.632862 
L 74.447857 78.791492 
L 73.825689 76.950122 
L 73.203984 75.108753 
L 72.583559 73.267383 
L 71.963763 71.426014 
L 71.344607 69.584644 
L 70.727167 67.743275 
L 70.110286 65.901905 
L 69.494512 64.060536 
L 68.880817 62.219166 
L 68.268807 60.377796 
L 67.658759 58.536427 
L 67.050673 56.695057 
L 66.443338 54.853688 
L 65.838983 53.012318 
L 65.23737 51.170949 
L 64.637293 49.329579 
L 64.040524 47.488209 
L 63.446131 45.64684 
L 62.854765 43.80547 
L 62.266694 41.964101 
L 61.681098 40.122731 
L 61.099154 38.281362 
L 60.520588 36.439992 
L 59.945585 34.598623 
L 59.373387 32.757253 
L 58.806462 30.915883 
L 58.242808 29.074514 
L 57.682728 27.233144 
" clip-path="url(#pb090adbc3a)" style="fill: none; stroke: #0000ff; stroke-width: 0.5; stroke-linecap: square"/>
   </g>
   <g id="line2d_18">
    <defs>
     <path id="m9607e03d17" d="M 0 0.5 
C 0.132602 0.5 0.25979 0.447317 0.353553 0.353553 
C 0.447317 0.25979 0.5 0.132602 0.5 0 
C 0.5 -0.132602 0.447317 -0.25979 0.353553 -0.353553 
C 0.25979 -0.447317 0.132602 -0.5 0 -0.5 
C -0.132602 -0.5 -0.25979 -0.447317 -0.353553 -0.353553 
C -0.447317 -0.25979 -0.5 -0.132602 -0.5 0 
C -0.5 0.132602 -0.447317 0.25979 -0.353553 0.353553 
C -0.25979 0.447317 -0.132602 0.5 0 0.5 
z
" style="stroke: #1f77b4"/>
    </defs>
    <g clip-path="url(#pb090adbc3a)">
     <use xlink:href="#m9607e03d17" x="117.670493" y="209.528731" style="fill: #1f77b4; stroke: #1f77b4"/>
     <use xlink:href="#m9607e03d17" x="115.99502" y="203.71012" style="fill: #1f77b4; stroke: #1f77b4"/>
     <use xlink:href="#m9607e03d17" x="112.676559" y="199.566564" style="fill: #1f77b4; stroke: #1f77b4"/>
     <use xlink:href="#m9607e03d17" x="112.180786" y="196.745419" style="fill: #1f77b4; stroke: #1f77b4"/>
     <use xlink:href="#m9607e03d17" x="110.834227" y="192.513702" style="fill: #1f77b4; stroke: #1f77b4"/>
     <use xlink:href="#m9607e03d17" x="110.628218" y="187.988116" style="fill: #1f77b4; stroke: #1f77b4"/>
     <use xlink:href="#m9607e03d17" x="109.932442" y="183.403757" style="fill: #1f77b4; stroke: #1f77b4"/>
     <use xlink:href="#m9607e03d17" x="108.078025" y="178.819397" style="fill: #1f77b4; stroke: #1f77b4"/>
     <use xlink:href="#m9607e03d17" x="106.796324" y="173.911782" style="fill: #1f77b4; stroke: #1f77b4"/>
     <use xlink:href="#m9607e03d17" x="104.045301" y="169.151101" style="fill: #1f77b4; stroke: #1f77b4"/>
     <use xlink:href="#m9607e03d17" x="102.181501" y="164.155325" style="fill: #1f77b4; stroke: #1f77b4"/>
     <use xlink:href="#m9607e03d17" x="100.997418" y="158.10162" style="fill: #1f77b4; stroke: #1f77b4"/>
     <use xlink:href="#m9607e03d17" x="100.886045" y="153.928677" style="fill: #1f77b4; stroke: #1f77b4"/>
     <use xlink:href="#m9607e03d17" x="97.833789" y="148.433324" style="fill: #1f77b4; stroke: #1f77b4"/>
     <use xlink:href="#m9607e03d17" x="96.634189" y="142.761649" style="fill: #1f77b4; stroke: #1f77b4"/>
     <use xlink:href="#m9607e03d17" x="94.010186" y="137.413229" style="fill: #1f77b4; stroke: #1f77b4"/>
     <use xlink:href="#m9607e03d17" x="90.690266" y="132.006036" style="fill: #1f77b4; stroke: #1f77b4"/>
     <use xlink:href="#m9607e03d17" x="89.027255" y="126.187426" style="fill: #1f77b4; stroke: #1f77b4"/>
     <use xlink:href="#m9607e03d17" x="88.228699" y="120.603911" style="fill: #1f77b4; stroke: #1f77b4"/>
     <use xlink:href="#m9607e03d17" x="86.495324" y="115.167331" style="fill: #1f77b4; stroke: #1f77b4"/>
     <use xlink:href="#m9607e03d17" x="85.953636" y="109.466268" style="fill: #1f77b4; stroke: #1f77b4"/>
     <use xlink:href="#m9607e03d17" x="84.116082" y="104.059074" style="fill: #1f77b4; stroke: #1f77b4"/>
     <use xlink:href="#m9607e03d17" x="80.753687" y="98.328624" style="fill: #1f77b4; stroke: #1f77b4"/>
     <use xlink:href="#m9607e03d17" x="79.157665" y="92.833269" style="fill: #1f77b4; stroke: #1f77b4"/>
     <use xlink:href="#m9607e03d17" x="76.51052" y="87.161592" style="fill: #1f77b4; stroke: #1f77b4"/>
     <use xlink:href="#m9607e03d17" x="75.607652" y="81.842558" style="fill: #1f77b4; stroke: #1f77b4"/>
     <use xlink:href="#m9607e03d17" x="73.198691" y="75.877011" style="fill: #1f77b4; stroke: #1f77b4"/>
     <use xlink:href="#m9607e03d17" x="71.192818" y="70.117173" style="fill: #1f77b4; stroke: #1f77b4"/>
     <use xlink:href="#m9607e03d17" x="69.190578" y="65.06262" style="fill: #1f77b4; stroke: #1f77b4"/>
     <use xlink:href="#m9607e03d17" x="66.412856" y="59.684811" style="fill: #1f77b4; stroke: #1f77b4"/>
     <use xlink:href="#m9607e03d17" x="65.011442" y="54.013132" style="fill: #1f77b4; stroke: #1f77b4"/>
     <use xlink:href="#m9607e03d17" x="63.21151" y="48.752869" style="fill: #1f77b4; stroke: #1f77b4"/>
     <use xlink:href="#m9607e03d17" x="61.773522" y="44.109732" style="fill: #1f77b4; stroke: #1f77b4"/>
     <use xlink:href="#m9607e03d17" x="58.893977" y="38.320504" style="fill: #1f77b4; stroke: #1f77b4"/>
    </g>
   </g>
   <g id="line2d_19">
    <defs>
     <path id="m179fd5b36b" d="M 0 0.5 
C 0.132602 0.5 0.25979 0.447317 0.353553 0.353553 
C 0.447317 0.25979 0.5 0.132602 0.5 0 
C 0.5 -0.132602 0.447317 -0.25979 0.353553 -0.353553 
C 0.25979 -0.447317 0.132602 -0.5 0 -0.5 
C -0.132602 -0.5 -0.25979 -0.447317 -0.353553 -0.353553 
C -0.447317 -0.25979 -0.5 -0.132602 -0.5 0 
C -0.5 0.132602 -0.447317 0.25979 -0.353553 0.353553 
C -0.25979 0.447317 -0.132602 0.5 0 0.5 
z
" style="stroke: #ff7f0e"/>
    </defs>
    <g clip-path="url(#pb090adbc3a)">
     <use xlink:href="#m179fd5b36b" x="115.78743" y="204.239084" style="fill: #ff7f0e; stroke: #ff7f0e"/>
     <use xlink:href="#m179fd5b36b" x="116.332796" y="199.948594" style="fill: #ff7f0e; stroke: #ff7f0e"/>
     <use xlink:href="#m179fd5b36b" x="114.058636" y="195.863812" style="fill: #ff7f0e; stroke: #ff7f0e"/>
     <use xlink:href="#m179fd5b36b" x="112.835052" y="191.48516" style="fill: #ff7f0e; stroke: #ff7f0e"/>
     <use xlink:href="#m179fd5b36b" x="110.95822" y="187.165283" style="fill: #ff7f0e; stroke: #ff7f0e"/>
     <use xlink:href="#m179fd5b36b" x="110.509649" y="182.110733" style="fill: #ff7f0e; stroke: #ff7f0e"/>
     <use xlink:href="#m179fd5b36b" x="108.13573" y="177.056183" style="fill: #ff7f0e; stroke: #ff7f0e"/>
     <use xlink:href="#m179fd5b36b" x="106.196859" y="171.972246" style="fill: #ff7f0e; stroke: #ff7f0e"/>
     <use xlink:href="#m179fd5b36b" x="104.957982" y="166.947083" style="fill: #ff7f0e; stroke: #ff7f0e"/>
     <use xlink:href="#m179fd5b36b" x="103.508711" y="161.069699" style="fill: #ff7f0e; stroke: #ff7f0e"/>
     <use xlink:href="#m179fd5b36b" x="100.589261" y="154.986607" style="fill: #ff7f0e; stroke: #ff7f0e"/>
     <use xlink:href="#m179fd5b36b" x="99.446767" y="149.932057" style="fill: #ff7f0e; stroke: #ff7f0e"/>
     <use xlink:href="#m179fd5b36b" x="97.73055" y="144.319156" style="fill: #ff7f0e; stroke: #ff7f0e"/>
     <use xlink:href="#m179fd5b36b" x="94.961151" y="138.324224" style="fill: #ff7f0e; stroke: #ff7f0e"/>
     <use xlink:href="#m179fd5b36b" x="93.205569" y="132.887644" style="fill: #ff7f0e; stroke: #ff7f0e"/>
     <use xlink:href="#m179fd5b36b" x="92.444862" y="127.01026" style="fill: #ff7f0e; stroke: #ff7f0e"/>
     <use xlink:href="#m179fd5b36b" x="90.185583" y="121.367972" style="fill: #ff7f0e; stroke: #ff7f0e"/>
     <use xlink:href="#m179fd5b36b" x="87.693282" y="115.725683" style="fill: #ff7f0e; stroke: #ff7f0e"/>
     <use xlink:href="#m179fd5b36b" x="85.590988" y="110.054007" style="fill: #ff7f0e; stroke: #ff7f0e"/>
     <use xlink:href="#m179fd5b36b" x="83.556265" y="104.029688" style="fill: #ff7f0e; stroke: #ff7f0e"/>
     <use xlink:href="#m179fd5b36b" x="81.197603" y="98.56372" style="fill: #ff7f0e; stroke: #ff7f0e"/>
     <use xlink:href="#m179fd5b36b" x="79.202572" y="93.097751" style="fill: #ff7f0e; stroke: #ff7f0e"/>
     <use xlink:href="#m179fd5b36b" x="76.505459" y="87.367301" style="fill: #ff7f0e; stroke: #ff7f0e"/>
     <use xlink:href="#m179fd5b36b" x="75.552857" y="81.548689" style="fill: #ff7f0e; stroke: #ff7f0e"/>
     <use xlink:href="#m179fd5b36b" x="73.205878" y="76.259041" style="fill: #ff7f0e; stroke: #ff7f0e"/>
     <use xlink:href="#m179fd5b36b" x="71.862924" y="70.587363" style="fill: #ff7f0e; stroke: #ff7f0e"/>
     <use xlink:href="#m179fd5b36b" x="69.280988" y="64.886298" style="fill: #ff7f0e; stroke: #ff7f0e"/>
     <use xlink:href="#m179fd5b36b" x="66.939158" y="59.185232" style="fill: #ff7f0e; stroke: #ff7f0e"/>
     <use xlink:href="#m179fd5b36b" x="64.864303" y="54.013131" style="fill: #ff7f0e; stroke: #ff7f0e"/>
     <use xlink:href="#m179fd5b36b" x="62.472075" y="48.664707" style="fill: #ff7f0e; stroke: #ff7f0e"/>
     <use xlink:href="#m179fd5b36b" x="60.814779" y="43.316283" style="fill: #ff7f0e; stroke: #ff7f0e"/>
     <use xlink:href="#m179fd5b36b" x="58.866826" y="37.820924" style="fill: #ff7f0e; stroke: #ff7f0e"/>
    </g>
   </g>
   <g id="patch_3">
    <path d="M 36.403365 218.64351 
L 36.403365 18.118365 
" style="fill: none; stroke: #000000; stroke-width: 0.8; stroke-linejoin: miter; stroke-linecap: square"/>
   </g>
   <g id="patch_4">
    <path d="M 263.951323 218.64351 
L 263.951323 18.118365 
" style="fill: none; stroke: #000000; stroke-width: 0.8; stroke-linejoin: miter; stroke-linecap: square"/>
   </g>
   <g id="patch_5">
    <path d="M 36.403365 218.64351 
L 263.951322 218.64351 
" style="fill: none; stroke: #000000; stroke-width: 0.8; stroke-linejoin: miter; stroke-linecap: square"/>
   </g>
   <g id="patch_6">
    <path d="M 36.403365 18.118365 
L 263.951322 18.118365 
" style="fill: none; stroke: #000000; stroke-width: 0.8; stroke-linejoin: miter; stroke-linecap: square"/>
   </g>
   <g id="text_16">
    <!-- Predictions ($135^\circ$) -->
    <g transform="translate(94.437344 12.118365) scale(0.12 -0.12)">
     <defs>
      <path id="DejaVuSans-50" d="M 1259 4147 
L 1259 2394 
L 2053 2394 
Q 2494 2394 2734 2622 
Q 2975 2850 2975 3272 
Q 2975 3691 2734 3919 
Q 2494 4147 2053 4147 
L 1259 4147 
z
M 628 4666 
L 2053 4666 
Q 2838 4666 3239 4311 
Q 3641 3956 3641 3272 
Q 3641 2581 3239 2228 
Q 2838 1875 2053 1875 
L 1259 1875 
L 1259 0 
L 628 0 
L 628 4666 
z
" transform="scale(0.015625)"/>
      <path id="DejaVuSans-63" d="M 3122 3366 
L 3122 2828 
Q 2878 2963 2633 3030 
Q 2388 3097 2138 3097 
Q 1578 3097 1268 2742 
Q 959 2388 959 1747 
Q 959 1106 1268 751 
Q 1578 397 2138 397 
Q 2388 397 2633 464 
Q 2878 531 3122 666 
L 3122 134 
Q 2881 22 2623 -34 
Q 2366 -91 2075 -91 
Q 1284 -91 818 406 
Q 353 903 353 1747 
Q 353 2603 823 3093 
Q 1294 3584 2113 3584 
Q 2378 3584 2631 3529 
Q 2884 3475 3122 3366 
z
" transform="scale(0.015625)"/>
      <path id="DejaVuSans-28" d="M 1984 4856 
Q 1566 4138 1362 3434 
Q 1159 2731 1159 2009 
Q 1159 1288 1364 580 
Q 1569 -128 1984 -844 
L 1484 -844 
Q 1016 -109 783 600 
Q 550 1309 550 2009 
Q 550 2706 781 3412 
Q 1013 4119 1484 4856 
L 1984 4856 
z
" transform="scale(0.015625)"/>
      <path id="DejaVuSans-33" d="M 2597 2516 
Q 3050 2419 3304 2112 
Q 3559 1806 3559 1356 
Q 3559 666 3084 287 
Q 2609 -91 1734 -91 
Q 1441 -91 1130 -33 
Q 819 25 488 141 
L 488 750 
Q 750 597 1062 519 
Q 1375 441 1716 441 
Q 2309 441 2620 675 
Q 2931 909 2931 1356 
Q 2931 1769 2642 2001 
Q 2353 2234 1838 2234 
L 1294 2234 
L 1294 2753 
L 1863 2753 
Q 2328 2753 2575 2939 
Q 2822 3125 2822 3475 
Q 2822 3834 2567 4026 
Q 2313 4219 1838 4219 
Q 1578 4219 1281 4162 
Q 984 4106 628 3988 
L 628 4550 
Q 988 4650 1302 4700 
Q 1616 4750 1894 4750 
Q 2613 4750 3031 4423 
Q 3450 4097 3450 3541 
Q 3450 3153 3228 2886 
Q 3006 2619 2597 2516 
z
" transform="scale(0.015625)"/>
      <path id="DejaVuSans-35" d="M 691 4666 
L 3169 4666 
L 3169 4134 
L 1269 4134 
L 1269 2991 
Q 1406 3038 1543 3061 
Q 1681 3084 1819 3084 
Q 2600 3084 3056 2656 
Q 3513 2228 3513 1497 
Q 3513 744 3044 326 
Q 2575 -91 1722 -91 
Q 1428 -91 1123 -41 
Q 819 9 494 109 
L 494 744 
Q 775 591 1075 516 
Q 1375 441 1709 441 
Q 2250 441 2565 725 
Q 2881 1009 2881 1497 
Q 2881 1984 2565 2268 
Q 2250 2553 1709 2553 
Q 1456 2553 1204 2497 
Q 953 2441 691 2322 
L 691 4666 
z
" transform="scale(0.015625)"/>
      <path id="DejaVuSans-2218" d="M 2003 2603 
Q 1753 2603 1581 2429 
Q 1409 2256 1409 2006 
Q 1409 1759 1581 1589 
Q 1753 1419 2003 1419 
Q 2253 1419 2425 1589 
Q 2597 1759 2597 2006 
Q 2597 2253 2423 2428 
Q 2250 2603 2003 2603 
z
M 2003 3006 
Q 2203 3006 2387 2929 
Q 2572 2853 2706 2709 
Q 2850 2569 2922 2390 
Q 2994 2212 2994 2006 
Q 2994 1594 2705 1308 
Q 2416 1022 1997 1022 
Q 1575 1022 1294 1303 
Q 1013 1584 1013 2006 
Q 1013 2425 1300 2715 
Q 1588 3006 2003 3006 
z
" transform="scale(0.015625)"/>
      <path id="DejaVuSans-29" d="M 513 4856 
L 1013 4856 
Q 1481 4119 1714 3412 
Q 1947 2706 1947 2009 
Q 1947 1309 1714 600 
Q 1481 -109 1013 -844 
L 513 -844 
Q 928 -128 1133 580 
Q 1338 1288 1338 2009 
Q 1338 2731 1133 3434 
Q 928 4138 513 4856 
z
" transform="scale(0.015625)"/>
     </defs>
     <use xlink:href="#DejaVuSans-50" transform="translate(0 0.015625)"/>
     <use xlink:href="#DejaVuSans-72" transform="translate(60.302734 0.015625)"/>
     <use xlink:href="#DejaVuSans-65" transform="translate(101.416016 0.015625)"/>
     <use xlink:href="#DejaVuSans-64" transform="translate(162.939453 0.015625)"/>
     <use xlink:href="#DejaVuSans-69" transform="translate(226.416016 0.015625)"/>
     <use xlink:href="#DejaVuSans-63" transform="translate(254.199219 0.015625)"/>
     <use xlink:href="#DejaVuSans-74" transform="translate(309.179688 0.015625)"/>
     <use xlink:href="#DejaVuSans-69" transform="translate(348.388672 0.015625)"/>
     <use xlink:href="#DejaVuSans-6f" transform="translate(376.171875 0.015625)"/>
     <use xlink:href="#DejaVuSans-6e" transform="translate(437.353516 0.015625)"/>
     <use xlink:href="#DejaVuSans-73" transform="translate(500.732422 0.015625)"/>
     <use xlink:href="#DejaVuSans-20" transform="translate(552.832031 0.015625)"/>
     <use xlink:href="#DejaVuSans-28" transform="translate(584.619141 0.015625)"/>
     <use xlink:href="#DejaVuSans-31" transform="translate(623.632812 0.015625)"/>
     <use xlink:href="#DejaVuSans-33" transform="translate(687.255859 0.015625)"/>
     <use xlink:href="#DejaVuSans-35" transform="translate(750.878906 0.015625)"/>
     <use xlink:href="#DejaVuSans-2218" transform="translate(829.09668 38.296875) scale(0.7)"/>
     <use xlink:href="#DejaVuSans-29" transform="translate(889.287109 0.015625)"/>
    </g>
   </g>
   <g id="legend_1">
    <g id="patch_7">
     <path d="M 136.540307 99.776803 
L 258.001323 99.776803 
Q 259.701323 99.776803 259.701323 98.076803 
L 259.701323 24.068365 
Q 259.701323 22.368365 258.001323 22.368365 
L 136.540307 22.368365 
Q 134.840307 22.368365 134.840307 24.068365 
L 134.840307 98.076803 
Q 134.840307 99.776803 136.540307 99.776803 
z
" style="fill: #ffffff; opacity: 0.8; stroke: #cccccc; stroke-linejoin: miter"/>
    </g>
    <g id="patch_8">
     <path d="M 138.240307 32.227037 
L 155.240307 32.227037 
L 155.240307 26.277037 
L 138.240307 26.277037 
z
" style="fill: #90ee90; fill-opacity: 0.75; stroke: #90ee90; stroke-opacity: 0.75; stroke-linejoin: miter"/>
    </g>
    <g id="text_17">
     <!-- Prior 95% interval -->
     <g transform="translate(162.040307 32.227037) scale(0.085 -0.085)">
      <defs>
       <path id="DejaVuSans-39" d="M 703 97 
L 703 672 
Q 941 559 1184 500 
Q 1428 441 1663 441 
Q 2288 441 2617 861 
Q 2947 1281 2994 2138 
Q 2813 1869 2534 1725 
Q 2256 1581 1919 1581 
Q 1219 1581 811 2004 
Q 403 2428 403 3163 
Q 403 3881 828 4315 
Q 1253 4750 1959 4750 
Q 2769 4750 3195 4129 
Q 3622 3509 3622 2328 
Q 3622 1225 3098 567 
Q 2575 -91 1691 -91 
Q 1453 -91 1209 -44 
Q 966 3 703 97 
z
M 1959 2075 
Q 2384 2075 2632 2365 
Q 2881 2656 2881 3163 
Q 2881 3666 2632 3958 
Q 2384 4250 1959 4250 
Q 1534 4250 1286 3958 
Q 1038 3666 1038 3163 
Q 1038 2656 1286 2365 
Q 1534 2075 1959 2075 
z
" transform="scale(0.015625)"/>
       <path id="DejaVuSans-25" d="M 4653 2053 
Q 4381 2053 4226 1822 
Q 4072 1591 4072 1178 
Q 4072 772 4226 539 
Q 4381 306 4653 306 
Q 4919 306 5073 539 
Q 5228 772 5228 1178 
Q 5228 1588 5073 1820 
Q 4919 2053 4653 2053 
z
M 4653 2450 
Q 5147 2450 5437 2106 
Q 5728 1763 5728 1178 
Q 5728 594 5436 251 
Q 5144 -91 4653 -91 
Q 4153 -91 3862 251 
Q 3572 594 3572 1178 
Q 3572 1766 3864 2108 
Q 4156 2450 4653 2450 
z
M 1428 4353 
Q 1159 4353 1004 4120 
Q 850 3888 850 3481 
Q 850 3069 1003 2837 
Q 1156 2606 1428 2606 
Q 1700 2606 1854 2837 
Q 2009 3069 2009 3481 
Q 2009 3884 1853 4118 
Q 1697 4353 1428 4353 
z
M 4250 4750 
L 4750 4750 
L 1831 -91 
L 1331 -91 
L 4250 4750 
z
M 1428 4750 
Q 1922 4750 2215 4408 
Q 2509 4066 2509 3481 
Q 2509 2891 2217 2550 
Q 1925 2209 1428 2209 
Q 931 2209 642 2551 
Q 353 2894 353 3481 
Q 353 4063 643 4406 
Q 934 4750 1428 4750 
z
" transform="scale(0.015625)"/>
       <path id="DejaVuSans-76" d="M 191 3500 
L 800 3500 
L 1894 563 
L 2988 3500 
L 3597 3500 
L 2284 0 
L 1503 0 
L 191 3500 
z
" transform="scale(0.015625)"/>
      </defs>
      <use xlink:href="#DejaVuSans-50"/>
      <use xlink:href="#DejaVuSans-72" x="58.552734"/>
      <use xlink:href="#DejaVuSans-69" x="99.666016"/>
      <use xlink:href="#DejaVuSans-6f" x="127.449219"/>
      <use xlink:href="#DejaVuSans-72" x="188.630859"/>
      <use xlink:href="#DejaVuSans-20" x="229.744141"/>
      <use xlink:href="#DejaVuSans-39" x="261.53125"/>
      <use xlink:href="#DejaVuSans-35" x="325.154297"/>
      <use xlink:href="#DejaVuSans-25" x="388.777344"/>
      <use xlink:href="#DejaVuSans-20" x="483.796875"/>
      <use xlink:href="#DejaVuSans-69" x="515.583984"/>
      <use xlink:href="#DejaVuSans-6e" x="543.367188"/>
      <use xlink:href="#DejaVuSans-74" x="606.746094"/>
      <use xlink:href="#DejaVuSans-65" x="645.955078"/>
      <use xlink:href="#DejaVuSans-72" x="707.478516"/>
      <use xlink:href="#DejaVuSans-76" x="748.591797"/>
      <use xlink:href="#DejaVuSans-61" x="807.771484"/>
      <use xlink:href="#DejaVuSans-6c" x="869.050781"/>
     </g>
    </g>
    <g id="line2d_20">
     <path d="M 138.240307 41.728443 
L 146.740307 41.728443 
L 155.240307 41.728443 
" style="fill: none; stroke-dasharray: 3.7,1.6; stroke-dashoffset: 0; stroke: #008000"/>
    </g>
    <g id="text_18">
     <!-- Prior mean -->
     <g transform="translate(162.040307 44.703443) scale(0.085 -0.085)">
      <use xlink:href="#DejaVuSans-50"/>
      <use xlink:href="#DejaVuSans-72" x="58.552734"/>
      <use xlink:href="#DejaVuSans-69" x="99.666016"/>
      <use xlink:href="#DejaVuSans-6f" x="127.449219"/>
      <use xlink:href="#DejaVuSans-72" x="188.630859"/>
      <use xlink:href="#DejaVuSans-20" x="229.744141"/>
      <use xlink:href="#DejaVuSans-6d" x="261.53125"/>
      <use xlink:href="#DejaVuSans-65" x="358.943359"/>
      <use xlink:href="#DejaVuSans-61" x="420.466797"/>
      <use xlink:href="#DejaVuSans-6e" x="481.746094"/>
     </g>
    </g>
    <g id="patch_9">
     <path d="M 138.240307 57.179849 
L 155.240307 57.179849 
L 155.240307 51.229849 
L 138.240307 51.229849 
z
" style="fill: #6495ed; fill-opacity: 0.75; stroke: #6495ed; stroke-opacity: 0.75; stroke-linejoin: miter"/>
    </g>
    <g id="text_19">
     <!-- Posterior 95% interval -->
     <g transform="translate(162.040307 57.179849) scale(0.085 -0.085)">
      <use xlink:href="#DejaVuSans-50"/>
      <use xlink:href="#DejaVuSans-6f" x="56.677734"/>
      <use xlink:href="#DejaVuSans-73" x="117.859375"/>
      <use xlink:href="#DejaVuSans-74" x="169.958984"/>
      <use xlink:href="#DejaVuSans-65" x="209.167969"/>
      <use xlink:href="#DejaVuSans-72" x="270.691406"/>
      <use xlink:href="#DejaVuSans-69" x="311.804688"/>
      <use xlink:href="#DejaVuSans-6f" x="339.587891"/>
      <use xlink:href="#DejaVuSans-72" x="400.769531"/>
      <use xlink:href="#DejaVuSans-20" x="441.882812"/>
      <use xlink:href="#DejaVuSans-39" x="473.669922"/>
      <use xlink:href="#DejaVuSans-35" x="537.292969"/>
      <use xlink:href="#DejaVuSans-25" x="600.916016"/>
      <use xlink:href="#DejaVuSans-20" x="695.935547"/>
      <use xlink:href="#DejaVuSans-69" x="727.722656"/>
      <use xlink:href="#DejaVuSans-6e" x="755.505859"/>
      <use xlink:href="#DejaVuSans-74" x="818.884766"/>
      <use xlink:href="#DejaVuSans-65" x="858.09375"/>
      <use xlink:href="#DejaVuSans-72" x="919.617188"/>
      <use xlink:href="#DejaVuSans-76" x="960.730469"/>
      <use xlink:href="#DejaVuSans-61" x="1019.910156"/>
      <use xlink:href="#DejaVuSans-6c" x="1081.189453"/>
     </g>
    </g>
    <g id="line2d_21">
     <path d="M 138.240307 66.681256 
L 146.740307 66.681256 
L 155.240307 66.681256 
" style="fill: none; stroke: #0000ff; stroke-width: 0.5; stroke-linecap: square"/>
    </g>
    <g id="text_20">
     <!-- Posterior mean -->
     <g transform="translate(162.040307 69.656256) scale(0.085 -0.085)">
      <use xlink:href="#DejaVuSans-50"/>
      <use xlink:href="#DejaVuSans-6f" x="56.677734"/>
      <use xlink:href="#DejaVuSans-73" x="117.859375"/>
      <use xlink:href="#DejaVuSans-74" x="169.958984"/>
      <use xlink:href="#DejaVuSans-65" x="209.167969"/>
      <use xlink:href="#DejaVuSans-72" x="270.691406"/>
      <use xlink:href="#DejaVuSans-69" x="311.804688"/>
      <use xlink:href="#DejaVuSans-6f" x="339.587891"/>
      <use xlink:href="#DejaVuSans-72" x="400.769531"/>
      <use xlink:href="#DejaVuSans-20" x="441.882812"/>
      <use xlink:href="#DejaVuSans-6d" x="473.669922"/>
      <use xlink:href="#DejaVuSans-65" x="571.082031"/>
      <use xlink:href="#DejaVuSans-61" x="632.605469"/>
      <use xlink:href="#DejaVuSans-6e" x="693.884766"/>
     </g>
    </g>
    <g id="line2d_22">
     <g>
      <use xlink:href="#m9607e03d17" x="146.740307" y="79.157662" style="fill: #1f77b4; stroke: #1f77b4"/>
     </g>
    </g>
    <g id="text_21">
     <!-- Experimental data 1 -->
     <g transform="translate(162.040307 82.132662) scale(0.085 -0.085)">
      <defs>
       <path id="DejaVuSans-70" d="M 1159 525 
L 1159 -1331 
L 581 -1331 
L 581 3500 
L 1159 3500 
L 1159 2969 
Q 1341 3281 1617 3432 
Q 1894 3584 2278 3584 
Q 2916 3584 3314 3078 
Q 3713 2572 3713 1747 
Q 3713 922 3314 415 
Q 2916 -91 2278 -91 
Q 1894 -91 1617 61 
Q 1341 213 1159 525 
z
M 3116 1747 
Q 3116 2381 2855 2742 
Q 2594 3103 2138 3103 
Q 1681 3103 1420 2742 
Q 1159 2381 1159 1747 
Q 1159 1113 1420 752 
Q 1681 391 2138 391 
Q 2594 391 2855 752 
Q 3116 1113 3116 1747 
z
" transform="scale(0.015625)"/>
      </defs>
      <use xlink:href="#DejaVuSans-45"/>
      <use xlink:href="#DejaVuSans-78" x="63.183594"/>
      <use xlink:href="#DejaVuSans-70" x="122.363281"/>
      <use xlink:href="#DejaVuSans-65" x="185.839844"/>
      <use xlink:href="#DejaVuSans-72" x="247.363281"/>
      <use xlink:href="#DejaVuSans-69" x="288.476562"/>
      <use xlink:href="#DejaVuSans-6d" x="316.259766"/>
      <use xlink:href="#DejaVuSans-65" x="413.671875"/>
      <use xlink:href="#DejaVuSans-6e" x="475.195312"/>
      <use xlink:href="#DejaVuSans-74" x="538.574219"/>
      <use xlink:href="#DejaVuSans-61" x="577.783203"/>
      <use xlink:href="#DejaVuSans-6c" x="639.0625"/>
      <use xlink:href="#DejaVuSans-20" x="666.845703"/>
      <use xlink:href="#DejaVuSans-64" x="698.632812"/>
      <use xlink:href="#DejaVuSans-61" x="762.109375"/>
      <use xlink:href="#DejaVuSans-74" x="823.388672"/>
      <use xlink:href="#DejaVuSans-61" x="862.597656"/>
      <use xlink:href="#DejaVuSans-20" x="923.876953"/>
      <use xlink:href="#DejaVuSans-31" x="955.664062"/>
     </g>
    </g>
    <g id="line2d_23">
     <g>
      <use xlink:href="#m179fd5b36b" x="146.740307" y="91.634068" style="fill: #ff7f0e; stroke: #ff7f0e"/>
     </g>
    </g>
    <g id="text_22">
     <!-- Experimental data 2 -->
     <g transform="translate(162.040307 94.609068) scale(0.085 -0.085)">
      <use xlink:href="#DejaVuSans-45"/>
      <use xlink:href="#DejaVuSans-78" x="63.183594"/>
      <use xlink:href="#DejaVuSans-70" x="122.363281"/>
      <use xlink:href="#DejaVuSans-65" x="185.839844"/>
      <use xlink:href="#DejaVuSans-72" x="247.363281"/>
      <use xlink:href="#DejaVuSans-69" x="288.476562"/>
      <use xlink:href="#DejaVuSans-6d" x="316.259766"/>
      <use xlink:href="#DejaVuSans-65" x="413.671875"/>
      <use xlink:href="#DejaVuSans-6e" x="475.195312"/>
      <use xlink:href="#DejaVuSans-74" x="538.574219"/>
      <use xlink:href="#DejaVuSans-61" x="577.783203"/>
      <use xlink:href="#DejaVuSans-6c" x="639.0625"/>
      <use xlink:href="#DejaVuSans-20" x="666.845703"/>
      <use xlink:href="#DejaVuSans-64" x="698.632812"/>
      <use xlink:href="#DejaVuSans-61" x="762.109375"/>
      <use xlink:href="#DejaVuSans-74" x="823.388672"/>
      <use xlink:href="#DejaVuSans-61" x="862.597656"/>
      <use xlink:href="#DejaVuSans-20" x="923.876953"/>
      <use xlink:href="#DejaVuSans-32" x="955.664062"/>
     </g>
    </g>
   </g>
  </g>
  <g id="axes_2">
   <g id="patch_10">
    <path d="M 273.451802 218.64351 
L 500.99976 218.64351 
L 500.99976 18.118365 
L 273.451802 18.118365 
z
" style="fill: #ffffff"/>
   </g>
   <g id="PolyCollection_3">
    <defs>
     <path id="m199e5cddaa" d="M 354.764029 -42.471269 
L 354.672954 -42.471269 
L 354.269067 -44.312639 
L 353.94421 -46.154008 
L 353.698384 -47.995378 
L 353.531589 -49.836748 
L 353.443825 -51.678117 
L 353.435092 -53.519487 
L 353.505389 -55.360856 
L 353.654718 -57.202226 
L 353.883077 -59.043595 
L 354.190467 -60.884965 
L 354.576887 -62.726334 
L 355.042339 -64.567704 
L 355.586821 -66.409074 
L 356.210335 -68.250443 
L 356.912879 -70.091813 
L 357.694453 -71.933182 
L 358.555059 -73.774552 
L 359.494696 -75.615921 
L 360.513363 -77.457291 
L 361.611061 -79.298661 
L 362.78779 -81.14003 
L 364.04355 -82.9814 
L 365.378341 -84.822769 
L 366.792162 -86.664139 
L 368.285014 -88.505508 
L 369.856898 -90.346878 
L 371.507812 -92.188247 
L 373.237756 -94.029617 
L 375.046732 -95.870987 
L 376.85494 -97.712356 
L 378.582583 -99.553726 
L 380.229661 -101.395095 
L 381.796174 -103.236465 
L 383.282122 -105.077834 
L 384.687504 -106.919204 
L 386.012321 -108.760573 
L 387.256573 -110.601943 
L 388.446373 -112.443313 
L 389.607835 -114.284682 
L 390.740958 -116.126052 
L 391.845743 -117.967421 
L 392.92219 -119.808791 
L 393.970299 -121.65016 
L 394.990069 -123.49153 
L 395.981501 -125.332899 
L 396.972481 -127.174269 
L 397.990897 -129.015639 
L 399.036749 -130.857008 
L 400.110036 -132.698378 
L 401.210758 -134.539747 
L 402.338916 -136.381117 
L 403.49451 -138.222486 
L 404.677539 -140.063856 
L 405.860248 -141.905226 
L 407.014882 -143.746595 
L 408.141441 -145.587965 
L 409.239925 -147.429334 
L 410.310333 -149.270704 
L 411.352666 -151.112073 
L 412.366924 -152.953443 
L 413.353107 -154.794812 
L 414.332879 -156.636182 
L 415.327904 -158.477552 
L 416.338183 -160.318921 
L 417.363715 -162.160291 
L 418.404501 -164.00166 
L 419.46054 -165.84303 
L 420.531833 -167.684399 
L 421.618379 -169.525769 
L 422.724699 -171.367138 
L 423.855316 -173.208508 
L 425.010227 -175.049878 
L 426.189434 -176.891247 
L 427.392937 -178.732617 
L 428.620735 -180.573986 
L 429.872829 -182.415356 
L 431.149218 -184.256725 
L 432.350906 -186.098095 
L 433.378898 -187.939464 
L 434.233192 -189.780834 
L 434.913789 -191.622204 
L 435.420689 -193.463573 
L 435.753892 -195.304943 
L 435.913397 -197.146312 
L 435.899206 -198.987682 
L 435.866463 -200.829051 
L 435.970315 -202.670421 
L 436.210763 -204.511791 
L 436.587805 -206.35316 
L 437.101442 -208.19453 
L 437.751673 -210.035899 
L 438.5385 -211.877269 
L 439.461922 -213.718638 
L 440.521938 -215.560008 
L 441.718549 -217.401377 
L 443.051756 -219.242747 
L 444.521557 -221.084117 
L 446.127953 -222.925486 
L 447.870944 -224.766856 
L 485.568384 -224.766856 
L 485.568384 -224.766856 
L 484.881577 -222.925486 
L 484.123864 -221.084117 
L 483.295245 -219.242747 
L 482.395721 -217.401377 
L 481.425291 -215.560008 
L 480.383956 -213.718638 
L 479.271715 -211.877269 
L 478.088568 -210.035899 
L 476.834515 -208.19453 
L 475.509557 -206.35316 
L 474.113693 -204.511791 
L 472.646924 -202.670421 
L 471.109249 -200.829051 
L 469.500668 -198.987682 
L 467.821182 -197.146312 
L 466.164625 -195.304943 
L 464.624832 -193.463573 
L 463.201803 -191.622204 
L 461.895539 -189.780834 
L 460.706038 -187.939464 
L 459.633302 -186.098095 
L 458.67733 -184.256725 
L 457.838123 -182.415356 
L 457.019491 -180.573986 
L 456.125247 -178.732617 
L 455.15539 -176.891247 
L 454.109922 -175.049878 
L 452.988841 -173.208508 
L 451.792148 -171.367138 
L 450.519842 -169.525769 
L 449.171924 -167.684399 
L 447.779321 -165.84303 
L 446.372959 -164.00166 
L 444.952839 -162.160291 
L 443.518959 -160.318921 
L 442.071321 -158.477552 
L 440.609924 -156.636182 
L 439.134768 -154.794812 
L 437.645854 -152.953443 
L 436.159599 -151.112073 
L 434.692423 -149.270704 
L 433.244325 -147.429334 
L 431.815305 -145.587965 
L 430.405363 -143.746595 
L 429.014499 -141.905226 
L 427.642714 -140.063856 
L 426.290007 -138.222486 
L 424.972172 -136.381117 
L 423.705003 -134.539747 
L 422.4885 -132.698378 
L 421.322664 -130.857008 
L 420.207494 -129.015639 
L 419.14299 -127.174269 
L 418.129152 -125.332899 
L 417.16598 -123.49153 
L 416.236249 -121.65016 
L 415.322732 -119.808791 
L 414.42543 -117.967421 
L 413.544343 -116.126052 
L 412.679469 -114.284682 
L 411.830811 -112.443313 
L 410.998366 -110.601943 
L 410.182137 -108.760573 
L 409.361983 -106.919204 
L 408.517766 -105.077834 
L 407.649485 -103.236465 
L 406.757141 -101.395095 
L 405.840734 -99.553726 
L 404.900264 -97.712356 
L 403.935731 -95.870987 
L 402.947134 -94.029617 
L 401.941642 -92.188247 
L 400.926422 -90.346878 
L 399.901474 -88.505508 
L 398.866797 -86.664139 
L 397.822393 -84.822769 
L 396.76826 -82.9814 
L 395.7044 -81.14003 
L 394.630811 -79.298661 
L 393.535853 -77.457291 
L 392.407881 -75.615921 
L 391.246898 -73.774552 
L 390.052902 -71.933182 
L 388.825893 -70.091813 
L 387.565872 -68.250443 
L 386.272839 -66.409074 
L 384.946793 -64.567704 
L 383.506518 -62.726334 
L 381.870796 -60.884965 
L 380.039628 -59.043595 
L 378.013014 -57.202226 
L 375.790953 -55.360856 
L 373.373446 -53.519487 
L 370.760492 -51.678117 
L 367.952092 -49.836748 
L 364.948246 -47.995378 
L 361.748954 -46.154008 
L 358.354215 -44.312639 
L 354.764029 -42.471269 
z
" style="stroke: #90ee90; stroke-opacity: 0.75"/>
    </defs>
    <g clip-path="url(#pd78b8fa059)">
     <use xlink:href="#m199e5cddaa" x="0" y="252" style="fill: #90ee90; fill-opacity: 0.75; stroke: #90ee90; stroke-opacity: 0.75"/>
    </g>
   </g>
   <g id="PolyCollection_4">
    <defs>
     <path id="m89d45d05fc" d="M 354.764723 -42.471269 
L 354.675322 -42.471269 
L 355.91307 -44.312639 
L 357.138201 -46.154008 
L 358.355961 -47.995378 
L 359.580235 -49.836748 
L 360.798624 -51.678117 
L 362.021657 -53.519487 
L 363.243591 -55.360856 
L 364.464701 -57.202226 
L 365.687094 -59.043595 
L 366.908156 -60.884965 
L 368.135834 -62.726334 
L 369.358829 -64.567704 
L 370.582161 -66.409074 
L 371.808666 -68.250443 
L 373.031532 -70.091813 
L 374.259473 -71.933182 
L 375.490981 -73.774552 
L 376.71545 -75.615921 
L 377.942354 -77.457291 
L 379.176358 -79.298661 
L 380.401317 -81.14003 
L 381.632165 -82.9814 
L 382.858411 -84.822769 
L 384.081158 -86.664139 
L 385.311934 -88.505508 
L 386.540932 -90.346878 
L 387.775323 -92.188247 
L 388.998499 -94.029617 
L 390.231881 -95.870987 
L 391.462314 -97.712356 
L 392.687703 -99.553726 
L 393.918649 -101.395095 
L 395.151196 -103.236465 
L 396.388677 -105.077834 
L 397.617938 -106.919204 
L 398.851444 -108.760573 
L 400.090847 -110.601943 
L 401.322838 -112.443313 
L 402.564814 -114.284682 
L 403.801913 -116.126052 
L 405.038649 -117.967421 
L 406.28026 -119.808791 
L 407.508724 -121.65016 
L 408.756147 -123.49153 
L 409.992949 -125.332899 
L 411.230822 -127.174269 
L 412.471568 -129.015639 
L 413.714626 -130.857008 
L 414.961426 -132.698378 
L 416.207299 -134.539747 
L 417.450759 -136.381117 
L 418.687933 -138.222486 
L 419.937496 -140.063856 
L 421.177176 -141.905226 
L 422.42724 -143.746595 
L 423.681412 -145.587965 
L 424.924938 -147.429334 
L 426.167261 -149.270704 
L 427.416828 -151.112073 
L 428.666735 -152.953443 
L 429.911054 -154.794812 
L 431.151205 -156.636182 
L 432.390474 -158.477552 
L 433.625779 -160.318921 
L 434.877074 -162.160291 
L 436.116561 -164.00166 
L 437.349994 -165.84303 
L 438.58594 -167.684399 
L 439.819605 -169.525769 
L 441.0628 -171.367138 
L 442.282012 -173.208508 
L 443.529372 -175.049878 
L 444.762608 -176.891247 
L 446.001134 -178.732617 
L 447.225065 -180.573986 
L 448.460097 -182.415356 
L 449.695838 -184.256725 
L 450.918123 -186.098095 
L 452.139017 -187.939464 
L 453.37569 -189.780834 
L 454.590074 -191.622204 
L 455.808853 -193.463573 
L 457.026655 -195.304943 
L 458.246878 -197.146312 
L 459.469932 -198.987682 
L 460.669801 -200.829051 
L 461.86809 -202.670421 
L 463.081475 -204.511791 
L 464.274346 -206.35316 
L 465.472333 -208.19453 
L 466.661913 -210.035899 
L 467.85623 -211.877269 
L 469.047378 -213.718638 
L 470.22431 -215.560008 
L 471.396735 -217.401377 
L 472.576782 -219.242747 
L 473.750553 -221.084117 
L 474.909798 -222.925486 
L 476.085099 -224.766856 
L 485.792645 -224.766856 
L 485.792645 -224.766856 
L 484.356243 -222.925486 
L 482.924879 -221.084117 
L 481.490367 -219.242747 
L 480.053527 -217.401377 
L 478.605351 -215.560008 
L 477.174236 -213.718638 
L 475.734417 -211.877269 
L 474.305392 -210.035899 
L 472.864612 -208.19453 
L 471.417855 -206.35316 
L 470.030582 -204.511791 
L 468.555312 -202.670421 
L 467.137589 -200.829051 
L 465.709783 -198.987682 
L 464.275042 -197.146312 
L 462.867632 -195.304943 
L 461.423963 -193.463573 
L 459.996802 -191.622204 
L 458.588877 -189.780834 
L 457.170407 -187.939464 
L 455.755445 -186.098095 
L 454.350456 -184.256725 
L 452.951081 -182.415356 
L 451.554655 -180.573986 
L 450.144718 -178.732617 
L 448.776148 -176.891247 
L 447.407767 -175.049878 
L 446.026302 -173.208508 
L 444.672646 -171.367138 
L 443.313388 -169.525769 
L 441.953038 -167.684399 
L 440.585312 -165.84303 
L 439.243541 -164.00166 
L 437.892964 -162.160291 
L 436.558327 -160.318921 
L 435.226271 -158.477552 
L 433.899722 -156.636182 
L 432.568462 -154.794812 
L 431.251222 -152.953443 
L 429.919662 -151.112073 
L 428.608929 -149.270704 
L 427.301939 -147.429334 
L 425.993609 -145.587965 
L 424.687134 -143.746595 
L 423.384396 -141.905226 
L 422.093577 -140.063856 
L 420.796031 -138.222486 
L 419.501354 -136.381117 
L 418.214127 -134.539747 
L 416.93282 -132.698378 
L 415.646945 -130.857008 
L 414.373109 -129.015639 
L 413.095773 -127.174269 
L 411.818423 -125.332899 
L 410.542407 -123.49153 
L 409.274549 -121.65016 
L 408.011189 -119.808791 
L 406.744785 -117.967421 
L 405.472048 -116.126052 
L 404.216617 -114.284682 
L 402.952347 -112.443313 
L 401.691675 -110.601943 
L 400.433372 -108.760573 
L 399.184516 -106.919204 
L 397.926447 -105.077834 
L 396.683084 -103.236465 
L 395.441596 -101.395095 
L 394.177528 -99.553726 
L 392.939092 -97.712356 
L 391.693966 -95.870987 
L 390.450436 -94.029617 
L 389.197683 -92.188247 
L 387.945138 -90.346878 
L 386.710238 -88.505508 
L 385.46487 -86.664139 
L 384.218531 -84.822769 
L 382.974867 -82.9814 
L 381.719645 -81.14003 
L 380.471797 -79.298661 
L 379.222967 -77.457291 
L 377.968046 -75.615921 
L 376.709123 -73.774552 
L 375.454417 -71.933182 
L 374.19858 -70.091813 
L 372.932157 -68.250443 
L 371.667397 -66.409074 
L 370.389283 -64.567704 
L 369.116125 -62.726334 
L 367.838186 -60.884965 
L 366.553417 -59.043595 
L 365.264936 -57.202226 
L 363.961731 -55.360856 
L 362.664736 -53.519487 
L 361.358479 -51.678117 
L 360.039059 -49.836748 
L 358.726509 -47.995378 
L 357.397317 -46.154008 
L 356.067764 -44.312639 
L 354.764723 -42.471269 
z
" style="stroke: #6495ed; stroke-opacity: 0.75"/>
    </defs>
    <g clip-path="url(#pd78b8fa059)">
     <use xlink:href="#m89d45d05fc" x="0" y="252" style="fill: #6495ed; fill-opacity: 0.75; stroke: #6495ed; stroke-opacity: 0.75"/>
    </g>
   </g>
   <g id="matplotlib.axis_3">
    <g id="xtick_8">
     <g id="line2d_24">
      <g>
       <use xlink:href="#me812259b82" x="289.705228" y="218.64351" style="stroke: #000000; stroke-width: 0.8"/>
      </g>
     </g>
     <g id="text_23">
      <!-- −0.04 -->
      <g transform="translate(274.382572 233.241948) scale(0.1 -0.1)">
       <use xlink:href="#DejaVuSans-2212"/>
       <use xlink:href="#DejaVuSans-30" x="83.789062"/>
       <use xlink:href="#DejaVuSans-2e" x="147.412109"/>
       <use xlink:href="#DejaVuSans-30" x="179.199219"/>
       <use xlink:href="#DejaVuSans-34" x="242.822266"/>
      </g>
     </g>
    </g>
    <g id="xtick_9">
     <g id="line2d_25">
      <g>
       <use xlink:href="#me812259b82" x="322.212079" y="218.64351" style="stroke: #000000; stroke-width: 0.8"/>
      </g>
     </g>
     <g id="text_24">
      <!-- −0.02 -->
      <g transform="translate(306.889423 233.241948) scale(0.1 -0.1)">
       <use xlink:href="#DejaVuSans-2212"/>
       <use xlink:href="#DejaVuSans-30" x="83.789062"/>
       <use xlink:href="#DejaVuSans-2e" x="147.412109"/>
       <use xlink:href="#DejaVuSans-30" x="179.199219"/>
       <use xlink:href="#DejaVuSans-32" x="242.822266"/>
      </g>
     </g>
    </g>
    <g id="xtick_10">
     <g id="line2d_26">
      <g>
       <use xlink:href="#me812259b82" x="354.71893" y="218.64351" style="stroke: #000000; stroke-width: 0.8"/>
      </g>
     </g>
     <g id="text_25">
      <!-- 0.00 -->
      <g transform="translate(343.586118 233.241948) scale(0.1 -0.1)">
       <use xlink:href="#DejaVuSans-30"/>
       <use xlink:href="#DejaVuSans-2e" x="63.623047"/>
       <use xlink:href="#DejaVuSans-30" x="95.410156"/>
       <use xlink:href="#DejaVuSans-30" x="159.033203"/>
      </g>
     </g>
    </g>
    <g id="xtick_11">
     <g id="line2d_27">
      <g>
       <use xlink:href="#me812259b82" x="387.225781" y="218.64351" style="stroke: #000000; stroke-width: 0.8"/>
      </g>
     </g>
     <g id="text_26">
      <!-- 0.02 -->
      <g transform="translate(376.092969 233.241948) scale(0.1 -0.1)">
       <use xlink:href="#DejaVuSans-30"/>
       <use xlink:href="#DejaVuSans-2e" x="63.623047"/>
       <use xlink:href="#DejaVuSans-30" x="95.410156"/>
       <use xlink:href="#DejaVuSans-32" x="159.033203"/>
      </g>
     </g>
    </g>
    <g id="xtick_12">
     <g id="line2d_28">
      <g>
       <use xlink:href="#me812259b82" x="419.732632" y="218.64351" style="stroke: #000000; stroke-width: 0.8"/>
      </g>
     </g>
     <g id="text_27">
      <!-- 0.04 -->
      <g transform="translate(408.59982 233.241948) scale(0.1 -0.1)">
       <use xlink:href="#DejaVuSans-30"/>
       <use xlink:href="#DejaVuSans-2e" x="63.623047"/>
       <use xlink:href="#DejaVuSans-30" x="95.410156"/>
       <use xlink:href="#DejaVuSans-34" x="159.033203"/>
      </g>
     </g>
    </g>
    <g id="xtick_13">
     <g id="line2d_29">
      <g>
       <use xlink:href="#me812259b82" x="452.239483" y="218.64351" style="stroke: #000000; stroke-width: 0.8"/>
      </g>
     </g>
     <g id="text_28">
      <!-- 0.06 -->
      <g transform="translate(441.106671 233.241948) scale(0.1 -0.1)">
       <use xlink:href="#DejaVuSans-30"/>
       <use xlink:href="#DejaVuSans-2e" x="63.623047"/>
       <use xlink:href="#DejaVuSans-30" x="95.410156"/>
       <use xlink:href="#DejaVuSans-36" x="159.033203"/>
      </g>
     </g>
    </g>
    <g id="xtick_14">
     <g id="line2d_30">
      <g>
       <use xlink:href="#me812259b82" x="484.746334" y="218.64351" style="stroke: #000000; stroke-width: 0.8"/>
      </g>
     </g>
     <g id="text_29">
      <!-- 0.08 -->
      <g transform="translate(473.613522 233.241948) scale(0.1 -0.1)">
       <use xlink:href="#DejaVuSans-30"/>
       <use xlink:href="#DejaVuSans-2e" x="63.623047"/>
       <use xlink:href="#DejaVuSans-30" x="95.410156"/>
       <use xlink:href="#DejaVuSans-38" x="159.033203"/>
      </g>
     </g>
    </g>
    <g id="text_30">
     <!-- Shear Extension [mm] -->
     <g transform="translate(331.320312 246.920073) scale(0.1 -0.1)">
      <defs>
       <path id="DejaVuSans-53" d="M 3425 4513 
L 3425 3897 
Q 3066 4069 2747 4153 
Q 2428 4238 2131 4238 
Q 1616 4238 1336 4038 
Q 1056 3838 1056 3469 
Q 1056 3159 1242 3001 
Q 1428 2844 1947 2747 
L 2328 2669 
Q 3034 2534 3370 2195 
Q 3706 1856 3706 1288 
Q 3706 609 3251 259 
Q 2797 -91 1919 -91 
Q 1588 -91 1214 -16 
Q 841 59 441 206 
L 441 856 
Q 825 641 1194 531 
Q 1563 422 1919 422 
Q 2459 422 2753 634 
Q 3047 847 3047 1241 
Q 3047 1584 2836 1778 
Q 2625 1972 2144 2069 
L 1759 2144 
Q 1053 2284 737 2584 
Q 422 2884 422 3419 
Q 422 4038 858 4394 
Q 1294 4750 2059 4750 
Q 2388 4750 2728 4690 
Q 3069 4631 3425 4513 
z
" transform="scale(0.015625)"/>
       <path id="DejaVuSans-68" d="M 3513 2113 
L 3513 0 
L 2938 0 
L 2938 2094 
Q 2938 2591 2744 2837 
Q 2550 3084 2163 3084 
Q 1697 3084 1428 2787 
Q 1159 2491 1159 1978 
L 1159 0 
L 581 0 
L 581 4863 
L 1159 4863 
L 1159 2956 
Q 1366 3272 1645 3428 
Q 1925 3584 2291 3584 
Q 2894 3584 3203 3211 
Q 3513 2838 3513 2113 
z
" transform="scale(0.015625)"/>
      </defs>
      <use xlink:href="#DejaVuSans-53"/>
      <use xlink:href="#DejaVuSans-68" x="63.476562"/>
      <use xlink:href="#DejaVuSans-65" x="126.855469"/>
      <use xlink:href="#DejaVuSans-61" x="188.378906"/>
      <use xlink:href="#DejaVuSans-72" x="249.658203"/>
      <use xlink:href="#DejaVuSans-20" x="290.771484"/>
      <use xlink:href="#DejaVuSans-45" x="322.558594"/>
      <use xlink:href="#DejaVuSans-78" x="385.742188"/>
      <use xlink:href="#DejaVuSans-74" x="444.921875"/>
      <use xlink:href="#DejaVuSans-65" x="484.130859"/>
      <use xlink:href="#DejaVuSans-6e" x="545.654297"/>
      <use xlink:href="#DejaVuSans-73" x="609.033203"/>
      <use xlink:href="#DejaVuSans-69" x="661.132812"/>
      <use xlink:href="#DejaVuSans-6f" x="688.916016"/>
      <use xlink:href="#DejaVuSans-6e" x="750.097656"/>
      <use xlink:href="#DejaVuSans-20" x="813.476562"/>
      <use xlink:href="#DejaVuSans-5b" x="845.263672"/>
      <use xlink:href="#DejaVuSans-6d" x="884.277344"/>
      <use xlink:href="#DejaVuSans-6d" x="981.689453"/>
      <use xlink:href="#DejaVuSans-5d" x="1079.101562"/>
     </g>
    </g>
   </g>
   <g id="matplotlib.axis_4">
    <g id="ytick_7">
     <g id="line2d_31">
      <g>
       <use xlink:href="#m221a9ceb76" x="273.451802" y="209.528731" style="stroke: #000000; stroke-width: 0.8"/>
      </g>
     </g>
    </g>
    <g id="ytick_8">
     <g id="line2d_32">
      <g>
       <use xlink:href="#m221a9ceb76" x="273.451802" y="173.069613" style="stroke: #000000; stroke-width: 0.8"/>
      </g>
     </g>
    </g>
    <g id="ytick_9">
     <g id="line2d_33">
      <g>
       <use xlink:href="#m221a9ceb76" x="273.451802" y="136.610496" style="stroke: #000000; stroke-width: 0.8"/>
      </g>
     </g>
    </g>
    <g id="ytick_10">
     <g id="line2d_34">
      <g>
       <use xlink:href="#m221a9ceb76" x="273.451802" y="100.151379" style="stroke: #000000; stroke-width: 0.8"/>
      </g>
     </g>
    </g>
    <g id="ytick_11">
     <g id="line2d_35">
      <g>
       <use xlink:href="#m221a9ceb76" x="273.451802" y="63.692262" style="stroke: #000000; stroke-width: 0.8"/>
      </g>
     </g>
    </g>
    <g id="ytick_12">
     <g id="line2d_36">
      <g>
       <use xlink:href="#m221a9ceb76" x="273.451802" y="27.233144" style="stroke: #000000; stroke-width: 0.8"/>
      </g>
     </g>
    </g>
   </g>
   <g id="line2d_37">
    <path d="M 273.451802 209.528731 
L 500.99976 209.528731 
" clip-path="url(#pd78b8fa059)" style="fill: none; stroke-dasharray: 2.775,1.2; stroke-dashoffset: 0; stroke: #808080; stroke-opacity: 0.75; stroke-width: 0.75"/>
   </g>
   <g id="line2d_38">
    <path d="M 354.71893 218.64351 
L 354.71893 18.118365 
" clip-path="url(#pd78b8fa059)" style="fill: none; stroke-dasharray: 2.775,1.2; stroke-dashoffset: 0; stroke: #808080; stroke-opacity: 0.75; stroke-width: 0.75"/>
   </g>
   <g id="line2d_39">
    <path d="M 354.723073 209.528731 
L 355.705158 207.687361 
L 356.723185 205.845992 
L 357.7744 204.004622 
L 358.857026 202.163252 
L 359.965687 200.321883 
L 361.097246 198.480513 
L 362.247829 196.639144 
L 363.413482 194.797774 
L 364.592685 192.956405 
L 365.783237 191.115035 
L 366.983607 189.273666 
L 368.194143 187.432296 
L 369.412447 185.590926 
L 370.637293 183.749557 
L 371.869097 181.908187 
L 373.103989 180.066818 
L 374.341311 178.225448 
L 375.578489 176.384079 
L 376.814907 174.542709 
L 378.047319 172.701339 
L 379.27593 170.85997 
L 380.498096 169.0186 
L 381.714865 167.177231 
L 382.924113 165.335861 
L 384.127004 163.494492 
L 385.324118 161.653122 
L 386.514699 159.811753 
L 387.69998 157.970383 
L 388.879877 156.129013 
L 390.052597 154.287644 
L 391.218583 152.446274 
L 392.375952 150.604905 
L 393.524964 148.763535 
L 394.664974 146.922166 
L 395.796364 145.080796 
L 396.921887 143.239427 
L 398.041268 141.398057 
L 399.156591 139.556687 
L 400.268058 137.715318 
L 401.376738 135.873948 
L 402.481454 134.032579 
L 403.585689 132.191209 
L 404.687277 130.34984 
L 405.789978 128.50847 
L 406.894949 126.667101 
L 408.004228 124.825731 
L 409.120692 122.984361 
L 410.245808 121.142992 
L 411.381885 119.301622 
L 412.527804 117.460253 
L 413.68407 115.618883 
L 414.848788 113.777514 
L 416.021365 111.936144 
L 417.200849 110.094774 
L 418.386516 108.253405 
L 419.57887 106.412035 
L 420.777076 104.570666 
L 421.980262 102.729296 
L 423.189011 100.887927 
L 424.401417 99.046557 
L 425.615644 97.205188 
L 426.833249 95.363818 
L 428.051679 93.522448 
L 429.271905 91.681079 
L 430.493562 89.839709 
L 431.717364 87.99834 
L 432.941614 86.15697 
L 434.164351 84.315601 
L 435.38468 82.474231 
L 436.598045 80.632862 
L 437.801191 78.791492 
L 438.990382 76.950122 
L 440.16349 75.108753 
L 441.317182 73.267383 
L 442.450005 71.426014 
L 443.561813 69.584644 
L 444.651928 67.743275 
L 445.721443 65.901905 
L 446.771154 64.060536 
L 447.801806 62.219166 
L 448.817201 60.377796 
L 449.821433 58.536427 
L 450.818406 56.695057 
L 451.81363 54.853688 
L 452.811433 53.012318 
L 453.816507 51.170949 
L 454.830379 49.329579 
L 455.854285 47.488209 
L 456.890693 45.64684 
L 457.938389 43.80547 
L 458.998347 41.964101 
L 460.068784 40.122731 
L 461.14863 38.281362 
L 462.237844 36.439992 
L 463.333582 34.598623 
L 464.433526 32.757253 
L 465.534735 30.915883 
L 466.63352 29.074514 
L 467.723035 27.233144 
" clip-path="url(#pd78b8fa059)" style="fill: none; stroke-dasharray: 3.7,1.6; stroke-dashoffset: 0; stroke: #008000"/>
   </g>
   <g id="line2d_40">
    <path d="M 354.720886 209.528731 
L 355.97745 207.687361 
L 357.232958 205.845992 
L 358.48745 204.004622 
L 359.740832 202.163252 
L 360.992035 200.321883 
L 362.243197 198.480513 
L 363.493012 196.639144 
L 364.741139 194.797774 
L 365.989584 192.956405 
L 367.235733 191.115035 
L 368.482221 189.273666 
L 369.726737 187.432296 
L 370.972003 185.590926 
L 372.215901 183.749557 
L 373.459532 181.908187 
L 374.702552 180.066818 
L 375.94479 178.225448 
L 377.187623 176.384079 
L 378.429753 174.542709 
L 379.671788 172.701339 
L 380.912984 170.85997 
L 382.154784 169.0186 
L 383.396468 167.177231 
L 384.63848 165.335861 
L 385.880174 163.494492 
L 387.122073 161.653122 
L 388.364707 159.811753 
L 389.607349 157.970383 
L 390.850437 156.129013 
L 392.09345 154.287644 
L 393.33774 152.446274 
L 394.582595 150.604905 
L 395.827959 148.763535 
L 397.073162 146.922166 
L 398.319802 145.080796 
L 399.566838 143.239427 
L 400.815405 141.398057 
L 402.064449 139.556687 
L 403.313872 137.715318 
L 404.564829 135.873948 
L 405.816558 134.032579 
L 407.068593 132.191209 
L 408.322729 130.34984 
L 409.576885 128.50847 
L 410.832791 126.667101 
L 412.089486 124.825731 
L 413.347622 122.984361 
L 414.605891 121.142992 
L 415.866234 119.301622 
L 417.127595 117.460253 
L 418.389292 115.618883 
L 419.652656 113.777514 
L 420.917411 111.936144 
L 422.182537 110.094774 
L 423.449371 108.253405 
L 424.717279 106.412035 
L 425.985412 104.570666 
L 427.255267 102.729296 
L 428.525917 100.887927 
L 429.797249 99.046557 
L 431.06988 97.205188 
L 432.342735 95.363818 
L 433.617233 93.522448 
L 434.892469 91.681079 
L 436.16843 89.839709 
L 437.444772 87.99834 
L 438.721702 86.15697 
L 439.999379 84.315601 
L 441.277688 82.474231 
L 442.555913 80.632862 
L 443.834841 78.791492 
L 445.113981 76.950122 
L 446.39319 75.108753 
L 447.673085 73.267383 
L 448.952813 71.426014 
L 450.232174 69.584644 
L 451.51203 67.743275 
L 452.791004 65.901905 
L 454.069416 64.060536 
L 455.348009 62.219166 
L 456.626154 60.377796 
L 457.903889 58.536427 
L 459.18097 56.695057 
L 460.45594 54.853688 
L 461.730778 53.012318 
L 463.004995 51.170949 
L 464.277128 49.329579 
L 465.548693 47.488209 
L 466.818499 45.64684 
L 468.086936 43.80547 
L 469.354009 41.964101 
L 470.618639 40.122731 
L 471.881737 38.281362 
L 473.142768 36.439992 
L 474.401654 34.598623 
L 475.657376 32.757253 
L 476.91214 30.915883 
L 478.163688 29.074514 
L 479.412062 27.233144 
" clip-path="url(#pd78b8fa059)" style="fill: none; stroke: #0000ff; stroke-width: 0.5; stroke-linecap: square"/>
   </g>
   <g id="line2d_41">
    <g clip-path="url(#pd78b8fa059)">
     <use xlink:href="#m9607e03d17" x="354.71893" y="209.528731" style="fill: #1f77b4; stroke: #1f77b4"/>
     <use xlink:href="#m9607e03d17" x="358.491982" y="203.71012" style="fill: #1f77b4; stroke: #1f77b4"/>
     <use xlink:href="#m9607e03d17" x="362.353748" y="199.566564" style="fill: #1f77b4; stroke: #1f77b4"/>
     <use xlink:href="#m9607e03d17" x="363.759852" y="196.745419" style="fill: #1f77b4; stroke: #1f77b4"/>
     <use xlink:href="#m9607e03d17" x="366.906963" y="192.513702" style="fill: #1f77b4; stroke: #1f77b4"/>
     <use xlink:href="#m9607e03d17" x="370.350735" y="187.988116" style="fill: #1f77b4; stroke: #1f77b4"/>
     <use xlink:href="#m9607e03d17" x="372.353028" y="183.403757" style="fill: #1f77b4; stroke: #1f77b4"/>
     <use xlink:href="#m9607e03d17" x="376.268393" y="178.819397" style="fill: #1f77b4; stroke: #1f77b4"/>
     <use xlink:href="#m9607e03d17" x="379.8265" y="173.911782" style="fill: #1f77b4; stroke: #1f77b4"/>
     <use xlink:href="#m9607e03d17" x="382.944397" y="169.151101" style="fill: #1f77b4; stroke: #1f77b4"/>
     <use xlink:href="#m9607e03d17" x="386.74444" y="164.155325" style="fill: #1f77b4; stroke: #1f77b4"/>
     <use xlink:href="#m9607e03d17" x="390.233572" y="158.10162" style="fill: #1f77b4; stroke: #1f77b4"/>
     <use xlink:href="#m9607e03d17" x="394.381926" y="153.928677" style="fill: #1f77b4; stroke: #1f77b4"/>
     <use xlink:href="#m9607e03d17" x="398.239753" y="148.433324" style="fill: #1f77b4; stroke: #1f77b4"/>
     <use xlink:href="#m9607e03d17" x="400.779046" y="142.761649" style="fill: #1f77b4; stroke: #1f77b4"/>
     <use xlink:href="#m9607e03d17" x="405.463631" y="137.413229" style="fill: #1f77b4; stroke: #1f77b4"/>
     <use xlink:href="#m9607e03d17" x="408.470492" y="132.006036" style="fill: #1f77b4; stroke: #1f77b4"/>
     <use xlink:href="#m9607e03d17" x="413.572726" y="126.187426" style="fill: #1f77b4; stroke: #1f77b4"/>
     <use xlink:href="#m9607e03d17" x="417.174571" y="120.603911" style="fill: #1f77b4; stroke: #1f77b4"/>
     <use xlink:href="#m9607e03d17" x="421.538285" y="115.167331" style="fill: #1f77b4; stroke: #1f77b4"/>
     <use xlink:href="#m9607e03d17" x="426.420746" y="109.466268" style="fill: #1f77b4; stroke: #1f77b4"/>
     <use xlink:href="#m9607e03d17" x="428.426482" y="104.059074" style="fill: #1f77b4; stroke: #1f77b4"/>
     <use xlink:href="#m9607e03d17" x="433.192197" y="98.328624" style="fill: #1f77b4; stroke: #1f77b4"/>
     <use xlink:href="#m9607e03d17" x="437.227355" y="92.833269" style="fill: #1f77b4; stroke: #1f77b4"/>
     <use xlink:href="#m9607e03d17" x="440.851793" y="87.161592" style="fill: #1f77b4; stroke: #1f77b4"/>
     <use xlink:href="#m9607e03d17" x="445.172508" y="81.842558" style="fill: #1f77b4; stroke: #1f77b4"/>
     <use xlink:href="#m9607e03d17" x="448.85827" y="75.877011" style="fill: #1f77b4; stroke: #1f77b4"/>
     <use xlink:href="#m9607e03d17" x="453.739229" y="70.117173" style="fill: #1f77b4; stroke: #1f77b4"/>
     <use xlink:href="#m9607e03d17" x="456.774386" y="65.06262" style="fill: #1f77b4; stroke: #1f77b4"/>
     <use xlink:href="#m9607e03d17" x="460.746113" y="59.684811" style="fill: #1f77b4; stroke: #1f77b4"/>
     <use xlink:href="#m9607e03d17" x="465.817888" y="54.013132" style="fill: #1f77b4; stroke: #1f77b4"/>
     <use xlink:href="#m9607e03d17" x="469.786474" y="48.752869" style="fill: #1f77b4; stroke: #1f77b4"/>
     <use xlink:href="#m9607e03d17" x="473.752048" y="44.109732" style="fill: #1f77b4; stroke: #1f77b4"/>
     <use xlink:href="#m9607e03d17" x="476.859365" y="38.320504" style="fill: #1f77b4; stroke: #1f77b4"/>
    </g>
   </g>
   <g id="line2d_42">
    <g clip-path="url(#pd78b8fa059)">
     <use xlink:href="#m179fd5b36b" x="358.643823" y="204.239084" style="fill: #ff7f0e; stroke: #ff7f0e"/>
     <use xlink:href="#m179fd5b36b" x="361.210216" y="199.948594" style="fill: #ff7f0e; stroke: #ff7f0e"/>
     <use xlink:href="#m179fd5b36b" x="364.853189" y="195.863812" style="fill: #ff7f0e; stroke: #ff7f0e"/>
     <use xlink:href="#m179fd5b36b" x="366.436581" y="191.48516" style="fill: #ff7f0e; stroke: #ff7f0e"/>
     <use xlink:href="#m179fd5b36b" x="370.086031" y="187.165283" style="fill: #ff7f0e; stroke: #ff7f0e"/>
     <use xlink:href="#m179fd5b36b" x="373.383519" y="182.110733" style="fill: #ff7f0e; stroke: #ff7f0e"/>
     <use xlink:href="#m179fd5b36b" x="376.482283" y="177.056183" style="fill: #ff7f0e; stroke: #ff7f0e"/>
     <use xlink:href="#m179fd5b36b" x="380.069117" y="171.972246" style="fill: #ff7f0e; stroke: #ff7f0e"/>
     <use xlink:href="#m179fd5b36b" x="383.216274" y="166.947083" style="fill: #ff7f0e; stroke: #ff7f0e"/>
     <use xlink:href="#m179fd5b36b" x="387.285422" y="161.069699" style="fill: #ff7f0e; stroke: #ff7f0e"/>
     <use xlink:href="#m179fd5b36b" x="391.297208" y="154.986607" style="fill: #ff7f0e; stroke: #ff7f0e"/>
     <use xlink:href="#m179fd5b36b" x="395.191677" y="149.932057" style="fill: #ff7f0e; stroke: #ff7f0e"/>
     <use xlink:href="#m179fd5b36b" x="398.39492" y="144.319156" style="fill: #ff7f0e; stroke: #ff7f0e"/>
     <use xlink:href="#m179fd5b36b" x="402.477664" y="138.324224" style="fill: #ff7f0e; stroke: #ff7f0e"/>
     <use xlink:href="#m179fd5b36b" x="406.538667" y="132.887644" style="fill: #ff7f0e; stroke: #ff7f0e"/>
     <use xlink:href="#m179fd5b36b" x="410.891133" y="127.01026" style="fill: #ff7f0e; stroke: #ff7f0e"/>
     <use xlink:href="#m179fd5b36b" x="415.021354" y="121.367972" style="fill: #ff7f0e; stroke: #ff7f0e"/>
     <use xlink:href="#m179fd5b36b" x="418.736876" y="115.725683" style="fill: #ff7f0e; stroke: #ff7f0e"/>
     <use xlink:href="#m179fd5b36b" x="422.838991" y="110.054007" style="fill: #ff7f0e; stroke: #ff7f0e"/>
     <use xlink:href="#m179fd5b36b" x="426.521271" y="104.029688" style="fill: #ff7f0e; stroke: #ff7f0e"/>
     <use xlink:href="#m179fd5b36b" x="431.241222" y="98.56372" style="fill: #ff7f0e; stroke: #ff7f0e"/>
     <use xlink:href="#m179fd5b36b" x="433.767276" y="93.097751" style="fill: #ff7f0e; stroke: #ff7f0e"/>
     <use xlink:href="#m179fd5b36b" x="438.595948" y="87.367301" style="fill: #ff7f0e; stroke: #ff7f0e"/>
     <use xlink:href="#m179fd5b36b" x="443.032796" y="81.548689" style="fill: #ff7f0e; stroke: #ff7f0e"/>
     <use xlink:href="#m179fd5b36b" x="446.287813" y="76.259041" style="fill: #ff7f0e; stroke: #ff7f0e"/>
     <use xlink:href="#m179fd5b36b" x="450.15836" y="70.587363" style="fill: #ff7f0e; stroke: #ff7f0e"/>
     <use xlink:href="#m179fd5b36b" x="453.863194" y="64.886298" style="fill: #ff7f0e; stroke: #ff7f0e"/>
     <use xlink:href="#m179fd5b36b" x="458.15321" y="59.185232" style="fill: #ff7f0e; stroke: #ff7f0e"/>
     <use xlink:href="#m179fd5b36b" x="462.30518" y="54.013131" style="fill: #ff7f0e; stroke: #ff7f0e"/>
     <use xlink:href="#m179fd5b36b" x="466.552102" y="48.664707" style="fill: #ff7f0e; stroke: #ff7f0e"/>
     <use xlink:href="#m179fd5b36b" x="470.092033" y="43.316283" style="fill: #ff7f0e; stroke: #ff7f0e"/>
     <use xlink:href="#m179fd5b36b" x="474.526914" y="37.820924" style="fill: #ff7f0e; stroke: #ff7f0e"/>
    </g>
   </g>
   <g id="patch_11">
    <path d="M 273.451802 218.64351 
L 273.451802 18.118365 
" style="fill: none; stroke: #000000; stroke-width: 0.8; stroke-linejoin: miter; stroke-linecap: square"/>
   </g>
   <g id="patch_12">
    <path d="M 500.99976 218.64351 
L 500.99976 18.118365 
" style="fill: none; stroke: #000000; stroke-width: 0.8; stroke-linejoin: miter; stroke-linecap: square"/>
   </g>
   <g id="patch_13">
    <path d="M 273.451802 218.64351 
L 500.99976 218.64351 
" style="fill: none; stroke: #000000; stroke-width: 0.8; stroke-linejoin: miter; stroke-linecap: square"/>
   </g>
   <g id="patch_14">
    <path d="M 273.451802 18.118365 
L 500.99976 18.118365 
" style="fill: none; stroke: #000000; stroke-width: 0.8; stroke-linejoin: miter; stroke-linecap: square"/>
   </g>
   <g id="text_31">
    <!-- Predictions ($135^\circ$) -->
    <g transform="translate(331.485781 12.118365) scale(0.12 -0.12)">
     <use xlink:href="#DejaVuSans-50" transform="translate(0 0.015625)"/>
     <use xlink:href="#DejaVuSans-72" transform="translate(60.302734 0.015625)"/>
     <use xlink:href="#DejaVuSans-65" transform="translate(101.416016 0.015625)"/>
     <use xlink:href="#DejaVuSans-64" transform="translate(162.939453 0.015625)"/>
     <use xlink:href="#DejaVuSans-69" transform="translate(226.416016 0.015625)"/>
     <use xlink:href="#DejaVuSans-63" transform="translate(254.199219 0.015625)"/>
     <use xlink:href="#DejaVuSans-74" transform="translate(309.179688 0.015625)"/>
     <use xlink:href="#DejaVuSans-69" transform="translate(348.388672 0.015625)"/>
     <use xlink:href="#DejaVuSans-6f" transform="translate(376.171875 0.015625)"/>
     <use xlink:href="#DejaVuSans-6e" transform="translate(437.353516 0.015625)"/>
     <use xlink:href="#DejaVuSans-73" transform="translate(500.732422 0.015625)"/>
     <use xlink:href="#DejaVuSans-20" transform="translate(552.832031 0.015625)"/>
     <use xlink:href="#DejaVuSans-28" transform="translate(584.619141 0.015625)"/>
     <use xlink:href="#DejaVuSans-31" transform="translate(623.632812 0.015625)"/>
     <use xlink:href="#DejaVuSans-33" transform="translate(687.255859 0.015625)"/>
     <use xlink:href="#DejaVuSans-35" transform="translate(750.878906 0.015625)"/>
     <use xlink:href="#DejaVuSans-2218" transform="translate(829.09668 38.296875) scale(0.7)"/>
     <use xlink:href="#DejaVuSans-29" transform="translate(889.287109 0.015625)"/>
    </g>
   </g>
  </g>
 </g>
 <defs>
  <clipPath id="pb090adbc3a">
   <rect x="36.403365" y="18.118365" width="227.547957" height="200.525145"/>
  </clipPath>
  <clipPath id="pd78b8fa059">
   <rect x="273.451802" y="18.118365" width="227.547958" height="200.525145"/>
  </clipPath>
 </defs>
</svg>
