<?xml version="1.0" encoding="utf-8" standalone="no"?>
<!DOCTYPE svg PUBLIC "-//W3C//DTD SVG 1.1//EN"
  "http://www.w3.org/Graphics/SVG/1.1/DTD/svg11.dtd">
<svg xmlns:xlink="http://www.w3.org/1999/xlink" width="504pt" height="252pt" viewBox="0 0 504 252" xmlns="http://www.w3.org/2000/svg" version="1.1">
 <metadata>
  <rdf:RDF xmlns:dc="http://purl.org/dc/elements/1.1/" xmlns:cc="http://creativecommons.org/ns#" xmlns:rdf="http://www.w3.org/1999/02/22-rdf-syntax-ns#">
   <cc:Work>
    <dc:type rdf:resource="http://purl.org/dc/dcmitype/StillImage"/>
    <dc:date>2024-11-24T00:01:29.809807</dc:date>
    <dc:format>image/svg+xml</dc:format>
    <dc:creator>
     <cc:Agent>
      <dc:title>Matplotlib v3.9.2, https://matplotlib.org/</dc:title>
     </cc:Agent>
    </dc:creator>
   </cc:Work>
  </rdf:RDF>
 </metadata>
 <defs>
  <style type="text/css">*{stroke-linejoin: round; stroke-linecap: butt}</style>
 </defs>
 <g id="figure_1">
  <g id="patch_1">
   <path d="M 0 252 
L 504 252 
L 504 0 
L 0 0 
z
" style="fill: #ffffff"/>
  </g>
  <g id="axes_1">
   <g id="patch_2">
    <path d="M 36.403365 218.64351 
L 263.951323 218.64351 
L 263.951323 18.118365 
L 36.403365 18.118365 
z
" style="fill: #ffffff"/>
   </g>
   <g id="PolyCollection_1">
    <defs>
     <path id="m91162fa8e6" d="M 48.446568 -42.471269 
L 48.31139 -42.471269 
L 48.14092 -44.312639 
L 47.993509 -46.154008 
L 47.869157 -47.995378 
L 47.767864 -49.836748 
L 47.689629 -51.678117 
L 47.634454 -53.519487 
L 47.602337 -55.360856 
L 47.593278 -57.202226 
L 47.607279 -59.043595 
L 47.644338 -60.884965 
L 47.704456 -62.726334 
L 47.787633 -64.567704 
L 47.893868 -66.409074 
L 48.023163 -68.250443 
L 48.175516 -70.091813 
L 48.350928 -71.933182 
L 48.549398 -73.774552 
L 48.770928 -75.615921 
L 49.015516 -77.457291 
L 49.283163 -79.298661 
L 49.573868 -81.14003 
L 49.887633 -82.9814 
L 50.224456 -84.822769 
L 50.584338 -86.664139 
L 50.967279 -88.505508 
L 51.373278 -90.346878 
L 51.802337 -92.188247 
L 52.254454 -94.029617 
L 52.729629 -95.870987 
L 53.227864 -97.712356 
L 53.749157 -99.553726 
L 54.293509 -101.395095 
L 54.86092 -103.236465 
L 55.45139 -105.077834 
L 56.064918 -106.919204 
L 56.701506 -108.760573 
L 57.361152 -110.601943 
L 58.043856 -112.443313 
L 58.74962 -114.284682 
L 59.478442 -116.126052 
L 60.230323 -117.967421 
L 61.005263 -119.808791 
L 61.803261 -121.65016 
L 62.624318 -123.49153 
L 63.468435 -125.332899 
L 64.335609 -127.174269 
L 65.225843 -129.015639 
L 66.139135 -130.857008 
L 67.075486 -132.698378 
L 68.034896 -134.539747 
L 69.017365 -136.381117 
L 70.022892 -138.222486 
L 71.051479 -140.063856 
L 72.103124 -141.905226 
L 73.177827 -143.746595 
L 74.253466 -145.587965 
L 75.307916 -147.429334 
L 76.341177 -149.270704 
L 77.35325 -151.112073 
L 78.344133 -152.953443 
L 79.313828 -154.794812 
L 80.262335 -156.636182 
L 81.189652 -158.477552 
L 82.100622 -160.318921 
L 83.000084 -162.160291 
L 83.88804 -164.00166 
L 84.764489 -165.84303 
L 85.629431 -167.684399 
L 86.482866 -169.525769 
L 87.324794 -171.367138 
L 88.155215 -173.208508 
L 88.988315 -175.049878 
L 89.838283 -176.891247 
L 90.705116 -178.732617 
L 91.588816 -180.573986 
L 92.489382 -182.415356 
L 93.406814 -184.256725 
L 94.341113 -186.098095 
L 95.292279 -187.939464 
L 96.244862 -189.780834 
L 97.183416 -191.622204 
L 98.107941 -193.463573 
L 99.018436 -195.304943 
L 99.914902 -197.146312 
L 100.797338 -198.987682 
L 101.665745 -200.829051 
L 102.520123 -202.670421 
L 103.383131 -204.511791 
L 104.27743 -206.35316 
L 105.203019 -208.19453 
L 106.1599 -210.035899 
L 107.148071 -211.877269 
L 108.167533 -213.718638 
L 109.218286 -215.560008 
L 110.30033 -217.401377 
L 111.413665 -219.242747 
L 112.55829 -221.084117 
L 113.734207 -222.925486 
L 114.941414 -224.766856 
L 157.020351 -224.766856 
L 157.020351 -224.766856 
L 155.991433 -222.925486 
L 154.983558 -221.084117 
L 153.996727 -219.242747 
L 153.03094 -217.401377 
L 152.086197 -215.560008 
L 151.162497 -213.718638 
L 150.259841 -211.877269 
L 149.378228 -210.035899 
L 148.517659 -208.19453 
L 147.678134 -206.35316 
L 146.859652 -204.511791 
L 146.062214 -202.670421 
L 145.285819 -200.829051 
L 144.530469 -198.987682 
L 143.796161 -197.146312 
L 143.090502 -195.304943 
L 142.421096 -193.463573 
L 141.787943 -191.622204 
L 141.191042 -189.780834 
L 140.630395 -187.939464 
L 140.106 -186.098095 
L 139.617857 -184.256725 
L 139.165968 -182.415356 
L 138.702363 -180.573986 
L 138.179074 -178.732617 
L 137.596101 -176.891247 
L 136.953444 -175.049878 
L 136.251102 -173.208508 
L 135.489077 -171.367138 
L 134.667368 -169.525769 
L 133.785975 -167.684399 
L 132.857264 -165.84303 
L 131.893602 -164.00166 
L 130.894989 -162.160291 
L 129.861425 -160.318921 
L 128.792909 -158.477552 
L 127.689442 -156.636182 
L 126.551025 -154.794812 
L 125.377655 -152.953443 
L 124.207474 -151.112073 
L 123.078618 -149.270704 
L 121.991088 -147.429334 
L 120.944883 -145.587965 
L 119.940005 -143.746595 
L 118.976452 -141.905226 
L 118.054225 -140.063856 
L 117.173324 -138.222486 
L 116.28861 -136.381117 
L 115.354945 -134.539747 
L 114.372328 -132.698378 
L 113.340759 -130.857008 
L 112.260239 -129.015639 
L 111.130768 -127.174269 
L 109.952344 -125.332899 
L 108.72497 -123.49153 
L 107.481176 -121.65016 
L 106.253495 -119.808791 
L 105.041926 -117.967421 
L 103.84647 -116.126052 
L 102.667127 -114.284682 
L 101.503896 -112.443313 
L 100.356778 -110.601943 
L 99.225773 -108.760573 
L 98.176136 -106.919204 
L 97.273122 -105.077834 
L 96.516732 -103.236465 
L 95.906965 -101.395095 
L 95.443822 -99.553726 
L 95.127303 -97.712356 
L 94.957407 -95.870987 
L 94.934135 -94.029617 
L 94.984759 -92.188247 
L 95.036555 -90.346878 
L 95.089522 -88.505508 
L 95.143661 -86.664139 
L 95.19897 -84.822769 
L 95.25545 -82.9814 
L 95.313101 -81.14003 
L 95.371924 -79.298661 
L 95.347965 -77.457291 
L 95.157272 -75.615921 
L 94.799846 -73.774552 
L 94.275686 -71.933182 
L 93.584792 -70.091813 
L 92.727165 -68.250443 
L 91.702804 -66.409074 
L 90.51171 -64.567704 
L 89.051335 -62.726334 
L 87.219132 -60.884965 
L 85.015101 -59.043595 
L 82.439242 -57.202226 
L 79.491555 -55.360856 
L 76.172041 -53.519487 
L 72.480698 -51.678117 
L 68.417528 -49.836748 
L 63.98253 -47.995378 
L 59.175704 -46.154008 
L 53.99705 -44.312639 
L 48.446568 -42.471269 
z
" style="stroke: #90ee90; stroke-opacity: 0.75"/>
    </defs>
    <g clip-path="url(#p046b01d167)">
     <use xlink:href="#m91162fa8e6" x="0" y="252" style="fill: #90ee90; fill-opacity: 0.75; stroke: #90ee90; stroke-opacity: 0.75"/>
    </g>
   </g>
   <g id="PolyCollection_2">
    <defs>
     <path id="m4499311472" d="M 48.448528 -42.471269 
L 48.315939 -42.471269 
L 49.016315 -44.312639 
L 49.69201 -46.154008 
L 50.363476 -47.995378 
L 51.047798 -49.836748 
L 51.733192 -51.678117 
L 52.432994 -53.519487 
L 53.135566 -55.360856 
L 53.844888 -57.202226 
L 54.559666 -59.043595 
L 55.288371 -60.884965 
L 56.019126 -62.726334 
L 56.758962 -64.567704 
L 57.51026 -66.409074 
L 58.271316 -68.250443 
L 59.033451 -70.091813 
L 59.803324 -71.933182 
L 60.589233 -73.774552 
L 61.37106 -75.615921 
L 62.158807 -77.457291 
L 62.971984 -79.298661 
L 63.775111 -81.14003 
L 64.597544 -82.9814 
L 65.405492 -84.822769 
L 66.245663 -86.664139 
L 67.08785 -88.505508 
L 67.936863 -90.346878 
L 68.773082 -92.188247 
L 69.62938 -94.029617 
L 70.496971 -95.870987 
L 71.356378 -97.712356 
L 72.243047 -99.553726 
L 73.12818 -101.395095 
L 74.002701 -103.236465 
L 74.886927 -105.077834 
L 75.765176 -106.919204 
L 76.666898 -108.760573 
L 77.5784 -110.601943 
L 78.479279 -112.443313 
L 79.373191 -114.284682 
L 80.27882 -116.126052 
L 81.182554 -117.967421 
L 82.088629 -119.808791 
L 83.001175 -121.65016 
L 83.900481 -123.49153 
L 84.822304 -125.332899 
L 85.729755 -127.174269 
L 86.615542 -129.015639 
L 87.518043 -130.857008 
L 88.429907 -132.698378 
L 89.333045 -134.539747 
L 90.233089 -136.381117 
L 91.123583 -138.222486 
L 92.026319 -140.063856 
L 92.916456 -141.905226 
L 93.816838 -143.746595 
L 94.717386 -145.587965 
L 95.612841 -147.429334 
L 96.500046 -149.270704 
L 97.417469 -151.112073 
L 98.322576 -152.953443 
L 99.210093 -154.794812 
L 100.109838 -156.636182 
L 100.976338 -158.477552 
L 101.869317 -160.318921 
L 102.767332 -162.160291 
L 103.645787 -164.00166 
L 104.535939 -165.84303 
L 105.42951 -167.684399 
L 106.311184 -169.525769 
L 107.196529 -171.367138 
L 108.080882 -173.208508 
L 108.96809 -175.049878 
L 109.867563 -176.891247 
L 110.747572 -178.732617 
L 111.609564 -180.573986 
L 112.483662 -182.415356 
L 113.382624 -184.256725 
L 114.271624 -186.098095 
L 115.151959 -187.939464 
L 116.042206 -189.780834 
L 116.904202 -191.622204 
L 117.762998 -193.463573 
L 118.644251 -195.304943 
L 119.505497 -197.146312 
L 120.377298 -198.987682 
L 121.24097 -200.829051 
L 122.082075 -202.670421 
L 122.966007 -204.511791 
L 123.832728 -206.35316 
L 124.690077 -208.19453 
L 125.561952 -210.035899 
L 126.418066 -211.877269 
L 127.283021 -213.718638 
L 128.183889 -215.560008 
L 129.064065 -217.401377 
L 129.958176 -219.242747 
L 130.838756 -221.084117 
L 131.72076 -222.925486 
L 132.63802 -224.766856 
L 139.914677 -224.766856 
L 139.914677 -224.766856 
L 138.812728 -222.925486 
L 137.729705 -221.084117 
L 136.665168 -219.242747 
L 135.591866 -217.401377 
L 134.545048 -215.560008 
L 133.504816 -213.718638 
L 132.466339 -211.877269 
L 131.424078 -210.035899 
L 130.388851 -208.19453 
L 129.398628 -206.35316 
L 128.369525 -204.511791 
L 127.368432 -202.670421 
L 126.39037 -200.829051 
L 125.395052 -198.987682 
L 124.443939 -197.146312 
L 123.439673 -195.304943 
L 122.46079 -193.463573 
L 121.511102 -191.622204 
L 120.520695 -189.780834 
L 119.581454 -187.939464 
L 118.628815 -186.098095 
L 117.676669 -184.256725 
L 116.729997 -182.415356 
L 115.778093 -180.573986 
L 114.827351 -178.732617 
L 113.889266 -176.891247 
L 112.960043 -175.049878 
L 112.001055 -173.208508 
L 111.063966 -171.367138 
L 110.142033 -169.525769 
L 109.211151 -167.684399 
L 108.263084 -165.84303 
L 107.344995 -164.00166 
L 106.398265 -162.160291 
L 105.485987 -160.318921 
L 104.549566 -158.477552 
L 103.615453 -156.636182 
L 102.699693 -154.794812 
L 101.769881 -152.953443 
L 100.846276 -151.112073 
L 99.918133 -149.270704 
L 98.993939 -147.429334 
L 98.073351 -145.587965 
L 97.13893 -143.746595 
L 96.217575 -141.905226 
L 95.293234 -140.063856 
L 94.402023 -138.222486 
L 93.487987 -136.381117 
L 92.564313 -134.539747 
L 91.657249 -132.698378 
L 90.742049 -130.857008 
L 89.837228 -129.015639 
L 88.932922 -127.174269 
L 88.030159 -125.332899 
L 87.109877 -123.49153 
L 86.21439 -121.65016 
L 85.307598 -119.808791 
L 84.390932 -117.967421 
L 83.507233 -116.126052 
L 82.603672 -114.284682 
L 81.693694 -112.443313 
L 80.801236 -110.601943 
L 79.911074 -108.760573 
L 79.014011 -106.919204 
L 78.129327 -105.077834 
L 77.247348 -103.236465 
L 76.345872 -101.395095 
L 75.455326 -99.553726 
L 74.556993 -97.712356 
L 73.666557 -95.870987 
L 72.773744 -94.029617 
L 71.883725 -92.188247 
L 70.99757 -90.346878 
L 70.11513 -88.505508 
L 69.221163 -86.664139 
L 68.341737 -84.822769 
L 67.468431 -82.9814 
L 66.604122 -81.14003 
L 65.728867 -79.298661 
L 64.855511 -77.457291 
L 63.984699 -75.615921 
L 63.122054 -73.774552 
L 62.236994 -71.933182 
L 61.373864 -70.091813 
L 60.511203 -68.250443 
L 59.642249 -66.409074 
L 58.759013 -64.567704 
L 57.901564 -62.726334 
L 57.039894 -60.884965 
L 56.189243 -59.043595 
L 55.316888 -57.202226 
L 54.449564 -55.360856 
L 53.581283 -53.519487 
L 52.722917 -51.678117 
L 51.85727 -49.836748 
L 50.992282 -47.995378 
L 50.130929 -46.154008 
L 49.271968 -44.312639 
L 48.448528 -42.471269 
z
" style="stroke: #6495ed; stroke-opacity: 0.75"/>
    </defs>
    <g clip-path="url(#p046b01d167)">
     <use xlink:href="#m4499311472" x="0" y="252" style="fill: #6495ed; fill-opacity: 0.75; stroke: #6495ed; stroke-opacity: 0.75"/>
    </g>
   </g>
   <g id="matplotlib.axis_1">
    <g id="xtick_1">
     <g id="line2d_1">
      <defs>
       <path id="mca7fcf9149" d="M 0 0 
L 0 3.5 
" style="stroke: #000000; stroke-width: 0.8"/>
      </defs>
      <g>
       <use xlink:href="#mca7fcf9149" x="48.379573" y="218.64351" style="stroke: #000000; stroke-width: 0.8"/>
      </g>
     </g>
     <g id="text_1">
      <!-- 0.00 -->
      <g transform="translate(37.246761 233.241948) scale(0.1 -0.1)">
       <defs>
        <path id="DejaVuSans-30" d="M 2034 4250 
Q 1547 4250 1301 3770 
Q 1056 3291 1056 2328 
Q 1056 1369 1301 889 
Q 1547 409 2034 409 
Q 2525 409 2770 889 
Q 3016 1369 3016 2328 
Q 3016 3291 2770 3770 
Q 2525 4250 2034 4250 
z
M 2034 4750 
Q 2819 4750 3233 4129 
Q 3647 3509 3647 2328 
Q 3647 1150 3233 529 
Q 2819 -91 2034 -91 
Q 1250 -91 836 529 
Q 422 1150 422 2328 
Q 422 3509 836 4129 
Q 1250 4750 2034 4750 
z
" transform="scale(0.015625)"/>
        <path id="DejaVuSans-2e" d="M 684 794 
L 1344 794 
L 1344 0 
L 684 0 
L 684 794 
z
" transform="scale(0.015625)"/>
       </defs>
       <use xlink:href="#DejaVuSans-30"/>
       <use xlink:href="#DejaVuSans-2e" x="63.623047"/>
       <use xlink:href="#DejaVuSans-30" x="95.410156"/>
       <use xlink:href="#DejaVuSans-30" x="159.033203"/>
      </g>
     </g>
    </g>
    <g id="xtick_2">
     <g id="line2d_2">
      <g>
       <use xlink:href="#mca7fcf9149" x="96.284406" y="218.64351" style="stroke: #000000; stroke-width: 0.8"/>
      </g>
     </g>
     <g id="text_2">
      <!-- 0.02 -->
      <g transform="translate(85.151594 233.241948) scale(0.1 -0.1)">
       <defs>
        <path id="DejaVuSans-32" d="M 1228 531 
L 3431 531 
L 3431 0 
L 469 0 
L 469 531 
Q 828 903 1448 1529 
Q 2069 2156 2228 2338 
Q 2531 2678 2651 2914 
Q 2772 3150 2772 3378 
Q 2772 3750 2511 3984 
Q 2250 4219 1831 4219 
Q 1534 4219 1204 4116 
Q 875 4013 500 3803 
L 500 4441 
Q 881 4594 1212 4672 
Q 1544 4750 1819 4750 
Q 2544 4750 2975 4387 
Q 3406 4025 3406 3419 
Q 3406 3131 3298 2873 
Q 3191 2616 2906 2266 
Q 2828 2175 2409 1742 
Q 1991 1309 1228 531 
z
" transform="scale(0.015625)"/>
       </defs>
       <use xlink:href="#DejaVuSans-30"/>
       <use xlink:href="#DejaVuSans-2e" x="63.623047"/>
       <use xlink:href="#DejaVuSans-30" x="95.410156"/>
       <use xlink:href="#DejaVuSans-32" x="159.033203"/>
      </g>
     </g>
    </g>
    <g id="xtick_3">
     <g id="line2d_3">
      <g>
       <use xlink:href="#mca7fcf9149" x="144.18924" y="218.64351" style="stroke: #000000; stroke-width: 0.8"/>
      </g>
     </g>
     <g id="text_3">
      <!-- 0.04 -->
      <g transform="translate(133.056427 233.241948) scale(0.1 -0.1)">
       <defs>
        <path id="DejaVuSans-34" d="M 2419 4116 
L 825 1625 
L 2419 1625 
L 2419 4116 
z
M 2253 4666 
L 3047 4666 
L 3047 1625 
L 3713 1625 
L 3713 1100 
L 3047 1100 
L 3047 0 
L 2419 0 
L 2419 1100 
L 313 1100 
L 313 1709 
L 2253 4666 
z
" transform="scale(0.015625)"/>
       </defs>
       <use xlink:href="#DejaVuSans-30"/>
       <use xlink:href="#DejaVuSans-2e" x="63.623047"/>
       <use xlink:href="#DejaVuSans-30" x="95.410156"/>
       <use xlink:href="#DejaVuSans-34" x="159.033203"/>
      </g>
     </g>
    </g>
    <g id="xtick_4">
     <g id="line2d_4">
      <g>
       <use xlink:href="#mca7fcf9149" x="192.094073" y="218.64351" style="stroke: #000000; stroke-width: 0.8"/>
      </g>
     </g>
     <g id="text_4">
      <!-- 0.06 -->
      <g transform="translate(180.96126 233.241948) scale(0.1 -0.1)">
       <defs>
        <path id="DejaVuSans-36" d="M 2113 2584 
Q 1688 2584 1439 2293 
Q 1191 2003 1191 1497 
Q 1191 994 1439 701 
Q 1688 409 2113 409 
Q 2538 409 2786 701 
Q 3034 994 3034 1497 
Q 3034 2003 2786 2293 
Q 2538 2584 2113 2584 
z
M 3366 4563 
L 3366 3988 
Q 3128 4100 2886 4159 
Q 2644 4219 2406 4219 
Q 1781 4219 1451 3797 
Q 1122 3375 1075 2522 
Q 1259 2794 1537 2939 
Q 1816 3084 2150 3084 
Q 2853 3084 3261 2657 
Q 3669 2231 3669 1497 
Q 3669 778 3244 343 
Q 2819 -91 2113 -91 
Q 1303 -91 875 529 
Q 447 1150 447 2328 
Q 447 3434 972 4092 
Q 1497 4750 2381 4750 
Q 2619 4750 2861 4703 
Q 3103 4656 3366 4563 
z
" transform="scale(0.015625)"/>
       </defs>
       <use xlink:href="#DejaVuSans-30"/>
       <use xlink:href="#DejaVuSans-2e" x="63.623047"/>
       <use xlink:href="#DejaVuSans-30" x="95.410156"/>
       <use xlink:href="#DejaVuSans-36" x="159.033203"/>
      </g>
     </g>
    </g>
    <g id="xtick_5">
     <g id="line2d_5">
      <g>
       <use xlink:href="#mca7fcf9149" x="239.998906" y="218.64351" style="stroke: #000000; stroke-width: 0.8"/>
      </g>
     </g>
     <g id="text_5">
      <!-- 0.08 -->
      <g transform="translate(228.866093 233.241948) scale(0.1 -0.1)">
       <defs>
        <path id="DejaVuSans-38" d="M 2034 2216 
Q 1584 2216 1326 1975 
Q 1069 1734 1069 1313 
Q 1069 891 1326 650 
Q 1584 409 2034 409 
Q 2484 409 2743 651 
Q 3003 894 3003 1313 
Q 3003 1734 2745 1975 
Q 2488 2216 2034 2216 
z
M 1403 2484 
Q 997 2584 770 2862 
Q 544 3141 544 3541 
Q 544 4100 942 4425 
Q 1341 4750 2034 4750 
Q 2731 4750 3128 4425 
Q 3525 4100 3525 3541 
Q 3525 3141 3298 2862 
Q 3072 2584 2669 2484 
Q 3125 2378 3379 2068 
Q 3634 1759 3634 1313 
Q 3634 634 3220 271 
Q 2806 -91 2034 -91 
Q 1263 -91 848 271 
Q 434 634 434 1313 
Q 434 1759 690 2068 
Q 947 2378 1403 2484 
z
M 1172 3481 
Q 1172 3119 1398 2916 
Q 1625 2713 2034 2713 
Q 2441 2713 2670 2916 
Q 2900 3119 2900 3481 
Q 2900 3844 2670 4047 
Q 2441 4250 2034 4250 
Q 1625 4250 1398 4047 
Q 1172 3844 1172 3481 
z
" transform="scale(0.015625)"/>
       </defs>
       <use xlink:href="#DejaVuSans-30"/>
       <use xlink:href="#DejaVuSans-2e" x="63.623047"/>
       <use xlink:href="#DejaVuSans-30" x="95.410156"/>
       <use xlink:href="#DejaVuSans-38" x="159.033203"/>
      </g>
     </g>
    </g>
    <g id="text_6">
     <!-- Normal Extension [mm] -->
     <g transform="translate(90.719531 246.920073) scale(0.1 -0.1)">
      <defs>
       <path id="DejaVuSans-4e" d="M 628 4666 
L 1478 4666 
L 3547 763 
L 3547 4666 
L 4159 4666 
L 4159 0 
L 3309 0 
L 1241 3903 
L 1241 0 
L 628 0 
L 628 4666 
z
" transform="scale(0.015625)"/>
       <path id="DejaVuSans-6f" d="M 1959 3097 
Q 1497 3097 1228 2736 
Q 959 2375 959 1747 
Q 959 1119 1226 758 
Q 1494 397 1959 397 
Q 2419 397 2687 759 
Q 2956 1122 2956 1747 
Q 2956 2369 2687 2733 
Q 2419 3097 1959 3097 
z
M 1959 3584 
Q 2709 3584 3137 3096 
Q 3566 2609 3566 1747 
Q 3566 888 3137 398 
Q 2709 -91 1959 -91 
Q 1206 -91 779 398 
Q 353 888 353 1747 
Q 353 2609 779 3096 
Q 1206 3584 1959 3584 
z
" transform="scale(0.015625)"/>
       <path id="DejaVuSans-72" d="M 2631 2963 
Q 2534 3019 2420 3045 
Q 2306 3072 2169 3072 
Q 1681 3072 1420 2755 
Q 1159 2438 1159 1844 
L 1159 0 
L 581 0 
L 581 3500 
L 1159 3500 
L 1159 2956 
Q 1341 3275 1631 3429 
Q 1922 3584 2338 3584 
Q 2397 3584 2469 3576 
Q 2541 3569 2628 3553 
L 2631 2963 
z
" transform="scale(0.015625)"/>
       <path id="DejaVuSans-6d" d="M 3328 2828 
Q 3544 3216 3844 3400 
Q 4144 3584 4550 3584 
Q 5097 3584 5394 3201 
Q 5691 2819 5691 2113 
L 5691 0 
L 5113 0 
L 5113 2094 
Q 5113 2597 4934 2840 
Q 4756 3084 4391 3084 
Q 3944 3084 3684 2787 
Q 3425 2491 3425 1978 
L 3425 0 
L 2847 0 
L 2847 2094 
Q 2847 2600 2669 2842 
Q 2491 3084 2119 3084 
Q 1678 3084 1418 2786 
Q 1159 2488 1159 1978 
L 1159 0 
L 581 0 
L 581 3500 
L 1159 3500 
L 1159 2956 
Q 1356 3278 1631 3431 
Q 1906 3584 2284 3584 
Q 2666 3584 2933 3390 
Q 3200 3197 3328 2828 
z
" transform="scale(0.015625)"/>
       <path id="DejaVuSans-61" d="M 2194 1759 
Q 1497 1759 1228 1600 
Q 959 1441 959 1056 
Q 959 750 1161 570 
Q 1363 391 1709 391 
Q 2188 391 2477 730 
Q 2766 1069 2766 1631 
L 2766 1759 
L 2194 1759 
z
M 3341 1997 
L 3341 0 
L 2766 0 
L 2766 531 
Q 2569 213 2275 61 
Q 1981 -91 1556 -91 
Q 1019 -91 701 211 
Q 384 513 384 1019 
Q 384 1609 779 1909 
Q 1175 2209 1959 2209 
L 2766 2209 
L 2766 2266 
Q 2766 2663 2505 2880 
Q 2244 3097 1772 3097 
Q 1472 3097 1187 3025 
Q 903 2953 641 2809 
L 641 3341 
Q 956 3463 1253 3523 
Q 1550 3584 1831 3584 
Q 2591 3584 2966 3190 
Q 3341 2797 3341 1997 
z
" transform="scale(0.015625)"/>
       <path id="DejaVuSans-6c" d="M 603 4863 
L 1178 4863 
L 1178 0 
L 603 0 
L 603 4863 
z
" transform="scale(0.015625)"/>
       <path id="DejaVuSans-20" transform="scale(0.015625)"/>
       <path id="DejaVuSans-45" d="M 628 4666 
L 3578 4666 
L 3578 4134 
L 1259 4134 
L 1259 2753 
L 3481 2753 
L 3481 2222 
L 1259 2222 
L 1259 531 
L 3634 531 
L 3634 0 
L 628 0 
L 628 4666 
z
" transform="scale(0.015625)"/>
       <path id="DejaVuSans-78" d="M 3513 3500 
L 2247 1797 
L 3578 0 
L 2900 0 
L 1881 1375 
L 863 0 
L 184 0 
L 1544 1831 
L 300 3500 
L 978 3500 
L 1906 2253 
L 2834 3500 
L 3513 3500 
z
" transform="scale(0.015625)"/>
       <path id="DejaVuSans-74" d="M 1172 4494 
L 1172 3500 
L 2356 3500 
L 2356 3053 
L 1172 3053 
L 1172 1153 
Q 1172 725 1289 603 
Q 1406 481 1766 481 
L 2356 481 
L 2356 0 
L 1766 0 
Q 1100 0 847 248 
Q 594 497 594 1153 
L 594 3053 
L 172 3053 
L 172 3500 
L 594 3500 
L 594 4494 
L 1172 4494 
z
" transform="scale(0.015625)"/>
       <path id="DejaVuSans-65" d="M 3597 1894 
L 3597 1613 
L 953 1613 
Q 991 1019 1311 708 
Q 1631 397 2203 397 
Q 2534 397 2845 478 
Q 3156 559 3463 722 
L 3463 178 
Q 3153 47 2828 -22 
Q 2503 -91 2169 -91 
Q 1331 -91 842 396 
Q 353 884 353 1716 
Q 353 2575 817 3079 
Q 1281 3584 2069 3584 
Q 2775 3584 3186 3129 
Q 3597 2675 3597 1894 
z
M 3022 2063 
Q 3016 2534 2758 2815 
Q 2500 3097 2075 3097 
Q 1594 3097 1305 2825 
Q 1016 2553 972 2059 
L 3022 2063 
z
" transform="scale(0.015625)"/>
       <path id="DejaVuSans-6e" d="M 3513 2113 
L 3513 0 
L 2938 0 
L 2938 2094 
Q 2938 2591 2744 2837 
Q 2550 3084 2163 3084 
Q 1697 3084 1428 2787 
Q 1159 2491 1159 1978 
L 1159 0 
L 581 0 
L 581 3500 
L 1159 3500 
L 1159 2956 
Q 1366 3272 1645 3428 
Q 1925 3584 2291 3584 
Q 2894 3584 3203 3211 
Q 3513 2838 3513 2113 
z
" transform="scale(0.015625)"/>
       <path id="DejaVuSans-73" d="M 2834 3397 
L 2834 2853 
Q 2591 2978 2328 3040 
Q 2066 3103 1784 3103 
Q 1356 3103 1142 2972 
Q 928 2841 928 2578 
Q 928 2378 1081 2264 
Q 1234 2150 1697 2047 
L 1894 2003 
Q 2506 1872 2764 1633 
Q 3022 1394 3022 966 
Q 3022 478 2636 193 
Q 2250 -91 1575 -91 
Q 1294 -91 989 -36 
Q 684 19 347 128 
L 347 722 
Q 666 556 975 473 
Q 1284 391 1588 391 
Q 1994 391 2212 530 
Q 2431 669 2431 922 
Q 2431 1156 2273 1281 
Q 2116 1406 1581 1522 
L 1381 1569 
Q 847 1681 609 1914 
Q 372 2147 372 2553 
Q 372 3047 722 3315 
Q 1072 3584 1716 3584 
Q 2034 3584 2315 3537 
Q 2597 3491 2834 3397 
z
" transform="scale(0.015625)"/>
       <path id="DejaVuSans-69" d="M 603 3500 
L 1178 3500 
L 1178 0 
L 603 0 
L 603 3500 
z
M 603 4863 
L 1178 4863 
L 1178 4134 
L 603 4134 
L 603 4863 
z
" transform="scale(0.015625)"/>
       <path id="DejaVuSans-5b" d="M 550 4863 
L 1875 4863 
L 1875 4416 
L 1125 4416 
L 1125 -397 
L 1875 -397 
L 1875 -844 
L 550 -844 
L 550 4863 
z
" transform="scale(0.015625)"/>
       <path id="DejaVuSans-5d" d="M 1947 4863 
L 1947 -844 
L 622 -844 
L 622 -397 
L 1369 -397 
L 1369 4416 
L 622 4416 
L 622 4863 
L 1947 4863 
z
" transform="scale(0.015625)"/>
      </defs>
      <use xlink:href="#DejaVuSans-4e"/>
      <use xlink:href="#DejaVuSans-6f" x="74.804688"/>
      <use xlink:href="#DejaVuSans-72" x="135.986328"/>
      <use xlink:href="#DejaVuSans-6d" x="175.349609"/>
      <use xlink:href="#DejaVuSans-61" x="272.761719"/>
      <use xlink:href="#DejaVuSans-6c" x="334.041016"/>
      <use xlink:href="#DejaVuSans-20" x="361.824219"/>
      <use xlink:href="#DejaVuSans-45" x="393.611328"/>
      <use xlink:href="#DejaVuSans-78" x="456.794922"/>
      <use xlink:href="#DejaVuSans-74" x="515.974609"/>
      <use xlink:href="#DejaVuSans-65" x="555.183594"/>
      <use xlink:href="#DejaVuSans-6e" x="616.707031"/>
      <use xlink:href="#DejaVuSans-73" x="680.085938"/>
      <use xlink:href="#DejaVuSans-69" x="732.185547"/>
      <use xlink:href="#DejaVuSans-6f" x="759.96875"/>
      <use xlink:href="#DejaVuSans-6e" x="821.150391"/>
      <use xlink:href="#DejaVuSans-20" x="884.529297"/>
      <use xlink:href="#DejaVuSans-5b" x="916.316406"/>
      <use xlink:href="#DejaVuSans-6d" x="955.330078"/>
      <use xlink:href="#DejaVuSans-6d" x="1052.742188"/>
      <use xlink:href="#DejaVuSans-5d" x="1150.154297"/>
     </g>
    </g>
   </g>
   <g id="matplotlib.axis_2">
    <g id="ytick_1">
     <g id="line2d_6">
      <defs>
       <path id="mcab4af566b" d="M 0 0 
L -3.5 0 
" style="stroke: #000000; stroke-width: 0.8"/>
      </defs>
      <g>
       <use xlink:href="#mcab4af566b" x="36.403365" y="209.528731" style="stroke: #000000; stroke-width: 0.8"/>
      </g>
     </g>
     <g id="text_7">
      <!-- 0 -->
      <g transform="translate(23.040865 213.327949) scale(0.1 -0.1)">
       <use xlink:href="#DejaVuSans-30"/>
      </g>
     </g>
    </g>
    <g id="ytick_2">
     <g id="line2d_7">
      <g>
       <use xlink:href="#mcab4af566b" x="36.403365" y="173.069613" style="stroke: #000000; stroke-width: 0.8"/>
      </g>
     </g>
     <g id="text_8">
      <!-- 2 -->
      <g transform="translate(23.040865 176.868832) scale(0.1 -0.1)">
       <use xlink:href="#DejaVuSans-32"/>
      </g>
     </g>
    </g>
    <g id="ytick_3">
     <g id="line2d_8">
      <g>
       <use xlink:href="#mcab4af566b" x="36.403365" y="136.610496" style="stroke: #000000; stroke-width: 0.8"/>
      </g>
     </g>
     <g id="text_9">
      <!-- 4 -->
      <g transform="translate(23.040865 140.409715) scale(0.1 -0.1)">
       <use xlink:href="#DejaVuSans-34"/>
      </g>
     </g>
    </g>
    <g id="ytick_4">
     <g id="line2d_9">
      <g>
       <use xlink:href="#mcab4af566b" x="36.403365" y="100.151379" style="stroke: #000000; stroke-width: 0.8"/>
      </g>
     </g>
     <g id="text_10">
      <!-- 6 -->
      <g transform="translate(23.040865 103.950598) scale(0.1 -0.1)">
       <use xlink:href="#DejaVuSans-36"/>
      </g>
     </g>
    </g>
    <g id="ytick_5">
     <g id="line2d_10">
      <g>
       <use xlink:href="#mcab4af566b" x="36.403365" y="63.692262" style="stroke: #000000; stroke-width: 0.8"/>
      </g>
     </g>
     <g id="text_11">
      <!-- 8 -->
      <g transform="translate(23.040865 67.49148) scale(0.1 -0.1)">
       <use xlink:href="#DejaVuSans-38"/>
      </g>
     </g>
    </g>
    <g id="ytick_6">
     <g id="line2d_11">
      <g>
       <use xlink:href="#mcab4af566b" x="36.403365" y="27.233144" style="stroke: #000000; stroke-width: 0.8"/>
      </g>
     </g>
     <g id="text_12">
      <!-- 10 -->
      <g transform="translate(16.678365 31.032363) scale(0.1 -0.1)">
       <defs>
        <path id="DejaVuSans-31" d="M 794 531 
L 1825 531 
L 1825 4091 
L 703 3866 
L 703 4441 
L 1819 4666 
L 2450 4666 
L 2450 531 
L 3481 531 
L 3481 0 
L 794 0 
L 794 531 
z
" transform="scale(0.015625)"/>
       </defs>
       <use xlink:href="#DejaVuSans-31"/>
       <use xlink:href="#DejaVuSans-30" x="63.623047"/>
      </g>
     </g>
    </g>
    <g id="text_13">
     <!-- Load [kN] -->
     <g transform="translate(10.598678 142.503594) rotate(-90) scale(0.1 -0.1)">
      <defs>
       <path id="DejaVuSans-4c" d="M 628 4666 
L 1259 4666 
L 1259 531 
L 3531 531 
L 3531 0 
L 628 0 
L 628 4666 
z
" transform="scale(0.015625)"/>
       <path id="DejaVuSans-64" d="M 2906 2969 
L 2906 4863 
L 3481 4863 
L 3481 0 
L 2906 0 
L 2906 525 
Q 2725 213 2448 61 
Q 2172 -91 1784 -91 
Q 1150 -91 751 415 
Q 353 922 353 1747 
Q 353 2572 751 3078 
Q 1150 3584 1784 3584 
Q 2172 3584 2448 3432 
Q 2725 3281 2906 2969 
z
M 947 1747 
Q 947 1113 1208 752 
Q 1469 391 1925 391 
Q 2381 391 2643 752 
Q 2906 1113 2906 1747 
Q 2906 2381 2643 2742 
Q 2381 3103 1925 3103 
Q 1469 3103 1208 2742 
Q 947 2381 947 1747 
z
" transform="scale(0.015625)"/>
       <path id="DejaVuSans-6b" d="M 581 4863 
L 1159 4863 
L 1159 1991 
L 2875 3500 
L 3609 3500 
L 1753 1863 
L 3688 0 
L 2938 0 
L 1159 1709 
L 1159 0 
L 581 0 
L 581 4863 
z
" transform="scale(0.015625)"/>
      </defs>
      <use xlink:href="#DejaVuSans-4c"/>
      <use xlink:href="#DejaVuSans-6f" x="53.962891"/>
      <use xlink:href="#DejaVuSans-61" x="115.144531"/>
      <use xlink:href="#DejaVuSans-64" x="176.423828"/>
      <use xlink:href="#DejaVuSans-20" x="239.900391"/>
      <use xlink:href="#DejaVuSans-5b" x="271.6875"/>
      <use xlink:href="#DejaVuSans-6b" x="310.701172"/>
      <use xlink:href="#DejaVuSans-4e" x="368.611328"/>
      <use xlink:href="#DejaVuSans-5d" x="443.416016"/>
     </g>
    </g>
   </g>
   <g id="line2d_12">
    <path d="M 36.403365 209.528731 
L 263.951323 209.528731 
" clip-path="url(#p046b01d167)" style="fill: none; stroke-dasharray: 2.775,1.2; stroke-dashoffset: 0; stroke: #808080; stroke-opacity: 0.75; stroke-width: 0.75"/>
   </g>
   <g id="line2d_13">
    <path d="M 48.379573 218.64351 
L 48.379573 18.118365 
" clip-path="url(#p046b01d167)" style="fill: none; stroke-dasharray: 2.775,1.2; stroke-dashoffset: 0; stroke: #808080; stroke-opacity: 0.75; stroke-width: 0.75"/>
   </g>
   <g id="line2d_14">
    <path d="M 48.385439 209.528731 
L 49.03659 207.687361 
L 49.72075 205.845992 
L 50.435665 204.004622 
L 51.180347 202.163252 
L 51.948446 200.321883 
L 52.736876 198.480513 
L 53.541549 196.639144 
L 54.358413 194.797774 
L 55.187126 192.956405 
L 56.026428 191.115035 
L 56.875984 189.273666 
L 57.738028 187.432296 
L 58.610478 185.590926 
L 59.492658 183.749557 
L 60.386005 181.908187 
L 61.285381 180.066818 
L 62.190166 178.225448 
L 63.096835 176.384079 
L 64.004754 174.542709 
L 64.909464 172.701339 
L 65.811723 170.85997 
L 66.708297 169.0186 
L 67.601572 167.177231 
L 68.489308 165.335861 
L 69.374102 163.494492 
L 70.257548 161.653122 
L 71.139058 159.811753 
L 72.020828 157.970383 
L 72.902968 156.129013 
L 73.782949 154.287644 
L 74.661426 152.446274 
L 75.535522 150.604905 
L 76.405452 148.763535 
L 77.270063 146.922166 
L 78.129717 145.080796 
L 78.988371 143.239427 
L 79.845549 141.398057 
L 80.70417 139.556687 
L 81.564272 137.715318 
L 82.426986 135.873948 
L 83.289966 134.032579 
L 84.157647 132.191209 
L 85.026016 130.34984 
L 85.89969 128.50847 
L 86.779391 126.667101 
L 87.667005 124.825731 
L 88.565512 122.984361 
L 89.475726 121.142992 
L 90.399594 119.301622 
L 91.333956 117.460253 
L 92.278084 115.618883 
L 93.227719 113.777514 
L 94.180535 111.936144 
L 95.133748 110.094774 
L 96.085005 108.253405 
L 97.033906 106.412035 
L 97.97829 104.570666 
L 98.916193 102.729296 
L 99.848063 100.887927 
L 100.771035 99.046557 
L 101.682704 97.205188 
L 102.586096 95.363818 
L 103.478703 93.522448 
L 104.363702 91.681079 
L 105.242774 89.839709 
L 106.119599 87.99834 
L 106.99455 86.15697 
L 107.867756 84.315601 
L 108.740933 82.474231 
L 109.610378 80.632862 
L 110.474325 78.791492 
L 111.330272 76.950122 
L 112.177933 75.108753 
L 113.015077 73.267383 
L 113.841972 71.426014 
L 114.660358 69.584644 
L 115.47074 67.743275 
L 116.275728 65.901905 
L 117.07694 64.060536 
L 117.875265 62.219166 
L 118.675171 60.377796 
L 119.480409 58.536427 
L 120.293226 56.695057 
L 121.117213 54.853688 
L 121.953762 53.012318 
L 122.805043 51.170949 
L 123.669582 49.329579 
L 124.546935 47.488209 
L 125.439835 45.64684 
L 126.346668 43.80547 
L 127.269542 41.964101 
L 128.206511 40.122731 
L 129.156496 38.281362 
L 130.119613 36.439992 
L 131.091805 34.598623 
L 132.070053 32.757253 
L 133.050916 30.915883 
L 134.030564 29.074514 
L 135.001239 27.233144 
" clip-path="url(#p046b01d167)" style="fill: none; stroke-dasharray: 3.7,1.6; stroke-dashoffset: 0; stroke: #008000"/>
   </g>
   <g id="line2d_15">
    <path d="M 48.383885 209.528731 
L 49.1367 207.687361 
L 49.894514 205.845992 
L 50.657471 204.004622 
L 51.42537 202.163252 
L 52.196588 200.321883 
L 52.974197 198.480513 
L 53.756223 196.639144 
L 54.54205 194.797774 
L 55.334558 192.956405 
L 56.12979 191.115035 
L 56.931501 189.273666 
L 57.736155 187.432296 
L 58.547622 185.590926 
L 59.362658 183.749557 
L 60.182741 181.908187 
L 61.0072 180.066818 
L 61.835591 178.225448 
L 62.669793 176.384079 
L 63.507707 174.542709 
L 64.350008 172.701339 
L 65.195405 170.85997 
L 66.045824 169.0186 
L 66.900007 167.177231 
L 67.758398 165.335861 
L 68.619816 163.494492 
L 69.484799 161.653122 
L 70.353911 159.811753 
L 71.225855 157.970383 
L 72.101034 156.129013 
L 72.978456 154.287644 
L 73.859883 152.446274 
L 74.744022 150.604905 
L 75.630563 148.763535 
L 76.518294 146.922166 
L 77.409337 145.080796 
L 78.30193 143.239427 
L 79.197525 141.398057 
L 80.094346 139.556687 
L 80.992032 137.715318 
L 81.892084 135.873948 
L 82.793167 134.032579 
L 83.694406 132.191209 
L 84.598261 130.34984 
L 85.501466 128.50847 
L 86.406396 126.667101 
L 87.311482 124.825731 
L 88.217546 122.984361 
L 89.122519 121.142992 
L 90.029116 119.301622 
L 90.935662 117.460253 
L 91.841062 115.618883 
L 92.747174 113.777514 
L 93.653492 111.936144 
L 94.558467 110.094774 
L 95.464019 108.253405 
L 96.369165 106.412035 
L 97.272656 104.570666 
L 98.176688 102.729296 
L 99.079907 100.887927 
L 99.982181 99.046557 
L 100.884473 97.205188 
L 101.785288 95.363818 
L 102.686774 93.522448 
L 103.587678 91.681079 
L 104.488115 89.839709 
L 105.387719 87.99834 
L 106.286975 86.15697 
L 107.186291 84.315601 
L 108.085672 82.474231 
L 108.984316 80.632862 
L 109.883627 78.791492 
L 110.783127 76.950122 
L 111.682893 75.108753 
L 112.584107 73.267383 
L 113.485815 71.426014 
L 114.388086 69.584644 
L 115.292528 67.743275 
L 116.197488 65.901905 
L 117.103875 64.060536 
L 118.013177 62.219166 
L 118.924859 60.377796 
L 119.839423 58.536427 
L 120.756977 56.695057 
L 121.675884 54.853688 
L 122.599567 53.012318 
L 123.527788 51.170949 
L 124.458928 49.329579 
L 125.395755 47.488209 
L 126.337065 45.64684 
L 127.284024 43.80547 
L 128.237209 41.964101 
L 129.195632 40.122731 
L 130.161241 38.281362 
L 131.133856 36.439992 
L 132.113994 34.598623 
L 133.100792 32.757253 
L 134.098157 30.915883 
L 135.103392 29.074514 
L 136.117217 27.233144 
" clip-path="url(#p046b01d167)" style="fill: none; stroke: #0000ff; stroke-width: 0.5; stroke-linecap: square"/>
   </g>
   <g id="line2d_16">
    <defs>
     <path id="m1308916a1a" d="M 0 0.5 
C 0.132602 0.5 0.25979 0.447317 0.353553 0.353553 
C 0.447317 0.25979 0.5 0.132602 0.5 0 
C 0.5 -0.132602 0.447317 -0.25979 0.353553 -0.353553 
C 0.25979 -0.447317 0.132602 -0.5 0 -0.5 
C -0.132602 -0.5 -0.25979 -0.447317 -0.353553 -0.353553 
C -0.447317 -0.25979 -0.5 -0.132602 -0.5 0 
C -0.5 0.132602 -0.447317 0.25979 -0.353553 0.353553 
C -0.25979 0.447317 -0.132602 0.5 0 0.5 
z
" style="stroke: #1f77b4"/>
    </defs>
    <g clip-path="url(#p046b01d167)">
     <use xlink:href="#m1308916a1a" x="48.379573" y="209.528731" style="fill: #1f77b4; stroke: #1f77b4"/>
     <use xlink:href="#m1308916a1a" x="48.01357" y="207.207164" style="fill: #1f77b4; stroke: #1f77b4"/>
     <use xlink:href="#m1308916a1a" x="50.303071" y="205.208853" style="fill: #1f77b4; stroke: #1f77b4"/>
     <use xlink:href="#m1308916a1a" x="51.901866" y="202.534643" style="fill: #1f77b4; stroke: #1f77b4"/>
     <use xlink:href="#m1308916a1a" x="57.454855" y="199.97798" style="fill: #1f77b4; stroke: #1f77b4"/>
     <use xlink:href="#m1308916a1a" x="58.560698" y="195.540555" style="fill: #1f77b4; stroke: #1f77b4"/>
     <use xlink:href="#m1308916a1a" x="59.769145" y="190.721099" style="fill: #1f77b4; stroke: #1f77b4"/>
     <use xlink:href="#m1308916a1a" x="63.586528" y="185.75471" style="fill: #1f77b4; stroke: #1f77b4"/>
     <use xlink:href="#m1308916a1a" x="66.109829" y="179.994873" style="fill: #1f77b4; stroke: #1f77b4"/>
     <use xlink:href="#m1308916a1a" x="68.723269" y="174.029329" style="fill: #1f77b4; stroke: #1f77b4"/>
     <use xlink:href="#m1308916a1a" x="72.832133" y="167.094016" style="fill: #1f77b4; stroke: #1f77b4"/>
     <use xlink:href="#m1308916a1a" x="77.181373" y="159.835447" style="fill: #1f77b4; stroke: #1f77b4"/>
     <use xlink:href="#m1308916a1a" x="80.898216" y="151.871592" style="fill: #1f77b4; stroke: #1f77b4"/>
     <use xlink:href="#m1308916a1a" x="84.632616" y="144.142833" style="fill: #1f77b4; stroke: #1f77b4"/>
     <use xlink:href="#m1308916a1a" x="88.883515" y="136.120204" style="fill: #1f77b4; stroke: #1f77b4"/>
     <use xlink:href="#m1308916a1a" x="92.917272" y="128.215123" style="fill: #1f77b4; stroke: #1f77b4"/>
     <use xlink:href="#m1308916a1a" x="97.113134" y="119.075791" style="fill: #1f77b4; stroke: #1f77b4"/>
     <use xlink:href="#m1308916a1a" x="101.35352" y="110.582971" style="fill: #1f77b4; stroke: #1f77b4"/>
     <use xlink:href="#m1308916a1a" x="105.793358" y="102.384019" style="fill: #1f77b4; stroke: #1f77b4"/>
     <use xlink:href="#m1308916a1a" x="111.458268" y="93.656103" style="fill: #1f77b4; stroke: #1f77b4"/>
     <use xlink:href="#m1308916a1a" x="114.075341" y="84.928186" style="fill: #1f77b4; stroke: #1f77b4"/>
     <use xlink:href="#m1308916a1a" x="119.172427" y="76.699846" style="fill: #1f77b4; stroke: #1f77b4"/>
     <use xlink:href="#m1308916a1a" x="125.140103" y="67.560511" style="fill: #1f77b4; stroke: #1f77b4"/>
     <use xlink:href="#m1308916a1a" x="128.863" y="59.185234" style="fill: #1f77b4; stroke: #1f77b4"/>
     <use xlink:href="#m1308916a1a" x="131.622099" y="51.280148" style="fill: #1f77b4; stroke: #1f77b4"/>
     <use xlink:href="#m1308916a1a" x="136.377623" y="42.434679" style="fill: #1f77b4; stroke: #1f77b4"/>
     <use xlink:href="#m1308916a1a" x="140.461166" y="34.265109" style="fill: #1f77b4; stroke: #1f77b4"/>
    </g>
   </g>
   <g id="line2d_17">
    <defs>
     <path id="m7198d81a3d" d="M 0 0.5 
C 0.132602 0.5 0.25979 0.447317 0.353553 0.353553 
C 0.447317 0.25979 0.5 0.132602 0.5 0 
C 0.5 -0.132602 0.447317 -0.25979 0.353553 -0.353553 
C 0.25979 -0.447317 0.132602 -0.5 0 -0.5 
C -0.132602 -0.5 -0.25979 -0.447317 -0.353553 -0.353553 
C -0.447317 -0.25979 -0.5 -0.132602 -0.5 0 
C -0.5 0.132602 -0.447317 0.25979 -0.353553 0.353553 
C -0.25979 0.447317 -0.132602 0.5 0 0.5 
z
" style="stroke: #ff7f0e"/>
    </defs>
    <g clip-path="url(#p046b01d167)">
     <use xlink:href="#m7198d81a3d" x="53.177413" y="200.448171" style="fill: #ff7f0e; stroke: #ff7f0e"/>
     <use xlink:href="#m7198d81a3d" x="56.778826" y="194.92343" style="fill: #ff7f0e; stroke: #ff7f0e"/>
     <use xlink:href="#m7198d81a3d" x="59.78596" y="188.781563" style="fill: #ff7f0e; stroke: #ff7f0e"/>
     <use xlink:href="#m7198d81a3d" x="63.472" y="182.051958" style="fill: #ff7f0e; stroke: #ff7f0e"/>
     <use xlink:href="#m7198d81a3d" x="66.44949" y="174.293811" style="fill: #ff7f0e; stroke: #ff7f0e"/>
     <use xlink:href="#m7198d81a3d" x="70.72102" y="166.241796" style="fill: #ff7f0e; stroke: #ff7f0e"/>
     <use xlink:href="#m7198d81a3d" x="75.10515" y="158.248554" style="fill: #ff7f0e; stroke: #ff7f0e"/>
     <use xlink:href="#m7198d81a3d" x="78.552418" y="150.137765" style="fill: #ff7f0e; stroke: #ff7f0e"/>
     <use xlink:href="#m7198d81a3d" x="81.473322" y="141.615558" style="fill: #ff7f0e; stroke: #ff7f0e"/>
     <use xlink:href="#m7198d81a3d" x="87.138142" y="133.181513" style="fill: #ff7f0e; stroke: #ff7f0e"/>
     <use xlink:href="#m7198d81a3d" x="90.936464" y="124.806241" style="fill: #ff7f0e; stroke: #ff7f0e"/>
     <use xlink:href="#m7198d81a3d" x="95.825753" y="116.195873" style="fill: #ff7f0e; stroke: #ff7f0e"/>
     <use xlink:href="#m7198d81a3d" x="99.437984" y="107.43857" style="fill: #ff7f0e; stroke: #ff7f0e"/>
     <use xlink:href="#m7198d81a3d" x="102.33423" y="98.064142" style="fill: #ff7f0e; stroke: #ff7f0e"/>
     <use xlink:href="#m7198d81a3d" x="108.812469" y="89.777029" style="fill: #ff7f0e; stroke: #ff7f0e"/>
     <use xlink:href="#m7198d81a3d" x="112.524016" y="80.990338" style="fill: #ff7f0e; stroke: #ff7f0e"/>
     <use xlink:href="#m7198d81a3d" x="116.643139" y="72.086098" style="fill: #ff7f0e; stroke: #ff7f0e"/>
     <use xlink:href="#m7198d81a3d" x="120.652057" y="63.681435" style="fill: #ff7f0e; stroke: #ff7f0e"/>
     <use xlink:href="#m7198d81a3d" x="123.871389" y="55.159223" style="fill: #ff7f0e; stroke: #ff7f0e"/>
     <use xlink:href="#m7198d81a3d" x="129.69734" y="46.519463" style="fill: #ff7f0e; stroke: #ff7f0e"/>
     <use xlink:href="#m7198d81a3d" x="131.732996" y="38.291118" style="fill: #ff7f0e; stroke: #ff7f0e"/>
    </g>
   </g>
   <g id="line2d_18">
    <defs>
     <path id="m54fe940859" d="M 0 0.5 
C 0.132602 0.5 0.25979 0.447317 0.353553 0.353553 
C 0.447317 0.25979 0.5 0.132602 0.5 0 
C 0.5 -0.132602 0.447317 -0.25979 0.353553 -0.353553 
C 0.25979 -0.447317 0.132602 -0.5 0 -0.5 
C -0.132602 -0.5 -0.25979 -0.447317 -0.353553 -0.353553 
C -0.447317 -0.25979 -0.5 -0.132602 -0.5 0 
C -0.5 0.132602 -0.447317 0.25979 -0.353553 0.353553 
C -0.25979 0.447317 -0.132602 0.5 0 0.5 
z
" style="stroke: #2ca02c"/>
    </defs>
    <g clip-path="url(#p046b01d167)">
     <use xlink:href="#m54fe940859" x="49.096851" y="208.323867" style="fill: #2ca02c; stroke: #2ca02c"/>
     <use xlink:href="#m54fe940859" x="48.163266" y="206.736973" style="fill: #2ca02c; stroke: #2ca02c"/>
     <use xlink:href="#m54fe940859" x="49.254983" y="205.473335" style="fill: #2ca02c; stroke: #2ca02c"/>
     <use xlink:href="#m54fe940859" x="51.035792" y="203.269316" style="fill: #2ca02c; stroke: #2ca02c"/>
     <use xlink:href="#m54fe940859" x="52.812196" y="200.624492" style="fill: #2ca02c; stroke: #2ca02c"/>
     <use xlink:href="#m54fe940859" x="51.998545" y="196.569097" style="fill: #2ca02c; stroke: #2ca02c"/>
     <use xlink:href="#m54fe940859" x="56.775888" y="191.250064" style="fill: #2ca02c; stroke: #2ca02c"/>
     <use xlink:href="#m54fe940859" x="58.902078" y="184.432298" style="fill: #2ca02c; stroke: #2ca02c"/>
     <use xlink:href="#m54fe940859" x="63.291861" y="177.114955" style="fill: #2ca02c; stroke: #2ca02c"/>
     <use xlink:href="#m54fe940859" x="67.219162" y="168.945392" style="fill: #2ca02c; stroke: #2ca02c"/>
     <use xlink:href="#m54fe940859" x="71.123307" y="161.363567" style="fill: #2ca02c; stroke: #2ca02c"/>
     <use xlink:href="#m54fe940859" x="75.666731" y="153.194003" style="fill: #2ca02c; stroke: #2ca02c"/>
     <use xlink:href="#m54fe940859" x="80.687572" y="145.02444" style="fill: #2ca02c; stroke: #2ca02c"/>
     <use xlink:href="#m54fe940859" x="84.379687" y="136.707942" style="fill: #2ca02c; stroke: #2ca02c"/>
     <use xlink:href="#m54fe940859" x="88.648952" y="128.156349" style="fill: #2ca02c; stroke: #2ca02c"/>
     <use xlink:href="#m54fe940859" x="92.9135" y="120.192494" style="fill: #2ca02c; stroke: #2ca02c"/>
     <use xlink:href="#m54fe940859" x="96.423096" y="111.523352" style="fill: #2ca02c; stroke: #2ca02c"/>
     <use xlink:href="#m54fe940859" x="102.274431" y="102.942371" style="fill: #2ca02c; stroke: #2ca02c"/>
     <use xlink:href="#m54fe940859" x="105.677457" y="94.214455" style="fill: #2ca02c; stroke: #2ca02c"/>
     <use xlink:href="#m54fe940859" x="111.57662" y="86.13305" style="fill: #2ca02c; stroke: #2ca02c"/>
     <use xlink:href="#m54fe940859" x="111.707159" y="77.757776" style="fill: #2ca02c; stroke: #2ca02c"/>
     <use xlink:href="#m54fe940859" x="116.867227" y="69.353114" style="fill: #2ca02c; stroke: #2ca02c"/>
     <use xlink:href="#m54fe940859" x="122.031587" y="61.154159" style="fill: #2ca02c; stroke: #2ca02c"/>
     <use xlink:href="#m54fe940859" x="126.518796" y="53.307847" style="fill: #2ca02c; stroke: #2ca02c"/>
     <use xlink:href="#m54fe940859" x="130.27709" y="45.520308" style="fill: #2ca02c; stroke: #2ca02c"/>
     <use xlink:href="#m54fe940859" x="135.624813" y="37.732768" style="fill: #2ca02c; stroke: #2ca02c"/>
     <use xlink:href="#m54fe940859" x="137.3755" y="30.20971" style="fill: #2ca02c; stroke: #2ca02c"/>
    </g>
   </g>
   <g id="patch_3">
    <path d="M 36.403365 218.64351 
L 36.403365 18.118365 
" style="fill: none; stroke: #000000; stroke-width: 0.8; stroke-linejoin: miter; stroke-linecap: square"/>
   </g>
   <g id="patch_4">
    <path d="M 263.951323 218.64351 
L 263.951323 18.118365 
" style="fill: none; stroke: #000000; stroke-width: 0.8; stroke-linejoin: miter; stroke-linecap: square"/>
   </g>
   <g id="patch_5">
    <path d="M 36.403365 218.64351 
L 263.951323 218.64351 
" style="fill: none; stroke: #000000; stroke-width: 0.8; stroke-linejoin: miter; stroke-linecap: square"/>
   </g>
   <g id="patch_6">
    <path d="M 36.403365 18.118365 
L 263.951323 18.118365 
" style="fill: none; stroke: #000000; stroke-width: 0.8; stroke-linejoin: miter; stroke-linecap: square"/>
   </g>
   <g id="text_14">
    <!-- Predictions ($45^\circ$) -->
    <g transform="translate(98.277344 12.118365) scale(0.12 -0.12)">
     <defs>
      <path id="DejaVuSans-50" d="M 1259 4147 
L 1259 2394 
L 2053 2394 
Q 2494 2394 2734 2622 
Q 2975 2850 2975 3272 
Q 2975 3691 2734 3919 
Q 2494 4147 2053 4147 
L 1259 4147 
z
M 628 4666 
L 2053 4666 
Q 2838 4666 3239 4311 
Q 3641 3956 3641 3272 
Q 3641 2581 3239 2228 
Q 2838 1875 2053 1875 
L 1259 1875 
L 1259 0 
L 628 0 
L 628 4666 
z
" transform="scale(0.015625)"/>
      <path id="DejaVuSans-63" d="M 3122 3366 
L 3122 2828 
Q 2878 2963 2633 3030 
Q 2388 3097 2138 3097 
Q 1578 3097 1268 2742 
Q 959 2388 959 1747 
Q 959 1106 1268 751 
Q 1578 397 2138 397 
Q 2388 397 2633 464 
Q 2878 531 3122 666 
L 3122 134 
Q 2881 22 2623 -34 
Q 2366 -91 2075 -91 
Q 1284 -91 818 406 
Q 353 903 353 1747 
Q 353 2603 823 3093 
Q 1294 3584 2113 3584 
Q 2378 3584 2631 3529 
Q 2884 3475 3122 3366 
z
" transform="scale(0.015625)"/>
      <path id="DejaVuSans-28" d="M 1984 4856 
Q 1566 4138 1362 3434 
Q 1159 2731 1159 2009 
Q 1159 1288 1364 580 
Q 1569 -128 1984 -844 
L 1484 -844 
Q 1016 -109 783 600 
Q 550 1309 550 2009 
Q 550 2706 781 3412 
Q 1013 4119 1484 4856 
L 1984 4856 
z
" transform="scale(0.015625)"/>
      <path id="DejaVuSans-35" d="M 691 4666 
L 3169 4666 
L 3169 4134 
L 1269 4134 
L 1269 2991 
Q 1406 3038 1543 3061 
Q 1681 3084 1819 3084 
Q 2600 3084 3056 2656 
Q 3513 2228 3513 1497 
Q 3513 744 3044 326 
Q 2575 -91 1722 -91 
Q 1428 -91 1123 -41 
Q 819 9 494 109 
L 494 744 
Q 775 591 1075 516 
Q 1375 441 1709 441 
Q 2250 441 2565 725 
Q 2881 1009 2881 1497 
Q 2881 1984 2565 2268 
Q 2250 2553 1709 2553 
Q 1456 2553 1204 2497 
Q 953 2441 691 2322 
L 691 4666 
z
" transform="scale(0.015625)"/>
      <path id="DejaVuSans-2218" d="M 2003 2603 
Q 1753 2603 1581 2429 
Q 1409 2256 1409 2006 
Q 1409 1759 1581 1589 
Q 1753 1419 2003 1419 
Q 2253 1419 2425 1589 
Q 2597 1759 2597 2006 
Q 2597 2253 2423 2428 
Q 2250 2603 2003 2603 
z
M 2003 3006 
Q 2203 3006 2387 2929 
Q 2572 2853 2706 2709 
Q 2850 2569 2922 2390 
Q 2994 2212 2994 2006 
Q 2994 1594 2705 1308 
Q 2416 1022 1997 1022 
Q 1575 1022 1294 1303 
Q 1013 1584 1013 2006 
Q 1013 2425 1300 2715 
Q 1588 3006 2003 3006 
z
" transform="scale(0.015625)"/>
      <path id="DejaVuSans-29" d="M 513 4856 
L 1013 4856 
Q 1481 4119 1714 3412 
Q 1947 2706 1947 2009 
Q 1947 1309 1714 600 
Q 1481 -109 1013 -844 
L 513 -844 
Q 928 -128 1133 580 
Q 1338 1288 1338 2009 
Q 1338 2731 1133 3434 
Q 928 4138 513 4856 
z
" transform="scale(0.015625)"/>
     </defs>
     <use xlink:href="#DejaVuSans-50" transform="translate(0 0.015625)"/>
     <use xlink:href="#DejaVuSans-72" transform="translate(60.302734 0.015625)"/>
     <use xlink:href="#DejaVuSans-65" transform="translate(101.416016 0.015625)"/>
     <use xlink:href="#DejaVuSans-64" transform="translate(162.939453 0.015625)"/>
     <use xlink:href="#DejaVuSans-69" transform="translate(226.416016 0.015625)"/>
     <use xlink:href="#DejaVuSans-63" transform="translate(254.199219 0.015625)"/>
     <use xlink:href="#DejaVuSans-74" transform="translate(309.179688 0.015625)"/>
     <use xlink:href="#DejaVuSans-69" transform="translate(348.388672 0.015625)"/>
     <use xlink:href="#DejaVuSans-6f" transform="translate(376.171875 0.015625)"/>
     <use xlink:href="#DejaVuSans-6e" transform="translate(437.353516 0.015625)"/>
     <use xlink:href="#DejaVuSans-73" transform="translate(500.732422 0.015625)"/>
     <use xlink:href="#DejaVuSans-20" transform="translate(552.832031 0.015625)"/>
     <use xlink:href="#DejaVuSans-28" transform="translate(584.619141 0.015625)"/>
     <use xlink:href="#DejaVuSans-34" transform="translate(623.632812 0.015625)"/>
     <use xlink:href="#DejaVuSans-35" transform="translate(687.255859 0.015625)"/>
     <use xlink:href="#DejaVuSans-2218" transform="translate(765.473633 38.296875) scale(0.7)"/>
     <use xlink:href="#DejaVuSans-29" transform="translate(825.664062 0.015625)"/>
    </g>
   </g>
   <g id="legend_1">
    <g id="patch_7">
     <path d="M 136.540307 214.39351 
L 258.001323 214.39351 
Q 259.701323 214.39351 259.701323 212.69351 
L 259.701323 126.208666 
Q 259.701323 124.508666 258.001323 124.508666 
L 136.540307 124.508666 
Q 134.840307 124.508666 134.840307 126.208666 
L 134.840307 212.69351 
Q 134.840307 214.39351 136.540307 214.39351 
z
" style="fill: #ffffff; opacity: 0.8; stroke: #cccccc; stroke-linejoin: miter"/>
    </g>
    <g id="patch_8">
     <path d="M 138.240307 134.367338 
L 155.240307 134.367338 
L 155.240307 128.417338 
L 138.240307 128.417338 
z
" style="fill: #90ee90; fill-opacity: 0.75; stroke: #90ee90; stroke-opacity: 0.75; stroke-linejoin: miter"/>
    </g>
    <g id="text_15">
     <!-- Prior 95% interval -->
     <g transform="translate(162.040307 134.367338) scale(0.085 -0.085)">
      <defs>
       <path id="DejaVuSans-39" d="M 703 97 
L 703 672 
Q 941 559 1184 500 
Q 1428 441 1663 441 
Q 2288 441 2617 861 
Q 2947 1281 2994 2138 
Q 2813 1869 2534 1725 
Q 2256 1581 1919 1581 
Q 1219 1581 811 2004 
Q 403 2428 403 3163 
Q 403 3881 828 4315 
Q 1253 4750 1959 4750 
Q 2769 4750 3195 4129 
Q 3622 3509 3622 2328 
Q 3622 1225 3098 567 
Q 2575 -91 1691 -91 
Q 1453 -91 1209 -44 
Q 966 3 703 97 
z
M 1959 2075 
Q 2384 2075 2632 2365 
Q 2881 2656 2881 3163 
Q 2881 3666 2632 3958 
Q 2384 4250 1959 4250 
Q 1534 4250 1286 3958 
Q 1038 3666 1038 3163 
Q 1038 2656 1286 2365 
Q 1534 2075 1959 2075 
z
" transform="scale(0.015625)"/>
       <path id="DejaVuSans-25" d="M 4653 2053 
Q 4381 2053 4226 1822 
Q 4072 1591 4072 1178 
Q 4072 772 4226 539 
Q 4381 306 4653 306 
Q 4919 306 5073 539 
Q 5228 772 5228 1178 
Q 5228 1588 5073 1820 
Q 4919 2053 4653 2053 
z
M 4653 2450 
Q 5147 2450 5437 2106 
Q 5728 1763 5728 1178 
Q 5728 594 5436 251 
Q 5144 -91 4653 -91 
Q 4153 -91 3862 251 
Q 3572 594 3572 1178 
Q 3572 1766 3864 2108 
Q 4156 2450 4653 2450 
z
M 1428 4353 
Q 1159 4353 1004 4120 
Q 850 3888 850 3481 
Q 850 3069 1003 2837 
Q 1156 2606 1428 2606 
Q 1700 2606 1854 2837 
Q 2009 3069 2009 3481 
Q 2009 3884 1853 4118 
Q 1697 4353 1428 4353 
z
M 4250 4750 
L 4750 4750 
L 1831 -91 
L 1331 -91 
L 4250 4750 
z
M 1428 4750 
Q 1922 4750 2215 4408 
Q 2509 4066 2509 3481 
Q 2509 2891 2217 2550 
Q 1925 2209 1428 2209 
Q 931 2209 642 2551 
Q 353 2894 353 3481 
Q 353 4063 643 4406 
Q 934 4750 1428 4750 
z
" transform="scale(0.015625)"/>
       <path id="DejaVuSans-76" d="M 191 3500 
L 800 3500 
L 1894 563 
L 2988 3500 
L 3597 3500 
L 2284 0 
L 1503 0 
L 191 3500 
z
" transform="scale(0.015625)"/>
      </defs>
      <use xlink:href="#DejaVuSans-50"/>
      <use xlink:href="#DejaVuSans-72" x="58.552734"/>
      <use xlink:href="#DejaVuSans-69" x="99.666016"/>
      <use xlink:href="#DejaVuSans-6f" x="127.449219"/>
      <use xlink:href="#DejaVuSans-72" x="188.630859"/>
      <use xlink:href="#DejaVuSans-20" x="229.744141"/>
      <use xlink:href="#DejaVuSans-39" x="261.53125"/>
      <use xlink:href="#DejaVuSans-35" x="325.154297"/>
      <use xlink:href="#DejaVuSans-25" x="388.777344"/>
      <use xlink:href="#DejaVuSans-20" x="483.796875"/>
      <use xlink:href="#DejaVuSans-69" x="515.583984"/>
      <use xlink:href="#DejaVuSans-6e" x="543.367188"/>
      <use xlink:href="#DejaVuSans-74" x="606.746094"/>
      <use xlink:href="#DejaVuSans-65" x="645.955078"/>
      <use xlink:href="#DejaVuSans-72" x="707.478516"/>
      <use xlink:href="#DejaVuSans-76" x="748.591797"/>
      <use xlink:href="#DejaVuSans-61" x="807.771484"/>
      <use xlink:href="#DejaVuSans-6c" x="869.050781"/>
     </g>
    </g>
    <g id="line2d_19">
     <path d="M 138.240307 143.868744 
L 146.740307 143.868744 
L 155.240307 143.868744 
" style="fill: none; stroke-dasharray: 3.7,1.6; stroke-dashoffset: 0; stroke: #008000"/>
    </g>
    <g id="text_16">
     <!-- Prior mean -->
     <g transform="translate(162.040307 146.843744) scale(0.085 -0.085)">
      <use xlink:href="#DejaVuSans-50"/>
      <use xlink:href="#DejaVuSans-72" x="58.552734"/>
      <use xlink:href="#DejaVuSans-69" x="99.666016"/>
      <use xlink:href="#DejaVuSans-6f" x="127.449219"/>
      <use xlink:href="#DejaVuSans-72" x="188.630859"/>
      <use xlink:href="#DejaVuSans-20" x="229.744141"/>
      <use xlink:href="#DejaVuSans-6d" x="261.53125"/>
      <use xlink:href="#DejaVuSans-65" x="358.943359"/>
      <use xlink:href="#DejaVuSans-61" x="420.466797"/>
      <use xlink:href="#DejaVuSans-6e" x="481.746094"/>
     </g>
    </g>
    <g id="patch_9">
     <path d="M 138.240307 159.320151 
L 155.240307 159.320151 
L 155.240307 153.370151 
L 138.240307 153.370151 
z
" style="fill: #6495ed; fill-opacity: 0.75; stroke: #6495ed; stroke-opacity: 0.75; stroke-linejoin: miter"/>
    </g>
    <g id="text_17">
     <!-- Posterior 95% interval -->
     <g transform="translate(162.040307 159.320151) scale(0.085 -0.085)">
      <use xlink:href="#DejaVuSans-50"/>
      <use xlink:href="#DejaVuSans-6f" x="56.677734"/>
      <use xlink:href="#DejaVuSans-73" x="117.859375"/>
      <use xlink:href="#DejaVuSans-74" x="169.958984"/>
      <use xlink:href="#DejaVuSans-65" x="209.167969"/>
      <use xlink:href="#DejaVuSans-72" x="270.691406"/>
      <use xlink:href="#DejaVuSans-69" x="311.804688"/>
      <use xlink:href="#DejaVuSans-6f" x="339.587891"/>
      <use xlink:href="#DejaVuSans-72" x="400.769531"/>
      <use xlink:href="#DejaVuSans-20" x="441.882812"/>
      <use xlink:href="#DejaVuSans-39" x="473.669922"/>
      <use xlink:href="#DejaVuSans-35" x="537.292969"/>
      <use xlink:href="#DejaVuSans-25" x="600.916016"/>
      <use xlink:href="#DejaVuSans-20" x="695.935547"/>
      <use xlink:href="#DejaVuSans-69" x="727.722656"/>
      <use xlink:href="#DejaVuSans-6e" x="755.505859"/>
      <use xlink:href="#DejaVuSans-74" x="818.884766"/>
      <use xlink:href="#DejaVuSans-65" x="858.09375"/>
      <use xlink:href="#DejaVuSans-72" x="919.617188"/>
      <use xlink:href="#DejaVuSans-76" x="960.730469"/>
      <use xlink:href="#DejaVuSans-61" x="1019.910156"/>
      <use xlink:href="#DejaVuSans-6c" x="1081.189453"/>
     </g>
    </g>
    <g id="line2d_20">
     <path d="M 138.240307 168.821557 
L 146.740307 168.821557 
L 155.240307 168.821557 
" style="fill: none; stroke: #0000ff; stroke-width: 0.5; stroke-linecap: square"/>
    </g>
    <g id="text_18">
     <!-- Posterior mean -->
     <g transform="translate(162.040307 171.796557) scale(0.085 -0.085)">
      <use xlink:href="#DejaVuSans-50"/>
      <use xlink:href="#DejaVuSans-6f" x="56.677734"/>
      <use xlink:href="#DejaVuSans-73" x="117.859375"/>
      <use xlink:href="#DejaVuSans-74" x="169.958984"/>
      <use xlink:href="#DejaVuSans-65" x="209.167969"/>
      <use xlink:href="#DejaVuSans-72" x="270.691406"/>
      <use xlink:href="#DejaVuSans-69" x="311.804688"/>
      <use xlink:href="#DejaVuSans-6f" x="339.587891"/>
      <use xlink:href="#DejaVuSans-72" x="400.769531"/>
      <use xlink:href="#DejaVuSans-20" x="441.882812"/>
      <use xlink:href="#DejaVuSans-6d" x="473.669922"/>
      <use xlink:href="#DejaVuSans-65" x="571.082031"/>
      <use xlink:href="#DejaVuSans-61" x="632.605469"/>
      <use xlink:href="#DejaVuSans-6e" x="693.884766"/>
     </g>
    </g>
    <g id="line2d_21">
     <g>
      <use xlink:href="#m1308916a1a" x="146.740307" y="181.297963" style="fill: #1f77b4; stroke: #1f77b4"/>
     </g>
    </g>
    <g id="text_19">
     <!-- Experimental data 1 -->
     <g transform="translate(162.040307 184.272963) scale(0.085 -0.085)">
      <defs>
       <path id="DejaVuSans-70" d="M 1159 525 
L 1159 -1331 
L 581 -1331 
L 581 3500 
L 1159 3500 
L 1159 2969 
Q 1341 3281 1617 3432 
Q 1894 3584 2278 3584 
Q 2916 3584 3314 3078 
Q 3713 2572 3713 1747 
Q 3713 922 3314 415 
Q 2916 -91 2278 -91 
Q 1894 -91 1617 61 
Q 1341 213 1159 525 
z
M 3116 1747 
Q 3116 2381 2855 2742 
Q 2594 3103 2138 3103 
Q 1681 3103 1420 2742 
Q 1159 2381 1159 1747 
Q 1159 1113 1420 752 
Q 1681 391 2138 391 
Q 2594 391 2855 752 
Q 3116 1113 3116 1747 
z
" transform="scale(0.015625)"/>
      </defs>
      <use xlink:href="#DejaVuSans-45"/>
      <use xlink:href="#DejaVuSans-78" x="63.183594"/>
      <use xlink:href="#DejaVuSans-70" x="122.363281"/>
      <use xlink:href="#DejaVuSans-65" x="185.839844"/>
      <use xlink:href="#DejaVuSans-72" x="247.363281"/>
      <use xlink:href="#DejaVuSans-69" x="288.476562"/>
      <use xlink:href="#DejaVuSans-6d" x="316.259766"/>
      <use xlink:href="#DejaVuSans-65" x="413.671875"/>
      <use xlink:href="#DejaVuSans-6e" x="475.195312"/>
      <use xlink:href="#DejaVuSans-74" x="538.574219"/>
      <use xlink:href="#DejaVuSans-61" x="577.783203"/>
      <use xlink:href="#DejaVuSans-6c" x="639.0625"/>
      <use xlink:href="#DejaVuSans-20" x="666.845703"/>
      <use xlink:href="#DejaVuSans-64" x="698.632812"/>
      <use xlink:href="#DejaVuSans-61" x="762.109375"/>
      <use xlink:href="#DejaVuSans-74" x="823.388672"/>
      <use xlink:href="#DejaVuSans-61" x="862.597656"/>
      <use xlink:href="#DejaVuSans-20" x="923.876953"/>
      <use xlink:href="#DejaVuSans-31" x="955.664062"/>
     </g>
    </g>
    <g id="line2d_22">
     <g>
      <use xlink:href="#m7198d81a3d" x="146.740307" y="193.774369" style="fill: #ff7f0e; stroke: #ff7f0e"/>
     </g>
    </g>
    <g id="text_20">
     <!-- Experimental data 2 -->
     <g transform="translate(162.040307 196.749369) scale(0.085 -0.085)">
      <use xlink:href="#DejaVuSans-45"/>
      <use xlink:href="#DejaVuSans-78" x="63.183594"/>
      <use xlink:href="#DejaVuSans-70" x="122.363281"/>
      <use xlink:href="#DejaVuSans-65" x="185.839844"/>
      <use xlink:href="#DejaVuSans-72" x="247.363281"/>
      <use xlink:href="#DejaVuSans-69" x="288.476562"/>
      <use xlink:href="#DejaVuSans-6d" x="316.259766"/>
      <use xlink:href="#DejaVuSans-65" x="413.671875"/>
      <use xlink:href="#DejaVuSans-6e" x="475.195312"/>
      <use xlink:href="#DejaVuSans-74" x="538.574219"/>
      <use xlink:href="#DejaVuSans-61" x="577.783203"/>
      <use xlink:href="#DejaVuSans-6c" x="639.0625"/>
      <use xlink:href="#DejaVuSans-20" x="666.845703"/>
      <use xlink:href="#DejaVuSans-64" x="698.632812"/>
      <use xlink:href="#DejaVuSans-61" x="762.109375"/>
      <use xlink:href="#DejaVuSans-74" x="823.388672"/>
      <use xlink:href="#DejaVuSans-61" x="862.597656"/>
      <use xlink:href="#DejaVuSans-20" x="923.876953"/>
      <use xlink:href="#DejaVuSans-32" x="955.664062"/>
     </g>
    </g>
    <g id="line2d_23">
     <g>
      <use xlink:href="#m54fe940859" x="146.740307" y="206.250776" style="fill: #2ca02c; stroke: #2ca02c"/>
     </g>
    </g>
    <g id="text_21">
     <!-- Experimental data 3 -->
     <g transform="translate(162.040307 209.225776) scale(0.085 -0.085)">
      <defs>
       <path id="DejaVuSans-33" d="M 2597 2516 
Q 3050 2419 3304 2112 
Q 3559 1806 3559 1356 
Q 3559 666 3084 287 
Q 2609 -91 1734 -91 
Q 1441 -91 1130 -33 
Q 819 25 488 141 
L 488 750 
Q 750 597 1062 519 
Q 1375 441 1716 441 
Q 2309 441 2620 675 
Q 2931 909 2931 1356 
Q 2931 1769 2642 2001 
Q 2353 2234 1838 2234 
L 1294 2234 
L 1294 2753 
L 1863 2753 
Q 2328 2753 2575 2939 
Q 2822 3125 2822 3475 
Q 2822 3834 2567 4026 
Q 2313 4219 1838 4219 
Q 1578 4219 1281 4162 
Q 984 4106 628 3988 
L 628 4550 
Q 988 4650 1302 4700 
Q 1616 4750 1894 4750 
Q 2613 4750 3031 4423 
Q 3450 4097 3450 3541 
Q 3450 3153 3228 2886 
Q 3006 2619 2597 2516 
z
" transform="scale(0.015625)"/>
      </defs>
      <use xlink:href="#DejaVuSans-45"/>
      <use xlink:href="#DejaVuSans-78" x="63.183594"/>
      <use xlink:href="#DejaVuSans-70" x="122.363281"/>
      <use xlink:href="#DejaVuSans-65" x="185.839844"/>
      <use xlink:href="#DejaVuSans-72" x="247.363281"/>
      <use xlink:href="#DejaVuSans-69" x="288.476562"/>
      <use xlink:href="#DejaVuSans-6d" x="316.259766"/>
      <use xlink:href="#DejaVuSans-65" x="413.671875"/>
      <use xlink:href="#DejaVuSans-6e" x="475.195312"/>
      <use xlink:href="#DejaVuSans-74" x="538.574219"/>
      <use xlink:href="#DejaVuSans-61" x="577.783203"/>
      <use xlink:href="#DejaVuSans-6c" x="639.0625"/>
      <use xlink:href="#DejaVuSans-20" x="666.845703"/>
      <use xlink:href="#DejaVuSans-64" x="698.632812"/>
      <use xlink:href="#DejaVuSans-61" x="762.109375"/>
      <use xlink:href="#DejaVuSans-74" x="823.388672"/>
      <use xlink:href="#DejaVuSans-61" x="862.597656"/>
      <use xlink:href="#DejaVuSans-20" x="923.876953"/>
      <use xlink:href="#DejaVuSans-33" x="955.664062"/>
     </g>
    </g>
   </g>
  </g>
  <g id="axes_2">
   <g id="patch_10">
    <path d="M 273.451802 218.64351 
L 500.99976 218.64351 
L 500.99976 18.118365 
L 273.451802 18.118365 
z
" style="fill: #ffffff"/>
   </g>
   <g id="PolyCollection_3">
    <defs>
     <path id="mf5b244f880" d="M 285.493671 -42.471269 
L 285.359961 -42.471269 
L 284.851205 -44.312639 
L 284.445365 -46.154008 
L 284.142443 -47.995378 
L 283.942437 -49.836748 
L 283.845349 -51.678117 
L 283.851177 -53.519487 
L 283.959922 -55.360856 
L 284.171585 -57.202226 
L 284.486164 -59.043595 
L 284.90366 -60.884965 
L 285.424073 -62.726334 
L 286.047403 -64.567704 
L 286.77365 -66.409074 
L 287.602815 -68.250443 
L 288.534896 -70.091813 
L 289.569893 -71.933182 
L 290.707808 -73.774552 
L 291.94864 -75.615921 
L 293.292389 -77.457291 
L 294.739055 -79.298661 
L 296.288637 -81.14003 
L 297.941137 -82.9814 
L 299.696554 -84.822769 
L 301.554887 -86.664139 
L 303.516138 -88.505508 
L 305.580305 -90.346878 
L 307.74739 -92.188247 
L 310.017391 -94.029617 
L 312.39031 -95.870987 
L 314.866145 -97.712356 
L 317.444897 -99.553726 
L 319.977898 -101.395095 
L 322.316478 -103.236465 
L 324.460637 -105.077834 
L 326.410377 -106.919204 
L 328.165695 -108.760573 
L 329.726593 -110.601943 
L 331.093071 -112.443313 
L 332.265128 -114.284682 
L 333.373343 -116.126052 
L 334.548293 -117.967421 
L 335.789979 -119.808791 
L 337.098401 -121.65016 
L 338.473557 -123.49153 
L 339.91545 -125.332899 
L 341.424078 -127.174269 
L 342.999441 -129.015639 
L 344.646226 -130.857008 
L 346.369119 -132.698378 
L 348.16812 -134.539747 
L 350.043229 -136.381117 
L 351.994445 -138.222486 
L 354.021769 -140.063856 
L 356.125202 -141.905226 
L 358.304742 -143.746595 
L 360.489647 -145.587965 
L 362.609173 -147.429334 
L 364.663322 -149.270704 
L 366.652092 -151.112073 
L 368.575485 -152.953443 
L 370.433499 -154.794812 
L 372.226135 -156.636182 
L 373.953392 -158.477552 
L 375.649912 -160.318921 
L 377.350332 -162.160291 
L 379.054653 -164.00166 
L 380.762876 -165.84303 
L 382.474999 -167.684399 
L 384.191024 -169.525769 
L 385.910949 -171.367138 
L 387.634776 -173.208508 
L 389.360921 -175.049878 
L 391.0878 -176.891247 
L 392.815413 -178.732617 
L 394.543761 -180.573986 
L 396.272844 -182.415356 
L 398.002661 -184.256725 
L 399.733213 -186.098095 
L 401.4645 -187.939464 
L 403.173303 -189.780834 
L 404.836405 -191.622204 
L 406.453806 -193.463573 
L 408.025506 -195.304943 
L 409.551505 -197.146312 
L 411.031803 -198.987682 
L 412.4664 -200.829051 
L 413.855296 -202.670421 
L 415.257099 -204.511791 
L 416.730416 -206.35316 
L 418.275247 -208.19453 
L 419.891592 -210.035899 
L 421.579452 -211.877269 
L 423.338826 -213.718638 
L 425.169714 -215.560008 
L 427.072117 -217.401377 
L 429.046034 -219.242747 
L 431.091465 -221.084117 
L 433.20841 -222.925486 
L 435.39687 -224.766856 
L 476.932798 -224.766856 
L 476.932798 -224.766856 
L 475.197464 -222.925486 
L 473.481552 -221.084117 
L 471.785061 -219.242747 
L 470.107991 -217.401377 
L 468.450343 -215.560008 
L 466.812116 -213.718638 
L 465.193311 -211.877269 
L 463.593928 -210.035899 
L 462.013966 -208.19453 
L 460.453425 -206.35316 
L 458.912306 -204.511791 
L 457.390608 -202.670421 
L 455.888332 -200.829051 
L 454.405478 -198.987682 
L 452.942045 -197.146312 
L 451.509362 -195.304943 
L 450.118759 -193.463573 
L 448.770235 -191.622204 
L 447.463791 -189.780834 
L 446.199426 -187.939464 
L 444.977141 -186.098095 
L 443.796935 -184.256725 
L 442.658809 -182.415356 
L 441.504644 -180.573986 
L 440.276323 -178.732617 
L 438.973845 -176.891247 
L 437.59721 -175.049878 
L 436.146419 -173.208508 
L 434.621471 -171.367138 
L 433.022367 -169.525769 
L 431.349106 -167.684399 
L 429.614511 -165.84303 
L 427.831406 -164.00166 
L 425.999789 -162.160291 
L 424.119662 -160.318921 
L 422.191023 -158.477552 
L 420.213874 -156.636182 
L 418.188213 -154.794812 
L 416.114042 -152.953443 
L 414.01934 -151.112073 
L 411.932088 -149.270704 
L 409.852285 -147.429334 
L 407.779932 -145.587965 
L 405.715029 -143.746595 
L 403.657575 -141.905226 
L 401.607571 -140.063856 
L 399.565016 -138.222486 
L 397.526618 -136.381117 
L 395.489084 -134.539747 
L 393.452413 -132.698378 
L 391.416606 -130.857008 
L 389.381662 -129.015639 
L 387.347581 -127.174269 
L 385.314365 -125.332899 
L 383.282011 -123.49153 
L 381.252308 -121.65016 
L 379.22704 -119.808791 
L 377.206208 -117.967421 
L 375.189812 -116.126052 
L 373.177853 -114.284682 
L 371.170329 -112.443313 
L 369.167241 -110.601943 
L 367.168589 -108.760573 
L 365.246509 -106.919204 
L 363.473136 -105.077834 
L 361.848472 -103.236465 
L 360.372516 -101.395095 
L 359.045268 -99.553726 
L 357.866727 -97.712356 
L 356.836895 -95.870987 
L 355.955771 -94.029617 
L 355.147244 -92.188247 
L 354.335206 -90.346878 
L 353.519656 -88.505508 
L 352.700593 -86.664139 
L 351.878019 -84.822769 
L 351.051932 -82.9814 
L 350.222334 -81.14003 
L 349.389224 -79.298661 
L 348.46906 -77.457291 
L 347.378301 -75.615921 
L 346.116948 -73.774552 
L 344.685 -71.933182 
L 343.082457 -70.091813 
L 341.30932 -68.250443 
L 339.365588 -66.409074 
L 337.251261 -64.567704 
L 334.875511 -62.726334 
L 332.14751 -60.884965 
L 329.067257 -59.043595 
L 325.634753 -57.202226 
L 321.849998 -55.360856 
L 317.712991 -53.519487 
L 313.223732 -51.678117 
L 308.382223 -49.836748 
L 303.188462 -47.995378 
L 297.642449 -46.154008 
L 291.744186 -44.312639 
L 285.493671 -42.471269 
z
" style="stroke: #90ee90; stroke-opacity: 0.75"/>
    </defs>
    <g clip-path="url(#pf9ec96fbd4)">
     <use xlink:href="#mf5b244f880" x="0" y="252" style="fill: #90ee90; fill-opacity: 0.75; stroke: #90ee90; stroke-opacity: 0.75"/>
    </g>
   </g>
   <g id="PolyCollection_4">
    <defs>
     <path id="m5516b4fcab" d="M 285.491921 -42.471269 
L 285.359126 -42.471269 
L 287.253572 -44.312639 
L 289.110075 -46.154008 
L 290.955372 -47.995378 
L 292.79687 -49.836748 
L 294.633934 -51.678117 
L 296.467124 -53.519487 
L 298.307928 -55.360856 
L 300.139533 -57.202226 
L 301.965526 -59.043595 
L 303.791262 -60.884965 
L 305.618761 -62.726334 
L 307.432484 -64.567704 
L 309.247843 -66.409074 
L 311.059743 -68.250443 
L 312.870494 -70.091813 
L 314.681628 -71.933182 
L 316.479293 -73.774552 
L 318.275585 -75.615921 
L 320.074608 -77.457291 
L 321.870782 -79.298661 
L 323.665399 -81.14003 
L 325.450425 -82.9814 
L 327.236413 -84.822769 
L 329.01931 -86.664139 
L 330.785291 -88.505508 
L 332.558968 -90.346878 
L 334.339075 -92.188247 
L 336.117676 -94.029617 
L 337.886848 -95.870987 
L 339.651256 -97.712356 
L 341.404123 -99.553726 
L 343.162528 -101.395095 
L 344.933832 -103.236465 
L 346.690156 -105.077834 
L 348.464147 -106.919204 
L 350.22966 -108.760573 
L 352.026665 -110.601943 
L 353.789484 -112.443313 
L 355.589932 -114.284682 
L 357.383359 -116.126052 
L 359.175105 -117.967421 
L 360.963368 -119.808791 
L 362.754819 -121.65016 
L 364.56736 -123.49153 
L 366.359863 -125.332899 
L 368.16625 -127.174269 
L 369.952702 -129.015639 
L 371.766682 -130.857008 
L 373.577731 -132.698378 
L 375.397833 -134.539747 
L 377.207753 -136.381117 
L 379.049951 -138.222486 
L 380.887519 -140.063856 
L 382.734726 -141.905226 
L 384.587341 -143.746595 
L 386.436786 -145.587965 
L 388.285108 -147.429334 
L 390.138889 -149.270704 
L 391.993776 -151.112073 
L 393.848609 -152.953443 
L 395.702403 -154.794812 
L 397.564586 -156.636182 
L 399.43433 -158.477552 
L 401.322748 -160.318921 
L 403.203341 -162.160291 
L 405.077116 -164.00166 
L 406.952668 -165.84303 
L 408.830651 -167.684399 
L 410.719885 -169.525769 
L 412.596896 -171.367138 
L 414.497275 -173.208508 
L 416.369997 -175.049878 
L 418.256225 -176.891247 
L 420.15051 -178.732617 
L 422.054468 -180.573986 
L 423.932082 -182.415356 
L 425.811474 -184.256725 
L 427.716587 -186.098095 
L 429.611471 -187.939464 
L 431.502944 -189.780834 
L 433.397533 -191.622204 
L 435.261141 -193.463573 
L 437.147676 -195.304943 
L 439.035507 -197.146312 
L 440.903827 -198.987682 
L 442.768194 -200.829051 
L 444.625377 -202.670421 
L 446.481857 -204.511791 
L 448.324319 -206.35316 
L 450.154471 -208.19453 
L 452.006208 -210.035899 
L 453.848457 -211.877269 
L 455.660382 -213.718638 
L 457.468159 -215.560008 
L 459.241005 -217.401377 
L 461.06726 -219.242747 
L 462.839424 -221.084117 
L 464.611801 -222.925486 
L 466.390455 -224.766856 
L 470.687085 -224.766856 
L 470.687085 -224.766856 
L 468.749883 -222.925486 
L 466.819401 -221.084117 
L 464.874111 -219.242747 
L 462.965156 -217.401377 
L 461.027673 -215.560008 
L 459.093227 -213.718638 
L 457.16454 -211.877269 
L 455.235066 -210.035899 
L 453.305269 -208.19453 
L 451.372158 -206.35316 
L 449.44879 -204.511791 
L 447.523073 -202.670421 
L 445.606719 -200.829051 
L 443.66409 -198.987682 
L 441.734881 -197.146312 
L 439.825176 -195.304943 
L 437.911931 -193.463573 
L 435.984091 -191.622204 
L 434.087467 -189.780834 
L 432.164905 -187.939464 
L 430.252801 -186.098095 
L 428.33672 -184.256725 
L 426.437746 -182.415356 
L 424.538032 -180.573986 
L 422.647656 -178.732617 
L 420.758431 -176.891247 
L 418.873029 -175.049878 
L 416.994297 -173.208508 
L 415.125728 -171.367138 
L 413.265341 -169.525769 
L 411.40644 -167.684399 
L 409.52864 -165.84303 
L 407.670614 -164.00166 
L 405.806911 -162.160291 
L 403.94495 -160.318921 
L 402.086935 -158.477552 
L 400.25264 -156.636182 
L 398.40105 -154.794812 
L 396.53978 -152.953443 
L 394.706897 -151.112073 
L 392.859343 -149.270704 
L 391.011671 -147.429334 
L 389.182147 -145.587965 
L 387.361313 -143.746595 
L 385.544812 -141.905226 
L 383.714424 -140.063856 
L 381.89232 -138.222486 
L 380.071694 -136.381117 
L 378.258999 -134.539747 
L 376.437401 -132.698378 
L 374.623053 -130.857008 
L 372.808947 -129.015639 
L 370.992701 -127.174269 
L 369.199763 -125.332899 
L 367.398018 -123.49153 
L 365.583366 -121.65016 
L 363.791477 -119.808791 
L 361.987617 -117.967421 
L 360.194843 -116.126052 
L 358.401303 -114.284682 
L 356.606216 -112.443313 
L 354.817347 -110.601943 
L 353.018881 -108.760573 
L 351.228224 -106.919204 
L 349.42279 -105.077834 
L 347.628942 -103.236465 
L 345.840532 -101.395095 
L 344.043315 -99.553726 
L 342.261735 -97.712356 
L 340.463077 -95.870987 
L 338.65759 -94.029617 
L 336.845292 -92.188247 
L 335.041163 -90.346878 
L 333.214355 -88.505508 
L 331.399773 -86.664139 
L 329.572242 -84.822769 
L 327.746964 -82.9814 
L 325.926924 -81.14003 
L 324.08136 -79.298661 
L 322.249711 -77.457291 
L 320.406641 -75.615921 
L 318.551172 -73.774552 
L 316.684917 -71.933182 
L 314.807973 -70.091813 
L 312.940319 -68.250443 
L 311.048709 -66.409074 
L 309.14392 -64.567704 
L 307.250499 -62.726334 
L 305.329192 -60.884965 
L 303.408872 -59.043595 
L 301.47029 -57.202226 
L 299.521386 -55.360856 
L 297.555116 -53.519487 
L 295.572457 -51.678117 
L 293.574743 -49.836748 
L 291.566524 -47.995378 
L 289.542104 -46.154008 
L 287.503188 -44.312639 
L 285.491921 -42.471269 
z
" style="stroke: #6495ed; stroke-opacity: 0.75"/>
    </defs>
    <g clip-path="url(#pf9ec96fbd4)">
     <use xlink:href="#m5516b4fcab" x="0" y="252" style="fill: #6495ed; fill-opacity: 0.75; stroke: #6495ed; stroke-opacity: 0.75"/>
    </g>
   </g>
   <g id="matplotlib.axis_3">
    <g id="xtick_6">
     <g id="line2d_24">
      <g>
       <use xlink:href="#mca7fcf9149" x="285.428011" y="218.64351" style="stroke: #000000; stroke-width: 0.8"/>
      </g>
     </g>
     <g id="text_22">
      <!-- 0.00 -->
      <g transform="translate(274.295198 233.241948) scale(0.1 -0.1)">
       <use xlink:href="#DejaVuSans-30"/>
       <use xlink:href="#DejaVuSans-2e" x="63.623047"/>
       <use xlink:href="#DejaVuSans-30" x="95.410156"/>
       <use xlink:href="#DejaVuSans-30" x="159.033203"/>
      </g>
     </g>
    </g>
    <g id="xtick_7">
     <g id="line2d_25">
      <g>
       <use xlink:href="#mca7fcf9149" x="333.332844" y="218.64351" style="stroke: #000000; stroke-width: 0.8"/>
      </g>
     </g>
     <g id="text_23">
      <!-- 0.02 -->
      <g transform="translate(322.200031 233.241948) scale(0.1 -0.1)">
       <use xlink:href="#DejaVuSans-30"/>
       <use xlink:href="#DejaVuSans-2e" x="63.623047"/>
       <use xlink:href="#DejaVuSans-30" x="95.410156"/>
       <use xlink:href="#DejaVuSans-32" x="159.033203"/>
      </g>
     </g>
    </g>
    <g id="xtick_8">
     <g id="line2d_26">
      <g>
       <use xlink:href="#mca7fcf9149" x="381.237677" y="218.64351" style="stroke: #000000; stroke-width: 0.8"/>
      </g>
     </g>
     <g id="text_24">
      <!-- 0.04 -->
      <g transform="translate(370.104865 233.241948) scale(0.1 -0.1)">
       <use xlink:href="#DejaVuSans-30"/>
       <use xlink:href="#DejaVuSans-2e" x="63.623047"/>
       <use xlink:href="#DejaVuSans-30" x="95.410156"/>
       <use xlink:href="#DejaVuSans-34" x="159.033203"/>
      </g>
     </g>
    </g>
    <g id="xtick_9">
     <g id="line2d_27">
      <g>
       <use xlink:href="#mca7fcf9149" x="429.14251" y="218.64351" style="stroke: #000000; stroke-width: 0.8"/>
      </g>
     </g>
     <g id="text_25">
      <!-- 0.06 -->
      <g transform="translate(418.009698 233.241948) scale(0.1 -0.1)">
       <use xlink:href="#DejaVuSans-30"/>
       <use xlink:href="#DejaVuSans-2e" x="63.623047"/>
       <use xlink:href="#DejaVuSans-30" x="95.410156"/>
       <use xlink:href="#DejaVuSans-36" x="159.033203"/>
      </g>
     </g>
    </g>
    <g id="xtick_10">
     <g id="line2d_28">
      <g>
       <use xlink:href="#mca7fcf9149" x="477.047343" y="218.64351" style="stroke: #000000; stroke-width: 0.8"/>
      </g>
     </g>
     <g id="text_26">
      <!-- 0.08 -->
      <g transform="translate(465.914531 233.241948) scale(0.1 -0.1)">
       <use xlink:href="#DejaVuSans-30"/>
       <use xlink:href="#DejaVuSans-2e" x="63.623047"/>
       <use xlink:href="#DejaVuSans-30" x="95.410156"/>
       <use xlink:href="#DejaVuSans-38" x="159.033203"/>
      </g>
     </g>
    </g>
    <g id="text_27">
     <!-- Shear Extension [mm] -->
     <g transform="translate(331.320312 246.920073) scale(0.1 -0.1)">
      <defs>
       <path id="DejaVuSans-53" d="M 3425 4513 
L 3425 3897 
Q 3066 4069 2747 4153 
Q 2428 4238 2131 4238 
Q 1616 4238 1336 4038 
Q 1056 3838 1056 3469 
Q 1056 3159 1242 3001 
Q 1428 2844 1947 2747 
L 2328 2669 
Q 3034 2534 3370 2195 
Q 3706 1856 3706 1288 
Q 3706 609 3251 259 
Q 2797 -91 1919 -91 
Q 1588 -91 1214 -16 
Q 841 59 441 206 
L 441 856 
Q 825 641 1194 531 
Q 1563 422 1919 422 
Q 2459 422 2753 634 
Q 3047 847 3047 1241 
Q 3047 1584 2836 1778 
Q 2625 1972 2144 2069 
L 1759 2144 
Q 1053 2284 737 2584 
Q 422 2884 422 3419 
Q 422 4038 858 4394 
Q 1294 4750 2059 4750 
Q 2388 4750 2728 4690 
Q 3069 4631 3425 4513 
z
" transform="scale(0.015625)"/>
       <path id="DejaVuSans-68" d="M 3513 2113 
L 3513 0 
L 2938 0 
L 2938 2094 
Q 2938 2591 2744 2837 
Q 2550 3084 2163 3084 
Q 1697 3084 1428 2787 
Q 1159 2491 1159 1978 
L 1159 0 
L 581 0 
L 581 4863 
L 1159 4863 
L 1159 2956 
Q 1366 3272 1645 3428 
Q 1925 3584 2291 3584 
Q 2894 3584 3203 3211 
Q 3513 2838 3513 2113 
z
" transform="scale(0.015625)"/>
      </defs>
      <use xlink:href="#DejaVuSans-53"/>
      <use xlink:href="#DejaVuSans-68" x="63.476562"/>
      <use xlink:href="#DejaVuSans-65" x="126.855469"/>
      <use xlink:href="#DejaVuSans-61" x="188.378906"/>
      <use xlink:href="#DejaVuSans-72" x="249.658203"/>
      <use xlink:href="#DejaVuSans-20" x="290.771484"/>
      <use xlink:href="#DejaVuSans-45" x="322.558594"/>
      <use xlink:href="#DejaVuSans-78" x="385.742188"/>
      <use xlink:href="#DejaVuSans-74" x="444.921875"/>
      <use xlink:href="#DejaVuSans-65" x="484.130859"/>
      <use xlink:href="#DejaVuSans-6e" x="545.654297"/>
      <use xlink:href="#DejaVuSans-73" x="609.033203"/>
      <use xlink:href="#DejaVuSans-69" x="661.132812"/>
      <use xlink:href="#DejaVuSans-6f" x="688.916016"/>
      <use xlink:href="#DejaVuSans-6e" x="750.097656"/>
      <use xlink:href="#DejaVuSans-20" x="813.476562"/>
      <use xlink:href="#DejaVuSans-5b" x="845.263672"/>
      <use xlink:href="#DejaVuSans-6d" x="884.277344"/>
      <use xlink:href="#DejaVuSans-6d" x="981.689453"/>
      <use xlink:href="#DejaVuSans-5d" x="1079.101562"/>
     </g>
    </g>
   </g>
   <g id="matplotlib.axis_4">
    <g id="ytick_7">
     <g id="line2d_29">
      <g>
       <use xlink:href="#mcab4af566b" x="273.451802" y="209.528731" style="stroke: #000000; stroke-width: 0.8"/>
      </g>
     </g>
    </g>
    <g id="ytick_8">
     <g id="line2d_30">
      <g>
       <use xlink:href="#mcab4af566b" x="273.451802" y="173.069613" style="stroke: #000000; stroke-width: 0.8"/>
      </g>
     </g>
    </g>
    <g id="ytick_9">
     <g id="line2d_31">
      <g>
       <use xlink:href="#mcab4af566b" x="273.451802" y="136.610496" style="stroke: #000000; stroke-width: 0.8"/>
      </g>
     </g>
    </g>
    <g id="ytick_10">
     <g id="line2d_32">
      <g>
       <use xlink:href="#mcab4af566b" x="273.451802" y="100.151379" style="stroke: #000000; stroke-width: 0.8"/>
      </g>
     </g>
    </g>
    <g id="ytick_11">
     <g id="line2d_33">
      <g>
       <use xlink:href="#mcab4af566b" x="273.451802" y="63.692262" style="stroke: #000000; stroke-width: 0.8"/>
      </g>
     </g>
    </g>
    <g id="ytick_12">
     <g id="line2d_34">
      <g>
       <use xlink:href="#mcab4af566b" x="273.451802" y="27.233144" style="stroke: #000000; stroke-width: 0.8"/>
      </g>
     </g>
    </g>
   </g>
   <g id="line2d_35">
    <path d="M 273.451802 209.528731 
L 500.99976 209.528731 
" clip-path="url(#pf9ec96fbd4)" style="fill: none; stroke-dasharray: 2.775,1.2; stroke-dashoffset: 0; stroke: #808080; stroke-opacity: 0.75; stroke-width: 0.75"/>
   </g>
   <g id="line2d_36">
    <path d="M 285.428011 218.64351 
L 285.428011 18.118365 
" clip-path="url(#pf9ec96fbd4)" style="fill: none; stroke-dasharray: 2.775,1.2; stroke-dashoffset: 0; stroke: #808080; stroke-opacity: 0.75; stroke-width: 0.75"/>
   </g>
   <g id="line2d_37">
    <path d="M 285.433117 209.528731 
L 286.842159 207.687361 
L 288.307346 205.845992 
L 289.824709 204.004622 
L 291.391397 202.163252 
L 292.999097 200.321883 
L 294.642686 198.480513 
L 296.316004 196.639144 
L 298.012919 194.797774 
L 299.731019 192.956405 
L 301.467002 191.115035 
L 303.218527 189.273666 
L 304.985876 187.432296 
L 306.765076 185.590926 
L 308.553647 183.749557 
L 310.351338 181.908187 
L 312.151464 180.066818 
L 313.952042 178.225448 
L 315.7484 176.384079 
L 317.539008 174.542709 
L 319.318778 172.701339 
L 321.08813 170.85997 
L 322.84378 169.0186 
L 324.58835 167.177231 
L 326.320107 165.335861 
L 328.042409 163.494492 
L 329.757835 161.653122 
L 331.466973 159.811753 
L 333.173342 157.970383 
L 334.878472 156.129013 
L 336.58129 154.287644 
L 338.283877 152.446274 
L 339.984699 150.604905 
L 341.685179 148.763535 
L 343.385208 146.922166 
L 345.085999 145.080796 
L 346.792162 143.239427 
L 348.503667 141.398057 
L 350.223684 139.556687 
L 351.952312 137.715318 
L 353.690574 135.873948 
L 355.435871 134.032579 
L 357.192262 132.191209 
L 358.955248 130.34984 
L 360.728856 128.50847 
L 362.513116 126.667101 
L 364.309101 124.825731 
L 366.118865 122.984361 
L 367.942179 121.142992 
L 369.779874 119.301622 
L 371.627645 117.460253 
L 373.483684 115.618883 
L 375.342803 113.777514 
L 377.202004 111.936144 
L 379.058173 110.094774 
L 380.909019 108.253405 
L 382.754605 106.412035 
L 384.593581 104.570666 
L 386.425039 102.729296 
L 388.250577 100.887927 
L 390.068399 99.046557 
L 391.876913 97.205188 
L 393.679543 95.363818 
L 395.473653 93.522448 
L 397.261718 91.681079 
L 399.044162 89.839709 
L 400.82294 87.99834 
L 402.596392 86.15697 
L 404.362471 84.315601 
L 406.120771 82.474231 
L 407.865671 80.632862 
L 409.593818 78.791492 
L 411.30151 76.950122 
L 412.98768 75.108753 
L 414.649715 73.267383 
L 416.287881 71.426014 
L 417.90427 69.584644 
L 419.500061 67.743275 
L 421.078811 65.901905 
L 422.643313 64.060536 
L 424.195784 62.219166 
L 425.742105 60.377796 
L 427.287458 58.536427 
L 428.835507 56.695057 
L 430.391236 54.853688 
L 431.957437 53.012318 
L 433.537731 51.170949 
L 435.132196 49.329579 
L 436.742078 47.488209 
L 438.371952 45.64684 
L 440.022188 43.80547 
L 441.696996 41.964101 
L 443.396597 40.122731 
L 445.122075 38.281362 
L 446.875613 36.439992 
L 448.654991 34.598623 
L 450.458646 32.757253 
L 452.284037 30.915883 
L 454.127506 29.074514 
L 455.980626 27.233144 
" clip-path="url(#pf9ec96fbd4)" style="fill: none; stroke-dasharray: 3.7,1.6; stroke-dashoffset: 0; stroke: #008000"/>
   </g>
   <g id="line2d_38">
    <path d="M 285.427102 209.528731 
L 287.376819 207.687361 
L 289.316713 205.845992 
L 291.247211 204.004622 
L 293.16841 202.163252 
L 295.078995 200.321883 
L 296.98236 198.480513 
L 298.876862 196.639144 
L 300.762229 194.797774 
L 302.641691 192.956405 
L 304.511653 191.115035 
L 306.376243 189.273666 
L 308.232303 187.432296 
L 310.084089 185.590926 
L 311.928754 183.749557 
L 313.768174 181.908187 
L 315.602086 180.066818 
L 317.430458 178.225448 
L 319.255586 176.384079 
L 321.075792 174.542709 
L 322.892175 172.701339 
L 324.70387 170.85997 
L 326.513235 169.0186 
L 328.319438 167.177231 
L 330.123358 165.335861 
L 331.924244 163.494492 
L 333.723064 161.653122 
L 335.52081 159.811753 
L 337.316615 157.970383 
L 339.111303 156.129013 
L 340.904303 154.287644 
L 342.697795 152.446274 
L 344.490895 150.604905 
L 346.2837 148.763535 
L 348.075395 146.922166 
L 349.868497 145.080796 
L 351.661624 143.239427 
L 353.456606 141.398057 
L 355.252032 139.556687 
L 357.047896 137.715318 
L 358.846045 135.873948 
L 360.645478 134.032579 
L 362.445641 132.191209 
L 364.249301 130.34984 
L 366.05349 128.50847 
L 367.86086 126.667101 
L 369.670112 124.825731 
L 371.482316 122.984361 
L 373.295639 121.142992 
L 375.113012 119.301622 
L 376.932963 117.460253 
L 378.754577 115.618883 
L 380.579876 113.777514 
L 382.408502 111.936144 
L 384.23903 110.094774 
L 386.073486 108.253405 
L 387.910971 106.412035 
L 389.750303 104.570666 
L 391.593719 102.729296 
L 393.439888 100.887927 
L 395.288676 99.046557 
L 397.141024 97.205188 
L 398.995392 95.363818 
L 400.853859 93.522448 
L 402.715079 91.681079 
L 404.579054 89.839709 
L 406.445279 87.99834 
L 408.314076 86.15697 
L 410.185667 84.315601 
L 412.059848 82.474231 
L 413.935582 80.632862 
L 415.814017 78.791492 
L 417.694392 76.950122 
L 419.57648 75.108753 
L 421.461133 73.267383 
L 423.347046 71.426014 
L 425.233912 69.584644 
L 427.122941 67.743275 
L 429.012059 65.901905 
L 430.901732 64.060536 
L 432.792981 62.219166 
L 434.684785 60.377796 
L 436.577138 58.536427 
L 438.469618 56.695057 
L 440.360041 54.853688 
L 442.25126 53.012318 
L 444.142449 51.170949 
L 446.031384 49.329579 
L 447.92021 47.488209 
L 449.80708 45.64684 
L 451.692504 43.80547 
L 453.576387 41.964101 
L 455.457055 40.122731 
L 457.335754 38.281362 
L 459.21159 36.439992 
L 461.084355 34.598623 
L 462.952449 32.757253 
L 464.81903 30.915883 
L 466.680647 29.074514 
L 468.537255 27.233144 
" clip-path="url(#pf9ec96fbd4)" style="fill: none; stroke: #0000ff; stroke-width: 0.5; stroke-linecap: square"/>
   </g>
   <g id="line2d_39">
    <g clip-path="url(#pf9ec96fbd4)">
     <use xlink:href="#m1308916a1a" x="285.428011" y="209.528731" style="fill: #1f77b4; stroke: #1f77b4"/>
     <use xlink:href="#m1308916a1a" x="286.835013" y="207.207164" style="fill: #1f77b4; stroke: #1f77b4"/>
     <use xlink:href="#m1308916a1a" x="288.68067" y="205.208853" style="fill: #1f77b4; stroke: #1f77b4"/>
     <use xlink:href="#m1308916a1a" x="292.882524" y="202.534643" style="fill: #1f77b4; stroke: #1f77b4"/>
     <use xlink:href="#m1308916a1a" x="294.694999" y="199.97798" style="fill: #1f77b4; stroke: #1f77b4"/>
     <use xlink:href="#m1308916a1a" x="300.953333" y="195.540555" style="fill: #1f77b4; stroke: #1f77b4"/>
     <use xlink:href="#m1308916a1a" x="306.121097" y="190.721099" style="fill: #1f77b4; stroke: #1f77b4"/>
     <use xlink:href="#m1308916a1a" x="311.136161" y="185.75471" style="fill: #1f77b4; stroke: #1f77b4"/>
     <use xlink:href="#m1308916a1a" x="315.584947" y="179.994873" style="fill: #1f77b4; stroke: #1f77b4"/>
     <use xlink:href="#m1308916a1a" x="321.850527" y="174.029329" style="fill: #1f77b4; stroke: #1f77b4"/>
     <use xlink:href="#m1308916a1a" x="328.983744" y="167.094016" style="fill: #1f77b4; stroke: #1f77b4"/>
     <use xlink:href="#m1308916a1a" x="336.515484" y="159.835447" style="fill: #1f77b4; stroke: #1f77b4"/>
     <use xlink:href="#m1308916a1a" x="344.522112" y="151.871592" style="fill: #1f77b4; stroke: #1f77b4"/>
     <use xlink:href="#m1308916a1a" x="353.057143" y="144.142833" style="fill: #1f77b4; stroke: #1f77b4"/>
     <use xlink:href="#m1308916a1a" x="361.719572" y="136.120204" style="fill: #1f77b4; stroke: #1f77b4"/>
     <use xlink:href="#m1308916a1a" x="370.264279" y="128.215123" style="fill: #1f77b4; stroke: #1f77b4"/>
     <use xlink:href="#m1308916a1a" x="379.374811" y="119.075791" style="fill: #1f77b4; stroke: #1f77b4"/>
     <use xlink:href="#m1308916a1a" x="387.177021" y="110.582971" style="fill: #1f77b4; stroke: #1f77b4"/>
     <use xlink:href="#m1308916a1a" x="396.280926" y="102.384019" style="fill: #1f77b4; stroke: #1f77b4"/>
     <use xlink:href="#m1308916a1a" x="404.373556" y="93.656103" style="fill: #1f77b4; stroke: #1f77b4"/>
     <use xlink:href="#m1308916a1a" x="413.757967" y="84.928186" style="fill: #1f77b4; stroke: #1f77b4"/>
     <use xlink:href="#m1308916a1a" x="422.69839" y="76.699846" style="fill: #1f77b4; stroke: #1f77b4"/>
     <use xlink:href="#m1308916a1a" x="430.883162" y="67.560511" style="fill: #1f77b4; stroke: #1f77b4"/>
     <use xlink:href="#m1308916a1a" x="439.549249" y="59.185234" style="fill: #1f77b4; stroke: #1f77b4"/>
     <use xlink:href="#m1308916a1a" x="448.406267" y="51.280148" style="fill: #1f77b4; stroke: #1f77b4"/>
     <use xlink:href="#m1308916a1a" x="456.980054" y="42.434679" style="fill: #1f77b4; stroke: #1f77b4"/>
     <use xlink:href="#m1308916a1a" x="465.731151" y="34.265109" style="fill: #1f77b4; stroke: #1f77b4"/>
    </g>
   </g>
   <g id="line2d_40">
    <g clip-path="url(#pf9ec96fbd4)">
     <use xlink:href="#m7198d81a3d" x="295.292452" y="200.448171" style="fill: #ff7f0e; stroke: #ff7f0e"/>
     <use xlink:href="#m7198d81a3d" x="300.335997" y="194.92343" style="fill: #ff7f0e; stroke: #ff7f0e"/>
     <use xlink:href="#m7198d81a3d" x="306.341606" y="188.781563" style="fill: #ff7f0e; stroke: #ff7f0e"/>
     <use xlink:href="#m7198d81a3d" x="313.261452" y="182.051958" style="fill: #ff7f0e; stroke: #ff7f0e"/>
     <use xlink:href="#m7198d81a3d" x="320.849157" y="174.293811" style="fill: #ff7f0e; stroke: #ff7f0e"/>
     <use xlink:href="#m7198d81a3d" x="328.762044" y="166.241796" style="fill: #ff7f0e; stroke: #ff7f0e"/>
     <use xlink:href="#m7198d81a3d" x="336.695696" y="158.248554" style="fill: #ff7f0e; stroke: #ff7f0e"/>
     <use xlink:href="#m7198d81a3d" x="345.993791" y="150.137765" style="fill: #ff7f0e; stroke: #ff7f0e"/>
     <use xlink:href="#m7198d81a3d" x="353.20072" y="141.615558" style="fill: #ff7f0e; stroke: #ff7f0e"/>
     <use xlink:href="#m7198d81a3d" x="361.284112" y="133.181513" style="fill: #ff7f0e; stroke: #ff7f0e"/>
     <use xlink:href="#m7198d81a3d" x="369.475923" y="124.806241" style="fill: #ff7f0e; stroke: #ff7f0e"/>
     <use xlink:href="#m7198d81a3d" x="377.830585" y="116.195873" style="fill: #ff7f0e; stroke: #ff7f0e"/>
     <use xlink:href="#m7198d81a3d" x="386.120508" y="107.43857" style="fill: #ff7f0e; stroke: #ff7f0e"/>
     <use xlink:href="#m7198d81a3d" x="395.166659" y="98.064142" style="fill: #ff7f0e; stroke: #ff7f0e"/>
     <use xlink:href="#m7198d81a3d" x="403.512745" y="89.777029" style="fill: #ff7f0e; stroke: #ff7f0e"/>
     <use xlink:href="#m7198d81a3d" x="413.014895" y="80.990338" style="fill: #ff7f0e; stroke: #ff7f0e"/>
     <use xlink:href="#m7198d81a3d" x="420.657339" y="72.086098" style="fill: #ff7f0e; stroke: #ff7f0e"/>
     <use xlink:href="#m7198d81a3d" x="429.20175" y="63.681435" style="fill: #ff7f0e; stroke: #ff7f0e"/>
     <use xlink:href="#m7198d81a3d" x="437.083369" y="55.159223" style="fill: #ff7f0e; stroke: #ff7f0e"/>
     <use xlink:href="#m7198d81a3d" x="447.729668" y="46.519463" style="fill: #ff7f0e; stroke: #ff7f0e"/>
     <use xlink:href="#m7198d81a3d" x="454.081065" y="38.291118" style="fill: #ff7f0e; stroke: #ff7f0e"/>
    </g>
   </g>
   <g id="line2d_41">
    <g clip-path="url(#pf9ec96fbd4)">
     <use xlink:href="#m54fe940859" x="286.742891" y="208.323867" style="fill: #2ca02c; stroke: #2ca02c"/>
     <use xlink:href="#m54fe940859" x="288.808801" y="206.736973" style="fill: #2ca02c; stroke: #2ca02c"/>
     <use xlink:href="#m54fe940859" x="289.43156" y="205.473335" style="fill: #2ca02c; stroke: #2ca02c"/>
     <use xlink:href="#m54fe940859" x="291.827977" y="203.269316" style="fill: #2ca02c; stroke: #2ca02c"/>
     <use xlink:href="#m54fe940859" x="293.672484" y="200.624492" style="fill: #2ca02c; stroke: #2ca02c"/>
     <use xlink:href="#m54fe940859" x="297.373482" y="196.569097" style="fill: #2ca02c; stroke: #2ca02c"/>
     <use xlink:href="#m54fe940859" x="303.917212" y="191.250064" style="fill: #2ca02c; stroke: #2ca02c"/>
     <use xlink:href="#m54fe940859" x="308.834487" y="184.432298" style="fill: #2ca02c; stroke: #2ca02c"/>
     <use xlink:href="#m54fe940859" x="316.659135" y="177.114955" style="fill: #2ca02c; stroke: #2ca02c"/>
     <use xlink:href="#m54fe940859" x="325.267358" y="168.945392" style="fill: #2ca02c; stroke: #2ca02c"/>
     <use xlink:href="#m54fe940859" x="332.497482" y="161.363567" style="fill: #2ca02c; stroke: #2ca02c"/>
     <use xlink:href="#m54fe940859" x="339.745484" y="153.194003" style="fill: #2ca02c; stroke: #2ca02c"/>
     <use xlink:href="#m54fe940859" x="347.885432" y="145.02444" style="fill: #2ca02c; stroke: #2ca02c"/>
     <use xlink:href="#m54fe940859" x="356.022291" y="136.707942" style="fill: #2ca02c; stroke: #2ca02c"/>
     <use xlink:href="#m54fe940859" x="364.053327" y="128.156349" style="fill: #2ca02c; stroke: #2ca02c"/>
     <use xlink:href="#m54fe940859" x="372.121722" y="120.192494" style="fill: #2ca02c; stroke: #2ca02c"/>
     <use xlink:href="#m54fe940859" x="378.844914" y="111.523352" style="fill: #2ca02c; stroke: #2ca02c"/>
     <use xlink:href="#m54fe940859" x="388.990759" y="102.942371" style="fill: #2ca02c; stroke: #2ca02c"/>
     <use xlink:href="#m54fe940859" x="397.947933" y="94.214455" style="fill: #2ca02c; stroke: #2ca02c"/>
     <use xlink:href="#m54fe940859" x="404.993974" y="86.13305" style="fill: #2ca02c; stroke: #2ca02c"/>
     <use xlink:href="#m54fe940859" x="413.951693" y="77.757776" style="fill: #2ca02c; stroke: #2ca02c"/>
     <use xlink:href="#m54fe940859" x="422.539606" y="69.353114" style="fill: #2ca02c; stroke: #2ca02c"/>
     <use xlink:href="#m54fe940859" x="429.850146" y="61.154159" style="fill: #2ca02c; stroke: #2ca02c"/>
     <use xlink:href="#m54fe940859" x="436.63484" y="53.307847" style="fill: #2ca02c; stroke: #2ca02c"/>
     <use xlink:href="#m54fe940859" x="444.307176" y="45.520308" style="fill: #2ca02c; stroke: #2ca02c"/>
     <use xlink:href="#m54fe940859" x="452.630226" y="37.732768" style="fill: #2ca02c; stroke: #2ca02c"/>
     <use xlink:href="#m54fe940859" x="459.473963" y="30.20971" style="fill: #2ca02c; stroke: #2ca02c"/>
    </g>
   </g>
   <g id="patch_11">
    <path d="M 273.451802 218.64351 
L 273.451802 18.118365 
" style="fill: none; stroke: #000000; stroke-width: 0.8; stroke-linejoin: miter; stroke-linecap: square"/>
   </g>
   <g id="patch_12">
    <path d="M 500.99976 218.64351 
L 500.99976 18.118365 
" style="fill: none; stroke: #000000; stroke-width: 0.8; stroke-linejoin: miter; stroke-linecap: square"/>
   </g>
   <g id="patch_13">
    <path d="M 273.451802 218.64351 
L 500.99976 218.64351 
" style="fill: none; stroke: #000000; stroke-width: 0.8; stroke-linejoin: miter; stroke-linecap: square"/>
   </g>
   <g id="patch_14">
    <path d="M 273.451802 18.118365 
L 500.99976 18.118365 
" style="fill: none; stroke: #000000; stroke-width: 0.8; stroke-linejoin: miter; stroke-linecap: square"/>
   </g>
   <g id="text_28">
    <!-- Predictions ($45^\circ$) -->
    <g transform="translate(335.325781 12.118365) scale(0.12 -0.12)">
     <use xlink:href="#DejaVuSans-50" transform="translate(0 0.015625)"/>
     <use xlink:href="#DejaVuSans-72" transform="translate(60.302734 0.015625)"/>
     <use xlink:href="#DejaVuSans-65" transform="translate(101.416016 0.015625)"/>
     <use xlink:href="#DejaVuSans-64" transform="translate(162.939453 0.015625)"/>
     <use xlink:href="#DejaVuSans-69" transform="translate(226.416016 0.015625)"/>
     <use xlink:href="#DejaVuSans-63" transform="translate(254.199219 0.015625)"/>
     <use xlink:href="#DejaVuSans-74" transform="translate(309.179688 0.015625)"/>
     <use xlink:href="#DejaVuSans-69" transform="translate(348.388672 0.015625)"/>
     <use xlink:href="#DejaVuSans-6f" transform="translate(376.171875 0.015625)"/>
     <use xlink:href="#DejaVuSans-6e" transform="translate(437.353516 0.015625)"/>
     <use xlink:href="#DejaVuSans-73" transform="translate(500.732422 0.015625)"/>
     <use xlink:href="#DejaVuSans-20" transform="translate(552.832031 0.015625)"/>
     <use xlink:href="#DejaVuSans-28" transform="translate(584.619141 0.015625)"/>
     <use xlink:href="#DejaVuSans-34" transform="translate(623.632812 0.015625)"/>
     <use xlink:href="#DejaVuSans-35" transform="translate(687.255859 0.015625)"/>
     <use xlink:href="#DejaVuSans-2218" transform="translate(765.473633 38.296875) scale(0.7)"/>
     <use xlink:href="#DejaVuSans-29" transform="translate(825.664062 0.015625)"/>
    </g>
   </g>
  </g>
 </g>
 <defs>
  <clipPath id="p046b01d167">
   <rect x="36.403365" y="18.118365" width="227.547957" height="200.525145"/>
  </clipPath>
  <clipPath id="pf9ec96fbd4">
   <rect x="273.451802" y="18.118365" width="227.547958" height="200.525145"/>
  </clipPath>
 </defs>
</svg>
