<?xml version="1.0" encoding="utf-8" standalone="no"?>
<!DOCTYPE svg PUBLIC "-//W3C//DTD SVG 1.1//EN"
  "http://www.w3.org/Graphics/SVG/1.1/DTD/svg11.dtd">
<svg xmlns:xlink="http://www.w3.org/1999/xlink" width="1440pt" height="288pt" viewBox="0 0 1440 288" xmlns="http://www.w3.org/2000/svg" version="1.1">
 <metadata>
  <rdf:RDF xmlns:dc="http://purl.org/dc/elements/1.1/" xmlns:cc="http://creativecommons.org/ns#" xmlns:rdf="http://www.w3.org/1999/02/22-rdf-syntax-ns#">
   <cc:Work>
    <dc:type rdf:resource="http://purl.org/dc/dcmitype/StillImage"/>
    <dc:date>2024-11-24T11:31:04.881301</dc:date>
    <dc:format>image/svg+xml</dc:format>
    <dc:creator>
     <cc:Agent>
      <dc:title>Matplotlib v3.9.2, https://matplotlib.org/</dc:title>
     </cc:Agent>
    </dc:creator>
   </cc:Work>
  </rdf:RDF>
 </metadata>
 <defs>
  <style type="text/css">*{stroke-linejoin: round; stroke-linecap: butt}</style>
 </defs>
 <g id="figure_1">
  <g id="patch_1">
   <path d="M 0 288 
L 1440 288 
L 1440 0 
L 0 0 
z
" style="fill: #ffffff"/>
  </g>
  <g id="axes_1">
   <g id="patch_2">
    <path d="M 36.457115 246.90101 
L 275.917431 246.90101 
L 275.917431 16.638052 
L 36.457115 16.638052 
z
" style="fill: #ffffff"/>
   </g>
   <g id="patch_3">
    <path d="M 47.341675 246.90101 
L 49.836162 246.90101 
L 49.836162 244.935974 
L 47.341675 244.935974 
z
" clip-path="url(#pce187113ab)" style="fill: #1f77b4"/>
   </g>
   <g id="patch_4">
    <path d="M 50.113327 246.90101 
L 52.607814 246.90101 
L 52.607814 246.508003 
L 50.113327 246.508003 
z
" clip-path="url(#pce187113ab)" style="fill: #1f77b4"/>
   </g>
   <g id="patch_5">
    <path d="M 52.884979 246.90101 
L 55.379466 246.90101 
L 55.379466 244.542966 
L 52.884979 244.542966 
z
" clip-path="url(#pce187113ab)" style="fill: #1f77b4"/>
   </g>
   <g id="patch_6">
    <path d="M 55.656631 246.90101 
L 58.151118 246.90101 
L 58.151118 241.398908 
L 55.656631 241.398908 
z
" clip-path="url(#pce187113ab)" style="fill: #1f77b4"/>
   </g>
   <g id="patch_7">
    <path d="M 58.428283 246.90101 
L 60.92277 246.90101 
L 60.92277 233.538763 
L 58.428283 233.538763 
z
" clip-path="url(#pce187113ab)" style="fill: #1f77b4"/>
   </g>
   <g id="patch_8">
    <path d="M 61.199935 246.90101 
L 63.694422 246.90101 
L 63.694422 227.643654 
L 61.199935 227.643654 
z
" clip-path="url(#pce187113ab)" style="fill: #1f77b4"/>
   </g>
   <g id="patch_9">
    <path d="M 63.971587 246.90101 
L 66.466074 246.90101 
L 66.466074 209.958327 
L 63.971587 209.958327 
z
" clip-path="url(#pce187113ab)" style="fill: #1f77b4"/>
   </g>
   <g id="patch_10">
    <path d="M 66.743239 246.90101 
L 69.237726 246.90101 
L 69.237726 191.093978 
L 66.743239 191.093978 
z
" clip-path="url(#pce187113ab)" style="fill: #1f77b4"/>
   </g>
   <g id="patch_11">
    <path d="M 69.514891 246.90101 
L 72.009378 246.90101 
L 72.009378 155.723324 
L 69.514891 155.723324 
z
" clip-path="url(#pce187113ab)" style="fill: #1f77b4"/>
   </g>
   <g id="patch_12">
    <path d="M 72.286543 246.90101 
L 74.78103 246.90101 
L 74.78103 124.282743 
L 72.286543 124.282743 
z
" clip-path="url(#pce187113ab)" style="fill: #1f77b4"/>
   </g>
   <g id="patch_13">
    <path d="M 75.058195 246.90101 
L 77.552682 246.90101 
L 77.552682 83.802994 
L 75.058195 83.802994 
z
" clip-path="url(#pce187113ab)" style="fill: #1f77b4"/>
   </g>
   <g id="patch_14">
    <path d="M 77.829847 246.90101 
L 80.324334 246.90101 
L 80.324334 39.393173 
L 77.829847 39.393173 
z
" clip-path="url(#pce187113ab)" style="fill: #1f77b4"/>
   </g>
   <g id="patch_15">
    <path d="M 80.601499 246.90101 
L 83.095985 246.90101 
L 83.095985 27.602955 
L 80.601499 27.602955 
z
" clip-path="url(#pce187113ab)" style="fill: #1f77b4"/>
   </g>
   <g id="patch_16">
    <path d="M 83.373151 246.90101 
L 85.867637 246.90101 
L 85.867637 33.105057 
L 83.373151 33.105057 
z
" clip-path="url(#pce187113ab)" style="fill: #1f77b4"/>
   </g>
   <g id="patch_17">
    <path d="M 86.144803 246.90101 
L 88.639289 246.90101 
L 88.639289 40.965202 
L 86.144803 40.965202 
z
" clip-path="url(#pce187113ab)" style="fill: #1f77b4"/>
   </g>
   <g id="patch_18">
    <path d="M 88.916455 246.90101 
L 91.410941 246.90101 
L 91.410941 83.409987 
L 88.916455 83.409987 
z
" clip-path="url(#pce187113ab)" style="fill: #1f77b4"/>
   </g>
   <g id="patch_19">
    <path d="M 91.688107 246.90101 
L 94.182593 246.90101 
L 94.182593 105.811401 
L 91.688107 105.811401 
z
" clip-path="url(#pce187113ab)" style="fill: #1f77b4"/>
   </g>
   <g id="patch_20">
    <path d="M 94.459759 246.90101 
L 96.954245 246.90101 
L 96.954245 148.649193 
L 94.459759 148.649193 
z
" clip-path="url(#pce187113ab)" style="fill: #1f77b4"/>
   </g>
   <g id="patch_21">
    <path d="M 97.231411 246.90101 
L 99.725897 246.90101 
L 99.725897 180.089775 
L 97.231411 180.089775 
z
" clip-path="url(#pce187113ab)" style="fill: #1f77b4"/>
   </g>
   <g id="patch_22">
    <path d="M 100.003063 246.90101 
L 102.497549 246.90101 
L 102.497549 198.168109 
L 100.003063 198.168109 
z
" clip-path="url(#pce187113ab)" style="fill: #1f77b4"/>
   </g>
   <g id="patch_23">
    <path d="M 102.774715 246.90101 
L 105.269201 246.90101 
L 105.269201 215.460429 
L 102.774715 215.460429 
z
" clip-path="url(#pce187113ab)" style="fill: #1f77b4"/>
   </g>
   <g id="patch_24">
    <path d="M 105.546367 246.90101 
L 108.040853 246.90101 
L 108.040853 226.464632 
L 105.546367 226.464632 
z
" clip-path="url(#pce187113ab)" style="fill: #1f77b4"/>
   </g>
   <g id="patch_25">
    <path d="M 108.318019 246.90101 
L 110.812505 246.90101 
L 110.812505 236.289814 
L 108.318019 236.289814 
z
" clip-path="url(#pce187113ab)" style="fill: #1f77b4"/>
   </g>
   <g id="patch_26">
    <path d="M 111.089671 246.90101 
L 113.584157 246.90101 
L 113.584157 239.826879 
L 111.089671 239.826879 
z
" clip-path="url(#pce187113ab)" style="fill: #1f77b4"/>
   </g>
   <g id="patch_27">
    <path d="M 113.861323 246.90101 
L 116.355809 246.90101 
L 116.355809 239.826879 
L 113.861323 239.826879 
z
" clip-path="url(#pce187113ab)" style="fill: #1f77b4"/>
   </g>
   <g id="patch_28">
    <path d="M 116.632975 246.90101 
L 119.127461 246.90101 
L 119.127461 243.756952 
L 116.632975 243.756952 
z
" clip-path="url(#pce187113ab)" style="fill: #1f77b4"/>
   </g>
   <g id="patch_29">
    <path d="M 119.404627 246.90101 
L 121.899113 246.90101 
L 121.899113 242.57793 
L 119.404627 242.57793 
z
" clip-path="url(#pce187113ab)" style="fill: #1f77b4"/>
   </g>
   <g id="patch_30">
    <path d="M 122.176279 246.90101 
L 124.670765 246.90101 
L 124.670765 246.508003 
L 122.176279 246.508003 
z
" clip-path="url(#pce187113ab)" style="fill: #1f77b4"/>
   </g>
   <g id="patch_31">
    <path d="M 124.947931 246.90101 
L 127.442417 246.90101 
L 127.442417 245.328981 
L 124.947931 245.328981 
z
" clip-path="url(#pce187113ab)" style="fill: #1f77b4"/>
   </g>
   <g id="patch_32">
    <path d="M 127.719583 246.90101 
L 130.214069 246.90101 
L 130.214069 245.328981 
L 127.719583 245.328981 
z
" clip-path="url(#pce187113ab)" style="fill: #1f77b4"/>
   </g>
   <g id="matplotlib.axis_1">
    <g id="xtick_1">
     <g id="line2d_1">
      <defs>
       <path id="mc6237443bc" d="M 0 0 
L 0 3.5 
" style="stroke: #000000; stroke-width: 0.8"/>
      </defs>
      <g>
       <use xlink:href="#mc6237443bc" x="70.780961" y="246.90101" style="stroke: #000000; stroke-width: 0.8"/>
      </g>
     </g>
     <g id="text_1">
      <!-- 1.35 -->
      <g transform="translate(55.195023 264.538822) scale(0.14 -0.14)">
       <defs>
        <path id="DejaVuSans-31" d="M 794 531 
L 1825 531 
L 1825 4091 
L 703 3866 
L 703 4441 
L 1819 4666 
L 2450 4666 
L 2450 531 
L 3481 531 
L 3481 0 
L 794 0 
L 794 531 
z
" transform="scale(0.015625)"/>
        <path id="DejaVuSans-2e" d="M 684 794 
L 1344 794 
L 1344 0 
L 684 0 
L 684 794 
z
" transform="scale(0.015625)"/>
        <path id="DejaVuSans-33" d="M 2597 2516 
Q 3050 2419 3304 2112 
Q 3559 1806 3559 1356 
Q 3559 666 3084 287 
Q 2609 -91 1734 -91 
Q 1441 -91 1130 -33 
Q 819 25 488 141 
L 488 750 
Q 750 597 1062 519 
Q 1375 441 1716 441 
Q 2309 441 2620 675 
Q 2931 909 2931 1356 
Q 2931 1769 2642 2001 
Q 2353 2234 1838 2234 
L 1294 2234 
L 1294 2753 
L 1863 2753 
Q 2328 2753 2575 2939 
Q 2822 3125 2822 3475 
Q 2822 3834 2567 4026 
Q 2313 4219 1838 4219 
Q 1578 4219 1281 4162 
Q 984 4106 628 3988 
L 628 4550 
Q 988 4650 1302 4700 
Q 1616 4750 1894 4750 
Q 2613 4750 3031 4423 
Q 3450 4097 3450 3541 
Q 3450 3153 3228 2886 
Q 3006 2619 2597 2516 
z
" transform="scale(0.015625)"/>
        <path id="DejaVuSans-35" d="M 691 4666 
L 3169 4666 
L 3169 4134 
L 1269 4134 
L 1269 2991 
Q 1406 3038 1543 3061 
Q 1681 3084 1819 3084 
Q 2600 3084 3056 2656 
Q 3513 2228 3513 1497 
Q 3513 744 3044 326 
Q 2575 -91 1722 -91 
Q 1428 -91 1123 -41 
Q 819 9 494 109 
L 494 744 
Q 775 591 1075 516 
Q 1375 441 1709 441 
Q 2250 441 2565 725 
Q 2881 1009 2881 1497 
Q 2881 1984 2565 2268 
Q 2250 2553 1709 2553 
Q 1456 2553 1204 2497 
Q 953 2441 691 2322 
L 691 4666 
z
" transform="scale(0.015625)"/>
       </defs>
       <use xlink:href="#DejaVuSans-31"/>
       <use xlink:href="#DejaVuSans-2e" x="63.623047"/>
       <use xlink:href="#DejaVuSans-33" x="95.410156"/>
       <use xlink:href="#DejaVuSans-35" x="159.033203"/>
      </g>
     </g>
    </g>
    <g id="xtick_2">
     <g id="line2d_2">
      <g>
       <use xlink:href="#mc6237443bc" x="119.834473" y="246.90101" style="stroke: #000000; stroke-width: 0.8"/>
      </g>
     </g>
     <g id="text_2">
      <!-- 1.40 -->
      <g transform="translate(104.248536 264.538822) scale(0.14 -0.14)">
       <defs>
        <path id="DejaVuSans-34" d="M 2419 4116 
L 825 1625 
L 2419 1625 
L 2419 4116 
z
M 2253 4666 
L 3047 4666 
L 3047 1625 
L 3713 1625 
L 3713 1100 
L 3047 1100 
L 3047 0 
L 2419 0 
L 2419 1100 
L 313 1100 
L 313 1709 
L 2253 4666 
z
" transform="scale(0.015625)"/>
        <path id="DejaVuSans-30" d="M 2034 4250 
Q 1547 4250 1301 3770 
Q 1056 3291 1056 2328 
Q 1056 1369 1301 889 
Q 1547 409 2034 409 
Q 2525 409 2770 889 
Q 3016 1369 3016 2328 
Q 3016 3291 2770 3770 
Q 2525 4250 2034 4250 
z
M 2034 4750 
Q 2819 4750 3233 4129 
Q 3647 3509 3647 2328 
Q 3647 1150 3233 529 
Q 2819 -91 2034 -91 
Q 1250 -91 836 529 
Q 422 1150 422 2328 
Q 422 3509 836 4129 
Q 1250 4750 2034 4750 
z
" transform="scale(0.015625)"/>
       </defs>
       <use xlink:href="#DejaVuSans-31"/>
       <use xlink:href="#DejaVuSans-2e" x="63.623047"/>
       <use xlink:href="#DejaVuSans-34" x="95.410156"/>
       <use xlink:href="#DejaVuSans-30" x="159.033203"/>
      </g>
     </g>
    </g>
    <g id="xtick_3">
     <g id="line2d_3">
      <g>
       <use xlink:href="#mc6237443bc" x="168.887986" y="246.90101" style="stroke: #000000; stroke-width: 0.8"/>
      </g>
     </g>
     <g id="text_3">
      <!-- 1.45 -->
      <g transform="translate(153.302049 264.538822) scale(0.14 -0.14)">
       <use xlink:href="#DejaVuSans-31"/>
       <use xlink:href="#DejaVuSans-2e" x="63.623047"/>
       <use xlink:href="#DejaVuSans-34" x="95.410156"/>
       <use xlink:href="#DejaVuSans-35" x="159.033203"/>
      </g>
     </g>
    </g>
    <g id="xtick_4">
     <g id="line2d_4">
      <g>
       <use xlink:href="#mc6237443bc" x="217.941499" y="246.90101" style="stroke: #000000; stroke-width: 0.8"/>
      </g>
     </g>
     <g id="text_4">
      <!-- 1.50 -->
      <g transform="translate(202.355561 264.538822) scale(0.14 -0.14)">
       <use xlink:href="#DejaVuSans-31"/>
       <use xlink:href="#DejaVuSans-2e" x="63.623047"/>
       <use xlink:href="#DejaVuSans-35" x="95.410156"/>
       <use xlink:href="#DejaVuSans-30" x="159.033203"/>
      </g>
     </g>
    </g>
    <g id="xtick_5">
     <g id="line2d_5">
      <g>
       <use xlink:href="#mc6237443bc" x="266.995012" y="246.90101" style="stroke: #000000; stroke-width: 0.8"/>
      </g>
     </g>
     <g id="text_5">
      <!-- 1.55 -->
      <g transform="translate(251.409074 264.538822) scale(0.14 -0.14)">
       <use xlink:href="#DejaVuSans-31"/>
       <use xlink:href="#DejaVuSans-2e" x="63.623047"/>
       <use xlink:href="#DejaVuSans-35" x="95.410156"/>
       <use xlink:href="#DejaVuSans-35" x="159.033203"/>
      </g>
     </g>
    </g>
    <g id="text_6">
     <!-- $E_1$ [MPa] -->
     <g transform="translate(126.157273 282.088197) scale(0.14 -0.14)">
      <defs>
       <path id="DejaVuSans-Oblique-45" d="M 1081 4666 
L 4031 4666 
L 3928 4134 
L 1606 4134 
L 1338 2753 
L 3566 2753 
L 3463 2222 
L 1234 2222 
L 909 531 
L 3284 531 
L 3181 0 
L 172 0 
L 1081 4666 
z
" transform="scale(0.015625)"/>
       <path id="DejaVuSans-20" transform="scale(0.015625)"/>
       <path id="DejaVuSans-5b" d="M 550 4863 
L 1875 4863 
L 1875 4416 
L 1125 4416 
L 1125 -397 
L 1875 -397 
L 1875 -844 
L 550 -844 
L 550 4863 
z
" transform="scale(0.015625)"/>
       <path id="DejaVuSans-4d" d="M 628 4666 
L 1569 4666 
L 2759 1491 
L 3956 4666 
L 4897 4666 
L 4897 0 
L 4281 0 
L 4281 4097 
L 3078 897 
L 2444 897 
L 1241 4097 
L 1241 0 
L 628 0 
L 628 4666 
z
" transform="scale(0.015625)"/>
       <path id="DejaVuSans-50" d="M 1259 4147 
L 1259 2394 
L 2053 2394 
Q 2494 2394 2734 2622 
Q 2975 2850 2975 3272 
Q 2975 3691 2734 3919 
Q 2494 4147 2053 4147 
L 1259 4147 
z
M 628 4666 
L 2053 4666 
Q 2838 4666 3239 4311 
Q 3641 3956 3641 3272 
Q 3641 2581 3239 2228 
Q 2838 1875 2053 1875 
L 1259 1875 
L 1259 0 
L 628 0 
L 628 4666 
z
" transform="scale(0.015625)"/>
       <path id="DejaVuSans-61" d="M 2194 1759 
Q 1497 1759 1228 1600 
Q 959 1441 959 1056 
Q 959 750 1161 570 
Q 1363 391 1709 391 
Q 2188 391 2477 730 
Q 2766 1069 2766 1631 
L 2766 1759 
L 2194 1759 
z
M 3341 1997 
L 3341 0 
L 2766 0 
L 2766 531 
Q 2569 213 2275 61 
Q 1981 -91 1556 -91 
Q 1019 -91 701 211 
Q 384 513 384 1019 
Q 384 1609 779 1909 
Q 1175 2209 1959 2209 
L 2766 2209 
L 2766 2266 
Q 2766 2663 2505 2880 
Q 2244 3097 1772 3097 
Q 1472 3097 1187 3025 
Q 903 2953 641 2809 
L 641 3341 
Q 956 3463 1253 3523 
Q 1550 3584 1831 3584 
Q 2591 3584 2966 3190 
Q 3341 2797 3341 1997 
z
" transform="scale(0.015625)"/>
       <path id="DejaVuSans-5d" d="M 1947 4863 
L 1947 -844 
L 622 -844 
L 622 -397 
L 1369 -397 
L 1369 4416 
L 622 4416 
L 622 4863 
L 1947 4863 
z
" transform="scale(0.015625)"/>
      </defs>
      <use xlink:href="#DejaVuSans-Oblique-45" transform="translate(0 0.015625)"/>
      <use xlink:href="#DejaVuSans-31" transform="translate(63.183594 -16.390625) scale(0.7)"/>
      <use xlink:href="#DejaVuSans-20" transform="translate(110.454102 0.015625)"/>
      <use xlink:href="#DejaVuSans-5b" transform="translate(142.241211 0.015625)"/>
      <use xlink:href="#DejaVuSans-4d" transform="translate(181.254883 0.015625)"/>
      <use xlink:href="#DejaVuSans-50" transform="translate(267.53418 0.015625)"/>
      <use xlink:href="#DejaVuSans-61" transform="translate(327.836914 0.015625)"/>
      <use xlink:href="#DejaVuSans-5d" transform="translate(389.116211 0.015625)"/>
     </g>
    </g>
    <g id="text_7">
     <!-- 1e5 -->
     <g transform="translate(249.488056 281.088197) scale(0.14 -0.14)">
      <defs>
       <path id="DejaVuSans-65" d="M 3597 1894 
L 3597 1613 
L 953 1613 
Q 991 1019 1311 708 
Q 1631 397 2203 397 
Q 2534 397 2845 478 
Q 3156 559 3463 722 
L 3463 178 
Q 3153 47 2828 -22 
Q 2503 -91 2169 -91 
Q 1331 -91 842 396 
Q 353 884 353 1716 
Q 353 2575 817 3079 
Q 1281 3584 2069 3584 
Q 2775 3584 3186 3129 
Q 3597 2675 3597 1894 
z
M 3022 2063 
Q 3016 2534 2758 2815 
Q 2500 3097 2075 3097 
Q 1594 3097 1305 2825 
Q 1016 2553 972 2059 
L 3022 2063 
z
" transform="scale(0.015625)"/>
      </defs>
      <use xlink:href="#DejaVuSans-31"/>
      <use xlink:href="#DejaVuSans-65" x="63.623047"/>
      <use xlink:href="#DejaVuSans-35" x="125.146484"/>
     </g>
    </g>
   </g>
   <g id="matplotlib.axis_2">
    <g id="ytick_1">
     <g id="line2d_6">
      <defs>
       <path id="m7b8153d1db" d="M 0 0 
L -3.5 0 
" style="stroke: #000000; stroke-width: 0.8"/>
      </defs>
      <g>
       <use xlink:href="#m7b8153d1db" x="36.457115" y="246.90101" style="stroke: #000000; stroke-width: 0.8"/>
      </g>
     </g>
     <g id="text_8">
      <!-- 0 -->
      <g transform="translate(20.549615 252.219916) scale(0.14 -0.14)">
       <use xlink:href="#DejaVuSans-30"/>
      </g>
     </g>
    </g>
    <g id="ytick_2">
     <g id="line2d_7">
      <g>
       <use xlink:href="#m7b8153d1db" x="36.457115" y="191.386159" style="stroke: #000000; stroke-width: 0.8"/>
      </g>
     </g>
     <g id="text_9">
      <!-- 1 -->
      <g transform="translate(20.549615 196.705066) scale(0.14 -0.14)">
       <use xlink:href="#DejaVuSans-31"/>
      </g>
     </g>
    </g>
    <g id="ytick_3">
     <g id="line2d_8">
      <g>
       <use xlink:href="#m7b8153d1db" x="36.457115" y="135.871309" style="stroke: #000000; stroke-width: 0.8"/>
      </g>
     </g>
     <g id="text_10">
      <!-- 2 -->
      <g transform="translate(20.549615 141.190215) scale(0.14 -0.14)">
       <defs>
        <path id="DejaVuSans-32" d="M 1228 531 
L 3431 531 
L 3431 0 
L 469 0 
L 469 531 
Q 828 903 1448 1529 
Q 2069 2156 2228 2338 
Q 2531 2678 2651 2914 
Q 2772 3150 2772 3378 
Q 2772 3750 2511 3984 
Q 2250 4219 1831 4219 
Q 1534 4219 1204 4116 
Q 875 4013 500 3803 
L 500 4441 
Q 881 4594 1212 4672 
Q 1544 4750 1819 4750 
Q 2544 4750 2975 4387 
Q 3406 4025 3406 3419 
Q 3406 3131 3298 2873 
Q 3191 2616 2906 2266 
Q 2828 2175 2409 1742 
Q 1991 1309 1228 531 
z
" transform="scale(0.015625)"/>
       </defs>
       <use xlink:href="#DejaVuSans-32"/>
      </g>
     </g>
    </g>
    <g id="ytick_4">
     <g id="line2d_9">
      <g>
       <use xlink:href="#m7b8153d1db" x="36.457115" y="80.356458" style="stroke: #000000; stroke-width: 0.8"/>
      </g>
     </g>
     <g id="text_11">
      <!-- 3 -->
      <g transform="translate(20.549615 85.675365) scale(0.14 -0.14)">
       <use xlink:href="#DejaVuSans-33"/>
      </g>
     </g>
    </g>
    <g id="ytick_5">
     <g id="line2d_10">
      <g>
       <use xlink:href="#m7b8153d1db" x="36.457115" y="24.841608" style="stroke: #000000; stroke-width: 0.8"/>
      </g>
     </g>
     <g id="text_12">
      <!-- 4 -->
      <g transform="translate(20.549615 30.160514) scale(0.14 -0.14)">
       <use xlink:href="#DejaVuSans-34"/>
      </g>
     </g>
    </g>
    <g id="text_13">
     <!-- PDF -->
     <g transform="translate(13.638053 145.406406) rotate(-90) scale(0.14 -0.14)">
      <defs>
       <path id="DejaVuSans-44" d="M 1259 4147 
L 1259 519 
L 2022 519 
Q 2988 519 3436 956 
Q 3884 1394 3884 2338 
Q 3884 3275 3436 3711 
Q 2988 4147 2022 4147 
L 1259 4147 
z
M 628 4666 
L 1925 4666 
Q 3281 4666 3915 4102 
Q 4550 3538 4550 2338 
Q 4550 1131 3912 565 
Q 3275 0 1925 0 
L 628 0 
L 628 4666 
z
" transform="scale(0.015625)"/>
       <path id="DejaVuSans-46" d="M 628 4666 
L 3309 4666 
L 3309 4134 
L 1259 4134 
L 1259 2759 
L 3109 2759 
L 3109 2228 
L 1259 2228 
L 1259 0 
L 628 0 
L 628 4666 
z
" transform="scale(0.015625)"/>
      </defs>
      <use xlink:href="#DejaVuSans-50"/>
      <use xlink:href="#DejaVuSans-44" x="60.302734"/>
      <use xlink:href="#DejaVuSans-46" x="137.304688"/>
     </g>
    </g>
    <g id="text_14">
     <!-- 1e−4 -->
     <g transform="translate(36.457115 13.638052) scale(0.14 -0.14)">
      <defs>
       <path id="DejaVuSans-2212" d="M 678 2272 
L 4684 2272 
L 4684 1741 
L 678 1741 
L 678 2272 
z
" transform="scale(0.015625)"/>
      </defs>
      <use xlink:href="#DejaVuSans-31"/>
      <use xlink:href="#DejaVuSans-65" x="63.623047"/>
      <use xlink:href="#DejaVuSans-2212" x="125.146484"/>
      <use xlink:href="#DejaVuSans-34" x="208.935547"/>
     </g>
    </g>
   </g>
   <g id="line2d_11">
    <path d="M 147.30444 245.670843 
L 148.493617 245.42826 
L 149.682793 245.144305 
L 150.871969 244.813284 
L 152.061145 244.428984 
L 153.250321 243.984677 
L 154.439497 243.473125 
L 155.628673 242.886616 
L 156.817849 242.216992 
L 158.007025 241.455708 
L 159.196201 240.593903 
L 160.385377 239.622489 
L 161.574553 238.532253 
L 162.763729 237.313993 
L 163.952905 235.958653 
L 165.142082 234.457496 
L 166.331258 232.80228 
L 167.520434 230.985456 
L 168.70961 229.00038 
L 169.898786 226.841531 
L 171.087962 224.504735 
L 172.277138 221.987396 
L 173.466314 219.288718 
L 174.65549 216.409917 
L 175.844666 213.354425 
L 177.033842 210.128063 
L 178.223018 206.739194 
L 179.412194 203.198835 
L 180.60137 199.520737 
L 181.790546 195.721414 
L 182.979723 191.82012 
L 184.168899 187.83878 
L 185.358075 183.801858 
L 186.547251 179.736167 
L 187.736427 175.670627 
L 188.925603 171.635961 
L 190.114779 167.66434 
L 191.303955 163.788982 
L 192.493131 160.043708 
L 193.682307 156.462461 
L 194.871483 153.078806 
L 196.060659 149.92541 
L 197.249835 147.033525 
L 198.439011 144.432471 
L 199.628187 142.149143 
L 200.817364 140.20755 
L 202.00654 138.628397 
L 203.195716 137.428713 
L 204.384892 136.621548 
L 205.574068 136.215736 
L 206.763244 136.215736 
L 207.95242 136.621548 
L 209.141596 137.428713 
L 210.330772 138.628397 
L 211.519948 140.20755 
L 212.709124 142.149143 
L 213.8983 144.432471 
L 215.087476 147.033525 
L 216.276652 149.92541 
L 217.465828 153.078806 
L 218.655005 156.462461 
L 219.844181 160.043708 
L 221.033357 163.788982 
L 222.222533 167.66434 
L 223.411709 171.635961 
L 224.600885 175.670627 
L 225.790061 179.736167 
L 226.979237 183.801858 
L 228.168413 187.83878 
L 229.357589 191.82012 
L 230.546765 195.721414 
L 231.735941 199.520737 
L 232.925117 203.198835 
L 234.114293 206.739194 
L 235.303469 210.128063 
L 236.492646 213.354425 
L 237.681822 216.409917 
L 238.870998 219.288718 
L 240.060174 221.987396 
L 241.24935 224.504735 
L 242.438526 226.841531 
L 243.627702 229.00038 
L 244.816878 230.985456 
L 246.006054 232.80228 
L 247.19523 234.457496 
L 248.384406 235.958653 
L 249.573582 237.313993 
L 250.762758 238.532253 
L 251.951934 239.622489 
L 253.141111 240.593903 
L 254.330287 241.455708 
L 255.519463 242.216992 
L 256.708639 242.886616 
L 257.897815 243.473125 
L 259.086991 243.984677 
L 260.276167 244.428984 
L 261.465343 244.813284 
L 262.654519 245.144305 
L 263.843695 245.42826 
L 265.032871 245.670843 
" clip-path="url(#pce187113ab)" style="fill: none; stroke: #2ca02c; stroke-width: 1.5; stroke-linecap: square"/>
   </g>
   <g id="patch_33">
    <path d="M 36.457115 246.90101 
L 36.457115 16.638052 
" style="fill: none; stroke: #000000; stroke-width: 0.8; stroke-linejoin: miter; stroke-linecap: square"/>
   </g>
   <g id="patch_34">
    <path d="M 275.917431 246.90101 
L 275.917431 16.638052 
" style="fill: none; stroke: #000000; stroke-width: 0.8; stroke-linejoin: miter; stroke-linecap: square"/>
   </g>
   <g id="patch_35">
    <path d="M 36.457115 246.90101 
L 275.917431 246.90101 
" style="fill: none; stroke: #000000; stroke-width: 0.8; stroke-linejoin: miter; stroke-linecap: square"/>
   </g>
   <g id="patch_36">
    <path d="M 36.457115 16.638052 
L 275.917431 16.638052 
" style="fill: none; stroke: #000000; stroke-width: 0.8; stroke-linejoin: miter; stroke-linecap: square"/>
   </g>
   <g id="legend_1">
    <g id="patch_37">
     <path d="M 159.454931 68.936802 
L 266.117431 68.936802 
Q 268.917431 68.936802 268.917431 66.136802 
L 268.917431 26.438053 
Q 268.917431 23.638053 266.117431 23.638053 
L 159.454931 23.638053 
Q 156.654931 23.638053 156.654931 26.438053 
L 156.654931 66.136802 
Q 156.654931 68.936802 159.454931 68.936802 
z
" style="fill: #ffffff; opacity: 0.8; stroke: #cccccc; stroke-linejoin: miter"/>
    </g>
    <g id="line2d_12">
     <path d="M 162.254931 34.975865 
L 176.254931 34.975865 
L 190.254931 34.975865 
" style="fill: none; stroke: #2ca02c; stroke-width: 1.5; stroke-linecap: square"/>
    </g>
    <g id="text_15">
     <!-- Prior -->
     <g transform="translate(201.454931 39.875865) scale(0.14 -0.14)">
      <defs>
       <path id="DejaVuSans-72" d="M 2631 2963 
Q 2534 3019 2420 3045 
Q 2306 3072 2169 3072 
Q 1681 3072 1420 2755 
Q 1159 2438 1159 1844 
L 1159 0 
L 581 0 
L 581 3500 
L 1159 3500 
L 1159 2956 
Q 1341 3275 1631 3429 
Q 1922 3584 2338 3584 
Q 2397 3584 2469 3576 
Q 2541 3569 2628 3553 
L 2631 2963 
z
" transform="scale(0.015625)"/>
       <path id="DejaVuSans-69" d="M 603 3500 
L 1178 3500 
L 1178 0 
L 603 0 
L 603 3500 
z
M 603 4863 
L 1178 4863 
L 1178 4134 
L 603 4134 
L 603 4863 
z
" transform="scale(0.015625)"/>
       <path id="DejaVuSans-6f" d="M 1959 3097 
Q 1497 3097 1228 2736 
Q 959 2375 959 1747 
Q 959 1119 1226 758 
Q 1494 397 1959 397 
Q 2419 397 2687 759 
Q 2956 1122 2956 1747 
Q 2956 2369 2687 2733 
Q 2419 3097 1959 3097 
z
M 1959 3584 
Q 2709 3584 3137 3096 
Q 3566 2609 3566 1747 
Q 3566 888 3137 398 
Q 2709 -91 1959 -91 
Q 1206 -91 779 398 
Q 353 888 353 1747 
Q 353 2609 779 3096 
Q 1206 3584 1959 3584 
z
" transform="scale(0.015625)"/>
      </defs>
      <use xlink:href="#DejaVuSans-50"/>
      <use xlink:href="#DejaVuSans-72" x="58.552734"/>
      <use xlink:href="#DejaVuSans-69" x="99.666016"/>
      <use xlink:href="#DejaVuSans-6f" x="127.449219"/>
      <use xlink:href="#DejaVuSans-72" x="188.630859"/>
     </g>
    </g>
    <g id="patch_38">
     <path d="M 162.254931 60.42524 
L 190.254931 60.42524 
L 190.254931 50.62524 
L 162.254931 50.62524 
z
" style="fill: #1f77b4"/>
    </g>
    <g id="text_16">
     <!-- Posterior -->
     <g transform="translate(201.454931 60.42524) scale(0.14 -0.14)">
      <defs>
       <path id="DejaVuSans-73" d="M 2834 3397 
L 2834 2853 
Q 2591 2978 2328 3040 
Q 2066 3103 1784 3103 
Q 1356 3103 1142 2972 
Q 928 2841 928 2578 
Q 928 2378 1081 2264 
Q 1234 2150 1697 2047 
L 1894 2003 
Q 2506 1872 2764 1633 
Q 3022 1394 3022 966 
Q 3022 478 2636 193 
Q 2250 -91 1575 -91 
Q 1294 -91 989 -36 
Q 684 19 347 128 
L 347 722 
Q 666 556 975 473 
Q 1284 391 1588 391 
Q 1994 391 2212 530 
Q 2431 669 2431 922 
Q 2431 1156 2273 1281 
Q 2116 1406 1581 1522 
L 1381 1569 
Q 847 1681 609 1914 
Q 372 2147 372 2553 
Q 372 3047 722 3315 
Q 1072 3584 1716 3584 
Q 2034 3584 2315 3537 
Q 2597 3491 2834 3397 
z
" transform="scale(0.015625)"/>
       <path id="DejaVuSans-74" d="M 1172 4494 
L 1172 3500 
L 2356 3500 
L 2356 3053 
L 1172 3053 
L 1172 1153 
Q 1172 725 1289 603 
Q 1406 481 1766 481 
L 2356 481 
L 2356 0 
L 1766 0 
Q 1100 0 847 248 
Q 594 497 594 1153 
L 594 3053 
L 172 3053 
L 172 3500 
L 594 3500 
L 594 4494 
L 1172 4494 
z
" transform="scale(0.015625)"/>
      </defs>
      <use xlink:href="#DejaVuSans-50"/>
      <use xlink:href="#DejaVuSans-6f" x="56.677734"/>
      <use xlink:href="#DejaVuSans-73" x="117.859375"/>
      <use xlink:href="#DejaVuSans-74" x="169.958984"/>
      <use xlink:href="#DejaVuSans-65" x="209.167969"/>
      <use xlink:href="#DejaVuSans-72" x="270.691406"/>
      <use xlink:href="#DejaVuSans-69" x="311.804688"/>
      <use xlink:href="#DejaVuSans-6f" x="339.587891"/>
      <use xlink:href="#DejaVuSans-72" x="400.769531"/>
     </g>
    </g>
   </g>
  </g>
  <g id="axes_2">
   <g id="patch_39">
    <path d="M 335.660778 246.90101 
L 575.121094 246.90101 
L 575.121094 16.638052 
L 335.660778 16.638052 
z
" style="fill: #ffffff"/>
   </g>
   <g id="patch_40">
    <path d="M 346.545338 246.90101 
L 353.097915 246.90101 
L 353.097915 246.492432 
L 346.545338 246.492432 
z
" clip-path="url(#p0f281cd1be)" style="fill: #1f77b4"/>
   </g>
   <g id="patch_41">
    <path d="M 353.82598 246.90101 
L 360.378557 246.90101 
L 360.378557 245.266697 
L 353.82598 245.266697 
z
" clip-path="url(#p0f281cd1be)" style="fill: #1f77b4"/>
   </g>
   <g id="patch_42">
    <path d="M 361.106622 246.90101 
L 367.659199 246.90101 
L 367.659199 246.083853 
L 361.106622 246.083853 
z
" clip-path="url(#p0f281cd1be)" style="fill: #1f77b4"/>
   </g>
   <g id="patch_43">
    <path d="M 368.387264 246.90101 
L 374.939841 246.90101 
L 374.939841 244.040962 
L 368.387264 244.040962 
z
" clip-path="url(#p0f281cd1be)" style="fill: #1f77b4"/>
   </g>
   <g id="patch_44">
    <path d="M 375.667906 246.90101 
L 382.220484 246.90101 
L 382.220484 242.815227 
L 375.667906 242.815227 
z
" clip-path="url(#p0f281cd1be)" style="fill: #1f77b4"/>
   </g>
   <g id="patch_45">
    <path d="M 382.948548 246.90101 
L 389.501126 246.90101 
L 389.501126 240.772336 
L 382.948548 240.772336 
z
" clip-path="url(#p0f281cd1be)" style="fill: #1f77b4"/>
   </g>
   <g id="patch_46">
    <path d="M 390.22919 246.90101 
L 396.781768 246.90101 
L 396.781768 233.417927 
L 390.22919 233.417927 
z
" clip-path="url(#p0f281cd1be)" style="fill: #1f77b4"/>
   </g>
   <g id="patch_47">
    <path d="M 397.509832 246.90101 
L 404.06241 246.90101 
L 404.06241 222.386313 
L 397.509832 222.386313 
z
" clip-path="url(#p0f281cd1be)" style="fill: #1f77b4"/>
   </g>
   <g id="patch_48">
    <path d="M 404.790474 246.90101 
L 411.343052 246.90101 
L 411.343052 211.763278 
L 404.790474 211.763278 
z
" clip-path="url(#p0f281cd1be)" style="fill: #1f77b4"/>
   </g>
   <g id="patch_49">
    <path d="M 412.071116 246.90101 
L 418.623694 246.90101 
L 418.623694 190.925785 
L 412.071116 190.925785 
z
" clip-path="url(#p0f281cd1be)" style="fill: #1f77b4"/>
   </g>
   <g id="patch_50">
    <path d="M 419.351758 246.90101 
L 425.904336 246.90101 
L 425.904336 159.465257 
L 419.351758 159.465257 
z
" clip-path="url(#p0f281cd1be)" style="fill: #1f77b4"/>
   </g>
   <g id="patch_51">
    <path d="M 426.6324 246.90101 
L 433.184978 246.90101 
L 433.184978 139.036343 
L 426.6324 139.036343 
z
" clip-path="url(#p0f281cd1be)" style="fill: #1f77b4"/>
   </g>
   <g id="patch_52">
    <path d="M 433.913042 246.90101 
L 440.46562 246.90101 
L 440.46562 126.370416 
L 433.913042 126.370416 
z
" clip-path="url(#p0f281cd1be)" style="fill: #1f77b4"/>
   </g>
   <g id="patch_53">
    <path d="M 441.193684 246.90101 
L 447.746262 246.90101 
L 447.746262 82.243962 
L 441.193684 82.243962 
z
" clip-path="url(#p0f281cd1be)" style="fill: #1f77b4"/>
   </g>
   <g id="patch_54">
    <path d="M 448.474326 246.90101 
L 455.026904 246.90101 
L 455.026904 47.923386 
L 448.474326 47.923386 
z
" clip-path="url(#p0f281cd1be)" style="fill: #1f77b4"/>
   </g>
   <g id="patch_55">
    <path d="M 455.754968 246.90101 
L 462.307546 246.90101 
L 462.307546 45.063338 
L 455.754968 45.063338 
z
" clip-path="url(#p0f281cd1be)" style="fill: #1f77b4"/>
   </g>
   <g id="patch_56">
    <path d="M 463.03561 246.90101 
L 469.588188 246.90101 
L 469.588188 38.934664 
L 463.03561 38.934664 
z
" clip-path="url(#p0f281cd1be)" style="fill: #1f77b4"/>
   </g>
   <g id="patch_57">
    <path d="M 470.316252 246.90101 
L 476.86883 246.90101 
L 476.86883 61.406469 
L 470.316252 61.406469 
z
" clip-path="url(#p0f281cd1be)" style="fill: #1f77b4"/>
   </g>
   <g id="patch_58">
    <path d="M 477.596894 246.90101 
L 484.149472 246.90101 
L 484.149472 78.158179 
L 477.596894 78.158179 
z
" clip-path="url(#p0f281cd1be)" style="fill: #1f77b4"/>
   </g>
   <g id="patch_59">
    <path d="M 484.877536 246.90101 
L 491.430114 246.90101 
L 491.430114 119.016007 
L 484.877536 119.016007 
z
" clip-path="url(#p0f281cd1be)" style="fill: #1f77b4"/>
   </g>
   <g id="patch_60">
    <path d="M 492.158178 246.90101 
L 498.710756 246.90101 
L 498.710756 142.304969 
L 492.158178 142.304969 
z
" clip-path="url(#p0f281cd1be)" style="fill: #1f77b4"/>
   </g>
   <g id="patch_61">
    <path d="M 499.43882 246.90101 
L 505.991398 246.90101 
L 505.991398 163.959618 
L 499.43882 163.959618 
z
" clip-path="url(#p0f281cd1be)" style="fill: #1f77b4"/>
   </g>
   <g id="patch_62">
    <path d="M 506.719462 246.90101 
L 513.27204 246.90101 
L 513.27204 189.291472 
L 506.719462 189.291472 
z
" clip-path="url(#p0f281cd1be)" style="fill: #1f77b4"/>
   </g>
   <g id="patch_63">
    <path d="M 514.000104 246.90101 
L 520.552682 246.90101 
L 520.552682 207.268917 
L 514.000104 207.268917 
z
" clip-path="url(#p0f281cd1be)" style="fill: #1f77b4"/>
   </g>
   <g id="patch_64">
    <path d="M 521.280746 246.90101 
L 527.833324 246.90101 
L 527.833324 225.654939 
L 521.280746 225.654939 
z
" clip-path="url(#p0f281cd1be)" style="fill: #1f77b4"/>
   </g>
   <g id="patch_65">
    <path d="M 528.561388 246.90101 
L 535.113966 246.90101 
L 535.113966 237.095131 
L 528.561388 237.095131 
z
" clip-path="url(#p0f281cd1be)" style="fill: #1f77b4"/>
   </g>
   <g id="patch_66">
    <path d="M 535.84203 246.90101 
L 542.394608 246.90101 
L 542.394608 240.772336 
L 535.84203 240.772336 
z
" clip-path="url(#p0f281cd1be)" style="fill: #1f77b4"/>
   </g>
   <g id="patch_67">
    <path d="M 543.122672 246.90101 
L 549.67525 246.90101 
L 549.67525 245.266697 
L 543.122672 245.266697 
z
" clip-path="url(#p0f281cd1be)" style="fill: #1f77b4"/>
   </g>
   <g id="patch_68">
    <path d="M 550.403314 246.90101 
L 556.955892 246.90101 
L 556.955892 245.266697 
L 550.403314 245.266697 
z
" clip-path="url(#p0f281cd1be)" style="fill: #1f77b4"/>
   </g>
   <g id="patch_69">
    <path d="M 557.683956 246.90101 
L 564.236534 246.90101 
L 564.236534 245.675275 
L 557.683956 245.675275 
z
" clip-path="url(#p0f281cd1be)" style="fill: #1f77b4"/>
   </g>
   <g id="matplotlib.axis_3">
    <g id="xtick_6">
     <g id="line2d_13">
      <g>
       <use xlink:href="#mc6237443bc" x="357.300112" y="246.90101" style="stroke: #000000; stroke-width: 0.8"/>
      </g>
     </g>
     <g id="text_17">
      <!-- 8800 -->
      <g transform="translate(339.485112 264.538822) scale(0.14 -0.14)">
       <defs>
        <path id="DejaVuSans-38" d="M 2034 2216 
Q 1584 2216 1326 1975 
Q 1069 1734 1069 1313 
Q 1069 891 1326 650 
Q 1584 409 2034 409 
Q 2484 409 2743 651 
Q 3003 894 3003 1313 
Q 3003 1734 2745 1975 
Q 2488 2216 2034 2216 
z
M 1403 2484 
Q 997 2584 770 2862 
Q 544 3141 544 3541 
Q 544 4100 942 4425 
Q 1341 4750 2034 4750 
Q 2731 4750 3128 4425 
Q 3525 4100 3525 3541 
Q 3525 3141 3298 2862 
Q 3072 2584 2669 2484 
Q 3125 2378 3379 2068 
Q 3634 1759 3634 1313 
Q 3634 634 3220 271 
Q 2806 -91 2034 -91 
Q 1263 -91 848 271 
Q 434 634 434 1313 
Q 434 1759 690 2068 
Q 947 2378 1403 2484 
z
M 1172 3481 
Q 1172 3119 1398 2916 
Q 1625 2713 2034 2713 
Q 2441 2713 2670 2916 
Q 2900 3119 2900 3481 
Q 2900 3844 2670 4047 
Q 2441 4250 2034 4250 
Q 1625 4250 1398 4047 
Q 1172 3844 1172 3481 
z
" transform="scale(0.015625)"/>
       </defs>
       <use xlink:href="#DejaVuSans-38"/>
       <use xlink:href="#DejaVuSans-38" x="63.623047"/>
       <use xlink:href="#DejaVuSans-30" x="127.246094"/>
       <use xlink:href="#DejaVuSans-30" x="190.869141"/>
      </g>
     </g>
    </g>
    <g id="xtick_7">
     <g id="line2d_14">
      <g>
       <use xlink:href="#mc6237443bc" x="411.390593" y="246.90101" style="stroke: #000000; stroke-width: 0.8"/>
      </g>
     </g>
     <g id="text_18">
      <!-- 9000 -->
      <g transform="translate(393.575593 264.538822) scale(0.14 -0.14)">
       <defs>
        <path id="DejaVuSans-39" d="M 703 97 
L 703 672 
Q 941 559 1184 500 
Q 1428 441 1663 441 
Q 2288 441 2617 861 
Q 2947 1281 2994 2138 
Q 2813 1869 2534 1725 
Q 2256 1581 1919 1581 
Q 1219 1581 811 2004 
Q 403 2428 403 3163 
Q 403 3881 828 4315 
Q 1253 4750 1959 4750 
Q 2769 4750 3195 4129 
Q 3622 3509 3622 2328 
Q 3622 1225 3098 567 
Q 2575 -91 1691 -91 
Q 1453 -91 1209 -44 
Q 966 3 703 97 
z
M 1959 2075 
Q 2384 2075 2632 2365 
Q 2881 2656 2881 3163 
Q 2881 3666 2632 3958 
Q 2384 4250 1959 4250 
Q 1534 4250 1286 3958 
Q 1038 3666 1038 3163 
Q 1038 2656 1286 2365 
Q 1534 2075 1959 2075 
z
" transform="scale(0.015625)"/>
       </defs>
       <use xlink:href="#DejaVuSans-39"/>
       <use xlink:href="#DejaVuSans-30" x="63.623047"/>
       <use xlink:href="#DejaVuSans-30" x="127.246094"/>
       <use xlink:href="#DejaVuSans-30" x="190.869141"/>
      </g>
     </g>
    </g>
    <g id="xtick_8">
     <g id="line2d_15">
      <g>
       <use xlink:href="#mc6237443bc" x="465.481074" y="246.90101" style="stroke: #000000; stroke-width: 0.8"/>
      </g>
     </g>
     <g id="text_19">
      <!-- 9200 -->
      <g transform="translate(447.666074 264.538822) scale(0.14 -0.14)">
       <use xlink:href="#DejaVuSans-39"/>
       <use xlink:href="#DejaVuSans-32" x="63.623047"/>
       <use xlink:href="#DejaVuSans-30" x="127.246094"/>
       <use xlink:href="#DejaVuSans-30" x="190.869141"/>
      </g>
     </g>
    </g>
    <g id="xtick_9">
     <g id="line2d_16">
      <g>
       <use xlink:href="#mc6237443bc" x="519.571555" y="246.90101" style="stroke: #000000; stroke-width: 0.8"/>
      </g>
     </g>
     <g id="text_20">
      <!-- 9400 -->
      <g transform="translate(501.756555 264.538822) scale(0.14 -0.14)">
       <use xlink:href="#DejaVuSans-39"/>
       <use xlink:href="#DejaVuSans-34" x="63.623047"/>
       <use xlink:href="#DejaVuSans-30" x="127.246094"/>
       <use xlink:href="#DejaVuSans-30" x="190.869141"/>
      </g>
     </g>
    </g>
    <g id="xtick_10">
     <g id="line2d_17">
      <g>
       <use xlink:href="#mc6237443bc" x="573.662036" y="246.90101" style="stroke: #000000; stroke-width: 0.8"/>
      </g>
     </g>
     <g id="text_21">
      <!-- 9600 -->
      <g transform="translate(555.847036 264.538822) scale(0.14 -0.14)">
       <defs>
        <path id="DejaVuSans-36" d="M 2113 2584 
Q 1688 2584 1439 2293 
Q 1191 2003 1191 1497 
Q 1191 994 1439 701 
Q 1688 409 2113 409 
Q 2538 409 2786 701 
Q 3034 994 3034 1497 
Q 3034 2003 2786 2293 
Q 2538 2584 2113 2584 
z
M 3366 4563 
L 3366 3988 
Q 3128 4100 2886 4159 
Q 2644 4219 2406 4219 
Q 1781 4219 1451 3797 
Q 1122 3375 1075 2522 
Q 1259 2794 1537 2939 
Q 1816 3084 2150 3084 
Q 2853 3084 3261 2657 
Q 3669 2231 3669 1497 
Q 3669 778 3244 343 
Q 2819 -91 2113 -91 
Q 1303 -91 875 529 
Q 447 1150 447 2328 
Q 447 3434 972 4092 
Q 1497 4750 2381 4750 
Q 2619 4750 2861 4703 
Q 3103 4656 3366 4563 
z
" transform="scale(0.015625)"/>
       </defs>
       <use xlink:href="#DejaVuSans-39"/>
       <use xlink:href="#DejaVuSans-36" x="63.623047"/>
       <use xlink:href="#DejaVuSans-30" x="127.246094"/>
       <use xlink:href="#DejaVuSans-30" x="190.869141"/>
      </g>
     </g>
    </g>
    <g id="text_22">
     <!-- $E_2$ [MPa] -->
     <g transform="translate(425.360936 282.088197) scale(0.14 -0.14)">
      <use xlink:href="#DejaVuSans-Oblique-45" transform="translate(0 0.015625)"/>
      <use xlink:href="#DejaVuSans-32" transform="translate(63.183594 -16.390625) scale(0.7)"/>
      <use xlink:href="#DejaVuSans-20" transform="translate(110.454102 0.015625)"/>
      <use xlink:href="#DejaVuSans-5b" transform="translate(142.241211 0.015625)"/>
      <use xlink:href="#DejaVuSans-4d" transform="translate(181.254883 0.015625)"/>
      <use xlink:href="#DejaVuSans-50" transform="translate(267.53418 0.015625)"/>
      <use xlink:href="#DejaVuSans-61" transform="translate(327.836914 0.015625)"/>
      <use xlink:href="#DejaVuSans-5d" transform="translate(389.116211 0.015625)"/>
     </g>
    </g>
   </g>
   <g id="matplotlib.axis_4">
    <g id="ytick_6">
     <g id="line2d_18">
      <g>
       <use xlink:href="#m7b8153d1db" x="335.660778" y="246.90101" style="stroke: #000000; stroke-width: 0.8"/>
      </g>
     </g>
     <g id="text_23">
      <!-- 0.000 -->
      <g transform="translate(288.581403 252.219916) scale(0.14 -0.14)">
       <use xlink:href="#DejaVuSans-30"/>
       <use xlink:href="#DejaVuSans-2e" x="63.623047"/>
       <use xlink:href="#DejaVuSans-30" x="95.410156"/>
       <use xlink:href="#DejaVuSans-30" x="159.033203"/>
       <use xlink:href="#DejaVuSans-30" x="222.65625"/>
      </g>
     </g>
    </g>
    <g id="ytick_7">
     <g id="line2d_19">
      <g>
       <use xlink:href="#m7b8153d1db" x="335.660778" y="191.905895" style="stroke: #000000; stroke-width: 0.8"/>
      </g>
     </g>
     <g id="text_24">
      <!-- 0.001 -->
      <g transform="translate(288.581403 197.224801) scale(0.14 -0.14)">
       <use xlink:href="#DejaVuSans-30"/>
       <use xlink:href="#DejaVuSans-2e" x="63.623047"/>
       <use xlink:href="#DejaVuSans-30" x="95.410156"/>
       <use xlink:href="#DejaVuSans-30" x="159.033203"/>
       <use xlink:href="#DejaVuSans-31" x="222.65625"/>
      </g>
     </g>
    </g>
    <g id="ytick_8">
     <g id="line2d_20">
      <g>
       <use xlink:href="#m7b8153d1db" x="335.660778" y="136.91078" style="stroke: #000000; stroke-width: 0.8"/>
      </g>
     </g>
     <g id="text_25">
      <!-- 0.002 -->
      <g transform="translate(288.581403 142.229686) scale(0.14 -0.14)">
       <use xlink:href="#DejaVuSans-30"/>
       <use xlink:href="#DejaVuSans-2e" x="63.623047"/>
       <use xlink:href="#DejaVuSans-30" x="95.410156"/>
       <use xlink:href="#DejaVuSans-30" x="159.033203"/>
       <use xlink:href="#DejaVuSans-32" x="222.65625"/>
      </g>
     </g>
    </g>
    <g id="ytick_9">
     <g id="line2d_21">
      <g>
       <use xlink:href="#m7b8153d1db" x="335.660778" y="81.915665" style="stroke: #000000; stroke-width: 0.8"/>
      </g>
     </g>
     <g id="text_26">
      <!-- 0.003 -->
      <g transform="translate(288.581403 87.234571) scale(0.14 -0.14)">
       <use xlink:href="#DejaVuSans-30"/>
       <use xlink:href="#DejaVuSans-2e" x="63.623047"/>
       <use xlink:href="#DejaVuSans-30" x="95.410156"/>
       <use xlink:href="#DejaVuSans-30" x="159.033203"/>
       <use xlink:href="#DejaVuSans-33" x="222.65625"/>
      </g>
     </g>
    </g>
    <g id="ytick_10">
     <g id="line2d_22">
      <g>
       <use xlink:href="#m7b8153d1db" x="335.660778" y="26.92055" style="stroke: #000000; stroke-width: 0.8"/>
      </g>
     </g>
     <g id="text_27">
      <!-- 0.004 -->
      <g transform="translate(288.581403 32.239456) scale(0.14 -0.14)">
       <use xlink:href="#DejaVuSans-30"/>
       <use xlink:href="#DejaVuSans-2e" x="63.623047"/>
       <use xlink:href="#DejaVuSans-30" x="95.410156"/>
       <use xlink:href="#DejaVuSans-30" x="159.033203"/>
       <use xlink:href="#DejaVuSans-34" x="222.65625"/>
      </g>
     </g>
    </g>
   </g>
   <g id="line2d_23">
    <path d="M 381.640828 244.46371 
L 383.279934 243.983086 
L 384.919039 243.420492 
L 386.558145 242.764648 
L 388.19725 242.003245 
L 389.836356 241.122949 
L 391.475461 240.109425 
L 393.114567 238.947388 
L 394.753672 237.620678 
L 396.392778 236.112365 
L 398.031883 234.404892 
L 399.670989 232.480252 
L 401.310094 230.320195 
L 402.9492 227.906485 
L 404.588305 225.221183 
L 406.227411 222.246977 
L 407.866516 218.967537 
L 409.505622 215.367908 
L 411.144727 211.434926 
L 412.783833 207.157649 
L 414.422938 202.527812 
L 416.062044 197.540269 
L 417.701149 192.193443 
L 419.340255 186.489745 
L 420.97936 180.435973 
L 422.618465 174.043661 
L 424.257571 167.329375 
L 425.896676 160.314948 
L 427.535782 153.027622 
L 429.174887 145.500114 
L 430.813993 137.770575 
L 432.453098 129.882443 
L 434.092204 121.884187 
L 435.731309 113.828932 
L 437.370415 105.773976 
L 439.00952 97.780189 
L 440.648626 89.911313 
L 442.287731 82.233161 
L 443.926837 74.81274 
L 445.565942 67.717302 
L 447.205048 61.013347 
L 448.844153 54.765601 
L 450.483259 49.035979 
L 452.122364 43.882573 
L 453.76147 39.35867 
L 455.400575 35.511841 
L 457.039681 32.383103 
L 458.678786 30.006197 
L 460.317892 28.40698 
L 461.956997 27.602955 
L 463.596103 27.602955 
L 465.235208 28.40698 
L 466.874314 30.006197 
L 468.513419 32.383103 
L 470.152525 35.511841 
L 471.79163 39.35867 
L 473.430735 43.882573 
L 475.069841 49.035979 
L 476.708946 54.765601 
L 478.348052 61.013347 
L 479.987157 67.717302 
L 481.626263 74.81274 
L 483.265368 82.233161 
L 484.904474 89.911313 
L 486.543579 97.780189 
L 488.182685 105.773976 
L 489.82179 113.828932 
L 491.460896 121.884187 
L 493.100001 129.882443 
L 494.739107 137.770575 
L 496.378212 145.500114 
L 498.017318 153.027622 
L 499.656423 160.314948 
L 501.295529 167.329375 
L 502.934634 174.043661 
L 504.57374 180.435973 
L 506.212845 186.489745 
L 507.851951 192.193443 
L 509.491056 197.540269 
L 511.130162 202.527812 
L 512.769267 207.157649 
L 514.408373 211.434926 
L 516.047478 215.367908 
L 517.686584 218.967537 
L 519.325689 222.246977 
L 520.964795 225.221183 
L 522.6039 227.906485 
L 524.243005 230.320195 
L 525.882111 232.480252 
L 527.521216 234.404892 
L 529.160322 236.112365 
L 530.799427 237.620678 
L 532.438533 238.947388 
L 534.077638 240.109425 
L 535.716744 241.122949 
L 537.355849 242.003245 
L 538.994955 242.764648 
L 540.63406 243.420492 
L 542.273166 243.983086 
L 543.912271 244.46371 
" clip-path="url(#p0f281cd1be)" style="fill: none; stroke: #2ca02c; stroke-width: 1.5; stroke-linecap: square"/>
   </g>
   <g id="patch_70">
    <path d="M 335.660778 246.90101 
L 335.660778 16.638052 
" style="fill: none; stroke: #000000; stroke-width: 0.8; stroke-linejoin: miter; stroke-linecap: square"/>
   </g>
   <g id="patch_71">
    <path d="M 575.121094 246.90101 
L 575.121094 16.638052 
" style="fill: none; stroke: #000000; stroke-width: 0.8; stroke-linejoin: miter; stroke-linecap: square"/>
   </g>
   <g id="patch_72">
    <path d="M 335.660778 246.90101 
L 575.121094 246.90101 
" style="fill: none; stroke: #000000; stroke-width: 0.8; stroke-linejoin: miter; stroke-linecap: square"/>
   </g>
   <g id="patch_73">
    <path d="M 335.660778 16.638052 
L 575.121094 16.638052 
" style="fill: none; stroke: #000000; stroke-width: 0.8; stroke-linejoin: miter; stroke-linecap: square"/>
   </g>
  </g>
  <g id="axes_3">
   <g id="patch_74">
    <path d="M 622.292511 246.90101 
L 861.752827 246.90101 
L 861.752827 16.638052 
L 622.292511 16.638052 
z
" style="fill: #ffffff"/>
   </g>
   <g id="patch_75">
    <path d="M 633.177071 246.90101 
L 639.729649 246.90101 
L 639.729649 246.569647 
L 633.177071 246.569647 
z
" clip-path="url(#p8f3dcf7027)" style="fill: #1f77b4"/>
   </g>
   <g id="patch_76">
    <path d="M 640.457713 246.90101 
L 647.010291 246.90101 
L 647.010291 246.238284 
L 640.457713 246.238284 
z
" clip-path="url(#p8f3dcf7027)" style="fill: #1f77b4"/>
   </g>
   <g id="patch_77">
    <path d="M 647.738355 246.90101 
L 654.290933 246.90101 
L 654.290933 244.912831 
L 647.738355 244.912831 
z
" clip-path="url(#p8f3dcf7027)" style="fill: #1f77b4"/>
   </g>
   <g id="patch_78">
    <path d="M 655.018997 246.90101 
L 661.571575 246.90101 
L 661.571575 244.581468 
L 655.018997 244.581468 
z
" clip-path="url(#p8f3dcf7027)" style="fill: #1f77b4"/>
   </g>
   <g id="patch_79">
    <path d="M 662.299639 246.90101 
L 668.852217 246.90101 
L 668.852217 241.930562 
L 662.299639 241.930562 
z
" clip-path="url(#p8f3dcf7027)" style="fill: #1f77b4"/>
   </g>
   <g id="patch_80">
    <path d="M 669.580281 246.90101 
L 676.132859 246.90101 
L 676.132859 236.960115 
L 669.580281 236.960115 
z
" clip-path="url(#p8f3dcf7027)" style="fill: #1f77b4"/>
   </g>
   <g id="patch_81">
    <path d="M 676.860923 246.90101 
L 683.413501 246.90101 
L 683.413501 232.321031 
L 676.860923 232.321031 
z
" clip-path="url(#p8f3dcf7027)" style="fill: #1f77b4"/>
   </g>
   <g id="patch_82">
    <path d="M 684.141565 246.90101 
L 690.694143 246.90101 
L 690.694143 222.048772 
L 684.141565 222.048772 
z
" clip-path="url(#p8f3dcf7027)" style="fill: #1f77b4"/>
   </g>
   <g id="patch_83">
    <path d="M 691.422207 246.90101 
L 697.974785 246.90101 
L 697.974785 210.451062 
L 691.422207 210.451062 
z
" clip-path="url(#p8f3dcf7027)" style="fill: #1f77b4"/>
   </g>
   <g id="patch_84">
    <path d="M 698.702849 246.90101 
L 705.255427 246.90101 
L 705.255427 193.220177 
L 698.702849 193.220177 
z
" clip-path="url(#p8f3dcf7027)" style="fill: #1f77b4"/>
   </g>
   <g id="patch_85">
    <path d="M 705.983491 246.90101 
L 712.536069 246.90101 
L 712.536069 174.66384 
L 705.983491 174.66384 
z
" clip-path="url(#p8f3dcf7027)" style="fill: #1f77b4"/>
   </g>
   <g id="patch_86">
    <path d="M 713.264134 246.90101 
L 719.816711 246.90101 
L 719.816711 141.858886 
L 713.264134 141.858886 
z
" clip-path="url(#p8f3dcf7027)" style="fill: #1f77b4"/>
   </g>
   <g id="patch_87">
    <path d="M 720.544776 246.90101 
L 727.097353 246.90101 
L 727.097353 124.296638 
L 720.544776 124.296638 
z
" clip-path="url(#p8f3dcf7027)" style="fill: #1f77b4"/>
   </g>
   <g id="patch_88">
    <path d="M 727.825418 246.90101 
L 734.377995 246.90101 
L 734.377995 104.083485 
L 727.825418 104.083485 
z
" clip-path="url(#p8f3dcf7027)" style="fill: #1f77b4"/>
   </g>
   <g id="patch_89">
    <path d="M 735.10606 246.90101 
L 741.658637 246.90101 
L 741.658637 108.391206 
L 735.10606 108.391206 
z
" clip-path="url(#p8f3dcf7027)" style="fill: #1f77b4"/>
   </g>
   <g id="patch_90">
    <path d="M 742.386702 246.90101 
L 748.939279 246.90101 
L 748.939279 98.118948 
L 742.386702 98.118948 
z
" clip-path="url(#p8f3dcf7027)" style="fill: #1f77b4"/>
   </g>
   <g id="patch_91">
    <path d="M 749.667344 246.90101 
L 756.219921 246.90101 
L 756.219921 97.456222 
L 749.667344 97.456222 
z
" clip-path="url(#p8f3dcf7027)" style="fill: #1f77b4"/>
   </g>
   <g id="patch_92">
    <path d="M 756.947986 246.90101 
L 763.500563 246.90101 
L 763.500563 115.01847 
L 756.947986 115.01847 
z
" clip-path="url(#p8f3dcf7027)" style="fill: #1f77b4"/>
   </g>
   <g id="patch_93">
    <path d="M 764.228628 246.90101 
L 770.781205 246.90101 
L 770.781205 113.693017 
L 764.228628 113.693017 
z
" clip-path="url(#p8f3dcf7027)" style="fill: #1f77b4"/>
   </g>
   <g id="patch_94">
    <path d="M 771.50927 246.90101 
L 778.061847 246.90101 
L 778.061847 147.160697 
L 771.50927 147.160697 
z
" clip-path="url(#p8f3dcf7027)" style="fill: #1f77b4"/>
   </g>
   <g id="patch_95">
    <path d="M 778.789912 246.90101 
L 785.34249 246.90101 
L 785.34249 168.036576 
L 778.789912 168.036576 
z
" clip-path="url(#p8f3dcf7027)" style="fill: #1f77b4"/>
   </g>
   <g id="patch_96">
    <path d="M 786.070554 246.90101 
L 792.623132 246.90101 
L 792.623132 190.900635 
L 786.070554 190.900635 
z
" clip-path="url(#p8f3dcf7027)" style="fill: #1f77b4"/>
   </g>
   <g id="patch_97">
    <path d="M 793.351196 246.90101 
L 799.903774 246.90101 
L 799.903774 202.166982 
L 793.351196 202.166982 
z
" clip-path="url(#p8f3dcf7027)" style="fill: #1f77b4"/>
   </g>
   <g id="patch_98">
    <path d="M 800.631838 246.90101 
L 807.184416 246.90101 
L 807.184416 208.462883 
L 800.631838 208.462883 
z
" clip-path="url(#p8f3dcf7027)" style="fill: #1f77b4"/>
   </g>
   <g id="patch_99">
    <path d="M 807.91248 246.90101 
L 814.465058 246.90101 
L 814.465058 224.699678 
L 807.91248 224.699678 
z
" clip-path="url(#p8f3dcf7027)" style="fill: #1f77b4"/>
   </g>
   <g id="patch_100">
    <path d="M 815.193122 246.90101 
L 821.7457 246.90101 
L 821.7457 234.971936 
L 815.193122 234.971936 
z
" clip-path="url(#p8f3dcf7027)" style="fill: #1f77b4"/>
   </g>
   <g id="patch_101">
    <path d="M 822.473764 246.90101 
L 829.026342 246.90101 
L 829.026342 244.250105 
L 822.473764 244.250105 
z
" clip-path="url(#p8f3dcf7027)" style="fill: #1f77b4"/>
   </g>
   <g id="patch_102">
    <path d="M 829.754406 246.90101 
L 836.306984 246.90101 
L 836.306984 241.599199 
L 829.754406 241.599199 
z
" clip-path="url(#p8f3dcf7027)" style="fill: #1f77b4"/>
   </g>
   <g id="patch_103">
    <path d="M 837.035048 246.90101 
L 843.587626 246.90101 
L 843.587626 245.575557 
L 837.035048 245.575557 
z
" clip-path="url(#p8f3dcf7027)" style="fill: #1f77b4"/>
   </g>
   <g id="patch_104">
    <path d="M 844.31569 246.90101 
L 850.868268 246.90101 
L 850.868268 245.575557 
L 844.31569 245.575557 
z
" clip-path="url(#p8f3dcf7027)" style="fill: #1f77b4"/>
   </g>
   <g id="matplotlib.axis_5">
    <g id="xtick_11">
     <g id="line2d_24">
      <g>
       <use xlink:href="#mc6237443bc" x="634.803137" y="246.90101" style="stroke: #000000; stroke-width: 0.8"/>
      </g>
     </g>
     <g id="text_28">
      <!-- 0.300 -->
      <g transform="translate(614.76345 264.538822) scale(0.14 -0.14)">
       <use xlink:href="#DejaVuSans-30"/>
       <use xlink:href="#DejaVuSans-2e" x="63.623047"/>
       <use xlink:href="#DejaVuSans-33" x="95.410156"/>
       <use xlink:href="#DejaVuSans-30" x="159.033203"/>
       <use xlink:href="#DejaVuSans-30" x="222.65625"/>
      </g>
     </g>
    </g>
    <g id="xtick_12">
     <g id="line2d_25">
      <g>
       <use xlink:href="#mc6237443bc" x="689.638385" y="246.90101" style="stroke: #000000; stroke-width: 0.8"/>
      </g>
     </g>
     <g id="text_29">
      <!-- 0.325 -->
      <g transform="translate(669.598698 264.538822) scale(0.14 -0.14)">
       <use xlink:href="#DejaVuSans-30"/>
       <use xlink:href="#DejaVuSans-2e" x="63.623047"/>
       <use xlink:href="#DejaVuSans-33" x="95.410156"/>
       <use xlink:href="#DejaVuSans-32" x="159.033203"/>
       <use xlink:href="#DejaVuSans-35" x="222.65625"/>
      </g>
     </g>
    </g>
    <g id="xtick_13">
     <g id="line2d_26">
      <g>
       <use xlink:href="#mc6237443bc" x="744.473633" y="246.90101" style="stroke: #000000; stroke-width: 0.8"/>
      </g>
     </g>
     <g id="text_30">
      <!-- 0.350 -->
      <g transform="translate(724.433945 264.538822) scale(0.14 -0.14)">
       <use xlink:href="#DejaVuSans-30"/>
       <use xlink:href="#DejaVuSans-2e" x="63.623047"/>
       <use xlink:href="#DejaVuSans-33" x="95.410156"/>
       <use xlink:href="#DejaVuSans-35" x="159.033203"/>
       <use xlink:href="#DejaVuSans-30" x="222.65625"/>
      </g>
     </g>
    </g>
    <g id="xtick_14">
     <g id="line2d_27">
      <g>
       <use xlink:href="#mc6237443bc" x="799.30888" y="246.90101" style="stroke: #000000; stroke-width: 0.8"/>
      </g>
     </g>
     <g id="text_31">
      <!-- 0.375 -->
      <g transform="translate(779.269193 264.538822) scale(0.14 -0.14)">
       <defs>
        <path id="DejaVuSans-37" d="M 525 4666 
L 3525 4666 
L 3525 4397 
L 1831 0 
L 1172 0 
L 2766 4134 
L 525 4134 
L 525 4666 
z
" transform="scale(0.015625)"/>
       </defs>
       <use xlink:href="#DejaVuSans-30"/>
       <use xlink:href="#DejaVuSans-2e" x="63.623047"/>
       <use xlink:href="#DejaVuSans-33" x="95.410156"/>
       <use xlink:href="#DejaVuSans-37" x="159.033203"/>
       <use xlink:href="#DejaVuSans-35" x="222.65625"/>
      </g>
     </g>
    </g>
    <g id="xtick_15">
     <g id="line2d_28">
      <g>
       <use xlink:href="#mc6237443bc" x="854.144128" y="246.90101" style="stroke: #000000; stroke-width: 0.8"/>
      </g>
     </g>
     <g id="text_32">
      <!-- 0.400 -->
      <g transform="translate(834.104441 264.538822) scale(0.14 -0.14)">
       <use xlink:href="#DejaVuSans-30"/>
       <use xlink:href="#DejaVuSans-2e" x="63.623047"/>
       <use xlink:href="#DejaVuSans-34" x="95.410156"/>
       <use xlink:href="#DejaVuSans-30" x="159.033203"/>
       <use xlink:href="#DejaVuSans-30" x="222.65625"/>
      </g>
     </g>
    </g>
    <g id="text_33">
     <!-- $\nu_{12}$ [-] -->
     <g transform="translate(721.442669 282.088197) scale(0.14 -0.14)">
      <defs>
       <path id="DejaVuSans-Oblique-3bd" d="M 959 0 
L 572 3500 
L 1191 3500 
L 1522 563 
Q 1972 950 2391 1488 
Q 2706 1891 2788 2241 
Q 2825 2406 2809 2719 
Q 2794 3091 2544 3500 
L 3125 3500 
L 3125 3500 
Q 3288 3222 3353 2834 
Q 3416 2478 3369 2234 
Q 3250 1622 2719 1075 
Q 2025 363 1572 0 
L 959 0 
z
" transform="scale(0.015625)"/>
       <path id="DejaVuSans-2d" d="M 313 2009 
L 1997 2009 
L 1997 1497 
L 313 1497 
L 313 2009 
z
" transform="scale(0.015625)"/>
      </defs>
      <use xlink:href="#DejaVuSans-Oblique-3bd" transform="translate(0 0.015625)"/>
      <use xlink:href="#DejaVuSans-31" transform="translate(55.859375 -16.390625) scale(0.7)"/>
      <use xlink:href="#DejaVuSans-32" transform="translate(100.395508 -16.390625) scale(0.7)"/>
      <use xlink:href="#DejaVuSans-20" transform="translate(147.666016 0.015625)"/>
      <use xlink:href="#DejaVuSans-5b" transform="translate(179.453125 0.015625)"/>
      <use xlink:href="#DejaVuSans-2d" transform="translate(218.466797 0.015625)"/>
      <use xlink:href="#DejaVuSans-5d" transform="translate(254.550781 0.015625)"/>
     </g>
    </g>
   </g>
   <g id="matplotlib.axis_6">
    <g id="ytick_11">
     <g id="line2d_29">
      <g>
       <use xlink:href="#m7b8153d1db" x="622.292511" y="246.90101" style="stroke: #000000; stroke-width: 0.8"/>
      </g>
     </g>
     <g id="text_34">
      <!-- 0 -->
      <g transform="translate(606.385011 252.219916) scale(0.14 -0.14)">
       <use xlink:href="#DejaVuSans-30"/>
      </g>
     </g>
    </g>
    <g id="ytick_12">
     <g id="line2d_30">
      <g>
       <use xlink:href="#m7b8153d1db" x="622.292511" y="191.905895" style="stroke: #000000; stroke-width: 0.8"/>
      </g>
     </g>
     <g id="text_35">
      <!-- 10 -->
      <g transform="translate(597.477511 197.224801) scale(0.14 -0.14)">
       <use xlink:href="#DejaVuSans-31"/>
       <use xlink:href="#DejaVuSans-30" x="63.623047"/>
      </g>
     </g>
    </g>
    <g id="ytick_13">
     <g id="line2d_31">
      <g>
       <use xlink:href="#m7b8153d1db" x="622.292511" y="136.91078" style="stroke: #000000; stroke-width: 0.8"/>
      </g>
     </g>
     <g id="text_36">
      <!-- 20 -->
      <g transform="translate(597.477511 142.229686) scale(0.14 -0.14)">
       <use xlink:href="#DejaVuSans-32"/>
       <use xlink:href="#DejaVuSans-30" x="63.623047"/>
      </g>
     </g>
    </g>
    <g id="ytick_14">
     <g id="line2d_32">
      <g>
       <use xlink:href="#m7b8153d1db" x="622.292511" y="81.915665" style="stroke: #000000; stroke-width: 0.8"/>
      </g>
     </g>
     <g id="text_37">
      <!-- 30 -->
      <g transform="translate(597.477511 87.234571) scale(0.14 -0.14)">
       <use xlink:href="#DejaVuSans-33"/>
       <use xlink:href="#DejaVuSans-30" x="63.623047"/>
      </g>
     </g>
    </g>
    <g id="ytick_15">
     <g id="line2d_33">
      <g>
       <use xlink:href="#m7b8153d1db" x="622.292511" y="26.92055" style="stroke: #000000; stroke-width: 0.8"/>
      </g>
     </g>
     <g id="text_38">
      <!-- 40 -->
      <g transform="translate(597.477511 32.239456) scale(0.14 -0.14)">
       <use xlink:href="#DejaVuSans-34"/>
       <use xlink:href="#DejaVuSans-30" x="63.623047"/>
      </g>
     </g>
    </g>
   </g>
   <g id="line2d_34">
    <path d="M 656.737237 244.46371 
L 658.066576 243.983086 
L 659.395915 243.420492 
L 660.725255 242.764648 
L 662.054594 242.003245 
L 663.383933 241.122949 
L 664.713273 240.109425 
L 666.042612 238.947388 
L 667.371951 237.620678 
L 668.701291 236.112365 
L 670.03063 234.404892 
L 671.359969 232.480252 
L 672.689309 230.320195 
L 674.018648 227.906485 
L 675.347987 225.221183 
L 676.677327 222.246977 
L 678.006666 218.967537 
L 679.336005 215.367908 
L 680.665345 211.434926 
L 681.994684 207.157649 
L 683.324023 202.527812 
L 684.653363 197.540269 
L 685.982702 192.193443 
L 687.312041 186.489745 
L 688.641381 180.435973 
L 689.97072 174.043661 
L 691.300059 167.329375 
L 692.629399 160.314948 
L 693.958738 153.027622 
L 695.288077 145.500114 
L 696.617417 137.770575 
L 697.946756 129.882443 
L 699.276095 121.884187 
L 700.605435 113.828932 
L 701.934774 105.773976 
L 703.264113 97.780189 
L 704.593453 89.911313 
L 705.922792 82.233161 
L 707.252131 74.81274 
L 708.581471 67.717302 
L 709.91081 61.013347 
L 711.240149 54.765601 
L 712.569489 49.035979 
L 713.898828 43.882573 
L 715.228167 39.35867 
L 716.557507 35.511841 
L 717.886846 32.383103 
L 719.216185 30.006197 
L 720.545525 28.40698 
L 721.874864 27.602955 
L 723.204203 27.602955 
L 724.533543 28.40698 
L 725.862882 30.006197 
L 727.192221 32.383103 
L 728.521561 35.511841 
L 729.8509 39.35867 
L 731.180239 43.882573 
L 732.509579 49.035979 
L 733.838918 54.765601 
L 735.168257 61.013347 
L 736.497597 67.717302 
L 737.826936 74.81274 
L 739.156275 82.233161 
L 740.485615 89.911313 
L 741.814954 97.780189 
L 743.144293 105.773976 
L 744.473633 113.828932 
L 745.802972 121.884187 
L 747.132311 129.882443 
L 748.461651 137.770575 
L 749.79099 145.500114 
L 751.120329 153.027622 
L 752.449669 160.314948 
L 753.779008 167.329375 
L 755.108347 174.043661 
L 756.437687 180.435973 
L 757.767026 186.489745 
L 759.096365 192.193443 
L 760.425705 197.540269 
L 761.755044 202.527812 
L 763.084383 207.157649 
L 764.413723 211.434926 
L 765.743062 215.367908 
L 767.072401 218.967537 
L 768.401741 222.246977 
L 769.73108 225.221183 
L 771.060419 227.906485 
L 772.389759 230.320195 
L 773.719098 232.480252 
L 775.048437 234.404892 
L 776.377777 236.112365 
L 777.707116 237.620678 
L 779.036455 238.947388 
L 780.365795 240.109425 
L 781.695134 241.122949 
L 783.024474 242.003245 
L 784.353813 242.764648 
L 785.683152 243.420492 
L 787.012492 243.983086 
L 788.341831 244.46371 
" clip-path="url(#p8f3dcf7027)" style="fill: none; stroke: #2ca02c; stroke-width: 1.5; stroke-linecap: square"/>
   </g>
   <g id="patch_105">
    <path d="M 622.292511 246.90101 
L 622.292511 16.638052 
" style="fill: none; stroke: #000000; stroke-width: 0.8; stroke-linejoin: miter; stroke-linecap: square"/>
   </g>
   <g id="patch_106">
    <path d="M 861.752827 246.90101 
L 861.752827 16.638052 
" style="fill: none; stroke: #000000; stroke-width: 0.8; stroke-linejoin: miter; stroke-linecap: square"/>
   </g>
   <g id="patch_107">
    <path d="M 622.292511 246.90101 
L 861.752827 246.90101 
" style="fill: none; stroke: #000000; stroke-width: 0.8; stroke-linejoin: miter; stroke-linecap: square"/>
   </g>
   <g id="patch_108">
    <path d="M 622.292511 16.638052 
L 861.752827 16.638052 
" style="fill: none; stroke: #000000; stroke-width: 0.8; stroke-linejoin: miter; stroke-linecap: square"/>
   </g>
  </g>
  <g id="axes_4">
   <g id="patch_109">
    <path d="M 904.999273 246.90101 
L 1144.459589 246.90101 
L 1144.459589 16.638052 
L 904.999273 16.638052 
z
" style="fill: #ffffff"/>
   </g>
   <g id="patch_110">
    <path d="M 915.883833 246.90101 
L 922.436411 246.90101 
L 922.436411 246.230404 
L 915.883833 246.230404 
z
" clip-path="url(#pf00dd22709)" style="fill: #1f77b4"/>
   </g>
   <g id="patch_111">
    <path d="M 923.164475 246.90101 
L 929.717053 246.90101 
L 929.717053 246.90101 
L 923.164475 246.90101 
z
" clip-path="url(#pf00dd22709)" style="fill: #1f77b4"/>
   </g>
   <g id="patch_112">
    <path d="M 930.445117 246.90101 
L 936.997695 246.90101 
L 936.997695 246.230404 
L 930.445117 246.230404 
z
" clip-path="url(#pf00dd22709)" style="fill: #1f77b4"/>
   </g>
   <g id="patch_113">
    <path d="M 937.725759 246.90101 
L 944.278337 246.90101 
L 944.278337 246.230404 
L 937.725759 246.230404 
z
" clip-path="url(#pf00dd22709)" style="fill: #1f77b4"/>
   </g>
   <g id="patch_114">
    <path d="M 945.006401 246.90101 
L 951.558979 246.90101 
L 951.558979 240.865555 
L 945.006401 240.865555 
z
" clip-path="url(#pf00dd22709)" style="fill: #1f77b4"/>
   </g>
   <g id="patch_115">
    <path d="M 952.287043 246.90101 
L 958.839621 246.90101 
L 958.839621 235.165403 
L 952.287043 235.165403 
z
" clip-path="url(#pf00dd22709)" style="fill: #1f77b4"/>
   </g>
   <g id="patch_116">
    <path d="M 959.567685 246.90101 
L 966.120263 246.90101 
L 966.120263 230.135857 
L 959.567685 230.135857 
z
" clip-path="url(#pf00dd22709)" style="fill: #1f77b4"/>
   </g>
   <g id="patch_117">
    <path d="M 966.848327 246.90101 
L 973.400905 246.90101 
L 973.400905 217.729644 
L 966.848327 217.729644 
z
" clip-path="url(#pf00dd22709)" style="fill: #1f77b4"/>
   </g>
   <g id="patch_118">
    <path d="M 974.128969 246.90101 
L 980.681547 246.90101 
L 980.681547 196.605551 
L 974.128969 196.605551 
z
" clip-path="url(#pf00dd22709)" style="fill: #1f77b4"/>
   </g>
   <g id="patch_119">
    <path d="M 981.409611 246.90101 
L 987.962189 246.90101 
L 987.962189 168.775397 
L 981.409611 168.775397 
z
" clip-path="url(#pf00dd22709)" style="fill: #1f77b4"/>
   </g>
   <g id="patch_120">
    <path d="M 988.690253 246.90101 
L 995.242831 246.90101 
L 995.242831 142.957061 
L 988.690253 142.957061 
z
" clip-path="url(#pf00dd22709)" style="fill: #1f77b4"/>
   </g>
   <g id="patch_121">
    <path d="M 995.970895 246.90101 
L 1002.523473 246.90101 
L 1002.523473 105.403118 
L 995.970895 105.403118 
z
" clip-path="url(#pf00dd22709)" style="fill: #1f77b4"/>
   </g>
   <g id="patch_122">
    <path d="M 1003.251537 246.90101 
L 1009.804115 246.90101 
L 1009.804115 89.643874 
L 1003.251537 89.643874 
z
" clip-path="url(#pf00dd22709)" style="fill: #1f77b4"/>
   </g>
   <g id="patch_123">
    <path d="M 1010.532179 246.90101 
L 1017.084757 246.90101 
L 1017.084757 62.81963 
L 1010.532179 62.81963 
z
" clip-path="url(#pf00dd22709)" style="fill: #1f77b4"/>
   </g>
   <g id="patch_124">
    <path d="M 1017.812821 246.90101 
L 1024.365399 246.90101 
L 1024.365399 72.878721 
L 1017.812821 72.878721 
z
" clip-path="url(#pf00dd22709)" style="fill: #1f77b4"/>
   </g>
   <g id="patch_125">
    <path d="M 1025.093463 246.90101 
L 1031.646041 246.90101 
L 1031.646041 63.154933 
L 1025.093463 63.154933 
z
" clip-path="url(#pf00dd22709)" style="fill: #1f77b4"/>
   </g>
   <g id="patch_126">
    <path d="M 1032.374105 246.90101 
L 1038.926683 246.90101 
L 1038.926683 97.020542 
L 1032.374105 97.020542 
z
" clip-path="url(#pf00dd22709)" style="fill: #1f77b4"/>
   </g>
   <g id="patch_127">
    <path d="M 1039.654747 246.90101 
L 1046.207325 246.90101 
L 1046.207325 133.233272 
L 1039.654747 133.233272 
z
" clip-path="url(#pf00dd22709)" style="fill: #1f77b4"/>
   </g>
   <g id="patch_128">
    <path d="M 1046.935389 246.90101 
L 1053.487967 246.90101 
L 1053.487967 157.710396 
L 1046.935389 157.710396 
z
" clip-path="url(#pf00dd22709)" style="fill: #1f77b4"/>
   </g>
   <g id="patch_129">
    <path d="M 1054.216031 246.90101 
L 1060.768609 246.90101 
L 1060.768609 180.511004 
L 1054.216031 180.511004 
z
" clip-path="url(#pf00dd22709)" style="fill: #1f77b4"/>
   </g>
   <g id="patch_130">
    <path d="M 1061.496673 246.90101 
L 1068.049251 246.90101 
L 1068.049251 196.940854 
L 1061.496673 196.940854 
z
" clip-path="url(#pf00dd22709)" style="fill: #1f77b4"/>
   </g>
   <g id="patch_131">
    <path d="M 1068.777315 246.90101 
L 1075.329893 246.90101 
L 1075.329893 217.729644 
L 1068.777315 217.729644 
z
" clip-path="url(#pf00dd22709)" style="fill: #1f77b4"/>
   </g>
   <g id="patch_132">
    <path d="M 1076.057957 246.90101 
L 1082.610535 246.90101 
L 1082.610535 226.447523 
L 1076.057957 226.447523 
z
" clip-path="url(#pf00dd22709)" style="fill: #1f77b4"/>
   </g>
   <g id="patch_133">
    <path d="M 1083.338599 246.90101 
L 1089.891177 246.90101 
L 1089.891177 237.847827 
L 1083.338599 237.847827 
z
" clip-path="url(#pf00dd22709)" style="fill: #1f77b4"/>
   </g>
   <g id="patch_134">
    <path d="M 1090.619241 246.90101 
L 1097.171819 246.90101 
L 1097.171819 242.206767 
L 1090.619241 242.206767 
z
" clip-path="url(#pf00dd22709)" style="fill: #1f77b4"/>
   </g>
   <g id="patch_135">
    <path d="M 1097.899883 246.90101 
L 1104.452461 246.90101 
L 1104.452461 244.218586 
L 1097.899883 244.218586 
z
" clip-path="url(#pf00dd22709)" style="fill: #1f77b4"/>
   </g>
   <g id="patch_136">
    <path d="M 1105.180525 246.90101 
L 1111.733103 246.90101 
L 1111.733103 245.895101 
L 1105.180525 245.895101 
z
" clip-path="url(#pf00dd22709)" style="fill: #1f77b4"/>
   </g>
   <g id="patch_137">
    <path d="M 1112.461167 246.90101 
L 1119.013745 246.90101 
L 1119.013745 246.230404 
L 1112.461167 246.230404 
z
" clip-path="url(#pf00dd22709)" style="fill: #1f77b4"/>
   </g>
   <g id="patch_138">
    <path d="M 1119.741809 246.90101 
L 1126.294387 246.90101 
L 1126.294387 246.90101 
L 1119.741809 246.90101 
z
" clip-path="url(#pf00dd22709)" style="fill: #1f77b4"/>
   </g>
   <g id="patch_139">
    <path d="M 1127.022451 246.90101 
L 1133.575029 246.90101 
L 1133.575029 245.895101 
L 1127.022451 245.895101 
z
" clip-path="url(#pf00dd22709)" style="fill: #1f77b4"/>
   </g>
   <g id="matplotlib.axis_7">
    <g id="xtick_16">
     <g id="line2d_35">
      <g>
       <use xlink:href="#mc6237443bc" x="928.439527" y="246.90101" style="stroke: #000000; stroke-width: 0.8"/>
      </g>
     </g>
     <g id="text_39">
      <!-- 0.400 -->
      <g transform="translate(908.399839 264.538822) scale(0.14 -0.14)">
       <use xlink:href="#DejaVuSans-30"/>
       <use xlink:href="#DejaVuSans-2e" x="63.623047"/>
       <use xlink:href="#DejaVuSans-34" x="95.410156"/>
       <use xlink:href="#DejaVuSans-30" x="159.033203"/>
       <use xlink:href="#DejaVuSans-30" x="222.65625"/>
      </g>
     </g>
    </g>
    <g id="xtick_17">
     <g id="line2d_36">
      <g>
       <use xlink:href="#mc6237443bc" x="983.926763" y="246.90101" style="stroke: #000000; stroke-width: 0.8"/>
      </g>
     </g>
     <g id="text_40">
      <!-- 0.425 -->
      <g transform="translate(963.887076 264.538822) scale(0.14 -0.14)">
       <use xlink:href="#DejaVuSans-30"/>
       <use xlink:href="#DejaVuSans-2e" x="63.623047"/>
       <use xlink:href="#DejaVuSans-34" x="95.410156"/>
       <use xlink:href="#DejaVuSans-32" x="159.033203"/>
       <use xlink:href="#DejaVuSans-35" x="222.65625"/>
      </g>
     </g>
    </g>
    <g id="xtick_18">
     <g id="line2d_37">
      <g>
       <use xlink:href="#mc6237443bc" x="1039.413999" y="246.90101" style="stroke: #000000; stroke-width: 0.8"/>
      </g>
     </g>
     <g id="text_41">
      <!-- 0.450 -->
      <g transform="translate(1019.374312 264.538822) scale(0.14 -0.14)">
       <use xlink:href="#DejaVuSans-30"/>
       <use xlink:href="#DejaVuSans-2e" x="63.623047"/>
       <use xlink:href="#DejaVuSans-34" x="95.410156"/>
       <use xlink:href="#DejaVuSans-35" x="159.033203"/>
       <use xlink:href="#DejaVuSans-30" x="222.65625"/>
      </g>
     </g>
    </g>
    <g id="xtick_19">
     <g id="line2d_38">
      <g>
       <use xlink:href="#mc6237443bc" x="1094.901236" y="246.90101" style="stroke: #000000; stroke-width: 0.8"/>
      </g>
     </g>
     <g id="text_42">
      <!-- 0.475 -->
      <g transform="translate(1074.861548 264.538822) scale(0.14 -0.14)">
       <use xlink:href="#DejaVuSans-30"/>
       <use xlink:href="#DejaVuSans-2e" x="63.623047"/>
       <use xlink:href="#DejaVuSans-34" x="95.410156"/>
       <use xlink:href="#DejaVuSans-37" x="159.033203"/>
       <use xlink:href="#DejaVuSans-35" x="222.65625"/>
      </g>
     </g>
    </g>
    <g id="text_43">
     <!-- $\nu_{23}$ [-] -->
     <g transform="translate(1004.149431 282.088197) scale(0.14 -0.14)">
      <use xlink:href="#DejaVuSans-Oblique-3bd" transform="translate(0 0.015625)"/>
      <use xlink:href="#DejaVuSans-32" transform="translate(55.859375 -16.390625) scale(0.7)"/>
      <use xlink:href="#DejaVuSans-33" transform="translate(100.395508 -16.390625) scale(0.7)"/>
      <use xlink:href="#DejaVuSans-20" transform="translate(147.666016 0.015625)"/>
      <use xlink:href="#DejaVuSans-5b" transform="translate(179.453125 0.015625)"/>
      <use xlink:href="#DejaVuSans-2d" transform="translate(218.466797 0.015625)"/>
      <use xlink:href="#DejaVuSans-5d" transform="translate(254.550781 0.015625)"/>
     </g>
    </g>
   </g>
   <g id="matplotlib.axis_8">
    <g id="ytick_16">
     <g id="line2d_39">
      <g>
       <use xlink:href="#m7b8153d1db" x="904.999273" y="246.90101" style="stroke: #000000; stroke-width: 0.8"/>
      </g>
     </g>
     <g id="text_44">
      <!-- 0 -->
      <g transform="translate(889.091773 252.219916) scale(0.14 -0.14)">
       <use xlink:href="#DejaVuSans-30"/>
      </g>
     </g>
    </g>
    <g id="ytick_17">
     <g id="line2d_40">
      <g>
       <use xlink:href="#m7b8153d1db" x="904.999273" y="191.905895" style="stroke: #000000; stroke-width: 0.8"/>
      </g>
     </g>
     <g id="text_45">
      <!-- 10 -->
      <g transform="translate(880.184273 197.224801) scale(0.14 -0.14)">
       <use xlink:href="#DejaVuSans-31"/>
       <use xlink:href="#DejaVuSans-30" x="63.623047"/>
      </g>
     </g>
    </g>
    <g id="ytick_18">
     <g id="line2d_41">
      <g>
       <use xlink:href="#m7b8153d1db" x="904.999273" y="136.91078" style="stroke: #000000; stroke-width: 0.8"/>
      </g>
     </g>
     <g id="text_46">
      <!-- 20 -->
      <g transform="translate(880.184273 142.229686) scale(0.14 -0.14)">
       <use xlink:href="#DejaVuSans-32"/>
       <use xlink:href="#DejaVuSans-30" x="63.623047"/>
      </g>
     </g>
    </g>
    <g id="ytick_19">
     <g id="line2d_42">
      <g>
       <use xlink:href="#m7b8153d1db" x="904.999273" y="81.915665" style="stroke: #000000; stroke-width: 0.8"/>
      </g>
     </g>
     <g id="text_47">
      <!-- 30 -->
      <g transform="translate(880.184273 87.234571) scale(0.14 -0.14)">
       <use xlink:href="#DejaVuSans-33"/>
       <use xlink:href="#DejaVuSans-30" x="63.623047"/>
      </g>
     </g>
    </g>
    <g id="ytick_20">
     <g id="line2d_43">
      <g>
       <use xlink:href="#m7b8153d1db" x="904.999273" y="26.92055" style="stroke: #000000; stroke-width: 0.8"/>
      </g>
     </g>
     <g id="text_48">
      <!-- 40 -->
      <g transform="translate(880.184273 32.239456) scale(0.14 -0.14)">
       <use xlink:href="#DejaVuSans-34"/>
       <use xlink:href="#DejaVuSans-30" x="63.623047"/>
      </g>
     </g>
    </g>
   </g>
   <g id="line2d_44">
    <path d="M 950.634421 244.46371 
L 951.979566 243.983086 
L 953.324712 243.420492 
L 954.669857 242.764648 
L 956.015002 242.003245 
L 957.360147 241.122949 
L 958.705292 240.109425 
L 960.050437 238.947388 
L 961.395582 237.620678 
L 962.740727 236.112365 
L 964.085873 234.404892 
L 965.431018 232.480252 
L 966.776163 230.320195 
L 968.121308 227.906485 
L 969.466453 225.221183 
L 970.811598 222.246977 
L 972.156743 218.967537 
L 973.501888 215.367908 
L 974.847034 211.434926 
L 976.192179 207.157649 
L 977.537324 202.527812 
L 978.882469 197.540269 
L 980.227614 192.193443 
L 981.572759 186.489745 
L 982.917904 180.435973 
L 984.263049 174.043661 
L 985.608195 167.329375 
L 986.95334 160.314948 
L 988.298485 153.027622 
L 989.64363 145.500114 
L 990.988775 137.770575 
L 992.33392 129.882443 
L 993.679065 121.884187 
L 995.02421 113.828932 
L 996.369356 105.773976 
L 997.714501 97.780189 
L 999.059646 89.911313 
L 1000.404791 82.233161 
L 1001.749936 74.81274 
L 1003.095081 67.717302 
L 1004.440226 61.013347 
L 1005.785371 54.765601 
L 1007.130517 49.035979 
L 1008.475662 43.882573 
L 1009.820807 39.35867 
L 1011.165952 35.511841 
L 1012.511097 32.383103 
L 1013.856242 30.006197 
L 1015.201387 28.40698 
L 1016.546532 27.602955 
L 1017.891677 27.602955 
L 1019.236823 28.40698 
L 1020.581968 30.006197 
L 1021.927113 32.383103 
L 1023.272258 35.511841 
L 1024.617403 39.35867 
L 1025.962548 43.882573 
L 1027.307693 49.035979 
L 1028.652838 54.765601 
L 1029.997984 61.013347 
L 1031.343129 67.717302 
L 1032.688274 74.81274 
L 1034.033419 82.233161 
L 1035.378564 89.911313 
L 1036.723709 97.780189 
L 1038.068854 105.773976 
L 1039.413999 113.828932 
L 1040.759145 121.884187 
L 1042.10429 129.882443 
L 1043.449435 137.770575 
L 1044.79458 145.500114 
L 1046.139725 153.027622 
L 1047.48487 160.314948 
L 1048.830015 167.329375 
L 1050.17516 174.043661 
L 1051.520306 180.435973 
L 1052.865451 186.489745 
L 1054.210596 192.193443 
L 1055.555741 197.540269 
L 1056.900886 202.527812 
L 1058.246031 207.157649 
L 1059.591176 211.434926 
L 1060.936321 215.367908 
L 1062.281467 218.967537 
L 1063.626612 222.246977 
L 1064.971757 225.221183 
L 1066.316902 227.906485 
L 1067.662047 230.320195 
L 1069.007192 232.480252 
L 1070.352337 234.404892 
L 1071.697482 236.112365 
L 1073.042628 237.620678 
L 1074.387773 238.947388 
L 1075.732918 240.109425 
L 1077.078063 241.122949 
L 1078.423208 242.003245 
L 1079.768353 242.764648 
L 1081.113498 243.420492 
L 1082.458643 243.983086 
L 1083.803789 244.46371 
" clip-path="url(#pf00dd22709)" style="fill: none; stroke: #2ca02c; stroke-width: 1.5; stroke-linecap: square"/>
   </g>
   <g id="patch_140">
    <path d="M 904.999273 246.90101 
L 904.999273 16.638052 
" style="fill: none; stroke: #000000; stroke-width: 0.8; stroke-linejoin: miter; stroke-linecap: square"/>
   </g>
   <g id="patch_141">
    <path d="M 1144.459589 246.90101 
L 1144.459589 16.638052 
" style="fill: none; stroke: #000000; stroke-width: 0.8; stroke-linejoin: miter; stroke-linecap: square"/>
   </g>
   <g id="patch_142">
    <path d="M 904.999273 246.90101 
L 1144.459589 246.90101 
" style="fill: none; stroke: #000000; stroke-width: 0.8; stroke-linejoin: miter; stroke-linecap: square"/>
   </g>
   <g id="patch_143">
    <path d="M 904.999273 16.638052 
L 1144.459589 16.638052 
" style="fill: none; stroke: #000000; stroke-width: 0.8; stroke-linejoin: miter; stroke-linecap: square"/>
   </g>
  </g>
  <g id="axes_5">
   <g id="patch_144">
    <path d="M 1197.539444 246.90101 
L 1436.99976 246.90101 
L 1436.99976 16.638052 
L 1197.539444 16.638052 
z
" style="fill: #ffffff"/>
   </g>
   <g id="patch_145">
    <path d="M 1208.424004 246.90101 
L 1214.976582 246.90101 
L 1214.976582 246.534184 
L 1208.424004 246.534184 
z
" clip-path="url(#p5895ac2340)" style="fill: #1f77b4"/>
   </g>
   <g id="patch_146">
    <path d="M 1215.704646 246.90101 
L 1222.257224 246.90101 
L 1222.257224 246.90101 
L 1215.704646 246.90101 
z
" clip-path="url(#p5895ac2340)" style="fill: #1f77b4"/>
   </g>
   <g id="patch_147">
    <path d="M 1222.985288 246.90101 
L 1229.537866 246.90101 
L 1229.537866 246.534184 
L 1222.985288 246.534184 
z
" clip-path="url(#p5895ac2340)" style="fill: #1f77b4"/>
   </g>
   <g id="patch_148">
    <path d="M 1230.26593 246.90101 
L 1236.818508 246.90101 
L 1236.818508 245.800531 
L 1230.26593 245.800531 
z
" clip-path="url(#p5895ac2340)" style="fill: #1f77b4"/>
   </g>
   <g id="patch_149">
    <path d="M 1237.546572 246.90101 
L 1244.09915 246.90101 
L 1244.09915 244.700052 
L 1237.546572 244.700052 
z
" clip-path="url(#p5895ac2340)" style="fill: #1f77b4"/>
   </g>
   <g id="patch_150">
    <path d="M 1244.827214 246.90101 
L 1251.379792 246.90101 
L 1251.379792 242.132267 
L 1244.827214 242.132267 
z
" clip-path="url(#p5895ac2340)" style="fill: #1f77b4"/>
   </g>
   <g id="patch_151">
    <path d="M 1252.107856 246.90101 
L 1258.660434 246.90101 
L 1258.660434 241.398615 
L 1252.107856 241.398615 
z
" clip-path="url(#p5895ac2340)" style="fill: #1f77b4"/>
   </g>
   <g id="patch_152">
    <path d="M 1259.388498 246.90101 
L 1265.941076 246.90101 
L 1265.941076 230.026997 
L 1259.388498 230.026997 
z
" clip-path="url(#p5895ac2340)" style="fill: #1f77b4"/>
   </g>
   <g id="patch_153">
    <path d="M 1266.66914 246.90101 
L 1273.221718 246.90101 
L 1273.221718 219.755859 
L 1266.66914 219.755859 
z
" clip-path="url(#p5895ac2340)" style="fill: #1f77b4"/>
   </g>
   <g id="patch_154">
    <path d="M 1273.949782 246.90101 
L 1280.50236 246.90101 
L 1280.50236 207.650589 
L 1273.949782 207.650589 
z
" clip-path="url(#p5895ac2340)" style="fill: #1f77b4"/>
   </g>
   <g id="patch_155">
    <path d="M 1281.230424 246.90101 
L 1287.783002 246.90101 
L 1287.783002 188.208792 
L 1281.230424 188.208792 
z
" clip-path="url(#p5895ac2340)" style="fill: #1f77b4"/>
   </g>
   <g id="patch_156">
    <path d="M 1288.511066 246.90101 
L 1295.063644 246.90101 
L 1295.063644 164.731905 
L 1288.511066 164.731905 
z
" clip-path="url(#p5895ac2340)" style="fill: #1f77b4"/>
   </g>
   <g id="patch_157">
    <path d="M 1295.791708 246.90101 
L 1302.344286 246.90101 
L 1302.344286 136.853102 
L 1295.791708 136.853102 
z
" clip-path="url(#p5895ac2340)" style="fill: #1f77b4"/>
   </g>
   <g id="patch_158">
    <path d="M 1303.07235 246.90101 
L 1309.624928 246.90101 
L 1309.624928 110.074777 
L 1303.07235 110.074777 
z
" clip-path="url(#p5895ac2340)" style="fill: #1f77b4"/>
   </g>
   <g id="patch_159">
    <path d="M 1310.352992 246.90101 
L 1316.90557 246.90101 
L 1316.90557 85.497411 
L 1310.352992 85.497411 
z
" clip-path="url(#p5895ac2340)" style="fill: #1f77b4"/>
   </g>
   <g id="patch_160">
    <path d="M 1317.633634 246.90101 
L 1324.186212 246.90101 
L 1324.186212 56.518129 
L 1317.633634 56.518129 
z
" clip-path="url(#p5895ac2340)" style="fill: #1f77b4"/>
   </g>
   <g id="patch_161">
    <path d="M 1324.914276 246.90101 
L 1331.466854 246.90101 
L 1331.466854 52.849865 
L 1324.914276 52.849865 
z
" clip-path="url(#p5895ac2340)" style="fill: #1f77b4"/>
   </g>
   <g id="patch_162">
    <path d="M 1332.194918 246.90101 
L 1338.747496 246.90101 
L 1338.747496 54.683997 
L 1332.194918 54.683997 
z
" clip-path="url(#p5895ac2340)" style="fill: #1f77b4"/>
   </g>
   <g id="patch_163">
    <path d="M 1339.47556 246.90101 
L 1346.028138 246.90101 
L 1346.028138 79.62819 
L 1339.47556 79.62819 
z
" clip-path="url(#p5895ac2340)" style="fill: #1f77b4"/>
   </g>
   <g id="patch_164">
    <path d="M 1346.756202 246.90101 
L 1353.30878 246.90101 
L 1353.30878 104.205556 
L 1346.756202 104.205556 
z
" clip-path="url(#p5895ac2340)" style="fill: #1f77b4"/>
   </g>
   <g id="patch_165">
    <path d="M 1354.036844 246.90101 
L 1360.589422 246.90101 
L 1360.589422 140.888192 
L 1354.036844 140.888192 
z
" clip-path="url(#p5895ac2340)" style="fill: #1f77b4"/>
   </g>
   <g id="patch_166">
    <path d="M 1361.317486 246.90101 
L 1367.870064 246.90101 
L 1367.870064 170.967953 
L 1361.317486 170.967953 
z
" clip-path="url(#p5895ac2340)" style="fill: #1f77b4"/>
   </g>
   <g id="patch_167">
    <path d="M 1368.598128 246.90101 
L 1375.150706 246.90101 
L 1375.150706 197.379451 
L 1368.598128 197.379451 
z
" clip-path="url(#p5895ac2340)" style="fill: #1f77b4"/>
   </g>
   <g id="patch_168">
    <path d="M 1375.87877 246.90101 
L 1382.431348 246.90101 
L 1382.431348 211.685679 
L 1375.87877 211.685679 
z
" clip-path="url(#p5895ac2340)" style="fill: #1f77b4"/>
   </g>
   <g id="patch_169">
    <path d="M 1383.159412 246.90101 
L 1389.71199 246.90101 
L 1389.71199 229.293345 
L 1383.159412 229.293345 
z
" clip-path="url(#p5895ac2340)" style="fill: #1f77b4"/>
   </g>
   <g id="patch_170">
    <path d="M 1390.440054 246.90101 
L 1396.992632 246.90101 
L 1396.992632 238.83083 
L 1390.440054 238.83083 
z
" clip-path="url(#p5895ac2340)" style="fill: #1f77b4"/>
   </g>
   <g id="patch_171">
    <path d="M 1397.720696 246.90101 
L 1404.273274 246.90101 
L 1404.273274 243.232746 
L 1397.720696 243.232746 
z
" clip-path="url(#p5895ac2340)" style="fill: #1f77b4"/>
   </g>
   <g id="patch_172">
    <path d="M 1405.001338 246.90101 
L 1411.553916 246.90101 
L 1411.553916 243.599573 
L 1405.001338 243.599573 
z
" clip-path="url(#p5895ac2340)" style="fill: #1f77b4"/>
   </g>
   <g id="patch_173">
    <path d="M 1412.28198 246.90101 
L 1418.834558 246.90101 
L 1418.834558 245.800531 
L 1412.28198 245.800531 
z
" clip-path="url(#p5895ac2340)" style="fill: #1f77b4"/>
   </g>
   <g id="patch_174">
    <path d="M 1419.562622 246.90101 
L 1426.1152 246.90101 
L 1426.1152 246.534184 
L 1419.562622 246.534184 
z
" clip-path="url(#p5895ac2340)" style="fill: #1f77b4"/>
   </g>
   <g id="matplotlib.axis_9">
    <g id="xtick_20">
     <g id="line2d_45">
      <g>
       <use xlink:href="#mc6237443bc" x="1248.456448" y="246.90101" style="stroke: #000000; stroke-width: 0.8"/>
      </g>
     </g>
     <g id="text_49">
      <!-- 4800 -->
      <g transform="translate(1230.641448 264.538822) scale(0.14 -0.14)">
       <use xlink:href="#DejaVuSans-34"/>
       <use xlink:href="#DejaVuSans-38" x="63.623047"/>
       <use xlink:href="#DejaVuSans-30" x="127.246094"/>
       <use xlink:href="#DejaVuSans-30" x="190.869141"/>
      </g>
     </g>
    </g>
    <g id="xtick_21">
     <g id="line2d_46">
      <g>
       <use xlink:href="#mc6237443bc" x="1317.832257" y="246.90101" style="stroke: #000000; stroke-width: 0.8"/>
      </g>
     </g>
     <g id="text_50">
      <!-- 5000 -->
      <g transform="translate(1300.017257 264.538822) scale(0.14 -0.14)">
       <use xlink:href="#DejaVuSans-35"/>
       <use xlink:href="#DejaVuSans-30" x="63.623047"/>
       <use xlink:href="#DejaVuSans-30" x="127.246094"/>
       <use xlink:href="#DejaVuSans-30" x="190.869141"/>
      </g>
     </g>
    </g>
    <g id="xtick_22">
     <g id="line2d_47">
      <g>
       <use xlink:href="#mc6237443bc" x="1387.208066" y="246.90101" style="stroke: #000000; stroke-width: 0.8"/>
      </g>
     </g>
     <g id="text_51">
      <!-- 5200 -->
      <g transform="translate(1369.393066 264.538822) scale(0.14 -0.14)">
       <use xlink:href="#DejaVuSans-35"/>
       <use xlink:href="#DejaVuSans-32" x="63.623047"/>
       <use xlink:href="#DejaVuSans-30" x="127.246094"/>
       <use xlink:href="#DejaVuSans-30" x="190.869141"/>
      </g>
     </g>
    </g>
    <g id="text_52">
     <!-- $G_{12}$ [MPa] -->
     <g transform="translate(1283.179602 282.088197) scale(0.14 -0.14)">
      <defs>
       <path id="DejaVuSans-Oblique-47" d="M 3494 697 
L 3738 1919 
L 2700 1919 
L 2797 2438 
L 4453 2438 
L 4050 384 
Q 3634 156 3143 32 
Q 2653 -91 2156 -91 
Q 1278 -91 783 396 
Q 288 884 288 1753 
Q 288 2475 589 3126 
Q 891 3778 1422 4213 
Q 1756 4484 2153 4617 
Q 2550 4750 3034 4750 
Q 3472 4750 3873 4639 
Q 4275 4528 4641 4306 
L 4513 3634 
Q 4231 3928 3853 4083 
Q 3475 4238 3047 4238 
Q 2550 4238 2172 4048 
Q 1794 3859 1497 3463 
Q 1244 3125 1098 2667 
Q 953 2209 953 1734 
Q 953 1081 1287 751 
Q 1622 422 2284 422 
Q 2616 422 2925 492 
Q 3234 563 3494 697 
z
" transform="scale(0.015625)"/>
      </defs>
      <use xlink:href="#DejaVuSans-Oblique-47" transform="translate(0 0.015625)"/>
      <use xlink:href="#DejaVuSans-31" transform="translate(77.490234 -16.390625) scale(0.7)"/>
      <use xlink:href="#DejaVuSans-32" transform="translate(122.026367 -16.390625) scale(0.7)"/>
      <use xlink:href="#DejaVuSans-20" transform="translate(169.296875 0.015625)"/>
      <use xlink:href="#DejaVuSans-5b" transform="translate(201.083984 0.015625)"/>
      <use xlink:href="#DejaVuSans-4d" transform="translate(240.097656 0.015625)"/>
      <use xlink:href="#DejaVuSans-50" transform="translate(326.376953 0.015625)"/>
      <use xlink:href="#DejaVuSans-61" transform="translate(386.679688 0.015625)"/>
      <use xlink:href="#DejaVuSans-5d" transform="translate(447.958984 0.015625)"/>
     </g>
    </g>
   </g>
   <g id="matplotlib.axis_10">
    <g id="ytick_21">
     <g id="line2d_48">
      <g>
       <use xlink:href="#m7b8153d1db" x="1197.539444" y="246.90101" style="stroke: #000000; stroke-width: 0.8"/>
      </g>
     </g>
     <g id="text_53">
      <!-- 0.000 -->
      <g transform="translate(1150.460069 252.219916) scale(0.14 -0.14)">
       <use xlink:href="#DejaVuSans-30"/>
       <use xlink:href="#DejaVuSans-2e" x="63.623047"/>
       <use xlink:href="#DejaVuSans-30" x="95.410156"/>
       <use xlink:href="#DejaVuSans-30" x="159.033203"/>
       <use xlink:href="#DejaVuSans-30" x="222.65625"/>
      </g>
     </g>
    </g>
    <g id="ytick_22">
     <g id="line2d_49">
      <g>
       <use xlink:href="#m7b8153d1db" x="1197.539444" y="208.40443" style="stroke: #000000; stroke-width: 0.8"/>
      </g>
     </g>
     <g id="text_54">
      <!-- 0.001 -->
      <g transform="translate(1150.460069 213.723336) scale(0.14 -0.14)">
       <use xlink:href="#DejaVuSans-30"/>
       <use xlink:href="#DejaVuSans-2e" x="63.623047"/>
       <use xlink:href="#DejaVuSans-30" x="95.410156"/>
       <use xlink:href="#DejaVuSans-30" x="159.033203"/>
       <use xlink:href="#DejaVuSans-31" x="222.65625"/>
      </g>
     </g>
    </g>
    <g id="ytick_23">
     <g id="line2d_50">
      <g>
       <use xlink:href="#m7b8153d1db" x="1197.539444" y="169.907849" style="stroke: #000000; stroke-width: 0.8"/>
      </g>
     </g>
     <g id="text_55">
      <!-- 0.002 -->
      <g transform="translate(1150.460069 175.226755) scale(0.14 -0.14)">
       <use xlink:href="#DejaVuSans-30"/>
       <use xlink:href="#DejaVuSans-2e" x="63.623047"/>
       <use xlink:href="#DejaVuSans-30" x="95.410156"/>
       <use xlink:href="#DejaVuSans-30" x="159.033203"/>
       <use xlink:href="#DejaVuSans-32" x="222.65625"/>
      </g>
     </g>
    </g>
    <g id="ytick_24">
     <g id="line2d_51">
      <g>
       <use xlink:href="#m7b8153d1db" x="1197.539444" y="131.411269" style="stroke: #000000; stroke-width: 0.8"/>
      </g>
     </g>
     <g id="text_56">
      <!-- 0.003 -->
      <g transform="translate(1150.460069 136.730175) scale(0.14 -0.14)">
       <use xlink:href="#DejaVuSans-30"/>
       <use xlink:href="#DejaVuSans-2e" x="63.623047"/>
       <use xlink:href="#DejaVuSans-30" x="95.410156"/>
       <use xlink:href="#DejaVuSans-30" x="159.033203"/>
       <use xlink:href="#DejaVuSans-33" x="222.65625"/>
      </g>
     </g>
    </g>
    <g id="ytick_25">
     <g id="line2d_52">
      <g>
       <use xlink:href="#m7b8153d1db" x="1197.539444" y="92.914688" style="stroke: #000000; stroke-width: 0.8"/>
      </g>
     </g>
     <g id="text_57">
      <!-- 0.004 -->
      <g transform="translate(1150.460069 98.233594) scale(0.14 -0.14)">
       <use xlink:href="#DejaVuSans-30"/>
       <use xlink:href="#DejaVuSans-2e" x="63.623047"/>
       <use xlink:href="#DejaVuSans-30" x="95.410156"/>
       <use xlink:href="#DejaVuSans-30" x="159.033203"/>
       <use xlink:href="#DejaVuSans-34" x="222.65625"/>
      </g>
     </g>
    </g>
    <g id="ytick_26">
     <g id="line2d_53">
      <g>
       <use xlink:href="#m7b8153d1db" x="1197.539444" y="54.418108" style="stroke: #000000; stroke-width: 0.8"/>
      </g>
     </g>
     <g id="text_58">
      <!-- 0.005 -->
      <g transform="translate(1150.460069 59.737014) scale(0.14 -0.14)">
       <use xlink:href="#DejaVuSans-30"/>
       <use xlink:href="#DejaVuSans-2e" x="63.623047"/>
       <use xlink:href="#DejaVuSans-30" x="95.410156"/>
       <use xlink:href="#DejaVuSans-30" x="159.033203"/>
       <use xlink:href="#DejaVuSans-35" x="222.65625"/>
      </g>
     </g>
    </g>
   </g>
   <g id="line2d_54">
    <path d="M 1265.8004 244.46371 
L 1267.272008 243.983086 
L 1268.743616 243.420492 
L 1270.215224 242.764648 
L 1271.686832 242.003245 
L 1273.15844 241.122949 
L 1274.630048 240.109425 
L 1276.101656 238.947388 
L 1277.573265 237.620678 
L 1279.044873 236.112365 
L 1280.516481 234.404892 
L 1281.988089 232.480252 
L 1283.459697 230.320195 
L 1284.931305 227.906485 
L 1286.402913 225.221183 
L 1287.874521 222.246977 
L 1289.346129 218.967537 
L 1290.817737 215.367908 
L 1292.289345 211.434926 
L 1293.760953 207.157649 
L 1295.232561 202.527812 
L 1296.704169 197.540269 
L 1298.175777 192.193443 
L 1299.647386 186.489745 
L 1301.118994 180.435973 
L 1302.590602 174.043661 
L 1304.06221 167.329375 
L 1305.533818 160.314948 
L 1307.005426 153.027622 
L 1308.477034 145.500114 
L 1309.948642 137.770575 
L 1311.42025 129.882443 
L 1312.891858 121.884187 
L 1314.363466 113.828932 
L 1315.835074 105.773976 
L 1317.306682 97.780189 
L 1318.77829 89.911313 
L 1320.249899 82.233161 
L 1321.721507 74.81274 
L 1323.193115 67.717302 
L 1324.664723 61.013347 
L 1326.136331 54.765601 
L 1327.607939 49.035979 
L 1329.079547 43.882573 
L 1330.551155 39.35867 
L 1332.022763 35.511841 
L 1333.494371 32.383103 
L 1334.965979 30.006197 
L 1336.437587 28.40698 
L 1337.909195 27.602955 
L 1339.380803 27.602955 
L 1340.852412 28.40698 
L 1342.32402 30.006197 
L 1343.795628 32.383103 
L 1345.267236 35.511841 
L 1346.738844 39.35867 
L 1348.210452 43.882573 
L 1349.68206 49.035979 
L 1351.153668 54.765601 
L 1352.625276 61.013347 
L 1354.096884 67.717302 
L 1355.568492 74.81274 
L 1357.0401 82.233161 
L 1358.511708 89.911313 
L 1359.983316 97.780189 
L 1361.454925 105.773976 
L 1362.926533 113.828932 
L 1364.398141 121.884187 
L 1365.869749 129.882443 
L 1367.341357 137.770575 
L 1368.812965 145.500114 
L 1370.284573 153.027622 
L 1371.756181 160.314948 
L 1373.227789 167.329375 
L 1374.699397 174.043661 
L 1376.171005 180.435973 
L 1377.642613 186.489745 
L 1379.114221 192.193443 
L 1380.585829 197.540269 
L 1382.057438 202.527812 
L 1383.529046 207.157649 
L 1385.000654 211.434926 
L 1386.472262 215.367908 
L 1387.94387 218.967537 
L 1389.415478 222.246977 
L 1390.887086 225.221183 
L 1392.358694 227.906485 
L 1393.830302 230.320195 
L 1395.30191 232.480252 
L 1396.773518 234.404892 
L 1398.245126 236.112365 
L 1399.716734 237.620678 
L 1401.188342 238.947388 
L 1402.65995 240.109425 
L 1404.131559 241.122949 
L 1405.603167 242.003245 
L 1407.074775 242.764648 
L 1408.546383 243.420492 
L 1410.017991 243.983086 
L 1411.489599 244.46371 
" clip-path="url(#p5895ac2340)" style="fill: none; stroke: #2ca02c; stroke-width: 1.5; stroke-linecap: square"/>
   </g>
   <g id="patch_175">
    <path d="M 1197.539444 246.90101 
L 1197.539444 16.638052 
" style="fill: none; stroke: #000000; stroke-width: 0.8; stroke-linejoin: miter; stroke-linecap: square"/>
   </g>
   <g id="patch_176">
    <path d="M 1436.99976 246.90101 
L 1436.99976 16.638052 
" style="fill: none; stroke: #000000; stroke-width: 0.8; stroke-linejoin: miter; stroke-linecap: square"/>
   </g>
   <g id="patch_177">
    <path d="M 1197.539444 246.90101 
L 1436.99976 246.90101 
" style="fill: none; stroke: #000000; stroke-width: 0.8; stroke-linejoin: miter; stroke-linecap: square"/>
   </g>
   <g id="patch_178">
    <path d="M 1197.539444 16.638052 
L 1436.99976 16.638052 
" style="fill: none; stroke: #000000; stroke-width: 0.8; stroke-linejoin: miter; stroke-linecap: square"/>
   </g>
  </g>
 </g>
 <defs>
  <clipPath id="pce187113ab">
   <rect x="36.457115" y="16.638052" width="239.460316" height="230.262958"/>
  </clipPath>
  <clipPath id="p0f281cd1be">
   <rect x="335.660778" y="16.638052" width="239.460316" height="230.262958"/>
  </clipPath>
  <clipPath id="p8f3dcf7027">
   <rect x="622.292511" y="16.638052" width="239.460316" height="230.262958"/>
  </clipPath>
  <clipPath id="pf00dd22709">
   <rect x="904.999273" y="16.638052" width="239.460316" height="230.262958"/>
  </clipPath>
  <clipPath id="p5895ac2340">
   <rect x="1197.539444" y="16.638052" width="239.460316" height="230.262958"/>
  </clipPath>
 </defs>
</svg>
