<?xml version="1.0" encoding="utf-8" standalone="no"?>
<!DOCTYPE svg PUBLIC "-//W3C//DTD SVG 1.1//EN"
  "http://www.w3.org/Graphics/SVG/1.1/DTD/svg11.dtd">
<svg xmlns:xlink="http://www.w3.org/1999/xlink" width="1440pt" height="288pt" viewBox="0 0 1440 288" xmlns="http://www.w3.org/2000/svg" version="1.1">
 <metadata>
  <rdf:RDF xmlns:dc="http://purl.org/dc/elements/1.1/" xmlns:cc="http://creativecommons.org/ns#" xmlns:rdf="http://www.w3.org/1999/02/22-rdf-syntax-ns#">
   <cc:Work>
    <dc:type rdf:resource="http://purl.org/dc/dcmitype/StillImage"/>
    <dc:date>2025-07-24T18:33:52.637522</dc:date>
    <dc:format>image/svg+xml</dc:format>
    <dc:creator>
     <cc:Agent>
      <dc:title>Matplotlib v3.8.4, https://matplotlib.org/</dc:title>
     </cc:Agent>
    </dc:creator>
   </cc:Work>
  </rdf:RDF>
 </metadata>
 <defs>
  <style type="text/css">*{stroke-linejoin: round; stroke-linecap: butt}</style>
 </defs>
 <g id="figure_1">
  <g id="patch_1">
   <path d="M 0 288 
L 1440 288 
L 1440 0 
L 0 0 
z
" style="fill: #ffffff"/>
  </g>
  <g id="axes_1">
   <g id="patch_2">
    <path d="M 58.72149 246.90101 
L 292.803135 246.90101 
L 292.803135 16.638052 
L 58.72149 16.638052 
z
" style="fill: #ffffff"/>
   </g>
   <g id="patch_3">
    <path d="M 150.035876 246.90101 
L 152.869784 246.90101 
L 152.869784 244.6027 
L 150.035876 244.6027 
z
" clip-path="url(#p3e4c832f5d)" style="fill: #1f77b4"/>
   </g>
   <g id="patch_4">
    <path d="M 153.184663 246.90101 
L 156.018571 246.90101 
L 156.018571 245.751855 
L 153.184663 245.751855 
z
" clip-path="url(#p3e4c832f5d)" style="fill: #1f77b4"/>
   </g>
   <g id="patch_5">
    <path d="M 156.333449 246.90101 
L 159.167357 246.90101 
L 159.167357 241.155236 
L 156.333449 241.155236 
z
" clip-path="url(#p3e4c832f5d)" style="fill: #1f77b4"/>
   </g>
   <g id="patch_6">
    <path d="M 159.482236 246.90101 
L 162.316144 246.90101 
L 162.316144 240.006081 
L 159.482236 240.006081 
z
" clip-path="url(#p3e4c832f5d)" style="fill: #1f77b4"/>
   </g>
   <g id="patch_7">
    <path d="M 162.631023 246.90101 
L 165.464931 246.90101 
L 165.464931 229.663688 
L 162.631023 229.663688 
z
" clip-path="url(#p3e4c832f5d)" style="fill: #1f77b4"/>
   </g>
   <g id="patch_8">
    <path d="M 165.77981 246.90101 
L 168.613718 246.90101 
L 168.613718 212.426366 
L 165.77981 212.426366 
z
" clip-path="url(#p3e4c832f5d)" style="fill: #1f77b4"/>
   </g>
   <g id="patch_9">
    <path d="M 168.928596 246.90101 
L 171.762504 246.90101 
L 171.762504 207.829747 
L 168.928596 207.829747 
z
" clip-path="url(#p3e4c832f5d)" style="fill: #1f77b4"/>
   </g>
   <g id="patch_10">
    <path d="M 172.077383 246.90101 
L 174.911291 246.90101 
L 174.911291 196.338199 
L 172.077383 196.338199 
z
" clip-path="url(#p3e4c832f5d)" style="fill: #1f77b4"/>
   </g>
   <g id="patch_11">
    <path d="M 175.22617 246.90101 
L 178.060078 246.90101 
L 178.060078 167.60933 
L 175.22617 167.60933 
z
" clip-path="url(#p3e4c832f5d)" style="fill: #1f77b4"/>
   </g>
   <g id="patch_12">
    <path d="M 178.374957 246.90101 
L 181.208865 246.90101 
L 181.208865 152.670318 
L 178.374957 152.670318 
z
" clip-path="url(#p3e4c832f5d)" style="fill: #1f77b4"/>
   </g>
   <g id="patch_13">
    <path d="M 181.523743 246.90101 
L 184.357651 246.90101 
L 184.357651 112.4499 
L 181.523743 112.4499 
z
" clip-path="url(#p3e4c832f5d)" style="fill: #1f77b4"/>
   </g>
   <g id="patch_14">
    <path d="M 184.67253 246.90101 
L 187.506438 246.90101 
L 187.506438 88.31765 
L 184.67253 88.31765 
z
" clip-path="url(#p3e4c832f5d)" style="fill: #1f77b4"/>
   </g>
   <g id="patch_15">
    <path d="M 187.821317 246.90101 
L 190.655225 246.90101 
L 190.655225 58.439625 
L 187.821317 58.439625 
z
" clip-path="url(#p3e4c832f5d)" style="fill: #1f77b4"/>
   </g>
   <g id="patch_16">
    <path d="M 190.970103 246.90101 
L 193.804011 246.90101 
L 193.804011 52.693851 
L 190.970103 52.693851 
z
" clip-path="url(#p3e4c832f5d)" style="fill: #1f77b4"/>
   </g>
   <g id="patch_17">
    <path d="M 194.11889 246.90101 
L 196.952798 246.90101 
L 196.952798 30.85991 
L 194.11889 30.85991 
z
" clip-path="url(#p3e4c832f5d)" style="fill: #1f77b4"/>
   </g>
   <g id="patch_18">
    <path d="M 197.267677 246.90101 
L 200.101585 246.90101 
L 200.101585 38.903994 
L 197.267677 38.903994 
z
" clip-path="url(#p3e4c832f5d)" style="fill: #1f77b4"/>
   </g>
   <g id="patch_19">
    <path d="M 200.416464 246.90101 
L 203.250372 246.90101 
L 203.250372 30.85991 
L 200.416464 30.85991 
z
" clip-path="url(#p3e4c832f5d)" style="fill: #1f77b4"/>
   </g>
   <g id="patch_20">
    <path d="M 203.56525 246.90101 
L 206.399158 246.90101 
L 206.399158 83.72103 
L 203.56525 83.72103 
z
" clip-path="url(#p3e4c832f5d)" style="fill: #1f77b4"/>
   </g>
   <g id="patch_21">
    <path d="M 206.714037 246.90101 
L 209.547945 246.90101 
L 209.547945 110.15159 
L 206.714037 110.15159 
z
" clip-path="url(#p3e4c832f5d)" style="fill: #1f77b4"/>
   </g>
   <g id="patch_22">
    <path d="M 209.862824 246.90101 
L 212.696732 246.90101 
L 212.696732 119.344829 
L 209.862824 119.344829 
z
" clip-path="url(#p3e4c832f5d)" style="fill: #1f77b4"/>
   </g>
   <g id="patch_23">
    <path d="M 213.01161 246.90101 
L 215.845519 246.90101 
L 215.845519 149.222853 
L 213.01161 149.222853 
z
" clip-path="url(#p3e4c832f5d)" style="fill: #1f77b4"/>
   </g>
   <g id="patch_24">
    <path d="M 216.160397 246.90101 
L 218.994305 246.90101 
L 218.994305 183.697497 
L 216.160397 183.697497 
z
" clip-path="url(#p3e4c832f5d)" style="fill: #1f77b4"/>
   </g>
   <g id="patch_25">
    <path d="M 219.309184 246.90101 
L 222.143092 246.90101 
L 222.143092 167.60933 
L 219.309184 167.60933 
z
" clip-path="url(#p3e4c832f5d)" style="fill: #1f77b4"/>
   </g>
   <g id="patch_26">
    <path d="M 222.457971 246.90101 
L 225.291879 246.90101 
L 225.291879 196.338199 
L 222.457971 196.338199 
z
" clip-path="url(#p3e4c832f5d)" style="fill: #1f77b4"/>
   </g>
   <g id="patch_27">
    <path d="M 225.606757 246.90101 
L 228.440665 246.90101 
L 228.440665 213.575521 
L 225.606757 213.575521 
z
" clip-path="url(#p3e4c832f5d)" style="fill: #1f77b4"/>
   </g>
   <g id="patch_28">
    <path d="M 228.755544 246.90101 
L 231.589452 246.90101 
L 231.589452 230.812843 
L 228.755544 230.812843 
z
" clip-path="url(#p3e4c832f5d)" style="fill: #1f77b4"/>
   </g>
   <g id="patch_29">
    <path d="M 231.904331 246.90101 
L 234.738239 246.90101 
L 234.738239 235.409462 
L 231.904331 235.409462 
z
" clip-path="url(#p3e4c832f5d)" style="fill: #1f77b4"/>
   </g>
   <g id="patch_30">
    <path d="M 235.053118 246.90101 
L 237.887026 246.90101 
L 237.887026 236.558617 
L 235.053118 236.558617 
z
" clip-path="url(#p3e4c832f5d)" style="fill: #1f77b4"/>
   </g>
   <g id="patch_31">
    <path d="M 238.201904 246.90101 
L 241.035812 246.90101 
L 241.035812 244.6027 
L 238.201904 244.6027 
z
" clip-path="url(#p3e4c832f5d)" style="fill: #1f77b4"/>
   </g>
   <g id="patch_32">
    <path d="M 241.350691 246.90101 
L 244.184599 246.90101 
L 244.184599 240.006081 
L 241.350691 240.006081 
z
" clip-path="url(#p3e4c832f5d)" style="fill: #1f77b4"/>
   </g>
   <g id="matplotlib.axis_1">
    <g id="xtick_1">
     <g id="line2d_1">
      <defs>
       <path id="mc7ef5e4d25" d="M 0 0 
L 0 3.5 
" style="stroke: #000000; stroke-width: 0.8"/>
      </defs>
      <g>
       <use xlink:href="#mc7ef5e4d25" x="58.72149" y="246.90101" style="stroke: #000000; stroke-width: 0.8"/>
      </g>
     </g>
     <g id="text_1">
      <!-- 1.4 -->
      <g transform="translate(47.589303 264.538822) scale(0.14 -0.14)">
       <defs>
        <path id="DejaVuSans-31" d="M 794 531 
L 1825 531 
L 1825 4091 
L 703 3866 
L 703 4441 
L 1819 4666 
L 2450 4666 
L 2450 531 
L 3481 531 
L 3481 0 
L 794 0 
L 794 531 
z
" transform="scale(0.015625)"/>
        <path id="DejaVuSans-2e" d="M 684 794 
L 1344 794 
L 1344 0 
L 684 0 
L 684 794 
z
" transform="scale(0.015625)"/>
        <path id="DejaVuSans-34" d="M 2419 4116 
L 825 1625 
L 2419 1625 
L 2419 4116 
z
M 2253 4666 
L 3047 4666 
L 3047 1625 
L 3713 1625 
L 3713 1100 
L 3047 1100 
L 3047 0 
L 2419 0 
L 2419 1100 
L 313 1100 
L 313 1709 
L 2253 4666 
z
" transform="scale(0.015625)"/>
       </defs>
       <use xlink:href="#DejaVuSans-31"/>
       <use xlink:href="#DejaVuSans-2e" x="63.623047"/>
       <use xlink:href="#DejaVuSans-34" x="95.410156"/>
      </g>
     </g>
    </g>
    <g id="xtick_2">
     <g id="line2d_2">
      <g>
       <use xlink:href="#mc7ef5e4d25" x="125.60196" y="246.90101" style="stroke: #000000; stroke-width: 0.8"/>
      </g>
     </g>
     <g id="text_2">
      <!-- 1.5 -->
      <g transform="translate(114.469772 264.538822) scale(0.14 -0.14)">
       <defs>
        <path id="DejaVuSans-35" d="M 691 4666 
L 3169 4666 
L 3169 4134 
L 1269 4134 
L 1269 2991 
Q 1406 3038 1543 3061 
Q 1681 3084 1819 3084 
Q 2600 3084 3056 2656 
Q 3513 2228 3513 1497 
Q 3513 744 3044 326 
Q 2575 -91 1722 -91 
Q 1428 -91 1123 -41 
Q 819 9 494 109 
L 494 744 
Q 775 591 1075 516 
Q 1375 441 1709 441 
Q 2250 441 2565 725 
Q 2881 1009 2881 1497 
Q 2881 1984 2565 2268 
Q 2250 2553 1709 2553 
Q 1456 2553 1204 2497 
Q 953 2441 691 2322 
L 691 4666 
z
" transform="scale(0.015625)"/>
       </defs>
       <use xlink:href="#DejaVuSans-31"/>
       <use xlink:href="#DejaVuSans-2e" x="63.623047"/>
       <use xlink:href="#DejaVuSans-35" x="95.410156"/>
      </g>
     </g>
    </g>
    <g id="xtick_3">
     <g id="line2d_3">
      <g>
       <use xlink:href="#mc7ef5e4d25" x="192.48243" y="246.90101" style="stroke: #000000; stroke-width: 0.8"/>
      </g>
     </g>
     <g id="text_3">
      <!-- 1.6 -->
      <g transform="translate(181.350242 264.538822) scale(0.14 -0.14)">
       <defs>
        <path id="DejaVuSans-36" d="M 2113 2584 
Q 1688 2584 1439 2293 
Q 1191 2003 1191 1497 
Q 1191 994 1439 701 
Q 1688 409 2113 409 
Q 2538 409 2786 701 
Q 3034 994 3034 1497 
Q 3034 2003 2786 2293 
Q 2538 2584 2113 2584 
z
M 3366 4563 
L 3366 3988 
Q 3128 4100 2886 4159 
Q 2644 4219 2406 4219 
Q 1781 4219 1451 3797 
Q 1122 3375 1075 2522 
Q 1259 2794 1537 2939 
Q 1816 3084 2150 3084 
Q 2853 3084 3261 2657 
Q 3669 2231 3669 1497 
Q 3669 778 3244 343 
Q 2819 -91 2113 -91 
Q 1303 -91 875 529 
Q 447 1150 447 2328 
Q 447 3434 972 4092 
Q 1497 4750 2381 4750 
Q 2619 4750 2861 4703 
Q 3103 4656 3366 4563 
z
" transform="scale(0.015625)"/>
       </defs>
       <use xlink:href="#DejaVuSans-31"/>
       <use xlink:href="#DejaVuSans-2e" x="63.623047"/>
       <use xlink:href="#DejaVuSans-36" x="95.410156"/>
      </g>
     </g>
    </g>
    <g id="xtick_4">
     <g id="line2d_4">
      <g>
       <use xlink:href="#mc7ef5e4d25" x="259.3629" y="246.90101" style="stroke: #000000; stroke-width: 0.8"/>
      </g>
     </g>
     <g id="text_4">
      <!-- 1.7 -->
      <g transform="translate(248.230713 264.538822) scale(0.14 -0.14)">
       <defs>
        <path id="DejaVuSans-37" d="M 525 4666 
L 3525 4666 
L 3525 4397 
L 1831 0 
L 1172 0 
L 2766 4134 
L 525 4134 
L 525 4666 
z
" transform="scale(0.015625)"/>
       </defs>
       <use xlink:href="#DejaVuSans-31"/>
       <use xlink:href="#DejaVuSans-2e" x="63.623047"/>
       <use xlink:href="#DejaVuSans-37" x="95.410156"/>
      </g>
     </g>
    </g>
    <g id="text_5">
     <!-- $E_1$ [MPa] -->
     <g transform="translate(145.732313 282.088197) scale(0.14 -0.14)">
      <defs>
       <path id="DejaVuSans-Oblique-45" d="M 1081 4666 
L 4031 4666 
L 3928 4134 
L 1606 4134 
L 1338 2753 
L 3566 2753 
L 3463 2222 
L 1234 2222 
L 909 531 
L 3284 531 
L 3181 0 
L 172 0 
L 1081 4666 
z
" transform="scale(0.015625)"/>
       <path id="DejaVuSans-20" transform="scale(0.015625)"/>
       <path id="DejaVuSans-5b" d="M 550 4863 
L 1875 4863 
L 1875 4416 
L 1125 4416 
L 1125 -397 
L 1875 -397 
L 1875 -844 
L 550 -844 
L 550 4863 
z
" transform="scale(0.015625)"/>
       <path id="DejaVuSans-4d" d="M 628 4666 
L 1569 4666 
L 2759 1491 
L 3956 4666 
L 4897 4666 
L 4897 0 
L 4281 0 
L 4281 4097 
L 3078 897 
L 2444 897 
L 1241 4097 
L 1241 0 
L 628 0 
L 628 4666 
z
" transform="scale(0.015625)"/>
       <path id="DejaVuSans-50" d="M 1259 4147 
L 1259 2394 
L 2053 2394 
Q 2494 2394 2734 2622 
Q 2975 2850 2975 3272 
Q 2975 3691 2734 3919 
Q 2494 4147 2053 4147 
L 1259 4147 
z
M 628 4666 
L 2053 4666 
Q 2838 4666 3239 4311 
Q 3641 3956 3641 3272 
Q 3641 2581 3239 2228 
Q 2838 1875 2053 1875 
L 1259 1875 
L 1259 0 
L 628 0 
L 628 4666 
z
" transform="scale(0.015625)"/>
       <path id="DejaVuSans-61" d="M 2194 1759 
Q 1497 1759 1228 1600 
Q 959 1441 959 1056 
Q 959 750 1161 570 
Q 1363 391 1709 391 
Q 2188 391 2477 730 
Q 2766 1069 2766 1631 
L 2766 1759 
L 2194 1759 
z
M 3341 1997 
L 3341 0 
L 2766 0 
L 2766 531 
Q 2569 213 2275 61 
Q 1981 -91 1556 -91 
Q 1019 -91 701 211 
Q 384 513 384 1019 
Q 384 1609 779 1909 
Q 1175 2209 1959 2209 
L 2766 2209 
L 2766 2266 
Q 2766 2663 2505 2880 
Q 2244 3097 1772 3097 
Q 1472 3097 1187 3025 
Q 903 2953 641 2809 
L 641 3341 
Q 956 3463 1253 3523 
Q 1550 3584 1831 3584 
Q 2591 3584 2966 3190 
Q 3341 2797 3341 1997 
z
" transform="scale(0.015625)"/>
       <path id="DejaVuSans-5d" d="M 1947 4863 
L 1947 -844 
L 622 -844 
L 622 -397 
L 1369 -397 
L 1369 4416 
L 622 4416 
L 622 4863 
L 1947 4863 
z
" transform="scale(0.015625)"/>
      </defs>
      <use xlink:href="#DejaVuSans-Oblique-45" transform="translate(0 0.015625)"/>
      <use xlink:href="#DejaVuSans-31" transform="translate(63.183594 -16.390625) scale(0.7)"/>
      <use xlink:href="#DejaVuSans-20" transform="translate(110.454102 0.015625)"/>
      <use xlink:href="#DejaVuSans-5b" transform="translate(142.241211 0.015625)"/>
      <use xlink:href="#DejaVuSans-4d" transform="translate(181.254883 0.015625)"/>
      <use xlink:href="#DejaVuSans-50" transform="translate(267.53418 0.015625)"/>
      <use xlink:href="#DejaVuSans-61" transform="translate(327.836914 0.015625)"/>
      <use xlink:href="#DejaVuSans-5d" transform="translate(389.116211 0.015625)"/>
     </g>
    </g>
    <g id="text_6">
     <!-- 1e5 -->
     <g transform="translate(266.37376 281.088197) scale(0.14 -0.14)">
      <defs>
       <path id="DejaVuSans-65" d="M 3597 1894 
L 3597 1613 
L 953 1613 
Q 991 1019 1311 708 
Q 1631 397 2203 397 
Q 2534 397 2845 478 
Q 3156 559 3463 722 
L 3463 178 
Q 3153 47 2828 -22 
Q 2503 -91 2169 -91 
Q 1331 -91 842 396 
Q 353 884 353 1716 
Q 353 2575 817 3079 
Q 1281 3584 2069 3584 
Q 2775 3584 3186 3129 
Q 3597 2675 3597 1894 
z
M 3022 2063 
Q 3016 2534 2758 2815 
Q 2500 3097 2075 3097 
Q 1594 3097 1305 2825 
Q 1016 2553 972 2059 
L 3022 2063 
z
" transform="scale(0.015625)"/>
      </defs>
      <use xlink:href="#DejaVuSans-31"/>
      <use xlink:href="#DejaVuSans-65" x="63.623047"/>
      <use xlink:href="#DejaVuSans-35" x="125.146484"/>
     </g>
    </g>
   </g>
   <g id="matplotlib.axis_2">
    <g id="ytick_1">
     <g id="line2d_5">
      <defs>
       <path id="md3d193b40b" d="M 0 0 
L -3.5 0 
" style="stroke: #000000; stroke-width: 0.8"/>
      </defs>
      <g>
       <use xlink:href="#md3d193b40b" x="58.72149" y="246.90101" style="stroke: #000000; stroke-width: 0.8"/>
      </g>
     </g>
     <g id="text_7">
      <!-- 0.00 -->
      <g transform="translate(20.549615 252.219916) scale(0.14 -0.14)">
       <defs>
        <path id="DejaVuSans-30" d="M 2034 4250 
Q 1547 4250 1301 3770 
Q 1056 3291 1056 2328 
Q 1056 1369 1301 889 
Q 1547 409 2034 409 
Q 2525 409 2770 889 
Q 3016 1369 3016 2328 
Q 3016 3291 2770 3770 
Q 2525 4250 2034 4250 
z
M 2034 4750 
Q 2819 4750 3233 4129 
Q 3647 3509 3647 2328 
Q 3647 1150 3233 529 
Q 2819 -91 2034 -91 
Q 1250 -91 836 529 
Q 422 1150 422 2328 
Q 422 3509 836 4129 
Q 1250 4750 2034 4750 
z
" transform="scale(0.015625)"/>
       </defs>
       <use xlink:href="#DejaVuSans-30"/>
       <use xlink:href="#DejaVuSans-2e" x="63.623047"/>
       <use xlink:href="#DejaVuSans-30" x="95.410156"/>
       <use xlink:href="#DejaVuSans-30" x="159.033203"/>
      </g>
     </g>
    </g>
    <g id="ytick_2">
     <g id="line2d_6">
      <g>
       <use xlink:href="#md3d193b40b" x="58.72149" y="218.11814" style="stroke: #000000; stroke-width: 0.8"/>
      </g>
     </g>
     <g id="text_8">
      <!-- 0.25 -->
      <g transform="translate(20.549615 223.437047) scale(0.14 -0.14)">
       <defs>
        <path id="DejaVuSans-32" d="M 1228 531 
L 3431 531 
L 3431 0 
L 469 0 
L 469 531 
Q 828 903 1448 1529 
Q 2069 2156 2228 2338 
Q 2531 2678 2651 2914 
Q 2772 3150 2772 3378 
Q 2772 3750 2511 3984 
Q 2250 4219 1831 4219 
Q 1534 4219 1204 4116 
Q 875 4013 500 3803 
L 500 4441 
Q 881 4594 1212 4672 
Q 1544 4750 1819 4750 
Q 2544 4750 2975 4387 
Q 3406 4025 3406 3419 
Q 3406 3131 3298 2873 
Q 3191 2616 2906 2266 
Q 2828 2175 2409 1742 
Q 1991 1309 1228 531 
z
" transform="scale(0.015625)"/>
       </defs>
       <use xlink:href="#DejaVuSans-30"/>
       <use xlink:href="#DejaVuSans-2e" x="63.623047"/>
       <use xlink:href="#DejaVuSans-32" x="95.410156"/>
       <use xlink:href="#DejaVuSans-35" x="159.033203"/>
      </g>
     </g>
    </g>
    <g id="ytick_3">
     <g id="line2d_7">
      <g>
       <use xlink:href="#md3d193b40b" x="58.72149" y="189.335271" style="stroke: #000000; stroke-width: 0.8"/>
      </g>
     </g>
     <g id="text_9">
      <!-- 0.50 -->
      <g transform="translate(20.549615 194.654177) scale(0.14 -0.14)">
       <use xlink:href="#DejaVuSans-30"/>
       <use xlink:href="#DejaVuSans-2e" x="63.623047"/>
       <use xlink:href="#DejaVuSans-35" x="95.410156"/>
       <use xlink:href="#DejaVuSans-30" x="159.033203"/>
      </g>
     </g>
    </g>
    <g id="ytick_4">
     <g id="line2d_8">
      <g>
       <use xlink:href="#md3d193b40b" x="58.72149" y="160.552401" style="stroke: #000000; stroke-width: 0.8"/>
      </g>
     </g>
     <g id="text_10">
      <!-- 0.75 -->
      <g transform="translate(20.549615 165.871307) scale(0.14 -0.14)">
       <use xlink:href="#DejaVuSans-30"/>
       <use xlink:href="#DejaVuSans-2e" x="63.623047"/>
       <use xlink:href="#DejaVuSans-37" x="95.410156"/>
       <use xlink:href="#DejaVuSans-35" x="159.033203"/>
      </g>
     </g>
    </g>
    <g id="ytick_5">
     <g id="line2d_9">
      <g>
       <use xlink:href="#md3d193b40b" x="58.72149" y="131.769531" style="stroke: #000000; stroke-width: 0.8"/>
      </g>
     </g>
     <g id="text_11">
      <!-- 1.00 -->
      <g transform="translate(20.549615 137.088437) scale(0.14 -0.14)">
       <use xlink:href="#DejaVuSans-31"/>
       <use xlink:href="#DejaVuSans-2e" x="63.623047"/>
       <use xlink:href="#DejaVuSans-30" x="95.410156"/>
       <use xlink:href="#DejaVuSans-30" x="159.033203"/>
      </g>
     </g>
    </g>
    <g id="ytick_6">
     <g id="line2d_10">
      <g>
       <use xlink:href="#md3d193b40b" x="58.72149" y="102.986662" style="stroke: #000000; stroke-width: 0.8"/>
      </g>
     </g>
     <g id="text_12">
      <!-- 1.25 -->
      <g transform="translate(20.549615 108.305568) scale(0.14 -0.14)">
       <use xlink:href="#DejaVuSans-31"/>
       <use xlink:href="#DejaVuSans-2e" x="63.623047"/>
       <use xlink:href="#DejaVuSans-32" x="95.410156"/>
       <use xlink:href="#DejaVuSans-35" x="159.033203"/>
      </g>
     </g>
    </g>
    <g id="ytick_7">
     <g id="line2d_11">
      <g>
       <use xlink:href="#md3d193b40b" x="58.72149" y="74.203792" style="stroke: #000000; stroke-width: 0.8"/>
      </g>
     </g>
     <g id="text_13">
      <!-- 1.50 -->
      <g transform="translate(20.549615 79.522698) scale(0.14 -0.14)">
       <use xlink:href="#DejaVuSans-31"/>
       <use xlink:href="#DejaVuSans-2e" x="63.623047"/>
       <use xlink:href="#DejaVuSans-35" x="95.410156"/>
       <use xlink:href="#DejaVuSans-30" x="159.033203"/>
      </g>
     </g>
    </g>
    <g id="ytick_8">
     <g id="line2d_12">
      <g>
       <use xlink:href="#md3d193b40b" x="58.72149" y="45.420922" style="stroke: #000000; stroke-width: 0.8"/>
      </g>
     </g>
     <g id="text_14">
      <!-- 1.75 -->
      <g transform="translate(20.549615 50.739828) scale(0.14 -0.14)">
       <use xlink:href="#DejaVuSans-31"/>
       <use xlink:href="#DejaVuSans-2e" x="63.623047"/>
       <use xlink:href="#DejaVuSans-37" x="95.410156"/>
       <use xlink:href="#DejaVuSans-35" x="159.033203"/>
      </g>
     </g>
    </g>
    <g id="ytick_9">
     <g id="line2d_13">
      <g>
       <use xlink:href="#md3d193b40b" x="58.72149" y="16.638052" style="stroke: #000000; stroke-width: 0.8"/>
      </g>
     </g>
     <g id="text_15">
      <!-- 2.00 -->
      <g transform="translate(20.549615 21.956959) scale(0.14 -0.14)">
       <use xlink:href="#DejaVuSans-32"/>
       <use xlink:href="#DejaVuSans-2e" x="63.623047"/>
       <use xlink:href="#DejaVuSans-30" x="95.410156"/>
       <use xlink:href="#DejaVuSans-30" x="159.033203"/>
      </g>
     </g>
    </g>
    <g id="text_16">
     <!-- PDF -->
     <g transform="translate(13.638053 145.406406) rotate(-90) scale(0.14 -0.14)">
      <defs>
       <path id="DejaVuSans-44" d="M 1259 4147 
L 1259 519 
L 2022 519 
Q 2988 519 3436 956 
Q 3884 1394 3884 2338 
Q 3884 3275 3436 3711 
Q 2988 4147 2022 4147 
L 1259 4147 
z
M 628 4666 
L 1925 4666 
Q 3281 4666 3915 4102 
Q 4550 3538 4550 2338 
Q 4550 1131 3912 565 
Q 3275 0 1925 0 
L 628 0 
L 628 4666 
z
" transform="scale(0.015625)"/>
       <path id="DejaVuSans-46" d="M 628 4666 
L 3309 4666 
L 3309 4134 
L 1259 4134 
L 1259 2759 
L 3109 2759 
L 3109 2228 
L 1259 2228 
L 1259 0 
L 628 0 
L 628 4666 
z
" transform="scale(0.015625)"/>
      </defs>
      <use xlink:href="#DejaVuSans-50"/>
      <use xlink:href="#DejaVuSans-44" x="60.302734"/>
      <use xlink:href="#DejaVuSans-46" x="137.304688"/>
     </g>
    </g>
    <g id="text_17">
     <!-- 1e−4 -->
     <g transform="translate(58.72149 13.638052) scale(0.14 -0.14)">
      <defs>
       <path id="DejaVuSans-2212" d="M 678 2272 
L 4684 2272 
L 4684 1741 
L 678 1741 
L 678 2272 
z
" transform="scale(0.015625)"/>
      </defs>
      <use xlink:href="#DejaVuSans-31"/>
      <use xlink:href="#DejaVuSans-65" x="63.623047"/>
      <use xlink:href="#DejaVuSans-2212" x="125.146484"/>
      <use xlink:href="#DejaVuSans-34" x="208.935547"/>
     </g>
    </g>
   </g>
   <g id="line2d_14">
    <path d="M 58.72149 246.90101 
L 63.498666 246.90101 
L 68.275843 246.90101 
L 73.053019 246.90101 
L 77.830196 246.90101 
L 82.607372 246.90101 
L 87.384549 246.90101 
L 92.161725 246.90101 
L 96.938901 246.90101 
L 101.716078 246.90101 
L 106.493254 246.90101 
L 111.270431 246.90101 
L 116.047607 246.90101 
L 120.824784 246.90101 
L 125.60196 246.90101 
L 130.379136 246.90101 
L 135.156313 246.90101 
L 139.933489 246.901009 
L 144.710666 246.901005 
L 149.487842 246.90097 
L 154.265019 246.900748 
L 159.042195 246.899485 
L 163.819371 246.893157 
L 168.596548 246.865191 
L 173.373724 246.756313 
L 178.150901 246.383312 
L 182.928077 245.260539 
L 187.705254 242.297013 
L 192.48243 235.457056 
L 197.259606 221.707325 
L 202.036783 197.778356 
L 206.813959 162.071595 
L 211.591136 117.157501 
L 216.368312 71.149391 
L 221.145489 36.04424 
L 225.922665 22.848255 
L 230.699841 36.04424 
L 235.477018 71.149391 
L 240.254194 117.157501 
L 245.031371 162.071595 
L 249.808547 197.778356 
L 254.585724 221.707325 
L 259.3629 235.457056 
L 264.140076 242.297013 
L 268.917253 245.260539 
L 273.694429 246.383312 
L 278.471606 246.756313 
L 283.248782 246.865191 
L 288.025959 246.893157 
L 292.803135 246.899485 
" clip-path="url(#p3e4c832f5d)" style="fill: none; stroke: #2ca02c; stroke-width: 1.5; stroke-linecap: square"/>
   </g>
   <g id="line2d_15">
    <path d="M 90.824116 246.90101 
L 90.824116 16.638052 
" clip-path="url(#p3e4c832f5d)" style="fill: none; stroke: #d62728; stroke-width: 1.5; stroke-linecap: square"/>
   </g>
   <g id="line2d_16">
    <path d="M 225.922665 246.90101 
L 225.922665 16.638052 
" clip-path="url(#p3e4c832f5d)" style="fill: none; stroke: #d62728; stroke-width: 1.5; stroke-linecap: square"/>
   </g>
   <g id="patch_33">
    <path d="M 58.72149 246.90101 
L 58.72149 16.638052 
" style="fill: none; stroke: #000000; stroke-width: 0.8; stroke-linejoin: miter; stroke-linecap: square"/>
   </g>
   <g id="patch_34">
    <path d="M 292.803135 246.90101 
L 292.803135 16.638052 
" style="fill: none; stroke: #000000; stroke-width: 0.8; stroke-linejoin: miter; stroke-linecap: square"/>
   </g>
   <g id="patch_35">
    <path d="M 58.72149 246.90101 
L 292.803135 246.90101 
" style="fill: none; stroke: #000000; stroke-width: 0.8; stroke-linejoin: miter; stroke-linecap: square"/>
   </g>
   <g id="patch_36">
    <path d="M 58.72149 16.638052 
L 292.803135 16.638052 
" style="fill: none; stroke: #000000; stroke-width: 0.8; stroke-linejoin: miter; stroke-linecap: square"/>
   </g>
   <g id="legend_1">
    <g id="patch_37">
     <path d="M 68.52149 68.936802 
L 175.18399 68.936802 
Q 177.98399 68.936802 177.98399 66.136802 
L 177.98399 26.438053 
Q 177.98399 23.638053 175.18399 23.638053 
L 68.52149 23.638053 
Q 65.72149 23.638053 65.72149 26.438053 
L 65.72149 66.136802 
Q 65.72149 68.936802 68.52149 68.936802 
z
" style="fill: #ffffff; opacity: 0.8; stroke: #cccccc; stroke-linejoin: miter"/>
    </g>
    <g id="line2d_17">
     <path d="M 71.32149 34.975865 
L 85.32149 34.975865 
L 99.32149 34.975865 
" style="fill: none; stroke: #2ca02c; stroke-width: 1.5; stroke-linecap: square"/>
    </g>
    <g id="text_18">
     <!-- Prior -->
     <g transform="translate(110.52149 39.875865) scale(0.14 -0.14)">
      <defs>
       <path id="DejaVuSans-72" d="M 2631 2963 
Q 2534 3019 2420 3045 
Q 2306 3072 2169 3072 
Q 1681 3072 1420 2755 
Q 1159 2438 1159 1844 
L 1159 0 
L 581 0 
L 581 3500 
L 1159 3500 
L 1159 2956 
Q 1341 3275 1631 3429 
Q 1922 3584 2338 3584 
Q 2397 3584 2469 3576 
Q 2541 3569 2628 3553 
L 2631 2963 
z
" transform="scale(0.015625)"/>
       <path id="DejaVuSans-69" d="M 603 3500 
L 1178 3500 
L 1178 0 
L 603 0 
L 603 3500 
z
M 603 4863 
L 1178 4863 
L 1178 4134 
L 603 4134 
L 603 4863 
z
" transform="scale(0.015625)"/>
       <path id="DejaVuSans-6f" d="M 1959 3097 
Q 1497 3097 1228 2736 
Q 959 2375 959 1747 
Q 959 1119 1226 758 
Q 1494 397 1959 397 
Q 2419 397 2687 759 
Q 2956 1122 2956 1747 
Q 2956 2369 2687 2733 
Q 2419 3097 1959 3097 
z
M 1959 3584 
Q 2709 3584 3137 3096 
Q 3566 2609 3566 1747 
Q 3566 888 3137 398 
Q 2709 -91 1959 -91 
Q 1206 -91 779 398 
Q 353 888 353 1747 
Q 353 2609 779 3096 
Q 1206 3584 1959 3584 
z
" transform="scale(0.015625)"/>
      </defs>
      <use xlink:href="#DejaVuSans-50"/>
      <use xlink:href="#DejaVuSans-72" x="58.552734"/>
      <use xlink:href="#DejaVuSans-69" x="99.666016"/>
      <use xlink:href="#DejaVuSans-6f" x="127.449219"/>
      <use xlink:href="#DejaVuSans-72" x="188.630859"/>
     </g>
    </g>
    <g id="patch_38">
     <path d="M 71.32149 60.42524 
L 99.32149 60.42524 
L 99.32149 50.62524 
L 71.32149 50.62524 
z
" style="fill: #1f77b4"/>
    </g>
    <g id="text_19">
     <!-- Posterior -->
     <g transform="translate(110.52149 60.42524) scale(0.14 -0.14)">
      <defs>
       <path id="DejaVuSans-73" d="M 2834 3397 
L 2834 2853 
Q 2591 2978 2328 3040 
Q 2066 3103 1784 3103 
Q 1356 3103 1142 2972 
Q 928 2841 928 2578 
Q 928 2378 1081 2264 
Q 1234 2150 1697 2047 
L 1894 2003 
Q 2506 1872 2764 1633 
Q 3022 1394 3022 966 
Q 3022 478 2636 193 
Q 2250 -91 1575 -91 
Q 1294 -91 989 -36 
Q 684 19 347 128 
L 347 722 
Q 666 556 975 473 
Q 1284 391 1588 391 
Q 1994 391 2212 530 
Q 2431 669 2431 922 
Q 2431 1156 2273 1281 
Q 2116 1406 1581 1522 
L 1381 1569 
Q 847 1681 609 1914 
Q 372 2147 372 2553 
Q 372 3047 722 3315 
Q 1072 3584 1716 3584 
Q 2034 3584 2315 3537 
Q 2597 3491 2834 3397 
z
" transform="scale(0.015625)"/>
       <path id="DejaVuSans-74" d="M 1172 4494 
L 1172 3500 
L 2356 3500 
L 2356 3053 
L 1172 3053 
L 1172 1153 
Q 1172 725 1289 603 
Q 1406 481 1766 481 
L 2356 481 
L 2356 0 
L 1766 0 
Q 1100 0 847 248 
Q 594 497 594 1153 
L 594 3053 
L 172 3053 
L 172 3500 
L 594 3500 
L 594 4494 
L 1172 4494 
z
" transform="scale(0.015625)"/>
      </defs>
      <use xlink:href="#DejaVuSans-50"/>
      <use xlink:href="#DejaVuSans-6f" x="56.677734"/>
      <use xlink:href="#DejaVuSans-73" x="117.859375"/>
      <use xlink:href="#DejaVuSans-74" x="169.958984"/>
      <use xlink:href="#DejaVuSans-65" x="209.167969"/>
      <use xlink:href="#DejaVuSans-72" x="270.691406"/>
      <use xlink:href="#DejaVuSans-69" x="311.804688"/>
      <use xlink:href="#DejaVuSans-6f" x="339.587891"/>
      <use xlink:href="#DejaVuSans-72" x="400.769531"/>
     </g>
    </g>
   </g>
  </g>
  <g id="axes_2">
   <g id="patch_39">
    <path d="M 354.79049 246.90101 
L 588.872135 246.90101 
L 588.872135 16.638052 
L 354.79049 16.638052 
z
" style="fill: #ffffff"/>
   </g>
   <g id="patch_40">
    <path d="M 495.001179 246.90101 
L 497.261089 246.90101 
L 497.261089 245.219807 
L 495.001179 245.219807 
z
" clip-path="url(#p43a3c99d4c)" style="fill: #1f77b4"/>
   </g>
   <g id="patch_41">
    <path d="M 497.51219 246.90101 
L 499.772099 246.90101 
L 499.772099 243.538605 
L 497.51219 243.538605 
z
" clip-path="url(#p43a3c99d4c)" style="fill: #1f77b4"/>
   </g>
   <g id="patch_42">
    <path d="M 500.023201 246.90101 
L 502.28311 246.90101 
L 502.28311 240.1762 
L 500.023201 240.1762 
z
" clip-path="url(#p43a3c99d4c)" style="fill: #1f77b4"/>
   </g>
   <g id="patch_43">
    <path d="M 502.534211 246.90101 
L 504.794121 246.90101 
L 504.794121 238.494997 
L 502.534211 238.494997 
z
" clip-path="url(#p43a3c99d4c)" style="fill: #1f77b4"/>
   </g>
   <g id="patch_44">
    <path d="M 505.045222 246.90101 
L 507.305131 246.90101 
L 507.305131 233.45139 
L 505.045222 233.45139 
z
" clip-path="url(#p43a3c99d4c)" style="fill: #1f77b4"/>
   </g>
   <g id="patch_45">
    <path d="M 507.556232 246.90101 
L 509.816142 246.90101 
L 509.816142 231.770187 
L 507.556232 231.770187 
z
" clip-path="url(#p43a3c99d4c)" style="fill: #1f77b4"/>
   </g>
   <g id="patch_46">
    <path d="M 510.067243 246.90101 
L 512.327152 246.90101 
L 512.327152 214.958162 
L 510.067243 214.958162 
z
" clip-path="url(#p43a3c99d4c)" style="fill: #1f77b4"/>
   </g>
   <g id="patch_47">
    <path d="M 512.578253 246.90101 
L 514.838163 246.90101 
L 514.838163 172.928099 
L 512.578253 172.928099 
z
" clip-path="url(#p43a3c99d4c)" style="fill: #1f77b4"/>
   </g>
   <g id="patch_48">
    <path d="M 515.089264 246.90101 
L 517.349173 246.90101 
L 517.349173 161.159682 
L 515.089264 161.159682 
z
" clip-path="url(#p43a3c99d4c)" style="fill: #1f77b4"/>
   </g>
   <g id="patch_49">
    <path d="M 517.600274 246.90101 
L 519.860184 246.90101 
L 519.860184 139.304049 
L 517.600274 139.304049 
z
" clip-path="url(#p43a3c99d4c)" style="fill: #1f77b4"/>
   </g>
   <g id="patch_50">
    <path d="M 520.111285 246.90101 
L 522.371194 246.90101 
L 522.371194 45.156708 
L 520.111285 45.156708 
z
" clip-path="url(#p43a3c99d4c)" style="fill: #1f77b4"/>
   </g>
   <g id="patch_51">
    <path d="M 522.622295 246.90101 
L 524.882205 246.90101 
L 524.882205 53.562721 
L 522.622295 53.562721 
z
" clip-path="url(#p43a3c99d4c)" style="fill: #1f77b4"/>
   </g>
   <g id="patch_52">
    <path d="M 525.133306 246.90101 
L 527.393215 246.90101 
L 527.393215 -20.41019 
L 525.133306 -20.41019 
z
" clip-path="url(#p43a3c99d4c)" style="fill: #1f77b4"/>
   </g>
   <g id="patch_53">
    <path d="M 527.644316 246.90101 
L 529.904226 246.90101 
L 529.904226 -42.265822 
L 527.644316 -42.265822 
z
" clip-path="url(#p43a3c99d4c)" style="fill: #1f77b4"/>
   </g>
   <g id="patch_54">
    <path d="M 530.155327 246.90101 
L 532.415236 246.90101 
L 532.415236 -85.977088 
L 530.155327 -85.977088 
z
" clip-path="url(#p43a3c99d4c)" style="fill: #1f77b4"/>
   </g>
   <g id="patch_55">
    <path d="M 532.666337 246.90101 
L 534.926247 246.90101 
L 534.926247 -69.165063 
L 532.666337 -69.165063 
z
" clip-path="url(#p43a3c99d4c)" style="fill: #1f77b4"/>
   </g>
   <g id="patch_56">
    <path d="M 535.177348 246.90101 
L 537.437258 246.90101 
L 537.437258 -91.020695 
L 535.177348 -91.020695 
z
" clip-path="url(#p43a3c99d4c)" style="fill: #1f77b4"/>
   </g>
   <g id="patch_57">
    <path d="M 537.688359 246.90101 
L 539.948268 246.90101 
L 539.948268 -57.396645 
L 537.688359 -57.396645 
z
" clip-path="url(#p43a3c99d4c)" style="fill: #1f77b4"/>
   </g>
   <g id="patch_58">
    <path d="M 540.199369 246.90101 
L 542.459279 246.90101 
L 542.459279 -6.96057 
L 540.199369 -6.96057 
z
" clip-path="url(#p43a3c99d4c)" style="fill: #1f77b4"/>
   </g>
   <g id="patch_59">
    <path d="M 542.71038 246.90101 
L 544.970289 246.90101 
L 544.970289 35.069493 
L 542.71038 35.069493 
z
" clip-path="url(#p43a3c99d4c)" style="fill: #1f77b4"/>
   </g>
   <g id="patch_60">
    <path d="M 545.22139 246.90101 
L 547.4813 246.90101 
L 547.4813 103.998796 
L 545.22139 103.998796 
z
" clip-path="url(#p43a3c99d4c)" style="fill: #1f77b4"/>
   </g>
   <g id="patch_61">
    <path d="M 547.732401 246.90101 
L 549.99231 246.90101 
L 549.99231 140.985252 
L 547.732401 140.985252 
z
" clip-path="url(#p43a3c99d4c)" style="fill: #1f77b4"/>
   </g>
   <g id="patch_62">
    <path d="M 550.243411 246.90101 
L 552.503321 246.90101 
L 552.503321 140.985252 
L 550.243411 140.985252 
z
" clip-path="url(#p43a3c99d4c)" style="fill: #1f77b4"/>
   </g>
   <g id="patch_63">
    <path d="M 552.754422 246.90101 
L 555.014331 246.90101 
L 555.014331 196.464935 
L 552.754422 196.464935 
z
" clip-path="url(#p43a3c99d4c)" style="fill: #1f77b4"/>
   </g>
   <g id="patch_64">
    <path d="M 555.265432 246.90101 
L 557.525342 246.90101 
L 557.525342 198.146137 
L 555.265432 198.146137 
z
" clip-path="url(#p43a3c99d4c)" style="fill: #1f77b4"/>
   </g>
   <g id="patch_65">
    <path d="M 557.776443 246.90101 
L 560.036352 246.90101 
L 560.036352 214.958162 
L 557.776443 214.958162 
z
" clip-path="url(#p43a3c99d4c)" style="fill: #1f77b4"/>
   </g>
   <g id="patch_66">
    <path d="M 560.287453 246.90101 
L 562.547363 246.90101 
L 562.547363 238.494997 
L 560.287453 238.494997 
z
" clip-path="url(#p43a3c99d4c)" style="fill: #1f77b4"/>
   </g>
   <g id="patch_67">
    <path d="M 562.798464 246.90101 
L 565.058373 246.90101 
L 565.058373 233.45139 
L 562.798464 233.45139 
z
" clip-path="url(#p43a3c99d4c)" style="fill: #1f77b4"/>
   </g>
   <g id="patch_68">
    <path d="M 565.309474 246.90101 
L 567.569384 246.90101 
L 567.569384 238.494997 
L 565.309474 238.494997 
z
" clip-path="url(#p43a3c99d4c)" style="fill: #1f77b4"/>
   </g>
   <g id="patch_69">
    <path d="M 567.820485 246.90101 
L 570.080394 246.90101 
L 570.080394 241.857402 
L 567.820485 241.857402 
z
" clip-path="url(#p43a3c99d4c)" style="fill: #1f77b4"/>
   </g>
   <g id="matplotlib.axis_3">
    <g id="xtick_5">
     <g id="line2d_18">
      <g>
       <use xlink:href="#mc7ef5e4d25" x="393.804097" y="246.90101" style="stroke: #000000; stroke-width: 0.8"/>
      </g>
     </g>
     <g id="text_20">
      <!-- 0.8 -->
      <g transform="translate(382.67191 264.538822) scale(0.14 -0.14)">
       <defs>
        <path id="DejaVuSans-38" d="M 2034 2216 
Q 1584 2216 1326 1975 
Q 1069 1734 1069 1313 
Q 1069 891 1326 650 
Q 1584 409 2034 409 
Q 2484 409 2743 651 
Q 3003 894 3003 1313 
Q 3003 1734 2745 1975 
Q 2488 2216 2034 2216 
z
M 1403 2484 
Q 997 2584 770 2862 
Q 544 3141 544 3541 
Q 544 4100 942 4425 
Q 1341 4750 2034 4750 
Q 2731 4750 3128 4425 
Q 3525 4100 3525 3541 
Q 3525 3141 3298 2862 
Q 3072 2584 2669 2484 
Q 3125 2378 3379 2068 
Q 3634 1759 3634 1313 
Q 3634 634 3220 271 
Q 2806 -91 2034 -91 
Q 1263 -91 848 271 
Q 434 634 434 1313 
Q 434 1759 690 2068 
Q 947 2378 1403 2484 
z
M 1172 3481 
Q 1172 3119 1398 2916 
Q 1625 2713 2034 2713 
Q 2441 2713 2670 2916 
Q 2900 3119 2900 3481 
Q 2900 3844 2670 4047 
Q 2441 4250 2034 4250 
Q 1625 4250 1398 4047 
Q 1172 3844 1172 3481 
z
" transform="scale(0.015625)"/>
       </defs>
       <use xlink:href="#DejaVuSans-30"/>
       <use xlink:href="#DejaVuSans-2e" x="63.623047"/>
       <use xlink:href="#DejaVuSans-38" x="95.410156"/>
      </g>
     </g>
    </g>
    <g id="xtick_6">
     <g id="line2d_19">
      <g>
       <use xlink:href="#mc7ef5e4d25" x="471.831312" y="246.90101" style="stroke: #000000; stroke-width: 0.8"/>
      </g>
     </g>
     <g id="text_21">
      <!-- 1.0 -->
      <g transform="translate(460.699125 264.538822) scale(0.14 -0.14)">
       <use xlink:href="#DejaVuSans-31"/>
       <use xlink:href="#DejaVuSans-2e" x="63.623047"/>
       <use xlink:href="#DejaVuSans-30" x="95.410156"/>
      </g>
     </g>
    </g>
    <g id="xtick_7">
     <g id="line2d_20">
      <g>
       <use xlink:href="#mc7ef5e4d25" x="549.858527" y="246.90101" style="stroke: #000000; stroke-width: 0.8"/>
      </g>
     </g>
     <g id="text_22">
      <!-- 1.2 -->
      <g transform="translate(538.72634 264.538822) scale(0.14 -0.14)">
       <use xlink:href="#DejaVuSans-31"/>
       <use xlink:href="#DejaVuSans-2e" x="63.623047"/>
       <use xlink:href="#DejaVuSans-32" x="95.410156"/>
      </g>
     </g>
    </g>
    <g id="text_23">
     <!-- $E_2$ [MPa] -->
     <g transform="translate(441.801312 282.088197) scale(0.14 -0.14)">
      <use xlink:href="#DejaVuSans-Oblique-45" transform="translate(0 0.015625)"/>
      <use xlink:href="#DejaVuSans-32" transform="translate(63.183594 -16.390625) scale(0.7)"/>
      <use xlink:href="#DejaVuSans-20" transform="translate(110.454102 0.015625)"/>
      <use xlink:href="#DejaVuSans-5b" transform="translate(142.241211 0.015625)"/>
      <use xlink:href="#DejaVuSans-4d" transform="translate(181.254883 0.015625)"/>
      <use xlink:href="#DejaVuSans-50" transform="translate(267.53418 0.015625)"/>
      <use xlink:href="#DejaVuSans-61" transform="translate(327.836914 0.015625)"/>
      <use xlink:href="#DejaVuSans-5d" transform="translate(389.116211 0.015625)"/>
     </g>
    </g>
    <g id="text_24">
     <!-- 1e4 -->
     <g transform="translate(562.44276 281.088197) scale(0.14 -0.14)">
      <use xlink:href="#DejaVuSans-31"/>
      <use xlink:href="#DejaVuSans-65" x="63.623047"/>
      <use xlink:href="#DejaVuSans-34" x="125.146484"/>
     </g>
    </g>
   </g>
   <g id="matplotlib.axis_4">
    <g id="ytick_10">
     <g id="line2d_21">
      <g>
       <use xlink:href="#md3d193b40b" x="354.79049" y="246.90101" style="stroke: #000000; stroke-width: 0.8"/>
      </g>
     </g>
     <g id="text_25">
      <!-- 0.0000 -->
      <g transform="translate(298.803615 252.219916) scale(0.14 -0.14)">
       <use xlink:href="#DejaVuSans-30"/>
       <use xlink:href="#DejaVuSans-2e" x="63.623047"/>
       <use xlink:href="#DejaVuSans-30" x="95.410156"/>
       <use xlink:href="#DejaVuSans-30" x="159.033203"/>
       <use xlink:href="#DejaVuSans-30" x="222.65625"/>
       <use xlink:href="#DejaVuSans-30" x="286.279297"/>
      </g>
     </g>
    </g>
    <g id="ytick_11">
     <g id="line2d_22">
      <g>
       <use xlink:href="#md3d193b40b" x="354.79049" y="200.848418" style="stroke: #000000; stroke-width: 0.8"/>
      </g>
     </g>
     <g id="text_26">
      <!-- 0.0002 -->
      <g transform="translate(298.803615 206.167325) scale(0.14 -0.14)">
       <use xlink:href="#DejaVuSans-30"/>
       <use xlink:href="#DejaVuSans-2e" x="63.623047"/>
       <use xlink:href="#DejaVuSans-30" x="95.410156"/>
       <use xlink:href="#DejaVuSans-30" x="159.033203"/>
       <use xlink:href="#DejaVuSans-30" x="222.65625"/>
       <use xlink:href="#DejaVuSans-32" x="286.279297"/>
      </g>
     </g>
    </g>
    <g id="ytick_12">
     <g id="line2d_23">
      <g>
       <use xlink:href="#md3d193b40b" x="354.79049" y="154.795827" style="stroke: #000000; stroke-width: 0.8"/>
      </g>
     </g>
     <g id="text_27">
      <!-- 0.0004 -->
      <g transform="translate(298.803615 160.114733) scale(0.14 -0.14)">
       <use xlink:href="#DejaVuSans-30"/>
       <use xlink:href="#DejaVuSans-2e" x="63.623047"/>
       <use xlink:href="#DejaVuSans-30" x="95.410156"/>
       <use xlink:href="#DejaVuSans-30" x="159.033203"/>
       <use xlink:href="#DejaVuSans-30" x="222.65625"/>
       <use xlink:href="#DejaVuSans-34" x="286.279297"/>
      </g>
     </g>
    </g>
    <g id="ytick_13">
     <g id="line2d_24">
      <g>
       <use xlink:href="#md3d193b40b" x="354.79049" y="108.743235" style="stroke: #000000; stroke-width: 0.8"/>
      </g>
     </g>
     <g id="text_28">
      <!-- 0.0006 -->
      <g transform="translate(298.803615 114.062142) scale(0.14 -0.14)">
       <use xlink:href="#DejaVuSans-30"/>
       <use xlink:href="#DejaVuSans-2e" x="63.623047"/>
       <use xlink:href="#DejaVuSans-30" x="95.410156"/>
       <use xlink:href="#DejaVuSans-30" x="159.033203"/>
       <use xlink:href="#DejaVuSans-30" x="222.65625"/>
       <use xlink:href="#DejaVuSans-36" x="286.279297"/>
      </g>
     </g>
    </g>
    <g id="ytick_14">
     <g id="line2d_25">
      <g>
       <use xlink:href="#md3d193b40b" x="354.79049" y="62.690644" style="stroke: #000000; stroke-width: 0.8"/>
      </g>
     </g>
     <g id="text_29">
      <!-- 0.0008 -->
      <g transform="translate(298.803615 68.00955) scale(0.14 -0.14)">
       <use xlink:href="#DejaVuSans-30"/>
       <use xlink:href="#DejaVuSans-2e" x="63.623047"/>
       <use xlink:href="#DejaVuSans-30" x="95.410156"/>
       <use xlink:href="#DejaVuSans-30" x="159.033203"/>
       <use xlink:href="#DejaVuSans-30" x="222.65625"/>
       <use xlink:href="#DejaVuSans-38" x="286.279297"/>
      </g>
     </g>
    </g>
    <g id="ytick_15">
     <g id="line2d_26">
      <g>
       <use xlink:href="#md3d193b40b" x="354.79049" y="16.638052" style="stroke: #000000; stroke-width: 0.8"/>
      </g>
     </g>
     <g id="text_30">
      <!-- 0.0010 -->
      <g transform="translate(298.803615 21.956959) scale(0.14 -0.14)">
       <use xlink:href="#DejaVuSans-30"/>
       <use xlink:href="#DejaVuSans-2e" x="63.623047"/>
       <use xlink:href="#DejaVuSans-30" x="95.410156"/>
       <use xlink:href="#DejaVuSans-30" x="159.033203"/>
       <use xlink:href="#DejaVuSans-31" x="222.65625"/>
       <use xlink:href="#DejaVuSans-30" x="286.279297"/>
      </g>
     </g>
    </g>
   </g>
   <g id="line2d_27">
    <path d="M 354.79049 246.90101 
L 359.567666 246.90101 
L 364.344843 246.90101 
L 369.122019 246.90101 
L 373.899196 246.90101 
L 378.676372 246.90101 
L 383.453549 246.90101 
L 388.230725 246.90101 
L 393.007901 246.90101 
L 397.785078 246.90101 
L 402.562254 246.90101 
L 407.339431 246.90101 
L 412.116607 246.90101 
L 416.893784 246.90101 
L 421.67096 246.90101 
L 426.448136 246.90101 
L 431.225313 246.90101 
L 436.002489 246.90101 
L 440.779666 246.90101 
L 445.556842 246.90101 
L 450.334019 246.90101 
L 455.111195 246.90101 
L 459.888371 246.90101 
L 464.665548 246.90101 
L 469.442724 246.901009 
L 474.219901 246.900986 
L 478.997077 246.900659 
L 483.774254 246.896908 
L 488.55143 246.863272 
L 493.328606 246.627911 
L 498.105783 245.346198 
L 502.882959 239.937176 
L 507.660136 222.36344 
L 512.437312 178.88245 
L 517.214489 98.568604 
L 521.695485 -1 
M 538.918714 -1 
L 541.100371 46.698221 
L 545.877547 143.397484 
L 550.654724 204.80384 
L 555.4319 233.43114 
L 560.209076 243.510331 
L 564.986253 246.229546 
L 569.763429 246.7964 
L 574.540606 246.888189 
L 579.317782 246.899774 
L 584.094959 246.900916 
L 588.872135 246.901004 
" clip-path="url(#p43a3c99d4c)" style="fill: none; stroke: #2ca02c; stroke-width: 1.5; stroke-linecap: square"/>
   </g>
   <g id="line2d_28">
    <path d="M 432.427569 246.90101 
L 432.427569 16.638052 
" clip-path="url(#p43a3c99d4c)" style="fill: none; stroke: #d62728; stroke-width: 1.5; stroke-linecap: square"/>
   </g>
   <g id="line2d_29">
    <path d="M 533.472812 246.90101 
L 533.472812 16.638052 
" clip-path="url(#p43a3c99d4c)" style="fill: none; stroke: #d62728; stroke-width: 1.5; stroke-linecap: square"/>
   </g>
   <g id="patch_70">
    <path d="M 354.79049 246.90101 
L 354.79049 16.638052 
" style="fill: none; stroke: #000000; stroke-width: 0.8; stroke-linejoin: miter; stroke-linecap: square"/>
   </g>
   <g id="patch_71">
    <path d="M 588.872135 246.90101 
L 588.872135 16.638052 
" style="fill: none; stroke: #000000; stroke-width: 0.8; stroke-linejoin: miter; stroke-linecap: square"/>
   </g>
   <g id="patch_72">
    <path d="M 354.79049 246.90101 
L 588.872135 246.90101 
" style="fill: none; stroke: #000000; stroke-width: 0.8; stroke-linejoin: miter; stroke-linecap: square"/>
   </g>
   <g id="patch_73">
    <path d="M 354.79049 16.638052 
L 588.872135 16.638052 
" style="fill: none; stroke: #000000; stroke-width: 0.8; stroke-linejoin: miter; stroke-linecap: square"/>
   </g>
  </g>
  <g id="axes_3">
   <g id="patch_74">
    <path d="M 619.687615 246.90101 
L 853.76926 246.90101 
L 853.76926 16.638052 
L 619.687615 16.638052 
z
" style="fill: #ffffff"/>
   </g>
   <g id="patch_75">
    <path d="M 768.346739 246.90101 
L 769.847319 246.90101 
L 769.847319 245.764751 
L 768.346739 245.764751 
z
" clip-path="url(#p1c4009dc02)" style="fill: #1f77b4"/>
   </g>
   <g id="patch_76">
    <path d="M 770.014051 246.90101 
L 771.514631 246.90101 
L 771.514631 237.810935 
L 770.014051 237.810935 
z
" clip-path="url(#p1c4009dc02)" style="fill: #1f77b4"/>
   </g>
   <g id="patch_77">
    <path d="M 771.681363 246.90101 
L 773.181943 246.90101 
L 773.181943 240.083454 
L 771.681363 240.083454 
z
" clip-path="url(#p1c4009dc02)" style="fill: #1f77b4"/>
   </g>
   <g id="patch_78">
    <path d="M 773.348674 246.90101 
L 774.849255 246.90101 
L 774.849255 226.448342 
L 773.348674 226.448342 
z
" clip-path="url(#p1c4009dc02)" style="fill: #1f77b4"/>
   </g>
   <g id="patch_79">
    <path d="M 775.015986 246.90101 
L 776.516567 246.90101 
L 776.516567 236.674676 
L 775.015986 236.674676 
z
" clip-path="url(#p1c4009dc02)" style="fill: #1f77b4"/>
   </g>
   <g id="patch_80">
    <path d="M 776.683298 246.90101 
L 778.183879 246.90101 
L 778.183879 211.67697 
L 776.683298 211.67697 
z
" clip-path="url(#p1c4009dc02)" style="fill: #1f77b4"/>
   </g>
   <g id="patch_81">
    <path d="M 778.35061 246.90101 
L 779.851191 246.90101 
L 779.851191 216.222008 
L 778.35061 216.222008 
z
" clip-path="url(#p1c4009dc02)" style="fill: #1f77b4"/>
   </g>
   <g id="patch_82">
    <path d="M 780.017922 246.90101 
L 781.518503 246.90101 
L 781.518503 169.635374 
L 780.017922 169.635374 
z
" clip-path="url(#p1c4009dc02)" style="fill: #1f77b4"/>
   </g>
   <g id="patch_83">
    <path d="M 781.685234 246.90101 
L 783.185815 246.90101 
L 783.185815 153.727743 
L 781.685234 153.727743 
z
" clip-path="url(#p1c4009dc02)" style="fill: #1f77b4"/>
   </g>
   <g id="patch_84">
    <path d="M 783.352546 246.90101 
L 784.853127 246.90101 
L 784.853127 138.956372 
L 783.352546 138.956372 
z
" clip-path="url(#p1c4009dc02)" style="fill: #1f77b4"/>
   </g>
   <g id="patch_85">
    <path d="M 785.019858 246.90101 
L 786.520439 246.90101 
L 786.520439 109.413629 
L 785.019858 109.413629 
z
" clip-path="url(#p1c4009dc02)" style="fill: #1f77b4"/>
   </g>
   <g id="patch_86">
    <path d="M 786.68717 246.90101 
L 788.187751 246.90101 
L 788.187751 119.639963 
L 786.68717 119.639963 
z
" clip-path="url(#p1c4009dc02)" style="fill: #1f77b4"/>
   </g>
   <g id="patch_87">
    <path d="M 788.354482 246.90101 
L 789.855063 246.90101 
L 789.855063 59.418217 
L 788.354482 59.418217 
z
" clip-path="url(#p1c4009dc02)" style="fill: #1f77b4"/>
   </g>
   <g id="patch_88">
    <path d="M 790.021794 246.90101 
L 791.522374 246.90101 
L 791.522374 77.598367 
L 790.021794 77.598367 
z
" clip-path="url(#p1c4009dc02)" style="fill: #1f77b4"/>
   </g>
   <g id="patch_89">
    <path d="M 791.689106 246.90101 
L 793.189686 246.90101 
L 793.189686 56.009439 
L 791.689106 56.009439 
z
" clip-path="url(#p1c4009dc02)" style="fill: #1f77b4"/>
   </g>
   <g id="patch_90">
    <path d="M 793.356418 246.90101 
L 794.856998 246.90101 
L 794.856998 43.510586 
L 793.356418 43.510586 
z
" clip-path="url(#p1c4009dc02)" style="fill: #1f77b4"/>
   </g>
   <g id="patch_91">
    <path d="M 795.02373 246.90101 
L 796.52431 246.90101 
L 796.52431 27.602955 
L 795.02373 27.602955 
z
" clip-path="url(#p1c4009dc02)" style="fill: #1f77b4"/>
   </g>
   <g id="patch_92">
    <path d="M 796.691041 246.90101 
L 798.191622 246.90101 
L 798.191622 74.189589 
L 796.691041 74.189589 
z
" clip-path="url(#p1c4009dc02)" style="fill: #1f77b4"/>
   </g>
   <g id="patch_93">
    <path d="M 798.358353 246.90101 
L 799.858934 246.90101 
L 799.858934 90.09722 
L 798.358353 90.09722 
z
" clip-path="url(#p1c4009dc02)" style="fill: #1f77b4"/>
   </g>
   <g id="patch_94">
    <path d="M 800.025665 246.90101 
L 801.526246 246.90101 
L 801.526246 115.094925 
L 800.025665 115.094925 
z
" clip-path="url(#p1c4009dc02)" style="fill: #1f77b4"/>
   </g>
   <g id="patch_95">
    <path d="M 801.692977 246.90101 
L 803.193558 246.90101 
L 803.193558 145.773928 
L 801.692977 145.773928 
z
" clip-path="url(#p1c4009dc02)" style="fill: #1f77b4"/>
   </g>
   <g id="patch_96">
    <path d="M 803.360289 246.90101 
L 804.86087 246.90101 
L 804.86087 173.044152 
L 803.360289 173.044152 
z
" clip-path="url(#p1c4009dc02)" style="fill: #1f77b4"/>
   </g>
   <g id="patch_97">
    <path d="M 805.027601 246.90101 
L 806.528182 246.90101 
L 806.528182 196.905599 
L 805.027601 196.905599 
z
" clip-path="url(#p1c4009dc02)" style="fill: #1f77b4"/>
   </g>
   <g id="patch_98">
    <path d="M 806.694913 246.90101 
L 808.195494 246.90101 
L 808.195494 199.178117 
L 806.694913 199.178117 
z
" clip-path="url(#p1c4009dc02)" style="fill: #1f77b4"/>
   </g>
   <g id="patch_99">
    <path d="M 808.362225 246.90101 
L 809.862806 246.90101 
L 809.862806 226.448342 
L 808.362225 226.448342 
z
" clip-path="url(#p1c4009dc02)" style="fill: #1f77b4"/>
   </g>
   <g id="patch_100">
    <path d="M 810.029537 246.90101 
L 811.530118 246.90101 
L 811.530118 235.538416 
L 810.029537 235.538416 
z
" clip-path="url(#p1c4009dc02)" style="fill: #1f77b4"/>
   </g>
   <g id="patch_101">
    <path d="M 811.696849 246.90101 
L 813.19743 246.90101 
L 813.19743 233.265898 
L 811.696849 233.265898 
z
" clip-path="url(#p1c4009dc02)" style="fill: #1f77b4"/>
   </g>
   <g id="patch_102">
    <path d="M 813.364161 246.90101 
L 814.864741 246.90101 
L 814.864741 238.947195 
L 813.364161 238.947195 
z
" clip-path="url(#p1c4009dc02)" style="fill: #1f77b4"/>
   </g>
   <g id="patch_103">
    <path d="M 815.031473 246.90101 
L 816.532053 246.90101 
L 816.532053 245.764751 
L 815.031473 245.764751 
z
" clip-path="url(#p1c4009dc02)" style="fill: #1f77b4"/>
   </g>
   <g id="patch_104">
    <path d="M 816.698785 246.90101 
L 818.199365 246.90101 
L 818.199365 244.628491 
L 816.698785 244.628491 
z
" clip-path="url(#p1c4009dc02)" style="fill: #1f77b4"/>
   </g>
   <g id="matplotlib.axis_5">
    <g id="xtick_8">
     <g id="line2d_30">
      <g>
       <use xlink:href="#mc7ef5e4d25" x="619.687615" y="246.90101" style="stroke: #000000; stroke-width: 0.8"/>
      </g>
     </g>
     <g id="text_31">
      <!-- 0.25 -->
      <g transform="translate(604.101677 264.538822) scale(0.14 -0.14)">
       <use xlink:href="#DejaVuSans-30"/>
       <use xlink:href="#DejaVuSans-2e" x="63.623047"/>
       <use xlink:href="#DejaVuSans-32" x="95.410156"/>
       <use xlink:href="#DejaVuSans-35" x="159.033203"/>
      </g>
     </g>
    </g>
    <g id="xtick_9">
     <g id="line2d_31">
      <g>
       <use xlink:href="#mc7ef5e4d25" x="697.71483" y="246.90101" style="stroke: #000000; stroke-width: 0.8"/>
      </g>
     </g>
     <g id="text_32">
      <!-- 0.30 -->
      <g transform="translate(682.128892 264.538822) scale(0.14 -0.14)">
       <defs>
        <path id="DejaVuSans-33" d="M 2597 2516 
Q 3050 2419 3304 2112 
Q 3559 1806 3559 1356 
Q 3559 666 3084 287 
Q 2609 -91 1734 -91 
Q 1441 -91 1130 -33 
Q 819 25 488 141 
L 488 750 
Q 750 597 1062 519 
Q 1375 441 1716 441 
Q 2309 441 2620 675 
Q 2931 909 2931 1356 
Q 2931 1769 2642 2001 
Q 2353 2234 1838 2234 
L 1294 2234 
L 1294 2753 
L 1863 2753 
Q 2328 2753 2575 2939 
Q 2822 3125 2822 3475 
Q 2822 3834 2567 4026 
Q 2313 4219 1838 4219 
Q 1578 4219 1281 4162 
Q 984 4106 628 3988 
L 628 4550 
Q 988 4650 1302 4700 
Q 1616 4750 1894 4750 
Q 2613 4750 3031 4423 
Q 3450 4097 3450 3541 
Q 3450 3153 3228 2886 
Q 3006 2619 2597 2516 
z
" transform="scale(0.015625)"/>
       </defs>
       <use xlink:href="#DejaVuSans-30"/>
       <use xlink:href="#DejaVuSans-2e" x="63.623047"/>
       <use xlink:href="#DejaVuSans-33" x="95.410156"/>
       <use xlink:href="#DejaVuSans-30" x="159.033203"/>
      </g>
     </g>
    </g>
    <g id="xtick_10">
     <g id="line2d_32">
      <g>
       <use xlink:href="#mc7ef5e4d25" x="775.742045" y="246.90101" style="stroke: #000000; stroke-width: 0.8"/>
      </g>
     </g>
     <g id="text_33">
      <!-- 0.35 -->
      <g transform="translate(760.156107 264.538822) scale(0.14 -0.14)">
       <use xlink:href="#DejaVuSans-30"/>
       <use xlink:href="#DejaVuSans-2e" x="63.623047"/>
       <use xlink:href="#DejaVuSans-33" x="95.410156"/>
       <use xlink:href="#DejaVuSans-35" x="159.033203"/>
      </g>
     </g>
    </g>
    <g id="xtick_11">
     <g id="line2d_33">
      <g>
       <use xlink:href="#mc7ef5e4d25" x="853.76926" y="246.90101" style="stroke: #000000; stroke-width: 0.8"/>
      </g>
     </g>
     <g id="text_34">
      <!-- 0.40 -->
      <g transform="translate(838.183322 264.538822) scale(0.14 -0.14)">
       <use xlink:href="#DejaVuSans-30"/>
       <use xlink:href="#DejaVuSans-2e" x="63.623047"/>
       <use xlink:href="#DejaVuSans-34" x="95.410156"/>
       <use xlink:href="#DejaVuSans-30" x="159.033203"/>
      </g>
     </g>
    </g>
    <g id="text_35">
     <!-- $\nu_{12}$ [-] -->
     <g transform="translate(716.148437 282.088197) scale(0.14 -0.14)">
      <defs>
       <path id="DejaVuSans-Oblique-3bd" d="M 959 0 
L 572 3500 
L 1191 3500 
L 1522 563 
Q 1972 950 2391 1488 
Q 2706 1891 2788 2241 
Q 2825 2406 2809 2719 
Q 2794 3091 2544 3500 
L 3125 3500 
L 3125 3500 
Q 3288 3222 3353 2834 
Q 3416 2478 3369 2234 
Q 3250 1622 2719 1075 
Q 2025 363 1572 0 
L 959 0 
z
" transform="scale(0.015625)"/>
       <path id="DejaVuSans-2d" d="M 313 2009 
L 1997 2009 
L 1997 1497 
L 313 1497 
L 313 2009 
z
" transform="scale(0.015625)"/>
      </defs>
      <use xlink:href="#DejaVuSans-Oblique-3bd" transform="translate(0 0.015625)"/>
      <use xlink:href="#DejaVuSans-31" transform="translate(55.859375 -16.390625) scale(0.7)"/>
      <use xlink:href="#DejaVuSans-32" transform="translate(100.395508 -16.390625) scale(0.7)"/>
      <use xlink:href="#DejaVuSans-20" transform="translate(147.666016 0.015625)"/>
      <use xlink:href="#DejaVuSans-5b" transform="translate(179.453125 0.015625)"/>
      <use xlink:href="#DejaVuSans-2d" transform="translate(218.466797 0.015625)"/>
      <use xlink:href="#DejaVuSans-5d" transform="translate(254.550781 0.015625)"/>
     </g>
    </g>
   </g>
   <g id="matplotlib.axis_6">
    <g id="ytick_16">
     <g id="line2d_34">
      <g>
       <use xlink:href="#md3d193b40b" x="619.687615" y="246.90101" style="stroke: #000000; stroke-width: 0.8"/>
      </g>
     </g>
     <g id="text_36">
      <!-- 0 -->
      <g transform="translate(603.780115 252.219916) scale(0.14 -0.14)">
       <use xlink:href="#DejaVuSans-30"/>
      </g>
     </g>
    </g>
    <g id="ytick_17">
     <g id="line2d_35">
      <g>
       <use xlink:href="#md3d193b40b" x="619.687615" y="195.233225" style="stroke: #000000; stroke-width: 0.8"/>
      </g>
     </g>
     <g id="text_37">
      <!-- 20 -->
      <g transform="translate(594.872615 200.552131) scale(0.14 -0.14)">
       <use xlink:href="#DejaVuSans-32"/>
       <use xlink:href="#DejaVuSans-30" x="63.623047"/>
      </g>
     </g>
    </g>
    <g id="ytick_18">
     <g id="line2d_36">
      <g>
       <use xlink:href="#md3d193b40b" x="619.687615" y="143.56544" style="stroke: #000000; stroke-width: 0.8"/>
      </g>
     </g>
     <g id="text_38">
      <!-- 40 -->
      <g transform="translate(594.872615 148.884346) scale(0.14 -0.14)">
       <use xlink:href="#DejaVuSans-34"/>
       <use xlink:href="#DejaVuSans-30" x="63.623047"/>
      </g>
     </g>
    </g>
    <g id="ytick_19">
     <g id="line2d_37">
      <g>
       <use xlink:href="#md3d193b40b" x="619.687615" y="91.897654" style="stroke: #000000; stroke-width: 0.8"/>
      </g>
     </g>
     <g id="text_39">
      <!-- 60 -->
      <g transform="translate(594.872615 97.216561) scale(0.14 -0.14)">
       <use xlink:href="#DejaVuSans-36"/>
       <use xlink:href="#DejaVuSans-30" x="63.623047"/>
      </g>
     </g>
    </g>
    <g id="ytick_20">
     <g id="line2d_38">
      <g>
       <use xlink:href="#md3d193b40b" x="619.687615" y="40.229869" style="stroke: #000000; stroke-width: 0.8"/>
      </g>
     </g>
     <g id="text_40">
      <!-- 80 -->
      <g transform="translate(594.872615 45.548775) scale(0.14 -0.14)">
       <use xlink:href="#DejaVuSans-38"/>
       <use xlink:href="#DejaVuSans-30" x="63.623047"/>
      </g>
     </g>
    </g>
   </g>
   <g id="line2d_39">
    <path d="M 619.687615 246.90101 
L 624.464791 246.90101 
L 629.241968 246.90101 
L 634.019144 246.90101 
L 638.796321 246.90101 
L 643.573497 246.90101 
L 648.350674 246.90101 
L 653.12785 246.90101 
L 657.905026 246.90101 
L 662.682203 246.90101 
L 667.459379 246.90101 
L 672.236556 246.90101 
L 677.013732 246.90101 
L 681.790909 246.90101 
L 686.568085 246.90101 
L 691.345261 246.90101 
L 696.122438 246.90101 
L 700.899614 246.90101 
L 705.676791 246.90101 
L 710.453967 246.90101 
L 715.231144 246.90101 
L 720.00832 246.90101 
L 724.785496 246.90101 
L 729.562673 246.90101 
L 734.339849 246.90101 
L 739.117026 246.90101 
L 743.894202 246.901008 
L 748.671379 246.900944 
L 753.448555 246.899457 
L 758.225731 246.875815 
L 763.002908 246.620067 
L 767.780084 244.747609 
L 772.557261 235.555116 
L 777.334437 205.808756 
L 782.111614 144.597949 
L 786.88879 71.825786 
L 791.665966 40.947997 
L 796.443143 80.360838 
L 801.220319 154.329517 
L 805.997496 211.530369 
L 810.774672 237.611004 
L 815.551849 245.223765 
L 820.329025 246.692856 
L 825.106201 246.883253 
L 829.883378 246.899969 
L 834.660554 246.900968 
L 839.437731 246.901009 
L 844.214907 246.90101 
L 848.992084 246.90101 
L 853.76926 246.90101 
" clip-path="url(#p1c4009dc02)" style="fill: none; stroke: #2ca02c; stroke-width: 1.5; stroke-linecap: square"/>
   </g>
   <g id="line2d_40">
    <path d="M 697.71483 246.90101 
L 697.71483 16.638052 
" clip-path="url(#p1c4009dc02)" style="fill: none; stroke: #d62728; stroke-width: 1.5; stroke-linecap: square"/>
   </g>
   <g id="line2d_41">
    <path d="M 791.347488 246.90101 
L 791.347488 16.638052 
" clip-path="url(#p1c4009dc02)" style="fill: none; stroke: #d62728; stroke-width: 1.5; stroke-linecap: square"/>
   </g>
   <g id="patch_105">
    <path d="M 619.687615 246.90101 
L 619.687615 16.638052 
" style="fill: none; stroke: #000000; stroke-width: 0.8; stroke-linejoin: miter; stroke-linecap: square"/>
   </g>
   <g id="patch_106">
    <path d="M 853.76926 246.90101 
L 853.76926 16.638052 
" style="fill: none; stroke: #000000; stroke-width: 0.8; stroke-linejoin: miter; stroke-linecap: square"/>
   </g>
   <g id="patch_107">
    <path d="M 619.687615 246.90101 
L 853.76926 246.90101 
" style="fill: none; stroke: #000000; stroke-width: 0.8; stroke-linejoin: miter; stroke-linecap: square"/>
   </g>
   <g id="patch_108">
    <path d="M 619.687615 16.638052 
L 853.76926 16.638052 
" style="fill: none; stroke: #000000; stroke-width: 0.8; stroke-linejoin: miter; stroke-linecap: square"/>
   </g>
  </g>
  <g id="axes_4">
   <g id="patch_109">
    <path d="M 900.170677 246.90101 
L 1134.252323 246.90101 
L 1134.252323 16.638052 
L 900.170677 16.638052 
z
" style="fill: #ffffff"/>
   </g>
   <g id="patch_110">
    <path d="M 914.184198 246.90101 
L 917.789055 246.90101 
L 917.789055 244.873002 
L 914.184198 244.873002 
z
" clip-path="url(#p6686c1945d)" style="fill: #1f77b4"/>
   </g>
   <g id="patch_111">
    <path d="M 918.189595 246.90101 
L 921.794451 246.90101 
L 921.794451 242.844995 
L 918.189595 242.844995 
z
" clip-path="url(#p6686c1945d)" style="fill: #1f77b4"/>
   </g>
   <g id="patch_112">
    <path d="M 922.194991 246.90101 
L 925.799847 246.90101 
L 925.799847 239.802984 
L 922.194991 239.802984 
z
" clip-path="url(#p6686c1945d)" style="fill: #1f77b4"/>
   </g>
   <g id="patch_113">
    <path d="M 926.200387 246.90101 
L 929.805243 246.90101 
L 929.805243 235.746968 
L 926.200387 235.746968 
z
" clip-path="url(#p6686c1945d)" style="fill: #1f77b4"/>
   </g>
   <g id="patch_114">
    <path d="M 930.205783 246.90101 
L 933.810639 246.90101 
L 933.810639 235.746968 
L 930.205783 235.746968 
z
" clip-path="url(#p6686c1945d)" style="fill: #1f77b4"/>
   </g>
   <g id="patch_115">
    <path d="M 934.211179 246.90101 
L 937.816035 246.90101 
L 937.816035 216.480897 
L 934.211179 216.480897 
z
" clip-path="url(#p6686c1945d)" style="fill: #1f77b4"/>
   </g>
   <g id="patch_116">
    <path d="M 938.216575 246.90101 
L 941.821432 246.90101 
L 941.821432 182.004768 
L 938.216575 182.004768 
z
" clip-path="url(#p6686c1945d)" style="fill: #1f77b4"/>
   </g>
   <g id="patch_117">
    <path d="M 942.221971 246.90101 
L 945.826828 246.90101 
L 945.826828 165.780708 
L 942.221971 165.780708 
z
" clip-path="url(#p6686c1945d)" style="fill: #1f77b4"/>
   </g>
   <g id="patch_118">
    <path d="M 946.227367 246.90101 
L 949.832224 246.90101 
L 949.832224 107.982493 
L 946.227367 107.982493 
z
" clip-path="url(#p6686c1945d)" style="fill: #1f77b4"/>
   </g>
   <g id="patch_119">
    <path d="M 950.232763 246.90101 
L 953.83762 246.90101 
L 953.83762 77.562379 
L 950.232763 77.562379 
z
" clip-path="url(#p6686c1945d)" style="fill: #1f77b4"/>
   </g>
   <g id="patch_120">
    <path d="M 954.23816 246.90101 
L 957.843016 246.90101 
L 957.843016 31.932209 
L 954.23816 31.932209 
z
" clip-path="url(#p6686c1945d)" style="fill: #1f77b4"/>
   </g>
   <g id="patch_121">
    <path d="M 958.243556 246.90101 
L 961.848412 246.90101 
L 961.848412 35.988224 
L 958.243556 35.988224 
z
" clip-path="url(#p6686c1945d)" style="fill: #1f77b4"/>
   </g>
   <g id="patch_122">
    <path d="M 962.248952 246.90101 
L 965.853808 246.90101 
L 965.853808 43.086251 
L 962.248952 43.086251 
z
" clip-path="url(#p6686c1945d)" style="fill: #1f77b4"/>
   </g>
   <g id="patch_123">
    <path d="M 966.254348 246.90101 
L 969.859204 246.90101 
L 969.859204 53.226289 
L 966.254348 53.226289 
z
" clip-path="url(#p6686c1945d)" style="fill: #1f77b4"/>
   </g>
   <g id="patch_124">
    <path d="M 970.259744 246.90101 
L 973.8646 246.90101 
L 973.8646 84.660406 
L 970.259744 84.660406 
z
" clip-path="url(#p6686c1945d)" style="fill: #1f77b4"/>
   </g>
   <g id="patch_125">
    <path d="M 974.26514 246.90101 
L 977.869997 246.90101 
L 977.869997 108.996496 
L 974.26514 108.996496 
z
" clip-path="url(#p6686c1945d)" style="fill: #1f77b4"/>
   </g>
   <g id="patch_126">
    <path d="M 978.270536 246.90101 
L 981.875393 246.90101 
L 981.875393 138.402606 
L 978.270536 138.402606 
z
" clip-path="url(#p6686c1945d)" style="fill: #1f77b4"/>
   </g>
   <g id="patch_127">
    <path d="M 982.275932 246.90101 
L 985.880789 246.90101 
L 985.880789 170.850727 
L 982.275932 170.850727 
z
" clip-path="url(#p6686c1945d)" style="fill: #1f77b4"/>
   </g>
   <g id="patch_128">
    <path d="M 986.281328 246.90101 
L 989.886185 246.90101 
L 989.886185 171.864731 
L 986.281328 171.864731 
z
" clip-path="url(#p6686c1945d)" style="fill: #1f77b4"/>
   </g>
   <g id="patch_129">
    <path d="M 990.286724 246.90101 
L 993.891581 246.90101 
L 993.891581 175.920746 
L 990.286724 175.920746 
z
" clip-path="url(#p6686c1945d)" style="fill: #1f77b4"/>
   </g>
   <g id="patch_130">
    <path d="M 994.292121 246.90101 
L 997.896977 246.90101 
L 997.896977 201.27084 
L 994.292121 201.27084 
z
" clip-path="url(#p6686c1945d)" style="fill: #1f77b4"/>
   </g>
   <g id="patch_131">
    <path d="M 998.297517 246.90101 
L 1001.902373 246.90101 
L 1001.902373 196.200821 
L 998.297517 196.200821 
z
" clip-path="url(#p6686c1945d)" style="fill: #1f77b4"/>
   </g>
   <g id="patch_132">
    <path d="M 1002.302913 246.90101 
L 1005.907769 246.90101 
L 1005.907769 220.536912 
L 1002.302913 220.536912 
z
" clip-path="url(#p6686c1945d)" style="fill: #1f77b4"/>
   </g>
   <g id="patch_133">
    <path d="M 1006.308309 246.90101 
L 1009.913165 246.90101 
L 1009.913165 225.606931 
L 1006.308309 225.606931 
z
" clip-path="url(#p6686c1945d)" style="fill: #1f77b4"/>
   </g>
   <g id="patch_134">
    <path d="M 1010.313705 246.90101 
L 1013.918561 246.90101 
L 1013.918561 230.67695 
L 1010.313705 230.67695 
z
" clip-path="url(#p6686c1945d)" style="fill: #1f77b4"/>
   </g>
   <g id="patch_135">
    <path d="M 1014.319101 246.90101 
L 1017.923958 246.90101 
L 1017.923958 237.774976 
L 1014.319101 237.774976 
z
" clip-path="url(#p6686c1945d)" style="fill: #1f77b4"/>
   </g>
   <g id="patch_136">
    <path d="M 1018.324497 246.90101 
L 1021.929354 246.90101 
L 1021.929354 240.816987 
L 1018.324497 240.816987 
z
" clip-path="url(#p6686c1945d)" style="fill: #1f77b4"/>
   </g>
   <g id="patch_137">
    <path d="M 1022.329893 246.90101 
L 1025.93475 246.90101 
L 1025.93475 241.830991 
L 1022.329893 241.830991 
z
" clip-path="url(#p6686c1945d)" style="fill: #1f77b4"/>
   </g>
   <g id="patch_138">
    <path d="M 1026.335289 246.90101 
L 1029.940146 246.90101 
L 1029.940146 244.873002 
L 1026.335289 244.873002 
z
" clip-path="url(#p6686c1945d)" style="fill: #1f77b4"/>
   </g>
   <g id="patch_139">
    <path d="M 1030.340685 246.90101 
L 1033.945542 246.90101 
L 1033.945542 245.887006 
L 1030.340685 245.887006 
z
" clip-path="url(#p6686c1945d)" style="fill: #1f77b4"/>
   </g>
   <g id="matplotlib.axis_7">
    <g id="xtick_12">
     <g id="line2d_42">
      <g>
       <use xlink:href="#mc7ef5e4d25" x="900.170677" y="246.90101" style="stroke: #000000; stroke-width: 0.8"/>
      </g>
     </g>
     <g id="text_41">
      <!-- 0.35 -->
      <g transform="translate(884.58474 264.538822) scale(0.14 -0.14)">
       <use xlink:href="#DejaVuSans-30"/>
       <use xlink:href="#DejaVuSans-2e" x="63.623047"/>
       <use xlink:href="#DejaVuSans-33" x="95.410156"/>
       <use xlink:href="#DejaVuSans-35" x="159.033203"/>
      </g>
     </g>
    </g>
    <g id="xtick_13">
     <g id="line2d_43">
      <g>
       <use xlink:href="#mc7ef5e4d25" x="978.197892" y="246.90101" style="stroke: #000000; stroke-width: 0.8"/>
      </g>
     </g>
     <g id="text_42">
      <!-- 0.40 -->
      <g transform="translate(962.611955 264.538822) scale(0.14 -0.14)">
       <use xlink:href="#DejaVuSans-30"/>
       <use xlink:href="#DejaVuSans-2e" x="63.623047"/>
       <use xlink:href="#DejaVuSans-34" x="95.410156"/>
       <use xlink:href="#DejaVuSans-30" x="159.033203"/>
      </g>
     </g>
    </g>
    <g id="xtick_14">
     <g id="line2d_44">
      <g>
       <use xlink:href="#mc7ef5e4d25" x="1056.225108" y="246.90101" style="stroke: #000000; stroke-width: 0.8"/>
      </g>
     </g>
     <g id="text_43">
      <!-- 0.45 -->
      <g transform="translate(1040.63917 264.538822) scale(0.14 -0.14)">
       <use xlink:href="#DejaVuSans-30"/>
       <use xlink:href="#DejaVuSans-2e" x="63.623047"/>
       <use xlink:href="#DejaVuSans-34" x="95.410156"/>
       <use xlink:href="#DejaVuSans-35" x="159.033203"/>
      </g>
     </g>
    </g>
    <g id="xtick_15">
     <g id="line2d_45">
      <g>
       <use xlink:href="#mc7ef5e4d25" x="1134.252323" y="246.90101" style="stroke: #000000; stroke-width: 0.8"/>
      </g>
     </g>
     <g id="text_44">
      <!-- 0.50 -->
      <g transform="translate(1118.666385 264.538822) scale(0.14 -0.14)">
       <use xlink:href="#DejaVuSans-30"/>
       <use xlink:href="#DejaVuSans-2e" x="63.623047"/>
       <use xlink:href="#DejaVuSans-35" x="95.410156"/>
       <use xlink:href="#DejaVuSans-30" x="159.033203"/>
      </g>
     </g>
    </g>
    <g id="text_45">
     <!-- $\nu_{23}$ [-] -->
     <g transform="translate(996.6315 282.088197) scale(0.14 -0.14)">
      <use xlink:href="#DejaVuSans-Oblique-3bd" transform="translate(0 0.015625)"/>
      <use xlink:href="#DejaVuSans-32" transform="translate(55.859375 -16.390625) scale(0.7)"/>
      <use xlink:href="#DejaVuSans-33" transform="translate(100.395508 -16.390625) scale(0.7)"/>
      <use xlink:href="#DejaVuSans-20" transform="translate(147.666016 0.015625)"/>
      <use xlink:href="#DejaVuSans-5b" transform="translate(179.453125 0.015625)"/>
      <use xlink:href="#DejaVuSans-2d" transform="translate(218.466797 0.015625)"/>
      <use xlink:href="#DejaVuSans-5d" transform="translate(254.550781 0.015625)"/>
     </g>
    </g>
   </g>
   <g id="matplotlib.axis_8">
    <g id="ytick_21">
     <g id="line2d_46">
      <g>
       <use xlink:href="#md3d193b40b" x="900.170677" y="246.90101" style="stroke: #000000; stroke-width: 0.8"/>
      </g>
     </g>
     <g id="text_46">
      <!-- 0 -->
      <g transform="translate(884.263177 252.219916) scale(0.14 -0.14)">
       <use xlink:href="#DejaVuSans-30"/>
      </g>
     </g>
    </g>
    <g id="ytick_22">
     <g id="line2d_47">
      <g>
       <use xlink:href="#md3d193b40b" x="900.170677" y="191.517489" style="stroke: #000000; stroke-width: 0.8"/>
      </g>
     </g>
     <g id="text_47">
      <!-- 10 -->
      <g transform="translate(875.355677 196.836395) scale(0.14 -0.14)">
       <use xlink:href="#DejaVuSans-31"/>
       <use xlink:href="#DejaVuSans-30" x="63.623047"/>
      </g>
     </g>
    </g>
    <g id="ytick_23">
     <g id="line2d_48">
      <g>
       <use xlink:href="#md3d193b40b" x="900.170677" y="136.133967" style="stroke: #000000; stroke-width: 0.8"/>
      </g>
     </g>
     <g id="text_48">
      <!-- 20 -->
      <g transform="translate(875.355677 141.452873) scale(0.14 -0.14)">
       <use xlink:href="#DejaVuSans-32"/>
       <use xlink:href="#DejaVuSans-30" x="63.623047"/>
      </g>
     </g>
    </g>
    <g id="ytick_24">
     <g id="line2d_49">
      <g>
       <use xlink:href="#md3d193b40b" x="900.170677" y="80.750446" style="stroke: #000000; stroke-width: 0.8"/>
      </g>
     </g>
     <g id="text_49">
      <!-- 30 -->
      <g transform="translate(875.355677 86.069352) scale(0.14 -0.14)">
       <use xlink:href="#DejaVuSans-33"/>
       <use xlink:href="#DejaVuSans-30" x="63.623047"/>
      </g>
     </g>
    </g>
    <g id="ytick_25">
     <g id="line2d_50">
      <g>
       <use xlink:href="#md3d193b40b" x="900.170677" y="25.366924" style="stroke: #000000; stroke-width: 0.8"/>
      </g>
     </g>
     <g id="text_50">
      <!-- 40 -->
      <g transform="translate(875.355677 30.685831) scale(0.14 -0.14)">
       <use xlink:href="#DejaVuSans-34"/>
       <use xlink:href="#DejaVuSans-30" x="63.623047"/>
      </g>
     </g>
    </g>
   </g>
   <g id="line2d_51">
    <path d="M 900.170677 246.901007 
L 904.947854 246.90099 
L 909.72503 246.9009 
L 914.502207 246.900464 
L 919.279383 246.898543 
L 924.05656 246.890855 
L 928.833736 246.862945 
L 933.610912 246.771091 
L 938.388089 246.497254 
L 943.165265 245.758478 
L 947.942442 243.957132 
L 952.719618 239.994271 
L 957.496795 232.146389 
L 962.273971 218.20081 
L 967.051147 196.068256 
L 971.828324 164.92171 
L 976.6055 126.517606 
L 981.382677 85.936221 
L 986.159853 50.927668 
L 990.93703 29.648419 
L 995.714206 27.602955 
L 1000.491382 45.340038 
L 1005.268559 78.214653 
L 1010.045735 118.35597 
L 1014.822912 157.707647 
L 1019.600088 190.548716 
L 1024.377265 214.48254 
L 1029.154441 229.91954 
L 1033.931617 238.801479 
L 1038.708794 243.383411 
L 1043.48597 245.509986 
L 1048.263147 246.40014 
L 1053.040323 246.736793 
L 1057.8175 246.851986 
L 1062.594676 246.887684 
L 1067.371852 246.897712 
L 1072.149029 246.900267 
L 1076.926205 246.900857 
L 1081.703382 246.900981 
L 1086.480558 246.901005 
L 1091.257735 246.901009 
L 1096.034911 246.90101 
L 1100.812088 246.90101 
L 1105.589264 246.90101 
L 1110.36644 246.90101 
L 1115.143617 246.90101 
L 1119.920793 246.90101 
L 1124.69797 246.90101 
L 1129.475146 246.90101 
L 1134.252323 246.90101 
" clip-path="url(#p6686c1945d)" style="fill: none; stroke: #2ca02c; stroke-width: 1.5; stroke-linecap: square"/>
   </g>
   <g id="line2d_52">
    <path d="M 993.803335 246.90101 
L 993.803335 16.638052 
" clip-path="url(#p6686c1945d)" style="fill: none; stroke: #d62728; stroke-width: 1.5; stroke-linecap: square"/>
   </g>
   <g id="line2d_53">
    <path d="M 1071.830551 246.90101 
L 1071.830551 16.638052 
" clip-path="url(#p6686c1945d)" style="fill: none; stroke: #d62728; stroke-width: 1.5; stroke-linecap: square"/>
   </g>
   <g id="patch_140">
    <path d="M 900.170677 246.90101 
L 900.170677 16.638052 
" style="fill: none; stroke: #000000; stroke-width: 0.8; stroke-linejoin: miter; stroke-linecap: square"/>
   </g>
   <g id="patch_141">
    <path d="M 1134.252323 246.90101 
L 1134.252323 16.638052 
" style="fill: none; stroke: #000000; stroke-width: 0.8; stroke-linejoin: miter; stroke-linecap: square"/>
   </g>
   <g id="patch_142">
    <path d="M 900.170677 246.90101 
L 1134.252323 246.90101 
" style="fill: none; stroke: #000000; stroke-width: 0.8; stroke-linejoin: miter; stroke-linecap: square"/>
   </g>
   <g id="patch_143">
    <path d="M 900.170677 16.638052 
L 1134.252323 16.638052 
" style="fill: none; stroke: #000000; stroke-width: 0.8; stroke-linejoin: miter; stroke-linecap: square"/>
   </g>
  </g>
  <g id="axes_5">
   <g id="patch_144">
    <path d="M 1202.918115 246.90101 
L 1436.99976 246.90101 
L 1436.99976 16.638052 
L 1202.918115 16.638052 
z
" style="fill: #ffffff"/>
   </g>
   <g id="patch_145">
    <path d="M 1199.152755 246.90101 
L 1203.878011 246.90101 
L 1203.878011 243.825822 
L 1199.152755 243.825822 
z
" clip-path="url(#pa5e56ef027)" style="fill: #1f77b4"/>
   </g>
   <g id="patch_146">
    <path d="M 1204.403039 246.90101 
L 1209.128295 246.90101 
L 1209.128295 246.90101 
L 1204.403039 246.90101 
z
" clip-path="url(#pa5e56ef027)" style="fill: #1f77b4"/>
   </g>
   <g id="patch_147">
    <path d="M 1209.653324 246.90101 
L 1214.378579 246.90101 
L 1214.378579 241.775697 
L 1209.653324 241.775697 
z
" clip-path="url(#pa5e56ef027)" style="fill: #1f77b4"/>
   </g>
   <g id="patch_148">
    <path d="M 1214.903608 246.90101 
L 1219.628864 246.90101 
L 1219.628864 233.575197 
L 1214.903608 233.575197 
z
" clip-path="url(#pa5e56ef027)" style="fill: #1f77b4"/>
   </g>
   <g id="patch_149">
    <path d="M 1220.153892 246.90101 
L 1224.879148 246.90101 
L 1224.879148 226.399759 
L 1220.153892 226.399759 
z
" clip-path="url(#pa5e56ef027)" style="fill: #1f77b4"/>
   </g>
   <g id="patch_150">
    <path d="M 1225.404176 246.90101 
L 1230.129432 246.90101 
L 1230.129432 218.199259 
L 1225.404176 218.199259 
z
" clip-path="url(#pa5e56ef027)" style="fill: #1f77b4"/>
   </g>
   <g id="patch_151">
    <path d="M 1230.65446 246.90101 
L 1235.379716 246.90101 
L 1235.379716 202.82332 
L 1230.65446 202.82332 
z
" clip-path="url(#pa5e56ef027)" style="fill: #1f77b4"/>
   </g>
   <g id="patch_152">
    <path d="M 1235.904744 246.90101 
L 1240.63 246.90101 
L 1240.63 180.271944 
L 1235.904744 180.271944 
z
" clip-path="url(#pa5e56ef027)" style="fill: #1f77b4"/>
   </g>
   <g id="patch_153">
    <path d="M 1241.155029 246.90101 
L 1245.880284 246.90101 
L 1245.880284 178.221819 
L 1241.155029 178.221819 
z
" clip-path="url(#pa5e56ef027)" style="fill: #1f77b4"/>
   </g>
   <g id="patch_154">
    <path d="M 1246.405313 246.90101 
L 1251.130569 246.90101 
L 1251.130569 148.495005 
L 1246.405313 148.495005 
z
" clip-path="url(#pa5e56ef027)" style="fill: #1f77b4"/>
   </g>
   <g id="patch_155">
    <path d="M 1251.655597 246.90101 
L 1256.380853 246.90101 
L 1256.380853 133.119067 
L 1251.655597 133.119067 
z
" clip-path="url(#pa5e56ef027)" style="fill: #1f77b4"/>
   </g>
   <g id="patch_156">
    <path d="M 1256.905881 246.90101 
L 1261.631137 246.90101 
L 1261.631137 114.667941 
L 1256.905881 114.667941 
z
" clip-path="url(#pa5e56ef027)" style="fill: #1f77b4"/>
   </g>
   <g id="patch_157">
    <path d="M 1262.156165 246.90101 
L 1266.881421 246.90101 
L 1266.881421 121.843379 
L 1262.156165 121.843379 
z
" clip-path="url(#pa5e56ef027)" style="fill: #1f77b4"/>
   </g>
   <g id="patch_158">
    <path d="M 1267.40645 246.90101 
L 1272.131705 246.90101 
L 1272.131705 104.417315 
L 1267.40645 104.417315 
z
" clip-path="url(#pa5e56ef027)" style="fill: #1f77b4"/>
   </g>
   <g id="patch_159">
    <path d="M 1272.656734 246.90101 
L 1277.38199 246.90101 
L 1277.38199 89.041377 
L 1272.656734 89.041377 
z
" clip-path="url(#pa5e56ef027)" style="fill: #1f77b4"/>
   </g>
   <g id="patch_160">
    <path d="M 1277.907018 246.90101 
L 1282.632274 246.90101 
L 1282.632274 106.46744 
L 1277.907018 106.46744 
z
" clip-path="url(#pa5e56ef027)" style="fill: #1f77b4"/>
   </g>
   <g id="patch_161">
    <path d="M 1283.157302 246.90101 
L 1287.882558 246.90101 
L 1287.882558 90.066439 
L 1283.157302 90.066439 
z
" clip-path="url(#pa5e56ef027)" style="fill: #1f77b4"/>
   </g>
   <g id="patch_162">
    <path d="M 1288.407586 246.90101 
L 1293.132842 246.90101 
L 1293.132842 98.26694 
L 1288.407586 98.26694 
z
" clip-path="url(#pa5e56ef027)" style="fill: #1f77b4"/>
   </g>
   <g id="patch_163">
    <path d="M 1293.657871 246.90101 
L 1298.383126 246.90101 
L 1298.383126 97.241877 
L 1293.657871 97.241877 
z
" clip-path="url(#pa5e56ef027)" style="fill: #1f77b4"/>
   </g>
   <g id="patch_164">
    <path d="M 1298.908155 246.90101 
L 1303.633411 246.90101 
L 1303.633411 117.743128 
L 1298.908155 117.743128 
z
" clip-path="url(#pa5e56ef027)" style="fill: #1f77b4"/>
   </g>
   <g id="patch_165">
    <path d="M 1304.158439 246.90101 
L 1308.883695 246.90101 
L 1308.883695 142.34463 
L 1304.158439 142.34463 
z
" clip-path="url(#pa5e56ef027)" style="fill: #1f77b4"/>
   </g>
   <g id="patch_166">
    <path d="M 1309.408723 246.90101 
L 1314.133979 246.90101 
L 1314.133979 158.74563 
L 1309.408723 158.74563 
z
" clip-path="url(#pa5e56ef027)" style="fill: #1f77b4"/>
   </g>
   <g id="patch_167">
    <path d="M 1314.659007 246.90101 
L 1319.384263 246.90101 
L 1319.384263 165.921068 
L 1314.659007 165.921068 
z
" clip-path="url(#pa5e56ef027)" style="fill: #1f77b4"/>
   </g>
   <g id="patch_168">
    <path d="M 1319.909292 246.90101 
L 1324.634547 246.90101 
L 1324.634547 201.798258 
L 1319.909292 201.798258 
z
" clip-path="url(#pa5e56ef027)" style="fill: #1f77b4"/>
   </g>
   <g id="patch_169">
    <path d="M 1325.159576 246.90101 
L 1329.884832 246.90101 
L 1329.884832 205.898508 
L 1325.159576 205.898508 
z
" clip-path="url(#pa5e56ef027)" style="fill: #1f77b4"/>
   </g>
   <g id="patch_170">
    <path d="M 1330.40986 246.90101 
L 1335.135116 246.90101 
L 1335.135116 216.149133 
L 1330.40986 216.149133 
z
" clip-path="url(#pa5e56ef027)" style="fill: #1f77b4"/>
   </g>
   <g id="patch_171">
    <path d="M 1335.660144 246.90101 
L 1340.3854 246.90101 
L 1340.3854 226.399759 
L 1335.660144 226.399759 
z
" clip-path="url(#pa5e56ef027)" style="fill: #1f77b4"/>
   </g>
   <g id="patch_172">
    <path d="M 1340.910428 246.90101 
L 1345.635684 246.90101 
L 1345.635684 235.625322 
L 1340.910428 235.625322 
z
" clip-path="url(#pa5e56ef027)" style="fill: #1f77b4"/>
   </g>
   <g id="patch_173">
    <path d="M 1346.160713 246.90101 
L 1350.885968 246.90101 
L 1350.885968 236.650384 
L 1346.160713 236.650384 
z
" clip-path="url(#pa5e56ef027)" style="fill: #1f77b4"/>
   </g>
   <g id="patch_174">
    <path d="M 1351.410997 246.90101 
L 1356.136252 246.90101 
L 1356.136252 242.80076 
L 1351.410997 242.80076 
z
" clip-path="url(#pa5e56ef027)" style="fill: #1f77b4"/>
   </g>
   <g id="matplotlib.axis_9">
    <g id="xtick_16">
     <g id="line2d_54">
      <g>
       <use xlink:href="#mc7ef5e4d25" x="1202.918115" y="246.90101" style="stroke: #000000; stroke-width: 0.8"/>
      </g>
     </g>
     <g id="text_51">
      <!-- 4600 -->
      <g transform="translate(1185.103115 264.538822) scale(0.14 -0.14)">
       <use xlink:href="#DejaVuSans-34"/>
       <use xlink:href="#DejaVuSans-36" x="63.623047"/>
       <use xlink:href="#DejaVuSans-30" x="127.246094"/>
       <use xlink:href="#DejaVuSans-30" x="190.869141"/>
      </g>
     </g>
    </g>
    <g id="xtick_17">
     <g id="line2d_55">
      <g>
       <use xlink:href="#mc7ef5e4d25" x="1254.936258" y="246.90101" style="stroke: #000000; stroke-width: 0.8"/>
      </g>
     </g>
     <g id="text_52">
      <!-- 4800 -->
      <g transform="translate(1237.121258 264.538822) scale(0.14 -0.14)">
       <use xlink:href="#DejaVuSans-34"/>
       <use xlink:href="#DejaVuSans-38" x="63.623047"/>
       <use xlink:href="#DejaVuSans-30" x="127.246094"/>
       <use xlink:href="#DejaVuSans-30" x="190.869141"/>
      </g>
     </g>
    </g>
    <g id="xtick_18">
     <g id="line2d_56">
      <g>
       <use xlink:href="#mc7ef5e4d25" x="1306.954402" y="246.90101" style="stroke: #000000; stroke-width: 0.8"/>
      </g>
     </g>
     <g id="text_53">
      <!-- 5000 -->
      <g transform="translate(1289.139402 264.538822) scale(0.14 -0.14)">
       <use xlink:href="#DejaVuSans-35"/>
       <use xlink:href="#DejaVuSans-30" x="63.623047"/>
       <use xlink:href="#DejaVuSans-30" x="127.246094"/>
       <use xlink:href="#DejaVuSans-30" x="190.869141"/>
      </g>
     </g>
    </g>
    <g id="xtick_19">
     <g id="line2d_57">
      <g>
       <use xlink:href="#mc7ef5e4d25" x="1358.972545" y="246.90101" style="stroke: #000000; stroke-width: 0.8"/>
      </g>
     </g>
     <g id="text_54">
      <!-- 5200 -->
      <g transform="translate(1341.157545 264.538822) scale(0.14 -0.14)">
       <use xlink:href="#DejaVuSans-35"/>
       <use xlink:href="#DejaVuSans-32" x="63.623047"/>
       <use xlink:href="#DejaVuSans-30" x="127.246094"/>
       <use xlink:href="#DejaVuSans-30" x="190.869141"/>
      </g>
     </g>
    </g>
    <g id="xtick_20">
     <g id="line2d_58">
      <g>
       <use xlink:href="#mc7ef5e4d25" x="1410.990688" y="246.90101" style="stroke: #000000; stroke-width: 0.8"/>
      </g>
     </g>
     <g id="text_55">
      <!-- 5400 -->
      <g transform="translate(1393.175688 264.538822) scale(0.14 -0.14)">
       <use xlink:href="#DejaVuSans-35"/>
       <use xlink:href="#DejaVuSans-34" x="63.623047"/>
       <use xlink:href="#DejaVuSans-30" x="127.246094"/>
       <use xlink:href="#DejaVuSans-30" x="190.869141"/>
      </g>
     </g>
    </g>
    <g id="text_56">
     <!-- $G_{12}$ [MPa] -->
     <g transform="translate(1285.868938 282.088197) scale(0.14 -0.14)">
      <defs>
       <path id="DejaVuSans-Oblique-47" d="M 3494 697 
L 3738 1919 
L 2700 1919 
L 2797 2438 
L 4453 2438 
L 4050 384 
Q 3634 156 3143 32 
Q 2653 -91 2156 -91 
Q 1278 -91 783 396 
Q 288 884 288 1753 
Q 288 2475 589 3126 
Q 891 3778 1422 4213 
Q 1756 4484 2153 4617 
Q 2550 4750 3034 4750 
Q 3472 4750 3873 4639 
Q 4275 4528 4641 4306 
L 4513 3634 
Q 4231 3928 3853 4083 
Q 3475 4238 3047 4238 
Q 2550 4238 2172 4048 
Q 1794 3859 1497 3463 
Q 1244 3125 1098 2667 
Q 953 2209 953 1734 
Q 953 1081 1287 751 
Q 1622 422 2284 422 
Q 2616 422 2925 492 
Q 3234 563 3494 697 
z
" transform="scale(0.015625)"/>
      </defs>
      <use xlink:href="#DejaVuSans-Oblique-47" transform="translate(0 0.015625)"/>
      <use xlink:href="#DejaVuSans-31" transform="translate(77.490234 -16.390625) scale(0.7)"/>
      <use xlink:href="#DejaVuSans-32" transform="translate(122.026367 -16.390625) scale(0.7)"/>
      <use xlink:href="#DejaVuSans-20" transform="translate(169.296875 0.015625)"/>
      <use xlink:href="#DejaVuSans-5b" transform="translate(201.083984 0.015625)"/>
      <use xlink:href="#DejaVuSans-4d" transform="translate(240.097656 0.015625)"/>
      <use xlink:href="#DejaVuSans-50" transform="translate(326.376953 0.015625)"/>
      <use xlink:href="#DejaVuSans-61" transform="translate(386.679688 0.015625)"/>
      <use xlink:href="#DejaVuSans-5d" transform="translate(447.958984 0.015625)"/>
     </g>
    </g>
   </g>
   <g id="matplotlib.axis_10">
    <g id="ytick_26">
     <g id="line2d_59">
      <g>
       <use xlink:href="#md3d193b40b" x="1202.918115" y="246.90101" style="stroke: #000000; stroke-width: 0.8"/>
      </g>
     </g>
     <g id="text_57">
      <!-- 0.000 -->
      <g transform="translate(1155.83874 252.219916) scale(0.14 -0.14)">
       <use xlink:href="#DejaVuSans-30"/>
       <use xlink:href="#DejaVuSans-2e" x="63.623047"/>
       <use xlink:href="#DejaVuSans-30" x="95.410156"/>
       <use xlink:href="#DejaVuSans-30" x="159.033203"/>
       <use xlink:href="#DejaVuSans-30" x="222.65625"/>
      </g>
     </g>
    </g>
    <g id="ytick_27">
     <g id="line2d_60">
      <g>
       <use xlink:href="#md3d193b40b" x="1202.918115" y="202.86784" style="stroke: #000000; stroke-width: 0.8"/>
      </g>
     </g>
     <g id="text_58">
      <!-- 0.001 -->
      <g transform="translate(1155.83874 208.186746) scale(0.14 -0.14)">
       <use xlink:href="#DejaVuSans-30"/>
       <use xlink:href="#DejaVuSans-2e" x="63.623047"/>
       <use xlink:href="#DejaVuSans-30" x="95.410156"/>
       <use xlink:href="#DejaVuSans-30" x="159.033203"/>
       <use xlink:href="#DejaVuSans-31" x="222.65625"/>
      </g>
     </g>
    </g>
    <g id="ytick_28">
     <g id="line2d_61">
      <g>
       <use xlink:href="#md3d193b40b" x="1202.918115" y="158.83467" style="stroke: #000000; stroke-width: 0.8"/>
      </g>
     </g>
     <g id="text_59">
      <!-- 0.002 -->
      <g transform="translate(1155.83874 164.153576) scale(0.14 -0.14)">
       <use xlink:href="#DejaVuSans-30"/>
       <use xlink:href="#DejaVuSans-2e" x="63.623047"/>
       <use xlink:href="#DejaVuSans-30" x="95.410156"/>
       <use xlink:href="#DejaVuSans-30" x="159.033203"/>
       <use xlink:href="#DejaVuSans-32" x="222.65625"/>
      </g>
     </g>
    </g>
    <g id="ytick_29">
     <g id="line2d_62">
      <g>
       <use xlink:href="#md3d193b40b" x="1202.918115" y="114.8015" style="stroke: #000000; stroke-width: 0.8"/>
      </g>
     </g>
     <g id="text_60">
      <!-- 0.003 -->
      <g transform="translate(1155.83874 120.120406) scale(0.14 -0.14)">
       <use xlink:href="#DejaVuSans-30"/>
       <use xlink:href="#DejaVuSans-2e" x="63.623047"/>
       <use xlink:href="#DejaVuSans-30" x="95.410156"/>
       <use xlink:href="#DejaVuSans-30" x="159.033203"/>
       <use xlink:href="#DejaVuSans-33" x="222.65625"/>
      </g>
     </g>
    </g>
    <g id="ytick_30">
     <g id="line2d_63">
      <g>
       <use xlink:href="#md3d193b40b" x="1202.918115" y="70.76833" style="stroke: #000000; stroke-width: 0.8"/>
      </g>
     </g>
     <g id="text_61">
      <!-- 0.004 -->
      <g transform="translate(1155.83874 76.087236) scale(0.14 -0.14)">
       <use xlink:href="#DejaVuSans-30"/>
       <use xlink:href="#DejaVuSans-2e" x="63.623047"/>
       <use xlink:href="#DejaVuSans-30" x="95.410156"/>
       <use xlink:href="#DejaVuSans-30" x="159.033203"/>
       <use xlink:href="#DejaVuSans-34" x="222.65625"/>
      </g>
     </g>
    </g>
    <g id="ytick_31">
     <g id="line2d_64">
      <g>
       <use xlink:href="#md3d193b40b" x="1202.918115" y="26.73516" style="stroke: #000000; stroke-width: 0.8"/>
      </g>
     </g>
     <g id="text_62">
      <!-- 0.005 -->
      <g transform="translate(1155.83874 32.054066) scale(0.14 -0.14)">
       <use xlink:href="#DejaVuSans-30"/>
       <use xlink:href="#DejaVuSans-2e" x="63.623047"/>
       <use xlink:href="#DejaVuSans-30" x="95.410156"/>
       <use xlink:href="#DejaVuSans-30" x="159.033203"/>
       <use xlink:href="#DejaVuSans-35" x="222.65625"/>
      </g>
     </g>
    </g>
   </g>
   <g id="line2d_65">
    <path d="M 1202.918115 246.900192 
L 1207.695291 246.898498 
L 1212.472468 246.893695 
L 1217.249644 246.8808 
L 1222.026821 246.848045 
L 1226.803997 246.769329 
L 1231.581174 246.590437 
L 1236.35835 246.206123 
L 1241.135526 245.426081 
L 1245.912703 243.931154 
L 1250.689879 241.228087 
L 1255.467056 236.621183 
L 1260.244232 229.229568 
L 1265.021409 218.082902 
L 1269.798585 202.318324 
L 1274.575761 181.471408 
L 1279.352938 155.807042 
L 1284.130114 126.588093 
L 1288.907291 96.156266 
L 1293.684467 67.725193 
L 1298.461644 44.867273 
L 1303.23882 30.790597 
L 1308.015996 27.602955 
L 1312.793173 35.794729 
L 1317.570349 54.115307 
L 1322.347526 79.885894 
L 1327.124702 109.640999 
L 1331.901879 139.887264 
L 1336.679055 167.752563 
L 1341.456231 191.367833 
L 1346.233408 209.937779 
L 1351.010584 223.561344 
L 1355.787761 232.920384 
L 1360.564937 238.956522 
L 1365.342114 242.618361 
L 1370.11929 244.710898 
L 1374.896466 245.838514 
L 1379.673643 246.412025 
L 1384.450819 246.687523 
L 1389.227996 246.812589 
L 1394.005172 246.866269 
L 1398.782349 246.888061 
L 1403.559525 246.896431 
L 1408.336701 246.899474 
L 1413.113878 246.900521 
L 1417.891054 246.900862 
L 1422.668231 246.900968 
L 1427.445407 246.900999 
L 1432.222584 246.901007 
L 1436.99976 246.901009 
" clip-path="url(#pa5e56ef027)" style="fill: none; stroke: #2ca02c; stroke-width: 1.5; stroke-linecap: square"/>
   </g>
   <g id="line2d_66">
    <path d="M 1286.147144 246.90101 
L 1286.147144 16.638052 
" clip-path="url(#pa5e56ef027)" style="fill: none; stroke: #d62728; stroke-width: 1.5; stroke-linecap: square"/>
   </g>
   <g id="line2d_67">
    <path d="M 1387.582524 246.90101 
L 1387.582524 16.638052 
" clip-path="url(#pa5e56ef027)" style="fill: none; stroke: #d62728; stroke-width: 1.5; stroke-linecap: square"/>
   </g>
   <g id="patch_175">
    <path d="M 1202.918115 246.90101 
L 1202.918115 16.638052 
" style="fill: none; stroke: #000000; stroke-width: 0.8; stroke-linejoin: miter; stroke-linecap: square"/>
   </g>
   <g id="patch_176">
    <path d="M 1436.99976 246.90101 
L 1436.99976 16.638052 
" style="fill: none; stroke: #000000; stroke-width: 0.8; stroke-linejoin: miter; stroke-linecap: square"/>
   </g>
   <g id="patch_177">
    <path d="M 1202.918115 246.90101 
L 1436.99976 246.90101 
" style="fill: none; stroke: #000000; stroke-width: 0.8; stroke-linejoin: miter; stroke-linecap: square"/>
   </g>
   <g id="patch_178">
    <path d="M 1202.918115 16.638052 
L 1436.99976 16.638052 
" style="fill: none; stroke: #000000; stroke-width: 0.8; stroke-linejoin: miter; stroke-linecap: square"/>
   </g>
  </g>
 </g>
 <defs>
  <clipPath id="p3e4c832f5d">
   <rect x="58.72149" y="16.638052" width="234.081645" height="230.262958"/>
  </clipPath>
  <clipPath id="p43a3c99d4c">
   <rect x="354.79049" y="16.638052" width="234.081645" height="230.262958"/>
  </clipPath>
  <clipPath id="p1c4009dc02">
   <rect x="619.687615" y="16.638052" width="234.081645" height="230.262958"/>
  </clipPath>
  <clipPath id="p6686c1945d">
   <rect x="900.170677" y="16.638052" width="234.081645" height="230.262958"/>
  </clipPath>
  <clipPath id="pa5e56ef027">
   <rect x="1202.918115" y="16.638052" width="234.081645" height="230.262958"/>
  </clipPath>
 </defs>
</svg>
