<?xml version="1.0" encoding="utf-8" standalone="no"?>
<!DOCTYPE svg PUBLIC "-//W3C//DTD SVG 1.1//EN"
  "http://www.w3.org/Graphics/SVG/1.1/DTD/svg11.dtd">
<svg xmlns:xlink="http://www.w3.org/1999/xlink" width="1440pt" height="288pt" viewBox="0 0 1440 288" xmlns="http://www.w3.org/2000/svg" version="1.1">
 <metadata>
  <rdf:RDF xmlns:dc="http://purl.org/dc/elements/1.1/" xmlns:cc="http://creativecommons.org/ns#" xmlns:rdf="http://www.w3.org/1999/02/22-rdf-syntax-ns#">
   <cc:Work>
    <dc:type rdf:resource="http://purl.org/dc/dcmitype/StillImage"/>
    <dc:date>2025-12-02T13:51:50.807987</dc:date>
    <dc:format>image/svg+xml</dc:format>
    <dc:creator>
     <cc:Agent>
      <dc:title>Matplotlib v3.10.6, https://matplotlib.org/</dc:title>
     </cc:Agent>
    </dc:creator>
   </cc:Work>
  </rdf:RDF>
 </metadata>
 <defs>
  <style type="text/css">*{stroke-linejoin: round; stroke-linecap: butt}</style>
 </defs>
 <g id="figure_1">
  <g id="patch_1">
   <path d="M 0 288 
L 1440 288 
L 1440 0 
L 0 0 
z
" style="fill: #ffffff"/>
  </g>
  <g id="axes_1">
   <g id="patch_2">
    <path d="M 58.72149 246.90101 
L 292.803135 246.90101 
L 292.803135 16.638052 
L 58.72149 16.638052 
z
" style="fill: #ffffff"/>
   </g>
   <g id="patch_3">
    <path d="M 46.625446 246.90101 
L 50.666138 246.90101 
L 50.666138 246.095059 
L 46.625446 246.095059 
z
" clip-path="url(#p398317a9b1)" style="fill: #1f77b4"/>
   </g>
   <g id="patch_4">
    <path d="M 51.115104 246.90101 
L 55.155796 246.90101 
L 55.155796 246.90101 
L 51.115104 246.90101 
z
" clip-path="url(#p398317a9b1)" style="fill: #1f77b4"/>
   </g>
   <g id="patch_5">
    <path d="M 55.604762 246.90101 
L 59.645454 246.90101 
L 59.645454 246.90101 
L 55.604762 246.90101 
z
" clip-path="url(#p398317a9b1)" style="fill: #1f77b4"/>
   </g>
   <g id="patch_6">
    <path d="M 60.09442 246.90101 
L 64.135112 246.90101 
L 64.135112 246.90101 
L 60.09442 246.90101 
z
" clip-path="url(#p398317a9b1)" style="fill: #1f77b4"/>
   </g>
   <g id="patch_7">
    <path d="M 64.584078 246.90101 
L 68.62477 246.90101 
L 68.62477 246.90101 
L 64.584078 246.90101 
z
" clip-path="url(#p398317a9b1)" style="fill: #1f77b4"/>
   </g>
   <g id="patch_8">
    <path d="M 69.073736 246.90101 
L 73.114428 246.90101 
L 73.114428 245.289108 
L 69.073736 245.289108 
z
" clip-path="url(#p398317a9b1)" style="fill: #1f77b4"/>
   </g>
   <g id="patch_9">
    <path d="M 73.563394 246.90101 
L 77.604086 246.90101 
L 77.604086 243.677207 
L 73.563394 243.677207 
z
" clip-path="url(#p398317a9b1)" style="fill: #1f77b4"/>
   </g>
   <g id="patch_10">
    <path d="M 78.053051 246.90101 
L 82.093744 246.90101 
L 82.093744 242.065305 
L 78.053051 242.065305 
z
" clip-path="url(#p398317a9b1)" style="fill: #1f77b4"/>
   </g>
   <g id="patch_11">
    <path d="M 82.542709 246.90101 
L 86.583402 246.90101 
L 86.583402 234.005797 
L 82.542709 234.005797 
z
" clip-path="url(#p398317a9b1)" style="fill: #1f77b4"/>
   </g>
   <g id="patch_12">
    <path d="M 87.032367 246.90101 
L 91.073059 246.90101 
L 91.073059 225.94629 
L 87.032367 225.94629 
z
" clip-path="url(#p398317a9b1)" style="fill: #1f77b4"/>
   </g>
   <g id="patch_13">
    <path d="M 91.522025 246.90101 
L 95.562717 246.90101 
L 95.562717 213.857028 
L 91.522025 213.857028 
z
" clip-path="url(#p398317a9b1)" style="fill: #1f77b4"/>
   </g>
   <g id="patch_14">
    <path d="M 96.011683 246.90101 
L 100.052375 246.90101 
L 100.052375 207.409422 
L 96.011683 207.409422 
z
" clip-path="url(#p398317a9b1)" style="fill: #1f77b4"/>
   </g>
   <g id="patch_15">
    <path d="M 100.501341 246.90101 
L 104.542033 246.90101 
L 104.542033 171.141636 
L 100.501341 171.141636 
z
" clip-path="url(#p398317a9b1)" style="fill: #1f77b4"/>
   </g>
   <g id="patch_16">
    <path d="M 104.990999 246.90101 
L 109.031691 246.90101 
L 109.031691 114.725081 
L 104.990999 114.725081 
z
" clip-path="url(#p398317a9b1)" style="fill: #1f77b4"/>
   </g>
   <g id="patch_17">
    <path d="M 109.480657 246.90101 
L 113.521349 246.90101 
L 113.521349 71.203739 
L 109.480657 71.203739 
z
" clip-path="url(#p398317a9b1)" style="fill: #1f77b4"/>
   </g>
   <g id="patch_18">
    <path d="M 113.970315 246.90101 
L 118.011007 246.90101 
L 118.011007 32.518101 
L 113.970315 32.518101 
z
" clip-path="url(#p398317a9b1)" style="fill: #1f77b4"/>
   </g>
   <g id="patch_19">
    <path d="M 118.459973 246.90101 
L 122.500665 246.90101 
L 122.500665 33.324052 
L 118.459973 33.324052 
z
" clip-path="url(#p398317a9b1)" style="fill: #1f77b4"/>
   </g>
   <g id="patch_20">
    <path d="M 122.949631 246.90101 
L 126.990323 246.90101 
L 126.990323 24.458594 
L 122.949631 24.458594 
z
" clip-path="url(#p398317a9b1)" style="fill: #1f77b4"/>
   </g>
   <g id="patch_21">
    <path d="M 127.439289 246.90101 
L 131.479981 246.90101 
L 131.479981 64.756133 
L 127.439289 64.756133 
z
" clip-path="url(#p398317a9b1)" style="fill: #1f77b4"/>
   </g>
   <g id="patch_22">
    <path d="M 131.928947 246.90101 
L 135.969639 246.90101 
L 135.969639 105.859623 
L 131.928947 105.859623 
z
" clip-path="url(#p398317a9b1)" style="fill: #1f77b4"/>
   </g>
   <g id="patch_23">
    <path d="M 136.418605 246.90101 
L 140.459297 246.90101 
L 140.459297 162.276178 
L 136.418605 162.276178 
z
" clip-path="url(#p398317a9b1)" style="fill: #1f77b4"/>
   </g>
   <g id="patch_24">
    <path d="M 140.908263 246.90101 
L 144.948955 246.90101 
L 144.948955 189.678504 
L 140.908263 189.678504 
z
" clip-path="url(#p398317a9b1)" style="fill: #1f77b4"/>
   </g>
   <g id="patch_25">
    <path d="M 145.39792 246.90101 
L 149.438613 246.90101 
L 149.438613 204.185618 
L 145.39792 204.185618 
z
" clip-path="url(#p398317a9b1)" style="fill: #1f77b4"/>
   </g>
   <g id="patch_26">
    <path d="M 149.887578 246.90101 
L 153.928271 246.90101 
L 153.928271 226.75224 
L 149.887578 226.75224 
z
" clip-path="url(#p398317a9b1)" style="fill: #1f77b4"/>
   </g>
   <g id="patch_27">
    <path d="M 154.377236 246.90101 
L 158.417928 246.90101 
L 158.417928 230.781994 
L 154.377236 230.781994 
z
" clip-path="url(#p398317a9b1)" style="fill: #1f77b4"/>
   </g>
   <g id="patch_28">
    <path d="M 158.866894 246.90101 
L 162.907586 246.90101 
L 162.907586 236.42365 
L 158.866894 236.42365 
z
" clip-path="url(#p398317a9b1)" style="fill: #1f77b4"/>
   </g>
   <g id="patch_29">
    <path d="M 163.356552 246.90101 
L 167.397244 246.90101 
L 167.397244 241.259355 
L 163.356552 241.259355 
z
" clip-path="url(#p398317a9b1)" style="fill: #1f77b4"/>
   </g>
   <g id="patch_30">
    <path d="M 167.84621 246.90101 
L 171.886902 246.90101 
L 171.886902 245.289108 
L 167.84621 245.289108 
z
" clip-path="url(#p398317a9b1)" style="fill: #1f77b4"/>
   </g>
   <g id="patch_31">
    <path d="M 172.335868 246.90101 
L 176.37656 246.90101 
L 176.37656 245.289108 
L 172.335868 245.289108 
z
" clip-path="url(#p398317a9b1)" style="fill: #1f77b4"/>
   </g>
   <g id="patch_32">
    <path d="M 176.825526 246.90101 
L 180.866218 246.90101 
L 180.866218 246.095059 
L 176.825526 246.095059 
z
" clip-path="url(#p398317a9b1)" style="fill: #1f77b4"/>
   </g>
   <g id="matplotlib.axis_1">
    <g id="xtick_1">
     <g id="line2d_1">
      <defs>
       <path id="mbb57fd1286" d="M 0 0 
L 0 3.5 
" style="stroke: #000000; stroke-width: 0.8"/>
      </defs>
      <g>
       <use xlink:href="#mbb57fd1286" x="58.72149" y="246.90101" style="stroke: #000000; stroke-width: 0.8"/>
      </g>
     </g>
     <g id="text_1">
      <!-- 1.4 -->
      <g transform="translate(47.589303 264.538822) scale(0.14 -0.14)">
       <defs>
        <path id="DejaVuSans-31" d="M 794 531 
L 1825 531 
L 1825 4091 
L 703 3866 
L 703 4441 
L 1819 4666 
L 2450 4666 
L 2450 531 
L 3481 531 
L 3481 0 
L 794 0 
L 794 531 
z
" transform="scale(0.015625)"/>
        <path id="DejaVuSans-2e" d="M 684 794 
L 1344 794 
L 1344 0 
L 684 0 
L 684 794 
z
" transform="scale(0.015625)"/>
        <path id="DejaVuSans-34" d="M 2419 4116 
L 825 1625 
L 2419 1625 
L 2419 4116 
z
M 2253 4666 
L 3047 4666 
L 3047 1625 
L 3713 1625 
L 3713 1100 
L 3047 1100 
L 3047 0 
L 2419 0 
L 2419 1100 
L 313 1100 
L 313 1709 
L 2253 4666 
z
" transform="scale(0.015625)"/>
       </defs>
       <use xlink:href="#DejaVuSans-31"/>
       <use xlink:href="#DejaVuSans-2e" transform="translate(63.623047 0)"/>
       <use xlink:href="#DejaVuSans-34" transform="translate(95.410156 0)"/>
      </g>
     </g>
    </g>
    <g id="xtick_2">
     <g id="line2d_2">
      <g>
       <use xlink:href="#mbb57fd1286" x="125.60196" y="246.90101" style="stroke: #000000; stroke-width: 0.8"/>
      </g>
     </g>
     <g id="text_2">
      <!-- 1.5 -->
      <g transform="translate(114.469772 264.538822) scale(0.14 -0.14)">
       <defs>
        <path id="DejaVuSans-35" d="M 691 4666 
L 3169 4666 
L 3169 4134 
L 1269 4134 
L 1269 2991 
Q 1406 3038 1543 3061 
Q 1681 3084 1819 3084 
Q 2600 3084 3056 2656 
Q 3513 2228 3513 1497 
Q 3513 744 3044 326 
Q 2575 -91 1722 -91 
Q 1428 -91 1123 -41 
Q 819 9 494 109 
L 494 744 
Q 775 591 1075 516 
Q 1375 441 1709 441 
Q 2250 441 2565 725 
Q 2881 1009 2881 1497 
Q 2881 1984 2565 2268 
Q 2250 2553 1709 2553 
Q 1456 2553 1204 2497 
Q 953 2441 691 2322 
L 691 4666 
z
" transform="scale(0.015625)"/>
       </defs>
       <use xlink:href="#DejaVuSans-31"/>
       <use xlink:href="#DejaVuSans-2e" transform="translate(63.623047 0)"/>
       <use xlink:href="#DejaVuSans-35" transform="translate(95.410156 0)"/>
      </g>
     </g>
    </g>
    <g id="xtick_3">
     <g id="line2d_3">
      <g>
       <use xlink:href="#mbb57fd1286" x="192.48243" y="246.90101" style="stroke: #000000; stroke-width: 0.8"/>
      </g>
     </g>
     <g id="text_3">
      <!-- 1.6 -->
      <g transform="translate(181.350242 264.538822) scale(0.14 -0.14)">
       <defs>
        <path id="DejaVuSans-36" d="M 2113 2584 
Q 1688 2584 1439 2293 
Q 1191 2003 1191 1497 
Q 1191 994 1439 701 
Q 1688 409 2113 409 
Q 2538 409 2786 701 
Q 3034 994 3034 1497 
Q 3034 2003 2786 2293 
Q 2538 2584 2113 2584 
z
M 3366 4563 
L 3366 3988 
Q 3128 4100 2886 4159 
Q 2644 4219 2406 4219 
Q 1781 4219 1451 3797 
Q 1122 3375 1075 2522 
Q 1259 2794 1537 2939 
Q 1816 3084 2150 3084 
Q 2853 3084 3261 2657 
Q 3669 2231 3669 1497 
Q 3669 778 3244 343 
Q 2819 -91 2113 -91 
Q 1303 -91 875 529 
Q 447 1150 447 2328 
Q 447 3434 972 4092 
Q 1497 4750 2381 4750 
Q 2619 4750 2861 4703 
Q 3103 4656 3366 4563 
z
" transform="scale(0.015625)"/>
       </defs>
       <use xlink:href="#DejaVuSans-31"/>
       <use xlink:href="#DejaVuSans-2e" transform="translate(63.623047 0)"/>
       <use xlink:href="#DejaVuSans-36" transform="translate(95.410156 0)"/>
      </g>
     </g>
    </g>
    <g id="xtick_4">
     <g id="line2d_4">
      <g>
       <use xlink:href="#mbb57fd1286" x="259.3629" y="246.90101" style="stroke: #000000; stroke-width: 0.8"/>
      </g>
     </g>
     <g id="text_4">
      <!-- 1.7 -->
      <g transform="translate(248.230713 264.538822) scale(0.14 -0.14)">
       <defs>
        <path id="DejaVuSans-37" d="M 525 4666 
L 3525 4666 
L 3525 4397 
L 1831 0 
L 1172 0 
L 2766 4134 
L 525 4134 
L 525 4666 
z
" transform="scale(0.015625)"/>
       </defs>
       <use xlink:href="#DejaVuSans-31"/>
       <use xlink:href="#DejaVuSans-2e" transform="translate(63.623047 0)"/>
       <use xlink:href="#DejaVuSans-37" transform="translate(95.410156 0)"/>
      </g>
     </g>
    </g>
    <g id="text_5">
     <!-- $E_1$ [MPa] -->
     <g transform="translate(145.732313 282.088197) scale(0.14 -0.14)">
      <defs>
       <path id="DejaVuSans-Oblique-45" d="M 1081 4666 
L 4031 4666 
L 3928 4134 
L 1606 4134 
L 1338 2753 
L 3566 2753 
L 3463 2222 
L 1234 2222 
L 909 531 
L 3284 531 
L 3181 0 
L 172 0 
L 1081 4666 
z
" transform="scale(0.015625)"/>
       <path id="DejaVuSans-20" transform="scale(0.015625)"/>
       <path id="DejaVuSans-5b" d="M 550 4863 
L 1875 4863 
L 1875 4416 
L 1125 4416 
L 1125 -397 
L 1875 -397 
L 1875 -844 
L 550 -844 
L 550 4863 
z
" transform="scale(0.015625)"/>
       <path id="DejaVuSans-4d" d="M 628 4666 
L 1569 4666 
L 2759 1491 
L 3956 4666 
L 4897 4666 
L 4897 0 
L 4281 0 
L 4281 4097 
L 3078 897 
L 2444 897 
L 1241 4097 
L 1241 0 
L 628 0 
L 628 4666 
z
" transform="scale(0.015625)"/>
       <path id="DejaVuSans-50" d="M 1259 4147 
L 1259 2394 
L 2053 2394 
Q 2494 2394 2734 2622 
Q 2975 2850 2975 3272 
Q 2975 3691 2734 3919 
Q 2494 4147 2053 4147 
L 1259 4147 
z
M 628 4666 
L 2053 4666 
Q 2838 4666 3239 4311 
Q 3641 3956 3641 3272 
Q 3641 2581 3239 2228 
Q 2838 1875 2053 1875 
L 1259 1875 
L 1259 0 
L 628 0 
L 628 4666 
z
" transform="scale(0.015625)"/>
       <path id="DejaVuSans-61" d="M 2194 1759 
Q 1497 1759 1228 1600 
Q 959 1441 959 1056 
Q 959 750 1161 570 
Q 1363 391 1709 391 
Q 2188 391 2477 730 
Q 2766 1069 2766 1631 
L 2766 1759 
L 2194 1759 
z
M 3341 1997 
L 3341 0 
L 2766 0 
L 2766 531 
Q 2569 213 2275 61 
Q 1981 -91 1556 -91 
Q 1019 -91 701 211 
Q 384 513 384 1019 
Q 384 1609 779 1909 
Q 1175 2209 1959 2209 
L 2766 2209 
L 2766 2266 
Q 2766 2663 2505 2880 
Q 2244 3097 1772 3097 
Q 1472 3097 1187 3025 
Q 903 2953 641 2809 
L 641 3341 
Q 956 3463 1253 3523 
Q 1550 3584 1831 3584 
Q 2591 3584 2966 3190 
Q 3341 2797 3341 1997 
z
" transform="scale(0.015625)"/>
       <path id="DejaVuSans-5d" d="M 1947 4863 
L 1947 -844 
L 622 -844 
L 622 -397 
L 1369 -397 
L 1369 4416 
L 622 4416 
L 622 4863 
L 1947 4863 
z
" transform="scale(0.015625)"/>
      </defs>
      <use xlink:href="#DejaVuSans-Oblique-45" transform="translate(0 0.015625)"/>
      <use xlink:href="#DejaVuSans-31" transform="translate(63.183594 -16.390625) scale(0.7)"/>
      <use xlink:href="#DejaVuSans-20" transform="translate(110.454102 0.015625)"/>
      <use xlink:href="#DejaVuSans-5b" transform="translate(142.241211 0.015625)"/>
      <use xlink:href="#DejaVuSans-4d" transform="translate(181.254883 0.015625)"/>
      <use xlink:href="#DejaVuSans-50" transform="translate(267.53418 0.015625)"/>
      <use xlink:href="#DejaVuSans-61" transform="translate(327.836914 0.015625)"/>
      <use xlink:href="#DejaVuSans-5d" transform="translate(389.116211 0.015625)"/>
     </g>
    </g>
    <g id="text_6">
     <!-- 1e5 -->
     <g transform="translate(266.37376 281.088197) scale(0.14 -0.14)">
      <defs>
       <path id="DejaVuSans-65" d="M 3597 1894 
L 3597 1613 
L 953 1613 
Q 991 1019 1311 708 
Q 1631 397 2203 397 
Q 2534 397 2845 478 
Q 3156 559 3463 722 
L 3463 178 
Q 3153 47 2828 -22 
Q 2503 -91 2169 -91 
Q 1331 -91 842 396 
Q 353 884 353 1716 
Q 353 2575 817 3079 
Q 1281 3584 2069 3584 
Q 2775 3584 3186 3129 
Q 3597 2675 3597 1894 
z
M 3022 2063 
Q 3016 2534 2758 2815 
Q 2500 3097 2075 3097 
Q 1594 3097 1305 2825 
Q 1016 2553 972 2059 
L 3022 2063 
z
" transform="scale(0.015625)"/>
      </defs>
      <use xlink:href="#DejaVuSans-31"/>
      <use xlink:href="#DejaVuSans-65" transform="translate(63.623047 0)"/>
      <use xlink:href="#DejaVuSans-35" transform="translate(125.146484 0)"/>
     </g>
    </g>
   </g>
   <g id="matplotlib.axis_2">
    <g id="ytick_1">
     <g id="line2d_5">
      <defs>
       <path id="m9d16001a04" d="M 0 0 
L -3.5 0 
" style="stroke: #000000; stroke-width: 0.8"/>
      </defs>
      <g>
       <use xlink:href="#m9d16001a04" x="58.72149" y="246.90101" style="stroke: #000000; stroke-width: 0.8"/>
      </g>
     </g>
     <g id="text_7">
      <!-- 0.00 -->
      <g transform="translate(20.549615 252.219916) scale(0.14 -0.14)">
       <defs>
        <path id="DejaVuSans-30" d="M 2034 4250 
Q 1547 4250 1301 3770 
Q 1056 3291 1056 2328 
Q 1056 1369 1301 889 
Q 1547 409 2034 409 
Q 2525 409 2770 889 
Q 3016 1369 3016 2328 
Q 3016 3291 2770 3770 
Q 2525 4250 2034 4250 
z
M 2034 4750 
Q 2819 4750 3233 4129 
Q 3647 3509 3647 2328 
Q 3647 1150 3233 529 
Q 2819 -91 2034 -91 
Q 1250 -91 836 529 
Q 422 1150 422 2328 
Q 422 3509 836 4129 
Q 1250 4750 2034 4750 
z
" transform="scale(0.015625)"/>
       </defs>
       <use xlink:href="#DejaVuSans-30"/>
       <use xlink:href="#DejaVuSans-2e" transform="translate(63.623047 0)"/>
       <use xlink:href="#DejaVuSans-30" transform="translate(95.410156 0)"/>
       <use xlink:href="#DejaVuSans-30" transform="translate(159.033203 0)"/>
      </g>
     </g>
    </g>
    <g id="ytick_2">
     <g id="line2d_6">
      <g>
       <use xlink:href="#m9d16001a04" x="58.72149" y="218.11814" style="stroke: #000000; stroke-width: 0.8"/>
      </g>
     </g>
     <g id="text_8">
      <!-- 0.25 -->
      <g transform="translate(20.549615 223.437047) scale(0.14 -0.14)">
       <defs>
        <path id="DejaVuSans-32" d="M 1228 531 
L 3431 531 
L 3431 0 
L 469 0 
L 469 531 
Q 828 903 1448 1529 
Q 2069 2156 2228 2338 
Q 2531 2678 2651 2914 
Q 2772 3150 2772 3378 
Q 2772 3750 2511 3984 
Q 2250 4219 1831 4219 
Q 1534 4219 1204 4116 
Q 875 4013 500 3803 
L 500 4441 
Q 881 4594 1212 4672 
Q 1544 4750 1819 4750 
Q 2544 4750 2975 4387 
Q 3406 4025 3406 3419 
Q 3406 3131 3298 2873 
Q 3191 2616 2906 2266 
Q 2828 2175 2409 1742 
Q 1991 1309 1228 531 
z
" transform="scale(0.015625)"/>
       </defs>
       <use xlink:href="#DejaVuSans-30"/>
       <use xlink:href="#DejaVuSans-2e" transform="translate(63.623047 0)"/>
       <use xlink:href="#DejaVuSans-32" transform="translate(95.410156 0)"/>
       <use xlink:href="#DejaVuSans-35" transform="translate(159.033203 0)"/>
      </g>
     </g>
    </g>
    <g id="ytick_3">
     <g id="line2d_7">
      <g>
       <use xlink:href="#m9d16001a04" x="58.72149" y="189.335271" style="stroke: #000000; stroke-width: 0.8"/>
      </g>
     </g>
     <g id="text_9">
      <!-- 0.50 -->
      <g transform="translate(20.549615 194.654177) scale(0.14 -0.14)">
       <use xlink:href="#DejaVuSans-30"/>
       <use xlink:href="#DejaVuSans-2e" transform="translate(63.623047 0)"/>
       <use xlink:href="#DejaVuSans-35" transform="translate(95.410156 0)"/>
       <use xlink:href="#DejaVuSans-30" transform="translate(159.033203 0)"/>
      </g>
     </g>
    </g>
    <g id="ytick_4">
     <g id="line2d_8">
      <g>
       <use xlink:href="#m9d16001a04" x="58.72149" y="160.552401" style="stroke: #000000; stroke-width: 0.8"/>
      </g>
     </g>
     <g id="text_10">
      <!-- 0.75 -->
      <g transform="translate(20.549615 165.871307) scale(0.14 -0.14)">
       <use xlink:href="#DejaVuSans-30"/>
       <use xlink:href="#DejaVuSans-2e" transform="translate(63.623047 0)"/>
       <use xlink:href="#DejaVuSans-37" transform="translate(95.410156 0)"/>
       <use xlink:href="#DejaVuSans-35" transform="translate(159.033203 0)"/>
      </g>
     </g>
    </g>
    <g id="ytick_5">
     <g id="line2d_9">
      <g>
       <use xlink:href="#m9d16001a04" x="58.72149" y="131.769531" style="stroke: #000000; stroke-width: 0.8"/>
      </g>
     </g>
     <g id="text_11">
      <!-- 1.00 -->
      <g transform="translate(20.549615 137.088437) scale(0.14 -0.14)">
       <use xlink:href="#DejaVuSans-31"/>
       <use xlink:href="#DejaVuSans-2e" transform="translate(63.623047 0)"/>
       <use xlink:href="#DejaVuSans-30" transform="translate(95.410156 0)"/>
       <use xlink:href="#DejaVuSans-30" transform="translate(159.033203 0)"/>
      </g>
     </g>
    </g>
    <g id="ytick_6">
     <g id="line2d_10">
      <g>
       <use xlink:href="#m9d16001a04" x="58.72149" y="102.986662" style="stroke: #000000; stroke-width: 0.8"/>
      </g>
     </g>
     <g id="text_12">
      <!-- 1.25 -->
      <g transform="translate(20.549615 108.305568) scale(0.14 -0.14)">
       <use xlink:href="#DejaVuSans-31"/>
       <use xlink:href="#DejaVuSans-2e" transform="translate(63.623047 0)"/>
       <use xlink:href="#DejaVuSans-32" transform="translate(95.410156 0)"/>
       <use xlink:href="#DejaVuSans-35" transform="translate(159.033203 0)"/>
      </g>
     </g>
    </g>
    <g id="ytick_7">
     <g id="line2d_11">
      <g>
       <use xlink:href="#m9d16001a04" x="58.72149" y="74.203792" style="stroke: #000000; stroke-width: 0.8"/>
      </g>
     </g>
     <g id="text_13">
      <!-- 1.50 -->
      <g transform="translate(20.549615 79.522698) scale(0.14 -0.14)">
       <use xlink:href="#DejaVuSans-31"/>
       <use xlink:href="#DejaVuSans-2e" transform="translate(63.623047 0)"/>
       <use xlink:href="#DejaVuSans-35" transform="translate(95.410156 0)"/>
       <use xlink:href="#DejaVuSans-30" transform="translate(159.033203 0)"/>
      </g>
     </g>
    </g>
    <g id="ytick_8">
     <g id="line2d_12">
      <g>
       <use xlink:href="#m9d16001a04" x="58.72149" y="45.420922" style="stroke: #000000; stroke-width: 0.8"/>
      </g>
     </g>
     <g id="text_14">
      <!-- 1.75 -->
      <g transform="translate(20.549615 50.739828) scale(0.14 -0.14)">
       <use xlink:href="#DejaVuSans-31"/>
       <use xlink:href="#DejaVuSans-2e" transform="translate(63.623047 0)"/>
       <use xlink:href="#DejaVuSans-37" transform="translate(95.410156 0)"/>
       <use xlink:href="#DejaVuSans-35" transform="translate(159.033203 0)"/>
      </g>
     </g>
    </g>
    <g id="ytick_9">
     <g id="line2d_13">
      <g>
       <use xlink:href="#m9d16001a04" x="58.72149" y="16.638052" style="stroke: #000000; stroke-width: 0.8"/>
      </g>
     </g>
     <g id="text_15">
      <!-- 2.00 -->
      <g transform="translate(20.549615 21.956959) scale(0.14 -0.14)">
       <use xlink:href="#DejaVuSans-32"/>
       <use xlink:href="#DejaVuSans-2e" transform="translate(63.623047 0)"/>
       <use xlink:href="#DejaVuSans-30" transform="translate(95.410156 0)"/>
       <use xlink:href="#DejaVuSans-30" transform="translate(159.033203 0)"/>
      </g>
     </g>
    </g>
    <g id="text_16">
     <!-- PDF -->
     <g transform="translate(13.638053 145.406406) rotate(-90) scale(0.14 -0.14)">
      <defs>
       <path id="DejaVuSans-44" d="M 1259 4147 
L 1259 519 
L 2022 519 
Q 2988 519 3436 956 
Q 3884 1394 3884 2338 
Q 3884 3275 3436 3711 
Q 2988 4147 2022 4147 
L 1259 4147 
z
M 628 4666 
L 1925 4666 
Q 3281 4666 3915 4102 
Q 4550 3538 4550 2338 
Q 4550 1131 3912 565 
Q 3275 0 1925 0 
L 628 0 
L 628 4666 
z
" transform="scale(0.015625)"/>
       <path id="DejaVuSans-46" d="M 628 4666 
L 3309 4666 
L 3309 4134 
L 1259 4134 
L 1259 2759 
L 3109 2759 
L 3109 2228 
L 1259 2228 
L 1259 0 
L 628 0 
L 628 4666 
z
" transform="scale(0.015625)"/>
      </defs>
      <use xlink:href="#DejaVuSans-50"/>
      <use xlink:href="#DejaVuSans-44" transform="translate(60.302734 0)"/>
      <use xlink:href="#DejaVuSans-46" transform="translate(137.304688 0)"/>
     </g>
    </g>
    <g id="text_17">
     <!-- 1e−4 -->
     <g transform="translate(58.72149 13.638052) scale(0.14 -0.14)">
      <defs>
       <path id="DejaVuSans-2212" d="M 678 2272 
L 4684 2272 
L 4684 1741 
L 678 1741 
L 678 2272 
z
" transform="scale(0.015625)"/>
      </defs>
      <use xlink:href="#DejaVuSans-31"/>
      <use xlink:href="#DejaVuSans-65" transform="translate(63.623047 0)"/>
      <use xlink:href="#DejaVuSans-2212" transform="translate(125.146484 0)"/>
      <use xlink:href="#DejaVuSans-34" transform="translate(208.935547 0)"/>
     </g>
    </g>
   </g>
   <g id="line2d_14">
    <path d="M 58.72149 246.90101 
L 63.498666 246.90101 
L 68.275843 246.90101 
L 73.053019 246.90101 
L 77.830196 246.90101 
L 82.607372 246.90101 
L 87.384549 246.90101 
L 92.161725 246.90101 
L 96.938901 246.90101 
L 101.716078 246.90101 
L 106.493254 246.90101 
L 111.270431 246.90101 
L 116.047607 246.90101 
L 120.824784 246.90101 
L 125.60196 246.90101 
L 130.379136 246.90101 
L 135.156313 246.90101 
L 139.933489 246.901009 
L 144.710666 246.901005 
L 149.487842 246.90097 
L 154.265019 246.900748 
L 159.042195 246.899485 
L 163.819371 246.893157 
L 168.596548 246.865191 
L 173.373724 246.756313 
L 178.150901 246.383312 
L 182.928077 245.260539 
L 187.705254 242.297013 
L 192.48243 235.457056 
L 197.259606 221.707325 
L 202.036783 197.778356 
L 206.813959 162.071595 
L 211.591136 117.157501 
L 216.368312 71.149391 
L 221.145489 36.04424 
L 225.922665 22.848255 
L 230.699841 36.04424 
L 235.477018 71.149391 
L 240.254194 117.157501 
L 245.031371 162.071595 
L 249.808547 197.778356 
L 254.585724 221.707325 
L 259.3629 235.457056 
L 264.140076 242.297013 
L 268.917253 245.260539 
L 273.694429 246.383312 
L 278.471606 246.756313 
L 283.248782 246.865191 
L 288.025959 246.893157 
L 292.803135 246.899485 
" clip-path="url(#p398317a9b1)" style="fill: none; stroke: #2ca02c; stroke-width: 1.5; stroke-linecap: square"/>
   </g>
   <g id="line2d_15">
    <path d="M 90.824116 246.90101 
L 90.824116 16.638052 
" clip-path="url(#p398317a9b1)" style="fill: none; stroke: #d62728; stroke-width: 1.5; stroke-linecap: square"/>
   </g>
   <g id="line2d_16">
    <path d="M 225.922665 246.90101 
L 225.922665 16.638052 
" clip-path="url(#p398317a9b1)" style="fill: none; stroke: #d62728; stroke-width: 1.5; stroke-linecap: square"/>
   </g>
   <g id="patch_33">
    <path d="M 58.72149 246.90101 
L 58.72149 16.638052 
" style="fill: none; stroke: #000000; stroke-width: 0.8; stroke-linejoin: miter; stroke-linecap: square"/>
   </g>
   <g id="patch_34">
    <path d="M 292.803135 246.90101 
L 292.803135 16.638052 
" style="fill: none; stroke: #000000; stroke-width: 0.8; stroke-linejoin: miter; stroke-linecap: square"/>
   </g>
   <g id="patch_35">
    <path d="M 58.72149 246.90101 
L 292.803135 246.90101 
" style="fill: none; stroke: #000000; stroke-width: 0.8; stroke-linejoin: miter; stroke-linecap: square"/>
   </g>
   <g id="patch_36">
    <path d="M 58.72149 16.638052 
L 292.803135 16.638052 
" style="fill: none; stroke: #000000; stroke-width: 0.8; stroke-linejoin: miter; stroke-linecap: square"/>
   </g>
   <g id="legend_1">
    <g id="patch_37">
     <path d="M 176.340635 68.936802 
L 283.003135 68.936802 
Q 285.803135 68.936802 285.803135 66.136802 
L 285.803135 26.438053 
Q 285.803135 23.638053 283.003135 23.638053 
L 176.340635 23.638053 
Q 173.540635 23.638053 173.540635 26.438053 
L 173.540635 66.136802 
Q 173.540635 68.936802 176.340635 68.936802 
z
" style="fill: #ffffff; opacity: 0.8; stroke: #cccccc; stroke-linejoin: miter"/>
    </g>
    <g id="line2d_17">
     <path d="M 179.140635 34.975865 
L 193.140635 34.975865 
L 207.140635 34.975865 
" style="fill: none; stroke: #2ca02c; stroke-width: 1.5; stroke-linecap: square"/>
    </g>
    <g id="text_18">
     <!-- Prior -->
     <g transform="translate(218.340635 39.875865) scale(0.14 -0.14)">
      <defs>
       <path id="DejaVuSans-72" d="M 2631 2963 
Q 2534 3019 2420 3045 
Q 2306 3072 2169 3072 
Q 1681 3072 1420 2755 
Q 1159 2438 1159 1844 
L 1159 0 
L 581 0 
L 581 3500 
L 1159 3500 
L 1159 2956 
Q 1341 3275 1631 3429 
Q 1922 3584 2338 3584 
Q 2397 3584 2469 3576 
Q 2541 3569 2628 3553 
L 2631 2963 
z
" transform="scale(0.015625)"/>
       <path id="DejaVuSans-69" d="M 603 3500 
L 1178 3500 
L 1178 0 
L 603 0 
L 603 3500 
z
M 603 4863 
L 1178 4863 
L 1178 4134 
L 603 4134 
L 603 4863 
z
" transform="scale(0.015625)"/>
       <path id="DejaVuSans-6f" d="M 1959 3097 
Q 1497 3097 1228 2736 
Q 959 2375 959 1747 
Q 959 1119 1226 758 
Q 1494 397 1959 397 
Q 2419 397 2687 759 
Q 2956 1122 2956 1747 
Q 2956 2369 2687 2733 
Q 2419 3097 1959 3097 
z
M 1959 3584 
Q 2709 3584 3137 3096 
Q 3566 2609 3566 1747 
Q 3566 888 3137 398 
Q 2709 -91 1959 -91 
Q 1206 -91 779 398 
Q 353 888 353 1747 
Q 353 2609 779 3096 
Q 1206 3584 1959 3584 
z
" transform="scale(0.015625)"/>
      </defs>
      <use xlink:href="#DejaVuSans-50"/>
      <use xlink:href="#DejaVuSans-72" transform="translate(58.552734 0)"/>
      <use xlink:href="#DejaVuSans-69" transform="translate(99.666016 0)"/>
      <use xlink:href="#DejaVuSans-6f" transform="translate(127.449219 0)"/>
      <use xlink:href="#DejaVuSans-72" transform="translate(188.630859 0)"/>
     </g>
    </g>
    <g id="patch_38">
     <path d="M 179.140635 60.42524 
L 207.140635 60.42524 
L 207.140635 50.62524 
L 179.140635 50.62524 
z
" style="fill: #1f77b4"/>
    </g>
    <g id="text_19">
     <!-- Posterior -->
     <g transform="translate(218.340635 60.42524) scale(0.14 -0.14)">
      <defs>
       <path id="DejaVuSans-73" d="M 2834 3397 
L 2834 2853 
Q 2591 2978 2328 3040 
Q 2066 3103 1784 3103 
Q 1356 3103 1142 2972 
Q 928 2841 928 2578 
Q 928 2378 1081 2264 
Q 1234 2150 1697 2047 
L 1894 2003 
Q 2506 1872 2764 1633 
Q 3022 1394 3022 966 
Q 3022 478 2636 193 
Q 2250 -91 1575 -91 
Q 1294 -91 989 -36 
Q 684 19 347 128 
L 347 722 
Q 666 556 975 473 
Q 1284 391 1588 391 
Q 1994 391 2212 530 
Q 2431 669 2431 922 
Q 2431 1156 2273 1281 
Q 2116 1406 1581 1522 
L 1381 1569 
Q 847 1681 609 1914 
Q 372 2147 372 2553 
Q 372 3047 722 3315 
Q 1072 3584 1716 3584 
Q 2034 3584 2315 3537 
Q 2597 3491 2834 3397 
z
" transform="scale(0.015625)"/>
       <path id="DejaVuSans-74" d="M 1172 4494 
L 1172 3500 
L 2356 3500 
L 2356 3053 
L 1172 3053 
L 1172 1153 
Q 1172 725 1289 603 
Q 1406 481 1766 481 
L 2356 481 
L 2356 0 
L 1766 0 
Q 1100 0 847 248 
Q 594 497 594 1153 
L 594 3053 
L 172 3053 
L 172 3500 
L 594 3500 
L 594 4494 
L 1172 4494 
z
" transform="scale(0.015625)"/>
      </defs>
      <use xlink:href="#DejaVuSans-50"/>
      <use xlink:href="#DejaVuSans-6f" transform="translate(56.677734 0)"/>
      <use xlink:href="#DejaVuSans-73" transform="translate(117.859375 0)"/>
      <use xlink:href="#DejaVuSans-74" transform="translate(169.958984 0)"/>
      <use xlink:href="#DejaVuSans-65" transform="translate(209.167969 0)"/>
      <use xlink:href="#DejaVuSans-72" transform="translate(270.691406 0)"/>
      <use xlink:href="#DejaVuSans-69" transform="translate(311.804688 0)"/>
      <use xlink:href="#DejaVuSans-6f" transform="translate(339.587891 0)"/>
      <use xlink:href="#DejaVuSans-72" transform="translate(400.769531 0)"/>
     </g>
    </g>
   </g>
  </g>
  <g id="axes_2">
   <g id="patch_39">
    <path d="M 354.79049 246.90101 
L 588.872135 246.90101 
L 588.872135 16.638052 
L 354.79049 16.638052 
z
" style="fill: #ffffff"/>
   </g>
   <g id="patch_40">
    <path d="M 502.38955 246.90101 
L 504.348701 246.90101 
L 504.348701 244.961718 
L 502.38955 244.961718 
z
" clip-path="url(#pced372ffd1)" style="fill: #1f77b4"/>
   </g>
   <g id="patch_41">
    <path d="M 504.566385 246.90101 
L 506.525536 246.90101 
L 506.525536 243.022426 
L 504.566385 243.022426 
z
" clip-path="url(#pced372ffd1)" style="fill: #1f77b4"/>
   </g>
   <g id="patch_42">
    <path d="M 506.743219 246.90101 
L 508.70237 246.90101 
L 508.70237 243.022426 
L 506.743219 243.022426 
z
" clip-path="url(#pced372ffd1)" style="fill: #1f77b4"/>
   </g>
   <g id="patch_43">
    <path d="M 508.920053 246.90101 
L 510.879204 246.90101 
L 510.879204 219.750923 
L 508.920053 219.750923 
z
" clip-path="url(#pced372ffd1)" style="fill: #1f77b4"/>
   </g>
   <g id="patch_44">
    <path d="M 511.096888 246.90101 
L 513.056039 246.90101 
L 513.056039 229.447383 
L 511.096888 229.447383 
z
" clip-path="url(#pced372ffd1)" style="fill: #1f77b4"/>
   </g>
   <g id="patch_45">
    <path d="M 513.273722 246.90101 
L 515.232873 246.90101 
L 515.232873 202.297295 
L 513.273722 202.297295 
z
" clip-path="url(#pced372ffd1)" style="fill: #1f77b4"/>
   </g>
   <g id="patch_46">
    <path d="M 515.450556 246.90101 
L 517.409707 246.90101 
L 517.409707 171.268624 
L 515.450556 171.268624 
z
" clip-path="url(#pced372ffd1)" style="fill: #1f77b4"/>
   </g>
   <g id="patch_47">
    <path d="M 517.627391 246.90101 
L 519.586541 246.90101 
L 519.586541 169.329332 
L 517.627391 169.329332 
z
" clip-path="url(#pced372ffd1)" style="fill: #1f77b4"/>
   </g>
   <g id="patch_48">
    <path d="M 519.804225 246.90101 
L 521.763376 246.90101 
L 521.763376 113.089866 
L 519.804225 113.089866 
z
" clip-path="url(#pced372ffd1)" style="fill: #1f77b4"/>
   </g>
   <g id="patch_49">
    <path d="M 521.981059 246.90101 
L 523.94021 246.90101 
L 523.94021 70.425443 
L 521.981059 70.425443 
z
" clip-path="url(#pced372ffd1)" style="fill: #1f77b4"/>
   </g>
   <g id="patch_50">
    <path d="M 524.157893 246.90101 
L 526.117044 246.90101 
L 526.117044 -5.206943 
L 524.157893 -5.206943 
z
" clip-path="url(#pced372ffd1)" style="fill: #1f77b4"/>
   </g>
   <g id="patch_51">
    <path d="M 526.334728 246.90101 
L 528.293879 246.90101 
L 528.293879 -36.235614 
L 526.334728 -36.235614 
z
" clip-path="url(#pced372ffd1)" style="fill: #1f77b4"/>
   </g>
   <g id="patch_52">
    <path d="M 528.511562 246.90101 
L 530.470713 246.90101 
L 530.470713 -61.446409 
L 528.511562 -61.446409 
z
" clip-path="url(#pced372ffd1)" style="fill: #1f77b4"/>
   </g>
   <g id="patch_53">
    <path d="M 530.688396 246.90101 
L 532.647547 246.90101 
L 532.647547 -100.232248 
L 530.688396 -100.232248 
z
" clip-path="url(#pced372ffd1)" style="fill: #1f77b4"/>
   </g>
   <g id="patch_54">
    <path d="M 532.865231 246.90101 
L 534.824382 246.90101 
L 534.824382 -113.807291 
L 532.865231 -113.807291 
z
" clip-path="url(#pced372ffd1)" style="fill: #1f77b4"/>
   </g>
   <g id="patch_55">
    <path d="M 535.042065 246.90101 
L 537.001216 246.90101 
L 537.001216 -84.717912 
L 535.042065 -84.717912 
z
" clip-path="url(#pced372ffd1)" style="fill: #1f77b4"/>
   </g>
   <g id="patch_56">
    <path d="M 537.218899 246.90101 
L 539.17805 246.90101 
L 539.17805 -156.471714 
L 537.218899 -156.471714 
z
" clip-path="url(#pced372ffd1)" style="fill: #1f77b4"/>
   </g>
   <g id="patch_57">
    <path d="M 539.395734 246.90101 
L 541.354884 246.90101 
L 541.354884 -40.114197 
L 539.395734 -40.114197 
z
" clip-path="url(#pced372ffd1)" style="fill: #1f77b4"/>
   </g>
   <g id="patch_58">
    <path d="M 541.572568 246.90101 
L 543.531719 246.90101 
L 543.531719 -3.267651 
L 541.572568 -3.267651 
z
" clip-path="url(#pced372ffd1)" style="fill: #1f77b4"/>
   </g>
   <g id="patch_59">
    <path d="M 543.749402 246.90101 
L 545.708553 246.90101 
L 545.708553 16.125269 
L 543.749402 16.125269 
z
" clip-path="url(#pced372ffd1)" style="fill: #1f77b4"/>
   </g>
   <g id="patch_60">
    <path d="M 545.926236 246.90101 
L 547.885387 246.90101 
L 547.885387 70.425443 
L 545.926236 70.425443 
z
" clip-path="url(#pced372ffd1)" style="fill: #1f77b4"/>
   </g>
   <g id="patch_61">
    <path d="M 548.103071 246.90101 
L 550.062222 246.90101 
L 550.062222 122.786326 
L 548.103071 122.786326 
z
" clip-path="url(#pced372ffd1)" style="fill: #1f77b4"/>
   </g>
   <g id="patch_62">
    <path d="M 550.279905 246.90101 
L 552.239056 246.90101 
L 552.239056 163.511456 
L 550.279905 163.511456 
z
" clip-path="url(#pced372ffd1)" style="fill: #1f77b4"/>
   </g>
   <g id="patch_63">
    <path d="M 552.456739 246.90101 
L 554.41589 246.90101 
L 554.41589 194.540128 
L 552.456739 194.540128 
z
" clip-path="url(#pced372ffd1)" style="fill: #1f77b4"/>
   </g>
   <g id="patch_64">
    <path d="M 554.633574 246.90101 
L 556.592725 246.90101 
L 556.592725 210.054463 
L 554.633574 210.054463 
z
" clip-path="url(#pced372ffd1)" style="fill: #1f77b4"/>
   </g>
   <g id="patch_65">
    <path d="M 556.810408 246.90101 
L 558.769559 246.90101 
L 558.769559 225.568799 
L 556.810408 225.568799 
z
" clip-path="url(#pced372ffd1)" style="fill: #1f77b4"/>
   </g>
   <g id="patch_66">
    <path d="M 558.987242 246.90101 
L 560.946393 246.90101 
L 560.946393 235.265258 
L 558.987242 235.265258 
z
" clip-path="url(#pced372ffd1)" style="fill: #1f77b4"/>
   </g>
   <g id="patch_67">
    <path d="M 561.164077 246.90101 
L 563.123227 246.90101 
L 563.123227 244.961718 
L 561.164077 244.961718 
z
" clip-path="url(#pced372ffd1)" style="fill: #1f77b4"/>
   </g>
   <g id="patch_68">
    <path d="M 563.340911 246.90101 
L 565.300062 246.90101 
L 565.300062 246.90101 
L 563.340911 246.90101 
z
" clip-path="url(#pced372ffd1)" style="fill: #1f77b4"/>
   </g>
   <g id="patch_69">
    <path d="M 565.517745 246.90101 
L 567.476896 246.90101 
L 567.476896 244.961718 
L 565.517745 244.961718 
z
" clip-path="url(#pced372ffd1)" style="fill: #1f77b4"/>
   </g>
   <g id="matplotlib.axis_3">
    <g id="xtick_5">
     <g id="line2d_18">
      <g>
       <use xlink:href="#mbb57fd1286" x="393.804098" y="246.90101" style="stroke: #000000; stroke-width: 0.8"/>
      </g>
     </g>
     <g id="text_20">
      <!-- 0.8 -->
      <g transform="translate(382.67191 264.538822) scale(0.14 -0.14)">
       <defs>
        <path id="DejaVuSans-38" d="M 2034 2216 
Q 1584 2216 1326 1975 
Q 1069 1734 1069 1313 
Q 1069 891 1326 650 
Q 1584 409 2034 409 
Q 2484 409 2743 651 
Q 3003 894 3003 1313 
Q 3003 1734 2745 1975 
Q 2488 2216 2034 2216 
z
M 1403 2484 
Q 997 2584 770 2862 
Q 544 3141 544 3541 
Q 544 4100 942 4425 
Q 1341 4750 2034 4750 
Q 2731 4750 3128 4425 
Q 3525 4100 3525 3541 
Q 3525 3141 3298 2862 
Q 3072 2584 2669 2484 
Q 3125 2378 3379 2068 
Q 3634 1759 3634 1313 
Q 3634 634 3220 271 
Q 2806 -91 2034 -91 
Q 1263 -91 848 271 
Q 434 634 434 1313 
Q 434 1759 690 2068 
Q 947 2378 1403 2484 
z
M 1172 3481 
Q 1172 3119 1398 2916 
Q 1625 2713 2034 2713 
Q 2441 2713 2670 2916 
Q 2900 3119 2900 3481 
Q 2900 3844 2670 4047 
Q 2441 4250 2034 4250 
Q 1625 4250 1398 4047 
Q 1172 3844 1172 3481 
z
" transform="scale(0.015625)"/>
       </defs>
       <use xlink:href="#DejaVuSans-30"/>
       <use xlink:href="#DejaVuSans-2e" transform="translate(63.623047 0)"/>
       <use xlink:href="#DejaVuSans-38" transform="translate(95.410156 0)"/>
      </g>
     </g>
    </g>
    <g id="xtick_6">
     <g id="line2d_19">
      <g>
       <use xlink:href="#mbb57fd1286" x="471.831312" y="246.90101" style="stroke: #000000; stroke-width: 0.8"/>
      </g>
     </g>
     <g id="text_21">
      <!-- 1.0 -->
      <g transform="translate(460.699125 264.538822) scale(0.14 -0.14)">
       <use xlink:href="#DejaVuSans-31"/>
       <use xlink:href="#DejaVuSans-2e" transform="translate(63.623047 0)"/>
       <use xlink:href="#DejaVuSans-30" transform="translate(95.410156 0)"/>
      </g>
     </g>
    </g>
    <g id="xtick_7">
     <g id="line2d_20">
      <g>
       <use xlink:href="#mbb57fd1286" x="549.858527" y="246.90101" style="stroke: #000000; stroke-width: 0.8"/>
      </g>
     </g>
     <g id="text_22">
      <!-- 1.2 -->
      <g transform="translate(538.72634 264.538822) scale(0.14 -0.14)">
       <use xlink:href="#DejaVuSans-31"/>
       <use xlink:href="#DejaVuSans-2e" transform="translate(63.623047 0)"/>
       <use xlink:href="#DejaVuSans-32" transform="translate(95.410156 0)"/>
      </g>
     </g>
    </g>
    <g id="text_23">
     <!-- $E_2$ [MPa] -->
     <g transform="translate(441.801312 282.088197) scale(0.14 -0.14)">
      <use xlink:href="#DejaVuSans-Oblique-45" transform="translate(0 0.015625)"/>
      <use xlink:href="#DejaVuSans-32" transform="translate(63.183594 -16.390625) scale(0.7)"/>
      <use xlink:href="#DejaVuSans-20" transform="translate(110.454102 0.015625)"/>
      <use xlink:href="#DejaVuSans-5b" transform="translate(142.241211 0.015625)"/>
      <use xlink:href="#DejaVuSans-4d" transform="translate(181.254883 0.015625)"/>
      <use xlink:href="#DejaVuSans-50" transform="translate(267.53418 0.015625)"/>
      <use xlink:href="#DejaVuSans-61" transform="translate(327.836914 0.015625)"/>
      <use xlink:href="#DejaVuSans-5d" transform="translate(389.116211 0.015625)"/>
     </g>
    </g>
    <g id="text_24">
     <!-- 1e4 -->
     <g transform="translate(562.44276 281.088197) scale(0.14 -0.14)">
      <use xlink:href="#DejaVuSans-31"/>
      <use xlink:href="#DejaVuSans-65" transform="translate(63.623047 0)"/>
      <use xlink:href="#DejaVuSans-34" transform="translate(125.146484 0)"/>
     </g>
    </g>
   </g>
   <g id="matplotlib.axis_4">
    <g id="ytick_10">
     <g id="line2d_21">
      <g>
       <use xlink:href="#m9d16001a04" x="354.79049" y="246.90101" style="stroke: #000000; stroke-width: 0.8"/>
      </g>
     </g>
     <g id="text_25">
      <!-- 0.0000 -->
      <g transform="translate(298.803615 252.219916) scale(0.14 -0.14)">
       <use xlink:href="#DejaVuSans-30"/>
       <use xlink:href="#DejaVuSans-2e" transform="translate(63.623047 0)"/>
       <use xlink:href="#DejaVuSans-30" transform="translate(95.410156 0)"/>
       <use xlink:href="#DejaVuSans-30" transform="translate(159.033203 0)"/>
       <use xlink:href="#DejaVuSans-30" transform="translate(222.65625 0)"/>
       <use xlink:href="#DejaVuSans-30" transform="translate(286.279297 0)"/>
      </g>
     </g>
    </g>
    <g id="ytick_11">
     <g id="line2d_22">
      <g>
       <use xlink:href="#m9d16001a04" x="354.79049" y="200.848418" style="stroke: #000000; stroke-width: 0.8"/>
      </g>
     </g>
     <g id="text_26">
      <!-- 0.0002 -->
      <g transform="translate(298.803615 206.167325) scale(0.14 -0.14)">
       <use xlink:href="#DejaVuSans-30"/>
       <use xlink:href="#DejaVuSans-2e" transform="translate(63.623047 0)"/>
       <use xlink:href="#DejaVuSans-30" transform="translate(95.410156 0)"/>
       <use xlink:href="#DejaVuSans-30" transform="translate(159.033203 0)"/>
       <use xlink:href="#DejaVuSans-30" transform="translate(222.65625 0)"/>
       <use xlink:href="#DejaVuSans-32" transform="translate(286.279297 0)"/>
      </g>
     </g>
    </g>
    <g id="ytick_12">
     <g id="line2d_23">
      <g>
       <use xlink:href="#m9d16001a04" x="354.79049" y="154.795827" style="stroke: #000000; stroke-width: 0.8"/>
      </g>
     </g>
     <g id="text_27">
      <!-- 0.0004 -->
      <g transform="translate(298.803615 160.114733) scale(0.14 -0.14)">
       <use xlink:href="#DejaVuSans-30"/>
       <use xlink:href="#DejaVuSans-2e" transform="translate(63.623047 0)"/>
       <use xlink:href="#DejaVuSans-30" transform="translate(95.410156 0)"/>
       <use xlink:href="#DejaVuSans-30" transform="translate(159.033203 0)"/>
       <use xlink:href="#DejaVuSans-30" transform="translate(222.65625 0)"/>
       <use xlink:href="#DejaVuSans-34" transform="translate(286.279297 0)"/>
      </g>
     </g>
    </g>
    <g id="ytick_13">
     <g id="line2d_24">
      <g>
       <use xlink:href="#m9d16001a04" x="354.79049" y="108.743235" style="stroke: #000000; stroke-width: 0.8"/>
      </g>
     </g>
     <g id="text_28">
      <!-- 0.0006 -->
      <g transform="translate(298.803615 114.062142) scale(0.14 -0.14)">
       <use xlink:href="#DejaVuSans-30"/>
       <use xlink:href="#DejaVuSans-2e" transform="translate(63.623047 0)"/>
       <use xlink:href="#DejaVuSans-30" transform="translate(95.410156 0)"/>
       <use xlink:href="#DejaVuSans-30" transform="translate(159.033203 0)"/>
       <use xlink:href="#DejaVuSans-30" transform="translate(222.65625 0)"/>
       <use xlink:href="#DejaVuSans-36" transform="translate(286.279297 0)"/>
      </g>
     </g>
    </g>
    <g id="ytick_14">
     <g id="line2d_25">
      <g>
       <use xlink:href="#m9d16001a04" x="354.79049" y="62.690644" style="stroke: #000000; stroke-width: 0.8"/>
      </g>
     </g>
     <g id="text_29">
      <!-- 0.0008 -->
      <g transform="translate(298.803615 68.00955) scale(0.14 -0.14)">
       <use xlink:href="#DejaVuSans-30"/>
       <use xlink:href="#DejaVuSans-2e" transform="translate(63.623047 0)"/>
       <use xlink:href="#DejaVuSans-30" transform="translate(95.410156 0)"/>
       <use xlink:href="#DejaVuSans-30" transform="translate(159.033203 0)"/>
       <use xlink:href="#DejaVuSans-30" transform="translate(222.65625 0)"/>
       <use xlink:href="#DejaVuSans-38" transform="translate(286.279297 0)"/>
      </g>
     </g>
    </g>
    <g id="ytick_15">
     <g id="line2d_26">
      <g>
       <use xlink:href="#m9d16001a04" x="354.79049" y="16.638052" style="stroke: #000000; stroke-width: 0.8"/>
      </g>
     </g>
     <g id="text_30">
      <!-- 0.0010 -->
      <g transform="translate(298.803615 21.956959) scale(0.14 -0.14)">
       <use xlink:href="#DejaVuSans-30"/>
       <use xlink:href="#DejaVuSans-2e" transform="translate(63.623047 0)"/>
       <use xlink:href="#DejaVuSans-30" transform="translate(95.410156 0)"/>
       <use xlink:href="#DejaVuSans-30" transform="translate(159.033203 0)"/>
       <use xlink:href="#DejaVuSans-31" transform="translate(222.65625 0)"/>
       <use xlink:href="#DejaVuSans-30" transform="translate(286.279297 0)"/>
      </g>
     </g>
    </g>
   </g>
   <g id="line2d_27">
    <path d="M 354.79049 246.90101 
L 359.567666 246.90101 
L 364.344843 246.90101 
L 369.122019 246.90101 
L 373.899196 246.90101 
L 378.676372 246.90101 
L 383.453549 246.90101 
L 388.230725 246.90101 
L 393.007901 246.90101 
L 397.785078 246.90101 
L 402.562254 246.90101 
L 407.339431 246.90101 
L 412.116607 246.90101 
L 416.893784 246.90101 
L 421.67096 246.90101 
L 426.448136 246.90101 
L 431.225313 246.90101 
L 436.002489 246.90101 
L 440.779666 246.90101 
L 445.556842 246.90101 
L 450.334019 246.90101 
L 455.111195 246.90101 
L 459.888371 246.90101 
L 464.665548 246.90101 
L 469.442724 246.901009 
L 474.219901 246.900986 
L 478.997077 246.900659 
L 483.774254 246.896908 
L 488.55143 246.863272 
L 493.328606 246.627911 
L 498.105783 245.346198 
L 502.882959 239.937176 
L 507.660136 222.36344 
L 512.437312 178.88245 
L 517.214489 98.568604 
L 521.695485 -1 
M 538.918714 -1 
L 541.100371 46.698221 
L 545.877547 143.397484 
L 550.654724 204.80384 
L 555.4319 233.43114 
L 560.209076 243.510331 
L 564.986253 246.229546 
L 569.763429 246.7964 
L 574.540606 246.888189 
L 579.317782 246.899774 
L 584.094959 246.900916 
L 588.872135 246.901004 
" clip-path="url(#pced372ffd1)" style="fill: none; stroke: #2ca02c; stroke-width: 1.5; stroke-linecap: square"/>
   </g>
   <g id="line2d_28">
    <path d="M 432.427569 246.90101 
L 432.427569 16.638052 
" clip-path="url(#pced372ffd1)" style="fill: none; stroke: #d62728; stroke-width: 1.5; stroke-linecap: square"/>
   </g>
   <g id="line2d_29">
    <path d="M 533.472812 246.90101 
L 533.472812 16.638052 
" clip-path="url(#pced372ffd1)" style="fill: none; stroke: #d62728; stroke-width: 1.5; stroke-linecap: square"/>
   </g>
   <g id="patch_70">
    <path d="M 354.79049 246.90101 
L 354.79049 16.638052 
" style="fill: none; stroke: #000000; stroke-width: 0.8; stroke-linejoin: miter; stroke-linecap: square"/>
   </g>
   <g id="patch_71">
    <path d="M 588.872135 246.90101 
L 588.872135 16.638052 
" style="fill: none; stroke: #000000; stroke-width: 0.8; stroke-linejoin: miter; stroke-linecap: square"/>
   </g>
   <g id="patch_72">
    <path d="M 354.79049 246.90101 
L 588.872135 246.90101 
" style="fill: none; stroke: #000000; stroke-width: 0.8; stroke-linejoin: miter; stroke-linecap: square"/>
   </g>
   <g id="patch_73">
    <path d="M 354.79049 16.638052 
L 588.872135 16.638052 
" style="fill: none; stroke: #000000; stroke-width: 0.8; stroke-linejoin: miter; stroke-linecap: square"/>
   </g>
  </g>
  <g id="axes_3">
   <g id="patch_74">
    <path d="M 619.687615 246.90101 
L 853.76926 246.90101 
L 853.76926 16.638052 
L 619.687615 16.638052 
z
" style="fill: #ffffff"/>
   </g>
   <g id="patch_75">
    <path d="M 763.062988 246.90101 
L 764.949535 246.90101 
L 764.949535 245.118099 
L 763.062988 245.118099 
z
" clip-path="url(#pb2fdafabb0)" style="fill: #1f77b4"/>
   </g>
   <g id="patch_76">
    <path d="M 765.159152 246.90101 
L 767.0457 246.90101 
L 767.0457 246.90101 
L 765.159152 246.90101 
z
" clip-path="url(#pb2fdafabb0)" style="fill: #1f77b4"/>
   </g>
   <g id="patch_77">
    <path d="M 767.255316 246.90101 
L 769.141864 246.90101 
L 769.141864 246.009554 
L 767.255316 246.009554 
z
" clip-path="url(#pb2fdafabb0)" style="fill: #1f77b4"/>
   </g>
   <g id="patch_78">
    <path d="M 769.35148 246.90101 
L 771.238028 246.90101 
L 771.238028 240.660821 
L 769.35148 240.660821 
z
" clip-path="url(#pb2fdafabb0)" style="fill: #1f77b4"/>
   </g>
   <g id="patch_79">
    <path d="M 771.447644 246.90101 
L 773.334192 246.90101 
L 773.334192 237.986455 
L 771.447644 237.986455 
z
" clip-path="url(#pb2fdafabb0)" style="fill: #1f77b4"/>
   </g>
   <g id="patch_80">
    <path d="M 773.543808 246.90101 
L 775.430356 246.90101 
L 775.430356 231.746266 
L 773.543808 231.746266 
z
" clip-path="url(#pb2fdafabb0)" style="fill: #1f77b4"/>
   </g>
   <g id="patch_81">
    <path d="M 775.639972 246.90101 
L 777.52652 246.90101 
L 777.52652 210.351334 
L 775.639972 210.351334 
z
" clip-path="url(#pb2fdafabb0)" style="fill: #1f77b4"/>
   </g>
   <g id="patch_82">
    <path d="M 777.736136 246.90101 
L 779.622684 246.90101 
L 779.622684 194.305135 
L 777.736136 194.305135 
z
" clip-path="url(#pb2fdafabb0)" style="fill: #1f77b4"/>
   </g>
   <g id="patch_83">
    <path d="M 779.832301 246.90101 
L 781.718848 246.90101 
L 781.718848 173.801658 
L 779.832301 173.801658 
z
" clip-path="url(#pb2fdafabb0)" style="fill: #1f77b4"/>
   </g>
   <g id="patch_84">
    <path d="M 781.928465 246.90101 
L 783.815012 246.90101 
L 783.815012 139.926349 
L 781.928465 139.926349 
z
" clip-path="url(#pb2fdafabb0)" style="fill: #1f77b4"/>
   </g>
   <g id="patch_85">
    <path d="M 784.024629 246.90101 
L 785.911176 246.90101 
L 785.911176 109.616862 
L 784.024629 109.616862 
z
" clip-path="url(#pb2fdafabb0)" style="fill: #1f77b4"/>
   </g>
   <g id="patch_86">
    <path d="M 786.120793 246.90101 
L 788.00734 246.90101 
L 788.00734 98.919396 
L 786.120793 98.919396 
z
" clip-path="url(#pb2fdafabb0)" style="fill: #1f77b4"/>
   </g>
   <g id="patch_87">
    <path d="M 788.216957 246.90101 
L 790.103505 246.90101 
L 790.103505 52.563709 
L 788.216957 52.563709 
z
" clip-path="url(#pb2fdafabb0)" style="fill: #1f77b4"/>
   </g>
   <g id="patch_88">
    <path d="M 790.313121 246.90101 
L 792.199669 246.90101 
L 792.199669 27.602955 
L 790.313121 27.602955 
z
" clip-path="url(#pb2fdafabb0)" style="fill: #1f77b4"/>
   </g>
   <g id="patch_89">
    <path d="M 792.409285 246.90101 
L 794.295833 246.90101 
L 794.295833 53.455165 
L 792.409285 53.455165 
z
" clip-path="url(#pb2fdafabb0)" style="fill: #1f77b4"/>
   </g>
   <g id="patch_90">
    <path d="M 794.505449 246.90101 
L 796.391997 246.90101 
L 796.391997 63.261176 
L 794.505449 63.261176 
z
" clip-path="url(#pb2fdafabb0)" style="fill: #1f77b4"/>
   </g>
   <g id="patch_91">
    <path d="M 796.601613 246.90101 
L 798.488161 246.90101 
L 798.488161 104.268129 
L 796.601613 104.268129 
z
" clip-path="url(#pb2fdafabb0)" style="fill: #1f77b4"/>
   </g>
   <g id="patch_92">
    <path d="M 798.697777 246.90101 
L 800.584325 246.90101 
L 800.584325 105.159584 
L 798.697777 105.159584 
z
" clip-path="url(#pb2fdafabb0)" style="fill: #1f77b4"/>
   </g>
   <g id="patch_93">
    <path d="M 800.793941 246.90101 
L 802.680489 246.90101 
L 802.680489 143.492171 
L 800.793941 143.492171 
z
" clip-path="url(#pb2fdafabb0)" style="fill: #1f77b4"/>
   </g>
   <g id="patch_94">
    <path d="M 802.890106 246.90101 
L 804.776653 246.90101 
L 804.776653 199.653868 
L 802.890106 199.653868 
z
" clip-path="url(#pb2fdafabb0)" style="fill: #1f77b4"/>
   </g>
   <g id="patch_95">
    <path d="M 804.98627 246.90101 
L 806.872817 246.90101 
L 806.872817 207.676968 
L 804.98627 207.676968 
z
" clip-path="url(#pb2fdafabb0)" style="fill: #1f77b4"/>
   </g>
   <g id="patch_96">
    <path d="M 807.082434 246.90101 
L 808.968981 246.90101 
L 808.968981 228.180444 
L 807.082434 228.180444 
z
" clip-path="url(#pb2fdafabb0)" style="fill: #1f77b4"/>
   </g>
   <g id="patch_97">
    <path d="M 809.178598 246.90101 
L 811.065146 246.90101 
L 811.065146 232.637722 
L 809.178598 232.637722 
z
" clip-path="url(#pb2fdafabb0)" style="fill: #1f77b4"/>
   </g>
   <g id="patch_98">
    <path d="M 811.274762 246.90101 
L 813.16131 246.90101 
L 813.16131 240.660821 
L 811.274762 240.660821 
z
" clip-path="url(#pb2fdafabb0)" style="fill: #1f77b4"/>
   </g>
   <g id="patch_99">
    <path d="M 813.370926 246.90101 
L 815.257474 246.90101 
L 815.257474 244.226643 
L 813.370926 244.226643 
z
" clip-path="url(#pb2fdafabb0)" style="fill: #1f77b4"/>
   </g>
   <g id="patch_100">
    <path d="M 815.46709 246.90101 
L 817.353638 246.90101 
L 817.353638 246.009554 
L 815.46709 246.009554 
z
" clip-path="url(#pb2fdafabb0)" style="fill: #1f77b4"/>
   </g>
   <g id="patch_101">
    <path d="M 817.563254 246.90101 
L 819.449802 246.90101 
L 819.449802 246.009554 
L 817.563254 246.009554 
z
" clip-path="url(#pb2fdafabb0)" style="fill: #1f77b4"/>
   </g>
   <g id="patch_102">
    <path d="M 819.659418 246.90101 
L 821.545966 246.90101 
L 821.545966 246.90101 
L 819.659418 246.90101 
z
" clip-path="url(#pb2fdafabb0)" style="fill: #1f77b4"/>
   </g>
   <g id="patch_103">
    <path d="M 821.755582 246.90101 
L 823.64213 246.90101 
L 823.64213 246.90101 
L 821.755582 246.90101 
z
" clip-path="url(#pb2fdafabb0)" style="fill: #1f77b4"/>
   </g>
   <g id="patch_104">
    <path d="M 823.851746 246.90101 
L 825.738294 246.90101 
L 825.738294 246.009554 
L 823.851746 246.009554 
z
" clip-path="url(#pb2fdafabb0)" style="fill: #1f77b4"/>
   </g>
   <g id="matplotlib.axis_5">
    <g id="xtick_8">
     <g id="line2d_30">
      <g>
       <use xlink:href="#mbb57fd1286" x="619.687615" y="246.90101" style="stroke: #000000; stroke-width: 0.8"/>
      </g>
     </g>
     <g id="text_31">
      <!-- 0.25 -->
      <g transform="translate(604.101677 264.538822) scale(0.14 -0.14)">
       <use xlink:href="#DejaVuSans-30"/>
       <use xlink:href="#DejaVuSans-2e" transform="translate(63.623047 0)"/>
       <use xlink:href="#DejaVuSans-32" transform="translate(95.410156 0)"/>
       <use xlink:href="#DejaVuSans-35" transform="translate(159.033203 0)"/>
      </g>
     </g>
    </g>
    <g id="xtick_9">
     <g id="line2d_31">
      <g>
       <use xlink:href="#mbb57fd1286" x="697.71483" y="246.90101" style="stroke: #000000; stroke-width: 0.8"/>
      </g>
     </g>
     <g id="text_32">
      <!-- 0.30 -->
      <g transform="translate(682.128892 264.538822) scale(0.14 -0.14)">
       <defs>
        <path id="DejaVuSans-33" d="M 2597 2516 
Q 3050 2419 3304 2112 
Q 3559 1806 3559 1356 
Q 3559 666 3084 287 
Q 2609 -91 1734 -91 
Q 1441 -91 1130 -33 
Q 819 25 488 141 
L 488 750 
Q 750 597 1062 519 
Q 1375 441 1716 441 
Q 2309 441 2620 675 
Q 2931 909 2931 1356 
Q 2931 1769 2642 2001 
Q 2353 2234 1838 2234 
L 1294 2234 
L 1294 2753 
L 1863 2753 
Q 2328 2753 2575 2939 
Q 2822 3125 2822 3475 
Q 2822 3834 2567 4026 
Q 2313 4219 1838 4219 
Q 1578 4219 1281 4162 
Q 984 4106 628 3988 
L 628 4550 
Q 988 4650 1302 4700 
Q 1616 4750 1894 4750 
Q 2613 4750 3031 4423 
Q 3450 4097 3450 3541 
Q 3450 3153 3228 2886 
Q 3006 2619 2597 2516 
z
" transform="scale(0.015625)"/>
       </defs>
       <use xlink:href="#DejaVuSans-30"/>
       <use xlink:href="#DejaVuSans-2e" transform="translate(63.623047 0)"/>
       <use xlink:href="#DejaVuSans-33" transform="translate(95.410156 0)"/>
       <use xlink:href="#DejaVuSans-30" transform="translate(159.033203 0)"/>
      </g>
     </g>
    </g>
    <g id="xtick_10">
     <g id="line2d_32">
      <g>
       <use xlink:href="#mbb57fd1286" x="775.742045" y="246.90101" style="stroke: #000000; stroke-width: 0.8"/>
      </g>
     </g>
     <g id="text_33">
      <!-- 0.35 -->
      <g transform="translate(760.156107 264.538822) scale(0.14 -0.14)">
       <use xlink:href="#DejaVuSans-30"/>
       <use xlink:href="#DejaVuSans-2e" transform="translate(63.623047 0)"/>
       <use xlink:href="#DejaVuSans-33" transform="translate(95.410156 0)"/>
       <use xlink:href="#DejaVuSans-35" transform="translate(159.033203 0)"/>
      </g>
     </g>
    </g>
    <g id="xtick_11">
     <g id="line2d_33">
      <g>
       <use xlink:href="#mbb57fd1286" x="853.76926" y="246.90101" style="stroke: #000000; stroke-width: 0.8"/>
      </g>
     </g>
     <g id="text_34">
      <!-- 0.40 -->
      <g transform="translate(838.183322 264.538822) scale(0.14 -0.14)">
       <use xlink:href="#DejaVuSans-30"/>
       <use xlink:href="#DejaVuSans-2e" transform="translate(63.623047 0)"/>
       <use xlink:href="#DejaVuSans-34" transform="translate(95.410156 0)"/>
       <use xlink:href="#DejaVuSans-30" transform="translate(159.033203 0)"/>
      </g>
     </g>
    </g>
    <g id="text_35">
     <!-- $\nu_{12}$ [-] -->
     <g transform="translate(716.148437 282.088197) scale(0.14 -0.14)">
      <defs>
       <path id="DejaVuSans-Oblique-3bd" d="M 959 0 
L 572 3500 
L 1191 3500 
L 1522 563 
Q 1972 950 2391 1488 
Q 2706 1891 2788 2241 
Q 2825 2406 2809 2719 
Q 2794 3091 2544 3500 
L 3125 3500 
L 3125 3500 
Q 3288 3222 3353 2834 
Q 3416 2478 3369 2234 
Q 3250 1622 2719 1075 
Q 2025 363 1572 0 
L 959 0 
z
" transform="scale(0.015625)"/>
       <path id="DejaVuSans-2d" d="M 313 2009 
L 1997 2009 
L 1997 1497 
L 313 1497 
L 313 2009 
z
" transform="scale(0.015625)"/>
      </defs>
      <use xlink:href="#DejaVuSans-Oblique-3bd" transform="translate(0 0.015625)"/>
      <use xlink:href="#DejaVuSans-31" transform="translate(55.859375 -16.390625) scale(0.7)"/>
      <use xlink:href="#DejaVuSans-32" transform="translate(100.395508 -16.390625) scale(0.7)"/>
      <use xlink:href="#DejaVuSans-20" transform="translate(147.666016 0.015625)"/>
      <use xlink:href="#DejaVuSans-5b" transform="translate(179.453125 0.015625)"/>
      <use xlink:href="#DejaVuSans-2d" transform="translate(218.466797 0.015625)"/>
      <use xlink:href="#DejaVuSans-5d" transform="translate(254.550781 0.015625)"/>
     </g>
    </g>
   </g>
   <g id="matplotlib.axis_6">
    <g id="ytick_16">
     <g id="line2d_34">
      <g>
       <use xlink:href="#m9d16001a04" x="619.687615" y="246.90101" style="stroke: #000000; stroke-width: 0.8"/>
      </g>
     </g>
     <g id="text_36">
      <!-- 0 -->
      <g transform="translate(603.780115 252.219916) scale(0.14 -0.14)">
       <use xlink:href="#DejaVuSans-30"/>
      </g>
     </g>
    </g>
    <g id="ytick_17">
     <g id="line2d_35">
      <g>
       <use xlink:href="#m9d16001a04" x="619.687615" y="195.93854" style="stroke: #000000; stroke-width: 0.8"/>
      </g>
     </g>
     <g id="text_37">
      <!-- 20 -->
      <g transform="translate(594.872615 201.257446) scale(0.14 -0.14)">
       <use xlink:href="#DejaVuSans-32"/>
       <use xlink:href="#DejaVuSans-30" transform="translate(63.623047 0)"/>
      </g>
     </g>
    </g>
    <g id="ytick_18">
     <g id="line2d_36">
      <g>
       <use xlink:href="#m9d16001a04" x="619.687615" y="144.97607" style="stroke: #000000; stroke-width: 0.8"/>
      </g>
     </g>
     <g id="text_38">
      <!-- 40 -->
      <g transform="translate(594.872615 150.294977) scale(0.14 -0.14)">
       <use xlink:href="#DejaVuSans-34"/>
       <use xlink:href="#DejaVuSans-30" transform="translate(63.623047 0)"/>
      </g>
     </g>
    </g>
    <g id="ytick_19">
     <g id="line2d_37">
      <g>
       <use xlink:href="#m9d16001a04" x="619.687615" y="94.0136" style="stroke: #000000; stroke-width: 0.8"/>
      </g>
     </g>
     <g id="text_39">
      <!-- 60 -->
      <g transform="translate(594.872615 99.332507) scale(0.14 -0.14)">
       <use xlink:href="#DejaVuSans-36"/>
       <use xlink:href="#DejaVuSans-30" transform="translate(63.623047 0)"/>
      </g>
     </g>
    </g>
    <g id="ytick_20">
     <g id="line2d_38">
      <g>
       <use xlink:href="#m9d16001a04" x="619.687615" y="43.051131" style="stroke: #000000; stroke-width: 0.8"/>
      </g>
     </g>
     <g id="text_40">
      <!-- 80 -->
      <g transform="translate(594.872615 48.370037) scale(0.14 -0.14)">
       <use xlink:href="#DejaVuSans-38"/>
       <use xlink:href="#DejaVuSans-30" transform="translate(63.623047 0)"/>
      </g>
     </g>
    </g>
   </g>
   <g id="line2d_39">
    <path d="M 619.687615 246.90101 
L 624.464791 246.90101 
L 629.241968 246.90101 
L 634.019144 246.90101 
L 638.796321 246.90101 
L 643.573497 246.90101 
L 648.350674 246.90101 
L 653.12785 246.90101 
L 657.905026 246.90101 
L 662.682203 246.90101 
L 667.459379 246.90101 
L 672.236556 246.90101 
L 677.013732 246.90101 
L 681.790909 246.90101 
L 686.568085 246.90101 
L 691.345261 246.90101 
L 696.122438 246.90101 
L 700.899614 246.90101 
L 705.676791 246.90101 
L 710.453967 246.90101 
L 715.231144 246.90101 
L 720.00832 246.90101 
L 724.785496 246.90101 
L 729.562673 246.90101 
L 734.339849 246.90101 
L 739.117026 246.90101 
L 743.894202 246.901008 
L 748.671379 246.900945 
L 753.448555 246.899478 
L 758.225731 246.876159 
L 763.002908 246.623902 
L 767.780084 244.777005 
L 772.557261 235.709999 
L 777.334437 206.369705 
L 782.111614 145.994485 
L 786.88879 74.215733 
L 791.665966 43.759455 
L 796.443143 82.634272 
L 801.220319 155.593207 
L 805.997496 212.013213 
L 810.774672 237.737822 
L 815.551849 245.246661 
L 820.329025 246.695698 
L 825.106201 246.883495 
L 829.883378 246.899983 
L 834.660554 246.900969 
L 839.437731 246.901009 
L 844.214907 246.90101 
L 848.992084 246.90101 
L 853.76926 246.90101 
" clip-path="url(#pb2fdafabb0)" style="fill: none; stroke: #2ca02c; stroke-width: 1.5; stroke-linecap: square"/>
   </g>
   <g id="line2d_40">
    <path d="M 697.71483 246.90101 
L 697.71483 16.638052 
" clip-path="url(#pb2fdafabb0)" style="fill: none; stroke: #d62728; stroke-width: 1.5; stroke-linecap: square"/>
   </g>
   <g id="line2d_41">
    <path d="M 791.347488 246.90101 
L 791.347488 16.638052 
" clip-path="url(#pb2fdafabb0)" style="fill: none; stroke: #d62728; stroke-width: 1.5; stroke-linecap: square"/>
   </g>
   <g id="patch_105">
    <path d="M 619.687615 246.90101 
L 619.687615 16.638052 
" style="fill: none; stroke: #000000; stroke-width: 0.8; stroke-linejoin: miter; stroke-linecap: square"/>
   </g>
   <g id="patch_106">
    <path d="M 853.76926 246.90101 
L 853.76926 16.638052 
" style="fill: none; stroke: #000000; stroke-width: 0.8; stroke-linejoin: miter; stroke-linecap: square"/>
   </g>
   <g id="patch_107">
    <path d="M 619.687615 246.90101 
L 853.76926 246.90101 
" style="fill: none; stroke: #000000; stroke-width: 0.8; stroke-linejoin: miter; stroke-linecap: square"/>
   </g>
   <g id="patch_108">
    <path d="M 619.687615 16.638052 
L 853.76926 16.638052 
" style="fill: none; stroke: #000000; stroke-width: 0.8; stroke-linejoin: miter; stroke-linecap: square"/>
   </g>
  </g>
  <g id="axes_4">
   <g id="patch_109">
    <path d="M 900.170677 246.90101 
L 1134.252323 246.90101 
L 1134.252323 16.638052 
L 900.170677 16.638052 
z
" style="fill: #ffffff"/>
   </g>
   <g id="patch_110">
    <path d="M 927.152282 246.90101 
L 930.418688 246.90101 
L 930.418688 245.782142 
L 927.152282 245.782142 
z
" clip-path="url(#p9aa03c19b5)" style="fill: #1f77b4"/>
   </g>
   <g id="patch_111">
    <path d="M 930.781622 246.90101 
L 934.048028 246.90101 
L 934.048028 246.90101 
L 930.781622 246.90101 
z
" clip-path="url(#p9aa03c19b5)" style="fill: #1f77b4"/>
   </g>
   <g id="patch_112">
    <path d="M 934.410962 246.90101 
L 937.677368 246.90101 
L 937.677368 246.90101 
L 934.410962 246.90101 
z
" clip-path="url(#p9aa03c19b5)" style="fill: #1f77b4"/>
   </g>
   <g id="patch_113">
    <path d="M 938.040302 246.90101 
L 941.306708 246.90101 
L 941.306708 243.544407 
L 938.040302 243.544407 
z
" clip-path="url(#p9aa03c19b5)" style="fill: #1f77b4"/>
   </g>
   <g id="patch_114">
    <path d="M 941.669642 246.90101 
L 944.936048 246.90101 
L 944.936048 243.544407 
L 941.669642 243.544407 
z
" clip-path="url(#p9aa03c19b5)" style="fill: #1f77b4"/>
   </g>
   <g id="patch_115">
    <path d="M 945.298982 246.90101 
L 948.565388 246.90101 
L 948.565388 237.950069 
L 945.298982 237.950069 
z
" clip-path="url(#p9aa03c19b5)" style="fill: #1f77b4"/>
   </g>
   <g id="patch_116">
    <path d="M 948.928322 246.90101 
L 952.194728 246.90101 
L 952.194728 234.593466 
L 948.928322 234.593466 
z
" clip-path="url(#p9aa03c19b5)" style="fill: #1f77b4"/>
   </g>
   <g id="patch_117">
    <path d="M 952.557662 246.90101 
L 955.824068 246.90101 
L 955.824068 213.334981 
L 952.557662 213.334981 
z
" clip-path="url(#p9aa03c19b5)" style="fill: #1f77b4"/>
   </g>
   <g id="patch_118">
    <path d="M 956.187002 246.90101 
L 959.453408 246.90101 
L 959.453408 203.265173 
L 956.187002 203.265173 
z
" clip-path="url(#p9aa03c19b5)" style="fill: #1f77b4"/>
   </g>
   <g id="patch_119">
    <path d="M 959.816342 246.90101 
L 963.082748 246.90101 
L 963.082748 196.551967 
L 959.816342 196.551967 
z
" clip-path="url(#p9aa03c19b5)" style="fill: #1f77b4"/>
   </g>
   <g id="patch_120">
    <path d="M 963.445682 246.90101 
L 966.712087 246.90101 
L 966.712087 178.650085 
L 963.445682 178.650085 
z
" clip-path="url(#p9aa03c19b5)" style="fill: #1f77b4"/>
   </g>
   <g id="patch_121">
    <path d="M 967.075021 246.90101 
L 970.341427 246.90101 
L 970.341427 149.559527 
L 967.075021 149.559527 
z
" clip-path="url(#p9aa03c19b5)" style="fill: #1f77b4"/>
   </g>
   <g id="patch_122">
    <path d="M 970.704361 246.90101 
L 973.970767 246.90101 
L 973.970767 108.161424 
L 970.704361 108.161424 
z
" clip-path="url(#p9aa03c19b5)" style="fill: #1f77b4"/>
   </g>
   <g id="patch_123">
    <path d="M 974.333701 246.90101 
L 977.600107 246.90101 
L 977.600107 75.714263 
L 974.333701 75.714263 
z
" clip-path="url(#p9aa03c19b5)" style="fill: #1f77b4"/>
   </g>
   <g id="patch_124">
    <path d="M 977.963041 246.90101 
L 981.229447 246.90101 
L 981.229447 62.287852 
L 977.963041 62.287852 
z
" clip-path="url(#p9aa03c19b5)" style="fill: #1f77b4"/>
   </g>
   <g id="patch_125">
    <path d="M 981.592381 246.90101 
L 984.858787 246.90101 
L 984.858787 62.287852 
L 981.592381 62.287852 
z
" clip-path="url(#p9aa03c19b5)" style="fill: #1f77b4"/>
   </g>
   <g id="patch_126">
    <path d="M 985.221721 246.90101 
L 988.488127 246.90101 
L 988.488127 51.099175 
L 985.221721 51.099175 
z
" clip-path="url(#p9aa03c19b5)" style="fill: #1f77b4"/>
   </g>
   <g id="patch_127">
    <path d="M 988.851061 246.90101 
L 992.117467 246.90101 
L 992.117467 56.693514 
L 988.851061 56.693514 
z
" clip-path="url(#p9aa03c19b5)" style="fill: #1f77b4"/>
   </g>
   <g id="patch_128">
    <path d="M 992.480401 246.90101 
L 995.746807 246.90101 
L 995.746807 27.602955 
L 992.480401 27.602955 
z
" clip-path="url(#p9aa03c19b5)" style="fill: #1f77b4"/>
   </g>
   <g id="patch_129">
    <path d="M 996.109741 246.90101 
L 999.376147 246.90101 
L 999.376147 69.001057 
L 996.109741 69.001057 
z
" clip-path="url(#p9aa03c19b5)" style="fill: #1f77b4"/>
   </g>
   <g id="patch_130">
    <path d="M 999.739081 246.90101 
L 1003.005487 246.90101 
L 1003.005487 99.210483 
L 999.739081 99.210483 
z
" clip-path="url(#p9aa03c19b5)" style="fill: #1f77b4"/>
   </g>
   <g id="patch_131">
    <path d="M 1003.368421 246.90101 
L 1006.634826 246.90101 
L 1006.634826 113.755762 
L 1003.368421 113.755762 
z
" clip-path="url(#p9aa03c19b5)" style="fill: #1f77b4"/>
   </g>
   <g id="patch_132">
    <path d="M 1006.99776 246.90101 
L 1010.264166 246.90101 
L 1010.264166 149.559527 
L 1006.99776 149.559527 
z
" clip-path="url(#p9aa03c19b5)" style="fill: #1f77b4"/>
   </g>
   <g id="patch_133">
    <path d="M 1010.6271 246.90101 
L 1013.893506 246.90101 
L 1013.893506 185.363291 
L 1010.6271 185.363291 
z
" clip-path="url(#p9aa03c19b5)" style="fill: #1f77b4"/>
   </g>
   <g id="patch_134">
    <path d="M 1014.25644 246.90101 
L 1017.522846 246.90101 
L 1017.522846 183.125555 
L 1014.25644 183.125555 
z
" clip-path="url(#p9aa03c19b5)" style="fill: #1f77b4"/>
   </g>
   <g id="patch_135">
    <path d="M 1017.88578 246.90101 
L 1021.152186 246.90101 
L 1021.152186 205.502908 
L 1017.88578 205.502908 
z
" clip-path="url(#p9aa03c19b5)" style="fill: #1f77b4"/>
   </g>
   <g id="patch_136">
    <path d="M 1021.51512 246.90101 
L 1024.781526 246.90101 
L 1024.781526 221.167055 
L 1021.51512 221.167055 
z
" clip-path="url(#p9aa03c19b5)" style="fill: #1f77b4"/>
   </g>
   <g id="patch_137">
    <path d="M 1025.14446 246.90101 
L 1028.410866 246.90101 
L 1028.410866 234.593466 
L 1025.14446 234.593466 
z
" clip-path="url(#p9aa03c19b5)" style="fill: #1f77b4"/>
   </g>
   <g id="patch_138">
    <path d="M 1028.7738 246.90101 
L 1032.040206 246.90101 
L 1032.040206 239.068937 
L 1028.7738 239.068937 
z
" clip-path="url(#p9aa03c19b5)" style="fill: #1f77b4"/>
   </g>
   <g id="patch_139">
    <path d="M 1032.40314 246.90101 
L 1035.669546 246.90101 
L 1035.669546 241.306672 
L 1032.40314 241.306672 
z
" clip-path="url(#p9aa03c19b5)" style="fill: #1f77b4"/>
   </g>
   <g id="matplotlib.axis_7">
    <g id="xtick_12">
     <g id="line2d_42">
      <g>
       <use xlink:href="#mbb57fd1286" x="900.170677" y="246.90101" style="stroke: #000000; stroke-width: 0.8"/>
      </g>
     </g>
     <g id="text_41">
      <!-- 0.35 -->
      <g transform="translate(884.58474 264.538822) scale(0.14 -0.14)">
       <use xlink:href="#DejaVuSans-30"/>
       <use xlink:href="#DejaVuSans-2e" transform="translate(63.623047 0)"/>
       <use xlink:href="#DejaVuSans-33" transform="translate(95.410156 0)"/>
       <use xlink:href="#DejaVuSans-35" transform="translate(159.033203 0)"/>
      </g>
     </g>
    </g>
    <g id="xtick_13">
     <g id="line2d_43">
      <g>
       <use xlink:href="#mbb57fd1286" x="978.197892" y="246.90101" style="stroke: #000000; stroke-width: 0.8"/>
      </g>
     </g>
     <g id="text_42">
      <!-- 0.40 -->
      <g transform="translate(962.611955 264.538822) scale(0.14 -0.14)">
       <use xlink:href="#DejaVuSans-30"/>
       <use xlink:href="#DejaVuSans-2e" transform="translate(63.623047 0)"/>
       <use xlink:href="#DejaVuSans-34" transform="translate(95.410156 0)"/>
       <use xlink:href="#DejaVuSans-30" transform="translate(159.033203 0)"/>
      </g>
     </g>
    </g>
    <g id="xtick_14">
     <g id="line2d_44">
      <g>
       <use xlink:href="#mbb57fd1286" x="1056.225108" y="246.90101" style="stroke: #000000; stroke-width: 0.8"/>
      </g>
     </g>
     <g id="text_43">
      <!-- 0.45 -->
      <g transform="translate(1040.63917 264.538822) scale(0.14 -0.14)">
       <use xlink:href="#DejaVuSans-30"/>
       <use xlink:href="#DejaVuSans-2e" transform="translate(63.623047 0)"/>
       <use xlink:href="#DejaVuSans-34" transform="translate(95.410156 0)"/>
       <use xlink:href="#DejaVuSans-35" transform="translate(159.033203 0)"/>
      </g>
     </g>
    </g>
    <g id="xtick_15">
     <g id="line2d_45">
      <g>
       <use xlink:href="#mbb57fd1286" x="1134.252323" y="246.90101" style="stroke: #000000; stroke-width: 0.8"/>
      </g>
     </g>
     <g id="text_44">
      <!-- 0.50 -->
      <g transform="translate(1118.666385 264.538822) scale(0.14 -0.14)">
       <use xlink:href="#DejaVuSans-30"/>
       <use xlink:href="#DejaVuSans-2e" transform="translate(63.623047 0)"/>
       <use xlink:href="#DejaVuSans-35" transform="translate(95.410156 0)"/>
       <use xlink:href="#DejaVuSans-30" transform="translate(159.033203 0)"/>
      </g>
     </g>
    </g>
    <g id="text_45">
     <!-- $\nu_{23}$ [-] -->
     <g transform="translate(996.6315 282.088197) scale(0.14 -0.14)">
      <use xlink:href="#DejaVuSans-Oblique-3bd" transform="translate(0 0.015625)"/>
      <use xlink:href="#DejaVuSans-32" transform="translate(55.859375 -16.390625) scale(0.7)"/>
      <use xlink:href="#DejaVuSans-33" transform="translate(100.395508 -16.390625) scale(0.7)"/>
      <use xlink:href="#DejaVuSans-20" transform="translate(147.666016 0.015625)"/>
      <use xlink:href="#DejaVuSans-5b" transform="translate(179.453125 0.015625)"/>
      <use xlink:href="#DejaVuSans-2d" transform="translate(218.466797 0.015625)"/>
      <use xlink:href="#DejaVuSans-5d" transform="translate(254.550781 0.015625)"/>
     </g>
    </g>
   </g>
   <g id="matplotlib.axis_8">
    <g id="ytick_21">
     <g id="line2d_46">
      <g>
       <use xlink:href="#m9d16001a04" x="900.170677" y="246.90101" style="stroke: #000000; stroke-width: 0.8"/>
      </g>
     </g>
     <g id="text_46">
      <!-- 0 -->
      <g transform="translate(884.263177 252.219916) scale(0.14 -0.14)">
       <use xlink:href="#DejaVuSans-30"/>
      </g>
     </g>
    </g>
    <g id="ytick_22">
     <g id="line2d_47">
      <g>
       <use xlink:href="#m9d16001a04" x="900.170677" y="191.527523" style="stroke: #000000; stroke-width: 0.8"/>
      </g>
     </g>
     <g id="text_47">
      <!-- 10 -->
      <g transform="translate(875.355677 196.846429) scale(0.14 -0.14)">
       <use xlink:href="#DejaVuSans-31"/>
       <use xlink:href="#DejaVuSans-30" transform="translate(63.623047 0)"/>
      </g>
     </g>
    </g>
    <g id="ytick_23">
     <g id="line2d_48">
      <g>
       <use xlink:href="#m9d16001a04" x="900.170677" y="136.154035" style="stroke: #000000; stroke-width: 0.8"/>
      </g>
     </g>
     <g id="text_48">
      <!-- 20 -->
      <g transform="translate(875.355677 141.472942) scale(0.14 -0.14)">
       <use xlink:href="#DejaVuSans-32"/>
       <use xlink:href="#DejaVuSans-30" transform="translate(63.623047 0)"/>
      </g>
     </g>
    </g>
    <g id="ytick_24">
     <g id="line2d_49">
      <g>
       <use xlink:href="#m9d16001a04" x="900.170677" y="80.780548" style="stroke: #000000; stroke-width: 0.8"/>
      </g>
     </g>
     <g id="text_49">
      <!-- 30 -->
      <g transform="translate(875.355677 86.099454) scale(0.14 -0.14)">
       <use xlink:href="#DejaVuSans-33"/>
       <use xlink:href="#DejaVuSans-30" transform="translate(63.623047 0)"/>
      </g>
     </g>
    </g>
    <g id="ytick_25">
     <g id="line2d_50">
      <g>
       <use xlink:href="#m9d16001a04" x="900.170677" y="25.407061" style="stroke: #000000; stroke-width: 0.8"/>
      </g>
     </g>
     <g id="text_50">
      <!-- 40 -->
      <g transform="translate(875.355677 30.725967) scale(0.14 -0.14)">
       <use xlink:href="#DejaVuSans-34"/>
       <use xlink:href="#DejaVuSans-30" transform="translate(63.623047 0)"/>
      </g>
     </g>
    </g>
   </g>
   <g id="line2d_51">
    <path d="M 900.170677 246.901007 
L 904.947854 246.90099 
L 909.72503 246.9009 
L 914.502207 246.900464 
L 919.279383 246.898544 
L 924.05656 246.890857 
L 928.833736 246.862952 
L 933.610912 246.771115 
L 938.388089 246.497327 
L 943.165265 245.758685 
L 947.942442 243.957665 
L 952.719618 239.995522 
L 957.496795 232.149062 
L 962.273971 218.20601 
L 967.051147 196.077466 
L 971.828324 164.936563 
L 976.6055 126.539417 
L 981.382677 85.965384 
L 986.159853 50.963173 
L 990.93703 29.68778 
L 995.714206 27.642687 
L 1000.491382 45.376556 
L 1005.268559 78.245215 
L 1010.045735 118.379259 
L 1014.822912 157.723807 
L 1019.600088 190.558925 
L 1024.377265 214.488413 
L 1029.154441 229.922617 
L 1033.931617 238.802946 
L 1038.708794 243.384048 
L 1043.48597 245.510238 
L 1048.263147 246.400231 
L 1053.040323 246.736823 
L 1057.8175 246.851995 
L 1062.594676 246.887686 
L 1067.371852 246.897712 
L 1072.149029 246.900267 
L 1076.926205 246.900857 
L 1081.703382 246.900982 
L 1086.480558 246.901005 
L 1091.257735 246.901009 
L 1096.034911 246.90101 
L 1100.812087 246.90101 
L 1105.589264 246.90101 
L 1110.36644 246.90101 
L 1115.143617 246.90101 
L 1119.920793 246.90101 
L 1124.69797 246.90101 
L 1129.475146 246.90101 
L 1134.252323 246.90101 
" clip-path="url(#p9aa03c19b5)" style="fill: none; stroke: #2ca02c; stroke-width: 1.5; stroke-linecap: square"/>
   </g>
   <g id="line2d_52">
    <path d="M 993.803335 246.90101 
L 993.803335 16.638052 
" clip-path="url(#p9aa03c19b5)" style="fill: none; stroke: #d62728; stroke-width: 1.5; stroke-linecap: square"/>
   </g>
   <g id="line2d_53">
    <path d="M 1071.830551 246.90101 
L 1071.830551 16.638052 
" clip-path="url(#p9aa03c19b5)" style="fill: none; stroke: #d62728; stroke-width: 1.5; stroke-linecap: square"/>
   </g>
   <g id="patch_140">
    <path d="M 900.170677 246.90101 
L 900.170677 16.638052 
" style="fill: none; stroke: #000000; stroke-width: 0.8; stroke-linejoin: miter; stroke-linecap: square"/>
   </g>
   <g id="patch_141">
    <path d="M 1134.252323 246.90101 
L 1134.252323 16.638052 
" style="fill: none; stroke: #000000; stroke-width: 0.8; stroke-linejoin: miter; stroke-linecap: square"/>
   </g>
   <g id="patch_142">
    <path d="M 900.170677 246.90101 
L 1134.252323 246.90101 
" style="fill: none; stroke: #000000; stroke-width: 0.8; stroke-linejoin: miter; stroke-linecap: square"/>
   </g>
   <g id="patch_143">
    <path d="M 900.170677 16.638052 
L 1134.252323 16.638052 
" style="fill: none; stroke: #000000; stroke-width: 0.8; stroke-linejoin: miter; stroke-linecap: square"/>
   </g>
  </g>
  <g id="axes_5">
   <g id="patch_144">
    <path d="M 1202.918115 246.90101 
L 1436.99976 246.90101 
L 1436.99976 16.638052 
L 1202.918115 16.638052 
z
" style="fill: #ffffff"/>
   </g>
   <g id="patch_145">
    <path d="M 1227.30562 246.90101 
L 1231.711037 246.90101 
L 1231.711037 245.801527 
L 1227.30562 245.801527 
z
" clip-path="url(#p605eda466e)" style="fill: #1f77b4"/>
   </g>
   <g id="patch_146">
    <path d="M 1232.200528 246.90101 
L 1236.605945 246.90101 
L 1236.605945 242.503076 
L 1232.200528 242.503076 
z
" clip-path="url(#p605eda466e)" style="fill: #1f77b4"/>
   </g>
   <g id="patch_147">
    <path d="M 1237.095435 246.90101 
L 1241.500852 246.90101 
L 1241.500852 243.60256 
L 1237.095435 243.60256 
z
" clip-path="url(#p605eda466e)" style="fill: #1f77b4"/>
   </g>
   <g id="patch_148">
    <path d="M 1241.990343 246.90101 
L 1246.39576 246.90101 
L 1246.39576 234.806692 
L 1241.990343 234.806692 
z
" clip-path="url(#p605eda466e)" style="fill: #1f77b4"/>
   </g>
   <g id="patch_149">
    <path d="M 1246.88525 246.90101 
L 1251.290667 246.90101 
L 1251.290667 234.806692 
L 1246.88525 234.806692 
z
" clip-path="url(#p605eda466e)" style="fill: #1f77b4"/>
   </g>
   <g id="patch_150">
    <path d="M 1251.780158 246.90101 
L 1256.185575 246.90101 
L 1256.185575 224.911341 
L 1251.780158 224.911341 
z
" clip-path="url(#p605eda466e)" style="fill: #1f77b4"/>
   </g>
   <g id="patch_151">
    <path d="M 1256.675066 246.90101 
L 1261.080482 246.90101 
L 1261.080482 210.618057 
L 1256.675066 210.618057 
z
" clip-path="url(#p605eda466e)" style="fill: #1f77b4"/>
   </g>
   <g id="patch_152">
    <path d="M 1261.569973 246.90101 
L 1265.97539 246.90101 
L 1265.97539 197.424256 
L 1261.569973 197.424256 
z
" clip-path="url(#p605eda466e)" style="fill: #1f77b4"/>
   </g>
   <g id="patch_153">
    <path d="M 1266.464881 246.90101 
L 1270.870297 246.90101 
L 1270.870297 187.528905 
L 1266.464881 187.528905 
z
" clip-path="url(#p605eda466e)" style="fill: #1f77b4"/>
   </g>
   <g id="patch_154">
    <path d="M 1271.359788 246.90101 
L 1275.765205 246.90101 
L 1275.765205 160.041819 
L 1271.359788 160.041819 
z
" clip-path="url(#p605eda466e)" style="fill: #1f77b4"/>
   </g>
   <g id="patch_155">
    <path d="M 1276.254696 246.90101 
L 1280.660112 246.90101 
L 1280.660112 138.05215 
L 1276.254696 138.05215 
z
" clip-path="url(#p605eda466e)" style="fill: #1f77b4"/>
   </g>
   <g id="patch_156">
    <path d="M 1281.149603 246.90101 
L 1285.55502 246.90101 
L 1285.55502 111.664548 
L 1281.149603 111.664548 
z
" clip-path="url(#p605eda466e)" style="fill: #1f77b4"/>
   </g>
   <g id="patch_157">
    <path d="M 1286.044511 246.90101 
L 1290.449927 246.90101 
L 1290.449927 92.973329 
L 1286.044511 92.973329 
z
" clip-path="url(#p605eda466e)" style="fill: #1f77b4"/>
   </g>
   <g id="patch_158">
    <path d="M 1290.939418 246.90101 
L 1295.344835 246.90101 
L 1295.344835 91.873846 
L 1290.939418 91.873846 
z
" clip-path="url(#p605eda466e)" style="fill: #1f77b4"/>
   </g>
   <g id="patch_159">
    <path d="M 1295.834326 246.90101 
L 1300.239742 246.90101 
L 1300.239742 61.08831 
L 1295.834326 61.08831 
z
" clip-path="url(#p605eda466e)" style="fill: #1f77b4"/>
   </g>
   <g id="patch_160">
    <path d="M 1300.729233 246.90101 
L 1305.13465 246.90101 
L 1305.13465 58.889343 
L 1300.729233 58.889343 
z
" clip-path="url(#p605eda466e)" style="fill: #1f77b4"/>
   </g>
   <g id="patch_161">
    <path d="M 1305.624141 246.90101 
L 1310.029557 246.90101 
L 1310.029557 56.690376 
L 1305.624141 56.690376 
z
" clip-path="url(#p605eda466e)" style="fill: #1f77b4"/>
   </g>
   <g id="patch_162">
    <path d="M 1310.519048 246.90101 
L 1314.924465 246.90101 
L 1314.924465 65.486244 
L 1310.519048 65.486244 
z
" clip-path="url(#p605eda466e)" style="fill: #1f77b4"/>
   </g>
   <g id="patch_163">
    <path d="M 1315.413956 246.90101 
L 1319.819372 246.90101 
L 1319.819372 68.784694 
L 1315.413956 68.784694 
z
" clip-path="url(#p605eda466e)" style="fill: #1f77b4"/>
   </g>
   <g id="patch_164">
    <path d="M 1320.308863 246.90101 
L 1324.71428 246.90101 
L 1324.71428 111.664548 
L 1320.308863 111.664548 
z
" clip-path="url(#p605eda466e)" style="fill: #1f77b4"/>
   </g>
   <g id="patch_165">
    <path d="M 1325.203771 246.90101 
L 1329.609188 246.90101 
L 1329.609188 106.167131 
L 1325.203771 106.167131 
z
" clip-path="url(#p605eda466e)" style="fill: #1f77b4"/>
   </g>
   <g id="patch_166">
    <path d="M 1330.098678 246.90101 
L 1334.504095 246.90101 
L 1334.504095 160.041819 
L 1330.098678 160.041819 
z
" clip-path="url(#p605eda466e)" style="fill: #1f77b4"/>
   </g>
   <g id="patch_167">
    <path d="M 1334.993586 246.90101 
L 1339.399003 246.90101 
L 1339.399003 182.031487 
L 1334.993586 182.031487 
z
" clip-path="url(#p605eda466e)" style="fill: #1f77b4"/>
   </g>
   <g id="patch_168">
    <path d="M 1339.888493 246.90101 
L 1344.29391 246.90101 
L 1344.29391 186.429421 
L 1339.888493 186.429421 
z
" clip-path="url(#p605eda466e)" style="fill: #1f77b4"/>
   </g>
   <g id="patch_169">
    <path d="M 1344.783401 246.90101 
L 1349.188818 246.90101 
L 1349.188818 207.319606 
L 1344.783401 207.319606 
z
" clip-path="url(#p605eda466e)" style="fill: #1f77b4"/>
   </g>
   <g id="patch_170">
    <path d="M 1349.678308 246.90101 
L 1354.083725 246.90101 
L 1354.083725 221.612891 
L 1349.678308 221.612891 
z
" clip-path="url(#p605eda466e)" style="fill: #1f77b4"/>
   </g>
   <g id="patch_171">
    <path d="M 1354.573216 246.90101 
L 1358.978633 246.90101 
L 1358.978633 233.707209 
L 1354.573216 233.707209 
z
" clip-path="url(#p605eda466e)" style="fill: #1f77b4"/>
   </g>
   <g id="patch_172">
    <path d="M 1359.468123 246.90101 
L 1363.87354 246.90101 
L 1363.87354 242.503076 
L 1359.468123 242.503076 
z
" clip-path="url(#p605eda466e)" style="fill: #1f77b4"/>
   </g>
   <g id="patch_173">
    <path d="M 1364.363031 246.90101 
L 1368.768448 246.90101 
L 1368.768448 245.801527 
L 1364.363031 245.801527 
z
" clip-path="url(#p605eda466e)" style="fill: #1f77b4"/>
   </g>
   <g id="patch_174">
    <path d="M 1369.257938 246.90101 
L 1373.663355 246.90101 
L 1373.663355 242.503076 
L 1369.257938 242.503076 
z
" clip-path="url(#p605eda466e)" style="fill: #1f77b4"/>
   </g>
   <g id="matplotlib.axis_9">
    <g id="xtick_16">
     <g id="line2d_54">
      <g>
       <use xlink:href="#mbb57fd1286" x="1202.918115" y="246.90101" style="stroke: #000000; stroke-width: 0.8"/>
      </g>
     </g>
     <g id="text_51">
      <!-- 4600 -->
      <g transform="translate(1185.103115 264.538822) scale(0.14 -0.14)">
       <use xlink:href="#DejaVuSans-34"/>
       <use xlink:href="#DejaVuSans-36" transform="translate(63.623047 0)"/>
       <use xlink:href="#DejaVuSans-30" transform="translate(127.246094 0)"/>
       <use xlink:href="#DejaVuSans-30" transform="translate(190.869141 0)"/>
      </g>
     </g>
    </g>
    <g id="xtick_17">
     <g id="line2d_55">
      <g>
       <use xlink:href="#mbb57fd1286" x="1254.936258" y="246.90101" style="stroke: #000000; stroke-width: 0.8"/>
      </g>
     </g>
     <g id="text_52">
      <!-- 4800 -->
      <g transform="translate(1237.121258 264.538822) scale(0.14 -0.14)">
       <use xlink:href="#DejaVuSans-34"/>
       <use xlink:href="#DejaVuSans-38" transform="translate(63.623047 0)"/>
       <use xlink:href="#DejaVuSans-30" transform="translate(127.246094 0)"/>
       <use xlink:href="#DejaVuSans-30" transform="translate(190.869141 0)"/>
      </g>
     </g>
    </g>
    <g id="xtick_18">
     <g id="line2d_56">
      <g>
       <use xlink:href="#mbb57fd1286" x="1306.954402" y="246.90101" style="stroke: #000000; stroke-width: 0.8"/>
      </g>
     </g>
     <g id="text_53">
      <!-- 5000 -->
      <g transform="translate(1289.139402 264.538822) scale(0.14 -0.14)">
       <use xlink:href="#DejaVuSans-35"/>
       <use xlink:href="#DejaVuSans-30" transform="translate(63.623047 0)"/>
       <use xlink:href="#DejaVuSans-30" transform="translate(127.246094 0)"/>
       <use xlink:href="#DejaVuSans-30" transform="translate(190.869141 0)"/>
      </g>
     </g>
    </g>
    <g id="xtick_19">
     <g id="line2d_57">
      <g>
       <use xlink:href="#mbb57fd1286" x="1358.972545" y="246.90101" style="stroke: #000000; stroke-width: 0.8"/>
      </g>
     </g>
     <g id="text_54">
      <!-- 5200 -->
      <g transform="translate(1341.157545 264.538822) scale(0.14 -0.14)">
       <use xlink:href="#DejaVuSans-35"/>
       <use xlink:href="#DejaVuSans-32" transform="translate(63.623047 0)"/>
       <use xlink:href="#DejaVuSans-30" transform="translate(127.246094 0)"/>
       <use xlink:href="#DejaVuSans-30" transform="translate(190.869141 0)"/>
      </g>
     </g>
    </g>
    <g id="xtick_20">
     <g id="line2d_58">
      <g>
       <use xlink:href="#mbb57fd1286" x="1410.990688" y="246.90101" style="stroke: #000000; stroke-width: 0.8"/>
      </g>
     </g>
     <g id="text_55">
      <!-- 5400 -->
      <g transform="translate(1393.175688 264.538822) scale(0.14 -0.14)">
       <use xlink:href="#DejaVuSans-35"/>
       <use xlink:href="#DejaVuSans-34" transform="translate(63.623047 0)"/>
       <use xlink:href="#DejaVuSans-30" transform="translate(127.246094 0)"/>
       <use xlink:href="#DejaVuSans-30" transform="translate(190.869141 0)"/>
      </g>
     </g>
    </g>
    <g id="text_56">
     <!-- $G_{12}$ [MPa] -->
     <g transform="translate(1285.868938 282.088197) scale(0.14 -0.14)">
      <defs>
       <path id="DejaVuSans-Oblique-47" d="M 3494 697 
L 3738 1919 
L 2700 1919 
L 2797 2438 
L 4453 2438 
L 4050 384 
Q 3634 156 3143 32 
Q 2653 -91 2156 -91 
Q 1278 -91 783 396 
Q 288 884 288 1753 
Q 288 2475 589 3126 
Q 891 3778 1422 4213 
Q 1756 4484 2153 4617 
Q 2550 4750 3034 4750 
Q 3472 4750 3873 4639 
Q 4275 4528 4641 4306 
L 4513 3634 
Q 4231 3928 3853 4083 
Q 3475 4238 3047 4238 
Q 2550 4238 2172 4048 
Q 1794 3859 1497 3463 
Q 1244 3125 1098 2667 
Q 953 2209 953 1734 
Q 953 1081 1287 751 
Q 1622 422 2284 422 
Q 2616 422 2925 492 
Q 3234 563 3494 697 
z
" transform="scale(0.015625)"/>
      </defs>
      <use xlink:href="#DejaVuSans-Oblique-47" transform="translate(0 0.015625)"/>
      <use xlink:href="#DejaVuSans-31" transform="translate(77.490234 -16.390625) scale(0.7)"/>
      <use xlink:href="#DejaVuSans-32" transform="translate(122.026367 -16.390625) scale(0.7)"/>
      <use xlink:href="#DejaVuSans-20" transform="translate(169.296875 0.015625)"/>
      <use xlink:href="#DejaVuSans-5b" transform="translate(201.083984 0.015625)"/>
      <use xlink:href="#DejaVuSans-4d" transform="translate(240.097656 0.015625)"/>
      <use xlink:href="#DejaVuSans-50" transform="translate(326.376953 0.015625)"/>
      <use xlink:href="#DejaVuSans-61" transform="translate(386.679688 0.015625)"/>
      <use xlink:href="#DejaVuSans-5d" transform="translate(447.958984 0.015625)"/>
     </g>
    </g>
   </g>
   <g id="matplotlib.axis_10">
    <g id="ytick_26">
     <g id="line2d_59">
      <g>
       <use xlink:href="#m9d16001a04" x="1202.918115" y="246.90101" style="stroke: #000000; stroke-width: 0.8"/>
      </g>
     </g>
     <g id="text_57">
      <!-- 0.000 -->
      <g transform="translate(1155.83874 252.219916) scale(0.14 -0.14)">
       <use xlink:href="#DejaVuSans-30"/>
       <use xlink:href="#DejaVuSans-2e" transform="translate(63.623047 0)"/>
       <use xlink:href="#DejaVuSans-30" transform="translate(95.410156 0)"/>
       <use xlink:href="#DejaVuSans-30" transform="translate(159.033203 0)"/>
       <use xlink:href="#DejaVuSans-30" transform="translate(222.65625 0)"/>
      </g>
     </g>
    </g>
    <g id="ytick_27">
     <g id="line2d_60">
      <g>
       <use xlink:href="#m9d16001a04" x="1202.918115" y="202.86784" style="stroke: #000000; stroke-width: 0.8"/>
      </g>
     </g>
     <g id="text_58">
      <!-- 0.001 -->
      <g transform="translate(1155.83874 208.186746) scale(0.14 -0.14)">
       <use xlink:href="#DejaVuSans-30"/>
       <use xlink:href="#DejaVuSans-2e" transform="translate(63.623047 0)"/>
       <use xlink:href="#DejaVuSans-30" transform="translate(95.410156 0)"/>
       <use xlink:href="#DejaVuSans-30" transform="translate(159.033203 0)"/>
       <use xlink:href="#DejaVuSans-31" transform="translate(222.65625 0)"/>
      </g>
     </g>
    </g>
    <g id="ytick_28">
     <g id="line2d_61">
      <g>
       <use xlink:href="#m9d16001a04" x="1202.918115" y="158.83467" style="stroke: #000000; stroke-width: 0.8"/>
      </g>
     </g>
     <g id="text_59">
      <!-- 0.002 -->
      <g transform="translate(1155.83874 164.153576) scale(0.14 -0.14)">
       <use xlink:href="#DejaVuSans-30"/>
       <use xlink:href="#DejaVuSans-2e" transform="translate(63.623047 0)"/>
       <use xlink:href="#DejaVuSans-30" transform="translate(95.410156 0)"/>
       <use xlink:href="#DejaVuSans-30" transform="translate(159.033203 0)"/>
       <use xlink:href="#DejaVuSans-32" transform="translate(222.65625 0)"/>
      </g>
     </g>
    </g>
    <g id="ytick_29">
     <g id="line2d_62">
      <g>
       <use xlink:href="#m9d16001a04" x="1202.918115" y="114.8015" style="stroke: #000000; stroke-width: 0.8"/>
      </g>
     </g>
     <g id="text_60">
      <!-- 0.003 -->
      <g transform="translate(1155.83874 120.120406) scale(0.14 -0.14)">
       <use xlink:href="#DejaVuSans-30"/>
       <use xlink:href="#DejaVuSans-2e" transform="translate(63.623047 0)"/>
       <use xlink:href="#DejaVuSans-30" transform="translate(95.410156 0)"/>
       <use xlink:href="#DejaVuSans-30" transform="translate(159.033203 0)"/>
       <use xlink:href="#DejaVuSans-33" transform="translate(222.65625 0)"/>
      </g>
     </g>
    </g>
    <g id="ytick_30">
     <g id="line2d_63">
      <g>
       <use xlink:href="#m9d16001a04" x="1202.918115" y="70.76833" style="stroke: #000000; stroke-width: 0.8"/>
      </g>
     </g>
     <g id="text_61">
      <!-- 0.004 -->
      <g transform="translate(1155.83874 76.087236) scale(0.14 -0.14)">
       <use xlink:href="#DejaVuSans-30"/>
       <use xlink:href="#DejaVuSans-2e" transform="translate(63.623047 0)"/>
       <use xlink:href="#DejaVuSans-30" transform="translate(95.410156 0)"/>
       <use xlink:href="#DejaVuSans-30" transform="translate(159.033203 0)"/>
       <use xlink:href="#DejaVuSans-34" transform="translate(222.65625 0)"/>
      </g>
     </g>
    </g>
    <g id="ytick_31">
     <g id="line2d_64">
      <g>
       <use xlink:href="#m9d16001a04" x="1202.918115" y="26.73516" style="stroke: #000000; stroke-width: 0.8"/>
      </g>
     </g>
     <g id="text_62">
      <!-- 0.005 -->
      <g transform="translate(1155.83874 32.054066) scale(0.14 -0.14)">
       <use xlink:href="#DejaVuSans-30"/>
       <use xlink:href="#DejaVuSans-2e" transform="translate(63.623047 0)"/>
       <use xlink:href="#DejaVuSans-30" transform="translate(95.410156 0)"/>
       <use xlink:href="#DejaVuSans-30" transform="translate(159.033203 0)"/>
       <use xlink:href="#DejaVuSans-35" transform="translate(222.65625 0)"/>
      </g>
     </g>
    </g>
   </g>
   <g id="line2d_65">
    <path d="M 1202.918115 246.900192 
L 1207.695291 246.898498 
L 1212.472468 246.893695 
L 1217.249644 246.8808 
L 1222.026821 246.848045 
L 1226.803997 246.769329 
L 1231.581174 246.590437 
L 1236.35835 246.206123 
L 1241.135526 245.426081 
L 1245.912703 243.931154 
L 1250.689879 241.228087 
L 1255.467056 236.621183 
L 1260.244232 229.229568 
L 1265.021409 218.082902 
L 1269.798585 202.318324 
L 1274.575761 181.471408 
L 1279.352938 155.807042 
L 1284.130114 126.588093 
L 1288.907291 96.156266 
L 1293.684467 67.725193 
L 1298.461644 44.867273 
L 1303.23882 30.790597 
L 1308.015996 27.602955 
L 1312.793173 35.794729 
L 1317.570349 54.115307 
L 1322.347526 79.885894 
L 1327.124702 109.640999 
L 1331.901879 139.887264 
L 1336.679055 167.752563 
L 1341.456231 191.367833 
L 1346.233408 209.937779 
L 1351.010584 223.561344 
L 1355.787761 232.920384 
L 1360.564937 238.956522 
L 1365.342114 242.618361 
L 1370.11929 244.710898 
L 1374.896466 245.838514 
L 1379.673643 246.412025 
L 1384.450819 246.687523 
L 1389.227996 246.812589 
L 1394.005172 246.866269 
L 1398.782349 246.888061 
L 1403.559525 246.896431 
L 1408.336701 246.899474 
L 1413.113878 246.900521 
L 1417.891054 246.900862 
L 1422.668231 246.900968 
L 1427.445407 246.900999 
L 1432.222584 246.901007 
L 1436.99976 246.901009 
" clip-path="url(#p605eda466e)" style="fill: none; stroke: #2ca02c; stroke-width: 1.5; stroke-linecap: square"/>
   </g>
   <g id="line2d_66">
    <path d="M 1286.147144 246.90101 
L 1286.147144 16.638052 
" clip-path="url(#p605eda466e)" style="fill: none; stroke: #d62728; stroke-width: 1.5; stroke-linecap: square"/>
   </g>
   <g id="line2d_67">
    <path d="M 1387.582524 246.90101 
L 1387.582524 16.638052 
" clip-path="url(#p605eda466e)" style="fill: none; stroke: #d62728; stroke-width: 1.5; stroke-linecap: square"/>
   </g>
   <g id="patch_175">
    <path d="M 1202.918115 246.90101 
L 1202.918115 16.638052 
" style="fill: none; stroke: #000000; stroke-width: 0.8; stroke-linejoin: miter; stroke-linecap: square"/>
   </g>
   <g id="patch_176">
    <path d="M 1436.99976 246.90101 
L 1436.99976 16.638052 
" style="fill: none; stroke: #000000; stroke-width: 0.8; stroke-linejoin: miter; stroke-linecap: square"/>
   </g>
   <g id="patch_177">
    <path d="M 1202.918115 246.90101 
L 1436.99976 246.90101 
" style="fill: none; stroke: #000000; stroke-width: 0.8; stroke-linejoin: miter; stroke-linecap: square"/>
   </g>
   <g id="patch_178">
    <path d="M 1202.918115 16.638052 
L 1436.99976 16.638052 
" style="fill: none; stroke: #000000; stroke-width: 0.8; stroke-linejoin: miter; stroke-linecap: square"/>
   </g>
  </g>
 </g>
 <defs>
  <clipPath id="p398317a9b1">
   <rect x="58.72149" y="16.638052" width="234.081645" height="230.262958"/>
  </clipPath>
  <clipPath id="pced372ffd1">
   <rect x="354.79049" y="16.638052" width="234.081645" height="230.262958"/>
  </clipPath>
  <clipPath id="pb2fdafabb0">
   <rect x="619.687615" y="16.638052" width="234.081645" height="230.262958"/>
  </clipPath>
  <clipPath id="p9aa03c19b5">
   <rect x="900.170677" y="16.638052" width="234.081645" height="230.262958"/>
  </clipPath>
  <clipPath id="p605eda466e">
   <rect x="1202.918115" y="16.638052" width="234.081645" height="230.262958"/>
  </clipPath>
 </defs>
</svg>
